<?xml version="1.0" encoding="UTF-8"?>
<svg xmlns="http://www.w3.org/2000/svg" xmlns:xlink="http://www.w3.org/1999/xlink" version="1.2" >
<font id="Tomkin ExtraBold">
<font-face  font-family="Tomkin" units-per-em="1000" ascent="750" descent="-250" font-style="normal" font-weight="800" font-stretch="normal" cap-height="700" x-height="515" underline-position="-91" underline-thickness="35" />
<missing-glyph  horiz-adv-x="569" d="" />
<glyph glyph-name="space" unicode="&#x20;" horiz-adv-x="182" d="" />
<glyph glyph-name="exclam" unicode="&#x21;" horiz-adv-x="278" d="M179 168 C190 168 197 176 198 187 L211 303 L211 681 C211 692 203 700 192 700 L86 700 C75 700 67 692 67 681 L67 303 L80 187 C81 176 88 168 99 168 L179 168 Z M65 13 C65 2 73 -6 84 -6 L194 -6 C205 -6 213 2 213 13 L213 110 C213 121 205 129 194 129 L84 129 C73 129 65 121 65 110 L65 13 Z " />
<glyph glyph-name="quotedbl" unicode="&#x22;" horiz-adv-x="472" d="M168 439 C179 439 186 447 187 458 L200 579 L200 681 C200 692 192 700 181 700 L84 700 C73 700 65 692 65 681 L65 579 L79 458 C80 447 87 439 98 439 L168 439 Z M375 439 C386 439 393 447 394 458 L407 579 L407 681 C407 692 399 700 388 700 L291 700 C280 700 272 692 272 681 L272 579 L286 458 C287 447 294 439 305 439 L375 439 Z " />
<glyph glyph-name="numbersign" unicode="&#x23;" horiz-adv-x="823" d="M377 23 C377 12 385 4 396 4 L502 4 C513 4 521 12 524 23 L560 136 L625 136 C636 136 644 144 644 155 L644 251 C644 262 636 270 625 270 L602 270 L653 429 L739 429 C750 429 758 437 758 448 L758 544 C758 555 750 563 739 563 L695 563 L733 681 C733 692 725 700 714 700 L608 700 C597 700 589 692 586 681 L548 563 L423 563 L461 681 C461 692 453 700 442 700 L336 700 C325 700 317 692 314 681 L276 563 L198 563 C187 563 179 555 179 544 L179 448 C179 437 187 429 198 429 L234 429 L183 270 L84 270 C73 270 65 262 65 251 L65 155 C65 144 73 136 84 136 L141 136 L105 23 C105 12 113 4 124 4 L230 4 C241 4 249 12 252 23 L288 136 L413 136 L377 23 Z M381 429 L506 429 L455 270 L330 270 L381 429 Z " />
<glyph glyph-name="dollar" unicode="&#x24;" horiz-adv-x="621" d="M546 529 C546 620 475 694 384 704 L384 813 C384 824 376 832 365 832 L259 832 C248 832 240 824 240 813 L240 705 C142 701 65 624 65 529 L65 507 C65 214 412 335 412 202 L412 178 C412 151 390 129 365 129 L255 129 C230 129 209 151 209 178 L209 204 C209 215 201 223 190 223 L84 223 C73 223 65 215 65 204 L65 171 C65 75 142 -1 240 -5 L240 -118 C240 -129 248 -137 259 -137 L365 -137 C376 -137 384 -129 384 -118 L384 -5 C480 0 556 76 556 171 L556 187 C556 483 209 353 209 496 L209 522 C209 549 231 571 256 571 L356 571 C381 571 402 549 402 522 L402 502 C402 491 410 483 421 483 L527 483 C538 483 546 491 546 502 L546 529 L546 529 Z " />
<glyph glyph-name="percent" unicode="&#x25;" horiz-adv-x="775" d="M172 19 C172 8 180 0 191 0 L297 0 C308 0 314 9 319 19 L609 681 C609 692 601 700 590 700 L484 700 C473 700 467 691 462 681 L172 19 Z M200 700 C126 700 65 640 65 565 C65 491 126 430 200 430 C276 430 336 491 336 565 C336 640 276 700 200 700 L200 700 Z M200 525 C179 525 160 544 160 565 C160 586 179 605 200 605 C222 605 240 586 240 565 C240 544 222 525 200 525 L200 525 Z M575 270 C499 270 439 210 439 135 C439 61 499 0 575 0 C649 0 710 61 710 135 C710 210 649 270 575 270 L575 270 Z M575 95 C553 95 535 114 535 135 C535 156 553 175 575 175 C596 175 615 156 615 135 C615 114 596 95 575 95 L575 95 Z " />
<glyph glyph-name="ampersand" unicode="&#x26;" horiz-adv-x="658" d="M401 286 L401 134 L255 134 C230 134 209 156 209 183 L209 237 C209 264 230 286 255 286 L401 286 Z M545 286 L599 286 C610 286 618 294 618 305 L618 395 C618 406 610 414 599 414 L283 414 C259 414 237 436 237 463 L237 522 C237 549 259 571 283 571 L355 571 C379 571 401 549 401 522 L401 490 C401 479 409 471 420 471 L526 471 C537 471 545 479 545 490 L545 529 C545 627 464 705 363 705 L275 705 C174 705 93 627 93 529 L93 462 C93 425 111 393 131 366 C95 333 65 289 65 238 L65 176 C65 78 146 0 247 0 L526 0 C537 0 545 8 545 19 L545 286 Z " />
<glyph glyph-name="quotesingle" unicode="&#x27;" horiz-adv-x="265" d="M168 439 C179 439 186 447 187 458 L200 579 L200 681 C200 692 192 700 181 700 L84 700 C73 700 65 692 65 681 L65 579 L79 458 C80 447 87 439 98 439 L168 439 Z " />
<glyph glyph-name="parenleft" unicode="&#x28;" horiz-adv-x="324" d="M65 314 C65 161 79 -7 113 -159 C116 -170 124 -178 135 -178 L240 -178 C251 -178 259 -170 259 -159 C224 -5 209 161 209 314 C209 467 224 632 259 786 C259 797 251 805 240 805 L135 805 C124 805 116 797 113 786 C79 634 65 467 65 314 L65 314 Z " />
<glyph glyph-name="parenright" unicode="&#x29;" horiz-adv-x="324" d="M259 314 C259 467 245 634 211 786 C208 797 200 805 189 805 L84 805 C73 805 65 797 65 786 C100 632 115 467 115 314 C115 161 100 -5 65 -159 C65 -170 73 -178 84 -178 L189 -178 C200 -178 208 -170 211 -159 C245 -7 259 161 259 314 L259 314 Z " />
<glyph glyph-name="asterisk" unicode="&#x2a;" horiz-adv-x="500" d="M209 700 C199 700 191 693 191 683 L191 598 L138 632 C135 634 131 636 128 636 C123 636 117 633 113 629 L68 562 C66 558 65 554 65 551 C65 546 67 542 72 538 L155 482 L97 413 C94 410 93 406 93 403 C93 396 98 391 100 389 L161 335 C164 333 168 332 171 332 C177 332 182 334 185 337 L250 413 L315 337 C318 334 323 332 329 332 C332 332 336 333 339 335 L400 389 C402 391 407 396 407 403 C407 406 406 410 403 413 L345 482 L428 538 C433 542 435 546 435 551 C435 554 434 558 432 562 L387 629 C383 633 377 636 372 636 C369 636 365 634 362 632 L309 598 L309 683 C309 693 301 700 291 700 L209 700 Z " />
<glyph glyph-name="plus" unicode="&#x2b;" horiz-adv-x="464" d="M305 315 L305 414 C305 425 297 433 286 433 L180 433 C169 433 161 425 161 414 L161 315 L84 315 C73 315 65 307 65 296 L65 201 C65 190 73 182 84 182 L161 182 L161 84 C161 73 169 65 180 65 L286 65 C297 65 305 73 305 84 L305 182 L380 182 C391 182 399 190 399 201 L399 296 C399 307 391 315 380 315 L305 315 Z " />
<glyph glyph-name="comma" unicode="&#x2c;" horiz-adv-x="330" d="M183 -105 C194 -105 202 -96 206 -87 L265 77 C265 87 258 95 247 95 L147 95 C136 95 128 86 124 77 L65 -87 C65 -97 73 -105 83 -105 L183 -105 Z " />
<glyph glyph-name="hyphen" unicode="&#x2d;" horiz-adv-x="423" d="M339 181 C350 181 358 189 358 200 L358 296 C358 307 350 315 339 315 L84 315 C73 315 65 307 65 296 L65 200 C65 189 73 181 84 181 L339 181 Z " />
<glyph glyph-name="period" unicode="&#x2e;" horiz-adv-x="278" d="M65 14 C65 3 73 -5 84 -5 L194 -5 C205 -5 213 3 213 14 L213 124 C213 135 205 143 194 143 L84 143 C73 143 65 135 65 124 L65 14 Z " />
<glyph glyph-name="slash" unicode="&#x2f;" horiz-adv-x="578" d="M65 -155 C65 -166 73 -174 84 -174 L190 -174 C201 -174 209 -166 212 -155 C307 145 418 485 513 785 C513 796 505 804 494 804 L388 804 C377 804 369 796 366 785 L65 -155 Z " />
<glyph glyph-name="zero" unicode="0" horiz-adv-x="599" d="M244 129 C220 129 199 151 199 178 L199 522 C199 549 220 571 244 571 L355 571 C379 571 400 549 400 522 L400 178 C400 151 379 129 355 129 L244 129 Z M361 -5 C463 -5 544 73 544 171 L544 529 C544 627 463 705 361 705 L238 705 C136 705 55 627 55 529 L55 171 C55 73 136 -5 238 -5 L361 -5 Z " />
<glyph glyph-name="one" unicode="1" horiz-adv-x="553" d="M231 562 L231 134 L93 134 C82 134 74 126 74 115 L74 19 C74 8 82 0 93 0 L514 0 C525 0 533 8 533 19 L533 115 C533 126 525 134 514 134 L375 134 L375 681 C375 692 367 700 356 700 L238 700 L65 633 C54 629 45 623 45 611 L45 517 C45 505 53 497 65 497 L231 562 Z " />
<glyph glyph-name="two" unicode="2" horiz-adv-x="570" d="M45 502 C45 491 53 483 64 483 L170 483 C181 483 189 491 189 502 L189 522 C189 549 210 571 234 571 L335 571 C360 571 381 549 381 522 L381 469 C381 326 45 454 45 159 L45 19 C45 8 53 0 64 0 L506 0 C517 0 525 8 525 19 L525 115 C525 126 517 134 506 134 L189 134 L189 167 C189 311 525 184 525 480 L525 529 C525 627 443 705 342 705 L226 705 C125 705 45 627 45 529 L45 502 Z " />
<glyph glyph-name="three" unicode="3" horiz-adv-x="580" d="M530 246 C530 286 507 326 479 355 C510 385 530 421 530 464 L530 529 C530 627 449 705 348 705 L233 705 C131 705 50 627 50 529 L50 502 C50 491 58 483 69 483 L175 483 C186 483 194 491 194 502 L194 522 C194 549 215 571 239 571 L340 571 C365 571 386 549 386 522 L386 471 C386 443 365 422 340 422 L238 422 C227 422 219 414 219 403 L219 307 C219 296 227 288 238 288 L343 288 C366 285 386 264 386 239 L386 178 C386 151 365 129 340 129 L239 129 C215 129 194 151 194 178 L194 198 C194 209 186 217 175 217 L69 217 C58 217 50 209 50 198 L50 171 C50 73 131 -5 233 -5 L348 -5 C449 -5 530 73 530 171 L530 246 Z " />
<glyph glyph-name="four" unicode="4" horiz-adv-x="579" d="M25 228 L25 161 C25 150 33 142 44 142 L345 142 L345 19 C345 8 353 0 364 0 L470 0 C481 0 489 8 489 19 L489 142 L535 142 C546 142 554 150 554 161 L554 257 C554 268 546 276 535 276 L489 276 L489 445 C489 456 481 464 470 464 L364 464 C353 464 345 456 345 445 L345 276 L204 276 L386 681 C386 692 378 700 367 700 L251 700 C240 700 232 691 228 681 L25 228 Z " />
<glyph glyph-name="five" unicode="5" horiz-adv-x="590" d="M199 194 C199 205 191 213 180 213 L74 213 C63 213 55 205 55 194 L55 171 C55 73 136 -5 238 -5 L363 -5 C464 -5 545 73 545 171 L545 270 C545 368 464 446 363 446 L243 446 C231 446 213 443 199 437 L199 566 L481 566 C492 566 500 574 500 585 L500 681 C500 692 492 700 481 700 L74 700 C63 700 55 692 55 681 L55 296 C55 285 63 277 74 277 L173 277 C185 277 191 280 197 292 C204 306 219 312 231 312 L355 312 C380 312 401 291 401 263 L401 178 C401 151 380 129 355 129 L244 129 C220 129 199 151 199 178 L199 194 Z " />
<glyph glyph-name="six" unicode="6" horiz-adv-x="589" d="M245 129 C220 129 199 151 199 178 L199 258 C199 286 220 307 245 307 L355 307 C379 307 400 286 400 258 L400 178 C400 151 379 129 355 129 L245 129 Z M390 505 C390 494 398 486 409 486 L515 486 C526 486 534 494 534 505 L534 529 C534 627 453 705 352 705 L238 705 C137 705 55 627 55 529 L55 171 C55 73 137 -5 238 -5 L362 -5 C463 -5 544 73 544 171 L544 265 C544 363 463 441 362 441 L244 441 C231 441 213 436 199 427 L199 522 C199 549 220 571 245 571 L344 571 C368 571 390 552 390 522 L390 505 Z " />
<glyph glyph-name="seven" unicode="7" horiz-adv-x="513" d="M145 19 C145 8 153 0 164 0 L269 0 C280 0 288 8 289 19 C314 197 370 402 483 574 L483 681 C483 692 475 700 464 700 L49 700 C38 700 30 692 30 681 L30 585 C30 574 38 566 49 566 L330 566 C221 392 167 199 145 19 L145 19 Z " />
<glyph glyph-name="eight" unicode="8" horiz-adv-x="592" d="M239 129 C215 129 194 151 194 178 L194 235 C194 263 215 284 239 284 L350 284 C377 284 398 263 398 235 L398 178 C398 151 377 129 353 129 L239 129 Z M255 418 C231 418 209 440 209 467 L209 522 C209 549 231 571 255 571 L337 571 C361 571 383 549 383 522 L383 467 C383 440 361 418 337 418 L255 418 Z M542 242 C542 286 520 331 477 361 C506 386 527 425 527 460 L527 529 C527 627 445 705 344 705 L248 705 C147 705 65 627 65 529 L65 460 C65 425 86 386 115 361 C72 331 50 286 50 242 L50 171 C50 73 132 -5 233 -5 L358 -5 C460 -5 542 73 542 171 L542 242 Z " />
<glyph glyph-name="nine" unicode="9" horiz-adv-x="589" d="M344 571 C369 571 390 549 390 522 L390 432 C390 404 369 383 344 383 L234 383 C210 383 189 404 189 432 L189 522 C189 549 210 571 234 571 L344 571 Z M199 195 C199 206 191 214 180 214 L74 214 C63 214 55 206 55 195 L55 171 C55 73 136 -5 237 -5 L351 -5 C452 -5 534 73 534 171 L534 529 C534 627 452 705 351 705 L227 705 C126 705 45 627 45 529 L45 425 C45 327 126 249 227 249 L345 249 C358 249 376 254 390 263 L390 178 C390 151 369 129 344 129 L245 129 C221 129 199 148 199 178 L199 195 Z " />
<glyph glyph-name="colon" unicode="&#x3a;" horiz-adv-x="278" d="M65 14 C65 3 73 -5 84 -5 L194 -5 C205 -5 213 3 213 14 L213 124 C213 135 205 143 194 143 L84 143 C73 143 65 135 65 124 L65 14 Z M65 306 C65 295 73 287 84 287 L194 287 C205 287 213 295 213 306 L213 416 C213 427 205 435 194 435 L84 435 C73 435 65 427 65 416 L65 306 Z " />
<glyph glyph-name="semicolon" unicode="&#x3b;" horiz-adv-x="332" d="M119 306 C119 295 127 287 138 287 L248 287 C259 287 267 295 267 306 L267 416 C267 427 259 435 248 435 L138 435 C127 435 119 427 119 416 L119 306 Z M183 -105 C194 -105 202 -96 206 -87 L265 77 C265 87 258 95 247 95 L147 95 C136 95 128 86 124 77 L65 -87 C65 -97 73 -105 83 -105 L183 -105 Z " />
<glyph glyph-name="less" unicode="&#x3c;" horiz-adv-x="420" d="M65 163 C65 153 72 147 83 143 L338 53 C348 53 355 60 355 70 L355 165 C355 175 348 183 338 186 L202 231 L202 243 L338 288 C348 291 355 299 355 309 L355 404 C355 414 348 421 338 421 L83 331 C72 327 65 321 65 311 L65 163 Z " />
<glyph glyph-name="equal" unicode="&#x3d;" horiz-adv-x="423" d="M339 83 C350 83 358 91 358 102 L358 198 C358 209 350 217 339 217 L84 217 C73 217 65 209 65 198 L65 102 C65 91 73 83 84 83 L339 83 Z M339 264 C350 264 358 272 358 283 L358 379 C358 390 350 398 339 398 L84 398 C73 398 65 390 65 379 L65 283 C65 272 73 264 84 264 L339 264 Z " />
<glyph glyph-name="greater" unicode="&#x3e;" horiz-adv-x="420" d="M355 311 C355 321 348 327 337 331 L82 421 C72 421 65 414 65 404 L65 309 C65 299 72 291 82 288 L218 243 L218 231 L82 186 C72 183 65 175 65 165 L65 70 C65 60 72 53 82 53 L337 143 C348 147 355 153 355 163 L355 311 Z " />
<glyph glyph-name="question" unicode="&#x3f;" horiz-adv-x="610" d="M353 206 C353 349 545 223 545 485 L545 529 C545 627 463 705 362 705 L246 705 C145 705 65 627 65 529 L65 482 C65 471 73 463 84 463 L190 463 C201 463 209 471 209 482 L209 522 C209 549 230 571 254 571 L355 571 C380 571 401 549 401 522 L401 489 C401 341 215 458 209 210 L209 192 C209 181 217 173 228 173 L334 173 C345 173 353 181 353 192 L353 206 Z M207 19 C207 8 215 0 226 0 L336 0 C347 0 355 8 355 19 L355 116 C355 127 347 135 336 135 L226 135 C215 135 207 127 207 116 L207 19 Z " />
<glyph glyph-name="at" unicode="&#x40;" horiz-adv-x="751" d="M542 480 L532 480 C510 509 469 516 452 516 L421 516 C327 516 260 447 260 358 L260 219 C260 130 327 61 421 61 L452 61 C469 61 510 68 532 97 L542 97 L542 85 C542 74 550 66 561 66 L667 66 C678 66 686 74 686 85 L686 524 C686 622 605 700 504 700 L247 700 C146 700 65 622 65 524 L65 61 C65 -37 146 -115 247 -115 L499 -115 C510 -115 518 -107 518 -96 L518 0 C518 11 510 19 499 19 L255 19 C231 19 209 41 209 68 L209 517 C209 544 231 566 255 566 L496 566 C521 566 542 544 542 517 L542 480 Z M542 224 C542 208 527 194 512 194 L435 194 C419 194 404 208 404 224 L404 353 C404 369 419 383 435 383 L512 383 C527 383 542 369 542 353 L542 224 Z " />
<glyph glyph-name="A" unicode="A" horiz-adv-x="618" d="M233 700 C222 700 215 691 212 681 L20 19 C20 8 28 0 39 0 L145 0 C156 0 164 8 167 19 L193 115 L424 115 L451 19 C454 8 462 0 473 0 L579 0 C590 0 598 8 598 19 L406 681 C403 691 396 700 385 700 L233 700 Z M302 515 L315 515 L388 248 L229 248 L302 515 Z " />
<glyph glyph-name="B" unicode="B" horiz-adv-x="581" d="M209 416 L209 567 L328 567 C352 567 374 545 374 518 L374 465 C374 438 352 416 328 416 L209 416 Z M356 283 C381 283 402 261 402 234 L402 182 C402 155 381 133 356 133 L209 133 L209 283 L356 283 Z M84 700 C73 700 65 692 65 681 L65 19 C65 8 73 0 84 0 L363 0 C464 0 546 78 546 176 L546 238 C546 289 515 333 479 366 C498 393 518 425 518 462 L518 524 C518 622 436 700 335 700 L84 700 Z " />
<glyph glyph-name="C" unicode="C" horiz-adv-x="584" d="M400 178 C400 151 379 129 355 129 L244 129 C220 129 199 151 199 178 L199 522 C199 549 220 571 244 571 L355 571 C379 571 400 549 400 522 L400 490 C400 479 408 471 419 471 L525 471 C536 471 544 479 544 490 L544 529 C544 627 463 705 361 705 L238 705 C136 705 55 627 55 529 L55 171 C55 73 136 -5 238 -5 L361 -5 C463 -5 544 73 544 171 L544 210 C544 221 536 229 525 229 L419 229 C408 229 400 221 400 210 L400 178 Z " />
<glyph glyph-name="D" unicode="D" horiz-adv-x="610" d="M365 567 C389 567 411 545 411 518 L411 182 C411 155 389 133 365 133 L209 133 L209 567 L365 567 Z M84 700 C73 700 65 692 65 681 L65 19 C65 8 73 0 84 0 L372 0 C473 0 555 78 555 176 L555 524 C555 622 473 700 372 700 L84 700 Z " />
<glyph glyph-name="E" unicode="E" horiz-adv-x="539" d="M65 19 C65 8 73 0 84 0 L465 0 C476 0 484 8 484 19 L484 115 C484 126 476 134 465 134 L209 134 L209 296 L443 296 C454 296 462 304 462 315 L462 411 C462 422 454 430 443 430 L209 430 L209 566 L465 566 C476 566 484 574 484 585 L484 681 C484 692 476 700 465 700 L84 700 C73 700 65 692 65 681 L65 19 Z " />
<glyph glyph-name="F" unicode="F" horiz-adv-x="509" d="M209 404 L209 566 L465 566 C476 566 484 574 484 585 L484 681 C484 692 476 700 465 700 L84 700 C73 700 65 692 65 681 L65 19 C65 8 73 0 84 0 L190 0 C201 0 209 8 209 19 L209 270 L443 270 C454 270 462 278 462 289 L462 385 C462 396 454 404 443 404 L209 404 Z " />
<glyph glyph-name="G" unicode="G" horiz-adv-x="599" d="M309 404 C294 404 283 394 283 378 L283 297 C283 281 294 270 309 270 L400 270 L400 178 C400 151 379 129 355 129 L244 129 C220 129 199 151 199 178 L199 522 C199 549 220 571 244 571 L355 571 C379 571 400 549 400 522 L400 490 C400 479 408 471 419 471 L525 471 C536 471 544 479 544 490 L544 529 C544 627 463 705 361 705 L238 705 C136 705 55 627 55 529 L55 171 C55 73 136 -5 238 -5 L361 -5 C463 -5 544 73 544 171 L544 378 C544 394 533 404 518 404 L309 404 Z " />
<glyph glyph-name="H" unicode="H" horiz-adv-x="613" d="M404 19 C404 8 412 0 423 0 L529 0 C540 0 548 8 548 19 L548 681 C548 692 540 700 529 700 L423 700 C412 700 404 692 404 681 L404 406 L209 406 L209 681 C209 692 201 700 190 700 L84 700 C73 700 65 692 65 681 L65 19 C65 8 73 0 84 0 L190 0 C201 0 209 8 209 19 L209 273 L404 273 L404 19 Z " />
<glyph glyph-name="I" unicode="I" horiz-adv-x="274" d="M65 19 C65 8 73 0 84 0 L190 0 C201 0 209 8 209 19 L209 681 C209 692 201 700 190 700 L84 700 C73 700 65 692 65 681 L65 19 Z " />
<glyph glyph-name="J" unicode="J" horiz-adv-x="459" d="M96 158 C92 161 87 162 82 162 C77 162 73 161 68 158 L2 97 C-3 92 -5 88 -5 82 C-5 78 -3 73 1 69 C23 46 88 -5 184 -5 C325 -5 414 86 414 180 L414 681 C414 692 406 700 395 700 L289 700 C278 700 270 692 270 681 L270 183 C270 183 267 129 178 129 C158 129 121 138 96 158 L96 158 Z " />
<glyph glyph-name="K" unicode="K" horiz-adv-x="591" d="M273 417 L209 417 L209 681 C209 692 201 700 190 700 L84 700 C73 700 65 692 65 681 L65 19 C65 8 73 0 84 0 L190 0 C201 0 209 8 209 19 L209 283 L273 283 L408 19 C413 9 422 0 433 0 L546 0 C557 0 565 9 565 20 L397 350 L562 680 C562 691 554 700 543 700 L430 700 C419 700 410 691 405 681 L273 417 Z " />
<glyph glyph-name="L" unicode="L" horiz-adv-x="509" d="M209 681 C209 692 201 700 190 700 L84 700 C73 700 65 692 65 681 L65 19 C65 8 73 0 84 0 L465 0 C476 0 484 8 484 19 L484 115 C484 126 476 134 465 134 L209 134 L209 681 Z " />
<glyph glyph-name="M" unicode="M" horiz-adv-x="768" d="M411 91 C426 91 430 97 434 107 L552 377 L559 377 L559 19 C559 8 567 0 578 0 L684 0 C695 0 703 8 703 19 L703 681 C703 692 695 700 684 700 L559 700 C548 700 539 691 535 681 L390 346 L378 346 L233 681 C229 691 220 700 209 700 L84 700 C73 700 65 692 65 681 L65 19 C65 8 73 0 84 0 L190 0 C201 0 209 8 209 19 L209 377 L215 377 L334 107 C338 97 342 91 357 91 L411 91 Z " />
<glyph glyph-name="N" unicode="N" horiz-adv-x="647" d="M220 700 L84 700 C73 700 65 692 65 681 L65 19 C65 8 73 0 84 0 L190 0 C201 0 209 8 209 19 L209 407 L216 407 L400 16 C405 6 411 0 426 0 L563 0 C574 0 582 8 582 19 L582 681 C582 692 574 700 563 700 L457 700 C446 700 438 692 438 681 L438 287 L431 287 L246 684 C241 694 235 700 220 700 L220 700 Z " />
<glyph glyph-name="O" unicode="O" horiz-adv-x="599" d="M244 129 C220 129 199 151 199 178 L199 522 C199 549 220 571 244 571 L355 571 C379 571 400 549 400 522 L400 178 C400 151 379 129 355 129 L244 129 Z M361 -5 C463 -5 544 73 544 171 L544 529 C544 627 463 705 361 705 L238 705 C136 705 55 627 55 529 L55 171 C55 73 136 -5 238 -5 L361 -5 Z " />
<glyph glyph-name="P" unicode="P" horiz-adv-x="591" d="M209 333 L209 566 L356 566 C381 566 402 544 402 517 L402 382 C402 355 381 333 356 333 L209 333 Z M84 700 C73 700 65 692 65 681 L65 19 C65 8 73 0 84 0 L190 0 C201 0 209 8 209 19 L209 199 L363 199 C464 199 546 277 546 375 L546 524 C546 622 464 700 363 700 L84 700 Z " />
<glyph glyph-name="Q" unicode="Q" horiz-adv-x="599" d="M287 -99 C291 -109 299 -118 310 -118 L413 -118 C424 -118 432 -110 432 -99 L389 -2 C477 10 544 82 544 171 L544 529 C544 627 463 705 361 705 L238 705 C136 705 55 627 55 529 L55 171 C55 73 136 -5 238 -5 L244 -5 L287 -99 Z M244 129 C220 129 199 151 199 178 L199 522 C199 549 220 571 244 571 L355 571 C379 571 400 549 400 522 L400 178 C400 151 379 129 355 129 L244 129 Z " />
<glyph glyph-name="R" unicode="R" horiz-adv-x="600" d="M465 229 C514 260 546 314 546 375 L546 524 C546 622 464 700 363 700 L84 700 C73 700 65 692 65 681 L65 19 C65 8 73 0 84 0 L190 0 C201 0 209 8 209 19 L209 199 L324 199 L406 19 C411 9 420 0 431 0 L546 0 C557 0 565 8 565 19 L465 229 Z M209 566 L356 566 C381 566 402 544 402 517 L402 382 C402 355 381 333 356 333 L209 333 L209 566 Z " />
<glyph glyph-name="S" unicode="S" horiz-adv-x="566" d="M218 705 C117 705 35 627 35 529 L35 507 C35 214 382 335 382 202 L382 178 C382 151 360 129 335 129 L225 129 C200 129 179 151 179 178 L179 204 C179 215 171 223 160 223 L54 223 C43 223 35 215 35 204 L35 171 C35 73 117 -5 218 -5 L343 -5 C444 -5 526 73 526 171 L526 187 C526 483 179 353 179 496 L179 522 C179 549 201 571 226 571 L326 571 C351 571 372 549 372 522 L372 502 C372 491 380 483 391 483 L497 483 C508 483 516 491 516 502 L516 529 C516 627 434 705 334 705 L218 705 Z " />
<glyph glyph-name="T" unicode="T" horiz-adv-x="536" d="M196 566 L196 19 C196 8 204 0 215 0 L321 0 C332 0 340 8 340 19 L340 566 L487 566 C498 566 506 574 506 585 L506 681 C506 692 498 700 487 700 L49 700 C38 700 30 692 30 681 L30 585 C30 574 38 566 49 566 L196 566 Z " />
<glyph glyph-name="U" unicode="U" horiz-adv-x="609" d="M549 681 C549 692 541 700 530 700 L424 700 C413 700 405 692 405 681 L405 178 C405 151 384 129 360 129 L249 129 C225 129 204 151 204 178 L204 681 C204 692 196 700 185 700 L79 700 C68 700 60 692 60 681 L60 171 C60 73 141 -5 243 -5 L366 -5 C468 -5 549 73 549 171 L549 681 Z " />
<glyph glyph-name="V" unicode="V" horiz-adv-x="618" d="M385 0 C396 0 403 9 406 19 L598 681 C598 692 590 700 579 700 L473 700 C462 700 454 692 451 681 L315 185 L302 185 L167 681 C164 692 156 700 145 700 L39 700 C28 700 20 692 20 681 L212 19 C215 9 222 0 233 0 L385 0 Z " />
<glyph glyph-name="W" unicode="W" horiz-adv-x="850" d="M382 700 C371 700 363 692 360 681 L257 258 L165 681 C162 692 154 700 143 700 L39 700 C28 700 20 692 20 681 L168 19 C171 8 179 0 190 0 L320 0 C331 0 337 7 340 19 L425 371 L510 19 C513 7 519 0 530 0 L660 0 C671 0 679 8 682 19 L830 681 C830 692 822 700 811 700 L707 700 C696 700 688 692 685 681 L593 258 L490 681 C487 692 479 700 468 700 L382 700 Z " />
<glyph glyph-name="X" unicode="X" horiz-adv-x="599" d="M305 271 L420 18 C425 8 433 0 444 0 L555 0 C566 0 574 8 574 19 L423 349 C470 456 524 575 571 681 C571 692 563 700 552 700 L445 700 C434 700 426 692 421 682 L305 428 L294 428 L178 682 C173 692 165 700 154 700 L47 700 C36 700 28 692 28 681 C75 575 129 456 176 349 L25 19 C25 8 33 0 44 0 L155 0 C166 0 174 8 179 18 L294 271 L305 271 Z " />
<glyph glyph-name="Y" unicode="Y" horiz-adv-x="602" d="M568 700 L463 700 C452 700 445 691 440 681 L307 395 L296 395 L162 681 C157 691 150 700 139 700 L34 700 C23 700 15 692 15 681 L229 226 L229 19 C229 8 237 0 248 0 L354 0 C365 0 373 8 373 19 L373 226 L587 681 C587 692 579 700 568 700 L568 700 Z " />
<glyph glyph-name="Z" unicode="Z" horiz-adv-x="537" d="M224 134 L492 609 C494 612 497 620 497 625 L497 681 C497 692 489 700 478 700 L59 700 C48 700 40 692 40 681 L40 585 C40 574 48 566 59 566 L313 566 L45 91 C43 88 40 80 40 75 L40 19 C40 8 48 0 59 0 L478 0 C489 0 497 8 497 19 L497 115 C497 126 489 134 478 134 L224 134 Z " />
<glyph glyph-name="bracketleft" unicode="&#x5b;" horiz-adv-x="390" d="M209 671 L306 671 C317 671 325 679 325 690 L325 786 C325 797 317 805 306 805 L84 805 C73 805 65 797 65 786 L65 -158 C65 -169 73 -177 84 -177 L306 -177 C317 -177 325 -169 325 -158 L325 -62 C325 -51 317 -43 306 -43 L209 -43 L209 671 Z " />
<glyph glyph-name="backslash" unicode="&#x5c;" horiz-adv-x="578" d="M212 785 C209 796 201 804 190 804 L84 804 C73 804 65 796 65 785 C160 485 271 145 366 -155 C369 -166 377 -174 388 -174 L494 -174 C505 -174 513 -166 513 -155 L212 785 Z " />
<glyph glyph-name="bracketright" unicode="&#x5d;" horiz-adv-x="390" d="M181 -43 L84 -43 C73 -43 65 -51 65 -62 L65 -158 C65 -169 73 -177 84 -177 L306 -177 C317 -177 325 -169 325 -158 L325 786 C325 797 317 805 306 805 L84 805 C73 805 65 797 65 786 L65 690 C65 679 73 671 84 671 L181 671 L181 -43 Z " />
<glyph glyph-name="asciicircum" unicode="&#x5e;" horiz-adv-x="452" d="M176 700 C164 700 156 696 151 685 L65 511 C65 500 73 492 84 492 L178 492 C189 492 197 501 201 511 L226 562 L251 511 C255 501 263 492 274 492 L368 492 C379 492 387 500 387 511 L301 685 C296 696 288 700 276 700 L176 700 Z " />
<glyph glyph-name="underscore" unicode="&#x5f;" horiz-adv-x="423" d="M339 -137 C350 -137 358 -129 358 -118 L358 -22 C358 -11 350 -3 339 -3 L84 -3 C73 -3 65 -11 65 -22 L65 -118 C65 -129 73 -137 84 -137 L339 -137 Z " />
<glyph glyph-name="grave" unicode="&#x60;" horiz-adv-x="341" d="M258 506 C268 506 276 514 276 524 L206 682 C202 691 194 700 183 700 L83 700 C72 700 65 692 65 682 L135 524 C139 515 147 506 158 506 L258 506 Z " />
<glyph glyph-name="a" unicode="a" horiz-adv-x="506" d="M124 373 C156 382 193 387 231 387 C306 387 312 348 312 326 L312 319 L210 319 C116 319 45 270 45 179 L45 139 C45 48 116 -5 210 -5 L225 -5 C239 -5 292 -2 303 31 L312 31 L312 19 C312 8 320 0 331 0 L437 0 C448 0 456 8 456 19 L456 327 C456 374 438 520 249 520 C166 520 114 506 94 499 C85 496 79 490 79 481 C79 479 79 469 100 387 C103 376 110 372 115 372 C117 372 121 372 124 373 L124 373 Z M189 171 C189 188 204 201 219 201 L312 201 L312 158 C312 142 296 128 281 128 L219 128 C204 128 189 142 189 158 L189 171 Z " />
<glyph glyph-name="b" unicode="b" horiz-adv-x="536" d="M491 362 C491 451 448 520 354 520 L290 520 C273 520 241 513 219 484 L209 484 L209 681 C209 692 201 700 190 700 L84 700 C73 700 65 692 65 681 L65 19 C65 8 73 0 84 0 L190 0 C201 0 209 8 209 19 L209 31 L219 31 C241 2 273 -5 290 -5 L354 -5 C448 -5 491 64 491 153 L491 362 Z M209 357 C209 373 224 387 239 387 L316 387 C332 387 347 373 347 357 L347 158 C347 142 332 128 316 128 L239 128 C224 128 209 142 209 158 L209 357 Z " />
<glyph glyph-name="c" unicode="c" horiz-adv-x="492" d="M318 158 C318 142 302 128 287 128 L224 128 C209 128 194 142 194 158 L194 357 C194 373 209 387 224 387 L287 387 C302 387 318 373 318 357 L318 342 C318 331 326 323 337 323 L443 323 C454 323 462 331 462 342 L462 362 C462 440 402 520 305 520 L207 520 C111 520 50 440 50 362 L50 152 C50 75 111 -5 207 -5 L305 -5 C402 -5 462 75 462 152 L462 173 C462 184 454 192 443 192 L337 192 C326 192 318 184 318 173 L318 158 Z " />
<glyph glyph-name="d" unicode="d" horiz-adv-x="536" d="M45 153 C45 64 88 -5 182 -5 L246 -5 C263 -5 295 2 317 31 L327 31 L327 19 C327 8 335 0 346 0 L452 0 C463 0 471 8 471 19 L471 681 C471 692 463 700 452 700 L346 700 C335 700 327 692 327 681 L327 484 L317 484 C295 513 263 520 246 520 L182 520 C88 520 45 451 45 362 L45 153 Z M327 158 C327 142 312 128 297 128 L220 128 C204 128 189 142 189 158 L189 357 C189 373 204 387 220 387 L297 387 C312 387 327 373 327 357 L327 158 Z " />
<glyph glyph-name="e" unicode="e" horiz-adv-x="507" d="M194 357 C194 373 209 387 224 387 L288 387 C303 387 319 373 319 357 L319 315 L194 315 L194 357 Z M447 74 C449 77 450 82 450 85 C450 91 448 95 442 100 L375 155 C372 157 367 158 364 158 C357 158 352 155 348 150 C338 141 323 128 296 128 L224 128 C209 128 194 142 194 158 L194 195 L443 195 C454 195 462 203 462 214 L462 362 C462 440 402 520 305 520 L207 520 C111 520 50 440 50 362 L50 152 C50 75 111 -5 207 -5 L296 -5 C296 -5 398 -4 447 74 L447 74 Z " />
<glyph glyph-name="f" unicode="f" horiz-adv-x="404" d="M355 603 C366 603 374 611 374 622 L374 716 C374 727 366 735 355 735 L271 735 C175 735 119 655 114 577 L114 515 L39 515 C28 515 20 507 20 496 L20 401 C20 390 28 382 39 382 L114 382 L114 19 C114 8 122 0 133 0 L239 0 C250 0 258 8 258 19 L258 382 L354 382 C365 382 373 390 373 401 L373 496 C373 507 365 515 354 515 L258 515 L258 568 C258 587 276 603 294 603 L355 603 Z " />
<glyph glyph-name="g" unicode="g" horiz-adv-x="536" d="M471 496 C471 507 463 515 452 515 L346 515 C335 515 327 507 327 496 L327 484 L317 484 C295 513 262 520 245 520 L182 520 C88 520 45 451 45 362 L45 153 C45 64 88 -5 182 -5 L245 -5 C262 -5 295 2 317 31 L327 31 L327 -21 C327 -42 297 -71 238 -71 C199 -71 131 -59 126 -59 C113 -59 108 -62 104 -76 C84 -156 84 -166 84 -169 C84 -178 90 -182 99 -186 C121 -193 169 -203 253 -203 C442 -203 471 -71 471 -22 L471 496 Z M327 158 C327 142 312 128 297 128 L220 128 C204 128 189 142 189 158 L189 357 C189 373 204 387 220 387 L297 387 C312 387 327 373 327 357 L327 158 Z " />
<glyph glyph-name="h" unicode="h" horiz-adv-x="539" d="M484 361 C479 451 422 520 328 520 L314 520 C293 520 251 513 218 470 L209 470 L209 681 C209 692 201 700 190 700 L84 700 C73 700 65 692 65 681 L65 19 C65 8 73 0 84 0 L190 0 C201 0 209 8 209 19 L209 339 C234 385 276 387 291 387 L307 387 C325 387 340 373 340 352 L340 19 C340 8 348 0 359 0 L465 0 C476 0 484 8 484 19 L484 361 Z " />
<glyph glyph-name="i" unicode="i" horiz-adv-x="274" d="M65 19 C65 8 73 0 84 0 L190 0 C201 0 209 8 209 19 L209 496 C209 507 201 515 190 515 L84 515 C73 515 65 507 65 496 L65 19 Z M63 584 C63 573 71 565 82 565 L192 565 C203 565 211 573 211 584 L211 681 C211 692 203 700 192 700 L82 700 C71 700 63 692 63 681 L63 584 Z " />
<glyph glyph-name="j" unicode="j" horiz-adv-x="274" d="M45 -188 C45 -188 209 -142 209 14 L209 496 C209 507 201 515 190 515 L84 515 C73 515 65 507 65 496 L65 19 C65 19 63 -35 -10 -56 C-18 -58 -22 -66 -22 -73 C-22 -75 -21 -78 -20 -80 L20 -178 C23 -186 29 -190 36 -190 C38 -190 43 -189 45 -188 L45 -188 Z M63 584 C63 573 71 565 82 565 L192 565 C203 565 211 573 211 584 L211 681 C211 692 203 700 192 700 L82 700 C71 700 63 692 63 681 L63 584 Z " />
<glyph glyph-name="k" unicode="k" horiz-adv-x="524" d="M342 21 C348 8 359 0 370 0 L488 0 C499 0 507 8 507 19 L378 270 L509 496 C509 507 501 515 490 515 L372 515 C361 515 349 506 343 496 C313 444 280 387 249 335 L209 335 L209 681 C209 692 201 700 190 700 L84 700 C73 700 65 692 65 681 L65 19 C65 8 73 0 84 0 L190 0 C201 0 209 8 209 19 L209 205 L248 205 L342 21 Z " />
<glyph glyph-name="l" unicode="l" horiz-adv-x="274" d="M65 19 C65 8 73 0 84 0 L190 0 C201 0 209 8 209 19 L209 681 C209 692 201 700 190 700 L84 700 C73 700 65 692 65 681 L65 19 Z " />
<glyph glyph-name="m" unicode="m" horiz-adv-x="756" d="M455 339 C471 380 493 387 517 387 C543 387 557 373 557 345 L557 19 C557 8 565 0 576 0 L682 0 C693 0 701 8 701 19 L701 361 C701 451 638 520 543 520 C522 520 468 520 429 465 L422 465 C398 500 368 520 316 520 C295 520 254 519 217 465 L209 465 L209 496 C209 507 201 515 190 515 L84 515 C73 515 65 507 65 496 L65 19 C65 8 73 0 84 0 L190 0 C201 0 209 8 209 19 L209 339 C225 380 247 387 271 387 C297 387 311 373 311 345 L311 19 C311 8 319 0 330 0 L436 0 C447 0 455 8 455 19 L455 339 Z " />
<glyph glyph-name="n" unicode="n" horiz-adv-x="539" d="M484 361 C479 451 422 520 328 520 L314 520 C293 520 251 513 218 470 L209 470 L209 496 C209 507 201 515 190 515 L84 515 C73 515 65 507 65 496 L65 19 C65 8 73 0 84 0 L190 0 C201 0 209 8 209 19 L209 339 C234 385 276 387 291 387 L307 387 C325 387 340 373 340 352 L340 19 C340 8 348 0 359 0 L465 0 C476 0 484 8 484 19 L484 361 Z " />
<glyph glyph-name="o" unicode="o" horiz-adv-x="512" d="M207 520 C111 520 50 440 50 362 L50 152 C50 75 111 -5 207 -5 L305 -5 C401 -5 462 75 462 152 L462 362 C462 440 401 520 305 520 L207 520 Z M288 387 C303 387 318 373 318 357 L318 158 C318 142 303 128 288 128 L224 128 C209 128 194 142 194 158 L194 357 C194 373 209 387 224 387 L288 387 Z " />
<glyph glyph-name="p" unicode="p" horiz-adv-x="536" d="M491 362 C491 451 448 520 354 520 L290 520 C273 520 241 513 219 484 L209 484 L209 496 C209 507 201 515 190 515 L84 515 C73 515 65 507 65 496 L65 -155 C65 -166 73 -174 84 -174 L190 -174 C201 -174 209 -166 209 -155 L209 31 L219 31 C241 2 273 -5 290 -5 L354 -5 C448 -5 491 64 491 153 L491 362 Z M209 357 C209 373 224 387 239 387 L316 387 C332 387 347 373 347 357 L347 158 C347 142 332 128 316 128 L239 128 C224 128 209 142 209 158 L209 357 Z " />
<glyph glyph-name="q" unicode="q" horiz-adv-x="536" d="M45 153 C45 64 88 -5 182 -5 L246 -5 C263 -5 295 2 317 31 L327 31 L327 -155 C327 -166 335 -174 346 -174 L452 -174 C463 -174 471 -166 471 -155 L471 496 C471 507 463 515 452 515 L346 515 C335 515 327 507 327 496 L327 484 L317 484 C295 513 263 520 246 520 L182 520 C88 520 45 451 45 362 L45 153 Z M327 158 C327 142 312 128 297 128 L220 128 C204 128 189 142 189 158 L189 357 C189 373 204 387 220 387 L297 387 C312 387 327 373 327 357 L327 158 Z " />
<glyph glyph-name="r" unicode="r" horiz-adv-x="412" d="M382 514 C370 519 333 520 317 520 C297 520 247 520 218 465 L209 465 L209 496 C209 507 201 515 190 515 L84 515 C73 515 65 507 65 496 L65 19 C65 8 73 0 84 0 L190 0 C201 0 209 8 209 19 L209 339 C234 384 288 387 309 387 C331 387 366 381 370 381 C381 381 389 389 389 400 L397 492 C397 504 394 509 382 514 L382 514 Z " />
<glyph glyph-name="s" unicode="s" horiz-adv-x="487" d="M271 392 C287 392 302 378 302 362 L302 356 C302 345 310 337 321 337 L427 337 C438 337 446 345 446 356 L446 363 C446 440 385 520 289 520 L197 520 C101 520 45 451 40 373 L40 365 C40 165 309 220 309 162 L309 145 C309 131 294 123 278 123 L215 123 C199 123 184 137 184 153 L184 164 C184 175 176 183 165 183 L59 183 C48 183 40 175 40 164 L40 152 C40 75 101 -5 197 -5 L295 -5 C392 -5 452 63 452 141 L452 155 C452 353 184 296 184 358 L184 370 C184 384 199 392 215 392 L271 392 Z " />
<glyph glyph-name="t" unicode="t" horiz-adv-x="398" d="M258 382 L354 382 C365 382 373 390 373 401 L373 496 C373 507 365 515 354 515 L258 515 L258 681 C258 692 250 700 239 700 L133 700 C122 700 114 692 114 681 L114 515 L39 515 C28 515 20 507 20 496 L20 401 C20 390 28 382 39 382 L114 382 L114 167 C114 69 175 0 271 0 L354 0 C365 0 373 8 373 19 L373 113 C373 124 365 132 354 132 L294 132 C276 132 258 148 258 167 L258 382 Z " />
<glyph glyph-name="u" unicode="u" horiz-adv-x="522" d="M310 -5 C406 -5 467 75 467 152 L467 496 C467 507 459 515 448 515 L342 515 C331 515 323 507 323 496 L323 158 C323 142 308 128 293 128 L229 128 C214 128 199 142 199 158 L199 496 C199 507 191 515 180 515 L74 515 C63 515 55 507 55 496 L55 152 C55 75 116 -5 212 -5 L310 -5 Z " />
<glyph glyph-name="v" unicode="v" horiz-adv-x="487" d="M317 0 C328 0 335 9 338 19 L477 496 C477 507 469 515 458 515 L350 515 C339 515 331 507 328 496 L250 175 L237 175 L159 496 C156 507 148 515 137 515 L29 515 C18 515 10 507 10 496 L149 19 C152 9 159 0 170 0 L317 0 Z " />
<glyph glyph-name="w" unicode="w" horiz-adv-x="698" d="M310 515 C299 515 289 508 286 497 L212 246 L154 497 C151 508 141 515 130 515 L29 515 C18 515 10 507 10 496 L137 19 C140 8 147 0 158 0 L246 0 C257 0 267 7 270 18 L349 277 L428 18 C431 7 441 0 452 0 L540 0 C551 0 558 8 561 19 L688 496 C688 507 680 515 669 515 L568 515 C557 515 547 508 544 497 L486 246 L412 497 C409 508 399 515 388 515 L310 515 Z " />
<glyph glyph-name="x" unicode="x" horiz-adv-x="492" d="M251 180 L327 18 C332 8 340 0 351 0 L458 0 C469 0 477 8 477 19 L367 258 L473 496 C473 507 465 515 454 515 L347 515 C336 515 328 507 323 497 L251 334 L241 334 L169 497 C164 507 156 515 145 515 L38 515 C27 515 19 507 19 496 L125 258 L15 19 C15 8 23 0 34 0 L141 0 C152 0 160 8 165 18 L241 180 L251 180 Z " />
<glyph glyph-name="y" unicode="y" horiz-adv-x="487" d="M149 -203 C173 -203 280 -180 329 -12 L477 496 C477 507 469 515 458 515 L350 515 C339 515 331 507 328 496 L250 175 L237 175 L159 496 C156 507 148 515 137 515 L29 515 C18 515 10 507 10 496 L160 -18 C155 -43 139 -72 108 -72 L66 -72 C55 -72 47 -80 47 -91 L47 -184 C47 -195 55 -203 66 -203 L149 -203 Z " />
<glyph glyph-name="z" unicode="z" horiz-adv-x="455" d="M224 134 L414 424 C418 430 420 435 420 441 L420 496 C420 507 412 515 401 515 L54 515 C43 515 35 507 35 496 L35 400 C35 389 43 381 54 381 L233 381 L41 91 C37 85 35 80 35 74 L35 19 C35 8 43 0 54 0 L401 0 C412 0 420 8 420 19 L420 115 C420 126 412 134 401 134 L224 134 Z " />
<glyph glyph-name="braceleft" unicode="&#x7b;" horiz-adv-x="460" d="M267 313 C296 344 310 381 310 427 L310 622 C310 649 331 671 355 671 L376 671 C387 671 395 679 395 690 L395 786 C395 797 387 805 376 805 L347 805 C246 805 166 727 166 629 L166 433 C166 405 143 385 119 385 L84 385 C73 385 65 377 65 366 L65 261 C65 250 73 242 84 242 L119 242 C143 242 166 222 166 194 L166 -2 C166 -100 246 -178 347 -178 L376 -178 C387 -178 395 -170 395 -159 L395 -63 C395 -52 387 -44 376 -44 L355 -44 C331 -44 310 -22 310 5 L310 200 C310 246 296 282 267 313 L267 313 Z " />
<glyph glyph-name="bar" unicode="&#x7c;" horiz-adv-x="274" d="M65 -159 C65 -170 73 -178 84 -178 L190 -178 C201 -178 209 -170 209 -159 L209 786 C209 797 201 805 190 805 L84 805 C73 805 65 797 65 786 L65 -159 Z " />
<glyph glyph-name="braceright" unicode="&#x7d;" horiz-adv-x="460" d="M193 313 C164 282 150 246 150 200 L150 5 C150 -22 129 -44 105 -44 L84 -44 C73 -44 65 -52 65 -63 L65 -159 C65 -170 73 -178 84 -178 L113 -178 C214 -178 294 -100 294 -2 L294 194 C294 222 317 242 341 242 L376 242 C387 242 395 250 395 261 L395 366 C395 377 387 385 376 385 L341 385 C317 385 294 405 294 433 L294 629 C294 727 214 805 113 805 L84 805 C73 805 65 797 65 786 L65 690 C65 679 73 671 84 671 L105 671 C129 671 150 649 150 622 L150 427 C150 381 164 344 193 313 L193 313 Z " />
<glyph glyph-name="asciitilde" unicode="&#x7e;" horiz-adv-x="452" d="M295 154 C322 154 349 167 375 183 C383 189 387 198 387 207 L363 285 C361 292 353 298 343 298 C340 298 336 298 333 297 C322 292 303 288 295 288 C246 288 205 327 157 327 C130 327 103 314 77 298 C69 292 65 283 65 274 L89 196 C91 189 99 183 109 183 C112 183 116 183 119 184 C130 189 149 193 157 193 C207 193 247 154 295 154 L295 154 Z " />
<glyph glyph-name="uni00A0" unicode="&#xa0;" horiz-adv-x="198" d="" />
<glyph glyph-name="exclamdown" unicode="&#xa1;" horiz-adv-x="278" d="M99 526 C88 526 81 518 80 507 L67 391 L67 13 C67 2 75 -6 86 -6 L192 -6 C203 -6 211 2 211 13 L211 391 L198 507 C197 518 190 526 179 526 L99 526 Z M65 584 C65 573 73 565 84 565 L194 565 C205 565 213 573 213 584 L213 681 C213 692 205 700 194 700 L84 700 C73 700 65 692 65 681 L65 584 Z " />
<glyph glyph-name="cent" unicode="&#xa2;" horiz-adv-x="619" d="M240 -118 C240 -129 248 -137 259 -137 L365 -137 C376 -137 384 -129 384 -118 L384 -4 C479 2 554 77 554 171 L554 210 C554 221 546 229 535 229 L429 229 C418 229 410 221 410 210 L410 178 C410 151 389 129 365 129 L254 129 C230 129 209 151 209 178 L209 522 C209 549 230 571 254 571 L365 571 C389 571 410 549 410 522 L410 490 C410 479 418 471 429 471 L535 471 C546 471 554 479 554 490 L554 529 C554 623 479 698 384 704 L384 813 C384 824 376 832 365 832 L259 832 C248 832 240 824 240 813 L240 705 C142 701 65 624 65 529 L65 171 C65 75 142 -1 240 -5 L240 -118 Z " />
<glyph glyph-name="sterling" unicode="&#xa3;" horiz-adv-x="647" d="M163 399 L84 399 C73 399 65 391 65 380 L65 284 C65 273 73 265 84 265 L163 265 L163 134 L84 134 C73 134 65 126 65 115 L65 19 C65 8 73 0 84 0 L563 0 C574 0 582 8 582 19 L582 115 C582 126 574 134 563 134 L307 134 L307 265 L415 265 C426 265 434 273 434 284 L434 380 C434 391 426 399 415 399 L307 399 L307 537 C307 553 322 567 337 567 L400 567 C415 567 431 553 431 537 L431 522 C431 511 439 503 450 503 L556 503 C567 503 575 511 575 522 L575 542 C575 620 515 700 418 700 L320 700 C224 700 163 620 163 542 L163 399 Z " />
<glyph glyph-name="currency" unicode="&#xa4;" horiz-adv-x="488" d="M223 154 C213 154 202 163 202 175 L202 241 C202 253 213 262 223 262 L265 262 C275 262 286 253 286 241 L286 175 C286 163 275 154 265 154 L223 154 Z M210 368 C204 368 200 368 196 367 L184 396 C180 407 173 415 162 415 L84 415 C73 415 65 407 65 396 L105 305 C95 288 87 265 87 245 L87 171 C87 150 94 128 105 110 L65 19 C65 8 73 0 84 0 L162 0 C173 0 180 8 184 19 L196 48 L292 48 L304 19 C308 8 315 0 326 0 L404 0 C415 0 423 8 423 19 L383 110 C394 128 401 150 401 171 L401 245 C401 265 393 288 383 305 L423 396 C423 407 415 415 404 415 L326 415 C315 415 308 407 304 396 L292 367 C288 368 284 368 278 368 L210 368 Z " />
<glyph glyph-name="yen" unicode="&#xa5;" horiz-adv-x="702" d="M511 76 C522 76 530 84 530 95 L530 183 C530 194 522 202 511 202 L423 202 L423 226 L436 255 L511 255 C522 255 530 263 530 274 L530 362 C530 373 522 381 511 381 L496 381 L637 681 C637 692 629 700 618 700 L513 700 C502 700 495 691 490 681 L357 395 L346 395 L212 681 C207 691 200 700 189 700 L84 700 C73 700 65 692 65 681 L206 381 L191 381 C180 381 172 373 172 362 L172 274 C172 263 180 255 191 255 L265 255 L279 226 L279 202 L191 202 C180 202 172 194 172 183 L172 95 C172 84 180 76 191 76 L279 76 L279 19 C279 8 287 0 298 0 L404 0 C415 0 423 8 423 19 L423 76 L511 76 Z " />
<glyph glyph-name="brokenbar" unicode="&#xa6;" horiz-adv-x="274" d="M65 401 C65 390 73 382 84 382 L190 382 C201 382 209 390 209 401 L209 786 C209 797 201 805 190 805 L84 805 C73 805 65 797 65 786 L65 401 Z M65 -159 C65 -170 73 -178 84 -178 L190 -178 C201 -178 209 -170 209 -159 L209 226 C209 237 201 245 190 245 L84 245 C73 245 65 237 65 226 L65 -159 Z " />
<glyph glyph-name="section" unicode="&#xa7;" horiz-adv-x="548" d="M477 323 L477 335 C477 410 438 449 389 471 L373 478 C297 506 209 502 209 538 L209 550 C209 564 224 572 240 572 L296 572 C312 572 327 558 327 542 L327 536 C327 525 335 517 346 517 L452 517 C463 517 471 525 471 536 L471 543 C471 620 410 700 314 700 L222 700 C126 700 70 631 65 553 L65 545 C65 494 82 459 108 435 C86 409 73 375 71 340 L71 332 C71 132 340 187 340 129 L340 112 C340 98 325 90 309 90 L246 90 C230 90 215 104 215 120 L215 131 C215 142 207 150 196 150 L90 150 C79 150 71 142 71 131 L71 119 C71 42 132 -38 228 -38 L326 -38 C423 -38 483 30 483 108 L483 122 C483 170 467 203 442 227 C465 253 477 286 477 323 L477 323 Z M246 303 C231 303 215 311 215 326 L215 336 C215 351 231 359 246 359 L303 359 C319 359 335 351 335 336 L335 326 C335 311 319 303 303 303 L246 303 Z " />
<glyph glyph-name="dieresis" unicode="&#xa8;" horiz-adv-x="441" d="M65 582 C65 571 73 563 84 563 L179 563 C190 563 198 571 198 582 L198 681 C198 692 190 700 179 700 L84 700 C73 700 65 692 65 681 L65 582 Z M243 582 C243 571 251 563 262 563 L357 563 C368 563 376 571 376 582 L376 681 C376 692 368 700 357 700 L262 700 C251 700 243 692 243 681 L243 582 Z " />
<glyph glyph-name="copyright" unicode="&#xa9;" horiz-adv-x="841" d="M421 699 C225 699 65 540 65 344 C65 148 225 -11 421 -11 C616 -11 776 148 776 344 C776 540 616 699 421 699 L421 699 Z M421 70 C268 70 147 192 147 344 C147 497 268 620 421 620 C575 620 697 497 697 344 C697 192 575 70 421 70 L421 70 Z M261 263 C265 204 306 144 379 144 L457 144 C530 144 571 204 575 263 L575 273 C575 280 570 286 562 286 L489 286 C481 286 476 280 476 273 L476 266 C476 249 460 235 443 235 L393 235 C376 235 360 249 360 266 L360 426 C360 443 376 457 393 457 L443 457 C460 457 476 443 476 426 L476 419 C476 412 481 406 489 406 L562 406 C570 406 575 412 575 419 L575 429 C571 488 530 548 457 548 L379 548 C306 548 265 488 261 429 L261 263 Z " />
<glyph glyph-name="ordfeminine" unicode="&#xaa;" horiz-adv-x="381" d="M153 493 C153 506 165 514 177 514 L229 514 L229 485 C229 472 216 464 203 464 L177 464 C165 464 153 472 153 485 L153 493 Z M92 686 C88 685 85 682 85 677 C85 676 85 663 95 620 C97 613 102 613 107 613 C122 616 152 622 176 622 C216 622 229 602 229 588 L229 580 L160 580 C105 580 65 550 65 497 L65 473 C65 421 105 391 160 391 L174 391 C186 391 211 396 224 413 L229 413 L229 404 C229 398 233 394 239 394 L306 394 C312 394 316 398 316 404 L316 588 C316 616 295 700 185 700 C136 700 105 691 92 686 L92 686 Z " />
<glyph glyph-name="guillemotleft" unicode="&#xab;" horiz-adv-x="699" d="M507 280 L634 501 C634 512 626 520 615 520 L493 520 C482 520 475 511 469 501 L343 286 L343 259 L469 19 C475 9 482 0 493 0 L615 0 C626 0 634 8 634 19 L507 265 L507 280 Z M229 280 L356 501 C356 512 348 520 337 520 L215 520 C204 520 197 511 191 501 L65 286 L65 259 L191 19 C197 9 204 0 215 0 L337 0 C348 0 356 8 356 19 L229 265 L229 280 Z " />
<glyph glyph-name="logicalnot" unicode="&#xac;" horiz-adv-x="549" d="M340 77 C340 66 348 58 359 58 L465 58 C476 58 484 66 484 77 L484 305 C484 316 476 324 465 324 L84 324 C73 324 65 316 65 305 L65 209 C65 198 73 190 84 190 L340 190 L340 77 Z " />
<glyph glyph-name="uni00AD" unicode="&#xad;" horiz-adv-x="198" d="" />
<glyph glyph-name="registered" unicode="&#xae;" horiz-adv-x="841" d="M421 699 C225 699 65 540 65 344 C65 148 225 -11 421 -11 C616 -11 776 148 776 344 C776 540 616 699 421 699 L421 699 Z M421 70 C268 70 147 192 147 344 C147 497 268 620 421 620 C575 620 697 497 697 344 C697 192 575 70 421 70 L421 70 Z M379 357 L379 459 L446 459 C463 459 478 443 478 424 L478 391 C478 372 463 357 446 357 L379 357 Z M280 161 C280 154 285 148 293 148 L366 148 C374 148 379 154 379 161 L379 266 L434 266 L483 158 C485 152 489 148 495 148 L575 148 C581 148 585 152 585 158 L527 279 C556 297 576 328 576 364 L576 451 C576 506 531 550 474 550 L293 550 C285 550 280 544 280 537 L280 161 Z " />
<glyph glyph-name="macron" unicode="&#xaf;" horiz-adv-x="425" d="M341 578 C352 578 360 586 360 597 L360 681 C360 692 352 700 341 700 L84 700 C73 700 65 692 65 681 L65 597 C65 586 73 578 84 578 L341 578 Z " />
<glyph glyph-name="degree" unicode="&#xb0;" horiz-adv-x="414" d="M206 751 C129 751 65 688 65 609 C65 532 129 468 206 468 C286 468 349 532 349 609 C349 688 286 751 206 751 L206 751 Z M206 568 C184 568 165 587 165 609 C165 632 184 651 206 651 C229 651 248 632 248 609 C248 587 229 568 206 568 L206 568 Z " />
<glyph glyph-name="plusminus" unicode="&#xb1;" horiz-adv-x="464" d="M305 404 L305 496 C305 507 297 515 286 515 L180 515 C169 515 161 507 161 496 L161 404 L84 404 C73 404 65 396 65 385 L65 290 C65 279 73 271 84 271 L161 271 L161 179 C161 168 169 160 180 160 L286 160 C297 160 305 168 305 179 L305 271 L380 271 C391 271 399 279 399 290 L399 385 C399 396 391 404 380 404 L305 404 Z M380 0 C391 0 399 8 399 19 L399 114 C399 125 391 133 380 133 L84 133 C73 133 65 125 65 114 L65 19 C65 8 73 0 84 0 L380 0 Z " />
<glyph glyph-name="twosuperior" unicode="&#xb2;" horiz-adv-x="346" d="M156 471 C156 522 279 468 279 611 L279 625 C279 667 245 700 202 700 L147 700 C104 700 71 667 71 625 L71 593 C71 588 74 585 79 585 L137 585 C142 585 145 588 145 593 L145 598 C145 613 152 624 165 624 L175 624 C188 624 194 614 194 605 L194 600 C194 531 65 592 65 461 L65 401 C65 397 68 394 72 394 L274 394 C278 394 281 397 281 401 L281 463 C281 468 278 471 274 471 L156 471 Z " />
<glyph glyph-name="threesuperior" unicode="&#xb3;" horiz-adv-x="338" d="M233 547 C255 557 273 578 273 611 L273 625 C273 667 239 700 196 700 L141 700 C98 700 65 667 65 625 L65 593 C65 588 68 585 73 585 L131 585 C136 585 139 588 139 593 L139 598 C139 613 146 624 159 624 L169 624 C182 624 188 614 188 605 L188 599 C188 590 182 580 169 580 L152 580 C148 580 145 577 145 572 L145 522 C145 517 148 514 152 514 L169 514 C182 514 188 504 188 495 L188 489 C188 480 182 470 169 470 L159 470 C146 470 139 481 139 496 L139 501 C139 506 136 509 131 509 L73 509 C68 509 65 506 65 501 L65 469 C65 427 98 394 141 394 L196 394 C239 394 273 427 273 469 L273 483 C273 516 255 537 233 547 L233 547 Z " />
<glyph glyph-name="acute" unicode="&#xb4;" horiz-adv-x="331" d="M183 527 C194 527 202 536 206 545 L266 682 C266 692 259 700 248 700 L148 700 C137 700 129 691 125 682 L65 545 C65 535 73 527 83 527 L183 527 Z " />
<glyph glyph-name="mu" unicode="&#xb5;" horiz-adv-x="532" d="M65 -155 C65 -166 73 -174 84 -174 L190 -174 C201 -174 209 -166 209 -155 L209 -4 C213 -5 217 -5 222 -5 L320 -5 C416 -5 477 75 477 152 L477 496 C477 507 469 515 458 515 L352 515 C341 515 333 507 333 496 L333 158 C333 142 318 128 303 128 L239 128 C225 128 211 140 209 154 L209 496 C209 507 201 515 190 515 L84 515 C73 515 65 507 65 496 L65 -155 Z " />
<glyph glyph-name="paragraph" unicode="&#xb6;" horiz-adv-x="705" d="M248 700 C147 700 65 622 65 524 L65 436 C65 338 147 260 248 260 L288 260 L288 19 C288 8 296 0 307 0 L413 0 C424 0 432 8 432 19 L432 566 L496 566 L496 19 C496 8 504 0 515 0 L621 0 C632 0 640 8 640 19 L640 681 C640 692 632 700 621 700 L248 700 Z " />
<glyph glyph-name="periodcentered" unicode="&#xb7;" horiz-adv-x="271" d="M65 177 C65 167 73 159 83 159 L188 159 C198 159 206 167 206 177 L206 282 C206 292 198 300 188 300 L83 300 C73 300 65 292 65 282 L65 177 Z " />
<glyph glyph-name="cedilla" unicode="&#xb8;" horiz-adv-x="309" d="M142 -92 C142 -92 154 -92 154 -105 C154 -118 142 -118 142 -118 L80 -118 C72 -118 65 -124 65 -133 L65 -180 C65 -188 72 -195 80 -195 L167 -195 C227 -195 244 -168 244 -93 C244 -53 216 -29 183 -23 L201 8 C201 19 193 27 182 27 L127 27 C116 27 111 17 105 8 L82 -32 C79 -37 77 -45 77 -48 L77 -77 C77 -85 84 -92 92 -92 L142 -92 Z " />
<glyph glyph-name="onesuperior" unicode="&#xb9;" horiz-adv-x="349" d="M141 623 L141 471 L87 471 C81 471 76 466 76 460 L76 405 C76 399 81 394 87 394 L273 394 C279 394 284 399 284 405 L284 460 C284 466 279 471 273 471 L228 471 L228 689 C228 695 223 700 217 700 L140 700 L76 674 C70 672 65 666 65 660 L65 608 C65 602 70 597 76 597 L141 623 Z " />
<glyph glyph-name="ordmasculine" unicode="&#xba;" horiz-adv-x="414" d="M206 751 C129 751 65 688 65 609 C65 532 129 468 206 468 C286 468 349 532 349 609 C349 688 286 751 206 751 L206 751 Z M206 568 C184 568 165 587 165 609 C165 632 184 651 206 651 C229 651 248 632 248 609 C248 587 229 568 206 568 L206 568 Z " />
<glyph glyph-name="guillemotright" unicode="&#xbb;" horiz-adv-x="699" d="M192 265 L65 19 C65 8 73 0 84 0 L206 0 C217 0 224 9 230 19 L356 259 L356 286 L230 501 C224 511 217 520 206 520 L84 520 C73 520 65 512 65 501 L192 280 L192 265 Z M470 265 L343 19 C343 8 351 0 362 0 L484 0 C495 0 502 9 508 19 L634 259 L634 286 L508 501 C502 511 495 520 484 520 L362 520 C351 520 343 512 343 501 L470 280 L470 265 Z " />
<glyph glyph-name="onequarter" unicode="&#xbc;" horiz-adv-x="754" d="M251 0 C261 0 268 7 272 17 L611 683 C611 693 604 700 594 700 L530 700 C520 700 513 693 509 683 L170 17 C170 7 177 0 187 0 L251 0 Z M141 623 L141 471 L87 471 C81 471 76 466 76 460 L76 405 C76 399 81 394 87 394 L273 394 C279 394 284 399 284 405 L284 460 C284 466 279 471 273 471 L228 471 L228 689 C228 695 223 700 217 700 L140 700 L76 674 C70 672 65 666 65 660 L65 608 C65 602 70 597 76 597 L141 623 Z M593 295 C593 301 588 306 582 306 L522 306 C516 306 511 300 509 295 L425 97 L425 54 C425 48 430 43 436 43 L579 43 L579 11 C579 5 584 0 590 0 L655 0 C661 0 666 5 666 11 L666 43 L678 43 C684 43 689 48 689 54 L689 109 C689 115 684 120 678 120 L666 120 L666 189 C666 195 661 200 655 200 L590 200 C584 200 579 195 579 189 L579 120 L519 120 L593 295 Z " />
<glyph glyph-name="onehalf" unicode="&#xbd;" horiz-adv-x="753" d="M251 0 C261 0 268 7 272 17 L611 683 C611 693 604 700 594 700 L530 700 C520 700 513 693 509 683 L170 17 C170 7 177 0 187 0 L251 0 Z M141 623 L141 471 L87 471 C81 471 76 466 76 460 L76 405 C76 399 81 394 87 394 L273 394 C279 394 284 399 284 405 L284 460 C284 466 279 471 273 471 L228 471 L228 689 C228 695 223 700 217 700 L140 700 L76 674 C70 672 65 666 65 660 L65 608 C65 602 70 597 76 597 L141 623 Z M563 77 C563 128 686 74 686 217 L686 231 C686 273 652 306 609 306 L554 306 C511 306 478 273 478 231 L478 199 C478 194 481 191 486 191 L544 191 C549 191 552 194 552 199 L552 204 C552 219 559 230 572 230 L582 230 C595 230 601 220 601 211 L601 206 C601 137 472 198 472 67 L472 7 C472 3 475 0 479 0 L681 0 C685 0 688 3 688 7 L688 69 C688 74 685 77 681 77 L563 77 Z " />
<glyph glyph-name="threequarters" unicode="&#xbe;" horiz-adv-x="721" d="M218 0 C228 0 235 7 239 17 L578 683 C578 693 571 700 561 700 L497 700 C487 700 480 693 476 683 L137 17 C137 7 144 0 154 0 L218 0 Z M633 189 C633 195 628 200 622 200 L557 200 C551 200 546 195 546 189 L546 120 L496 120 L556 299 C556 303 553 306 549 306 L480 306 C476 306 474 303 472 299 L405 97 L405 54 C405 48 410 43 416 43 L546 43 L546 11 C546 5 551 0 557 0 L622 0 C628 0 633 5 633 11 L633 43 L645 43 C651 43 656 48 656 54 L656 109 C656 115 651 120 645 120 L633 120 L633 189 Z M233 547 C255 557 273 578 273 611 L273 625 C273 667 239 700 196 700 L141 700 C98 700 65 667 65 625 L65 593 C65 588 68 585 73 585 L131 585 C136 585 139 588 139 593 L139 598 C139 613 146 624 159 624 L169 624 C182 624 188 614 188 605 L188 599 C188 590 182 580 169 580 L152 580 C148 580 145 577 145 572 L145 522 C145 517 148 514 152 514 L169 514 C182 514 188 504 188 495 L188 489 C188 480 182 470 169 470 L159 470 C146 470 139 481 139 496 L139 501 C139 506 136 509 131 509 L73 509 C68 509 65 506 65 501 L65 469 C65 427 98 394 141 394 L196 394 C239 394 273 427 273 469 L273 483 C273 516 255 537 233 547 L233 547 Z " />
<glyph glyph-name="questiondown" unicode="&#xbf;" horiz-adv-x="610" d="M257 499 C257 356 65 482 65 220 L65 176 C65 78 147 0 248 0 L364 0 C465 0 545 78 545 176 L545 223 C545 234 537 242 526 242 L420 242 C409 242 401 234 401 223 L401 183 C401 156 380 134 356 134 L255 134 C230 134 209 156 209 183 L209 216 C209 364 395 247 401 495 L401 513 C401 524 393 532 382 532 L276 532 C265 532 257 524 257 513 L257 499 Z M403 589 C403 578 395 570 384 570 L274 570 C263 570 255 578 255 589 L255 686 C255 697 263 705 274 705 L384 705 C395 705 403 697 403 686 L403 589 Z " />
<glyph glyph-name="Agrave" unicode="&#xc0;" horiz-adv-x="618" d="M233 700 C222 700 215 691 212 681 L20 19 C20 8 28 0 39 0 L145 0 C156 0 164 8 167 19 L193 115 L424 115 L451 19 C454 8 462 0 473 0 L579 0 C590 0 598 8 598 19 L406 681 C403 691 396 700 385 700 L233 700 Z M302 515 L315 515 L388 248 L229 248 L302 515 Z M354 751 C364 751 372 759 372 769 L312 906 C308 915 300 924 289 924 L189 924 C178 924 171 916 171 906 L231 769 C235 760 243 751 254 751 L354 751 Z " />
<glyph glyph-name="Aacute" unicode="&#xc1;" horiz-adv-x="618" d="M233 700 C222 700 215 691 212 681 L20 19 C20 8 28 0 39 0 L145 0 C156 0 164 8 167 19 L194 115 L425 115 L451 19 C454 8 462 0 473 0 L579 0 C590 0 598 8 598 19 L406 681 C403 691 396 700 385 700 L233 700 Z M389 248 L230 248 L303 515 L316 515 L389 248 Z M364 751 C375 751 383 760 387 769 L447 906 C447 916 440 924 429 924 L329 924 C318 924 310 915 306 906 L246 769 C246 759 254 751 264 751 L364 751 Z " />
<glyph glyph-name="Acircumflex" unicode="&#xc2;" horiz-adv-x="618" d="M233 700 C222 700 215 691 212 681 L20 19 C20 8 28 0 39 0 L145 0 C156 0 164 8 167 19 L193 115 L424 115 L451 19 C454 8 462 0 473 0 L579 0 C590 0 598 8 598 19 L406 681 C403 691 396 700 385 700 L233 700 Z M302 515 L315 515 L388 248 L229 248 L302 515 Z M258 959 C246 959 238 955 233 944 L147 770 C147 759 155 751 166 751 L260 751 C271 751 279 760 283 770 L308 821 L333 770 C337 760 345 751 356 751 L450 751 C461 751 469 759 469 770 L383 944 C378 955 370 959 358 959 L258 959 Z " />
<glyph glyph-name="Atilde" unicode="&#xc3;" horiz-adv-x="618" d="M233 700 C222 700 215 691 212 681 L20 19 C20 8 28 0 39 0 L145 0 C156 0 164 8 167 19 L193 115 L424 115 L451 19 C454 8 462 0 473 0 L579 0 C590 0 598 8 598 19 L406 681 C403 691 396 700 385 700 L233 700 Z M302 515 L315 515 L388 248 L229 248 L302 515 Z M378 751 C405 751 432 764 458 780 C466 786 470 795 470 804 L446 882 C444 889 436 895 426 895 C423 895 419 895 416 894 C405 889 386 885 378 885 C329 885 288 924 240 924 C213 924 186 911 160 895 C152 889 148 880 148 871 L172 793 C174 786 182 780 192 780 C195 780 199 780 202 781 C213 786 232 790 240 790 C290 790 330 751 378 751 L378 751 Z " />
<glyph glyph-name="Adieresis" unicode="&#xc4;" horiz-adv-x="618" d="M233 700 C222 700 215 691 212 681 L20 19 C20 8 28 0 39 0 L145 0 C156 0 164 8 167 19 L193 115 L424 115 L451 19 C454 8 462 0 473 0 L579 0 C590 0 598 8 598 19 L406 681 C403 691 396 700 385 700 L233 700 Z M302 515 L315 515 L388 248 L229 248 L302 515 Z M154 770 C154 759 162 751 173 751 L268 751 C279 751 287 759 287 770 L287 869 C287 880 279 888 268 888 L173 888 C162 888 154 880 154 869 L154 770 Z M332 770 C332 759 340 751 351 751 L446 751 C457 751 465 759 465 770 L465 869 C465 880 457 888 446 888 L351 888 C340 888 332 880 332 869 L332 770 Z " />
<glyph glyph-name="Aring" unicode="&#xc5;" horiz-adv-x="618" d="M309 883 C232 883 168 820 168 741 C168 706 181 674 202 649 L20 19 C20 8 28 0 39 0 L145 0 C156 0 164 8 167 19 L193 115 L424 115 L451 19 C454 8 462 0 473 0 L579 0 C590 0 598 8 598 19 L416 647 C438 672 452 705 452 741 C452 820 389 883 309 883 L309 883 Z M302 515 L315 515 L388 248 L229 248 L302 515 Z M309 700 C287 700 268 719 268 741 C268 764 287 783 309 783 C332 783 351 764 351 741 C351 719 332 700 309 700 L309 700 Z " />
<glyph glyph-name="AE" unicode="&#xc6;" horiz-adv-x="914" d="M286 248 C339 352 387 446 440 548 L440 248 L286 248 Z M15 19 C15 8 23 0 34 0 L149 0 C160 0 167 9 172 19 L219 115 L440 115 L440 19 C440 8 448 0 459 0 L840 0 C851 0 859 8 859 19 L859 115 C859 126 851 134 840 134 L584 134 L584 296 L818 296 C829 296 837 304 837 315 L837 411 C837 422 829 430 818 430 L584 430 L584 566 L840 566 C851 566 859 574 859 585 L859 681 C859 692 851 700 840 700 L382 700 C368 700 362 694 356 683 L15 19 Z " />
<glyph glyph-name="Ccedilla" unicode="&#xc7;" horiz-adv-x="584" d="M400 178 C400 151 379 129 355 129 L244 129 C220 129 199 151 199 178 L199 522 C199 549 220 571 244 571 L355 571 C379 571 400 549 400 522 L400 490 C400 479 408 471 419 471 L525 471 C536 471 544 479 544 490 L544 529 C544 627 463 705 361 705 L238 705 C136 705 55 627 55 529 L55 171 C55 73 136 -5 238 -5 L256 -5 L237 -38 C234 -43 232 -51 232 -54 L232 -83 C232 -91 239 -98 247 -98 L297 -98 C297 -98 309 -98 309 -111 C309 -124 297 -124 297 -124 L235 -124 C227 -124 220 -130 220 -139 L220 -186 C220 -194 227 -201 235 -201 L322 -201 C382 -201 399 -174 399 -99 C399 -59 371 -35 338 -29 L352 -5 L361 -5 C463 -5 544 73 544 171 L544 210 C544 221 536 229 525 229 L419 229 C408 229 400 221 400 210 L400 178 Z " />
<glyph glyph-name="Egrave" unicode="&#xc8;" horiz-adv-x="539" d="M65 19 C65 8 73 0 84 0 L465 0 C476 0 484 8 484 19 L484 115 C484 126 476 134 465 134 L209 134 L209 296 L443 296 C454 296 462 304 462 315 L462 411 C462 422 454 430 443 430 L209 430 L209 566 L465 566 C476 566 484 574 484 585 L484 681 C484 692 476 700 465 700 L84 700 C73 700 65 692 65 681 L65 19 Z M326 751 C336 751 344 759 344 769 L284 906 C280 915 272 924 261 924 L161 924 C150 924 143 916 143 906 L203 769 C207 760 215 751 226 751 L326 751 Z " />
<glyph glyph-name="Eacute" unicode="&#xc9;" horiz-adv-x="539" d="M65 19 C65 8 73 0 84 0 L465 0 C476 0 484 8 484 19 L484 115 C484 126 476 134 465 134 L209 134 L209 296 L443 296 C454 296 462 304 462 315 L462 411 C462 422 454 430 443 430 L209 430 L209 566 L465 566 C476 566 484 574 484 585 L484 681 C484 692 476 700 465 700 L84 700 C73 700 65 692 65 681 L65 19 Z M326 751 C337 751 345 760 349 769 L409 906 C409 916 402 924 391 924 L291 924 C280 924 272 915 268 906 L208 769 C208 759 216 751 226 751 L326 751 Z " />
<glyph glyph-name="Ecircumflex" unicode="&#xca;" horiz-adv-x="539" d="M65 19 C65 8 73 0 84 0 L465 0 C476 0 484 8 484 19 L484 115 C484 126 476 134 465 134 L209 134 L209 296 L443 296 C454 296 462 304 462 315 L462 411 C462 422 454 430 443 430 L209 430 L209 566 L465 566 C476 566 484 574 484 585 L484 681 C484 692 476 700 465 700 L84 700 C73 700 65 692 65 681 L65 19 Z M226 959 C214 959 206 955 201 944 L115 770 C115 759 123 751 134 751 L228 751 C239 751 247 760 251 770 L276 821 L301 770 C305 760 313 751 324 751 L418 751 C429 751 437 759 437 770 L351 944 C346 955 338 959 326 959 L226 959 Z " />
<glyph glyph-name="Edieresis" unicode="&#xcb;" horiz-adv-x="539" d="M65 19 C65 8 73 0 84 0 L465 0 C476 0 484 8 484 19 L484 115 C484 126 476 134 465 134 L209 134 L209 296 L443 296 C454 296 462 304 462 315 L462 411 C462 422 454 430 443 430 L209 430 L209 566 L465 566 C476 566 484 574 484 585 L484 681 C484 692 476 700 465 700 L84 700 C73 700 65 692 65 681 L65 19 Z M118 770 C118 759 126 751 137 751 L232 751 C243 751 251 759 251 770 L251 869 C251 880 243 888 232 888 L137 888 C126 888 118 880 118 869 L118 770 Z M296 770 C296 759 304 751 315 751 L410 751 C421 751 429 759 429 770 L429 869 C429 880 421 888 410 888 L315 888 C304 888 296 880 296 869 L296 770 Z " />
<glyph glyph-name="Igrave" unicode="&#xcc;" horiz-adv-x="274" d="M65 19 C65 8 73 0 84 0 L190 0 C201 0 209 8 209 19 L209 681 C209 692 201 700 190 700 L84 700 C73 700 65 692 65 681 L65 19 Z M188 751 C198 751 206 759 206 769 L146 906 C142 915 134 924 123 924 L23 924 C12 924 5 916 5 906 L65 769 C69 760 77 751 88 751 L188 751 Z " />
<glyph glyph-name="Iacute" unicode="&#xcd;" horiz-adv-x="274" d="M209 681 C209 692 201 700 190 700 L84 700 C73 700 65 692 65 681 L65 19 C65 8 73 0 84 0 L190 0 C201 0 209 8 209 19 L209 681 Z M186 751 C197 751 205 760 209 769 L269 906 C269 916 262 924 251 924 L151 924 C140 924 132 915 128 906 L68 769 C68 759 76 751 86 751 L186 751 Z " />
<glyph glyph-name="Icircumflex" unicode="&#xce;" horiz-adv-x="274" d="M209 681 C209 692 201 700 190 700 L84 700 C73 700 65 692 65 681 L65 19 C65 8 73 0 84 0 L190 0 C201 0 209 8 209 19 L209 681 Z M87 959 C75 959 67 955 62 944 L-24 770 C-24 759 -16 751 -5 751 L89 751 C100 751 108 760 112 770 L137 821 L162 770 C166 760 174 751 185 751 L279 751 C290 751 298 759 298 770 L212 944 C207 955 199 959 187 959 L87 959 Z " />
<glyph glyph-name="Idieresis" unicode="&#xcf;" horiz-adv-x="274" d="M209 681 C209 692 201 700 190 700 L84 700 C73 700 65 692 65 681 L65 19 C65 8 73 0 84 0 L190 0 C201 0 209 8 209 19 L209 681 Z M-23 770 C-23 759 -15 751 -4 751 L91 751 C102 751 110 759 110 770 L110 869 C110 880 102 888 91 888 L-4 888 C-15 888 -23 880 -23 869 L-23 770 Z M162 770 C162 759 170 751 181 751 L276 751 C287 751 295 759 295 770 L295 869 C295 880 287 888 276 888 L181 888 C170 888 162 880 162 869 L162 770 Z " />
<glyph glyph-name="Eth" unicode="&#xd0;" horiz-adv-x="619" d="M93 700 C82 700 74 692 74 681 L74 416 L24 416 C13 416 5 408 5 397 L5 301 C5 290 13 282 24 282 L74 282 L74 19 C74 8 82 0 93 0 L381 0 C482 0 564 78 564 176 L564 524 C564 622 482 700 381 700 L93 700 Z M279 282 C290 282 298 290 298 301 L298 397 C298 408 290 416 279 416 L218 416 L218 567 L374 567 C398 567 420 545 420 518 L420 182 C420 155 398 133 374 133 L218 133 L218 282 L279 282 Z " />
<glyph glyph-name="Ntilde" unicode="&#xd1;" horiz-adv-x="647" d="M220 700 L84 700 C73 700 65 692 65 681 L65 19 C65 8 73 0 84 0 L190 0 C201 0 209 8 209 19 L209 407 L216 407 L400 16 C405 6 411 0 426 0 L563 0 C574 0 582 8 582 19 L582 681 C582 692 574 700 563 700 L457 700 C446 700 438 692 438 681 L438 287 L431 287 L246 684 C241 694 235 700 220 700 L220 700 Z M382 751 C409 751 436 764 462 780 C470 786 474 795 474 804 L450 882 C448 889 440 895 430 895 C427 895 423 895 420 894 C409 889 390 885 382 885 C333 885 292 924 244 924 C217 924 190 911 164 895 C156 889 152 880 152 871 L176 793 C178 786 186 780 196 780 C199 780 203 780 206 781 C217 786 236 790 244 790 C294 790 334 751 382 751 L382 751 Z " />
<glyph glyph-name="Ograve" unicode="&#xd2;" horiz-adv-x="599" d="M244 129 C220 129 199 151 199 178 L199 522 C199 549 220 571 244 571 L355 571 C379 571 400 549 400 522 L400 178 C400 151 379 129 355 129 L244 129 Z M361 -5 C463 -5 544 73 544 171 L544 529 C544 627 463 705 361 705 L238 705 C136 705 55 627 55 529 L55 171 C55 73 136 -5 238 -5 L361 -5 Z M346 751 C356 751 364 759 364 769 L304 906 C300 915 292 924 281 924 L181 924 C170 924 163 916 163 906 L223 769 C227 760 235 751 246 751 L346 751 Z " />
<glyph glyph-name="Oacute" unicode="&#xd3;" horiz-adv-x="599" d="M244 129 C220 129 199 151 199 178 L199 522 C199 549 220 571 244 571 L355 571 C379 571 400 549 400 522 L400 178 C400 151 379 129 355 129 L244 129 Z M361 -5 C463 -5 544 73 544 171 L544 529 C544 627 463 705 361 705 L238 705 C136 705 55 627 55 529 L55 171 C55 73 136 -5 238 -5 L361 -5 Z M353 751 C364 751 372 760 376 769 L436 906 C436 916 429 924 418 924 L318 924 C307 924 299 915 295 906 L235 769 C235 759 243 751 253 751 L353 751 Z " />
<glyph glyph-name="Ocircumflex" unicode="&#xd4;" horiz-adv-x="599" d="M244 129 C220 129 199 151 199 178 L199 522 C199 549 220 571 244 571 L355 571 C379 571 400 549 400 522 L400 178 C400 151 379 129 355 129 L244 129 Z M361 -5 C463 -5 544 73 544 171 L544 529 C544 627 463 705 361 705 L238 705 C136 705 55 627 55 529 L55 171 C55 73 136 -5 238 -5 L361 -5 Z M249 959 C237 959 229 955 224 944 L138 770 C138 759 146 751 157 751 L251 751 C262 751 270 760 274 770 L299 821 L324 770 C328 760 336 751 347 751 L441 751 C452 751 460 759 460 770 L374 944 C369 955 361 959 349 959 L249 959 Z " />
<glyph glyph-name="Otilde" unicode="&#xd5;" horiz-adv-x="599" d="M244 129 C220 129 199 151 199 178 L199 522 C199 549 220 571 244 571 L355 571 C379 571 400 549 400 522 L400 178 C400 151 379 129 355 129 L244 129 Z M361 -5 C463 -5 544 73 544 171 L544 529 C544 627 463 705 361 705 L238 705 C136 705 55 627 55 529 L55 171 C55 73 136 -5 238 -5 L361 -5 Z M356 751 C383 751 410 764 436 780 C444 786 448 795 448 804 L424 882 C422 889 414 895 404 895 C401 895 397 895 394 894 C383 889 364 885 356 885 C307 885 266 924 218 924 C191 924 164 911 138 895 C130 889 126 880 126 871 L150 793 C152 786 160 780 170 780 C173 780 177 780 180 781 C191 786 210 790 218 790 C268 790 308 751 356 751 L356 751 Z " />
<glyph glyph-name="Odieresis" unicode="&#xd6;" horiz-adv-x="599" d="M244 129 C220 129 199 151 199 178 L199 522 C199 549 220 571 244 571 L355 571 C379 571 400 549 400 522 L400 178 C400 151 379 129 355 129 L244 129 Z M361 -5 C463 -5 544 73 544 171 L544 529 C544 627 463 705 361 705 L238 705 C136 705 55 627 55 529 L55 171 C55 73 136 -5 238 -5 L361 -5 Z M144 770 C144 759 152 751 163 751 L258 751 C269 751 277 759 277 770 L277 869 C277 880 269 888 258 888 L163 888 C152 888 144 880 144 869 L144 770 Z M322 770 C322 759 330 751 341 751 L436 751 C447 751 455 759 455 770 L455 869 C455 880 447 888 436 888 L341 888 C330 888 322 880 322 869 L322 770 Z " />
<glyph glyph-name="multiply" unicode="&#xd7;" horiz-adv-x="438" d="M219 97 L281 34 C286 30 290 29 294 29 C298 29 303 30 306 34 L368 96 C372 99 373 104 373 108 C373 112 372 116 368 121 L305 184 L368 248 C371 251 373 256 373 260 C373 264 371 268 368 272 L307 334 C303 337 299 339 295 339 C291 339 286 337 282 334 L219 269 L156 334 C152 337 147 339 143 339 C139 339 135 337 131 334 L70 272 C67 268 65 264 65 260 C65 256 67 251 70 248 L133 184 L70 121 C66 116 65 112 65 108 C65 104 66 99 70 96 L132 34 C135 30 140 29 144 29 C148 29 152 30 157 34 L219 97 Z " />
<glyph glyph-name="Oslash" unicode="&#xd8;" horiz-adv-x="599" d="M104 -72 C104 -83 112 -91 123 -91 L211 -91 C222 -91 230 -83 233 -72 L254 -5 L361 -5 C463 -5 544 73 544 171 L544 529 C544 588 514 639 469 671 L501 772 C501 783 493 791 482 791 L394 791 C383 791 375 783 372 772 L351 705 L238 705 C136 705 55 627 55 529 L55 171 C55 110 86 56 135 25 L104 -72 Z M199 522 C199 549 220 571 244 571 L308 571 L199 226 L199 522 Z M355 129 L297 129 L400 453 L400 178 C400 151 379 129 355 129 L355 129 Z " />
<glyph glyph-name="Ugrave" unicode="&#xd9;" horiz-adv-x="609" d="M549 681 C549 692 541 700 530 700 L424 700 C413 700 405 692 405 681 L405 178 C405 151 384 129 360 129 L249 129 C225 129 204 151 204 178 L204 681 C204 692 196 700 185 700 L79 700 C68 700 60 692 60 681 L60 171 C60 73 141 -5 243 -5 L366 -5 C468 -5 549 73 549 171 L549 681 Z M351 751 C361 751 369 759 369 769 L309 906 C305 915 297 924 286 924 L186 924 C175 924 168 916 168 906 L228 769 C232 760 240 751 251 751 L351 751 Z " />
<glyph glyph-name="Uacute" unicode="&#xda;" horiz-adv-x="609" d="M60 171 C60 73 141 -5 243 -5 L366 -5 C468 -5 549 73 549 171 L549 681 C549 692 541 700 530 700 L424 700 C413 700 405 692 405 681 L405 178 C405 151 384 129 360 129 L249 129 C225 129 204 151 204 178 L204 681 C204 692 196 700 185 700 L79 700 C68 700 60 692 60 681 L60 171 Z M358 751 C369 751 377 760 381 769 L441 906 C441 916 434 924 423 924 L323 924 C312 924 304 915 300 906 L240 769 C240 759 248 751 258 751 L358 751 Z " />
<glyph glyph-name="Ucircumflex" unicode="&#xdb;" horiz-adv-x="609" d="M549 681 C549 692 541 700 530 700 L424 700 C413 700 405 692 405 681 L405 178 C405 151 384 129 360 129 L249 129 C225 129 204 151 204 178 L204 681 C204 692 196 700 185 700 L79 700 C68 700 60 692 60 681 L60 171 C60 73 141 -5 243 -5 L366 -5 C468 -5 549 73 549 171 L549 681 Z M254 949 C242 949 234 945 229 934 L143 760 C143 749 151 741 162 741 L256 741 C267 741 275 750 279 760 L304 811 L329 760 C333 750 341 741 352 741 L446 741 C457 741 465 749 465 760 L379 934 C374 945 366 949 354 949 L254 949 Z " />
<glyph glyph-name="Udieresis" unicode="&#xdc;" horiz-adv-x="609" d="M549 681 C549 692 541 700 530 700 L424 700 C413 700 405 692 405 681 L405 178 C405 151 384 129 360 129 L249 129 C225 129 204 151 204 178 L204 681 C204 692 196 700 185 700 L79 700 C68 700 60 692 60 681 L60 171 C60 73 141 -5 243 -5 L366 -5 C468 -5 549 73 549 171 L549 681 Z M149 770 C149 759 157 751 168 751 L263 751 C274 751 282 759 282 770 L282 869 C282 880 274 888 263 888 L168 888 C157 888 149 880 149 869 L149 770 Z M327 770 C327 759 335 751 346 751 L441 751 C452 751 460 759 460 770 L460 869 C460 880 452 888 441 888 L346 888 C335 888 327 880 327 869 L327 770 Z " />
<glyph glyph-name="Yacute" unicode="&#xdd;" horiz-adv-x="602" d="M568 700 L463 700 C452 700 445 691 440 681 L307 395 L296 395 L162 681 C157 691 150 700 139 700 L34 700 C23 700 15 692 15 681 L229 226 L229 19 C229 8 237 0 248 0 L354 0 C365 0 373 8 373 19 L373 226 L587 681 C587 692 579 700 568 700 L568 700 Z M356 751 C367 751 375 760 379 769 L439 906 C439 916 432 924 421 924 L321 924 C310 924 302 915 298 906 L238 769 C238 759 246 751 256 751 L356 751 Z " />
<glyph glyph-name="Thorn" unicode="&#xde;" horiz-adv-x="591" d="M209 232 L209 468 L356 468 C381 468 402 446 402 419 L402 281 C402 254 381 232 356 232 L209 232 Z M209 602 L209 683 C209 694 201 702 190 702 L84 702 C73 702 65 694 65 683 L65 19 C65 8 73 0 84 0 L190 0 C201 0 209 8 209 19 L209 98 L363 98 C464 98 546 176 546 274 L546 426 C546 524 464 602 363 602 L209 602 Z " />
<glyph glyph-name="germandbls" unicode="&#xdf;" horiz-adv-x="581" d="M356 283 C381 283 402 261 402 234 L402 182 C402 155 381 133 356 133 L285 133 C274 133 266 125 266 114 L266 19 C266 8 274 0 285 0 L363 0 C464 0 546 78 546 176 L546 238 C546 289 515 333 479 366 C498 393 518 425 518 462 L518 524 C518 622 436 700 335 700 L84 700 C73 700 65 692 65 681 L65 19 C65 8 73 0 84 0 L190 0 C201 0 209 8 209 19 L209 567 L328 567 C352 567 374 545 374 518 L374 465 C374 438 352 416 328 416 L272 416 C261 416 253 408 253 397 L253 302 C253 291 261 283 272 283 L356 283 Z " />
<glyph glyph-name="agrave" unicode="&#xe0;" horiz-adv-x="506" d="M124 373 C156 382 193 387 231 387 C306 387 312 348 312 326 L312 319 L210 319 C116 319 45 270 45 179 L45 139 C45 48 116 -5 210 -5 L225 -5 C239 -5 292 -2 303 31 L312 31 L312 19 C312 8 320 0 331 0 L437 0 C448 0 456 8 456 19 L456 327 C456 374 438 520 249 520 C166 520 114 506 94 499 C85 496 79 490 79 481 C79 479 79 469 100 387 C103 376 110 372 115 372 C117 372 121 372 124 373 L124 373 Z M189 171 C189 188 204 201 219 201 L312 201 L312 158 C312 142 296 128 281 128 L219 128 C204 128 189 142 189 158 L189 171 Z M331 571 C341 571 349 579 349 589 L289 726 C285 735 277 744 266 744 L166 744 C155 744 148 736 148 726 L208 589 C212 580 220 571 231 571 L331 571 Z " />
<glyph glyph-name="aacute" unicode="&#xe1;" horiz-adv-x="506" d="M124 373 C156 382 193 387 231 387 C306 387 312 348 312 326 L312 319 L210 319 C116 319 45 270 45 179 L45 139 C45 48 116 -5 210 -5 L225 -5 C239 -5 292 -2 303 31 L312 31 L312 19 C312 8 320 0 331 0 L437 0 C448 0 456 8 456 19 L456 327 C456 374 438 520 249 520 C166 520 114 506 94 499 C85 496 79 490 79 481 C79 479 79 469 100 387 C103 376 110 372 115 372 C117 372 121 372 124 373 L124 373 Z M189 171 C189 188 204 201 219 201 L312 201 L312 158 C312 142 296 128 281 128 L219 128 C204 128 189 142 189 158 L189 171 Z M321 571 C332 571 340 580 344 589 L404 726 C404 736 397 744 386 744 L286 744 C275 744 267 735 263 726 L203 589 C203 579 211 571 221 571 L321 571 Z " />
<glyph glyph-name="acircumflex" unicode="&#xe2;" horiz-adv-x="506" d="M124 373 C156 382 193 387 231 387 C306 387 312 348 312 326 L312 319 L210 319 C116 319 45 270 45 179 L45 139 C45 48 116 -5 210 -5 L225 -5 C239 -5 292 -2 303 31 L312 31 L312 19 C312 8 320 0 331 0 L437 0 C448 0 456 8 456 19 L456 327 C456 374 438 520 249 520 C166 520 114 506 94 499 C85 496 79 490 79 481 C79 479 79 469 100 387 C103 376 110 372 115 372 C117 372 121 372 124 373 L124 373 Z M189 171 C189 188 204 201 219 201 L312 201 L312 158 C312 142 296 128 281 128 L219 128 C204 128 189 142 189 158 L189 171 Z M226 779 C214 779 206 775 201 764 L115 590 C115 579 123 571 134 571 L228 571 C239 571 247 580 251 590 L276 641 L301 590 C305 580 313 571 324 571 L418 571 C429 571 437 579 437 590 L351 764 C346 775 338 779 326 779 L226 779 Z " />
<glyph glyph-name="atilde" unicode="&#xe3;" horiz-adv-x="506" d="M124 373 C156 382 193 387 231 387 C306 387 312 348 312 326 L312 319 L210 319 C116 319 45 270 45 179 L45 139 C45 48 116 -5 210 -5 L225 -5 C239 -5 292 -2 303 31 L312 31 L312 19 C312 8 320 0 331 0 L437 0 C448 0 456 8 456 19 L456 327 C456 374 438 520 249 520 C166 520 114 506 94 499 C85 496 79 490 79 481 C79 479 79 469 100 387 C103 376 110 372 115 372 C117 372 121 372 124 373 L124 373 Z M189 171 C189 188 204 201 219 201 L312 201 L312 158 C312 142 296 128 281 128 L219 128 C204 128 189 142 189 158 L189 171 Z M340 571 C367 571 394 584 420 600 C428 606 432 615 432 624 L408 702 C406 709 398 715 388 715 C385 715 381 715 378 714 C367 709 348 705 340 705 C291 705 250 744 202 744 C175 744 148 731 122 715 C114 709 110 700 110 691 L134 613 C136 606 144 600 154 600 C157 600 161 600 164 601 C175 606 194 610 202 610 C252 610 292 571 340 571 L340 571 Z " />
<glyph glyph-name="adieresis" unicode="&#xe4;" horiz-adv-x="506" d="M124 373 C156 382 193 387 231 387 C306 387 312 348 312 326 L312 319 L210 319 C116 319 45 270 45 179 L45 139 C45 48 116 -5 210 -5 L225 -5 C239 -5 292 -2 303 31 L312 31 L312 19 C312 8 320 0 331 0 L437 0 C448 0 456 8 456 19 L456 327 C456 374 438 520 249 520 C166 520 114 506 94 499 C85 496 79 490 79 481 C79 479 79 469 100 387 C103 376 110 372 115 372 C117 372 121 372 124 373 L124 373 Z M189 171 C189 188 204 201 219 201 L312 201 L312 158 C312 142 296 128 281 128 L219 128 C204 128 189 142 189 158 L189 171 Z M109 590 C109 579 117 571 128 571 L223 571 C234 571 242 579 242 590 L242 689 C242 700 234 708 223 708 L128 708 C117 708 109 700 109 689 L109 590 Z M287 590 C287 579 295 571 306 571 L401 571 C412 571 420 579 420 590 L420 689 C420 700 412 708 401 708 L306 708 C295 708 287 700 287 689 L287 590 Z " />
<glyph glyph-name="aring" unicode="&#xe5;" horiz-adv-x="506" d="M124 373 C156 382 193 387 231 387 C306 387 312 348 312 326 L312 319 L210 319 C116 319 45 270 45 179 L45 139 C45 48 116 -5 210 -5 L225 -5 C239 -5 292 -2 303 31 L312 31 L312 19 C312 8 320 0 331 0 L437 0 C448 0 456 8 456 19 L456 327 C456 374 438 520 249 520 C166 520 114 506 94 499 C85 496 79 490 79 481 C79 479 79 469 100 387 C103 376 110 372 115 372 C117 372 121 372 124 373 L124 373 Z M189 171 C189 188 204 201 219 201 L312 201 L312 158 C312 142 296 128 281 128 L219 128 C204 128 189 142 189 158 L189 171 Z M267 854 C190 854 126 791 126 712 C126 635 190 571 267 571 C347 571 410 635 410 712 C410 791 347 854 267 854 L267 854 Z M267 671 C245 671 226 690 226 712 C226 735 245 754 267 754 C290 754 309 735 309 712 C309 690 290 671 267 671 L267 671 Z " />
<glyph glyph-name="ae" unicode="&#xe6;" horiz-adv-x="769" d="M709 74 C711 77 712 82 712 85 C712 91 710 95 704 100 L637 155 C634 157 629 158 626 158 C619 158 614 155 610 150 C600 141 585 128 558 128 L486 128 C472 128 458 140 456 154 L456 195 L705 195 C716 195 724 203 724 214 L724 362 C724 440 664 520 567 520 L469 520 C431 520 399 508 374 488 C344 507 304 520 249 520 C166 520 114 506 94 499 C85 496 79 490 79 481 C79 479 79 469 100 387 C103 376 110 372 115 372 C117 372 121 372 124 373 C156 382 193 387 231 387 C306 387 312 348 312 326 L312 319 L210 319 C116 319 45 270 45 179 L45 139 C45 48 116 -5 210 -5 L251 -5 C263 -5 327 -2 366 33 L378 33 C405 10 439 -5 481 -5 L558 -5 C558 -5 660 -4 709 74 L709 74 Z M456 357 C456 373 471 387 486 387 L550 387 C565 387 581 373 581 357 L581 315 L456 315 L456 357 Z M189 171 C189 188 204 201 219 201 L312 201 L312 158 C312 142 296 128 281 128 L219 128 C204 128 189 142 189 158 L189 171 Z " />
<glyph glyph-name="ccedilla" unicode="&#xe7;" horiz-adv-x="492" d="M318 158 C318 142 302 128 287 128 L224 128 C209 128 194 142 194 158 L194 357 C194 373 209 387 224 387 L287 387 C302 387 318 373 318 357 L318 342 C318 331 326 323 337 323 L443 323 C454 323 462 331 462 342 L462 362 C462 440 402 520 305 520 L207 520 C111 520 50 440 50 362 L50 152 C50 75 110 -4 206 -5 L187 -38 C184 -43 182 -51 182 -54 L182 -83 C182 -91 189 -98 197 -98 L247 -98 C247 -98 259 -98 259 -111 C259 -124 247 -124 247 -124 L185 -124 C177 -124 170 -130 170 -139 L170 -186 C170 -194 177 -201 185 -201 L272 -201 C332 -201 349 -174 349 -99 C349 -59 321 -35 288 -29 L302 -5 C402 -5 462 75 462 152 L462 173 C462 184 454 192 443 192 L337 192 C326 192 318 184 318 173 L318 158 Z " />
<glyph glyph-name="egrave" unicode="&#xe8;" horiz-adv-x="507" d="M194 357 C194 373 209 387 224 387 L288 387 C303 387 319 373 319 357 L319 315 L194 315 L194 357 Z M447 74 C449 77 450 82 450 85 C450 91 448 95 442 100 L375 155 C372 157 367 158 364 158 C357 158 352 155 348 150 C338 141 323 128 296 128 L224 128 C209 128 194 142 194 158 L194 195 L443 195 C454 195 462 203 462 214 L462 362 C462 440 402 520 305 520 L207 520 C111 520 50 440 50 362 L50 152 C50 75 111 -5 207 -5 L296 -5 C296 -5 398 -4 447 74 L447 74 Z M304 571 C314 571 322 579 322 589 L262 726 C258 735 250 744 239 744 L139 744 C128 744 121 736 121 726 L181 589 C185 580 193 571 204 571 L304 571 Z " />
<glyph glyph-name="eacute" unicode="&#xe9;" horiz-adv-x="507" d="M194 357 C194 373 209 387 224 387 L288 387 C303 387 319 373 319 357 L319 315 L194 315 L194 357 Z M447 74 C449 77 450 82 450 85 C450 91 448 95 442 100 L375 155 C372 157 367 158 364 158 C357 158 352 155 348 150 C338 141 323 128 296 128 L224 128 C209 128 194 142 194 158 L194 195 L443 195 C454 195 462 203 462 214 L462 362 C462 440 402 520 305 520 L207 520 C111 520 50 440 50 362 L50 152 C50 75 111 -5 207 -5 L296 -5 C296 -5 398 -4 447 74 L447 74 Z M300 571 C311 571 319 580 323 589 L383 726 C383 736 376 744 365 744 L265 744 C254 744 246 735 242 726 L182 589 C182 579 190 571 200 571 L300 571 Z " />
<glyph glyph-name="ecircumflex" unicode="&#xea;" horiz-adv-x="507" d="M194 357 C194 373 209 387 224 387 L288 387 C303 387 319 373 319 357 L319 315 L194 315 L194 357 Z M447 74 C449 77 450 82 450 85 C450 91 448 95 442 100 L375 155 C372 157 367 158 364 158 C357 158 352 155 348 150 C338 141 323 128 296 128 L224 128 C209 128 194 142 194 158 L194 195 L443 195 C454 195 462 203 462 214 L462 362 C462 440 402 520 305 520 L207 520 C111 520 50 440 50 362 L50 152 C50 75 111 -5 207 -5 L296 -5 C296 -5 398 -4 447 74 L447 74 Z M207 779 C195 779 187 775 182 764 L96 590 C96 579 104 571 115 571 L209 571 C220 571 228 580 232 590 L257 641 L282 590 C286 580 294 571 305 571 L399 571 C410 571 418 579 418 590 L332 764 C327 775 319 779 307 779 L207 779 Z " />
<glyph glyph-name="edieresis" unicode="&#xeb;" horiz-adv-x="507" d="M194 357 C194 373 209 387 224 387 L288 387 C303 387 319 373 319 357 L319 315 L194 315 L194 357 Z M447 74 C449 77 450 82 450 85 C450 91 448 95 442 100 L375 155 C372 157 367 158 364 158 C357 158 352 155 348 150 C338 141 323 128 296 128 L224 128 C209 128 194 142 194 158 L194 195 L443 195 C454 195 462 203 462 214 L462 362 C462 440 402 520 305 520 L207 520 C111 520 50 440 50 362 L50 152 C50 75 111 -5 207 -5 L296 -5 C296 -5 398 -4 447 74 L447 74 Z M102 590 C102 579 110 571 121 571 L216 571 C227 571 235 579 235 590 L235 689 C235 700 227 708 216 708 L121 708 C110 708 102 700 102 689 L102 590 Z M280 590 C280 579 288 571 299 571 L394 571 C405 571 413 579 413 590 L413 689 C413 700 405 708 394 708 L299 708 C288 708 280 700 280 689 L280 590 Z " />
<glyph glyph-name="igrave" unicode="&#xec;" horiz-adv-x="274" d="M65 19 C65 8 73 0 84 0 L190 0 C201 0 209 8 209 19 L209 496 C209 507 201 515 190 515 L84 515 C73 515 65 507 65 496 L65 19 Z M188 571 C198 571 206 579 206 589 L146 726 C142 735 134 744 123 744 L23 744 C12 744 5 736 5 726 L65 589 C69 580 77 571 88 571 L188 571 Z " />
<glyph glyph-name="iacute" unicode="&#xed;" horiz-adv-x="274" d="M209 496 C209 507 201 515 190 515 L84 515 C73 515 65 507 65 496 L65 19 C65 8 73 0 84 0 L190 0 C201 0 209 8 209 19 L209 496 Z M186 571 C197 571 205 580 209 589 L269 726 C269 736 262 744 251 744 L151 744 C140 744 132 735 128 726 L68 589 C68 579 76 571 86 571 L186 571 Z " />
<glyph glyph-name="icircumflex" unicode="&#xee;" horiz-adv-x="274" d="M209 496 C209 507 201 515 190 515 L84 515 C73 515 65 507 65 496 L65 19 C65 8 73 0 84 0 L190 0 C201 0 209 8 209 19 L209 496 Z M87 779 C75 779 67 775 62 764 L-24 590 C-24 579 -16 571 -5 571 L89 571 C100 571 108 580 112 590 L137 641 L162 590 C166 580 174 571 185 571 L279 571 C290 571 298 579 298 590 L212 764 C207 775 199 779 187 779 L87 779 Z " />
<glyph glyph-name="idieresis" unicode="&#xef;" horiz-adv-x="274" d="M209 496 C209 507 201 515 190 515 L84 515 C73 515 65 507 65 496 L65 19 C65 8 73 0 84 0 L190 0 C201 0 209 8 209 19 L209 496 Z M-23 590 C-23 579 -15 571 -4 571 L91 571 C102 571 110 579 110 590 L110 689 C110 700 102 708 91 708 L-4 708 C-15 708 -23 700 -23 689 L-23 590 Z M162 590 C162 579 170 571 181 571 L276 571 C287 571 295 579 295 590 L295 689 C295 700 287 708 276 708 L181 708 C170 708 162 700 162 689 L162 590 Z " />
<glyph glyph-name="eth" unicode="&#xf0;" horiz-adv-x="589" d="M245 129 C220 129 199 151 199 178 L199 258 C199 286 220 307 245 307 L355 307 C379 307 400 286 400 258 L400 178 C400 151 379 129 355 129 L245 129 Z M359 619 L405 681 C405 692 397 700 386 700 L281 700 C270 700 262 690 255 681 L208 619 L87 619 C76 619 68 611 68 600 L68 515 C68 504 76 496 87 496 L119 496 L63 419 C58 409 55 398 55 384 L55 171 C55 73 137 -5 238 -5 L362 -5 C463 -5 544 73 544 171 L544 265 C544 363 463 441 362 441 L244 441 C238 441 231 440 224 438 L268 496 L405 496 C416 496 424 504 424 515 L424 600 C424 611 416 619 405 619 L359 619 Z " />
<glyph glyph-name="ntilde" unicode="&#xf1;" horiz-adv-x="539" d="M484 361 C479 451 422 520 328 520 L314 520 C293 520 251 513 218 470 L209 470 L209 496 C209 507 201 515 190 515 L84 515 C73 515 65 507 65 496 L65 19 C65 8 73 0 84 0 L190 0 C201 0 209 8 209 19 L209 339 C234 385 276 387 291 387 L307 387 C325 387 340 373 340 352 L340 19 C340 8 348 0 359 0 L465 0 C476 0 484 8 484 19 L484 361 Z M343 571 C370 571 397 584 423 600 C431 606 435 615 435 624 L411 702 C409 709 401 715 391 715 C388 715 384 715 381 714 C370 709 351 705 343 705 C294 705 253 744 205 744 C178 744 151 731 125 715 C117 709 113 700 113 691 L137 613 C139 606 147 600 157 600 C160 600 164 600 167 601 C178 606 197 610 205 610 C255 610 295 571 343 571 L343 571 Z " />
<glyph glyph-name="ograve" unicode="&#xf2;" horiz-adv-x="512" d="M207 520 C111 520 50 440 50 362 L50 152 C50 75 111 -5 207 -5 L305 -5 C401 -5 462 75 462 152 L462 362 C462 440 401 520 305 520 L207 520 Z M288 387 C303 387 318 373 318 357 L318 158 C318 142 303 128 288 128 L224 128 C209 128 194 142 194 158 L194 357 C194 373 209 387 224 387 L288 387 Z M304 571 C314 571 322 579 322 589 L262 726 C258 735 250 744 239 744 L139 744 C128 744 121 736 121 726 L181 589 C185 580 193 571 204 571 L304 571 Z " />
<glyph glyph-name="oacute" unicode="&#xf3;" horiz-adv-x="512" d="M207 520 C111 520 50 440 50 362 L50 152 C50 75 111 -5 207 -5 L305 -5 C401 -5 462 75 462 152 L462 362 C462 440 401 520 305 520 L207 520 Z M288 387 C303 387 318 373 318 357 L318 158 C318 142 303 128 288 128 L224 128 C209 128 194 142 194 158 L194 357 C194 373 209 387 224 387 L288 387 Z M305 571 C316 571 324 580 328 589 L388 726 C388 736 381 744 370 744 L270 744 C259 744 251 735 247 726 L187 589 C187 579 195 571 205 571 L305 571 Z " />
<glyph glyph-name="ocircumflex" unicode="&#xf4;" horiz-adv-x="512" d="M207 520 C111 520 50 440 50 362 L50 152 C50 75 111 -5 207 -5 L305 -5 C401 -5 462 75 462 152 L462 362 C462 440 401 520 305 520 L207 520 Z M288 387 C303 387 318 373 318 357 L318 158 C318 142 303 128 288 128 L224 128 C209 128 194 142 194 158 L194 357 C194 373 209 387 224 387 L288 387 Z M206 779 C194 779 186 775 181 764 L95 590 C95 579 103 571 114 571 L208 571 C219 571 227 580 231 590 L256 641 L281 590 C285 580 293 571 304 571 L398 571 C409 571 417 579 417 590 L331 764 C326 775 318 779 306 779 L206 779 Z " />
<glyph glyph-name="otilde" unicode="&#xf5;" horiz-adv-x="512" d="M207 520 C111 520 50 440 50 362 L50 152 C50 75 111 -5 207 -5 L305 -5 C401 -5 462 75 462 152 L462 362 C462 440 401 520 305 520 L207 520 Z M288 387 C303 387 318 373 318 357 L318 158 C318 142 303 128 288 128 L224 128 C209 128 194 142 194 158 L194 357 C194 373 209 387 224 387 L288 387 Z M326 571 C353 571 380 584 406 600 C414 606 418 615 418 624 L394 702 C392 709 384 715 374 715 C371 715 367 715 364 714 C353 709 334 705 326 705 C277 705 236 744 188 744 C161 744 134 731 108 715 C100 709 96 700 96 691 L120 613 C122 606 130 600 140 600 C143 600 147 600 150 601 C161 606 180 610 188 610 C238 610 278 571 326 571 L326 571 Z " />
<glyph glyph-name="odieresis" unicode="&#xf6;" horiz-adv-x="512" d="M207 520 C111 520 50 440 50 362 L50 152 C50 75 111 -5 207 -5 L305 -5 C401 -5 462 75 462 152 L462 362 C462 440 401 520 305 520 L207 520 Z M288 387 C303 387 318 373 318 357 L318 158 C318 142 303 128 288 128 L224 128 C209 128 194 142 194 158 L194 357 C194 373 209 387 224 387 L288 387 Z M100 590 C100 579 108 571 119 571 L214 571 C225 571 233 579 233 590 L233 689 C233 700 225 708 214 708 L119 708 C108 708 100 700 100 689 L100 590 Z M278 590 C278 579 286 571 297 571 L392 571 C403 571 411 579 411 590 L411 689 C411 700 403 708 392 708 L297 708 C286 708 278 700 278 689 L278 590 Z " />
<glyph glyph-name="divide" unicode="&#xf7;" horiz-adv-x="433" d="M349 147 C360 147 368 155 368 166 L368 249 C368 260 360 268 349 268 L84 268 C73 268 65 260 65 249 L65 166 C65 155 73 147 84 147 L349 147 Z M156 10 C156 2 163 -5 171 -5 L262 -5 C270 -5 277 2 277 10 L277 101 C277 109 270 116 262 116 L171 116 C163 116 156 109 156 101 L156 10 Z M156 314 C156 306 163 299 171 299 L262 299 C270 299 277 306 277 314 L277 405 C277 413 270 420 262 420 L171 420 C163 420 156 413 156 405 L156 314 Z " />
<glyph glyph-name="oslash" unicode="&#xf8;" horiz-adv-x="512" d="M207 520 C111 520 50 440 50 362 L50 152 C50 98 80 42 132 14 L105 -72 C105 -83 113 -91 124 -91 L185 -91 C196 -91 204 -83 207 -72 L228 -5 L305 -5 C401 -5 462 75 462 152 L462 362 C462 414 434 467 387 497 L416 587 C416 598 408 606 397 606 L336 606 C325 606 317 598 314 587 L292 520 L207 520 Z M194 357 C194 373 209 387 224 387 L250 387 L194 209 L194 357 Z M288 128 L270 128 L318 279 L318 158 C318 142 303 128 288 128 L288 128 Z " />
<glyph glyph-name="ugrave" unicode="&#xf9;" horiz-adv-x="522" d="M310 -5 C406 -5 467 75 467 152 L467 496 C467 507 459 515 448 515 L342 515 C331 515 323 507 323 496 L323 158 C323 142 308 128 293 128 L229 128 C214 128 199 142 199 158 L199 496 C199 507 191 515 180 515 L74 515 C63 515 55 507 55 496 L55 152 C55 75 116 -5 212 -5 L310 -5 Z M308 571 C318 571 326 579 326 589 L266 726 C262 735 254 744 243 744 L143 744 C132 744 125 736 125 726 L185 589 C189 580 197 571 208 571 L308 571 Z " />
<glyph glyph-name="uacute" unicode="&#xfa;" horiz-adv-x="522" d="M310 -5 C406 -5 467 75 467 152 L467 496 C467 507 459 515 448 515 L342 515 C331 515 323 507 323 496 L323 158 C323 142 308 128 293 128 L229 128 C214 128 199 142 199 158 L199 496 C199 507 191 515 180 515 L74 515 C63 515 55 507 55 496 L55 152 C55 75 116 -5 212 -5 L310 -5 Z M320 571 C331 571 339 580 343 589 L403 726 C403 736 396 744 385 744 L285 744 C274 744 266 735 262 726 L202 589 C202 579 210 571 220 571 L320 571 Z " />
<glyph glyph-name="ucircumflex" unicode="&#xfb;" horiz-adv-x="522" d="M310 -5 C406 -5 467 75 467 152 L467 496 C467 507 459 515 448 515 L342 515 C331 515 323 507 323 496 L323 158 C323 142 308 128 293 128 L229 128 C214 128 199 142 199 158 L199 496 C199 507 191 515 180 515 L74 515 C63 515 55 507 55 496 L55 152 C55 75 116 -5 212 -5 L310 -5 Z M211 779 C199 779 191 775 186 764 L100 590 C100 579 108 571 119 571 L213 571 C224 571 232 580 236 590 L261 641 L286 590 C290 580 298 571 309 571 L403 571 C414 571 422 579 422 590 L336 764 C331 775 323 779 311 779 L211 779 Z " />
<glyph glyph-name="udieresis" unicode="&#xfc;" horiz-adv-x="522" d="M310 -5 C406 -5 467 75 467 152 L467 496 C467 507 459 515 448 515 L342 515 C331 515 323 507 323 496 L323 158 C323 142 308 128 293 128 L229 128 C214 128 199 142 199 158 L199 496 C199 507 191 515 180 515 L74 515 C63 515 55 507 55 496 L55 152 C55 75 116 -5 212 -5 L310 -5 Z M214 550 C228 550 239 560 239 575 L239 665 C239 680 228 690 214 690 L124 690 C109 690 99 680 99 665 L99 575 C99 560 109 550 124 550 L214 550 Z M397 550 C411 550 422 560 422 575 L422 665 C422 680 411 690 397 690 L307 690 C292 690 282 680 282 665 L282 575 C282 560 292 550 307 550 L397 550 Z " />
<glyph glyph-name="yacute" unicode="&#xfd;" horiz-adv-x="487" d="M149 -203 C173 -203 280 -180 329 -12 L477 496 C477 507 469 515 458 515 L350 515 C339 515 331 507 328 496 L250 175 L237 175 L159 496 C156 507 148 515 137 515 L29 515 C18 515 10 507 10 496 L160 -18 C155 -43 139 -72 108 -72 L66 -72 C55 -72 47 -80 47 -91 L47 -184 C47 -195 55 -203 66 -203 L149 -203 Z M300 571 C311 571 319 580 323 589 L383 726 C383 736 376 744 365 744 L265 744 C254 744 246 735 242 726 L182 589 C182 579 190 571 200 571 L300 571 Z " />
<glyph glyph-name="thorn" unicode="&#xfe;" horiz-adv-x="536" d="M491 362 C491 451 424 520 330 520 L299 520 C282 520 241 513 219 484 L209 484 L209 681 C209 692 201 700 190 700 L84 700 C73 700 65 692 65 681 L65 -155 C65 -166 73 -174 84 -174 L190 -174 C201 -174 209 -166 209 -155 L209 31 L219 31 C241 2 282 -5 299 -5 L330 -5 C424 -5 491 64 491 153 L491 362 Z M209 357 C209 373 224 387 239 387 L316 387 C332 387 347 373 347 357 L347 158 C347 142 332 128 316 128 L239 128 C224 128 209 142 209 158 L209 357 Z " />
<glyph glyph-name="ydieresis" unicode="&#xff;" horiz-adv-x="487" d="M149 -203 C173 -203 280 -180 329 -12 L477 496 C477 507 469 515 458 515 L350 515 C339 515 331 507 328 496 L250 175 L237 175 L159 496 C156 507 148 515 137 515 L29 515 C18 515 10 507 10 496 L160 -18 C155 -43 139 -72 108 -72 L66 -72 C55 -72 47 -80 47 -91 L47 -184 C47 -195 55 -203 66 -203 L149 -203 Z M198 571 C212 571 223 581 223 596 L223 686 C223 701 212 711 198 711 L108 711 C93 711 83 701 83 686 L83 596 C83 581 93 571 108 571 L198 571 Z M381 571 C395 571 406 581 406 596 L406 686 C406 701 395 711 381 711 L291 711 C276 711 266 701 266 686 L266 596 C266 581 276 571 291 571 L381 571 Z " />
<glyph glyph-name="Amacron" unicode="&#x100;" horiz-adv-x="618" d="M233 700 C222 700 215 691 212 681 L20 19 C20 8 28 0 39 0 L145 0 C156 0 164 8 167 19 L193 115 L424 115 L451 19 C454 8 462 0 473 0 L579 0 C590 0 598 8 598 19 L406 681 C403 691 396 700 385 700 L233 700 Z M302 515 L315 515 L388 248 L229 248 L302 515 Z M442 751 C453 751 461 759 461 770 L461 854 C461 865 453 873 442 873 L176 873 C165 873 157 865 157 854 L157 770 C157 759 165 751 176 751 L442 751 Z " />
<glyph glyph-name="amacron" unicode="&#x101;" horiz-adv-x="506" d="M124 373 C156 382 193 387 231 387 C306 387 312 348 312 326 L312 319 L210 319 C116 319 45 270 45 179 L45 139 C45 48 116 -5 210 -5 L225 -5 C239 -5 292 -2 303 31 L312 31 L312 19 C312 8 320 0 331 0 L437 0 C448 0 456 8 456 19 L456 327 C456 374 438 520 249 520 C166 520 114 506 94 499 C85 496 79 490 79 481 C79 479 79 469 100 387 C103 376 110 372 115 372 C117 372 121 372 124 373 L124 373 Z M189 171 C189 188 204 201 219 201 L312 201 L312 158 C312 142 296 128 281 128 L219 128 C204 128 189 142 189 158 L189 171 Z M413 571 C424 571 432 579 432 590 L432 674 C432 685 424 693 413 693 L139 693 C128 693 120 685 120 674 L120 590 C120 579 128 571 139 571 L413 571 Z " />
<glyph glyph-name="Abreve" unicode="&#x102;" horiz-adv-x="618" d="M233 700 C222 700 215 691 212 681 L20 19 C20 8 28 0 39 0 L145 0 C156 0 164 8 167 19 L193 115 L424 115 L451 19 C454 8 462 0 473 0 L579 0 C590 0 598 8 598 19 L406 681 C403 691 396 700 385 700 L233 700 Z M302 515 L315 515 L388 248 L229 248 L302 515 Z M308 751 C409 751 477 800 490 909 C490 919 483 926 473 926 L387 926 C377 926 369 919 365 909 C358 875 332 870 308 870 C284 870 258 875 251 909 C247 919 239 926 229 926 L143 926 C133 926 126 919 126 909 C139 800 207 751 308 751 L308 751 Z " />
<glyph glyph-name="abreve" unicode="&#x103;" horiz-adv-x="506" d="M124 373 C156 382 193 387 231 387 C306 387 312 348 312 326 L312 319 L210 319 C116 319 45 270 45 179 L45 139 C45 48 116 -5 210 -5 L225 -5 C239 -5 292 -2 303 31 L312 31 L312 19 C312 8 320 0 331 0 L437 0 C448 0 456 8 456 19 L456 327 C456 374 438 520 249 520 C166 520 114 506 94 499 C85 496 79 490 79 481 C79 479 79 469 100 387 C103 376 110 372 115 372 C117 372 121 372 124 373 L124 373 Z M189 171 C189 188 204 201 219 201 L312 201 L312 158 C312 142 296 128 281 128 L219 128 C204 128 189 142 189 158 L189 171 Z M258 571 C359 571 427 620 440 729 C440 739 433 746 423 746 L337 746 C327 746 319 739 315 729 C308 695 282 690 258 690 C234 690 208 695 201 729 C197 739 189 746 179 746 L93 746 C83 746 76 739 76 729 C89 620 157 571 258 571 L258 571 Z " />
<glyph glyph-name="Aogonek" unicode="&#x104;" horiz-adv-x="618" d="M302 515 L315 515 L388 248 L229 248 L302 515 Z M437 71 C378 51 378 -17 378 -34 C378 -79 409 -123 468 -123 L539 -123 C547 -123 554 -116 554 -108 L554 -56 C554 -47 547 -41 539 -41 L485 -41 C485 -41 468 -41 468 -20 C468 -10 473 0 485 0 L579 0 C590 0 598 8 598 19 L406 681 C403 691 396 700 385 700 L233 700 C222 700 215 691 212 681 L20 19 C20 8 28 0 39 0 L145 0 C156 0 164 8 167 19 L193 115 L424 115 L437 71 Z " />
<glyph glyph-name="aogonek" unicode="&#x105;" horiz-adv-x="506" d="M189 171 C189 188 204 201 219 201 L312 201 L312 158 C312 142 296 128 281 128 L219 128 C204 128 189 142 189 158 L189 171 Z M312 6 C265 -26 265 -69 265 -82 C265 -127 296 -171 355 -171 L436 -171 C444 -171 451 -164 451 -156 L451 -104 C451 -95 444 -89 436 -89 L372 -89 C372 -89 355 -89 355 -68 C355 -58 360 -48 372 -48 L437 -48 C448 -48 456 -40 456 -29 L456 327 C456 374 438 520 249 520 C166 520 114 506 94 499 C85 496 79 490 79 481 C79 479 79 469 100 387 C103 376 110 372 115 372 C117 372 121 372 124 373 C156 382 193 387 231 387 C306 387 312 348 312 326 L312 319 L210 319 C116 319 45 270 45 179 L45 139 C45 48 116 -5 210 -5 L225 -5 C239 -5 292 -2 303 31 L312 31 L312 6 Z " />
<glyph glyph-name="Cacute" unicode="&#x106;" horiz-adv-x="584" d="M400 178 C400 151 379 129 355 129 L244 129 C220 129 199 151 199 178 L199 522 C199 549 220 571 244 571 L355 571 C379 571 400 549 400 522 L400 490 C400 479 408 471 419 471 L525 471 C536 471 544 479 544 490 L544 529 C544 627 463 705 361 705 L238 705 C136 705 55 627 55 529 L55 171 C55 73 136 -5 238 -5 L361 -5 C463 -5 544 73 544 171 L544 210 C544 221 536 229 525 229 L419 229 C408 229 400 221 400 210 L400 178 Z M348 751 C359 751 367 760 371 769 L431 906 C431 916 424 924 413 924 L313 924 C302 924 294 915 290 906 L230 769 C230 759 238 751 248 751 L348 751 Z " />
<glyph glyph-name="cacute" unicode="&#x107;" horiz-adv-x="492" d="M318 158 C318 142 302 128 287 128 L224 128 C209 128 194 142 194 158 L194 357 C194 373 209 387 224 387 L287 387 C302 387 318 373 318 357 L318 342 C318 331 326 323 337 323 L443 323 C454 323 462 331 462 342 L462 362 C462 440 402 520 305 520 L207 520 C111 520 50 440 50 362 L50 152 C50 75 111 -5 207 -5 L305 -5 C402 -5 462 75 462 152 L462 173 C462 184 454 192 443 192 L337 192 C326 192 318 184 318 173 L318 158 Z M303 571 C314 571 322 580 326 589 L386 726 C386 736 379 744 368 744 L268 744 C257 744 249 735 245 726 L185 589 C185 579 193 571 203 571 L303 571 Z " />
<glyph glyph-name="Ccircumflex" unicode="&#x108;" horiz-adv-x="584" d="M400 178 C400 151 379 129 355 129 L244 129 C220 129 199 151 199 178 L199 522 C199 549 220 571 244 571 L355 571 C379 571 400 549 400 522 L400 490 C400 479 408 471 419 471 L525 471 C536 471 544 479 544 490 L544 529 C544 627 463 705 361 705 L238 705 C136 705 55 627 55 529 L55 171 C55 73 136 -5 238 -5 L361 -5 C463 -5 544 73 544 171 L544 210 C544 221 536 229 525 229 L419 229 C408 229 400 221 400 210 L400 178 Z M248 959 C236 959 228 955 223 944 L137 770 C137 759 145 751 156 751 L250 751 C261 751 269 760 273 770 L298 821 L323 770 C327 760 335 751 346 751 L440 751 C451 751 459 759 459 770 L373 944 C368 955 360 959 348 959 L248 959 Z " />
<glyph glyph-name="ccircumflex" unicode="&#x109;" horiz-adv-x="492" d="M318 158 C318 142 302 128 287 128 L224 128 C209 128 194 142 194 158 L194 357 C194 373 209 387 224 387 L287 387 C302 387 318 373 318 357 L318 342 C318 331 326 323 337 323 L443 323 C454 323 462 331 462 342 L462 362 C462 440 402 520 305 520 L207 520 C111 520 50 440 50 362 L50 152 C50 75 111 -5 207 -5 L305 -5 C402 -5 462 75 462 152 L462 173 C462 184 454 192 443 192 L337 192 C326 192 318 184 318 173 L318 158 Z M205 779 C193 779 185 775 180 764 L94 590 C94 579 102 571 113 571 L207 571 C218 571 226 580 230 590 L255 641 L280 590 C284 580 292 571 303 571 L397 571 C408 571 416 579 416 590 L330 764 C325 775 317 779 305 779 L205 779 Z " />
<glyph glyph-name="Cdotaccent" unicode="&#x10a;" horiz-adv-x="584" d="M400 178 C400 151 379 129 355 129 L244 129 C220 129 199 151 199 178 L199 522 C199 549 220 571 244 571 L355 571 C379 571 400 549 400 522 L400 490 C400 479 408 471 419 471 L525 471 C536 471 544 479 544 490 L544 529 C544 627 463 705 361 705 L238 705 C136 705 55 627 55 529 L55 171 C55 73 136 -5 238 -5 L361 -5 C463 -5 544 73 544 171 L544 210 C544 221 536 229 525 229 L419 229 C408 229 400 221 400 210 L400 178 Z M235 770 C235 759 243 751 254 751 L349 751 C360 751 368 759 368 770 L368 869 C368 880 360 888 349 888 L254 888 C243 888 235 880 235 869 L235 770 Z " />
<glyph glyph-name="cdotaccent" unicode="&#x10b;" horiz-adv-x="492" d="M318 158 C318 142 302 128 287 128 L224 128 C209 128 194 142 194 158 L194 357 C194 373 209 387 224 387 L287 387 C302 387 318 373 318 357 L318 342 C318 331 326 323 337 323 L443 323 C454 323 462 331 462 342 L462 362 C462 440 402 520 305 520 L207 520 C111 520 50 440 50 362 L50 152 C50 75 111 -5 207 -5 L305 -5 C402 -5 462 75 462 152 L462 173 C462 184 454 192 443 192 L337 192 C326 192 318 184 318 173 L318 158 Z M189 590 C189 579 197 571 208 571 L303 571 C314 571 322 579 322 590 L322 689 C322 700 314 708 303 708 L208 708 C197 708 189 700 189 689 L189 590 Z " />
<glyph glyph-name="Ccaron" unicode="&#x10c;" horiz-adv-x="584" d="M400 178 C400 151 379 129 355 129 L244 129 C220 129 199 151 199 178 L199 522 C199 549 220 571 244 571 L355 571 C379 571 400 549 400 522 L400 490 C400 479 408 471 419 471 L525 471 C536 471 544 479 544 490 L544 529 C544 627 463 705 361 705 L238 705 C136 705 55 627 55 529 L55 171 C55 73 136 -5 238 -5 L361 -5 C463 -5 544 73 544 171 L544 210 C544 221 536 229 525 229 L419 229 C408 229 400 221 400 210 L400 178 Z M349 751 C361 751 369 755 374 766 L460 940 C460 951 452 959 441 959 L347 959 C336 959 328 950 324 940 L299 889 L274 940 C270 950 262 959 251 959 L157 959 C146 959 138 951 138 940 L224 766 C229 755 237 751 249 751 L349 751 Z " />
<glyph glyph-name="ccaron" unicode="&#x10d;" horiz-adv-x="492" d="M318 158 C318 142 302 128 287 128 L224 128 C209 128 194 142 194 158 L194 357 C194 373 209 387 224 387 L287 387 C302 387 318 373 318 357 L318 342 C318 331 326 323 337 323 L443 323 C454 323 462 331 462 342 L462 362 C462 440 402 520 305 520 L207 520 C111 520 50 440 50 362 L50 152 C50 75 111 -5 207 -5 L305 -5 C402 -5 462 75 462 152 L462 173 C462 184 454 192 443 192 L337 192 C326 192 318 184 318 173 L318 158 Z M306 571 C318 571 326 575 331 586 L417 760 C417 771 409 779 398 779 L304 779 C293 779 285 770 281 760 L256 709 L231 760 C227 770 219 779 208 779 L114 779 C103 779 95 771 95 760 L181 586 C186 575 194 571 206 571 L306 571 Z " />
<glyph glyph-name="Dcaron" unicode="&#x10e;" horiz-adv-x="610" d="M365 567 C389 567 411 545 411 518 L411 182 C411 155 389 133 365 133 L209 133 L209 567 L365 567 Z M84 700 C73 700 65 692 65 681 L65 19 C65 8 73 0 84 0 L372 0 C473 0 555 78 555 176 L555 524 C555 622 473 700 372 700 L84 700 Z M319 741 C331 741 339 745 344 756 L430 930 C430 941 422 949 411 949 L317 949 C306 949 298 940 294 930 L269 879 L244 930 C240 940 232 949 221 949 L127 949 C116 949 108 941 108 930 L194 756 C199 745 207 741 219 741 L319 741 Z " />
<glyph glyph-name="dcaron" unicode="&#x10f;" horiz-adv-x="737" d="M649 527 C660 527 668 536 672 545 L732 682 C732 692 725 700 714 700 L614 700 C603 700 595 691 591 682 L531 545 C531 535 539 527 549 527 L649 527 Z M45 153 C45 64 88 -5 182 -5 L246 -5 C263 -5 295 2 317 31 L327 31 L327 19 C327 8 335 0 346 0 L452 0 C463 0 471 8 471 19 L471 681 C471 692 463 700 452 700 L346 700 C335 700 327 692 327 681 L327 484 L317 484 C295 513 263 520 246 520 L182 520 C88 520 45 451 45 362 L45 153 Z M327 158 C327 142 312 128 297 128 L220 128 C204 128 189 142 189 158 L189 357 C189 373 204 387 220 387 L297 387 C312 387 327 373 327 357 L327 158 Z " />
<glyph glyph-name="Dcroat" unicode="&#x110;" horiz-adv-x="619" d="M93 700 C82 700 74 692 74 681 L74 416 L24 416 C13 416 5 408 5 397 L5 301 C5 290 13 282 24 282 L74 282 L74 19 C74 8 82 0 93 0 L381 0 C482 0 564 78 564 176 L564 524 C564 622 482 700 381 700 L93 700 Z M279 282 C290 282 298 290 298 301 L298 397 C298 408 290 416 279 416 L218 416 L218 567 L374 567 C398 567 420 545 420 518 L420 182 C420 155 398 133 374 133 L218 133 L218 282 L279 282 Z " />
<glyph glyph-name="dcroat" unicode="&#x111;" horiz-adv-x="532" d="M327 546 L327 484 L317 484 C295 513 263 520 246 520 L182 520 C88 520 45 451 45 362 L45 153 C45 64 88 -5 182 -5 L246 -5 C263 -5 295 2 317 31 L327 31 L327 19 C327 8 335 0 346 0 L452 0 C463 0 471 8 471 19 L471 546 L508 546 C519 546 527 554 527 565 L527 633 C527 644 519 652 508 652 L471 652 L471 681 C471 692 463 700 452 700 L346 700 C335 700 327 692 327 681 L327 652 L282 652 C271 652 263 644 263 633 L263 565 C263 554 271 546 282 546 L327 546 Z M327 158 C327 142 312 128 297 128 L220 128 C204 128 189 142 189 158 L189 357 C189 373 204 387 220 387 L297 387 C312 387 327 373 327 357 L327 158 Z " />
<glyph glyph-name="Emacron" unicode="&#x112;" horiz-adv-x="539" d="M65 19 C65 8 73 0 84 0 L465 0 C476 0 484 8 484 19 L484 115 C484 126 476 134 465 134 L209 134 L209 296 L443 296 C454 296 462 304 462 315 L462 411 C462 422 454 430 443 430 L209 430 L209 566 L465 566 C476 566 484 574 484 585 L484 681 C484 692 476 700 465 700 L84 700 C73 700 65 692 65 681 L65 19 Z M411 751 C422 751 430 759 430 770 L430 854 C430 865 422 873 411 873 L137 873 C126 873 118 865 118 854 L118 770 C118 759 126 751 137 751 L411 751 Z " />
<glyph glyph-name="emacron" unicode="&#x113;" horiz-adv-x="507" d="M194 357 C194 373 209 387 224 387 L288 387 C303 387 319 373 319 357 L319 315 L194 315 L194 357 Z M447 74 C449 77 450 82 450 85 C450 91 448 95 442 100 L375 155 C372 157 367 158 364 158 C357 158 352 155 348 150 C338 141 323 128 296 128 L224 128 C209 128 194 142 194 158 L194 195 L443 195 C454 195 462 203 462 214 L462 362 C462 440 402 520 305 520 L207 520 C111 520 50 440 50 362 L50 152 C50 75 111 -5 207 -5 L296 -5 C296 -5 398 -4 447 74 L447 74 Z M378 571 C389 571 397 579 397 590 L397 674 C397 685 389 693 378 693 L134 693 C123 693 115 685 115 674 L115 590 C115 579 123 571 134 571 L378 571 Z " />
<glyph glyph-name="Edotaccent" unicode="&#x116;" horiz-adv-x="539" d="M65 19 C65 8 73 0 84 0 L465 0 C476 0 484 8 484 19 L484 115 C484 126 476 134 465 134 L209 134 L209 296 L443 296 C454 296 462 304 462 315 L462 411 C462 422 454 430 443 430 L209 430 L209 566 L465 566 C476 566 484 574 484 585 L484 681 C484 692 476 700 465 700 L84 700 C73 700 65 692 65 681 L65 19 Z M209 770 C209 759 217 751 228 751 L323 751 C334 751 342 759 342 770 L342 869 C342 880 334 888 323 888 L228 888 C217 888 209 880 209 869 L209 770 Z " />
<glyph glyph-name="edotaccent" unicode="&#x117;" horiz-adv-x="507" d="M194 357 C194 373 209 387 224 387 L288 387 C303 387 319 373 319 357 L319 315 L194 315 L194 357 Z M447 74 C449 77 450 82 450 85 C450 91 448 95 442 100 L375 155 C372 157 367 158 364 158 C357 158 352 155 348 150 C338 141 323 128 296 128 L224 128 C209 128 194 142 194 158 L194 195 L443 195 C454 195 462 203 462 214 L462 362 C462 440 402 520 305 520 L207 520 C111 520 50 440 50 362 L50 152 C50 75 111 -5 207 -5 L296 -5 C296 -5 398 -4 447 74 L447 74 Z M190 590 C190 579 198 571 209 571 L304 571 C315 571 323 579 323 590 L323 689 C323 700 315 708 304 708 L209 708 C198 708 190 700 190 689 L190 590 Z " />
<glyph glyph-name="Eogonek" unicode="&#x118;" horiz-adv-x="539" d="M65 19 C65 8 73 0 84 0 L300 0 C294 -15 293 -28 293 -34 C293 -79 324 -123 383 -123 L454 -123 C462 -123 469 -116 469 -108 L469 -56 C469 -47 462 -41 454 -41 L400 -41 C400 -41 383 -41 383 -20 C383 -10 387 -1 397 0 L465 0 C476 0 484 8 484 19 L484 115 C484 126 476 134 465 134 L209 134 L209 296 L443 296 C454 296 462 304 462 315 L462 411 C462 422 454 430 443 430 L209 430 L209 566 L465 566 C476 566 484 574 484 585 L484 681 C484 692 476 700 465 700 L84 700 C73 700 65 692 65 681 L65 19 Z " />
<glyph glyph-name="eogonek" unicode="&#x119;" horiz-adv-x="507" d="M194 357 C194 373 209 387 224 387 L288 387 C303 387 319 373 319 357 L319 315 L194 315 L194 357 Z M296 -5 C296 -5 398 -4 447 74 C449 77 450 82 450 85 C450 91 448 95 442 100 L375 155 C372 157 367 158 364 158 C357 158 352 155 348 150 C338 141 323 128 296 128 L224 128 C209 128 194 142 194 158 L194 195 L443 195 C454 195 462 203 462 214 L462 362 C462 440 402 520 305 520 L207 520 C111 520 50 440 50 362 L50 152 C50 84 97 13 175 -2 C172 -13 169 -26 169 -40 C169 -84 199 -123 258 -123 L343 -123 C351 -123 358 -116 358 -108 L358 -58 C358 -49 351 -43 343 -43 L274 -43 C274 -43 258 -43 258 -25 C258 -12 269 -5 273 -5 L296 -5 Z " />
<glyph glyph-name="Ecaron" unicode="&#x11a;" horiz-adv-x="539" d="M65 19 C65 8 73 0 84 0 L465 0 C476 0 484 8 484 19 L484 115 C484 126 476 134 465 134 L209 134 L209 296 L443 296 C454 296 462 304 462 315 L462 411 C462 422 454 430 443 430 L209 430 L209 566 L465 566 C476 566 484 574 484 585 L484 681 C484 692 476 700 465 700 L84 700 C73 700 65 692 65 681 L65 19 Z M327 741 C339 741 347 745 352 756 L438 930 C438 941 430 949 419 949 L325 949 C314 949 306 940 302 930 L277 879 L252 930 C248 940 240 949 229 949 L135 949 C124 949 116 941 116 930 L202 756 C207 745 215 741 227 741 L327 741 Z " />
<glyph glyph-name="ecaron" unicode="&#x11b;" horiz-adv-x="507" d="M194 357 C194 373 209 387 224 387 L288 387 C303 387 319 373 319 357 L319 315 L194 315 L194 357 Z M447 74 C449 77 450 82 450 85 C450 91 448 95 442 100 L375 155 C372 157 367 158 364 158 C357 158 352 155 348 150 C338 141 323 128 296 128 L224 128 C209 128 194 142 194 158 L194 195 L443 195 C454 195 462 203 462 214 L462 362 C462 440 402 520 305 520 L207 520 C111 520 50 440 50 362 L50 152 C50 75 111 -5 207 -5 L296 -5 C296 -5 398 -4 447 74 L447 74 Z M310 571 C322 571 330 575 335 586 L421 760 C421 771 413 779 402 779 L308 779 C297 779 289 770 285 760 L260 709 L235 760 C231 770 223 779 212 779 L118 779 C107 779 99 771 99 760 L185 586 C190 575 198 571 210 571 L310 571 Z " />
<glyph glyph-name="Gcircumflex" unicode="&#x11c;" horiz-adv-x="599" d="M309 404 C294 404 283 394 283 378 L283 297 C283 281 294 270 309 270 L400 270 L400 178 C400 151 379 129 355 129 L244 129 C220 129 199 151 199 178 L199 522 C199 549 220 571 244 571 L355 571 C379 571 400 549 400 522 L400 490 C400 479 408 471 419 471 L525 471 C536 471 544 479 544 490 L544 529 C544 627 463 705 361 705 L238 705 C136 705 55 627 55 529 L55 171 C55 73 136 -5 238 -5 L361 -5 C463 -5 544 73 544 171 L544 378 C544 394 533 404 518 404 L309 404 Z M248 959 C236 959 228 955 223 944 L137 770 C137 759 145 751 156 751 L250 751 C261 751 269 760 273 770 L298 821 L323 770 C327 760 335 751 346 751 L440 751 C451 751 459 759 459 770 L373 944 C368 955 360 959 348 959 L248 959 Z " />
<glyph glyph-name="gcircumflex" unicode="&#x11d;" horiz-adv-x="536" d="M204 779 C192 779 184 775 179 764 L93 590 C93 579 101 571 112 571 L206 571 C217 571 225 580 229 590 L254 641 L279 590 C283 580 291 571 302 571 L396 571 C407 571 415 579 415 590 L329 764 C324 775 316 779 304 779 L204 779 Z M471 496 C471 507 463 515 452 515 L346 515 C335 515 327 507 327 496 L327 484 L317 484 C295 513 262 520 245 520 L182 520 C88 520 45 451 45 362 L45 153 C45 64 88 -5 182 -5 L245 -5 C262 -5 295 2 317 31 L327 31 L327 -21 C327 -42 297 -71 238 -71 C199 -71 131 -59 126 -59 C113 -59 108 -62 104 -76 C84 -156 84 -166 84 -169 C84 -178 90 -182 99 -186 C121 -193 169 -203 253 -203 C442 -203 471 -71 471 -22 L471 496 Z M327 158 C327 142 312 128 297 128 L220 128 C204 128 189 142 189 158 L189 357 C189 373 204 387 220 387 L297 387 C312 387 327 373 327 357 L327 158 Z " />
<glyph glyph-name="Gbreve" unicode="&#x11e;" horiz-adv-x="599" d="M309 404 C294 404 283 394 283 378 L283 297 C283 281 294 270 309 270 L400 270 L400 178 C400 151 379 129 355 129 L244 129 C220 129 199 151 199 178 L199 522 C199 549 220 571 244 571 L355 571 C379 571 400 549 400 522 L400 490 C400 479 408 471 419 471 L525 471 C536 471 544 479 544 490 L544 529 C544 627 463 705 361 705 L238 705 C136 705 55 627 55 529 L55 171 C55 73 136 -5 238 -5 L361 -5 C463 -5 544 73 544 171 L544 378 C544 394 533 404 518 404 L309 404 Z M305 751 C406 751 474 800 487 909 C487 919 480 926 470 926 L384 926 C374 926 366 919 362 909 C355 875 329 870 305 870 C281 870 255 875 248 909 C244 919 236 926 226 926 L140 926 C130 926 123 919 123 909 C136 800 204 751 305 751 L305 751 Z " />
<glyph glyph-name="gbreve" unicode="&#x11f;" horiz-adv-x="536" d="M247 571 C348 571 416 620 429 729 C429 739 422 746 412 746 L326 746 C316 746 308 739 304 729 C297 695 271 690 247 690 C223 690 197 695 190 729 C186 739 178 746 168 746 L82 746 C72 746 65 739 65 729 C78 620 146 571 247 571 L247 571 Z M471 496 C471 507 463 515 452 515 L346 515 C335 515 327 507 327 496 L327 484 L317 484 C295 513 262 520 245 520 L182 520 C88 520 45 451 45 362 L45 153 C45 64 88 -5 182 -5 L245 -5 C262 -5 295 2 317 31 L327 31 L327 -21 C327 -42 297 -71 238 -71 C199 -71 131 -59 126 -59 C113 -59 108 -62 104 -76 C84 -156 84 -166 84 -169 C84 -178 90 -182 99 -186 C121 -193 169 -203 253 -203 C442 -203 471 -71 471 -22 L471 496 Z M327 158 C327 142 312 128 297 128 L220 128 C204 128 189 142 189 158 L189 357 C189 373 204 387 220 387 L297 387 C312 387 327 373 327 357 L327 158 Z " />
<glyph glyph-name="Gdotaccent" unicode="&#x120;" horiz-adv-x="599" d="M309 404 C294 404 283 394 283 378 L283 297 C283 281 294 270 309 270 L400 270 L400 178 C400 151 379 129 355 129 L244 129 C220 129 199 151 199 178 L199 522 C199 549 220 571 244 571 L355 571 C379 571 400 549 400 522 L400 490 C400 479 408 471 419 471 L525 471 C536 471 544 479 544 490 L544 529 C544 627 463 705 361 705 L238 705 C136 705 55 627 55 529 L55 171 C55 73 136 -5 238 -5 L361 -5 C463 -5 544 73 544 171 L544 378 C544 394 533 404 518 404 L309 404 Z M231 770 C231 759 239 751 250 751 L345 751 C356 751 364 759 364 770 L364 869 C364 880 356 888 345 888 L250 888 C239 888 231 880 231 869 L231 770 Z " />
<glyph glyph-name="gdotaccent" unicode="&#x121;" horiz-adv-x="536" d="M193 590 C193 579 201 571 212 571 L307 571 C318 571 326 579 326 590 L326 689 C326 700 318 708 307 708 L212 708 C201 708 193 700 193 689 L193 590 Z M471 496 C471 507 463 515 452 515 L346 515 C335 515 327 507 327 496 L327 484 L317 484 C295 513 262 520 245 520 L182 520 C88 520 45 451 45 362 L45 153 C45 64 88 -5 182 -5 L245 -5 C262 -5 295 2 317 31 L327 31 L327 -21 C327 -42 297 -71 238 -71 C199 -71 131 -59 126 -59 C113 -59 108 -62 104 -76 C84 -156 84 -166 84 -169 C84 -178 90 -182 99 -186 C121 -193 169 -203 253 -203 C442 -203 471 -71 471 -22 L471 496 Z M327 158 C327 142 312 128 297 128 L220 128 C204 128 189 142 189 158 L189 357 C189 373 204 387 220 387 L297 387 C312 387 327 373 327 357 L327 158 Z " />
<glyph glyph-name="uni0122" unicode="&#x122;" horiz-adv-x="599" d="M309 404 C294 404 283 394 283 378 L283 297 C283 281 294 270 309 270 L400 270 L400 178 C400 151 379 129 355 129 L244 129 C220 129 199 151 199 178 L199 522 C199 549 220 571 244 571 L355 571 C379 571 400 549 400 522 L400 490 C400 479 408 471 419 471 L525 471 C536 471 544 479 544 490 L544 529 C544 627 463 705 361 705 L238 705 C136 705 55 627 55 529 L55 171 C55 73 136 -5 238 -5 L361 -5 C463 -5 544 73 544 171 L544 378 C544 394 533 404 518 404 L309 404 Z M306 -214 C317 -214 325 -205 329 -196 L368 -71 C368 -61 361 -53 350 -53 L250 -53 C239 -53 231 -62 227 -71 L188 -196 C188 -206 196 -214 206 -214 L306 -214 Z " />
<glyph glyph-name="uni0123" unicode="&#x123;" horiz-adv-x="536" d="M292 571 C303 571 311 580 315 589 L375 726 C375 736 368 744 357 744 L257 744 C246 744 238 735 234 726 L174 589 C174 579 182 571 192 571 L292 571 Z M471 496 C471 507 463 515 452 515 L346 515 C335 515 327 507 327 496 L327 484 L317 484 C295 513 262 520 245 520 L182 520 C88 520 45 451 45 362 L45 153 C45 64 88 -5 182 -5 L245 -5 C262 -5 295 2 317 31 L327 31 L327 -21 C327 -42 297 -71 238 -71 C199 -71 131 -59 126 -59 C113 -59 108 -62 104 -76 C84 -156 84 -166 84 -169 C84 -178 90 -182 99 -186 C121 -193 169 -203 253 -203 C442 -203 471 -71 471 -22 L471 496 Z M327 158 C327 142 312 128 297 128 L220 128 C204 128 189 142 189 158 L189 357 C189 373 204 387 220 387 L297 387 C312 387 327 373 327 357 L327 158 Z " />
<glyph glyph-name="Hcircumflex" unicode="&#x124;" horiz-adv-x="613" d="M404 19 C404 8 412 0 423 0 L529 0 C540 0 548 8 548 19 L548 681 C548 692 540 700 529 700 L423 700 C412 700 404 692 404 681 L404 406 L209 406 L209 681 C209 692 201 700 190 700 L84 700 C73 700 65 692 65 681 L65 19 C65 8 73 0 84 0 L190 0 C201 0 209 8 209 19 L209 273 L404 273 L404 19 Z M256 959 C244 959 236 955 231 944 L145 770 C145 759 153 751 164 751 L258 751 C269 751 277 760 281 770 L306 821 L331 770 C335 760 343 751 354 751 L448 751 C459 751 467 759 467 770 L381 944 C376 955 368 959 356 959 L256 959 Z " />
<glyph glyph-name="hcircumflex" unicode="&#x125;" horiz-adv-x="539" d="M484 361 C479 451 422 520 328 520 L314 520 C293 520 251 513 218 470 L209 470 L209 681 C209 692 201 700 190 700 L84 700 C73 700 65 692 65 681 L65 19 C65 8 73 0 84 0 L190 0 C201 0 209 8 209 19 L209 339 C234 385 276 387 291 387 L307 387 C325 387 340 373 340 352 L340 19 C340 8 348 0 359 0 L465 0 C476 0 484 8 484 19 L484 361 Z M179 959 C167 959 159 955 154 944 L68 770 C68 759 76 751 87 751 L181 751 C192 751 200 760 204 770 L229 821 L254 770 C258 760 266 751 277 751 L371 751 C382 751 390 759 390 770 L304 944 C299 955 291 959 279 959 L179 959 Z " />
<glyph glyph-name="Hbar" unicode="&#x126;" horiz-adv-x="581" d="M557 434 C568 434 576 442 576 453 L576 532 C576 543 568 551 557 551 L532 551 L532 681 C532 692 524 700 513 700 L407 700 C396 700 388 692 388 681 L388 551 L193 551 L193 681 C193 692 185 700 174 700 L68 700 C57 700 49 692 49 681 L49 551 L24 551 C13 551 5 543 5 532 L5 453 C5 442 13 434 24 434 L49 434 L49 19 C49 8 57 0 68 0 L174 0 C185 0 193 8 193 19 L193 199 L388 199 L388 19 C388 8 396 0 407 0 L513 0 C524 0 532 8 532 19 L532 434 L557 434 Z M193 332 L193 434 L388 434 L388 332 L193 332 Z " />
<glyph glyph-name="hbar" unicode="&#x127;" horiz-adv-x="535" d="M250 546 C261 546 269 554 269 565 L269 633 C269 644 261 652 250 652 L205 652 L205 681 C205 692 197 700 186 700 L80 700 C69 700 61 692 61 681 L61 652 L24 652 C13 652 5 644 5 633 L5 565 C5 554 13 546 24 546 L61 546 L61 19 C61 8 69 0 80 0 L186 0 C197 0 205 8 205 19 L205 339 C230 385 272 387 287 387 L303 387 C321 387 336 373 336 352 L336 19 C336 8 344 0 355 0 L461 0 C472 0 480 8 480 19 L480 361 C475 451 418 520 324 520 L310 520 C289 520 247 513 214 470 L205 470 L205 546 L250 546 Z " />
<glyph glyph-name="Itilde" unicode="&#x128;" horiz-adv-x="274" d="M65 19 C65 8 73 0 84 0 L190 0 C201 0 209 8 209 19 L209 681 C209 692 201 700 190 700 L84 700 C73 700 65 692 65 681 L65 19 Z M206 751 C233 751 260 764 286 780 C294 786 298 795 298 804 L274 882 C272 889 264 895 254 895 C251 895 247 895 244 894 C233 889 214 885 206 885 C157 885 116 924 68 924 C41 924 14 911 -12 895 C-20 889 -24 880 -24 871 L0 793 C2 786 10 780 20 780 C23 780 27 780 30 781 C41 786 60 790 68 790 C118 790 158 751 206 751 L206 751 Z " />
<glyph glyph-name="itilde" unicode="&#x129;" horiz-adv-x="274" d="M65 19 C65 8 73 0 84 0 L190 0 C201 0 209 8 209 19 L209 496 C209 507 201 515 190 515 L84 515 C73 515 65 507 65 496 L65 19 Z M206 571 C233 571 260 584 286 600 C294 606 298 615 298 624 L274 702 C272 709 264 715 254 715 C251 715 247 715 244 714 C233 709 214 705 206 705 C157 705 116 744 68 744 C41 744 14 731 -12 715 C-20 709 -24 700 -24 691 L0 613 C2 606 10 600 20 600 C23 600 27 600 30 601 C41 606 60 610 68 610 C118 610 158 571 206 571 L206 571 Z " />
<glyph glyph-name="Imacron" unicode="&#x12a;" horiz-adv-x="274" d="M65 19 C65 8 73 0 84 0 L190 0 C201 0 209 8 209 19 L209 681 C209 692 201 700 190 700 L84 700 C73 700 65 692 65 681 L65 19 Z M257 751 C268 751 276 759 276 770 L276 854 C276 865 268 873 257 873 L17 873 C6 873 -2 865 -2 854 L-2 770 C-2 759 6 751 17 751 L257 751 Z " />
<glyph glyph-name="imacron" unicode="&#x12b;" horiz-adv-x="274" d="M65 19 C65 8 73 0 84 0 L190 0 C201 0 209 8 209 19 L209 496 C209 507 201 515 190 515 L84 515 C73 515 65 507 65 496 L65 19 Z M257 571 C268 571 276 579 276 590 L276 674 C276 685 268 693 257 693 L17 693 C6 693 -2 685 -2 674 L-2 590 C-2 579 6 571 17 571 L257 571 Z " />
<glyph glyph-name="Iogonek" unicode="&#x12e;" horiz-adv-x="274" d="M65 73 C-14 60 -15 -17 -15 -34 C-15 -79 16 -123 75 -123 L146 -123 C154 -123 161 -116 161 -108 L161 -56 C161 -47 154 -41 146 -41 L92 -41 C92 -41 75 -41 75 -20 C75 -10 80 0 92 0 L190 0 C201 0 209 8 209 19 L209 681 C209 692 201 700 190 700 L84 700 C73 700 65 692 65 681 L65 73 Z " />
<glyph glyph-name="iogonek" unicode="&#x12f;" horiz-adv-x="274" d="M190 0 C201 0 209 8 209 19 L209 496 C209 507 201 515 190 515 L84 515 C73 515 65 507 65 496 L65 73 C-14 60 -15 -17 -15 -34 C-15 -79 16 -123 75 -123 L146 -123 C154 -123 161 -116 161 -108 L161 -56 C161 -47 154 -41 146 -41 L92 -41 C92 -41 75 -41 75 -20 C75 -10 80 0 92 0 L190 0 Z M63 584 C63 573 71 565 82 565 L192 565 C203 565 211 573 211 584 L211 681 C211 692 203 700 192 700 L82 700 C71 700 63 692 63 681 L63 584 Z " />
<glyph glyph-name="Idotaccent" unicode="&#x130;" horiz-adv-x="274" d="M65 19 C65 8 73 0 84 0 L190 0 C201 0 209 8 209 19 L209 552 C209 563 201 571 190 571 L84 571 C73 571 65 563 65 552 L65 19 Z M63 640 C63 629 71 621 82 621 L192 621 C203 621 211 629 211 640 L211 737 C211 748 203 756 192 756 L82 756 C71 756 63 748 63 737 L63 640 Z " />
<glyph glyph-name="dotlessi" unicode="&#x131;" horiz-adv-x="274" d="M65 19 C65 8 73 0 84 0 L190 0 C201 0 209 8 209 19 L209 496 C209 507 201 515 190 515 L84 515 C73 515 65 507 65 496 L65 19 Z " />
<glyph glyph-name="Jcircumflex" unicode="&#x134;" horiz-adv-x="459" d="M96 158 C92 161 87 162 82 162 C77 162 73 161 68 158 L2 97 C-3 92 -5 88 -5 82 C-5 78 -3 73 1 69 C23 46 88 -5 184 -5 C325 -5 414 86 414 180 L414 681 C414 692 406 700 395 700 L289 700 C278 700 270 692 270 681 L270 183 C270 183 267 129 178 129 C158 129 121 138 96 158 L96 158 Z M201 959 C189 959 181 955 176 944 L90 770 C90 759 98 751 109 751 L203 751 C214 751 222 760 226 770 L251 821 L276 770 C280 760 288 751 299 751 L393 751 C404 751 412 759 412 770 L326 944 C321 955 313 959 301 959 L201 959 Z " />
<glyph glyph-name="jcircumflex" unicode="&#x135;" horiz-adv-x="274" d="M45 -188 C45 -188 209 -142 209 14 L209 496 C209 507 201 515 190 515 L84 515 C73 515 65 507 65 496 L65 19 C65 19 63 -35 -10 -56 C-18 -58 -22 -66 -22 -73 C-22 -75 -21 -78 -20 -80 L20 -178 C23 -186 29 -190 36 -190 C38 -190 43 -189 45 -188 L45 -188 Z M87 779 C75 779 67 775 62 764 L-24 590 C-24 579 -16 571 -5 571 L89 571 C100 571 108 580 112 590 L137 641 L162 590 C166 580 174 571 185 571 L279 571 C290 571 298 579 298 590 L212 764 C207 775 199 779 187 779 L87 779 Z " />
<glyph glyph-name="uni0136" unicode="&#x136;" horiz-adv-x="591" d="M273 417 L209 417 L209 681 C209 692 201 700 190 700 L84 700 C73 700 65 692 65 681 L65 19 C65 8 73 0 84 0 L190 0 C201 0 209 8 209 19 L209 283 L273 283 L408 19 C413 9 422 0 433 0 L546 0 C557 0 565 9 565 20 L397 350 L562 680 C562 691 554 700 543 700 L430 700 C419 700 410 691 405 681 L273 417 Z M321 -214 C332 -214 340 -205 344 -196 L383 -71 C383 -61 376 -53 365 -53 L265 -53 C254 -53 246 -62 242 -71 L203 -196 C203 -206 211 -214 221 -214 L321 -214 Z " />
<glyph glyph-name="uni0137" unicode="&#x137;" horiz-adv-x="524" d="M342 21 C348 8 359 0 370 0 L488 0 C499 0 507 8 507 19 L378 270 L509 496 C509 507 501 515 490 515 L372 515 C361 515 349 506 343 496 C313 444 280 387 249 335 L209 335 L209 681 C209 692 201 700 190 700 L84 700 C73 700 65 692 65 681 L65 19 C65 8 73 0 84 0 L190 0 C201 0 209 8 209 19 L209 205 L248 205 L342 21 Z M287 -214 C298 -214 306 -205 310 -196 L349 -71 C349 -61 342 -53 331 -53 L231 -53 C220 -53 212 -62 208 -71 L169 -196 C169 -206 177 -214 187 -214 L287 -214 Z " />
<glyph glyph-name="kgreenlandic" unicode="&#x138;" horiz-adv-x="524" d="M342 21 C348 8 359 0 370 0 L488 0 C499 0 507 8 507 19 L378 270 L509 496 C509 507 501 515 490 515 L372 515 C361 515 349 506 343 496 C313 444 280 387 249 335 L209 335 L209 496 C209 507 201 515 190 515 L84 515 C73 515 65 507 65 496 L65 19 C65 8 73 0 84 0 L190 0 C201 0 209 8 209 19 L209 205 L248 205 L342 21 Z " />
<glyph glyph-name="Lacute" unicode="&#x139;" horiz-adv-x="509" d="M209 681 C209 692 201 700 190 700 L84 700 C73 700 65 692 65 681 L65 19 C65 8 73 0 84 0 L465 0 C476 0 484 8 484 19 L484 115 C484 126 476 134 465 134 L209 134 L209 681 Z M190 751 C201 751 209 760 213 769 L273 906 C273 916 266 924 255 924 L155 924 C144 924 136 915 132 906 L72 769 C72 759 80 751 90 751 L190 751 Z " />
<glyph glyph-name="lacute" unicode="&#x13a;" horiz-adv-x="274" d="M209 681 C209 692 201 700 190 700 L84 700 C73 700 65 692 65 681 L65 19 C65 8 73 0 84 0 L190 0 C201 0 209 8 209 19 L209 681 Z M186 751 C197 751 205 760 209 769 L269 906 C269 916 262 924 251 924 L151 924 C140 924 132 915 128 906 L68 769 C68 759 76 751 86 751 L186 751 Z " />
<glyph glyph-name="uni013B" unicode="&#x13b;" horiz-adv-x="509" d="M209 681 C209 692 201 700 190 700 L84 700 C73 700 65 692 65 681 L65 19 C65 8 73 0 84 0 L465 0 C476 0 484 8 484 19 L484 115 C484 126 476 134 465 134 L209 134 L209 681 Z M282 -214 C293 -214 301 -205 305 -196 L344 -71 C344 -61 337 -53 326 -53 L226 -53 C215 -53 207 -62 203 -71 L164 -196 C164 -206 172 -214 182 -214 L282 -214 Z " />
<glyph glyph-name="uni013C" unicode="&#x13c;" horiz-adv-x="274" d="M65 19 C65 8 73 0 84 0 L190 0 C201 0 209 8 209 19 L209 681 C209 692 201 700 190 700 L84 700 C73 700 65 692 65 681 L65 19 Z M143 -214 C154 -214 162 -205 166 -196 L205 -71 C205 -61 198 -53 187 -53 L87 -53 C76 -53 68 -62 64 -71 L25 -196 C25 -206 33 -214 43 -214 L143 -214 Z " />
<glyph glyph-name="Lcaron" unicode="&#x13d;" horiz-adv-x="510" d="M209 681 C209 692 201 700 190 700 L84 700 C73 700 65 692 65 681 L65 19 C65 8 73 0 84 0 L465 0 C476 0 484 8 484 19 L484 115 C484 126 476 134 465 134 L209 134 L209 681 Z M402 527 C413 527 421 536 425 545 L485 682 C485 692 478 700 467 700 L367 700 C356 700 348 691 344 682 L284 545 C284 535 292 527 302 527 L402 527 Z " />
<glyph glyph-name="lcaron" unicode="&#x13e;" horiz-adv-x="475" d="M65 19 C65 8 73 0 84 0 L190 0 C201 0 209 8 209 19 L209 681 C209 692 201 700 190 700 L84 700 C73 700 65 692 65 681 L65 19 Z M387 527 C398 527 406 536 410 545 L470 682 C470 692 463 700 452 700 L352 700 C341 700 333 691 329 682 L269 545 C269 535 277 527 287 527 L387 527 Z " />
<glyph glyph-name="Lslash" unicode="&#x141;" horiz-adv-x="545" d="M24 384 C13 381 5 373 5 362 L5 269 C5 258 13 250 24 250 L101 271 L101 19 C101 8 109 0 120 0 L501 0 C512 0 520 8 520 19 L520 115 C520 126 512 134 501 134 L245 134 L245 310 L323 332 C334 335 342 343 342 354 L342 447 C342 458 334 466 323 466 L245 444 L245 681 C245 692 237 700 226 700 L120 700 C109 700 101 692 101 681 L101 405 L24 384 Z " />
<glyph glyph-name="lslash" unicode="&#x142;" horiz-adv-x="347" d="M24 384 C13 381 5 373 5 362 L5 269 C5 258 13 250 24 250 L101 271 L101 19 C101 8 109 0 120 0 L226 0 C237 0 245 8 245 19 L245 310 L323 332 C334 335 342 343 342 354 L342 447 C342 458 334 466 323 466 L245 444 L245 681 C245 692 237 700 226 700 L120 700 C109 700 101 692 101 681 L101 405 L24 384 Z " />
<glyph glyph-name="Nacute" unicode="&#x143;" horiz-adv-x="647" d="M220 700 L84 700 C73 700 65 692 65 681 L65 19 C65 8 73 0 84 0 L190 0 C201 0 209 8 209 19 L209 407 L216 407 L400 16 C405 6 411 0 426 0 L563 0 C574 0 582 8 582 19 L582 681 C582 692 574 700 563 700 L457 700 C446 700 438 692 438 681 L438 287 L431 287 L246 684 C241 694 235 700 220 700 L220 700 Z M395 751 C406 751 414 760 418 769 L478 906 C478 916 471 924 460 924 L360 924 C349 924 341 915 337 906 L277 769 C277 759 285 751 295 751 L395 751 Z " />
<glyph glyph-name="nacute" unicode="&#x144;" horiz-adv-x="539" d="M484 361 C479 451 422 520 328 520 L314 520 C293 520 251 513 218 470 L209 470 L209 496 C209 507 201 515 190 515 L84 515 C73 515 65 507 65 496 L65 19 C65 8 73 0 84 0 L190 0 C201 0 209 8 209 19 L209 339 C234 385 276 387 291 387 L307 387 C325 387 340 373 340 352 L340 19 C340 8 348 0 359 0 L465 0 C476 0 484 8 484 19 L484 361 Z M330 571 C341 571 349 580 353 589 L413 726 C413 736 406 744 395 744 L295 744 C284 744 276 735 272 726 L212 589 C212 579 220 571 230 571 L330 571 Z " />
<glyph glyph-name="uni0145" unicode="&#x145;" horiz-adv-x="647" d="M220 700 L84 700 C73 700 65 692 65 681 L65 19 C65 8 73 0 84 0 L190 0 C201 0 209 8 209 19 L209 407 L216 407 L400 16 C405 6 411 0 426 0 L563 0 C574 0 582 8 582 19 L582 681 C582 692 574 700 563 700 L457 700 C446 700 438 692 438 681 L438 287 L431 287 L246 684 C241 694 235 700 220 700 L220 700 Z M330 -214 C341 -214 349 -205 353 -196 L392 -71 C392 -61 385 -53 374 -53 L274 -53 C263 -53 255 -62 251 -71 L212 -196 C212 -206 220 -214 230 -214 L330 -214 Z " />
<glyph glyph-name="uni0146" unicode="&#x146;" horiz-adv-x="539" d="M484 361 C479 451 422 520 328 520 L314 520 C293 520 251 513 218 470 L209 470 L209 496 C209 507 201 515 190 515 L84 515 C73 515 65 507 65 496 L65 19 C65 8 73 0 84 0 L190 0 C201 0 209 8 209 19 L209 339 C234 385 276 387 291 387 L307 387 C325 387 340 373 340 352 L340 19 C340 8 348 0 359 0 L465 0 C476 0 484 8 484 19 L484 361 Z M280 -214 C291 -214 299 -205 303 -196 L342 -71 C342 -61 335 -53 324 -53 L224 -53 C213 -53 205 -62 201 -71 L162 -196 C162 -206 170 -214 180 -214 L280 -214 Z " />
<glyph glyph-name="Ncaron" unicode="&#x147;" horiz-adv-x="647" d="M220 700 L84 700 C73 700 65 692 65 681 L65 19 C65 8 73 0 84 0 L190 0 C201 0 209 8 209 19 L209 407 L216 407 L400 16 C405 6 411 0 426 0 L563 0 C574 0 582 8 582 19 L582 681 C582 692 574 700 563 700 L457 700 C446 700 438 692 438 681 L438 287 L431 287 L246 684 C241 694 235 700 220 700 L220 700 Z M378 751 C390 751 398 755 403 766 L489 940 C489 951 481 959 470 959 L376 959 C365 959 357 950 353 940 L328 889 L303 940 C299 950 291 959 280 959 L186 959 C175 959 167 951 167 940 L253 766 C258 755 266 751 278 751 L378 751 Z " />
<glyph glyph-name="ncaron" unicode="&#x148;" horiz-adv-x="539" d="M484 361 C479 451 422 520 328 520 L314 520 C293 520 251 513 218 470 L209 470 L209 496 C209 507 201 515 190 515 L84 515 C73 515 65 507 65 496 L65 19 C65 8 73 0 84 0 L190 0 C201 0 209 8 209 19 L209 339 C234 385 276 387 291 387 L307 387 C325 387 340 373 340 352 L340 19 C340 8 348 0 359 0 L465 0 C476 0 484 8 484 19 L484 361 Z M323 571 C335 571 343 575 348 586 L434 760 C434 771 426 779 415 779 L321 779 C310 779 302 770 298 760 L273 709 L248 760 C244 770 236 779 225 779 L131 779 C120 779 112 771 112 760 L198 586 C203 575 211 571 223 571 L323 571 Z " />
<glyph glyph-name="Eng" unicode="&#x14a;" horiz-adv-x="647" d="M418 -188 C418 -188 582 -142 582 14 L582 681 C582 692 574 700 563 700 L457 700 C446 700 438 692 438 681 L438 287 L431 287 L246 684 C241 694 235 700 220 700 L84 700 C73 700 65 692 65 681 L65 19 C65 8 73 0 84 0 L190 0 C201 0 209 8 209 19 L209 407 L216 407 L419 -23 C408 -35 390 -48 363 -56 C355 -58 351 -66 351 -73 C351 -75 352 -78 353 -80 L393 -178 C396 -186 402 -190 409 -190 C411 -190 416 -189 418 -188 L418 -188 Z " />
<glyph glyph-name="eng" unicode="&#x14b;" horiz-adv-x="539" d="M320 -188 C320 -188 484 -142 484 14 L484 361 C479 451 422 520 328 520 L314 520 C293 520 251 513 218 470 L209 470 L209 496 C209 507 201 515 190 515 L84 515 C73 515 65 507 65 496 L65 19 C65 8 73 0 84 0 L190 0 C201 0 209 8 209 19 L209 339 C234 385 276 387 291 387 L307 387 C325 387 340 373 340 352 L340 19 C339 8 330 -37 265 -56 C257 -58 253 -66 253 -73 C253 -75 254 -78 255 -80 L295 -178 C298 -186 304 -190 311 -190 C313 -190 318 -189 320 -188 L320 -188 Z " />
<glyph glyph-name="Omacron" unicode="&#x14c;" horiz-adv-x="599" d="M244 129 C220 129 199 151 199 178 L199 522 C199 549 220 571 244 571 L355 571 C379 571 400 549 400 522 L400 178 C400 151 379 129 355 129 L244 129 Z M361 -5 C463 -5 544 73 544 171 L544 529 C544 627 463 705 361 705 L238 705 C136 705 55 627 55 529 L55 171 C55 73 136 -5 238 -5 L361 -5 Z M444 751 C455 751 463 759 463 770 L463 854 C463 865 455 873 444 873 L155 873 C144 873 136 865 136 854 L136 770 C136 759 144 751 155 751 L444 751 Z " />
<glyph glyph-name="omacron" unicode="&#x14d;" horiz-adv-x="512" d="M207 520 C111 520 50 440 50 362 L50 152 C50 75 111 -5 207 -5 L305 -5 C401 -5 462 75 462 152 L462 362 C462 440 401 520 305 520 L207 520 Z M288 387 C303 387 318 373 318 357 L318 158 C318 142 303 128 288 128 L224 128 C209 128 194 142 194 158 L194 357 C194 373 209 387 224 387 L288 387 Z M379 571 C390 571 398 579 398 590 L398 674 C398 685 390 693 379 693 L135 693 C124 693 116 685 116 674 L116 590 C116 579 124 571 135 571 L379 571 Z " />
<glyph glyph-name="Ohungarumlaut" unicode="&#x150;" horiz-adv-x="599" d="M244 129 C220 129 199 151 199 178 L199 522 C199 549 220 571 244 571 L355 571 C379 571 400 549 400 522 L400 178 C400 151 379 129 355 129 L244 129 Z M361 -5 C463 -5 544 73 544 171 L544 529 C544 627 463 705 361 705 L238 705 C136 705 55 627 55 529 L55 171 C55 73 136 -5 238 -5 L361 -5 Z M272 751 C283 751 291 760 295 769 L344 903 C344 913 337 921 326 921 L226 921 C215 921 207 912 203 903 L154 769 C154 759 162 751 172 751 L272 751 Z M443 751 C454 751 462 760 466 769 L515 903 C515 913 508 921 497 921 L397 921 C386 921 378 912 374 903 L325 769 C325 759 333 751 343 751 L443 751 Z " />
<glyph glyph-name="ohungarumlaut" unicode="&#x151;" horiz-adv-x="512" d="M207 520 C111 520 50 440 50 362 L50 152 C50 75 111 -5 207 -5 L305 -5 C401 -5 462 75 462 152 L462 362 C462 440 401 520 305 520 L207 520 Z M288 387 C303 387 318 373 318 357 L318 158 C318 142 303 128 288 128 L224 128 C209 128 194 142 194 158 L194 357 C194 373 209 387 224 387 L288 387 Z M218 571 C229 571 237 580 241 589 L290 723 C290 733 283 741 272 741 L172 741 C161 741 153 732 149 723 L100 589 C100 579 108 571 118 571 L218 571 Z M389 571 C400 571 408 580 412 589 L461 723 C461 733 454 741 443 741 L343 741 C332 741 324 732 320 723 L271 589 C271 579 279 571 289 571 L389 571 Z " />
<glyph glyph-name="OE" unicode="&#x152;" horiz-adv-x="874" d="M544 485 L544 566 L800 566 C811 566 819 574 819 585 L819 681 C819 692 811 700 800 700 L238 700 C136 700 55 622 55 524 L55 176 C55 78 136 0 238 0 L800 0 C811 0 819 8 819 19 L819 115 C819 126 811 134 800 134 L544 134 L544 296 L778 296 C789 296 797 304 797 315 L797 411 C797 422 789 430 778 430 L544 430 L544 485 Z M400 179 C398 154 378 134 355 134 L244 134 C220 134 199 156 199 183 L199 517 C199 544 220 566 244 566 L355 566 C379 566 400 544 400 517 L400 179 Z " />
<glyph glyph-name="oe" unicode="&#x153;" horiz-adv-x="775" d="M715 74 C717 77 718 82 718 85 C718 91 716 95 710 100 L643 155 C640 157 635 158 632 158 C625 158 620 155 616 150 C606 141 591 128 564 128 L492 128 C477 128 462 142 462 158 L462 195 L711 195 C722 195 730 203 730 214 L730 362 C730 440 670 520 573 520 L475 520 C442 520 413 511 390 495 C366 511 337 520 305 520 L207 520 C111 520 50 440 50 362 L50 152 C50 75 111 -5 207 -5 L305 -5 C337 -5 366 4 390 19 C413 4 442 -5 475 -5 L564 -5 C564 -5 666 -4 715 74 L715 74 Z M288 387 C303 387 318 373 318 357 L318 158 C318 142 303 128 288 128 L224 128 C209 128 194 142 194 158 L194 357 C194 373 209 387 224 387 L288 387 Z M492 387 L556 387 C571 387 587 373 587 357 L587 315 L462 315 L462 360 C464 375 478 387 492 387 L492 387 Z " />
<glyph glyph-name="Racute" unicode="&#x154;" horiz-adv-x="600" d="M465 229 C514 260 546 314 546 375 L546 524 C546 622 464 700 363 700 L84 700 C73 700 65 692 65 681 L65 19 C65 8 73 0 84 0 L190 0 C201 0 209 8 209 19 L209 199 L324 199 L406 19 C411 9 420 0 431 0 L546 0 C557 0 565 8 565 19 L465 229 Z M209 566 L356 566 C381 566 402 544 402 517 L402 382 C402 355 381 333 356 333 L209 333 L209 566 Z M338 751 C349 751 357 760 361 769 L421 906 C421 916 414 924 403 924 L303 924 C292 924 284 915 280 906 L220 769 C220 759 228 751 238 751 L338 751 Z " />
<glyph glyph-name="racute" unicode="&#x155;" horiz-adv-x="412" d="M382 514 C370 519 333 520 317 520 C297 520 247 520 218 465 L209 465 L209 496 C209 507 201 515 190 515 L84 515 C73 515 65 507 65 496 L65 19 C65 8 73 0 84 0 L190 0 C201 0 209 8 209 19 L209 339 C234 384 288 387 309 387 C331 387 366 381 370 381 C381 381 389 389 389 400 L397 492 C397 504 394 509 382 514 L382 514 Z M192 571 C203 571 211 580 215 589 L275 726 C275 736 268 744 257 744 L157 744 C146 744 138 735 134 726 L74 589 C74 579 82 571 92 571 L192 571 Z " />
<glyph glyph-name="uni0156" unicode="&#x156;" horiz-adv-x="600" d="M465 229 C514 260 546 314 546 375 L546 524 C546 622 464 700 363 700 L84 700 C73 700 65 692 65 681 L65 19 C65 8 73 0 84 0 L190 0 C201 0 209 8 209 19 L209 199 L324 199 L406 19 C411 9 420 0 431 0 L546 0 C557 0 565 8 565 19 L465 229 Z M209 566 L356 566 C381 566 402 544 402 517 L402 382 C402 355 381 333 356 333 L209 333 L209 566 Z M322 -214 C333 -214 341 -205 345 -196 L384 -71 C384 -61 377 -53 366 -53 L266 -53 C255 -53 247 -62 243 -71 L204 -196 C204 -206 212 -214 222 -214 L322 -214 Z " />
<glyph glyph-name="uni0157" unicode="&#x157;" horiz-adv-x="412" d="M382 514 C370 519 333 520 317 520 C297 520 247 520 218 465 L209 465 L209 496 C209 507 201 515 190 515 L84 515 C73 515 65 507 65 496 L65 19 C65 8 73 0 84 0 L190 0 C201 0 209 8 209 19 L209 339 C234 384 288 387 309 387 C331 387 366 381 370 381 C381 381 389 389 389 400 L397 492 C397 504 394 509 382 514 L382 514 Z M188 -214 C199 -214 207 -205 211 -196 L250 -71 C250 -61 243 -53 232 -53 L132 -53 C121 -53 113 -62 109 -71 L70 -196 C70 -206 78 -214 88 -214 L188 -214 Z " />
<glyph glyph-name="Rcaron" unicode="&#x158;" horiz-adv-x="600" d="M465 229 C514 260 546 314 546 375 L546 524 C546 622 464 700 363 700 L84 700 C73 700 65 692 65 681 L65 19 C65 8 73 0 84 0 L190 0 C201 0 209 8 209 19 L209 199 L324 199 L406 19 C411 9 420 0 431 0 L546 0 C557 0 565 8 565 19 L465 229 Z M209 566 L356 566 C381 566 402 544 402 517 L402 382 C402 355 381 333 356 333 L209 333 L209 566 Z M314 751 C326 751 334 755 339 766 L425 940 C425 951 417 959 406 959 L312 959 C301 959 293 950 289 940 L264 889 L239 940 C235 950 227 959 216 959 L122 959 C111 959 103 951 103 940 L189 766 C194 755 202 751 214 751 L314 751 Z " />
<glyph glyph-name="rcaron" unicode="&#x159;" horiz-adv-x="412" d="M382 514 C370 519 333 520 317 520 C297 520 247 520 218 465 L209 465 L209 496 C209 507 201 515 190 515 L84 515 C73 515 65 507 65 496 L65 19 C65 8 73 0 84 0 L190 0 C201 0 209 8 209 19 L209 339 C234 384 288 387 309 387 C331 387 366 381 370 381 C381 381 389 389 389 400 L397 492 C397 504 394 509 382 514 L382 514 Z M277 571 C289 571 297 575 302 586 L388 760 C388 771 380 779 369 779 L275 779 C264 779 256 770 252 760 L227 709 L202 760 C198 770 190 779 179 779 L85 779 C74 779 66 771 66 760 L152 586 C157 575 165 571 177 571 L277 571 Z " />
<glyph glyph-name="Sacute" unicode="&#x15a;" horiz-adv-x="566" d="M218 705 C117 705 35 627 35 529 L35 507 C35 214 382 335 382 202 L382 178 C382 151 360 129 335 129 L225 129 C200 129 179 151 179 178 L179 204 C179 215 171 223 160 223 L54 223 C43 223 35 215 35 204 L35 171 C35 73 117 -5 218 -5 L343 -5 C444 -5 526 73 526 171 L526 187 C526 483 179 353 179 496 L179 522 C179 549 201 571 226 571 L326 571 C351 571 372 549 372 522 L372 502 C372 491 380 483 391 483 L497 483 C508 483 516 491 516 502 L516 529 C516 627 434 705 334 705 L218 705 Z M227 751 C217 751 209 759 209 769 L269 906 C273 915 281 924 292 924 L392 924 C403 924 410 916 410 906 L350 769 C346 760 338 751 327 751 L227 751 Z " />
<glyph glyph-name="sacute" unicode="&#x15b;" horiz-adv-x="487" d="M271 392 C287 392 302 378 302 362 L302 356 C302 345 310 337 321 337 L427 337 C438 337 446 345 446 356 L446 363 C446 440 385 520 289 520 L197 520 C101 520 45 451 40 373 L40 365 C40 165 309 220 309 162 L309 145 C309 131 294 123 278 123 L215 123 C199 123 184 137 184 153 L184 164 C184 175 176 183 165 183 L59 183 C48 183 40 175 40 164 L40 152 C40 75 101 -5 197 -5 L295 -5 C392 -5 452 63 452 141 L452 155 C452 353 184 296 184 358 L184 370 C184 384 199 392 215 392 L271 392 Z M293 571 C304 571 312 580 316 589 L376 726 C376 736 369 744 358 744 L258 744 C247 744 239 735 235 726 L175 589 C175 579 183 571 193 571 L293 571 Z " />
<glyph glyph-name="Scircumflex" unicode="&#x15c;" horiz-adv-x="566" d="M218 705 C117 705 35 627 35 529 L35 507 C35 214 382 335 382 202 L382 178 C382 151 360 129 335 129 L225 129 C200 129 179 151 179 178 L179 204 C179 215 171 223 160 223 L54 223 C43 223 35 215 35 204 L35 171 C35 73 117 -5 218 -5 L343 -5 C444 -5 526 73 526 171 L526 187 C526 483 179 353 179 496 L179 522 C179 549 201 571 226 571 L326 571 C351 571 372 549 372 522 L372 502 C372 491 380 483 391 483 L497 483 C508 483 516 491 516 502 L516 529 C516 627 434 705 334 705 L218 705 Z M328 959 C340 959 348 955 353 944 L439 770 C439 759 431 751 420 751 L326 751 C315 751 307 760 303 770 L278 821 L253 770 C249 760 241 751 230 751 L136 751 C125 751 117 759 117 770 L203 944 C208 955 216 959 228 959 L328 959 Z " />
<glyph glyph-name="scircumflex" unicode="&#x15d;" horiz-adv-x="487" d="M271 392 C287 392 302 378 302 362 L302 356 C302 345 310 337 321 337 L427 337 C438 337 446 345 446 356 L446 363 C446 440 385 520 289 520 L197 520 C101 520 45 451 40 373 L40 365 C40 165 309 220 309 162 L309 145 C309 131 294 123 278 123 L215 123 C199 123 184 137 184 153 L184 164 C184 175 176 183 165 183 L59 183 C48 183 40 175 40 164 L40 152 C40 75 101 -5 197 -5 L295 -5 C392 -5 452 63 452 141 L452 155 C452 353 184 296 184 358 L184 370 C184 384 199 392 215 392 L271 392 Z M195 779 C183 779 175 775 170 764 L84 590 C84 579 92 571 103 571 L197 571 C208 571 216 580 220 590 L245 641 L270 590 C274 580 282 571 293 571 L387 571 C398 571 406 579 406 590 L320 764 C315 775 307 779 295 779 L195 779 Z " />
<glyph glyph-name="Scedilla" unicode="&#x15e;" horiz-adv-x="566" d="M179 496 L179 522 C179 549 201 571 226 571 L326 571 C351 571 372 549 372 522 L372 502 C372 491 380 483 391 483 L497 483 C508 483 516 491 516 502 L516 529 C516 627 434 705 334 705 L218 705 C117 705 35 627 35 529 L35 507 C35 214 382 335 382 202 L382 178 C382 151 360 129 335 129 L225 129 C200 129 179 151 179 178 L179 204 C179 215 171 223 160 223 L54 223 C43 223 35 215 35 204 L35 171 C35 73 117 -5 218 -5 L238 -5 L219 -38 C216 -43 214 -51 214 -54 L214 -83 C214 -91 221 -98 229 -98 L279 -98 C279 -98 291 -98 291 -111 C291 -124 279 -124 279 -124 L217 -124 C209 -124 202 -130 202 -139 L202 -186 C202 -194 209 -201 217 -201 L304 -201 C364 -201 381 -174 381 -99 C381 -59 353 -35 320 -29 L334 -5 L343 -5 C444 -5 526 73 526 171 L526 187 C526 483 179 353 179 496 L179 496 Z " />
<glyph glyph-name="scedilla" unicode="&#x15f;" horiz-adv-x="487" d="M271 392 C287 392 302 378 302 362 L302 356 C302 345 310 337 321 337 L427 337 C438 337 446 345 446 356 L446 363 C446 440 385 520 289 520 L197 520 C101 520 45 451 40 373 L40 365 C40 165 309 220 309 162 L309 145 C309 131 294 123 278 123 L215 123 C199 123 184 137 184 153 L184 164 C184 175 176 183 165 183 L59 183 C48 183 40 175 40 164 L40 152 C40 75 101 -5 197 -5 L180 -38 C177 -43 175 -51 175 -54 L175 -83 C175 -91 182 -98 190 -98 L240 -98 C240 -98 252 -98 252 -111 C252 -124 240 -124 240 -124 L178 -124 C170 -124 163 -130 163 -139 L163 -186 C163 -194 170 -201 178 -201 L265 -201 C325 -201 342 -174 342 -99 C342 -59 314 -35 281 -29 L295 -5 C392 -5 452 63 452 141 L452 155 C452 353 184 296 184 358 L184 370 C184 384 199 392 215 392 L271 392 Z " />
<glyph glyph-name="Scaron" unicode="&#x160;" horiz-adv-x="566" d="M218 705 C117 705 35 627 35 529 L35 507 C35 214 382 335 382 202 L382 178 C382 151 360 129 335 129 L225 129 C200 129 179 151 179 178 L179 204 C179 215 171 223 160 223 L54 223 C43 223 35 215 35 204 L35 171 C35 73 117 -5 218 -5 L343 -5 C444 -5 526 73 526 171 L526 187 C526 483 179 353 179 496 L179 522 C179 549 201 571 226 571 L326 571 C351 571 372 549 372 522 L372 502 C372 491 380 483 391 483 L497 483 C508 483 516 491 516 502 L516 529 C516 627 434 705 334 705 L218 705 Z M230 751 C218 751 210 755 205 766 L119 940 C119 951 127 959 138 959 L232 959 C243 959 251 950 255 940 L280 889 L305 940 C309 950 317 959 328 959 L422 959 C433 959 441 951 441 940 L355 766 C350 755 342 751 330 751 L230 751 Z " />
<glyph glyph-name="scaron" unicode="&#x161;" horiz-adv-x="487" d="M271 392 C287 392 302 378 302 362 L302 356 C302 345 310 337 321 337 L427 337 C438 337 446 345 446 356 L446 363 C446 440 385 520 289 520 L197 520 C101 520 45 451 40 373 L40 365 C40 165 309 220 309 162 L309 145 C309 131 294 123 278 123 L215 123 C199 123 184 137 184 153 L184 164 C184 175 176 183 165 183 L59 183 C48 183 40 175 40 164 L40 152 C40 75 101 -5 197 -5 L295 -5 C392 -5 452 63 452 141 L452 155 C452 353 184 296 184 358 L184 370 C184 384 199 392 215 392 L271 392 Z M294 571 C306 571 314 575 319 586 L405 760 C405 771 397 779 386 779 L292 779 C281 779 273 770 269 760 L244 709 L219 760 C215 770 207 779 196 779 L102 779 C91 779 83 771 83 760 L169 586 C174 575 182 571 194 571 L294 571 Z " />
<glyph glyph-name="uni0162" unicode="&#x162;" horiz-adv-x="536" d="M313 0 C325 0 330 -10 330 -20 C330 -41 313 -41 313 -41 L259 -41 C251 -41 244 -47 244 -56 L244 -108 C244 -116 251 -123 259 -123 L330 -123 C389 -123 420 -79 420 -34 C420 -17 419 60 340 73 L340 566 L487 566 C498 566 506 574 506 585 L506 681 C506 692 498 700 487 700 L49 700 C38 700 30 692 30 681 L30 585 C30 574 38 566 49 566 L196 566 L196 19 C196 8 204 0 215 0 L313 0 Z " />
<glyph glyph-name="uni0163" unicode="&#x163;" horiz-adv-x="398" d="M239 -92 C239 -92 251 -92 251 -105 C251 -118 239 -118 239 -118 L177 -118 C169 -118 162 -124 162 -133 L162 -180 C162 -188 169 -195 177 -195 L264 -195 C324 -195 341 -168 341 -93 C341 -53 313 -29 280 -23 L293 0 L354 0 C365 0 373 8 373 19 L373 113 C373 124 365 132 354 132 L294 132 C276 132 258 148 258 167 L258 382 L354 382 C365 382 373 390 373 401 L373 496 C373 507 365 515 354 515 L258 515 L258 681 C258 692 250 700 239 700 L133 700 C122 700 114 692 114 681 L114 515 L39 515 C28 515 20 507 20 496 L20 401 C20 390 28 382 39 382 L114 382 L114 167 C114 94 148 37 205 13 L179 -32 C176 -37 174 -45 174 -48 L174 -77 C174 -85 181 -92 189 -92 L239 -92 Z " />
<glyph glyph-name="Tcaron" unicode="&#x164;" horiz-adv-x="536" d="M196 566 L196 19 C196 8 204 0 215 0 L321 0 C332 0 340 8 340 19 L340 566 L487 566 C498 566 506 574 506 585 L506 681 C506 692 498 700 487 700 L49 700 C38 700 30 692 30 681 L30 585 C30 574 38 566 49 566 L196 566 Z M318 751 C330 751 338 755 343 766 L429 940 C429 951 421 959 410 959 L316 959 C305 959 297 950 293 940 L268 889 L243 940 C239 950 231 959 220 959 L126 959 C115 959 107 951 107 940 L193 766 C198 755 206 751 218 751 L318 751 Z " />
<glyph glyph-name="tcaron" unicode="&#x165;" horiz-adv-x="561" d="M258 382 L354 382 C365 382 373 390 373 401 L373 496 C373 507 365 515 354 515 L258 515 L258 681 C258 692 250 700 239 700 L133 700 C122 700 114 692 114 681 L114 515 L39 515 C28 515 20 507 20 496 L20 401 C20 390 28 382 39 382 L114 382 L114 167 C114 69 175 0 271 0 L354 0 C365 0 373 8 373 19 L373 113 C373 124 365 132 354 132 L294 132 C276 132 258 148 258 167 L258 382 Z M475 556 C486 556 494 565 498 574 L546 682 C546 692 539 700 528 700 L428 700 C417 700 409 691 405 682 L357 574 C357 564 365 556 375 556 L475 556 Z " />
<glyph glyph-name="Tbar" unicode="&#x166;" horiz-adv-x="536" d="M429 272 C440 272 448 280 448 291 L448 371 C448 382 440 390 429 390 L340 390 L340 566 L487 566 C498 566 506 574 506 585 L506 681 C506 692 498 700 487 700 L49 700 C38 700 30 692 30 681 L30 585 C30 574 38 566 49 566 L196 566 L196 390 L106 390 C95 390 87 382 87 371 L87 291 C87 280 95 272 106 272 L196 272 L196 19 C196 8 204 0 215 0 L321 0 C332 0 340 8 340 19 L340 272 L429 272 Z " />
<glyph glyph-name="tbar" unicode="&#x167;" horiz-adv-x="398" d="M354 221 C365 221 373 229 373 240 L373 320 C373 331 365 339 354 339 L258 339 L258 397 L354 397 C365 397 373 405 373 416 L373 496 C373 507 365 515 354 515 L258 515 L258 681 C258 692 250 700 239 700 L133 700 C122 700 114 692 114 681 L114 515 L39 515 C28 515 20 507 20 496 L20 416 C20 405 28 397 39 397 L114 397 L114 339 L39 339 C28 339 20 331 20 320 L20 240 C20 229 28 221 39 221 L114 221 L114 167 C114 69 175 0 271 0 L354 0 C365 0 373 8 373 19 L373 113 C373 124 365 132 354 132 L294 132 C276 132 258 148 258 167 L258 221 L354 221 Z " />
<glyph glyph-name="Utilde" unicode="&#x168;" horiz-adv-x="609" d="M549 681 C549 692 541 700 530 700 L424 700 C413 700 405 692 405 681 L405 178 C405 151 384 129 360 129 L249 129 C225 129 204 151 204 178 L204 681 C204 692 196 700 185 700 L79 700 C68 700 60 692 60 681 L60 171 C60 73 141 -5 243 -5 L366 -5 C468 -5 549 73 549 171 L549 681 Z M380 751 C407 751 434 764 460 780 C468 786 472 795 472 804 L448 882 C446 889 438 895 428 895 C425 895 421 895 418 894 C407 889 388 885 380 885 C331 885 290 924 242 924 C215 924 188 911 162 895 C154 889 150 880 150 871 L174 793 C176 786 184 780 194 780 C197 780 201 780 204 781 C215 786 234 790 242 790 C292 790 332 751 380 751 L380 751 Z " />
<glyph glyph-name="utilde" unicode="&#x169;" horiz-adv-x="522" d="M310 -5 C406 -5 467 75 467 152 L467 496 C467 507 459 515 448 515 L342 515 C331 515 323 507 323 496 L323 158 C323 142 308 128 293 128 L229 128 C214 128 199 142 199 158 L199 496 C199 507 191 515 180 515 L74 515 C63 515 55 507 55 496 L55 152 C55 75 116 -5 212 -5 L310 -5 Z M331 571 C358 571 385 584 411 600 C419 606 423 615 423 624 L399 702 C397 709 389 715 379 715 C376 715 372 715 369 714 C358 709 339 705 331 705 C282 705 241 744 193 744 C166 744 139 731 113 715 C105 709 101 700 101 691 L125 613 C127 606 135 600 145 600 C148 600 152 600 155 601 C166 606 185 610 193 610 C243 610 283 571 331 571 L331 571 Z " />
<glyph glyph-name="Umacron" unicode="&#x16a;" horiz-adv-x="609" d="M549 681 C549 692 541 700 530 700 L424 700 C413 700 405 692 405 681 L405 178 C405 151 384 129 360 129 L249 129 C225 129 204 151 204 178 L204 681 C204 692 196 700 185 700 L79 700 C68 700 60 692 60 681 L60 171 C60 73 141 -5 243 -5 L366 -5 C468 -5 549 73 549 171 L549 681 Z M441 751 C452 751 460 759 460 770 L460 854 C460 865 452 873 441 873 L167 873 C156 873 148 865 148 854 L148 770 C148 759 156 751 167 751 L441 751 Z " />
<glyph glyph-name="umacron" unicode="&#x16b;" horiz-adv-x="522" d="M310 -5 C406 -5 467 75 467 152 L467 496 C467 507 459 515 448 515 L342 515 C331 515 323 507 323 496 L323 158 C323 142 308 128 293 128 L229 128 C214 128 199 142 199 158 L199 496 C199 507 191 515 180 515 L74 515 C63 515 55 507 55 496 L55 152 C55 75 116 -5 212 -5 L310 -5 Z M389 571 C400 571 408 579 408 590 L408 674 C408 685 400 693 389 693 L134 693 C123 693 115 685 115 674 L115 590 C115 579 123 571 134 571 L389 571 Z " />
<glyph glyph-name="Ubreve" unicode="&#x16c;" horiz-adv-x="609" d="M549 681 C549 692 541 700 530 700 L424 700 C413 700 405 692 405 681 L405 178 C405 151 384 129 360 129 L249 129 C225 129 204 151 204 178 L204 681 C204 692 196 700 185 700 L79 700 C68 700 60 692 60 681 L60 171 C60 73 141 -5 243 -5 L366 -5 C468 -5 549 73 549 171 L549 681 Z M304 751 C405 751 473 800 486 909 C486 919 479 926 469 926 L383 926 C373 926 365 919 361 909 C354 875 328 870 304 870 C280 870 254 875 247 909 C243 919 235 926 225 926 L139 926 C129 926 122 919 122 909 C135 800 203 751 304 751 L304 751 Z " />
<glyph glyph-name="ubreve" unicode="&#x16d;" horiz-adv-x="522" d="M310 -5 C406 -5 467 75 467 152 L467 496 C467 507 459 515 448 515 L342 515 C331 515 323 507 323 496 L323 158 C323 142 308 128 293 128 L229 128 C214 128 199 142 199 158 L199 496 C199 507 191 515 180 515 L74 515 C63 515 55 507 55 496 L55 152 C55 75 116 -5 212 -5 L310 -5 Z M261 571 C362 571 430 620 443 729 C443 739 436 746 426 746 L340 746 C330 746 322 739 318 729 C311 695 285 690 261 690 C237 690 211 695 204 729 C200 739 192 746 182 746 L96 746 C86 746 79 739 79 729 C92 620 160 571 261 571 L261 571 Z " />
<glyph glyph-name="Uring" unicode="&#x16e;" horiz-adv-x="609" d="M549 681 C549 692 541 700 530 700 L424 700 C413 700 405 692 405 681 L405 178 C405 151 384 129 360 129 L249 129 C225 129 204 151 204 178 L204 681 C204 692 196 700 185 700 L79 700 C68 700 60 692 60 681 L60 171 C60 73 141 -5 243 -5 L366 -5 C468 -5 549 73 549 171 L549 681 Z M307 1002 C230 1002 166 939 166 860 C166 783 230 719 307 719 C387 719 450 783 450 860 C450 939 387 1002 307 1002 L307 1002 Z M307 819 C285 819 266 838 266 860 C266 883 285 902 307 902 C330 902 349 883 349 860 C349 838 330 819 307 819 L307 819 Z " />
<glyph glyph-name="uring" unicode="&#x16f;" horiz-adv-x="522" d="M310 -5 C406 -5 467 75 467 152 L467 496 C467 507 459 515 448 515 L342 515 C331 515 323 507 323 496 L323 158 C323 142 308 128 293 128 L229 128 C214 128 199 142 199 158 L199 496 C199 507 191 515 180 515 L74 515 C63 515 55 507 55 496 L55 152 C55 75 116 -5 212 -5 L310 -5 Z M261 854 C184 854 120 791 120 712 C120 635 184 571 261 571 C341 571 404 635 404 712 C404 791 341 854 261 854 L261 854 Z M261 671 C239 671 220 690 220 712 C220 735 239 754 261 754 C284 754 303 735 303 712 C303 690 284 671 261 671 L261 671 Z " />
<glyph glyph-name="Uhungarumlaut" unicode="&#x170;" horiz-adv-x="609" d="M549 681 C549 692 541 700 530 700 L424 700 C413 700 405 692 405 681 L405 178 C405 151 384 129 360 129 L249 129 C225 129 204 151 204 178 L204 681 C204 692 196 700 185 700 L79 700 C68 700 60 692 60 681 L60 171 C60 73 141 -5 243 -5 L366 -5 C468 -5 549 73 549 171 L549 681 Z M261 751 C272 751 280 760 284 769 L333 903 C333 913 326 921 315 921 L215 921 C204 921 196 912 192 903 L143 769 C143 759 151 751 161 751 L261 751 Z M432 751 C443 751 451 760 455 769 L504 903 C504 913 497 921 486 921 L386 921 C375 921 367 912 363 903 L314 769 C314 759 322 751 332 751 L432 751 Z " />
<glyph glyph-name="uhungarumlaut" unicode="&#x171;" horiz-adv-x="522" d="M310 -5 C406 -5 467 75 467 152 L467 496 C467 507 459 515 448 515 L342 515 C331 515 323 507 323 496 L323 158 C323 142 308 128 293 128 L229 128 C214 128 199 142 199 158 L199 496 C199 507 191 515 180 515 L74 515 C63 515 55 507 55 496 L55 152 C55 75 116 -5 212 -5 L310 -5 Z M220 571 C231 571 239 580 243 589 L292 723 C292 733 285 741 274 741 L174 741 C163 741 155 732 151 723 L102 589 C102 579 110 571 120 571 L220 571 Z M391 571 C402 571 410 580 414 589 L463 723 C463 733 456 741 445 741 L345 741 C334 741 326 732 322 723 L273 589 C273 579 281 571 291 571 L391 571 Z " />
<glyph glyph-name="Uogonek" unicode="&#x172;" horiz-adv-x="609" d="M301 -92 C301 -92 313 -92 313 -105 C313 -118 301 -118 301 -118 L239 -118 C231 -118 224 -124 224 -133 L224 -180 C224 -188 231 -195 239 -195 L326 -195 C386 -195 403 -168 403 -93 C403 -53 375 -29 342 -23 L352 -5 L366 -5 C468 -5 549 73 549 171 L549 681 C549 692 541 700 530 700 L424 700 C413 700 405 692 405 681 L405 178 C405 151 384 129 360 129 L249 129 C225 129 204 151 204 178 L204 681 C204 692 196 700 185 700 L79 700 C68 700 60 692 60 681 L60 171 C60 73 141 -5 243 -5 L256 -5 L241 -32 C238 -37 236 -45 236 -48 L236 -77 C236 -85 243 -92 251 -92 L301 -92 Z " />
<glyph glyph-name="uogonek" unicode="&#x173;" horiz-adv-x="522" d="M294 -92 C302 -92 309 -85 309 -77 L309 -5 C406 -5 467 75 467 152 L467 496 C467 507 459 515 448 515 L342 515 C331 515 323 507 323 496 L323 158 C323 142 308 128 293 128 L229 128 C214 128 199 142 199 158 L199 496 C199 507 191 515 180 515 L74 515 C63 515 55 507 55 496 L55 152 C55 75 117 -5 213 -5 L213 -23 C180 -29 152 -53 152 -93 C152 -168 169 -195 229 -195 L304 -195 C312 -195 319 -188 319 -180 L319 -133 C319 -124 312 -118 304 -118 L254 -118 C254 -118 242 -118 242 -105 C242 -92 254 -92 254 -92 L294 -92 Z " />
<glyph glyph-name="Ydieresis" unicode="&#x178;" horiz-adv-x="602" d="M568 700 L463 700 C452 700 445 691 440 681 L307 395 L296 395 L162 681 C157 691 150 700 139 700 L34 700 C23 700 15 692 15 681 L229 226 L229 19 C229 8 237 0 248 0 L354 0 C365 0 373 8 373 19 L373 226 L587 681 C587 692 579 700 568 700 L568 700 Z M147 770 C147 759 155 751 166 751 L261 751 C272 751 280 759 280 770 L280 869 C280 880 272 888 261 888 L166 888 C155 888 147 880 147 869 L147 770 Z M325 770 C325 759 333 751 344 751 L439 751 C450 751 458 759 458 770 L458 869 C458 880 450 888 439 888 L344 888 C333 888 325 880 325 869 L325 770 Z " />
<glyph glyph-name="Zacute" unicode="&#x179;" horiz-adv-x="537" d="M224 134 L492 609 C494 612 497 620 497 625 L497 681 C497 692 489 700 478 700 L59 700 C48 700 40 692 40 681 L40 585 C40 574 48 566 59 566 L313 566 L45 91 C43 88 40 80 40 75 L40 19 C40 8 48 0 59 0 L478 0 C489 0 497 8 497 19 L497 115 C497 126 489 134 478 134 L224 134 Z M334 751 C345 751 353 760 357 769 L417 906 C417 916 410 924 399 924 L299 924 C288 924 280 915 276 906 L216 769 C216 759 224 751 234 751 L334 751 Z " />
<glyph glyph-name="zacute" unicode="&#x17a;" horiz-adv-x="455" d="M224 134 L414 424 C418 430 420 435 420 441 L420 496 C420 507 412 515 401 515 L54 515 C43 515 35 507 35 496 L35 400 C35 389 43 381 54 381 L233 381 L41 91 C37 85 35 80 35 74 L35 19 C35 8 43 0 54 0 L401 0 C412 0 420 8 420 19 L420 115 C420 126 412 134 401 134 L224 134 Z M280 571 C291 571 299 580 303 589 L363 726 C363 736 356 744 345 744 L245 744 C234 744 226 735 222 726 L162 589 C162 579 170 571 180 571 L280 571 Z " />
<glyph glyph-name="Zdotaccent" unicode="&#x17b;" horiz-adv-x="537" d="M224 134 L492 609 C494 612 497 620 497 625 L497 681 C497 692 489 700 478 700 L59 700 C48 700 40 692 40 681 L40 585 C40 574 48 566 59 566 L313 566 L45 91 C43 88 40 80 40 75 L40 19 C40 8 48 0 59 0 L478 0 C489 0 497 8 497 19 L497 115 C497 126 489 134 478 134 L224 134 Z M202 770 C202 759 210 751 221 751 L316 751 C327 751 335 759 335 770 L335 869 C335 880 327 888 316 888 L221 888 C210 888 202 880 202 869 L202 770 Z " />
<glyph glyph-name="zdotaccent" unicode="&#x17c;" horiz-adv-x="455" d="M224 134 L414 424 C418 430 420 435 420 441 L420 496 C420 507 412 515 401 515 L54 515 C43 515 35 507 35 496 L35 400 C35 389 43 381 54 381 L233 381 L41 91 C37 85 35 80 35 74 L35 19 C35 8 43 0 54 0 L401 0 C412 0 420 8 420 19 L420 115 C420 126 412 134 401 134 L224 134 Z M162 590 C162 579 170 571 181 571 L276 571 C287 571 295 579 295 590 L295 689 C295 700 287 708 276 708 L181 708 C170 708 162 700 162 689 L162 590 Z " />
<glyph glyph-name="Zcaron" unicode="&#x17d;" horiz-adv-x="537" d="M224 134 L492 609 C494 612 497 620 497 625 L497 681 C497 692 489 700 478 700 L59 700 C48 700 40 692 40 681 L40 585 C40 574 48 566 59 566 L313 566 L45 91 C43 88 40 80 40 75 L40 19 C40 8 48 0 59 0 L478 0 C489 0 497 8 497 19 L497 115 C497 126 489 134 478 134 L224 134 Z M318 751 C330 751 338 755 343 766 L429 940 C429 951 421 959 410 959 L316 959 C305 959 297 950 293 940 L268 889 L243 940 C239 950 231 959 220 959 L126 959 C115 959 107 951 107 940 L193 766 C198 755 206 751 218 751 L318 751 Z " />
<glyph glyph-name="zcaron" unicode="&#x17e;" horiz-adv-x="455" d="M224 134 L414 424 C418 430 420 435 420 441 L420 496 C420 507 412 515 401 515 L54 515 C43 515 35 507 35 496 L35 400 C35 389 43 381 54 381 L233 381 L41 91 C37 85 35 80 35 74 L35 19 C35 8 43 0 54 0 L401 0 C412 0 420 8 420 19 L420 115 C420 126 412 134 401 134 L224 134 Z M277 571 C289 571 297 575 302 586 L388 760 C388 771 380 779 369 779 L275 779 C264 779 256 770 252 760 L227 709 L202 760 C198 770 190 779 179 779 L85 779 C74 779 66 771 66 760 L152 586 C157 575 165 571 177 571 L277 571 Z " />
<glyph glyph-name="florin" unicode="&#x192;" horiz-adv-x="395" d="M-24 -156 C-24 -167 -18 -174 -7 -174 L97 -174 C108 -174 116 -166 119 -155 C160 9 209 184 250 348 L349 348 C360 348 368 356 368 367 L368 463 C368 474 360 482 349 482 L285 482 C289 500 294 519 297 536 C301 552 314 568 328 568 L385 568 C396 568 404 576 404 587 L404 681 C404 692 396 700 385 700 L311 700 C215 700 173 619 155 544 L141 482 L49 482 C38 482 30 474 30 463 L30 367 C30 356 38 348 49 348 L106 348 L-24 -156 Z " />
<glyph glyph-name="uni0218" unicode="&#x218;" horiz-adv-x="566" d="M218 705 C117 705 35 627 35 529 L35 507 C35 214 382 335 382 202 L382 178 C382 151 360 129 335 129 L225 129 C200 129 179 151 179 178 L179 204 C179 215 171 223 160 223 L54 223 C43 223 35 215 35 204 L35 171 C35 73 117 -5 218 -5 L343 -5 C444 -5 526 73 526 171 L526 187 C526 483 179 353 179 496 L179 522 C179 549 201 571 226 571 L326 571 C351 571 372 549 372 522 L372 502 C372 491 380 483 391 483 L497 483 C508 483 516 491 516 502 L516 529 C516 627 434 705 334 705 L218 705 Z M287 -214 C298 -214 306 -205 310 -196 L349 -71 C349 -61 342 -53 331 -53 L231 -53 C220 -53 212 -62 208 -71 L169 -196 C169 -206 177 -214 187 -214 L287 -214 Z " />
<glyph glyph-name="uni0219" unicode="&#x219;" horiz-adv-x="487" d="M271 392 C287 392 302 378 302 362 L302 356 C302 345 310 337 321 337 L427 337 C438 337 446 345 446 356 L446 363 C446 440 385 520 289 520 L197 520 C101 520 45 451 40 373 L40 365 C40 165 309 220 309 162 L309 145 C309 131 294 123 278 123 L215 123 C199 123 184 137 184 153 L184 164 C184 175 176 183 165 183 L59 183 C48 183 40 175 40 164 L40 152 C40 75 101 -5 197 -5 L295 -5 C392 -5 452 63 452 141 L452 155 C452 353 184 296 184 358 L184 370 C184 384 199 392 215 392 L271 392 Z M260 -214 C271 -214 279 -205 283 -196 L322 -71 C322 -61 315 -53 304 -53 L204 -53 C193 -53 185 -62 181 -71 L142 -196 C142 -206 150 -214 160 -214 L260 -214 Z " />
<glyph glyph-name="uni021A" unicode="&#x21a;" horiz-adv-x="536" d="M196 566 L196 19 C196 8 204 0 215 0 L321 0 C332 0 340 8 340 19 L340 566 L487 566 C498 566 506 574 506 585 L506 681 C506 692 498 700 487 700 L49 700 C38 700 30 692 30 681 L30 585 C30 574 38 566 49 566 L196 566 Z M272 -214 C283 -214 291 -205 295 -196 L334 -71 C334 -61 327 -53 316 -53 L216 -53 C205 -53 197 -62 193 -71 L154 -196 C154 -206 162 -214 172 -214 L272 -214 Z " />
<glyph glyph-name="uni021B" unicode="&#x21b;" horiz-adv-x="398" d="M258 382 L354 382 C365 382 373 390 373 401 L373 496 C373 507 365 515 354 515 L258 515 L258 681 C258 692 250 700 239 700 L133 700 C122 700 114 692 114 681 L114 515 L39 515 C28 515 20 507 20 496 L20 401 C20 390 28 382 39 382 L114 382 L114 167 C114 69 175 0 271 0 L354 0 C365 0 373 8 373 19 L373 113 C373 124 365 132 354 132 L294 132 C276 132 258 148 258 167 L258 382 Z M262 -214 C273 -214 281 -205 285 -196 L324 -71 C324 -61 317 -53 306 -53 L206 -53 C195 -53 187 -62 183 -71 L144 -196 C144 -206 152 -214 162 -214 L262 -214 Z " />
<glyph glyph-name="circumflex" unicode="&#x2c6;" horiz-adv-x="452" d="M176 700 C164 700 156 696 151 685 L65 511 C65 500 73 492 84 492 L178 492 C189 492 197 501 201 511 L226 562 L251 511 C255 501 263 492 274 492 L368 492 C379 492 387 500 387 511 L301 685 C296 696 288 700 276 700 L176 700 Z " />
<glyph glyph-name="caron" unicode="&#x2c7;" horiz-adv-x="452" d="M276 492 C288 492 296 496 301 507 L387 681 C387 692 379 700 368 700 L274 700 C263 700 255 691 251 681 L226 630 L201 681 C197 691 189 700 178 700 L84 700 C73 700 65 692 65 681 L151 507 C156 496 164 492 176 492 L276 492 Z " />
<glyph glyph-name="breve" unicode="&#x2d8;" horiz-adv-x="494" d="M247 525 C348 525 416 574 429 683 C429 693 422 700 412 700 L326 700 C316 700 308 693 304 683 C297 649 271 644 247 644 C223 644 197 649 190 683 C186 693 178 700 168 700 L82 700 C72 700 65 693 65 683 C78 574 146 525 247 525 L247 525 Z " />
<glyph glyph-name="dotaccent" unicode="&#x2d9;" horiz-adv-x="278" d="M65 571 C65 560 73 552 84 552 L194 552 C205 552 213 560 213 571 L213 681 C213 692 205 700 194 700 L84 700 C73 700 65 692 65 681 L65 571 Z " />
<glyph glyph-name="ring" unicode="&#x2da;" horiz-adv-x="414" d="M206 751 C129 751 65 688 65 609 C65 532 129 468 206 468 C286 468 349 532 349 609 C349 688 286 751 206 751 L206 751 Z M206 568 C184 568 165 587 165 609 C165 632 184 651 206 651 C229 651 248 632 248 609 C248 587 229 568 206 568 L206 568 Z " />
<glyph glyph-name="ogonek" unicode="&#x2db;" horiz-adv-x="297" d="M145 27 C134 27 126 19 126 8 L126 -23 C93 -29 65 -53 65 -93 C65 -168 82 -195 142 -195 L217 -195 C225 -195 232 -188 232 -180 L232 -133 C232 -124 225 -118 217 -118 L167 -118 C167 -118 155 -118 155 -105 C155 -92 167 -92 167 -92 L207 -92 C215 -92 222 -85 222 -77 L222 8 C222 19 214 27 203 27 L145 27 Z " />
<glyph glyph-name="tilde" unicode="&#x2dc;" horiz-adv-x="452" d="M295 527 C322 527 349 540 375 556 C383 562 387 571 387 580 L363 658 C361 665 353 671 343 671 C340 671 336 671 333 670 C322 665 303 661 295 661 C246 661 205 700 157 700 C130 700 103 687 77 671 C69 665 65 656 65 647 L89 569 C91 562 99 556 109 556 C112 556 116 556 119 557 C130 562 149 566 157 566 C207 566 247 527 295 527 L295 527 Z " />
<glyph glyph-name="hungarumlaut" unicode="&#x2dd;" horiz-adv-x="491" d="M183 530 C194 530 202 539 206 548 L255 682 C255 692 248 700 237 700 L137 700 C126 700 118 691 114 682 L65 548 C65 538 73 530 83 530 L183 530 Z M354 530 C365 530 373 539 377 548 L426 682 C426 692 419 700 408 700 L308 700 C297 700 289 691 285 682 L236 548 C236 538 244 530 254 530 L354 530 Z " />
<glyph glyph-name="uni03A9" unicode="&#x3a9;" horiz-adv-x="733" d="M306 705 C204 705 123 627 123 529 L123 200 C123 187 125 156 136 134 L84 134 C73 134 65 126 65 115 L65 19 C65 8 73 0 84 0 L287 0 C298 0 306 8 306 19 L306 117 C306 126 301 136 292 140 C274 149 267 186 267 202 L267 522 C267 549 288 571 312 571 L421 571 C445 571 466 549 466 522 L466 202 C466 186 459 149 441 140 C432 136 427 126 427 117 L427 19 C427 8 435 0 446 0 L649 0 C660 0 668 8 668 19 L668 115 C668 126 660 134 649 134 L597 134 C608 156 610 187 610 200 L610 529 C610 627 529 705 427 705 L306 705 Z " />
<glyph glyph-name="pi" unicode="&#x3c0;" horiz-adv-x="781" d="M697 381 C708 381 716 389 716 400 L716 496 C716 507 708 515 697 515 L84 515 C73 515 65 507 65 496 L65 400 C65 389 73 381 84 381 L179 381 L179 19 C179 8 187 0 198 0 L304 0 C315 0 323 8 323 19 L323 381 L458 381 L458 19 C458 8 466 0 477 0 L583 0 C594 0 602 8 602 19 L602 381 L697 381 Z " />
<glyph glyph-name="ZWSP" unicode="&#x200b;" d="" />
<glyph glyph-name="endash" unicode="&#x2013;" horiz-adv-x="423" d="M339 181 C350 181 358 189 358 200 L358 296 C358 307 350 315 339 315 L84 315 C73 315 65 307 65 296 L65 200 C65 189 73 181 84 181 L339 181 Z " />
<glyph glyph-name="emdash" unicode="&#x2014;" horiz-adv-x="496" d="M412 181 C423 181 431 189 431 200 L431 296 C431 307 423 315 412 315 L84 315 C73 315 65 307 65 296 L65 200 C65 189 73 181 84 181 L412 181 Z " />
<glyph glyph-name="quoteleft" unicode="&#x2018;" horiz-adv-x="314" d="M183 522 C194 522 202 531 206 540 L249 682 C249 692 242 700 231 700 L131 700 C120 700 112 691 108 682 L65 540 C65 530 73 522 83 522 L183 522 Z " />
<glyph glyph-name="quoteright" unicode="&#x2019;" horiz-adv-x="314" d="M131 700 C120 700 112 691 108 682 L65 540 C65 530 72 522 83 522 L183 522 C194 522 202 531 206 540 L249 682 C249 692 241 700 231 700 L131 700 Z " />
<glyph glyph-name="quotesinglbase" unicode="&#x201a;" horiz-adv-x="314" d="M183 -75 C194 -75 202 -66 206 -57 L249 85 C249 95 242 103 231 103 L131 103 C120 103 112 94 108 85 L65 -57 C65 -67 73 -75 83 -75 L183 -75 Z " />
<glyph glyph-name="quotedblleft" unicode="&#x201c;" horiz-adv-x="502" d="M183 522 C194 522 202 531 206 540 L249 682 C249 692 242 700 231 700 L131 700 C120 700 112 691 108 682 L65 540 C65 530 73 522 83 522 L183 522 Z M371 522 C382 522 390 531 394 540 L437 682 C437 692 430 700 419 700 L319 700 C308 700 300 691 296 682 L253 540 C253 530 261 522 271 522 L371 522 Z " />
<glyph glyph-name="quotedblright" unicode="&#x201d;" horiz-adv-x="502" d="M319 700 C308 700 300 691 296 682 L253 540 C253 530 260 522 271 522 L371 522 C382 522 390 531 394 540 L437 682 C437 692 429 700 419 700 L319 700 Z M131 700 C120 700 112 691 108 682 L65 540 C65 530 72 522 83 522 L183 522 C194 522 202 531 206 540 L249 682 C249 692 241 700 231 700 L131 700 Z " />
<glyph glyph-name="quotedblbase" unicode="&#x201e;" horiz-adv-x="502" d="M319 103 C308 103 300 94 296 85 L253 -57 C253 -67 260 -75 271 -75 L371 -75 C382 -75 390 -66 394 -57 L437 85 C437 95 429 103 419 103 L319 103 Z M131 103 C120 103 112 94 108 85 L65 -57 C65 -67 72 -75 83 -75 L183 -75 C194 -75 202 -66 206 -57 L249 85 C249 95 241 103 231 103 L131 103 Z " />
<glyph glyph-name="dagger" unicode="&#x2020;" horiz-adv-x="488" d="M404 415 C415 415 423 423 423 434 L423 530 C423 541 415 549 404 549 L316 549 L316 681 C316 692 308 700 297 700 L191 700 C180 700 172 692 172 681 L172 549 L84 549 C73 549 65 541 65 530 L65 434 C65 423 73 415 84 415 L172 415 L172 -249 C172 -260 180 -268 191 -268 L297 -268 C308 -268 316 -260 316 -249 L316 415 L404 415 Z " />
<glyph glyph-name="daggerdbl" unicode="&#x2021;" horiz-adv-x="488" d="M404 -117 C415 -117 423 -109 423 -98 L423 -2 C423 9 415 17 404 17 L316 17 L316 415 L404 415 C415 415 423 423 423 434 L423 530 C423 541 415 549 404 549 L316 549 L316 681 C316 692 308 700 297 700 L191 700 C180 700 172 692 172 681 L172 549 L84 549 C73 549 65 541 65 530 L65 434 C65 423 73 415 84 415 L172 415 L172 17 L84 17 C73 17 65 9 65 -2 L65 -98 C65 -109 73 -117 84 -117 L172 -117 L172 -249 C172 -260 180 -268 191 -268 L297 -268 C308 -268 316 -260 316 -249 L316 -117 L404 -117 Z " />
<glyph glyph-name="bullet" unicode="&#x2022;" horiz-adv-x="271" d="M65 177 C65 167 73 159 83 159 L188 159 C198 159 206 167 206 177 L206 282 C206 292 198 300 188 300 L83 300 C73 300 65 292 65 282 L65 177 Z " />
<glyph glyph-name="ellipsis" unicode="&#x2026;" horiz-adv-x="960" d="M65 14 C65 3 73 -5 84 -5 L194 -5 C205 -5 213 3 213 14 L213 124 C213 135 205 143 194 143 L84 143 C73 143 65 135 65 124 L65 14 Z M406 14 C406 3 414 -5 425 -5 L535 -5 C546 -5 554 3 554 14 L554 124 C554 135 546 143 535 143 L425 143 C414 143 406 135 406 124 L406 14 Z M747 14 C747 3 755 -5 766 -5 L876 -5 C887 -5 895 3 895 14 L895 124 C895 135 887 143 876 143 L766 143 C755 143 747 135 747 124 L747 14 Z " />
<glyph glyph-name="perthousand" unicode="&#x2030;" horiz-adv-x="1085" d="M172 19 C172 8 180 0 191 0 L297 0 C308 0 314 9 319 19 L609 681 C609 692 601 700 590 700 L484 700 C473 700 467 691 462 681 L172 19 Z M200 700 C126 700 65 640 65 565 C65 491 126 430 200 430 C276 430 336 491 336 565 C336 640 276 700 200 700 L200 700 Z M200 525 C179 525 160 544 160 565 C160 586 179 605 200 605 C222 605 240 586 240 565 C240 544 222 525 200 525 L200 525 Z M575 270 C499 270 439 210 439 135 C439 61 499 0 575 0 C649 0 710 61 710 135 C710 210 649 270 575 270 L575 270 Z M575 95 C553 95 535 114 535 135 C535 156 553 175 575 175 C596 175 615 156 615 135 C615 114 596 95 575 95 L575 95 Z M885 270 C809 270 749 210 749 135 C749 61 809 0 885 0 C959 0 1020 61 1020 135 C1020 210 959 270 885 270 L885 270 Z M885 95 C863 95 845 114 845 135 C845 156 863 175 885 175 C906 175 925 156 925 135 C925 114 906 95 885 95 L885 95 Z " />
<glyph glyph-name="guilsinglleft" unicode="&#x2039;" horiz-adv-x="420" d="M65 163 C65 153 72 147 83 143 L338 53 C348 53 355 60 355 70 L355 165 C355 175 348 183 338 186 L202 231 L202 243 L338 288 C348 291 355 299 355 309 L355 404 C355 414 348 421 338 421 L83 331 C72 327 65 321 65 311 L65 163 Z " />
<glyph glyph-name="guilsinglright" unicode="&#x203a;" horiz-adv-x="420" d="M355 311 C355 321 348 327 337 331 L82 421 C72 421 65 414 65 404 L65 309 C65 299 72 291 82 288 L218 243 L218 231 L82 186 C72 183 65 175 65 165 L65 70 C65 60 72 53 82 53 L337 143 C348 147 355 153 355 163 L355 311 Z " />
<glyph glyph-name="fraction" unicode="&#x2044;" horiz-adv-x="578" d="M65 -155 C65 -166 73 -174 84 -174 L190 -174 C201 -174 209 -166 212 -155 C307 145 418 485 513 785 C513 796 505 804 494 804 L388 804 C377 804 369 796 366 785 L65 -155 Z " />
<glyph glyph-name="Euro" unicode="&#x20ac;" horiz-adv-x="672" d="M331 208 C342 208 350 216 350 227 L350 302 C350 313 342 321 331 321 L262 321 L262 377 L331 377 C342 377 350 385 350 396 L350 471 C350 482 342 490 331 490 L262 490 L262 522 C262 549 283 571 307 571 L418 571 C442 571 463 549 463 522 L463 490 C463 479 471 471 482 471 L588 471 C599 471 607 479 607 490 L607 529 C607 627 526 705 424 705 L301 705 C199 705 118 627 118 529 L118 490 L84 490 C73 490 65 482 65 471 L65 396 C65 385 73 377 84 377 L118 377 L118 321 L84 321 C73 321 65 313 65 302 L65 227 C65 216 73 208 84 208 L118 208 L118 171 C118 73 199 -5 301 -5 L424 -5 C526 -5 607 73 607 171 L607 210 C607 221 599 229 588 229 L482 229 C471 229 463 221 463 210 L463 178 C463 151 442 129 418 129 L307 129 C283 129 262 151 262 178 L262 208 L331 208 Z " />
<glyph glyph-name="Numero" unicode="&#x2116;" horiz-adv-x="1130" d="M220 700 L84 700 C73 700 65 692 65 681 L65 19 C65 8 73 0 84 0 L190 0 C201 0 209 8 209 19 L209 407 L216 407 L400 16 C405 6 411 0 426 0 L563 0 C574 0 582 8 582 19 L582 681 C582 692 574 700 563 700 L457 700 C446 700 438 692 438 681 L438 287 L431 287 L246 684 C241 694 235 700 220 700 L220 700 Z M810 700 C714 700 653 620 653 542 L653 332 C653 255 714 175 810 175 L908 175 C1004 175 1065 255 1065 332 L1065 542 C1065 620 1004 700 908 700 L810 700 Z M891 567 C906 567 921 553 921 537 L921 338 C921 322 906 308 891 308 L827 308 C812 308 797 322 797 338 L797 537 C797 553 812 567 827 567 L891 567 Z M987 0 C998 0 1006 8 1006 19 L1006 115 C1006 126 998 134 987 134 L732 134 C721 134 713 126 713 115 L713 19 C713 8 721 0 732 0 L987 0 Z " />
<glyph glyph-name="trademark" unicode="&#x2122;" horiz-adv-x="696" d="M125 405 C125 399 130 394 136 394 L201 394 C207 394 212 399 212 405 L212 623 L261 623 C267 623 272 628 272 634 L272 689 C272 695 267 700 261 700 L76 700 C70 700 65 695 65 689 L65 634 C65 628 70 623 76 623 L125 623 L125 405 Z M469 567 L402 689 C399 695 395 700 389 700 L322 700 C316 700 311 695 311 689 L311 405 C311 399 316 394 322 394 L387 394 C393 394 398 399 398 405 L398 539 L451 436 C453 432 455 429 459 429 L484 429 C488 429 489 432 491 436 L544 539 L544 405 C544 399 549 394 555 394 L620 394 C626 394 631 399 631 405 L631 689 C631 695 626 700 620 700 L553 700 C547 700 543 695 540 689 L473 567 L469 567 Z " />
<glyph glyph-name="Omega" unicode="&#x2126;" horiz-adv-x="733" d="M306 705 C204 705 123 627 123 529 L123 200 C123 187 125 156 136 134 L84 134 C73 134 65 126 65 115 L65 19 C65 8 73 0 84 0 L287 0 C298 0 306 8 306 19 L306 117 C306 126 301 136 292 140 C274 149 267 186 267 202 L267 522 C267 549 288 571 312 571 L421 571 C445 571 466 549 466 522 L466 202 C466 186 459 149 441 140 C432 136 427 126 427 117 L427 19 C427 8 435 0 446 0 L649 0 C660 0 668 8 668 19 L668 115 C668 126 660 134 649 134 L597 134 C608 156 610 187 610 200 L610 529 C610 627 529 705 427 705 L306 705 Z " />
<glyph glyph-name="partialdiff" unicode="&#x2202;" horiz-adv-x="556" d="M347 407 L337 407 C315 436 274 443 257 443 L226 443 C132 443 65 374 65 285 L65 153 C65 64 132 -5 226 -5 L257 -5 C274 -5 315 2 337 31 L347 31 L347 19 C347 8 355 0 366 0 L472 0 C483 0 491 8 491 19 L491 547 C491 625 430 705 334 705 L245 705 C148 705 88 625 88 547 L88 527 C88 516 96 508 107 508 L213 508 C224 508 232 516 232 527 L232 542 C232 558 248 572 263 572 L317 572 C332 572 347 558 347 542 L347 407 Z M347 158 C347 142 332 128 317 128 L240 128 C224 128 209 142 209 158 L209 280 C209 296 224 310 240 310 L317 310 C332 310 347 296 347 280 L347 158 Z " />
<glyph glyph-name="Delta" unicode="&#x2206;" horiz-adv-x="834" d="M257 134 C310 269 364 397 417 530 C470 397 524 269 577 134 L257 134 Z M353 700 C342 700 335 692 331 681 L65 19 C65 8 73 0 84 0 L750 0 C761 0 769 8 769 19 L503 681 C499 692 492 700 481 700 L353 700 Z " />
<glyph glyph-name="product" unicode="&#x220f;" horiz-adv-x="781" d="M697 566 C708 566 716 574 716 585 L716 681 C716 692 708 700 697 700 L84 700 C73 700 65 692 65 681 L65 585 C65 574 73 566 84 566 L179 566 L179 19 C179 8 187 0 198 0 L304 0 C315 0 323 8 323 19 L323 566 L458 566 L458 19 C458 8 466 0 477 0 L583 0 C594 0 602 8 602 19 L602 566 L697 566 Z " />
<glyph glyph-name="summation" unicode="&#x2211;" horiz-adv-x="549" d="M190 336 L65 127 L65 19 C65 8 73 0 84 0 L465 0 C476 0 484 8 484 19 L484 115 C484 126 476 134 465 134 L218 134 L333 331 L333 369 L218 566 L465 566 C476 566 484 574 484 585 L484 681 C484 692 476 700 465 700 L84 700 C73 700 65 692 65 681 L65 573 L190 364 L190 336 Z " />
<glyph glyph-name="minus" unicode="&#x2212;" horiz-adv-x="423" d="M339 181 C350 181 358 189 358 200 L358 296 C358 307 350 315 339 315 L84 315 C73 315 65 307 65 296 L65 200 C65 189 73 181 84 181 L339 181 Z " />
<glyph glyph-name="radical" unicode="&#x221a;" horiz-adv-x="718" d="M634 566 C645 566 653 574 653 585 L653 681 C653 692 645 700 634 700 L421 700 C410 700 402 692 399 681 L272 175 L259 175 L214 383 C211 394 203 402 192 402 L84 402 C73 402 65 394 65 383 L171 19 C174 9 181 0 192 0 L339 0 C350 0 357 9 360 19 L515 566 L634 566 Z " />
<glyph glyph-name="infinity" unicode="&#x221e;" horiz-adv-x="900" d="M240 200 C224 200 209 214 209 230 L209 300 C209 317 224 331 240 331 L347 331 C361 331 376 318 378 302 L378 230 C378 214 362 200 347 200 L240 200 Z M553 200 C538 200 522 214 522 230 L522 302 C524 318 539 331 553 331 L660 331 C676 331 691 317 691 300 L691 230 C691 214 676 200 660 200 L553 200 Z M450 111 C472 79 513 66 545 66 L678 66 C775 66 835 147 835 225 L835 305 C835 384 775 465 678 465 L545 465 C513 465 473 450 450 419 C427 450 387 465 355 465 L222 465 C125 465 65 384 65 305 L65 225 C65 147 125 66 222 66 L355 66 C387 66 428 79 450 111 L450 111 Z " />
<glyph glyph-name="integral" unicode="&#x222b;" horiz-adv-x="448" d="M316 698 C316 698 152 652 152 499 L152 16 C151 6 141 -37 77 -56 C69 -58 65 -66 65 -73 C65 -75 66 -78 67 -80 L107 -178 C110 -186 116 -190 123 -190 C125 -190 130 -189 132 -188 C132 -188 296 -142 296 14 L296 491 C296 491 298 545 371 566 C379 568 383 576 383 583 C383 585 382 588 381 590 L341 688 C338 696 332 700 325 700 C323 700 318 699 316 698 L316 698 Z " />
<glyph glyph-name="approxequal" unicode="&#x2248;" horiz-adv-x="452" d="M295 45 C322 45 349 58 375 74 C383 80 387 89 387 98 L363 176 C361 183 353 189 343 189 C340 189 336 189 333 188 C322 183 303 179 295 179 C246 179 205 218 157 218 C130 218 103 205 77 189 C69 183 65 174 65 165 L89 87 C91 80 99 74 109 74 C112 74 116 74 119 75 C130 80 149 84 157 84 C207 84 247 45 295 45 L295 45 Z M295 223 C322 223 349 236 375 252 C383 258 387 267 387 276 L363 354 C361 361 353 367 343 367 C340 367 336 367 333 366 C322 361 303 357 295 357 C246 357 205 396 157 396 C130 396 103 383 77 367 C69 361 65 352 65 343 L89 265 C91 258 99 252 109 252 C112 252 116 252 119 253 C130 258 149 262 157 262 C207 262 247 223 295 223 L295 223 Z " />
<glyph glyph-name="notequal" unicode="&#x2260;" horiz-adv-x="423" d="M339 264 C350 264 358 272 358 283 L358 379 C358 390 350 398 339 398 L317 398 L341 472 C341 483 333 491 322 491 L268 491 C257 491 249 483 246 472 L222 398 L84 398 C73 398 65 390 65 379 L65 283 C65 272 73 264 84 264 L179 264 L164 217 L84 217 C73 217 65 209 65 198 L65 102 C65 91 73 83 84 83 L121 83 L101 19 C101 8 109 0 120 0 L174 0 C185 0 193 8 196 19 L216 83 L339 83 C350 83 358 91 358 102 L358 198 C358 209 350 217 339 217 L259 217 L274 264 L339 264 Z " />
<glyph glyph-name="lessequal" unicode="&#x2264;" horiz-adv-x="424" d="M69 223 C69 213 76 207 87 203 L342 113 C352 113 359 120 359 130 L359 220 C359 230 352 238 342 241 L206 286 L206 298 L342 343 C352 346 359 354 359 364 L359 454 C359 464 352 471 342 471 L87 381 C76 377 69 371 69 361 L69 223 Z M339 0 C350 0 358 8 358 19 L358 73 C358 84 350 92 339 92 L84 92 C73 92 65 84 65 73 L65 19 C65 8 73 0 84 0 L339 0 Z " />
<glyph glyph-name="greaterequal" unicode="&#x2265;" horiz-adv-x="424" d="M355 361 C355 371 348 377 337 381 L82 471 C72 471 65 464 65 454 L65 364 C65 354 72 346 82 343 L218 298 L218 286 L82 241 C72 238 65 230 65 220 L65 130 C65 120 72 113 82 113 L337 203 C348 207 355 213 355 223 L355 361 Z M340 0 C351 0 359 8 359 19 L359 73 C359 84 351 92 340 92 L85 92 C74 92 66 84 66 73 L66 19 C66 8 74 0 85 0 L340 0 Z " />
<glyph glyph-name="lozenge" unicode="&#x25ca;" horiz-adv-x="608" d="M304 166 C270 233 244 282 211 349 L304 534 L397 349 C364 282 338 233 304 166 L304 166 Z M238 700 C227 700 221 690 217 681 L65 350 L217 19 C221 10 227 0 238 0 L370 0 C381 0 387 10 391 19 L543 350 L391 681 C387 690 381 700 370 700 L238 700 Z " />
<glyph glyph-name="uni25CC" unicode="&#x25cc;" horiz-adv-x="199" d="" />
<glyph glyph-name="fi" unicode="&#xfb01;" horiz-adv-x="677" d="M355 603 C366 603 374 611 374 622 L374 716 C374 727 366 735 355 735 L271 735 C175 735 119 655 114 577 L114 515 L39 515 C28 515 20 507 20 496 L20 401 C20 390 28 382 39 382 L114 382 L114 19 C114 8 122 0 133 0 L239 0 C250 0 258 8 258 19 L258 382 L354 382 C365 382 373 390 373 401 L373 496 C373 507 365 515 354 515 L258 515 L258 568 C258 587 276 603 294 603 L355 603 Z M468 19 C468 8 476 0 487 0 L593 0 C604 0 612 8 612 19 L612 496 C612 507 604 515 593 515 L487 515 C476 515 468 507 468 496 L468 19 Z M466 584 C466 573 474 565 485 565 L595 565 C606 565 614 573 614 584 L614 681 C614 692 606 700 595 700 L485 700 C474 700 466 692 466 681 L466 584 Z " />
<glyph glyph-name="fl" unicode="&#xfb02;" horiz-adv-x="677" d="M355 603 C366 603 374 611 374 622 L374 716 C374 727 366 735 355 735 L271 735 C175 735 119 655 114 577 L114 515 L39 515 C28 515 20 507 20 496 L20 401 C20 390 28 382 39 382 L114 382 L114 19 C114 8 122 0 133 0 L239 0 C250 0 258 8 258 19 L258 382 L354 382 C365 382 373 390 373 401 L373 496 C373 507 365 515 354 515 L258 515 L258 568 C258 587 276 603 294 603 L355 603 Z M468 19 C468 8 476 0 487 0 L593 0 C604 0 612 8 612 19 L612 681 C612 692 604 700 593 700 L487 700 C476 700 468 692 468 681 L468 19 Z " />
</font>
</svg>
