<?xml version="1.0" encoding="UTF-8"?>
<svg xmlns="http://www.w3.org/2000/svg" xmlns:xlink="http://www.w3.org/1999/xlink" version="1.2" >
<font id="Tomkin Narrow Italic">
<font-face  font-family="Tomkin Narrow" units-per-em="1000" ascent="750" descent="-250" font-style="italic" font-weight="400" font-stretch="normal" cap-height="700" x-height="515" underline-position="-91" underline-thickness="35" />
<missing-glyph  horiz-adv-x="569" d="" />
<glyph glyph-name="space" unicode="&#x20;" horiz-adv-x="182" d="" />
<glyph glyph-name="exclam" unicode="&#x21;" horiz-adv-x="261" d="M122 189 C122 181 125 176 133 176 L176 176 C184 176 189 181 191 189 L220 301 L274 687 C275 695 271 700 263 700 L194 700 C186 700 180 695 179 687 L125 301 L122 189 Z M81 13 C80 5 85 0 93 0 L168 0 C176 0 181 5 182 13 L194 93 C195 101 190 106 182 106 L107 106 C99 106 94 101 93 93 L81 13 Z " />
<glyph glyph-name="quotedbl" unicode="&#x22;" horiz-adv-x="429" d="M157 487 C156 479 160 474 168 474 L212 474 C220 474 226 479 227 487 L252 598 L264 687 C265 695 261 700 253 700 L191 700 C183 700 177 695 176 687 L164 598 L157 487 Z M338 487 C337 479 341 474 349 474 L393 474 C401 474 407 479 408 487 L433 598 L445 687 C446 695 442 700 434 700 L372 700 C364 700 358 695 357 687 L345 598 L338 487 Z " />
<glyph glyph-name="numbersign" unicode="&#x23;" horiz-adv-x="829" d="M387 13 C386 5 391 0 399 0 L472 0 C480 0 483 5 487 13 L548 147 L636 147 C644 147 650 152 651 160 L659 219 C660 227 656 232 648 232 L587 232 L693 463 L801 463 C809 463 814 468 815 476 L824 535 C825 543 821 548 813 548 L732 548 L795 687 C796 695 792 700 784 700 L711 700 C703 700 699 695 695 687 L632 548 L480 548 L543 687 C544 695 540 700 532 700 L459 700 C451 700 447 695 443 687 L380 548 L290 548 C282 548 276 543 275 535 L266 476 C265 468 270 463 278 463 L341 463 L235 232 L125 232 C117 232 111 227 110 219 L102 160 C101 152 105 147 113 147 L196 147 L135 13 C134 5 139 0 147 0 L220 0 C228 0 231 5 235 13 L296 147 L448 147 L387 13 Z M441 463 L593 463 L487 232 L335 232 L441 463 Z " />
<glyph glyph-name="dollar" unicode="&#x24;" horiz-adv-x="600" d="M246 509 L250 535 C256 581 300 620 342 620 L422 620 C464 620 496 581 490 535 L487 518 C486 510 490 505 498 505 L567 505 C575 505 581 510 582 518 L586 545 C598 633 532 705 441 705 L440 705 L456 819 C457 827 452 832 444 832 L375 832 C367 832 362 827 361 819 L345 705 C253 704 168 633 156 545 L153 522 C112 228 478 381 450 184 L448 165 C441 117 396 80 354 80 L266 80 C224 80 191 119 198 165 L200 182 C201 190 197 195 189 195 L120 195 C112 195 106 190 105 182 L101 155 C89 68 155 -4 245 -5 L228 -124 C227 -132 231 -137 239 -137 L308 -137 C316 -137 322 -132 323 -124 L340 -5 L351 -5 C444 -5 529 67 541 155 L544 172 C585 464 219 314 246 509 L246 509 Z " />
<glyph glyph-name="percent" unicode="&#x25;" horiz-adv-x="786" d="M205 13 C204 5 209 0 217 0 L289 0 C297 0 301 5 305 13 L685 687 C686 695 682 700 674 700 L602 700 C594 700 589 695 585 687 L205 13 Z M299 700 C232 700 170 645 161 579 C151 512 198 457 265 457 C332 457 395 512 405 579 C414 645 366 700 299 700 L299 700 Z M275 528 C246 528 227 553 231 579 C235 608 260 630 289 630 C315 630 337 608 333 579 C329 553 301 528 275 528 L275 528 Z M617 243 C550 243 488 188 479 122 C469 55 516 0 583 0 C650 0 713 55 723 122 C732 188 684 243 617 243 L617 243 Z M592 71 C563 71 545 96 549 122 C553 151 578 173 607 173 C633 173 655 151 651 122 C647 96 618 71 592 71 L592 71 Z " />
<glyph glyph-name="ampersand" unicode="&#x26;" horiz-adv-x="645" d="M458 308 L426 85 L267 85 C225 85 192 122 198 170 L206 223 C212 269 257 308 299 308 L458 308 Z M342 393 C300 393 266 430 273 478 L281 536 C287 582 332 621 374 621 L422 621 C465 621 497 582 491 536 L489 525 C488 517 492 512 500 512 L569 512 C577 512 583 517 584 525 L587 545 C599 633 533 705 442 705 L378 705 C285 705 199 633 187 545 L177 471 C172 437 184 391 222 363 C150 323 118 276 112 229 L102 161 C90 72 157 0 248 0 L498 0 C506 0 511 5 512 13 L554 308 L620 308 C628 308 633 313 635 321 L643 380 C644 388 640 393 632 393 L342 393 Z " />
<glyph glyph-name="quotesingle" unicode="&#x27;" horiz-adv-x="248" d="M157 487 C156 479 160 474 168 474 L212 474 C220 474 226 479 227 487 L252 598 L264 687 C265 695 261 700 253 700 L191 700 C183 700 177 695 176 687 L164 598 L157 487 Z " />
<glyph glyph-name="parenleft" unicode="&#x28;" horiz-adv-x="304" d="M218 311 C240 465 282 638 335 792 C336 800 332 805 324 805 L255 805 C247 805 243 800 240 792 C183 633 145 468 123 311 C101 154 94 -6 105 -165 C106 -173 108 -178 116 -178 L185 -178 C193 -178 199 -173 200 -165 C191 -11 197 157 218 311 L218 311 Z " />
<glyph glyph-name="parenright" unicode="&#x29;" horiz-adv-x="304" d="M172 311 C151 157 109 -11 56 -165 C55 -173 59 -178 67 -178 L136 -178 C144 -178 148 -173 151 -165 C208 -6 245 154 267 311 C289 468 297 633 286 792 C285 800 283 805 275 805 L206 805 C198 805 192 800 191 792 C200 638 194 465 172 311 L172 311 Z " />
<glyph glyph-name="asterisk" unicode="&#x2a;" horiz-adv-x="484" d="M369 594 L382 687 C383 694 379 700 371 700 L310 700 C302 700 296 694 295 687 L282 594 L223 636 C220 638 218 638 215 638 C212 638 207 637 204 633 L164 583 C162 580 161 577 160 575 C160 571 160 568 164 565 L242 507 L164 430 C162 427 159 425 159 422 C158 417 162 414 163 412 L204 372 C206 370 209 369 211 369 C215 369 220 371 222 373 L306 457 L366 373 C368 371 371 369 375 369 C377 369 382 370 384 372 L435 412 C438 414 442 417 443 422 C443 425 442 427 440 430 L384 507 L478 565 C482 568 484 571 484 575 C485 577 484 580 482 583 L456 633 C455 637 450 638 447 638 C444 638 442 638 439 636 L369 594 Z " />
<glyph glyph-name="plus" unicode="&#x2b;" horiz-adv-x="432" d="M180 84 C179 76 183 71 191 71 L260 71 C268 71 274 76 275 84 L291 197 L366 197 C374 197 380 202 381 210 L389 269 C390 277 386 282 378 282 L303 282 L319 396 C320 404 316 409 308 409 L239 409 C231 409 225 404 224 396 L208 282 L132 282 C124 282 118 277 117 269 L109 210 C108 202 112 197 120 197 L196 197 L180 84 Z " />
<glyph glyph-name="comma" unicode="&#x2c;" horiz-adv-x="308" d="M145 -94 C154 -94 160 -88 165 -80 L236 63 C238 72 232 77 224 77 L159 77 C150 77 144 71 139 63 L68 -80 C67 -89 71 -94 80 -94 L145 -94 Z " />
<glyph glyph-name="hyphen" unicode="&#x2d;" horiz-adv-x="386" d="M132 282 C124 282 118 277 117 269 L109 210 C108 202 112 197 120 197 L320 197 C328 197 334 202 335 210 L343 269 C344 277 340 282 332 282 L132 282 Z " />
<glyph glyph-name="period" unicode="&#x2e;" horiz-adv-x="261" d="M81 10 C80 1 85 -5 94 -5 L165 -5 C174 -5 181 1 182 10 L193 87 C194 96 189 102 180 102 L109 102 C100 102 93 96 92 87 L81 10 Z " />
<glyph glyph-name="slash" unicode="&#x2f;" horiz-adv-x="567" d="M56 -166 C55 -174 59 -179 67 -179 L140 -179 C148 -179 152 -174 156 -166 L598 791 C599 799 594 804 586 804 L513 804 C505 804 502 799 498 791 L56 -166 Z " />
<glyph glyph-name="zero" unicode="0" horiz-adv-x="579" d="M337 705 C244 705 158 633 146 545 L91 155 C79 67 144 -5 237 -5 L340 -5 C433 -5 518 67 530 155 L585 545 C597 633 533 705 440 705 L337 705 Z M258 80 C216 80 181 117 188 165 L240 535 C246 581 292 620 334 620 L419 620 C461 620 495 581 489 535 L437 165 C430 117 385 80 343 80 L258 80 Z " />
<glyph glyph-name="one" unicode="1" horiz-adv-x="532" d="M157 637 C152 635 148 631 147 625 L138 560 C137 552 141 547 149 547 L332 615 L257 85 L116 85 C108 85 103 80 102 72 L93 13 C92 5 97 0 105 0 L484 0 C492 0 497 5 498 13 L507 72 C508 80 503 85 495 85 L352 85 L437 687 C438 695 434 700 426 700 L325 700 L157 637 Z " />
<glyph glyph-name="two" unicode="2" horiz-adv-x="551" d="M133 518 C132 510 136 505 144 505 L213 505 C221 505 227 510 228 518 L231 535 C237 581 283 620 325 620 L402 620 C444 620 477 581 471 535 L463 480 C435 284 121 436 79 142 L61 13 C60 5 65 0 73 0 L477 0 C485 0 490 5 491 13 L500 72 C501 80 496 85 488 85 L166 85 L176 153 C204 350 518 198 560 492 L567 545 C579 633 514 705 421 705 L326 705 C235 705 149 633 137 545 L133 518 Z " />
<glyph glyph-name="three" unicode="3" horiz-adv-x="559" d="M361 309 C403 309 437 273 430 224 L422 165 C415 119 371 80 329 80 L253 80 C211 80 176 119 183 165 L185 183 C186 191 182 196 174 196 L105 196 C97 196 91 191 90 183 L86 155 C74 67 140 -5 233 -5 L326 -5 C419 -5 503 67 515 155 L526 231 C531 270 508 324 474 350 C515 376 554 430 559 469 L570 545 C582 633 519 705 426 705 L333 705 C240 705 153 633 141 545 L137 517 C136 509 140 504 148 504 L217 504 C225 504 231 509 232 517 L235 535 C241 581 287 620 329 620 L405 620 C447 620 480 581 474 535 L466 479 C459 430 415 394 373 394 L305 394 C297 394 291 389 290 381 L282 322 C281 314 285 309 293 309 L361 309 Z " />
<glyph glyph-name="four" unicode="4" horiz-adv-x="559" d="M69 211 L63 166 C62 158 66 153 74 153 L376 153 L356 13 C355 5 360 0 368 0 L437 0 C445 0 450 5 451 13 L471 153 L527 153 C535 153 541 158 542 166 L550 225 C551 233 547 238 539 238 L483 238 L510 430 C511 438 507 443 499 443 L430 443 C422 443 416 438 415 430 L388 238 L189 238 L450 687 C451 695 447 700 439 700 L367 700 C359 700 353 695 349 687 L69 211 Z " />
<glyph glyph-name="five" unicode="5" horiz-adv-x="569" d="M91 155 C79 67 144 -5 237 -5 L340 -5 C433 -5 518 67 530 155 L546 264 C558 351 493 423 400 423 L305 423 C290 423 255 423 220 397 L251 615 L533 615 C541 615 547 620 548 628 L556 687 C557 695 553 700 545 700 L181 700 C173 700 167 695 166 687 L114 315 C113 307 117 302 125 302 L198 302 C206 302 210 308 216 315 C232 333 259 340 277 340 L379 340 C421 340 455 301 448 255 L436 165 C429 117 385 80 343 80 L258 80 C216 80 181 117 188 165 L189 177 C191 185 186 190 178 190 L109 190 C101 190 96 185 94 177 L91 155 Z " />
<glyph glyph-name="six" unicode="6" horiz-adv-x="570" d="M257 80 C215 80 181 118 188 164 L201 260 C208 308 252 345 294 345 L381 345 C424 345 458 308 451 260 L438 164 C431 118 387 80 344 80 L257 80 Z M477 526 C476 518 481 513 489 513 L558 513 C566 513 571 518 572 526 L575 545 C587 633 522 705 429 705 L337 705 C244 705 158 633 146 545 L91 155 C79 67 144 -5 237 -5 L342 -5 C433 -5 519 67 531 155 L548 271 C560 358 494 430 403 430 L305 430 C292 430 264 430 221 401 L240 536 C247 584 291 620 333 620 L409 620 C451 620 486 584 479 536 L477 526 Z " />
<glyph glyph-name="seven" unicode="7" horiz-adv-x="488" d="M147 13 C146 5 151 0 159 0 L228 0 C236 0 241 5 242 13 C297 207 379 412 527 600 L539 687 C540 695 536 700 528 700 L156 700 C148 700 142 695 141 687 L133 628 C132 620 136 615 144 615 L441 615 C282 417 201 197 147 13 L147 13 Z " />
<glyph glyph-name="eight" unicode="8" horiz-adv-x="571" d="M422 705 L348 705 C255 705 169 633 157 545 L146 466 C141 432 155 390 193 357 C128 320 103 273 97 230 L86 155 C74 67 139 -5 230 -5 L339 -5 C430 -5 515 67 527 155 L538 230 C544 273 531 320 478 357 C524 390 550 432 555 466 L566 545 C578 633 514 705 422 705 L422 705 Z M253 80 C210 80 176 117 183 165 L190 220 C197 268 241 305 284 305 L370 305 C414 305 448 268 441 220 L434 165 C427 117 383 80 340 80 L253 80 Z M401 620 C443 620 476 582 470 536 L461 475 C455 427 410 390 368 390 L311 390 C269 390 236 427 242 475 L251 536 C257 582 302 620 344 620 L401 620 Z " />
<glyph glyph-name="nine" unicode="9" horiz-adv-x="570" d="M411 620 C453 620 486 582 480 536 L466 440 C460 392 415 355 373 355 L286 355 C243 355 210 392 216 440 L230 536 C236 582 281 620 324 620 L411 620 Z M190 174 C191 182 187 187 179 187 L110 187 C102 187 96 182 95 174 L92 155 C80 67 146 -5 239 -5 L331 -5 C424 -5 509 67 521 155 L576 545 C588 633 524 705 431 705 L326 705 C235 705 148 633 136 545 L120 429 C108 342 173 270 264 270 L362 270 C375 270 403 270 447 299 L428 164 C421 116 377 80 335 80 L259 80 C217 80 182 116 189 164 L190 174 Z " />
<glyph glyph-name="colon" unicode="&#x3a;" horiz-adv-x="261" d="M81 10 C80 1 85 -5 94 -5 L165 -5 C174 -5 181 1 182 10 L193 87 C194 96 189 102 180 102 L109 102 C100 102 93 96 92 87 L81 10 Z M125 327 C124 318 129 312 138 312 L209 312 C218 312 225 318 226 327 L237 404 C239 413 233 419 224 419 L153 419 C144 419 138 413 136 404 L125 327 Z " />
<glyph glyph-name="semicolon" unicode="&#x3b;" horiz-adv-x="309" d="M173 327 C172 318 177 312 186 312 L257 312 C266 312 273 318 274 327 L285 404 C287 413 281 419 272 419 L201 419 C192 419 186 413 184 404 L173 327 Z M145 -94 C154 -94 160 -88 165 -80 L236 63 C238 72 232 77 224 77 L159 77 C150 77 144 71 139 63 L68 -80 C67 -89 71 -94 80 -94 L145 -94 Z " />
<glyph glyph-name="less" unicode="&#x3c;" horiz-adv-x="386" d="M104 175 C103 166 108 160 116 158 L305 85 C311 85 318 89 319 97 L328 159 C329 168 324 172 318 175 L189 225 L190 232 L333 282 C340 285 346 289 347 298 L356 360 C357 368 352 372 346 372 L136 299 C127 297 120 291 119 282 L104 175 Z " />
<glyph glyph-name="equal" unicode="&#x3d;" horiz-adv-x="386" d="M145 376 C137 376 132 371 131 363 L122 304 C121 296 125 291 133 291 L333 291 C341 291 347 296 348 304 L357 363 C358 371 353 376 345 376 L145 376 Z M119 186 C111 186 105 181 104 173 L96 114 C94 106 99 101 107 101 L307 101 C315 101 320 106 322 114 L330 173 C331 181 327 186 319 186 L119 186 Z " />
<glyph glyph-name="greater" unicode="&#x3e;" horiz-adv-x="386" d="M345 282 C346 291 341 297 334 299 L144 372 C138 372 131 368 130 360 L121 298 C120 289 126 285 131 282 L260 232 L259 225 L116 175 C110 172 103 168 102 159 L93 97 C92 89 97 85 103 85 L314 158 C322 160 329 166 330 175 L345 282 Z " />
<glyph glyph-name="question" unicode="&#x3f;" horiz-adv-x="590" d="M245 186 C244 178 248 173 256 173 L325 173 C333 173 339 178 340 186 L341 194 C353 281 400 296 451 313 C507 331 559 352 579 497 L586 545 C598 633 533 705 440 705 L345 705 C254 705 168 633 156 545 L149 492 C148 484 152 479 160 479 L229 479 C237 479 243 484 244 492 L250 535 C256 581 302 620 344 620 L421 620 C463 620 496 581 490 535 L485 501 C473 414 435 398 384 381 C327 362 266 341 246 198 L245 186 Z M217 13 C216 5 221 0 229 0 L304 0 C312 0 317 5 318 13 L330 93 C331 101 326 106 318 106 L243 106 C235 106 230 101 229 93 L217 13 Z " />
<glyph glyph-name="at" unicode="&#x40;" horiz-adv-x="743" d="M738 539 C751 628 686 700 594 700 L348 700 C255 700 168 628 155 539 L85 41 C73 -47 139 -118 231 -118 L448 -118 C456 -118 462 -113 463 -105 L471 -46 C472 -38 468 -33 460 -33 L251 -33 C209 -33 175 4 182 52 L249 530 C255 575 302 615 344 615 L572 615 C615 615 648 575 642 530 L632 458 L624 458 C606 489 563 495 543 495 L500 495 C413 495 345 432 333 347 L314 213 C302 128 353 65 440 65 L483 65 C503 65 547 71 574 102 L582 102 L579 83 C578 75 582 70 590 70 L659 70 C667 70 673 75 674 83 L738 539 Z M598 216 C593 181 555 150 522 150 L468 150 C434 150 405 181 410 216 L428 344 C433 379 470 410 504 410 L558 410 C591 410 621 379 616 344 L598 216 Z " />
<glyph glyph-name="A" unicode="A" horiz-adv-x="588" d="M346 700 C338 700 334 695 331 687 L36 13 C35 5 40 0 48 0 L121 0 C129 0 132 5 136 13 L183 125 L438 125 L454 13 C456 5 459 0 467 0 L540 0 C548 0 553 5 554 13 L449 687 C448 695 446 700 438 700 L346 700 Z M367 557 L377 557 L426 210 L219 210 L367 557 Z " />
<glyph glyph-name="B" unicode="B" horiz-adv-x="560" d="M342 0 C435 0 520 72 532 161 L542 229 C548 277 535 325 482 364 C514 388 540 439 545 471 L554 539 C567 628 502 700 409 700 L191 700 C183 700 177 695 176 687 L81 13 C80 5 85 0 93 0 L342 0 Z M230 393 L261 616 L388 616 C430 616 464 576 458 531 L451 478 C444 430 399 393 357 393 L230 393 Z M377 308 C419 308 452 269 446 223 L438 169 C432 121 387 84 345 84 L186 84 L218 308 L377 308 Z " />
<glyph glyph-name="C" unicode="C" horiz-adv-x="564" d="M437 165 C430 117 385 80 343 80 L258 80 C216 80 181 117 188 165 L240 535 C246 581 292 620 334 620 L419 620 C461 620 495 581 489 535 L484 502 C483 494 487 489 495 489 L564 489 C572 489 578 494 579 502 L585 545 C597 633 533 705 440 705 L337 705 C244 705 158 633 146 545 L91 155 C79 67 144 -5 237 -5 L340 -5 C433 -5 518 67 530 155 L536 193 C537 201 532 206 524 206 L455 206 C447 206 442 201 441 193 L437 165 Z " />
<glyph glyph-name="D" unicode="D" horiz-adv-x="589" d="M428 615 C471 615 504 575 498 530 L447 170 C441 122 396 85 353 85 L186 85 L261 615 L428 615 Z M352 0 C444 0 529 72 541 161 L594 539 C607 628 542 700 450 700 L191 700 C183 700 177 695 176 687 L81 13 C80 5 85 0 93 0 L352 0 Z " />
<glyph glyph-name="E" unicode="E" horiz-adv-x="513" d="M81 13 C80 5 85 0 93 0 L430 0 C438 0 443 5 444 13 L453 72 C454 80 449 85 441 85 L186 85 L216 293 L447 293 C455 293 460 298 462 306 L470 365 C471 373 467 378 459 378 L228 378 L261 615 L516 615 C524 615 530 620 531 628 L539 687 C540 695 536 700 528 700 L191 700 C183 700 177 695 176 687 L81 13 Z " />
<glyph glyph-name="F" unicode="F" horiz-adv-x="483" d="M528 700 L191 700 C183 700 177 695 176 687 L81 13 C80 5 85 0 93 0 L162 0 C170 0 175 5 176 13 L216 293 L447 293 C455 293 460 298 462 306 L470 365 C471 373 467 378 459 378 L228 378 L261 615 L516 615 C524 615 530 620 531 628 L539 687 C540 695 536 700 528 700 L528 700 Z " />
<glyph glyph-name="G" unicode="G" horiz-adv-x="579" d="M456 299 L437 165 C430 117 385 80 343 80 L258 80 C216 80 181 117 188 165 L240 535 C246 581 292 620 334 620 L419 620 C461 620 495 581 489 535 L484 502 C483 494 487 489 495 489 L564 489 C572 489 578 494 579 502 L585 545 C597 633 533 705 440 705 L337 705 C244 705 158 633 146 545 L91 155 C79 67 144 -5 237 -5 L340 -5 C433 -5 518 67 530 155 L561 371 C562 379 557 384 549 384 L364 384 C356 384 351 379 350 371 L341 312 C340 304 345 299 353 299 L456 299 Z " />
<glyph glyph-name="H" unicode="H" horiz-adv-x="592" d="M418 13 C417 5 422 0 430 0 L499 0 C507 0 512 5 513 13 L608 687 C609 695 605 700 597 700 L528 700 C520 700 514 695 513 687 L470 381 L228 381 L271 687 C272 695 268 700 260 700 L191 700 C183 700 177 695 176 687 L81 13 C80 5 85 0 93 0 L162 0 C170 0 175 5 176 13 L216 296 L458 296 L418 13 Z " />
<glyph glyph-name="I" unicode="I" horiz-adv-x="255" d="M81 13 C80 5 85 0 93 0 L162 0 C170 0 175 5 176 13 L271 687 C272 695 268 700 260 700 L191 700 C183 700 177 695 176 687 L81 13 Z " />
<glyph glyph-name="J" unicode="J" horiz-adv-x="426" d="M92 109 C89 111 86 112 83 112 C79 112 77 111 73 109 L23 68 C20 65 18 62 18 58 C17 55 18 53 21 50 C44 27 78 -5 159 -5 C294 -5 376 78 389 165 L462 687 C463 695 459 700 451 700 L382 700 C374 700 368 695 367 687 L294 168 C293 157 279 80 165 80 C129 80 120 91 92 109 L92 109 Z " />
<glyph glyph-name="K" unicode="K" horiz-adv-x="552" d="M414 13 C416 6 420 0 428 0 L498 0 C506 0 511 5 512 13 L425 348 L607 687 C608 695 604 700 596 700 L525 700 C517 700 512 694 508 687 L351 392 L230 392 L271 687 C272 695 268 700 260 700 L191 700 C183 700 177 695 176 687 L81 13 C80 5 85 0 93 0 L162 0 C170 0 175 5 176 13 L218 307 L338 307 L414 13 Z " />
<glyph glyph-name="L" unicode="L" horiz-adv-x="483" d="M430 0 C438 0 443 5 444 13 L453 72 C454 80 449 85 441 85 L186 85 L271 687 C272 695 268 700 260 700 L191 700 C183 700 177 695 176 687 L81 13 C80 5 85 0 93 0 L430 0 Z " />
<glyph glyph-name="M" unicode="M" horiz-adv-x="758" d="M421 103 C428 103 434 107 436 113 L636 474 L649 474 L584 13 C583 5 588 0 596 0 L665 0 C673 0 678 5 679 13 L774 687 C775 695 771 700 763 700 L669 700 C661 700 654 694 650 687 L421 272 L413 272 L300 687 C298 694 293 700 285 700 L191 700 C183 700 177 695 176 687 L81 13 C80 5 85 0 93 0 L162 0 C170 0 175 5 176 13 L241 474 L254 474 L352 113 C354 107 358 103 365 103 L421 103 Z " />
<glyph glyph-name="N" unicode="N" horiz-adv-x="629" d="M412 13 C415 6 421 0 429 0 L536 0 C544 0 549 5 550 13 L645 687 C646 695 642 700 634 700 L565 700 C557 700 551 695 550 687 L478 176 L468 176 L314 687 C311 694 306 700 298 700 L191 700 C183 700 177 695 176 687 L81 13 C80 5 85 0 93 0 L162 0 C170 0 175 5 176 13 L248 526 L259 526 L412 13 Z " />
<glyph glyph-name="O" unicode="O" horiz-adv-x="579" d="M337 705 C244 705 158 633 146 545 L91 155 C79 67 144 -5 237 -5 L340 -5 C433 -5 518 67 530 155 L585 545 C597 633 533 705 440 705 L337 705 Z M258 80 C216 80 181 117 188 165 L240 535 C246 581 292 620 334 620 L419 620 C461 620 495 581 489 535 L437 165 C430 117 385 80 343 80 L258 80 Z " />
<glyph glyph-name="P" unicode="P" horiz-adv-x="570" d="M217 302 L261 615 L420 615 C462 615 495 575 489 530 L469 386 C462 339 418 302 376 302 L217 302 Z M191 700 C183 700 177 695 176 687 L81 13 C80 5 85 0 93 0 L162 0 C170 0 175 5 176 13 L205 217 L372 217 C465 217 550 289 563 378 L585 539 C598 628 533 700 440 700 L191 700 Z " />
<glyph glyph-name="Q" unicode="Q" horiz-adv-x="579" d="M337 705 C244 705 158 633 146 545 L91 155 C79 67 145 -5 238 -5 L268 -104 C270 -111 275 -118 283 -118 L344 -118 C352 -118 359 -112 360 -104 L330 -5 L340 -5 C433 -5 518 67 530 155 L585 545 C597 633 533 705 440 705 L337 705 Z M258 80 C216 80 181 117 188 165 L240 535 C246 581 292 620 334 620 L419 620 C461 620 495 581 489 535 L437 165 C430 117 385 80 343 80 L258 80 Z " />
<glyph glyph-name="R" unicode="R" horiz-adv-x="561" d="M564 378 L586 539 C599 628 534 700 441 700 L191 700 C183 700 177 695 176 687 L81 13 C80 5 85 0 93 0 L162 0 C170 0 175 5 176 13 L205 217 L340 217 L405 13 C407 6 411 0 419 0 L495 0 C503 0 508 5 509 13 L438 229 C503 253 554 311 564 378 L564 378 Z M470 386 C463 339 419 302 377 302 L217 302 L261 615 L421 615 C463 615 496 575 490 530 L470 386 Z " />
<glyph glyph-name="S" unicode="S" horiz-adv-x="545" d="M236 80 C194 80 161 119 168 165 L170 182 C171 190 167 195 159 195 L90 195 C82 195 76 190 75 182 L71 155 C59 67 126 -5 217 -5 L321 -5 C414 -5 499 67 511 155 L514 172 C555 464 189 314 216 509 L220 535 C226 581 270 620 312 620 L392 620 C434 620 466 581 460 535 L457 518 C456 510 460 505 468 505 L537 505 C545 505 551 510 552 518 L556 545 C568 633 502 705 411 705 L316 705 C225 705 138 633 126 545 L123 522 C82 228 448 381 420 184 L418 165 C411 117 366 80 324 80 L236 80 Z " />
<glyph glyph-name="T" unicode="T" horiz-adv-x="519" d="M156 700 C148 700 142 695 141 687 L133 628 C132 620 136 615 144 615 L298 615 L213 13 C212 5 217 0 225 0 L294 0 C302 0 307 5 308 13 L393 615 L547 615 C555 615 561 620 562 628 L570 687 C571 695 567 700 559 700 L156 700 Z " />
<glyph glyph-name="U" unicode="U" horiz-adv-x="589" d="M442 165 C435 117 390 80 348 80 L263 80 C221 80 186 117 193 165 L266 687 C267 695 263 700 255 700 L186 700 C178 700 172 695 171 687 L96 155 C84 67 149 -5 242 -5 L345 -5 C438 -5 523 67 535 155 L610 687 C611 695 607 700 599 700 L530 700 C522 700 516 695 515 687 L442 165 Z " />
<glyph glyph-name="V" unicode="V" horiz-adv-x="588" d="M340 0 C348 0 351 5 354 13 L649 687 C650 695 646 700 638 700 L565 700 C557 700 553 695 549 687 L319 143 L309 143 L231 687 C229 695 227 700 219 700 L146 700 C138 700 132 695 131 687 L236 13 C237 5 240 0 248 0 L340 0 Z " />
<glyph glyph-name="W" unicode="W" horiz-adv-x="796" d="M462 700 C454 700 449 695 446 687 L256 166 L230 687 C229 695 226 700 218 700 L146 700 C138 700 132 695 131 687 L167 14 C168 5 172 0 181 0 L280 0 C288 0 293 5 296 14 L468 499 L502 14 C503 5 508 0 516 0 L615 0 C624 0 628 5 631 14 L857 687 C858 695 854 700 846 700 L774 700 C766 700 761 695 758 687 L586 166 L542 687 C541 695 538 700 530 700 L462 700 Z " />
<glyph glyph-name="X" unicode="X" horiz-adv-x="550" d="M411 13 C414 4 418 0 426 0 L497 0 C505 0 510 5 511 13 L424 350 L606 687 C607 695 603 700 595 700 L526 700 C518 700 513 696 508 687 L344 394 L316 394 L234 687 C231 696 228 700 220 700 L151 700 C143 700 137 695 136 687 L224 350 L41 13 C40 5 45 0 53 0 L124 0 C132 0 136 4 141 13 L303 302 L331 302 L411 13 Z " />
<glyph glyph-name="Y" unicode="Y" horiz-adv-x="561" d="M358 220 L627 687 C628 695 624 700 616 700 L544 700 C536 700 532 697 527 689 L334 350 L325 350 L226 689 C223 697 221 700 213 700 L141 700 C133 700 127 695 126 687 L263 220 L234 13 C233 5 238 0 246 0 L315 0 C323 0 328 5 329 13 L358 220 Z " />
<glyph glyph-name="Z" unicode="Z" horiz-adv-x="512" d="M426 615 L69 73 C66 69 63 64 63 59 L56 13 C55 5 60 0 68 0 L444 0 C452 0 457 5 458 13 L467 72 C468 80 463 85 455 85 L183 85 L541 627 C543 631 546 636 547 641 L553 687 C554 695 550 700 542 700 L166 700 C158 700 152 695 151 687 L143 628 C142 620 146 615 154 615 L426 615 Z " />
<glyph glyph-name="bracketleft" unicode="&#x5b;" horiz-adv-x="381" d="M206 805 C198 805 192 800 191 792 L56 -164 C55 -172 60 -177 68 -177 L263 -177 C271 -177 276 -172 277 -164 L286 -105 C287 -97 283 -92 275 -92 L162 -92 L276 720 L389 720 C397 720 402 725 404 733 L412 792 C413 800 409 805 401 805 L206 805 Z " />
<glyph glyph-name="backslash" unicode="&#x5c;" horiz-adv-x="567" d="M291 791 C289 799 286 804 278 804 L205 804 C197 804 192 799 191 791 L363 -166 C365 -174 367 -179 375 -179 L448 -179 C456 -179 462 -174 463 -166 L291 791 Z " />
<glyph glyph-name="bracketright" unicode="&#x5d;" horiz-adv-x="381" d="M206 805 C198 805 192 800 191 792 L183 733 C181 725 186 720 194 720 L307 720 L193 -92 L80 -92 C72 -92 66 -97 65 -105 L56 -164 C55 -172 60 -177 68 -177 L263 -177 C271 -177 276 -172 277 -164 L412 792 C413 800 409 805 401 805 L206 805 Z " />
<glyph glyph-name="asciicircum" unicode="&#x5e;" horiz-adv-x="416" d="M269 700 C261 700 254 695 249 686 L155 538 C154 531 158 526 166 526 L229 526 C235 526 241 532 245 538 L294 615 L321 538 C323 532 327 526 333 526 L396 526 C404 526 410 531 411 538 L359 686 C356 695 351 700 343 700 L269 700 Z " />
<glyph glyph-name="underscore" unicode="&#x5f;" horiz-adv-x="388" d="M274 -144 C282 -144 288 -139 289 -131 L297 -72 C299 -64 294 -59 286 -59 L84 -59 C76 -59 71 -64 69 -72 L61 -131 C60 -139 64 -144 72 -144 L274 -144 Z " />
<glyph glyph-name="grave" unicode="&#x60;" horiz-adv-x="307" d="M290 550 C299 550 305 555 306 564 L269 686 C266 694 262 700 253 700 L192 700 C184 700 177 695 176 686 L213 564 C216 556 220 550 229 550 L290 550 Z " />
<glyph glyph-name="a" unicode="a" horiz-adv-x="490" d="M226 80 C191 80 170 111 175 146 L177 161 C182 196 211 225 246 225 L361 225 L350 146 C345 111 314 80 280 80 L226 80 Z M176 500 C169 497 166 494 165 488 C165 486 164 482 171 429 C172 420 175 420 182 420 C236 429 261 435 294 435 C391 435 381 368 377 335 L373 310 L249 310 C163 310 96 260 85 178 L77 124 C65 42 119 -5 205 -5 L235 -5 C275 -5 303 7 326 32 L334 32 L331 13 C330 5 335 0 343 0 L412 0 C420 0 425 5 426 13 L472 336 C478 382 497 520 316 520 C239 520 203 510 176 500 L176 500 Z " />
<glyph glyph-name="b" unicode="b" horiz-adv-x="518" d="M226 369 C231 404 270 435 303 435 L357 435 C391 435 419 404 414 369 L383 146 C378 111 341 80 307 80 L253 80 C220 80 190 111 195 146 L226 369 Z M271 687 C272 695 268 700 260 700 L191 700 C183 700 177 695 176 687 L81 13 C80 5 85 0 93 0 L162 0 C170 0 175 5 176 13 L179 32 L187 32 C205 1 248 -5 268 -5 L311 -5 C398 -5 466 58 478 143 L510 372 C522 457 472 520 385 520 L342 520 C322 520 277 514 250 483 L242 483 L271 687 Z " />
<glyph glyph-name="c" unicode="c" horiz-adv-x="474" d="M451 157 C452 165 447 170 439 170 L370 170 C362 170 357 165 356 157 L354 146 C349 111 312 80 279 80 L238 80 C205 80 175 111 180 146 L211 369 C216 404 255 435 288 435 L329 435 C362 435 390 404 385 369 L384 358 C383 350 387 345 395 345 L464 345 C472 345 478 350 479 358 L481 374 C491 446 446 520 357 520 L282 520 C195 520 127 446 117 374 L84 141 C74 69 121 -5 208 -5 L283 -5 C372 -5 438 69 448 141 L451 157 Z " />
<glyph glyph-name="d" unicode="d" horiz-adv-x="518" d="M410 483 L402 483 C385 514 342 520 322 520 L279 520 C192 520 124 457 112 372 L80 143 C68 58 118 -5 205 -5 L248 -5 C268 -5 313 1 339 32 L347 32 L344 13 C343 5 348 0 356 0 L425 0 C433 0 438 5 439 13 L534 687 C535 695 531 700 523 700 L454 700 C446 700 440 695 439 687 L410 483 Z M363 146 C358 111 320 80 287 80 L233 80 C199 80 170 111 175 146 L206 369 C211 404 249 435 283 435 L337 435 C370 435 399 404 394 369 L363 146 Z " />
<glyph glyph-name="e" unicode="e" horiz-adv-x="489" d="M360 105 C344 93 320 80 287 80 L238 80 C205 80 175 111 180 146 L190 216 L446 216 C454 216 460 221 461 229 L481 374 C491 446 446 520 357 520 L282 520 C195 520 127 446 117 374 L84 141 C74 69 121 -5 208 -5 L275 -5 C275 -5 361 -5 418 56 C421 59 422 61 422 64 C423 67 420 71 419 73 L380 108 C377 110 375 111 372 111 C368 111 364 107 360 105 L360 105 Z M211 369 C216 404 255 435 288 435 L329 435 C362 435 390 404 385 369 L376 301 L202 301 L211 369 Z " />
<glyph glyph-name="f" unicode="f" horiz-adv-x="382" d="M280 430 L384 430 C392 430 398 435 399 443 L407 502 C408 510 404 515 396 515 L292 515 L303 593 C308 628 347 659 380 659 L416 659 C424 659 430 664 431 672 L439 731 C440 739 436 744 428 744 L373 744 C286 744 224 670 208 597 L197 515 L120 515 C112 515 106 510 105 502 L97 443 C96 435 100 430 108 430 L185 430 L126 13 C125 5 130 0 138 0 L207 0 C215 0 220 5 221 13 L280 430 Z " />
<glyph glyph-name="g" unicode="g" horiz-adv-x="518" d="M363 146 C358 111 320 80 287 80 L233 80 C199 80 170 111 175 146 L206 369 C211 404 249 435 283 435 L337 435 C370 435 399 404 394 369 L363 146 Z M338 -30 C333 -67 314 -118 229 -118 C172 -118 143 -113 115 -108 C109 -108 104 -108 101 -116 L81 -174 C80 -180 83 -183 88 -185 C115 -194 143 -203 213 -203 C396 -203 427 -76 433 -32 L508 502 C509 510 505 515 497 515 L428 515 C420 515 414 510 413 502 L410 483 L402 483 C385 514 342 520 322 520 L279 520 C192 520 124 457 112 372 L80 143 C68 58 118 -5 205 -5 L248 -5 C268 -5 313 1 339 32 L347 32 L338 -30 Z " />
<glyph glyph-name="h" unicode="h" horiz-adv-x="524" d="M360 13 C359 5 364 0 372 0 L441 0 C449 0 454 5 455 13 L506 371 C517 454 478 520 392 520 L361 520 C341 520 286 519 247 459 L239 459 L271 687 C272 695 268 700 260 700 L191 700 C183 700 177 695 176 687 L81 13 C80 5 85 0 93 0 L162 0 C170 0 175 5 176 13 L225 359 C272 434 326 435 354 435 L362 435 C399 435 415 405 408 353 L360 13 Z " />
<glyph glyph-name="i" unicode="i" horiz-adv-x="255" d="M81 13 C80 5 85 0 93 0 L162 0 C170 0 175 5 176 13 L245 502 C246 510 242 515 234 515 L165 515 C157 515 151 510 150 502 L81 13 Z M160 591 C158 583 163 578 171 578 L246 578 C254 578 259 583 261 591 L272 671 C273 679 269 684 261 684 L186 684 C178 684 172 679 171 671 L160 591 Z " />
<glyph glyph-name="j" unicode="j" horiz-adv-x="255" d="M7 -182 C47 -167 158 -116 175 7 L245 502 C246 510 242 515 234 515 L165 515 C157 515 151 510 150 502 L81 12 C81 12 70 -58 -18 -94 C-23 -96 -26 -101 -26 -106 C-27 -107 -26 -110 -25 -112 L-8 -176 C-7 -181 -2 -183 1 -183 C2 -183 5 -183 7 -182 L7 -182 Z M160 591 C158 583 163 578 171 578 L246 578 C254 578 259 583 261 591 L272 671 C273 679 269 684 261 684 L186 684 C178 684 172 679 171 671 L160 591 Z " />
<glyph glyph-name="k" unicode="k" horiz-adv-x="492" d="M305 229 L359 13 C362 6 368 0 376 0 L449 0 C457 0 462 5 463 13 L398 272 L532 502 C533 510 529 515 521 515 L449 515 C441 515 434 509 429 502 L318 314 L219 314 L271 687 C272 695 268 700 260 700 L191 700 C183 700 177 695 176 687 L81 13 C80 5 85 0 93 0 L162 0 C170 0 175 5 176 13 L207 229 L305 229 Z " />
<glyph glyph-name="l" unicode="l" horiz-adv-x="255" d="M81 13 C80 5 85 0 93 0 L162 0 C170 0 175 5 176 13 L271 687 C272 695 268 700 260 700 L191 700 C183 700 177 695 176 687 L81 13 Z " />
<glyph glyph-name="m" unicode="m" horiz-adv-x="728" d="M465 355 C494 410 523 435 563 435 C612 435 620 406 613 356 L564 13 C563 5 568 0 576 0 L645 0 C653 0 658 5 659 13 L710 371 C722 457 674 520 597 520 C576 520 524 520 472 459 L462 459 C442 496 411 520 362 520 C342 520 299 520 247 459 L239 459 L245 502 C246 510 242 515 234 515 L165 515 C157 515 151 510 150 502 L81 13 C80 5 85 0 93 0 L162 0 C170 0 175 5 176 13 L224 355 C253 410 282 435 322 435 C371 435 379 406 372 356 L323 13 C322 5 327 0 335 0 L403 0 C411 0 416 5 417 13 L465 355 Z " />
<glyph glyph-name="n" unicode="n" horiz-adv-x="524" d="M360 13 C359 5 364 0 372 0 L441 0 C449 0 454 5 455 13 L506 371 C517 454 478 520 392 520 L361 520 C341 520 286 519 247 459 L239 459 L245 502 C246 510 242 515 234 515 L165 515 C157 515 151 510 150 502 L81 13 C80 5 85 0 93 0 L162 0 C170 0 175 5 176 13 L225 359 C272 434 326 435 354 435 L362 435 C399 435 415 405 408 353 L360 13 Z " />
<glyph glyph-name="o" unicode="o" horiz-adv-x="494" d="M282 520 C195 520 127 446 117 374 L84 141 C74 69 121 -5 208 -5 L283 -5 C371 -5 438 69 448 141 L481 374 C491 446 445 520 358 520 L282 520 Z M238 80 C205 80 175 111 180 146 L211 369 C216 404 255 435 288 435 L328 435 C361 435 390 404 385 369 L354 146 C349 111 311 80 278 80 L238 80 Z " />
<glyph glyph-name="p" unicode="p" horiz-adv-x="518" d="M226 369 C231 404 270 435 303 435 L357 435 C391 435 419 404 414 369 L383 146 C378 111 341 80 307 80 L253 80 C220 80 190 111 195 146 L226 369 Z M245 502 C246 510 242 515 234 515 L165 515 C157 515 151 510 150 502 L57 -161 C56 -169 60 -174 68 -174 L137 -174 C145 -174 151 -169 152 -161 L179 32 L187 32 C205 1 248 -5 268 -5 L311 -5 C398 -5 466 58 478 143 L510 372 C522 457 472 520 385 520 L342 520 C322 520 277 514 250 483 L242 483 L245 502 Z " />
<glyph glyph-name="q" unicode="q" horiz-adv-x="518" d="M363 146 C358 111 320 80 287 80 L233 80 C199 80 170 111 175 146 L206 369 C211 404 249 435 283 435 L337 435 C370 435 399 404 394 369 L363 146 Z M410 483 L402 483 C385 514 342 520 322 520 L279 520 C192 520 124 457 112 372 L80 143 C68 58 118 -5 205 -5 L248 -5 C268 -5 313 1 339 32 L347 32 L320 -161 C319 -169 323 -174 331 -174 L400 -174 C408 -174 414 -169 415 -161 L508 502 C509 510 505 515 497 515 L428 515 C420 515 414 510 413 502 L410 483 Z " />
<glyph glyph-name="r" unicode="r" horiz-adv-x="382" d="M394 431 C402 431 408 436 409 444 L422 503 C423 509 421 513 415 515 C401 520 379 520 368 520 C348 520 287 519 247 459 L239 459 L245 502 C246 510 242 515 234 515 L165 515 C157 515 151 510 150 502 L81 13 C80 5 85 0 93 0 L162 0 C170 0 175 5 176 13 L225 359 C272 434 321 435 349 435 C365 435 380 433 394 431 L394 431 Z " />
<glyph glyph-name="s" unicode="s" horiz-adv-x="472" d="M315 435 C349 435 377 404 372 369 L371 357 C370 349 374 344 382 344 L451 344 C459 344 465 349 466 357 L468 374 C478 446 431 520 344 520 L273 520 C185 520 120 458 110 386 L109 379 C81 182 362 256 348 150 L346 136 C340 98 305 80 271 80 L228 80 C194 80 165 111 170 146 L172 158 C173 166 169 171 161 171 L92 171 C84 171 78 166 77 158 L74 141 C64 69 112 -5 199 -5 L277 -5 C366 -5 430 57 440 129 L442 143 C469 341 188 267 202 369 L204 379 C209 417 245 435 279 435 L315 435 Z " />
<glyph glyph-name="t" unicode="t" horiz-adv-x="377" d="M324 0 C332 0 337 5 338 13 L347 72 C348 80 343 85 335 85 L299 85 C266 85 236 117 241 151 L280 430 L384 430 C392 430 398 435 399 443 L407 502 C408 510 404 515 396 515 L292 515 L316 687 C317 695 313 700 305 700 L236 700 C228 700 222 695 221 687 L197 515 L120 515 C112 515 106 510 105 502 L97 443 C96 435 100 430 108 430 L185 430 L145 148 C140 74 182 0 269 0 L324 0 Z " />
<glyph glyph-name="u" unicode="u" horiz-adv-x="504" d="M359 146 C354 111 316 80 283 80 L243 80 C210 80 180 111 185 146 L235 502 C236 510 232 515 224 515 L155 515 C147 515 141 510 140 502 L89 141 C79 69 126 -5 213 -5 L288 -5 C376 -5 443 69 453 141 L504 502 C505 510 501 515 493 515 L424 515 C416 515 410 510 409 502 L359 146 Z " />
<glyph glyph-name="v" unicode="v" horiz-adv-x="466" d="M295 0 C303 0 308 5 311 13 L511 502 C512 510 508 515 500 515 L427 515 C419 515 415 510 411 502 L251 97 L241 97 L195 502 C193 510 191 515 183 515 L110 515 C102 515 96 510 95 502 L157 13 C158 5 163 0 171 0 L295 0 Z " />
<glyph glyph-name="w" unicode="w" horiz-adv-x="664" d="M371 515 C363 515 357 510 354 502 L219 167 L194 502 C193 510 190 515 182 515 L110 515 C102 515 96 510 95 502 L139 12 C140 4 143 0 151 0 L231 0 C239 0 242 4 245 12 L380 343 L421 12 C422 4 425 0 433 0 L513 0 C521 0 524 4 527 12 L709 502 C710 510 706 515 698 515 L626 515 C618 515 613 510 610 502 L491 167 L450 502 C449 510 445 515 437 515 L371 515 Z " />
<glyph glyph-name="x" unicode="x" horiz-adv-x="449" d="M323 13 C326 4 330 0 338 0 L406 0 C414 0 419 5 420 13 L361 258 L489 502 C490 510 486 515 478 515 L410 515 C402 515 397 511 392 502 L286 301 L247 301 L197 502 C194 511 191 515 183 515 L115 515 C107 515 101 510 100 502 L160 258 L31 13 C30 5 35 0 43 0 L111 0 C119 0 123 4 128 13 L235 216 L274 216 L323 13 Z " />
<glyph glyph-name="y" unicode="y" horiz-adv-x="466" d="M166 -52 C157 -86 129 -118 76 -118 L42 -118 C34 -118 28 -123 27 -131 L19 -190 C18 -198 22 -203 30 -203 L92 -203 C135 -203 231 -181 301 -11 L511 502 C512 510 508 515 500 515 L427 515 C419 515 415 510 411 502 L251 97 L241 97 L195 502 C193 510 191 515 183 515 L110 515 C102 515 96 510 95 502 L166 -52 Z " />
<glyph glyph-name="z" unicode="z" horiz-adv-x="437" d="M445 442 C447 446 450 449 450 454 L457 502 C458 510 454 515 446 515 L135 515 C127 515 121 510 120 502 L112 443 C111 435 115 430 123 430 L334 430 L64 73 C60 69 59 66 58 61 L51 13 C50 5 55 0 63 0 L374 0 C382 0 387 5 388 13 L397 72 C398 80 393 85 385 85 L174 85 L445 442 Z " />
<glyph glyph-name="braceleft" unicode="&#x7b;" horiz-adv-x="463" d="M283 644 L254 441 C248 393 203 355 161 355 L142 355 C134 355 129 350 128 342 L119 283 C118 275 122 270 130 270 L149 270 C191 270 225 232 218 184 L190 -18 C178 -106 240 -178 332 -178 L344 -178 C352 -178 358 -173 359 -165 L368 -106 C369 -98 364 -93 356 -93 L352 -93 C310 -93 280 -55 286 -9 L314 191 C320 234 305 275 273 312 C316 349 342 391 348 433 L377 636 C383 682 425 720 467 720 L471 720 C479 720 484 725 486 733 L494 792 C495 800 491 805 483 805 L471 805 C379 805 296 733 283 644 L283 644 Z " />
<glyph glyph-name="bar" unicode="&#x7c;" horiz-adv-x="255" d="M56 -165 C55 -173 59 -178 67 -178 L136 -178 C144 -178 150 -173 151 -165 L286 792 C287 800 283 805 275 805 L206 805 C198 805 192 800 191 792 L56 -165 Z " />
<glyph glyph-name="braceright" unicode="&#x7d;" horiz-adv-x="463" d="M360 644 C373 733 310 805 218 805 L206 805 C198 805 192 800 191 792 L183 733 C181 725 186 720 194 720 L198 720 C240 720 270 682 264 636 L235 433 C229 391 245 349 276 312 C234 275 207 234 201 191 L173 -9 C167 -55 125 -93 83 -93 L79 -93 C71 -93 66 -98 65 -106 L56 -165 C55 -173 59 -178 67 -178 L79 -178 C171 -178 255 -106 267 -18 L295 184 C302 232 346 270 388 270 L407 270 C415 270 421 275 422 283 L431 342 C432 350 427 355 419 355 L400 355 C358 355 325 393 331 441 L360 644 Z " />
<glyph glyph-name="asciitilde" unicode="&#x7e;" horiz-adv-x="418" d="M291 168 C310 168 334 176 356 188 C361 191 365 196 366 202 L358 254 C357 260 352 262 347 262 C345 262 343 262 340 261 C327 257 310 253 303 253 C248 253 243 295 191 295 C172 295 148 287 126 275 C121 272 117 267 116 261 L124 209 C125 203 130 201 135 201 C137 201 139 201 142 202 C155 206 172 210 179 210 C234 210 238 168 291 168 L291 168 Z " />
<glyph glyph-name="uni00A0" unicode="&#xa0;" horiz-adv-x="198" d="" />
<glyph glyph-name="exclamdown" unicode="&#xa1;" horiz-adv-x="261" d="M139 399 L84 13 C83 5 88 0 96 0 L165 0 C173 0 178 5 179 13 L234 399 L236 511 C236 519 233 524 225 524 L182 524 C174 524 169 519 167 511 L139 399 Z M165 607 C164 599 168 594 176 594 L251 594 C259 594 265 599 266 607 L277 687 C278 695 274 700 266 700 L191 700 C183 700 177 695 176 687 L165 607 Z " />
<glyph glyph-name="cent" unicode="&#xa2;" horiz-adv-x="599" d="M239 -124 C238 -132 242 -137 250 -137 L319 -137 C327 -137 333 -132 334 -124 L351 -5 C443 -4 528 67 540 155 L546 193 C547 201 542 206 534 206 L465 206 C457 206 452 201 451 193 L447 165 C440 117 395 80 353 80 L268 80 C226 80 191 117 198 165 L250 535 C256 581 302 620 344 620 L429 620 C471 620 505 581 499 535 L494 502 C493 494 497 489 505 489 L574 489 C582 489 588 494 589 502 L595 545 C607 632 542 704 451 705 L467 819 C468 827 463 832 455 832 L386 832 C378 832 373 827 372 819 L356 705 L347 705 C254 705 168 633 156 545 L101 155 C89 67 154 -5 247 -5 L256 -5 L239 -124 Z " />
<glyph glyph-name="sterling" unicode="&#xa3;" horiz-adv-x="606" d="M334 549 C339 584 377 615 410 615 L451 615 C484 615 513 584 508 549 L505 531 C504 523 508 518 516 518 L585 518 C593 518 599 523 600 531 L603 554 C613 626 568 700 479 700 L404 700 C317 700 249 626 239 554 L214 375 L145 375 C137 375 132 370 130 362 L122 303 C121 295 125 290 133 290 L202 290 L173 85 L104 85 C96 85 91 80 90 72 L81 13 C80 5 85 0 93 0 L512 0 C520 0 525 5 526 13 L535 72 C536 80 531 85 523 85 L268 85 L297 290 L383 290 C391 290 397 295 398 303 L406 362 C408 370 403 375 395 375 L309 375 L334 549 Z " />
<glyph glyph-name="currency" unicode="&#xa4;" horiz-adv-x="491" d="M254 349 C247 349 237 347 228 346 L216 387 C214 395 211 399 203 399 L150 399 C142 399 135 393 134 385 L159 301 C144 281 132 258 129 239 L118 161 C115 141 121 118 130 98 L81 14 C80 6 86 0 94 0 L147 0 C155 0 159 4 163 12 L187 53 C196 52 205 50 212 50 L292 50 C300 50 309 52 318 53 L330 12 C332 4 336 0 344 0 L397 0 C405 0 411 6 412 14 L387 98 C402 118 414 141 417 161 L428 239 C431 258 425 281 416 301 L465 385 C466 393 461 399 453 399 L400 399 C392 399 387 395 383 387 L359 346 C350 347 342 349 335 349 L254 349 Z M237 121 C215 121 196 142 200 164 L210 235 C213 257 237 278 259 278 L310 278 C332 278 350 257 347 235 L337 164 C333 142 310 121 288 121 L237 121 Z " />
<glyph glyph-name="yen" unicode="&#xa5;" horiz-adv-x="661" d="M228 353 C220 353 214 348 213 340 L205 281 C204 273 208 268 216 268 L299 268 L313 220 L306 168 L202 168 C194 168 188 163 187 155 L179 96 C178 88 182 83 190 83 L294 83 L284 13 C283 5 288 0 296 0 L365 0 C373 0 378 5 379 13 L389 83 L493 83 C501 83 507 88 508 96 L516 155 C517 163 513 168 505 168 L401 168 L408 220 L436 268 L519 268 C527 268 533 273 534 281 L542 340 C543 348 539 353 531 353 L485 353 L677 687 C678 695 674 700 666 700 L594 700 C586 700 582 697 577 689 L384 350 L375 350 L276 689 C273 697 271 700 263 700 L191 700 C183 700 177 695 176 687 L274 353 L228 353 Z " />
<glyph glyph-name="brokenbar" unicode="&#xa6;" horiz-adv-x="255" d="M136 405 C135 397 140 392 148 392 L217 392 C225 392 230 397 231 405 L286 792 C287 800 283 805 275 805 L206 805 C198 805 192 800 191 792 L136 405 Z M56 -165 C55 -173 59 -178 67 -178 L136 -178 C144 -178 150 -173 151 -165 L206 222 C207 230 203 235 195 235 L126 235 C118 235 112 230 111 222 L56 -165 Z " />
<glyph glyph-name="section" unicode="&#xa7;" horiz-adv-x="534" d="M497 309 L499 323 C527 523 246 449 260 549 L261 559 C266 597 302 615 336 615 L372 615 C406 615 435 584 430 549 L428 537 C427 529 431 524 439 524 L508 524 C516 524 522 529 523 537 L525 554 C535 626 488 700 401 700 L330 700 C242 700 177 638 167 566 L166 559 C159 511 172 479 195 457 C159 432 136 394 130 353 L129 346 C101 147 383 221 368 117 L366 103 C361 65 325 47 291 47 L248 47 C214 47 185 78 190 113 L192 125 C193 133 189 138 181 138 L112 138 C104 138 98 133 97 125 L95 108 C85 36 132 -38 219 -38 L297 -38 C386 -38 450 24 460 96 L462 110 C468 155 458 186 437 208 C469 233 491 270 497 309 L497 309 Z M403 316 C398 281 371 262 340 262 C336 262 333 262 329 263 C234 277 217 295 223 336 L224 346 C229 384 265 402 299 402 C353 402 412 379 405 334 L403 316 Z " />
<glyph glyph-name="dieresis" unicode="&#xa8;" horiz-adv-x="424" d="M165 608 C164 599 169 593 178 593 L249 593 C258 593 265 599 266 608 L277 685 C278 694 273 700 264 700 L193 700 C184 700 177 694 176 685 L165 608 Z M328 608 C327 599 332 593 341 593 L412 593 C421 593 428 599 429 608 L440 685 C441 694 436 700 427 700 L356 700 C347 700 340 694 339 685 L328 608 Z " />
<glyph glyph-name="copyright" unicode="&#xa9;" horiz-adv-x="871" d="M534 699 C339 699 155 539 128 344 C100 148 239 -11 434 -11 C630 -11 811 148 839 344 C866 539 730 699 534 699 L534 699 Z M443 51 C280 51 169 181 192 344 C215 507 362 638 525 638 C690 638 802 507 779 344 C756 181 608 51 443 51 L443 51 Z M438 222 C416 222 397 242 400 265 L423 428 C426 451 451 470 473 470 L525 470 C548 470 566 451 563 428 L561 413 C560 406 563 402 570 402 L630 402 C637 402 642 406 643 413 L645 430 C653 487 618 544 549 544 L469 544 C400 544 350 487 342 430 L318 261 C310 205 344 148 413 148 L493 148 C562 148 613 205 621 262 L624 279 C625 286 621 290 614 290 L554 290 C547 290 543 286 542 279 L540 264 C536 241 513 222 490 222 L438 222 Z " />
<glyph glyph-name="ordfeminine" unicode="&#xaa;" horiz-adv-x="398" d="M218 494 C221 514 233 521 250 521 L322 521 L317 489 C314 469 295 457 276 457 L248 457 C231 457 214 469 217 489 L218 494 Z M207 632 C233 637 252 640 273 640 C323 640 335 614 332 595 L329 576 L248 576 C198 576 156 547 149 498 L147 480 C140 432 174 402 224 402 L253 402 C264 402 287 408 303 425 L308 425 L307 415 C306 410 310 406 315 406 L366 406 C371 406 375 410 376 415 L401 595 C405 621 397 700 292 700 C249 700 219 694 203 689 C200 688 198 686 197 682 C197 681 196 671 199 637 C199 632 203 632 207 632 L207 632 Z " />
<glyph glyph-name="guillemotleft" unicode="&#xab;" horiz-adv-x="691" d="M116 259 L212 13 C215 6 219 0 227 0 L297 0 C305 0 310 5 311 13 L215 261 L217 271 L379 491 C380 499 375 504 367 504 L297 504 C289 504 284 498 280 491 L118 271 L116 259 Z M417 259 L513 13 C516 6 520 0 528 0 L598 0 C606 0 611 5 612 13 L516 261 L518 271 L680 491 C681 499 676 504 668 504 L598 504 C590 504 585 498 581 491 L419 271 L417 259 Z " />
<glyph glyph-name="logicalnot" unicode="&#xac;" horiz-adv-x="523" d="M133 288 C125 288 119 283 118 275 L110 216 C109 208 113 203 121 203 L376 203 L358 78 C357 70 362 65 370 65 L439 65 C447 65 452 70 453 78 L481 275 C482 283 478 288 470 288 L133 288 Z " />
<glyph glyph-name="uni00AD" unicode="&#xad;" horiz-adv-x="198" d="" />
<glyph glyph-name="registered" unicode="&#xae;" horiz-adv-x="871" d="M423 347 L441 472 L521 472 C544 472 561 451 557 426 L553 392 C549 366 526 347 503 347 L423 347 Z M534 699 C339 699 155 539 128 344 C100 148 239 -11 434 -11 C630 -11 811 148 839 344 C866 539 730 699 534 699 L534 699 Z M443 51 C280 51 169 181 192 344 C215 507 362 638 525 638 C690 638 802 507 779 344 C756 181 608 51 443 51 L443 51 Z M565 280 C599 300 625 330 630 364 L642 454 C649 504 612 546 560 546 L381 546 C374 546 370 542 369 535 L316 163 C315 156 319 152 326 152 L385 152 C392 152 396 156 397 163 L413 274 L487 274 L522 163 C525 157 529 152 536 152 L592 152 C599 152 603 156 604 163 L565 280 Z " />
<glyph glyph-name="macron" unicode="&#xaf;" horiz-adv-x="386" d="M191 700 C183 700 177 695 176 687 L168 628 C167 620 171 615 179 615 L379 615 C387 615 393 620 394 628 L402 687 C403 695 399 700 391 700 L191 700 Z " />
<glyph glyph-name="degree" unicode="&#xb0;" horiz-adv-x="418" d="M314 752 C243 752 177 695 167 623 C157 552 207 494 278 494 C349 494 415 552 425 623 C435 695 385 752 314 752 L314 752 Z M288 566 C256 566 235 594 239 623 C244 656 272 680 304 680 C336 680 358 656 353 623 C349 594 320 566 288 566 L288 566 Z " />
<glyph glyph-name="plusminus" unicode="&#xb1;" horiz-adv-x="429" d="M191 177 C190 169 195 164 203 164 L272 164 C280 164 285 169 286 177 L302 290 L376 290 C384 290 390 295 391 303 L399 362 C401 370 396 375 388 375 L314 375 L330 489 C331 497 327 502 319 502 L250 502 C242 502 236 497 235 489 L219 375 L145 375 C137 375 132 370 130 362 L122 303 C121 295 125 290 133 290 L207 290 L191 177 Z M104 85 C96 85 91 80 90 72 L81 13 C80 5 85 0 93 0 L336 0 C344 0 349 5 350 13 L359 72 C360 80 355 85 347 85 L104 85 Z " />
<glyph glyph-name="twosuperior" unicode="&#xb2;" horiz-adv-x="364" d="M240 607 C243 628 249 640 269 640 L276 640 C296 640 298 627 296 613 L295 608 C285 536 162 584 145 465 L138 414 C137 410 141 406 145 406 L333 406 C337 406 341 410 342 414 L349 463 C349 467 346 471 342 471 L219 471 C227 528 347 485 364 605 L365 619 C371 657 347 700 308 700 L252 700 C214 700 180 671 174 633 L171 607 C170 602 174 598 179 598 L230 598 C235 598 239 602 240 607 L240 607 Z " />
<glyph glyph-name="threesuperior" unicode="&#xb3;" horiz-adv-x="353" d="M237 582 C232 582 229 579 228 574 L222 531 C221 526 224 523 229 523 L248 523 C268 523 276 514 274 499 L273 493 C271 479 266 466 246 466 L239 466 C219 466 216 478 219 499 C219 504 216 508 211 508 L160 508 C155 508 150 504 150 499 L146 473 C141 435 167 406 205 406 L261 406 C300 406 336 449 341 487 L342 496 C346 526 340 543 321 552 C342 561 354 578 358 608 L359 619 C365 657 341 700 302 700 L246 700 C208 700 174 671 168 633 L165 607 C164 602 168 598 173 598 L224 598 C229 598 233 602 234 607 C237 628 243 640 263 640 L270 640 C290 640 292 627 290 613 L289 605 C286 590 276 582 256 582 L237 582 Z " />
<glyph glyph-name="acute" unicode="&#xb4;" horiz-adv-x="308" d="M232 554 C240 554 246 560 251 568 L324 686 C325 695 320 700 312 700 L251 700 C243 700 237 694 232 686 L159 568 C158 559 162 554 171 554 L232 554 Z " />
<glyph glyph-name="mu" unicode="&#xb5;" horiz-adv-x="524" d="M57 -161 C56 -169 60 -174 68 -174 L137 -174 C145 -174 151 -169 152 -161 L175 3 C189 -2 205 -5 223 -5 L298 -5 C386 -5 453 69 463 141 L514 502 C515 510 511 515 503 515 L434 515 C426 515 420 510 419 502 L369 146 C364 111 326 80 293 80 L253 80 C220 80 190 111 195 146 L245 502 C246 510 242 515 234 515 L165 515 C157 515 151 510 150 502 L57 -161 Z " />
<glyph glyph-name="paragraph" unicode="&#xb6;" horiz-adv-x="696" d="M346 700 C253 700 168 628 155 539 L139 423 C127 335 191 262 284 262 L362 262 L327 13 C326 5 331 0 339 0 L408 0 C416 0 421 5 422 13 L507 615 L607 615 L522 13 C521 5 526 0 534 0 L603 0 C611 0 616 5 617 13 L712 687 C713 695 709 700 701 700 L346 700 Z " />
<glyph glyph-name="periodcentered" unicode="&#xb7;" horiz-adv-x="261" d="M106 187 C105 178 110 172 119 172 L190 172 C199 172 206 178 207 187 L218 264 C219 273 214 279 205 279 L134 279 C125 279 118 273 117 264 L106 187 Z " />
<glyph glyph-name="cedilla" unicode="&#xb8;" horiz-adv-x="308" d="M80 -52 C78 -55 76 -58 76 -60 L71 -93 C71 -98 74 -102 79 -102 L134 -102 C134 -102 158 -102 155 -125 C152 -146 128 -146 128 -146 L68 -146 C63 -146 58 -150 58 -155 L53 -186 C53 -191 56 -195 61 -195 L138 -195 C185 -195 202 -178 211 -119 C218 -71 182 -53 143 -53 L172 -8 C174 0 171 1 166 1 L126 1 C120 1 115 -1 112 -5 L80 -52 Z " />
<glyph glyph-name="onesuperior" unicode="&#xb9;" horiz-adv-x="365" d="M183 676 C178 675 174 670 173 666 L166 616 C166 612 169 608 173 608 L247 635 L224 471 L165 471 C161 471 156 467 156 463 L149 414 C148 410 152 406 156 406 L334 406 C338 406 342 410 343 414 L350 463 C350 467 347 471 343 471 L293 471 L324 692 C324 696 321 700 317 700 L246 700 L183 676 Z " />
<glyph glyph-name="ordmasculine" unicode="&#xba;" horiz-adv-x="418" d="M314 752 C243 752 177 695 167 623 C157 552 207 494 278 494 C349 494 415 552 425 623 C435 695 385 752 314 752 L314 752 Z M288 566 C256 566 235 594 239 623 C244 656 272 680 304 680 C336 680 358 656 353 623 C349 594 320 566 288 566 L288 566 Z " />
<glyph glyph-name="guillemotright" unicode="&#xbb;" horiz-adv-x="691" d="M649 271 L549 491 C545 498 542 504 534 504 L464 504 C456 504 451 499 450 491 L550 271 L548 261 L382 13 C381 5 386 0 394 0 L464 0 C472 0 476 6 481 13 L647 259 L649 271 Z M348 271 L248 491 C244 498 241 504 233 504 L163 504 C155 504 150 499 149 491 L249 271 L247 261 L81 13 C80 5 85 0 93 0 L163 0 C171 0 175 6 180 13 L346 259 L348 271 Z " />
<glyph glyph-name="onequarter" unicode="&#xbc;" horiz-adv-x="774" d="M709 685 C710 694 705 700 696 700 L643 700 C634 700 627 695 622 686 L186 15 C184 6 190 0 199 0 L252 0 C261 0 267 5 272 14 L709 685 Z M183 676 C178 675 174 670 173 666 L166 616 C166 612 169 608 173 608 L247 635 L224 471 L165 471 C161 471 156 467 156 463 L149 414 C148 410 152 406 156 406 L334 406 C338 406 342 410 343 414 L350 463 C350 467 347 471 343 471 L293 471 L324 692 C324 696 321 700 317 700 L246 700 L183 676 Z M633 286 C633 290 630 294 626 294 L580 294 C576 294 570 290 568 286 L455 87 L450 52 C449 48 453 44 457 44 L603 44 L598 8 C597 4 601 0 605 0 L654 0 C658 0 662 4 663 8 L668 44 L692 44 C696 44 700 48 701 52 L707 95 C707 99 704 103 700 103 L676 103 L686 177 C687 181 684 185 680 185 L631 185 C627 185 622 181 621 177 L611 103 L529 103 L633 286 Z " />
<glyph glyph-name="onehalf" unicode="&#xbd;" horiz-adv-x="747" d="M709 685 C710 694 705 700 696 700 L643 700 C634 700 627 695 622 686 L186 15 C184 6 190 0 199 0 L252 0 C261 0 267 5 272 14 L709 685 Z M183 676 C178 675 174 670 173 666 L166 616 C166 612 169 608 173 608 L247 635 L224 471 L165 471 C161 471 156 467 156 463 L149 414 C148 410 152 406 156 406 L334 406 C338 406 342 410 343 414 L350 463 C350 467 347 471 343 471 L293 471 L324 692 C324 696 321 700 317 700 L246 700 L183 676 Z M566 201 C569 222 575 234 595 234 L602 234 C622 234 624 221 622 207 L621 202 C611 130 488 178 471 59 L464 8 C463 4 467 0 471 0 L659 0 C663 0 667 4 668 8 L675 57 C675 61 672 65 668 65 L545 65 C553 122 673 79 689 199 L691 213 C697 251 673 294 634 294 L578 294 C540 294 506 265 500 227 L497 201 C496 196 499 192 504 192 L555 192 C560 192 565 196 566 201 L566 201 Z " />
<glyph glyph-name="threequarters" unicode="&#xbe;" horiz-adv-x="726" d="M669 685 C670 694 665 700 656 700 L603 700 C594 700 587 695 582 686 L146 15 C144 6 150 0 159 0 L212 0 C221 0 227 5 232 14 L669 685 Z M585 286 C585 290 582 294 578 294 L532 294 C528 294 522 290 520 286 L407 87 L402 52 C401 48 405 44 409 44 L555 44 L550 8 C549 4 553 0 557 0 L606 0 C610 0 614 4 615 8 L620 44 L644 44 C648 44 652 48 653 52 L659 95 C659 99 656 103 652 103 L628 103 L638 177 C639 181 636 185 632 185 L583 185 C579 185 574 181 573 177 L563 103 L481 103 L585 286 Z M237 582 C232 582 229 579 228 574 L222 531 C221 526 224 523 229 523 L248 523 C268 523 276 514 274 499 L273 493 C271 479 266 466 246 466 L239 466 C219 466 216 478 219 499 C219 504 216 508 211 508 L160 508 C155 508 150 504 150 499 L146 473 C141 435 167 406 205 406 L261 406 C300 406 336 449 341 487 L342 496 C346 526 340 543 321 552 C342 561 354 578 358 608 L359 619 C365 657 341 700 302 700 L246 700 C208 700 174 671 168 633 L165 607 C164 602 168 598 173 598 L224 598 C229 598 233 602 234 607 C237 628 243 640 263 640 L270 640 C290 640 292 627 290 613 L289 605 C286 590 276 582 256 582 L237 582 Z " />
<glyph glyph-name="questiondown" unicode="&#xbf;" horiz-adv-x="590" d="M443 519 C445 527 440 532 432 532 L363 532 C355 532 350 527 348 519 L347 511 C335 424 288 409 237 392 C181 374 129 353 109 208 L102 160 C90 72 156 0 249 0 L344 0 C435 0 520 72 532 160 L539 213 C541 221 536 226 528 226 L459 226 C451 226 446 221 444 213 L438 170 C432 124 386 85 344 85 L267 85 C225 85 192 124 198 170 L203 204 C215 291 253 307 304 324 C361 343 422 364 442 507 L443 519 Z M460 612 C458 604 453 599 445 599 L370 599 C362 599 357 604 359 612 L370 692 C371 700 377 705 385 705 L460 705 C468 705 472 700 471 692 L460 612 Z " />
<glyph glyph-name="Agrave" unicode="&#xc0;" horiz-adv-x="588" d="M427 751 C436 751 442 756 443 765 L404 883 C401 891 397 897 389 897 L328 897 C320 897 313 892 312 883 L351 765 C354 757 358 751 366 751 L427 751 Z M346 700 C338 700 334 695 331 687 L36 13 C35 5 40 0 48 0 L121 0 C129 0 132 5 136 13 L183 125 L438 125 L454 13 C456 5 459 0 467 0 L540 0 C548 0 553 5 554 13 L449 687 C448 695 446 700 438 700 L346 700 Z M367 557 L377 557 L426 210 L219 210 L367 557 Z " />
<glyph glyph-name="Aacute" unicode="&#xc1;" horiz-adv-x="588" d="M436 751 C444 751 450 757 455 765 L528 883 C529 892 524 897 516 897 L455 897 C447 897 441 891 436 883 L363 765 C362 756 366 751 375 751 L436 751 Z M346 700 C338 700 334 695 331 687 L36 13 C35 5 40 0 48 0 L121 0 C129 0 132 5 136 13 L183 125 L438 125 L454 13 C456 5 459 0 467 0 L540 0 C548 0 553 5 554 13 L449 687 C448 695 446 700 438 700 L346 700 Z M367 557 L377 557 L426 210 L219 210 L367 557 Z " />
<glyph glyph-name="Acircumflex" unicode="&#xc2;" horiz-adv-x="588" d="M387 925 C379 925 372 920 367 911 L273 763 C272 756 276 751 284 751 L347 751 C353 751 359 757 363 763 L412 840 L439 763 C441 757 445 751 451 751 L514 751 C522 751 528 756 529 763 L477 911 C474 920 469 925 461 925 L387 925 Z M346 700 C338 700 334 695 331 687 L36 13 C35 5 40 0 48 0 L121 0 C129 0 132 5 136 13 L183 125 L438 125 L454 13 C456 5 459 0 467 0 L540 0 C548 0 553 5 554 13 L449 687 C448 695 446 700 438 700 L346 700 Z M367 557 L377 557 L426 210 L219 210 L367 557 Z " />
<glyph glyph-name="Atilde" unicode="&#xc3;" horiz-adv-x="588" d="M346 700 C338 700 334 695 331 687 L36 13 C35 5 40 0 48 0 L121 0 C129 0 132 5 136 13 L183 125 L438 125 L454 13 C456 5 459 0 467 0 L540 0 C548 0 553 5 554 13 L449 687 C448 695 446 700 438 700 L346 700 Z M367 557 L377 557 L426 210 L219 210 L367 557 Z M458 751 C477 751 501 759 523 771 C528 774 532 779 533 785 L525 837 C524 843 519 845 514 845 C512 845 510 845 507 844 C494 840 477 836 470 836 C415 836 410 878 358 878 C339 878 315 870 293 858 C288 855 284 850 283 844 L291 792 C292 786 297 784 302 784 C304 784 306 784 309 785 C322 789 339 793 346 793 C401 793 405 751 458 751 L458 751 Z " />
<glyph glyph-name="Adieresis" unicode="&#xc4;" horiz-adv-x="588" d="M269 766 C268 757 273 751 282 751 L353 751 C362 751 369 757 370 766 L381 843 C382 852 377 858 368 858 L297 858 C288 858 281 852 280 843 L269 766 Z M432 766 C431 757 436 751 445 751 L516 751 C525 751 532 757 533 766 L544 843 C545 852 540 858 531 858 L460 858 C451 858 444 852 443 843 L432 766 Z M346 700 C338 700 334 695 331 687 L36 13 C35 5 40 0 48 0 L121 0 C129 0 132 5 136 13 L183 125 L438 125 L454 13 C456 5 459 0 467 0 L540 0 C548 0 553 5 554 13 L449 687 C448 695 446 700 438 700 L346 700 Z M367 557 L377 557 L426 210 L219 210 L367 557 Z " />
<glyph glyph-name="Aring" unicode="&#xc5;" horiz-adv-x="588" d="M418 886 C347 886 281 829 271 757 C265 712 282 672 314 649 L36 13 C35 5 40 0 48 0 L121 0 C129 0 132 5 136 13 L183 125 L438 125 L454 13 C456 5 459 0 467 0 L540 0 C548 0 553 5 554 13 L455 649 C493 672 523 712 529 757 C539 829 489 886 418 886 L418 886 Z M367 557 L377 557 L426 210 L219 210 L367 557 Z M392 700 C360 700 339 728 343 757 C348 790 376 814 408 814 C440 814 462 790 457 757 C453 728 424 700 392 700 L392 700 Z " />
<glyph glyph-name="AE" unicode="&#xc6;" horiz-adv-x="879" d="M475 210 L256 210 L503 617 L532 617 L475 210 Z M31 13 C30 5 35 0 43 0 L113 0 C121 0 129 6 133 13 L204 125 L463 125 L447 13 C446 5 451 0 459 0 L796 0 C804 0 809 5 810 13 L819 72 C820 80 815 85 807 85 L552 85 L582 293 L813 293 C821 293 826 298 828 306 L836 365 C837 373 833 378 825 378 L594 378 L627 615 L882 615 C890 615 896 620 897 628 L905 687 C906 695 902 700 894 700 L465 700 C456 700 447 692 442 684 L31 13 Z " />
<glyph glyph-name="Ccedilla" unicode="&#xc7;" horiz-adv-x="564" d="M222 -52 C220 -55 218 -58 218 -60 L213 -93 C213 -98 216 -102 221 -102 L276 -102 C276 -102 300 -102 297 -125 C294 -146 270 -146 270 -146 L210 -146 C205 -146 200 -150 200 -155 L195 -186 C195 -191 198 -195 203 -195 L280 -195 C327 -195 344 -178 353 -119 C360 -71 324 -53 285 -53 L316 -5 L340 -5 C433 -5 518 67 530 155 L536 193 C537 201 532 206 524 206 L455 206 C447 206 442 201 441 193 L437 165 C430 117 385 80 343 80 L258 80 C216 80 181 117 188 165 L240 535 C246 581 292 620 334 620 L419 620 C461 620 495 581 489 535 L484 502 C483 494 487 489 495 489 L564 489 C572 489 578 494 579 502 L585 545 C597 633 533 705 440 705 L337 705 C244 705 158 633 146 545 L91 155 C79 67 144 -5 237 -5 L254 -5 L222 -52 Z " />
<glyph glyph-name="Egrave" unicode="&#xc8;" horiz-adv-x="513" d="M401 751 C410 751 416 756 417 765 L378 883 C375 891 371 897 363 897 L302 897 C294 897 287 892 286 883 L325 765 C328 757 332 751 340 751 L401 751 Z M81 13 C80 5 85 0 93 0 L430 0 C438 0 443 5 444 13 L453 72 C454 80 449 85 441 85 L186 85 L216 293 L447 293 C455 293 460 298 462 306 L470 365 C471 373 467 378 459 378 L228 378 L261 615 L516 615 C524 615 530 620 531 628 L539 687 C540 695 536 700 528 700 L191 700 C183 700 177 695 176 687 L81 13 Z " />
<glyph glyph-name="Eacute" unicode="&#xc9;" horiz-adv-x="513" d="M403 751 C411 751 417 757 422 765 L495 883 C496 892 491 897 483 897 L422 897 C414 897 408 891 403 883 L330 765 C329 756 333 751 342 751 L403 751 Z M81 13 C80 5 85 0 93 0 L430 0 C438 0 443 5 444 13 L453 72 C454 80 449 85 441 85 L186 85 L216 293 L447 293 C455 293 460 298 462 306 L470 365 C471 373 467 378 459 378 L228 378 L261 615 L516 615 C524 615 530 620 531 628 L539 687 C540 695 536 700 528 700 L191 700 C183 700 177 695 176 687 L81 13 Z " />
<glyph glyph-name="Ecircumflex" unicode="&#xca;" horiz-adv-x="513" d="M355 925 C347 925 340 920 335 911 L241 763 C240 756 244 751 252 751 L315 751 C321 751 327 757 331 763 L380 840 L407 763 C409 757 413 751 419 751 L482 751 C490 751 496 756 497 763 L445 911 C442 920 437 925 429 925 L355 925 Z M81 13 C80 5 85 0 93 0 L430 0 C438 0 443 5 444 13 L453 72 C454 80 449 85 441 85 L186 85 L216 293 L447 293 C455 293 460 298 462 306 L470 365 C471 373 467 378 459 378 L228 378 L261 615 L516 615 C524 615 530 620 531 628 L539 687 C540 695 536 700 528 700 L191 700 C183 700 177 695 176 687 L81 13 Z " />
<glyph glyph-name="Edieresis" unicode="&#xcb;" horiz-adv-x="513" d="M235 766 C234 757 239 751 248 751 L319 751 C328 751 335 757 336 766 L347 843 C348 852 343 858 334 858 L263 858 C254 858 247 852 246 843 L235 766 Z M398 766 C397 757 402 751 411 751 L482 751 C491 751 498 757 499 766 L510 843 C511 852 506 858 497 858 L426 858 C417 858 410 852 409 843 L398 766 Z M81 13 C80 5 85 0 93 0 L430 0 C438 0 443 5 444 13 L453 72 C454 80 449 85 441 85 L186 85 L216 293 L447 293 C455 293 460 298 462 306 L470 365 C471 373 467 378 459 378 L228 378 L261 615 L516 615 C524 615 530 620 531 628 L539 687 C540 695 536 700 528 700 L191 700 C183 700 177 695 176 687 L81 13 Z " />
<glyph glyph-name="Igrave" unicode="&#xcc;" horiz-adv-x="255" d="M81 13 C80 5 85 0 93 0 L162 0 C170 0 175 5 176 13 L271 687 C272 695 268 700 260 700 L191 700 C183 700 177 695 176 687 L81 13 Z M260 751 C269 751 275 756 276 765 L237 883 C234 891 230 897 222 897 L161 897 C153 897 146 892 145 883 L184 765 C187 757 191 751 199 751 L260 751 Z " />
<glyph glyph-name="Iacute" unicode="&#xcd;" horiz-adv-x="255" d="M81 13 C80 5 85 0 93 0 L162 0 C170 0 175 5 176 13 L271 687 C272 695 268 700 260 700 L191 700 C183 700 177 695 176 687 L81 13 Z M265 751 C273 751 279 757 284 765 L357 883 C358 892 353 897 345 897 L284 897 C276 897 270 891 265 883 L192 765 C191 756 195 751 204 751 L265 751 Z " />
<glyph glyph-name="Icircumflex" unicode="&#xce;" horiz-adv-x="255" d="M81 13 C80 5 85 0 93 0 L162 0 C170 0 175 5 176 13 L271 687 C272 695 268 700 260 700 L191 700 C183 700 177 695 176 687 L81 13 Z M222 943 C214 943 207 938 202 929 L108 781 C107 774 112 769 120 769 L183 769 C189 769 194 775 198 781 L247 858 L274 781 C276 775 281 769 287 769 L350 769 C358 769 363 774 364 781 L312 929 C309 938 304 943 296 943 L222 943 Z " />
<glyph glyph-name="Idieresis" unicode="&#xcf;" horiz-adv-x="255" d="M81 13 C80 5 85 0 93 0 L162 0 C170 0 175 5 176 13 L271 687 C272 695 268 700 260 700 L191 700 C183 700 177 695 176 687 L81 13 Z M102 766 C101 757 106 751 115 751 L186 751 C195 751 202 757 203 766 L214 843 C215 852 210 858 201 858 L130 858 C121 858 114 852 113 843 L102 766 Z M265 766 C264 757 269 751 278 751 L349 751 C358 751 365 757 366 766 L377 843 C378 852 373 858 364 858 L293 858 C284 858 277 852 276 843 L265 766 Z " />
<glyph glyph-name="Eth" unicode="&#xd0;" horiz-adv-x="605" d="M88 393 C80 393 74 388 73 380 L65 321 C63 313 68 308 76 308 L139 308 L97 13 C96 5 101 0 109 0 L368 0 C460 0 545 72 557 161 L610 539 C623 628 558 700 466 700 L207 700 C199 700 193 695 192 687 L151 393 L88 393 Z M444 615 C487 615 520 575 514 530 L463 170 C457 122 412 85 369 85 L202 85 L234 308 L308 308 C316 308 321 313 323 321 L331 380 C332 388 328 393 320 393 L246 393 L277 615 L444 615 Z " />
<glyph glyph-name="Ntilde" unicode="&#xd1;" horiz-adv-x="629" d="M412 13 C415 6 421 0 429 0 L536 0 C544 0 549 5 550 13 L645 687 C646 695 642 700 634 700 L565 700 C557 700 551 695 550 687 L478 176 L468 176 L314 687 C311 694 306 700 298 700 L191 700 C183 700 177 695 176 687 L81 13 C80 5 85 0 93 0 L162 0 C170 0 175 5 176 13 L248 526 L259 526 L412 13 Z M473 751 C492 751 516 759 538 771 C543 774 547 779 548 785 L540 837 C539 843 534 845 529 845 C527 845 525 845 522 844 C509 840 492 836 485 836 C430 836 425 878 373 878 C354 878 330 870 308 858 C303 855 299 850 298 844 L306 792 C307 786 312 784 317 784 C319 784 321 784 324 785 C337 789 354 793 361 793 C416 793 420 751 473 751 L473 751 Z " />
<glyph glyph-name="Ograve" unicode="&#xd2;" horiz-adv-x="579" d="M421 751 C430 751 436 756 437 765 L398 883 C395 891 391 897 383 897 L322 897 C314 897 307 892 306 883 L345 765 C348 757 352 751 360 751 L421 751 Z M337 705 C244 705 158 633 146 545 L91 155 C79 67 144 -5 237 -5 L340 -5 C433 -5 518 67 530 155 L585 545 C597 633 533 705 440 705 L337 705 Z M258 80 C216 80 181 117 188 165 L240 535 C246 581 292 620 334 620 L419 620 C461 620 495 581 489 535 L437 165 C430 117 385 80 343 80 L258 80 Z " />
<glyph glyph-name="Oacute" unicode="&#xd3;" horiz-adv-x="579" d="M432 751 C440 751 446 757 451 765 L524 883 C525 892 520 897 512 897 L451 897 C443 897 437 891 432 883 L359 765 C358 756 362 751 371 751 L432 751 Z M337 705 C244 705 158 633 146 545 L91 155 C79 67 144 -5 237 -5 L340 -5 C433 -5 518 67 530 155 L585 545 C597 633 533 705 440 705 L337 705 Z M258 80 C216 80 181 117 188 165 L240 535 C246 581 292 620 334 620 L419 620 C461 620 495 581 489 535 L437 165 C430 117 385 80 343 80 L258 80 Z " />
<glyph glyph-name="Ocircumflex" unicode="&#xd4;" horiz-adv-x="579" d="M382 925 C374 925 367 920 362 911 L268 763 C267 756 271 751 279 751 L342 751 C348 751 354 757 358 763 L407 840 L434 763 C436 757 440 751 446 751 L509 751 C517 751 523 756 524 763 L472 911 C469 920 464 925 456 925 L382 925 Z M337 705 C244 705 158 633 146 545 L91 155 C79 67 144 -5 237 -5 L340 -5 C433 -5 518 67 530 155 L585 545 C597 633 533 705 440 705 L337 705 Z M258 80 C216 80 181 117 188 165 L240 535 C246 581 292 620 334 620 L419 620 C461 620 495 581 489 535 L437 165 C430 117 385 80 343 80 L258 80 Z " />
<glyph glyph-name="Otilde" unicode="&#xd5;" horiz-adv-x="579" d="M470 751 C489 751 513 759 535 771 C540 774 544 779 545 785 L537 837 C536 843 531 845 526 845 C524 845 522 845 519 844 C506 840 489 836 482 836 C427 836 390 878 338 878 C319 878 295 870 273 858 C268 855 264 850 263 844 L271 792 C272 786 277 784 282 784 C284 784 286 784 289 785 C302 789 319 793 326 793 C381 793 417 751 470 751 L470 751 Z M337 705 C244 705 158 633 146 545 L91 155 C79 67 144 -5 237 -5 L340 -5 C433 -5 518 67 530 155 L585 545 C597 633 533 705 440 705 L337 705 Z M258 80 C216 80 181 117 188 165 L240 535 C246 581 292 620 334 620 L419 620 C461 620 495 581 489 535 L437 165 C430 117 385 80 343 80 L258 80 Z " />
<glyph glyph-name="Odieresis" unicode="&#xd6;" horiz-adv-x="579" d="M264 766 C263 757 268 751 277 751 L348 751 C357 751 364 757 365 766 L376 843 C377 852 372 858 363 858 L292 858 C283 858 276 852 275 843 L264 766 Z M427 766 C426 757 431 751 440 751 L511 751 C520 751 527 757 528 766 L539 843 C540 852 535 858 526 858 L455 858 C446 858 439 852 438 843 L427 766 Z M337 705 C244 705 158 633 146 545 L91 155 C79 67 144 -5 237 -5 L340 -5 C433 -5 518 67 530 155 L585 545 C597 633 533 705 440 705 L337 705 Z M258 80 C216 80 181 117 188 165 L240 535 C246 581 292 620 334 620 L419 620 C461 620 495 581 489 535 L437 165 C430 117 385 80 343 80 L258 80 Z " />
<glyph glyph-name="multiply" unicode="&#xd7;" horiz-adv-x="412" d="M223 124 L280 56 C283 53 286 53 288 53 C291 53 294 54 296 56 L342 96 C344 99 346 101 346 105 C347 107 346 110 344 113 L288 179 L363 245 C365 248 367 251 367 253 C368 257 367 259 365 262 L331 302 C329 304 326 305 323 305 C321 305 318 305 315 302 L238 234 L181 302 C178 305 175 305 173 305 C170 305 167 304 165 302 L119 262 C117 259 116 257 115 253 C115 251 115 248 117 245 L174 179 L98 113 C96 110 95 107 94 105 C94 101 94 99 96 96 L130 56 C132 54 135 53 138 53 C140 53 143 53 146 56 L223 124 Z " />
<glyph glyph-name="Oslash" unicode="&#xd8;" horiz-adv-x="579" d="M91 -78 C89 -86 94 -91 102 -91 L175 -91 C183 -91 186 -86 191 -78 L224 -4 C228 -5 233 -5 237 -5 L340 -5 C433 -5 518 67 530 155 L585 545 C592 596 573 642 537 672 L586 778 C587 786 583 791 575 791 L502 791 C494 791 490 786 486 778 L451 704 C448 705 444 705 440 705 L337 705 C244 705 158 633 146 545 L91 155 C84 103 104 57 139 28 L91 -78 Z M188 165 L240 535 C246 581 292 620 334 620 L413 620 L188 135 C187 144 186 154 188 165 L188 165 Z M489 535 L437 165 C430 117 385 80 343 80 L263 80 L487 564 C490 555 490 545 489 535 L489 535 Z " />
<glyph glyph-name="Ugrave" unicode="&#xd9;" horiz-adv-x="589" d="M426 751 C435 751 441 756 442 765 L403 883 C400 891 396 897 388 897 L327 897 C319 897 312 892 311 883 L350 765 C353 757 357 751 365 751 L426 751 Z M442 165 C435 117 390 80 348 80 L263 80 C221 80 186 117 193 165 L266 687 C267 695 263 700 255 700 L186 700 C178 700 172 695 171 687 L96 155 C84 67 149 -5 242 -5 L345 -5 C438 -5 523 67 535 155 L610 687 C611 695 607 700 599 700 L530 700 C522 700 516 695 515 687 L442 165 Z " />
<glyph glyph-name="Uacute" unicode="&#xda;" horiz-adv-x="589" d="M434 751 C442 751 448 757 453 765 L526 883 C527 892 522 897 514 897 L453 897 C445 897 439 891 434 883 L361 765 C360 756 364 751 373 751 L434 751 Z M442 165 C435 117 390 80 348 80 L263 80 C221 80 186 117 193 165 L266 687 C267 695 263 700 255 700 L186 700 C178 700 172 695 171 687 L96 155 C84 67 149 -5 242 -5 L345 -5 C438 -5 523 67 535 155 L610 687 C611 695 607 700 599 700 L530 700 C522 700 516 695 515 687 L442 165 Z " />
<glyph glyph-name="Ucircumflex" unicode="&#xdb;" horiz-adv-x="589" d="M387 925 C379 925 372 920 367 911 L273 763 C272 756 276 751 284 751 L347 751 C353 751 359 757 363 763 L412 840 L439 763 C441 757 445 751 451 751 L514 751 C522 751 528 756 529 763 L477 911 C474 920 469 925 461 925 L387 925 Z M442 165 C435 117 390 80 348 80 L263 80 C221 80 186 117 193 165 L266 687 C267 695 263 700 255 700 L186 700 C178 700 172 695 171 687 L96 155 C84 67 149 -5 242 -5 L345 -5 C438 -5 523 67 535 155 L610 687 C611 695 607 700 599 700 L530 700 C522 700 516 695 515 687 L442 165 Z " />
<glyph glyph-name="Udieresis" unicode="&#xdc;" horiz-adv-x="589" d="M269 766 C268 757 273 751 282 751 L353 751 C362 751 369 757 370 766 L381 843 C382 852 377 858 368 858 L297 858 C288 858 281 852 280 843 L269 766 Z M432 766 C431 757 436 751 445 751 L516 751 C525 751 532 757 533 766 L544 843 C545 852 540 858 531 858 L460 858 C451 858 444 852 443 843 L432 766 Z M442 165 C435 117 390 80 348 80 L263 80 C221 80 186 117 193 165 L266 687 C267 695 263 700 255 700 L186 700 C178 700 172 695 171 687 L96 155 C84 67 149 -5 242 -5 L345 -5 C438 -5 523 67 535 155 L610 687 C611 695 607 700 599 700 L530 700 C522 700 516 695 515 687 L442 165 Z " />
<glyph glyph-name="Yacute" unicode="&#xdd;" horiz-adv-x="561" d="M421 751 C429 751 435 757 440 765 L513 883 C514 892 509 897 501 897 L440 897 C432 897 426 891 421 883 L348 765 C347 756 351 751 360 751 L421 751 Z M358 220 L627 687 C628 695 624 700 616 700 L544 700 C536 700 532 697 527 689 L334 350 L325 350 L226 689 C223 697 221 700 213 700 L141 700 C133 700 127 695 126 687 L263 220 L234 13 C233 5 238 0 246 0 L315 0 C323 0 328 5 329 13 L358 220 Z " />
<glyph glyph-name="Thorn" unicode="&#xde;" horiz-adv-x="570" d="M202 193 L246 506 L405 506 C447 506 480 466 474 421 L453 277 C447 230 403 193 361 193 L202 193 Z M258 591 L271 687 C272 695 268 700 260 700 L191 700 C183 700 177 695 176 687 L81 13 C80 5 85 0 93 0 L162 0 C170 0 175 5 176 13 L190 108 L357 108 C450 108 535 180 547 269 L570 430 C582 519 518 591 425 591 L258 591 Z " />
<glyph glyph-name="germandbls" unicode="&#xdf;" horiz-adv-x="560" d="M342 0 C435 0 520 72 532 161 L542 229 C548 277 535 325 482 364 C514 388 540 439 545 471 L554 539 C567 628 502 700 409 700 L191 700 C183 700 177 695 176 687 L81 13 C80 5 85 0 93 0 L162 0 C170 0 175 5 176 13 L261 616 L388 616 C430 616 464 576 458 531 L451 478 C444 430 399 393 357 393 L292 393 C284 393 278 388 277 380 L269 321 C267 313 272 308 280 308 L377 308 C419 308 452 269 446 223 L438 170 C432 122 387 85 345 85 L268 85 C260 85 255 80 254 72 L245 13 C244 5 249 0 257 0 L342 0 Z " />
<glyph glyph-name="agrave" unicode="&#xe0;" horiz-adv-x="490" d="M371 571 C380 571 385 576 387 585 L347 703 C344 711 340 717 332 717 L271 717 C263 717 257 712 255 703 L295 585 C298 577 302 571 310 571 L371 571 Z M226 80 C191 80 170 111 175 146 L177 161 C182 196 211 225 246 225 L361 225 L350 146 C345 111 314 80 280 80 L226 80 Z M176 500 C169 497 166 494 165 488 C165 486 164 482 171 429 C172 420 175 420 182 420 C236 429 261 435 294 435 C391 435 381 368 377 335 L373 310 L249 310 C163 310 96 260 85 178 L77 124 C65 42 119 -5 205 -5 L235 -5 C275 -5 303 7 326 32 L334 32 L331 13 C330 5 335 0 343 0 L412 0 C420 0 425 5 426 13 L472 336 C478 382 497 520 316 520 C239 520 203 510 176 500 L176 500 Z " />
<glyph glyph-name="aacute" unicode="&#xe1;" horiz-adv-x="490" d="M376 571 C384 571 390 577 395 585 L467 703 C469 712 463 717 455 717 L394 717 C386 717 380 711 375 703 L303 585 C301 576 306 571 315 571 L376 571 Z M226 80 C191 80 170 111 175 146 L177 161 C182 196 211 225 246 225 L361 225 L350 146 C345 111 314 80 280 80 L226 80 Z M176 500 C169 497 166 494 165 488 C165 486 164 482 171 429 C172 420 175 420 182 420 C236 429 261 435 294 435 C391 435 381 368 377 335 L373 310 L249 310 C163 310 96 260 85 178 L77 124 C65 42 119 -5 205 -5 L235 -5 C275 -5 303 7 326 32 L334 32 L331 13 C330 5 335 0 343 0 L412 0 C420 0 425 5 426 13 L472 336 C478 382 497 520 316 520 C239 520 203 510 176 500 L176 500 Z " />
<glyph glyph-name="acircumflex" unicode="&#xe2;" horiz-adv-x="490" d="M336 745 C328 745 322 740 316 731 L222 583 C221 576 226 571 234 571 L297 571 C303 571 309 577 312 583 L361 660 L388 583 C391 577 395 571 401 571 L464 571 C472 571 477 576 478 583 L426 731 C424 740 418 745 410 745 L336 745 Z M226 80 C191 80 170 111 175 146 L177 161 C182 196 211 225 246 225 L361 225 L350 146 C345 111 314 80 280 80 L226 80 Z M176 500 C169 497 166 494 165 488 C165 486 164 482 171 429 C172 420 175 420 182 420 C236 429 261 435 294 435 C391 435 381 368 377 335 L373 310 L249 310 C163 310 96 260 85 178 L77 124 C65 42 119 -5 205 -5 L235 -5 C275 -5 303 7 326 32 L334 32 L331 13 C330 5 335 0 343 0 L412 0 C420 0 425 5 426 13 L472 336 C478 382 497 520 316 520 C239 520 203 510 176 500 L176 500 Z " />
<glyph glyph-name="atilde" unicode="&#xe3;" horiz-adv-x="490" d="M226 80 C191 80 170 111 175 146 L177 161 C182 196 211 225 246 225 L361 225 L350 146 C345 111 314 80 280 80 L226 80 Z M176 500 C169 497 166 494 165 488 C165 486 164 482 171 429 C172 420 175 420 182 420 C236 429 261 435 294 435 C391 435 381 368 377 335 L373 310 L249 310 C163 310 96 260 85 178 L77 124 C65 42 119 -5 205 -5 L235 -5 C275 -5 303 7 326 32 L334 32 L331 13 C330 5 335 0 343 0 L412 0 C420 0 425 5 426 13 L472 336 C478 382 497 520 316 520 C239 520 203 510 176 500 L176 500 Z M400 571 C419 571 443 579 465 591 C470 594 474 599 475 605 L467 657 C466 663 461 665 456 665 C454 665 452 665 449 664 C435 660 419 656 412 656 C357 656 352 698 300 698 C281 698 256 690 235 678 C229 675 226 670 225 664 L233 612 C234 606 238 604 243 604 C245 604 247 604 251 605 C264 609 281 613 288 613 C343 613 347 571 400 571 L400 571 Z " />
<glyph glyph-name="adieresis" unicode="&#xe4;" horiz-adv-x="490" d="M219 586 C218 577 223 571 232 571 L303 571 C312 571 319 577 320 586 L331 663 C332 672 327 678 318 678 L247 678 C238 678 231 672 230 663 L219 586 Z M382 586 C381 577 386 571 395 571 L466 571 C475 571 482 577 483 586 L494 663 C495 672 490 678 481 678 L410 678 C401 678 394 672 393 663 L382 586 Z M226 80 C191 80 170 111 175 146 L177 161 C182 196 211 225 246 225 L361 225 L350 146 C345 111 314 80 280 80 L226 80 Z M176 500 C169 497 166 494 165 488 C165 486 164 482 171 429 C172 420 175 420 182 420 C236 429 261 435 294 435 C391 435 381 368 377 335 L373 310 L249 310 C163 310 96 260 85 178 L77 124 C65 42 119 -5 205 -5 L235 -5 C275 -5 303 7 326 32 L334 32 L331 13 C330 5 335 0 343 0 L412 0 C420 0 425 5 426 13 L472 336 C478 382 497 520 316 520 C239 520 203 510 176 500 L176 500 Z " />
<glyph glyph-name="aring" unicode="&#xe5;" horiz-adv-x="490" d="M379 829 C308 829 242 772 232 700 C222 629 272 571 343 571 C414 571 480 629 490 700 C500 772 450 829 379 829 L379 829 Z M353 643 C321 643 300 671 304 700 C309 733 337 757 369 757 C401 757 423 733 418 700 C414 671 385 643 353 643 L353 643 Z M226 80 C191 80 170 111 175 146 L177 161 C182 196 211 225 246 225 L361 225 L350 146 C345 111 314 80 280 80 L226 80 Z M176 500 C169 497 166 494 165 488 C165 486 164 482 171 429 C172 420 175 420 182 420 C236 429 261 435 294 435 C391 435 381 368 377 335 L373 310 L249 310 C163 310 96 260 85 178 L77 124 C65 42 119 -5 205 -5 L235 -5 C275 -5 303 7 326 32 L334 32 L331 13 C330 5 335 0 343 0 L412 0 C420 0 425 5 426 13 L472 336 C478 382 497 520 316 520 C239 520 203 510 176 500 L176 500 Z " />
<glyph glyph-name="ae" unicode="&#xe6;" horiz-adv-x="754" d="M625 105 C609 93 585 80 552 80 L503 80 C470 80 440 111 445 146 L455 216 L711 216 C719 216 725 221 726 229 L746 374 C756 446 711 520 622 520 L547 520 C506 520 469 503 441 479 C417 503 379 520 316 520 C239 520 203 510 176 500 C169 497 166 494 165 488 C165 486 164 482 171 429 C172 420 175 420 182 420 C236 429 261 435 294 435 C379 435 381 384 379 349 L373 310 L249 310 C163 310 96 260 85 178 L77 124 C65 42 119 -5 205 -5 L283 -5 C323 -5 351 7 374 32 L382 32 C403 9 434 -5 473 -5 L540 -5 C540 -5 626 -5 683 56 C686 59 687 61 687 64 C688 67 685 71 684 73 L645 108 C642 110 640 111 637 111 C633 111 629 107 625 105 L625 105 Z M226 80 C191 80 170 111 175 146 L177 161 C182 196 211 225 246 225 L361 225 L349 141 C342 108 312 80 280 80 L226 80 Z M476 369 C481 404 520 435 553 435 L594 435 C627 435 655 404 650 369 L641 301 L467 301 L476 369 Z " />
<glyph glyph-name="ccedilla" unicode="&#xe7;" horiz-adv-x="474" d="M184 -52 C182 -55 180 -58 180 -60 L175 -93 C175 -98 178 -102 183 -102 L238 -102 C238 -102 262 -102 259 -125 C256 -146 232 -146 232 -146 L172 -146 C167 -146 162 -150 162 -155 L157 -186 C157 -191 160 -195 165 -195 L242 -195 C289 -195 306 -178 315 -119 C322 -71 286 -53 247 -53 L278 -5 L283 -5 C372 -5 438 69 448 141 L451 157 C452 165 447 170 439 170 L370 170 C362 170 357 165 356 157 L354 146 C349 111 312 80 279 80 L238 80 C205 80 175 111 180 146 L211 369 C216 404 255 435 288 435 L329 435 C362 435 390 404 385 369 L384 358 C383 350 387 345 395 345 L464 345 C472 345 478 350 479 358 L481 374 C491 446 446 520 357 520 L282 520 C195 520 127 446 117 374 L84 141 C74 69 121 -5 208 -5 L215 -5 L184 -52 Z " />
<glyph glyph-name="egrave" unicode="&#xe8;" horiz-adv-x="489" d="M354 571 C363 571 368 576 370 585 L330 703 C327 711 323 717 315 717 L254 717 C246 717 240 712 238 703 L278 585 C281 577 285 571 293 571 L354 571 Z M360 105 C344 93 320 80 287 80 L238 80 C205 80 175 111 180 146 L190 216 L446 216 C454 216 460 221 461 229 L481 374 C491 446 446 520 357 520 L282 520 C195 520 127 446 117 374 L84 141 C74 69 121 -5 208 -5 L275 -5 C275 -5 361 -5 418 56 C421 59 422 61 422 64 C423 67 420 71 419 73 L380 108 C377 110 375 111 372 111 C368 111 364 107 360 105 L360 105 Z M211 369 C216 404 255 435 288 435 L329 435 C362 435 390 404 385 369 L376 301 L202 301 L211 369 Z " />
<glyph glyph-name="eacute" unicode="&#xe9;" horiz-adv-x="489" d="M361 571 C369 571 375 577 380 585 L452 703 C454 712 448 717 440 717 L379 717 C371 717 365 711 360 703 L288 585 C286 576 291 571 300 571 L361 571 Z M360 105 C344 93 320 80 287 80 L238 80 C205 80 175 111 180 146 L190 216 L446 216 C454 216 460 221 461 229 L481 374 C491 446 446 520 357 520 L282 520 C195 520 127 446 117 374 L84 141 C74 69 121 -5 208 -5 L275 -5 C275 -5 361 -5 418 56 C421 59 422 61 422 64 C423 67 420 71 419 73 L380 108 C377 110 375 111 372 111 C368 111 364 107 360 105 L360 105 Z M211 369 C216 404 255 435 288 435 L329 435 C362 435 390 404 385 369 L376 301 L202 301 L211 369 Z " />
<glyph glyph-name="ecircumflex" unicode="&#xea;" horiz-adv-x="489" d="M313 745 C305 745 299 740 293 731 L199 583 C198 576 203 571 211 571 L274 571 C280 571 286 577 289 583 L338 660 L365 583 C368 577 372 571 378 571 L441 571 C449 571 454 576 455 583 L403 731 C401 740 395 745 387 745 L313 745 Z M360 105 C344 93 320 80 287 80 L238 80 C205 80 175 111 180 146 L190 216 L446 216 C454 216 460 221 461 229 L481 374 C491 446 446 520 357 520 L282 520 C195 520 127 446 117 374 L84 141 C74 69 121 -5 208 -5 L275 -5 C275 -5 361 -5 418 56 C421 59 422 61 422 64 C423 67 420 71 419 73 L380 108 C377 110 375 111 372 111 C368 111 364 107 360 105 L360 105 Z M211 369 C216 404 255 435 288 435 L329 435 C362 435 390 404 385 369 L376 301 L202 301 L211 369 Z " />
<glyph glyph-name="edieresis" unicode="&#xeb;" horiz-adv-x="489" d="M199 586 C198 577 203 571 212 571 L283 571 C292 571 299 577 300 586 L311 663 C312 672 307 678 298 678 L227 678 C218 678 211 672 210 663 L199 586 Z M362 586 C361 577 366 571 375 571 L446 571 C455 571 462 577 463 586 L474 663 C475 672 470 678 461 678 L390 678 C381 678 374 672 373 663 L362 586 Z M360 105 C344 93 320 80 287 80 L238 80 C205 80 175 111 180 146 L190 216 L446 216 C454 216 460 221 461 229 L481 374 C491 446 446 520 357 520 L282 520 C195 520 127 446 117 374 L84 141 C74 69 121 -5 208 -5 L275 -5 C275 -5 361 -5 418 56 C421 59 422 61 422 64 C423 67 420 71 419 73 L380 108 C377 110 375 111 372 111 C368 111 364 107 360 105 L360 105 Z M211 369 C216 404 255 435 288 435 L329 435 C362 435 390 404 385 369 L376 301 L202 301 L211 369 Z " />
<glyph glyph-name="igrave" unicode="&#xec;" horiz-adv-x="255" d="M81 13 C80 5 85 0 93 0 L162 0 C170 0 175 5 176 13 L245 502 C246 510 242 515 234 515 L165 515 C157 515 151 510 150 502 L81 13 Z M235 571 C244 571 249 576 251 585 L211 703 C208 711 204 717 196 717 L135 717 C127 717 121 712 119 703 L159 585 C162 577 166 571 174 571 L235 571 Z " />
<glyph glyph-name="iacute" unicode="&#xed;" horiz-adv-x="255" d="M245 502 C246 510 242 515 234 515 L165 515 C157 515 151 510 150 502 L81 13 C80 5 85 0 93 0 L162 0 C170 0 175 5 176 13 L245 502 Z M241 571 C249 571 255 577 260 585 L332 703 C334 712 328 717 320 717 L259 717 C251 717 245 711 240 703 L168 585 C166 576 171 571 180 571 L241 571 Z " />
<glyph glyph-name="icircumflex" unicode="&#xee;" horiz-adv-x="255" d="M81 13 C80 5 85 0 93 0 L162 0 C170 0 175 5 176 13 L245 502 C246 510 242 515 234 515 L165 515 C157 515 151 510 150 502 L81 13 Z M194 742 C186 742 179 737 174 728 L80 580 C79 573 83 568 91 568 L154 568 C160 568 166 574 170 580 L219 657 L246 580 C248 574 252 568 258 568 L321 568 C329 568 335 573 336 580 L284 728 C281 737 276 742 268 742 L194 742 Z " />
<glyph glyph-name="idieresis" unicode="&#xef;" horiz-adv-x="255" d="M81 13 C80 5 85 0 93 0 L162 0 C170 0 175 5 176 13 L245 502 C246 510 242 515 234 515 L165 515 C157 515 151 510 150 502 L81 13 Z M77 586 C76 577 81 571 90 571 L161 571 C170 571 177 577 178 586 L189 663 C190 672 185 678 176 678 L105 678 C96 678 89 672 88 663 L77 586 Z M240 586 C239 577 244 571 253 571 L324 571 C333 571 340 577 341 586 L352 663 C353 672 348 678 339 678 L268 678 C259 678 252 672 251 663 L240 586 Z " />
<glyph glyph-name="eth" unicode="&#xf0;" horiz-adv-x="569" d="M256 558 L132 407 C128 400 125 394 124 385 L91 155 C79 67 144 -5 237 -5 L341 -5 C432 -5 518 67 530 155 L545 262 C558 349 492 421 401 421 L304 421 C293 421 271 421 237 403 L228 403 L356 558 L489 558 C496 558 500 562 501 569 L509 621 C510 628 506 632 499 632 L418 632 L463 687 C464 695 462 700 454 700 L385 700 C378 700 369 694 364 687 L317 632 L201 632 C194 632 190 628 189 621 L181 569 C180 562 184 558 191 558 L256 558 Z M257 80 C215 80 181 118 188 164 L200 251 C207 299 251 336 293 336 L379 336 C422 336 456 299 449 251 L437 164 C430 118 386 80 343 80 L257 80 Z " />
<glyph glyph-name="ntilde" unicode="&#xf1;" horiz-adv-x="524" d="M360 13 C359 5 364 0 372 0 L441 0 C449 0 454 5 455 13 L506 371 C517 454 478 520 392 520 L361 520 C341 520 286 519 247 459 L239 459 L245 502 C246 510 242 515 234 515 L165 515 C157 515 151 510 150 502 L81 13 C80 5 85 0 93 0 L162 0 C170 0 175 5 176 13 L225 359 C272 434 326 435 354 435 L362 435 C399 435 415 405 408 353 L360 13 Z M404 571 C423 571 447 579 469 591 C474 594 478 599 479 605 L471 657 C470 663 465 665 460 665 C458 665 456 665 453 664 C439 660 423 656 416 656 C361 656 356 698 304 698 C285 698 260 690 239 678 C233 675 230 670 229 664 L237 612 C238 606 242 604 247 604 C249 604 251 604 255 605 C268 609 285 613 292 613 C347 613 351 571 404 571 L404 571 Z " />
<glyph glyph-name="ograve" unicode="&#xf2;" horiz-adv-x="494" d="M353 571 C362 571 367 576 369 585 L329 703 C326 711 322 717 314 717 L253 717 C245 717 239 712 237 703 L277 585 C280 577 284 571 292 571 L353 571 Z M282 520 C195 520 127 446 117 374 L84 141 C74 69 121 -5 208 -5 L283 -5 C371 -5 438 69 448 141 L481 374 C491 446 445 520 358 520 L282 520 Z M238 80 C205 80 175 111 180 146 L211 369 C216 404 255 435 288 435 L328 435 C361 435 390 404 385 369 L354 146 C349 111 311 80 278 80 L238 80 Z " />
<glyph glyph-name="oacute" unicode="&#xf3;" horiz-adv-x="494" d="M361 571 C369 571 375 577 380 585 L452 703 C454 712 448 717 440 717 L379 717 C371 717 365 711 360 703 L288 585 C286 576 291 571 300 571 L361 571 Z M282 520 C195 520 127 446 117 374 L84 141 C74 69 121 -5 208 -5 L283 -5 C371 -5 438 69 448 141 L481 374 C491 446 445 520 358 520 L282 520 Z M238 80 C205 80 175 111 180 146 L211 369 C216 404 255 435 288 435 L328 435 C361 435 390 404 385 369 L354 146 C349 111 311 80 278 80 L238 80 Z " />
<glyph glyph-name="ocircumflex" unicode="&#xf4;" horiz-adv-x="494" d="M314 745 C306 745 300 740 294 731 L200 583 C199 576 204 571 212 571 L275 571 C281 571 287 577 290 583 L339 660 L366 583 C369 577 373 571 379 571 L442 571 C450 571 455 576 456 583 L404 731 C402 740 396 745 388 745 L314 745 Z M282 520 C195 520 127 446 117 374 L84 141 C74 69 121 -5 208 -5 L283 -5 C371 -5 438 69 448 141 L481 374 C491 446 445 520 358 520 L282 520 Z M238 80 C205 80 175 111 180 146 L211 369 C216 404 255 435 288 435 L328 435 C361 435 390 404 385 369 L354 146 C349 111 311 80 278 80 L238 80 Z " />
<glyph glyph-name="otilde" unicode="&#xf5;" horiz-adv-x="494" d="M282 520 C195 520 127 446 117 374 L84 141 C74 69 121 -5 208 -5 L283 -5 C371 -5 438 69 448 141 L481 374 C491 446 445 520 358 520 L282 520 Z M238 80 C205 80 175 111 180 146 L211 369 C216 404 255 435 288 435 L328 435 C361 435 390 404 385 369 L354 146 C349 111 311 80 278 80 L238 80 Z M383 571 C402 571 426 579 448 591 C453 594 457 599 458 605 L450 657 C449 663 444 665 439 665 C437 665 435 665 432 664 C418 660 402 656 395 656 C340 656 335 698 283 698 C264 698 239 690 218 678 C212 675 209 670 208 664 L216 612 C217 606 221 604 226 604 C228 604 230 604 234 605 C247 609 264 613 271 613 C326 613 330 571 383 571 L383 571 Z " />
<glyph glyph-name="odieresis" unicode="&#xf6;" horiz-adv-x="494" d="M197 586 C196 577 201 571 210 571 L281 571 C290 571 297 577 298 586 L309 663 C310 672 305 678 296 678 L225 678 C216 678 209 672 208 663 L197 586 Z M360 586 C359 577 364 571 373 571 L444 571 C453 571 460 577 461 586 L472 663 C473 672 468 678 459 678 L388 678 C379 678 372 672 371 663 L360 586 Z M282 520 C195 520 127 446 117 374 L84 141 C74 69 121 -5 208 -5 L283 -5 C371 -5 438 69 448 141 L481 374 C491 446 445 520 358 520 L282 520 Z M238 80 C205 80 175 111 180 146 L211 369 C216 404 255 435 288 435 L328 435 C361 435 390 404 385 369 L354 146 C349 111 311 80 278 80 L238 80 Z " />
<glyph glyph-name="divide" unicode="&#xf7;" horiz-adv-x="433" d="M124 226 C116 226 111 221 109 213 L102 163 C101 155 106 150 114 150 L361 150 C369 150 374 155 375 163 L382 213 C384 221 379 226 371 226 L124 226 Z M211 301 C210 294 213 289 221 289 L292 289 C299 289 305 294 306 301 L315 369 C316 376 312 381 305 381 L234 381 C226 381 221 376 220 369 L211 301 Z M169 7 C169 0 172 -5 180 -5 L251 -5 C258 -5 264 0 264 7 L274 75 C275 82 271 87 264 87 L193 87 C185 87 180 82 179 75 L169 7 Z " />
<glyph glyph-name="oslash" unicode="&#xf8;" horiz-adv-x="494" d="M69 -78 C67 -86 72 -91 80 -91 L153 -91 C161 -91 164 -86 169 -78 L202 -5 L283 -5 C371 -5 438 69 448 141 L481 374 C488 420 470 468 434 495 L480 593 C481 601 477 606 469 606 L396 606 C388 606 384 601 380 593 L346 520 L282 520 C195 520 127 446 117 374 L84 141 C79 100 91 59 119 30 L69 -78 Z M385 369 L354 146 C349 111 311 80 278 80 L242 80 L384 388 C385 382 386 375 385 369 L385 369 Z M211 369 C216 404 255 435 288 435 L307 435 L183 169 L211 369 Z " />
<glyph glyph-name="ugrave" unicode="&#xf9;" horiz-adv-x="504" d="M358 571 C367 571 372 576 374 585 L334 703 C331 711 327 717 319 717 L258 717 C250 717 244 712 242 703 L282 585 C285 577 289 571 297 571 L358 571 Z M359 146 C354 111 316 80 283 80 L243 80 C210 80 180 111 185 146 L235 502 C236 510 232 515 224 515 L155 515 C147 515 141 510 140 502 L89 141 C79 69 126 -5 213 -5 L288 -5 C376 -5 443 69 453 141 L504 502 C505 510 501 515 493 515 L424 515 C416 515 410 510 409 502 L359 146 Z " />
<glyph glyph-name="uacute" unicode="&#xfa;" horiz-adv-x="504" d="M366 571 C374 571 380 577 385 585 L457 703 C459 712 453 717 445 717 L384 717 C376 717 370 711 365 703 L293 585 C291 576 296 571 305 571 L366 571 Z M359 146 C354 111 316 80 283 80 L243 80 C210 80 180 111 185 146 L235 502 C236 510 232 515 224 515 L155 515 C147 515 141 510 140 502 L89 141 C79 69 126 -5 213 -5 L288 -5 C376 -5 443 69 453 141 L504 502 C505 510 501 515 493 515 L424 515 C416 515 410 510 409 502 L359 146 Z " />
<glyph glyph-name="ucircumflex" unicode="&#xfb;" horiz-adv-x="504" d="M319 745 C311 745 305 740 299 731 L205 583 C204 576 209 571 217 571 L280 571 C286 571 292 577 295 583 L344 660 L371 583 C374 577 378 571 384 571 L447 571 C455 571 460 576 461 583 L409 731 C407 740 401 745 393 745 L319 745 Z M359 146 C354 111 316 80 283 80 L243 80 C210 80 180 111 185 146 L235 502 C236 510 232 515 224 515 L155 515 C147 515 141 510 140 502 L89 141 C79 69 126 -5 213 -5 L288 -5 C376 -5 443 69 453 141 L504 502 C505 510 501 515 493 515 L424 515 C416 515 410 510 409 502 L359 146 Z " />
<glyph glyph-name="udieresis" unicode="&#xfc;" horiz-adv-x="504" d="M202 586 C201 577 206 571 215 571 L286 571 C295 571 302 577 303 586 L314 663 C315 672 310 678 301 678 L230 678 C221 678 214 672 213 663 L202 586 Z M365 586 C364 577 369 571 378 571 L449 571 C458 571 465 577 466 586 L477 663 C478 672 473 678 464 678 L393 678 C384 678 377 672 376 663 L365 586 Z M359 146 C354 111 316 80 283 80 L243 80 C210 80 180 111 185 146 L235 502 C236 510 232 515 224 515 L155 515 C147 515 141 510 140 502 L89 141 C79 69 126 -5 213 -5 L288 -5 C376 -5 443 69 453 141 L504 502 C505 510 501 515 493 515 L424 515 C416 515 410 510 409 502 L359 146 Z " />
<glyph glyph-name="yacute" unicode="&#xfd;" horiz-adv-x="466" d="M360 571 C368 571 374 577 379 585 L451 703 C453 712 447 717 439 717 L378 717 C370 717 364 711 359 703 L287 585 C285 576 290 571 299 571 L360 571 Z M166 -52 C157 -86 129 -118 76 -118 L42 -118 C34 -118 28 -123 27 -131 L19 -190 C18 -198 22 -203 30 -203 L92 -203 C135 -203 231 -181 301 -11 L511 502 C512 510 508 515 500 515 L427 515 C419 515 415 510 411 502 L251 97 L241 97 L195 502 C193 510 191 515 183 515 L110 515 C102 515 96 510 95 502 L166 -52 Z " />
<glyph glyph-name="thorn" unicode="&#xfe;" horiz-adv-x="518" d="M226 369 C231 404 270 435 303 435 L357 435 C391 435 419 404 414 369 L383 146 C378 111 341 80 307 80 L253 80 C220 80 190 111 195 146 L226 369 Z M271 687 C272 695 268 700 260 700 L191 700 C183 700 177 695 176 687 L57 -161 C56 -169 60 -174 68 -174 L137 -174 C145 -174 151 -169 152 -161 L179 32 L187 32 C205 1 248 -5 268 -5 L311 -5 C398 -5 466 58 478 143 L510 372 C522 457 472 520 385 520 L342 520 C322 520 277 514 250 483 L242 483 L271 687 Z " />
<glyph glyph-name="ydieresis" unicode="&#xff;" horiz-adv-x="466" d="M183 586 C182 577 187 571 196 571 L267 571 C276 571 283 577 284 586 L295 663 C296 672 291 678 282 678 L211 678 C202 678 195 672 194 663 L183 586 Z M346 586 C345 577 350 571 359 571 L430 571 C439 571 446 577 447 586 L458 663 C459 672 454 678 445 678 L374 678 C365 678 358 672 357 663 L346 586 Z M166 -52 C157 -86 129 -118 76 -118 L42 -118 C34 -118 28 -123 27 -131 L19 -190 C18 -198 22 -203 30 -203 L92 -203 C135 -203 231 -181 301 -11 L511 502 C512 510 508 515 500 515 L427 515 C419 515 415 510 411 502 L251 97 L241 97 L195 502 C193 510 191 515 183 515 L110 515 C102 515 96 510 95 502 L166 -52 Z " />
<glyph glyph-name="Amacron" unicode="&#x100;" horiz-adv-x="588" d="M311 836 C303 836 297 831 296 823 L288 764 C287 756 291 751 299 751 L499 751 C507 751 513 756 514 764 L522 823 C523 831 519 836 511 836 L311 836 Z M346 700 C338 700 334 695 331 687 L36 13 C35 5 40 0 48 0 L121 0 C129 0 132 5 136 13 L183 125 L438 125 L454 13 C456 5 459 0 467 0 L540 0 C548 0 553 5 554 13 L449 687 C448 695 446 700 438 700 L346 700 Z M367 557 L377 557 L426 210 L219 210 L367 557 Z " />
<glyph glyph-name="amacron" unicode="&#x101;" horiz-adv-x="490" d="M226 80 C191 80 170 111 175 146 L177 161 C182 196 211 225 246 225 L361 225 L350 146 C345 111 314 80 280 80 L226 80 Z M176 500 C169 497 166 494 165 488 C165 486 164 482 171 429 C172 420 175 420 182 420 C236 429 261 435 294 435 C391 435 381 368 377 335 L373 310 L249 310 C163 310 96 260 85 178 L77 124 C65 42 119 -5 205 -5 L235 -5 C275 -5 303 7 326 32 L334 32 L331 13 C330 5 335 0 343 0 L412 0 C420 0 425 5 426 13 L472 336 C478 382 497 520 316 520 C239 520 203 510 176 500 L176 500 Z M262 656 C254 656 248 651 247 643 L239 584 C237 576 242 571 250 571 L448 571 C456 571 461 576 463 584 L471 643 C472 651 468 656 460 656 L262 656 Z " />
<glyph glyph-name="Abreve" unicode="&#x102;" horiz-adv-x="588" d="M346 700 C338 700 334 695 331 687 L36 13 C35 5 40 0 48 0 L121 0 C129 0 132 5 136 13 L183 125 L438 125 L454 13 C456 5 459 0 467 0 L540 0 C548 0 553 5 554 13 L449 687 C448 695 446 700 438 700 L346 700 Z M367 557 L377 557 L426 210 L219 210 L367 557 Z M399 751 C486 751 538 798 566 886 C567 895 562 901 553 901 L498 901 C490 901 483 895 479 886 C460 843 440 832 410 832 C380 832 364 843 357 886 C355 895 350 901 342 901 L287 901 C278 901 271 895 270 886 C274 798 312 751 399 751 L399 751 Z " />
<glyph glyph-name="abreve" unicode="&#x103;" horiz-adv-x="490" d="M226 80 C191 80 170 111 175 146 L177 161 C182 196 211 225 246 225 L361 225 L350 146 C345 111 314 80 280 80 L226 80 Z M176 500 C169 497 166 494 165 488 C165 486 164 482 171 429 C172 420 175 420 182 420 C236 429 261 435 294 435 C391 435 381 368 377 335 L373 310 L249 310 C163 310 96 260 85 178 L77 124 C65 42 119 -5 205 -5 L235 -5 C275 -5 303 7 326 32 L334 32 L331 13 C330 5 335 0 343 0 L412 0 C420 0 425 5 426 13 L472 336 C478 382 497 520 316 520 C239 520 203 510 176 500 L176 500 Z M343 571 C430 571 481 618 510 706 C511 715 506 721 497 721 L442 721 C434 721 427 715 423 706 C404 663 384 652 354 652 C324 652 308 663 301 706 C299 715 294 721 286 721 L231 721 C222 721 215 715 214 706 C217 618 256 571 343 571 L343 571 Z " />
<glyph glyph-name="Aogonek" unicode="&#x104;" horiz-adv-x="588" d="M367 557 L377 557 L426 210 L219 210 L367 557 Z M449 44 C375 28 368 -13 363 -44 C358 -82 380 -118 429 -118 L506 -118 C511 -118 515 -114 516 -109 L521 -78 C521 -73 518 -69 513 -69 L453 -69 C453 -69 415 -69 420 -34 C422 -17 434 0 467 0 L540 0 C548 0 553 5 554 13 L449 687 C448 695 446 700 438 700 L346 700 C338 700 334 695 331 687 L36 13 C35 5 40 0 48 0 L121 0 C129 0 132 5 136 13 L183 125 L438 125 L449 44 Z " />
<glyph glyph-name="aogonek" unicode="&#x105;" horiz-adv-x="490" d="M226 80 C191 80 170 111 175 146 L177 161 C182 196 211 225 246 225 L361 225 L350 146 C345 111 314 80 280 80 L226 80 Z M472 336 C478 382 497 520 316 520 C239 520 203 510 176 500 C169 497 166 494 165 488 C165 486 164 482 171 429 C172 420 175 420 182 420 C236 429 261 435 294 435 C391 435 381 368 377 335 L373 310 L249 310 C163 310 96 260 85 178 L77 124 C65 42 119 -5 205 -5 L235 -5 C275 -5 303 7 326 32 L334 32 L327 -20 C284 -26 265 -56 261 -85 C252 -144 275 -155 322 -155 L384 -155 C389 -155 393 -151 394 -146 L398 -115 C399 -110 396 -106 391 -106 L346 -106 C346 -106 318 -106 321 -85 C324 -62 352 -62 352 -62 L403 -62 C411 -62 416 -57 418 -49 L472 336 Z " />
<glyph glyph-name="Cacute" unicode="&#x106;" horiz-adv-x="564" d="M430 751 C438 751 444 757 449 765 L522 883 C523 892 518 897 510 897 L449 897 C441 897 435 891 430 883 L357 765 C356 756 360 751 369 751 L430 751 Z M437 165 C430 117 385 80 343 80 L258 80 C216 80 181 117 188 165 L240 535 C246 581 292 620 334 620 L419 620 C461 620 495 581 489 535 L484 502 C483 494 487 489 495 489 L564 489 C572 489 578 494 579 502 L585 545 C597 633 533 705 440 705 L337 705 C244 705 158 633 146 545 L91 155 C79 67 144 -5 237 -5 L340 -5 C433 -5 518 67 530 155 L536 193 C537 201 532 206 524 206 L455 206 C447 206 442 201 441 193 L437 165 Z " />
<glyph glyph-name="cacute" unicode="&#x107;" horiz-adv-x="474" d="M361 571 C369 571 375 577 380 585 L452 703 C454 712 448 717 440 717 L379 717 C371 717 365 711 360 703 L288 585 C286 576 291 571 300 571 L361 571 Z M451 157 C452 165 447 170 439 170 L370 170 C362 170 357 165 356 157 L354 146 C349 111 312 80 279 80 L238 80 C205 80 175 111 180 146 L211 369 C216 404 255 435 288 435 L329 435 C362 435 390 404 385 369 L384 358 C383 350 387 345 395 345 L464 345 C472 345 478 350 479 358 L481 374 C491 446 446 520 357 520 L282 520 C195 520 127 446 117 374 L84 141 C74 69 121 -5 208 -5 L283 -5 C372 -5 438 69 448 141 L451 157 Z " />
<glyph glyph-name="Ccircumflex" unicode="&#x108;" horiz-adv-x="564" d="M380 925 C372 925 365 920 360 911 L266 763 C265 756 269 751 277 751 L340 751 C346 751 352 757 356 763 L405 840 L432 763 C434 757 438 751 444 751 L507 751 C515 751 521 756 522 763 L470 911 C467 920 462 925 454 925 L380 925 Z M437 165 C430 117 385 80 343 80 L258 80 C216 80 181 117 188 165 L240 535 C246 581 292 620 334 620 L419 620 C461 620 495 581 489 535 L484 502 C483 494 487 489 495 489 L564 489 C572 489 578 494 579 502 L585 545 C597 633 533 705 440 705 L337 705 C244 705 158 633 146 545 L91 155 C79 67 144 -5 237 -5 L340 -5 C433 -5 518 67 530 155 L536 193 C537 201 532 206 524 206 L455 206 C447 206 442 201 441 193 L437 165 Z " />
<glyph glyph-name="ccircumflex" unicode="&#x109;" horiz-adv-x="474" d="M313 745 C305 745 299 740 293 731 L199 583 C198 576 203 571 211 571 L274 571 C280 571 286 577 289 583 L338 660 L365 583 C368 577 372 571 378 571 L441 571 C449 571 454 576 455 583 L403 731 C401 740 395 745 387 745 L313 745 Z M451 157 C452 165 447 170 439 170 L370 170 C362 170 357 165 356 157 L354 146 C349 111 312 80 279 80 L238 80 C205 80 175 111 180 146 L211 369 C216 404 255 435 288 435 L329 435 C362 435 390 404 385 369 L384 358 C383 350 387 345 395 345 L464 345 C472 345 478 350 479 358 L481 374 C491 446 446 520 357 520 L282 520 C195 520 127 446 117 374 L84 141 C74 69 121 -5 208 -5 L283 -5 C372 -5 438 69 448 141 L451 157 Z " />
<glyph glyph-name="Cdotaccent" unicode="&#x10a;" horiz-adv-x="564" d="M347 766 C346 757 351 751 360 751 L431 751 C440 751 447 757 448 766 L459 843 C460 852 455 858 446 858 L375 858 C366 858 359 852 358 843 L347 766 Z M437 165 C430 117 385 80 343 80 L258 80 C216 80 181 117 188 165 L240 535 C246 581 292 620 334 620 L419 620 C461 620 495 581 489 535 L484 502 C483 494 487 489 495 489 L564 489 C572 489 578 494 579 502 L585 545 C597 633 533 705 440 705 L337 705 C244 705 158 633 146 545 L91 155 C79 67 144 -5 237 -5 L340 -5 C433 -5 518 67 530 155 L536 193 C537 201 532 206 524 206 L455 206 C447 206 442 201 441 193 L437 165 Z " />
<glyph glyph-name="cdotaccent" unicode="&#x10b;" horiz-adv-x="474" d="M279 586 C278 577 283 571 292 571 L363 571 C372 571 379 577 380 586 L391 663 C392 672 387 678 378 678 L307 678 C298 678 291 672 290 663 L279 586 Z M451 157 C452 165 447 170 439 170 L370 170 C362 170 357 165 356 157 L354 146 C349 111 312 80 279 80 L238 80 C205 80 175 111 180 146 L211 369 C216 404 255 435 288 435 L329 435 C362 435 390 404 385 369 L384 358 C383 350 387 345 395 345 L464 345 C472 345 478 350 479 358 L481 374 C491 446 446 520 357 520 L282 520 C195 520 127 446 117 374 L84 141 C74 69 121 -5 208 -5 L283 -5 C372 -5 438 69 448 141 L451 157 Z " />
<glyph glyph-name="Ccaron" unicode="&#x10c;" horiz-adv-x="564" d="M432 751 C440 751 447 756 452 765 L546 913 C547 920 543 925 535 925 L472 925 C466 925 460 919 456 913 L407 836 L380 913 C378 919 374 925 368 925 L305 925 C297 925 291 920 290 913 L342 765 C345 756 350 751 358 751 L432 751 Z M437 165 C430 117 385 80 343 80 L258 80 C216 80 181 117 188 165 L240 535 C246 581 292 620 334 620 L419 620 C461 620 495 581 489 535 L484 502 C483 494 487 489 495 489 L564 489 C572 489 578 494 579 502 L585 545 C597 633 533 705 440 705 L337 705 C244 705 158 633 146 545 L91 155 C79 67 144 -5 237 -5 L340 -5 C433 -5 518 67 530 155 L536 193 C537 201 532 206 524 206 L455 206 C447 206 442 201 441 193 L437 165 Z " />
<glyph glyph-name="ccaron" unicode="&#x10d;" horiz-adv-x="474" d="M451 157 C452 165 447 170 439 170 L370 170 C362 170 357 165 356 157 L354 146 C349 111 312 80 279 80 L238 80 C205 80 175 111 180 146 L211 369 C216 404 255 435 288 435 L329 435 C362 435 390 404 385 369 L384 358 C383 350 387 345 395 345 L464 345 C472 345 478 350 479 358 L481 374 C491 446 446 520 357 520 L282 520 C195 520 127 446 117 374 L84 141 C74 69 121 -5 208 -5 L283 -5 C372 -5 438 69 448 141 L451 157 Z M365 571 C373 571 379 576 385 585 L479 733 C480 740 475 745 467 745 L404 745 C398 745 392 739 389 733 L340 656 L313 733 C310 739 306 745 300 745 L237 745 C229 745 224 740 223 733 L275 585 C277 576 283 571 291 571 L365 571 Z " />
<glyph glyph-name="Dcaron" unicode="&#x10e;" horiz-adv-x="589" d="M404 751 C412 751 419 756 424 765 L518 913 C519 920 515 925 507 925 L444 925 C438 925 432 919 428 913 L379 836 L352 913 C350 919 346 925 340 925 L277 925 C269 925 263 920 262 913 L314 765 C317 756 322 751 330 751 L404 751 Z M428 615 C471 615 504 575 498 530 L447 170 C441 122 396 85 353 85 L186 85 L261 615 L428 615 Z M352 0 C444 0 529 72 541 161 L594 539 C607 628 542 700 450 700 L191 700 C183 700 177 695 176 687 L81 13 C80 5 85 0 93 0 L352 0 Z " />
<glyph glyph-name="dcaron" unicode="&#x10f;" horiz-adv-x="728" d="M710 550 C719 550 725 556 730 564 L804 686 C805 695 800 700 792 700 L731 700 C722 700 716 694 711 686 L637 564 C636 555 640 550 649 550 L710 550 Z M410 483 L402 483 C385 514 342 520 322 520 L279 520 C192 520 124 457 112 372 L80 143 C68 58 118 -5 205 -5 L248 -5 C268 -5 313 1 339 32 L347 32 L344 13 C343 5 348 0 356 0 L425 0 C433 0 438 5 439 13 L534 687 C535 695 531 700 523 700 L454 700 C446 700 440 695 439 687 L410 483 Z M363 146 C358 111 320 80 287 80 L233 80 C199 80 170 111 175 146 L206 369 C211 404 249 435 283 435 L337 435 C370 435 399 404 394 369 L363 146 Z " />
<glyph glyph-name="Dcroat" unicode="&#x110;" horiz-adv-x="605" d="M88 393 C80 393 74 388 73 380 L65 321 C63 313 68 308 76 308 L139 308 L97 13 C96 5 101 0 109 0 L368 0 C460 0 545 72 557 161 L610 539 C623 628 558 700 466 700 L207 700 C199 700 193 695 192 687 L151 393 L88 393 Z M444 615 C487 615 520 575 514 530 L463 170 C457 122 412 85 369 85 L202 85 L234 308 L308 308 C316 308 321 313 323 321 L331 380 C332 388 328 393 320 393 L246 393 L277 615 L444 615 Z " />
<glyph glyph-name="dcroat" unicode="&#x111;" horiz-adv-x="518" d="M421 559 L410 483 L402 483 C385 514 342 520 322 520 L279 520 C192 520 124 457 112 372 L80 143 C68 58 118 -5 205 -5 L248 -5 C268 -5 313 1 339 32 L347 32 L344 13 C343 5 348 0 356 0 L425 0 C433 0 438 5 439 13 L516 559 L563 559 C571 559 577 564 578 572 L586 631 C587 639 583 644 575 644 L528 644 L534 687 C535 695 531 700 523 700 L454 700 C446 700 440 695 439 687 L433 644 L343 644 C335 644 329 639 328 631 L320 572 C319 564 323 559 331 559 L421 559 Z M363 146 C358 111 320 80 287 80 L233 80 C199 80 170 111 175 146 L206 369 C211 404 249 435 283 435 L337 435 C370 435 399 404 394 369 L363 146 Z " />
<glyph glyph-name="Emacron" unicode="&#x112;" horiz-adv-x="513" d="M279 836 C271 836 265 831 264 823 L256 764 C255 756 259 751 267 751 L467 751 C475 751 481 756 482 764 L490 823 C491 831 487 836 479 836 L279 836 Z M81 13 C80 5 85 0 93 0 L430 0 C438 0 443 5 444 13 L453 72 C454 80 449 85 441 85 L186 85 L216 293 L447 293 C455 293 460 298 462 306 L470 365 C471 373 467 378 459 378 L228 378 L261 615 L516 615 C524 615 530 620 531 628 L539 687 C540 695 536 700 528 700 L191 700 C183 700 177 695 176 687 L81 13 Z " />
<glyph glyph-name="emacron" unicode="&#x113;" horiz-adv-x="489" d="M222 656 C214 656 208 651 207 643 L199 584 C197 576 202 571 210 571 L442 571 C450 571 455 576 457 584 L465 643 C466 651 462 656 454 656 L222 656 Z M360 105 C344 93 320 80 287 80 L238 80 C205 80 175 111 180 146 L190 216 L446 216 C454 216 460 221 461 229 L481 374 C491 446 446 520 357 520 L282 520 C195 520 127 446 117 374 L84 141 C74 69 121 -5 208 -5 L275 -5 C275 -5 361 -5 418 56 C421 59 422 61 422 64 C423 67 420 71 419 73 L380 108 C377 110 375 111 372 111 C368 111 364 107 360 105 L360 105 Z M211 369 C216 404 255 435 288 435 L329 435 C362 435 390 404 385 369 L376 301 L202 301 L211 369 Z " />
<glyph glyph-name="Edotaccent" unicode="&#x116;" horiz-adv-x="513" d="M318 766 C317 757 322 751 331 751 L402 751 C411 751 418 757 419 766 L430 843 C431 852 426 858 417 858 L346 858 C337 858 330 852 329 843 L318 766 Z M81 13 C80 5 85 0 93 0 L430 0 C438 0 443 5 444 13 L453 72 C454 80 449 85 441 85 L186 85 L216 293 L447 293 C455 293 460 298 462 306 L470 365 C471 373 467 378 459 378 L228 378 L261 615 L516 615 C524 615 530 620 531 628 L539 687 C540 695 536 700 528 700 L191 700 C183 700 177 695 176 687 L81 13 Z " />
<glyph glyph-name="edotaccent" unicode="&#x117;" horiz-adv-x="489" d="M279 586 C278 577 283 571 292 571 L363 571 C372 571 379 577 380 586 L391 663 C392 672 387 678 378 678 L307 678 C298 678 291 672 290 663 L279 586 Z M360 105 C344 93 320 80 287 80 L238 80 C205 80 175 111 180 146 L190 216 L446 216 C454 216 460 221 461 229 L481 374 C491 446 446 520 357 520 L282 520 C195 520 127 446 117 374 L84 141 C74 69 121 -5 208 -5 L275 -5 C275 -5 361 -5 418 56 C421 59 422 61 422 64 C423 67 420 71 419 73 L380 108 C377 110 375 111 372 111 C368 111 364 107 360 105 L360 105 Z M211 369 C216 404 255 435 288 435 L329 435 C362 435 390 404 385 369 L376 301 L202 301 L211 369 Z " />
<glyph glyph-name="Eogonek" unicode="&#x118;" horiz-adv-x="513" d="M278 0 C266 -14 260 -37 259 -49 C253 -87 276 -118 325 -118 L402 -118 C407 -118 411 -114 412 -109 L417 -78 C417 -73 414 -69 409 -69 L349 -69 C349 -69 311 -69 316 -34 C318 -21 327 -5 339 0 L430 0 C438 0 443 5 444 13 L453 72 C454 80 449 85 441 85 L186 85 L216 293 L447 293 C455 293 460 298 462 306 L470 365 C471 373 467 378 459 378 L228 378 L261 615 L516 615 C524 615 530 620 531 628 L539 687 C540 695 536 700 528 700 L191 700 C183 700 177 695 176 687 L81 13 C80 5 85 0 93 0 L278 0 Z " />
<glyph glyph-name="eogonek" unicode="&#x119;" horiz-adv-x="489" d="M360 105 C344 93 320 80 287 80 L238 80 C205 80 175 111 180 146 L190 216 L446 216 C454 216 460 221 461 229 L481 374 C491 446 446 520 357 520 L282 520 C195 520 127 446 117 374 L84 141 C75 77 110 12 178 -2 C170 -17 164 -37 163 -49 C157 -87 180 -118 229 -118 L306 -118 C311 -118 315 -114 316 -109 L321 -78 C321 -73 318 -69 313 -69 L253 -69 C253 -69 215 -69 220 -34 C222 -21 228 -11 236 -5 L275 -5 C275 -5 361 -5 418 56 C421 59 422 61 422 64 C423 67 420 71 419 73 L380 108 C377 110 375 111 372 111 C368 111 364 107 360 105 L360 105 Z M211 369 C216 404 255 435 288 435 L329 435 C362 435 390 404 385 369 L376 301 L202 301 L211 369 Z " />
<glyph glyph-name="Ecaron" unicode="&#x11a;" horiz-adv-x="513" d="M409 751 C417 751 424 756 429 765 L523 913 C524 920 520 925 512 925 L449 925 C443 925 437 919 433 913 L384 836 L357 913 C355 919 351 925 345 925 L282 925 C274 925 268 920 267 913 L319 765 C322 756 327 751 335 751 L409 751 Z M81 13 C80 5 85 0 93 0 L430 0 C438 0 443 5 444 13 L453 72 C454 80 449 85 441 85 L186 85 L216 293 L447 293 C455 293 460 298 462 306 L470 365 C471 373 467 378 459 378 L228 378 L261 615 L516 615 C524 615 530 620 531 628 L539 687 C540 695 536 700 528 700 L191 700 C183 700 177 695 176 687 L81 13 Z " />
<glyph glyph-name="ecaron" unicode="&#x11b;" horiz-adv-x="489" d="M364 571 C372 571 378 576 384 585 L478 733 C479 740 474 745 466 745 L403 745 C397 745 391 739 388 733 L339 656 L312 733 C309 739 305 745 299 745 L236 745 C228 745 223 740 222 733 L274 585 C276 576 282 571 290 571 L364 571 Z M360 105 C344 93 320 80 287 80 L238 80 C205 80 175 111 180 146 L190 216 L446 216 C454 216 460 221 461 229 L481 374 C491 446 446 520 357 520 L282 520 C195 520 127 446 117 374 L84 141 C74 69 121 -5 208 -5 L275 -5 C275 -5 361 -5 418 56 C421 59 422 61 422 64 C423 67 420 71 419 73 L380 108 C377 110 375 111 372 111 C368 111 364 107 360 105 L360 105 Z M211 369 C216 404 255 435 288 435 L329 435 C362 435 390 404 385 369 L376 301 L202 301 L211 369 Z " />
<glyph glyph-name="Gcircumflex" unicode="&#x11c;" horiz-adv-x="579" d="M382 925 C374 925 367 920 362 911 L268 763 C267 756 271 751 279 751 L342 751 C348 751 354 757 358 763 L407 840 L434 763 C436 757 440 751 446 751 L509 751 C517 751 523 756 524 763 L472 911 C469 920 464 925 456 925 L382 925 Z M456 299 L437 165 C430 117 385 80 343 80 L258 80 C216 80 181 117 188 165 L240 535 C246 581 292 620 334 620 L419 620 C461 620 495 581 489 535 L484 502 C483 494 487 489 495 489 L564 489 C572 489 578 494 579 502 L585 545 C597 633 533 705 440 705 L337 705 C244 705 158 633 146 545 L91 155 C79 67 144 -5 237 -5 L340 -5 C433 -5 518 67 530 155 L561 371 C562 379 557 384 549 384 L364 384 C356 384 351 379 350 371 L341 312 C340 304 345 299 353 299 L456 299 Z " />
<glyph glyph-name="gcircumflex" unicode="&#x11d;" horiz-adv-x="518" d="M318 745 C310 745 304 740 298 731 L204 583 C203 576 208 571 216 571 L279 571 C285 571 291 577 294 583 L343 660 L370 583 C373 577 377 571 383 571 L446 571 C454 571 459 576 460 583 L408 731 C406 740 400 745 392 745 L318 745 Z M363 146 C358 111 320 80 287 80 L233 80 C199 80 170 111 175 146 L206 369 C211 404 249 435 283 435 L337 435 C370 435 399 404 394 369 L363 146 Z M338 -30 C333 -67 314 -118 229 -118 C172 -118 143 -113 115 -108 C109 -108 104 -108 101 -116 L81 -174 C80 -180 83 -183 88 -185 C115 -194 143 -203 213 -203 C396 -203 427 -76 433 -32 L508 502 C509 510 505 515 497 515 L428 515 C420 515 414 510 413 502 L410 483 L402 483 C385 514 342 520 322 520 L279 520 C192 520 124 457 112 372 L80 143 C68 58 118 -5 205 -5 L248 -5 C268 -5 313 1 339 32 L347 32 L338 -30 Z " />
<glyph glyph-name="Gbreve" unicode="&#x11e;" horiz-adv-x="579" d="M393 751 C481 751 549 798 577 886 C578 895 573 901 564 901 L509 901 C501 901 494 895 490 886 C471 843 435 832 404 832 C374 832 342 843 335 886 C333 895 328 901 320 901 L265 901 C256 901 249 895 248 886 C252 798 306 751 393 751 L393 751 Z M456 299 L437 165 C430 117 385 80 343 80 L258 80 C216 80 181 117 188 165 L240 535 C246 581 292 620 334 620 L419 620 C461 620 495 581 489 535 L484 502 C483 494 487 489 495 489 L564 489 C572 489 578 494 579 502 L585 545 C597 633 533 705 440 705 L337 705 C244 705 158 633 146 545 L91 155 C79 67 144 -5 237 -5 L340 -5 C433 -5 518 67 530 155 L561 371 C562 379 557 384 549 384 L364 384 C356 384 351 379 350 371 L341 312 C340 304 345 299 353 299 L456 299 Z " />
<glyph glyph-name="gbreve" unicode="&#x11f;" horiz-adv-x="518" d="M363 146 C358 111 320 80 287 80 L233 80 C199 80 170 111 175 146 L206 369 C211 404 249 435 283 435 L337 435 C370 435 399 404 394 369 L363 146 Z M338 -30 C333 -67 314 -118 229 -118 C172 -118 143 -113 115 -108 C109 -108 104 -108 101 -116 L81 -174 C80 -180 83 -183 88 -185 C115 -194 143 -203 213 -203 C396 -203 427 -76 433 -32 L508 502 C509 510 505 515 497 515 L428 515 C420 515 414 510 413 502 L410 483 L402 483 C385 514 342 520 322 520 L279 520 C192 520 124 457 112 372 L80 143 C68 58 118 -5 205 -5 L248 -5 C268 -5 313 1 339 32 L347 32 L338 -30 Z M337 571 C424 571 475 618 504 706 C505 715 500 721 491 721 L436 721 C428 721 421 715 417 706 C398 663 378 652 348 652 C318 652 302 663 295 706 C293 715 288 721 280 721 L225 721 C216 721 209 715 208 706 C211 618 250 571 337 571 L337 571 Z " />
<glyph glyph-name="Gdotaccent" unicode="&#x120;" horiz-adv-x="579" d="M350 766 C349 757 354 751 363 751 L434 751 C443 751 450 757 451 766 L462 843 C463 852 458 858 449 858 L378 858 C369 858 362 852 361 843 L350 766 Z M456 299 L437 165 C430 117 385 80 343 80 L258 80 C216 80 181 117 188 165 L240 535 C246 581 292 620 334 620 L419 620 C461 620 495 581 489 535 L484 502 C483 494 487 489 495 489 L564 489 C572 489 578 494 579 502 L585 545 C597 633 533 705 440 705 L337 705 C244 705 158 633 146 545 L91 155 C79 67 144 -5 237 -5 L340 -5 C433 -5 518 67 530 155 L561 371 C562 379 557 384 549 384 L364 384 C356 384 351 379 350 371 L341 312 C340 304 345 299 353 299 L456 299 Z " />
<glyph glyph-name="gdotaccent" unicode="&#x121;" horiz-adv-x="518" d="M277 586 C276 577 281 571 290 571 L361 571 C370 571 377 577 378 586 L389 663 C390 672 385 678 376 678 L305 678 C296 678 289 672 288 663 L277 586 Z M363 146 C358 111 320 80 287 80 L233 80 C199 80 170 111 175 146 L206 369 C211 404 249 435 283 435 L337 435 C370 435 399 404 394 369 L363 146 Z M338 -30 C333 -67 314 -118 229 -118 C172 -118 143 -113 115 -108 C109 -108 104 -108 101 -116 L81 -174 C80 -180 83 -183 88 -185 C115 -194 143 -203 213 -203 C396 -203 427 -76 433 -32 L508 502 C509 510 505 515 497 515 L428 515 C420 515 414 510 413 502 L410 483 L402 483 C385 514 342 520 322 520 L279 520 C192 520 124 457 112 372 L80 143 C68 58 118 -5 205 -5 L248 -5 C268 -5 313 1 339 32 L347 32 L338 -30 Z " />
<glyph glyph-name="uni0122" unicode="&#x122;" horiz-adv-x="579" d="M246 -53 C237 -53 231 -59 226 -67 L167 -179 C166 -188 171 -193 179 -193 L240 -193 C249 -193 255 -187 260 -179 L319 -67 C320 -58 316 -53 307 -53 L246 -53 Z M456 299 L437 165 C430 117 385 80 343 80 L258 80 C216 80 181 117 188 165 L240 535 C246 581 292 620 334 620 L419 620 C461 620 495 581 489 535 L484 502 C483 494 487 489 495 489 L564 489 C572 489 578 494 579 502 L585 545 C597 633 533 705 440 705 L337 705 C244 705 158 633 146 545 L91 155 C79 67 144 -5 237 -5 L340 -5 C433 -5 518 67 530 155 L561 371 C562 379 557 384 549 384 L364 384 C356 384 351 379 350 371 L341 312 C340 304 345 299 353 299 L456 299 Z " />
<glyph glyph-name="uni0123" unicode="&#x123;" horiz-adv-x="518" d="M361 571 C369 571 375 577 380 585 L452 703 C454 712 448 717 440 717 L379 717 C371 717 365 711 360 703 L288 585 C286 576 291 571 300 571 L361 571 Z M363 146 C358 111 320 80 287 80 L233 80 C199 80 170 111 175 146 L206 369 C211 404 249 435 283 435 L337 435 C370 435 399 404 394 369 L363 146 Z M338 -30 C333 -67 314 -118 229 -118 C172 -118 143 -113 115 -108 C109 -108 104 -108 101 -116 L81 -174 C80 -180 83 -183 88 -185 C115 -194 143 -203 213 -203 C396 -203 427 -76 433 -32 L508 502 C509 510 505 515 497 515 L428 515 C420 515 414 510 413 502 L410 483 L402 483 C385 514 342 520 322 520 L279 520 C192 520 124 457 112 372 L80 143 C68 58 118 -5 205 -5 L248 -5 C268 -5 313 1 339 32 L347 32 L338 -30 Z " />
<glyph glyph-name="Hcircumflex" unicode="&#x124;" horiz-adv-x="592" d="M390 925 C382 925 375 920 370 911 L276 763 C275 756 279 751 287 751 L350 751 C356 751 362 757 366 763 L415 840 L442 763 C444 757 448 751 454 751 L517 751 C525 751 531 756 532 763 L480 911 C477 920 472 925 464 925 L390 925 Z M418 13 C417 5 422 0 430 0 L499 0 C507 0 512 5 513 13 L608 687 C609 695 605 700 597 700 L528 700 C520 700 514 695 513 687 L470 381 L228 381 L271 687 C272 695 268 700 260 700 L191 700 C183 700 177 695 176 687 L81 13 C80 5 85 0 93 0 L162 0 C170 0 175 5 176 13 L216 296 L458 296 L418 13 Z " />
<glyph glyph-name="hcircumflex" unicode="&#x125;" horiz-adv-x="524" d="M304 925 C296 925 289 920 284 911 L190 763 C189 756 193 751 201 751 L264 751 C270 751 276 757 280 763 L329 840 L356 763 C358 757 362 751 368 751 L431 751 C439 751 445 756 446 763 L394 911 C391 920 386 925 378 925 L304 925 Z M360 13 C359 5 364 0 372 0 L441 0 C449 0 454 5 455 13 L506 371 C517 454 478 520 392 520 L361 520 C341 520 286 519 247 459 L239 459 L271 687 C272 695 268 700 260 700 L191 700 C183 700 177 695 176 687 L81 13 C80 5 85 0 93 0 L162 0 C170 0 175 5 176 13 L225 359 C272 434 326 435 354 435 L362 435 C399 435 415 405 408 353 L360 13 Z " />
<glyph glyph-name="Hbar" unicode="&#x126;" horiz-adv-x="598" d="M109 544 C101 544 95 539 94 531 L86 472 C85 464 89 459 97 459 L147 459 L84 13 C83 5 88 0 96 0 L165 0 C173 0 178 5 179 13 L219 296 L461 296 L421 13 C420 5 425 0 433 0 L502 0 C510 0 515 5 516 13 L579 459 L629 459 C637 459 643 464 644 472 L652 531 C653 539 649 544 641 544 L591 544 L611 687 C612 695 608 700 600 700 L531 700 C523 700 517 695 516 687 L496 544 L254 544 L274 687 C275 695 271 700 263 700 L194 700 C186 700 180 695 179 687 L159 544 L109 544 Z M231 381 L242 459 L484 459 L473 381 L231 381 Z " />
<glyph glyph-name="hbar" unicode="&#x127;" horiz-adv-x="524" d="M158 559 L81 13 C80 5 85 0 93 0 L162 0 C170 0 175 5 176 13 L225 359 C272 434 326 435 354 435 L362 435 C399 435 415 405 408 353 L360 13 C359 5 364 0 372 0 L441 0 C449 0 454 5 455 13 L506 371 C517 454 478 520 392 520 L361 520 C341 520 286 519 247 459 L239 459 L253 559 L343 559 C351 559 357 564 358 572 L366 631 C367 639 363 644 355 644 L265 644 L271 687 C272 695 268 700 260 700 L191 700 C183 700 177 695 176 687 L170 644 L123 644 C115 644 109 639 108 631 L100 572 C99 564 103 559 111 559 L158 559 Z " />
<glyph glyph-name="Itilde" unicode="&#x128;" horiz-adv-x="255" d="M81 13 C80 5 85 0 93 0 L162 0 C170 0 175 5 176 13 L271 687 C272 695 268 700 260 700 L191 700 C183 700 177 695 176 687 L81 13 Z M292 751 C311 751 335 759 357 771 C362 774 366 779 367 785 L359 837 C358 843 353 845 348 845 C346 845 344 845 341 844 C328 840 311 836 304 836 C249 836 244 878 192 878 C173 878 149 870 127 858 C122 855 118 850 117 844 L125 792 C126 786 131 784 136 784 C138 784 140 784 143 785 C156 789 173 793 180 793 C235 793 239 751 292 751 L292 751 Z " />
<glyph glyph-name="itilde" unicode="&#x129;" horiz-adv-x="255" d="M81 13 C80 5 85 0 93 0 L162 0 C170 0 175 5 176 13 L245 502 C246 510 242 515 234 515 L165 515 C157 515 151 510 150 502 L81 13 Z M267 571 C286 571 310 579 332 591 C337 594 341 599 342 605 L334 657 C333 663 328 665 323 665 C321 665 319 665 316 664 C302 660 286 656 279 656 C224 656 219 698 167 698 C148 698 123 690 102 678 C96 675 93 670 92 664 L100 612 C101 606 105 604 110 604 C112 604 114 604 118 605 C131 609 148 613 155 613 C210 613 214 571 267 571 L267 571 Z " />
<glyph glyph-name="Imacron" unicode="&#x12a;" horiz-adv-x="255" d="M81 13 C80 5 85 0 93 0 L162 0 C170 0 175 5 176 13 L271 687 C272 695 268 700 260 700 L191 700 C183 700 177 695 176 687 L81 13 Z M144 836 C136 836 130 831 129 823 L121 764 C120 756 124 751 132 751 L332 751 C340 751 346 756 347 764 L355 823 C356 831 352 836 344 836 L144 836 Z " />
<glyph glyph-name="imacron" unicode="&#x12b;" horiz-adv-x="255" d="M81 13 C80 5 85 0 93 0 L162 0 C170 0 175 5 176 13 L245 502 C246 510 242 515 234 515 L165 515 C157 515 151 510 150 502 L81 13 Z M119 656 C111 656 105 651 104 643 L96 584 C94 576 99 571 107 571 L307 571 C315 571 320 576 322 584 L330 643 C331 651 327 656 319 656 L119 656 Z " />
<glyph glyph-name="Iogonek" unicode="&#x12e;" horiz-adv-x="255" d="M86 46 C43 46 10 25 3 -24 C-1 -62 20 -93 69 -93 L146 -93 C151 -93 156 -89 157 -84 L161 -53 C162 -48 158 -44 153 -44 L89 -44 C89 -44 61 -44 64 -22 C67 -4 83 0 93 0 L162 0 C170 0 175 5 176 13 L271 687 C272 695 268 700 260 700 L191 700 C183 700 177 695 176 687 L86 46 Z " />
<glyph glyph-name="iogonek" unicode="&#x12f;" horiz-adv-x="255" d="M160 591 C158 583 163 578 171 578 L246 578 C254 578 259 583 261 591 L272 671 C273 679 269 684 261 684 L186 684 C178 684 172 679 171 671 L160 591 Z M86 46 C43 46 10 25 3 -24 C-1 -62 20 -93 69 -93 L146 -93 C151 -93 156 -89 157 -84 L161 -53 C162 -48 158 -44 153 -44 L89 -44 C89 -44 61 -44 64 -22 C67 -4 83 0 93 0 L162 0 C170 0 175 5 176 13 L245 502 C246 510 242 515 234 515 L165 515 C157 515 151 510 150 502 L86 46 Z " />
<glyph glyph-name="Idotaccent" unicode="&#x130;" horiz-adv-x="255" d="M81 13 C80 5 85 0 93 0 L162 0 C170 0 175 5 176 13 L253 558 C254 566 250 571 242 571 L173 571 C165 571 159 566 158 558 L81 13 Z M167 647 C166 639 171 634 179 634 L254 634 C262 634 267 639 268 647 L280 727 C281 735 277 740 269 740 L194 740 C186 740 180 735 179 727 L167 647 Z " />
<glyph glyph-name="dotlessi" unicode="&#x131;" horiz-adv-x="255" d="M81 13 C80 5 85 0 93 0 L162 0 C170 0 175 5 176 13 L245 502 C246 510 242 515 234 515 L165 515 C157 515 151 510 150 502 L81 13 Z " />
<glyph glyph-name="Jcircumflex" unicode="&#x134;" horiz-adv-x="426" d="M330 925 C322 925 315 920 310 911 L216 763 C215 756 219 751 227 751 L290 751 C296 751 302 757 306 763 L355 840 L382 763 C384 757 388 751 394 751 L457 751 C465 751 471 756 472 763 L420 911 C417 920 412 925 404 925 L330 925 Z M92 109 C89 111 86 112 83 112 C79 112 77 111 73 109 L23 68 C20 65 18 62 18 58 C17 55 18 53 21 50 C44 27 78 -5 159 -5 C294 -5 376 78 389 165 L462 687 C463 695 459 700 451 700 L382 700 C374 700 368 695 367 687 L294 168 C293 157 279 80 165 80 C129 80 120 91 92 109 L92 109 Z " />
<glyph glyph-name="jcircumflex" unicode="&#x135;" horiz-adv-x="255" d="M194 742 C186 742 179 737 174 728 L80 580 C79 573 83 568 91 568 L154 568 C160 568 166 574 170 580 L219 657 L246 580 C248 574 252 568 258 568 L321 568 C329 568 335 573 336 580 L284 728 C281 737 276 742 268 742 L194 742 Z M7 -182 C47 -167 158 -116 175 7 L245 502 C246 510 242 515 234 515 L165 515 C157 515 151 510 150 502 L81 12 C81 12 70 -58 -18 -94 C-23 -96 -26 -101 -26 -106 C-27 -107 -26 -110 -25 -112 L-8 -176 C-7 -181 -2 -183 1 -183 C2 -183 5 -183 7 -182 L7 -182 Z " />
<glyph glyph-name="uni0136" unicode="&#x136;" horiz-adv-x="552" d="M249 -53 C240 -53 234 -59 229 -67 L170 -179 C169 -188 174 -193 182 -193 L243 -193 C252 -193 258 -187 263 -179 L322 -67 C323 -58 319 -53 310 -53 L249 -53 Z M414 13 C416 6 420 0 428 0 L498 0 C506 0 511 5 512 13 L425 348 L607 687 C608 695 604 700 596 700 L525 700 C517 700 512 694 508 687 L351 392 L230 392 L271 687 C272 695 268 700 260 700 L191 700 C183 700 177 695 176 687 L81 13 C80 5 85 0 93 0 L162 0 C170 0 175 5 176 13 L218 307 L338 307 L414 13 Z " />
<glyph glyph-name="uni0137" unicode="&#x137;" horiz-adv-x="492" d="M233 -53 C224 -53 218 -59 213 -67 L154 -179 C153 -188 158 -193 166 -193 L227 -193 C236 -193 242 -187 247 -179 L306 -67 C307 -58 303 -53 294 -53 L233 -53 Z M305 229 L359 13 C362 6 368 0 376 0 L449 0 C457 0 462 5 463 13 L398 272 L532 502 C533 510 529 515 521 515 L449 515 C441 515 434 509 429 502 L318 314 L219 314 L271 687 C272 695 268 700 260 700 L191 700 C183 700 177 695 176 687 L81 13 C80 5 85 0 93 0 L162 0 C170 0 175 5 176 13 L207 229 L305 229 Z " />
<glyph glyph-name="kgreenlandic" unicode="&#x138;" horiz-adv-x="492" d="M305 229 L359 13 C362 6 368 0 376 0 L449 0 C457 0 462 5 463 13 L398 272 L532 502 C533 510 529 515 521 515 L449 515 C441 515 434 509 429 502 L318 314 L219 314 L245 502 C246 510 242 515 234 515 L165 515 C157 515 151 510 150 502 L81 13 C80 5 85 0 93 0 L162 0 C170 0 175 5 176 13 L207 229 L305 229 Z " />
<glyph glyph-name="Lacute" unicode="&#x139;" horiz-adv-x="483" d="M265 751 C273 751 279 757 284 765 L357 883 C358 892 353 897 345 897 L284 897 C276 897 270 891 265 883 L192 765 C191 756 195 751 204 751 L265 751 Z M430 0 C438 0 443 5 444 13 L453 72 C454 80 449 85 441 85 L186 85 L271 687 C272 695 268 700 260 700 L191 700 C183 700 177 695 176 687 L81 13 C80 5 85 0 93 0 L430 0 Z " />
<glyph glyph-name="lacute" unicode="&#x13a;" horiz-adv-x="255" d="M81 13 C80 5 85 0 93 0 L162 0 C170 0 175 5 176 13 L271 687 C272 695 268 700 260 700 L191 700 C183 700 177 695 176 687 L81 13 Z M265 751 C273 751 279 757 284 765 L357 883 C358 892 353 897 345 897 L284 897 C276 897 270 891 265 883 L192 765 C191 756 195 751 204 751 L265 751 Z " />
<glyph glyph-name="uni013B" unicode="&#x13b;" horiz-adv-x="483" d="M234 -53 C225 -53 219 -59 214 -67 L155 -179 C154 -188 159 -193 167 -193 L228 -193 C237 -193 243 -187 248 -179 L307 -67 C308 -58 304 -53 295 -53 L234 -53 Z M430 0 C438 0 443 5 444 13 L453 72 C454 80 449 85 441 85 L186 85 L271 687 C272 695 268 700 260 700 L191 700 C183 700 177 695 176 687 L81 13 C80 5 85 0 93 0 L430 0 Z " />
<glyph glyph-name="uni013C" unicode="&#x13c;" horiz-adv-x="255" d="M81 13 C80 5 85 0 93 0 L162 0 C170 0 175 5 176 13 L271 687 C272 695 268 700 260 700 L191 700 C183 700 177 695 176 687 L81 13 Z M89 -53 C80 -53 74 -59 69 -67 L10 -179 C9 -188 14 -193 22 -193 L83 -193 C92 -193 98 -187 103 -179 L162 -67 C163 -58 159 -53 150 -53 L89 -53 Z " />
<glyph glyph-name="Lcaron" unicode="&#x13d;" horiz-adv-x="509" d="M465 538 C474 538 480 544 485 552 L565 686 C566 695 561 700 553 700 L488 700 C479 700 473 694 468 686 L388 552 C387 543 391 538 400 538 L465 538 Z M430 0 C438 0 443 5 444 13 L453 72 C454 80 449 85 441 85 L186 85 L271 687 C272 695 268 700 260 700 L191 700 C183 700 177 695 176 687 L81 13 C80 5 85 0 93 0 L430 0 Z " />
<glyph glyph-name="lcaron" unicode="&#x13e;" horiz-adv-x="465" d="M81 13 C80 5 85 0 93 0 L162 0 C170 0 175 5 176 13 L271 687 C272 695 268 700 260 700 L191 700 C183 700 177 695 176 687 L81 13 Z M447 550 C456 550 462 556 467 564 L541 686 C542 695 537 700 529 700 L468 700 C459 700 453 694 448 686 L374 564 C373 555 377 550 386 550 L447 550 Z " />
<glyph glyph-name="Lslash" unicode="&#x141;" horiz-adv-x="493" d="M82 363 C75 361 70 356 69 349 L61 294 C60 288 64 283 70 283 L152 305 L111 13 C110 5 115 0 123 0 L460 0 C468 0 473 5 474 13 L483 72 C484 80 479 85 471 85 L216 85 L251 331 L332 352 C338 354 344 359 345 366 L353 421 C354 427 349 432 343 432 L262 411 L301 687 C302 695 298 700 290 700 L221 700 C213 700 207 695 206 687 L164 385 L82 363 Z " />
<glyph glyph-name="lslash" unicode="&#x142;" horiz-adv-x="314" d="M82 363 C75 361 70 356 69 349 L61 294 C60 288 64 283 70 283 L152 305 L111 13 C110 5 115 0 123 0 L192 0 C200 0 205 5 206 13 L251 331 L332 352 C338 354 344 359 345 366 L353 421 C354 427 349 432 343 432 L262 411 L301 687 C302 695 298 700 290 700 L221 700 C213 700 207 695 206 687 L164 385 L82 363 Z " />
<glyph glyph-name="Nacute" unicode="&#x143;" horiz-adv-x="629" d="M452 751 C460 751 466 757 471 765 L544 883 C545 892 540 897 532 897 L471 897 C463 897 457 891 452 883 L379 765 C378 756 382 751 391 751 L452 751 Z M412 13 C415 6 421 0 429 0 L536 0 C544 0 549 5 550 13 L645 687 C646 695 642 700 634 700 L565 700 C557 700 551 695 550 687 L478 176 L468 176 L314 687 C311 694 306 700 298 700 L191 700 C183 700 177 695 176 687 L81 13 C80 5 85 0 93 0 L162 0 C170 0 175 5 176 13 L248 526 L259 526 L412 13 Z " />
<glyph glyph-name="nacute" unicode="&#x144;" horiz-adv-x="524" d="M401 571 C409 571 415 577 420 585 L492 703 C494 712 488 717 480 717 L419 717 C411 717 405 711 400 703 L328 585 C326 576 331 571 340 571 L401 571 Z M360 13 C359 5 364 0 372 0 L441 0 C449 0 454 5 455 13 L506 371 C517 454 478 520 392 520 L361 520 C341 520 286 519 247 459 L239 459 L245 502 C246 510 242 515 234 515 L165 515 C157 515 151 510 150 502 L81 13 C80 5 85 0 93 0 L162 0 C170 0 175 5 176 13 L225 359 C272 434 326 435 354 435 L362 435 C399 435 415 405 408 353 L360 13 Z " />
<glyph glyph-name="uni0145" unicode="&#x145;" horiz-adv-x="629" d="M276 -53 C267 -53 261 -59 256 -67 L197 -179 C196 -188 201 -193 209 -193 L270 -193 C279 -193 285 -187 290 -179 L349 -67 C350 -58 346 -53 337 -53 L276 -53 Z M412 13 C415 6 421 0 429 0 L536 0 C544 0 549 5 550 13 L645 687 C646 695 642 700 634 700 L565 700 C557 700 551 695 550 687 L478 176 L468 176 L314 687 C311 694 306 700 298 700 L191 700 C183 700 177 695 176 687 L81 13 C80 5 85 0 93 0 L162 0 C170 0 175 5 176 13 L248 526 L259 526 L412 13 Z " />
<glyph glyph-name="uni0146" unicode="&#x146;" horiz-adv-x="524" d="M231 -53 C222 -53 216 -59 211 -67 L152 -179 C151 -188 156 -193 164 -193 L225 -193 C234 -193 240 -187 245 -179 L304 -67 C305 -58 301 -53 292 -53 L231 -53 Z M360 13 C359 5 364 0 372 0 L441 0 C449 0 454 5 455 13 L506 371 C517 454 478 520 392 520 L361 520 C341 520 286 519 247 459 L239 459 L245 502 C246 510 242 515 234 515 L165 515 C157 515 151 510 150 502 L81 13 C80 5 85 0 93 0 L162 0 C170 0 175 5 176 13 L225 359 C272 434 326 435 354 435 L362 435 C399 435 415 405 408 353 L360 13 Z " />
<glyph glyph-name="Ncaron" unicode="&#x147;" horiz-adv-x="629" d="M456 751 C464 751 471 756 476 765 L570 913 C571 920 567 925 559 925 L496 925 C490 925 484 919 480 913 L431 836 L404 913 C402 919 398 925 392 925 L329 925 C321 925 315 920 314 913 L366 765 C369 756 374 751 382 751 L456 751 Z M412 13 C415 6 421 0 429 0 L536 0 C544 0 549 5 550 13 L645 687 C646 695 642 700 634 700 L565 700 C557 700 551 695 550 687 L478 176 L468 176 L314 687 C311 694 306 700 298 700 L191 700 C183 700 177 695 176 687 L81 13 C80 5 85 0 93 0 L162 0 C170 0 175 5 176 13 L248 526 L259 526 L412 13 Z " />
<glyph glyph-name="ncaron" unicode="&#x148;" horiz-adv-x="524" d="M384 571 C392 571 398 576 404 585 L498 733 C499 740 494 745 486 745 L423 745 C417 745 411 739 408 733 L359 656 L332 733 C329 739 325 745 319 745 L256 745 C248 745 243 740 242 733 L294 585 C296 576 302 571 310 571 L384 571 Z M360 13 C359 5 364 0 372 0 L441 0 C449 0 454 5 455 13 L506 371 C517 454 478 520 392 520 L361 520 C341 520 286 519 247 459 L239 459 L245 502 C246 510 242 515 234 515 L165 515 C157 515 151 510 150 502 L81 13 C80 5 85 0 93 0 L162 0 C170 0 175 5 176 13 L225 359 C272 434 326 435 354 435 L362 435 C399 435 415 405 408 353 L360 13 Z " />
<glyph glyph-name="Eng" unicode="&#x14a;" horiz-adv-x="629" d="M381 -182 C421 -167 532 -116 549 7 L645 687 C646 695 642 700 634 700 L565 700 C557 700 551 695 550 687 L478 176 L468 176 L314 687 C311 694 306 700 298 700 L191 700 C183 700 177 695 176 687 L81 13 C80 5 85 0 93 0 L162 0 C170 0 175 5 176 13 L248 526 L259 526 L429 -41 C413 -59 390 -79 355 -94 C350 -96 347 -101 347 -106 C346 -107 347 -110 348 -112 L365 -176 C366 -181 371 -183 375 -183 C376 -183 379 -183 381 -182 L381 -182 Z " />
<glyph glyph-name="eng" unicode="&#x14b;" horiz-adv-x="524" d="M286 -182 C326 -167 437 -116 454 7 L506 371 C517 454 478 520 392 520 L361 520 C341 520 286 519 247 459 L239 459 L245 502 C246 510 242 515 234 515 L165 515 C157 515 151 510 150 502 L81 13 C80 5 85 0 93 0 L162 0 C170 0 175 5 176 13 L225 359 C272 434 326 435 354 435 L362 435 C399 435 415 405 408 353 L360 12 C358 2 343 -60 260 -94 C255 -96 252 -101 252 -106 C251 -107 252 -110 253 -112 L270 -176 C271 -181 276 -183 280 -183 C281 -183 284 -183 286 -182 L286 -182 Z " />
<glyph glyph-name="Omacron" unicode="&#x14c;" horiz-adv-x="579" d="M306 836 C298 836 292 831 291 823 L283 764 C282 756 286 751 294 751 L493 751 C501 751 507 756 508 764 L516 823 C517 831 513 836 505 836 L306 836 Z M337 705 C244 705 158 633 146 545 L91 155 C79 67 144 -5 237 -5 L340 -5 C433 -5 518 67 530 155 L585 545 C597 633 533 705 440 705 L337 705 Z M258 80 C216 80 181 117 188 165 L240 535 C246 581 292 620 334 620 L419 620 C461 620 495 581 489 535 L437 165 C430 117 385 80 343 80 L258 80 Z " />
<glyph glyph-name="omacron" unicode="&#x14d;" horiz-adv-x="494" d="M241 656 C233 656 227 651 226 643 L218 584 C216 576 221 571 229 571 L427 571 C435 571 440 576 442 584 L450 643 C451 651 447 656 439 656 L241 656 Z M282 520 C195 520 127 446 117 374 L84 141 C74 69 121 -5 208 -5 L283 -5 C371 -5 438 69 448 141 L481 374 C491 446 445 520 358 520 L282 520 Z M238 80 C205 80 175 111 180 146 L211 369 C216 404 255 435 288 435 L328 435 C361 435 390 404 385 369 L354 146 C349 111 311 80 278 80 L238 80 Z " />
<glyph glyph-name="Ohungarumlaut" unicode="&#x150;" horiz-adv-x="579" d="M347 751 C356 751 362 757 367 765 L434 875 C436 884 430 889 422 889 L361 889 C352 889 347 883 341 875 L274 765 C273 756 277 751 286 751 L347 751 Z M507 751 C516 751 522 757 527 765 L594 875 C596 884 590 889 582 889 L521 889 C512 889 507 883 501 875 L434 765 C433 756 437 751 446 751 L507 751 Z M337 705 C244 705 158 633 146 545 L91 155 C79 67 144 -5 237 -5 L340 -5 C433 -5 518 67 530 155 L585 545 C597 633 533 705 440 705 L337 705 Z M258 80 C216 80 181 117 188 165 L240 535 C246 581 292 620 334 620 L419 620 C461 620 495 581 489 535 L437 165 C430 117 385 80 343 80 L258 80 Z " />
<glyph glyph-name="ohungarumlaut" unicode="&#x151;" horiz-adv-x="494" d="M269 571 C278 571 284 577 289 585 L356 695 C357 704 352 709 344 709 L283 709 C274 709 268 703 263 695 L196 585 C194 576 199 571 208 571 L269 571 Z M429 571 C438 571 444 577 449 585 L516 695 C517 704 512 709 504 709 L443 709 C434 709 428 703 423 695 L356 585 C354 576 359 571 368 571 L429 571 Z M282 520 C195 520 127 446 117 374 L84 141 C74 69 121 -5 208 -5 L283 -5 C371 -5 438 69 448 141 L481 374 C491 446 445 520 358 520 L282 520 Z M238 80 C205 80 175 111 180 146 L211 369 C216 404 255 435 288 435 L328 435 C361 435 390 404 385 369 L354 146 C349 111 311 80 278 80 L238 80 Z " />
<glyph glyph-name="OE" unicode="&#x152;" horiz-adv-x="847" d="M439 700 L336 700 C243 700 158 628 145 540 L92 160 C80 72 145 0 238 0 L764 0 C772 0 777 5 778 13 L787 72 C788 80 783 85 775 85 L520 85 L550 293 L781 293 C789 293 794 298 796 306 L804 365 C805 373 801 378 793 378 L562 378 L595 615 L850 615 C858 615 864 620 865 628 L873 687 C874 695 870 700 862 700 L439 700 Z M437 166 C428 120 384 85 343 85 L258 85 C216 85 182 122 188 170 L239 530 C245 576 291 615 333 615 L418 615 C459 615 495 578 488 533 L437 166 Z " />
<glyph glyph-name="oe" unicode="&#x153;" horiz-adv-x="758" d="M629 105 C613 93 589 80 556 80 L507 80 C474 80 444 111 449 146 L459 216 L715 216 C723 216 729 221 730 229 L750 374 C760 446 715 520 626 520 L551 520 C512 520 476 505 448 482 C427 505 397 520 358 520 L282 520 C195 520 127 446 117 374 L84 141 C74 69 121 -5 208 -5 L283 -5 C322 -5 358 10 385 33 C407 10 438 -5 477 -5 L544 -5 C544 -5 630 -5 687 56 C690 59 691 61 691 64 C692 67 689 71 688 73 L649 108 C646 110 644 111 641 111 C637 111 633 107 629 105 L629 105 Z M238 80 C205 80 175 111 180 146 L211 369 C216 404 255 435 288 435 L328 435 C360 435 388 405 386 371 L354 143 C347 109 310 80 278 80 L238 80 Z M481 371 C486 405 525 435 557 435 L598 435 C631 435 659 404 654 369 L645 301 L471 301 L481 371 Z " />
<glyph glyph-name="Racute" unicode="&#x154;" horiz-adv-x="561" d="M398 751 C406 751 412 757 417 765 L490 883 C491 892 486 897 478 897 L417 897 C409 897 403 891 398 883 L325 765 C324 756 328 751 337 751 L398 751 Z M564 378 L586 539 C599 628 534 700 441 700 L191 700 C183 700 177 695 176 687 L81 13 C80 5 85 0 93 0 L162 0 C170 0 175 5 176 13 L205 217 L340 217 L405 13 C407 6 411 0 419 0 L495 0 C503 0 508 5 509 13 L438 229 C503 253 554 311 564 378 L564 378 Z M470 386 C463 339 419 302 377 302 L217 302 L261 615 L421 615 C463 615 496 575 490 530 L470 386 Z " />
<glyph glyph-name="racute" unicode="&#x155;" horiz-adv-x="382" d="M244 571 C252 571 258 577 263 585 L335 703 C337 712 331 717 323 717 L262 717 C254 717 248 711 243 703 L171 585 C169 576 174 571 183 571 L244 571 Z M394 431 C402 431 408 436 409 444 L422 503 C423 509 421 513 415 515 C401 520 379 520 368 520 C348 520 287 519 247 459 L239 459 L245 502 C246 510 242 515 234 515 L165 515 C157 515 151 510 150 502 L81 13 C80 5 85 0 93 0 L162 0 C170 0 175 5 176 13 L225 359 C272 434 321 435 349 435 C365 435 380 433 394 431 L394 431 Z " />
<glyph glyph-name="uni0156" unicode="&#x156;" horiz-adv-x="561" d="M249 -53 C240 -53 234 -59 229 -67 L170 -179 C169 -188 174 -193 182 -193 L243 -193 C252 -193 258 -187 263 -179 L322 -67 C323 -58 319 -53 310 -53 L249 -53 Z M564 378 L586 539 C599 628 534 700 441 700 L191 700 C183 700 177 695 176 687 L81 13 C80 5 85 0 93 0 L162 0 C170 0 175 5 176 13 L205 217 L340 217 L405 13 C407 6 411 0 419 0 L495 0 C503 0 508 5 509 13 L438 229 C503 253 554 311 564 378 L564 378 Z M470 386 C463 339 419 302 377 302 L217 302 L261 615 L421 615 C463 615 496 575 490 530 L470 386 Z " />
<glyph glyph-name="uni0157" unicode="&#x157;" horiz-adv-x="382" d="M135 -53 C126 -53 120 -59 115 -67 L56 -179 C55 -188 60 -193 68 -193 L129 -193 C138 -193 144 -187 149 -179 L208 -67 C209 -58 205 -53 196 -53 L135 -53 Z M394 431 C402 431 408 436 409 444 L422 503 C423 509 421 513 415 515 C401 520 379 520 368 520 C348 520 287 519 247 459 L239 459 L245 502 C246 510 242 515 234 515 L165 515 C157 515 151 510 150 502 L81 13 C80 5 85 0 93 0 L162 0 C170 0 175 5 176 13 L225 359 C272 434 321 435 349 435 C365 435 380 433 394 431 L394 431 Z " />
<glyph glyph-name="Rcaron" unicode="&#x158;" horiz-adv-x="561" d="M393 751 C401 751 408 756 413 765 L507 913 C508 920 504 925 496 925 L433 925 C427 925 421 919 417 913 L368 836 L341 913 C339 919 335 925 329 925 L266 925 C258 925 252 920 251 913 L303 765 C306 756 311 751 319 751 L393 751 Z M564 378 L586 539 C599 628 534 700 441 700 L191 700 C183 700 177 695 176 687 L81 13 C80 5 85 0 93 0 L162 0 C170 0 175 5 176 13 L205 217 L340 217 L405 13 C407 6 411 0 419 0 L495 0 C503 0 508 5 509 13 L438 229 C503 253 554 311 564 378 L564 378 Z M470 386 C463 339 419 302 377 302 L217 302 L261 615 L421 615 C463 615 496 575 490 530 L470 386 Z " />
<glyph glyph-name="rcaron" unicode="&#x159;" horiz-adv-x="382" d="M335 571 C343 571 349 576 355 585 L449 733 C450 740 445 745 437 745 L374 745 C368 745 362 739 359 733 L310 656 L283 733 C280 739 276 745 270 745 L207 745 C199 745 194 740 193 733 L245 585 C247 576 253 571 261 571 L335 571 Z M394 431 C402 431 408 436 409 444 L422 503 C423 509 421 513 415 515 C401 520 379 520 368 520 C348 520 287 519 247 459 L239 459 L245 502 C246 510 242 515 234 515 L165 515 C157 515 151 510 150 502 L81 13 C80 5 85 0 93 0 L162 0 C170 0 175 5 176 13 L225 359 C272 434 321 435 349 435 C365 435 380 433 394 431 L394 431 Z " />
<glyph glyph-name="Sacute" unicode="&#x15a;" horiz-adv-x="545" d="M343 751 C334 751 330 756 331 765 L404 883 C409 891 415 897 423 897 L484 897 C492 897 497 892 496 883 L423 765 C418 757 412 751 404 751 L343 751 Z M236 80 C194 80 161 119 168 165 L170 182 C171 190 167 195 159 195 L90 195 C82 195 76 190 75 182 L71 155 C59 67 126 -5 217 -5 L321 -5 C414 -5 499 67 511 155 L514 172 C555 464 189 314 216 509 L220 535 C226 581 270 620 312 620 L392 620 C434 620 466 581 460 535 L457 518 C456 510 460 505 468 505 L537 505 C545 505 551 510 552 518 L556 545 C568 633 502 705 411 705 L316 705 C225 705 138 633 126 545 L123 522 C82 228 448 381 420 184 L418 165 C411 117 366 80 324 80 L236 80 Z " />
<glyph glyph-name="sacute" unicode="&#x15b;" horiz-adv-x="472" d="M347 571 C355 571 361 577 366 585 L438 703 C440 712 434 717 426 717 L365 717 C357 717 351 711 346 703 L274 585 C272 576 277 571 286 571 L347 571 Z M315 435 C349 435 377 404 372 369 L371 357 C370 349 374 344 382 344 L451 344 C459 344 465 349 466 357 L468 374 C478 446 431 520 344 520 L273 520 C185 520 120 458 110 386 L109 379 C81 182 362 256 348 150 L346 136 C340 98 305 80 271 80 L228 80 C194 80 165 111 170 146 L172 158 C173 166 169 171 161 171 L92 171 C84 171 78 166 77 158 L74 141 C64 69 112 -5 199 -5 L277 -5 C366 -5 430 57 440 129 L442 143 C469 341 188 267 202 369 L204 379 C209 417 245 435 279 435 L315 435 Z " />
<glyph glyph-name="Scircumflex" unicode="&#x15c;" horiz-adv-x="545" d="M431 925 C439 925 444 920 447 911 L499 763 C498 756 492 751 484 751 L421 751 C415 751 411 757 409 763 L382 840 L333 763 C329 757 323 751 317 751 L254 751 C246 751 242 756 243 763 L337 911 C342 920 349 925 357 925 L431 925 Z M236 80 C194 80 161 119 168 165 L170 182 C171 190 167 195 159 195 L90 195 C82 195 76 190 75 182 L71 155 C59 67 126 -5 217 -5 L321 -5 C414 -5 499 67 511 155 L514 172 C555 464 189 314 216 509 L220 535 C226 581 270 620 312 620 L392 620 C434 620 466 581 460 535 L457 518 C456 510 460 505 468 505 L537 505 C545 505 551 510 552 518 L556 545 C568 633 502 705 411 705 L316 705 C225 705 138 633 126 545 L123 522 C82 228 448 381 420 184 L418 165 C411 117 366 80 324 80 L236 80 Z " />
<glyph glyph-name="scircumflex" unicode="&#x15d;" horiz-adv-x="472" d="M306 745 C298 745 292 740 286 731 L192 583 C191 576 196 571 204 571 L267 571 C273 571 279 577 282 583 L331 660 L358 583 C361 577 365 571 371 571 L434 571 C442 571 447 576 448 583 L396 731 C394 740 388 745 380 745 L306 745 Z M315 435 C349 435 377 404 372 369 L371 357 C370 349 374 344 382 344 L451 344 C459 344 465 349 466 357 L468 374 C478 446 431 520 344 520 L273 520 C185 520 120 458 110 386 L109 379 C81 182 362 256 348 150 L346 136 C340 98 305 80 271 80 L228 80 C194 80 165 111 170 146 L172 158 C173 166 169 171 161 171 L92 171 C84 171 78 166 77 158 L74 141 C64 69 112 -5 199 -5 L277 -5 C366 -5 430 57 440 129 L442 143 C469 341 188 267 202 369 L204 379 C209 417 245 435 279 435 L315 435 Z " />
<glyph glyph-name="Scedilla" unicode="&#x15e;" horiz-adv-x="545" d="M216 509 L220 535 C226 581 270 620 312 620 L392 620 C434 620 466 581 460 535 L457 518 C456 510 460 505 468 505 L537 505 C545 505 551 510 552 518 L556 545 C568 633 502 705 411 705 L316 705 C225 705 138 633 126 545 L123 522 C82 228 448 381 420 184 L418 165 C411 117 366 80 324 80 L236 80 C194 80 161 119 168 165 L170 182 C171 190 167 195 159 195 L90 195 C82 195 76 190 75 182 L71 155 C59 67 126 -5 217 -5 L239 -5 L207 -52 C205 -55 203 -58 203 -60 L198 -93 C198 -98 201 -102 206 -102 L261 -102 C261 -102 285 -102 282 -125 C279 -146 255 -146 255 -146 L195 -146 C190 -146 185 -150 185 -155 L180 -186 C180 -191 183 -195 188 -195 L265 -195 C312 -195 329 -178 338 -119 C345 -71 309 -53 270 -53 L301 -5 L321 -5 C414 -5 499 67 511 155 L514 172 C555 464 189 314 216 509 L216 509 Z " />
<glyph glyph-name="scedilla" unicode="&#x15f;" horiz-adv-x="472" d="M175 -52 C173 -55 171 -58 171 -60 L166 -93 C166 -98 169 -102 174 -102 L229 -102 C229 -102 253 -102 250 -125 C247 -146 223 -146 223 -146 L163 -146 C158 -146 153 -150 153 -155 L148 -186 C148 -191 151 -195 156 -195 L233 -195 C280 -195 297 -178 306 -119 C313 -71 277 -53 238 -53 L269 -5 L277 -5 C366 -5 430 57 440 129 L442 143 C469 341 188 267 202 369 L204 379 C209 417 245 435 279 435 L315 435 C349 435 377 404 372 369 L371 357 C370 349 374 344 382 344 L451 344 C459 344 465 349 466 357 L468 374 C478 446 431 520 344 520 L273 520 C185 520 120 458 110 386 L109 379 C81 182 362 256 348 150 L346 136 C340 98 305 80 271 80 L228 80 C194 80 165 111 170 146 L172 158 C173 166 169 171 161 171 L92 171 C84 171 78 166 77 158 L74 141 C64 69 112 -5 199 -5 L207 -5 L175 -52 Z " />
<glyph glyph-name="Scaron" unicode="&#x160;" horiz-adv-x="545" d="M335 769 C327 769 321 774 319 783 L266 931 C267 938 273 943 281 943 L344 943 C350 943 354 937 356 931 L384 854 L432 931 C436 937 442 943 448 943 L511 943 C519 943 523 938 522 931 L429 783 C423 774 417 769 409 769 L335 769 Z M236 80 C194 80 161 119 168 165 L170 182 C171 190 167 195 159 195 L90 195 C82 195 76 190 75 182 L71 155 C59 67 126 -5 217 -5 L321 -5 C414 -5 499 67 511 155 L514 172 C555 464 189 314 216 509 L220 535 C226 581 270 620 312 620 L392 620 C434 620 466 581 460 535 L457 518 C456 510 460 505 468 505 L537 505 C545 505 551 510 552 518 L556 545 C568 633 502 705 411 705 L316 705 C225 705 138 633 126 545 L123 522 C82 228 448 381 420 184 L418 165 C411 117 366 80 324 80 L236 80 Z " />
<glyph glyph-name="scaron" unicode="&#x161;" horiz-adv-x="472" d="M356 571 C364 571 370 576 376 585 L470 733 C471 740 466 745 458 745 L395 745 C389 745 383 739 380 733 L331 656 L304 733 C301 739 297 745 291 745 L228 745 C220 745 215 740 214 733 L266 585 C268 576 274 571 282 571 L356 571 Z M315 435 C349 435 377 404 372 369 L371 357 C370 349 374 344 382 344 L451 344 C459 344 465 349 466 357 L468 374 C478 446 431 520 344 520 L273 520 C185 520 120 458 110 386 L109 379 C81 182 362 256 348 150 L346 136 C340 98 305 80 271 80 L228 80 C194 80 165 111 170 146 L172 158 C173 166 169 171 161 171 L92 171 C84 171 78 166 77 158 L74 141 C64 69 112 -5 199 -5 L277 -5 C366 -5 430 57 440 129 L442 143 C469 341 188 267 202 369 L204 379 C209 417 245 435 279 435 L315 435 Z " />
<glyph glyph-name="uni0162" unicode="&#x162;" horiz-adv-x="519" d="M313 46 L393 615 L547 615 C555 615 561 620 562 628 L570 687 C571 695 567 700 559 700 L156 700 C148 700 142 695 141 687 L133 628 C132 620 136 615 144 615 L298 615 L213 13 C212 5 217 0 225 0 L294 0 C304 0 318 -4 315 -22 C312 -44 284 -44 284 -44 L220 -44 C215 -44 211 -48 210 -53 L206 -84 C205 -89 208 -93 213 -93 L290 -93 C339 -93 371 -62 376 -24 C383 25 356 46 313 46 L313 46 Z " />
<glyph glyph-name="uni0163" unicode="&#x163;" horiz-adv-x="377" d="M167 -45 C165 -48 163 -51 163 -53 L158 -86 C158 -91 161 -95 166 -95 L221 -95 C221 -95 245 -95 242 -118 C239 -139 215 -139 215 -139 L155 -139 C150 -139 145 -143 145 -148 L140 -179 C140 -184 143 -188 148 -188 L225 -188 C272 -188 289 -171 298 -112 C305 -64 269 -46 230 -46 L259 0 L324 0 C332 0 337 5 338 13 L347 72 C348 80 343 85 335 85 L299 85 C266 85 236 117 241 151 L280 430 L384 430 C392 430 398 435 399 443 L407 502 C408 510 404 515 396 515 L292 515 L316 687 C317 695 313 700 305 700 L236 700 C228 700 222 695 221 687 L197 515 L120 515 C112 515 106 510 105 502 L97 443 C96 435 100 430 108 430 L185 430 L145 148 C141 95 161 42 206 16 L167 -45 Z " />
<glyph glyph-name="Tcaron" unicode="&#x164;" horiz-adv-x="519" d="M401 751 C409 751 416 756 421 765 L515 913 C516 920 512 925 504 925 L441 925 C435 925 429 919 425 913 L376 836 L349 913 C347 919 343 925 337 925 L274 925 C266 925 260 920 259 913 L311 765 C314 756 319 751 327 751 L401 751 Z M156 700 C148 700 142 695 141 687 L133 628 C132 620 136 615 144 615 L298 615 L213 13 C212 5 217 0 225 0 L294 0 C302 0 307 5 308 13 L393 615 L547 615 C555 615 561 620 562 628 L570 687 C571 695 567 700 559 700 L156 700 Z " />
<glyph glyph-name="tcaron" unicode="&#x165;" horiz-adv-x="534" d="M520 570 C528 570 533 576 539 584 L600 686 C601 695 596 700 588 700 L527 700 C519 700 513 694 508 686 L447 584 C445 575 450 570 459 570 L520 570 Z M324 0 C332 0 337 5 338 13 L347 72 C348 80 343 85 335 85 L299 85 C266 85 236 117 241 151 L280 430 L384 430 C392 430 398 435 399 443 L407 502 C408 510 404 515 396 515 L292 515 L316 687 C317 695 313 700 305 700 L236 700 C228 700 222 695 221 687 L197 515 L120 515 C112 515 106 510 105 502 L97 443 C96 435 100 430 108 430 L185 430 L145 148 C140 74 182 0 269 0 L324 0 Z " />
<glyph glyph-name="Tbar" unicode="&#x166;" horiz-adv-x="519" d="M167 373 C159 373 153 368 152 360 L144 301 C143 293 147 288 155 288 L252 288 L213 13 C212 5 217 0 225 0 L294 0 C302 0 307 5 308 13 L347 288 L444 288 C452 288 458 293 459 301 L467 360 C468 368 464 373 456 373 L359 373 L393 615 L547 615 C555 615 561 620 562 628 L570 687 C571 695 567 700 559 700 L156 700 C148 700 142 695 141 687 L133 628 C132 620 136 615 144 615 L298 615 L264 373 L167 373 Z " />
<glyph glyph-name="tbar" unicode="&#x167;" horiz-adv-x="377" d="M92 319 C84 319 79 314 78 306 L69 247 C68 239 72 234 80 234 L157 234 L145 148 C140 74 182 0 269 0 L324 0 C332 0 337 5 338 13 L347 72 C348 80 343 85 335 85 L299 85 C266 85 236 117 241 151 L252 234 L356 234 C364 234 370 239 371 247 L380 306 C381 314 376 319 368 319 L264 319 L280 430 L384 430 C392 430 398 435 399 443 L407 502 C408 510 404 515 396 515 L292 515 L316 687 C317 695 313 700 305 700 L236 700 C228 700 222 695 221 687 L197 515 L120 515 C112 515 106 510 105 502 L97 443 C96 435 100 430 108 430 L185 430 L169 319 L92 319 Z " />
<glyph glyph-name="Utilde" unicode="&#x168;" horiz-adv-x="589" d="M442 165 C435 117 390 80 348 80 L263 80 C221 80 186 117 193 165 L266 687 C267 695 263 700 255 700 L186 700 C178 700 172 695 171 687 L96 155 C84 67 149 -5 242 -5 L345 -5 C438 -5 523 67 535 155 L610 687 C611 695 607 700 599 700 L530 700 C522 700 516 695 515 687 L442 165 Z M458 751 C477 751 501 759 523 771 C528 774 532 779 533 785 L525 837 C524 843 519 845 514 845 C512 845 510 845 507 844 C494 840 477 836 470 836 C415 836 410 878 358 878 C339 878 315 870 293 858 C288 855 284 850 283 844 L291 792 C292 786 297 784 302 784 C304 784 306 784 309 785 C322 789 339 793 346 793 C401 793 405 751 458 751 L458 751 Z " />
<glyph glyph-name="utilde" unicode="&#x169;" horiz-adv-x="504" d="M359 146 C354 111 316 80 283 80 L243 80 C210 80 180 111 185 146 L235 502 C236 510 232 515 224 515 L155 515 C147 515 141 510 140 502 L89 141 C79 69 126 -5 213 -5 L288 -5 C376 -5 443 69 453 141 L504 502 C505 510 501 515 493 515 L424 515 C416 515 410 510 409 502 L359 146 Z M386 571 C405 571 429 579 451 591 C456 594 460 599 461 605 L453 657 C452 663 447 665 442 665 C440 665 438 665 435 664 C421 660 405 656 398 656 C343 656 338 698 286 698 C267 698 242 690 221 678 C215 675 212 670 211 664 L219 612 C220 606 224 604 229 604 C231 604 233 604 237 605 C250 609 267 613 274 613 C329 613 333 571 386 571 L386 571 Z " />
<glyph glyph-name="Umacron" unicode="&#x16a;" horiz-adv-x="589" d="M295 836 C287 836 281 831 280 823 L272 764 C271 756 275 751 283 751 L515 751 C523 751 529 756 530 764 L538 823 C539 831 535 836 527 836 L295 836 Z M442 165 C435 117 390 80 348 80 L263 80 C221 80 186 117 193 165 L266 687 C267 695 263 700 255 700 L186 700 C178 700 172 695 171 687 L96 155 C84 67 149 -5 242 -5 L345 -5 C438 -5 523 67 535 155 L610 687 C611 695 607 700 599 700 L530 700 C522 700 516 695 515 687 L442 165 Z " />
<glyph glyph-name="umacron" unicode="&#x16b;" horiz-adv-x="504" d="M228 656 C220 656 214 651 213 643 L205 584 C203 576 208 571 216 571 L448 571 C456 571 461 576 463 584 L471 643 C472 651 468 656 460 656 L228 656 Z M359 146 C354 111 316 80 283 80 L243 80 C210 80 180 111 185 146 L235 502 C236 510 232 515 224 515 L155 515 C147 515 141 510 140 502 L89 141 C79 69 126 -5 213 -5 L288 -5 C376 -5 443 69 453 141 L504 502 C505 510 501 515 493 515 L424 515 C416 515 410 510 409 502 L359 146 Z " />
<glyph glyph-name="Ubreve" unicode="&#x16c;" horiz-adv-x="589" d="M399 751 C487 751 555 798 583 886 C584 895 579 901 570 901 L515 901 C507 901 500 895 496 886 C477 843 441 832 410 832 C380 832 348 843 341 886 C339 895 334 901 326 901 L271 901 C262 901 255 895 254 886 C258 798 312 751 399 751 L399 751 Z M442 165 C435 117 390 80 348 80 L263 80 C221 80 186 117 193 165 L266 687 C267 695 263 700 255 700 L186 700 C178 700 172 695 171 687 L96 155 C84 67 149 -5 242 -5 L345 -5 C438 -5 523 67 535 155 L610 687 C611 695 607 700 599 700 L530 700 C522 700 516 695 515 687 L442 165 Z " />
<glyph glyph-name="ubreve" unicode="&#x16d;" horiz-adv-x="504" d="M359 146 C354 111 316 80 283 80 L243 80 C210 80 180 111 185 146 L235 502 C236 510 232 515 224 515 L155 515 C147 515 141 510 140 502 L89 141 C79 69 126 -5 213 -5 L288 -5 C376 -5 443 69 453 141 L504 502 C505 510 501 515 493 515 L424 515 C416 515 410 510 409 502 L359 146 Z M333 571 C420 571 471 618 500 706 C501 715 496 721 487 721 L432 721 C424 721 417 715 413 706 C394 663 374 652 344 652 C314 652 298 663 291 706 C289 715 284 721 276 721 L221 721 C212 721 205 715 204 706 C207 618 246 571 333 571 L333 571 Z " />
<glyph glyph-name="Uring" unicode="&#x16e;" horiz-adv-x="589" d="M432 977 C361 977 295 920 285 848 C275 777 325 719 396 719 C467 719 533 777 543 848 C553 920 503 977 432 977 L432 977 Z M406 791 C374 791 353 819 357 848 C361 881 390 905 422 905 C454 905 475 881 471 848 C467 819 438 791 406 791 L406 791 Z M442 165 C435 117 390 80 348 80 L263 80 C221 80 186 117 193 165 L266 687 C267 695 263 700 255 700 L186 700 C178 700 172 695 171 687 L96 155 C84 67 149 -5 242 -5 L345 -5 C438 -5 523 67 535 155 L610 687 C611 695 607 700 599 700 L530 700 C522 700 516 695 515 687 L442 165 Z " />
<glyph glyph-name="uring" unicode="&#x16f;" horiz-adv-x="504" d="M368 829 C297 829 231 772 221 700 C211 629 261 571 332 571 C403 571 469 629 479 700 C489 772 439 829 368 829 L368 829 Z M342 643 C310 643 289 671 293 700 C298 733 326 757 358 757 C390 757 412 733 407 700 C403 671 374 643 342 643 L342 643 Z M359 146 C354 111 316 80 283 80 L243 80 C210 80 180 111 185 146 L235 502 C236 510 232 515 224 515 L155 515 C147 515 141 510 140 502 L89 141 C79 69 126 -5 213 -5 L288 -5 C376 -5 443 69 453 141 L504 502 C505 510 501 515 493 515 L424 515 C416 515 410 510 409 502 L359 146 Z " />
<glyph glyph-name="Uhungarumlaut" unicode="&#x170;" horiz-adv-x="589" d="M350 751 C359 751 365 757 370 765 L437 875 C439 884 433 889 425 889 L364 889 C355 889 350 883 344 875 L277 765 C276 756 280 751 289 751 L350 751 Z M510 751 C519 751 525 757 530 765 L597 875 C599 884 593 889 585 889 L524 889 C515 889 510 883 504 875 L437 765 C436 756 440 751 449 751 L510 751 Z M442 165 C435 117 390 80 348 80 L263 80 C221 80 186 117 193 165 L266 687 C267 695 263 700 255 700 L186 700 C178 700 172 695 171 687 L96 155 C84 67 149 -5 242 -5 L345 -5 C438 -5 523 67 535 155 L610 687 C611 695 607 700 599 700 L530 700 C522 700 516 695 515 687 L442 165 Z " />
<glyph glyph-name="uhungarumlaut" unicode="&#x171;" horiz-adv-x="504" d="M281 571 C290 571 296 577 301 585 L368 695 C369 704 364 709 356 709 L295 709 C286 709 280 703 275 695 L208 585 C206 576 211 571 220 571 L281 571 Z M441 571 C450 571 456 577 461 585 L528 695 C529 704 524 709 516 709 L455 709 C446 709 440 703 435 695 L368 585 C366 576 371 571 380 571 L441 571 Z M359 146 C354 111 316 80 283 80 L243 80 C210 80 180 111 185 146 L235 502 C236 510 232 515 224 515 L155 515 C147 515 141 510 140 502 L89 141 C79 69 126 -5 213 -5 L288 -5 C376 -5 443 69 453 141 L504 502 C505 510 501 515 493 515 L424 515 C416 515 410 510 409 502 L359 146 Z " />
<glyph glyph-name="Uogonek" unicode="&#x172;" horiz-adv-x="589" d="M228 -52 C226 -55 224 -58 224 -60 L219 -93 C219 -98 222 -102 227 -102 L282 -102 C282 -102 306 -102 303 -125 C300 -146 276 -146 276 -146 L216 -146 C211 -146 206 -150 206 -155 L201 -186 C201 -191 204 -195 209 -195 L286 -195 C333 -195 350 -178 359 -119 C366 -71 330 -53 291 -53 L322 -5 L345 -5 C438 -5 523 67 535 155 L610 687 C611 695 607 700 599 700 L530 700 C522 700 516 695 515 687 L442 165 C435 117 390 80 348 80 L263 80 C221 80 186 117 193 165 L266 687 C267 695 263 700 255 700 L186 700 C178 700 172 695 171 687 L96 155 C84 67 149 -5 242 -5 L259 -5 L228 -52 Z " />
<glyph glyph-name="uogonek" unicode="&#x173;" horiz-adv-x="504" d="M493 515 L424 515 C416 515 410 510 409 502 L359 146 C354 111 316 80 283 80 L243 80 C210 80 180 111 185 146 L235 502 C236 510 232 515 224 515 L155 515 C147 515 141 510 140 502 L89 141 C79 69 126 -5 213 -5 L221 -5 L214 -53 C175 -53 135 -71 128 -119 C119 -178 132 -195 179 -195 L256 -195 C261 -195 266 -191 266 -186 L271 -155 C271 -150 268 -146 263 -146 L203 -146 C203 -146 179 -146 182 -125 C185 -102 209 -102 209 -102 L259 -102 C264 -102 269 -98 269 -93 L282 -5 L288 -5 C376 -5 443 69 453 141 L504 502 C505 510 501 515 493 515 L493 515 Z " />
<glyph glyph-name="Ydieresis" unicode="&#x178;" horiz-adv-x="561" d="M255 766 C254 757 259 751 268 751 L339 751 C348 751 355 757 356 766 L367 843 C368 852 363 858 354 858 L283 858 C274 858 267 852 266 843 L255 766 Z M418 766 C417 757 422 751 431 751 L502 751 C511 751 518 757 519 766 L530 843 C531 852 526 858 517 858 L446 858 C437 858 430 852 429 843 L418 766 Z M358 220 L627 687 C628 695 624 700 616 700 L544 700 C536 700 532 697 527 689 L334 350 L325 350 L226 689 C223 697 221 700 213 700 L141 700 C133 700 127 695 126 687 L263 220 L234 13 C233 5 238 0 246 0 L315 0 C323 0 328 5 329 13 L358 220 Z " />
<glyph glyph-name="Zacute" unicode="&#x179;" horiz-adv-x="512" d="M398 751 C406 751 412 757 417 765 L490 883 C491 892 486 897 478 897 L417 897 C409 897 403 891 398 883 L325 765 C324 756 328 751 337 751 L398 751 Z M426 615 L69 73 C66 69 63 64 63 59 L56 13 C55 5 60 0 68 0 L444 0 C452 0 457 5 458 13 L467 72 C468 80 463 85 455 85 L183 85 L541 627 C543 631 546 636 547 641 L553 687 C554 695 550 700 542 700 L166 700 C158 700 152 695 151 687 L143 628 C142 620 146 615 154 615 L426 615 Z " />
<glyph glyph-name="zacute" unicode="&#x17a;" horiz-adv-x="437" d="M342 571 C350 571 356 577 361 585 L433 703 C435 712 429 717 421 717 L360 717 C352 717 346 711 341 703 L269 585 C267 576 272 571 281 571 L342 571 Z M445 442 C447 446 450 449 450 454 L457 502 C458 510 454 515 446 515 L135 515 C127 515 121 510 120 502 L112 443 C111 435 115 430 123 430 L334 430 L64 73 C60 69 59 66 58 61 L51 13 C50 5 55 0 63 0 L374 0 C382 0 387 5 388 13 L397 72 C398 80 393 85 385 85 L174 85 L445 442 Z " />
<glyph glyph-name="Zdotaccent" unicode="&#x17b;" horiz-adv-x="512" d="M313 766 C312 757 317 751 326 751 L397 751 C406 751 413 757 414 766 L425 843 C426 852 421 858 412 858 L341 858 C332 858 325 852 324 843 L313 766 Z M426 615 L69 73 C66 69 63 64 63 59 L56 13 C55 5 60 0 68 0 L444 0 C452 0 457 5 458 13 L467 72 C468 80 463 85 455 85 L183 85 L541 627 C543 631 546 636 547 641 L553 687 C554 695 550 700 542 700 L166 700 C158 700 152 695 151 687 L143 628 C142 620 146 615 154 615 L426 615 Z " />
<glyph glyph-name="zdotaccent" unicode="&#x17c;" horiz-adv-x="437" d="M250 586 C249 577 254 571 263 571 L334 571 C343 571 350 577 351 586 L362 663 C363 672 358 678 349 678 L278 678 C269 678 262 672 261 663 L250 586 Z M445 442 C447 446 450 449 450 454 L457 502 C458 510 454 515 446 515 L135 515 C127 515 121 510 120 502 L112 443 C111 435 115 430 123 430 L334 430 L64 73 C60 69 59 66 58 61 L51 13 C50 5 55 0 63 0 L374 0 C382 0 387 5 388 13 L397 72 C398 80 393 85 385 85 L174 85 L445 442 Z " />
<glyph glyph-name="Zcaron" unicode="&#x17d;" horiz-adv-x="512" d="M401 769 C409 769 415 774 421 783 L514 931 C515 938 511 943 503 943 L440 943 C434 943 428 937 424 931 L376 854 L348 931 C346 937 342 943 336 943 L273 943 C265 943 259 938 258 931 L311 783 C313 774 319 769 327 769 L401 769 Z M426 615 L69 73 C66 69 63 64 63 59 L56 13 C55 5 60 0 68 0 L444 0 C452 0 457 5 458 13 L467 72 C468 80 463 85 455 85 L183 85 L541 627 C543 631 546 636 547 641 L553 687 C554 695 550 700 542 700 L166 700 C158 700 152 695 151 687 L143 628 C142 620 146 615 154 615 L426 615 Z " />
<glyph glyph-name="zcaron" unicode="&#x17e;" horiz-adv-x="437" d="M335 571 C343 571 349 576 355 585 L449 733 C450 740 445 745 437 745 L374 745 C368 745 362 739 359 733 L310 656 L283 733 C280 739 276 745 270 745 L207 745 C199 745 194 740 193 733 L245 585 C247 576 253 571 261 571 L335 571 Z M445 442 C447 446 450 449 450 454 L457 502 C458 510 454 515 446 515 L135 515 C127 515 121 510 120 502 L112 443 C111 435 115 430 123 430 L334 430 L64 73 C60 69 59 66 58 61 L51 13 C50 5 55 0 63 0 L374 0 C382 0 387 5 388 13 L397 72 C398 80 393 85 385 85 L174 85 L445 442 Z " />
<glyph glyph-name="florin" unicode="&#x192;" horiz-adv-x="369" d="M405 700 C318 700 264 621 239 552 L214 480 L123 480 C115 480 109 475 108 467 L100 408 C99 400 103 395 111 395 L178 395 L-47 -168 C-48 -180 -43 -181 -35 -181 L31 -181 C39 -181 45 -176 48 -168 L273 395 L368 395 C376 395 382 400 383 408 L391 467 C392 475 388 480 380 480 L310 480 L337 556 C347 585 378 615 412 615 L437 615 C445 615 451 620 452 628 L460 687 C461 695 457 700 449 700 L405 700 Z " />
<glyph glyph-name="uni0218" unicode="&#x218;" horiz-adv-x="545" d="M240 -53 C231 -53 225 -59 220 -67 L161 -179 C160 -188 165 -193 173 -193 L234 -193 C243 -193 249 -187 254 -179 L313 -67 C314 -58 310 -53 301 -53 L240 -53 Z M236 80 C194 80 161 119 168 165 L170 182 C171 190 167 195 159 195 L90 195 C82 195 76 190 75 182 L71 155 C59 67 126 -5 217 -5 L321 -5 C414 -5 499 67 511 155 L514 172 C555 464 189 314 216 509 L220 535 C226 581 270 620 312 620 L392 620 C434 620 466 581 460 535 L457 518 C456 510 460 505 468 505 L537 505 C545 505 551 510 552 518 L556 545 C568 633 502 705 411 705 L316 705 C225 705 138 633 126 545 L123 522 C82 228 448 381 420 184 L418 165 C411 117 366 80 324 80 L236 80 Z " />
<glyph glyph-name="uni0219" unicode="&#x219;" horiz-adv-x="472" d="M202 -53 C193 -53 187 -59 182 -67 L123 -179 C122 -188 127 -193 135 -193 L196 -193 C205 -193 211 -187 216 -179 L275 -67 C276 -58 272 -53 263 -53 L202 -53 Z M315 435 C349 435 377 404 372 369 L371 357 C370 349 374 344 382 344 L451 344 C459 344 465 349 466 357 L468 374 C478 446 431 520 344 520 L273 520 C185 520 120 458 110 386 L109 379 C81 182 362 256 348 150 L346 136 C340 98 305 80 271 80 L228 80 C194 80 165 111 170 146 L172 158 C173 166 169 171 161 171 L92 171 C84 171 78 166 77 158 L74 141 C64 69 112 -5 199 -5 L277 -5 C366 -5 430 57 440 129 L442 143 C469 341 188 267 202 369 L204 379 C209 417 245 435 279 435 L315 435 Z " />
<glyph glyph-name="uni021A" unicode="&#x21a;" horiz-adv-x="519" d="M221 -53 C212 -53 206 -59 201 -67 L142 -179 C141 -188 146 -193 154 -193 L215 -193 C224 -193 230 -187 235 -179 L294 -67 C295 -58 291 -53 282 -53 L221 -53 Z M156 700 C148 700 142 695 141 687 L133 628 C132 620 136 615 144 615 L298 615 L213 13 C212 5 217 0 225 0 L294 0 C302 0 307 5 308 13 L393 615 L547 615 C555 615 561 620 562 628 L570 687 C571 695 567 700 559 700 L156 700 Z " />
<glyph glyph-name="uni021B" unicode="&#x21b;" horiz-adv-x="377" d="M220 -53 C211 -53 205 -59 200 -67 L141 -179 C140 -188 145 -193 153 -193 L214 -193 C223 -193 229 -187 234 -179 L293 -67 C294 -58 290 -53 281 -53 L220 -53 Z M324 0 C332 0 337 5 338 13 L347 72 C348 80 343 85 335 85 L299 85 C266 85 236 117 241 151 L280 430 L384 430 C392 430 398 435 399 443 L407 502 C408 510 404 515 396 515 L292 515 L316 687 C317 695 313 700 305 700 L236 700 C228 700 222 695 221 687 L197 515 L120 515 C112 515 106 510 105 502 L97 443 C96 435 100 430 108 430 L185 430 L145 148 C140 74 182 0 269 0 L324 0 Z " />
<glyph glyph-name="circumflex" unicode="&#x2c6;" horiz-adv-x="416" d="M269 700 C261 700 254 695 249 686 L155 538 C154 531 158 526 166 526 L229 526 C235 526 241 532 245 538 L294 615 L321 538 C323 532 327 526 333 526 L396 526 C404 526 410 531 411 538 L359 686 C356 695 351 700 343 700 L269 700 Z " />
<glyph glyph-name="caron" unicode="&#x2c7;" horiz-adv-x="416" d="M318 526 C326 526 333 531 338 540 L432 688 C433 695 429 700 421 700 L358 700 C352 700 346 694 342 688 L293 611 L266 688 C264 694 260 700 254 700 L191 700 C183 700 177 695 176 688 L228 540 C231 531 236 526 244 526 L318 526 Z " />
<glyph glyph-name="breve" unicode="&#x2d8;" horiz-adv-x="456" d="M305 550 C392 550 443 597 472 685 C473 694 468 700 459 700 L404 700 C396 700 389 694 385 685 C366 642 346 631 316 631 C286 631 270 642 263 685 C261 694 256 700 248 700 L193 700 C184 700 177 694 176 685 C179 597 218 550 305 550 L305 550 Z " />
<glyph glyph-name="dotaccent" unicode="&#x2d9;" horiz-adv-x="261" d="M165 608 C164 599 169 593 178 593 L249 593 C258 593 265 599 266 608 L277 685 C278 694 273 700 264 700 L193 700 C184 700 177 694 176 685 L165 608 Z " />
<glyph glyph-name="ring" unicode="&#x2da;" horiz-adv-x="418" d="M314 752 C243 752 177 695 167 623 C157 552 207 494 278 494 C349 494 415 552 425 623 C435 695 385 752 314 752 L314 752 Z M288 566 C256 566 235 594 239 623 C244 656 272 680 304 680 C336 680 358 656 353 623 C349 594 320 566 288 566 L288 566 Z " />
<glyph glyph-name="ogonek" unicode="&#x2db;" horiz-adv-x="308" d="M166 1 C161 1 156 -3 155 -8 L149 -53 C110 -53 70 -71 63 -119 C54 -178 67 -195 114 -195 L191 -195 C196 -195 201 -191 201 -186 L206 -155 C206 -150 203 -146 198 -146 L138 -146 C138 -146 114 -146 117 -125 C120 -102 144 -102 144 -102 L194 -102 C199 -102 204 -98 204 -93 L216 -8 C217 -3 214 1 209 1 L166 1 Z " />
<glyph glyph-name="tilde" unicode="&#x2dc;" horiz-adv-x="418" d="M348 573 C367 573 391 581 413 593 C418 596 422 601 423 607 L415 659 C414 665 409 667 404 667 C402 667 400 667 397 666 C384 662 367 658 360 658 C305 658 300 700 248 700 C229 700 205 692 183 680 C178 677 174 672 173 666 L181 614 C182 608 187 606 192 606 C194 606 196 606 199 607 C212 611 229 615 236 615 C291 615 295 573 348 573 L348 573 Z " />
<glyph glyph-name="hungarumlaut" unicode="&#x2dd;" horiz-adv-x="465" d="M233 562 C242 562 248 568 253 576 L321 686 C322 695 317 700 309 700 L248 700 C239 700 233 694 228 686 L160 576 C159 567 163 562 172 562 L233 562 Z M393 562 C402 562 408 568 413 576 L481 686 C482 695 477 700 469 700 L408 700 C399 700 393 694 388 686 L320 576 C319 567 323 562 332 562 L393 562 Z " />
<glyph glyph-name="uni03A9" unicode="&#x3a9;" horiz-adv-x="727" d="M410 700 C317 700 231 628 218 539 L167 172 C165 157 160 110 188 85 L104 85 C96 85 91 80 90 72 L81 13 C80 5 85 0 93 0 L267 0 C275 0 280 5 281 13 L289 70 C290 78 286 83 278 86 C252 98 259 155 262 175 L312 530 C318 575 364 615 406 615 L493 615 C535 615 569 575 563 530 L513 175 C510 155 501 98 473 86 C463 83 457 78 456 70 L448 13 C447 5 452 0 460 0 L634 0 C642 0 647 5 648 13 L657 72 C658 80 653 85 645 85 L561 85 C597 110 606 157 608 172 L659 539 C672 628 606 700 513 700 L410 700 Z " />
<glyph glyph-name="pi" unicode="&#x3c0;" horiz-adv-x="763" d="M165 515 C157 515 151 510 150 502 L142 443 C141 435 145 430 153 430 L271 430 L212 13 C211 5 216 0 224 0 L293 0 C301 0 306 5 307 13 L366 430 L517 430 L458 13 C457 5 462 0 470 0 L539 0 C547 0 552 5 553 13 L612 430 L730 430 C738 430 744 435 745 443 L753 502 C754 510 750 515 742 515 L165 515 Z " />
<glyph glyph-name="ZWSP" unicode="&#x200b;" d="" />
<glyph glyph-name="endash" unicode="&#x2013;" horiz-adv-x="386" d="M132 282 C124 282 118 277 117 269 L109 210 C108 202 112 197 120 197 L320 197 C328 197 334 202 335 210 L343 269 C344 277 340 282 332 282 L132 282 Z " />
<glyph glyph-name="emdash" unicode="&#x2014;" horiz-adv-x="446" d="M132 282 C124 282 118 277 117 269 L109 210 C108 202 112 197 120 197 L380 197 C388 197 394 202 395 210 L403 269 C404 277 400 282 392 282 L132 282 Z " />
<glyph glyph-name="quoteleft" unicode="&#x2018;" horiz-adv-x="294" d="M232 550 C241 550 247 556 252 564 L310 686 C311 695 306 700 298 700 L237 700 C228 700 222 694 217 686 L159 564 C158 555 162 550 171 550 L232 550 Z " />
<glyph glyph-name="quoteright" unicode="&#x2019;" horiz-adv-x="294" d="M237 700 C228 700 222 694 217 686 L159 564 C158 555 163 550 171 550 L232 550 C241 550 247 556 252 564 L310 686 C311 695 307 700 298 700 L237 700 Z " />
<glyph glyph-name="quotesinglbase" unicode="&#x201a;" horiz-adv-x="294" d="M150 82 C141 82 135 76 130 68 L72 -54 C71 -63 76 -68 84 -68 L145 -68 C154 -68 160 -62 165 -54 L223 68 C224 77 220 82 211 82 L150 82 Z " />
<glyph glyph-name="quotedblleft" unicode="&#x201c;" horiz-adv-x="456" d="M232 550 C241 550 247 556 252 564 L310 686 C311 695 306 700 298 700 L237 700 C228 700 222 694 217 686 L159 564 C158 555 162 550 171 550 L232 550 Z M394 550 C403 550 409 556 414 564 L472 686 C473 695 468 700 460 700 L399 700 C390 700 384 694 379 686 L321 564 C320 555 324 550 333 550 L394 550 Z " />
<glyph glyph-name="quotedblright" unicode="&#x201d;" horiz-adv-x="456" d="M399 700 C390 700 384 694 379 686 L321 564 C320 555 325 550 333 550 L394 550 C403 550 409 556 414 564 L472 686 C473 695 469 700 460 700 L399 700 Z M237 700 C228 700 222 694 217 686 L159 564 C158 555 163 550 171 550 L232 550 C241 550 247 556 252 564 L310 686 C311 695 307 700 298 700 L237 700 Z " />
<glyph glyph-name="quotedblbase" unicode="&#x201e;" horiz-adv-x="456" d="M312 82 C303 82 297 76 292 68 L234 -54 C233 -63 238 -68 246 -68 L307 -68 C316 -68 322 -62 327 -54 L385 68 C386 77 382 82 373 82 L312 82 Z M150 82 C141 82 135 76 130 68 L72 -54 C71 -63 76 -68 84 -68 L145 -68 C154 -68 160 -62 165 -54 L223 68 C224 77 220 82 211 82 L150 82 Z " />
<glyph glyph-name="dagger" unicode="&#x2020;" horiz-adv-x="471" d="M358 540 L379 687 C380 695 376 700 368 700 L299 700 C291 700 285 695 284 687 L263 540 L168 540 C160 540 155 535 154 527 L145 468 C144 460 148 455 156 455 L251 455 L152 -255 C151 -263 155 -268 163 -268 L232 -268 C240 -268 246 -263 247 -255 L346 455 L441 455 C449 455 455 460 456 468 L465 527 C466 535 461 540 453 540 L358 540 Z " />
<glyph glyph-name="daggerdbl" unicode="&#x2021;" horiz-adv-x="471" d="M366 -85 C374 -85 379 -80 380 -72 L389 -13 C390 -5 386 0 378 0 L283 0 L346 455 L441 455 C449 455 455 460 456 468 L465 527 C466 535 461 540 453 540 L358 540 L379 687 C380 695 376 700 368 700 L299 700 C291 700 285 695 284 687 L263 540 L168 540 C160 540 155 535 154 527 L145 468 C144 460 148 455 156 455 L251 455 L188 0 L93 0 C85 0 79 -5 78 -13 L69 -72 C68 -80 73 -85 81 -85 L176 -85 L152 -255 C151 -263 155 -268 163 -268 L232 -268 C240 -268 246 -263 247 -255 L271 -85 L366 -85 Z " />
<glyph glyph-name="bullet" unicode="&#x2022;" horiz-adv-x="261" d="M106 187 C105 178 110 172 119 172 L190 172 C199 172 206 178 207 187 L218 264 C219 273 214 279 205 279 L134 279 C125 279 118 273 117 264 L106 187 Z " />
<glyph glyph-name="ellipsis" unicode="&#x2026;" horiz-adv-x="963" d="M81 10 C80 1 85 -5 94 -5 L165 -5 C174 -5 181 1 182 10 L193 87 C194 96 189 102 180 102 L109 102 C100 102 93 96 92 87 L81 10 Z M432 10 C431 1 436 -5 445 -5 L516 -5 C525 -5 532 1 533 10 L544 87 C545 96 540 102 531 102 L460 102 C451 102 444 96 443 87 L432 10 Z M783 10 C782 1 787 -5 796 -5 L867 -5 C876 -5 883 1 884 10 L895 87 C896 96 891 102 882 102 L811 102 C802 102 795 96 794 87 L783 10 Z " />
<glyph glyph-name="perthousand" unicode="&#x2030;" horiz-adv-x="1071" d="M205 13 C204 5 209 0 217 0 L289 0 C297 0 301 5 305 13 L685 687 C686 695 682 700 674 700 L602 700 C594 700 589 695 585 687 L205 13 Z M299 700 C232 700 170 645 161 579 C151 512 198 457 265 457 C332 457 395 512 405 579 C414 645 366 700 299 700 L299 700 Z M275 528 C246 528 227 553 231 579 C235 608 260 630 289 630 C315 630 337 608 333 579 C329 553 301 528 275 528 L275 528 Z M617 243 C550 243 488 188 479 122 C469 55 516 0 583 0 C650 0 713 55 723 122 C732 188 684 243 617 243 L617 243 Z M592 71 C563 71 545 96 549 122 C553 151 578 173 607 173 C633 173 655 151 651 122 C647 96 618 71 592 71 L592 71 Z M902 243 C835 243 773 188 764 122 C754 55 801 0 868 0 C935 0 998 55 1008 122 C1017 188 969 243 902 243 L902 243 Z M877 71 C848 71 830 96 834 122 C838 151 863 173 892 173 C918 173 940 151 936 122 C932 96 903 71 877 71 L877 71 Z " />
<glyph glyph-name="guilsinglleft" unicode="&#x2039;" horiz-adv-x="386" d="M104 175 C103 166 108 160 116 158 L305 85 C311 85 318 89 319 97 L328 159 C329 168 324 172 318 175 L189 225 L190 232 L333 282 C340 285 346 289 347 298 L356 360 C357 368 352 372 346 372 L136 299 C127 297 120 291 119 282 L104 175 Z " />
<glyph glyph-name="guilsinglright" unicode="&#x203a;" horiz-adv-x="386" d="M345 282 C346 291 341 297 334 299 L144 372 C138 372 131 368 130 360 L121 298 C120 289 126 285 131 282 L260 232 L259 225 L116 175 C110 172 103 168 102 159 L93 97 C92 89 97 85 103 85 L314 158 C322 160 329 166 330 175 L345 282 Z " />
<glyph glyph-name="fraction" unicode="&#x2044;" horiz-adv-x="567" d="M56 -166 C55 -174 59 -179 67 -179 L140 -179 C148 -179 152 -174 156 -166 L598 791 C599 799 594 804 586 804 L513 804 C505 804 502 799 498 791 L56 -166 Z " />
<glyph glyph-name="Euro" unicode="&#x20ac;" horiz-adv-x="678" d="M159 474 C151 474 145 469 144 461 L138 417 C137 409 141 404 149 404 L215 404 L200 295 L134 295 C126 295 120 290 119 282 L113 238 C112 230 116 225 124 225 L190 225 L180 155 C168 67 233 -5 326 -5 L429 -5 C522 -5 607 67 619 155 L625 193 C626 201 621 206 613 206 L544 206 C536 206 531 201 530 193 L526 165 C519 117 474 80 432 80 L347 80 C305 80 270 117 277 165 L285 225 L356 225 C364 225 370 230 371 238 L377 282 C378 290 374 295 366 295 L295 295 L310 404 L381 404 C389 404 395 409 396 417 L402 461 C403 469 399 474 391 474 L320 474 L329 535 C335 581 381 620 423 620 L508 620 C550 620 584 581 578 535 L573 502 C572 494 576 489 584 489 L653 489 C661 489 667 494 668 502 L674 545 C686 633 622 705 529 705 L426 705 C333 705 247 633 235 545 L225 474 L159 474 Z " />
<glyph glyph-name="Numero" unicode="&#x2116;" horiz-adv-x="1107" d="M907 700 C820 700 752 626 742 554 L710 321 C699 249 746 175 833 175 L906 175 C994 175 1061 249 1072 321 L1104 554 C1114 626 1068 700 981 700 L907 700 Z M863 260 C830 260 800 291 805 326 L837 549 C842 584 880 615 913 615 L951 615 C984 615 1014 584 1009 549 L977 326 C972 291 934 260 901 260 L863 260 Z M757 85 C749 85 744 80 743 72 L734 13 C733 5 738 0 746 0 L944 0 C952 0 957 5 958 13 L967 72 C968 80 963 85 955 85 L757 85 Z M412 13 C415 6 421 0 429 0 L536 0 C544 0 549 5 550 13 L645 687 C646 695 642 700 634 700 L565 700 C557 700 551 695 550 687 L478 176 L468 176 L314 687 C311 694 306 700 298 700 L191 700 C183 700 177 695 176 687 L81 13 C80 5 85 0 93 0 L162 0 C170 0 175 5 176 13 L248 526 L259 526 L412 13 Z " />
<glyph glyph-name="trademark" unicode="&#x2122;" horiz-adv-x="718" d="M203 403 C202 398 206 394 211 394 L262 394 C267 394 271 398 272 403 L305 635 L364 635 C368 635 372 639 373 643 L380 692 C380 696 377 700 373 700 L186 700 C182 700 177 696 177 692 L170 643 C169 639 173 635 177 635 L236 635 L203 403 Z M553 436 C556 436 558 438 559 441 L650 581 L625 403 C624 398 628 394 633 394 L684 394 C689 394 693 398 694 403 L735 691 C735 696 732 700 727 700 L671 700 C665 700 660 695 656 689 L562 552 L557 552 L501 689 C499 695 496 700 490 700 L434 700 C429 700 424 696 424 691 L383 403 C382 398 386 394 391 394 L442 394 C447 394 451 398 452 403 L477 581 L528 441 C529 438 531 436 534 436 L553 436 Z " />
<glyph glyph-name="Omega" unicode="&#x2126;" horiz-adv-x="727" d="M410 700 C317 700 231 628 218 539 L167 172 C165 157 160 110 188 85 L104 85 C96 85 91 80 90 72 L81 13 C80 5 85 0 93 0 L267 0 C275 0 280 5 281 13 L289 70 C290 78 286 83 278 86 C252 98 259 155 262 175 L312 530 C318 575 364 615 406 615 L493 615 C535 615 569 575 563 530 L513 175 C510 155 501 98 473 86 C463 83 457 78 456 70 L448 13 C447 5 452 0 460 0 L634 0 C642 0 647 5 648 13 L657 72 C658 80 653 85 645 85 L561 85 C597 110 606 157 608 172 L659 539 C672 628 606 700 513 700 L410 700 Z " />
<glyph glyph-name="partialdiff" unicode="&#x2202;" horiz-adv-x="537" d="M382 146 C377 111 339 80 306 80 L253 80 C219 80 190 111 195 146 L214 284 C219 319 257 350 291 350 L344 350 C377 350 406 319 401 284 L382 146 Z M417 398 L409 398 C392 429 353 435 333 435 L291 435 C204 435 132 372 120 287 L100 143 C88 58 142 -5 229 -5 L271 -5 C291 -5 332 1 358 32 L366 32 L363 13 C362 5 367 0 375 0 L444 0 C452 0 457 5 458 13 L535 559 C545 631 499 705 412 705 L338 705 C249 705 182 631 172 559 L170 543 C169 535 173 530 181 530 L250 530 C258 530 264 535 265 543 L266 554 C271 589 309 620 342 620 L382 620 C415 620 444 589 439 554 L417 398 Z " />
<glyph glyph-name="Delta" unicode="&#x2206;" horiz-adv-x="844" d="M642 85 L224 85 L506 601 L642 85 Z M467 700 C458 700 452 694 448 686 L81 10 C80 4 84 0 90 0 L754 0 C760 0 764 4 765 10 L588 686 C586 694 582 700 573 700 L467 700 Z " />
<glyph glyph-name="product" unicode="&#x220f;" horiz-adv-x="763" d="M191 700 C183 700 177 695 176 687 L168 628 C167 620 171 615 179 615 L297 615 L212 13 C211 5 216 0 224 0 L293 0 C301 0 306 5 307 13 L392 615 L543 615 L458 13 C457 5 462 0 470 0 L539 0 C547 0 552 5 553 13 L638 615 L756 615 C764 615 770 620 771 628 L779 687 C780 695 776 700 768 700 L191 700 Z " />
<glyph glyph-name="summation" unicode="&#x2211;" horiz-adv-x="523" d="M261 333 L93 98 L81 13 C80 5 85 0 93 0 L430 0 C438 0 443 5 444 13 L453 72 C454 80 449 85 441 85 L171 85 L358 347 L359 353 L246 615 L516 615 C524 615 530 620 531 628 L539 687 C540 695 536 700 528 700 L191 700 C183 700 177 695 176 687 L164 602 L266 367 L261 333 Z " />
<glyph glyph-name="minus" unicode="&#x2212;" horiz-adv-x="386" d="M132 282 C124 282 118 277 117 269 L109 210 C108 202 112 197 120 197 L320 197 C328 197 334 202 335 210 L343 269 C344 277 340 282 332 282 L132 282 Z " />
<glyph glyph-name="radical" unicode="&#x221a;" horiz-adv-x="709" d="M523 700 C515 700 511 695 507 687 L271 97 L261 97 L232 371 C230 379 227 384 219 384 L146 384 C138 384 133 379 132 371 L177 13 C178 5 183 0 191 0 L315 0 C323 0 328 5 331 13 L577 615 L702 615 C710 615 716 620 717 628 L725 687 C726 695 722 700 714 700 L523 700 Z " />
<glyph glyph-name="infinity" unicode="&#x221e;" horiz-adv-x="906" d="M262 157 C230 157 201 188 206 221 L216 295 C221 329 258 360 290 360 L391 360 C421 360 449 332 447 301 L436 221 C431 188 395 157 363 157 L262 157 Z M587 157 C555 157 527 188 532 221 L543 301 C549 332 585 360 615 360 L716 360 C748 360 777 329 772 295 L762 221 C757 188 720 157 688 157 L587 157 Z M472 142 C491 81 535 72 566 72 L695 72 C782 72 846 144 856 215 L868 302 C878 373 834 445 747 445 L618 445 C587 445 541 436 505 375 C487 436 443 445 412 445 L283 445 C196 445 132 373 122 302 L110 215 C100 144 144 72 231 72 L360 72 C391 72 437 81 472 142 L472 142 Z " />
<glyph glyph-name="integral" unicode="&#x222b;" horiz-adv-x="439" d="M412 700 C372 685 261 634 243 511 L173 12 C173 12 162 -58 73 -94 C68 -96 65 -101 65 -106 C64 -107 65 -110 66 -112 L83 -176 C84 -181 89 -183 93 -183 C94 -183 97 -183 99 -182 C139 -167 250 -116 267 7 L338 506 C338 506 348 576 438 612 C443 614 445 619 446 624 C446 625 446 628 445 630 L428 694 C427 699 422 701 418 701 C417 701 414 701 412 700 L412 700 Z " />
<glyph glyph-name="approxequal" unicode="&#x2248;" horiz-adv-x="418" d="M275 53 C294 53 318 61 340 73 C345 76 349 81 350 87 L342 139 C341 145 336 147 331 147 C329 147 327 147 324 146 C310 142 294 138 287 138 C232 138 227 180 175 180 C156 180 132 172 110 160 C105 157 101 152 100 146 L108 94 C109 88 114 86 119 86 C121 86 123 86 126 87 C139 91 156 95 163 95 C218 95 222 53 275 53 L275 53 Z M301 238 C320 238 344 246 366 258 C371 261 375 266 376 272 L368 324 C367 330 362 332 357 332 C355 332 353 332 350 331 C336 327 320 323 313 323 C258 323 253 365 201 365 C182 365 158 357 136 345 C131 342 127 337 126 331 L134 279 C135 273 140 271 145 271 C147 271 149 271 152 272 C165 276 182 280 189 280 C244 280 248 238 301 238 L301 238 Z " />
<glyph glyph-name="notequal" unicode="&#x2260;" horiz-adv-x="401" d="M125 186 C117 186 111 181 110 173 L102 114 C100 106 105 101 113 101 L122 101 L81 13 C80 5 85 0 93 0 L159 0 C167 0 170 5 174 13 L215 101 L312 101 C320 101 325 106 327 114 L335 173 C336 181 332 186 324 186 L254 186 L301 291 L338 291 C346 291 352 296 353 304 L362 363 C363 371 358 376 350 376 L340 376 L388 478 C389 486 385 491 377 491 L311 491 C303 491 299 486 295 478 L247 376 L151 376 C143 376 138 371 137 363 L128 304 C127 296 131 291 139 291 L208 291 L161 186 L125 186 Z " />
<glyph glyph-name="lessequal" unicode="&#x2264;" horiz-adv-x="386" d="M104 85 C96 85 91 80 90 72 L81 13 C80 5 85 0 93 0 L293 0 C301 0 306 5 307 13 L316 72 C317 80 312 85 304 85 L104 85 Z M112 228 C110 219 115 213 123 211 L313 138 C319 138 325 142 327 150 L335 212 C337 221 331 225 326 228 L197 278 L198 285 L341 335 C347 338 354 342 355 351 L364 413 C365 421 359 425 353 425 L143 352 C135 350 128 344 127 335 L112 228 Z " />
<glyph glyph-name="greaterequal" unicode="&#x2265;" horiz-adv-x="386" d="M104 85 C96 85 91 80 90 72 L81 13 C80 5 85 0 93 0 L293 0 C301 0 306 5 307 13 L316 72 C317 80 312 85 304 85 L104 85 Z M353 335 C354 344 349 350 341 352 L151 425 C145 425 139 421 138 413 L129 351 C128 342 133 338 139 335 L268 285 L267 278 L124 228 C117 225 111 221 109 212 L101 150 C99 142 105 138 111 138 L321 211 C329 213 336 219 338 228 L353 335 Z " />
<glyph glyph-name="lozenge" unicode="&#x25ca;" horiz-adv-x="622" d="M479 689 C477 695 473 700 467 700 L352 700 C345 700 339 695 335 689 L129 350 L240 11 C242 5 247 0 253 0 L369 0 C375 0 380 5 384 11 L591 350 L479 689 Z M322 80 L235 349 L397 617 L485 349 L322 80 Z " />
<glyph glyph-name="uni25CC" unicode="&#x25cc;" horiz-adv-x="199" d="" />
<glyph glyph-name="fi" unicode="&#xfb01;" horiz-adv-x="636" d="M280 430 L384 430 C392 430 398 435 399 443 L407 502 C408 510 404 515 396 515 L292 515 L303 593 C308 628 347 659 380 659 L416 659 C424 659 430 664 431 672 L439 731 C440 739 436 744 428 744 L373 744 C286 744 224 670 208 597 L197 515 L120 515 C112 515 106 510 105 502 L97 443 C96 435 100 430 108 430 L185 430 L126 13 C125 5 130 0 138 0 L207 0 C215 0 220 5 221 13 L280 430 Z M463 13 C462 5 467 0 475 0 L544 0 C552 0 557 5 558 13 L627 502 C628 510 624 515 616 515 L547 515 C539 515 533 510 532 502 L463 13 Z M542 591 C540 583 545 578 553 578 L628 578 C636 578 641 583 643 591 L654 671 C655 679 651 684 643 684 L568 684 C560 684 554 679 553 671 L542 591 Z " />
<glyph glyph-name="fl" unicode="&#xfb02;" horiz-adv-x="637" d="M280 430 L384 430 C392 430 398 435 399 443 L407 502 C408 510 404 515 396 515 L292 515 L303 593 C308 628 347 659 380 659 L416 659 C424 659 430 664 431 672 L439 731 C440 739 436 744 428 744 L373 744 C286 744 224 670 208 597 L197 515 L120 515 C112 515 106 510 105 502 L97 443 C96 435 100 430 108 430 L185 430 L126 13 C125 5 130 0 138 0 L207 0 C215 0 220 5 221 13 L280 430 Z M463 13 C462 5 467 0 475 0 L544 0 C552 0 557 5 558 13 L653 687 C654 695 650 700 642 700 L573 700 C565 700 559 695 558 687 L463 13 Z " />
</font>
</svg>
