<?xml version="1.0" encoding="UTF-8"?>
<svg xmlns="http://www.w3.org/2000/svg" xmlns:xlink="http://www.w3.org/1999/xlink" version="1.2" >
<font id="Tomkin Narrow Black Italic">
<font-face  font-family="Tomkin Narrow" units-per-em="1000" ascent="750" descent="-250" font-style="italic" font-weight="900" font-stretch="normal" cap-height="700" x-height="515" underline-position="-91" underline-thickness="35" />
<missing-glyph  horiz-adv-x="569" d="" />
<glyph glyph-name="space" unicode="&#x20;" horiz-adv-x="182" d="" />
<glyph glyph-name="exclam" unicode="&#x21;" horiz-adv-x="284" d="M62 15 C60 3 68 -6 80 -6 L202 -6 C214 -6 224 3 226 15 L239 112 C241 124 233 133 221 133 L99 133 C87 133 77 124 75 112 L62 15 Z M209 163 C221 163 230 173 232 184 L263 303 L316 679 C318 691 310 700 298 700 L182 700 C170 700 160 691 158 679 L105 303 L102 184 C102 173 107 163 119 163 L209 163 Z " />
<glyph glyph-name="quotedbl" unicode="&#x22;" horiz-adv-x="467" d="M139 460 C138 448 145 439 157 439 L235 439 C247 439 256 448 259 460 L291 584 L304 679 C306 691 298 700 286 700 L179 700 C167 700 157 691 155 679 L142 584 L139 460 Z M337 460 C336 448 343 439 355 439 L433 439 C445 439 454 448 457 460 L489 584 L502 679 C504 691 496 700 484 700 L377 700 C365 700 355 691 353 679 L340 584 L337 460 Z " />
<glyph glyph-name="numbersign" unicode="&#x23;" horiz-adv-x="780" d="M442 417 L510 417 L447 282 L379 282 L442 417 Z M742 567 L794 679 C796 691 788 700 776 700 L657 700 C645 700 637 690 631 679 L579 567 L511 567 L563 679 C565 691 557 700 545 700 L426 700 C414 700 406 690 400 679 L348 567 L271 567 C259 567 249 558 247 546 L232 438 C230 426 238 417 250 417 L279 417 L216 282 L120 282 C108 282 98 273 96 261 L81 153 C79 141 87 132 99 132 L147 132 L95 21 C94 9 102 0 114 0 L233 0 C245 0 252 10 258 21 L310 132 L379 132 L326 21 C325 9 333 0 345 0 L464 0 C476 0 483 10 489 21 L541 132 L607 132 C619 132 629 141 631 153 L646 261 C648 273 640 282 628 282 L610 282 L672 417 L757 417 C769 417 779 426 781 438 L796 546 C798 558 790 567 778 567 L742 567 Z " />
<glyph glyph-name="dollar" unicode="&#x24;" horiz-adv-x="585" d="M289 492 L292 517 C295 538 314 555 334 555 L400 555 C419 555 432 538 429 517 L426 491 C424 479 432 470 444 470 L560 470 C572 470 582 479 584 491 L588 524 C601 614 544 688 459 702 L474 811 C476 823 468 832 456 832 L354 832 C342 832 332 823 330 811 L315 703 C224 688 146 615 133 524 L130 503 C92 230 409 307 394 206 L391 183 C388 162 369 145 350 145 L273 145 C254 145 240 162 243 183 L248 215 C249 227 242 236 230 236 L114 236 C102 236 91 227 90 215 L84 176 C71 85 130 11 216 -3 L200 -116 C199 -128 206 -137 218 -137 L320 -137 C332 -137 343 -128 344 -116 L360 -4 C455 8 536 83 549 176 L551 192 C592 477 272 376 289 492 L289 492 Z " />
<glyph glyph-name="percent" unicode="&#x25;" horiz-adv-x="776" d="M299 700 C222 700 149 637 138 558 C127 481 182 417 259 417 C339 417 411 481 422 558 C433 637 379 700 299 700 L299 700 Z M273 517 C251 517 235 536 238 558 C241 581 263 600 285 600 C308 600 324 581 321 558 C318 536 296 517 273 517 L273 517 Z M707 679 C709 691 701 700 689 700 L570 700 C558 700 550 690 544 679 L163 21 C162 9 170 0 182 0 L301 0 C313 0 320 10 326 21 L707 679 Z M612 283 C535 283 462 220 451 141 C440 64 496 0 573 0 C653 0 724 64 735 141 C746 220 692 283 612 283 L612 283 Z M587 100 C565 100 548 119 551 141 C555 164 576 183 598 183 C621 183 638 164 634 141 C631 119 610 100 587 100 L587 100 Z " />
<glyph glyph-name="ampersand" unicode="&#x26;" horiz-adv-x="618" d="M392 278 L374 150 L274 150 C254 150 241 167 244 188 L251 240 C254 261 272 278 292 278 L392 278 Z M601 278 C613 278 623 287 625 299 L639 401 C641 413 633 422 621 422 L337 422 C318 422 304 439 307 460 L315 517 C318 538 337 555 356 555 L396 555 C414 555 428 538 425 517 L421 484 C419 472 427 463 439 463 L555 463 C567 463 577 472 579 484 L584 524 C598 625 529 705 425 705 L371 705 C267 705 172 625 158 524 L149 459 C144 425 156 393 169 367 C132 334 100 290 93 241 L85 181 C71 80 141 0 245 0 L490 0 C502 0 512 9 513 21 L550 278 L601 278 Z " />
<glyph glyph-name="quotesingle" unicode="&#x27;" horiz-adv-x="269" d="M139 460 C138 448 145 439 157 439 L235 439 C247 439 256 448 259 460 L291 584 L304 679 C306 691 298 700 286 700 L179 700 C167 700 157 691 155 679 L142 584 L139 460 Z " />
<glyph glyph-name="parenleft" unicode="&#x28;" horiz-adv-x="329" d="M261 312 C282 460 324 634 379 784 C380 796 373 805 361 805 L244 805 C232 805 221 796 217 784 C163 636 124 462 103 312 C82 162 72 -9 84 -157 C86 -169 93 -178 105 -178 L222 -178 C234 -178 245 -169 246 -157 C234 -7 241 164 261 312 L261 312 Z " />
<glyph glyph-name="parenright" unicode="&#x29;" horiz-adv-x="329" d="M154 312 C134 164 93 -7 37 -157 C36 -169 43 -178 55 -178 L172 -178 C184 -178 195 -169 199 -157 C253 -9 291 162 312 312 C333 462 344 636 332 784 C330 796 323 805 311 805 L194 805 C182 805 171 796 170 784 C183 634 175 460 154 312 L154 312 Z " />
<glyph glyph-name="asterisk" unicode="&#x2a;" horiz-adv-x="500" d="M306 700 C296 700 286 693 284 683 L272 595 L223 630 C220 632 217 634 214 634 C209 634 201 631 197 627 L141 558 C138 554 137 550 136 547 C136 542 137 538 142 534 L218 476 L149 405 C146 402 144 398 144 395 C143 388 147 383 149 381 L204 325 C207 323 211 322 214 322 C220 322 225 324 228 327 L306 405 L362 327 C365 324 370 322 376 322 C379 322 383 323 386 325 L457 381 C459 383 465 388 466 395 C466 398 466 402 463 405 L414 476 L508 534 C513 538 516 542 516 547 C517 550 516 554 515 558 L479 627 C475 631 469 634 464 634 C461 634 456 632 453 630 L394 595 L406 683 C408 693 400 700 390 700 L306 700 Z " />
<glyph glyph-name="plus" unicode="&#x2b;" horiz-adv-x="450" d="M349 326 L362 419 C364 431 356 440 344 440 L228 440 C216 440 206 431 204 419 L191 326 L126 326 C114 326 104 317 102 305 L87 198 C86 186 93 177 105 177 L170 177 L157 84 C156 72 163 63 175 63 L291 63 C303 63 314 72 315 84 L328 177 L393 177 C405 177 416 186 417 198 L432 305 C434 317 426 326 414 326 L349 326 Z " />
<glyph glyph-name="comma" unicode="&#x2c;" horiz-adv-x="333" d="M173 -99 C185 -99 194 -89 200 -79 L285 90 C287 100 280 109 269 109 L161 109 C149 109 139 99 133 90 L48 -79 C47 -90 55 -99 65 -99 L173 -99 Z " />
<glyph glyph-name="hyphen" unicode="&#x2d;" horiz-adv-x="397" d="M340 176 C352 176 363 185 364 197 L379 305 C381 317 373 326 361 326 L126 326 C114 326 104 317 102 305 L87 197 C86 185 93 176 105 176 L340 176 Z " />
<glyph glyph-name="period" unicode="&#x2e;" horiz-adv-x="278" d="M62 16 C60 4 68 -5 80 -5 L196 -5 C208 -5 218 4 220 16 L236 134 C238 146 230 155 218 155 L102 155 C90 155 80 146 78 134 L62 16 Z " />
<glyph glyph-name="slash" unicode="&#x2f;" horiz-adv-x="584" d="M38 -153 C36 -165 44 -174 56 -174 L175 -174 C187 -174 196 -164 202 -153 L634 783 C635 795 627 804 615 804 L496 804 C484 804 475 794 470 783 L38 -153 Z " />
<glyph glyph-name="zero" unicode="0" horiz-adv-x="561" d="M262 145 C244 145 230 162 233 183 L280 517 C283 538 302 555 320 555 L397 555 C416 555 428 538 425 517 L378 183 C375 162 358 145 339 145 L262 145 Z M322 -5 C427 -5 521 75 535 176 L584 524 C598 625 527 705 422 705 L337 705 C232 705 137 625 123 524 L74 176 C60 75 132 -5 237 -5 L322 -5 Z " />
<glyph glyph-name="one" unicode="1" horiz-adv-x="517" d="M458 679 C460 691 452 700 440 700 L318 700 L150 636 C138 632 127 622 125 610 L111 507 C109 495 117 486 129 486 L281 542 L226 150 L110 150 C98 150 87 141 86 129 L70 21 C69 9 77 0 89 0 L481 0 C493 0 503 9 504 21 L520 129 C521 141 514 150 502 150 L384 150 L458 679 Z " />
<glyph glyph-name="two" unicode="2" horiz-adv-x="535" d="M219 150 L222 172 C238 290 521 186 561 476 L568 524 C582 625 510 705 406 705 L325 705 C221 705 128 625 114 524 L110 491 C108 479 116 470 128 470 L244 470 C256 470 266 479 268 491 L271 517 C274 538 293 555 311 555 L380 555 C399 555 412 538 409 517 L402 466 C385 348 103 449 63 164 L42 21 C41 9 49 0 61 0 L474 0 C486 0 496 9 497 21 L513 129 C514 141 507 150 495 150 L219 150 Z " />
<glyph glyph-name="three" unicode="3" horiz-adv-x="545" d="M367 183 C364 162 346 145 327 145 L257 145 C239 145 225 162 228 183 L232 209 C234 221 226 230 214 230 L98 230 C86 230 76 221 74 209 L69 176 C55 75 125 -5 229 -5 L311 -5 C415 -5 510 75 524 176 L534 249 C540 287 525 326 503 355 C535 384 559 420 564 461 L573 524 C587 625 515 705 411 705 L329 705 C225 705 132 625 118 524 L114 491 C112 479 120 470 132 470 L248 470 C260 470 270 479 272 491 L275 517 C278 538 297 555 315 555 L385 555 C404 555 417 538 414 517 L407 468 C404 446 386 430 367 430 L290 430 C278 430 268 421 266 409 L251 301 C249 289 257 280 269 280 L348 280 C365 278 378 262 376 242 L367 183 Z " />
<glyph glyph-name="four" unicode="4" horiz-adv-x="557" d="M470 679 C472 691 464 700 452 700 L325 700 C313 700 305 690 299 679 L52 233 L42 159 C40 147 48 138 60 138 L334 138 L317 21 C316 9 324 0 336 0 L452 0 C464 0 474 9 475 21 L492 138 L528 138 C545 138 558 150 560 166 L573 260 C575 276 566 288 549 288 L513 288 L535 443 C536 455 529 464 517 464 L401 464 C389 464 378 455 377 443 L355 288 L255 288 L470 679 Z " />
<glyph glyph-name="five" unicode="5" horiz-adv-x="544" d="M92 297 C91 285 98 276 110 276 L220 276 C229 276 241 283 246 291 C253 300 264 304 273 304 L353 304 C373 304 386 288 383 266 L371 183 C368 162 351 145 331 145 L262 145 C244 145 230 162 233 183 L236 206 C238 218 230 227 218 227 L102 227 C90 227 80 218 78 206 L74 176 C60 75 132 -5 237 -5 L316 -5 C420 -5 514 75 528 176 L542 273 C556 374 484 454 380 454 L305 454 C297 454 283 452 272 449 L286 550 L516 550 C528 550 538 559 540 571 L555 679 C557 691 549 700 537 700 L170 700 C158 700 148 691 146 679 L92 297 Z " />
<glyph glyph-name="six" unicode="6" horiz-adv-x="551" d="M263 145 C243 145 230 162 233 183 L243 254 C246 276 264 292 284 292 L359 292 C378 292 391 276 388 254 L378 183 C375 162 357 145 338 145 L263 145 Z M574 524 C588 625 518 705 414 705 L337 705 C233 705 137 625 123 524 L74 176 C60 75 133 -5 237 -5 L323 -5 C427 -5 521 75 535 176 L547 261 C561 362 490 442 386 442 L304 442 C294 442 280 439 268 434 L280 517 C283 538 301 555 321 555 L386 555 C404 555 419 541 415 517 L413 499 C411 487 419 478 431 478 L547 478 C559 478 569 487 571 499 L574 524 Z " />
<glyph glyph-name="seven" unicode="7" horiz-adv-x="481" d="M281 21 C331 187 408 405 535 566 L551 679 C553 691 545 700 533 700 L144 700 C132 700 122 691 120 679 L105 571 C103 559 111 550 123 550 L358 550 C232 383 166 192 122 21 C121 9 129 0 141 0 L256 0 C268 0 277 9 281 21 L281 21 Z " />
<glyph glyph-name="eight" unicode="8" horiz-adv-x="556" d="M312 426 C294 426 280 443 283 464 L290 517 C293 538 313 555 331 555 L381 555 C399 555 413 538 410 517 L403 464 C400 443 380 426 362 426 L312 426 Z M357 276 C375 276 389 260 386 238 L378 183 C375 162 357 145 339 145 L257 145 C239 145 225 162 228 183 L236 238 C239 260 257 276 275 276 L357 276 Z M322 -5 C426 -5 521 75 535 176 L545 245 C551 286 535 332 504 362 C533 388 555 424 560 457 L569 524 C583 625 512 705 408 705 L346 705 C242 705 147 625 133 524 L124 457 C119 424 131 388 152 362 C113 332 85 286 79 245 L69 176 C55 75 128 -5 232 -5 L322 -5 Z " />
<glyph glyph-name="nine" unicode="9" horiz-adv-x="541" d="M386 555 C406 555 418 538 415 517 L404 438 C401 416 384 400 364 400 L289 400 C270 400 256 416 259 438 L270 517 C273 538 292 555 311 555 L386 555 Z M74 176 C60 75 131 -5 235 -5 L312 -5 C416 -5 511 75 525 176 L574 524 C588 625 516 705 412 705 L326 705 C222 705 127 625 113 524 L100 431 C86 330 158 250 262 250 L344 250 C354 250 367 253 379 258 L368 183 C365 162 348 145 328 145 L263 145 C245 145 230 159 233 183 L236 201 C237 213 230 222 218 222 L102 222 C90 222 79 213 78 201 L74 176 Z " />
<glyph glyph-name="colon" unicode="&#x3a;" horiz-adv-x="278" d="M62 16 C60 4 68 -5 80 -5 L196 -5 C208 -5 218 4 220 16 L236 134 C238 146 230 155 218 155 L102 155 C90 155 80 146 78 134 L62 16 Z M102 301 C100 289 108 280 120 280 L236 280 C248 280 258 289 260 301 L276 419 C278 431 270 440 258 440 L142 440 C130 440 120 431 118 419 L102 301 Z " />
<glyph glyph-name="semicolon" unicode="&#x3b;" horiz-adv-x="333" d="M156 301 C154 289 162 280 174 280 L290 280 C302 280 312 289 314 301 L330 419 C332 431 324 440 312 440 L196 440 C184 440 174 431 172 419 L156 301 Z M173 -99 C185 -99 194 -89 200 -79 L285 90 C287 100 280 109 269 109 L161 109 C149 109 139 99 133 90 L48 -79 C47 -90 55 -99 65 -99 L173 -99 Z " />
<glyph glyph-name="less" unicode="&#x3c;" horiz-adv-x="388" d="M82 162 C81 152 87 146 98 142 L318 61 C328 61 337 68 339 79 L352 176 C354 187 347 195 337 198 L233 233 L235 246 L349 281 C359 284 369 292 370 303 L384 400 C385 411 378 418 368 418 L126 336 C113 332 105 326 104 316 L82 162 Z " />
<glyph glyph-name="equal" unicode="&#x3d;" horiz-adv-x="393" d="M323 82 C335 82 345 91 347 103 L360 196 C362 208 354 217 342 217 L111 217 C99 217 89 208 87 196 L74 103 C72 91 80 82 92 82 L323 82 Z M348 263 C360 263 371 272 372 284 L385 377 C387 389 379 398 367 398 L136 398 C124 398 114 389 112 377 L99 284 C98 272 105 263 117 263 L348 263 Z " />
<glyph glyph-name="greater" unicode="&#x3e;" horiz-adv-x="388" d="M372 316 C373 326 367 332 356 336 L136 418 C126 418 117 411 116 400 L102 303 C101 292 107 284 117 281 L221 246 L219 233 L105 198 C95 195 86 187 84 176 L71 79 C69 68 76 61 86 61 L328 142 C341 146 349 152 350 162 L372 316 Z " />
<glyph glyph-name="question" unicode="&#x3f;" horiz-adv-x="574" d="M587 524 C601 625 529 705 425 705 L344 705 C240 705 147 625 133 524 L129 491 C127 479 135 470 147 470 L263 470 C275 470 285 479 287 491 L290 517 C293 538 312 555 330 555 L399 555 C418 555 431 538 428 517 L424 485 C406 357 243 456 209 214 L205 188 C203 176 211 167 223 167 L339 167 C351 167 361 176 363 188 L366 210 C383 330 546 233 581 481 L587 524 Z M178 16 C176 4 184 -5 196 -5 L318 -5 C330 -5 340 4 342 16 L355 113 C357 125 349 134 337 134 L215 134 C203 134 193 125 191 113 L178 16 Z " />
<glyph glyph-name="at" unicode="&#x40;" horiz-adv-x="708" d="M720 519 C735 620 663 700 559 700 L344 700 C240 700 147 620 132 519 L69 66 C55 -35 125 -115 229 -115 L481 -115 C493 -115 504 -106 505 -94 L520 8 C521 20 514 29 502 29 L248 29 C230 29 215 46 218 67 L281 518 C284 539 304 556 322 556 L541 556 C561 556 573 539 570 518 L564 470 L548 470 C530 496 508 506 487 506 L456 506 C360 506 309 436 296 344 L281 239 C268 147 299 77 395 77 L426 77 C447 77 473 87 497 113 L505 113 L504 103 C502 91 510 82 522 82 L638 82 C650 82 660 91 662 103 L720 519 Z M451 329 C453 345 470 359 485 359 L510 359 C525 359 538 345 536 329 L525 254 C523 238 506 224 491 224 L466 224 C451 224 438 238 440 254 L451 329 Z " />
<glyph glyph-name="A" unicode="A" horiz-adv-x="584" d="M312 700 C300 700 290 691 285 679 L17 21 C16 9 24 0 36 0 L155 0 C167 0 176 9 180 21 L215 112 L399 112 L408 21 C410 9 417 0 429 0 L548 0 C560 0 570 9 571 21 L489 679 C488 691 480 700 468 700 L312 700 Z M353 475 L363 475 L384 261 L271 261 L353 475 Z " />
<glyph glyph-name="B" unicode="B" horiz-adv-x="545" d="M277 424 L295 551 L370 551 C389 551 403 534 400 513 L392 462 C389 441 371 424 352 424 L277 424 Z M358 275 C378 275 391 258 388 237 L381 187 C378 166 360 149 340 149 L238 149 L256 275 L358 275 Z M179 700 C167 700 157 691 155 679 L62 21 C61 9 69 0 81 0 L327 0 C431 0 526 80 540 181 L548 241 C555 289 533 334 500 367 C526 392 547 424 552 459 L560 519 C575 620 502 700 398 700 L179 700 Z " />
<glyph glyph-name="C" unicode="C" horiz-adv-x="546" d="M542 221 C543 233 536 242 524 242 L408 242 C396 242 385 233 384 221 L378 183 C375 162 358 145 339 145 L262 145 C244 145 230 162 233 183 L280 517 C283 538 302 555 320 555 L397 555 C416 555 428 538 425 517 L420 479 C418 467 426 458 438 458 L554 458 C566 458 576 467 578 479 L584 524 C598 625 527 705 422 705 L337 705 C232 705 137 625 123 524 L74 176 C60 75 132 -5 237 -5 L322 -5 C427 -5 521 75 535 176 L542 221 Z " />
<glyph glyph-name="D" unicode="D" horiz-adv-x="572" d="M62 21 C61 9 69 0 81 0 L334 0 C438 0 533 80 547 181 L594 519 C609 620 536 700 432 700 L179 700 C167 700 157 691 155 679 L62 21 Z M406 551 C425 551 439 534 436 513 L390 187 C387 166 368 149 349 149 L238 149 L295 551 L406 551 Z " />
<glyph glyph-name="E" unicode="E" horiz-adv-x="505" d="M239 150 L258 287 L452 287 C464 287 474 296 476 308 L491 416 C493 428 485 437 473 437 L279 437 L295 550 L511 550 C523 550 533 559 535 571 L550 679 C552 691 544 700 532 700 L179 700 C167 700 157 691 155 679 L62 21 C61 9 69 0 81 0 L434 0 C446 0 456 9 457 21 L473 129 C474 141 467 150 455 150 L239 150 Z " />
<glyph glyph-name="F" unicode="F" horiz-adv-x="475" d="M448 262 C460 262 471 271 472 283 L487 391 C489 403 481 412 469 412 L275 412 L295 550 L511 550 C523 550 533 559 535 571 L550 679 C552 691 544 700 532 700 L179 700 C167 700 157 691 155 679 L62 21 C61 9 69 0 81 0 L197 0 C209 0 219 9 220 21 L254 262 L448 262 Z " />
<glyph glyph-name="G" unicode="G" horiz-adv-x="561" d="M347 406 C335 406 324 397 323 385 L308 283 C307 271 314 262 326 262 L389 262 L378 183 C375 162 358 145 339 145 L262 145 C244 145 230 162 233 183 L280 517 C283 538 302 555 320 555 L397 555 C416 555 428 538 425 517 L420 479 C418 467 426 458 438 458 L554 458 C566 458 576 467 578 479 L584 524 C598 625 527 705 422 705 L337 705 C232 705 137 625 123 524 L74 176 C60 75 132 -5 237 -5 L322 -5 C427 -5 521 75 535 176 L565 385 C566 397 559 406 547 406 L347 406 Z " />
<glyph glyph-name="H" unicode="H" horiz-adv-x="578" d="M362 21 C361 9 369 0 381 0 L497 0 C509 0 519 9 520 21 L613 679 C615 691 607 700 595 700 L479 700 C467 700 457 691 455 679 L418 414 L276 414 L313 679 C315 691 307 700 295 700 L179 700 C167 700 157 691 155 679 L62 21 C61 9 69 0 81 0 L197 0 C209 0 219 9 220 21 L255 265 L397 265 L362 21 Z " />
<glyph glyph-name="I" unicode="I" horiz-adv-x="278" d="M62 21 C61 9 69 0 81 0 L197 0 C209 0 219 9 220 21 L313 679 C315 691 307 700 295 700 L179 700 C167 700 157 691 155 679 L62 21 Z " />
<glyph glyph-name="J" unicode="J" horiz-adv-x="427" d="M7 76 C28 51 72 -5 169 -5 C312 -5 399 88 413 185 L482 679 C484 691 476 700 464 700 L348 700 C336 700 326 691 324 679 L255 187 C254 183 248 145 184 145 C161 145 145 155 125 174 C121 177 116 178 111 178 C105 178 100 177 94 174 L13 107 C6 101 3 97 2 90 C2 86 3 81 7 76 L7 76 Z " />
<glyph glyph-name="K" unicode="K" horiz-adv-x="558" d="M325 425 L277 425 L313 679 C315 691 307 700 295 700 L179 700 C167 700 157 691 155 679 L62 21 C61 9 69 0 81 0 L197 0 C209 0 219 9 220 21 L256 275 L303 275 L370 21 C374 10 383 0 395 0 L516 0 C528 0 538 9 539 21 L452 351 L629 679 C631 691 623 700 611 700 L492 700 C480 700 468 690 462 679 L325 425 Z " />
<glyph glyph-name="L" unicode="L" horiz-adv-x="474" d="M239 150 L313 679 C315 691 307 700 295 700 L179 700 C167 700 157 691 155 679 L62 21 C61 9 69 0 81 0 L433 0 C445 0 455 9 456 21 L472 129 C473 141 466 150 454 150 L239 150 Z " />
<glyph glyph-name="M" unicode="M" horiz-adv-x="726" d="M405 88 C422 88 427 97 435 109 L551 313 L510 21 C509 9 517 0 529 0 L645 0 C657 0 667 9 668 21 L761 679 C763 691 755 700 743 700 L627 700 C615 700 604 690 598 679 L419 368 L409 368 L318 679 C314 690 307 700 295 700 L179 700 C167 700 157 691 155 679 L62 21 C61 9 69 0 81 0 L197 0 C209 0 219 9 220 21 L261 313 L321 109 C325 97 328 88 345 88 L405 88 Z " />
<glyph glyph-name="N" unicode="N" horiz-adv-x="609" d="M431 355 L349 678 C345 689 340 699 328 699 L179 699 C167 699 156 690 155 678 L62 21 C61 9 69 0 81 0 L197 0 C209 0 219 9 220 21 L266 345 L275 345 L357 21 C360 10 367 0 379 0 L528 0 C540 0 550 9 551 21 L644 678 C645 690 638 699 626 699 L510 699 C498 699 487 690 486 678 L440 355 L431 355 Z " />
<glyph glyph-name="O" unicode="O" horiz-adv-x="561" d="M262 145 C244 145 230 162 233 183 L280 517 C283 538 302 555 320 555 L397 555 C416 555 428 538 425 517 L378 183 C375 162 358 145 339 145 L262 145 Z M322 -5 C427 -5 521 75 535 176 L584 524 C598 625 527 705 422 705 L337 705 C232 705 137 625 123 524 L74 176 C60 75 132 -5 237 -5 L322 -5 Z " />
<glyph glyph-name="P" unicode="P" horiz-adv-x="555" d="M266 343 L295 550 L399 550 C419 550 431 533 428 512 L410 381 C407 361 390 343 370 343 L266 343 Z M179 700 C167 700 157 691 155 679 L62 21 C61 9 69 0 81 0 L197 0 C209 0 219 9 220 21 L245 193 L354 193 C458 193 553 273 567 374 L587 519 C602 620 529 700 425 700 L179 700 Z " />
<glyph glyph-name="Q" unicode="Q" horiz-adv-x="561" d="M422 705 L337 705 C232 705 137 625 123 524 L74 176 C61 80 125 3 221 -4 L251 -99 C254 -109 260 -118 271 -118 L374 -118 C385 -118 394 -110 396 -99 L366 0 C452 18 523 89 535 176 L584 524 C598 625 527 705 422 705 L422 705 Z M280 517 C283 538 302 555 320 555 L397 555 C416 555 428 538 425 517 L378 183 C375 162 358 145 339 145 L262 145 C244 145 230 162 233 183 L280 517 Z " />
<glyph glyph-name="R" unicode="R" horiz-adv-x="567" d="M472 230 C522 262 559 315 567 374 L587 519 C602 620 529 700 425 700 L179 700 C167 700 157 691 155 679 L62 21 C61 9 69 0 81 0 L197 0 C209 0 219 9 220 21 L245 193 L311 193 L363 21 C367 10 376 0 388 0 L516 0 C528 0 538 9 539 21 L472 230 Z M295 550 L399 550 C419 550 431 533 428 512 L410 381 C407 361 390 343 370 343 L266 343 L295 550 Z " />
<glyph glyph-name="S" unicode="S" horiz-adv-x="530" d="M306 -5 C410 -5 505 75 519 176 L521 192 C562 477 242 376 259 492 L262 517 C265 538 284 555 304 555 L370 555 C389 555 402 538 399 517 L396 491 C394 479 402 470 414 470 L530 470 C542 470 552 479 554 491 L558 524 C572 625 500 705 398 705 L317 705 C213 705 117 625 103 524 L100 503 C62 230 379 307 364 206 L361 183 C358 162 339 145 320 145 L243 145 C224 145 210 162 213 183 L218 215 C219 227 212 236 200 236 L84 236 C72 236 61 227 60 215 L54 176 C40 75 113 -5 215 -5 L306 -5 Z " />
<glyph glyph-name="T" unicode="T" horiz-adv-x="500" d="M144 700 C132 700 122 691 120 679 L105 571 C103 559 111 550 123 550 L248 550 L173 21 C172 9 180 0 192 0 L308 0 C320 0 330 9 331 21 L406 550 L531 550 C543 550 553 559 555 571 L570 679 C572 691 564 700 552 700 L144 700 Z " />
<glyph glyph-name="U" unicode="U" horiz-adv-x="571" d="M328 -5 C433 -5 526 75 540 176 L611 679 C613 691 605 700 593 700 L477 700 C465 700 455 691 453 679 L383 183 C380 162 362 145 344 145 L267 145 C249 145 235 162 238 183 L308 679 C310 691 302 700 290 700 L174 700 C162 700 152 691 150 679 L79 176 C65 75 136 -5 241 -5 L328 -5 Z " />
<glyph glyph-name="V" unicode="V" horiz-adv-x="584" d="M370 0 C382 0 392 9 396 21 L664 679 C666 691 658 700 646 700 L527 700 C515 700 506 691 501 679 L328 225 L318 225 L273 679 C272 691 265 700 253 700 L134 700 C122 700 112 691 110 679 L192 21 C194 9 202 0 214 0 L370 0 Z " />
<glyph glyph-name="W" unicode="W" horiz-adv-x="778" d="M438 700 C426 700 417 691 412 679 L272 288 L271 679 C271 691 263 700 251 700 L134 700 C122 700 112 691 110 679 L140 25 C141 11 152 0 168 0 L291 0 C308 0 317 10 323 26 L435 334 L461 26 C463 10 470 0 487 0 L610 0 C626 0 639 11 644 25 L858 679 C860 691 852 700 840 700 L723 700 C711 700 701 691 697 679 L586 288 L556 679 C555 691 548 700 536 700 L438 700 Z " />
<glyph glyph-name="X" unicode="X" horiz-adv-x="563" d="M321 244 L380 21 C384 10 391 0 403 0 L522 0 C534 0 544 9 545 21 L460 349 L638 679 C640 691 632 700 620 700 L501 700 C489 700 479 690 473 679 L350 453 L339 453 L280 679 C276 690 270 700 258 700 L139 700 C127 700 117 691 115 679 L201 349 L22 21 C21 9 29 0 41 0 L160 0 C172 0 181 10 187 21 L310 244 L321 244 Z " />
<glyph glyph-name="Y" unicode="Y" horiz-adv-x="570" d="M337 422 L268 679 C264 690 260 700 248 700 L129 700 C117 700 107 691 105 679 L237 227 L208 21 C207 9 215 0 227 0 L343 0 C355 0 365 9 366 21 L395 227 L655 679 C657 691 649 700 637 700 L518 700 C506 700 498 690 492 679 L351 422 L337 422 Z " />
<glyph glyph-name="Z" unicode="Z" horiz-adv-x="502" d="M255 150 L544 597 C547 602 553 612 553 617 L562 679 C564 691 556 700 544 700 L154 700 C142 700 132 691 130 679 L115 571 C113 559 121 550 133 550 L343 550 L55 103 C52 98 47 88 46 83 L37 21 C36 9 44 0 56 0 L446 0 C458 0 468 9 469 21 L485 129 C486 141 479 150 467 150 L255 150 Z " />
<glyph glyph-name="bracketleft" unicode="&#x5b;" horiz-adv-x="383" d="M214 -27 L310 655 L394 655 C406 655 416 664 418 676 L433 784 C434 796 427 805 415 805 L194 805 C182 805 171 796 170 784 L38 -156 C36 -168 44 -177 56 -177 L277 -177 C289 -177 299 -168 301 -156 L316 -48 C317 -36 310 -27 298 -27 L214 -27 Z " />
<glyph glyph-name="backslash" unicode="&#x5c;" horiz-adv-x="584" d="M334 783 C331 794 324 804 312 804 L193 804 C181 804 171 795 170 783 L338 -153 C340 -164 347 -174 359 -174 L478 -174 C490 -174 500 -165 502 -153 L334 783 Z " />
<glyph glyph-name="bracketright" unicode="&#x5d;" horiz-adv-x="383" d="M77 -27 C65 -27 54 -36 53 -48 L38 -156 C36 -168 44 -177 56 -177 L277 -177 C289 -177 299 -168 301 -156 L433 784 C434 796 427 805 415 805 L194 805 C182 805 171 796 170 784 L155 676 C153 664 161 655 173 655 L257 655 L161 -27 L77 -27 Z " />
<glyph glyph-name="asciicircum" unicode="&#x5e;" horiz-adv-x="450" d="M274 700 C257 700 246 691 238 679 L131 512 C130 500 137 492 149 492 L248 492 C260 492 269 501 274 512 L303 555 L318 512 C321 501 328 492 340 492 L439 492 C451 492 460 500 461 512 L402 679 C398 691 389 700 372 700 L274 700 Z " />
<glyph glyph-name="underscore" unicode="&#x5f;" horiz-adv-x="398" d="M298 -133 C310 -133 320 -124 322 -112 L337 -4 C339 8 331 17 319 17 L83 17 C71 17 61 8 59 -4 L44 -112 C42 -124 50 -133 62 -133 L298 -133 Z " />
<glyph glyph-name="grave" unicode="&#x60;" horiz-adv-x="347" d="M337 492 C347 492 357 501 358 512 L307 681 C303 690 297 700 285 700 L177 700 C166 700 157 691 155 681 L206 512 C210 502 217 492 229 492 L337 492 Z " />
<glyph glyph-name="a" unicode="a" horiz-adv-x="468" d="M174 360 C206 369 230 373 265 373 C314 373 314 351 310 322 L254 322 C158 322 78 275 65 182 L60 143 C47 50 86 -5 171 -5 L181 -5 C188 -5 237 -5 261 31 L269 31 L267 21 C266 9 274 0 286 0 L402 0 C414 0 424 9 425 21 L468 324 C475 372 494 520 303 520 C223 520 182 506 161 499 C150 496 142 489 141 479 C141 477 139 466 149 376 C151 363 158 359 164 359 C166 359 170 359 174 360 L174 360 Z M211 174 C213 190 228 201 242 201 L293 201 L287 163 C285 149 270 136 256 136 L233 136 C219 136 207 149 209 163 L211 174 Z " />
<glyph glyph-name="b" unicode="b" horiz-adv-x="500" d="M327 172 C324 156 307 142 292 142 L267 142 C252 142 239 156 242 172 L266 343 C268 359 285 373 300 373 L325 373 C340 373 353 359 351 343 L327 172 Z M510 358 C523 450 492 520 396 520 L365 520 C344 520 318 510 294 484 L286 484 L313 679 C315 691 307 700 295 700 L179 700 C167 700 157 691 155 679 L62 21 C61 9 69 0 81 0 L197 0 C209 0 219 9 220 21 L222 31 L230 31 C247 5 270 -5 291 -5 L322 -5 C418 -5 469 65 482 157 L510 358 Z " />
<glyph glyph-name="c" unicode="c" horiz-adv-x="455" d="M318 332 C316 320 324 311 336 311 L452 311 C464 311 474 320 476 332 L480 358 C491 438 442 520 342 520 L279 520 C181 520 106 438 95 358 L66 156 C55 77 107 -5 205 -5 L268 -5 C368 -5 440 77 451 156 L455 183 C457 195 449 204 437 204 L321 204 C309 204 299 195 297 183 L296 172 C293 156 276 142 261 142 L252 142 C237 142 224 156 227 172 L251 343 C253 359 270 373 285 373 L294 373 C309 373 322 359 320 343 L318 332 Z " />
<glyph glyph-name="d" unicode="d" horiz-adv-x="500" d="M245 343 C247 359 264 373 279 373 L304 373 C319 373 332 359 330 343 L306 172 C303 156 286 142 271 142 L246 142 C231 142 218 156 221 172 L245 343 Z M62 157 C49 65 80 -5 176 -5 L207 -5 C228 -5 253 5 278 31 L286 31 L284 21 C283 9 291 0 303 0 L419 0 C431 0 441 9 442 21 L535 679 C537 691 529 700 517 700 L401 700 C389 700 379 691 377 679 L350 484 L342 484 C324 510 302 520 281 520 L250 520 C154 520 103 450 90 358 L62 157 Z " />
<glyph glyph-name="e" unicode="e" horiz-adv-x="468" d="M251 343 C253 359 270 373 285 373 L293 373 C308 373 321 359 319 343 L314 312 L246 312 L251 343 Z M426 81 C428 85 431 90 432 93 C433 100 431 104 425 109 L360 170 C357 172 352 173 349 173 C341 173 335 169 330 164 C320 155 299 142 278 142 L252 142 C237 142 224 156 227 172 L230 197 L427 197 C444 197 457 208 459 225 L478 358 C489 438 440 520 340 520 L279 520 C181 520 106 438 95 358 L66 156 C55 77 107 -5 205 -5 L258 -5 C258 -5 364 -2 426 81 L426 81 Z " />
<glyph glyph-name="f" unicode="f" horiz-adv-x="368" d="M92 21 C91 9 99 0 111 0 L227 0 C239 0 249 9 250 21 L299 368 L372 368 C384 368 394 377 396 389 L411 494 C413 506 405 515 393 515 L320 515 L325 550 C327 566 344 580 359 580 L403 580 C415 580 425 589 427 601 L442 706 C443 718 436 727 424 727 L353 727 C254 727 185 645 169 565 L162 515 L108 515 C96 515 86 506 84 494 L69 389 C67 377 75 368 87 368 L141 368 L92 21 Z " />
<glyph glyph-name="g" unicode="g" horiz-adv-x="500" d="M245 343 C247 359 264 373 279 373 L304 373 C319 373 332 359 330 343 L306 172 C303 156 286 142 271 142 L246 142 C231 142 218 156 221 172 L245 343 Z M278 -22 C276 -38 263 -60 213 -60 C151 -60 157 -56 112 -49 C103 -49 97 -54 92 -66 C61 -146 55 -165 55 -168 C54 -177 59 -181 67 -185 C88 -192 125 -203 207 -203 C398 -203 430 -70 437 -20 L509 494 C511 506 503 515 491 515 L375 515 C363 515 353 506 351 494 L350 484 L342 484 C324 510 302 520 281 520 L250 520 C154 520 103 450 90 358 L62 157 C49 65 80 -5 176 -5 L207 -5 C228 -5 253 5 278 31 L286 31 L278 -22 Z " />
<glyph glyph-name="h" unicode="h" horiz-adv-x="501" d="M315 373 C330 373 343 359 341 343 L295 21 C294 9 302 0 314 0 L430 0 C442 0 452 9 453 21 L501 357 C509 450 494 520 398 520 L383 520 C359 520 322 510 291 470 L284 470 L313 678 C314 690 307 699 295 699 L179 699 C167 699 156 690 155 678 L62 21 C61 9 69 0 81 0 L197 0 C209 0 219 9 220 21 L265 338 C281 373 300 373 307 373 L315 373 Z " />
<glyph glyph-name="i" unicode="i" horiz-adv-x="278" d="M62 21 C61 9 69 0 81 0 L197 0 C209 0 219 9 220 21 L287 494 C289 506 281 515 269 515 L153 515 C141 515 131 506 129 494 L62 21 Z M138 579 C136 567 144 558 156 558 L278 558 C290 558 300 567 302 579 L316 676 C317 688 309 697 297 697 L175 697 C163 697 153 688 152 676 L138 579 Z " />
<glyph glyph-name="j" unicode="j" horiz-adv-x="278" d="M20 -188 C20 -188 198 -142 220 16 L287 494 C289 506 281 515 269 515 L153 515 C141 515 131 506 129 494 L62 21 C62 21 55 -23 -18 -45 C-27 -47 -32 -56 -33 -63 C-34 -65 -33 -69 -32 -71 L-4 -177 C-3 -186 3 -190 10 -190 C12 -190 18 -189 20 -188 L20 -188 Z M138 579 C136 567 144 558 156 558 L278 558 C290 558 300 567 302 579 L316 676 C317 688 309 697 297 697 L175 697 C163 697 153 688 152 676 L138 579 Z " />
<glyph glyph-name="k" unicode="k" horiz-adv-x="490" d="M271 197 L311 21 C316 9 329 0 341 0 L458 0 C470 0 480 9 481 21 L420 270 L549 494 C551 506 543 515 531 515 L413 515 C401 515 386 505 378 494 L294 342 L266 342 L313 679 C315 691 307 700 295 700 L179 700 C167 700 157 691 155 679 L62 21 C61 9 69 0 81 0 L197 0 C209 0 219 9 220 21 L245 197 L271 197 Z " />
<glyph glyph-name="l" unicode="l" horiz-adv-x="278" d="M62 21 C61 9 69 0 81 0 L197 0 C209 0 219 9 220 21 L313 679 C315 691 307 700 295 700 L179 700 C167 700 157 691 155 679 L62 21 Z " />
<glyph glyph-name="m" unicode="m" horiz-adv-x="712" d="M506 21 C505 9 513 0 525 0 L641 0 C653 0 663 9 664 21 L712 357 C725 450 691 520 594 520 C574 520 523 516 476 468 L466 468 C447 498 430 520 383 520 C367 520 322 515 291 470 L284 470 L287 494 C289 506 281 515 269 515 L153 515 C141 515 131 506 129 494 L62 21 C61 9 69 0 81 0 L197 0 C209 0 219 9 220 21 L265 335 C277 365 287 373 306 373 C324 373 333 362 331 342 L285 21 C284 9 292 0 304 0 L418 0 C430 0 440 9 441 21 L486 335 C498 365 508 373 527 373 C545 373 554 362 552 342 L506 21 Z " />
<glyph glyph-name="n" unicode="n" horiz-adv-x="501" d="M315 373 C330 373 343 359 341 343 L295 21 C294 9 302 0 314 0 L430 0 C442 0 452 9 453 21 L501 357 C509 450 494 520 398 520 L383 520 C359 520 322 510 291 470 L284 470 L287 494 C289 506 281 515 269 515 L153 515 C141 515 131 506 129 494 L62 21 C61 9 69 0 81 0 L197 0 C209 0 219 9 220 21 L265 338 C281 373 300 373 307 373 L315 373 Z " />
<glyph glyph-name="o" unicode="o" horiz-adv-x="475" d="M279 520 C181 520 106 438 95 358 L66 156 C55 77 107 -5 205 -5 L268 -5 C367 -5 440 77 451 156 L480 358 C491 438 441 520 342 520 L279 520 Z M251 343 C253 359 264 373 279 373 L300 373 C315 373 322 359 320 343 L296 172 C293 156 282 142 267 142 L246 142 C231 142 224 156 227 172 L251 343 Z " />
<glyph glyph-name="p" unicode="p" horiz-adv-x="500" d="M327 172 C324 156 307 142 292 142 L267 142 C252 142 239 156 242 172 L266 343 C268 359 285 373 300 373 L325 373 C340 373 353 359 351 343 L327 172 Z M510 358 C523 450 492 520 396 520 L365 520 C344 520 318 510 294 484 L286 484 L287 494 C289 506 281 515 269 515 L153 515 C141 515 131 506 129 494 L38 -153 C36 -165 44 -174 56 -174 L172 -174 C184 -174 194 -165 196 -153 L222 31 L230 31 C247 5 270 -5 291 -5 L322 -5 C418 -5 469 65 482 157 L510 358 Z " />
<glyph glyph-name="q" unicode="q" horiz-adv-x="500" d="M245 343 C247 359 264 373 279 373 L304 373 C319 373 332 359 330 343 L306 172 C303 156 286 142 271 142 L246 142 C231 142 218 156 221 172 L245 343 Z M62 157 C49 65 80 -5 176 -5 L207 -5 C228 -5 253 5 278 31 L286 31 L260 -153 C258 -165 266 -174 278 -174 L394 -174 C406 -174 416 -165 418 -153 L509 494 C511 506 503 515 491 515 L375 515 C363 515 353 506 351 494 L350 484 L342 484 C324 510 302 520 281 520 L250 520 C154 520 103 450 90 358 L62 157 Z " />
<glyph glyph-name="r" unicode="r" horiz-adv-x="378" d="M389 365 C401 365 411 374 413 386 L436 487 C438 500 435 505 422 511 C408 517 397 520 382 520 C353 520 326 517 291 474 L284 474 L287 494 C289 506 281 515 269 515 L153 515 C141 515 131 506 129 494 L62 21 C61 9 69 0 81 0 L197 0 C209 0 219 9 220 21 L264 333 C291 371 322 373 341 373 C365 373 367 368 389 365 L389 365 Z " />
<glyph glyph-name="s" unicode="s" horiz-adv-x="446" d="M309 352 C307 340 315 331 327 331 L436 331 C448 331 458 340 460 352 L461 359 C472 438 421 520 323 520 L269 520 C171 520 103 449 86 369 L85 361 C61 185 291 210 285 167 L283 155 C281 139 265 133 250 133 L234 133 C219 133 206 144 208 160 L209 167 C211 179 203 188 191 188 L82 188 C70 188 60 179 58 167 L56 156 C45 77 97 -5 195 -5 L255 -5 C354 -5 425 65 436 145 L438 159 C462 334 233 306 239 353 L241 364 C243 380 259 386 274 386 L284 386 C299 386 312 375 310 359 L309 352 Z " />
<glyph glyph-name="t" unicode="t" horiz-adv-x="362" d="M299 368 L372 368 C384 368 394 377 396 389 L411 494 C413 506 405 515 393 515 L320 515 L343 679 C345 691 337 700 325 700 L209 700 C197 700 187 691 185 679 L162 515 L108 515 C96 515 86 506 84 494 L69 389 C67 377 75 368 87 368 L141 368 L113 170 C99 70 152 0 251 0 L321 0 C333 0 343 9 344 21 L359 125 C361 137 353 146 341 146 L298 146 C283 146 270 160 272 176 L299 368 Z " />
<glyph glyph-name="u" unicode="u" horiz-adv-x="485" d="M301 172 C298 156 287 142 272 142 L251 142 C236 142 229 156 232 172 L277 494 C279 506 271 515 259 515 L143 515 C131 515 121 506 119 494 L71 156 C60 77 112 -5 210 -5 L273 -5 C371 -5 445 77 456 156 L504 494 C506 506 498 515 486 515 L370 515 C358 515 348 506 346 494 L301 172 Z " />
<glyph glyph-name="v" unicode="v" horiz-adv-x="452" d="M300 0 C312 0 323 9 327 21 L516 494 C518 506 510 515 498 515 L379 515 C367 515 358 506 353 494 L259 205 L249 205 L237 494 C236 506 229 515 217 515 L98 515 C86 515 76 506 74 494 L129 21 C131 9 140 0 152 0 L300 0 Z " />
<glyph glyph-name="w" unicode="w" horiz-adv-x="622" d="M340 515 C328 515 319 506 314 494 L237 279 L233 494 C232 506 225 515 213 515 L98 515 C86 515 76 506 74 494 L117 21 C119 9 126 0 138 0 L233 0 C245 0 253 8 258 21 L343 233 L368 21 C371 8 377 0 389 0 L484 0 C496 0 505 9 509 21 L686 494 C688 506 680 515 668 515 L553 515 C541 515 532 506 527 494 L463 279 L446 494 C445 506 438 515 426 515 L340 515 Z " />
<glyph glyph-name="x" unicode="x" horiz-adv-x="443" d="M249 154 L273 21 C277 10 287 0 299 0 L412 0 C424 0 434 9 435 21 L375 258 L499 494 C501 506 493 515 481 515 L367 515 C355 515 342 505 336 494 L279 369 L266 369 L245 494 C241 505 232 515 220 515 L106 515 C94 515 84 506 82 494 L140 258 L12 21 C11 9 19 0 31 0 L144 0 C156 0 168 10 174 21 L236 154 L249 154 Z " />
<glyph glyph-name="y" unicode="y" horiz-adv-x="452" d="M516 494 C518 506 510 515 498 515 L379 515 C367 515 358 506 353 494 L259 205 L249 205 L237 494 C236 506 229 515 217 515 L98 515 C86 515 76 506 74 494 L134 -15 C130 -38 107 -58 84 -58 L42 -58 C30 -58 20 -67 18 -79 L4 -182 C2 -194 10 -203 22 -203 L103 -203 C128 -203 245 -181 313 -13 L516 494 Z " />
<glyph glyph-name="z" unicode="z" horiz-adv-x="417" d="M247 148 L435 399 C441 408 445 414 446 422 L456 494 C458 506 450 515 438 515 L123 515 C111 515 101 506 99 494 L84 388 C82 376 90 367 102 367 L241 367 L54 116 C48 107 44 101 43 93 L32 21 C31 9 39 0 51 0 L366 0 C378 0 388 9 389 21 L404 127 C406 139 398 148 386 148 L247 148 Z " />
<glyph glyph-name="braceleft" unicode="&#x7b;" horiz-adv-x="449" d="M147 3 C133 -98 203 -178 307 -178 L342 -178 C354 -178 365 -169 366 -157 L382 -49 C383 -37 376 -28 364 -28 L336 -28 C318 -28 304 -11 307 10 L334 204 C340 248 333 283 311 314 C342 344 359 380 365 425 L392 617 C395 638 414 655 432 655 L460 655 C472 655 482 664 484 676 L499 784 C500 796 493 805 481 805 L446 805 C342 805 248 725 234 624 L206 426 C203 404 183 389 165 389 L135 389 C123 389 113 380 111 368 L96 260 C94 248 102 239 114 239 L144 239 C162 239 178 224 175 202 L147 3 Z " />
<glyph glyph-name="bar" unicode="&#x7c;" horiz-adv-x="278" d="M37 -157 C36 -169 43 -178 55 -178 L171 -178 C183 -178 194 -169 195 -157 L328 784 C329 796 322 805 310 805 L194 805 C182 805 171 796 170 784 L37 -157 Z " />
<glyph glyph-name="braceright" unicode="&#x7d;" horiz-adv-x="449" d="M330 202 C333 224 353 239 371 239 L401 239 C413 239 423 248 425 260 L440 368 C442 380 434 389 422 389 L392 389 C374 389 358 404 361 426 L389 624 C403 725 333 805 229 805 L194 805 C182 805 171 796 170 784 L155 676 C153 664 161 655 173 655 L201 655 C219 655 232 638 229 617 L202 425 C196 380 203 344 226 314 C194 283 177 248 171 204 L144 10 C141 -11 123 -28 105 -28 L77 -28 C65 -28 54 -37 53 -49 L37 -157 C36 -169 43 -178 55 -178 L90 -178 C194 -178 288 -98 302 3 L330 202 Z " />
<glyph glyph-name="asciitilde" unicode="&#x7e;" horiz-adv-x="426" d="M285 150 C313 150 351 166 378 182 C388 189 393 199 395 209 L380 295 C379 303 371 310 360 310 C340 310 323 299 306 299 C257 299 256 333 208 333 C180 333 142 317 115 301 C105 294 99 284 98 274 L113 188 C114 180 122 173 133 173 C153 173 170 184 187 184 C235 184 237 150 285 150 L285 150 Z " />
<glyph glyph-name="uni00A0" unicode="&#xa0;" horiz-adv-x="198" d="" />
<glyph glyph-name="exclamdown" unicode="&#xa1;" horiz-adv-x="284" d="M141 582 C140 570 147 561 159 561 L281 561 C293 561 304 570 305 582 L319 679 C321 691 313 700 301 700 L179 700 C167 700 157 691 155 679 L141 582 Z M171 531 C159 531 151 521 148 510 L117 391 L65 15 C63 3 71 -6 83 -6 L199 -6 C211 -6 221 3 223 15 L275 391 L278 510 C279 521 273 531 261 531 L171 531 Z " />
<glyph glyph-name="cent" unicode="&#xa2;" horiz-adv-x="581" d="M203 -116 C202 -128 209 -137 221 -137 L323 -137 C335 -137 346 -128 347 -116 L363 -2 C455 11 532 85 545 176 L552 221 C553 233 546 242 534 242 L418 242 C406 242 395 233 394 221 L388 183 C385 162 368 145 349 145 L272 145 C254 145 240 162 243 183 L290 517 C293 538 312 555 330 555 L407 555 C426 555 438 538 435 517 L430 479 C428 467 436 458 448 458 L564 458 C576 458 586 467 588 479 L594 524 C607 615 550 688 462 702 L477 811 C479 823 471 832 459 832 L357 832 C345 832 335 823 333 811 L318 703 C224 690 146 616 133 524 L84 176 C71 84 129 9 219 -3 L203 -116 Z " />
<glyph glyph-name="sterling" unicode="&#xa3;" horiz-adv-x="611" d="M198 406 L138 406 C126 406 115 397 114 385 L98 277 C97 265 104 256 116 256 L176 256 L162 150 L102 150 C90 150 79 141 78 129 L62 21 C61 9 69 0 81 0 L530 0 C542 0 552 9 553 21 L569 129 C570 141 563 150 551 150 L320 150 L334 256 L424 256 C436 256 447 265 448 277 L464 385 C465 397 458 406 446 406 L356 406 L371 517 C374 538 393 555 411 555 L432 555 C451 555 463 538 460 517 L456 486 C454 474 462 465 474 465 L590 465 C602 465 612 474 614 486 L619 524 C633 625 562 705 457 705 L428 705 C323 705 228 625 214 524 L198 406 Z " />
<glyph glyph-name="currency" unicode="&#xa4;" horiz-adv-x="488" d="M294 20 C297 9 303 1 314 1 L408 1 C419 1 429 10 430 21 L402 117 C413 134 424 155 427 176 L437 248 C440 269 435 290 429 307 L484 403 C486 414 478 423 467 423 L373 423 C362 423 354 415 348 404 L333 377 L259 377 L252 404 C250 415 244 423 233 423 L139 423 C128 423 118 414 116 403 L145 307 C133 290 122 269 119 248 L109 176 C106 155 111 134 118 117 L62 21 C61 10 69 1 80 1 L174 1 C185 1 193 9 198 20 L213 47 L287 47 L294 20 Z M256 169 C248 169 240 176 242 186 L249 238 C250 248 260 255 268 255 L290 255 C298 255 306 248 305 238 L298 186 C296 176 286 169 278 169 L256 169 Z " />
<glyph glyph-name="yen" unicode="&#xa5;" horiz-adv-x="670" d="M516 75 C528 75 538 84 540 96 L553 186 C554 198 547 207 535 207 L443 207 L445 227 L457 249 L540 249 C552 249 563 258 564 270 L577 360 C579 372 571 381 559 381 L534 381 L705 679 C707 691 699 700 687 700 L568 700 C556 700 548 690 542 679 L401 422 L387 422 L318 679 C314 690 310 700 298 700 L179 700 C167 700 157 691 155 679 L242 381 L216 381 C204 381 194 372 192 360 L179 270 C178 258 185 249 197 249 L280 249 L287 227 L285 207 L192 207 C180 207 169 198 168 186 L155 96 C153 84 161 75 173 75 L266 75 L258 21 C257 9 265 0 277 0 L393 0 C405 0 415 9 416 21 L424 75 L516 75 Z " />
<glyph glyph-name="brokenbar" unicode="&#xa6;" horiz-adv-x="278" d="M116 403 C114 391 122 382 134 382 L250 382 C262 382 272 391 274 403 L328 784 C329 796 322 805 310 805 L194 805 C182 805 171 796 170 784 L116 403 Z M37 -157 C36 -169 43 -178 55 -178 L171 -178 C183 -178 194 -169 195 -157 L249 224 C251 236 243 245 231 245 L115 245 C103 245 93 236 91 224 L37 -157 Z " />
<glyph glyph-name="section" unicode="&#xa7;" horiz-adv-x="524" d="M382 532 C381 520 388 511 400 511 L509 511 C521 511 532 520 533 532 L534 539 C545 618 494 700 396 700 L338 700 C240 700 172 629 156 549 L155 541 C149 501 158 471 176 449 C140 421 115 379 107 336 L106 328 C81 152 315 177 309 134 L308 122 C305 106 290 100 275 100 L255 100 C240 100 226 111 228 127 L229 134 C231 146 223 155 211 155 L102 155 C90 155 80 146 78 134 L77 123 C66 44 117 -38 215 -38 L279 -38 C378 -38 449 32 460 112 L462 126 C467 163 459 192 443 213 C479 241 503 282 509 325 L511 339 C536 514 302 486 308 533 L310 544 C312 560 328 566 343 566 L357 566 C372 566 386 555 383 539 L382 532 Z M288 303 C273 303 258 311 260 326 L262 336 C264 351 281 359 296 359 L326 359 C342 359 357 351 355 336 L353 326 C351 311 334 303 318 303 L288 303 Z " />
<glyph glyph-name="dieresis" unicode="&#xa8;" horiz-adv-x="456" d="M140 576 C139 564 147 555 159 555 L259 555 C271 555 281 564 282 576 L297 679 C299 691 291 700 279 700 L179 700 C167 700 157 691 155 679 L140 576 Z M334 576 C333 564 341 555 353 555 L453 555 C465 555 475 564 476 576 L491 679 C493 691 485 700 473 700 L373 700 C361 700 351 691 349 679 L334 576 Z " />
<glyph glyph-name="copyright" unicode="&#xa9;" horiz-adv-x="831" d="M514 699 C318 699 136 541 108 344 C80 148 218 -11 414 -11 C609 -11 791 148 819 344 C847 541 709 699 514 699 L514 699 Z M428 87 C285 87 187 202 207 344 C227 487 357 603 500 603 C644 603 743 487 723 344 C703 202 572 87 428 87 L428 87 Z M500 271 C498 260 486 251 475 251 L426 251 C414 251 405 260 407 271 L428 420 C429 432 440 440 452 440 L501 440 C512 440 522 432 521 420 L519 406 C518 399 521 391 531 391 L617 391 C627 391 634 399 635 406 L637 423 C642 485 607 548 530 548 L454 548 C377 548 321 485 312 423 L290 267 C281 206 320 143 397 143 L473 143 C550 143 602 206 615 267 L618 285 C619 292 615 300 605 300 L519 300 C509 300 503 292 502 285 L500 271 Z " />
<glyph glyph-name="ordfeminine" unicode="&#xaa;" horiz-adv-x="384" d="M234 493 C235 500 242 504 249 504 L290 504 L287 477 C286 470 277 467 269 467 L244 467 C237 467 231 470 232 477 L234 493 Z M187 595 C202 600 241 605 263 605 C292 605 302 595 301 578 L243 578 C184 578 137 550 129 493 L126 470 C118 413 156 380 215 380 L223 380 C233 380 260 386 271 405 L276 405 L275 396 C274 389 279 383 286 383 L364 383 C371 383 378 389 379 396 L405 581 C409 611 399 700 284 700 C238 700 203 690 188 685 C179 683 175 677 173 668 L175 607 C175 600 180 595 187 595 L187 595 Z " />
<glyph glyph-name="guillemotleft" unicode="&#xab;" horiz-adv-x="690" d="M265 269 L267 279 L420 495 C422 507 414 516 402 516 L279 516 C267 516 258 506 250 495 L100 291 L96 259 L183 21 C188 10 195 0 207 0 L330 0 C342 0 352 9 353 21 L265 269 Z M544 269 L546 279 L699 495 C701 507 693 516 681 516 L558 516 C546 516 537 506 529 495 L379 291 L375 259 L462 21 C467 10 474 0 486 0 L609 0 C621 0 631 9 632 21 L544 269 Z " />
<glyph glyph-name="logicalnot" unicode="&#xac;" horiz-adv-x="517" d="M325 190 L310 79 C308 67 316 58 328 58 L444 58 C456 58 466 67 468 79 L501 319 C503 331 495 340 483 340 L128 340 C116 340 106 331 104 319 L89 211 C87 199 95 190 107 190 L325 190 Z " />
<glyph glyph-name="uni00AD" unicode="&#xad;" horiz-adv-x="198" d="" />
<glyph glyph-name="registered" unicode="&#xae;" horiz-adv-x="831" d="M514 699 C318 699 136 541 108 344 C80 148 218 -11 414 -11 C609 -11 791 148 819 344 C847 541 709 699 514 699 L514 699 Z M428 87 C285 87 187 202 207 344 C227 487 357 603 500 603 C644 603 743 487 723 344 C703 202 572 87 428 87 L428 87 Z M438 367 L448 436 L489 436 C501 436 509 426 507 412 L504 390 C502 377 491 367 479 367 L438 367 Z M362 544 C352 544 346 536 345 529 L294 169 C293 162 297 154 307 154 L393 154 C403 154 409 162 410 169 L423 259 L446 259 L478 169 C480 163 484 154 494 154 L580 154 C590 154 596 162 597 169 L558 278 C587 297 611 329 616 364 L626 438 C634 497 593 544 532 544 L362 544 Z " />
<glyph glyph-name="macron" unicode="&#xaf;" horiz-adv-x="400" d="M396 550 C408 550 418 559 420 571 L435 679 C437 691 429 700 417 700 L179 700 C167 700 157 691 155 679 L140 571 C138 559 146 550 158 550 L396 550 Z " />
<glyph glyph-name="degree" unicode="&#xb0;" horiz-adv-x="404" d="M306 751 C229 751 156 688 145 609 C134 532 189 468 266 468 C346 468 418 532 429 609 C440 688 386 751 306 751 L306 751 Z M280 568 C258 568 242 587 245 609 C248 632 270 651 292 651 C315 651 331 632 328 609 C325 587 303 568 280 568 L280 568 Z " />
<glyph glyph-name="plusminus" unicode="&#xb1;" horiz-adv-x="450" d="M364 427 L373 498 C375 510 367 519 355 519 L239 519 C227 519 217 510 215 498 L206 427 L141 427 C129 427 118 418 117 406 L102 299 C100 287 108 278 120 278 L185 278 L174 206 C173 194 181 185 193 185 L309 185 C321 185 331 194 332 206 L343 278 L408 278 C420 278 430 287 432 299 L447 406 C448 418 441 427 429 427 L364 427 Z M101 149 C89 149 79 140 77 128 L62 21 C61 9 69 0 81 0 L369 0 C381 0 391 9 392 21 L407 128 C409 140 401 149 389 149 L101 149 Z " />
<glyph glyph-name="twosuperior" unicode="&#xb2;" horiz-adv-x="359" d="M148 586 C147 579 152 573 159 573 L221 573 C228 573 235 579 236 586 L237 591 C238 600 242 607 248 607 L266 607 C272 607 274 602 274 598 L273 593 C265 536 141 577 124 458 L116 400 C114 390 120 383 130 383 L339 383 C346 383 353 389 354 396 L364 464 C365 471 360 477 353 477 L240 477 C292 509 358 504 372 604 L374 617 C381 664 349 700 301 700 L248 700 C200 700 159 664 152 617 L148 586 Z " />
<glyph glyph-name="threesuperior" unicode="&#xb3;" horiz-adv-x="342" d="M246 506 C252 506 254 501 253 497 L252 486 C251 482 248 477 242 477 L224 477 C218 477 215 480 216 489 L217 494 C218 501 213 507 206 507 L144 507 C137 507 130 501 129 494 L125 467 C119 420 149 384 197 384 L250 384 C298 384 341 420 347 467 L349 480 C353 509 343 530 328 542 C346 554 362 575 366 604 L368 617 C375 664 343 700 295 700 L242 700 C194 700 153 664 146 617 L142 590 C141 583 147 577 154 577 L216 577 C223 577 229 583 230 590 L231 595 C232 604 236 607 242 607 L260 607 C266 607 268 602 268 598 L265 582 C265 578 261 573 255 573 L240 573 C233 573 226 567 225 560 L219 519 C218 512 224 506 231 506 L246 506 Z " />
<glyph glyph-name="acute" unicode="&#xb4;" horiz-adv-x="329" d="M261 528 C273 528 282 538 289 548 L364 681 C366 691 359 700 348 700 L240 700 C228 700 218 690 212 681 L137 548 C135 537 143 528 153 528 L261 528 Z " />
<glyph glyph-name="mu" unicode="&#xb5;" horiz-adv-x="505" d="M217 -5 L283 -5 C381 -5 455 77 466 156 L514 494 C516 506 508 515 496 515 L380 515 C368 515 358 506 356 494 L311 172 C308 156 297 142 282 142 L261 142 C246 142 239 156 242 172 L287 494 C289 506 281 515 269 515 L153 515 C141 515 131 506 129 494 L38 -153 C36 -165 44 -174 56 -174 L172 -174 C184 -174 194 -165 196 -153 L217 -5 Z " />
<glyph glyph-name="paragraph" unicode="&#xb6;" horiz-adv-x="699" d="M734 679 C736 691 728 700 716 700 L346 700 C242 700 147 620 132 519 L121 441 C107 339 180 260 284 260 L313 260 L279 21 C278 9 286 0 298 0 L414 0 C426 0 436 9 437 21 L512 550 L558 550 L483 21 C482 9 490 0 502 0 L618 0 C630 0 640 9 641 21 L734 679 Z " />
<glyph glyph-name="periodcentered" unicode="&#xb7;" horiz-adv-x="278" d="M84 172 C82 160 90 151 102 151 L218 151 C230 151 240 160 242 172 L258 290 C260 302 252 311 240 311 L124 311 C112 311 102 302 100 290 L84 172 Z " />
<glyph glyph-name="cedilla" unicode="&#xb8;" horiz-adv-x="299" d="M124 -92 C124 -92 136 -92 134 -105 C132 -118 120 -118 120 -118 L58 -118 C50 -118 42 -124 41 -133 L34 -180 C33 -188 39 -195 47 -195 L134 -195 C194 -195 215 -168 225 -93 C231 -53 206 -29 174 -23 L197 8 C198 19 191 27 180 27 L125 27 C114 27 108 17 101 8 L72 -32 C68 -37 65 -45 65 -48 L61 -77 C60 -85 66 -92 74 -92 L124 -92 Z " />
<glyph glyph-name="onesuperior" unicode="&#xb9;" horiz-adv-x="352" d="M218 602 L201 477 L150 477 C143 477 136 471 135 464 L125 396 C124 389 129 383 136 383 L332 383 C339 383 346 389 347 396 L357 464 C358 471 353 477 346 477 L305 477 L334 687 C335 694 330 700 323 700 L239 700 L168 672 C160 669 152 660 151 653 L143 591 C141 583 147 577 155 577 L218 602 Z " />
<glyph glyph-name="ordmasculine" unicode="&#xba;" horiz-adv-x="404" d="M306 751 C229 751 156 688 145 609 C134 532 189 468 266 468 C346 468 418 532 429 609 C440 688 386 751 306 751 L306 751 Z M280 568 C258 568 242 587 245 609 C248 632 270 651 292 651 C315 651 331 632 328 609 C325 587 303 568 280 568 L280 568 Z " />
<glyph glyph-name="guillemotright" unicode="&#xbb;" horiz-adv-x="690" d="M341 21 C340 9 348 0 360 0 L483 0 C495 0 504 10 511 21 L666 259 L670 291 L578 495 C574 506 567 516 555 516 L432 516 C420 516 410 507 408 495 L501 279 L499 269 L341 21 Z M62 21 C61 9 69 0 81 0 L204 0 C216 0 225 10 232 21 L387 259 L391 291 L299 495 C295 506 288 516 276 516 L153 516 C141 516 131 507 129 495 L222 279 L220 269 L62 21 Z " />
<glyph glyph-name="onequarter" unicode="&#xbc;" horiz-adv-x="746" d="M218 602 L201 477 L150 477 C143 477 136 471 135 464 L125 396 C124 389 129 383 136 383 L332 383 C339 383 346 389 347 396 L357 464 C358 471 353 477 346 477 L305 477 L334 687 C335 694 330 700 323 700 L239 700 L168 672 C160 669 152 660 151 653 L143 591 C141 583 147 577 155 577 L218 602 Z M161 20 C160 8 167 0 179 0 L254 0 C266 0 274 8 281 20 L710 680 C712 692 705 700 693 700 L618 700 C606 700 598 692 590 680 L161 20 Z M417 55 C416 48 421 42 428 42 L564 42 L560 13 C559 6 565 0 572 0 L650 0 C657 0 663 6 664 13 L668 42 L678 42 C685 42 692 48 693 55 L703 123 C704 130 699 136 692 136 L682 136 L689 189 C690 196 685 202 678 202 L600 202 C593 202 586 196 585 189 L578 136 L543 136 L633 295 C635 307 627 317 616 317 L558 317 C548 317 538 308 534 300 L424 106 L417 55 Z " />
<glyph glyph-name="onehalf" unicode="&#xbd;" horiz-adv-x="745" d="M218 602 L201 477 L150 477 C143 477 136 471 135 464 L125 396 C124 389 129 383 136 383 L332 383 C339 383 346 389 347 396 L357 464 C358 471 353 477 346 477 L305 477 L334 687 C335 694 330 700 323 700 L239 700 L168 672 C160 669 152 660 151 653 L143 591 C141 583 147 577 155 577 L218 602 Z M161 20 C160 8 167 0 179 0 L254 0 C266 0 274 8 281 20 L710 680 C712 692 705 700 693 700 L618 700 C606 700 598 692 590 680 L161 20 Z M480 203 C479 196 484 190 491 190 L553 190 C560 190 567 196 568 203 L569 208 C570 217 574 224 580 224 L598 224 C604 224 606 219 606 215 L605 210 C597 153 473 194 456 75 L448 17 C446 7 453 0 463 0 L672 0 C679 0 685 6 686 13 L696 81 C697 88 692 94 685 94 L572 94 C624 126 691 121 705 221 L706 234 C713 281 681 317 633 317 L580 317 C532 317 491 281 484 234 L480 203 Z " />
<glyph glyph-name="threequarters" unicode="&#xbe;" horiz-adv-x="720" d="M246 506 C252 506 254 501 253 497 L252 486 C251 482 248 477 242 477 L224 477 C218 477 215 480 216 489 L217 494 C218 501 213 507 206 507 L144 507 C137 507 130 501 129 494 L125 467 C119 420 149 384 197 384 L250 384 C298 384 341 420 347 467 L349 480 C353 509 343 530 328 542 C346 554 362 575 366 604 L368 617 C375 664 343 700 295 700 L242 700 C194 700 153 664 146 617 L142 590 C141 583 147 577 154 577 L216 577 C223 577 229 583 230 590 L231 595 C232 604 236 607 242 607 L260 607 C266 607 268 602 268 598 L265 582 C265 578 261 573 255 573 L240 573 C233 573 226 567 225 560 L219 519 C218 512 224 506 231 506 L246 506 Z M133 20 C132 8 139 0 151 0 L226 0 C238 0 246 8 253 20 L682 680 C684 692 677 700 665 700 L590 700 C578 700 570 692 562 680 L133 20 Z M391 55 C390 48 395 42 402 42 L538 42 L534 13 C533 6 539 0 546 0 L624 0 C631 0 637 6 638 13 L642 42 L652 42 C659 42 666 48 667 55 L677 123 C678 130 673 136 666 136 L656 136 L663 189 C664 196 659 202 652 202 L574 202 C567 202 560 196 559 189 L552 136 L517 136 L607 295 C609 307 601 317 590 317 L532 317 C522 317 512 308 508 300 L398 106 L391 55 Z " />
<glyph glyph-name="questiondown" unicode="&#xbf;" horiz-adv-x="574" d="M84 176 C70 75 143 -5 247 -5 L328 -5 C432 -5 524 75 538 176 L543 209 C545 221 537 230 525 230 L409 230 C397 230 387 221 385 209 L381 183 C378 162 360 145 342 145 L273 145 C254 145 240 162 243 183 L248 215 C266 343 429 244 463 486 L466 512 C468 524 460 533 448 533 L332 533 C320 533 310 524 308 512 L305 490 C289 370 125 467 90 219 L84 176 Z M480 587 C478 575 468 566 456 566 L334 566 C322 566 314 575 316 587 L330 684 C331 696 342 705 354 705 L476 705 C488 705 495 696 494 684 L480 587 Z " />
<glyph glyph-name="Agrave" unicode="&#xc0;" horiz-adv-x="584" d="M445 751 C455 751 465 760 467 771 L429 904 C425 913 418 923 406 923 L298 923 C287 923 278 914 277 904 L315 771 C318 761 325 751 337 751 L445 751 Z M312 700 C300 700 290 691 285 679 L17 21 C16 9 24 0 36 0 L155 0 C167 0 176 9 180 21 L215 112 L399 112 L408 21 C410 9 417 0 429 0 L548 0 C560 0 570 9 571 21 L489 679 C488 691 480 700 468 700 L312 700 Z M353 475 L363 475 L384 261 L271 261 L353 475 Z " />
<glyph glyph-name="Aacute" unicode="&#xc1;" horiz-adv-x="584" d="M453 751 C465 751 474 761 481 771 L557 904 C558 914 551 923 540 923 L432 923 C420 923 411 913 405 904 L329 771 C327 760 335 751 345 751 L453 751 Z M312 700 C300 700 290 691 285 679 L17 21 C16 9 24 0 36 0 L155 0 C167 0 176 9 180 21 L215 112 L399 112 L408 21 C410 9 417 0 429 0 L548 0 C560 0 570 9 571 21 L489 679 C488 691 480 700 468 700 L312 700 Z M353 475 L363 475 L384 261 L271 261 L353 475 Z " />
<glyph glyph-name="Acircumflex" unicode="&#xc2;" horiz-adv-x="584" d="M377 959 C360 959 349 950 341 938 L235 771 C233 759 240 751 252 751 L351 751 C363 751 371 761 378 771 L406 814 L422 771 C425 761 431 751 443 751 L542 751 C554 751 563 759 565 771 L505 938 C501 950 492 959 475 959 L377 959 Z M312 700 C300 700 290 691 285 679 L17 21 C16 9 24 0 36 0 L155 0 C167 0 176 9 180 21 L215 112 L399 112 L408 21 C410 9 417 0 429 0 L548 0 C560 0 570 9 571 21 L489 679 C488 691 480 700 468 700 L312 700 Z M353 475 L363 475 L384 261 L271 261 L353 475 Z " />
<glyph glyph-name="Atilde" unicode="&#xc3;" horiz-adv-x="584" d="M312 700 C300 700 290 691 285 679 L17 21 C16 9 24 0 36 0 L155 0 C167 0 176 9 180 21 L215 112 L399 112 L408 21 C410 9 417 0 429 0 L548 0 C560 0 570 9 571 21 L489 679 C488 691 480 700 468 700 L312 700 Z M353 475 L363 475 L384 261 L271 261 L353 475 Z M449 751 C477 751 515 767 543 783 C553 790 558 800 559 810 L544 896 C544 904 536 911 525 911 C505 911 487 900 470 900 C421 900 421 934 373 934 C345 934 307 918 279 902 C269 895 264 885 262 875 L277 789 C278 781 286 774 297 774 C317 774 335 785 352 785 C400 785 401 751 449 751 L449 751 Z " />
<glyph glyph-name="Adieresis" unicode="&#xc4;" horiz-adv-x="584" d="M232 772 C230 760 238 751 250 751 L350 751 C362 751 372 760 374 772 L388 875 C390 887 382 896 370 896 L270 896 C258 896 248 887 246 875 L232 772 Z M426 772 C424 760 432 751 444 751 L544 751 C556 751 566 760 568 772 L582 875 C584 887 576 896 564 896 L464 896 C452 896 442 887 440 875 L426 772 Z M312 700 C300 700 290 691 285 679 L17 21 C16 9 24 0 36 0 L155 0 C167 0 176 9 180 21 L215 112 L399 112 L408 21 C410 9 417 0 429 0 L548 0 C560 0 570 9 571 21 L489 679 C488 691 480 700 468 700 L312 700 Z M353 475 L363 475 L384 261 L271 261 L353 475 Z " />
<glyph glyph-name="Aring" unicode="&#xc5;" horiz-adv-x="584" d="M416 883 C339 883 266 820 255 741 C250 707 258 677 274 652 L17 21 C16 9 24 0 36 0 L155 0 C167 0 176 9 180 21 L215 112 L399 112 L408 21 C410 9 417 0 429 0 L548 0 C560 0 570 9 571 21 L492 650 C516 675 534 706 539 741 C550 820 496 883 416 883 L416 883 Z M353 475 L363 475 L384 261 L271 261 L353 475 Z M355 741 C358 764 380 783 402 783 C425 783 441 764 438 741 C435 720 415 702 393 700 L386 700 C366 702 352 720 355 741 L355 741 Z " />
<glyph glyph-name="AE" unicode="&#xc6;" horiz-adv-x="849" d="M855 550 C867 550 877 559 879 571 L894 679 C896 691 888 700 876 700 L439 700 C421 700 412 692 402 679 L14 31 C11 13 22 0 38 0 L150 0 C165 0 175 12 184 24 L239 112 L419 112 L406 21 C405 9 413 0 425 0 L778 0 C790 0 800 9 801 21 L817 129 C818 141 811 150 799 150 L583 150 L602 287 L796 287 C808 287 818 296 820 308 L835 416 C837 428 829 437 817 437 L623 437 L639 550 L855 550 Z M438 248 L319 248 L481 548 L438 248 Z " />
<glyph glyph-name="Ccedilla" unicode="&#xc7;" horiz-adv-x="546" d="M263 -92 C263 -92 275 -92 273 -105 C271 -118 259 -118 259 -118 L197 -118 C189 -118 181 -124 180 -133 L173 -180 C172 -188 178 -195 186 -195 L273 -195 C333 -195 354 -168 364 -93 C370 -53 345 -29 313 -23 L326 -5 C429 -3 521 76 535 176 L542 221 C543 233 536 242 524 242 L408 242 C396 242 385 233 384 221 L378 183 C375 162 358 145 339 145 L262 145 C244 145 230 162 233 183 L280 517 C283 538 302 555 320 555 L397 555 C416 555 428 538 425 517 L420 479 C418 467 426 458 438 458 L554 458 C566 458 576 467 578 479 L584 524 C598 625 527 705 422 705 L337 705 C232 705 137 625 123 524 L74 176 C60 77 128 -2 230 -5 L211 -32 C207 -37 204 -45 204 -48 L200 -77 C199 -85 205 -92 213 -92 L263 -92 Z " />
<glyph glyph-name="Egrave" unicode="&#xc8;" horiz-adv-x="505" d="M420 751 C430 751 440 760 442 771 L404 904 C400 913 393 923 381 923 L273 923 C262 923 253 914 252 904 L290 771 C293 761 300 751 312 751 L420 751 Z M239 150 L258 287 L452 287 C464 287 474 296 476 308 L491 416 C493 428 485 437 473 437 L279 437 L295 550 L511 550 C523 550 533 559 535 571 L550 679 C552 691 544 700 532 700 L179 700 C167 700 157 691 155 679 L62 21 C61 9 69 0 81 0 L434 0 C446 0 456 9 457 21 L473 129 C474 141 467 150 455 150 L239 150 Z " />
<glyph glyph-name="Eacute" unicode="&#xc9;" horiz-adv-x="505" d="M420 751 C432 751 441 761 448 771 L524 904 C525 914 518 923 507 923 L399 923 C387 923 378 913 372 904 L296 771 C294 760 302 751 312 751 L420 751 Z M239 150 L258 287 L452 287 C464 287 474 296 476 308 L491 416 C493 428 485 437 473 437 L279 437 L295 550 L511 550 C523 550 533 559 535 571 L550 679 C552 691 544 700 532 700 L179 700 C167 700 157 691 155 679 L62 21 C61 9 69 0 81 0 L434 0 C446 0 456 9 457 21 L473 129 C474 141 467 150 455 150 L239 150 Z " />
<glyph glyph-name="Ecircumflex" unicode="&#xca;" horiz-adv-x="505" d="M344 959 C327 959 316 950 308 938 L202 771 C200 759 207 751 219 751 L318 751 C330 751 338 761 345 771 L373 814 L389 771 C392 761 398 751 410 751 L509 751 C521 751 530 759 532 771 L472 938 C468 950 459 959 442 959 L344 959 Z M239 150 L258 287 L452 287 C464 287 474 296 476 308 L491 416 C493 428 485 437 473 437 L279 437 L295 550 L511 550 C523 550 533 559 535 571 L550 679 C552 691 544 700 532 700 L179 700 C167 700 157 691 155 679 L62 21 C61 9 69 0 81 0 L434 0 C446 0 456 9 457 21 L473 129 C474 141 467 150 455 150 L239 150 Z " />
<glyph glyph-name="Edieresis" unicode="&#xcb;" horiz-adv-x="505" d="M200 772 C198 760 206 751 218 751 L318 751 C330 751 340 760 342 772 L356 875 C358 887 350 896 338 896 L238 896 C226 896 216 887 214 875 L200 772 Z M394 772 C392 760 400 751 412 751 L512 751 C524 751 534 760 536 772 L550 875 C552 887 544 896 532 896 L432 896 C420 896 410 887 408 875 L394 772 Z M239 150 L258 287 L452 287 C464 287 474 296 476 308 L491 416 C493 428 485 437 473 437 L279 437 L295 550 L511 550 C523 550 533 559 535 571 L550 679 C552 691 544 700 532 700 L179 700 C167 700 157 691 155 679 L62 21 C61 9 69 0 81 0 L434 0 C446 0 456 9 457 21 L473 129 C474 141 467 150 455 150 L239 150 Z " />
<glyph glyph-name="Igrave" unicode="&#xcc;" horiz-adv-x="278" d="M62 21 C61 9 69 0 81 0 L197 0 C209 0 219 9 220 21 L313 679 C315 691 307 700 295 700 L179 700 C167 700 157 691 155 679 L62 21 Z M296 751 C306 751 316 760 318 771 L280 904 C276 913 269 923 257 923 L149 923 C138 923 129 914 128 904 L166 771 C169 761 176 751 188 751 L296 751 Z " />
<glyph glyph-name="Iacute" unicode="&#xcd;" horiz-adv-x="278" d="M62 21 C61 9 69 0 81 0 L197 0 C209 0 219 9 220 21 L313 679 C315 691 307 700 295 700 L179 700 C167 700 157 691 155 679 L62 21 Z M295 751 C307 751 316 761 323 771 L399 904 C400 914 393 923 382 923 L274 923 C262 923 253 913 247 904 L171 771 C169 760 177 751 187 751 L295 751 Z " />
<glyph glyph-name="Icircumflex" unicode="&#xce;" horiz-adv-x="278" d="M62 21 C61 9 69 0 81 0 L197 0 C209 0 219 9 220 21 L313 679 C315 691 307 700 295 700 L179 700 C167 700 157 691 155 679 L62 21 Z M224 959 C207 959 196 950 188 938 L82 771 C80 759 87 751 99 751 L198 751 C210 751 218 761 225 771 L253 814 L269 771 C272 761 278 751 290 751 L389 751 C401 751 410 759 412 771 L352 938 C348 950 339 959 322 959 L224 959 Z " />
<glyph glyph-name="Idieresis" unicode="&#xcf;" horiz-adv-x="278" d="M62 21 C61 9 69 0 81 0 L197 0 C209 0 219 9 220 21 L313 679 C315 691 307 700 295 700 L179 700 C167 700 157 691 155 679 L62 21 Z M79 772 C77 760 85 751 97 751 L197 751 C209 751 219 760 221 772 L235 875 C237 887 229 896 217 896 L117 896 C105 896 95 887 93 875 L79 772 Z M273 772 C271 760 279 751 291 751 L391 751 C403 751 413 760 415 772 L429 875 C431 887 423 896 411 896 L311 896 C299 896 289 887 287 875 L273 772 Z " />
<glyph glyph-name="Eth" unicode="&#xd0;" horiz-adv-x="576" d="M66 21 C65 9 73 0 85 0 L338 0 C442 0 537 80 551 181 L598 519 C613 620 540 700 436 700 L183 700 C171 700 161 691 159 679 L122 416 L79 416 C67 416 57 407 55 395 L42 303 C40 291 48 282 60 282 L103 282 L66 21 Z M315 282 C327 282 337 291 339 303 L352 395 C354 407 346 416 334 416 L280 416 L299 551 L410 551 C429 551 443 534 440 513 L394 187 C391 166 372 149 353 149 L242 149 L261 282 L315 282 Z " />
<glyph glyph-name="Ntilde" unicode="&#xd1;" horiz-adv-x="609" d="M431 355 L349 678 C345 689 340 699 328 699 L179 699 C167 699 156 690 155 678 L62 21 C61 9 69 0 81 0 L197 0 C209 0 219 9 220 21 L266 345 L275 345 L357 21 C360 10 367 0 379 0 L528 0 C540 0 550 9 551 21 L644 678 C645 690 638 699 626 699 L510 699 C498 699 487 690 486 678 L440 355 L431 355 Z M449 751 C477 751 515 767 543 783 C553 790 558 800 559 810 L544 896 C544 904 536 911 525 911 C505 911 487 900 470 900 C421 900 421 934 373 934 C345 934 307 918 279 902 C269 895 264 885 262 875 L277 789 C278 781 286 774 297 774 C317 774 335 785 352 785 C400 785 401 751 449 751 L449 751 Z " />
<glyph glyph-name="Ograve" unicode="&#xd2;" horiz-adv-x="561" d="M440 751 C450 751 460 760 462 771 L424 904 C420 913 413 923 401 923 L293 923 C282 923 273 914 272 904 L310 771 C313 761 320 751 332 751 L440 751 Z M262 145 C244 145 230 162 233 183 L280 517 C283 538 302 555 320 555 L397 555 C416 555 428 538 425 517 L378 183 C375 162 358 145 339 145 L262 145 Z M322 -5 C427 -5 521 75 535 176 L584 524 C598 625 527 705 422 705 L337 705 C232 705 137 625 123 524 L74 176 C60 75 132 -5 237 -5 L322 -5 Z " />
<glyph glyph-name="Oacute" unicode="&#xd3;" horiz-adv-x="561" d="M449 751 C461 751 470 761 477 771 L553 904 C554 914 547 923 536 923 L428 923 C416 923 407 913 401 904 L325 771 C323 760 331 751 341 751 L449 751 Z M262 145 C244 145 230 162 233 183 L280 517 C283 538 302 555 320 555 L397 555 C416 555 428 538 425 517 L378 183 C375 162 358 145 339 145 L262 145 Z M322 -5 C427 -5 521 75 535 176 L584 524 C598 625 527 705 422 705 L337 705 C232 705 137 625 123 524 L74 176 C60 75 132 -5 237 -5 L322 -5 Z " />
<glyph glyph-name="Ocircumflex" unicode="&#xd4;" horiz-adv-x="561" d="M365 959 C348 959 337 950 329 938 L223 771 C221 759 228 751 240 751 L339 751 C351 751 359 761 366 771 L394 814 L410 771 C413 761 419 751 431 751 L530 751 C542 751 551 759 553 771 L493 938 C489 950 480 959 463 959 L365 959 Z M262 145 C244 145 230 162 233 183 L280 517 C283 538 302 555 320 555 L397 555 C416 555 428 538 425 517 L378 183 C375 162 358 145 339 145 L262 145 Z M322 -5 C427 -5 521 75 535 176 L584 524 C598 625 527 705 422 705 L337 705 C232 705 137 625 123 524 L74 176 C60 75 132 -5 237 -5 L322 -5 Z " />
<glyph glyph-name="Otilde" unicode="&#xd5;" horiz-adv-x="561" d="M262 145 C244 145 230 162 233 183 L280 517 C283 538 302 555 320 555 L397 555 C416 555 428 538 425 517 L378 183 C375 162 358 145 339 145 L262 145 Z M322 -5 C427 -5 521 75 535 176 L584 524 C598 625 527 705 422 705 L337 705 C232 705 137 625 123 524 L74 176 C60 75 132 -5 237 -5 L322 -5 Z M438 751 C466 751 504 767 532 783 C542 790 547 800 548 810 L533 896 C533 904 525 911 514 911 C494 911 476 900 459 900 C410 900 410 934 362 934 C334 934 296 918 268 902 C258 895 253 885 251 875 L266 789 C267 781 275 774 286 774 C306 774 324 785 341 785 C389 785 390 751 438 751 L438 751 Z " />
<glyph glyph-name="Odieresis" unicode="&#xd6;" horiz-adv-x="561" d="M220 772 C218 760 226 751 238 751 L338 751 C350 751 360 760 362 772 L376 875 C378 887 370 896 358 896 L258 896 C246 896 236 887 234 875 L220 772 Z M414 772 C412 760 420 751 432 751 L532 751 C544 751 554 760 556 772 L570 875 C572 887 564 896 552 896 L452 896 C440 896 430 887 428 875 L414 772 Z M262 145 C244 145 230 162 233 183 L280 517 C283 538 302 555 320 555 L397 555 C416 555 428 538 425 517 L378 183 C375 162 358 145 339 145 L262 145 Z M322 -5 C427 -5 521 75 535 176 L584 524 C598 625 527 705 422 705 L337 705 C232 705 137 625 123 524 L74 176 C60 75 132 -5 237 -5 L322 -5 Z " />
<glyph glyph-name="multiply" unicode="&#xd7;" horiz-adv-x="444" d="M235 93 L285 32 C289 28 294 26 299 26 C303 26 308 28 313 32 L392 102 C396 106 399 111 400 115 C400 120 399 126 396 129 L345 189 L412 249 C417 252 420 258 420 263 C421 267 420 272 416 276 L357 346 C354 350 349 352 345 352 C340 352 335 350 329 346 L262 285 L211 346 C207 350 202 352 197 352 C193 352 188 350 183 346 L104 276 C100 272 97 267 96 263 C96 258 97 252 100 249 L151 189 L84 129 C79 126 76 120 76 115 C75 111 76 106 80 102 L139 32 C142 28 147 26 151 26 C156 26 161 28 167 32 L235 93 Z " />
<glyph glyph-name="Oslash" unicode="&#xd8;" horiz-adv-x="561" d="M76 -70 C74 -82 82 -91 94 -91 L180 -91 C192 -91 201 -81 207 -70 L236 -5 L322 -5 C427 -5 521 75 535 176 L584 524 C592 578 574 626 541 659 L593 770 C594 782 587 791 575 791 L489 791 C477 791 467 781 462 770 L432 705 L337 705 C232 705 137 625 123 524 L74 176 C66 118 86 67 123 34 L76 -70 Z M280 517 C283 538 302 555 320 555 L363 555 L251 312 L280 517 Z M339 145 L305 145 L403 356 L378 183 C375 162 358 145 339 145 L339 145 Z " />
<glyph glyph-name="Ugrave" unicode="&#xd9;" horiz-adv-x="571" d="M447 751 C457 751 467 760 469 771 L431 904 C427 913 420 923 408 923 L300 923 C289 923 280 914 279 904 L317 771 C320 761 327 751 339 751 L447 751 Z M328 -5 C433 -5 526 75 540 176 L611 679 C613 691 605 700 593 700 L477 700 C465 700 455 691 453 679 L383 183 C380 162 362 145 344 145 L267 145 C249 145 235 162 238 183 L308 679 C310 691 302 700 290 700 L174 700 C162 700 152 691 150 679 L79 176 C65 75 136 -5 241 -5 L328 -5 Z " />
<glyph glyph-name="Uacute" unicode="&#xda;" horiz-adv-x="571" d="M448 751 C460 751 469 761 476 771 L552 904 C553 914 546 923 535 923 L427 923 C415 923 406 913 400 904 L324 771 C322 760 330 751 340 751 L448 751 Z M328 -5 C433 -5 526 75 540 176 L611 679 C613 691 605 700 593 700 L477 700 C465 700 455 691 453 679 L383 183 C380 162 362 145 344 145 L267 145 C249 145 235 162 238 183 L308 679 C310 691 302 700 290 700 L174 700 C162 700 152 691 150 679 L79 176 C65 75 136 -5 241 -5 L328 -5 Z " />
<glyph glyph-name="Ucircumflex" unicode="&#xdb;" horiz-adv-x="571" d="M370 959 C353 959 342 950 334 938 L228 771 C226 759 233 751 245 751 L344 751 C356 751 364 761 371 771 L399 814 L415 771 C418 761 424 751 436 751 L535 751 C547 751 556 759 558 771 L498 938 C494 950 485 959 468 959 L370 959 Z M328 -5 C433 -5 526 75 540 176 L611 679 C613 691 605 700 593 700 L477 700 C465 700 455 691 453 679 L383 183 C380 162 362 145 344 145 L267 145 C249 145 235 162 238 183 L308 679 C310 691 302 700 290 700 L174 700 C162 700 152 691 150 679 L79 176 C65 75 136 -5 241 -5 L328 -5 Z " />
<glyph glyph-name="Udieresis" unicode="&#xdc;" horiz-adv-x="571" d="M225 772 C223 760 231 751 243 751 L343 751 C355 751 365 760 367 772 L381 875 C383 887 375 896 363 896 L263 896 C251 896 241 887 239 875 L225 772 Z M419 772 C417 760 425 751 437 751 L537 751 C549 751 559 760 561 772 L575 875 C577 887 569 896 557 896 L457 896 C445 896 435 887 433 875 L419 772 Z M328 -5 C433 -5 526 75 540 176 L611 679 C613 691 605 700 593 700 L477 700 C465 700 455 691 453 679 L383 183 C380 162 362 145 344 145 L267 145 C249 145 235 162 238 183 L308 679 C310 691 302 700 290 700 L174 700 C162 700 152 691 150 679 L79 176 C65 75 136 -5 241 -5 L328 -5 Z " />
<glyph glyph-name="Yacute" unicode="&#xdd;" horiz-adv-x="570" d="M453 751 C465 751 474 761 481 771 L557 904 C558 914 551 923 540 923 L432 923 C420 923 411 913 405 904 L329 771 C327 760 335 751 345 751 L453 751 Z M337 422 L268 679 C264 690 260 700 248 700 L129 700 C117 700 107 691 105 679 L237 227 L208 21 C207 9 215 0 227 0 L343 0 C355 0 365 9 366 21 L395 227 L655 679 C657 691 649 700 637 700 L518 700 C506 700 498 690 492 679 L351 422 L337 422 Z " />
<glyph glyph-name="Thorn" unicode="&#xde;" horiz-adv-x="558" d="M252 248 L281 455 L388 455 C408 455 421 438 418 417 L400 286 C397 266 379 248 359 248 L252 248 Z M303 605 L313 681 C315 693 307 702 295 702 L179 702 C167 702 157 693 155 681 L62 21 C61 9 69 0 81 0 L197 0 C209 0 219 9 220 21 L231 98 L343 98 C447 98 543 178 557 279 L577 424 C591 524 520 605 417 605 L303 605 Z " />
<glyph glyph-name="germandbls" unicode="&#xdf;" horiz-adv-x="547" d="M360 275 C380 275 393 258 390 237 L383 187 C380 166 362 149 342 149 L294 149 C282 149 272 140 270 128 L255 21 C254 9 262 0 274 0 L329 0 C433 0 528 80 542 181 L550 241 C557 289 535 334 502 367 C528 392 549 424 554 459 L562 519 C577 620 504 700 400 700 L179 700 C167 700 157 691 155 679 L62 21 C61 9 69 0 81 0 L197 0 C209 0 219 9 220 21 L295 551 L372 551 C391 551 405 534 402 513 L394 462 C391 441 373 424 354 424 L333 424 C321 424 311 415 309 403 L294 296 C292 284 300 275 312 275 L360 275 Z " />
<glyph glyph-name="agrave" unicode="&#xe0;" horiz-adv-x="468" d="M390 571 C400 571 410 580 412 591 L373 724 C370 733 363 743 351 743 L243 743 C232 743 223 734 221 724 L260 591 C263 581 270 571 282 571 L390 571 Z M174 360 C206 369 230 373 265 373 C314 373 314 351 310 322 L254 322 C158 322 78 275 65 182 L60 143 C47 50 86 -5 171 -5 L181 -5 C188 -5 237 -5 261 31 L269 31 L267 21 C266 9 274 0 286 0 L402 0 C414 0 424 9 425 21 L468 324 C475 372 494 520 303 520 C223 520 182 506 161 499 C150 496 142 489 141 479 C141 477 139 466 149 376 C151 363 158 359 164 359 C166 359 170 359 174 360 L174 360 Z M211 174 C213 190 228 201 242 201 L293 201 L287 163 C285 149 270 136 256 136 L233 136 C219 136 207 149 209 163 L211 174 Z " />
<glyph glyph-name="aacute" unicode="&#xe1;" horiz-adv-x="468" d="M382 571 C394 571 403 581 410 591 L485 724 C487 734 480 743 469 743 L361 743 C349 743 340 733 333 724 L258 591 C256 580 264 571 274 571 L382 571 Z M174 360 C206 369 230 373 265 373 C314 373 314 351 310 322 L254 322 C158 322 78 275 65 182 L60 143 C47 50 86 -5 171 -5 L181 -5 C188 -5 237 -5 261 31 L269 31 L267 21 C266 9 274 0 286 0 L402 0 C414 0 424 9 425 21 L468 324 C475 372 494 520 303 520 C223 520 182 506 161 499 C150 496 142 489 141 479 C141 477 139 466 149 376 C151 363 158 359 164 359 C166 359 170 359 174 360 L174 360 Z M211 174 C213 190 228 201 242 201 L293 201 L287 163 C285 149 270 136 256 136 L233 136 C219 136 207 149 209 163 L211 174 Z " />
<glyph glyph-name="acircumflex" unicode="&#xe2;" horiz-adv-x="468" d="M301 779 C284 779 273 770 265 758 L159 591 C157 579 164 571 176 571 L275 571 C287 571 295 581 302 591 L330 634 L346 591 C349 581 355 571 367 571 L466 571 C478 571 487 579 489 591 L429 758 C425 770 416 779 399 779 L301 779 Z M174 360 C206 369 230 373 265 373 C314 373 314 351 310 322 L254 322 C158 322 78 275 65 182 L60 143 C47 50 86 -5 171 -5 L181 -5 C188 -5 237 -5 261 31 L269 31 L267 21 C266 9 274 0 286 0 L402 0 C414 0 424 9 425 21 L468 324 C475 372 494 520 303 520 C223 520 182 506 161 499 C150 496 142 489 141 479 C141 477 139 466 149 376 C151 363 158 359 164 359 C166 359 170 359 174 360 L174 360 Z M211 174 C213 190 228 201 242 201 L293 201 L287 163 C285 149 270 136 256 136 L233 136 C219 136 207 149 209 163 L211 174 Z " />
<glyph glyph-name="atilde" unicode="&#xe3;" horiz-adv-x="468" d="M174 360 C206 369 230 373 265 373 C314 373 314 351 310 322 L254 322 C158 322 78 275 65 182 L60 143 C47 50 86 -5 171 -5 L181 -5 C188 -5 237 -5 261 31 L269 31 L267 21 C266 9 274 0 286 0 L402 0 C414 0 424 9 425 21 L468 324 C475 372 494 520 303 520 C223 520 182 506 161 499 C150 496 142 489 141 479 C141 477 139 466 149 376 C151 363 158 359 164 359 C166 359 170 359 174 360 L174 360 Z M211 174 C213 190 228 201 242 201 L293 201 L287 163 C285 149 270 136 256 136 L233 136 C219 136 207 149 209 163 L211 174 Z M384 571 C412 571 450 587 477 603 C487 610 493 620 494 630 L479 716 C478 724 470 731 459 731 C439 731 422 720 405 720 C356 720 355 754 307 754 C279 754 241 738 214 722 C204 715 199 705 197 695 L212 609 C213 601 221 594 232 594 C252 594 270 605 287 605 C335 605 336 571 384 571 L384 571 Z " />
<glyph glyph-name="adieresis" unicode="&#xe4;" horiz-adv-x="468" d="M170 592 C168 580 176 571 188 571 L288 571 C300 571 310 580 312 592 L326 695 C328 707 320 716 308 716 L208 716 C196 716 186 707 184 695 L170 592 Z M349 592 C347 580 355 571 367 571 L467 571 C479 571 489 580 491 592 L505 695 C507 707 499 716 487 716 L387 716 C375 716 365 707 363 695 L349 592 Z M174 360 C206 369 230 373 265 373 C314 373 314 351 310 322 L254 322 C158 322 78 275 65 182 L60 143 C47 50 86 -5 171 -5 L181 -5 C188 -5 237 -5 261 31 L269 31 L267 21 C266 9 274 0 286 0 L402 0 C414 0 424 9 425 21 L468 324 C475 372 494 520 303 520 C223 520 182 506 161 499 C150 496 142 489 141 479 C141 477 139 466 149 376 C151 363 158 359 164 359 C166 359 170 359 174 360 L174 360 Z M211 174 C213 190 228 201 242 201 L293 201 L287 163 C285 149 270 136 256 136 L233 136 C219 136 207 149 209 163 L211 174 Z " />
<glyph glyph-name="aring" unicode="&#xe5;" horiz-adv-x="468" d="M366 854 C289 854 216 791 205 712 C194 635 249 571 326 571 C406 571 478 635 489 712 C500 791 446 854 366 854 L366 854 Z M340 671 C318 671 301 690 305 712 C308 735 329 754 351 754 C374 754 391 735 388 712 C384 690 363 671 340 671 L340 671 Z M174 360 C206 369 230 373 265 373 C314 373 314 351 310 322 L254 322 C158 322 78 275 65 182 L60 143 C47 50 86 -5 171 -5 L181 -5 C188 -5 237 -5 261 31 L269 31 L267 21 C266 9 274 0 286 0 L402 0 C414 0 424 9 425 21 L468 324 C475 372 494 520 303 520 C223 520 182 506 161 499 C150 496 142 489 141 479 C141 477 139 466 149 376 C151 363 158 359 164 359 C166 359 170 359 174 360 L174 360 Z M211 174 C213 190 228 201 242 201 L293 201 L287 163 C285 149 270 136 256 136 L233 136 C219 136 207 149 209 163 L211 174 Z " />
<glyph glyph-name="ae" unicode="&#xe6;" horiz-adv-x="688" d="M646 81 C648 85 651 90 652 93 C653 100 651 104 645 109 L580 170 C577 172 572 173 569 173 C561 173 555 169 550 164 C540 155 519 142 498 142 L472 142 C457 142 444 156 447 172 L450 197 L647 197 C664 197 677 208 679 225 L698 358 C709 438 660 520 560 520 L499 520 C466 520 435 511 409 496 C384 510 350 520 303 520 C223 520 182 506 161 499 C150 496 142 489 141 479 C141 477 139 466 149 376 C151 363 158 359 164 359 C166 359 170 359 174 360 C206 369 230 373 265 373 C314 373 314 351 310 322 L254 322 C158 322 78 275 65 182 L60 143 C47 50 86 -5 171 -5 L219 -5 C226 -5 280 3 309 44 L316 44 C339 14 377 -5 425 -5 L478 -5 C478 -5 584 -2 646 81 L646 81 Z M211 174 C213 190 228 201 242 201 L293 201 L287 163 C285 149 270 136 256 136 L233 136 C219 136 207 149 209 163 L211 174 Z M471 343 C473 359 490 373 505 373 L513 373 C528 373 541 359 539 343 L534 312 L466 312 L471 343 Z " />
<glyph glyph-name="ccedilla" unicode="&#xe7;" horiz-adv-x="455" d="M221 -92 C221 -92 233 -92 231 -105 C229 -118 217 -118 217 -118 L155 -118 C147 -118 139 -124 138 -133 L131 -180 C130 -188 136 -195 144 -195 L231 -195 C291 -195 312 -168 322 -93 C328 -53 303 -29 271 -23 L285 -4 C376 4 441 81 451 156 L455 183 C457 195 449 204 437 204 L321 204 C309 204 299 195 297 183 L296 172 C293 156 276 142 261 142 L252 142 C237 142 224 156 227 172 L251 343 C253 359 270 373 285 373 L294 373 C309 373 322 359 320 343 L318 332 C316 320 324 311 336 311 L452 311 C464 311 474 320 476 332 L480 358 C491 438 442 520 342 520 L279 520 C181 520 106 438 95 358 L66 156 C56 81 101 4 189 -4 L169 -32 C165 -37 162 -45 162 -48 L158 -77 C157 -85 163 -92 171 -92 L221 -92 Z " />
<glyph glyph-name="egrave" unicode="&#xe8;" horiz-adv-x="468" d="M375 571 C385 571 395 580 397 591 L358 724 C355 733 348 743 336 743 L228 743 C217 743 208 734 206 724 L245 591 C248 581 255 571 267 571 L375 571 Z M251 343 C253 359 270 373 285 373 L293 373 C308 373 321 359 319 343 L314 312 L246 312 L251 343 Z M426 81 C428 85 431 90 432 93 C433 100 431 104 425 109 L360 170 C357 172 352 173 349 173 C341 173 335 169 330 164 C320 155 299 142 278 142 L252 142 C237 142 224 156 227 172 L230 197 L427 197 C444 197 457 208 459 225 L478 358 C489 438 440 520 340 520 L279 520 C181 520 106 438 95 358 L66 156 C55 77 107 -5 205 -5 L258 -5 C258 -5 364 -2 426 81 L426 81 Z " />
<glyph glyph-name="eacute" unicode="&#xe9;" horiz-adv-x="468" d="M375 571 C387 571 396 581 403 591 L478 724 C480 734 473 743 462 743 L354 743 C342 743 333 733 326 724 L251 591 C249 580 257 571 267 571 L375 571 Z M251 343 C253 359 270 373 285 373 L293 373 C308 373 321 359 319 343 L314 312 L246 312 L251 343 Z M426 81 C428 85 431 90 432 93 C433 100 431 104 425 109 L360 170 C357 172 352 173 349 173 C341 173 335 169 330 164 C320 155 299 142 278 142 L252 142 C237 142 224 156 227 172 L230 197 L427 197 C444 197 457 208 459 225 L478 358 C489 438 440 520 340 520 L279 520 C181 520 106 438 95 358 L66 156 C55 77 107 -5 205 -5 L258 -5 C258 -5 364 -2 426 81 L426 81 Z " />
<glyph glyph-name="ecircumflex" unicode="&#xea;" horiz-adv-x="468" d="M297 779 C280 779 269 770 261 758 L155 591 C153 579 160 571 172 571 L271 571 C283 571 291 581 298 591 L326 634 L342 591 C345 581 351 571 363 571 L462 571 C474 571 483 579 485 591 L425 758 C421 770 412 779 395 779 L297 779 Z M251 343 C253 359 270 373 285 373 L293 373 C308 373 321 359 319 343 L314 312 L246 312 L251 343 Z M426 81 C428 85 431 90 432 93 C433 100 431 104 425 109 L360 170 C357 172 352 173 349 173 C341 173 335 169 330 164 C320 155 299 142 278 142 L252 142 C237 142 224 156 227 172 L230 197 L427 197 C444 197 457 208 459 225 L478 358 C489 438 440 520 340 520 L279 520 C181 520 106 438 95 358 L66 156 C55 77 107 -5 205 -5 L258 -5 C258 -5 364 -2 426 81 L426 81 Z " />
<glyph glyph-name="edieresis" unicode="&#xeb;" horiz-adv-x="468" d="M165 592 C163 580 171 571 183 571 L283 571 C295 571 305 580 307 592 L321 695 C323 707 315 716 303 716 L203 716 C191 716 181 707 179 695 L165 592 Z M347 592 C345 580 353 571 365 571 L465 571 C477 571 487 580 489 592 L503 695 C505 707 497 716 485 716 L385 716 C373 716 363 707 361 695 L347 592 Z M251 343 C253 359 270 373 285 373 L293 373 C308 373 321 359 319 343 L314 312 L246 312 L251 343 Z M426 81 C428 85 431 90 432 93 C433 100 431 104 425 109 L360 170 C357 172 352 173 349 173 C341 173 335 169 330 164 C320 155 299 142 278 142 L252 142 C237 142 224 156 227 172 L230 197 L427 197 C444 197 457 208 459 225 L478 358 C489 438 440 520 340 520 L279 520 C181 520 106 438 95 358 L66 156 C55 77 107 -5 205 -5 L258 -5 C258 -5 364 -2 426 81 L426 81 Z " />
<glyph glyph-name="igrave" unicode="&#xec;" horiz-adv-x="278" d="M62 21 C61 9 69 0 81 0 L197 0 C209 0 219 9 220 21 L287 494 C289 506 281 515 269 515 L153 515 C141 515 131 506 129 494 L62 21 Z M271 571 C281 571 291 580 293 591 L254 724 C251 733 244 743 232 743 L124 743 C113 743 104 734 102 724 L141 591 C144 581 151 571 163 571 L271 571 Z " />
<glyph glyph-name="iacute" unicode="&#xed;" horiz-adv-x="278" d="M287 494 C289 506 281 515 269 515 L153 515 C141 515 131 506 129 494 L62 21 C61 9 69 0 81 0 L197 0 C209 0 219 9 220 21 L287 494 Z M275 571 C287 571 296 581 303 591 L378 724 C380 734 373 743 362 743 L254 743 C242 743 233 733 226 724 L151 591 C149 580 157 571 167 571 L275 571 Z " />
<glyph glyph-name="icircumflex" unicode="&#xee;" horiz-adv-x="278" d="M62 21 C61 9 69 0 81 0 L197 0 C209 0 219 9 220 21 L287 494 C289 506 281 515 269 515 L153 515 C141 515 131 506 129 494 L62 21 Z M199 779 C182 779 171 770 163 758 L57 591 C55 579 62 571 74 571 L173 571 C185 571 193 581 200 591 L228 634 L244 591 C247 581 253 571 265 571 L364 571 C376 571 385 579 387 591 L327 758 C323 770 314 779 297 779 L199 779 Z " />
<glyph glyph-name="idieresis" unicode="&#xef;" horiz-adv-x="278" d="M62 21 C61 9 69 0 81 0 L197 0 C209 0 219 9 220 21 L287 494 C289 506 281 515 269 515 L153 515 C141 515 131 506 129 494 L62 21 Z M54 592 C52 580 60 571 72 571 L172 571 C184 571 194 580 196 592 L210 695 C212 707 204 716 192 716 L92 716 C80 716 70 707 68 695 L54 592 Z M248 592 C246 580 254 571 266 571 L366 571 C378 571 388 580 390 592 L404 695 C406 707 398 716 386 716 L286 716 C274 716 264 707 262 695 L248 592 Z " />
<glyph glyph-name="eth" unicode="&#xf0;" horiz-adv-x="551" d="M263 145 C243 145 230 162 233 183 L243 254 C246 276 264 292 284 292 L359 292 C378 292 391 276 388 254 L378 183 C375 162 357 145 338 145 L263 145 Z M74 176 C60 75 133 -5 237 -5 L323 -5 C427 -5 521 75 535 176 L547 261 C561 362 490 442 386 442 L321 442 C315 442 307 441 300 439 L343 484 L477 484 C489 484 499 493 500 505 L514 601 C516 613 508 622 496 622 L464 622 L513 679 C515 691 507 700 495 700 L379 700 C367 700 356 689 347 679 L295 622 L176 622 C164 622 154 613 152 601 L138 505 C137 493 145 484 157 484 L177 484 L118 419 C111 406 105 394 103 379 L74 176 Z " />
<glyph glyph-name="ntilde" unicode="&#xf1;" horiz-adv-x="501" d="M315 373 C330 373 343 359 341 343 L295 21 C294 9 302 0 314 0 L430 0 C442 0 452 9 453 21 L501 357 C509 450 494 520 398 520 L383 520 C359 520 322 510 291 470 L284 470 L287 494 C289 506 281 515 269 515 L153 515 C141 515 131 506 129 494 L62 21 C61 9 69 0 81 0 L197 0 C209 0 219 9 220 21 L265 338 C281 373 300 373 307 373 L315 373 Z M388 571 C416 571 454 587 481 603 C491 610 497 620 498 630 L483 716 C482 724 474 731 463 731 C443 731 426 720 409 720 C360 720 359 754 311 754 C283 754 245 738 218 722 C208 715 203 705 201 695 L216 609 C217 601 225 594 236 594 C256 594 274 605 291 605 C339 605 340 571 388 571 L388 571 Z " />
<glyph glyph-name="ograve" unicode="&#xf2;" horiz-adv-x="475" d="M370 571 C380 571 390 580 392 591 L353 724 C350 733 343 743 331 743 L223 743 C212 743 203 734 201 724 L240 591 C243 581 250 571 262 571 L370 571 Z M279 520 C181 520 106 438 95 358 L66 156 C55 77 107 -5 205 -5 L268 -5 C367 -5 440 77 451 156 L480 358 C491 438 441 520 342 520 L279 520 Z M251 343 C253 359 264 373 279 373 L300 373 C315 373 322 359 320 343 L296 172 C293 156 282 142 267 142 L246 142 C231 142 224 156 227 172 L251 343 Z " />
<glyph glyph-name="oacute" unicode="&#xf3;" horiz-adv-x="475" d="M371 571 C383 571 392 581 399 591 L474 724 C476 734 469 743 458 743 L350 743 C338 743 329 733 322 724 L247 591 C245 580 253 571 263 571 L371 571 Z M279 520 C181 520 106 438 95 358 L66 156 C55 77 107 -5 205 -5 L268 -5 C367 -5 440 77 451 156 L480 358 C491 438 441 520 342 520 L279 520 Z M251 343 C253 359 264 373 279 373 L300 373 C315 373 322 359 320 343 L296 172 C293 156 282 142 267 142 L246 142 C231 142 224 156 227 172 L251 343 Z " />
<glyph glyph-name="ocircumflex" unicode="&#xf4;" horiz-adv-x="475" d="M297 779 C280 779 269 770 261 758 L155 591 C153 579 160 571 172 571 L271 571 C283 571 291 581 298 591 L326 634 L342 591 C345 581 351 571 363 571 L462 571 C474 571 483 579 485 591 L425 758 C421 770 412 779 395 779 L297 779 Z M279 520 C181 520 106 438 95 358 L66 156 C55 77 107 -5 205 -5 L268 -5 C367 -5 440 77 451 156 L480 358 C491 438 441 520 342 520 L279 520 Z M251 343 C253 359 264 373 279 373 L300 373 C315 373 322 359 320 343 L296 172 C293 156 282 142 267 142 L246 142 C231 142 224 156 227 172 L251 343 Z " />
<glyph glyph-name="otilde" unicode="&#xf5;" horiz-adv-x="475" d="M279 520 C181 520 106 438 95 358 L66 156 C55 77 107 -5 205 -5 L268 -5 C367 -5 440 77 451 156 L480 358 C491 438 441 520 342 520 L279 520 Z M251 343 C253 359 264 373 279 373 L300 373 C315 373 322 359 320 343 L296 172 C293 156 282 142 267 142 L246 142 C231 142 224 156 227 172 L251 343 Z M373 571 C401 571 439 587 466 603 C476 610 482 620 483 630 L468 716 C467 724 459 731 448 731 C428 731 411 720 394 720 C345 720 344 754 296 754 C268 754 230 738 203 722 C193 715 188 705 186 695 L201 609 C202 601 210 594 221 594 C241 594 259 605 276 605 C324 605 325 571 373 571 L373 571 Z " />
<glyph glyph-name="odieresis" unicode="&#xf6;" horiz-adv-x="475" d="M152 592 C150 580 158 571 170 571 L270 571 C282 571 292 580 294 592 L308 695 C310 707 302 716 290 716 L190 716 C178 716 168 707 166 695 L152 592 Z M346 592 C344 580 352 571 364 571 L464 571 C476 571 486 580 488 592 L502 695 C504 707 496 716 484 716 L384 716 C372 716 362 707 360 695 L346 592 Z M279 520 C181 520 106 438 95 358 L66 156 C55 77 107 -5 205 -5 L268 -5 C367 -5 440 77 451 156 L480 358 C491 438 441 520 342 520 L279 520 Z M251 343 C253 359 264 373 279 373 L300 373 C315 373 322 359 320 343 L296 172 C293 156 282 142 267 142 L246 142 C231 142 224 156 227 172 L251 343 Z " />
<glyph glyph-name="divide" unicode="&#xf7;" horiz-adv-x="429" d="M194 326 C193 314 200 305 212 305 L300 305 C312 305 323 314 324 326 L336 408 C338 420 330 429 318 429 L230 429 C218 429 208 420 206 408 L194 326 Z M368 146 C380 146 390 155 392 167 L404 253 C406 265 398 274 386 274 L119 274 C107 274 97 265 95 253 L83 167 C81 155 89 146 101 146 L368 146 Z M150 12 C149 0 156 -9 168 -9 L256 -9 C268 -9 279 0 280 12 L292 94 C293 106 286 115 274 115 L186 115 C174 115 163 106 162 94 L150 12 Z " />
<glyph glyph-name="oslash" unicode="&#xf8;" horiz-adv-x="475" d="M84 -70 C82 -82 90 -91 102 -91 L137 -91 C149 -91 158 -81 164 -70 L194 -4 C197 -4 201 -5 205 -5 L268 -5 C367 -5 440 77 451 156 L480 358 C487 411 468 465 424 495 L466 585 C467 597 460 606 448 606 L413 606 C401 606 391 596 386 585 L355 519 C351 520 347 520 342 520 L279 520 C181 520 106 438 95 358 L66 156 C59 102 79 48 124 18 L84 -70 Z M251 343 C253 359 264 373 279 373 L288 373 L240 269 L251 343 Z M267 142 L261 142 L305 235 L296 172 C293 156 282 142 267 142 L267 142 Z " />
<glyph glyph-name="ugrave" unicode="&#xf9;" horiz-adv-x="485" d="M372 571 C382 571 392 580 394 591 L355 724 C352 733 345 743 333 743 L225 743 C214 743 205 734 203 724 L242 591 C245 581 252 571 264 571 L372 571 Z M301 172 C298 156 287 142 272 142 L251 142 C236 142 229 156 232 172 L277 494 C279 506 271 515 259 515 L143 515 C131 515 121 506 119 494 L71 156 C60 77 112 -5 210 -5 L273 -5 C371 -5 445 77 456 156 L504 494 C506 506 498 515 486 515 L370 515 C358 515 348 506 346 494 L301 172 Z " />
<glyph glyph-name="uacute" unicode="&#xfa;" horiz-adv-x="485" d="M377 571 C389 571 398 581 405 591 L480 724 C482 734 475 743 464 743 L356 743 C344 743 335 733 328 724 L253 591 C251 580 259 571 269 571 L377 571 Z M301 172 C298 156 287 142 272 142 L251 142 C236 142 229 156 232 172 L277 494 C279 506 271 515 259 515 L143 515 C131 515 121 506 119 494 L71 156 C60 77 112 -5 210 -5 L273 -5 C371 -5 445 77 456 156 L504 494 C506 506 498 515 486 515 L370 515 C358 515 348 506 346 494 L301 172 Z " />
<glyph glyph-name="ucircumflex" unicode="&#xfb;" horiz-adv-x="485" d="M304 779 C287 779 276 770 268 758 L162 591 C160 579 167 571 179 571 L278 571 C290 571 298 581 305 591 L333 634 L349 591 C352 581 358 571 370 571 L469 571 C481 571 490 579 492 591 L432 758 C428 770 419 779 402 779 L304 779 Z M301 172 C298 156 287 142 272 142 L251 142 C236 142 229 156 232 172 L277 494 C279 506 271 515 259 515 L143 515 C131 515 121 506 119 494 L71 156 C60 77 112 -5 210 -5 L273 -5 C371 -5 445 77 456 156 L504 494 C506 506 498 515 486 515 L370 515 C358 515 348 506 346 494 L301 172 Z " />
<glyph glyph-name="udieresis" unicode="&#xfc;" horiz-adv-x="485" d="M158 592 C156 580 164 571 176 571 L276 571 C288 571 298 580 300 592 L314 695 C316 707 308 716 296 716 L196 716 C184 716 174 707 172 695 L158 592 Z M352 592 C350 580 358 571 370 571 L470 571 C482 571 492 580 494 592 L508 695 C510 707 502 716 490 716 L390 716 C378 716 368 707 366 695 L352 592 Z M301 172 C298 156 287 142 272 142 L251 142 C236 142 229 156 232 172 L277 494 C279 506 271 515 259 515 L143 515 C131 515 121 506 119 494 L71 156 C60 77 112 -5 210 -5 L273 -5 C371 -5 445 77 456 156 L504 494 C506 506 498 515 486 515 L370 515 C358 515 348 506 346 494 L301 172 Z " />
<glyph glyph-name="yacute" unicode="&#xfd;" horiz-adv-x="452" d="M372 571 C384 571 393 581 400 591 L475 724 C477 734 470 743 459 743 L351 743 C339 743 330 733 323 724 L248 591 C246 580 254 571 264 571 L372 571 Z M516 494 C518 506 510 515 498 515 L379 515 C367 515 358 506 353 494 L259 205 L249 205 L237 494 C236 506 229 515 217 515 L98 515 C86 515 76 506 74 494 L134 -15 C130 -38 107 -58 84 -58 L42 -58 C30 -58 20 -67 18 -79 L4 -182 C2 -194 10 -203 22 -203 L103 -203 C128 -203 245 -181 313 -13 L516 494 Z " />
<glyph glyph-name="thorn" unicode="&#xfe;" horiz-adv-x="500" d="M327 172 C324 156 307 142 292 142 L267 142 C252 142 239 156 242 172 L266 343 C268 359 285 373 300 373 L325 373 C340 373 353 359 351 343 L327 172 Z M510 358 C523 450 492 520 396 520 L365 520 C344 520 318 510 294 484 L286 484 L313 679 C315 691 307 700 295 700 L179 700 C167 700 157 691 155 679 L38 -153 C36 -165 44 -174 56 -174 L172 -174 C184 -174 194 -165 196 -153 L222 31 L230 31 C247 5 270 -5 291 -5 L322 -5 C418 -5 469 65 482 157 L510 358 Z " />
<glyph glyph-name="ydieresis" unicode="&#xff;" horiz-adv-x="452" d="M141 592 C139 580 147 571 159 571 L259 571 C271 571 281 580 283 592 L297 695 C299 707 291 716 279 716 L179 716 C167 716 157 707 155 695 L141 592 Z M335 592 C333 580 341 571 353 571 L453 571 C465 571 475 580 477 592 L491 695 C493 707 485 716 473 716 L373 716 C361 716 351 707 349 695 L335 592 Z M516 494 C518 506 510 515 498 515 L379 515 C367 515 358 506 353 494 L259 205 L249 205 L237 494 C236 506 229 515 217 515 L98 515 C86 515 76 506 74 494 L134 -15 C130 -38 107 -58 84 -58 L42 -58 C30 -58 20 -67 18 -79 L4 -182 C2 -194 10 -203 22 -203 L103 -203 C128 -203 245 -181 313 -13 L516 494 Z " />
<glyph glyph-name="Amacron" unicode="&#x100;" horiz-adv-x="584" d="M531 751 C543 751 553 760 555 772 L570 880 C572 892 564 901 552 901 L285 901 C273 901 263 892 261 880 L246 772 C244 760 252 751 264 751 L531 751 Z M312 700 C300 700 290 691 285 679 L17 21 C16 9 24 0 36 0 L155 0 C167 0 176 9 180 21 L215 112 L399 112 L408 21 C410 9 417 0 429 0 L548 0 C560 0 570 9 571 21 L489 679 C488 691 480 700 468 700 L312 700 Z M353 475 L363 475 L384 261 L271 261 L353 475 Z " />
<glyph glyph-name="amacron" unicode="&#x101;" horiz-adv-x="468" d="M456 571 C468 571 478 580 480 592 L495 700 C497 712 489 721 477 721 L210 721 C198 721 188 712 186 700 L171 592 C169 580 177 571 189 571 L456 571 Z M174 360 C206 369 230 373 265 373 C314 373 314 351 310 322 L254 322 C158 322 78 275 65 182 L60 143 C47 50 86 -5 171 -5 L181 -5 C188 -5 237 -5 261 31 L269 31 L267 21 C266 9 274 0 286 0 L402 0 C414 0 424 9 425 21 L468 324 C475 372 494 520 303 520 C223 520 182 506 161 499 C150 496 142 489 141 479 C141 477 139 466 149 376 C151 363 158 359 164 359 C166 359 170 359 174 360 L174 360 Z M211 174 C213 190 228 201 242 201 L293 201 L287 163 C285 149 270 136 256 136 L233 136 C219 136 207 149 209 163 L211 174 Z " />
<glyph glyph-name="Abreve" unicode="&#x102;" horiz-adv-x="584" d="M312 700 C300 700 290 691 285 679 L17 21 C16 9 24 0 36 0 L155 0 C167 0 176 9 180 21 L215 112 L399 112 L408 21 C410 9 417 0 429 0 L548 0 C560 0 570 9 571 21 L489 679 C488 691 480 700 468 700 L312 700 Z M353 475 L363 475 L384 261 L271 261 L353 475 Z M397 751 C498 751 563 800 591 909 C593 919 587 926 577 926 L485 926 C475 926 466 919 460 909 C448 875 438 870 414 870 C390 870 380 875 378 909 C376 919 369 926 359 926 L267 926 C257 926 249 919 247 909 C245 800 296 751 397 751 L397 751 Z " />
<glyph glyph-name="abreve" unicode="&#x103;" horiz-adv-x="468" d="M174 360 C206 369 230 373 265 373 C314 373 314 351 310 322 L254 322 C158 322 78 275 65 182 L60 143 C47 50 86 -5 171 -5 L181 -5 C188 -5 237 -5 261 31 L269 31 L267 21 C266 9 274 0 286 0 L402 0 C414 0 424 9 425 21 L468 324 C475 372 494 520 303 520 C223 520 182 506 161 499 C150 496 142 489 141 479 C141 477 139 466 149 376 C151 363 158 359 164 359 C166 359 170 359 174 360 L174 360 Z M211 174 C213 190 228 201 242 201 L293 201 L287 163 C285 149 270 136 256 136 L233 136 C219 136 207 149 209 163 L211 174 Z M317 571 C418 571 483 620 511 729 C512 739 506 746 496 746 L404 746 C394 746 385 739 380 729 C368 695 357 690 333 690 C309 690 300 695 298 729 C295 739 288 746 278 746 L186 746 C176 746 168 739 167 729 C165 620 216 571 317 571 L317 571 Z " />
<glyph glyph-name="Aogonek" unicode="&#x104;" horiz-adv-x="584" d="M353 475 L363 475 L384 261 L271 261 L353 475 Z M403 64 C359 38 347 -19 345 -34 C338 -79 363 -123 422 -123 L493 -123 C501 -123 509 -116 510 -108 L518 -56 C519 -47 513 -41 505 -41 L451 -41 C451 -41 434 -41 437 -20 C438 -10 445 0 457 0 L548 0 C560 0 570 9 571 21 L489 679 C488 691 480 700 468 700 L312 700 C300 700 290 691 285 679 L17 21 C16 9 24 0 36 0 L155 0 C167 0 176 9 180 21 L215 112 L399 112 L403 64 Z " />
<glyph glyph-name="aogonek" unicode="&#x105;" horiz-adv-x="468" d="M211 174 C213 190 228 201 242 201 L293 201 L287 163 C285 149 270 136 256 136 L233 136 C219 136 207 149 209 163 L211 174 Z M264 -4 C227 -34 222 -70 220 -82 C214 -127 238 -171 297 -171 L378 -171 C386 -171 394 -164 396 -156 L403 -104 C404 -95 398 -89 390 -89 L326 -89 C326 -89 309 -89 312 -68 C313 -58 320 -48 332 -48 L397 -48 C408 -48 417 -40 418 -29 L468 324 C475 372 494 520 303 520 C223 520 182 506 161 499 C150 496 142 489 141 479 C141 477 139 466 149 376 C151 363 158 359 164 359 C166 359 170 359 174 360 C206 369 230 373 265 373 C314 373 314 351 310 322 L254 322 C158 322 78 275 65 182 L60 143 C47 50 86 -5 171 -5 L181 -5 C188 -5 237 -5 261 31 L269 31 L264 -4 Z " />
<glyph glyph-name="Cacute" unicode="&#x106;" horiz-adv-x="546" d="M447 751 C459 751 468 761 475 771 L551 904 C552 914 545 923 534 923 L426 923 C414 923 405 913 399 904 L323 771 C321 760 329 751 339 751 L447 751 Z M542 221 C543 233 536 242 524 242 L408 242 C396 242 385 233 384 221 L378 183 C375 162 358 145 339 145 L262 145 C244 145 230 162 233 183 L280 517 C283 538 302 555 320 555 L397 555 C416 555 428 538 425 517 L420 479 C418 467 426 458 438 458 L554 458 C566 458 576 467 578 479 L584 524 C598 625 527 705 422 705 L337 705 C232 705 137 625 123 524 L74 176 C60 75 132 -5 237 -5 L322 -5 C427 -5 521 75 535 176 L542 221 Z " />
<glyph glyph-name="cacute" unicode="&#x107;" horiz-adv-x="455" d="M378 571 C390 571 399 581 406 591 L481 724 C483 734 476 743 465 743 L357 743 C345 743 336 733 329 724 L254 591 C252 580 260 571 270 571 L378 571 Z M318 332 C316 320 324 311 336 311 L452 311 C464 311 474 320 476 332 L480 358 C491 438 442 520 342 520 L279 520 C181 520 106 438 95 358 L66 156 C55 77 107 -5 205 -5 L268 -5 C368 -5 440 77 451 156 L455 183 C457 195 449 204 437 204 L321 204 C309 204 299 195 297 183 L296 172 C293 156 276 142 261 142 L252 142 C237 142 224 156 227 172 L251 343 C253 359 270 373 285 373 L294 373 C309 373 322 359 320 343 L318 332 Z " />
<glyph glyph-name="Ccircumflex" unicode="&#x108;" horiz-adv-x="546" d="M365 959 C348 959 337 950 329 938 L223 771 C221 759 228 751 240 751 L339 751 C351 751 359 761 366 771 L394 814 L410 771 C413 761 419 751 431 751 L530 751 C542 751 551 759 553 771 L493 938 C489 950 480 959 463 959 L365 959 Z M542 221 C543 233 536 242 524 242 L408 242 C396 242 385 233 384 221 L378 183 C375 162 358 145 339 145 L262 145 C244 145 230 162 233 183 L280 517 C283 538 302 555 320 555 L397 555 C416 555 428 538 425 517 L420 479 C418 467 426 458 438 458 L554 458 C566 458 576 467 578 479 L584 524 C598 625 527 705 422 705 L337 705 C232 705 137 625 123 524 L74 176 C60 75 132 -5 237 -5 L322 -5 C427 -5 521 75 535 176 L542 221 Z " />
<glyph glyph-name="ccircumflex" unicode="&#x109;" horiz-adv-x="455" d="M297 779 C280 779 269 770 261 758 L155 591 C153 579 160 571 172 571 L271 571 C283 571 291 581 298 591 L326 634 L342 591 C345 581 351 571 363 571 L462 571 C474 571 483 579 485 591 L425 758 C421 770 412 779 395 779 L297 779 Z M318 332 C316 320 324 311 336 311 L452 311 C464 311 474 320 476 332 L480 358 C491 438 442 520 342 520 L279 520 C181 520 106 438 95 358 L66 156 C55 77 107 -5 205 -5 L268 -5 C368 -5 440 77 451 156 L455 183 C457 195 449 204 437 204 L321 204 C309 204 299 195 297 183 L296 172 C293 156 276 142 261 142 L252 142 C237 142 224 156 227 172 L251 343 C253 359 270 373 285 373 L294 373 C309 373 322 359 320 343 L318 332 Z " />
<glyph glyph-name="Cdotaccent" unicode="&#x10a;" horiz-adv-x="546" d="M320 772 C318 760 326 751 338 751 L438 751 C450 751 460 760 462 772 L476 875 C478 887 470 896 458 896 L358 896 C346 896 336 887 334 875 L320 772 Z M542 221 C543 233 536 242 524 242 L408 242 C396 242 385 233 384 221 L378 183 C375 162 358 145 339 145 L262 145 C244 145 230 162 233 183 L280 517 C283 538 302 555 320 555 L397 555 C416 555 428 538 425 517 L420 479 C418 467 426 458 438 458 L554 458 C566 458 576 467 578 479 L584 524 C598 625 527 705 422 705 L337 705 C232 705 137 625 123 524 L74 176 C60 75 132 -5 237 -5 L322 -5 C427 -5 521 75 535 176 L542 221 Z " />
<glyph glyph-name="cdotaccent" unicode="&#x10b;" horiz-adv-x="455" d="M247 592 C245 580 253 571 265 571 L365 571 C377 571 387 580 389 592 L403 695 C405 707 397 716 385 716 L285 716 C273 716 263 707 261 695 L247 592 Z M318 332 C316 320 324 311 336 311 L452 311 C464 311 474 320 476 332 L480 358 C491 438 442 520 342 520 L279 520 C181 520 106 438 95 358 L66 156 C55 77 107 -5 205 -5 L268 -5 C368 -5 440 77 451 156 L455 183 C457 195 449 204 437 204 L321 204 C309 204 299 195 297 183 L296 172 C293 156 276 142 261 142 L252 142 C237 142 224 156 227 172 L251 343 C253 359 270 373 285 373 L294 373 C309 373 322 359 320 343 L318 332 Z " />
<glyph glyph-name="Ccaron" unicode="&#x10c;" horiz-adv-x="546" d="M434 751 C451 751 462 760 470 772 L576 939 C578 951 571 959 559 959 L460 959 C448 959 440 949 433 939 L405 896 L389 939 C386 949 380 959 368 959 L269 959 C257 959 248 951 246 939 L306 772 C310 760 319 751 336 751 L434 751 Z M542 221 C543 233 536 242 524 242 L408 242 C396 242 385 233 384 221 L378 183 C375 162 358 145 339 145 L262 145 C244 145 230 162 233 183 L280 517 C283 538 302 555 320 555 L397 555 C416 555 428 538 425 517 L420 479 C418 467 426 458 438 458 L554 458 C566 458 576 467 578 479 L584 524 C598 625 527 705 422 705 L337 705 C232 705 137 625 123 524 L74 176 C60 75 132 -5 237 -5 L322 -5 C427 -5 521 75 535 176 L542 221 Z " />
<glyph glyph-name="ccaron" unicode="&#x10d;" horiz-adv-x="455" d="M368 571 C385 571 396 580 404 592 L510 759 C512 771 505 779 493 779 L394 779 C382 779 374 769 367 759 L339 716 L323 759 C320 769 314 779 302 779 L203 779 C191 779 182 771 180 759 L240 592 C244 580 253 571 270 571 L368 571 Z M318 332 C316 320 324 311 336 311 L452 311 C464 311 474 320 476 332 L480 358 C491 438 442 520 342 520 L279 520 C181 520 106 438 95 358 L66 156 C55 77 107 -5 205 -5 L268 -5 C368 -5 440 77 451 156 L455 183 C457 195 449 204 437 204 L321 204 C309 204 299 195 297 183 L296 172 C293 156 276 142 261 142 L252 142 C237 142 224 156 227 172 L251 343 C253 359 270 373 285 373 L294 373 C309 373 322 359 320 343 L318 332 Z " />
<glyph glyph-name="Dcaron" unicode="&#x10e;" horiz-adv-x="572" d="M416 751 C433 751 444 760 452 772 L558 939 C560 951 553 959 541 959 L442 959 C430 959 422 949 415 939 L387 896 L371 939 C368 949 362 959 350 959 L251 959 C239 959 230 951 228 939 L288 772 C292 760 301 751 318 751 L416 751 Z M62 21 C61 9 69 0 81 0 L334 0 C438 0 533 80 547 181 L594 519 C609 620 536 700 432 700 L179 700 C167 700 157 691 155 679 L62 21 Z M406 551 C425 551 439 534 436 513 L390 187 C387 166 368 149 349 149 L238 149 L295 551 L406 551 Z " />
<glyph glyph-name="dcaron" unicode="&#x10f;" horiz-adv-x="693" d="M685 528 C697 528 706 538 713 548 L788 681 C790 691 783 700 772 700 L664 700 C652 700 642 690 636 681 L561 548 C559 537 567 528 577 528 L685 528 Z M245 343 C247 359 264 373 279 373 L304 373 C319 373 332 359 330 343 L306 172 C303 156 286 142 271 142 L246 142 C231 142 218 156 221 172 L245 343 Z M62 157 C49 65 80 -5 176 -5 L207 -5 C228 -5 253 5 278 31 L286 31 L284 21 C283 9 291 0 303 0 L419 0 C431 0 441 9 442 21 L535 679 C537 691 529 700 517 700 L401 700 C389 700 379 691 377 679 L350 484 L342 484 C324 510 302 520 281 520 L250 520 C154 520 103 450 90 358 L62 157 Z " />
<glyph glyph-name="Dcroat" unicode="&#x110;" horiz-adv-x="576" d="M66 21 C65 9 73 0 85 0 L338 0 C442 0 537 80 551 181 L598 519 C613 620 540 700 436 700 L183 700 C171 700 161 691 159 679 L122 416 L79 416 C67 416 57 407 55 395 L42 303 C40 291 48 282 60 282 L103 282 L66 21 Z M315 282 C327 282 337 291 339 303 L352 395 C354 407 346 416 334 416 L280 416 L299 551 L410 551 C429 551 443 534 440 513 L394 187 C391 166 372 149 353 149 L242 149 L261 282 L315 282 Z " />
<glyph glyph-name="dcroat" unicode="&#x111;" horiz-adv-x="490" d="M245 343 C247 359 264 373 279 373 L304 373 C319 373 332 359 330 343 L306 172 C303 156 286 142 271 142 L246 142 C231 142 218 156 221 172 L245 343 Z M516 546 L545 546 C557 546 568 555 569 567 L579 636 C581 648 573 657 561 657 L532 657 L535 679 C537 691 529 700 517 700 L401 700 C389 700 379 691 377 679 L374 657 L333 657 C321 657 311 648 309 636 L299 567 C298 555 305 546 317 546 L358 546 L350 484 L342 484 C324 510 302 520 281 520 L250 520 C154 520 103 450 90 358 L62 157 C49 65 80 -5 176 -5 L207 -5 C228 -5 253 5 278 31 L286 31 L284 21 C283 9 291 0 303 0 L419 0 C431 0 441 9 442 21 L516 546 Z " />
<glyph glyph-name="Emacron" unicode="&#x112;" horiz-adv-x="505" d="M500 751 C512 751 522 760 524 772 L539 880 C541 892 533 901 521 901 L254 901 C242 901 232 892 230 880 L215 772 C213 760 221 751 233 751 L500 751 Z M239 150 L258 287 L452 287 C464 287 474 296 476 308 L491 416 C493 428 485 437 473 437 L279 437 L295 550 L511 550 C523 550 533 559 535 571 L550 679 C552 691 544 700 532 700 L179 700 C167 700 157 691 155 679 L62 21 C61 9 69 0 81 0 L434 0 C446 0 456 9 457 21 L473 129 C474 141 467 150 455 150 L239 150 Z " />
<glyph glyph-name="emacron" unicode="&#x113;" horiz-adv-x="468" d="M451 571 C463 571 473 580 475 592 L490 700 C492 712 484 721 472 721 L205 721 C193 721 183 712 181 700 L166 592 C164 580 172 571 184 571 L451 571 Z M251 343 C253 359 270 373 285 373 L293 373 C308 373 321 359 319 343 L314 312 L246 312 L251 343 Z M426 81 C428 85 431 90 432 93 C433 100 431 104 425 109 L360 170 C357 172 352 173 349 173 C341 173 335 169 330 164 C320 155 299 142 278 142 L252 142 C237 142 224 156 227 172 L230 197 L427 197 C444 197 457 208 459 225 L478 358 C489 438 440 520 340 520 L279 520 C181 520 106 438 95 358 L66 156 C55 77 107 -5 205 -5 L258 -5 C258 -5 364 -2 426 81 L426 81 Z " />
<glyph glyph-name="Edotaccent" unicode="&#x116;" horiz-adv-x="505" d="M293 772 C291 760 299 751 311 751 L411 751 C423 751 433 760 435 772 L449 875 C451 887 443 896 431 896 L331 896 C319 896 309 887 307 875 L293 772 Z M239 150 L258 287 L452 287 C464 287 474 296 476 308 L491 416 C493 428 485 437 473 437 L279 437 L295 550 L511 550 C523 550 533 559 535 571 L550 679 C552 691 544 700 532 700 L179 700 C167 700 157 691 155 679 L62 21 C61 9 69 0 81 0 L434 0 C446 0 456 9 457 21 L473 129 C474 141 467 150 455 150 L239 150 Z " />
<glyph glyph-name="edotaccent" unicode="&#x117;" horiz-adv-x="468" d="M250 592 C248 580 256 571 268 571 L368 571 C380 571 390 580 392 592 L406 695 C408 707 400 716 388 716 L288 716 C276 716 266 707 264 695 L250 592 Z M251 343 C253 359 270 373 285 373 L293 373 C308 373 321 359 319 343 L314 312 L246 312 L251 343 Z M426 81 C428 85 431 90 432 93 C433 100 431 104 425 109 L360 170 C357 172 352 173 349 173 C341 173 335 169 330 164 C320 155 299 142 278 142 L252 142 C237 142 224 156 227 172 L230 197 L427 197 C444 197 457 208 459 225 L478 358 C489 438 440 520 340 520 L279 520 C181 520 106 438 95 358 L66 156 C55 77 107 -5 205 -5 L258 -5 C258 -5 364 -2 426 81 L426 81 Z " />
<glyph glyph-name="Eogonek" unicode="&#x118;" horiz-adv-x="505" d="M271 0 C262 -15 260 -28 259 -34 C252 -79 277 -123 336 -123 L407 -123 C415 -123 423 -116 424 -108 L432 -56 C433 -47 427 -41 419 -41 L365 -41 C365 -41 348 -41 351 -20 C352 -10 357 -1 368 0 L434 0 C446 0 456 9 457 21 L473 129 C474 141 467 150 455 150 L239 150 L258 287 L452 287 C464 287 474 296 476 308 L491 416 C493 428 485 437 473 437 L279 437 L295 550 L511 550 C523 550 533 559 535 571 L550 679 C552 691 544 700 532 700 L179 700 C167 700 157 691 155 679 L62 21 C61 9 69 0 81 0 L271 0 Z " />
<glyph glyph-name="eogonek" unicode="&#x119;" horiz-adv-x="468" d="M426 81 C428 85 431 90 432 93 C433 100 431 104 425 109 L360 170 C357 172 352 173 349 173 C341 173 335 169 330 164 C320 155 299 142 278 142 L252 142 C237 142 224 156 227 172 L230 197 L427 197 C444 197 457 208 459 225 L478 358 C489 438 440 520 340 520 L279 520 C181 520 106 438 95 358 L66 156 C57 90 91 22 159 1 C155 -11 150 -30 149 -40 C143 -84 167 -123 226 -123 L311 -123 C319 -123 327 -116 328 -108 L335 -58 C337 -49 330 -43 322 -43 L253 -43 C253 -43 237 -43 240 -25 C242 -13 251 -6 258 -5 C258 -5 364 -2 426 81 L426 81 Z M251 343 C253 359 270 373 285 373 L293 373 C308 373 321 359 319 343 L314 312 L246 312 L251 343 Z " />
<glyph glyph-name="Ecaron" unicode="&#x11a;" horiz-adv-x="505" d="M417 751 C434 751 445 760 453 772 L559 939 C561 951 554 959 542 959 L443 959 C431 959 423 949 416 939 L388 896 L372 939 C369 949 363 959 351 959 L252 959 C240 959 231 951 229 939 L289 772 C293 760 302 751 319 751 L417 751 Z M239 150 L258 287 L452 287 C464 287 474 296 476 308 L491 416 C493 428 485 437 473 437 L279 437 L295 550 L511 550 C523 550 533 559 535 571 L550 679 C552 691 544 700 532 700 L179 700 C167 700 157 691 155 679 L62 21 C61 9 69 0 81 0 L434 0 C446 0 456 9 457 21 L473 129 C474 141 467 150 455 150 L239 150 Z " />
<glyph glyph-name="ecaron" unicode="&#x11b;" horiz-adv-x="468" d="M367 571 C384 571 395 580 403 592 L509 759 C511 771 504 779 492 779 L393 779 C381 779 373 769 366 759 L338 716 L322 759 C319 769 313 779 301 779 L202 779 C190 779 181 771 179 759 L239 592 C243 580 252 571 269 571 L367 571 Z M251 343 C253 359 270 373 285 373 L293 373 C308 373 321 359 319 343 L314 312 L246 312 L251 343 Z M426 81 C428 85 431 90 432 93 C433 100 431 104 425 109 L360 170 C357 172 352 173 349 173 C341 173 335 169 330 164 C320 155 299 142 278 142 L252 142 C237 142 224 156 227 172 L230 197 L427 197 C444 197 457 208 459 225 L478 358 C489 438 440 520 340 520 L279 520 C181 520 106 438 95 358 L66 156 C55 77 107 -5 205 -5 L258 -5 C258 -5 364 -2 426 81 L426 81 Z " />
<glyph glyph-name="Gcircumflex" unicode="&#x11c;" horiz-adv-x="561" d="M363 959 C346 959 335 950 327 938 L221 771 C219 759 226 751 238 751 L337 751 C349 751 357 761 364 771 L392 814 L408 771 C411 761 417 751 429 751 L528 751 C540 751 549 759 551 771 L491 938 C487 950 478 959 461 959 L363 959 Z M347 406 C335 406 324 397 323 385 L308 283 C307 271 314 262 326 262 L389 262 L378 183 C375 162 358 145 339 145 L262 145 C244 145 230 162 233 183 L280 517 C283 538 302 555 320 555 L397 555 C416 555 428 538 425 517 L420 479 C418 467 426 458 438 458 L554 458 C566 458 576 467 578 479 L584 524 C598 625 527 705 422 705 L337 705 C232 705 137 625 123 524 L74 176 C60 75 132 -5 237 -5 L322 -5 C427 -5 521 75 535 176 L565 385 C566 397 559 406 547 406 L347 406 Z " />
<glyph glyph-name="gcircumflex" unicode="&#x11d;" horiz-adv-x="500" d="M311 779 C294 779 283 770 275 758 L169 591 C167 579 174 571 186 571 L285 571 C297 571 305 581 312 591 L340 634 L356 591 C359 581 365 571 377 571 L476 571 C488 571 497 579 499 591 L439 758 C435 770 426 779 409 779 L311 779 Z M245 343 C247 359 264 373 279 373 L304 373 C319 373 332 359 330 343 L306 172 C303 156 286 142 271 142 L246 142 C231 142 218 156 221 172 L245 343 Z M278 -22 C276 -38 263 -60 213 -60 C151 -60 157 -56 112 -49 C103 -49 97 -54 92 -66 C61 -146 55 -165 55 -168 C54 -177 59 -181 67 -185 C88 -192 125 -203 207 -203 C398 -203 430 -70 437 -20 L509 494 C511 506 503 515 491 515 L375 515 C363 515 353 506 351 494 L350 484 L342 484 C324 510 302 520 281 520 L250 520 C154 520 103 450 90 358 L62 157 C49 65 80 -5 176 -5 L207 -5 C228 -5 253 5 278 31 L286 31 L278 -22 Z " />
<glyph glyph-name="Gbreve" unicode="&#x11e;" horiz-adv-x="561" d="M347 406 C335 406 324 397 323 385 L308 283 C307 271 314 262 326 262 L389 262 L378 183 C375 162 358 145 339 145 L262 145 C244 145 230 162 233 183 L280 517 C283 538 302 555 320 555 L397 555 C416 555 428 538 425 517 L420 479 C418 467 426 458 438 458 L554 458 C566 458 576 467 578 479 L584 524 C598 625 527 705 422 705 L337 705 C232 705 137 625 123 524 L74 176 C60 75 132 -5 237 -5 L322 -5 C427 -5 521 75 535 176 L565 385 C566 397 559 406 547 406 L347 406 Z M387 751 C488 751 553 800 581 909 C583 919 577 926 567 926 L475 926 C465 926 456 919 450 909 C438 875 428 870 404 870 C380 870 370 875 368 909 C366 919 359 926 349 926 L257 926 C247 926 239 919 237 909 C235 800 286 751 387 751 L387 751 Z " />
<glyph glyph-name="gbreve" unicode="&#x11f;" horiz-adv-x="500" d="M245 343 C247 359 264 373 279 373 L304 373 C319 373 332 359 330 343 L306 172 C303 156 286 142 271 142 L246 142 C231 142 218 156 221 172 L245 343 Z M278 -22 C276 -38 263 -60 213 -60 C151 -60 157 -56 112 -49 C103 -49 97 -54 92 -66 C61 -146 55 -165 55 -168 C54 -177 59 -181 67 -185 C88 -192 125 -203 207 -203 C398 -203 430 -70 437 -20 L509 494 C511 506 503 515 491 515 L375 515 C363 515 353 506 351 494 L350 484 L342 484 C324 510 302 520 281 520 L250 520 C154 520 103 450 90 358 L62 157 C49 65 80 -5 176 -5 L207 -5 C228 -5 253 5 278 31 L286 31 L278 -22 Z M314 571 C415 571 480 620 508 729 C509 739 503 746 493 746 L401 746 C391 746 382 739 377 729 C365 695 354 690 330 690 C306 690 297 695 295 729 C292 739 285 746 275 746 L183 746 C173 746 165 739 164 729 C162 620 213 571 314 571 L314 571 Z " />
<glyph glyph-name="Gdotaccent" unicode="&#x120;" horiz-adv-x="561" d="M316 772 C314 760 322 751 334 751 L434 751 C446 751 456 760 458 772 L472 875 C474 887 466 896 454 896 L354 896 C342 896 332 887 330 875 L316 772 Z M347 406 C335 406 324 397 323 385 L308 283 C307 271 314 262 326 262 L389 262 L378 183 C375 162 358 145 339 145 L262 145 C244 145 230 162 233 183 L280 517 C283 538 302 555 320 555 L397 555 C416 555 428 538 425 517 L420 479 C418 467 426 458 438 458 L554 458 C566 458 576 467 578 479 L584 524 C598 625 527 705 422 705 L337 705 C232 705 137 625 123 524 L74 176 C60 75 132 -5 237 -5 L322 -5 C427 -5 521 75 535 176 L565 385 C566 397 559 406 547 406 L347 406 Z " />
<glyph glyph-name="gdotaccent" unicode="&#x121;" horiz-adv-x="500" d="M253 592 C251 580 259 571 271 571 L371 571 C383 571 393 580 395 592 L409 695 C411 707 403 716 391 716 L291 716 C279 716 269 707 267 695 L253 592 Z M245 343 C247 359 264 373 279 373 L304 373 C319 373 332 359 330 343 L306 172 C303 156 286 142 271 142 L246 142 C231 142 218 156 221 172 L245 343 Z M278 -22 C276 -38 263 -60 213 -60 C151 -60 157 -56 112 -49 C103 -49 97 -54 92 -66 C61 -146 55 -165 55 -168 C54 -177 59 -181 67 -185 C88 -192 125 -203 207 -203 C398 -203 430 -70 437 -20 L509 494 C511 506 503 515 491 515 L375 515 C363 515 353 506 351 494 L350 484 L342 484 C324 510 302 520 281 520 L250 520 C154 520 103 450 90 358 L62 157 C49 65 80 -5 176 -5 L207 -5 C228 -5 253 5 278 31 L286 31 L278 -22 Z " />
<glyph glyph-name="uni0122" unicode="&#x122;" horiz-adv-x="561" d="M255 -223 C267 -223 277 -213 283 -203 L342 -72 C344 -62 337 -53 326 -53 L218 -53 C206 -53 197 -63 190 -72 L131 -203 C129 -214 137 -223 147 -223 L255 -223 Z M347 406 C335 406 324 397 323 385 L308 283 C307 271 314 262 326 262 L389 262 L378 183 C375 162 358 145 339 145 L262 145 C244 145 230 162 233 183 L280 517 C283 538 302 555 320 555 L397 555 C416 555 428 538 425 517 L420 479 C418 467 426 458 438 458 L554 458 C566 458 576 467 578 479 L584 524 C598 625 527 705 422 705 L337 705 C232 705 137 625 123 524 L74 176 C60 75 132 -5 237 -5 L322 -5 C427 -5 521 75 535 176 L565 385 C566 397 559 406 547 406 L347 406 Z " />
<glyph glyph-name="uni0123" unicode="&#x123;" horiz-adv-x="500" d="M364 571 C376 571 385 581 392 591 L467 724 C469 734 462 743 451 743 L343 743 C331 743 322 733 315 724 L240 591 C238 580 246 571 256 571 L364 571 Z M245 343 C247 359 264 373 279 373 L304 373 C319 373 332 359 330 343 L306 172 C303 156 286 142 271 142 L246 142 C231 142 218 156 221 172 L245 343 Z M278 -22 C276 -38 263 -60 213 -60 C151 -60 157 -56 112 -49 C103 -49 97 -54 92 -66 C61 -146 55 -165 55 -168 C54 -177 59 -181 67 -185 C88 -192 125 -203 207 -203 C398 -203 430 -70 437 -20 L509 494 C511 506 503 515 491 515 L375 515 C363 515 353 506 351 494 L350 484 L342 484 C324 510 302 520 281 520 L250 520 C154 520 103 450 90 358 L62 157 C49 65 80 -5 176 -5 L207 -5 C228 -5 253 5 278 31 L286 31 L278 -22 Z " />
<glyph glyph-name="Hcircumflex" unicode="&#x124;" horiz-adv-x="578" d="M374 959 C357 959 346 950 338 938 L232 771 C230 759 237 751 249 751 L348 751 C360 751 368 761 375 771 L403 814 L419 771 C422 761 428 751 440 751 L539 751 C551 751 560 759 562 771 L502 938 C498 950 489 959 472 959 L374 959 Z M362 21 C361 9 369 0 381 0 L497 0 C509 0 519 9 520 21 L613 679 C615 691 607 700 595 700 L479 700 C467 700 457 691 455 679 L418 414 L276 414 L313 679 C315 691 307 700 295 700 L179 700 C167 700 157 691 155 679 L62 21 C61 9 69 0 81 0 L197 0 C209 0 219 9 220 21 L255 265 L397 265 L362 21 Z " />
<glyph glyph-name="hcircumflex" unicode="&#x125;" horiz-adv-x="501" d="M314 959 C297 959 286 950 278 938 L172 771 C170 759 177 751 189 751 L288 751 C300 751 308 761 315 771 L343 814 L359 771 C362 761 368 751 380 751 L479 751 C491 751 500 759 502 771 L442 938 C438 950 429 959 412 959 L314 959 Z M315 373 C330 373 343 359 341 343 L295 21 C294 9 302 0 314 0 L430 0 C442 0 452 9 453 21 L501 357 C509 450 494 520 398 520 L383 520 C359 520 322 510 291 470 L284 470 L313 678 C314 690 307 699 295 699 L179 699 C167 699 156 690 155 678 L62 21 C61 9 69 0 81 0 L197 0 C209 0 219 9 220 21 L265 338 C281 373 300 373 307 373 L315 373 Z " />
<glyph glyph-name="Hbar" unicode="&#x126;" horiz-adv-x="567" d="M605 422 C617 422 627 431 629 443 L642 536 C644 548 636 557 624 557 L591 557 L608 679 C610 691 602 700 590 700 L474 700 C462 700 452 691 450 679 L433 557 L290 557 L307 679 C309 691 301 700 289 700 L173 700 C161 700 151 691 149 679 L132 557 L99 557 C87 557 77 548 75 536 L62 443 C60 431 68 422 80 422 L113 422 L56 21 C55 9 63 0 75 0 L191 0 C203 0 213 9 214 21 L239 193 L382 193 L357 21 C356 9 364 0 376 0 L492 0 C504 0 514 9 515 21 L572 422 L605 422 Z M260 342 L271 422 L414 422 L403 342 L260 342 Z " />
<glyph glyph-name="hbar" unicode="&#x127;" horiz-adv-x="491" d="M126 546 L52 21 C51 9 59 0 71 0 L187 0 C199 0 209 9 210 21 L255 338 C271 373 290 373 297 373 L305 373 C320 373 333 359 331 343 L285 21 C284 9 292 0 304 0 L420 0 C432 0 442 9 443 21 L491 357 C499 450 484 520 388 520 L373 520 C349 520 312 510 281 470 L274 470 L284 546 L325 546 C337 546 348 555 349 567 L359 636 C361 648 353 657 341 657 L300 657 L303 679 C305 691 297 700 285 700 L169 700 C157 700 147 691 145 679 L142 657 L113 657 C101 657 91 648 89 636 L79 567 C78 555 85 546 97 546 L126 546 Z " />
<glyph glyph-name="Itilde" unicode="&#x128;" horiz-adv-x="278" d="M62 21 C61 9 69 0 81 0 L197 0 C209 0 219 9 220 21 L313 679 C315 691 307 700 295 700 L179 700 C167 700 157 691 155 679 L62 21 Z M308 751 C336 751 374 767 402 783 C412 790 417 800 418 810 L403 896 C403 904 395 911 384 911 C364 911 346 900 329 900 C280 900 256 938 208 938 C180 938 142 922 115 906 C105 899 99 889 98 879 L113 793 C114 785 122 778 133 778 C153 778 170 789 187 789 C235 789 260 751 308 751 L308 751 Z " />
<glyph glyph-name="itilde" unicode="&#x129;" horiz-adv-x="278" d="M62 21 C61 9 69 0 81 0 L197 0 C209 0 219 9 220 21 L287 494 C289 506 281 515 269 515 L153 515 C141 515 131 506 129 494 L62 21 Z M283 571 C311 571 349 587 376 603 C386 610 392 620 393 630 L378 716 C377 724 369 731 358 731 C338 731 321 720 304 720 C255 720 231 758 183 758 C155 758 117 742 90 726 C80 719 74 709 73 699 L88 613 C89 605 97 598 108 598 C128 598 145 609 162 609 C210 609 235 571 283 571 L283 571 Z " />
<glyph glyph-name="Imacron" unicode="&#x12a;" horiz-adv-x="278" d="M62 21 C61 9 69 0 81 0 L197 0 C209 0 219 9 220 21 L313 679 C315 691 307 700 295 700 L179 700 C167 700 157 691 155 679 L62 21 Z M366 751 C378 751 388 760 390 772 L405 880 C407 892 399 901 387 901 L144 901 C132 901 122 892 120 880 L105 772 C103 760 111 751 123 751 L366 751 Z " />
<glyph glyph-name="imacron" unicode="&#x12b;" horiz-adv-x="278" d="M62 21 C61 9 69 0 81 0 L197 0 C209 0 219 9 220 21 L287 494 C289 506 281 515 269 515 L153 515 C141 515 131 506 129 494 L62 21 Z M341 571 C353 571 363 580 365 592 L380 700 C382 712 374 721 362 721 L119 721 C107 721 97 712 95 700 L80 592 C78 580 86 571 98 571 L341 571 Z " />
<glyph glyph-name="Iogonek" unicode="&#x12e;" horiz-adv-x="278" d="M70 73 C-10 60 -22 -17 -24 -34 C-31 -79 -6 -123 52 -123 L123 -123 C131 -123 139 -116 140 -108 L148 -56 C149 -47 143 -41 135 -41 L81 -41 C81 -41 64 -41 67 -20 C68 -10 75 0 87 0 L197 0 C209 0 219 9 220 21 L313 679 C315 691 307 700 295 700 L179 700 C167 700 157 691 155 679 L70 73 Z " />
<glyph glyph-name="iogonek" unicode="&#x12f;" horiz-adv-x="278" d="M138 579 C136 567 144 558 156 558 L278 558 C290 558 300 567 302 579 L316 676 C317 688 309 697 297 697 L175 697 C163 697 153 688 152 676 L138 579 Z M70 73 C-10 60 -22 -17 -24 -34 C-31 -79 -6 -123 52 -123 L123 -123 C131 -123 139 -116 140 -108 L148 -56 C149 -47 143 -41 135 -41 L81 -41 C81 -41 64 -41 67 -20 C68 -10 75 0 87 0 L197 0 C209 0 219 9 220 21 L287 494 C289 506 281 515 269 515 L153 515 C141 515 131 506 129 494 L70 73 Z " />
<glyph glyph-name="Idotaccent" unicode="&#x130;" horiz-adv-x="278" d="M62 21 C61 9 69 0 81 0 L197 0 C209 0 219 9 220 21 L295 550 C296 562 289 571 277 571 L161 571 C149 571 138 562 137 550 L62 21 Z M147 642 C145 630 153 621 165 621 L287 621 C299 621 309 630 311 642 L324 739 C326 751 318 760 306 760 L184 760 C172 760 162 751 160 739 L147 642 Z " />
<glyph glyph-name="dotlessi" unicode="&#x131;" horiz-adv-x="278" d="M62 21 C61 9 69 0 81 0 L197 0 C209 0 219 9 220 21 L287 494 C289 506 281 515 269 515 L153 515 C141 515 131 506 129 494 L62 21 Z " />
<glyph glyph-name="Jcircumflex" unicode="&#x134;" horiz-adv-x="427" d="M306 959 C289 959 278 950 270 938 L164 771 C162 759 169 751 181 751 L280 751 C292 751 300 761 307 771 L335 814 L351 771 C354 761 360 751 372 751 L471 751 C483 751 492 759 494 771 L434 938 C430 950 421 959 404 959 L306 959 Z M7 76 C28 51 72 -5 169 -5 C312 -5 399 88 413 185 L482 679 C484 691 476 700 464 700 L348 700 C336 700 326 691 324 679 L255 187 C254 183 248 145 184 145 C161 145 145 155 125 174 C121 177 116 178 111 178 C105 178 100 177 94 174 L13 107 C6 101 3 97 2 90 C2 86 3 81 7 76 L7 76 Z " />
<glyph glyph-name="jcircumflex" unicode="&#x135;" horiz-adv-x="278" d="M20 -188 C20 -188 198 -142 220 16 L287 494 C289 506 281 515 269 515 L153 515 C141 515 131 506 129 494 L62 21 C62 21 55 -23 -18 -45 C-27 -47 -32 -56 -33 -63 C-34 -65 -33 -69 -32 -71 L-4 -177 C-3 -186 3 -190 10 -190 C12 -190 18 -189 20 -188 L20 -188 Z M199 779 C182 779 171 770 163 758 L57 591 C55 579 62 571 74 571 L173 571 C185 571 193 581 200 591 L228 634 L244 591 C247 581 253 571 265 571 L364 571 C376 571 385 579 387 591 L327 758 C323 770 314 779 297 779 L199 779 Z " />
<glyph glyph-name="uni0136" unicode="&#x136;" horiz-adv-x="558" d="M276 -223 C288 -223 298 -213 304 -203 L363 -72 C365 -62 358 -53 347 -53 L239 -53 C227 -53 218 -63 211 -72 L152 -203 C150 -214 158 -223 168 -223 L276 -223 Z M325 425 L277 425 L313 679 C315 691 307 700 295 700 L179 700 C167 700 157 691 155 679 L62 21 C61 9 69 0 81 0 L197 0 C209 0 219 9 220 21 L256 275 L303 275 L370 21 C374 10 383 0 395 0 L516 0 C528 0 538 9 539 21 L452 351 L629 679 C631 691 623 700 611 700 L492 700 C480 700 468 690 462 679 L325 425 Z " />
<glyph glyph-name="uni0137" unicode="&#x137;" horiz-adv-x="490" d="M248 -223 C260 -223 270 -213 276 -203 L335 -72 C337 -62 330 -53 319 -53 L211 -53 C199 -53 190 -63 183 -72 L124 -203 C122 -214 130 -223 140 -223 L248 -223 Z M271 197 L311 21 C316 9 329 0 341 0 L458 0 C470 0 480 9 481 21 L420 270 L549 494 C551 506 543 515 531 515 L413 515 C401 515 386 505 378 494 L294 342 L266 342 L313 679 C315 691 307 700 295 700 L179 700 C167 700 157 691 155 679 L62 21 C61 9 69 0 81 0 L197 0 C209 0 219 9 220 21 L245 197 L271 197 Z " />
<glyph glyph-name="kgreenlandic" unicode="&#x138;" horiz-adv-x="490" d="M271 197 L311 21 C316 9 329 0 341 0 L458 0 C470 0 480 9 481 21 L420 270 L549 494 C551 506 543 515 531 515 L413 515 C401 515 386 505 378 494 L294 342 L266 342 L287 494 C289 506 281 515 269 515 L153 515 C141 515 131 506 129 494 L62 21 C61 9 69 0 81 0 L197 0 C209 0 219 9 220 21 L245 197 L271 197 Z " />
<glyph glyph-name="Lacute" unicode="&#x139;" horiz-adv-x="474" d="M304 751 C316 751 325 761 332 771 L408 904 C409 914 402 923 391 923 L283 923 C271 923 262 913 256 904 L180 771 C178 760 186 751 196 751 L304 751 Z M239 150 L313 679 C315 691 307 700 295 700 L179 700 C167 700 157 691 155 679 L62 21 C61 9 69 0 81 0 L433 0 C445 0 455 9 456 21 L472 129 C473 141 466 150 454 150 L239 150 Z " />
<glyph glyph-name="lacute" unicode="&#x13a;" horiz-adv-x="278" d="M62 21 C61 9 69 0 81 0 L197 0 C209 0 219 9 220 21 L313 679 C315 691 307 700 295 700 L179 700 C167 700 157 691 155 679 L62 21 Z M295 751 C307 751 316 761 323 771 L399 904 C400 914 393 923 382 923 L274 923 C262 923 253 913 247 904 L171 771 C169 760 177 751 187 751 L295 751 Z " />
<glyph glyph-name="uni013B" unicode="&#x13b;" horiz-adv-x="474" d="M235 -223 C247 -223 257 -213 263 -203 L322 -72 C324 -62 317 -53 306 -53 L198 -53 C186 -53 177 -63 170 -72 L111 -203 C109 -214 117 -223 127 -223 L235 -223 Z M239 150 L313 679 C315 691 307 700 295 700 L179 700 C167 700 157 691 155 679 L62 21 C61 9 69 0 81 0 L433 0 C445 0 455 9 456 21 L472 129 C473 141 466 150 454 150 L239 150 Z " />
<glyph glyph-name="uni013C" unicode="&#x13c;" horiz-adv-x="278" d="M62 21 C61 9 69 0 81 0 L197 0 C209 0 219 9 220 21 L313 679 C315 691 307 700 295 700 L179 700 C167 700 157 691 155 679 L62 21 Z M112 -223 C124 -223 134 -213 140 -203 L199 -72 C201 -62 194 -53 183 -53 L75 -53 C63 -53 54 -63 47 -72 L-11 -203 C-13 -214 -5 -223 4 -223 L112 -223 Z " />
<glyph glyph-name="Lcaron" unicode="&#x13d;" horiz-adv-x="505" d="M460 700 C448 700 438 690 432 680 L359 534 C357 524 364 515 375 515 L479 515 C491 515 500 525 507 534 L580 680 C582 691 574 700 564 700 L460 700 Z M239 150 L313 679 C315 691 307 700 295 700 L179 700 C167 700 157 691 155 679 L62 21 C61 9 69 0 81 0 L433 0 C445 0 455 9 456 21 L472 129 C473 141 466 150 454 150 L239 150 Z " />
<glyph glyph-name="lcaron" unicode="&#x13e;" horiz-adv-x="471" d="M62 21 C61 9 69 0 81 0 L197 0 C209 0 219 9 220 21 L313 679 C315 691 307 700 295 700 L179 700 C167 700 157 691 155 679 L62 21 Z M463 528 C475 528 484 538 491 548 L566 681 C568 691 561 700 550 700 L442 700 C430 700 420 690 414 681 L339 548 C337 537 345 528 355 528 L463 528 Z " />
<glyph glyph-name="Lslash" unicode="&#x141;" horiz-adv-x="491" d="M255 150 L277 307 L335 323 C347 326 357 332 359 344 L374 452 C376 464 368 473 356 473 L298 457 L329 679 C331 691 323 700 311 700 L195 700 C183 700 173 691 171 679 L134 413 L76 398 C64 395 54 389 52 377 L37 269 C36 257 43 248 55 248 L112 263 L78 21 C77 9 85 0 97 0 L450 0 C462 0 472 9 473 21 L489 129 C490 141 483 150 471 150 L255 150 Z " />
<glyph glyph-name="lslash" unicode="&#x142;" horiz-adv-x="311" d="M335 323 C347 326 357 332 359 344 L374 452 C376 464 368 473 356 473 L298 457 L329 679 C331 691 323 700 311 700 L195 700 C183 700 173 691 171 679 L134 413 L76 398 C64 395 54 389 52 377 L37 269 C36 257 43 248 55 248 L112 263 L78 21 C77 9 85 0 97 0 L213 0 C225 0 235 9 236 21 L277 307 L335 323 Z " />
<glyph glyph-name="Nacute" unicode="&#x143;" horiz-adv-x="609" d="M469 751 C481 751 490 761 497 771 L573 904 C574 914 567 923 556 923 L448 923 C436 923 427 913 421 904 L345 771 C343 760 351 751 361 751 L469 751 Z M431 355 L349 678 C345 689 340 699 328 699 L179 699 C167 699 156 690 155 678 L62 21 C61 9 69 0 81 0 L197 0 C209 0 219 9 220 21 L266 345 L275 345 L357 21 C360 10 367 0 379 0 L528 0 C540 0 550 9 551 21 L644 678 C645 690 638 699 626 699 L510 699 C498 699 487 690 486 678 L440 355 L431 355 Z " />
<glyph glyph-name="nacute" unicode="&#x144;" horiz-adv-x="501" d="M400 571 C412 571 421 581 428 591 L503 724 C505 734 498 743 487 743 L379 743 C367 743 358 733 351 724 L276 591 C274 580 282 571 292 571 L400 571 Z M315 373 C330 373 343 359 341 343 L295 21 C294 9 302 0 314 0 L430 0 C442 0 452 9 453 21 L501 357 C509 450 494 520 398 520 L383 520 C359 520 322 510 291 470 L284 470 L287 494 C289 506 281 515 269 515 L153 515 C141 515 131 506 129 494 L62 21 C61 9 69 0 81 0 L197 0 C209 0 219 9 220 21 L265 338 C281 373 300 373 307 373 L315 373 Z " />
<glyph glyph-name="uni0145" unicode="&#x145;" horiz-adv-x="609" d="M279 -223 C291 -223 301 -213 307 -203 L366 -72 C368 -62 361 -53 350 -53 L242 -53 C230 -53 221 -63 214 -72 L155 -203 C153 -214 161 -223 171 -223 L279 -223 Z M431 355 L349 678 C345 689 340 699 328 699 L179 699 C167 699 156 690 155 678 L62 21 C61 9 69 0 81 0 L197 0 C209 0 219 9 220 21 L266 345 L275 345 L357 21 C360 10 367 0 379 0 L528 0 C540 0 550 9 551 21 L644 678 C645 690 638 699 626 699 L510 699 C498 699 487 690 486 678 L440 355 L431 355 Z " />
<glyph glyph-name="uni0146" unicode="&#x146;" horiz-adv-x="501" d="M237 -223 C249 -223 259 -213 265 -203 L324 -72 C326 -62 319 -53 308 -53 L200 -53 C188 -53 179 -63 172 -72 L113 -203 C111 -214 119 -223 129 -223 L237 -223 Z M315 373 C330 373 343 359 341 343 L295 21 C294 9 302 0 314 0 L430 0 C442 0 452 9 453 21 L501 357 C509 450 494 520 398 520 L383 520 C359 520 322 510 291 470 L284 470 L287 494 C289 506 281 515 269 515 L153 515 C141 515 131 506 129 494 L62 21 C61 9 69 0 81 0 L197 0 C209 0 219 9 220 21 L265 338 C281 373 300 373 307 373 L315 373 Z " />
<glyph glyph-name="Ncaron" unicode="&#x147;" horiz-adv-x="609" d="M472 751 C489 751 500 760 508 772 L614 939 C616 951 609 959 597 959 L498 959 C486 959 478 949 471 939 L443 896 L427 939 C424 949 418 959 406 959 L307 959 C295 959 286 951 284 939 L344 772 C348 760 357 751 374 751 L472 751 Z M431 355 L349 678 C345 689 340 699 328 699 L179 699 C167 699 156 690 155 678 L62 21 C61 9 69 0 81 0 L197 0 C209 0 219 9 220 21 L266 345 L275 345 L357 21 C360 10 367 0 379 0 L528 0 C540 0 550 9 551 21 L644 678 C645 690 638 699 626 699 L510 699 C498 699 487 690 486 678 L440 355 L431 355 Z " />
<glyph glyph-name="ncaron" unicode="&#x148;" horiz-adv-x="501" d="M388 571 C405 571 416 580 424 592 L530 759 C532 771 525 779 513 779 L414 779 C402 779 394 769 387 759 L359 716 L343 759 C340 769 334 779 322 779 L223 779 C211 779 202 771 200 759 L260 592 C264 580 273 571 290 571 L388 571 Z M315 373 C330 373 343 359 341 343 L295 21 C294 9 302 0 314 0 L430 0 C442 0 452 9 453 21 L501 357 C509 450 494 520 398 520 L383 520 C359 520 322 510 291 470 L284 470 L287 494 C289 506 281 515 269 515 L153 515 C141 515 131 506 129 494 L62 21 C61 9 69 0 81 0 L197 0 C209 0 219 9 220 21 L265 338 C281 373 300 373 307 373 L315 373 Z " />
<glyph glyph-name="Eng" unicode="&#x14a;" horiz-adv-x="609" d="M366 -17 C355 -27 338 -37 312 -45 C303 -47 298 -56 297 -63 C296 -65 297 -69 298 -71 L326 -177 C327 -186 334 -190 341 -190 C343 -190 349 -189 351 -188 C351 -188 529 -142 551 16 L644 678 C645 690 638 699 626 699 L510 699 C498 699 487 690 486 678 L440 355 L431 355 L349 678 C345 689 340 699 328 699 L179 699 C167 699 156 690 155 678 L62 21 C61 9 69 0 81 0 L197 0 C209 0 219 9 220 21 L266 345 L275 345 L366 -17 Z " />
<glyph glyph-name="eng" unicode="&#x14b;" horiz-adv-x="501" d="M253 -188 C253 -188 431 -142 453 16 L501 357 C509 450 494 520 398 520 L383 520 C359 520 322 510 291 470 L284 470 L287 494 C289 506 281 515 269 515 L153 515 C141 515 131 506 129 494 L62 21 C61 9 69 0 81 0 L197 0 C209 0 219 9 220 21 L265 338 C281 373 300 373 307 373 L315 373 C330 373 343 359 341 343 L295 21 C295 21 288 -23 214 -45 C205 -47 200 -56 199 -63 C198 -65 199 -69 200 -71 L228 -177 C229 -186 236 -190 243 -190 C245 -190 251 -189 253 -188 L253 -188 Z " />
<glyph glyph-name="Omacron" unicode="&#x14c;" horiz-adv-x="561" d="M519 751 C531 751 541 760 543 772 L558 880 C560 892 552 901 540 901 L273 901 C261 901 251 892 249 880 L234 772 C232 760 240 751 252 751 L519 751 Z M262 145 C244 145 230 162 233 183 L280 517 C283 538 302 555 320 555 L397 555 C416 555 428 538 425 517 L378 183 C375 162 358 145 339 145 L262 145 Z M322 -5 C427 -5 521 75 535 176 L584 524 C598 625 527 705 422 705 L337 705 C232 705 137 625 123 524 L74 176 C60 75 132 -5 237 -5 L322 -5 Z " />
<glyph glyph-name="omacron" unicode="&#x14d;" horiz-adv-x="475" d="M452 571 C464 571 474 580 476 592 L491 700 C493 712 485 721 473 721 L206 721 C194 721 184 712 182 700 L167 592 C165 580 173 571 185 571 L452 571 Z M279 520 C181 520 106 438 95 358 L66 156 C55 77 107 -5 205 -5 L268 -5 C367 -5 440 77 451 156 L480 358 C491 438 441 520 342 520 L279 520 Z M251 343 C253 359 264 373 279 373 L300 373 C315 373 322 359 320 343 L296 172 C293 156 282 142 267 142 L246 142 C231 142 224 156 227 172 L251 343 Z " />
<glyph glyph-name="Ohungarumlaut" unicode="&#x150;" horiz-adv-x="561" d="M363 751 C375 751 384 761 391 771 L455 902 C457 912 450 921 439 921 L334 921 C322 921 313 911 306 902 L242 771 C240 760 248 751 258 751 L363 751 Z M536 751 C548 751 557 761 564 771 L628 902 C630 912 623 921 612 921 L507 921 C495 921 486 911 479 902 L415 771 C413 760 421 751 431 751 L536 751 Z M262 145 C244 145 230 162 233 183 L280 517 C283 538 302 555 320 555 L397 555 C416 555 428 538 425 517 L378 183 C375 162 358 145 339 145 L262 145 Z M322 -5 C427 -5 521 75 535 176 L584 524 C598 625 527 705 422 705 L337 705 C232 705 137 625 123 524 L74 176 C60 75 132 -5 237 -5 L322 -5 Z " />
<glyph glyph-name="ohungarumlaut" unicode="&#x151;" horiz-adv-x="475" d="M265 571 C277 571 286 581 293 591 L357 722 C358 732 352 741 341 741 L236 741 C224 741 214 731 208 722 L144 591 C142 580 150 571 160 571 L265 571 Z M438 571 C450 571 459 581 466 591 L530 722 C531 732 525 741 514 741 L409 741 C397 741 387 731 381 722 L317 591 C315 580 323 571 333 571 L438 571 Z M279 520 C181 520 106 438 95 358 L66 156 C55 77 107 -5 205 -5 L268 -5 C367 -5 440 77 451 156 L480 358 C491 438 441 520 342 520 L279 520 Z M251 343 C253 359 264 373 279 373 L300 373 C315 373 322 359 320 343 L296 172 C293 156 282 142 267 142 L246 142 C231 142 224 156 227 172 L251 343 Z " />
<glyph glyph-name="OE" unicode="&#x152;" horiz-adv-x="800" d="M534 150 L553 287 L747 287 C759 287 769 296 771 308 L786 416 C788 428 780 437 768 437 L574 437 L590 550 L806 550 C818 550 828 559 830 571 L845 679 C847 691 839 700 827 700 L336 700 C231 700 137 620 122 519 L75 181 C61 80 133 0 238 0 L729 0 C741 0 751 9 752 21 L768 129 C769 141 762 150 750 150 L534 150 Z M263 150 C245 150 231 167 234 188 L279 512 C282 533 301 550 319 550 L398 550 C415 550 428 535 427 516 L381 188 C378 167 361 150 342 150 L263 150 Z " />
<glyph glyph-name="oe" unicode="&#x153;" horiz-adv-x="695" d="M653 81 C655 85 658 90 659 93 C660 100 658 104 652 109 L587 170 C584 172 579 173 576 173 C568 173 562 169 557 164 C547 155 526 142 505 142 L479 142 C465 142 453 154 453 168 L457 197 L654 197 C671 197 684 208 686 225 L705 358 C716 438 667 520 567 520 L506 520 C475 520 445 512 420 498 C399 511 373 520 342 520 L279 520 C181 520 106 438 95 358 L66 156 C55 77 107 -5 205 -5 L268 -5 C299 -5 328 3 353 17 C374 3 401 -5 432 -5 L485 -5 C485 -5 591 -2 653 81 L653 81 Z M251 343 C253 359 264 373 279 373 L300 373 C315 373 322 359 320 343 L295 168 C292 154 281 142 267 142 L246 142 C231 142 224 156 227 172 L251 343 Z M478 346 C482 361 498 373 512 373 L520 373 C535 373 548 359 546 343 L541 312 L473 312 L478 346 Z " />
<glyph glyph-name="Racute" unicode="&#x154;" horiz-adv-x="567" d="M423 751 C435 751 444 761 451 771 L527 904 C528 914 521 923 510 923 L402 923 C390 923 381 913 375 904 L299 771 C297 760 305 751 315 751 L423 751 Z M472 230 C522 262 559 315 567 374 L587 519 C602 620 529 700 425 700 L179 700 C167 700 157 691 155 679 L62 21 C61 9 69 0 81 0 L197 0 C209 0 219 9 220 21 L245 193 L311 193 L363 21 C367 10 376 0 388 0 L516 0 C528 0 538 9 539 21 L472 230 Z M295 550 L399 550 C419 550 431 533 428 512 L410 381 C407 361 390 343 370 343 L266 343 L295 550 Z " />
<glyph glyph-name="racute" unicode="&#x155;" horiz-adv-x="378" d="M286 571 C298 571 307 581 314 591 L389 724 C391 734 384 743 373 743 L265 743 C253 743 244 733 237 724 L162 591 C160 580 168 571 178 571 L286 571 Z M389 365 C401 365 411 374 413 386 L436 487 C438 500 435 505 422 511 C408 517 397 520 382 520 C353 520 326 517 291 474 L284 474 L287 494 C289 506 281 515 269 515 L153 515 C141 515 131 506 129 494 L62 21 C61 9 69 0 81 0 L197 0 C209 0 219 9 220 21 L264 333 C291 371 322 373 341 373 C365 373 367 368 389 365 L389 365 Z " />
<glyph glyph-name="uni0156" unicode="&#x156;" horiz-adv-x="567" d="M270 -223 C282 -223 292 -213 298 -203 L357 -72 C359 -62 352 -53 341 -53 L233 -53 C221 -53 212 -63 205 -72 L146 -203 C144 -214 152 -223 162 -223 L270 -223 Z M472 230 C522 262 559 315 567 374 L587 519 C602 620 529 700 425 700 L179 700 C167 700 157 691 155 679 L62 21 C61 9 69 0 81 0 L197 0 C209 0 219 9 220 21 L245 193 L311 193 L363 21 C367 10 376 0 388 0 L516 0 C528 0 538 9 539 21 L472 230 Z M295 550 L399 550 C419 550 431 533 428 512 L410 381 C407 361 390 343 370 343 L266 343 L295 550 Z " />
<glyph glyph-name="uni0157" unicode="&#x157;" horiz-adv-x="378" d="M156 -223 C168 -223 178 -213 184 -203 L243 -72 C245 -62 238 -53 227 -53 L119 -53 C107 -53 98 -63 91 -72 L32 -203 C30 -214 38 -223 48 -223 L156 -223 Z M389 365 C401 365 411 374 413 386 L436 487 C438 500 435 505 422 511 C408 517 397 520 382 520 C353 520 326 517 291 474 L284 474 L287 494 C289 506 281 515 269 515 L153 515 C141 515 131 506 129 494 L62 21 C61 9 69 0 81 0 L197 0 C209 0 219 9 220 21 L264 333 C291 371 322 373 341 373 C365 373 367 368 389 365 L389 365 Z " />
<glyph glyph-name="Rcaron" unicode="&#x158;" horiz-adv-x="567" d="M407 751 C424 751 435 760 443 772 L549 939 C551 951 544 959 532 959 L433 959 C421 959 413 949 406 939 L378 896 L362 939 C359 949 353 959 341 959 L242 959 C230 959 221 951 219 939 L279 772 C283 760 292 751 309 751 L407 751 Z M472 230 C522 262 559 315 567 374 L587 519 C602 620 529 700 425 700 L179 700 C167 700 157 691 155 679 L62 21 C61 9 69 0 81 0 L197 0 C209 0 219 9 220 21 L245 193 L311 193 L363 21 C367 10 376 0 388 0 L516 0 C528 0 538 9 539 21 L472 230 Z M295 550 L399 550 C419 550 431 533 428 512 L410 381 C407 361 390 343 370 343 L266 343 L295 550 Z " />
<glyph glyph-name="rcaron" unicode="&#x159;" horiz-adv-x="378" d="M341 571 C357 571 367 579 374 590 L472 744 C474 755 468 762 457 762 L366 762 C355 762 346 753 341 744 L314 704 L300 744 C297 753 292 762 281 762 L190 762 C179 762 171 755 169 744 L223 590 C228 579 236 571 252 571 L341 571 Z M389 365 C401 365 411 374 413 386 L436 487 C438 500 435 505 422 511 C408 517 397 520 382 520 C353 520 326 517 291 474 L284 474 L287 494 C289 506 281 515 269 515 L153 515 C141 515 131 506 129 494 L62 21 C61 9 69 0 81 0 L197 0 C209 0 219 9 220 21 L264 333 C291 371 322 373 341 373 C365 373 367 368 389 365 L389 365 Z " />
<glyph glyph-name="Sacute" unicode="&#x15a;" horiz-adv-x="530" d="M311 751 C301 751 293 760 295 771 L371 904 C377 913 386 923 398 923 L506 923 C517 923 524 914 523 904 L447 771 C440 761 431 751 419 751 L311 751 Z M306 -5 C410 -5 505 75 519 176 L521 192 C562 477 242 376 259 492 L262 517 C265 538 284 555 304 555 L370 555 C389 555 402 538 399 517 L396 491 C394 479 402 470 414 470 L530 470 C542 470 552 479 554 491 L558 524 C572 625 500 705 398 705 L317 705 C213 705 117 625 103 524 L100 503 C62 230 379 307 364 206 L361 183 C358 162 339 145 320 145 L243 145 C224 145 210 162 213 183 L218 215 C219 227 212 236 200 236 L84 236 C72 236 61 227 60 215 L54 176 C40 75 113 -5 215 -5 L306 -5 Z " />
<glyph glyph-name="sacute" unicode="&#x15b;" horiz-adv-x="446" d="M352 571 C364 571 373 581 380 591 L455 724 C457 734 450 743 439 743 L331 743 C319 743 310 733 303 724 L228 591 C226 580 234 571 244 571 L352 571 Z M309 352 C307 340 315 331 327 331 L436 331 C448 331 458 340 460 352 L461 359 C472 438 421 520 323 520 L269 520 C171 520 103 449 86 369 L85 361 C61 185 291 210 285 167 L283 155 C281 139 265 133 250 133 L234 133 C219 133 206 144 208 160 L209 167 C211 179 203 188 191 188 L82 188 C70 188 60 179 58 167 L56 156 C45 77 97 -5 195 -5 L255 -5 C354 -5 425 65 436 145 L438 159 C462 334 233 306 239 353 L241 364 C243 380 259 386 274 386 L284 386 C299 386 312 375 310 359 L309 352 Z " />
<glyph glyph-name="Scircumflex" unicode="&#x15c;" horiz-adv-x="530" d="M447 959 C464 959 473 950 477 938 L537 771 C535 759 526 751 514 751 L415 751 C403 751 397 761 394 771 L378 814 L350 771 C343 761 335 751 323 751 L224 751 C212 751 205 759 207 771 L313 938 C321 950 332 959 349 959 L447 959 Z M306 -5 C410 -5 505 75 519 176 L521 192 C562 477 242 376 259 492 L262 517 C265 538 284 555 304 555 L370 555 C389 555 402 538 399 517 L396 491 C394 479 402 470 414 470 L530 470 C542 470 552 479 554 491 L558 524 C572 625 500 705 398 705 L317 705 C213 705 117 625 103 524 L100 503 C62 230 379 307 364 206 L361 183 C358 162 339 145 320 145 L243 145 C224 145 210 162 213 183 L218 215 C219 227 212 236 200 236 L84 236 C72 236 61 227 60 215 L54 176 C40 75 113 -5 215 -5 L306 -5 Z " />
<glyph glyph-name="scircumflex" unicode="&#x15d;" horiz-adv-x="446" d="M282 779 C265 779 254 770 246 758 L140 591 C138 579 145 571 157 571 L256 571 C268 571 276 581 283 591 L311 634 L327 591 C330 581 336 571 348 571 L447 571 C459 571 468 579 470 591 L410 758 C406 770 397 779 380 779 L282 779 Z M309 352 C307 340 315 331 327 331 L436 331 C448 331 458 340 460 352 L461 359 C472 438 421 520 323 520 L269 520 C171 520 103 449 86 369 L85 361 C61 185 291 210 285 167 L283 155 C281 139 265 133 250 133 L234 133 C219 133 206 144 208 160 L209 167 C211 179 203 188 191 188 L82 188 C70 188 60 179 58 167 L56 156 C45 77 97 -5 195 -5 L255 -5 C354 -5 425 65 436 145 L438 159 C462 334 233 306 239 353 L241 364 C243 380 259 386 274 386 L284 386 C299 386 312 375 310 359 L309 352 Z " />
<glyph glyph-name="Scedilla" unicode="&#x15e;" horiz-adv-x="530" d="M259 491 L262 516 C265 538 284 555 304 555 L370 555 C389 555 402 538 399 516 L396 491 C394 479 401 469 413 469 L529 469 C541 469 552 479 554 491 L558 524 C572 625 500 705 398 705 L317 705 C213 705 117 625 103 524 L100 503 C62 229 379 307 364 206 L361 183 C358 161 339 145 320 145 L243 145 C224 145 210 161 213 183 L218 214 C219 227 212 235 200 235 L84 235 C72 235 61 227 60 214 L54 175 C40 76 111 -4 212 -5 L192 -32 C188 -38 185 -46 185 -48 L181 -77 C180 -85 185 -93 193 -93 L243 -93 C243 -93 255 -93 254 -106 C252 -118 240 -118 240 -118 L178 -118 C170 -118 162 -124 161 -134 L154 -180 C153 -188 159 -196 167 -196 L254 -196 C314 -196 335 -169 345 -93 C351 -54 326 -30 294 -24 L307 -5 C411 -5 505 75 519 175 L521 192 C562 477 242 376 259 491 L259 491 Z " />
<glyph glyph-name="scedilla" unicode="&#x15f;" horiz-adv-x="446" d="M210 -92 C210 -92 222 -92 220 -105 C218 -118 206 -118 206 -118 L144 -118 C136 -118 128 -124 127 -133 L120 -180 C119 -188 125 -195 133 -195 L220 -195 C280 -195 301 -168 311 -93 C317 -53 292 -29 260 -23 L274 -4 C362 4 425 70 436 145 L438 159 C462 334 233 306 239 353 L241 364 C243 380 259 386 274 386 L284 386 C299 386 312 375 310 359 L309 352 C307 340 315 331 327 331 L436 331 C448 331 458 340 460 352 L461 359 C472 438 421 520 323 520 L269 520 C171 520 103 449 86 369 L85 361 C61 185 291 210 285 167 L283 155 C281 139 265 133 250 133 L234 133 C219 133 206 144 208 160 L209 167 C211 179 203 188 191 188 L82 188 C70 188 60 179 58 167 L56 156 C46 81 91 5 178 -4 L158 -32 C154 -37 151 -45 151 -48 L147 -77 C146 -85 152 -92 160 -92 L210 -92 Z " />
<glyph glyph-name="Scaron" unicode="&#x160;" horiz-adv-x="530" d="M317 751 C300 751 291 760 287 772 L227 939 C229 951 238 959 250 959 L349 959 C361 959 367 949 370 939 L386 896 L414 939 C421 949 429 959 441 959 L540 959 C552 959 559 951 557 939 L451 772 C443 760 432 751 415 751 L317 751 Z M306 -5 C410 -5 505 75 519 176 L521 192 C562 477 242 376 259 492 L262 517 C265 538 284 555 304 555 L370 555 C389 555 402 538 399 517 L396 491 C394 479 402 470 414 470 L530 470 C542 470 552 479 554 491 L558 524 C572 625 500 705 398 705 L317 705 C213 705 117 625 103 524 L100 503 C62 230 379 307 364 206 L361 183 C358 162 339 145 320 145 L243 145 C224 145 210 162 213 183 L218 215 C219 227 212 236 200 236 L84 236 C72 236 61 227 60 215 L54 176 C40 75 113 -5 215 -5 L306 -5 Z " />
<glyph glyph-name="scaron" unicode="&#x161;" horiz-adv-x="446" d="M353 571 C370 571 381 580 389 592 L495 759 C497 771 490 779 478 779 L379 779 C367 779 359 769 352 759 L324 716 L308 759 C305 769 299 779 287 779 L188 779 C176 779 167 771 165 759 L225 592 C229 580 238 571 255 571 L353 571 Z M309 352 C307 340 315 331 327 331 L436 331 C448 331 458 340 460 352 L461 359 C472 438 421 520 323 520 L269 520 C171 520 103 449 86 369 L85 361 C61 185 291 210 285 167 L283 155 C281 139 265 133 250 133 L234 133 C219 133 206 144 208 160 L209 167 C211 179 203 188 191 188 L82 188 C70 188 60 179 58 167 L56 156 C45 77 97 -5 195 -5 L255 -5 C354 -5 425 65 436 145 L438 159 C462 334 233 306 239 353 L241 364 C243 380 259 386 274 386 L284 386 C299 386 312 375 310 359 L309 352 Z " />
<glyph glyph-name="uni0162" unicode="&#x162;" horiz-adv-x="500" d="M204 0 L302 0 C314 0 317 -10 316 -20 C313 -41 296 -41 296 -41 L242 -41 C234 -41 226 -47 225 -56 L217 -108 C216 -116 222 -123 230 -123 L301 -123 C360 -123 397 -79 404 -34 C406 -17 416 60 339 73 L406 550 L531 550 C543 550 553 559 555 571 L570 679 C572 691 564 700 552 700 L144 700 C132 700 122 691 120 679 L105 571 C103 559 111 550 123 550 L248 550 L173 21 C172 9 180 0 192 0 L204 0 Z " />
<glyph glyph-name="uni0163" unicode="&#x163;" horiz-adv-x="362" d="M210 -92 C210 -92 222 -92 220 -105 C218 -118 206 -118 206 -118 L144 -118 C136 -118 128 -124 127 -133 L120 -180 C119 -188 125 -195 133 -195 L220 -195 C280 -195 301 -168 311 -93 C317 -53 292 -29 260 -23 L277 0 L321 0 C333 0 343 9 344 21 L359 125 C361 137 353 146 341 146 L298 146 C283 146 270 160 272 176 L299 368 L372 368 C384 368 394 377 396 389 L411 494 C413 506 405 515 393 515 L320 515 L343 679 C345 691 337 700 325 700 L209 700 C197 700 187 691 185 679 L162 515 L108 515 C96 515 86 506 84 494 L69 389 C67 377 75 368 87 368 L141 368 L113 170 C103 93 130 34 189 11 L158 -32 C154 -37 151 -45 151 -48 L147 -77 C146 -85 152 -92 160 -92 L210 -92 Z " />
<glyph glyph-name="Tcaron" unicode="&#x164;" horiz-adv-x="500" d="M405 751 C422 751 433 760 441 772 L547 939 C549 951 542 959 530 959 L431 959 C419 959 411 949 404 939 L376 896 L360 939 C357 949 351 959 339 959 L240 959 C228 959 219 951 217 939 L277 772 C281 760 290 751 307 751 L405 751 Z M144 700 C132 700 122 691 120 679 L105 571 C103 559 111 550 123 550 L248 550 L173 21 C172 9 180 0 192 0 L308 0 C320 0 330 9 331 21 L406 550 L531 550 C543 550 553 559 555 571 L570 679 C572 691 564 700 552 700 L144 700 Z " />
<glyph glyph-name="tcaron" unicode="&#x165;" horiz-adv-x="536" d="M530 551 C542 551 551 561 558 571 L621 681 C623 691 616 700 605 700 L497 700 C485 700 475 690 469 681 L406 571 C404 560 412 551 422 551 L530 551 Z M299 368 L372 368 C384 368 394 377 396 389 L411 494 C413 506 405 515 393 515 L320 515 L343 679 C345 691 337 700 325 700 L209 700 C197 700 187 691 185 679 L162 515 L108 515 C96 515 86 506 84 494 L69 389 C67 377 75 368 87 368 L141 368 L113 170 C99 70 152 0 251 0 L321 0 C333 0 343 9 344 21 L359 125 C361 137 353 146 341 146 L298 146 C283 146 270 160 272 176 L299 368 Z " />
<glyph glyph-name="Tbar" unicode="&#x166;" horiz-adv-x="468" d="M405 264 C417 264 427 273 429 285 L442 378 C443 390 436 399 424 399 L369 399 L390 550 L499 550 C511 550 521 559 523 571 L538 679 C540 691 532 700 520 700 L144 700 C132 700 122 691 120 679 L105 571 C103 559 111 550 123 550 L232 550 L211 399 L156 399 C144 399 133 390 132 378 L119 285 C117 273 125 264 137 264 L192 264 L157 21 C156 9 164 0 176 0 L292 0 C304 0 314 9 315 21 L350 264 L405 264 Z " />
<glyph glyph-name="tbar" unicode="&#x167;" horiz-adv-x="362" d="M350 209 C362 209 372 218 374 230 L386 318 C388 330 380 339 368 339 L295 339 L302 385 L375 385 C387 385 397 394 399 406 L411 494 C413 506 405 515 393 515 L320 515 L343 679 C345 691 337 700 325 700 L209 700 C197 700 187 691 185 679 L162 515 L108 515 C96 515 86 506 84 494 L72 406 C70 394 78 385 90 385 L144 385 L137 339 L83 339 C71 339 61 330 59 318 L47 230 C45 218 53 209 65 209 L119 209 L113 170 C99 70 152 0 251 0 L321 0 C333 0 343 9 344 21 L359 125 C361 137 353 146 341 146 L298 146 C283 146 270 160 272 176 L277 209 L350 209 Z " />
<glyph glyph-name="Utilde" unicode="&#x168;" horiz-adv-x="571" d="M459 751 C487 751 525 767 553 783 C563 790 568 800 569 810 L554 896 C554 904 546 911 535 911 C515 911 497 900 480 900 C431 900 399 938 351 938 C323 938 285 922 258 906 C248 899 242 889 241 879 L256 793 C257 785 265 778 276 778 C296 778 313 789 330 789 C378 789 411 751 459 751 L459 751 Z M328 -5 C433 -5 526 75 540 176 L611 679 C613 691 605 700 593 700 L477 700 C465 700 455 691 453 679 L383 183 C380 162 362 145 344 145 L267 145 C249 145 235 162 238 183 L308 679 C310 691 302 700 290 700 L174 700 C162 700 152 691 150 679 L79 176 C65 75 136 -5 241 -5 L328 -5 Z " />
<glyph glyph-name="utilde" unicode="&#x169;" horiz-adv-x="485" d="M301 172 C298 156 287 142 272 142 L251 142 C236 142 229 156 232 172 L277 494 C279 506 271 515 259 515 L143 515 C131 515 121 506 119 494 L71 156 C60 77 112 -5 210 -5 L273 -5 C371 -5 445 77 456 156 L504 494 C506 506 498 515 486 515 L370 515 C358 515 348 506 346 494 L301 172 Z M376 571 C404 571 442 587 469 603 C479 610 485 620 486 630 L471 716 C470 724 462 731 451 731 C431 731 414 720 397 720 C348 720 347 754 299 754 C271 754 233 738 206 722 C196 715 191 705 189 695 L204 609 C205 601 213 594 224 594 C244 594 262 605 279 605 C327 605 328 571 376 571 L376 571 Z " />
<glyph glyph-name="Umacron" unicode="&#x16a;" horiz-adv-x="571" d="M524 751 C536 751 546 760 548 772 L563 880 C565 892 557 901 545 901 L278 901 C266 901 256 892 254 880 L239 772 C237 760 245 751 257 751 L524 751 Z M328 -5 C433 -5 526 75 540 176 L611 679 C613 691 605 700 593 700 L477 700 C465 700 455 691 453 679 L383 183 C380 162 362 145 344 145 L267 145 C249 145 235 162 238 183 L308 679 C310 691 302 700 290 700 L174 700 C162 700 152 691 150 679 L79 176 C65 75 136 -5 241 -5 L328 -5 Z " />
<glyph glyph-name="umacron" unicode="&#x16b;" horiz-adv-x="485" d="M457 571 C469 571 479 580 481 592 L496 700 C498 712 490 721 478 721 L211 721 C199 721 189 712 187 700 L172 592 C170 580 178 571 190 571 L457 571 Z M301 172 C298 156 287 142 272 142 L251 142 C236 142 229 156 232 172 L277 494 C279 506 271 515 259 515 L143 515 C131 515 121 506 119 494 L71 156 C60 77 112 -5 210 -5 L273 -5 C371 -5 445 77 456 156 L504 494 C506 506 498 515 486 515 L370 515 C358 515 348 506 346 494 L301 172 Z " />
<glyph glyph-name="Ubreve" unicode="&#x16c;" horiz-adv-x="571" d="M390 751 C491 751 566 800 594 909 C596 919 590 926 580 926 L488 926 C478 926 469 919 463 909 C451 875 431 870 407 870 C383 870 363 875 361 909 C359 919 352 926 342 926 L250 926 C240 926 232 919 230 909 C228 800 289 751 390 751 L390 751 Z M328 -5 C433 -5 526 75 540 176 L611 679 C613 691 605 700 593 700 L477 700 C465 700 455 691 453 679 L383 183 C380 162 362 145 344 145 L267 145 C249 145 235 162 238 183 L308 679 C310 691 302 700 290 700 L174 700 C162 700 152 691 150 679 L79 176 C65 75 136 -5 241 -5 L328 -5 Z " />
<glyph glyph-name="ubreve" unicode="&#x16d;" horiz-adv-x="485" d="M323 571 C424 571 499 620 527 729 C528 739 522 746 512 746 L420 746 C410 746 401 739 396 729 C384 695 363 690 339 690 C315 690 296 695 294 729 C291 739 284 746 274 746 L182 746 C172 746 164 739 163 729 C161 620 222 571 323 571 L323 571 Z M301 172 C298 156 287 142 272 142 L251 142 C236 142 229 156 232 172 L277 494 C279 506 271 515 259 515 L143 515 C131 515 121 506 119 494 L71 156 C60 77 112 -5 210 -5 L273 -5 C371 -5 445 77 456 156 L504 494 C506 506 498 515 486 515 L370 515 C358 515 348 506 346 494 L301 172 Z " />
<glyph glyph-name="Uring" unicode="&#x16e;" horiz-adv-x="571" d="M425 1002 C348 1002 275 939 264 860 C254 783 309 719 386 719 C466 719 538 783 548 860 C559 939 505 1002 425 1002 L425 1002 Z M400 819 C378 819 361 838 364 860 C368 883 389 902 411 902 C434 902 451 883 447 860 C444 838 423 819 400 819 L400 819 Z M328 -5 C433 -5 526 75 540 176 L611 679 C613 691 605 700 593 700 L477 700 C465 700 455 691 453 679 L383 183 C380 162 362 145 344 145 L267 145 C249 145 235 162 238 183 L308 679 C310 691 302 700 290 700 L174 700 C162 700 152 691 150 679 L79 176 C65 75 136 -5 241 -5 L328 -5 Z " />
<glyph glyph-name="uring" unicode="&#x16f;" horiz-adv-x="485" d="M363 854 C286 854 213 791 202 712 C191 635 246 571 323 571 C403 571 475 635 486 712 C497 791 443 854 363 854 L363 854 Z M337 671 C315 671 298 690 302 712 C305 735 326 754 348 754 C371 754 388 735 385 712 C381 690 360 671 337 671 L337 671 Z M301 172 C298 156 287 142 272 142 L251 142 C236 142 229 156 232 172 L277 494 C279 506 271 515 259 515 L143 515 C131 515 121 506 119 494 L71 156 C60 77 112 -5 210 -5 L273 -5 C371 -5 445 77 456 156 L504 494 C506 506 498 515 486 515 L370 515 C358 515 348 506 346 494 L301 172 Z " />
<glyph glyph-name="Uhungarumlaut" unicode="&#x170;" horiz-adv-x="571" d="M352 751 C364 751 373 761 380 771 L444 902 C446 912 439 921 428 921 L323 921 C311 921 302 911 295 902 L231 771 C229 760 237 751 247 751 L352 751 Z M525 751 C537 751 546 761 553 771 L617 902 C619 912 612 921 601 921 L496 921 C484 921 475 911 468 902 L404 771 C402 760 410 751 420 751 L525 751 Z M328 -5 C433 -5 526 75 540 176 L611 679 C613 691 605 700 593 700 L477 700 C465 700 455 691 453 679 L383 183 C380 162 362 145 344 145 L267 145 C249 145 235 162 238 183 L308 679 C310 691 302 700 290 700 L174 700 C162 700 152 691 150 679 L79 176 C65 75 136 -5 241 -5 L328 -5 Z " />
<glyph glyph-name="uhungarumlaut" unicode="&#x171;" horiz-adv-x="485" d="M269 571 C281 571 290 581 297 591 L361 722 C362 732 356 741 345 741 L240 741 C228 741 218 731 212 722 L148 591 C146 580 154 571 164 571 L269 571 Z M442 571 C454 571 463 581 470 591 L534 722 C535 732 529 741 518 741 L413 741 C401 741 391 731 385 722 L321 591 C319 580 327 571 337 571 L442 571 Z M301 172 C298 156 287 142 272 142 L251 142 C236 142 229 156 232 172 L277 494 C279 506 271 515 259 515 L143 515 C131 515 121 506 119 494 L71 156 C60 77 112 -5 210 -5 L273 -5 C371 -5 445 77 456 156 L504 494 C506 506 498 515 486 515 L370 515 C358 515 348 506 346 494 L301 172 Z " />
<glyph glyph-name="Uogonek" unicode="&#x172;" horiz-adv-x="571" d="M269 -92 C269 -92 281 -92 279 -105 C277 -118 265 -118 265 -118 L203 -118 C195 -118 187 -124 186 -133 L179 -180 C178 -188 184 -195 192 -195 L279 -195 C339 -195 360 -168 370 -93 C376 -53 351 -29 319 -23 L332 -5 C435 -3 526 76 540 176 L611 679 C613 691 605 700 593 700 L477 700 C465 700 455 691 453 679 L383 183 C380 162 362 145 344 145 L267 145 C249 145 235 162 238 183 L308 679 C310 691 302 700 290 700 L174 700 C162 700 152 691 150 679 L79 176 C65 76 133 -3 236 -5 L217 -32 C213 -37 210 -45 210 -48 L206 -77 C205 -85 211 -92 219 -92 L269 -92 Z " />
<glyph glyph-name="uogonek" unicode="&#x173;" horiz-adv-x="485" d="M301 172 C298 156 287 142 272 142 L251 142 C236 142 229 156 232 172 L277 494 C279 506 271 515 259 515 L143 515 C131 515 121 506 119 494 L71 156 C61 81 106 5 193 -4 L190 -23 C156 -29 125 -53 119 -93 C109 -168 122 -195 182 -195 L257 -195 C265 -195 273 -188 274 -180 L281 -133 C282 -124 276 -118 268 -118 L218 -118 C218 -118 206 -118 208 -105 C210 -92 222 -92 222 -92 L262 -92 C270 -92 278 -85 279 -77 L289 -4 C379 4 446 81 456 156 L504 494 C506 506 498 515 486 515 L370 515 C358 515 348 506 346 494 L301 172 Z " />
<glyph glyph-name="Ydieresis" unicode="&#x178;" horiz-adv-x="570" d="M226 772 C224 760 232 751 244 751 L344 751 C356 751 366 760 368 772 L382 875 C384 887 376 896 364 896 L264 896 C252 896 242 887 240 875 L226 772 Z M420 772 C418 760 426 751 438 751 L538 751 C550 751 560 760 562 772 L576 875 C578 887 570 896 558 896 L458 896 C446 896 436 887 434 875 L420 772 Z M337 422 L268 679 C264 690 260 700 248 700 L129 700 C117 700 107 691 105 679 L237 227 L208 21 C207 9 215 0 227 0 L343 0 C355 0 365 9 366 21 L395 227 L655 679 C657 691 649 700 637 700 L518 700 C506 700 498 690 492 679 L351 422 L337 422 Z " />
<glyph glyph-name="Zacute" unicode="&#x179;" horiz-adv-x="502" d="M417 751 C429 751 438 761 445 771 L521 904 C522 914 515 923 504 923 L396 923 C384 923 375 913 369 904 L293 771 C291 760 299 751 309 751 L417 751 Z M255 150 L544 597 C547 602 553 612 553 617 L562 679 C564 691 556 700 544 700 L154 700 C142 700 132 691 130 679 L115 571 C113 559 121 550 133 550 L343 550 L55 103 C52 98 47 88 46 83 L37 21 C36 9 44 0 56 0 L446 0 C458 0 468 9 469 21 L485 129 C486 141 479 150 467 150 L255 150 Z " />
<glyph glyph-name="zacute" unicode="&#x17a;" horiz-adv-x="417" d="M351 571 C363 571 372 581 379 591 L454 724 C456 734 449 743 438 743 L330 743 C318 743 309 733 302 724 L227 591 C225 580 233 571 243 571 L351 571 Z M247 148 L435 399 C441 408 445 414 446 422 L456 494 C458 506 450 515 438 515 L123 515 C111 515 101 506 99 494 L84 388 C82 376 90 367 102 367 L241 367 L54 116 C48 107 44 101 43 93 L32 21 C31 9 39 0 51 0 L366 0 C378 0 388 9 389 21 L404 127 C406 139 398 148 386 148 L247 148 Z " />
<glyph glyph-name="Zdotaccent" unicode="&#x17b;" horiz-adv-x="502" d="M293 772 C291 760 299 751 311 751 L411 751 C423 751 433 760 435 772 L449 875 C451 887 443 896 431 896 L331 896 C319 896 309 887 307 875 L293 772 Z M255 150 L544 597 C547 602 553 612 553 617 L562 679 C564 691 556 700 544 700 L154 700 C142 700 132 691 130 679 L115 571 C113 559 121 550 133 550 L343 550 L55 103 C52 98 47 88 46 83 L37 21 C36 9 44 0 56 0 L446 0 C458 0 468 9 469 21 L485 129 C486 141 479 150 467 150 L255 150 Z " />
<glyph glyph-name="zdotaccent" unicode="&#x17c;" horiz-adv-x="417" d="M231 592 C229 580 237 571 249 571 L349 571 C361 571 371 580 373 592 L387 695 C389 707 381 716 369 716 L269 716 C257 716 247 707 245 695 L231 592 Z M247 148 L435 399 C441 408 445 414 446 422 L456 494 C458 506 450 515 438 515 L123 515 C111 515 101 506 99 494 L84 388 C82 376 90 367 102 367 L241 367 L54 116 C48 107 44 101 43 93 L32 21 C31 9 39 0 51 0 L366 0 C378 0 388 9 389 21 L404 127 C406 139 398 148 386 148 L247 148 Z " />
<glyph glyph-name="Zcaron" unicode="&#x17d;" horiz-adv-x="502" d="M411 751 C428 751 439 760 447 772 L553 939 C555 951 548 959 536 959 L437 959 C425 959 417 949 410 939 L382 896 L366 939 C363 949 357 959 345 959 L246 959 C234 959 225 951 223 939 L283 772 C287 760 296 751 313 751 L411 751 Z M255 150 L544 597 C547 602 553 612 553 617 L562 679 C564 691 556 700 544 700 L154 700 C142 700 132 691 130 679 L115 571 C113 559 121 550 133 550 L343 550 L55 103 C52 98 47 88 46 83 L37 21 C36 9 44 0 56 0 L446 0 C458 0 468 9 469 21 L485 129 C486 141 479 150 467 150 L255 150 Z " />
<glyph glyph-name="zcaron" unicode="&#x17e;" horiz-adv-x="417" d="M340 571 C357 571 368 580 376 592 L482 759 C484 771 477 779 465 779 L366 779 C354 779 346 769 339 759 L311 716 L295 759 C292 769 286 779 274 779 L175 779 C163 779 154 771 152 759 L212 592 C216 580 225 571 242 571 L340 571 Z M247 148 L435 399 C441 408 445 414 446 422 L456 494 C458 506 450 515 438 515 L123 515 C111 515 101 506 99 494 L84 388 C82 376 90 367 102 367 L241 367 L54 116 C48 107 44 101 43 93 L32 21 C31 9 39 0 51 0 L366 0 C378 0 388 9 389 21 L404 127 C406 139 398 148 386 148 L247 148 Z " />
<glyph glyph-name="florin" unicode="&#x192;" horiz-adv-x="358" d="M429 554 C441 554 452 563 453 575 L468 679 C470 691 462 700 450 700 L387 700 C289 700 233 618 205 542 L182 483 L110 483 C98 483 88 474 86 462 L72 356 C70 344 78 335 90 335 L124 335 L-71 -153 C-73 -165 -65 -174 -53 -174 L60 -174 C72 -174 79 -164 86 -153 C116 -75 154 17 187 99 L283 335 L362 335 C374 335 384 344 386 356 L400 462 C402 474 394 483 382 483 L341 483 L359 531 C363 541 370 554 382 554 L429 554 Z " />
<glyph glyph-name="uni0218" unicode="&#x218;" horiz-adv-x="530" d="M236 -223 C248 -223 258 -213 264 -203 L323 -72 C325 -62 318 -53 307 -53 L199 -53 C187 -53 178 -63 171 -72 L112 -203 C110 -214 118 -223 128 -223 L236 -223 Z M306 -5 C410 -5 505 75 519 176 L521 192 C562 477 242 376 259 492 L262 517 C265 538 284 555 304 555 L370 555 C389 555 402 538 399 517 L396 491 C394 479 402 470 414 470 L530 470 C542 470 552 479 554 491 L558 524 C572 625 500 705 398 705 L317 705 C213 705 117 625 103 524 L100 503 C62 230 379 307 364 206 L361 183 C358 162 339 145 320 145 L243 145 C224 145 210 162 213 183 L218 215 C219 227 212 236 200 236 L84 236 C72 236 61 227 60 215 L54 176 C40 75 113 -5 215 -5 L306 -5 Z " />
<glyph glyph-name="uni0219" unicode="&#x219;" horiz-adv-x="446" d="M202 -223 C214 -223 224 -213 230 -203 L289 -72 C291 -62 284 -53 273 -53 L165 -53 C153 -53 144 -63 137 -72 L78 -203 C76 -214 84 -223 94 -223 L202 -223 Z M309 352 C307 340 315 331 327 331 L436 331 C448 331 458 340 460 352 L461 359 C472 438 421 520 323 520 L269 520 C171 520 103 449 86 369 L85 361 C61 185 291 210 285 167 L283 155 C281 139 265 133 250 133 L234 133 C219 133 206 144 208 160 L209 167 C211 179 203 188 191 188 L82 188 C70 188 60 179 58 167 L56 156 C45 77 97 -5 195 -5 L255 -5 C354 -5 425 65 436 145 L438 159 C462 334 233 306 239 353 L241 364 C243 380 259 386 274 386 L284 386 C299 386 312 375 310 359 L309 352 Z " />
<glyph glyph-name="uni021A" unicode="&#x21a;" horiz-adv-x="500" d="M227 -223 C239 -223 249 -213 255 -203 L314 -72 C316 -62 309 -53 298 -53 L190 -53 C178 -53 169 -63 162 -72 L103 -203 C101 -214 109 -223 119 -223 L227 -223 Z M144 700 C132 700 122 691 120 679 L105 571 C103 559 111 550 123 550 L248 550 L173 21 C172 9 180 0 192 0 L308 0 C320 0 330 9 331 21 L406 550 L531 550 C543 550 553 559 555 571 L570 679 C572 691 564 700 552 700 L144 700 Z " />
<glyph glyph-name="uni021B" unicode="&#x21b;" horiz-adv-x="362" d="M212 -223 C224 -223 234 -213 240 -203 L299 -72 C301 -62 294 -53 283 -53 L175 -53 C163 -53 154 -63 147 -72 L88 -203 C86 -214 94 -223 104 -223 L212 -223 Z M299 368 L372 368 C384 368 394 377 396 389 L411 494 C413 506 405 515 393 515 L320 515 L343 679 C345 691 337 700 325 700 L209 700 C197 700 187 691 185 679 L162 515 L108 515 C96 515 86 506 84 494 L69 389 C67 377 75 368 87 368 L141 368 L113 170 C99 70 152 0 251 0 L321 0 C333 0 343 9 344 21 L359 125 C361 137 353 146 341 146 L298 146 C283 146 270 160 272 176 L299 368 Z " />
<glyph glyph-name="circumflex" unicode="&#x2c6;" horiz-adv-x="450" d="M274 700 C257 700 246 691 238 679 L131 512 C130 500 137 492 149 492 L248 492 C260 492 268 502 274 512 L303 555 L318 512 C322 502 328 492 340 492 L439 492 C451 492 460 500 461 512 L402 679 C398 691 389 700 372 700 L274 700 Z " />
<glyph glyph-name="caron" unicode="&#x2c7;" horiz-adv-x="450" d="M343 492 C360 492 371 501 379 513 L485 680 C487 692 480 700 468 700 L369 700 C357 700 348 690 342 680 L314 637 L298 680 C294 690 289 700 277 700 L178 700 C166 700 157 692 155 680 L215 513 C219 501 228 492 245 492 L343 492 Z " />
<glyph glyph-name="breve" unicode="&#x2d8;" horiz-adv-x="464" d="M305 525 C406 525 471 574 499 683 C501 693 495 700 485 700 L393 700 C383 700 374 693 368 683 C357 649 346 644 322 644 C298 644 289 649 286 683 C284 693 277 700 267 700 L175 700 C165 700 157 693 155 683 C153 574 204 525 305 525 L305 525 Z " />
<glyph glyph-name="dotaccent" unicode="&#x2d9;" horiz-adv-x="278" d="M138 561 C137 549 144 540 156 540 L272 540 C284 540 295 549 296 561 L313 679 C315 691 307 700 295 700 L179 700 C167 700 157 691 155 679 L138 561 Z " />
<glyph glyph-name="ring" unicode="&#x2da;" horiz-adv-x="404" d="M306 751 C229 751 156 688 145 609 C134 532 189 468 266 468 C346 468 418 532 429 609 C440 688 386 751 306 751 L306 751 Z M280 568 C258 568 242 587 245 609 C248 632 270 651 292 651 C315 651 331 632 328 609 C325 587 303 568 280 568 L280 568 Z " />
<glyph glyph-name="ogonek" unicode="&#x2db;" horiz-adv-x="287" d="M143 27 C132 27 123 19 122 8 L117 -23 C83 -29 52 -53 46 -93 C36 -168 49 -195 109 -195 L184 -195 C192 -195 200 -188 201 -180 L208 -133 C209 -124 203 -118 195 -118 L145 -118 C145 -118 133 -118 135 -105 C137 -92 149 -92 149 -92 L189 -92 C197 -92 205 -85 206 -77 L218 8 C219 19 212 27 201 27 L143 27 Z " />
<glyph glyph-name="tilde" unicode="&#x2dc;" horiz-adv-x="426" d="M336 517 C364 517 402 533 430 549 C440 556 445 566 446 576 L432 662 C431 670 423 677 412 677 C392 677 374 666 357 666 C308 666 308 700 260 700 C232 700 194 684 166 668 C156 661 151 651 150 641 L165 555 C165 547 173 540 184 540 C204 540 222 551 239 551 C287 551 288 517 336 517 L336 517 Z " />
<glyph glyph-name="hungarumlaut" unicode="&#x2dd;" horiz-adv-x="488" d="M258 530 C270 530 279 540 286 550 L350 681 C352 691 345 700 334 700 L229 700 C217 700 207 690 201 681 L137 550 C135 539 143 530 153 530 L258 530 Z M431 530 C443 530 452 540 459 550 L523 681 C525 691 518 700 507 700 L402 700 C390 700 380 690 374 681 L310 550 C308 539 316 530 326 530 L431 530 Z " />
<glyph glyph-name="uni03A9" unicode="&#x3a9;" horiz-adv-x="692" d="M488 705 L403 705 C298 705 203 625 189 524 L144 204 C143 193 141 170 145 150 L102 150 C90 150 79 141 78 129 L62 21 C61 9 69 0 81 0 L292 0 C304 0 314 9 315 21 L329 118 C331 129 326 144 315 150 C303 157 301 189 303 203 L347 517 C350 538 369 555 387 555 L461 555 C479 555 492 538 489 517 L445 203 C443 189 433 157 419 150 C406 144 397 129 395 118 L381 21 C380 9 388 0 400 0 L611 0 C623 0 633 9 634 21 L650 129 C651 141 644 150 632 150 L589 150 C597 170 603 193 604 204 L649 524 C663 625 592 705 488 705 L488 705 Z " />
<glyph glyph-name="pi" unicode="&#x3c0;" horiz-adv-x="714" d="M153 515 C141 515 131 506 129 494 L114 386 C112 374 120 365 132 365 L214 365 L165 21 C164 9 172 0 184 0 L300 0 C312 0 322 9 323 21 L372 365 L444 365 L395 21 C394 9 402 0 414 0 L530 0 C542 0 552 9 553 21 L602 365 L684 365 C696 365 706 374 708 386 L723 494 C725 506 717 515 705 515 L153 515 Z " />
<glyph glyph-name="ZWSP" unicode="&#x200b;" d="" />
<glyph glyph-name="endash" unicode="&#x2013;" horiz-adv-x="397" d="M340 176 C352 176 363 185 364 197 L379 305 C381 317 373 326 361 326 L126 326 C114 326 104 317 102 305 L87 197 C86 185 93 176 105 176 L340 176 Z " />
<glyph glyph-name="emdash" unicode="&#x2014;" horiz-adv-x="469" d="M412 176 C424 176 435 185 436 197 L451 305 C453 317 445 326 433 326 L126 326 C114 326 104 317 102 305 L87 197 C86 185 93 176 105 176 L412 176 Z " />
<glyph glyph-name="quoteleft" unicode="&#x2018;" horiz-adv-x="317" d="M253 499 C265 499 274 509 280 519 L352 681 C354 691 347 700 336 700 L232 700 C220 700 210 690 204 681 L132 519 C131 508 139 499 149 499 L253 499 Z " />
<glyph glyph-name="quoteright" unicode="&#x2019;" horiz-adv-x="317" d="M232 700 C220 700 210 690 204 680 L132 518 C131 508 138 499 149 499 L253 499 C265 499 274 509 280 518 L352 680 C354 691 346 700 336 700 L232 700 Z " />
<glyph glyph-name="quotesinglbase" unicode="&#x201a;" horiz-adv-x="317" d="M171 -81 C183 -81 193 -71 199 -61 L271 101 C272 111 265 120 254 120 L150 120 C138 120 129 110 123 101 L51 -61 C49 -72 57 -81 67 -81 L171 -81 Z " />
<glyph glyph-name="quotedblleft" unicode="&#x201c;" horiz-adv-x="509" d="M253 499 C265 499 274 509 280 519 L352 681 C354 691 347 700 336 700 L232 700 C220 700 210 690 204 681 L132 519 C131 508 139 499 149 499 L253 499 Z M445 499 C457 499 466 509 472 519 L544 681 C546 691 539 700 528 700 L424 700 C412 700 402 690 396 681 L324 519 C323 508 331 499 341 499 L445 499 Z " />
<glyph glyph-name="quotedblright" unicode="&#x201d;" horiz-adv-x="509" d="M424 700 C412 700 402 690 396 680 L324 518 C323 508 330 499 341 499 L445 499 C457 499 466 509 472 518 L544 680 C546 691 538 700 528 700 L424 700 Z M232 700 C220 700 210 690 204 680 L132 518 C131 508 138 499 149 499 L253 499 C265 499 274 509 280 518 L352 680 C354 691 346 700 336 700 L232 700 Z " />
<glyph glyph-name="quotedblbase" unicode="&#x201e;" horiz-adv-x="509" d="M342 120 C330 120 321 110 315 100 L243 -62 C241 -72 248 -81 259 -81 L363 -81 C375 -81 385 -71 391 -62 L463 100 C464 111 456 120 446 120 L342 120 Z M150 120 C138 120 129 110 123 100 L51 -62 C49 -72 56 -81 67 -81 L171 -81 C183 -81 193 -71 199 -62 L271 100 C272 111 264 120 254 120 L150 120 Z " />
<glyph glyph-name="dagger" unicode="&#x2020;" horiz-adv-x="464" d="M158 553 C146 553 136 544 134 532 L119 424 C117 412 125 403 137 403 L209 403 L118 -247 C116 -259 124 -268 136 -268 L252 -268 C264 -268 274 -259 276 -247 L367 403 L439 403 C451 403 461 412 463 424 L478 532 C480 544 472 553 460 553 L388 553 L406 679 C408 691 400 700 388 700 L272 700 C260 700 250 691 248 679 L230 553 L158 553 Z " />
<glyph glyph-name="daggerdbl" unicode="&#x2021;" horiz-adv-x="464" d="M85 33 C73 33 63 24 61 12 L46 -96 C44 -108 52 -117 64 -117 L136 -117 L118 -247 C116 -259 124 -268 136 -268 L252 -268 C264 -268 274 -259 276 -247 L294 -117 L366 -117 C378 -117 388 -108 390 -96 L405 12 C407 24 399 33 387 33 L315 33 L367 403 L439 403 C451 403 461 412 463 424 L478 532 C480 544 472 553 460 553 L388 553 L406 679 C408 691 400 700 388 700 L272 700 C260 700 250 691 248 679 L230 553 L158 553 C146 553 136 544 134 532 L119 424 C117 412 125 403 137 403 L209 403 L157 33 L85 33 Z " />
<glyph glyph-name="bullet" unicode="&#x2022;" horiz-adv-x="278" d="M84 172 C82 160 90 151 102 151 L218 151 C230 151 240 160 242 172 L258 290 C260 302 252 311 240 311 L124 311 C112 311 102 302 100 290 L84 172 Z " />
<glyph glyph-name="ellipsis" unicode="&#x2026;" horiz-adv-x="948" d="M62 16 C60 4 68 -5 80 -5 L196 -5 C208 -5 218 4 220 16 L236 134 C238 146 230 155 218 155 L102 155 C90 155 80 146 78 134 L62 16 Z M397 16 C395 4 403 -5 415 -5 L531 -5 C543 -5 553 4 555 16 L571 134 C573 146 565 155 553 155 L437 155 C425 155 415 146 413 134 L397 16 Z M732 16 C730 4 738 -5 750 -5 L866 -5 C878 -5 888 4 890 16 L906 134 C908 146 900 155 888 155 L772 155 C760 155 750 146 748 134 L732 16 Z " />
<glyph glyph-name="perthousand" unicode="&#x2030;" horiz-adv-x="1096" d="M299 700 C222 700 149 637 138 558 C127 481 182 417 259 417 C339 417 411 481 422 558 C433 637 379 700 299 700 L299 700 Z M273 517 C251 517 235 536 238 558 C241 581 263 600 285 600 C308 600 324 581 321 558 C318 536 296 517 273 517 L273 517 Z M707 679 C709 691 701 700 689 700 L570 700 C558 700 550 690 544 679 L163 21 C162 9 170 0 182 0 L301 0 C313 0 320 10 326 21 L707 679 Z M612 283 C535 283 462 220 451 141 C440 64 496 0 573 0 C653 0 724 64 735 141 C746 220 692 283 612 283 L612 283 Z M587 100 C565 100 548 119 551 141 C555 164 576 183 598 183 C621 183 638 164 634 141 C631 119 610 100 587 100 L587 100 Z M932 283 C855 283 782 220 771 141 C760 64 816 0 893 0 C973 0 1044 64 1055 141 C1066 220 1012 283 932 283 L932 283 Z M907 100 C885 100 868 119 871 141 C875 164 896 183 918 183 C941 183 958 164 954 141 C951 119 930 100 907 100 L907 100 Z " />
<glyph glyph-name="guilsinglleft" unicode="&#x2039;" horiz-adv-x="388" d="M82 162 C81 152 87 146 98 142 L318 61 C328 61 337 68 339 79 L352 176 C354 187 347 195 337 198 L233 233 L235 246 L349 281 C359 284 369 292 370 303 L384 400 C385 411 378 418 368 418 L126 336 C113 332 105 326 104 316 L82 162 Z " />
<glyph glyph-name="guilsinglright" unicode="&#x203a;" horiz-adv-x="388" d="M372 316 C373 326 367 332 356 336 L136 418 C126 418 117 411 116 400 L102 303 C101 292 107 284 117 281 L221 246 L219 233 L105 198 C95 195 86 187 84 176 L71 79 C69 68 76 61 86 61 L328 142 C341 146 349 152 350 162 L372 316 Z " />
<glyph glyph-name="fraction" unicode="&#x2044;" horiz-adv-x="584" d="M38 -153 C36 -165 44 -174 56 -174 L175 -174 C187 -174 196 -164 202 -153 L634 783 C635 795 627 804 615 804 L496 804 C484 804 475 794 470 783 L38 -153 Z " />
<glyph glyph-name="Euro" unicode="&#x20ac;" horiz-adv-x="638" d="M366 203 C378 203 388 212 390 224 L401 305 C403 317 395 326 383 326 L320 326 L327 373 L390 373 C402 373 412 382 414 394 L425 475 C427 487 419 496 407 496 L344 496 L347 517 C350 538 369 555 387 555 L464 555 C483 555 495 538 492 517 L487 479 C485 467 493 458 505 458 L621 458 C633 458 643 467 645 479 L651 524 C665 625 594 705 489 705 L404 705 C299 705 204 625 190 524 L186 496 L150 496 C138 496 128 487 126 475 L115 394 C113 382 121 373 133 373 L169 373 L162 326 L126 326 C114 326 104 317 102 305 L91 224 C89 212 97 203 109 203 L145 203 L141 176 C127 75 199 -5 304 -5 L389 -5 C494 -5 588 75 602 176 L609 221 C610 233 603 242 591 242 L475 242 C463 242 452 233 451 221 L445 183 C442 162 425 145 406 145 L329 145 C311 145 297 162 300 183 L303 203 L366 203 Z " />
<glyph glyph-name="Numero" unicode="&#x2116;" horiz-adv-x="1083" d="M949 0 C961 0 971 9 972 21 L986 116 C987 128 980 137 968 137 L732 137 C720 137 709 128 708 116 L694 21 C693 9 701 0 713 0 L949 0 Z M897 700 C799 700 724 618 713 538 L685 336 C674 257 725 175 823 175 L886 175 C985 175 1059 257 1070 336 L1098 538 C1109 618 1059 700 960 700 L897 700 Z M869 523 C871 539 882 553 897 553 L918 553 C933 553 940 539 938 523 L914 352 C912 336 901 322 886 322 L865 322 C850 322 843 336 845 352 L869 523 Z M431 355 L349 678 C345 689 340 699 328 699 L179 699 C167 699 156 690 155 678 L62 21 C61 9 69 0 81 0 L197 0 C209 0 219 9 220 21 L266 345 L275 345 L357 21 C360 10 367 0 379 0 L528 0 C540 0 550 9 551 21 L644 678 C645 690 638 699 626 699 L510 699 C498 699 487 690 486 678 L440 355 L431 355 Z " />
<glyph glyph-name="trademark" unicode="&#x2122;" horiz-adv-x="701" d="M171 700 C164 700 157 694 156 687 L146 619 C146 612 151 606 158 606 L204 606 L174 396 C173 389 178 383 185 383 L263 383 C270 383 277 389 278 396 L308 606 L353 606 C360 606 367 612 367 619 L377 687 C378 694 373 700 366 700 L171 700 Z M545 417 C551 417 555 418 560 426 L606 493 L592 396 C591 389 596 383 603 383 L681 383 C688 383 695 389 696 396 L737 687 C738 694 733 700 726 700 L648 700 C643 700 637 697 635 692 L556 560 L551 560 L510 692 C508 697 504 700 499 700 L421 700 C414 700 407 694 406 687 L365 396 C364 389 369 383 376 383 L454 383 C461 383 468 389 469 396 L483 493 L509 426 C512 418 516 417 522 417 L545 417 Z " />
<glyph glyph-name="Omega" unicode="&#x2126;" horiz-adv-x="692" d="M488 705 L403 705 C298 705 203 625 189 524 L144 204 C143 193 141 170 145 150 L102 150 C90 150 79 141 78 129 L62 21 C61 9 69 0 81 0 L292 0 C304 0 314 9 315 21 L329 118 C331 129 326 144 315 150 C303 157 301 189 303 203 L347 517 C350 538 369 555 387 555 L461 555 C479 555 492 538 489 517 L445 203 C443 189 433 157 419 150 C406 144 397 129 395 118 L381 21 C380 9 388 0 400 0 L611 0 C623 0 633 9 634 21 L650 129 C651 141 644 150 632 150 L589 150 C597 170 603 193 604 204 L649 524 C663 625 592 705 488 705 L488 705 Z " />
<glyph glyph-name="partialdiff" unicode="&#x2202;" horiz-adv-x="520" d="M536 543 C547 623 496 705 398 705 L334 705 C234 705 161 623 150 543 L145 510 C143 498 151 489 163 489 L279 489 C291 489 301 498 303 510 L306 528 C308 544 325 558 340 558 L350 558 C365 558 378 544 376 528 L359 407 L351 407 C333 433 311 443 290 443 L259 443 C163 443 112 373 99 281 L82 157 C69 65 100 -5 196 -5 L227 -5 C248 -5 273 5 298 31 L306 31 L304 21 C303 9 311 0 323 0 L439 0 C451 0 461 9 462 21 L536 543 Z M254 266 C256 282 273 296 288 296 L313 296 C328 296 341 282 339 266 L326 172 C323 156 306 142 291 142 L266 142 C251 142 238 156 241 172 L254 266 Z " />
<glyph glyph-name="Delta" unicode="&#x2206;" horiz-adv-x="832" d="M578 150 L296 150 L486 499 L578 150 Z M751 0 C763 0 773 9 774 21 L602 679 C598 690 590 700 578 700 L450 700 C438 700 426 690 420 679 L62 21 C61 9 69 0 81 0 L751 0 Z " />
<glyph glyph-name="product" unicode="&#x220f;" horiz-adv-x="714" d="M179 700 C167 700 157 691 155 679 L140 571 C138 559 146 550 158 550 L240 550 L165 21 C164 9 172 0 184 0 L300 0 C312 0 322 9 323 21 L398 550 L470 550 L395 21 C394 9 402 0 414 0 L530 0 C542 0 552 9 553 21 L628 550 L710 550 C722 550 732 559 734 571 L749 679 C751 691 743 700 731 700 L179 700 Z " />
<glyph glyph-name="summation" unicode="&#x2211;" horiz-adv-x="515" d="M257 150 L386 329 L392 371 L313 550 L511 550 C523 550 533 559 535 571 L550 679 C552 691 544 700 532 700 L179 700 C167 700 157 691 155 679 L139 564 L232 361 L229 339 L79 136 L62 21 C61 9 69 0 81 0 L434 0 C446 0 456 9 457 21 L473 129 C474 141 467 150 455 150 L257 150 Z " />
<glyph glyph-name="minus" unicode="&#x2212;" horiz-adv-x="397" d="M340 176 C352 176 363 185 364 197 L379 305 C381 317 373 326 361 326 L126 326 C114 326 104 317 102 305 L87 197 C86 185 93 176 105 176 L340 176 Z " />
<glyph glyph-name="radical" unicode="&#x221a;" horiz-adv-x="700" d="M697 561 C709 561 720 570 721 582 L735 679 C737 691 729 700 717 700 L477 700 C465 700 456 691 451 679 L285 205 L275 205 L276 381 C275 393 268 402 256 402 L137 402 C125 402 115 393 113 381 L155 21 C157 9 166 0 178 0 L326 0 C338 0 349 9 353 21 L567 561 L697 561 Z " />
<glyph glyph-name="infinity" unicode="&#x221e;" horiz-adv-x="855" d="M371 322 C382 322 390 313 389 301 L379 233 C378 223 367 214 356 214 L269 214 C258 214 249 223 250 233 L260 301 C261 313 273 322 284 322 L371 322 Z M441 102 C462 75 498 64 528 64 L642 64 C742 64 815 148 827 228 L838 306 C849 388 800 472 700 472 L586 472 C554 472 516 462 487 433 C466 462 432 472 400 472 L287 472 C187 472 114 388 103 306 L92 228 C80 148 129 64 229 64 L342 64 C372 64 412 75 441 102 L441 102 Z M661 322 C672 322 680 313 679 301 L669 233 C668 223 657 214 646 214 L558 214 C547 214 538 223 539 233 L549 301 C550 313 562 322 573 322 L661 322 Z " />
<glyph glyph-name="integral" unicode="&#x222b;" horiz-adv-x="448" d="M414 698 C414 698 236 652 214 494 L147 21 C147 21 140 -23 66 -45 C57 -47 52 -56 51 -63 C50 -65 51 -69 52 -71 L80 -177 C81 -186 88 -190 95 -190 C97 -190 103 -189 105 -188 C105 -188 283 -142 305 16 L371 489 C371 489 378 533 453 555 C462 557 467 566 468 573 C468 575 468 579 467 581 L439 687 C437 696 431 700 424 700 C422 700 416 699 414 698 L414 698 Z " />
<glyph glyph-name="approxequal" unicode="&#x2248;" horiz-adv-x="426" d="M271 51 C299 51 337 67 364 83 C374 90 380 100 381 110 L366 196 C365 204 357 211 346 211 C326 211 309 200 292 200 C243 200 242 234 194 234 C166 234 128 218 101 202 C91 195 86 185 84 175 L99 89 C100 81 108 74 119 74 C139 74 156 85 173 85 C221 85 223 51 271 51 L271 51 Z M297 238 C325 238 363 254 390 270 C400 277 406 287 407 297 L392 383 C391 391 383 398 372 398 C352 398 335 387 318 387 C269 387 269 421 221 421 C193 421 154 405 127 389 C117 382 112 372 110 362 L125 276 C126 268 134 261 145 261 C165 261 183 272 200 272 C248 272 249 238 297 238 L297 238 Z " />
<glyph glyph-name="notequal" unicode="&#x2260;" horiz-adv-x="394" d="M349 263 C361 263 372 272 373 284 L386 377 C388 389 380 398 368 398 L363 398 L397 470 C398 482 391 491 379 491 L324 491 C312 491 302 481 297 470 L263 398 L136 398 C124 398 114 389 112 377 L99 284 C98 272 105 263 117 263 L200 263 L180 217 L111 217 C99 217 89 208 87 196 L74 103 C72 91 80 82 92 82 L117 82 L89 21 C88 9 96 0 108 0 L163 0 C175 0 184 10 189 21 L217 82 L324 82 C336 82 346 91 348 103 L361 196 C363 208 355 217 343 217 L280 217 L300 263 L349 263 Z " />
<glyph glyph-name="lessequal" unicode="&#x2264;" horiz-adv-x="388" d="M307 0 C319 0 329 9 330 21 L339 84 C341 96 333 105 321 105 L96 105 C84 105 74 96 72 84 L63 21 C62 9 70 0 82 0 L307 0 Z M92 232 C91 222 97 216 108 212 L328 131 C338 131 347 138 348 149 L361 236 C362 247 355 255 346 258 L242 293 L244 306 L357 341 C368 344 377 352 379 363 L391 450 C392 461 385 468 375 468 L133 386 C120 382 112 376 111 366 L92 232 Z " />
<glyph glyph-name="greaterequal" unicode="&#x2265;" horiz-adv-x="388" d="M306 0 C318 0 328 9 329 21 L338 84 C340 96 332 105 320 105 L95 105 C83 105 73 96 71 84 L62 21 C61 9 69 0 81 0 L306 0 Z M379 366 C380 376 374 382 363 386 L143 468 C133 468 124 461 123 450 L111 363 C109 352 116 344 125 341 L230 306 L228 293 L114 258 C103 255 94 247 93 236 L80 149 C79 138 86 131 96 131 L338 212 C351 216 359 222 360 232 L379 366 Z " />
<glyph glyph-name="lozenge" unicode="&#x25ca;" horiz-adv-x="606" d="M330 193 L271 348 L374 507 L431 348 L330 193 Z M333 700 C320 700 314 692 307 682 L109 350 C140 247 183 121 214 18 C218 8 222 0 235 0 L367 0 C384 0 390 8 396 18 C457 121 534 247 595 350 L489 682 C486 692 482 700 469 700 L333 700 Z " />
<glyph glyph-name="uni25CC" unicode="&#x25cc;" horiz-adv-x="199" d="" />
<glyph glyph-name="fi" unicode="&#xfb01;" horiz-adv-x="647" d="M92 21 C91 9 99 0 111 0 L227 0 C239 0 249 9 250 21 L299 368 L372 368 C384 368 394 377 396 389 L411 494 C413 506 405 515 393 515 L320 515 L325 550 C327 566 344 580 359 580 L403 580 C415 580 425 589 427 601 L442 706 C443 718 436 727 424 727 L353 727 C254 727 185 645 169 565 L162 515 L108 515 C96 515 86 506 84 494 L69 389 C67 377 75 368 87 368 L141 368 L92 21 Z M431 21 C430 9 438 0 450 0 L566 0 C578 0 588 9 589 21 L656 494 C658 506 650 515 638 515 L522 515 C510 515 500 506 498 494 L431 21 Z M507 579 C505 567 513 558 525 558 L647 558 C659 558 669 567 671 579 L685 676 C686 688 678 697 666 697 L544 697 C532 697 522 688 521 676 L507 579 Z " />
<glyph glyph-name="fl" unicode="&#xfb02;" horiz-adv-x="647" d="M92 21 C91 9 99 0 111 0 L227 0 C239 0 249 9 250 21 L299 368 L372 368 C384 368 394 377 396 389 L411 494 C413 506 405 515 393 515 L320 515 L325 550 C327 566 344 580 359 580 L403 580 C415 580 425 589 427 601 L442 706 C443 718 436 727 424 727 L353 727 C254 727 185 645 169 565 L162 515 L108 515 C96 515 86 506 84 494 L69 389 C67 377 75 368 87 368 L141 368 L92 21 Z M431 21 C430 9 438 0 450 0 L566 0 C578 0 588 9 589 21 L682 679 C684 691 676 700 664 700 L548 700 C536 700 526 691 524 679 L431 21 Z " />
</font>
</svg>
