<?xml version="1.0" encoding="UTF-8"?>
<svg xmlns="http://www.w3.org/2000/svg" xmlns:xlink="http://www.w3.org/1999/xlink" version="1.2" >
<font id="Tomkin Condense Light">
<font-face  font-family="Tomkin Condense" units-per-em="1000" ascent="750" descent="-250" font-style="normal" font-weight="300" font-stretch="normal" cap-height="700" x-height="515" underline-position="-91" underline-thickness="35" />
<missing-glyph  horiz-adv-x="569" d="" />
<glyph glyph-name="space" unicode="&#x20;" horiz-adv-x="182" d="" />
<glyph glyph-name="exclam" unicode="&#x21;" horiz-adv-x="239" d="M90 267 L95 172 C95 165 99 161 106 161 L133 161 C140 161 144 165 144 172 L149 267 L149 689 C149 696 145 700 138 700 L101 700 C94 700 90 696 90 689 L90 267 Z M90 11 C90 4 94 0 101 0 L138 0 C145 0 149 4 149 11 L149 71 C149 78 145 82 138 82 L101 82 C94 82 90 78 90 71 L90 11 Z " />
<glyph glyph-name="quotedbl" unicode="&#x22;" horiz-adv-x="388" d="M90 615 L95 520 C95 513 99 509 106 509 L126 509 C133 509 137 513 137 520 L142 615 L142 689 C142 696 138 700 131 700 L101 700 C94 700 90 696 90 689 L90 615 Z M246 615 L251 520 C251 513 255 509 262 509 L282 509 C289 509 293 513 293 520 L298 615 L298 689 C298 696 294 700 287 700 L257 700 C250 700 246 696 246 689 L246 615 Z " />
<glyph glyph-name="numbersign" unicode="&#x23;" horiz-adv-x="803" d="M385 9 C385 3 388 0 394 0 L434 0 C440 0 443 3 445 9 L492 156 L588 156 C595 156 599 160 599 167 L599 199 C599 206 595 210 588 210 L509 210 L596 483 L702 483 C709 483 713 487 713 494 L713 526 C713 533 709 537 702 537 L614 537 L663 691 C663 697 660 700 654 700 L614 700 C608 700 605 697 603 691 L554 537 L372 537 L421 691 C421 697 418 700 412 700 L372 700 C366 700 363 697 361 691 L312 537 L215 537 C208 537 204 533 204 526 L204 494 C204 487 208 483 215 483 L294 483 L207 210 L101 210 C94 210 90 206 90 199 L90 167 C90 160 94 156 101 156 L190 156 L143 9 C143 3 146 0 152 0 L192 0 C198 0 201 3 203 9 L250 156 L432 156 L385 9 Z M354 483 L536 483 L449 210 L267 210 L354 483 Z " />
<glyph glyph-name="dollar" unicode="&#x24;" horiz-adv-x="574" d="M149 519 L149 541 C149 608 180 651 248 651 L314 651 C382 651 413 608 413 541 L413 529 C413 522 417 518 424 518 L461 518 C468 518 472 522 472 529 L472 557 C472 638 411 705 326 705 L317 705 L317 822 C317 829 313 833 306 833 L269 833 C262 833 258 829 258 822 L258 705 L235 705 C150 705 90 638 90 557 L90 532 C90 236 425 395 425 174 L425 159 C425 92 394 49 326 49 L248 49 C180 49 149 92 149 159 L149 171 C149 178 145 182 138 182 L101 182 C94 182 90 178 90 171 L90 143 C90 62 151 -5 236 -5 L258 -5 L258 -125 C258 -132 262 -136 269 -136 L306 -136 C313 -136 317 -132 317 -125 L317 -5 L339 -5 C424 -5 484 62 484 143 L484 162 C484 450 149 294 149 519 L149 519 Z " />
<glyph glyph-name="percent" unicode="&#x25;" horiz-adv-x="794" d="M205 700 C141 700 90 649 90 585 C90 521 141 469 205 469 C269 469 320 521 320 585 C320 649 269 700 205 700 L205 700 Z M205 519 C168 519 139 552 139 585 C139 624 168 652 205 652 C243 652 272 624 272 585 C272 552 243 519 205 519 L205 519 Z M223 9 C223 3 226 0 232 0 L272 0 C278 0 281 3 283 9 L571 691 C571 697 568 700 562 700 L522 700 C516 700 513 697 511 691 L223 9 Z M589 231 C525 231 474 180 474 116 C474 52 525 0 589 0 C653 0 704 52 704 116 C704 180 653 231 589 231 L589 231 Z M589 50 C552 50 523 83 523 116 C523 155 552 183 589 183 C627 183 656 155 656 116 C656 83 627 50 589 50 L589 50 Z " />
<glyph glyph-name="ampersand" unicode="&#x26;" horiz-adv-x="624" d="M415 323 L415 49 L245 49 C191 49 149 97 149 161 L149 212 C149 272 191 323 245 323 L415 323 Z M414 530 C414 523 418 519 425 519 L462 519 C469 519 473 523 473 530 L473 557 C473 638 413 705 328 705 L270 705 C184 705 123 638 123 557 L123 479 C123 449 128 386 195 354 C117 340 90 253 90 209 L90 149 C90 67 152 0 237 0 L462 0 C469 0 473 4 473 11 L473 323 L548 323 C555 323 559 327 559 334 L559 366 C559 373 555 377 548 377 L278 377 C224 377 182 424 182 488 L182 541 C182 604 224 651 278 651 L319 651 C374 651 414 601 414 541 L414 530 Z " />
<glyph glyph-name="quotesingle" unicode="&#x27;" horiz-adv-x="232" d="M90 615 L95 520 C95 513 99 509 106 509 L126 509 C133 509 137 513 137 520 L142 615 L142 689 C142 696 138 700 131 700 L101 700 C94 700 90 696 90 689 L90 615 Z " />
<glyph glyph-name="parenleft" unicode="&#x28;" horiz-adv-x="287" d="M90 308 C90 150 105 1 138 -167 C139 -174 142 -178 149 -178 L186 -178 C193 -178 197 -174 197 -167 C168 -15 149 159 149 308 C149 457 168 642 197 794 C197 801 193 805 186 805 L149 805 C142 805 139 801 138 794 C105 626 90 466 90 308 L90 308 Z " />
<glyph glyph-name="parenright" unicode="&#x29;" horiz-adv-x="287" d="M197 308 C197 466 182 626 149 794 C148 801 145 805 138 805 L101 805 C94 805 90 801 90 794 C119 642 138 457 138 308 C138 159 119 -15 90 -167 C90 -174 94 -178 101 -178 L138 -178 C145 -178 148 -174 149 -167 C182 1 197 150 197 308 L197 308 Z " />
<glyph glyph-name="asterisk" unicode="&#x2a;" horiz-adv-x="430" d="M237 584 L237 693 C237 696 234 700 231 700 L200 700 C195 700 193 696 193 693 L193 584 L118 634 C116 635 114 635 114 635 C111 635 109 634 108 632 L91 605 C90 603 90 602 90 601 C90 600 91 597 93 596 L177 538 L110 462 C108 460 108 458 108 456 C108 454 109 452 111 450 L133 431 C134 430 136 430 137 430 C140 430 141 431 142 432 L215 516 L288 432 C289 431 290 430 293 430 C294 430 296 430 297 431 L319 450 C321 452 322 454 322 456 C322 458 322 460 320 462 L253 538 L337 596 C339 597 340 600 340 601 C340 602 340 603 339 605 L322 632 C321 634 319 635 316 635 C316 635 314 635 312 634 L237 584 Z " />
<glyph glyph-name="plus" unicode="&#x2b;" horiz-adv-x="395" d="M294 206 C301 206 305 210 305 217 L305 249 C305 256 301 260 294 260 L227 260 L227 380 C227 387 223 391 216 391 L179 391 C172 391 168 387 168 380 L168 260 L101 260 C94 260 90 256 90 249 L90 217 C90 210 94 206 101 206 L168 206 L168 83 C168 76 172 72 179 72 L216 72 C223 72 227 76 227 83 L227 206 L294 206 Z " />
<glyph glyph-name="comma" unicode="&#x2c;" horiz-adv-x="288" d="M138 -91 C145 -91 148 -87 152 -79 L198 23 C198 31 194 35 187 35 L150 35 C143 35 140 31 136 23 L90 -79 C90 -87 94 -91 102 -91 L138 -91 Z " />
<glyph glyph-name="hyphen" unicode="&#x2d;" horiz-adv-x="344" d="M243 209 C250 209 254 213 254 220 L254 252 C254 259 250 263 243 263 L101 263 C94 263 90 259 90 252 L90 220 C90 213 94 209 101 209 L243 209 Z " />
<glyph glyph-name="period" unicode="&#x2e;" horiz-adv-x="248" d="M90 6 C90 -1 94 -5 101 -5 L147 -5 C154 -5 158 -1 158 6 L158 55 C158 62 154 66 147 66 L101 66 C94 66 90 62 90 55 L90 6 Z " />
<glyph glyph-name="slash" unicode="&#x2f;" horiz-adv-x="549" d="M90 -170 C90 -176 93 -179 99 -179 L139 -179 C145 -179 148 -176 150 -170 L459 795 C459 801 456 804 450 804 L410 804 C404 804 401 801 399 795 L90 -170 Z " />
<glyph glyph-name="zero" unicode="0" horiz-adv-x="563" d="M328 705 L225 705 C140 705 80 638 80 556 L80 144 C80 62 140 -5 225 -5 L328 -5 C413 -5 473 62 473 144 L473 556 C473 638 413 705 328 705 L328 705 Z M414 160 C414 93 383 49 315 49 L238 49 C170 49 139 93 139 160 L139 541 C139 608 170 651 238 651 L315 651 C383 651 414 608 414 541 L414 160 Z " />
<glyph glyph-name="one" unicode="1" horiz-adv-x="506" d="M76 642 C72 640 70 636 70 632 L70 593 C70 587 72 584 79 584 L252 643 L252 54 L115 54 C108 54 104 50 104 43 L104 11 C104 4 108 0 115 0 L450 0 C457 0 461 4 461 11 L461 43 C461 50 457 54 450 54 L311 54 L311 689 C311 696 307 700 300 700 L246 700 L76 642 Z " />
<glyph glyph-name="two" unicode="2" horiz-adv-x="525" d="M70 11 C70 4 74 0 81 0 L442 0 C449 0 453 4 453 11 L453 43 C453 50 449 54 442 54 L129 54 L129 141 C129 363 455 208 455 500 L455 557 C455 638 395 705 310 705 L219 705 C134 705 73 638 73 557 L73 529 C73 522 77 518 84 518 L121 518 C128 518 132 522 132 529 L132 541 C132 608 163 651 231 651 L297 651 C365 651 396 608 396 541 L396 488 C396 269 70 422 70 130 L70 11 Z " />
<glyph glyph-name="three" unicode="3" horiz-adv-x="532" d="M367 350 C422 369 457 441 457 476 L457 557 C457 638 397 705 312 705 L221 705 C136 705 75 638 75 557 L75 529 C75 522 79 518 86 518 L123 518 C130 518 134 522 134 529 L134 541 C134 608 165 651 233 651 L299 651 C367 651 398 608 398 541 L398 487 C398 422 356 379 301 379 L243 379 C236 379 232 375 232 368 L232 332 C232 325 236 321 243 321 L301 321 C356 321 398 278 398 213 L398 159 C398 92 367 49 299 49 L233 49 C165 49 134 92 134 159 L134 171 C134 178 130 182 123 182 L86 182 C79 182 75 178 75 171 L75 143 C75 62 136 -5 221 -5 L312 -5 C397 -5 457 62 457 143 L457 224 C457 259 422 331 367 350 L367 350 Z " />
<glyph glyph-name="four" unicode="4" horiz-adv-x="537" d="M50 199 L50 167 C50 160 54 156 61 156 L356 156 L356 11 C356 4 360 0 367 0 L404 0 C411 0 415 4 415 11 L415 156 L476 156 C483 156 487 160 487 167 L487 199 C487 206 483 210 476 210 L415 210 L415 421 C415 428 411 432 404 432 L367 432 C360 432 356 428 356 421 L356 210 L121 210 L336 693 C336 697 333 700 329 700 L282 700 C276 700 274 697 272 693 L50 199 Z " />
<glyph glyph-name="five" unicode="5" horiz-adv-x="543" d="M80 143 C80 62 151 -5 237 -5 L316 -5 C402 -5 473 62 473 143 L473 266 C473 347 406 414 320 414 L238 414 C223 414 179 414 139 386 L139 646 L411 646 C418 646 422 650 422 657 L422 689 C422 696 418 700 411 700 L91 700 C84 700 80 696 80 689 L80 331 C80 324 84 320 91 320 L133 320 C140 320 142 324 147 331 C164 356 211 360 231 360 L307 360 C371 360 414 320 414 249 L414 161 C414 92 374 49 307 49 L247 49 C185 49 139 87 139 161 L139 165 C139 172 135 176 128 176 L91 176 C84 176 80 172 80 165 L80 143 Z " />
<glyph glyph-name="six" unicode="6" horiz-adv-x="544" d="M415 159 C415 92 384 49 316 49 L238 49 C170 49 139 92 139 159 L139 250 C139 317 170 360 238 360 L316 360 C384 360 415 317 415 250 L415 159 Z M305 651 C373 651 404 608 404 541 L404 532 C404 525 408 521 415 521 L452 521 C459 521 463 525 463 532 L463 557 C463 638 402 705 314 705 L228 705 C141 705 80 638 80 557 L80 143 C80 62 141 -5 228 -5 L329 -5 C414 -5 474 62 474 143 L474 267 C474 348 414 414 329 414 L235 414 C223 414 182 413 139 378 L139 541 C139 608 170 651 238 651 L305 651 Z " />
<glyph glyph-name="seven" unicode="7" horiz-adv-x="460" d="M137 11 C137 4 141 0 148 0 L185 0 C192 0 195 4 196 11 C226 211 273 441 405 640 L405 689 C405 696 401 700 394 700 L66 700 C59 700 55 696 55 689 L55 657 C55 650 59 646 66 646 L349 646 C202 426 166 195 137 11 L137 11 Z " />
<glyph glyph-name="eight" unicode="8" horiz-adv-x="545" d="M233 49 C165 49 134 93 134 160 L134 210 C134 277 165 321 233 321 L312 321 C380 321 411 277 411 210 L411 160 C411 93 380 49 312 49 L233 49 Z M239 705 C152 705 91 638 91 557 L91 472 C91 442 104 371 170 354 C94 327 75 262 75 222 L75 143 C75 62 134 -5 219 -5 L326 -5 C411 -5 470 62 470 143 L470 222 C470 262 451 327 375 354 C441 371 454 442 454 472 L454 557 C454 638 393 705 306 705 L239 705 Z M296 651 C364 651 395 608 395 541 L395 485 C395 418 364 375 296 375 L249 375 C181 375 150 418 150 485 L150 541 C150 608 181 651 249 651 L296 651 Z " />
<glyph glyph-name="nine" unicode="9" horiz-adv-x="544" d="M129 541 C129 608 160 651 228 651 L306 651 C374 651 405 608 405 541 L405 450 C405 383 374 340 306 340 L228 340 C160 340 129 383 129 450 L129 541 Z M239 49 C171 49 140 92 140 159 L140 168 C140 175 136 179 129 179 L92 179 C85 179 81 175 81 168 L81 143 C81 62 142 -5 230 -5 L316 -5 C403 -5 464 62 464 143 L464 557 C464 638 403 705 316 705 L215 705 C130 705 70 638 70 557 L70 433 C70 352 130 286 215 286 L309 286 C321 286 362 287 405 322 L405 159 C405 92 374 49 306 49 L239 49 Z " />
<glyph glyph-name="colon" unicode="&#x3a;" horiz-adv-x="248" d="M90 6 C90 -1 94 -5 101 -5 L147 -5 C154 -5 158 -1 158 6 L158 55 C158 62 154 66 147 66 L101 66 C94 66 90 62 90 55 L90 6 Z M90 345 C90 338 94 334 101 334 L147 334 C154 334 158 338 158 345 L158 394 C158 401 154 405 147 405 L101 405 C94 405 90 401 90 394 L90 345 Z " />
<glyph glyph-name="semicolon" unicode="&#x3b;" horiz-adv-x="289" d="M131 345 C131 338 135 334 142 334 L188 334 C195 334 199 338 199 345 L199 394 C199 401 195 405 188 405 L142 405 C135 405 131 401 131 394 L131 345 Z M138 -91 C145 -91 148 -87 152 -79 L198 23 C198 31 194 35 187 35 L150 35 C143 35 140 31 136 23 L90 -79 C90 -87 94 -91 102 -91 L138 -91 Z " />
<glyph glyph-name="less" unicode="&#x3c;" horiz-adv-x="386" d="M90 185 C90 178 92 175 100 172 L287 99 C291 99 296 102 296 108 L296 151 C296 158 291 161 287 163 L147 218 L147 224 L287 279 C291 281 296 284 296 291 L296 334 C296 340 291 343 287 343 L100 270 C92 267 90 264 90 257 L90 185 Z " />
<glyph glyph-name="equal" unicode="&#x3d;" horiz-adv-x="344" d="M243 109 C250 109 254 113 254 120 L254 152 C254 159 250 163 243 163 L101 163 C94 163 90 159 90 152 L90 120 C90 113 94 109 101 109 L243 109 Z M243 301 C250 301 254 305 254 312 L254 344 C254 351 250 355 243 355 L101 355 C94 355 90 351 90 344 L90 312 C90 305 94 301 101 301 L243 301 Z " />
<glyph glyph-name="greater" unicode="&#x3e;" horiz-adv-x="386" d="M296 257 C296 264 294 267 286 270 L99 343 C95 343 90 340 90 334 L90 291 C90 284 95 281 99 279 L239 224 L239 218 L99 163 C95 161 90 158 90 151 L90 108 C90 102 95 99 99 99 L286 172 C294 175 296 178 296 185 L296 257 Z " />
<glyph glyph-name="question" unicode="&#x3f;" horiz-adv-x="562" d="M221 172 C221 165 225 161 232 161 L269 161 C276 161 280 165 280 172 L280 184 C280 404 472 243 472 510 L472 557 C472 638 412 705 327 705 L236 705 C151 705 90 638 90 557 L90 509 C90 502 94 498 101 498 L138 498 C145 498 149 502 149 509 L149 541 C149 608 180 651 248 651 L314 651 C382 651 413 608 413 541 L413 510 C413 284 221 451 221 189 L221 172 Z M221 11 C221 4 225 0 232 0 L269 0 C276 0 280 4 280 11 L280 71 C280 78 276 82 269 82 L232 82 C225 82 221 78 221 71 L221 11 Z " />
<glyph glyph-name="at" unicode="&#x40;" horiz-adv-x="722" d="M632 556 C632 638 562 705 477 705 L245 705 C160 705 90 638 90 556 L90 32 C90 -50 160 -117 245 -117 L408 -117 C415 -117 419 -113 419 -106 L419 -74 C419 -67 415 -63 408 -63 L258 -63 C190 -63 149 -19 149 48 L149 541 C149 608 190 651 258 651 L464 651 C532 651 573 608 573 541 L573 451 L566 451 C542 484 515 494 487 494 L428 494 C347 494 297 435 297 356 L297 190 C297 111 347 52 428 52 L487 52 C515 52 542 62 566 95 L573 95 L573 68 C573 61 577 57 584 57 L621 57 C628 57 632 61 632 68 L632 556 Z M439 106 C381 106 356 148 356 198 L356 348 C356 398 381 440 439 440 L475 440 C533 440 571 391 571 341 L571 205 C571 155 533 106 475 106 L439 106 Z " />
<glyph glyph-name="A" unicode="A" horiz-adv-x="552" d="M238 700 C232 700 229 697 227 692 L45 11 C45 4 49 0 56 0 L94 0 C101 0 104 4 106 11 L140 138 L412 138 L446 11 C448 4 451 0 458 0 L496 0 C503 0 507 4 507 11 L325 692 C323 697 320 700 314 700 L238 700 Z M271 629 L281 629 L398 191 L154 191 L271 629 Z " />
<glyph glyph-name="B" unicode="B" horiz-adv-x="534" d="M316 0 C403 0 474 67 474 149 L474 221 C474 267 453 319 379 359 C421 383 441 449 441 479 L441 551 C441 633 371 700 285 700 L101 700 C94 700 90 696 90 689 L90 11 C90 4 94 0 101 0 L316 0 Z M149 377 L149 646 L274 646 C330 646 382 594 382 535 L382 488 C382 424 330 377 274 377 L149 377 Z M308 323 C364 323 415 272 415 212 L415 165 C415 101 364 54 308 54 L149 54 L149 323 L308 323 Z " />
<glyph glyph-name="C" unicode="C" horiz-adv-x="538" d="M414 160 C414 93 383 49 315 49 L238 49 C170 49 139 93 139 160 L139 541 C139 608 170 651 238 651 L315 651 C383 651 414 608 414 541 L414 504 C414 497 418 493 425 493 L462 493 C469 493 473 497 473 504 L473 556 C473 638 413 705 328 705 L225 705 C140 705 80 638 80 556 L80 144 C80 62 140 -5 225 -5 L328 -5 C413 -5 473 62 473 144 L473 196 C473 203 469 207 462 207 L425 207 C418 207 414 203 414 196 L414 160 Z " />
<glyph glyph-name="D" unicode="D" horiz-adv-x="563" d="M149 54 L149 646 L316 646 C384 646 425 602 425 535 L425 165 C425 98 384 54 316 54 L149 54 Z M101 700 C94 700 90 696 90 689 L90 11 C90 4 94 0 101 0 L328 0 C413 0 483 67 483 149 L483 551 C483 633 413 700 328 700 L101 700 Z " />
<glyph glyph-name="E" unicode="E" horiz-adv-x="483" d="M90 11 C90 4 94 0 101 0 L392 0 C399 0 403 4 403 11 L403 43 C403 50 399 54 392 54 L149 54 L149 310 L366 310 C373 310 377 314 377 321 L377 353 C377 360 373 364 366 364 L149 364 L149 646 L392 646 C399 646 403 650 403 657 L403 689 C403 696 399 700 392 700 L101 700 C94 700 90 696 90 689 L90 11 Z " />
<glyph glyph-name="F" unicode="F" horiz-adv-x="453" d="M90 11 C90 4 94 0 101 0 L138 0 C145 0 149 4 149 11 L149 310 L366 310 C373 310 377 314 377 321 L377 353 C377 360 373 364 366 364 L149 364 L149 646 L392 646 C399 646 403 650 403 657 L403 689 C403 696 399 700 392 700 L101 700 C94 700 90 696 90 689 L90 11 Z " />
<glyph glyph-name="G" unicode="G" horiz-adv-x="553" d="M287 370 C280 370 276 366 276 359 L276 327 C276 320 280 316 287 316 L414 316 L414 160 C414 93 383 49 315 49 L238 49 C170 49 139 93 139 160 L139 541 C139 608 170 651 238 651 L315 651 C383 651 414 608 414 541 L414 504 C414 497 418 493 425 493 L462 493 C469 493 473 497 473 504 L473 556 C473 638 413 705 328 705 L225 705 C140 705 80 638 80 556 L80 144 C80 62 140 -5 225 -5 L328 -5 C413 -5 473 62 473 144 L473 359 C473 366 469 370 462 370 L287 370 Z " />
<glyph glyph-name="H" unicode="H" horiz-adv-x="566" d="M417 11 C417 4 421 0 428 0 L465 0 C472 0 476 4 476 11 L476 689 C476 696 472 700 465 700 L428 700 C421 700 417 696 417 689 L417 363 L149 363 L149 689 C149 696 145 700 138 700 L101 700 C94 700 90 696 90 689 L90 11 C90 4 94 0 101 0 L138 0 C145 0 149 4 149 11 L149 309 L417 309 L417 11 Z " />
<glyph glyph-name="I" unicode="I" horiz-adv-x="239" d="M149 689 C149 692 148 695 146 697 C144 699 142 700 138 700 L101 700 C97 700 95 699 93 697 C91 695 90 692 90 689 L90 11 C90 8 91 5 93 3 C95 1 97 0 101 0 L138 0 C142 0 144 1 146 3 C148 5 149 8 149 11 L149 689 Z " />
<glyph glyph-name="J" unicode="J" horiz-adv-x="386" d="M22 36 C51 17 83 -5 150 -5 C266 -5 316 72 316 154 L316 689 C316 696 312 700 305 700 L268 700 C261 700 257 696 257 689 L257 164 C257 149 257 49 144 49 C116 49 97 55 62 76 C58 78 57 79 54 79 C52 79 49 78 47 76 L23 50 C21 48 20 45 20 42 C20 39 20 38 22 36 L22 36 Z " />
<glyph glyph-name="K" unicode="K" horiz-adv-x="517" d="M403 8 C405 4 407 0 413 0 L458 0 C463 0 466 3 466 8 L362 348 L466 692 C466 697 463 700 458 700 L415 700 C409 700 407 696 405 692 L310 376 L149 376 L149 689 C149 696 145 700 138 700 L101 700 C94 700 90 696 90 689 L90 11 C90 4 94 0 101 0 L138 0 C145 0 149 4 149 11 L149 322 L305 322 L403 8 Z " />
<glyph glyph-name="L" unicode="L" horiz-adv-x="453" d="M90 11 C90 4 94 0 101 0 L392 0 C399 0 403 4 403 11 L403 43 C403 50 399 54 392 54 L149 54 L149 689 C149 696 145 700 138 700 L101 700 C94 700 90 696 90 689 L90 11 Z " />
<glyph glyph-name="M" unicode="M" horiz-adv-x="729" d="M393 109 C399 109 402 113 405 119 L572 560 L580 560 L580 11 C580 4 584 0 591 0 L628 0 C635 0 639 4 639 11 L639 691 C639 697 636 700 630 700 L573 700 C567 700 563 696 561 691 L368 186 L361 186 L168 691 C166 696 162 700 156 700 L99 700 C93 700 90 697 90 691 L90 11 C90 4 94 0 101 0 L138 0 C145 0 149 4 149 11 L149 560 L157 560 L324 119 C327 113 330 109 336 109 L393 109 Z " />
<glyph glyph-name="N" unicode="N" horiz-adv-x="605" d="M448 101 L181 689 C178 695 173 700 166 700 L101 700 C94 700 90 696 90 689 L90 11 C90 4 94 0 101 0 L138 0 C145 0 149 4 149 11 L149 598 L157 598 L425 11 C428 5 433 0 440 0 L504 0 C511 0 515 4 515 11 L515 689 C515 696 511 700 504 700 L467 700 C460 700 456 696 456 689 L456 101 L448 101 Z " />
<glyph glyph-name="O" unicode="O" horiz-adv-x="553" d="M328 705 L225 705 C140 705 80 638 80 556 L80 144 C80 62 140 -5 225 -5 L328 -5 C413 -5 473 62 473 144 L473 556 C473 638 413 705 328 705 L328 705 Z M414 160 C414 93 383 49 315 49 L238 49 C170 49 139 93 139 160 L139 541 C139 608 170 651 238 651 L315 651 C383 651 414 608 414 541 L414 160 Z " />
<glyph glyph-name="P" unicode="P" horiz-adv-x="545" d="M149 284 L149 646 L309 646 C365 646 416 594 416 535 L416 394 C416 331 365 284 309 284 L149 284 Z M101 700 C94 700 90 696 90 689 L90 11 C90 4 94 0 101 0 L138 0 C145 0 149 4 149 11 L149 230 L318 230 C404 230 475 297 475 380 L475 551 C475 633 404 700 318 700 L101 700 Z " />
<glyph glyph-name="Q" unicode="Q" horiz-adv-x="553" d="M328 705 L225 705 C140 705 80 638 80 556 L80 144 C80 62 140 -5 225 -5 L241 -5 L285 -103 C287 -108 292 -113 298 -113 L343 -113 C350 -113 352 -108 352 -103 L309 -5 L328 -5 C413 -5 473 62 473 144 L473 556 C473 638 413 705 328 705 L328 705 Z M414 160 C414 93 383 49 315 49 L238 49 C170 49 139 93 139 160 L139 541 C139 608 170 651 238 651 L315 651 C383 651 414 608 414 541 L414 160 Z " />
<glyph glyph-name="R" unicode="R" horiz-adv-x="535" d="M475 380 L475 551 C475 633 404 700 318 700 L101 700 C94 700 90 696 90 689 L90 11 C90 4 94 0 101 0 L138 0 C145 0 149 4 149 11 L149 230 L294 230 L395 11 C398 4 401 0 408 0 L449 0 C456 0 460 4 460 11 L355 235 C423 251 475 310 475 380 L475 380 Z M416 394 C416 331 365 284 309 284 L149 284 L149 646 L309 646 C365 646 416 594 416 535 L416 394 Z " />
<glyph glyph-name="S" unicode="S" horiz-adv-x="519" d="M395 159 C395 92 364 49 296 49 L218 49 C150 49 119 92 119 159 L119 171 C119 178 115 182 108 182 L71 182 C64 182 60 178 60 171 L60 143 C60 62 121 -5 206 -5 L309 -5 C394 -5 454 62 454 143 L454 162 C454 450 119 294 119 519 L119 541 C119 608 150 651 218 651 L284 651 C352 651 383 608 383 541 L383 529 C383 522 387 518 394 518 L431 518 C438 518 442 522 442 529 L442 557 C442 638 381 705 296 705 L205 705 C120 705 60 638 60 557 L60 532 C60 236 395 395 395 174 L395 159 Z " />
<glyph glyph-name="T" unicode="T" horiz-adv-x="493" d="M66 700 C59 700 55 696 55 689 L55 657 C55 650 59 646 66 646 L217 646 L217 11 C217 4 221 0 228 0 L265 0 C272 0 276 4 276 11 L276 646 L427 646 C434 646 438 650 438 657 L438 689 C438 696 434 700 427 700 L66 700 Z " />
<glyph glyph-name="U" unicode="U" horiz-adv-x="563" d="M478 689 C478 696 474 700 467 700 L430 700 C423 700 419 696 419 689 L419 160 C419 93 388 49 320 49 L243 49 C175 49 144 93 144 160 L144 689 C144 696 140 700 133 700 L96 700 C89 700 85 696 85 689 L85 144 C85 62 145 -5 230 -5 L333 -5 C418 -5 478 62 478 144 L478 689 Z " />
<glyph glyph-name="V" unicode="V" horiz-adv-x="552" d="M314 0 C320 0 323 3 325 8 L507 689 C507 696 503 700 496 700 L458 700 C451 700 448 696 446 689 L281 71 L271 71 L106 689 C104 696 101 700 94 700 L56 700 C49 700 45 696 45 689 L227 8 C229 3 232 0 238 0 L314 0 Z " />
<glyph glyph-name="W" unicode="W" horiz-adv-x="744" d="M350 700 C344 700 341 696 339 690 L213 56 L106 689 C104 696 101 700 94 700 L56 700 C49 700 45 696 45 689 L161 11 C163 4 166 0 174 0 L252 0 C259 0 263 4 264 11 L372 564 L480 11 C481 4 485 0 492 0 L570 0 C578 0 581 4 583 11 L699 689 C699 696 695 700 688 700 L650 700 C643 700 640 696 638 689 L531 56 L405 690 C403 696 400 700 394 700 L350 700 Z " />
<glyph glyph-name="X" unicode="X" horiz-adv-x="515" d="M286 323 L401 11 C404 4 407 0 414 0 L454 0 C461 0 465 4 465 11 L340 350 L465 689 C465 696 461 700 454 700 L415 700 C408 700 405 696 402 689 L286 377 L229 377 L113 689 C110 696 107 700 100 700 L61 700 C54 700 50 696 50 689 L175 350 L50 11 C50 4 54 0 61 0 L101 0 C108 0 111 4 114 11 L229 323 L286 323 Z " />
<glyph glyph-name="Y" unicode="Y" horiz-adv-x="517" d="M261 308 L256 308 L104 689 C101 696 99 700 92 700 L51 700 C44 700 40 696 40 689 L229 216 L229 11 C229 4 233 0 240 0 L277 0 C284 0 288 4 288 11 L288 216 L477 689 C477 696 473 700 466 700 L425 700 C418 700 416 696 413 689 L261 308 Z " />
<glyph glyph-name="Z" unicode="Z" horiz-adv-x="484" d="M134 54 L417 652 C418 654 419 657 419 659 L419 689 C419 696 415 700 408 700 L76 700 C69 700 65 696 65 689 L65 657 C65 650 69 646 76 646 L350 646 L67 48 C66 46 65 43 65 41 L65 11 C65 4 69 0 76 0 L408 0 C415 0 419 4 419 11 L419 43 C419 50 415 54 408 54 L134 54 Z " />
<glyph glyph-name="bracketleft" unicode="&#x5b;" horiz-adv-x="363" d="M90 -166 C90 -173 94 -177 101 -177 L262 -177 C269 -177 273 -173 273 -166 L273 -134 C273 -127 269 -123 262 -123 L149 -123 L149 751 L262 751 C269 751 273 755 273 762 L273 794 C273 801 269 805 262 805 L101 805 C94 805 90 801 90 794 L90 -166 Z " />
<glyph glyph-name="backslash" unicode="&#x5c;" horiz-adv-x="549" d="M150 795 C148 801 145 804 139 804 L99 804 C93 804 90 801 90 795 L399 -170 C401 -176 404 -179 410 -179 L450 -179 C456 -179 459 -176 459 -170 L150 795 Z " />
<glyph glyph-name="bracketright" unicode="&#x5d;" horiz-adv-x="363" d="M273 794 C273 801 269 805 262 805 L101 805 C94 805 90 801 90 794 L90 762 C90 755 94 751 101 751 L214 751 L214 -123 L101 -123 C94 -123 90 -127 90 -134 L90 -166 C90 -173 94 -177 101 -177 L262 -177 C269 -177 273 -173 273 -166 L273 794 Z " />
<glyph glyph-name="asciicircum" unicode="&#x5e;" horiz-adv-x="384" d="M164 700 C158 700 154 696 151 689 L90 565 C90 560 93 557 98 557 L136 557 C139 557 142 561 144 565 L192 660 L240 565 C242 561 245 557 248 557 L286 557 C291 557 294 560 294 565 L233 689 C230 696 226 700 220 700 L164 700 Z " />
<glyph glyph-name="underscore" unicode="&#x5f;" horiz-adv-x="344" d="M243 -113 C250 -113 254 -109 254 -102 L254 -70 C254 -63 250 -59 243 -59 L101 -59 C94 -59 90 -63 90 -70 L90 -102 C90 -109 94 -113 101 -113 L243 -113 Z " />
<glyph glyph-name="grave" unicode="&#x60;" horiz-adv-x="288" d="M186 574 C194 574 198 578 198 586 L152 688 C148 696 145 700 138 700 L101 700 C94 700 90 696 90 688 L136 586 C140 578 143 574 150 574 L186 574 Z " />
<glyph glyph-name="a" unicode="a" horiz-adv-x="466" d="M204 49 C154 49 129 84 129 133 L129 165 C129 215 154 248 204 248 L332 248 L332 133 C332 84 300 49 251 49 L204 49 Z M131 451 C177 461 194 466 226 466 C332 466 332 379 332 336 L332 302 L201 302 C121 302 70 252 70 166 L70 123 C70 38 121 -5 201 -5 L237 -5 C276 -5 303 7 324 34 L332 34 L332 11 C332 4 336 0 343 0 L380 0 C387 0 391 4 391 11 L391 342 C391 387 388 520 236 520 C166 520 148 512 118 504 C114 502 112 500 112 495 C112 495 111 493 120 457 C122 451 126 451 131 451 L131 451 Z " />
<glyph glyph-name="b" unicode="b" horiz-adv-x="495" d="M149 38 L156 38 C180 5 207 -5 235 -5 L294 -5 C375 -5 425 54 425 133 L425 382 C425 461 375 520 294 520 L235 520 C207 520 180 510 156 477 L149 477 L149 689 C149 696 145 700 138 700 L101 700 C94 700 90 696 90 689 L90 11 C90 4 94 0 101 0 L138 0 C145 0 149 4 149 11 L149 38 Z M247 49 C189 49 151 98 151 148 L151 367 C151 417 189 466 247 466 L283 466 C341 466 366 424 366 374 L366 141 C366 91 341 49 283 49 L247 49 Z " />
<glyph glyph-name="c" unicode="c" horiz-adv-x="450" d="M395 156 C395 163 391 167 384 167 L347 167 C340 167 336 163 336 156 L336 141 C336 94 299 49 252 49 L218 49 C171 49 134 94 134 141 L134 374 C134 424 159 466 217 466 L253 466 C311 466 336 424 336 374 L336 359 C336 352 340 348 347 348 L384 348 C391 348 395 352 395 359 L395 384 C395 450 353 520 272 520 L198 520 C117 520 75 450 75 384 L75 131 C75 65 117 -5 198 -5 L272 -5 C353 -5 395 65 395 131 L395 156 Z " />
<glyph glyph-name="d" unicode="d" horiz-adv-x="495" d="M346 11 C346 4 350 0 357 0 L394 0 C401 0 405 4 405 11 L405 689 C405 696 401 700 394 700 L357 700 C350 700 346 696 346 689 L346 477 L339 477 C315 510 288 520 260 520 L201 520 C120 520 70 461 70 382 L70 133 C70 54 120 -5 201 -5 L260 -5 C288 -5 315 5 339 38 L346 38 L346 11 Z M212 49 C154 49 129 91 129 141 L129 374 C129 424 154 466 212 466 L248 466 C306 466 344 417 344 367 L344 148 C344 98 306 49 248 49 L212 49 Z " />
<glyph glyph-name="e" unicode="e" horiz-adv-x="465" d="M328 73 C311 60 296 49 260 49 L218 49 C171 49 134 94 134 141 L134 229 L384 229 C391 229 395 233 395 240 L395 384 C395 450 353 520 272 520 L198 520 C117 520 75 450 75 384 L75 131 C75 65 117 -5 198 -5 L260 -5 C260 -5 321 -6 368 39 C370 42 371 43 371 45 C371 48 370 49 367 52 L345 76 C342 79 340 79 339 79 C335 79 330 74 328 73 L328 73 Z M134 374 C134 424 159 466 217 466 L253 466 C311 466 336 424 336 374 L336 283 L134 283 L134 374 Z " />
<glyph glyph-name="f" unicode="f" horiz-adv-x="358" d="M266 744 C184 744 131 679 131 606 L131 515 L56 515 C49 515 45 511 45 504 L45 472 C45 465 49 461 56 461 L131 461 L131 11 C131 4 135 0 142 0 L179 0 C186 0 190 4 190 11 L190 461 L291 461 C298 461 302 465 302 472 L302 504 C302 511 298 515 291 515 L191 515 L191 597 C191 645 231 690 277 690 L292 690 C299 690 303 694 303 701 L303 733 C303 740 299 744 292 744 L266 744 Z " />
<glyph glyph-name="g" unicode="g" horiz-adv-x="495" d="M212 49 C154 49 129 91 129 141 L129 374 C129 424 154 466 212 466 L248 466 C306 466 344 417 344 367 L344 148 C344 98 306 49 248 49 L212 49 Z M346 -33 C346 -80 342 -149 233 -149 C179 -149 165 -145 135 -140 C132 -140 128 -140 127 -147 L121 -181 C121 -186 123 -188 128 -190 C159 -198 170 -203 229 -203 C405 -203 405 -80 405 -40 L405 504 C405 511 401 515 394 515 L357 515 C350 515 346 511 346 504 L346 477 L339 477 C315 510 288 520 260 520 L201 520 C120 520 70 461 70 382 L70 133 C70 54 120 -5 201 -5 L260 -5 C288 -5 315 5 339 38 L346 38 L346 -33 Z " />
<glyph glyph-name="h" unicode="h" horiz-adv-x="501" d="M90 11 C90 4 94 0 101 0 L138 0 C145 0 149 4 149 11 L149 366 C198 465 249 466 284 466 L292 466 C343 466 362 424 362 356 L362 11 C362 4 366 0 373 0 L410 0 C417 0 421 4 421 11 L421 368 C421 458 386 520 293 520 L265 520 C245 520 190 519 156 455 L149 455 L149 689 C149 696 145 700 138 700 L101 700 C94 700 90 696 90 689 L90 11 Z " />
<glyph glyph-name="i" unicode="i" horiz-adv-x="257" d="M101 11 C101 4 105 0 112 0 L149 0 C156 0 160 4 160 11 L160 504 C160 511 156 515 149 515 L112 515 C105 515 101 511 101 504 L101 11 Z M98 589 C98 582 102 578 109 578 L152 578 C159 578 163 582 163 589 L163 657 C163 664 159 668 152 668 L109 668 C102 668 98 664 98 657 L98 589 Z " />
<glyph glyph-name="j" unicode="j" horiz-adv-x="257" d="M100 589 C100 582 104 578 111 578 L154 578 C161 578 165 582 165 589 L165 657 C165 664 161 668 154 668 L111 668 C104 668 100 664 100 657 L100 589 Z M11 -124 C7 -126 6 -129 6 -136 L22 -176 C24 -180 28 -182 31 -182 C32 -182 34 -182 36 -181 C81 -161 162 -107 162 -2 L162 504 C162 511 158 515 151 515 L114 515 C107 515 103 511 103 504 L103 3 C103 3 99 -76 11 -124 L11 -124 Z " />
<glyph glyph-name="k" unicode="k" horiz-adv-x="459" d="M358 8 C360 4 364 0 369 0 L411 0 C416 0 419 3 419 8 L345 274 L417 507 C417 512 414 515 409 515 L368 515 C363 515 359 511 357 507 L291 300 L149 300 L149 689 C149 696 145 700 138 700 L101 700 C94 700 90 696 90 689 L90 11 C90 4 94 0 101 0 L138 0 C145 0 149 4 149 11 L149 246 L290 246 L358 8 Z " />
<glyph glyph-name="l" unicode="l" horiz-adv-x="239" d="M149 689 C149 692 148 695 146 697 C144 699 142 700 138 700 L101 700 C97 700 95 699 93 697 C91 695 90 692 90 689 L90 11 C90 8 91 5 93 3 C95 1 97 0 101 0 L138 0 C142 0 144 1 146 3 C148 5 149 8 149 11 L149 689 Z " />
<glyph glyph-name="m" unicode="m" horiz-adv-x="709" d="M389 359 C416 424 451 466 492 466 C558 466 570 426 570 359 L570 11 C570 4 574 0 581 0 L618 0 C625 0 629 4 629 11 L629 381 C629 461 591 520 495 520 C474 520 420 520 376 442 L369 442 C339 499 311 520 265 520 C230 520 194 520 156 455 L149 455 L149 504 C149 511 145 515 138 515 L101 515 C94 515 90 511 90 504 L90 11 C90 4 94 0 101 0 L138 0 C145 0 149 4 149 11 L149 359 C176 424 211 466 252 466 C318 466 330 426 330 359 L330 11 C330 4 334 0 341 0 L378 0 C385 0 389 4 389 11 L389 359 Z " />
<glyph glyph-name="n" unicode="n" horiz-adv-x="501" d="M90 11 C90 4 94 0 101 0 L138 0 C145 0 149 4 149 11 L149 366 C198 465 249 466 284 466 L292 466 C343 466 362 424 362 356 L362 11 C362 4 366 0 373 0 L410 0 C417 0 421 4 421 11 L421 368 C421 458 386 520 293 520 L265 520 C245 520 190 519 156 455 L149 455 L149 504 C149 511 145 515 138 515 L101 515 C94 515 90 511 90 504 L90 11 Z " />
<glyph glyph-name="o" unicode="o" horiz-adv-x="470" d="M198 520 C117 520 75 450 75 384 L75 131 C75 65 117 -5 198 -5 L272 -5 C353 -5 395 65 395 131 L395 384 C395 450 353 520 272 520 L198 520 Z M217 49 C159 49 134 91 134 141 L134 374 C134 424 159 466 217 466 L253 466 C311 466 336 424 336 374 L336 141 C336 91 311 49 253 49 L217 49 Z " />
<glyph glyph-name="p" unicode="p" horiz-adv-x="495" d="M149 38 L156 38 C180 5 207 -5 235 -5 L294 -5 C375 -5 425 54 425 133 L425 382 C425 461 375 520 294 520 L235 520 C207 520 180 510 156 477 L149 477 L149 504 C149 511 145 515 138 515 L101 515 C94 515 90 511 90 504 L90 -163 C90 -170 94 -174 101 -174 L138 -174 C145 -174 149 -170 149 -163 L149 38 Z M247 49 C189 49 151 98 151 148 L151 367 C151 417 189 466 247 466 L283 466 C341 466 366 424 366 374 L366 141 C366 91 341 49 283 49 L247 49 Z " />
<glyph glyph-name="q" unicode="q" horiz-adv-x="495" d="M346 -163 C346 -170 350 -174 357 -174 L394 -174 C401 -174 405 -170 405 -163 L405 504 C405 511 401 515 394 515 L357 515 C350 515 346 511 346 504 L346 477 L339 477 C315 510 288 520 260 520 L201 520 C120 520 70 461 70 382 L70 133 C70 54 120 -5 201 -5 L260 -5 C288 -5 315 5 339 38 L346 38 L346 -163 Z M212 49 C154 49 129 91 129 141 L129 374 C129 424 154 466 212 466 L248 466 C306 466 344 417 344 367 L344 148 C344 98 306 49 248 49 L212 49 Z " />
<glyph glyph-name="r" unicode="r" horiz-adv-x="347" d="M296 517 C281 519 277 520 249 520 C226 520 178 513 156 448 L149 448 L149 504 C149 511 145 515 138 515 L101 515 C94 515 90 511 90 504 L90 11 C90 4 94 0 101 0 L138 0 C145 0 149 4 149 11 L149 355 C193 456 228 466 253 466 C270 466 283 464 294 463 C301 463 305 467 305 474 L307 506 C307 513 303 516 296 517 L296 517 Z " />
<glyph glyph-name="s" unicode="s" horiz-adv-x="451" d="M191 520 C109 520 67 464 67 396 L67 389 C67 192 331 271 331 141 L331 131 C331 75 294 49 247 49 L208 49 C160 49 124 94 124 141 L124 154 C124 161 120 165 113 165 L76 165 C69 165 65 161 65 154 L65 131 C65 65 110 -5 191 -5 L266 -5 C350 -5 391 51 391 119 L391 133 C391 333 126 249 126 379 L126 389 C126 445 163 466 211 466 L242 466 C290 466 326 421 326 374 L326 361 C326 354 330 350 337 350 L374 350 C381 350 385 354 385 361 L385 384 C385 450 340 520 259 520 L191 520 Z " />
<glyph glyph-name="t" unicode="t" horiz-adv-x="352" d="M291 0 C298 0 302 4 302 11 L302 43 C302 50 298 54 291 54 L285 54 C240 54 190 96 190 144 L190 461 L291 461 C298 461 302 465 302 472 L302 504 C302 511 298 515 291 515 L190 515 L190 689 C190 696 186 700 179 700 L142 700 C135 700 131 696 131 689 L131 515 L56 515 C49 515 45 511 45 504 L45 472 C45 465 49 461 56 461 L131 461 L131 144 C131 71 183 0 265 0 L291 0 Z " />
<glyph glyph-name="u" unicode="u" horiz-adv-x="480" d="M400 504 C400 511 396 515 389 515 L352 515 C345 515 341 511 341 504 L341 141 C341 94 304 49 257 49 L223 49 C176 49 139 94 139 141 L139 504 C139 511 135 515 128 515 L91 515 C84 515 80 511 80 504 L80 131 C80 65 122 -5 203 -5 L277 -5 C358 -5 400 65 400 131 L400 504 Z " />
<glyph glyph-name="v" unicode="v" horiz-adv-x="437" d="M259 0 C266 0 269 3 271 9 L402 504 C402 511 398 515 391 515 L354 515 C347 515 344 511 342 504 L224 58 L213 58 L95 504 C93 511 90 515 83 515 L46 515 C39 515 35 511 35 504 L166 9 C168 3 171 0 178 0 L259 0 Z " />
<glyph glyph-name="w" unicode="w" horiz-adv-x="640" d="M288 515 C282 515 278 511 277 505 L183 95 L96 504 C94 511 91 515 84 515 L46 515 C39 515 35 511 35 504 L143 10 C145 4 147 0 154 0 L214 0 C221 0 223 4 225 10 L320 431 L415 10 C417 4 419 0 426 0 L486 0 C493 0 495 4 497 10 L605 504 C605 511 601 515 594 515 L556 515 C549 515 546 511 544 504 L457 95 L363 505 C362 511 358 515 352 515 L288 515 Z " />
<glyph glyph-name="x" unicode="x" horiz-adv-x="418" d="M174 286 L102 504 C99 511 96 515 89 515 L53 515 C46 515 42 511 42 504 L122 258 L40 11 C40 4 44 0 51 0 L89 0 C96 0 99 4 102 11 L174 232 L244 232 L316 11 C319 4 322 0 329 0 L367 0 C374 0 378 4 378 11 L296 258 L376 504 C376 511 372 515 365 515 L329 515 C322 515 319 511 316 504 L244 286 L174 286 Z " />
<glyph glyph-name="y" unicode="y" horiz-adv-x="437" d="M181 -49 C171 -100 139 -149 74 -149 L51 -149 C44 -149 40 -153 40 -160 L40 -192 C40 -199 44 -203 51 -203 L91 -203 C132 -203 216 -201 266 -11 L402 504 C402 511 398 515 391 515 L354 515 C347 515 344 511 342 504 L224 58 L213 58 L95 504 C93 511 90 515 83 515 L46 515 C39 515 35 511 35 504 L181 -49 Z " />
<glyph glyph-name="z" unicode="z" horiz-adv-x="413" d="M130 54 L351 460 C352 462 353 465 353 467 L353 504 C353 511 349 515 342 515 L71 515 C64 515 60 511 60 504 L60 472 C60 465 64 461 71 461 L285 461 L62 54 C61 52 60 49 60 47 L60 11 C60 4 64 0 71 0 L342 0 C349 0 353 4 353 11 L353 43 C353 50 349 54 342 54 L130 54 Z " />
<glyph glyph-name="braceleft" unicode="&#x7b;" horiz-adv-x="482" d="M216 313 C255 353 282 402 282 440 L282 640 C282 698 328 748 381 751 C388 751 392 755 392 762 L392 794 C392 801 388 805 381 805 L376 805 C292 805 223 738 223 656 L223 449 C223 385 170 340 116 340 L101 340 C94 340 90 336 90 329 L90 298 C90 291 94 287 101 287 L116 287 C170 287 223 242 223 178 L223 -29 C223 -111 292 -178 376 -178 L381 -178 C388 -178 392 -174 392 -167 L392 -135 C392 -128 388 -124 381 -124 C328 -121 282 -71 282 -13 L282 187 C282 225 255 273 216 313 L216 313 Z " />
<glyph glyph-name="bar" unicode="&#x7c;" horiz-adv-x="239" d="M90 -167 C90 -174 94 -178 101 -178 L138 -178 C145 -178 149 -174 149 -167 L149 794 C149 801 145 805 138 805 L101 805 C94 805 90 801 90 794 L90 -167 Z " />
<glyph glyph-name="braceright" unicode="&#x7d;" horiz-adv-x="482" d="M266 313 C227 273 200 225 200 187 L200 -13 C200 -71 154 -121 101 -124 C94 -124 90 -128 90 -135 L90 -167 C90 -174 94 -178 101 -178 L106 -178 C190 -178 259 -111 259 -29 L259 178 C259 242 312 287 366 287 L381 287 C388 287 392 291 392 298 L392 329 C392 336 388 340 381 340 L366 340 C312 340 259 385 259 449 L259 656 C259 738 190 805 106 805 L101 805 C94 805 90 801 90 794 L90 762 C90 755 94 751 101 751 C154 748 200 698 200 640 L200 440 C200 402 227 353 266 313 L266 313 Z " />
<glyph glyph-name="asciitilde" unicode="&#x7e;" horiz-adv-x="376" d="M238 178 C248 178 264 184 280 191 C284 193 286 197 286 201 L277 232 C276 236 273 238 269 238 C258 238 249 232 234 232 C190 232 194 262 138 262 C128 262 112 256 96 249 C92 247 90 243 90 239 L99 208 C100 204 103 202 107 202 C118 202 127 208 142 208 C185 208 182 178 238 178 L238 178 Z " />
<glyph glyph-name="uni00A0" unicode="&#xa0;" horiz-adv-x="198" d="" />
<glyph glyph-name="exclamdown" unicode="&#xa1;" horiz-adv-x="239" d="M90 11 C90 4 94 0 101 0 L138 0 C145 0 149 4 149 11 L149 433 L144 528 C144 535 140 539 133 539 L106 539 C99 539 95 535 95 528 L90 433 L90 11 Z M90 629 C90 622 94 618 101 618 L138 618 C145 618 149 622 149 629 L149 689 C149 696 145 700 138 700 L101 700 C94 700 90 696 90 689 L90 629 Z " />
<glyph glyph-name="cent" unicode="&#xa2;" horiz-adv-x="573" d="M251 -126 C251 -133 255 -137 262 -137 L299 -137 C306 -137 310 -133 310 -126 L310 -5 L338 -5 C423 -5 483 62 483 144 L483 196 C483 203 479 207 472 207 L435 207 C428 207 424 203 424 196 L424 160 C424 93 393 49 325 49 L248 49 C180 49 149 93 149 160 L149 541 C149 608 180 651 248 651 L325 651 C393 651 424 608 424 541 L424 504 C424 497 428 493 435 493 L472 493 C479 493 483 497 483 504 L483 556 C483 638 423 705 338 705 L310 705 L310 821 C310 828 306 832 299 832 L262 832 C255 832 251 828 251 821 L251 705 L235 705 C150 705 90 638 90 556 L90 144 C90 62 150 -5 235 -5 L251 -5 L251 -126 Z " />
<glyph glyph-name="sterling" unicode="&#xa3;" horiz-adv-x="578" d="M227 554 C227 604 252 646 310 646 L346 646 C404 646 429 604 429 554 L429 539 C429 532 433 528 440 528 L477 528 C484 528 488 532 488 539 L488 564 C488 630 446 700 365 700 L291 700 C210 700 168 630 168 564 L168 364 L101 364 C94 364 90 360 90 353 L90 321 C90 314 94 310 101 310 L168 310 L168 54 L101 54 C94 54 90 50 90 43 L90 11 C90 4 94 0 101 0 L470 0 C477 0 481 4 481 11 L481 43 C481 50 477 54 470 54 L227 54 L227 310 L313 310 C320 310 324 314 324 321 L324 353 C324 360 320 364 313 364 L227 364 L227 554 Z " />
<glyph glyph-name="currency" unicode="&#xa4;" horiz-adv-x="490" d="M383 154 L383 235 C383 252 377 276 364 298 L400 378 C400 384 395 389 389 389 L349 389 C342 389 340 386 337 380 L315 333 C306 337 296 337 285 338 L205 338 C194 337 184 337 175 333 L153 380 C150 386 148 389 141 389 L101 389 C95 389 90 384 90 378 L126 298 C113 276 107 252 107 235 L107 154 C107 137 113 113 126 91 L90 11 C90 5 95 0 101 0 L141 0 C148 0 150 3 153 9 L175 56 C184 52 194 52 205 51 L285 51 C296 52 306 52 315 56 L337 9 C340 3 342 0 349 0 L389 0 C395 0 400 5 400 11 L364 91 C377 113 383 137 383 154 L383 154 Z M166 231 C166 268 181 285 221 285 L269 285 C309 285 324 268 324 231 L324 158 C324 121 309 104 269 104 L221 104 C181 104 166 121 166 158 L166 231 Z " />
<glyph glyph-name="yen" unicode="&#xa5;" horiz-adv-x="617" d="M449 86 C456 86 460 90 460 97 L460 129 C460 136 456 140 449 140 L338 140 L338 216 L363 280 L449 280 C456 280 460 284 460 291 L460 323 C460 330 456 334 449 334 L385 334 L527 689 C527 696 523 700 516 700 L475 700 C468 700 466 696 463 689 L311 308 L306 308 L154 689 C151 696 149 700 142 700 L101 700 C94 700 90 696 90 689 L232 334 L168 334 C161 334 157 330 157 323 L157 291 C157 284 161 280 168 280 L253 280 L279 216 L279 140 L168 140 C161 140 157 136 157 129 L157 97 C157 90 161 86 168 86 L279 86 L279 11 C279 4 283 0 290 0 L327 0 C334 0 338 4 338 11 L338 86 L449 86 Z " />
<glyph glyph-name="brokenbar" unicode="&#xa6;" horiz-adv-x="239" d="M90 403 C90 396 94 392 101 392 L138 392 C145 392 149 396 149 403 L149 794 C149 801 145 805 138 805 L101 805 C94 805 90 801 90 794 L90 403 Z M90 -167 C90 -174 94 -178 101 -178 L138 -178 C145 -178 149 -174 149 -167 L149 224 C149 231 145 235 138 235 L101 235 C94 235 90 231 90 224 L90 -167 Z " />
<glyph glyph-name="section" unicode="&#xa7;" horiz-adv-x="506" d="M416 299 L416 313 C416 514 151 430 151 559 L151 569 C151 625 188 646 236 646 L267 646 C315 646 351 601 351 554 L351 541 C351 534 355 530 362 530 L399 530 C406 530 410 534 410 541 L410 564 C410 630 365 700 284 700 L216 700 C134 700 92 644 92 576 L92 569 C92 519 113 487 143 465 C111 442 92 406 92 365 L92 358 C92 160 356 239 356 110 L356 100 C356 44 319 18 272 18 L233 18 C185 18 149 63 149 110 L149 123 C149 130 145 134 138 134 L101 134 C94 134 90 130 90 123 L90 100 C90 34 135 -36 216 -36 L291 -36 C375 -36 416 20 416 88 L416 102 C416 149 398 181 370 203 C400 226 416 261 416 299 L416 299 Z M356 311 C356 283 345 262 327 249 C321 245 319 241 309 241 C304 241 300 242 296 243 C204 270 151 274 151 348 L151 358 C151 389 156 409 177 421 C183 425 195 428 205 428 C210 428 214 427 218 426 C278 409 356 398 356 321 L356 311 Z " />
<glyph glyph-name="dieresis" unicode="&#xa8;" horiz-adv-x="382" d="M90 640 C90 633 94 629 101 629 L147 629 C154 629 158 633 158 640 L158 689 C158 696 154 700 147 700 L101 700 C94 700 90 696 90 689 L90 640 Z M224 640 C224 633 228 629 235 629 L281 629 C288 629 292 633 292 640 L292 689 C292 696 288 700 281 700 L235 700 C228 700 224 696 224 689 L224 640 Z " />
<glyph glyph-name="copyright" unicode="&#xa9;" horiz-adv-x="892" d="M533 256 C533 228 506 203 477 203 L411 203 C383 203 355 229 355 257 L355 436 C355 465 383 490 411 490 L477 490 C506 490 533 465 533 436 L533 415 C533 409 536 406 542 406 L581 406 C587 406 590 409 590 415 L590 434 C590 488 549 541 485 541 L402 541 C337 541 298 488 298 434 L298 258 C298 206 337 152 402 152 L485 152 C549 152 590 206 590 259 L590 278 C590 284 587 287 581 287 L542 287 C536 287 533 284 533 278 L533 256 Z M446 699 C251 699 90 539 90 344 C90 148 251 -11 446 -11 C641 -11 802 148 802 344 C802 539 641 699 446 699 L446 699 Z M446 651 C617 651 750 515 750 344 C750 173 617 38 446 38 C275 38 142 173 142 344 C142 515 275 651 446 651 L446 651 Z " />
<glyph glyph-name="ordfeminine" unicode="&#xaa;" horiz-adv-x="404" d="M140 498 C140 526 156 536 179 536 L264 536 L264 493 C264 466 240 460 215 460 L186 460 C164 460 140 466 140 493 L140 498 Z M126 647 C147 651 165 654 186 654 C246 654 264 626 264 602 L264 582 L170 582 C125 582 90 554 90 509 L90 487 C90 444 125 414 170 414 L215 414 C224 414 244 420 258 437 L263 437 L263 424 C263 421 266 418 269 418 L308 418 C311 418 314 421 314 424 L314 602 C314 627 297 700 197 700 C159 700 133 696 117 692 C115 691 113 690 113 687 L119 651 C120 647 123 647 126 647 L126 647 Z " />
<glyph glyph-name="guillemotleft" unicode="&#xab;" horiz-adv-x="681" d="M163 248 L163 267 L288 479 C288 485 284 489 278 489 L233 489 C227 489 223 484 220 479 L90 261 L90 254 L220 10 C223 5 227 0 233 0 L278 0 C284 0 288 4 288 10 L163 248 Z M466 248 L466 267 L591 479 C591 485 587 489 581 489 L536 489 C530 489 526 484 523 479 L393 261 L393 254 L523 10 C526 5 530 0 536 0 L581 0 C587 0 591 4 591 10 L466 248 Z " />
<glyph glyph-name="logicalnot" unicode="&#xac;" horiz-adv-x="493" d="M403 264 C403 271 399 275 392 275 L101 275 C94 275 90 271 90 264 L90 232 C90 225 94 221 101 221 L344 221 L344 78 C344 71 348 67 355 67 L392 67 C399 67 403 71 403 78 L403 264 Z " />
<glyph glyph-name="uni00AD" unicode="&#xad;" horiz-adv-x="198" d="" />
<glyph glyph-name="registered" unicode="&#xae;" horiz-adv-x="892" d="M446 699 C251 699 90 539 90 344 C90 148 251 -11 446 -11 C641 -11 802 148 802 344 C802 539 641 699 446 699 L446 699 Z M446 651 C617 651 750 515 750 344 C750 173 617 38 446 38 C275 38 142 173 142 344 C142 515 275 651 446 651 L446 651 Z M371 335 L371 486 L472 486 C501 486 527 458 527 427 L527 392 C527 358 498 335 469 335 L371 335 Z M524 290 C559 307 584 346 584 387 L584 428 C584 490 547 541 472 541 L323 541 C317 541 314 538 314 532 L314 161 C314 155 317 152 323 152 L362 152 C368 152 371 155 371 161 L371 279 L472 279 L528 161 C531 156 534 152 540 152 L576 152 C582 152 585 155 585 161 L524 290 Z " />
<glyph glyph-name="macron" unicode="&#xaf;" horiz-adv-x="344" d="M243 646 C250 646 254 650 254 657 L254 689 C254 696 250 700 243 700 L101 700 C94 700 90 696 90 689 L90 657 C90 650 94 646 101 646 L243 646 Z " />
<glyph glyph-name="degree" unicode="&#xb0;" horiz-adv-x="410" d="M320 636 C320 700 269 751 205 751 C141 751 90 700 90 636 C90 572 141 521 205 521 C269 521 320 572 320 636 L320 636 Z M272 636 C272 597 243 569 205 569 C168 569 139 597 139 636 C139 675 168 703 205 703 C243 703 272 675 272 636 L272 636 Z " />
<glyph glyph-name="plusminus" unicode="&#xb1;" horiz-adv-x="395" d="M294 305 C301 305 305 309 305 316 L305 348 C305 355 301 359 294 359 L227 359 L227 479 C227 486 223 490 216 490 L179 490 C172 490 168 486 168 479 L168 359 L101 359 C94 359 90 355 90 348 L90 316 C90 309 94 305 101 305 L168 305 L168 182 C168 175 172 171 179 171 L216 171 C223 171 227 175 227 182 L227 305 L294 305 Z M101 54 C94 54 90 50 90 43 L90 11 C90 4 94 0 101 0 L294 0 C301 0 305 4 305 11 L305 43 C305 50 301 54 294 54 L101 54 Z " />
<glyph glyph-name="twosuperior" unicode="&#xb2;" horiz-adv-x="370" d="M96 616 C96 613 99 610 102 610 L141 610 C144 610 147 613 147 616 C147 642 154 654 183 654 L190 654 C220 654 224 640 224 621 L224 615 C224 534 90 590 90 467 L90 423 C90 420 93 417 96 417 L274 417 C277 417 280 420 280 423 L280 457 C280 460 277 463 274 463 L145 463 C145 548 275 492 275 612 L275 627 C275 661 248 700 214 700 L156 700 C123 700 96 674 96 641 L96 616 Z " />
<glyph glyph-name="threesuperior" unicode="&#xb3;" horiz-adv-x="359" d="M218 497 C218 478 214 464 184 464 L177 464 C148 464 141 476 141 502 C141 505 138 508 135 508 L96 508 C93 508 90 505 90 502 L90 477 C90 444 117 418 150 418 L208 418 C242 418 269 457 269 491 L269 502 C269 529 264 545 233 558 C262 576 269 589 269 616 L269 627 C269 661 242 700 208 700 L150 700 C117 700 90 674 90 641 L90 616 C90 613 93 610 96 610 L135 610 C138 610 141 613 141 616 C141 642 148 654 177 654 L184 654 C214 654 218 640 218 621 L218 612 C218 590 206 581 178 581 L164 581 C161 581 158 578 158 575 L158 541 C158 538 161 535 164 535 L178 535 C206 535 218 525 218 503 L218 497 Z " />
<glyph glyph-name="acute" unicode="&#xb4;" horiz-adv-x="288" d="M138 574 C145 574 148 578 152 586 L198 688 C198 696 194 700 187 700 L150 700 C143 700 140 696 136 688 L90 586 C90 578 94 574 102 574 L138 574 Z " />
<glyph glyph-name="mu" unicode="&#xb5;" horiz-adv-x="500" d="M90 -163 C90 -170 94 -174 101 -174 L138 -174 C145 -174 149 -170 149 -163 L149 13 C166 2 188 -5 213 -5 L287 -5 C368 -5 410 65 410 131 L410 504 C410 511 406 515 399 515 L362 515 C355 515 351 511 351 504 L351 141 C351 94 314 49 267 49 L233 49 C186 49 149 94 149 141 L149 504 C149 511 145 515 138 515 L101 515 C94 515 90 511 90 504 L90 -163 Z " />
<glyph glyph-name="paragraph" unicode="&#xb6;" horiz-adv-x="677" d="M248 700 C161 700 90 633 90 551 L90 427 C90 345 161 278 248 278 L352 278 L352 11 C352 4 356 0 363 0 L400 0 C407 0 411 4 411 11 L411 646 L528 646 L528 11 C528 4 532 0 539 0 L576 0 C583 0 587 4 587 11 L587 689 C587 696 583 700 576 700 L248 700 Z " />
<glyph glyph-name="periodcentered" unicode="&#xb7;" horiz-adv-x="248" d="M90 194 C90 187 94 183 101 183 L147 183 C154 183 158 187 158 194 L158 243 C158 250 154 254 147 254 L101 254 C94 254 90 250 90 243 L90 194 Z " />
<glyph glyph-name="cedilla" unicode="&#xb8;" horiz-adv-x="312" d="M97 -63 C95 -67 95 -73 95 -73 L95 -96 C95 -100 98 -103 102 -103 L151 -103 C151 -103 186 -103 186 -133 C186 -161 151 -161 151 -161 L97 -161 C93 -161 90 -163 90 -168 L90 -188 C90 -192 93 -195 97 -195 L162 -195 C202 -195 222 -179 222 -127 C222 -88 188 -69 148 -69 L136 -69 L167 -6 C167 0 165 1 161 1 L136 1 C132 1 130 -1 128 -4 L97 -63 Z " />
<glyph glyph-name="onesuperior" unicode="&#xb9;" horiz-adv-x="370" d="M221 694 C221 697 218 700 215 700 L166 700 L96 678 C93 677 90 674 90 671 L90 635 C90 632 93 629 96 629 L170 652 L170 464 L107 464 C104 464 101 461 101 458 L101 424 C101 421 104 418 107 418 L274 418 C277 418 280 421 280 424 L280 458 C280 461 277 464 274 464 L221 464 L221 694 Z " />
<glyph glyph-name="ordmasculine" unicode="&#xba;" horiz-adv-x="410" d="M320 636 C320 700 269 751 205 751 C141 751 90 700 90 636 C90 572 141 521 205 521 C269 521 320 572 320 636 L320 636 Z M272 636 C272 597 243 569 205 569 C168 569 139 597 139 636 C139 675 168 703 205 703 C243 703 272 675 272 636 L272 636 Z " />
<glyph glyph-name="guillemotright" unicode="&#xbb;" horiz-adv-x="681" d="M393 10 C393 4 397 0 403 0 L448 0 C454 0 458 5 461 10 L591 254 L591 261 L461 479 C458 484 454 489 448 489 L403 489 C397 489 393 485 393 479 L518 267 L518 248 L393 10 Z M90 10 C90 4 94 0 100 0 L145 0 C151 0 155 5 158 10 L288 254 L288 261 L158 479 C155 484 151 489 145 489 L100 489 C94 489 90 485 90 479 L215 267 L215 248 L90 10 Z " />
<glyph glyph-name="onequarter" unicode="&#xbc;" horiz-adv-x="771" d="M603 698 C602 699 600 700 598 700 L549 700 C545 700 542 697 539 691 L188 2 C189 1 191 0 193 0 L242 0 C246 0 249 3 252 8 L603 698 Z M221 694 C221 697 218 700 215 700 L166 700 L96 678 C93 677 90 674 90 671 L90 635 C90 632 93 629 96 629 L170 652 L170 464 L107 464 C104 464 101 461 101 458 L101 424 C101 421 104 418 107 418 L274 418 C277 418 280 421 280 424 L280 458 C280 461 277 464 274 464 L221 464 L221 694 Z M444 77 L444 45 C444 42 447 39 450 39 L598 39 L598 6 C598 3 601 0 604 0 L643 0 C646 0 649 3 649 6 L649 39 L675 39 C678 39 681 42 681 45 L681 79 C681 82 678 85 675 85 L649 85 L649 164 C649 167 646 170 643 170 L604 170 C601 170 598 167 598 164 L598 85 L502 85 L583 276 C583 280 580 283 576 283 L538 283 C535 283 531 280 529 276 L444 77 Z " />
<glyph glyph-name="onehalf" unicode="&#xbd;" horiz-adv-x="746" d="M600 698 C599 699 597 700 595 700 L546 700 C542 700 539 697 536 691 L185 2 C186 1 188 0 190 0 L239 0 C243 0 246 3 249 8 L600 698 Z M221 694 C221 697 218 700 215 700 L166 700 L96 678 C93 677 90 674 90 671 L90 635 C90 632 93 629 96 629 L170 652 L170 464 L107 464 C104 464 101 461 101 458 L101 424 C101 421 104 418 107 418 L274 418 C277 418 280 421 280 424 L280 458 C280 461 277 464 274 464 L221 464 L221 694 Z M472 199 C472 196 475 193 478 193 L517 193 C520 193 523 196 523 199 C523 225 530 237 559 237 L566 237 C596 237 600 223 600 204 L600 198 C600 117 466 173 466 50 L466 6 C466 3 469 0 472 0 L650 0 C653 0 656 3 656 6 L656 40 C656 43 653 46 650 46 L521 46 C521 131 651 75 651 195 L651 210 C651 244 624 283 590 283 L532 283 C499 283 472 257 472 224 L472 199 Z " />
<glyph glyph-name="threequarters" unicode="&#xbe;" horiz-adv-x="734" d="M573 698 C572 699 570 700 568 700 L519 700 C515 700 512 697 509 691 L158 2 C159 1 161 0 163 0 L212 0 C216 0 219 3 222 8 L573 698 Z M407 77 L407 45 C407 42 410 39 413 39 L561 39 L561 6 C561 3 564 0 567 0 L606 0 C609 0 612 3 612 6 L612 39 L638 39 C641 39 644 42 644 45 L644 79 C644 82 641 85 638 85 L612 85 L612 164 C612 167 609 170 606 170 L567 170 C564 170 561 167 561 164 L561 85 L465 85 L546 276 C546 280 543 283 539 283 L501 283 C498 283 494 280 492 276 L407 77 Z M218 497 C218 478 214 464 184 464 L177 464 C148 464 141 476 141 502 C141 505 138 508 135 508 L96 508 C93 508 90 505 90 502 L90 477 C90 444 117 418 150 418 L208 418 C242 418 269 457 269 491 L269 502 C269 529 264 545 233 558 C262 576 269 589 269 616 L269 627 C269 661 242 700 208 700 L150 700 C117 700 90 674 90 641 L90 616 C90 613 93 610 96 610 L135 610 C138 610 141 613 141 616 C141 642 148 654 177 654 L184 654 C214 654 218 640 218 621 L218 612 C218 590 206 581 178 581 L164 581 C161 581 158 578 158 575 L158 541 C158 538 161 535 164 535 L178 535 C206 535 218 525 218 503 L218 497 Z " />
<glyph glyph-name="questiondown" unicode="&#xbf;" horiz-adv-x="562" d="M341 533 C341 540 337 544 330 544 L293 544 C286 544 282 540 282 533 L282 521 C282 301 90 462 90 195 L90 148 C90 67 150 0 235 0 L326 0 C411 0 472 67 472 148 L472 196 C472 203 468 207 461 207 L424 207 C417 207 413 203 413 196 L413 164 C413 97 382 54 314 54 L248 54 C180 54 149 97 149 164 L149 195 C149 421 341 254 341 516 L341 533 Z M341 694 C341 701 337 705 330 705 L293 705 C286 705 282 701 282 694 L282 634 C282 627 286 623 293 623 L330 623 C337 623 341 627 341 634 L341 694 Z " />
<glyph glyph-name="Agrave" unicode="&#xc0;" horiz-adv-x="552" d="M289 751 C297 751 301 755 301 763 L255 865 C251 873 248 877 241 877 L204 877 C197 877 193 873 193 865 L239 763 C243 755 246 751 253 751 L289 751 Z M238 700 C232 700 229 697 227 692 L45 11 C45 4 49 0 56 0 L94 0 C101 0 104 4 106 11 L140 138 L412 138 L446 11 C448 4 451 0 458 0 L496 0 C503 0 507 4 507 11 L325 692 C323 697 320 700 314 700 L238 700 Z M271 629 L281 629 L398 191 L154 191 L271 629 Z " />
<glyph glyph-name="Aacute" unicode="&#xc1;" horiz-adv-x="552" d="M297 751 C304 751 307 755 311 763 L357 865 C357 873 353 877 346 877 L309 877 C302 877 299 873 295 865 L249 763 C249 755 253 751 261 751 L297 751 Z M238 700 C232 700 229 697 227 692 L45 11 C45 4 49 0 56 0 L94 0 C101 0 104 4 106 11 L140 138 L412 138 L446 11 C448 4 451 0 458 0 L496 0 C503 0 507 4 507 11 L325 692 C323 697 320 700 314 700 L238 700 Z M271 629 L281 629 L398 191 L154 191 L271 629 Z " />
<glyph glyph-name="Acircumflex" unicode="&#xc2;" horiz-adv-x="552" d="M247 894 C241 894 237 890 234 883 L173 759 C173 754 176 751 181 751 L219 751 C222 751 225 755 227 759 L275 854 L323 759 C325 755 328 751 331 751 L369 751 C374 751 377 754 377 759 L316 883 C313 890 309 894 303 894 L247 894 Z M238 700 C232 700 229 697 227 692 L45 11 C45 4 49 0 56 0 L94 0 C101 0 104 4 106 11 L140 138 L412 138 L446 11 C448 4 451 0 458 0 L496 0 C503 0 507 4 507 11 L325 692 C323 697 320 700 314 700 L238 700 Z M271 629 L281 629 L398 191 L154 191 L271 629 Z " />
<glyph glyph-name="Atilde" unicode="&#xc3;" horiz-adv-x="552" d="M238 700 C232 700 229 697 227 692 L45 11 C45 4 49 0 56 0 L94 0 C101 0 104 4 106 11 L140 138 L412 138 L446 11 C448 4 451 0 458 0 L496 0 C503 0 507 4 507 11 L325 692 C323 697 320 700 314 700 L238 700 Z M271 629 L281 629 L398 191 L154 191 L271 629 Z M325 751 C335 751 351 757 367 764 C371 766 373 770 373 774 L364 805 C363 809 360 811 356 811 C345 811 336 805 321 805 C277 805 281 835 225 835 C215 835 199 829 183 822 C179 820 177 816 177 812 L186 781 C187 777 190 775 194 775 C205 775 214 781 229 781 C272 781 269 751 325 751 L325 751 Z " />
<glyph glyph-name="Adieresis" unicode="&#xc4;" horiz-adv-x="552" d="M174 762 C174 755 178 751 185 751 L231 751 C238 751 242 755 242 762 L242 811 C242 818 238 822 231 822 L185 822 C178 822 174 818 174 811 L174 762 Z M308 762 C308 755 312 751 319 751 L365 751 C372 751 376 755 376 762 L376 811 C376 818 372 822 365 822 L319 822 C312 822 308 818 308 811 L308 762 Z M238 700 C232 700 229 697 227 692 L45 11 C45 4 49 0 56 0 L94 0 C101 0 104 4 106 11 L140 138 L412 138 L446 11 C448 4 451 0 458 0 L496 0 C503 0 507 4 507 11 L325 692 C323 697 320 700 314 700 L238 700 Z M271 629 L281 629 L398 191 L154 191 L271 629 Z " />
<glyph glyph-name="Aring" unicode="&#xc5;" horiz-adv-x="552" d="M391 767 C391 831 340 882 276 882 C212 882 161 831 161 767 C161 723 184 685 220 666 L45 11 C45 4 49 0 56 0 L94 0 C101 0 104 4 106 11 L140 138 L412 138 L446 11 C448 4 451 0 458 0 L496 0 C503 0 507 4 507 11 L332 666 C367 685 391 723 391 767 L391 767 Z M271 629 L281 629 L398 191 L154 191 L271 629 Z M343 767 C343 728 314 700 276 700 C239 700 210 728 210 767 C210 806 239 834 276 834 C314 834 343 806 343 767 L343 767 Z " />
<glyph glyph-name="AE" unicode="&#xc6;" horiz-adv-x="829" d="M436 187 L177 187 L371 646 L436 646 L436 187 Z M40 11 C40 4 44 0 51 0 L90 0 C97 0 100 5 103 11 L154 133 L436 133 L436 11 C436 4 440 0 447 0 L738 0 C745 0 749 4 749 11 L749 43 C749 50 745 54 738 54 L495 54 L495 310 L712 310 C719 310 723 314 723 321 L723 353 C723 360 719 364 712 364 L495 364 L495 646 L738 646 C745 646 749 650 749 657 L749 689 C749 696 745 700 738 700 L339 700 C333 700 328 695 326 691 L40 11 Z " />
<glyph glyph-name="Ccedilla" unicode="&#xc7;" horiz-adv-x="538" d="M229 -63 C227 -67 227 -73 227 -73 L227 -96 C227 -100 230 -103 234 -103 L283 -103 C283 -103 318 -103 318 -133 C318 -161 283 -161 283 -161 L229 -161 C225 -161 222 -163 222 -168 L222 -188 C222 -192 225 -195 229 -195 L294 -195 C334 -195 354 -179 354 -127 C354 -88 320 -69 280 -69 L268 -69 L299 -5 L328 -5 C413 -5 473 62 473 144 L473 196 C473 203 469 207 462 207 L425 207 C418 207 414 203 414 196 L414 160 C414 93 383 49 315 49 L238 49 C170 49 139 93 139 160 L139 541 C139 608 170 651 238 651 L315 651 C383 651 414 608 414 541 L414 504 C414 497 418 493 425 493 L462 493 C469 493 473 497 473 504 L473 556 C473 638 413 705 328 705 L225 705 C140 705 80 638 80 556 L80 144 C80 62 140 -5 225 -5 L259 -5 L229 -63 Z " />
<glyph glyph-name="Egrave" unicode="&#xc8;" horiz-adv-x="483" d="M270 751 C278 751 282 755 282 763 L236 865 C232 873 229 877 222 877 L185 877 C178 877 174 873 174 865 L220 763 C224 755 227 751 234 751 L270 751 Z M90 11 C90 4 94 0 101 0 L392 0 C399 0 403 4 403 11 L403 43 C403 50 399 54 392 54 L149 54 L149 310 L366 310 C373 310 377 314 377 321 L377 353 C377 360 373 364 366 364 L149 364 L149 646 L392 646 C399 646 403 650 403 657 L403 689 C403 696 399 700 392 700 L101 700 C94 700 90 696 90 689 L90 11 Z " />
<glyph glyph-name="Eacute" unicode="&#xc9;" horiz-adv-x="483" d="M264 751 C271 751 274 755 278 763 L324 865 C324 873 320 877 313 877 L276 877 C269 877 266 873 262 865 L216 763 C216 755 220 751 228 751 L264 751 Z M90 11 C90 4 94 0 101 0 L392 0 C399 0 403 4 403 11 L403 43 C403 50 399 54 392 54 L149 54 L149 310 L366 310 C373 310 377 314 377 321 L377 353 C377 360 373 364 366 364 L149 364 L149 646 L392 646 C399 646 403 650 403 657 L403 689 C403 696 399 700 392 700 L101 700 C94 700 90 696 90 689 L90 11 Z " />
<glyph glyph-name="Ecircumflex" unicode="&#xca;" horiz-adv-x="483" d="M220 894 C214 894 210 890 207 883 L146 759 C146 754 149 751 154 751 L192 751 C195 751 198 755 200 759 L248 854 L296 759 C298 755 301 751 304 751 L342 751 C347 751 350 754 350 759 L289 883 C286 890 282 894 276 894 L220 894 Z M90 11 C90 4 94 0 101 0 L392 0 C399 0 403 4 403 11 L403 43 C403 50 399 54 392 54 L149 54 L149 310 L366 310 C373 310 377 314 377 321 L377 353 C377 360 373 364 366 364 L149 364 L149 646 L392 646 C399 646 403 650 403 657 L403 689 C403 696 399 700 392 700 L101 700 C94 700 90 696 90 689 L90 11 Z " />
<glyph glyph-name="Edieresis" unicode="&#xcb;" horiz-adv-x="483" d="M143 762 C143 755 147 751 154 751 L200 751 C207 751 211 755 211 762 L211 811 C211 818 207 822 200 822 L154 822 C147 822 143 818 143 811 L143 762 Z M277 762 C277 755 281 751 288 751 L334 751 C341 751 345 755 345 762 L345 811 C345 818 341 822 334 822 L288 822 C281 822 277 818 277 811 L277 762 Z M90 11 C90 4 94 0 101 0 L392 0 C399 0 403 4 403 11 L403 43 C403 50 399 54 392 54 L149 54 L149 310 L366 310 C373 310 377 314 377 321 L377 353 C377 360 373 364 366 364 L149 364 L149 646 L392 646 C399 646 403 650 403 657 L403 689 C403 696 399 700 392 700 L101 700 C94 700 90 696 90 689 L90 11 Z " />
<glyph glyph-name="Igrave" unicode="&#xcc;" horiz-adv-x="239" d="M137 751 C145 751 149 755 149 763 L103 865 C99 873 96 877 89 877 L52 877 C45 877 41 873 41 865 L87 763 C91 755 94 751 101 751 L137 751 Z M149 689 C149 692 148 695 146 697 C144 699 142 700 138 700 L101 700 C97 700 95 699 93 697 C91 695 90 692 90 689 L90 11 C90 8 91 5 93 3 C95 1 97 0 101 0 L138 0 C142 0 144 1 146 3 C148 5 149 8 149 11 L149 689 Z " />
<glyph glyph-name="Iacute" unicode="&#xcd;" horiz-adv-x="239" d="M143 751 C150 751 153 755 157 763 L203 865 C203 873 199 877 192 877 L155 877 C148 877 145 873 141 865 L95 763 C95 755 99 751 107 751 L143 751 Z M149 689 C149 692 148 695 146 697 C144 699 142 700 138 700 L101 700 C97 700 95 699 93 697 C91 695 90 692 90 689 L90 11 C90 8 91 5 93 3 C95 1 97 0 101 0 L138 0 C142 0 144 1 146 3 C148 5 149 8 149 11 L149 689 Z " />
<glyph glyph-name="Icircumflex" unicode="&#xce;" horiz-adv-x="239" d="M91 894 C85 894 81 890 78 883 L17 759 C17 754 20 751 25 751 L63 751 C66 751 69 755 71 759 L119 854 L167 759 C169 755 172 751 175 751 L213 751 C218 751 221 754 221 759 L160 883 C157 890 153 894 147 894 L91 894 Z M149 689 C149 692 148 695 146 697 C144 699 142 700 138 700 L101 700 C97 700 95 699 93 697 C91 695 90 692 90 689 L90 11 C90 8 91 5 93 3 C95 1 97 0 101 0 L138 0 C142 0 144 1 146 3 C148 5 149 8 149 11 L149 689 Z " />
<glyph glyph-name="Idieresis" unicode="&#xcf;" horiz-adv-x="239" d="M33 762 C33 755 37 751 44 751 L90 751 C97 751 101 755 101 762 L101 811 C101 818 97 822 90 822 L44 822 C37 822 33 818 33 811 L33 762 Z M138 762 C138 755 142 751 149 751 L195 751 C202 751 206 755 206 762 L206 811 C206 818 202 822 195 822 L149 822 C142 822 138 818 138 811 L138 762 Z M149 689 C149 692 148 695 146 697 C144 699 142 700 138 700 L101 700 C97 700 95 699 93 697 C91 695 90 692 90 689 L90 11 C90 8 91 5 93 3 C95 1 97 0 101 0 L138 0 C142 0 144 1 146 3 C148 5 149 8 149 11 L149 689 Z " />
<glyph glyph-name="Eth" unicode="&#xd0;" horiz-adv-x="584" d="M122 700 C115 700 111 696 111 689 L111 378 L41 378 C34 378 30 374 30 367 L30 335 C30 328 34 324 41 324 L111 324 L111 11 C111 4 115 0 122 0 L349 0 C434 0 504 67 504 149 L504 551 C504 633 434 700 349 700 L122 700 Z M170 54 L170 324 L247 324 C254 324 258 328 258 335 L258 367 C258 374 254 378 247 378 L170 378 L170 646 L337 646 C405 646 446 602 446 535 L446 165 C446 98 405 54 337 54 L170 54 Z " />
<glyph glyph-name="Ntilde" unicode="&#xd1;" horiz-adv-x="605" d="M448 101 L181 689 C178 695 173 700 166 700 L101 700 C94 700 90 696 90 689 L90 11 C90 4 94 0 101 0 L138 0 C145 0 149 4 149 11 L149 598 L157 598 L425 11 C428 5 433 0 440 0 L504 0 C511 0 515 4 515 11 L515 689 C515 696 511 700 504 700 L467 700 C460 700 456 696 456 689 L456 101 L448 101 Z M353 751 C363 751 379 757 395 764 C399 766 401 770 401 774 L392 805 C391 809 388 811 384 811 C373 811 364 805 349 805 C305 805 309 835 253 835 C243 835 227 829 211 822 C207 820 205 816 205 812 L214 781 C215 777 218 775 222 775 C233 775 242 781 257 781 C300 781 297 751 353 751 L353 751 Z " />
<glyph glyph-name="Ograve" unicode="&#xd2;" horiz-adv-x="553" d="M290 751 C298 751 302 755 302 763 L256 865 C252 873 249 877 242 877 L205 877 C198 877 194 873 194 865 L240 763 C244 755 247 751 254 751 L290 751 Z M328 705 L225 705 C140 705 80 638 80 556 L80 144 C80 62 140 -5 225 -5 L328 -5 C413 -5 473 62 473 144 L473 556 C473 638 413 705 328 705 L328 705 Z M414 160 C414 93 383 49 315 49 L238 49 C170 49 139 93 139 160 L139 541 C139 608 170 651 238 651 L315 651 C383 651 414 608 414 541 L414 160 Z " />
<glyph glyph-name="Oacute" unicode="&#xd3;" horiz-adv-x="553" d="M302 751 C309 751 312 755 316 763 L362 865 C362 873 358 877 351 877 L314 877 C307 877 304 873 300 865 L254 763 C254 755 258 751 266 751 L302 751 Z M328 705 L225 705 C140 705 80 638 80 556 L80 144 C80 62 140 -5 225 -5 L328 -5 C413 -5 473 62 473 144 L473 556 C473 638 413 705 328 705 L328 705 Z M414 160 C414 93 383 49 315 49 L238 49 C170 49 139 93 139 160 L139 541 C139 608 170 651 238 651 L315 651 C383 651 414 608 414 541 L414 160 Z " />
<glyph glyph-name="Ocircumflex" unicode="&#xd4;" horiz-adv-x="553" d="M248 894 C242 894 238 890 235 883 L174 759 C174 754 177 751 182 751 L220 751 C223 751 226 755 228 759 L276 854 L324 759 C326 755 329 751 332 751 L370 751 C375 751 378 754 378 759 L317 883 C314 890 310 894 304 894 L248 894 Z M328 705 L225 705 C140 705 80 638 80 556 L80 144 C80 62 140 -5 225 -5 L328 -5 C413 -5 473 62 473 144 L473 556 C473 638 413 705 328 705 L328 705 Z M414 160 C414 93 383 49 315 49 L238 49 C170 49 139 93 139 160 L139 541 C139 608 170 651 238 651 L315 651 C383 651 414 608 414 541 L414 160 Z " />
<glyph glyph-name="Otilde" unicode="&#xd5;" horiz-adv-x="553" d="M328 705 L225 705 C140 705 80 638 80 556 L80 144 C80 62 140 -5 225 -5 L328 -5 C413 -5 473 62 473 144 L473 556 C473 638 413 705 328 705 L328 705 Z M414 160 C414 93 383 49 315 49 L238 49 C170 49 139 93 139 160 L139 541 C139 608 170 651 238 651 L315 651 C383 651 414 608 414 541 L414 160 Z M331 751 C341 751 357 757 373 764 C377 766 379 770 379 774 L370 805 C369 809 366 811 362 811 C351 811 342 805 327 805 C283 805 287 835 231 835 C221 835 205 829 189 822 C185 820 183 816 183 812 L192 781 C193 777 196 775 200 775 C211 775 220 781 235 781 C278 781 275 751 331 751 L331 751 Z " />
<glyph glyph-name="Odieresis" unicode="&#xd6;" horiz-adv-x="553" d="M175 762 C175 755 179 751 186 751 L232 751 C239 751 243 755 243 762 L243 811 C243 818 239 822 232 822 L186 822 C179 822 175 818 175 811 L175 762 Z M309 762 C309 755 313 751 320 751 L366 751 C373 751 377 755 377 762 L377 811 C377 818 373 822 366 822 L320 822 C313 822 309 818 309 811 L309 762 Z M328 705 L225 705 C140 705 80 638 80 556 L80 144 C80 62 140 -5 225 -5 L328 -5 C413 -5 473 62 473 144 L473 556 C473 638 413 705 328 705 L328 705 Z M414 160 C414 93 383 49 315 49 L238 49 C170 49 139 93 139 160 L139 541 C139 608 170 651 238 651 L315 651 C383 651 414 608 414 541 L414 160 Z " />
<glyph glyph-name="multiply" unicode="&#xd7;" horiz-adv-x="400" d="M200 143 L274 68 C277 65 279 65 280 65 C282 65 284 66 286 68 L307 89 C309 91 310 93 310 95 C310 97 309 99 307 101 L233 174 L307 247 C309 249 310 251 310 253 C310 255 309 257 307 259 L286 280 C284 282 282 283 280 283 C279 283 277 283 274 280 L200 205 L126 280 C123 283 121 283 120 283 C118 283 116 282 114 280 L93 259 C91 257 90 255 90 253 C90 251 91 249 93 247 L167 174 L93 101 C91 99 90 97 90 95 C90 93 91 91 93 89 L114 68 C116 66 118 65 120 65 C121 65 123 65 126 68 L200 143 Z " />
<glyph glyph-name="Oslash" unicode="&#xd8;" horiz-adv-x="553" d="M108 -82 C108 -88 111 -91 117 -91 L157 -91 C163 -91 166 -88 168 -82 L193 -2 C203 -4 214 -5 225 -5 L328 -5 C413 -5 473 62 473 144 L473 556 C473 607 450 652 412 679 L445 782 C445 788 442 791 436 791 L396 791 C390 791 387 788 385 782 L359 702 C349 704 339 705 328 705 L225 705 C140 705 80 638 80 556 L80 144 C80 93 103 48 141 21 L108 -82 Z M414 160 C414 93 383 49 315 49 L238 49 C228 49 219 50 210 52 L392 618 C407 599 414 573 414 541 L414 160 Z M139 160 L139 541 C139 608 170 651 238 651 L315 651 C324 651 334 650 342 648 L160 82 C146 101 139 128 139 160 L139 160 Z " />
<glyph glyph-name="Ugrave" unicode="&#xd9;" horiz-adv-x="563" d="M295 751 C303 751 307 755 307 763 L261 865 C257 873 254 877 247 877 L210 877 C203 877 199 873 199 865 L245 763 C249 755 252 751 259 751 L295 751 Z M478 689 C478 696 474 700 467 700 L430 700 C423 700 419 696 419 689 L419 160 C419 93 388 49 320 49 L243 49 C175 49 144 93 144 160 L144 689 C144 696 140 700 133 700 L96 700 C89 700 85 696 85 689 L85 144 C85 62 145 -5 230 -5 L333 -5 C418 -5 478 62 478 144 L478 689 Z " />
<glyph glyph-name="Uacute" unicode="&#xda;" horiz-adv-x="563" d="M304 751 C311 751 314 755 318 763 L364 865 C364 873 360 877 353 877 L316 877 C309 877 306 873 302 865 L256 763 C256 755 260 751 268 751 L304 751 Z M478 689 C478 696 474 700 467 700 L430 700 C423 700 419 696 419 689 L419 160 C419 93 388 49 320 49 L243 49 C175 49 144 93 144 160 L144 689 C144 696 140 700 133 700 L96 700 C89 700 85 696 85 689 L85 144 C85 62 145 -5 230 -5 L333 -5 C418 -5 478 62 478 144 L478 689 Z " />
<glyph glyph-name="Ucircumflex" unicode="&#xdb;" horiz-adv-x="563" d="M253 894 C247 894 243 890 240 883 L179 759 C179 754 182 751 187 751 L225 751 C228 751 231 755 233 759 L281 854 L329 759 C331 755 334 751 337 751 L375 751 C380 751 383 754 383 759 L322 883 C319 890 315 894 309 894 L253 894 Z M478 689 C478 696 474 700 467 700 L430 700 C423 700 419 696 419 689 L419 160 C419 93 388 49 320 49 L243 49 C175 49 144 93 144 160 L144 689 C144 696 140 700 133 700 L96 700 C89 700 85 696 85 689 L85 144 C85 62 145 -5 230 -5 L333 -5 C418 -5 478 62 478 144 L478 689 Z " />
<glyph glyph-name="Udieresis" unicode="&#xdc;" horiz-adv-x="563" d="M180 762 C180 755 184 751 191 751 L237 751 C244 751 248 755 248 762 L248 811 C248 818 244 822 237 822 L191 822 C184 822 180 818 180 811 L180 762 Z M314 762 C314 755 318 751 325 751 L371 751 C378 751 382 755 382 762 L382 811 C382 818 378 822 371 822 L325 822 C318 822 314 818 314 811 L314 762 Z M478 689 C478 696 474 700 467 700 L430 700 C423 700 419 696 419 689 L419 160 C419 93 388 49 320 49 L243 49 C175 49 144 93 144 160 L144 689 C144 696 140 700 133 700 L96 700 C89 700 85 696 85 689 L85 144 C85 62 145 -5 230 -5 L333 -5 C418 -5 478 62 478 144 L478 689 Z " />
<glyph glyph-name="Yacute" unicode="&#xdd;" horiz-adv-x="517" d="M278 751 C285 751 288 755 292 763 L338 865 C338 873 334 877 327 877 L290 877 C283 877 280 873 276 865 L230 763 C230 755 234 751 242 751 L278 751 Z M261 308 L256 308 L104 689 C101 696 99 700 92 700 L51 700 C44 700 40 696 40 689 L229 216 L229 11 C229 4 233 0 240 0 L277 0 C284 0 288 4 288 11 L288 216 L477 689 C477 696 473 700 466 700 L425 700 C418 700 416 696 413 689 L261 308 Z " />
<glyph glyph-name="Thorn" unicode="&#xde;" horiz-adv-x="550" d="M149 165 L149 534 L314 534 C370 534 421 482 421 423 L421 275 C421 212 370 165 314 165 L149 165 Z M90 11 C90 4 94 0 101 0 L138 0 C145 0 149 4 149 11 L149 111 L323 111 C409 111 480 178 480 261 L480 439 C480 521 409 588 323 588 L149 588 L149 689 C149 696 145 700 138 700 L101 700 C94 700 90 696 90 689 L90 11 Z " />
<glyph glyph-name="germandbls" unicode="&#xdf;" horiz-adv-x="534" d="M314 0 C402 0 474 69 474 153 L474 227 C474 272 448 325 377 362 C422 390 441 458 441 489 L441 548 C441 632 369 700 281 700 L101 700 C94 700 90 696 90 689 L90 11 C90 4 94 0 101 0 L138 0 C145 0 149 4 149 11 L149 646 L271 646 C327 646 382 592 382 533 L382 494 C382 430 327 381 271 381 L207 381 C200 381 196 377 196 370 L196 338 C196 331 200 327 207 327 L307 327 C362 327 415 275 415 214 L415 166 C415 102 362 54 307 54 L237 54 C230 54 226 50 226 43 L226 11 C226 4 230 0 237 0 L314 0 Z " />
<glyph glyph-name="agrave" unicode="&#xe0;" horiz-adv-x="466" d="M264 571 C272 571 276 575 276 583 L230 685 C226 693 223 697 216 697 L179 697 C172 697 168 693 168 685 L214 583 C218 575 221 571 228 571 L264 571 Z M204 49 C154 49 129 84 129 133 L129 165 C129 215 154 248 204 248 L332 248 L332 133 C332 84 300 49 251 49 L204 49 Z M131 451 C177 461 194 466 226 466 C332 466 332 379 332 336 L332 302 L201 302 C121 302 70 252 70 166 L70 123 C70 38 121 -5 201 -5 L237 -5 C276 -5 303 7 324 34 L332 34 L332 11 C332 4 336 0 343 0 L380 0 C387 0 391 4 391 11 L391 342 C391 387 388 520 236 520 C166 520 148 512 118 504 C114 502 112 500 112 495 C112 495 111 493 120 457 C122 451 126 451 131 451 L131 451 Z " />
<glyph glyph-name="aacute" unicode="&#xe1;" horiz-adv-x="466" d="M274 571 C281 571 284 575 288 583 L334 685 C334 693 330 697 323 697 L286 697 C279 697 276 693 272 685 L226 583 C226 575 230 571 238 571 L274 571 Z M204 49 C154 49 129 84 129 133 L129 165 C129 215 154 248 204 248 L332 248 L332 133 C332 84 300 49 251 49 L204 49 Z M131 451 C177 461 194 466 226 466 C332 466 332 379 332 336 L332 302 L201 302 C121 302 70 252 70 166 L70 123 C70 38 121 -5 201 -5 L237 -5 C276 -5 303 7 324 34 L332 34 L332 11 C332 4 336 0 343 0 L380 0 C387 0 391 4 391 11 L391 342 C391 387 388 520 236 520 C166 520 148 512 118 504 C114 502 112 500 112 495 C112 495 111 493 120 457 C122 451 126 451 131 451 L131 451 Z " />
<glyph glyph-name="acircumflex" unicode="&#xe2;" horiz-adv-x="466" d="M228 714 C222 714 218 710 215 703 L154 579 C154 574 157 571 162 571 L200 571 C203 571 206 575 208 579 L256 674 L304 579 C306 575 309 571 312 571 L350 571 C355 571 358 574 358 579 L297 703 C294 710 290 714 284 714 L228 714 Z M204 49 C154 49 129 84 129 133 L129 165 C129 215 154 248 204 248 L332 248 L332 133 C332 84 300 49 251 49 L204 49 Z M131 451 C177 461 194 466 226 466 C332 466 332 379 332 336 L332 302 L201 302 C121 302 70 252 70 166 L70 123 C70 38 121 -5 201 -5 L237 -5 C276 -5 303 7 324 34 L332 34 L332 11 C332 4 336 0 343 0 L380 0 C387 0 391 4 391 11 L391 342 C391 387 388 520 236 520 C166 520 148 512 118 504 C114 502 112 500 112 495 C112 495 111 493 120 457 C122 451 126 451 131 451 L131 451 Z " />
<glyph glyph-name="atilde" unicode="&#xe3;" horiz-adv-x="466" d="M204 49 C154 49 129 84 129 133 L129 165 C129 215 154 248 204 248 L332 248 L332 133 C332 84 300 49 251 49 L204 49 Z M131 451 C177 461 194 466 226 466 C332 466 332 379 332 336 L332 302 L201 302 C121 302 70 252 70 166 L70 123 C70 38 121 -5 201 -5 L237 -5 C276 -5 303 7 324 34 L332 34 L332 11 C332 4 336 0 343 0 L380 0 C387 0 391 4 391 11 L391 342 C391 387 388 520 236 520 C166 520 148 512 118 504 C114 502 112 500 112 495 C112 495 111 493 120 457 C122 451 126 451 131 451 L131 451 Z M307 571 C317 571 333 577 349 584 C353 586 355 590 355 594 L346 625 C345 629 342 631 338 631 C327 631 318 625 303 625 C259 625 263 655 207 655 C197 655 181 649 165 642 C161 640 159 636 159 632 L168 601 C169 597 172 595 176 595 C187 595 196 601 211 601 C254 601 251 571 307 571 L307 571 Z " />
<glyph glyph-name="adieresis" unicode="&#xe4;" horiz-adv-x="466" d="M156 582 C156 575 160 571 167 571 L213 571 C220 571 224 575 224 582 L224 631 C224 638 220 642 213 642 L167 642 C160 642 156 638 156 631 L156 582 Z M290 582 C290 575 294 571 301 571 L347 571 C354 571 358 575 358 582 L358 631 C358 638 354 642 347 642 L301 642 C294 642 290 638 290 631 L290 582 Z M204 49 C154 49 129 84 129 133 L129 165 C129 215 154 248 204 248 L332 248 L332 133 C332 84 300 49 251 49 L204 49 Z M131 451 C177 461 194 466 226 466 C332 466 332 379 332 336 L332 302 L201 302 C121 302 70 252 70 166 L70 123 C70 38 121 -5 201 -5 L237 -5 C276 -5 303 7 324 34 L332 34 L332 11 C332 4 336 0 343 0 L380 0 C387 0 391 4 391 11 L391 342 C391 387 388 520 236 520 C166 520 148 512 118 504 C114 502 112 500 112 495 C112 495 111 493 120 457 C122 451 126 451 131 451 L131 451 Z " />
<glyph glyph-name="aring" unicode="&#xe5;" horiz-adv-x="466" d="M375 686 C375 750 324 801 260 801 C196 801 145 750 145 686 C145 622 196 571 260 571 C324 571 375 622 375 686 L375 686 Z M327 686 C327 647 298 619 260 619 C223 619 194 647 194 686 C194 725 223 753 260 753 C298 753 327 725 327 686 L327 686 Z M204 49 C154 49 129 84 129 133 L129 165 C129 215 154 248 204 248 L332 248 L332 133 C332 84 300 49 251 49 L204 49 Z M131 451 C177 461 194 466 226 466 C332 466 332 379 332 336 L332 302 L201 302 C121 302 70 252 70 166 L70 123 C70 38 121 -5 201 -5 L237 -5 C276 -5 303 7 324 34 L332 34 L332 11 C332 4 336 0 343 0 L380 0 C387 0 391 4 391 11 L391 342 C391 387 388 520 236 520 C166 520 148 512 118 504 C114 502 112 500 112 495 C112 495 111 493 120 457 C122 451 126 451 131 451 L131 451 Z " />
<glyph glyph-name="ae" unicode="&#xe6;" horiz-adv-x="722" d="M585 73 C568 60 553 49 517 49 L475 49 C429 49 391 92 391 137 L391 229 L641 229 C648 229 652 233 652 240 L652 384 C652 450 610 520 529 520 L455 520 C410 520 377 499 357 469 C334 498 297 520 236 520 C166 520 148 512 118 504 C114 502 112 500 112 495 C112 495 111 493 120 457 C122 451 126 451 131 451 C177 461 194 466 226 466 C318 466 330 399 332 354 L332 302 L201 302 C121 302 70 252 70 166 L70 123 C70 38 121 -5 201 -5 L267 -5 C306 -5 333 12 354 39 L362 39 C383 13 414 -5 455 -5 L517 -5 C517 -5 578 -6 625 39 C627 42 628 43 628 45 C628 48 627 49 624 52 L602 76 C599 79 597 79 596 79 C592 79 587 74 585 73 L585 73 Z M204 49 C154 49 129 84 129 133 L129 165 C129 215 154 248 204 248 L332 248 L332 126 C329 81 297 49 251 49 L204 49 Z M391 374 C391 424 416 466 474 466 L510 466 C568 466 593 424 593 374 L593 283 L391 283 L391 374 Z " />
<glyph glyph-name="ccedilla" unicode="&#xe7;" horiz-adv-x="450" d="M185 -63 C183 -67 183 -73 183 -73 L183 -96 C183 -100 186 -103 190 -103 L239 -103 C239 -103 274 -103 274 -133 C274 -161 239 -161 239 -161 L185 -161 C181 -161 178 -163 178 -168 L178 -188 C178 -192 181 -195 185 -195 L250 -195 C290 -195 310 -179 310 -127 C310 -88 276 -69 236 -69 L224 -69 L256 -5 L272 -5 C353 -5 395 65 395 131 L395 156 C395 163 391 167 384 167 L347 167 C340 167 336 163 336 156 L336 141 C336 94 299 49 252 49 L218 49 C171 49 134 94 134 141 L134 374 C134 424 159 466 217 466 L253 466 C311 466 336 424 336 374 L336 359 C336 352 340 348 347 348 L384 348 C391 348 395 352 395 359 L395 384 C395 450 353 520 272 520 L198 520 C117 520 75 450 75 384 L75 131 C75 65 117 -5 198 -5 L215 -5 L185 -63 Z " />
<glyph glyph-name="egrave" unicode="&#xe8;" horiz-adv-x="465" d="M252 571 C260 571 264 575 264 583 L218 685 C214 693 211 697 204 697 L167 697 C160 697 156 693 156 685 L202 583 C206 575 209 571 216 571 L252 571 Z M328 73 C311 60 296 49 260 49 L218 49 C171 49 134 94 134 141 L134 229 L384 229 C391 229 395 233 395 240 L395 384 C395 450 353 520 272 520 L198 520 C117 520 75 450 75 384 L75 131 C75 65 117 -5 198 -5 L260 -5 C260 -5 321 -6 368 39 C370 42 371 43 371 45 C371 48 370 49 367 52 L345 76 C342 79 340 79 339 79 C335 79 330 74 328 73 L328 73 Z M134 374 C134 424 159 466 217 466 L253 466 C311 466 336 424 336 374 L336 283 L134 283 L134 374 Z " />
<glyph glyph-name="eacute" unicode="&#xe9;" horiz-adv-x="465" d="M253 571 C260 571 263 575 267 583 L313 685 C313 693 309 697 302 697 L265 697 C258 697 255 693 251 685 L205 583 C205 575 209 571 217 571 L253 571 Z M328 73 C311 60 296 49 260 49 L218 49 C171 49 134 94 134 141 L134 229 L384 229 C391 229 395 233 395 240 L395 384 C395 450 353 520 272 520 L198 520 C117 520 75 450 75 384 L75 131 C75 65 117 -5 198 -5 L260 -5 C260 -5 321 -6 368 39 C370 42 371 43 371 45 C371 48 370 49 367 52 L345 76 C342 79 340 79 339 79 C335 79 330 74 328 73 L328 73 Z M134 374 C134 424 159 466 217 466 L253 466 C311 466 336 424 336 374 L336 283 L134 283 L134 374 Z " />
<glyph glyph-name="ecircumflex" unicode="&#xea;" horiz-adv-x="465" d="M207 714 C201 714 197 710 194 703 L133 579 C133 574 136 571 141 571 L179 571 C182 571 185 575 187 579 L235 674 L283 579 C285 575 288 571 291 571 L329 571 C334 571 337 574 337 579 L276 703 C273 710 269 714 263 714 L207 714 Z M328 73 C311 60 296 49 260 49 L218 49 C171 49 134 94 134 141 L134 229 L384 229 C391 229 395 233 395 240 L395 384 C395 450 353 520 272 520 L198 520 C117 520 75 450 75 384 L75 131 C75 65 117 -5 198 -5 L260 -5 C260 -5 321 -6 368 39 C370 42 371 43 371 45 C371 48 370 49 367 52 L345 76 C342 79 340 79 339 79 C335 79 330 74 328 73 L328 73 Z M134 374 C134 424 159 466 217 466 L253 466 C311 466 336 424 336 374 L336 283 L134 283 L134 374 Z " />
<glyph glyph-name="edieresis" unicode="&#xeb;" horiz-adv-x="465" d="M137 582 C137 575 141 571 148 571 L194 571 C201 571 205 575 205 582 L205 631 C205 638 201 642 194 642 L148 642 C141 642 137 638 137 631 L137 582 Z M271 582 C271 575 275 571 282 571 L328 571 C335 571 339 575 339 582 L339 631 C339 638 335 642 328 642 L282 642 C275 642 271 638 271 631 L271 582 Z M328 73 C311 60 296 49 260 49 L218 49 C171 49 134 94 134 141 L134 229 L384 229 C391 229 395 233 395 240 L395 384 C395 450 353 520 272 520 L198 520 C117 520 75 450 75 384 L75 131 C75 65 117 -5 198 -5 L260 -5 C260 -5 321 -6 368 39 C370 42 371 43 371 45 C371 48 370 49 367 52 L345 76 C342 79 340 79 339 79 C335 79 330 74 328 73 L328 73 Z M134 374 C134 424 159 466 217 466 L253 466 C311 466 336 424 336 374 L336 283 L134 283 L134 374 Z " />
<glyph glyph-name="igrave" unicode="&#xec;" horiz-adv-x="239" d="M90 11 C90 4 94 0 101 0 L138 0 C145 0 149 4 149 11 L149 504 C149 511 145 515 138 515 L101 515 C94 515 90 511 90 504 L90 11 Z M137 571 C145 571 149 575 149 583 L103 685 C99 693 96 697 89 697 L52 697 C45 697 41 693 41 685 L87 583 C91 575 94 571 101 571 L137 571 Z " />
<glyph glyph-name="iacute" unicode="&#xed;" horiz-adv-x="239" d="M149 504 C149 511 145 515 138 515 L101 515 C94 515 90 511 90 504 L90 11 C90 4 94 0 101 0 L138 0 C145 0 149 4 149 11 L149 504 Z M138 571 C145 571 148 575 152 583 L198 685 C198 693 194 697 187 697 L150 697 C143 697 140 693 136 685 L90 583 C90 575 94 571 102 571 L138 571 Z " />
<glyph glyph-name="icircumflex" unicode="&#xee;" horiz-adv-x="239" d="M90 11 C90 4 94 0 101 0 L138 0 C145 0 149 4 149 11 L149 504 C149 511 145 515 138 515 L101 515 C94 515 90 511 90 504 L90 11 Z M91 711 C85 711 81 707 78 700 L17 576 C17 571 20 568 25 568 L63 568 C66 568 69 572 71 576 L119 671 L167 576 C169 572 172 568 175 568 L213 568 C218 568 221 571 221 576 L160 700 C157 707 153 711 147 711 L91 711 Z " />
<glyph glyph-name="idieresis" unicode="&#xef;" horiz-adv-x="239" d="M90 11 C90 4 94 0 101 0 L138 0 C145 0 149 4 149 11 L149 504 C149 511 145 515 138 515 L101 515 C94 515 90 511 90 504 L90 11 Z M33 582 C33 575 37 571 44 571 L90 571 C97 571 101 575 101 582 L101 631 C101 638 97 642 90 642 L44 642 C37 642 33 638 33 631 L33 582 Z M138 582 C138 575 142 571 149 571 L195 571 C202 571 206 575 206 582 L206 631 C206 638 202 642 195 642 L149 642 C142 642 138 638 138 631 L138 582 Z " />
<glyph glyph-name="eth" unicode="&#xf0;" horiz-adv-x="544" d="M387 566 C394 566 398 570 398 577 L398 609 C398 616 394 620 387 620 L308 620 L355 690 C355 696 352 700 346 700 L298 700 C293 700 286 695 283 690 L236 620 L122 620 C115 620 111 616 111 609 L111 577 C111 570 115 566 122 566 L199 566 L84 394 C81 388 80 378 80 374 L80 143 C80 62 151 -5 238 -5 L319 -5 C404 -5 474 62 474 143 L474 267 C474 348 404 414 319 414 L245 414 C234 414 200 413 163 391 L153 391 L271 566 L387 566 Z M415 159 C415 92 374 49 306 49 L248 49 C180 49 139 92 139 159 L139 250 C139 317 180 360 248 360 L306 360 C374 360 415 317 415 250 L415 159 Z " />
<glyph glyph-name="ntilde" unicode="&#xf1;" horiz-adv-x="501" d="M90 11 C90 4 94 0 101 0 L138 0 C145 0 149 4 149 11 L149 366 C198 465 249 466 284 466 L292 466 C343 466 362 424 362 356 L362 11 C362 4 366 0 373 0 L410 0 C417 0 421 4 421 11 L421 368 C421 458 386 520 293 520 L265 520 C245 520 190 519 156 455 L149 455 L149 504 C149 511 145 515 138 515 L101 515 C94 515 90 511 90 504 L90 11 Z M311 571 C321 571 337 577 353 584 C357 586 359 590 359 594 L350 625 C349 629 346 631 342 631 C331 631 322 625 307 625 C263 625 267 655 211 655 C201 655 185 649 169 642 C165 640 163 636 163 632 L172 601 C173 597 176 595 180 595 C191 595 200 601 215 601 C258 601 255 571 311 571 L311 571 Z " />
<glyph glyph-name="ograve" unicode="&#xf2;" horiz-adv-x="470" d="M252 571 C260 571 264 575 264 583 L218 685 C214 693 211 697 204 697 L167 697 C160 697 156 693 156 685 L202 583 C206 575 209 571 216 571 L252 571 Z M198 520 C117 520 75 450 75 384 L75 131 C75 65 117 -5 198 -5 L272 -5 C353 -5 395 65 395 131 L395 384 C395 450 353 520 272 520 L198 520 Z M217 49 C159 49 134 91 134 141 L134 374 C134 424 159 466 217 466 L253 466 C311 466 336 424 336 374 L336 141 C336 91 311 49 253 49 L217 49 Z " />
<glyph glyph-name="oacute" unicode="&#xf3;" horiz-adv-x="470" d="M254 571 C261 571 264 575 268 583 L314 685 C314 693 310 697 303 697 L266 697 C259 697 256 693 252 685 L206 583 C206 575 210 571 218 571 L254 571 Z M198 520 C117 520 75 450 75 384 L75 131 C75 65 117 -5 198 -5 L272 -5 C353 -5 395 65 395 131 L395 384 C395 450 353 520 272 520 L198 520 Z M217 49 C159 49 134 91 134 141 L134 374 C134 424 159 466 217 466 L253 466 C311 466 336 424 336 374 L336 141 C336 91 311 49 253 49 L217 49 Z " />
<glyph glyph-name="ocircumflex" unicode="&#xf4;" horiz-adv-x="470" d="M207 714 C201 714 197 710 194 703 L133 579 C133 574 136 571 141 571 L179 571 C182 571 185 575 187 579 L235 674 L283 579 C285 575 288 571 291 571 L329 571 C334 571 337 574 337 579 L276 703 C273 710 269 714 263 714 L207 714 Z M198 520 C117 520 75 450 75 384 L75 131 C75 65 117 -5 198 -5 L272 -5 C353 -5 395 65 395 131 L395 384 C395 450 353 520 272 520 L198 520 Z M217 49 C159 49 134 91 134 141 L134 374 C134 424 159 466 217 466 L253 466 C311 466 336 424 336 374 L336 141 C336 91 311 49 253 49 L217 49 Z " />
<glyph glyph-name="otilde" unicode="&#xf5;" horiz-adv-x="470" d="M198 520 C117 520 75 450 75 384 L75 131 C75 65 117 -5 198 -5 L272 -5 C353 -5 395 65 395 131 L395 384 C395 450 353 520 272 520 L198 520 Z M217 49 C159 49 134 91 134 141 L134 374 C134 424 159 466 217 466 L253 466 C311 466 336 424 336 374 L336 141 C336 91 311 49 253 49 L217 49 Z M279 571 C289 571 305 577 321 584 C325 586 327 590 327 594 L318 625 C317 629 314 631 310 631 C299 631 290 625 275 625 C231 625 235 655 179 655 C169 655 153 649 137 642 C133 640 131 636 131 632 L140 601 C141 597 144 595 148 595 C159 595 168 601 183 601 C226 601 223 571 279 571 L279 571 Z " />
<glyph glyph-name="odieresis" unicode="&#xf6;" horiz-adv-x="470" d="M133 582 C133 575 137 571 144 571 L190 571 C197 571 201 575 201 582 L201 631 C201 638 197 642 190 642 L144 642 C137 642 133 638 133 631 L133 582 Z M267 582 C267 575 271 571 278 571 L324 571 C331 571 335 575 335 582 L335 631 C335 638 331 642 324 642 L278 642 C271 642 267 638 267 631 L267 582 Z M198 520 C117 520 75 450 75 384 L75 131 C75 65 117 -5 198 -5 L272 -5 C353 -5 395 65 395 131 L395 384 C395 450 353 520 272 520 L198 520 Z M217 49 C159 49 134 91 134 141 L134 374 C134 424 159 466 217 466 L253 466 C311 466 336 424 336 374 L336 141 C336 91 311 49 253 49 L217 49 Z " />
<glyph glyph-name="divide" unicode="&#xf7;" horiz-adv-x="431" d="M330 146 C337 146 341 150 341 157 L341 189 C341 196 337 200 330 200 L101 200 C94 200 90 196 90 189 L90 157 C90 150 94 146 101 146 L330 146 Z M185 13 C185 6 189 2 196 2 L236 2 C243 2 247 6 247 13 L247 56 C247 63 243 67 236 67 L196 67 C189 67 185 63 185 56 L185 13 Z M185 284 C185 277 189 273 196 273 L235 273 C242 273 246 277 246 284 L246 327 C246 334 242 338 235 338 L196 338 C189 338 185 334 185 327 L185 284 Z " />
<glyph glyph-name="oslash" unicode="&#xf8;" horiz-adv-x="470" d="M98 -82 C98 -88 101 -91 107 -91 L147 -91 C153 -91 156 -88 158 -82 L183 -4 C188 -4 193 -5 198 -5 L272 -5 C353 -5 395 65 395 131 L395 384 C395 426 377 470 344 496 L376 597 C376 603 373 606 367 606 L327 606 C321 606 318 603 316 597 L291 518 C285 519 278 520 272 520 L198 520 C117 520 75 450 75 384 L75 131 C75 87 93 41 129 16 L98 -82 Z M134 141 L134 374 C134 424 159 466 217 466 L253 466 C260 466 267 465 273 464 L150 81 C139 97 134 118 134 141 L134 141 Z M217 49 C211 49 205 49 200 50 L322 430 C332 414 336 395 336 374 L336 141 C336 91 311 49 253 49 L217 49 Z " />
<glyph glyph-name="ugrave" unicode="&#xf9;" horiz-adv-x="480" d="M257 571 C265 571 269 575 269 583 L223 685 C219 693 216 697 209 697 L172 697 C165 697 161 693 161 685 L207 583 C211 575 214 571 221 571 L257 571 Z M400 504 C400 511 396 515 389 515 L352 515 C345 515 341 511 341 504 L341 141 C341 94 304 49 257 49 L223 49 C176 49 139 94 139 141 L139 504 C139 511 135 515 128 515 L91 515 C84 515 80 511 80 504 L80 131 C80 65 122 -5 203 -5 L277 -5 C358 -5 400 65 400 131 L400 504 Z " />
<glyph glyph-name="uacute" unicode="&#xfa;" horiz-adv-x="480" d="M259 571 C266 571 269 575 273 583 L319 685 C319 693 315 697 308 697 L271 697 C264 697 261 693 257 685 L211 583 C211 575 215 571 223 571 L259 571 Z M400 504 C400 511 396 515 389 515 L352 515 C345 515 341 511 341 504 L341 141 C341 94 304 49 257 49 L223 49 C176 49 139 94 139 141 L139 504 C139 511 135 515 128 515 L91 515 C84 515 80 511 80 504 L80 131 C80 65 122 -5 203 -5 L277 -5 C358 -5 400 65 400 131 L400 504 Z " />
<glyph glyph-name="ucircumflex" unicode="&#xfb;" horiz-adv-x="480" d="M212 714 C206 714 202 710 199 703 L138 579 C138 574 141 571 146 571 L184 571 C187 571 190 575 192 579 L240 674 L288 579 C290 575 293 571 296 571 L334 571 C339 571 342 574 342 579 L281 703 C278 710 274 714 268 714 L212 714 Z M400 504 C400 511 396 515 389 515 L352 515 C345 515 341 511 341 504 L341 141 C341 94 304 49 257 49 L223 49 C176 49 139 94 139 141 L139 504 C139 511 135 515 128 515 L91 515 C84 515 80 511 80 504 L80 131 C80 65 122 -5 203 -5 L277 -5 C358 -5 400 65 400 131 L400 504 Z " />
<glyph glyph-name="udieresis" unicode="&#xfc;" horiz-adv-x="480" d="M138 582 C138 575 142 571 149 571 L195 571 C202 571 206 575 206 582 L206 631 C206 638 202 642 195 642 L149 642 C142 642 138 638 138 631 L138 582 Z M272 582 C272 575 276 571 283 571 L329 571 C336 571 340 575 340 582 L340 631 C340 638 336 642 329 642 L283 642 C276 642 272 638 272 631 L272 582 Z M400 504 C400 511 396 515 389 515 L352 515 C345 515 341 511 341 504 L341 141 C341 94 304 49 257 49 L223 49 C176 49 139 94 139 141 L139 504 C139 511 135 515 128 515 L91 515 C84 515 80 511 80 504 L80 131 C80 65 122 -5 203 -5 L277 -5 C358 -5 400 65 400 131 L400 504 Z " />
<glyph glyph-name="yacute" unicode="&#xfd;" horiz-adv-x="437" d="M243 571 C250 571 253 575 257 583 L303 685 C303 693 299 697 292 697 L255 697 C248 697 245 693 241 685 L195 583 C195 575 199 571 207 571 L243 571 Z M181 -49 C171 -100 139 -149 74 -149 L51 -149 C44 -149 40 -153 40 -160 L40 -192 C40 -199 44 -203 51 -203 L91 -203 C132 -203 216 -201 266 -11 L402 504 C402 511 398 515 391 515 L354 515 C347 515 344 511 342 504 L224 58 L213 58 L95 504 C93 511 90 515 83 515 L46 515 C39 515 35 511 35 504 L181 -49 Z " />
<glyph glyph-name="thorn" unicode="&#xfe;" horiz-adv-x="500" d="M149 38 L156 38 C180 5 207 -5 235 -5 L294 -5 C375 -5 425 54 425 133 L425 382 C425 461 375 520 294 520 L235 520 C207 520 180 510 156 477 L149 477 L149 689 C149 696 145 700 138 700 L101 700 C94 700 90 696 90 689 L90 -163 C90 -170 94 -174 101 -174 L138 -174 C145 -174 149 -170 149 -163 L149 38 Z M247 49 C189 49 151 98 151 148 L151 367 C151 417 189 466 247 466 L283 466 C341 466 366 424 366 374 L366 141 C366 91 341 49 283 49 L247 49 Z " />
<glyph glyph-name="ydieresis" unicode="&#xff;" horiz-adv-x="437" d="M117 582 C117 575 121 571 128 571 L174 571 C181 571 185 575 185 582 L185 631 C185 638 181 642 174 642 L128 642 C121 642 117 638 117 631 L117 582 Z M251 582 C251 575 255 571 262 571 L308 571 C315 571 319 575 319 582 L319 631 C319 638 315 642 308 642 L262 642 C255 642 251 638 251 631 L251 582 Z M181 -49 C171 -100 139 -149 74 -149 L51 -149 C44 -149 40 -153 40 -160 L40 -192 C40 -199 44 -203 51 -203 L91 -203 C132 -203 216 -201 266 -11 L402 504 C402 511 398 515 391 515 L354 515 C347 515 344 511 342 504 L224 58 L213 58 L95 504 C93 511 90 515 83 515 L46 515 C39 515 35 511 35 504 L181 -49 Z " />
<glyph glyph-name="Amacron" unicode="&#x100;" horiz-adv-x="552" d="M346 751 C353 751 357 755 357 762 L357 794 C357 801 353 805 346 805 L204 805 C197 805 193 801 193 794 L193 762 C193 755 197 751 204 751 L346 751 Z M238 700 C232 700 229 697 227 692 L45 11 C45 4 49 0 56 0 L94 0 C101 0 104 4 106 11 L140 138 L412 138 L446 11 C448 4 451 0 458 0 L496 0 C503 0 507 4 507 11 L325 692 C323 697 320 700 314 700 L238 700 Z M271 629 L281 629 L398 191 L154 191 L271 629 Z " />
<glyph glyph-name="amacron" unicode="&#x101;" horiz-adv-x="466" d="M326 571 C333 571 337 575 337 582 L337 614 C337 621 333 625 326 625 L184 625 C177 625 173 621 173 614 L173 582 C173 575 177 571 184 571 L326 571 Z M204 49 C154 49 129 84 129 133 L129 165 C129 215 154 248 204 248 L332 248 L332 133 C332 84 300 49 251 49 L204 49 Z M131 451 C177 461 194 466 226 466 C332 466 332 379 332 336 L332 302 L201 302 C121 302 70 252 70 166 L70 123 C70 38 121 -5 201 -5 L237 -5 C276 -5 303 7 324 34 L332 34 L332 11 C332 4 336 0 343 0 L380 0 C387 0 391 4 391 11 L391 342 C391 387 388 520 236 520 C166 520 148 512 118 504 C114 502 112 500 112 495 C112 495 111 493 120 457 C122 451 126 451 131 451 L131 451 Z " />
<glyph glyph-name="Abreve" unicode="&#x102;" horiz-adv-x="552" d="M238 700 C232 700 229 697 227 692 L45 11 C45 4 49 0 56 0 L94 0 C101 0 104 4 106 11 L140 138 L412 138 L446 11 C448 4 451 0 458 0 L496 0 C503 0 507 4 507 11 L325 692 C323 697 320 700 314 700 L238 700 Z M271 629 L281 629 L398 191 L154 191 L271 629 Z M276 751 C352 751 377 794 395 858 C395 863 391 867 386 867 L344 867 C339 867 336 863 334 858 C320 822 310 799 276 799 C242 799 232 822 218 858 C216 863 213 867 208 867 L166 867 C161 867 157 863 157 858 C175 794 200 751 276 751 L276 751 Z " />
<glyph glyph-name="abreve" unicode="&#x103;" horiz-adv-x="466" d="M204 49 C154 49 129 84 129 133 L129 165 C129 215 154 248 204 248 L332 248 L332 133 C332 84 300 49 251 49 L204 49 Z M131 451 C177 461 194 466 226 466 C332 466 332 379 332 336 L332 302 L201 302 C121 302 70 252 70 166 L70 123 C70 38 121 -5 201 -5 L237 -5 C276 -5 303 7 324 34 L332 34 L332 11 C332 4 336 0 343 0 L380 0 C387 0 391 4 391 11 L391 342 C391 387 388 520 236 520 C166 520 148 512 118 504 C114 502 112 500 112 495 C112 495 111 493 120 457 C122 451 126 451 131 451 L131 451 Z M252 571 C328 571 353 614 371 678 C371 683 367 687 362 687 L320 687 C315 687 312 683 310 678 C296 642 286 619 252 619 C218 619 208 642 194 678 C192 683 189 687 184 687 L142 687 C137 687 133 683 133 678 C151 614 176 571 252 571 L252 571 Z " />
<glyph glyph-name="Aogonek" unicode="&#x104;" horiz-adv-x="552" d="M271 629 L281 629 L398 191 L154 191 L271 629 Z M439 34 L427 34 C387 34 361 -3 361 -37 C361 -89 391 -109 437 -109 L485 -109 C489 -109 492 -106 492 -102 L492 -82 C492 -77 489 -75 485 -75 L431 -75 C431 -75 396 -75 396 -38 C396 0 431 0 431 0 L496 0 C503 0 507 4 507 11 L325 692 C323 697 320 700 314 700 L238 700 C232 700 229 697 227 692 L45 11 C45 4 49 0 56 0 L94 0 C101 0 104 4 106 11 L140 138 L412 138 L439 34 Z " />
<glyph glyph-name="aogonek" unicode="&#x105;" horiz-adv-x="466" d="M204 49 C154 49 129 84 129 133 L129 165 C129 215 154 248 204 248 L332 248 L332 133 C332 84 300 49 251 49 L204 49 Z M332 -19 C299 -24 274 -47 274 -80 C274 -132 304 -144 345 -144 L382 -144 C386 -144 389 -141 389 -137 L389 -117 C389 -112 386 -110 382 -110 L345 -110 C345 -110 310 -110 310 -82 C310 -52 345 -52 345 -52 L384 -52 C388 -52 391 -49 391 -45 L391 342 C391 387 388 520 236 520 C166 520 148 512 118 504 C114 502 112 500 112 495 C112 495 111 493 120 457 C122 451 126 451 131 451 C177 461 194 466 226 466 C332 466 332 379 332 336 L332 302 L201 302 C121 302 70 252 70 166 L70 123 C70 38 121 -5 201 -5 L237 -5 C276 -5 303 7 324 34 L332 34 L332 -19 Z " />
<glyph glyph-name="Cacute" unicode="&#x106;" horiz-adv-x="538" d="M302 751 C309 751 312 755 316 763 L362 865 C362 873 358 877 351 877 L314 877 C307 877 304 873 300 865 L254 763 C254 755 258 751 266 751 L302 751 Z M414 160 C414 93 383 49 315 49 L238 49 C170 49 139 93 139 160 L139 541 C139 608 170 651 238 651 L315 651 C383 651 414 608 414 541 L414 504 C414 497 418 493 425 493 L462 493 C469 493 473 497 473 504 L473 556 C473 638 413 705 328 705 L225 705 C140 705 80 638 80 556 L80 144 C80 62 140 -5 225 -5 L328 -5 C413 -5 473 62 473 144 L473 196 C473 203 469 207 462 207 L425 207 C418 207 414 203 414 196 L414 160 Z " />
<glyph glyph-name="cacute" unicode="&#x107;" horiz-adv-x="450" d="M264 571 C271 571 274 575 278 583 L324 685 C324 693 320 697 313 697 L276 697 C269 697 266 693 262 685 L216 583 C216 575 220 571 228 571 L264 571 Z M395 156 C395 163 391 167 384 167 L347 167 C340 167 336 163 336 156 L336 141 C336 94 299 49 252 49 L218 49 C171 49 134 94 134 141 L134 374 C134 424 159 466 217 466 L253 466 C311 466 336 424 336 374 L336 359 C336 352 340 348 347 348 L384 348 C391 348 395 352 395 359 L395 384 C395 450 353 520 272 520 L198 520 C117 520 75 450 75 384 L75 131 C75 65 117 -5 198 -5 L272 -5 C353 -5 395 65 395 131 L395 156 Z " />
<glyph glyph-name="Ccircumflex" unicode="&#x108;" horiz-adv-x="538" d="M250 894 C244 894 240 890 237 883 L176 759 C176 754 179 751 184 751 L222 751 C225 751 228 755 230 759 L278 854 L326 759 C328 755 331 751 334 751 L372 751 C377 751 380 754 380 759 L319 883 C316 890 312 894 306 894 L250 894 Z M414 160 C414 93 383 49 315 49 L238 49 C170 49 139 93 139 160 L139 541 C139 608 170 651 238 651 L315 651 C383 651 414 608 414 541 L414 504 C414 497 418 493 425 493 L462 493 C469 493 473 497 473 504 L473 556 C473 638 413 705 328 705 L225 705 C140 705 80 638 80 556 L80 144 C80 62 140 -5 225 -5 L328 -5 C413 -5 473 62 473 144 L473 196 C473 203 469 207 462 207 L425 207 C418 207 414 203 414 196 L414 160 Z " />
<glyph glyph-name="ccircumflex" unicode="&#x109;" horiz-adv-x="450" d="M205 714 C199 714 195 710 192 703 L131 579 C131 574 134 571 139 571 L177 571 C180 571 183 575 185 579 L233 674 L281 579 C283 575 286 571 289 571 L327 571 C332 571 335 574 335 579 L274 703 C271 710 267 714 261 714 L205 714 Z M395 156 C395 163 391 167 384 167 L347 167 C340 167 336 163 336 156 L336 141 C336 94 299 49 252 49 L218 49 C171 49 134 94 134 141 L134 374 C134 424 159 466 217 466 L253 466 C311 466 336 424 336 374 L336 359 C336 352 340 348 347 348 L384 348 C391 348 395 352 395 359 L395 384 C395 450 353 520 272 520 L198 520 C117 520 75 450 75 384 L75 131 C75 65 117 -5 198 -5 L272 -5 C353 -5 395 65 395 131 L395 156 Z " />
<glyph glyph-name="Cdotaccent" unicode="&#x10a;" horiz-adv-x="538" d="M248 762 C248 755 252 751 259 751 L305 751 C312 751 316 755 316 762 L316 811 C316 818 312 822 305 822 L259 822 C252 822 248 818 248 811 L248 762 Z M414 160 C414 93 383 49 315 49 L238 49 C170 49 139 93 139 160 L139 541 C139 608 170 651 238 651 L315 651 C383 651 414 608 414 541 L414 504 C414 497 418 493 425 493 L462 493 C469 493 473 497 473 504 L473 556 C473 638 413 705 328 705 L225 705 C140 705 80 638 80 556 L80 144 C80 62 140 -5 225 -5 L328 -5 C413 -5 473 62 473 144 L473 196 C473 203 469 207 462 207 L425 207 C418 207 414 203 414 196 L414 160 Z " />
<glyph glyph-name="cdotaccent" unicode="&#x10b;" horiz-adv-x="450" d="M205 582 C205 575 209 571 216 571 L262 571 C269 571 273 575 273 582 L273 631 C273 638 269 642 262 642 L216 642 C209 642 205 638 205 631 L205 582 Z M395 156 C395 163 391 167 384 167 L347 167 C340 167 336 163 336 156 L336 141 C336 94 299 49 252 49 L218 49 C171 49 134 94 134 141 L134 374 C134 424 159 466 217 466 L253 466 C311 466 336 424 336 374 L336 359 C336 352 340 348 347 348 L384 348 C391 348 395 352 395 359 L395 384 C395 450 353 520 272 520 L198 520 C117 520 75 450 75 384 L75 131 C75 65 117 -5 198 -5 L272 -5 C353 -5 395 65 395 131 L395 156 Z " />
<glyph glyph-name="Ccaron" unicode="&#x10c;" horiz-adv-x="538" d="M301 751 C307 751 311 755 314 762 L375 886 C375 891 372 894 367 894 L329 894 C326 894 323 890 321 886 L273 791 L225 886 C223 890 220 894 217 894 L179 894 C174 894 171 891 171 886 L232 762 C235 755 239 751 245 751 L301 751 Z M414 160 C414 93 383 49 315 49 L238 49 C170 49 139 93 139 160 L139 541 C139 608 170 651 238 651 L315 651 C383 651 414 608 414 541 L414 504 C414 497 418 493 425 493 L462 493 C469 493 473 497 473 504 L473 556 C473 638 413 705 328 705 L225 705 C140 705 80 638 80 556 L80 144 C80 62 140 -5 225 -5 L328 -5 C413 -5 473 62 473 144 L473 196 C473 203 469 207 462 207 L425 207 C418 207 414 203 414 196 L414 160 Z " />
<glyph glyph-name="ccaron" unicode="&#x10d;" horiz-adv-x="450" d="M262 571 C268 571 272 575 275 582 L336 706 C336 711 333 714 328 714 L290 714 C287 714 284 710 282 706 L234 611 L186 706 C184 710 181 714 178 714 L140 714 C135 714 132 711 132 706 L193 582 C196 575 200 571 206 571 L262 571 Z M395 156 C395 163 391 167 384 167 L347 167 C340 167 336 163 336 156 L336 141 C336 94 299 49 252 49 L218 49 C171 49 134 94 134 141 L134 374 C134 424 159 466 217 466 L253 466 C311 466 336 424 336 374 L336 359 C336 352 340 348 347 348 L384 348 C391 348 395 352 395 359 L395 384 C395 450 353 520 272 520 L198 520 C117 520 75 450 75 384 L75 131 C75 65 117 -5 198 -5 L272 -5 C353 -5 395 65 395 131 L395 156 Z " />
<glyph glyph-name="Dcaron" unicode="&#x10e;" horiz-adv-x="563" d="M275 751 C281 751 285 755 288 762 L349 886 C349 891 346 894 341 894 L303 894 C300 894 297 890 295 886 L247 791 L199 886 C197 890 194 894 191 894 L153 894 C148 894 145 891 145 886 L206 762 C209 755 213 751 219 751 L275 751 Z M149 54 L149 646 L316 646 C384 646 425 602 425 535 L425 165 C425 98 384 54 316 54 L149 54 Z M101 700 C94 700 90 696 90 689 L90 11 C90 4 94 0 101 0 L328 0 C413 0 483 67 483 149 L483 551 C483 633 413 700 328 700 L101 700 Z " />
<glyph glyph-name="dcaron" unicode="&#x10f;" horiz-adv-x="717" d="M627 574 C634 574 637 578 641 586 L687 688 C687 696 683 700 676 700 L639 700 C632 700 629 696 625 688 L579 586 C579 578 583 574 591 574 L627 574 Z M346 11 C346 4 350 0 357 0 L394 0 C401 0 405 4 405 11 L405 689 C405 696 401 700 394 700 L357 700 C350 700 346 696 346 689 L346 477 L339 477 C315 510 288 520 260 520 L201 520 C120 520 70 461 70 382 L70 133 C70 54 120 -5 201 -5 L260 -5 C288 -5 315 5 339 38 L346 38 L346 11 Z M212 49 C154 49 129 91 129 141 L129 374 C129 424 154 466 212 466 L248 466 C306 466 344 417 344 367 L344 148 C344 98 306 49 248 49 L212 49 Z " />
<glyph glyph-name="Dcroat" unicode="&#x110;" horiz-adv-x="584" d="M122 700 C115 700 111 696 111 689 L111 378 L41 378 C34 378 30 374 30 367 L30 335 C30 328 34 324 41 324 L111 324 L111 11 C111 4 115 0 122 0 L349 0 C434 0 504 67 504 149 L504 551 C504 633 434 700 349 700 L122 700 Z M170 54 L170 324 L247 324 C254 324 258 328 258 335 L258 367 C258 374 254 378 247 378 L170 378 L170 646 L337 646 C405 646 446 602 446 535 L446 165 C446 98 405 54 337 54 L170 54 Z " />
<glyph glyph-name="dcroat" unicode="&#x111;" horiz-adv-x="493" d="M452 577 C459 577 463 581 463 588 L463 620 C463 627 459 631 452 631 L405 631 L405 689 C405 696 401 700 394 700 L357 700 C350 700 346 696 346 689 L346 631 L254 631 C247 631 243 627 243 620 L243 588 C243 581 247 577 254 577 L346 577 L346 477 L339 477 C315 510 288 520 260 520 L201 520 C120 520 70 461 70 382 L70 133 C70 54 120 -5 201 -5 L260 -5 C288 -5 315 5 339 38 L346 38 L346 11 C346 4 350 0 357 0 L394 0 C401 0 405 4 405 11 L405 577 L452 577 Z M212 49 C154 49 129 91 129 141 L129 374 C129 424 154 466 212 466 L248 466 C306 466 344 417 344 367 L344 148 C344 98 306 49 248 49 L212 49 Z " />
<glyph glyph-name="Emacron" unicode="&#x112;" horiz-adv-x="483" d="M342 751 C349 751 353 755 353 762 L353 794 C353 801 349 805 342 805 L136 805 C129 805 125 801 125 794 L125 762 C125 755 129 751 136 751 L342 751 Z M90 11 C90 4 94 0 101 0 L392 0 C399 0 403 4 403 11 L403 43 C403 50 399 54 392 54 L149 54 L149 310 L366 310 C373 310 377 314 377 321 L377 353 C377 360 373 364 366 364 L149 364 L149 646 L392 646 C399 646 403 650 403 657 L403 689 C403 696 399 700 392 700 L101 700 C94 700 90 696 90 689 L90 11 Z " />
<glyph glyph-name="emacron" unicode="&#x113;" horiz-adv-x="465" d="M336 571 C343 571 347 575 347 582 L347 614 C347 621 343 625 336 625 L130 625 C123 625 119 621 119 614 L119 582 C119 575 123 571 130 571 L336 571 Z M328 73 C311 60 296 49 260 49 L218 49 C171 49 134 94 134 141 L134 229 L384 229 C391 229 395 233 395 240 L395 384 C395 450 353 520 272 520 L198 520 C117 520 75 450 75 384 L75 131 C75 65 117 -5 198 -5 L260 -5 C260 -5 321 -6 368 39 C370 42 371 43 371 45 C371 48 370 49 367 52 L345 76 C342 79 340 79 339 79 C335 79 330 74 328 73 L328 73 Z M134 374 C134 424 159 466 217 466 L253 466 C311 466 336 424 336 374 L336 283 L134 283 L134 374 Z " />
<glyph glyph-name="Edotaccent" unicode="&#x116;" horiz-adv-x="483" d="M212 762 C212 755 216 751 223 751 L269 751 C276 751 280 755 280 762 L280 811 C280 818 276 822 269 822 L223 822 C216 822 212 818 212 811 L212 762 Z M90 11 C90 4 94 0 101 0 L392 0 C399 0 403 4 403 11 L403 43 C403 50 399 54 392 54 L149 54 L149 310 L366 310 C373 310 377 314 377 321 L377 353 C377 360 373 364 366 364 L149 364 L149 646 L392 646 C399 646 403 650 403 657 L403 689 C403 696 399 700 392 700 L101 700 C94 700 90 696 90 689 L90 11 Z " />
<glyph glyph-name="edotaccent" unicode="&#x117;" horiz-adv-x="465" d="M201 582 C201 575 205 571 212 571 L258 571 C265 571 269 575 269 582 L269 631 C269 638 265 642 258 642 L212 642 C205 642 201 638 201 631 L201 582 Z M328 73 C311 60 296 49 260 49 L218 49 C171 49 134 94 134 141 L134 229 L384 229 C391 229 395 233 395 240 L395 384 C395 450 353 520 272 520 L198 520 C117 520 75 450 75 384 L75 131 C75 65 117 -5 198 -5 L260 -5 C260 -5 321 -6 368 39 C370 42 371 43 371 45 C371 48 370 49 367 52 L345 76 C342 79 340 79 339 79 C335 79 330 74 328 73 L328 73 Z M134 374 C134 424 159 466 217 466 L253 466 C311 466 336 424 336 374 L336 283 L134 283 L134 374 Z " />
<glyph glyph-name="Eogonek" unicode="&#x118;" horiz-adv-x="483" d="M258 0 C252 -13 247 -34 247 -51 C247 -97 267 -118 307 -118 L372 -118 C376 -118 379 -115 379 -111 L379 -91 C379 -86 376 -84 372 -84 L318 -84 C318 -84 283 -84 283 -51 C283 -27 291 -10 299 0 L392 0 C399 0 403 4 403 11 L403 43 C403 50 399 54 392 54 L149 54 L149 310 L366 310 C373 310 377 314 377 321 L377 353 C377 360 373 364 366 364 L149 364 L149 646 L392 646 C399 646 403 650 403 657 L403 689 C403 696 399 700 392 700 L101 700 C94 700 90 696 90 689 L90 11 C90 4 94 0 101 0 L258 0 Z " />
<glyph glyph-name="eogonek" unicode="&#x119;" horiz-adv-x="465" d="M328 73 C311 60 296 49 260 49 L218 49 C171 49 134 94 134 141 L134 229 L384 229 C391 229 395 233 395 240 L395 384 C395 450 353 520 272 520 L198 520 C117 520 75 450 75 384 L75 131 C75 71 109 7 176 -3 C171 -16 165 -35 165 -51 C165 -97 185 -118 225 -118 L290 -118 C294 -118 297 -115 297 -111 L297 -91 C297 -86 294 -84 290 -84 L236 -84 C236 -84 201 -84 201 -51 C201 -27 209 -15 217 -5 L260 -5 C260 -5 321 -6 368 39 C370 42 371 43 371 45 C371 48 370 49 367 52 L345 76 C342 79 340 79 339 79 C335 79 330 74 328 73 L328 73 Z M134 374 C134 424 159 466 217 466 L253 466 C311 466 336 424 336 374 L336 283 L134 283 L134 374 Z " />
<glyph glyph-name="Ecaron" unicode="&#x11a;" horiz-adv-x="483" d="M274 751 C280 751 284 755 287 762 L348 886 C348 891 345 894 340 894 L302 894 C299 894 296 890 294 886 L246 791 L198 886 C196 890 193 894 190 894 L152 894 C147 894 144 891 144 886 L205 762 C208 755 212 751 218 751 L274 751 Z M90 11 C90 4 94 0 101 0 L392 0 C399 0 403 4 403 11 L403 43 C403 50 399 54 392 54 L149 54 L149 310 L366 310 C373 310 377 314 377 321 L377 353 C377 360 373 364 366 364 L149 364 L149 646 L392 646 C399 646 403 650 403 657 L403 689 C403 696 399 700 392 700 L101 700 C94 700 90 696 90 689 L90 11 Z " />
<glyph glyph-name="ecaron" unicode="&#x11b;" horiz-adv-x="465" d="M265 571 C271 571 275 575 278 582 L339 706 C339 711 336 714 331 714 L293 714 C290 714 287 710 285 706 L237 611 L189 706 C187 710 184 714 181 714 L143 714 C138 714 135 711 135 706 L196 582 C199 575 203 571 209 571 L265 571 Z M328 73 C311 60 296 49 260 49 L218 49 C171 49 134 94 134 141 L134 229 L384 229 C391 229 395 233 395 240 L395 384 C395 450 353 520 272 520 L198 520 C117 520 75 450 75 384 L75 131 C75 65 117 -5 198 -5 L260 -5 C260 -5 321 -6 368 39 C370 42 371 43 371 45 C371 48 370 49 367 52 L345 76 C342 79 340 79 339 79 C335 79 330 74 328 73 L328 73 Z M134 374 C134 424 159 466 217 466 L253 466 C311 466 336 424 336 374 L336 283 L134 283 L134 374 Z " />
<glyph glyph-name="Gcircumflex" unicode="&#x11c;" horiz-adv-x="553" d="M248 894 C242 894 238 890 235 883 L174 759 C174 754 177 751 182 751 L220 751 C223 751 226 755 228 759 L276 854 L324 759 C326 755 329 751 332 751 L370 751 C375 751 378 754 378 759 L317 883 C314 890 310 894 304 894 L248 894 Z M287 370 C280 370 276 366 276 359 L276 327 C276 320 280 316 287 316 L414 316 L414 160 C414 93 383 49 315 49 L238 49 C170 49 139 93 139 160 L139 541 C139 608 170 651 238 651 L315 651 C383 651 414 608 414 541 L414 504 C414 497 418 493 425 493 L462 493 C469 493 473 497 473 504 L473 556 C473 638 413 705 328 705 L225 705 C140 705 80 638 80 556 L80 144 C80 62 140 -5 225 -5 L328 -5 C413 -5 473 62 473 144 L473 359 C473 366 469 370 462 370 L287 370 Z " />
<glyph glyph-name="gcircumflex" unicode="&#x11d;" horiz-adv-x="495" d="M203 714 C197 714 193 710 190 703 L129 579 C129 574 132 571 137 571 L175 571 C178 571 181 575 183 579 L231 674 L279 579 C281 575 284 571 287 571 L325 571 C330 571 333 574 333 579 L272 703 C269 710 265 714 259 714 L203 714 Z M212 49 C154 49 129 91 129 141 L129 374 C129 424 154 466 212 466 L248 466 C306 466 344 417 344 367 L344 148 C344 98 306 49 248 49 L212 49 Z M346 -33 C346 -80 342 -149 233 -149 C179 -149 165 -145 135 -140 C132 -140 128 -140 127 -147 L121 -181 C121 -186 123 -188 128 -190 C159 -198 170 -203 229 -203 C405 -203 405 -80 405 -40 L405 504 C405 511 401 515 394 515 L357 515 C350 515 346 511 346 504 L346 477 L339 477 C315 510 288 520 260 520 L201 520 C120 520 70 461 70 382 L70 133 C70 54 120 -5 201 -5 L260 -5 C288 -5 315 5 339 38 L346 38 L346 -33 Z " />
<glyph glyph-name="Gbreve" unicode="&#x11e;" horiz-adv-x="553" d="M287 370 C280 370 276 366 276 359 L276 327 C276 320 280 316 287 316 L414 316 L414 160 C414 93 383 49 315 49 L238 49 C170 49 139 93 139 160 L139 541 C139 608 170 651 238 651 L315 651 C383 651 414 608 414 541 L414 504 C414 497 418 493 425 493 L462 493 C469 493 473 497 473 504 L473 556 C473 638 413 705 328 705 L225 705 C140 705 80 638 80 556 L80 144 C80 62 140 -5 225 -5 L328 -5 C413 -5 473 62 473 144 L473 359 C473 366 469 370 462 370 L287 370 Z M270 751 C346 751 371 794 389 858 C389 863 385 867 380 867 L338 867 C333 867 330 863 328 858 C314 822 304 799 270 799 C236 799 226 822 212 858 C210 863 207 867 202 867 L160 867 C155 867 151 863 151 858 C169 794 194 751 270 751 L270 751 Z " />
<glyph glyph-name="gbreve" unicode="&#x11f;" horiz-adv-x="495" d="M212 49 C154 49 129 91 129 141 L129 374 C129 424 154 466 212 466 L248 466 C306 466 344 417 344 367 L344 148 C344 98 306 49 248 49 L212 49 Z M346 -33 C346 -80 342 -149 233 -149 C179 -149 165 -145 135 -140 C132 -140 128 -140 127 -147 L121 -181 C121 -186 123 -188 128 -190 C159 -198 170 -203 229 -203 C405 -203 405 -80 405 -40 L405 504 C405 511 401 515 394 515 L357 515 C350 515 346 511 346 504 L346 477 L339 477 C315 510 288 520 260 520 L201 520 C120 520 70 461 70 382 L70 133 C70 54 120 -5 201 -5 L260 -5 C288 -5 315 5 339 38 L346 38 L346 -33 Z M233 571 C309 571 334 614 352 678 C352 683 348 687 343 687 L301 687 C296 687 293 683 291 678 C277 642 267 619 233 619 C199 619 189 642 175 678 C173 683 170 687 165 687 L123 687 C118 687 114 683 114 678 C132 614 157 571 233 571 L233 571 Z " />
<glyph glyph-name="Gdotaccent" unicode="&#x120;" horiz-adv-x="553" d="M242 762 C242 755 246 751 253 751 L299 751 C306 751 310 755 310 762 L310 811 C310 818 306 822 299 822 L253 822 C246 822 242 818 242 811 L242 762 Z M287 370 C280 370 276 366 276 359 L276 327 C276 320 280 316 287 316 L414 316 L414 160 C414 93 383 49 315 49 L238 49 C170 49 139 93 139 160 L139 541 C139 608 170 651 238 651 L315 651 C383 651 414 608 414 541 L414 504 C414 497 418 493 425 493 L462 493 C469 493 473 497 473 504 L473 556 C473 638 413 705 328 705 L225 705 C140 705 80 638 80 556 L80 144 C80 62 140 -5 225 -5 L328 -5 C413 -5 473 62 473 144 L473 359 C473 366 469 370 462 370 L287 370 Z " />
<glyph glyph-name="gdotaccent" unicode="&#x121;" horiz-adv-x="495" d="M202 582 C202 575 206 571 213 571 L259 571 C266 571 270 575 270 582 L270 631 C270 638 266 642 259 642 L213 642 C206 642 202 638 202 631 L202 582 Z M212 49 C154 49 129 91 129 141 L129 374 C129 424 154 466 212 466 L248 466 C306 466 344 417 344 367 L344 148 C344 98 306 49 248 49 L212 49 Z M346 -33 C346 -80 342 -149 233 -149 C179 -149 165 -145 135 -140 C132 -140 128 -140 127 -147 L121 -181 C121 -186 123 -188 128 -190 C159 -198 170 -203 229 -203 C405 -203 405 -80 405 -40 L405 504 C405 511 401 515 394 515 L357 515 C350 515 346 511 346 504 L346 477 L339 477 C315 510 288 520 260 520 L201 520 C120 520 70 461 70 382 L70 133 C70 54 120 -5 201 -5 L260 -5 C288 -5 315 5 339 38 L346 38 L346 -33 Z " />
<glyph glyph-name="uni0122" unicode="&#x122;" horiz-adv-x="553" d="M257 -179 C264 -179 267 -175 271 -167 L317 -65 C317 -57 313 -53 306 -53 L269 -53 C262 -53 259 -57 255 -65 L209 -167 C209 -175 213 -179 221 -179 L257 -179 Z M287 370 C280 370 276 366 276 359 L276 327 C276 320 280 316 287 316 L414 316 L414 160 C414 93 383 49 315 49 L238 49 C170 49 139 93 139 160 L139 541 C139 608 170 651 238 651 L315 651 C383 651 414 608 414 541 L414 504 C414 497 418 493 425 493 L462 493 C469 493 473 497 473 504 L473 556 C473 638 413 705 328 705 L225 705 C140 705 80 638 80 556 L80 144 C80 62 140 -5 225 -5 L328 -5 C413 -5 473 62 473 144 L473 359 C473 366 469 370 462 370 L287 370 Z " />
<glyph glyph-name="uni0123" unicode="&#x123;" horiz-adv-x="495" d="M257 571 C264 571 267 575 271 583 L317 685 C317 693 313 697 306 697 L269 697 C262 697 259 693 255 685 L209 583 C209 575 213 571 221 571 L257 571 Z M212 49 C154 49 129 91 129 141 L129 374 C129 424 154 466 212 466 L248 466 C306 466 344 417 344 367 L344 148 C344 98 306 49 248 49 L212 49 Z M346 -33 C346 -80 342 -149 233 -149 C179 -149 165 -145 135 -140 C132 -140 128 -140 127 -147 L121 -181 C121 -186 123 -188 128 -190 C159 -198 170 -203 229 -203 C405 -203 405 -80 405 -40 L405 504 C405 511 401 515 394 515 L357 515 C350 515 346 511 346 504 L346 477 L339 477 C315 510 288 520 260 520 L201 520 C120 520 70 461 70 382 L70 133 C70 54 120 -5 201 -5 L260 -5 C288 -5 315 5 339 38 L346 38 L346 -33 Z " />
<glyph glyph-name="Hcircumflex" unicode="&#x124;" horiz-adv-x="566" d="M255 894 C249 894 245 890 242 883 L181 759 C181 754 184 751 189 751 L227 751 C230 751 233 755 235 759 L283 854 L331 759 C333 755 336 751 339 751 L377 751 C382 751 385 754 385 759 L324 883 C321 890 317 894 311 894 L255 894 Z M417 11 C417 4 421 0 428 0 L465 0 C472 0 476 4 476 11 L476 689 C476 696 472 700 465 700 L428 700 C421 700 417 696 417 689 L417 363 L149 363 L149 689 C149 696 145 700 138 700 L101 700 C94 700 90 696 90 689 L90 11 C90 4 94 0 101 0 L138 0 C145 0 149 4 149 11 L149 309 L417 309 L417 11 Z " />
<glyph glyph-name="hcircumflex" unicode="&#x125;" horiz-adv-x="501" d="M167 894 C161 894 157 890 154 883 L93 759 C93 754 96 751 101 751 L139 751 C142 751 145 755 147 759 L195 854 L243 759 C245 755 248 751 251 751 L289 751 C294 751 297 754 297 759 L236 883 C233 890 229 894 223 894 L167 894 Z M90 11 C90 4 94 0 101 0 L138 0 C145 0 149 4 149 11 L149 366 C198 465 249 466 284 466 L292 466 C343 466 362 424 362 356 L362 11 C362 4 366 0 373 0 L410 0 C417 0 421 4 421 11 L421 368 C421 458 386 520 293 520 L265 520 C245 520 190 519 156 455 L149 455 L149 689 C149 696 145 700 138 700 L101 700 C94 700 90 696 90 689 L90 11 Z " />
<glyph glyph-name="Hbar" unicode="&#x126;" horiz-adv-x="566" d="M525 490 C532 490 536 494 536 501 L536 533 C536 540 532 544 525 544 L476 544 L476 689 C476 696 472 700 465 700 L428 700 C421 700 417 696 417 689 L417 544 L149 544 L149 689 C149 696 145 700 138 700 L101 700 C94 700 90 696 90 689 L90 544 L41 544 C34 544 30 540 30 533 L30 501 C30 494 34 490 41 490 L90 490 L90 11 C90 4 94 0 101 0 L138 0 C145 0 149 4 149 11 L149 309 L417 309 L417 11 C417 4 421 0 428 0 L465 0 C472 0 476 4 476 11 L476 490 L525 490 Z M149 363 L149 490 L417 490 L417 363 L149 363 Z " />
<glyph glyph-name="hbar" unicode="&#x127;" horiz-adv-x="532" d="M239 577 C246 577 250 581 250 588 L250 620 C250 627 246 631 239 631 L147 631 L147 689 C147 696 143 700 136 700 L99 700 C92 700 88 696 88 689 L88 631 L41 631 C34 631 30 627 30 620 L30 588 C30 581 34 577 41 577 L88 577 L88 11 C88 4 92 0 99 0 L136 0 C143 0 147 4 147 11 L147 366 C196 465 255 466 290 466 L298 466 C349 466 393 424 393 356 L393 11 C393 4 397 0 404 0 L441 0 C448 0 452 4 452 11 L452 368 C452 458 392 520 299 520 L271 520 C251 520 188 519 154 455 L147 455 L147 577 L239 577 Z " />
<glyph glyph-name="Itilde" unicode="&#x128;" horiz-adv-x="239" d="M170 751 C180 751 196 757 212 764 C216 766 218 770 218 774 L209 805 C208 809 205 811 201 811 C190 811 181 805 166 805 C122 805 126 835 70 835 C60 835 44 829 28 822 C24 820 22 816 22 812 L31 781 C32 777 35 775 39 775 C50 775 59 781 74 781 C117 781 114 751 170 751 L170 751 Z M149 689 C149 692 148 695 146 697 C144 699 142 700 138 700 L101 700 C97 700 95 699 93 697 C91 695 90 692 90 689 L90 11 C90 8 91 5 93 3 C95 1 97 0 101 0 L138 0 C142 0 144 1 146 3 C148 5 149 8 149 11 L149 689 Z " />
<glyph glyph-name="itilde" unicode="&#x129;" horiz-adv-x="239" d="M90 11 C90 4 94 0 101 0 L138 0 C145 0 149 4 149 11 L149 504 C149 511 145 515 138 515 L101 515 C94 515 90 511 90 504 L90 11 Z M171 571 C181 571 197 577 213 584 C217 586 219 590 219 594 L210 625 C209 629 206 631 202 631 C191 631 182 625 167 625 C123 625 127 655 71 655 C61 655 45 649 29 642 C25 640 23 636 23 632 L32 601 C33 597 36 595 40 595 C51 595 60 601 75 601 C118 601 115 571 171 571 L171 571 Z " />
<glyph glyph-name="Imacron" unicode="&#x12a;" horiz-adv-x="239" d="M206 751 C213 751 217 755 217 762 L217 794 C217 801 213 805 206 805 L32 805 C25 805 21 801 21 794 L21 762 C21 755 25 751 32 751 L206 751 Z M149 689 C149 692 148 695 146 697 C144 699 142 700 138 700 L101 700 C97 700 95 699 93 697 C91 695 90 692 90 689 L90 11 C90 8 91 5 93 3 C95 1 97 0 101 0 L138 0 C142 0 144 1 146 3 C148 5 149 8 149 11 L149 689 Z " />
<glyph glyph-name="imacron" unicode="&#x12b;" horiz-adv-x="239" d="M90 11 C90 4 94 0 101 0 L138 0 C145 0 149 4 149 11 L149 504 C149 511 145 515 138 515 L101 515 C94 515 90 511 90 504 L90 11 Z M190 571 C197 571 201 575 201 582 L201 614 C201 621 197 625 190 625 L48 625 C41 625 37 621 37 614 L37 582 C37 575 41 571 48 571 L190 571 Z " />
<glyph glyph-name="Iogonek" unicode="&#x12e;" horiz-adv-x="239" d="M149 689 C149 696 145 700 138 700 L101 700 C94 700 90 696 90 689 L90 34 C55 30 33 0 33 -31 C33 -83 63 -93 109 -93 L157 -93 C161 -93 164 -90 164 -86 L164 -66 C164 -61 161 -59 157 -59 L103 -59 C103 -59 68 -59 68 -32 C68 1 102 0 102 0 L138 0 C145 0 149 4 149 11 L149 689 Z " />
<glyph glyph-name="iogonek" unicode="&#x12f;" horiz-adv-x="239" d="M87 589 C87 582 91 578 98 578 L141 578 C148 578 152 582 152 589 L152 657 C152 664 148 668 141 668 L98 668 C91 668 87 664 87 657 L87 589 Z M90 34 C55 30 33 0 33 -31 C33 -83 63 -93 109 -93 L157 -93 C161 -93 164 -90 164 -86 L164 -66 C164 -61 161 -59 157 -59 L103 -59 C103 -59 68 -59 68 -32 C68 1 102 0 102 0 L138 0 C145 0 149 4 149 11 L149 504 C149 511 145 515 138 515 L101 515 C94 515 90 511 90 504 L90 34 Z " />
<glyph glyph-name="Idotaccent" unicode="&#x130;" horiz-adv-x="239" d="M90 11 C90 4 94 0 101 0 L138 0 C145 0 149 4 149 11 L149 560 C149 567 145 571 138 571 L101 571 C94 571 90 567 90 560 L90 11 Z M87 645 C87 638 91 634 98 634 L141 634 C148 634 152 638 152 645 L152 713 C152 720 148 724 141 724 L98 724 C91 724 87 720 87 713 L87 645 Z " />
<glyph glyph-name="dotlessi" unicode="&#x131;" horiz-adv-x="239" d="M90 11 C90 4 94 0 101 0 L138 0 C145 0 149 4 149 11 L149 504 C149 511 145 515 138 515 L101 515 C94 515 90 511 90 504 L90 11 Z " />
<glyph glyph-name="Jcircumflex" unicode="&#x134;" horiz-adv-x="386" d="M186 894 C180 894 176 890 173 883 L112 759 C112 754 115 751 120 751 L158 751 C161 751 164 755 166 759 L214 854 L262 759 C264 755 267 751 270 751 L308 751 C313 751 316 754 316 759 L255 883 C252 890 248 894 242 894 L186 894 Z M22 36 C51 17 83 -5 150 -5 C266 -5 316 72 316 154 L316 689 C316 696 312 700 305 700 L268 700 C261 700 257 696 257 689 L257 164 C257 149 257 49 144 49 C116 49 97 55 62 76 C58 78 57 79 54 79 C52 79 49 78 47 76 L23 50 C21 48 20 45 20 42 C20 39 20 38 22 36 L22 36 Z " />
<glyph glyph-name="jcircumflex" unicode="&#x135;" horiz-adv-x="239" d="M-2 -124 C-6 -126 -7 -129 -7 -136 L9 -176 C11 -180 15 -182 18 -182 C19 -182 21 -182 23 -181 C68 -161 149 -107 149 -2 L149 504 C149 511 145 515 138 515 L101 515 C94 515 90 511 90 504 L90 3 C90 3 86 -76 -2 -124 L-2 -124 Z M91 711 C85 711 81 707 78 700 L17 576 C17 571 20 568 25 568 L63 568 C66 568 69 572 71 576 L119 671 L167 576 C169 572 172 568 175 568 L213 568 C218 568 221 571 221 576 L160 700 C157 707 153 711 147 711 L91 711 Z " />
<glyph glyph-name="uni0136" unicode="&#x136;" horiz-adv-x="517" d="M250 -179 C257 -179 260 -175 264 -167 L310 -65 C310 -57 306 -53 299 -53 L262 -53 C255 -53 252 -57 248 -65 L202 -167 C202 -175 206 -179 214 -179 L250 -179 Z M403 8 C405 4 407 0 413 0 L458 0 C463 0 466 3 466 8 L362 348 L466 692 C466 697 463 700 458 700 L415 700 C409 700 407 696 405 692 L310 376 L149 376 L149 689 C149 696 145 700 138 700 L101 700 C94 700 90 696 90 689 L90 11 C90 4 94 0 101 0 L138 0 C145 0 149 4 149 11 L149 322 L305 322 L403 8 Z " />
<glyph glyph-name="uni0137" unicode="&#x137;" horiz-adv-x="459" d="M212 -179 C219 -179 222 -175 226 -167 L272 -65 C272 -57 268 -53 261 -53 L224 -53 C217 -53 214 -57 210 -65 L164 -167 C164 -175 168 -179 176 -179 L212 -179 Z M358 8 C360 4 364 0 369 0 L411 0 C416 0 419 3 419 8 L345 274 L417 507 C417 512 414 515 409 515 L368 515 C363 515 359 511 357 507 L291 300 L149 300 L149 689 C149 696 145 700 138 700 L101 700 C94 700 90 696 90 689 L90 11 C90 4 94 0 101 0 L138 0 C145 0 149 4 149 11 L149 246 L290 246 L358 8 Z " />
<glyph glyph-name="kgreenlandic" unicode="&#x138;" horiz-adv-x="459" d="M358 8 C360 4 364 0 369 0 L411 0 C416 0 419 3 419 8 L345 274 L417 507 C417 512 414 515 409 515 L368 515 C363 515 359 511 357 507 L291 300 L149 300 L149 504 C149 511 145 515 138 515 L101 515 C94 515 90 511 90 504 L90 11 C90 4 94 0 101 0 L138 0 C145 0 149 4 149 11 L149 246 L290 246 L358 8 Z " />
<glyph glyph-name="Lacute" unicode="&#x139;" horiz-adv-x="453" d="M144 751 C151 751 154 755 158 763 L204 865 C204 873 200 877 193 877 L156 877 C149 877 146 873 142 865 L96 763 C96 755 100 751 108 751 L144 751 Z M90 11 C90 4 94 0 101 0 L392 0 C399 0 403 4 403 11 L403 43 C403 50 399 54 392 54 L149 54 L149 689 C149 696 145 700 138 700 L101 700 C94 700 90 696 90 689 L90 11 Z " />
<glyph glyph-name="lacute" unicode="&#x13a;" horiz-adv-x="239" d="M143 751 C150 751 153 755 157 763 L203 865 C203 873 199 877 192 877 L155 877 C148 877 145 873 141 865 L95 763 C95 755 99 751 107 751 L143 751 Z M149 689 C149 692 148 695 146 697 C144 699 142 700 138 700 L101 700 C97 700 95 699 93 697 C91 695 90 692 90 689 L90 11 C90 8 91 5 93 3 C95 1 97 0 101 0 L138 0 C142 0 144 1 146 3 C148 5 149 8 149 11 L149 689 Z " />
<glyph glyph-name="uni013B" unicode="&#x13b;" horiz-adv-x="453" d="M213 -179 C220 -179 223 -175 227 -167 L273 -65 C273 -57 269 -53 262 -53 L225 -53 C218 -53 215 -57 211 -65 L165 -167 C165 -175 169 -179 177 -179 L213 -179 Z M90 11 C90 4 94 0 101 0 L392 0 C399 0 403 4 403 11 L403 43 C403 50 399 54 392 54 L149 54 L149 689 C149 696 145 700 138 700 L101 700 C94 700 90 696 90 689 L90 11 Z " />
<glyph glyph-name="uni013C" unicode="&#x13c;" horiz-adv-x="239" d="M90 -179 C97 -179 100 -175 104 -167 L150 -65 C150 -57 146 -53 139 -53 L102 -53 C95 -53 92 -57 88 -65 L42 -167 C42 -175 46 -179 54 -179 L90 -179 Z M149 689 C149 692 148 695 146 697 C144 699 142 700 138 700 L101 700 C97 700 95 699 93 697 C91 695 90 692 90 689 L90 11 C90 8 91 5 93 3 C95 1 97 0 101 0 L138 0 C142 0 144 1 146 3 C148 5 149 8 149 11 L149 689 Z " />
<glyph glyph-name="Lcaron" unicode="&#x13d;" horiz-adv-x="487" d="M377 583 C384 583 387 587 391 595 L437 688 C437 696 433 700 426 700 L395 700 C388 700 385 696 381 688 L335 595 C335 587 339 583 347 583 L377 583 Z M90 11 C90 4 94 0 101 0 L392 0 C399 0 403 4 403 11 L403 43 C403 50 399 54 392 54 L149 54 L149 689 C149 696 145 700 138 700 L101 700 C94 700 90 696 90 689 L90 11 Z " />
<glyph glyph-name="lcaron" unicode="&#x13e;" horiz-adv-x="461" d="M90 11 C90 4 94 0 101 0 L138 0 C145 0 149 4 149 11 L149 689 C149 696 145 700 138 700 L101 700 C94 700 90 696 90 689 L90 11 Z M371 574 C378 574 381 578 385 586 L431 688 C431 696 427 700 420 700 L383 700 C376 700 373 696 369 688 L323 586 C323 578 327 574 335 574 L371 574 Z " />
<glyph glyph-name="Lslash" unicode="&#x141;" horiz-adv-x="459" d="M39 354 C34 352 30 349 30 343 L30 307 C30 302 34 298 39 298 L116 319 L116 11 C116 4 120 0 127 0 L418 0 C425 0 429 4 429 11 L429 43 C429 50 425 54 418 54 L175 54 L175 335 L252 356 C257 358 261 361 261 367 L261 403 C261 408 257 412 252 412 L175 391 L175 689 C175 696 171 700 164 700 L127 700 C120 700 116 696 116 689 L116 375 L39 354 Z " />
<glyph glyph-name="lslash" unicode="&#x142;" horiz-adv-x="291" d="M39 353 C34 351 30 348 30 342 L30 306 C30 301 34 297 39 297 L116 319 L116 11 C116 4 120 0 127 0 L164 0 C171 0 175 4 175 11 L175 335 L252 356 C257 358 261 361 261 367 L261 403 C261 408 257 412 252 412 L175 391 L175 689 C175 696 171 700 164 700 L127 700 C120 700 116 696 116 689 L116 375 L39 353 Z " />
<glyph glyph-name="Nacute" unicode="&#x143;" horiz-adv-x="605" d="M331 751 C338 751 341 755 345 763 L391 865 C391 873 387 877 380 877 L343 877 C336 877 333 873 329 865 L283 763 C283 755 287 751 295 751 L331 751 Z M448 101 L181 689 C178 695 173 700 166 700 L101 700 C94 700 90 696 90 689 L90 11 C90 4 94 0 101 0 L138 0 C145 0 149 4 149 11 L149 598 L157 598 L425 11 C428 5 433 0 440 0 L504 0 C511 0 515 4 515 11 L515 689 C515 696 511 700 504 700 L467 700 C460 700 456 696 456 689 L456 101 L448 101 Z " />
<glyph glyph-name="nacute" unicode="&#x144;" horiz-adv-x="501" d="M292 571 C299 571 302 575 306 583 L352 685 C352 693 348 697 341 697 L304 697 C297 697 294 693 290 685 L244 583 C244 575 248 571 256 571 L292 571 Z M90 11 C90 4 94 0 101 0 L138 0 C145 0 149 4 149 11 L149 366 C198 465 249 466 284 466 L292 466 C343 466 362 424 362 356 L362 11 C362 4 366 0 373 0 L410 0 C417 0 421 4 421 11 L421 368 C421 458 386 520 293 520 L265 520 C245 520 190 519 156 455 L149 455 L149 504 C149 511 145 515 138 515 L101 515 C94 515 90 511 90 504 L90 11 Z " />
<glyph glyph-name="uni0145" unicode="&#x145;" horiz-adv-x="605" d="M280 -179 C287 -179 290 -175 294 -167 L340 -65 C340 -57 336 -53 329 -53 L292 -53 C285 -53 282 -57 278 -65 L232 -167 C232 -175 236 -179 244 -179 L280 -179 Z M448 101 L181 689 C178 695 173 700 166 700 L101 700 C94 700 90 696 90 689 L90 11 C90 4 94 0 101 0 L138 0 C145 0 149 4 149 11 L149 598 L157 598 L425 11 C428 5 433 0 440 0 L504 0 C511 0 515 4 515 11 L515 689 C515 696 511 700 504 700 L467 700 C460 700 456 696 456 689 L456 101 L448 101 Z " />
<glyph glyph-name="uni0146" unicode="&#x146;" horiz-adv-x="501" d="M231 -179 C238 -179 241 -175 245 -167 L291 -65 C291 -57 287 -53 280 -53 L243 -53 C236 -53 233 -57 229 -65 L183 -167 C183 -175 187 -179 195 -179 L231 -179 Z M90 11 C90 4 94 0 101 0 L138 0 C145 0 149 4 149 11 L149 366 C198 465 249 466 284 466 L292 466 C343 466 362 424 362 356 L362 11 C362 4 366 0 373 0 L410 0 C417 0 421 4 421 11 L421 368 C421 458 386 520 293 520 L265 520 C245 520 190 519 156 455 L149 455 L149 504 C149 511 145 515 138 515 L101 515 C94 515 90 511 90 504 L90 11 Z " />
<glyph glyph-name="Ncaron" unicode="&#x147;" horiz-adv-x="605" d="M331 751 C337 751 341 755 344 762 L405 886 C405 891 402 894 397 894 L359 894 C356 894 353 890 351 886 L303 791 L255 886 C253 890 250 894 247 894 L209 894 C204 894 201 891 201 886 L262 762 C265 755 269 751 275 751 L331 751 Z M448 101 L181 689 C178 695 173 700 166 700 L101 700 C94 700 90 696 90 689 L90 11 C90 4 94 0 101 0 L138 0 C145 0 149 4 149 11 L149 598 L157 598 L425 11 C428 5 433 0 440 0 L504 0 C511 0 515 4 515 11 L515 689 C515 696 511 700 504 700 L467 700 C460 700 456 696 456 689 L456 101 L448 101 Z " />
<glyph glyph-name="ncaron" unicode="&#x148;" horiz-adv-x="501" d="M291 571 C297 571 301 575 304 582 L365 706 C365 711 362 714 357 714 L319 714 C316 714 313 710 311 706 L263 611 L215 706 C213 710 210 714 207 714 L169 714 C164 714 161 711 161 706 L222 582 C225 575 229 571 235 571 L291 571 Z M90 11 C90 4 94 0 101 0 L138 0 C145 0 149 4 149 11 L149 366 C198 465 249 466 284 466 L292 466 C343 466 362 424 362 356 L362 11 C362 4 366 0 373 0 L410 0 C417 0 421 4 421 11 L421 368 C421 458 386 520 293 520 L265 520 C245 520 190 519 156 455 L149 455 L149 504 C149 511 145 515 138 515 L101 515 C94 515 90 511 90 504 L90 11 Z " />
<glyph glyph-name="Eng" unicode="&#x14a;" horiz-adv-x="605" d="M364 -124 C360 -126 359 -129 359 -136 L375 -176 C377 -180 381 -182 384 -182 C385 -182 387 -182 389 -181 C434 -161 515 -107 515 -2 L515 689 C515 696 511 700 504 700 L467 700 C460 700 456 696 456 689 L456 101 L448 101 L181 689 C178 695 173 700 166 700 L101 700 C94 700 90 696 90 689 L90 11 C90 4 94 0 101 0 L138 0 C145 0 149 4 149 11 L149 598 L157 598 L446 -36 C435 -62 412 -98 364 -124 L364 -124 Z " />
<glyph glyph-name="eng" unicode="&#x14b;" horiz-adv-x="501" d="M270 -124 C266 -126 265 -129 265 -136 L281 -176 C283 -180 287 -182 290 -182 C291 -182 293 -182 295 -181 C340 -161 421 -107 421 -2 L421 368 C421 458 386 520 293 520 L265 520 C245 520 190 519 156 455 L149 455 L149 504 C149 511 145 515 138 515 L101 515 C94 515 90 511 90 504 L90 11 C90 4 94 0 101 0 L138 0 C145 0 149 4 149 11 L149 366 C198 465 249 466 284 466 L292 466 C343 466 362 424 362 356 L362 3 C362 3 358 -76 270 -124 L270 -124 Z " />
<glyph glyph-name="Omacron" unicode="&#x14c;" horiz-adv-x="553" d="M379 751 C386 751 390 755 390 762 L390 794 C390 801 386 805 379 805 L173 805 C166 805 162 801 162 794 L162 762 C162 755 166 751 173 751 L379 751 Z M328 705 L225 705 C140 705 80 638 80 556 L80 144 C80 62 140 -5 225 -5 L328 -5 C413 -5 473 62 473 144 L473 556 C473 638 413 705 328 705 L328 705 Z M414 160 C414 93 383 49 315 49 L238 49 C170 49 139 93 139 160 L139 541 C139 608 170 651 238 651 L315 651 C383 651 414 608 414 541 L414 160 Z " />
<glyph glyph-name="omacron" unicode="&#x14d;" horiz-adv-x="470" d="M338 571 C345 571 349 575 349 582 L349 614 C349 621 345 625 338 625 L132 625 C125 625 121 621 121 614 L121 582 C121 575 125 571 132 571 L338 571 Z M198 520 C117 520 75 450 75 384 L75 131 C75 65 117 -5 198 -5 L272 -5 C353 -5 395 65 395 131 L395 384 C395 450 353 520 272 520 L198 520 Z M217 49 C159 49 134 91 134 141 L134 374 C134 424 159 466 217 466 L253 466 C311 466 336 424 336 374 L336 141 C336 91 311 49 253 49 L217 49 Z " />
<glyph glyph-name="Ohungarumlaut" unicode="&#x150;" horiz-adv-x="553" d="M231 751 C238 751 241 755 245 763 L290 856 C290 864 286 868 279 868 L248 868 C241 868 238 864 234 856 L189 763 C189 755 193 751 201 751 L231 751 Z M362 751 C369 751 372 755 376 763 L421 856 C421 864 417 868 410 868 L379 868 C372 868 369 864 365 856 L320 763 C320 755 324 751 332 751 L362 751 Z M328 705 L225 705 C140 705 80 638 80 556 L80 144 C80 62 140 -5 225 -5 L328 -5 C413 -5 473 62 473 144 L473 556 C473 638 413 705 328 705 L328 705 Z M414 160 C414 93 383 49 315 49 L238 49 C170 49 139 93 139 160 L139 541 C139 608 170 651 238 651 L315 651 C383 651 414 608 414 541 L414 160 Z " />
<glyph glyph-name="ohungarumlaut" unicode="&#x151;" horiz-adv-x="470" d="M197 571 C204 571 207 575 211 583 L256 676 C256 684 252 688 245 688 L214 688 C207 688 204 684 200 676 L155 583 C155 575 159 571 167 571 L197 571 Z M328 571 C335 571 338 575 342 583 L387 676 C387 684 383 688 376 688 L345 688 C338 688 335 684 331 676 L286 583 C286 575 290 571 298 571 L328 571 Z M198 520 C117 520 75 450 75 384 L75 131 C75 65 117 -5 198 -5 L272 -5 C353 -5 395 65 395 131 L395 384 C395 450 353 520 272 520 L198 520 Z M217 49 C159 49 134 91 134 141 L134 374 C134 424 159 466 217 466 L253 466 C311 466 336 424 336 374 L336 141 C336 91 311 49 253 49 L217 49 Z " />
<glyph glyph-name="OE" unicode="&#x152;" horiz-adv-x="807" d="M235 0 L716 0 C723 0 727 4 727 11 L727 43 C727 50 723 54 716 54 L473 54 L473 310 L690 310 C697 310 701 314 701 321 L701 353 C701 360 697 364 690 364 L473 364 L473 646 L716 646 C723 646 727 650 727 657 L727 689 C727 696 723 700 716 700 L235 700 C150 700 80 633 80 551 L80 149 C80 67 150 0 235 0 L235 0 Z M338 646 C384 646 414 619 414 575 L414 125 C414 81 384 54 338 54 L248 54 C180 54 139 98 139 165 L139 536 C139 603 180 646 248 646 L338 646 Z " />
<glyph glyph-name="oe" unicode="&#x153;" horiz-adv-x="726" d="M589 73 C572 60 557 49 521 49 L479 49 C433 49 395 92 395 137 L395 229 L645 229 C652 229 656 233 656 240 L656 384 C656 450 614 520 533 520 L459 520 C417 520 386 502 365 475 C345 502 313 520 272 520 L198 520 C117 520 75 450 75 384 L75 131 C75 65 117 -5 198 -5 L272 -5 C313 -5 345 13 365 40 C386 13 417 -5 459 -5 L521 -5 C521 -5 582 -6 629 39 C631 42 632 43 632 45 C632 48 631 49 628 52 L606 76 C603 79 601 79 600 79 C596 79 591 74 589 73 L589 73 Z M217 49 C159 49 134 91 134 141 L134 374 C134 424 159 466 217 466 L253 466 C311 466 336 424 336 374 L336 133 C333 87 308 49 253 49 L217 49 Z M478 466 L514 466 C572 466 597 424 597 374 L597 283 L395 283 L395 381 C395 428 423 466 478 466 L478 466 Z " />
<glyph glyph-name="Racute" unicode="&#x154;" horiz-adv-x="535" d="M273 751 C280 751 283 755 287 763 L333 865 C333 873 329 877 322 877 L285 877 C278 877 275 873 271 865 L225 763 C225 755 229 751 237 751 L273 751 Z M475 380 L475 551 C475 633 404 700 318 700 L101 700 C94 700 90 696 90 689 L90 11 C90 4 94 0 101 0 L138 0 C145 0 149 4 149 11 L149 230 L294 230 L395 11 C398 4 401 0 408 0 L449 0 C456 0 460 4 460 11 L355 235 C423 251 475 310 475 380 L475 380 Z M416 394 C416 331 365 284 309 284 L149 284 L149 646 L309 646 C365 646 416 594 416 535 L416 394 Z " />
<glyph glyph-name="racute" unicode="&#x155;" horiz-adv-x="347" d="M140 571 C147 571 150 575 154 583 L200 685 C200 693 196 697 189 697 L152 697 C145 697 142 693 138 685 L92 583 C92 575 96 571 104 571 L140 571 Z M296 517 C281 519 277 520 249 520 C226 520 178 513 156 448 L149 448 L149 504 C149 511 145 515 138 515 L101 515 C94 515 90 511 90 504 L90 11 C90 4 94 0 101 0 L138 0 C145 0 149 4 149 11 L149 355 C193 456 228 466 253 466 C270 466 283 464 294 463 C301 463 305 467 305 474 L307 506 C307 513 303 516 296 517 L296 517 Z " />
<glyph glyph-name="uni0156" unicode="&#x156;" horiz-adv-x="535" d="M243 -179 C250 -179 253 -175 257 -167 L303 -65 C303 -57 299 -53 292 -53 L255 -53 C248 -53 245 -57 241 -65 L195 -167 C195 -175 199 -179 207 -179 L243 -179 Z M475 380 L475 551 C475 633 404 700 318 700 L101 700 C94 700 90 696 90 689 L90 11 C90 4 94 0 101 0 L138 0 C145 0 149 4 149 11 L149 230 L294 230 L395 11 C398 4 401 0 408 0 L449 0 C456 0 460 4 460 11 L355 235 C423 251 475 310 475 380 L475 380 Z M416 394 C416 331 365 284 309 284 L149 284 L149 646 L309 646 C365 646 416 594 416 535 L416 394 Z " />
<glyph glyph-name="uni0157" unicode="&#x157;" horiz-adv-x="347" d="M139 -179 C146 -179 149 -175 153 -167 L199 -65 C199 -57 195 -53 188 -53 L151 -53 C144 -53 141 -57 137 -65 L91 -167 C91 -175 95 -179 103 -179 L139 -179 Z M296 517 C281 519 277 520 249 520 C226 520 178 513 156 448 L149 448 L149 504 C149 511 145 515 138 515 L101 515 C94 515 90 511 90 504 L90 11 C90 4 94 0 101 0 L138 0 C145 0 149 4 149 11 L149 355 C193 456 228 466 253 466 C270 466 283 464 294 463 C301 463 305 467 305 474 L307 506 C307 513 303 516 296 517 L296 517 Z " />
<glyph glyph-name="Rcaron" unicode="&#x158;" horiz-adv-x="535" d="M267 751 C273 751 277 755 280 762 L341 886 C341 891 338 894 333 894 L295 894 C292 894 289 890 287 886 L239 791 L191 886 C189 890 186 894 183 894 L145 894 C140 894 137 891 137 886 L198 762 C201 755 205 751 211 751 L267 751 Z M475 380 L475 551 C475 633 404 700 318 700 L101 700 C94 700 90 696 90 689 L90 11 C90 4 94 0 101 0 L138 0 C145 0 149 4 149 11 L149 230 L294 230 L395 11 C398 4 401 0 408 0 L449 0 C456 0 460 4 460 11 L355 235 C423 251 475 310 475 380 L475 380 Z M416 394 C416 331 365 284 309 284 L149 284 L149 646 L309 646 C365 646 416 594 416 535 L416 394 Z " />
<glyph glyph-name="rcaron" unicode="&#x159;" horiz-adv-x="347" d="M228 571 C234 571 238 575 241 582 L302 706 C302 711 299 714 294 714 L256 714 C253 714 250 710 248 706 L200 611 L152 706 C150 710 147 714 144 714 L106 714 C101 714 98 711 98 706 L159 582 C162 575 166 571 172 571 L228 571 Z M296 517 C281 519 277 520 249 520 C226 520 178 513 156 448 L149 448 L149 504 C149 511 145 515 138 515 L101 515 C94 515 90 511 90 504 L90 11 C90 4 94 0 101 0 L138 0 C145 0 149 4 149 11 L149 355 C193 456 228 466 253 466 C270 466 283 464 294 463 C301 463 305 467 305 474 L307 506 C307 513 303 516 296 517 L296 517 Z " />
<glyph glyph-name="Sacute" unicode="&#x15a;" horiz-adv-x="519" d="M237 751 C229 751 225 755 225 763 L271 865 C275 873 278 877 285 877 L322 877 C329 877 333 873 333 865 L287 763 C283 755 280 751 273 751 L237 751 Z M395 159 C395 92 364 49 296 49 L218 49 C150 49 119 92 119 159 L119 171 C119 178 115 182 108 182 L71 182 C64 182 60 178 60 171 L60 143 C60 62 121 -5 206 -5 L309 -5 C394 -5 454 62 454 143 L454 162 C454 450 119 294 119 519 L119 541 C119 608 150 651 218 651 L284 651 C352 651 383 608 383 541 L383 529 C383 522 387 518 394 518 L431 518 C438 518 442 522 442 529 L442 557 C442 638 381 705 296 705 L205 705 C120 705 60 638 60 557 L60 532 C60 236 395 395 395 174 L395 159 Z " />
<glyph glyph-name="sacute" unicode="&#x15b;" horiz-adv-x="451" d="M248 571 C255 571 258 575 262 583 L308 685 C308 693 304 697 297 697 L260 697 C253 697 250 693 246 685 L200 583 C200 575 204 571 212 571 L248 571 Z M191 520 C109 520 67 464 67 396 L67 389 C67 192 331 271 331 141 L331 131 C331 75 294 49 247 49 L208 49 C160 49 124 94 124 141 L124 154 C124 161 120 165 113 165 L76 165 C69 165 65 161 65 154 L65 131 C65 65 110 -5 191 -5 L266 -5 C350 -5 391 51 391 119 L391 133 C391 333 126 249 126 379 L126 389 C126 445 163 466 211 466 L242 466 C290 466 326 421 326 374 L326 361 C326 354 330 350 337 350 L374 350 C381 350 385 354 385 361 L385 384 C385 450 340 520 259 520 L191 520 Z " />
<glyph glyph-name="Scircumflex" unicode="&#x15c;" horiz-adv-x="519" d="M278 894 C284 894 288 890 291 883 L352 759 C352 754 349 751 344 751 L306 751 C303 751 300 755 298 759 L250 854 L202 759 C200 755 197 751 194 751 L156 751 C151 751 148 754 148 759 L209 883 C212 890 216 894 222 894 L278 894 Z M395 159 C395 92 364 49 296 49 L218 49 C150 49 119 92 119 159 L119 171 C119 178 115 182 108 182 L71 182 C64 182 60 178 60 171 L60 143 C60 62 121 -5 206 -5 L309 -5 C394 -5 454 62 454 143 L454 162 C454 450 119 294 119 519 L119 541 C119 608 150 651 218 651 L284 651 C352 651 383 608 383 541 L383 529 C383 522 387 518 394 518 L431 518 C438 518 442 522 442 529 L442 557 C442 638 381 705 296 705 L205 705 C120 705 60 638 60 557 L60 532 C60 236 395 395 395 174 L395 159 Z " />
<glyph glyph-name="scircumflex" unicode="&#x15d;" horiz-adv-x="451" d="M200 714 C194 714 190 710 187 703 L126 579 C126 574 129 571 134 571 L172 571 C175 571 178 575 180 579 L228 674 L276 579 C278 575 281 571 284 571 L322 571 C327 571 330 574 330 579 L269 703 C266 710 262 714 256 714 L200 714 Z M191 520 C109 520 67 464 67 396 L67 389 C67 192 331 271 331 141 L331 131 C331 75 294 49 247 49 L208 49 C160 49 124 94 124 141 L124 154 C124 161 120 165 113 165 L76 165 C69 165 65 161 65 154 L65 131 C65 65 110 -5 191 -5 L266 -5 C350 -5 391 51 391 119 L391 133 C391 333 126 249 126 379 L126 389 C126 445 163 466 211 466 L242 466 C290 466 326 421 326 374 L326 361 C326 354 330 350 337 350 L374 350 C381 350 385 354 385 361 L385 384 C385 450 340 520 259 520 L191 520 Z " />
<glyph glyph-name="Scedilla" unicode="&#x15e;" horiz-adv-x="519" d="M119 519 L119 541 C119 608 150 651 218 651 L284 651 C352 651 383 608 383 541 L383 529 C383 522 387 518 394 518 L431 518 C438 518 442 522 442 529 L442 557 C442 638 381 705 296 705 L205 705 C120 705 60 638 60 557 L60 532 C60 236 395 395 395 174 L395 159 C395 92 364 49 296 49 L218 49 C150 49 119 92 119 159 L119 171 C119 178 115 182 108 182 L71 182 C64 182 60 178 60 171 L60 143 C60 62 121 -5 206 -5 L240 -5 L207 -63 C205 -67 205 -73 205 -73 L205 -96 C205 -100 208 -103 212 -103 L261 -103 C261 -103 296 -103 296 -133 C296 -161 261 -161 261 -161 L207 -161 C203 -161 200 -163 200 -168 L200 -188 C200 -192 203 -195 207 -195 L272 -195 C312 -195 332 -179 332 -127 C332 -88 298 -69 258 -69 L246 -69 L280 -5 L309 -5 C394 -5 454 62 454 143 L454 162 C454 450 119 294 119 519 L119 519 Z " />
<glyph glyph-name="scedilla" unicode="&#x15f;" horiz-adv-x="451" d="M181 -63 C179 -67 179 -73 179 -73 L179 -96 C179 -100 182 -103 186 -103 L235 -103 C235 -103 270 -103 270 -133 C270 -161 235 -161 235 -161 L181 -161 C177 -161 174 -163 174 -168 L174 -188 C174 -192 177 -195 181 -195 L246 -195 C286 -195 306 -179 306 -127 C306 -88 272 -69 232 -69 L220 -69 L251 -5 L266 -5 C350 -5 391 51 391 119 L391 133 C391 333 126 249 126 379 L126 389 C126 445 163 466 211 466 L242 466 C290 466 326 421 326 374 L326 361 C326 354 330 350 337 350 L374 350 C381 350 385 354 385 361 L385 384 C385 450 340 520 259 520 L191 520 C109 520 67 464 67 396 L67 389 C67 192 331 271 331 141 L331 131 C331 75 294 49 247 49 L208 49 C160 49 124 94 124 141 L124 154 C124 161 120 165 113 165 L76 165 C69 165 65 161 65 154 L65 131 C65 65 110 -5 191 -5 L211 -5 L181 -63 Z " />
<glyph glyph-name="Scaron" unicode="&#x160;" horiz-adv-x="519" d="M220 751 C214 751 210 755 207 762 L146 886 C146 891 149 894 154 894 L192 894 C195 894 198 890 200 886 L248 791 L296 886 C298 890 301 894 304 894 L342 894 C347 894 350 891 350 886 L289 762 C286 755 282 751 276 751 L220 751 Z M395 159 C395 92 364 49 296 49 L218 49 C150 49 119 92 119 159 L119 171 C119 178 115 182 108 182 L71 182 C64 182 60 178 60 171 L60 143 C60 62 121 -5 206 -5 L309 -5 C394 -5 454 62 454 143 L454 162 C454 450 119 294 119 519 L119 541 C119 608 150 651 218 651 L284 651 C352 651 383 608 383 541 L383 529 C383 522 387 518 394 518 L431 518 C438 518 442 522 442 529 L442 557 C442 638 381 705 296 705 L205 705 C120 705 60 638 60 557 L60 532 C60 236 395 395 395 174 L395 159 Z " />
<glyph glyph-name="scaron" unicode="&#x161;" horiz-adv-x="451" d="M255 571 C261 571 265 575 268 582 L329 706 C329 711 326 714 321 714 L283 714 C280 714 277 710 275 706 L227 611 L179 706 C177 710 174 714 171 714 L133 714 C128 714 125 711 125 706 L186 582 C189 575 193 571 199 571 L255 571 Z M191 520 C109 520 67 464 67 396 L67 389 C67 192 331 271 331 141 L331 131 C331 75 294 49 247 49 L208 49 C160 49 124 94 124 141 L124 154 C124 161 120 165 113 165 L76 165 C69 165 65 161 65 154 L65 131 C65 65 110 -5 191 -5 L266 -5 C350 -5 391 51 391 119 L391 133 C391 333 126 249 126 379 L126 389 C126 445 163 466 211 466 L242 466 C290 466 326 421 326 374 L326 361 C326 354 330 350 337 350 L374 350 C381 350 385 354 385 361 L385 384 C385 450 340 520 259 520 L191 520 Z " />
<glyph glyph-name="uni0162" unicode="&#x162;" horiz-adv-x="493" d="M264 0 C264 0 298 1 298 -32 C298 -59 263 -59 263 -59 L209 -59 C205 -59 202 -61 202 -66 L202 -86 C202 -90 205 -93 209 -93 L257 -93 C303 -93 333 -83 333 -31 C333 0 311 30 276 34 L276 646 L427 646 C434 646 438 650 438 657 L438 689 C438 696 434 700 427 700 L66 700 C59 700 55 696 55 689 L55 657 C55 650 59 646 66 646 L217 646 L217 11 C217 4 221 0 228 0 L264 0 Z " />
<glyph glyph-name="uni0163" unicode="&#x163;" horiz-adv-x="352" d="M160 -56 C158 -60 158 -66 158 -66 L158 -89 C158 -93 161 -96 165 -96 L214 -96 C214 -96 249 -96 249 -126 C249 -154 214 -154 214 -154 L160 -154 C156 -154 153 -156 153 -161 L153 -181 C153 -185 156 -188 160 -188 L225 -188 C265 -188 285 -172 285 -120 C285 -81 251 -62 211 -62 L199 -62 L231 4 C241 1 253 0 265 0 L291 0 C298 0 302 4 302 11 L302 43 C302 50 298 54 291 54 L285 54 C240 54 190 96 190 144 L190 461 L291 461 C298 461 302 465 302 472 L302 504 C302 511 298 515 291 515 L190 515 L190 689 C190 696 186 700 179 700 L142 700 C135 700 131 696 131 689 L131 515 L56 515 C49 515 45 511 45 504 L45 472 C45 465 49 461 56 461 L131 461 L131 144 C131 94 155 44 197 18 L160 -56 Z " />
<glyph glyph-name="Tcaron" unicode="&#x164;" horiz-adv-x="493" d="M274 751 C280 751 284 755 287 762 L348 886 C348 891 345 894 340 894 L302 894 C299 894 296 890 294 886 L246 791 L198 886 C196 890 193 894 190 894 L152 894 C147 894 144 891 144 886 L205 762 C208 755 212 751 218 751 L274 751 Z M66 700 C59 700 55 696 55 689 L55 657 C55 650 59 646 66 646 L217 646 L217 11 C217 4 221 0 228 0 L265 0 C272 0 276 4 276 11 L276 646 L427 646 C434 646 438 650 438 657 L438 689 C438 696 434 700 427 700 L66 700 Z " />
<glyph glyph-name="tcaron" unicode="&#x165;" horiz-adv-x="521" d="M421 574 C428 574 431 578 435 586 L481 688 C481 696 477 700 470 700 L433 700 C426 700 423 696 419 688 L373 586 C373 578 377 574 385 574 L421 574 Z M291 0 C298 0 302 4 302 11 L302 43 C302 50 298 54 291 54 L285 54 C240 54 190 96 190 144 L190 461 L291 461 C298 461 302 465 302 472 L302 504 C302 511 298 515 291 515 L190 515 L190 689 C190 696 186 700 179 700 L142 700 C135 700 131 696 131 689 L131 515 L56 515 C49 515 45 511 45 504 L45 472 C45 465 49 461 56 461 L131 461 L131 144 C131 71 183 0 265 0 L291 0 Z " />
<glyph glyph-name="Tbar" unicode="&#x166;" horiz-adv-x="493" d="M367 301 C374 301 378 305 378 312 L378 344 C378 351 374 355 367 355 L276 355 L276 646 L427 646 C434 646 438 650 438 657 L438 689 C438 696 434 700 427 700 L66 700 C59 700 55 696 55 689 L55 657 C55 650 59 646 66 646 L217 646 L217 355 L126 355 C119 355 115 351 115 344 L115 312 C115 305 119 301 126 301 L217 301 L217 11 C217 4 221 0 228 0 L265 0 C272 0 276 4 276 11 L276 301 L367 301 Z " />
<glyph glyph-name="tbar" unicode="&#x167;" horiz-adv-x="352" d="M56 301 C49 301 45 297 45 290 L45 258 C45 251 49 247 56 247 L131 247 L131 144 C131 71 183 0 265 0 L291 0 C298 0 302 4 302 11 L302 43 C302 50 298 54 291 54 L285 54 C240 54 190 96 190 144 L190 247 L291 247 C298 247 302 251 302 258 L302 290 C302 297 298 301 291 301 L190 301 L190 461 L291 461 C298 461 302 465 302 472 L302 504 C302 511 298 515 291 515 L190 515 L190 689 C190 696 186 700 179 700 L142 700 C135 700 131 696 131 689 L131 515 L56 515 C49 515 45 511 45 504 L45 472 C45 465 49 461 56 461 L131 461 L131 301 L56 301 Z " />
<glyph glyph-name="Utilde" unicode="&#x168;" horiz-adv-x="563" d="M478 689 C478 696 474 700 467 700 L430 700 C423 700 419 696 419 689 L419 160 C419 93 388 49 320 49 L243 49 C175 49 144 93 144 160 L144 689 C144 696 140 700 133 700 L96 700 C89 700 85 696 85 689 L85 144 C85 62 145 -5 230 -5 L333 -5 C418 -5 478 62 478 144 L478 689 Z M325 751 C335 751 351 757 367 764 C371 766 373 770 373 774 L364 805 C363 809 360 811 356 811 C345 811 336 805 321 805 C277 805 281 835 225 835 C215 835 199 829 183 822 C179 820 177 816 177 812 L186 781 C187 777 190 775 194 775 C205 775 214 781 229 781 C272 781 269 751 325 751 L325 751 Z " />
<glyph glyph-name="utilde" unicode="&#x169;" horiz-adv-x="480" d="M400 504 C400 511 396 515 389 515 L352 515 C345 515 341 511 341 504 L341 141 C341 94 304 49 257 49 L223 49 C176 49 139 94 139 141 L139 504 C139 511 135 515 128 515 L91 515 C84 515 80 511 80 504 L80 131 C80 65 122 -5 203 -5 L277 -5 C358 -5 400 65 400 131 L400 504 Z M285 571 C295 571 311 577 327 584 C331 586 333 590 333 594 L324 625 C323 629 320 631 316 631 C305 631 296 625 281 625 C237 625 241 655 185 655 C175 655 159 649 143 642 C139 640 137 636 137 632 L146 601 C147 597 150 595 154 595 C165 595 174 601 189 601 C232 601 229 571 285 571 L285 571 Z " />
<glyph glyph-name="Umacron" unicode="&#x16a;" horiz-adv-x="563" d="M368 751 C375 751 379 755 379 762 L379 794 C379 801 375 805 368 805 L194 805 C187 805 183 801 183 794 L183 762 C183 755 187 751 194 751 L368 751 Z M478 689 C478 696 474 700 467 700 L430 700 C423 700 419 696 419 689 L419 160 C419 93 388 49 320 49 L243 49 C175 49 144 93 144 160 L144 689 C144 696 140 700 133 700 L96 700 C89 700 85 696 85 689 L85 144 C85 62 145 -5 230 -5 L333 -5 C418 -5 478 62 478 144 L478 689 Z " />
<glyph glyph-name="umacron" unicode="&#x16b;" horiz-adv-x="480" d="M311 571 C318 571 322 575 322 582 L322 614 C322 621 318 625 311 625 L169 625 C162 625 158 621 158 614 L158 582 C158 575 162 571 169 571 L311 571 Z M400 504 C400 511 396 515 389 515 L352 515 C345 515 341 511 341 504 L341 141 C341 94 304 49 257 49 L223 49 C176 49 139 94 139 141 L139 504 C139 511 135 515 128 515 L91 515 C84 515 80 511 80 504 L80 131 C80 65 122 -5 203 -5 L277 -5 C358 -5 400 65 400 131 L400 504 Z " />
<glyph glyph-name="Ubreve" unicode="&#x16c;" horiz-adv-x="563" d="M478 689 C478 696 474 700 467 700 L430 700 C423 700 419 696 419 689 L419 160 C419 93 388 49 320 49 L243 49 C175 49 144 93 144 160 L144 689 C144 696 140 700 133 700 L96 700 C89 700 85 696 85 689 L85 144 C85 62 145 -5 230 -5 L333 -5 C418 -5 478 62 478 144 L478 689 Z M282 751 C358 751 383 794 401 858 C401 863 397 867 392 867 L350 867 C345 867 342 863 340 858 C326 822 316 799 282 799 C248 799 238 822 224 858 C222 863 219 867 214 867 L172 867 C167 867 163 863 163 858 C181 794 206 751 282 751 L282 751 Z " />
<glyph glyph-name="ubreve" unicode="&#x16d;" horiz-adv-x="480" d="M400 504 C400 511 396 515 389 515 L352 515 C345 515 341 511 341 504 L341 141 C341 94 304 49 257 49 L223 49 C176 49 139 94 139 141 L139 504 C139 511 135 515 128 515 L91 515 C84 515 80 511 80 504 L80 131 C80 65 122 -5 203 -5 L277 -5 C358 -5 400 65 400 131 L400 504 Z M240 571 C316 571 341 614 359 678 C359 683 355 687 350 687 L308 687 C303 687 300 683 298 678 C284 642 274 619 240 619 C206 619 196 642 182 678 C180 683 177 687 172 687 L130 687 C125 687 121 683 121 678 C139 614 164 571 240 571 L240 571 Z " />
<glyph glyph-name="Uring" unicode="&#x16e;" horiz-adv-x="563" d="M396 834 C396 898 345 949 281 949 C217 949 166 898 166 834 C166 770 217 719 281 719 C345 719 396 770 396 834 L396 834 Z M348 834 C348 795 319 767 281 767 C244 767 215 795 215 834 C215 873 244 901 281 901 C319 901 348 873 348 834 L348 834 Z M478 689 C478 696 474 700 467 700 L430 700 C423 700 419 696 419 689 L419 160 C419 93 388 49 320 49 L243 49 C175 49 144 93 144 160 L144 689 C144 696 140 700 133 700 L96 700 C89 700 85 696 85 689 L85 144 C85 62 145 -5 230 -5 L333 -5 C418 -5 478 62 478 144 L478 689 Z " />
<glyph glyph-name="uring" unicode="&#x16f;" horiz-adv-x="480" d="M355 686 C355 750 304 801 240 801 C176 801 125 750 125 686 C125 622 176 571 240 571 C304 571 355 622 355 686 L355 686 Z M307 686 C307 647 278 619 240 619 C203 619 174 647 174 686 C174 725 203 753 240 753 C278 753 307 725 307 686 L307 686 Z M400 504 C400 511 396 515 389 515 L352 515 C345 515 341 511 341 504 L341 141 C341 94 304 49 257 49 L223 49 C176 49 139 94 139 141 L139 504 C139 511 135 515 128 515 L91 515 C84 515 80 511 80 504 L80 131 C80 65 122 -5 203 -5 L277 -5 C358 -5 400 65 400 131 L400 504 Z " />
<glyph glyph-name="Uhungarumlaut" unicode="&#x170;" horiz-adv-x="563" d="M229 751 C236 751 239 755 243 763 L288 856 C288 864 284 868 277 868 L246 868 C239 868 236 864 232 856 L187 763 C187 755 191 751 199 751 L229 751 Z M360 751 C367 751 370 755 374 763 L419 856 C419 864 415 868 408 868 L377 868 C370 868 367 864 363 856 L318 763 C318 755 322 751 330 751 L360 751 Z M478 689 C478 696 474 700 467 700 L430 700 C423 700 419 696 419 689 L419 160 C419 93 388 49 320 49 L243 49 C175 49 144 93 144 160 L144 689 C144 696 140 700 133 700 L96 700 C89 700 85 696 85 689 L85 144 C85 62 145 -5 230 -5 L333 -5 C418 -5 478 62 478 144 L478 689 Z " />
<glyph glyph-name="uhungarumlaut" unicode="&#x171;" horiz-adv-x="480" d="M202 571 C209 571 212 575 216 583 L261 676 C261 684 257 688 250 688 L219 688 C212 688 209 684 205 676 L160 583 C160 575 164 571 172 571 L202 571 Z M333 571 C340 571 343 575 347 583 L392 676 C392 684 388 688 381 688 L350 688 C343 688 340 684 336 676 L291 583 C291 575 295 571 303 571 L333 571 Z M400 504 C400 511 396 515 389 515 L352 515 C345 515 341 511 341 504 L341 141 C341 94 304 49 257 49 L223 49 C176 49 139 94 139 141 L139 504 C139 511 135 515 128 515 L91 515 C84 515 80 511 80 504 L80 131 C80 65 122 -5 203 -5 L277 -5 C358 -5 400 65 400 131 L400 504 Z " />
<glyph glyph-name="Uogonek" unicode="&#x172;" horiz-adv-x="563" d="M235 -63 C233 -67 233 -73 233 -73 L233 -96 C233 -100 236 -103 240 -103 L289 -103 C289 -103 324 -103 324 -133 C324 -161 289 -161 289 -161 L235 -161 C231 -161 228 -163 228 -168 L228 -188 C228 -192 231 -195 235 -195 L300 -195 C340 -195 360 -179 360 -127 C360 -88 326 -69 286 -69 L274 -69 L305 -5 L333 -5 C418 -5 478 62 478 144 L478 689 C478 696 474 700 467 700 L430 700 C423 700 419 696 419 689 L419 160 C419 93 388 49 320 49 L243 49 C175 49 144 93 144 160 L144 689 C144 696 140 700 133 700 L96 700 C89 700 85 696 85 689 L85 144 C85 62 145 -5 230 -5 L265 -5 L235 -63 Z " />
<glyph glyph-name="uogonek" unicode="&#x173;" horiz-adv-x="480" d="M400 504 C400 511 396 515 389 515 L352 515 C345 515 341 511 341 504 L341 141 C341 94 304 49 257 49 L223 49 C176 49 139 94 139 141 L139 504 C139 511 135 515 128 515 L91 515 C84 515 80 511 80 504 L80 131 C80 65 122 -5 203 -5 L219 -5 L219 -69 L207 -69 C167 -69 133 -88 133 -127 C133 -179 153 -195 193 -195 L258 -195 C262 -195 265 -192 265 -188 L265 -168 C265 -163 262 -161 258 -161 L204 -161 C204 -161 169 -161 169 -133 C169 -103 204 -103 204 -103 L253 -103 C257 -103 260 -100 260 -96 L260 -5 L277 -5 C358 -5 400 65 400 131 L400 504 Z " />
<glyph glyph-name="Ydieresis" unicode="&#x178;" horiz-adv-x="517" d="M157 762 C157 755 161 751 168 751 L214 751 C221 751 225 755 225 762 L225 811 C225 818 221 822 214 822 L168 822 C161 822 157 818 157 811 L157 762 Z M291 762 C291 755 295 751 302 751 L348 751 C355 751 359 755 359 762 L359 811 C359 818 355 822 348 822 L302 822 C295 822 291 818 291 811 L291 762 Z M261 308 L256 308 L104 689 C101 696 99 700 92 700 L51 700 C44 700 40 696 40 689 L229 216 L229 11 C229 4 233 0 240 0 L277 0 C284 0 288 4 288 11 L288 216 L477 689 C477 696 473 700 466 700 L425 700 C418 700 416 696 413 689 L261 308 Z " />
<glyph glyph-name="Zacute" unicode="&#x179;" horiz-adv-x="484" d="M268 751 C275 751 278 755 282 763 L328 865 C328 873 324 877 317 877 L280 877 C273 877 270 873 266 865 L220 763 C220 755 224 751 232 751 L268 751 Z M134 54 L417 652 C418 654 419 657 419 659 L419 689 C419 696 415 700 408 700 L76 700 C69 700 65 696 65 689 L65 657 C65 650 69 646 76 646 L350 646 L67 48 C66 46 65 43 65 41 L65 11 C65 4 69 0 76 0 L408 0 C415 0 419 4 419 11 L419 43 C419 50 415 54 408 54 L134 54 Z " />
<glyph glyph-name="zacute" unicode="&#x17a;" horiz-adv-x="413" d="M226 571 C233 571 236 575 240 583 L286 685 C286 693 282 697 275 697 L238 697 C231 697 228 693 224 685 L178 583 C178 575 182 571 190 571 L226 571 Z M130 54 L351 460 C352 462 353 465 353 467 L353 504 C353 511 349 515 342 515 L71 515 C64 515 60 511 60 504 L60 472 C60 465 64 461 71 461 L285 461 L62 54 C61 52 60 49 60 47 L60 11 C60 4 64 0 71 0 L342 0 C349 0 353 4 353 11 L353 43 C353 50 349 54 342 54 L130 54 Z " />
<glyph glyph-name="Zdotaccent" unicode="&#x17b;" horiz-adv-x="484" d="M209 762 C209 755 213 751 220 751 L266 751 C273 751 277 755 277 762 L277 811 C277 818 273 822 266 822 L220 822 C213 822 209 818 209 811 L209 762 Z M134 54 L417 652 C418 654 419 657 419 659 L419 689 C419 696 415 700 408 700 L76 700 C69 700 65 696 65 689 L65 657 C65 650 69 646 76 646 L350 646 L67 48 C66 46 65 43 65 41 L65 11 C65 4 69 0 76 0 L408 0 C415 0 419 4 419 11 L419 43 C419 50 415 54 408 54 L134 54 Z " />
<glyph glyph-name="zdotaccent" unicode="&#x17c;" horiz-adv-x="418" d="M172 582 C172 575 176 571 183 571 L229 571 C236 571 240 575 240 582 L240 631 C240 638 236 642 229 642 L183 642 C176 642 172 638 172 631 L172 582 Z M130 54 L351 460 C352 462 353 465 353 467 L353 504 C353 511 349 515 342 515 L71 515 C64 515 60 511 60 504 L60 472 C60 465 64 461 71 461 L285 461 L62 54 C61 52 60 49 60 47 L60 11 C60 4 64 0 71 0 L342 0 C349 0 353 4 353 11 L353 43 C353 50 349 54 342 54 L130 54 Z " />
<glyph glyph-name="Zcaron" unicode="&#x17d;" horiz-adv-x="484" d="M273 751 C279 751 283 755 286 762 L347 886 C347 891 344 894 339 894 L301 894 C298 894 295 890 293 886 L245 791 L197 886 C195 890 192 894 189 894 L151 894 C146 894 143 891 143 886 L204 762 C207 755 211 751 217 751 L273 751 Z M134 54 L417 652 C418 654 419 657 419 659 L419 689 C419 696 415 700 408 700 L76 700 C69 700 65 696 65 689 L65 657 C65 650 69 646 76 646 L350 646 L67 48 C66 46 65 43 65 41 L65 11 C65 4 69 0 76 0 L408 0 C415 0 419 4 419 11 L419 43 C419 50 415 54 408 54 L134 54 Z " />
<glyph glyph-name="zcaron" unicode="&#x17e;" horiz-adv-x="413" d="M234 571 C240 571 244 575 247 582 L308 706 C308 711 305 714 300 714 L262 714 C259 714 256 710 254 706 L206 611 L158 706 C156 710 153 714 150 714 L112 714 C107 714 104 711 104 706 L165 582 C168 575 172 571 178 571 L234 571 Z M130 54 L351 460 C352 462 353 465 353 467 L353 504 C353 511 349 515 342 515 L71 515 C64 515 60 511 60 504 L60 472 C60 465 64 461 71 461 L285 461 L62 54 C61 52 60 49 60 47 L60 11 C60 4 64 0 71 0 L342 0 C349 0 353 4 353 11 L353 43 C353 50 349 54 342 54 L130 54 Z " />
<glyph glyph-name="florin" unicode="&#x192;" horiz-adv-x="342" d="M320 646 C327 646 331 650 331 657 L331 689 C331 696 327 700 320 700 L300 700 C222 700 180 622 165 558 L147 480 L64 480 C57 480 53 476 53 469 L53 437 C53 430 57 426 64 426 L132 426 L-25 -170 C-25 -177 -21 -181 -14 -181 L24 -181 C31 -181 34 -177 36 -170 L190 426 L278 426 C285 426 289 430 289 437 L289 469 C289 476 285 480 278 480 L209 480 L226 565 C234 605 272 646 320 646 L320 646 Z " />
<glyph glyph-name="uni0218" unicode="&#x218;" horiz-adv-x="519" d="M228 -179 C235 -179 238 -175 242 -167 L288 -65 C288 -57 284 -53 277 -53 L240 -53 C233 -53 230 -57 226 -65 L180 -167 C180 -175 184 -179 192 -179 L228 -179 Z M395 159 C395 92 364 49 296 49 L218 49 C150 49 119 92 119 159 L119 171 C119 178 115 182 108 182 L71 182 C64 182 60 178 60 171 L60 143 C60 62 121 -5 206 -5 L309 -5 C394 -5 454 62 454 143 L454 162 C454 450 119 294 119 519 L119 541 C119 608 150 651 218 651 L284 651 C352 651 383 608 383 541 L383 529 C383 522 387 518 394 518 L431 518 C438 518 442 522 442 529 L442 557 C442 638 381 705 296 705 L205 705 C120 705 60 638 60 557 L60 532 C60 236 395 395 395 174 L395 159 Z " />
<glyph glyph-name="uni0219" unicode="&#x219;" horiz-adv-x="451" d="M204 -179 C211 -179 214 -175 218 -167 L264 -65 C264 -57 260 -53 253 -53 L216 -53 C209 -53 206 -57 202 -65 L156 -167 C156 -175 160 -179 168 -179 L204 -179 Z M191 520 C109 520 67 464 67 396 L67 389 C67 192 331 271 331 141 L331 131 C331 75 294 49 247 49 L208 49 C160 49 124 94 124 141 L124 154 C124 161 120 165 113 165 L76 165 C69 165 65 161 65 154 L65 131 C65 65 110 -5 191 -5 L266 -5 C350 -5 391 51 391 119 L391 133 C391 333 126 249 126 379 L126 389 C126 445 163 466 211 466 L242 466 C290 466 326 421 326 374 L326 361 C326 354 330 350 337 350 L374 350 C381 350 385 354 385 361 L385 384 C385 450 340 520 259 520 L191 520 Z " />
<glyph glyph-name="uni021A" unicode="&#x21a;" horiz-adv-x="493" d="M213 -179 C220 -179 223 -175 227 -167 L273 -65 C273 -57 269 -53 262 -53 L225 -53 C218 -53 215 -57 211 -65 L165 -167 C165 -175 169 -179 177 -179 L213 -179 Z M66 700 C59 700 55 696 55 689 L55 657 C55 650 59 646 66 646 L217 646 L217 11 C217 4 221 0 228 0 L265 0 C272 0 276 4 276 11 L276 646 L427 646 C434 646 438 650 438 657 L438 689 C438 696 434 700 427 700 L66 700 Z " />
<glyph glyph-name="uni021B" unicode="&#x21b;" horiz-adv-x="352" d="M216 -179 C223 -179 226 -175 230 -167 L276 -65 C276 -57 272 -53 265 -53 L228 -53 C221 -53 218 -57 214 -65 L168 -167 C168 -175 172 -179 180 -179 L216 -179 Z M291 0 C298 0 302 4 302 11 L302 43 C302 50 298 54 291 54 L285 54 C240 54 190 96 190 144 L190 461 L291 461 C298 461 302 465 302 472 L302 504 C302 511 298 515 291 515 L190 515 L190 689 C190 696 186 700 179 700 L142 700 C135 700 131 696 131 689 L131 515 L56 515 C49 515 45 511 45 504 L45 472 C45 465 49 461 56 461 L131 461 L131 144 C131 71 183 0 265 0 L291 0 Z " />
<glyph glyph-name="circumflex" unicode="&#x2c6;" horiz-adv-x="384" d="M164 700 C158 700 154 696 151 689 L90 565 C90 560 93 557 98 557 L136 557 C139 557 142 561 144 565 L192 660 L240 565 C242 561 245 557 248 557 L286 557 C291 557 294 560 294 565 L233 689 C230 696 226 700 220 700 L164 700 Z " />
<glyph glyph-name="caron" unicode="&#x2c7;" horiz-adv-x="384" d="M220 557 C226 557 230 561 233 568 L294 692 C294 697 291 700 286 700 L248 700 C245 700 242 696 240 692 L192 597 L144 692 C142 696 139 700 136 700 L98 700 C93 700 90 697 90 692 L151 568 C154 561 158 557 164 557 L220 557 Z " />
<glyph glyph-name="breve" unicode="&#x2d8;" horiz-adv-x="418" d="M209 584 C285 584 310 627 328 691 C328 696 324 700 319 700 L277 700 C272 700 269 696 267 691 C253 655 243 632 209 632 C175 632 165 655 151 691 C149 696 146 700 141 700 L99 700 C94 700 90 696 90 691 C108 627 133 584 209 584 L209 584 Z " />
<glyph glyph-name="dotaccent" unicode="&#x2d9;" horiz-adv-x="248" d="M90 640 C90 633 94 629 101 629 L147 629 C154 629 158 633 158 640 L158 689 C158 696 154 700 147 700 L101 700 C94 700 90 696 90 689 L90 640 Z " />
<glyph glyph-name="ring" unicode="&#x2da;" horiz-adv-x="410" d="M320 636 C320 700 269 751 205 751 C141 751 90 700 90 636 C90 572 141 521 205 521 C269 521 320 572 320 636 L320 636 Z M272 636 C272 597 243 569 205 569 C168 569 139 597 139 636 C139 675 168 703 205 703 C243 703 272 675 272 636 L272 636 Z " />
<glyph glyph-name="ogonek" unicode="&#x2db;" horiz-adv-x="312" d="M183 1 C179 1 176 0 176 -6 L176 -69 L164 -69 C124 -69 90 -88 90 -127 C90 -179 110 -195 150 -195 L215 -195 C219 -195 222 -192 222 -188 L222 -168 C222 -163 219 -161 215 -161 L161 -161 C161 -161 126 -161 126 -133 C126 -103 161 -103 161 -103 L210 -103 C214 -103 217 -100 217 -96 L217 -6 C217 0 214 1 210 1 L183 1 Z " />
<glyph glyph-name="tilde" unicode="&#x2dc;" horiz-adv-x="376" d="M238 616 C248 616 264 622 280 629 C284 631 286 635 286 639 L277 670 C276 674 273 676 269 676 C258 676 249 670 234 670 C190 670 194 700 138 700 C128 700 112 694 96 687 C92 685 90 681 90 677 L99 646 C100 642 103 640 107 640 C118 640 127 646 142 646 C185 646 182 616 238 616 L238 616 Z " />
<glyph glyph-name="hungarumlaut" unicode="&#x2dd;" horiz-adv-x="412" d="M132 583 C139 583 142 587 146 595 L191 688 C191 696 187 700 180 700 L149 700 C142 700 139 696 135 688 L90 595 C90 587 94 583 102 583 L132 583 Z M263 583 C270 583 273 587 277 595 L322 688 C322 696 318 700 311 700 L280 700 C273 700 270 696 266 688 L221 595 C221 587 225 583 233 583 L263 583 Z " />
<glyph glyph-name="uni03A9" unicode="&#x3a9;" horiz-adv-x="709" d="M306 700 C218 700 157 633 157 551 L157 167 C157 152 160 99 189 54 L101 54 C94 54 90 50 90 43 L90 11 C90 4 94 0 101 0 L249 0 C256 0 260 4 260 11 L260 59 C260 60 260 65 256 67 C218 84 216 144 216 170 L216 535 C216 594 258 646 314 646 L395 646 C451 646 493 594 493 535 L493 170 C493 144 491 84 453 67 C449 65 449 60 449 59 L449 11 C449 4 453 0 460 0 L608 0 C615 0 619 4 619 11 L619 43 C619 50 615 54 608 54 L520 54 C549 99 552 152 552 167 L552 551 C552 633 491 700 403 700 L306 700 Z " />
<glyph glyph-name="pi" unicode="&#x3c0;" horiz-adv-x="742" d="M101 515 C94 515 90 511 90 504 L90 472 C90 465 94 461 101 461 L229 461 L229 11 C229 4 233 0 240 0 L277 0 C284 0 288 4 288 11 L288 461 L454 461 L454 11 C454 4 458 0 465 0 L502 0 C509 0 513 4 513 11 L513 461 L641 461 C648 461 652 465 652 472 L652 504 C652 511 648 515 641 515 L101 515 Z " />
<glyph glyph-name="ZWSP" unicode="&#x200b;" d="" />
<glyph glyph-name="endash" unicode="&#x2013;" horiz-adv-x="344" d="M243 209 C250 209 254 213 254 220 L254 252 C254 259 250 263 243 263 L101 263 C94 263 90 259 90 252 L90 220 C90 213 94 209 101 209 L243 209 Z " />
<glyph glyph-name="emdash" unicode="&#x2014;" horiz-adv-x="402" d="M301 209 C308 209 312 213 312 220 L312 252 C312 259 308 263 301 263 L101 263 C94 263 90 259 90 252 L90 220 C90 213 94 209 101 209 L301 209 Z " />
<glyph glyph-name="quoteleft" unicode="&#x2018;" horiz-adv-x="267" d="M132 583 C139 583 142 587 146 595 L177 688 C177 696 173 700 166 700 L135 700 C128 700 125 696 121 688 L90 595 C90 587 94 583 102 583 L132 583 Z " />
<glyph glyph-name="quoteright" unicode="&#x2019;" horiz-adv-x="267" d="M135 700 C128 700 125 696 121 688 L90 595 C90 587 94 583 101 583 L132 583 C139 583 142 587 146 595 L177 688 C177 696 173 700 165 700 L135 700 Z " />
<glyph glyph-name="quotesinglbase" unicode="&#x201a;" horiz-adv-x="267" d="M135 82 C128 82 125 78 121 70 L90 -23 C90 -31 94 -35 101 -35 L132 -35 C139 -35 142 -31 146 -23 L177 70 C177 78 173 82 165 82 L135 82 Z " />
<glyph glyph-name="quotedblleft" unicode="&#x201c;" horiz-adv-x="383" d="M132 583 C139 583 142 587 146 595 L177 688 C177 696 173 700 166 700 L135 700 C128 700 125 696 121 688 L90 595 C90 587 94 583 102 583 L132 583 Z M248 583 C255 583 258 587 262 595 L293 688 C293 696 289 700 282 700 L251 700 C244 700 241 696 237 688 L206 595 C206 587 210 583 218 583 L248 583 Z " />
<glyph glyph-name="quotedblright" unicode="&#x201d;" horiz-adv-x="383" d="M251 700 C244 700 241 696 237 688 L206 595 C206 587 210 583 217 583 L248 583 C255 583 258 587 262 595 L293 688 C293 696 289 700 281 700 L251 700 Z M135 700 C128 700 125 696 121 688 L90 595 C90 587 94 583 101 583 L132 583 C139 583 142 587 146 595 L177 688 C177 696 173 700 165 700 L135 700 Z " />
<glyph glyph-name="quotedblbase" unicode="&#x201e;" horiz-adv-x="383" d="M251 82 C244 82 241 78 237 70 L206 -23 C206 -31 210 -35 217 -35 L248 -35 C255 -35 258 -31 262 -23 L293 70 C293 78 289 82 281 82 L251 82 Z M135 82 C128 82 125 78 121 70 L90 -23 C90 -31 94 -35 101 -35 L132 -35 C139 -35 142 -31 146 -23 L177 70 C177 78 173 82 165 82 L135 82 Z " />
<glyph glyph-name="dagger" unicode="&#x2020;" horiz-adv-x="439" d="M101 540 C94 540 90 536 90 529 L90 497 C90 490 94 486 101 486 L190 486 L190 -257 C190 -264 194 -268 201 -268 L238 -268 C245 -268 249 -264 249 -257 L249 486 L338 486 C345 486 349 490 349 497 L349 529 C349 536 345 540 338 540 L249 540 L249 689 C249 696 245 700 238 700 L201 700 C194 700 190 696 190 689 L190 540 L101 540 Z " />
<glyph glyph-name="daggerdbl" unicode="&#x2021;" horiz-adv-x="439" d="M101 -13 C94 -13 90 -17 90 -24 L90 -56 C90 -63 94 -67 101 -67 L190 -67 L190 -257 C190 -264 194 -268 201 -268 L238 -268 C245 -268 249 -264 249 -257 L249 -67 L338 -67 C345 -67 349 -63 349 -56 L349 -24 C349 -17 345 -13 338 -13 L249 -13 L249 486 L338 486 C345 486 349 490 349 497 L349 529 C349 536 345 540 338 540 L249 540 L249 689 C249 696 245 700 238 700 L201 700 C194 700 190 696 190 689 L190 540 L101 540 C94 540 90 536 90 529 L90 497 C90 490 94 486 101 486 L190 486 L190 -13 L101 -13 Z " />
<glyph glyph-name="bullet" unicode="&#x2022;" horiz-adv-x="248" d="M90 194 C90 187 94 183 101 183 L147 183 C154 183 158 187 158 194 L158 243 C158 250 154 254 147 254 L101 254 C94 254 90 250 90 243 L90 194 Z " />
<glyph glyph-name="ellipsis" unicode="&#x2026;" horiz-adv-x="898" d="M90 6 C90 -1 94 -5 101 -5 L147 -5 C154 -5 158 -1 158 6 L158 55 C158 62 154 66 147 66 L101 66 C94 66 90 62 90 55 L90 6 Z M415 6 C415 -1 419 -5 426 -5 L472 -5 C479 -5 483 -1 483 6 L483 55 C483 62 479 66 472 66 L426 66 C419 66 415 62 415 55 L415 6 Z M740 6 C740 -1 744 -5 751 -5 L797 -5 C804 -5 808 -1 808 6 L808 55 C808 62 804 66 797 66 L751 66 C744 66 740 62 740 55 L740 6 Z " />
<glyph glyph-name="perthousand" unicode="&#x2030;" horiz-adv-x="1067" d="M205 700 C141 700 90 649 90 585 C90 521 141 469 205 469 C269 469 320 521 320 585 C320 649 269 700 205 700 L205 700 Z M205 519 C168 519 139 552 139 585 C139 624 168 652 205 652 C243 652 272 624 272 585 C272 552 243 519 205 519 L205 519 Z M223 9 C223 3 226 0 232 0 L272 0 C278 0 281 3 283 9 L571 691 C571 697 568 700 562 700 L522 700 C516 700 513 697 511 691 L223 9 Z M589 231 C525 231 474 180 474 116 C474 52 525 0 589 0 C653 0 704 52 704 116 C704 180 653 231 589 231 L589 231 Z M589 50 C552 50 523 83 523 116 C523 155 552 183 589 183 C627 183 656 155 656 116 C656 83 627 50 589 50 L589 50 Z M862 231 C798 231 747 180 747 116 C747 52 798 0 862 0 C926 0 977 52 977 116 C977 180 926 231 862 231 L862 231 Z M862 50 C825 50 796 83 796 116 C796 155 825 183 862 183 C900 183 929 155 929 116 C929 83 900 50 862 50 L862 50 Z " />
<glyph glyph-name="guilsinglleft" unicode="&#x2039;" horiz-adv-x="386" d="M90 185 C90 178 92 175 100 172 L287 99 C291 99 296 102 296 108 L296 151 C296 158 291 161 287 163 L147 218 L147 224 L287 279 C291 281 296 284 296 291 L296 334 C296 340 291 343 287 343 L100 270 C92 267 90 264 90 257 L90 185 Z " />
<glyph glyph-name="guilsinglright" unicode="&#x203a;" horiz-adv-x="386" d="M296 257 C296 264 294 267 286 270 L99 343 C95 343 90 340 90 334 L90 291 C90 284 95 281 99 279 L239 224 L239 218 L99 163 C95 161 90 158 90 151 L90 108 C90 102 95 99 99 99 L286 172 C294 175 296 178 296 185 L296 257 Z " />
<glyph glyph-name="fraction" unicode="&#x2044;" horiz-adv-x="549" d="M90 -170 C90 -176 93 -179 99 -179 L139 -179 C145 -179 148 -176 150 -170 L459 795 C459 801 456 804 450 804 L410 804 C404 804 401 801 399 795 L90 -170 Z " />
<glyph glyph-name="Euro" unicode="&#x20ac;" horiz-adv-x="653" d="M307 229 C314 229 318 233 318 240 L318 272 C318 279 314 283 307 283 L229 283 L229 413 L307 413 C314 413 318 417 318 424 L318 456 C318 463 314 467 307 467 L229 467 L229 541 C229 608 260 651 328 651 L405 651 C473 651 504 608 504 541 L504 504 C504 497 508 493 515 493 L552 493 C559 493 563 497 563 504 L563 556 C563 638 503 705 418 705 L315 705 C230 705 170 638 170 556 L170 467 L101 467 C94 467 90 463 90 456 L90 424 C90 417 94 413 101 413 L170 413 L170 283 L101 283 C94 283 90 279 90 272 L90 240 C90 233 94 229 101 229 L170 229 L170 144 C170 62 230 -5 315 -5 L418 -5 C503 -5 563 62 563 144 L563 196 C563 203 559 207 552 207 L515 207 C508 207 504 203 504 196 L504 160 C504 93 473 49 405 49 L328 49 C260 49 229 93 229 160 L229 229 L307 229 Z " />
<glyph glyph-name="Numero" unicode="&#x2116;" horiz-adv-x="1031" d="M818 175 C899 175 941 245 941 311 L941 564 C941 630 899 700 818 700 L744 700 C663 700 621 630 621 564 L621 311 C621 245 663 175 744 175 L818 175 Z M799 646 C857 646 882 604 882 554 L882 321 C882 274 845 229 798 229 L764 229 C717 229 680 274 680 321 L680 554 C680 604 705 646 763 646 L799 646 Z M851 0 C858 0 862 4 862 11 L862 43 C862 50 858 54 851 54 L709 54 C702 54 698 50 698 43 L698 11 C698 4 702 0 709 0 L851 0 Z M448 101 L181 689 C178 695 173 700 166 700 L101 700 C94 700 90 696 90 689 L90 11 C90 4 94 0 101 0 L138 0 C145 0 149 4 149 11 L149 598 L157 598 L425 11 C428 5 433 0 440 0 L504 0 C511 0 515 4 515 11 L515 689 C515 696 511 700 504 700 L467 700 C460 700 456 696 456 689 L456 101 L448 101 Z " />
<glyph glyph-name="trademark" unicode="&#x2122;" horiz-adv-x="729" d="M159 424 C159 421 162 418 165 418 L204 418 C207 418 210 421 210 424 L210 654 L273 654 C276 654 279 657 279 660 L279 694 C279 697 276 700 273 700 L96 700 C93 700 90 697 90 694 L90 660 C90 657 93 654 96 654 L159 654 L159 424 Z M495 454 C497 454 498 455 500 458 L588 615 L588 424 C588 421 591 418 594 418 L633 418 C636 418 639 421 639 424 L639 694 C639 697 636 700 633 700 L586 700 C583 700 580 697 578 694 L490 537 L486 537 L398 694 C396 697 393 700 390 700 L343 700 C340 700 337 697 337 694 L337 424 C337 421 340 418 343 418 L382 418 C385 418 388 421 388 424 L388 615 L476 458 C478 455 479 454 481 454 L495 454 Z " />
<glyph glyph-name="Omega" unicode="&#x2126;" horiz-adv-x="709" d="M306 700 C218 700 157 633 157 551 L157 167 C157 152 160 99 189 54 L101 54 C94 54 90 50 90 43 L90 11 C90 4 94 0 101 0 L249 0 C256 0 260 4 260 11 L260 59 C260 60 260 65 256 67 C218 84 216 144 216 170 L216 535 C216 594 258 646 314 646 L395 646 C451 646 493 594 493 535 L493 170 C493 144 491 84 453 67 C449 65 449 60 449 59 L449 11 C449 4 453 0 460 0 L608 0 C615 0 619 4 619 11 L619 43 C619 50 615 54 608 54 L520 54 C549 99 552 152 552 167 L552 551 C552 633 491 700 403 700 L306 700 Z " />
<glyph glyph-name="partialdiff" unicode="&#x2202;" horiz-adv-x="515" d="M232 49 C174 49 149 91 149 141 L149 289 C149 339 174 381 232 381 L268 381 C326 381 364 332 364 282 L364 148 C364 98 326 49 268 49 L232 49 Z M425 569 C425 635 383 705 302 705 L228 705 C147 705 105 635 105 569 L105 544 C105 537 109 533 116 533 L153 533 C160 533 164 537 164 544 L164 559 C164 609 189 651 247 651 L283 651 C341 651 366 609 366 559 L366 392 L359 392 C335 425 308 435 280 435 L221 435 C140 435 90 376 90 297 L90 133 C90 54 140 -5 221 -5 L280 -5 C308 -5 335 5 359 38 L366 38 L366 11 C366 4 370 0 377 0 L414 0 C421 0 425 4 425 11 L425 569 Z " />
<glyph glyph-name="Delta" unicode="&#x2206;" horiz-adv-x="842" d="M669 54 L173 54 L421 641 L669 54 Z M740 0 C747 0 750 3 752 9 L465 690 C463 695 458 700 451 700 L391 700 C384 700 379 695 377 690 L90 9 C92 3 95 0 102 0 L740 0 Z " />
<glyph glyph-name="product" unicode="&#x220f;" horiz-adv-x="742" d="M101 700 C94 700 90 696 90 689 L90 657 C90 650 94 646 101 646 L229 646 L229 11 C229 4 233 0 240 0 L277 0 C284 0 288 4 288 11 L288 646 L454 646 L454 11 C454 4 458 0 465 0 L502 0 C509 0 513 4 513 11 L513 646 L641 646 C648 646 652 650 652 657 L652 689 C652 696 648 700 641 700 L101 700 Z " />
<glyph glyph-name="summation" unicode="&#x2211;" horiz-adv-x="493" d="M243 344 L90 77 L90 11 C90 4 94 0 101 0 L392 0 C399 0 403 4 403 11 L403 43 C403 50 399 54 392 54 L143 54 C177 110 222 186 314 348 L314 352 C222 514 177 590 143 646 L392 646 C399 646 403 650 403 657 L403 689 C403 696 399 700 392 700 L101 700 C94 700 90 696 90 689 L90 623 L243 356 L243 344 Z " />
<glyph glyph-name="minus" unicode="&#x2212;" horiz-adv-x="344" d="M243 209 C250 209 254 213 254 220 L254 252 C254 259 250 263 243 263 L101 263 C94 263 90 259 90 252 L90 220 C90 213 94 209 101 209 L243 209 Z " />
<glyph glyph-name="radical" unicode="&#x221a;" horiz-adv-x="677" d="M576 646 C583 646 587 650 587 657 L587 689 C587 696 583 700 576 700 L423 700 C416 700 413 696 411 689 L244 58 L233 58 L150 373 C148 380 145 384 138 384 L101 384 C94 384 90 380 90 373 L186 9 C188 3 191 0 198 0 L279 0 C286 0 289 3 291 9 L459 646 L576 646 Z " />
<glyph glyph-name="infinity" unicode="&#x221e;" horiz-adv-x="898" d="M419 226 C419 176 384 134 326 134 L242 134 C184 134 149 176 149 226 L149 298 C149 348 184 390 242 390 L326 390 C384 390 419 348 419 298 L419 226 Z M449 144 C478 86 531 81 558 81 L680 81 C760 81 808 146 808 211 L808 313 C808 378 760 443 680 443 L558 443 C531 443 478 438 449 380 C420 438 367 443 340 443 L218 443 C138 443 90 378 90 313 L90 211 C90 146 138 81 218 81 L340 81 C367 81 420 86 449 144 L449 144 Z M479 298 C479 348 514 390 572 390 L656 390 C714 390 749 348 749 298 L749 226 C749 176 714 134 656 134 L572 134 C514 134 479 176 479 226 L479 298 Z " />
<glyph glyph-name="integral" unicode="&#x222b;" horiz-adv-x="433" d="M338 643 C342 645 343 648 343 655 L327 695 C325 699 321 701 318 701 C317 701 315 701 313 700 C268 680 187 626 187 521 L187 3 C187 3 183 -76 95 -124 C91 -126 90 -129 90 -136 L106 -176 C108 -180 112 -182 115 -182 C116 -182 118 -182 120 -181 C165 -161 246 -107 246 -2 L246 516 C246 516 250 595 338 643 L338 643 Z " />
<glyph glyph-name="approxequal" unicode="&#x2248;" horiz-adv-x="376" d="M238 106 C248 106 264 112 280 119 C284 121 286 125 286 129 L277 160 C276 164 273 166 269 166 C258 166 249 160 234 160 C190 160 194 190 138 190 C128 190 112 184 96 177 C92 175 90 171 90 167 L99 136 C100 132 103 130 107 130 C118 130 127 136 142 136 C185 136 182 106 238 106 L238 106 Z M238 260 C248 260 264 266 280 273 C284 275 286 279 286 283 L277 314 C276 318 273 320 269 320 C258 320 249 314 234 314 C190 314 194 344 138 344 C128 344 112 338 96 331 C92 329 90 325 90 321 L99 290 C100 286 103 284 107 284 C118 284 127 290 142 290 C185 290 182 260 238 260 L238 260 Z " />
<glyph glyph-name="notequal" unicode="&#x2260;" horiz-adv-x="391" d="M278 304 C285 304 289 308 289 315 L289 347 C289 354 285 358 278 358 L261 358 L301 482 C301 488 298 491 292 491 L252 491 C246 491 243 488 241 482 L201 358 L104 358 C97 358 93 354 93 347 L93 315 C93 308 97 304 104 304 L184 304 L138 160 L104 160 C97 160 93 156 93 149 L93 117 C93 110 97 106 104 106 L121 106 L90 9 C90 3 93 0 99 0 L139 0 C145 0 148 3 150 9 L181 106 L278 106 C285 106 289 110 289 117 L289 149 C289 156 285 160 278 160 L198 160 L244 304 L278 304 Z " />
<glyph glyph-name="lessequal" unicode="&#x2264;" horiz-adv-x="386" d="M285 0 C292 0 296 4 296 11 L296 43 C296 50 292 54 285 54 L101 54 C94 54 90 50 90 43 L90 11 C90 4 94 0 101 0 L285 0 Z M90 201 C90 194 92 191 100 188 L287 115 C291 115 296 118 296 124 L296 167 C296 174 291 177 287 179 L147 234 L147 240 L287 295 C291 297 296 300 296 307 L296 350 C296 356 291 359 287 359 L100 286 C92 283 90 280 90 273 L90 201 Z " />
<glyph glyph-name="greaterequal" unicode="&#x2265;" horiz-adv-x="386" d="M285 0 C292 0 296 4 296 11 L296 43 C296 50 292 54 285 54 L101 54 C94 54 90 50 90 43 L90 11 C90 4 94 0 101 0 L285 0 Z M296 273 C296 280 294 283 286 286 L99 359 C95 359 90 356 90 350 L90 307 C90 300 95 297 99 295 L239 240 L239 234 L99 179 C95 177 90 174 90 167 L90 124 C90 118 95 115 99 115 L286 188 C294 191 296 194 296 201 L296 273 Z " />
<glyph glyph-name="lozenge" unicode="&#x25ca;" horiz-adv-x="626" d="M313 49 L157 349 L313 651 L469 349 L313 49 Z M348 0 C354 0 358 4 360 9 L536 350 L358 691 C356 696 352 700 346 700 L280 700 C274 700 270 696 268 691 L90 350 L266 9 C268 4 272 0 278 0 L348 0 Z " />
<glyph glyph-name="uni25CC" unicode="&#x25cc;" horiz-adv-x="199" d="" />
<glyph glyph-name="fi" unicode="&#xfb01;" horiz-adv-x="615" d="M266 744 C184 744 131 679 131 606 L131 515 L56 515 C49 515 45 511 45 504 L45 472 C45 465 49 461 56 461 L131 461 L131 11 C131 4 135 0 142 0 L179 0 C186 0 190 4 190 11 L190 461 L291 461 C298 461 302 465 302 472 L302 504 C302 511 298 515 291 515 L191 515 L191 597 C191 645 231 690 277 690 L292 690 C299 690 303 694 303 701 L303 733 C303 740 299 744 292 744 L266 744 Z M459 11 C459 4 463 0 470 0 L507 0 C514 0 518 4 518 11 L518 504 C518 511 514 515 507 515 L470 515 C463 515 459 511 459 504 L459 11 Z M456 589 C456 582 460 578 467 578 L510 578 C517 578 521 582 521 589 L521 657 C521 664 517 668 510 668 L467 668 C460 668 456 664 456 657 L456 589 Z " />
<glyph glyph-name="fl" unicode="&#xfb02;" horiz-adv-x="597" d="M266 744 C184 744 131 679 131 606 L131 515 L56 515 C49 515 45 511 45 504 L45 472 C45 465 49 461 56 461 L131 461 L131 11 C131 4 135 0 142 0 L179 0 C186 0 190 4 190 11 L190 461 L291 461 C298 461 302 465 302 472 L302 504 C302 511 298 515 291 515 L191 515 L191 597 C191 645 231 690 277 690 L292 690 C299 690 303 694 303 701 L303 733 C303 740 299 744 292 744 L266 744 Z M448 11 C448 4 452 0 459 0 L496 0 C503 0 507 4 507 11 L507 689 C507 696 503 700 496 700 L459 700 C452 700 448 696 448 689 L448 11 Z " />
</font>
</svg>
