<?xml version="1.0" encoding="UTF-8"?>
<svg xmlns="http://www.w3.org/2000/svg" xmlns:xlink="http://www.w3.org/1999/xlink" version="1.2" >
<font id="Tomkin Condense Light Italic">
<font-face  font-family="Tomkin Condense" units-per-em="1000" ascent="750" descent="-250" font-style="italic" font-weight="300" font-stretch="normal" cap-height="700" x-height="515" underline-position="-91" underline-thickness="35" />
<missing-glyph  horiz-adv-x="569" d="" />
<glyph glyph-name="space" unicode="&#x20;" horiz-adv-x="182" d="" />
<glyph glyph-name="exclam" unicode="&#x21;" horiz-adv-x="239" d="M127 267 L119 172 C118 165 121 161 128 161 L155 161 C162 161 167 165 168 172 L186 267 L245 689 C246 696 243 700 236 700 L199 700 C192 700 187 696 186 689 L127 267 Z M91 11 C90 4 94 0 101 0 L138 0 C145 0 149 4 150 11 L158 71 C159 78 156 82 149 82 L112 82 C105 82 100 78 99 71 L91 11 Z " />
<glyph glyph-name="quotedbl" unicode="&#x22;" horiz-adv-x="388" d="M176 615 L168 520 C167 513 170 509 177 509 L197 509 C204 509 209 513 210 520 L228 615 L238 689 C239 696 236 700 229 700 L199 700 C192 700 187 696 186 689 L176 615 Z M332 615 L324 520 C323 513 326 509 333 509 L353 509 C360 509 365 513 366 520 L384 615 L394 689 C395 696 392 700 385 700 L355 700 C348 700 343 696 342 689 L332 615 Z " />
<glyph glyph-name="numbersign" unicode="&#x23;" horiz-adv-x="803" d="M386 9 C385 3 388 0 394 0 L434 0 C440 0 443 3 446 9 L513 156 L609 156 C616 156 621 160 622 167 L626 199 C627 206 624 210 617 210 L538 210 L663 483 L769 483 C776 483 781 487 782 494 L786 526 C787 533 784 537 777 537 L689 537 L760 691 C760 697 758 700 752 700 L712 700 C706 700 702 697 700 691 L629 537 L447 537 L518 691 C518 697 516 700 510 700 L470 700 C464 700 460 697 458 691 L387 537 L290 537 C283 537 278 533 277 526 L273 494 C272 487 275 483 282 483 L361 483 L236 210 L130 210 C123 210 118 206 117 199 L113 167 C112 160 115 156 122 156 L211 156 L144 9 C143 3 146 0 152 0 L192 0 C198 0 201 3 204 9 L271 156 L453 156 L386 9 Z M421 483 L603 483 L478 210 L296 210 L421 483 Z " />
<glyph glyph-name="dollar" unicode="&#x24;" horiz-adv-x="574" d="M221 519 L225 541 C234 608 271 651 339 651 L405 651 C473 651 498 608 489 541 L487 529 C486 522 489 518 496 518 L533 518 C540 518 545 522 546 529 L550 557 C561 638 510 705 425 705 L416 705 L432 822 C433 829 430 833 423 833 L386 833 C379 833 374 829 373 822 L357 705 L334 705 C249 705 179 638 168 557 L164 532 C123 236 480 395 449 174 L447 159 C437 92 400 49 332 49 L254 49 C186 49 161 92 171 159 L173 171 C174 178 170 182 163 182 L126 182 C119 182 115 178 114 171 L110 143 C98 62 150 -5 235 -5 L257 -5 L240 -125 C239 -132 242 -136 249 -136 L286 -136 C293 -136 298 -132 299 -125 L316 -5 L338 -5 C423 -5 492 62 504 143 L506 162 C547 450 190 294 221 519 L221 519 Z " />
<glyph glyph-name="percent" unicode="&#x25;" horiz-adv-x="794" d="M303 700 C239 700 181 649 172 585 C163 521 206 469 270 469 C334 469 393 521 402 585 C411 649 367 700 303 700 L303 700 Z M277 519 C240 519 216 552 221 585 C226 624 259 652 296 652 C334 652 359 624 354 585 C349 552 315 519 277 519 L277 519 Z M224 9 C223 3 226 0 232 0 L272 0 C278 0 281 3 284 9 L668 691 C668 697 666 700 660 700 L620 700 C614 700 610 697 608 691 L224 9 Z M621 231 C557 231 499 180 490 116 C481 52 525 0 589 0 C653 0 711 52 720 116 C729 180 685 231 621 231 L621 231 Z M596 50 C559 50 534 83 539 116 C544 155 577 183 614 183 C652 183 677 155 672 116 C667 83 634 50 596 50 L596 50 Z " />
<glyph glyph-name="ampersand" unicode="&#x26;" horiz-adv-x="624" d="M460 323 L421 49 L251 49 C197 49 162 97 171 161 L178 212 C187 272 236 323 290 323 L460 323 Z M488 530 C487 523 490 519 497 519 L534 519 C541 519 546 523 547 530 L551 557 C562 638 512 705 427 705 L369 705 C283 705 212 638 201 557 L190 479 C186 449 182 386 244 354 C164 340 125 253 119 209 L110 149 C99 67 152 0 237 0 L462 0 C469 0 473 4 474 11 L518 323 L593 323 C600 323 604 327 605 334 L610 366 C611 373 607 377 600 377 L330 377 C276 377 241 424 250 488 L258 541 C266 604 315 651 369 651 L410 651 C465 651 498 601 490 541 L488 530 Z " />
<glyph glyph-name="quotesingle" unicode="&#x27;" horiz-adv-x="232" d="M176 615 L168 520 C167 513 170 509 177 509 L197 509 C204 509 209 513 210 520 L228 615 L238 689 C239 696 236 700 229 700 L199 700 C192 700 187 696 186 689 L176 615 Z " />
<glyph glyph-name="parenleft" unicode="&#x28;" horiz-adv-x="287" d="M133 308 C111 150 105 1 114 -167 C114 -174 116 -178 123 -178 L160 -178 C167 -178 172 -174 173 -167 C165 -15 171 159 192 308 C213 457 258 642 308 794 C309 801 306 805 299 805 L262 805 C255 805 251 801 249 794 C192 626 155 466 133 308 L133 308 Z " />
<glyph glyph-name="parenright" unicode="&#x29;" horiz-adv-x="287" d="M240 308 C262 466 269 626 260 794 C260 801 258 805 251 805 L214 805 C207 805 202 801 201 794 C209 642 202 457 181 308 C160 159 116 -15 66 -167 C65 -174 68 -178 75 -178 L112 -178 C119 -178 123 -174 125 -167 C182 1 218 150 240 308 L240 308 Z " />
<glyph glyph-name="asterisk" unicode="&#x2a;" horiz-adv-x="430" d="M319 584 L334 693 C334 696 332 700 329 700 L298 700 C293 700 290 696 290 693 L275 584 L207 634 C205 635 203 635 203 635 C200 635 198 634 196 632 L176 605 C174 603 174 602 174 601 C174 600 174 597 176 596 L252 538 L174 462 C172 460 172 458 172 456 C171 454 172 452 174 450 L193 431 C194 430 196 430 197 430 C200 430 201 431 202 432 L287 516 L348 432 C349 431 350 430 353 430 C354 430 356 430 357 431 L382 450 C384 452 385 454 386 456 C386 458 386 460 384 462 L328 538 L420 596 C422 597 424 600 424 601 C424 602 424 603 424 605 L410 632 C410 634 408 635 405 635 C405 635 403 635 401 634 L319 584 Z " />
<glyph glyph-name="plus" unicode="&#x2b;" horiz-adv-x="395" d="M322 206 C329 206 334 210 335 217 L339 249 C340 256 337 260 330 260 L263 260 L280 380 C281 387 277 391 270 391 L233 391 C226 391 222 387 221 380 L204 260 L137 260 C130 260 125 256 124 249 L120 217 C119 210 122 206 129 206 L196 206 L179 83 C178 76 182 72 189 72 L226 72 C233 72 237 76 238 83 L255 206 L322 206 Z " />
<glyph glyph-name="comma" unicode="&#x2c;" horiz-adv-x="288" d="M125 -91 C132 -91 135 -87 140 -79 L201 23 C202 31 198 35 191 35 L154 35 C147 35 144 31 139 23 L78 -79 C77 -87 81 -91 89 -91 L125 -91 Z " />
<glyph glyph-name="hyphen" unicode="&#x2d;" horiz-adv-x="344" d="M272 209 C279 209 283 213 284 220 L289 252 C290 259 286 263 279 263 L137 263 C130 263 126 259 125 252 L120 220 C119 213 123 209 130 209 L272 209 Z " />
<glyph glyph-name="period" unicode="&#x2e;" horiz-adv-x="248" d="M90 6 C89 -1 93 -5 100 -5 L146 -5 C153 -5 157 -1 158 6 L165 55 C166 62 163 66 156 66 L110 66 C103 66 98 62 97 55 L90 6 Z " />
<glyph glyph-name="slash" unicode="&#x2f;" horiz-adv-x="549" d="M66 -170 C65 -176 67 -179 73 -179 L113 -179 C119 -179 123 -176 126 -170 L570 795 C571 801 568 804 562 804 L522 804 C516 804 513 801 510 795 L66 -170 Z " />
<glyph glyph-name="zero" unicode="0" horiz-adv-x="563" d="M427 705 L324 705 C239 705 169 638 158 556 L100 144 C88 62 139 -5 224 -5 L327 -5 C412 -5 481 62 493 144 L551 556 C562 638 512 705 427 705 L427 705 Z M436 160 C427 93 389 49 321 49 L244 49 C176 49 152 93 161 160 L215 541 C224 608 261 651 329 651 L406 651 C474 651 499 608 490 541 L436 160 Z " />
<glyph glyph-name="one" unicode="1" horiz-adv-x="506" d="M166 642 C161 640 159 636 158 632 L153 593 C152 587 154 584 161 584 L342 643 L259 54 L122 54 C115 54 111 50 110 43 L105 11 C104 4 108 0 115 0 L450 0 C457 0 461 4 462 11 L467 43 C468 50 464 54 457 54 L318 54 L407 689 C408 696 405 700 398 700 L344 700 L166 642 Z " />
<glyph glyph-name="two" unicode="2" horiz-adv-x="525" d="M71 11 C70 4 74 0 81 0 L442 0 C449 0 453 4 454 11 L459 43 C460 50 456 54 449 54 L136 54 L148 141 C180 363 484 208 525 500 L533 557 C544 638 494 705 409 705 L318 705 C233 705 162 638 151 557 L147 529 C146 522 149 518 156 518 L193 518 C200 518 205 522 206 529 L208 541 C217 608 254 651 322 651 L388 651 C456 651 481 608 472 541 L464 488 C433 269 129 422 88 130 L71 11 Z " />
<glyph glyph-name="three" unicode="3" horiz-adv-x="532" d="M416 350 C473 369 518 441 523 476 L535 557 C546 638 496 705 411 705 L320 705 C235 705 164 638 153 557 L149 529 C148 522 151 518 158 518 L195 518 C202 518 207 522 208 529 L210 541 C219 608 256 651 324 651 L390 651 C458 651 483 608 474 541 L466 487 C457 422 409 379 354 379 L296 379 C289 379 284 375 283 368 L278 332 C277 325 281 321 288 321 L346 321 C401 321 437 278 427 213 L420 159 C410 92 373 49 305 49 L239 49 C171 49 146 92 156 159 L158 171 C159 178 155 182 148 182 L111 182 C104 182 100 178 99 171 L95 143 C83 62 135 -5 220 -5 L311 -5 C396 -5 465 62 477 143 L488 224 C493 259 468 331 416 350 L416 350 Z " />
<glyph glyph-name="four" unicode="4" horiz-adv-x="537" d="M77 199 L73 167 C72 160 75 156 82 156 L377 156 L357 11 C356 4 360 0 367 0 L404 0 C411 0 415 4 416 11 L436 156 L497 156 C504 156 509 160 510 167 L514 199 C515 206 512 210 505 210 L444 210 L474 421 C475 428 471 432 464 432 L427 432 C420 432 416 428 415 421 L385 210 L150 210 L433 693 C433 697 431 700 427 700 L380 700 C374 700 371 697 369 693 L77 199 Z " />
<glyph glyph-name="five" unicode="5" horiz-adv-x="543" d="M100 143 C88 62 150 -5 236 -5 L315 -5 C401 -5 481 62 493 143 L510 266 C521 347 464 414 378 414 L296 414 C281 414 237 414 193 386 L229 646 L501 646 C508 646 513 650 514 657 L518 689 C519 696 516 700 509 700 L189 700 C182 700 177 696 176 689 L126 331 C125 324 128 320 135 320 L177 320 C184 320 187 324 193 331 C214 356 261 360 281 360 L357 360 C421 360 458 320 448 249 L436 161 C426 92 380 49 313 49 L253 49 C191 49 151 87 161 161 L162 165 C163 172 159 176 152 176 L115 176 C108 176 104 172 103 165 L100 143 Z " />
<glyph glyph-name="six" unicode="6" horiz-adv-x="544" d="M437 159 C427 92 390 49 322 49 L244 49 C176 49 151 92 161 159 L174 250 C183 317 220 360 288 360 L366 360 C434 360 459 317 450 250 L437 159 Z M396 651 C464 651 489 608 480 541 L478 532 C477 525 481 521 488 521 L525 521 C532 521 536 525 537 532 L541 557 C552 638 501 705 413 705 L327 705 C240 705 169 638 158 557 L100 143 C88 62 140 -5 227 -5 L328 -5 C413 -5 482 62 494 143 L511 267 C522 348 472 414 387 414 L293 414 C281 414 240 413 192 378 L215 541 C224 608 261 651 329 651 L396 651 Z " />
<glyph glyph-name="seven" unicode="7" horiz-adv-x="460" d="M138 11 C137 4 141 0 148 0 L185 0 C192 0 195 4 197 11 C255 211 334 441 494 640 L501 689 C502 696 499 700 492 700 L164 700 C157 700 152 696 151 689 L147 657 C146 650 149 646 156 646 L439 646 C261 426 193 195 138 11 L138 11 Z " />
<glyph glyph-name="eight" unicode="8" horiz-adv-x="545" d="M239 49 C171 49 147 93 156 160 L163 210 C172 277 210 321 278 321 L357 321 C425 321 449 277 440 210 L433 160 C424 93 386 49 318 49 L239 49 Z M338 705 C251 705 180 638 169 557 L157 472 C153 442 156 371 219 354 C139 327 111 262 106 222 L95 143 C83 62 133 -5 218 -5 L325 -5 C410 -5 478 62 490 143 L501 222 C506 262 496 327 424 354 C493 371 516 442 520 472 L532 557 C543 638 492 705 405 705 L338 705 Z M387 651 C455 651 480 608 471 541 L463 485 C453 418 416 375 348 375 L301 375 C233 375 208 418 218 485 L226 541 C235 608 272 651 340 651 L387 651 Z " />
<glyph glyph-name="nine" unicode="9" horiz-adv-x="544" d="M205 541 C214 608 251 651 319 651 L397 651 C465 651 490 608 481 541 L468 450 C458 383 421 340 353 340 L275 340 C207 340 182 383 192 450 L205 541 Z M245 49 C177 49 152 92 162 159 L163 168 C164 175 161 179 154 179 L117 179 C110 179 105 175 104 168 L101 143 C89 62 141 -5 229 -5 L315 -5 C402 -5 472 62 484 143 L542 557 C553 638 502 705 415 705 L314 705 C229 705 159 638 148 557 L130 433 C119 352 170 286 255 286 L349 286 C361 286 402 287 450 322 L427 159 C417 92 380 49 312 49 L245 49 Z " />
<glyph glyph-name="colon" unicode="&#x3a;" horiz-adv-x="248" d="M90 6 C89 -1 93 -5 100 -5 L146 -5 C153 -5 157 -1 158 6 L165 55 C166 62 163 66 156 66 L110 66 C103 66 98 62 97 55 L90 6 Z M138 345 C137 338 140 334 147 334 L193 334 C200 334 205 338 206 345 L213 394 C214 401 210 405 203 405 L157 405 C150 405 146 401 145 394 L138 345 Z " />
<glyph glyph-name="semicolon" unicode="&#x3b;" horiz-adv-x="289" d="M179 345 C178 338 181 334 188 334 L234 334 C241 334 246 338 247 345 L254 394 C255 401 251 405 244 405 L198 405 C191 405 187 401 186 394 L179 345 Z M125 -91 C132 -91 135 -87 140 -79 L201 23 C202 31 198 35 191 35 L154 35 C147 35 144 31 139 23 L78 -79 C77 -87 81 -91 89 -91 L125 -91 Z " />
<glyph glyph-name="less" unicode="&#x3c;" horiz-adv-x="386" d="M116 185 C115 178 116 175 124 172 L300 99 C304 99 310 102 311 108 L317 151 C318 158 313 161 309 163 L177 218 L178 224 L326 279 C330 281 335 284 336 291 L342 334 C343 340 339 343 335 343 L137 270 C129 267 127 264 126 257 L116 185 Z " />
<glyph glyph-name="equal" unicode="&#x3d;" horiz-adv-x="344" d="M258 109 C265 109 269 113 270 120 L275 152 C276 159 272 163 265 163 L123 163 C116 163 112 159 111 152 L106 120 C105 113 109 109 116 109 L258 109 Z M285 301 C292 301 296 305 297 312 L302 344 C303 351 299 355 292 355 L150 355 C143 355 139 351 138 344 L133 312 C132 305 136 301 143 301 L285 301 Z " />
<glyph glyph-name="greater" unicode="&#x3e;" horiz-adv-x="386" d="M332 257 C333 264 331 267 323 270 L147 343 C143 343 137 340 136 334 L130 291 C129 284 134 281 138 279 L270 224 L269 218 L121 163 C117 161 112 158 111 151 L105 108 C104 102 108 99 112 99 L310 172 C318 175 321 178 322 185 L332 257 Z " />
<glyph glyph-name="question" unicode="&#x3f;" horiz-adv-x="562" d="M245 172 C244 165 247 161 254 161 L291 161 C298 161 303 165 304 172 L305 184 C336 404 506 243 543 510 L550 557 C561 638 511 705 426 705 L335 705 C250 705 179 638 168 557 L161 509 C160 502 163 498 170 498 L207 498 C214 498 219 502 220 509 L225 541 C234 608 271 651 339 651 L405 651 C473 651 498 608 489 541 L484 510 C452 284 284 451 247 189 L245 172 Z M222 11 C221 4 225 0 232 0 L269 0 C276 0 280 4 281 11 L289 71 C290 78 287 82 280 82 L243 82 C236 82 231 78 230 71 L222 11 Z " />
<glyph glyph-name="at" unicode="&#x40;" horiz-adv-x="722" d="M710 556 C721 638 661 705 576 705 L344 705 C259 705 179 638 168 556 L94 32 C82 -50 143 -117 228 -117 L391 -117 C398 -117 403 -113 404 -106 L408 -74 C409 -67 406 -63 399 -63 L249 -63 C181 -63 146 -19 155 48 L225 541 C234 608 281 651 349 651 L555 651 C623 651 658 608 649 541 L636 451 L629 451 C610 484 584 494 556 494 L497 494 C416 494 358 435 347 356 L323 190 C312 111 354 52 435 52 L494 52 C522 52 550 62 579 95 L586 95 L582 68 C581 61 585 57 592 57 L629 57 C636 57 640 61 641 68 L710 556 Z M453 106 C395 106 376 148 383 198 L404 348 C411 398 442 440 500 440 L536 440 C594 440 625 391 618 341 L599 205 C592 155 547 106 489 106 L453 106 Z " />
<glyph glyph-name="A" unicode="A" horiz-adv-x="552" d="M336 700 C330 700 326 697 324 692 L46 11 C45 4 49 0 56 0 L94 0 C101 0 104 4 107 11 L159 138 L431 138 L447 11 C448 4 451 0 458 0 L496 0 C503 0 507 4 508 11 L422 692 C420 697 418 700 412 700 L336 700 Z M359 629 L369 629 L424 191 L180 191 L359 629 Z " />
<glyph glyph-name="B" unicode="B" horiz-adv-x="534" d="M316 0 C403 0 483 67 494 149 L505 221 C511 267 497 319 429 359 C474 383 504 449 508 479 L518 551 C529 633 469 700 383 700 L199 700 C192 700 187 696 186 689 L91 11 C90 4 94 0 101 0 L316 0 Z M201 377 L239 646 L364 646 C420 646 465 594 457 535 L450 488 C441 424 382 377 326 377 L201 377 Z M353 323 C409 323 453 272 444 212 L438 165 C429 101 371 54 315 54 L156 54 L194 323 L353 323 Z " />
<glyph glyph-name="C" unicode="C" horiz-adv-x="538" d="M436 160 C427 93 389 49 321 49 L244 49 C176 49 152 93 161 160 L215 541 C224 608 261 651 329 651 L406 651 C474 651 499 608 490 541 L484 504 C483 497 487 493 494 493 L531 493 C538 493 542 497 543 504 L551 556 C562 638 512 705 427 705 L324 705 C239 705 169 638 158 556 L100 144 C88 62 139 -5 224 -5 L327 -5 C412 -5 481 62 493 144 L500 196 C501 203 498 207 491 207 L454 207 C447 207 442 203 441 196 L436 160 Z " />
<glyph glyph-name="D" unicode="D" horiz-adv-x="563" d="M156 54 L239 646 L406 646 C474 646 509 602 500 535 L448 165 C438 98 391 54 323 54 L156 54 Z M199 700 C192 700 187 696 186 689 L91 11 C90 4 94 0 101 0 L328 0 C413 0 492 67 503 149 L560 551 C571 633 511 700 426 700 L199 700 Z " />
<glyph glyph-name="E" unicode="E" horiz-adv-x="483" d="M91 11 C90 4 94 0 101 0 L392 0 C399 0 403 4 404 11 L409 43 C410 50 406 54 399 54 L156 54 L192 310 L409 310 C416 310 421 314 422 321 L426 353 C427 360 424 364 417 364 L200 364 L239 646 L482 646 C489 646 494 650 495 657 L499 689 C500 696 497 700 490 700 L199 700 C192 700 187 696 186 689 L91 11 Z " />
<glyph glyph-name="F" unicode="F" horiz-adv-x="453" d="M91 11 C90 4 94 0 101 0 L138 0 C145 0 149 4 150 11 L192 310 L409 310 C416 310 421 314 422 321 L426 353 C427 360 424 364 417 364 L200 364 L239 646 L482 646 C489 646 494 650 495 657 L499 689 C500 696 497 700 490 700 L199 700 C192 700 187 696 186 689 L91 11 Z " />
<glyph glyph-name="G" unicode="G" horiz-adv-x="553" d="M339 370 C332 370 327 366 326 359 L321 327 C320 320 324 316 331 316 L458 316 L436 160 C427 93 389 49 321 49 L244 49 C176 49 152 93 161 160 L215 541 C224 608 261 651 329 651 L406 651 C474 651 499 608 490 541 L484 504 C483 497 487 493 494 493 L531 493 C538 493 542 497 543 504 L551 556 C562 638 512 705 427 705 L324 705 C239 705 169 638 158 556 L100 144 C88 62 139 -5 224 -5 L327 -5 C412 -5 481 62 493 144 L523 359 C524 366 521 370 514 370 L339 370 Z " />
<glyph glyph-name="H" unicode="H" horiz-adv-x="566" d="M418 11 C417 4 421 0 428 0 L465 0 C472 0 476 4 477 11 L572 689 C573 696 570 700 563 700 L526 700 C519 700 514 696 513 689 L468 363 L200 363 L245 689 C246 696 243 700 236 700 L199 700 C192 700 187 696 186 689 L91 11 C90 4 94 0 101 0 L138 0 C145 0 149 4 150 11 L192 309 L460 309 L418 11 Z " />
<glyph glyph-name="I" unicode="I" horiz-adv-x="239" d="M245 689 C246 692 245 695 243 697 C242 699 240 700 236 700 L199 700 C195 700 193 699 190 697 C188 695 187 692 186 689 L91 11 C91 8 91 5 93 3 C95 1 97 0 101 0 L138 0 C142 0 144 1 146 3 C148 5 150 8 150 11 L245 689 Z " />
<glyph glyph-name="J" unicode="J" horiz-adv-x="386" d="M27 36 C53 17 82 -5 149 -5 C265 -5 326 72 337 154 L412 689 C413 696 410 700 403 700 L366 700 C359 700 354 696 353 689 L280 164 C277 149 263 49 150 49 C122 49 104 55 72 76 C68 78 68 79 65 79 C63 79 59 78 57 76 L30 50 C27 48 26 45 25 42 C25 39 25 38 27 36 L27 36 Z " />
<glyph glyph-name="K" unicode="K" horiz-adv-x="517" d="M404 8 C405 4 407 0 413 0 L458 0 C463 0 466 3 467 8 L410 348 L563 692 C563 697 561 700 556 700 L513 700 C507 700 504 696 502 692 L362 376 L201 376 L245 689 C246 696 243 700 236 700 L199 700 C192 700 187 696 186 689 L91 11 C90 4 94 0 101 0 L138 0 C145 0 149 4 150 11 L194 322 L350 322 L404 8 Z " />
<glyph glyph-name="L" unicode="L" horiz-adv-x="453" d="M91 11 C90 4 94 0 101 0 L392 0 C399 0 403 4 404 11 L409 43 C410 50 406 54 399 54 L156 54 L245 689 C246 696 243 700 236 700 L199 700 C192 700 187 696 186 689 L91 11 Z " />
<glyph glyph-name="M" unicode="M" horiz-adv-x="729" d="M408 109 C414 109 417 113 421 119 L650 560 L658 560 L581 11 C580 4 584 0 591 0 L628 0 C635 0 639 4 640 11 L736 691 C736 697 734 700 728 700 L671 700 C665 700 660 696 658 691 L394 186 L387 186 L265 691 C263 696 260 700 254 700 L197 700 C191 700 187 697 187 691 L91 11 C90 4 94 0 101 0 L138 0 C145 0 149 4 150 11 L227 560 L235 560 L340 119 C342 113 345 109 351 109 L408 109 Z " />
<glyph glyph-name="N" unicode="N" horiz-adv-x="605" d="M462 101 L277 689 C275 695 271 700 264 700 L199 700 C192 700 187 696 186 689 L91 11 C90 4 94 0 101 0 L138 0 C145 0 149 4 150 11 L233 598 L241 598 L426 11 C428 5 433 0 440 0 L504 0 C511 0 515 4 516 11 L611 689 C612 696 609 700 602 700 L565 700 C558 700 553 696 552 689 L470 101 L462 101 Z " />
<glyph glyph-name="O" unicode="O" horiz-adv-x="553" d="M427 705 L324 705 C239 705 169 638 158 556 L100 144 C88 62 139 -5 224 -5 L327 -5 C412 -5 481 62 493 144 L551 556 C562 638 512 705 427 705 L427 705 Z M436 160 C427 93 389 49 321 49 L244 49 C176 49 152 93 161 160 L215 541 C224 608 261 651 329 651 L406 651 C474 651 499 608 490 541 L436 160 Z " />
<glyph glyph-name="P" unicode="P" horiz-adv-x="545" d="M188 284 L239 646 L399 646 C455 646 499 594 491 535 L471 394 C462 331 404 284 348 284 L188 284 Z M199 700 C192 700 187 696 186 689 L91 11 C90 4 94 0 101 0 L138 0 C145 0 149 4 150 11 L181 230 L350 230 C436 230 516 297 528 380 L552 551 C563 633 502 700 416 700 L199 700 Z " />
<glyph glyph-name="Q" unicode="Q" horiz-adv-x="553" d="M427 705 L324 705 C239 705 169 638 158 556 L100 144 C88 62 139 -5 224 -5 L240 -5 L270 -103 C271 -108 276 -113 282 -113 L327 -113 C334 -113 336 -108 337 -103 L308 -5 L327 -5 C412 -5 481 62 493 144 L551 556 C562 638 512 705 427 705 L427 705 Z M436 160 C427 93 389 49 321 49 L244 49 C176 49 152 93 161 160 L215 541 C224 608 261 651 329 651 L406 651 C474 651 499 608 490 541 L436 160 Z " />
<glyph glyph-name="R" unicode="R" horiz-adv-x="535" d="M528 380 L552 551 C563 633 502 700 416 700 L199 700 C192 700 187 696 186 689 L91 11 C90 4 94 0 101 0 L138 0 C145 0 149 4 150 11 L181 230 L326 230 L396 11 C398 4 401 0 408 0 L449 0 C456 0 460 4 461 11 L388 235 C458 251 518 310 528 380 L528 380 Z M471 394 C462 331 404 284 348 284 L188 284 L239 646 L399 646 C455 646 499 594 491 535 L471 394 Z " />
<glyph glyph-name="S" unicode="S" horiz-adv-x="519" d="M417 159 C407 92 370 49 302 49 L224 49 C156 49 131 92 141 159 L143 171 C144 178 140 182 133 182 L96 182 C89 182 85 178 84 171 L80 143 C68 62 120 -5 205 -5 L308 -5 C393 -5 462 62 474 143 L476 162 C517 450 160 294 191 519 L195 541 C204 608 241 651 309 651 L375 651 C443 651 468 608 459 541 L457 529 C456 522 459 518 466 518 L503 518 C510 518 515 522 516 529 L520 557 C531 638 480 705 395 705 L304 705 C219 705 149 638 138 557 L134 532 C93 236 450 395 419 174 L417 159 Z " />
<glyph glyph-name="T" unicode="T" horiz-adv-x="493" d="M164 700 C157 700 152 696 151 689 L147 657 C146 650 149 646 156 646 L307 646 L218 11 C217 4 221 0 228 0 L265 0 C272 0 276 4 277 11 L366 646 L517 646 C524 646 529 650 530 657 L534 689 C535 696 532 700 525 700 L164 700 Z " />
<glyph glyph-name="U" unicode="U" horiz-adv-x="563" d="M574 689 C575 696 572 700 565 700 L528 700 C521 700 516 696 515 689 L441 160 C432 93 394 49 326 49 L249 49 C181 49 157 93 166 160 L240 689 C241 696 238 700 231 700 L194 700 C187 700 182 696 181 689 L105 144 C93 62 144 -5 229 -5 L332 -5 C417 -5 486 62 498 144 L574 689 Z " />
<glyph glyph-name="V" unicode="V" horiz-adv-x="552" d="M314 0 C320 0 323 3 326 8 L603 689 C604 696 601 700 594 700 L556 700 C549 700 545 696 542 689 L290 71 L280 71 L202 689 C201 696 199 700 192 700 L154 700 C147 700 142 696 141 689 L228 8 C229 3 232 0 238 0 L314 0 Z " />
<glyph glyph-name="W" unicode="W" horiz-adv-x="744" d="M448 700 C442 700 438 696 435 690 L220 56 L202 689 C201 696 199 700 192 700 L154 700 C147 700 142 696 141 689 L162 11 C163 4 166 0 174 0 L252 0 C259 0 263 4 265 11 L451 564 L481 11 C481 4 485 0 492 0 L570 0 C578 0 581 4 584 11 L795 689 C796 696 793 700 786 700 L748 700 C741 700 737 696 734 689 L538 56 L501 690 C500 696 498 700 492 700 L448 700 Z " />
<glyph glyph-name="X" unicode="X" horiz-adv-x="515" d="M331 323 L402 11 C404 4 407 0 414 0 L454 0 C461 0 465 4 466 11 L389 350 L561 689 C562 696 559 700 552 700 L513 700 C506 700 502 696 498 689 L338 377 L281 377 L209 689 C207 696 205 700 198 700 L159 700 C152 700 147 696 146 689 L224 350 L51 11 C50 4 54 0 61 0 L101 0 C108 0 111 4 115 11 L274 323 L331 323 Z " />
<glyph glyph-name="Y" unicode="Y" horiz-adv-x="517" d="M304 308 L299 308 L200 689 C198 696 197 700 190 700 L149 700 C142 700 137 696 136 689 L259 216 L230 11 C229 4 233 0 240 0 L277 0 C284 0 288 4 289 11 L318 216 L573 689 C574 696 571 700 564 700 L523 700 C516 700 513 696 509 689 L304 308 Z " />
<glyph glyph-name="Z" unicode="Z" horiz-adv-x="484" d="M141 54 L508 652 C509 654 511 657 511 659 L515 689 C516 696 513 700 506 700 L174 700 C167 700 162 696 161 689 L157 657 C156 650 159 646 166 646 L440 646 L73 48 C72 46 71 43 70 41 L66 11 C65 4 69 0 76 0 L408 0 C415 0 419 4 420 11 L425 43 C426 50 422 54 415 54 L141 54 Z " />
<glyph glyph-name="bracketleft" unicode="&#x5b;" horiz-adv-x="363" d="M66 -166 C65 -173 69 -177 76 -177 L237 -177 C244 -177 248 -173 249 -166 L254 -134 C255 -127 251 -123 244 -123 L131 -123 L254 751 L367 751 C374 751 379 755 380 762 L384 794 C385 801 382 805 375 805 L214 805 C207 805 202 801 201 794 L66 -166 Z " />
<glyph glyph-name="backslash" unicode="&#x5c;" horiz-adv-x="549" d="M261 795 C260 801 257 804 251 804 L211 804 C205 804 202 801 201 795 L375 -170 C376 -176 378 -179 384 -179 L424 -179 C430 -179 434 -176 435 -170 L261 795 Z " />
<glyph glyph-name="bracketright" unicode="&#x5d;" horiz-adv-x="363" d="M384 794 C385 801 382 805 375 805 L214 805 C207 805 202 801 201 794 L197 762 C196 755 199 751 206 751 L319 751 L196 -123 L83 -123 C76 -123 72 -127 71 -134 L66 -166 C65 -173 69 -177 76 -177 L237 -177 C244 -177 248 -173 249 -166 L384 794 Z " />
<glyph glyph-name="asciicircum" unicode="&#x5e;" horiz-adv-x="384" d="M262 700 C256 700 251 696 247 689 L169 565 C168 560 171 557 176 557 L214 557 C217 557 220 561 223 565 L284 660 L319 565 C320 561 323 557 326 557 L364 557 C369 557 372 560 373 565 L329 689 C327 696 324 700 318 700 L262 700 Z " />
<glyph glyph-name="underscore" unicode="&#x5f;" horiz-adv-x="344" d="M227 -113 C234 -113 238 -109 239 -102 L244 -70 C245 -63 241 -59 234 -59 L92 -59 C85 -59 81 -63 80 -70 L75 -102 C74 -109 78 -113 85 -113 L227 -113 Z " />
<glyph glyph-name="grave" unicode="&#x60;" horiz-adv-x="288" d="M266 574 C274 574 279 578 280 586 L248 688 C245 696 243 700 236 700 L199 700 C192 700 187 696 186 688 L218 586 C221 578 223 574 230 574 L266 574 Z " />
<glyph glyph-name="a" unicode="a" horiz-adv-x="466" d="M210 49 C160 49 140 84 147 133 L152 165 C159 215 188 248 238 248 L366 248 L350 133 C343 84 306 49 257 49 L210 49 Z M194 451 C241 461 259 466 291 466 C397 466 385 379 379 336 L374 302 L243 302 C163 302 105 252 93 166 L87 123 C75 38 120 -5 200 -5 L236 -5 C275 -5 303 7 328 34 L336 34 L333 11 C332 4 336 0 343 0 L380 0 C387 0 391 4 392 11 L439 342 C445 387 461 520 309 520 C239 520 219 512 188 504 C184 502 182 500 181 495 C181 495 180 493 184 457 C185 451 189 451 194 451 L194 451 Z " />
<glyph glyph-name="b" unicode="b" horiz-adv-x="495" d="M154 38 L161 38 C180 5 206 -5 234 -5 L293 -5 C374 -5 432 54 443 133 L478 382 C489 461 448 520 367 520 L308 520 C280 520 251 510 223 477 L216 477 L245 689 C246 696 243 700 236 700 L199 700 C192 700 187 696 186 689 L91 11 C90 4 94 0 101 0 L138 0 C145 0 149 4 150 11 L154 38 Z M253 49 C195 49 164 98 171 148 L202 367 C209 417 254 466 312 466 L348 466 C406 466 425 424 418 374 L385 141 C378 91 347 49 289 49 L253 49 Z " />
<glyph glyph-name="c" unicode="c" horiz-adv-x="450" d="M416 156 C417 163 414 167 407 167 L370 167 C363 167 358 163 357 156 L355 141 C349 94 305 49 258 49 L224 49 C177 49 147 94 153 141 L186 374 C193 424 224 466 282 466 L318 466 C376 466 395 424 388 374 L386 359 C385 352 388 348 395 348 L432 348 C439 348 444 352 445 359 L448 384 C458 450 426 520 345 520 L271 520 C190 520 138 450 128 384 L93 131 C84 65 116 -5 197 -5 L271 -5 C352 -5 404 65 413 131 L416 156 Z " />
<glyph glyph-name="d" unicode="d" horiz-adv-x="495" d="M347 11 C346 4 350 0 357 0 L394 0 C401 0 405 4 406 11 L501 689 C502 696 499 700 492 700 L455 700 C448 700 443 696 442 689 L413 477 L406 477 C386 510 361 520 333 520 L274 520 C193 520 134 461 123 382 L88 133 C77 54 119 -5 200 -5 L259 -5 C287 -5 315 5 344 38 L351 38 L347 11 Z M218 49 C160 49 141 91 148 141 L181 374 C188 424 219 466 277 466 L313 466 C371 466 402 417 395 367 L364 148 C357 98 312 49 254 49 L218 49 Z " />
<glyph glyph-name="e" unicode="e" horiz-adv-x="465" d="M338 73 C319 60 302 49 266 49 L224 49 C177 49 147 94 153 141 L166 229 L416 229 C423 229 427 233 428 240 L448 384 C458 450 426 520 345 520 L271 520 C190 520 138 450 128 384 L93 131 C84 65 116 -5 197 -5 L259 -5 C259 -5 320 -6 373 39 C375 42 377 43 377 45 C377 48 376 49 374 52 L355 76 C353 79 351 79 350 79 C346 79 340 74 338 73 L338 73 Z M186 374 C193 424 224 466 282 466 L318 466 C376 466 395 424 388 374 L375 283 L173 283 L186 374 Z " />
<glyph glyph-name="f" unicode="f" horiz-adv-x="358" d="M370 744 C288 744 226 679 216 606 L203 515 L128 515 C121 515 116 511 115 504 L111 472 C110 465 113 461 120 461 L195 461 L132 11 C131 4 135 0 142 0 L179 0 C186 0 190 4 191 11 L254 461 L355 461 C362 461 367 465 368 472 L372 504 C373 511 370 515 363 515 L263 515 L274 597 C281 645 327 690 373 690 L388 690 C395 690 400 694 401 701 L406 733 C407 740 403 744 396 744 L370 744 Z " />
<glyph glyph-name="g" unicode="g" horiz-adv-x="495" d="M218 49 C160 49 141 91 148 141 L181 374 C188 424 219 466 277 466 L313 466 C371 466 402 417 395 367 L364 148 C357 98 312 49 254 49 L218 49 Z M341 -33 C334 -80 321 -149 212 -149 C158 -149 144 -145 115 -140 C112 -140 108 -140 106 -147 L95 -181 C94 -186 96 -188 101 -190 C131 -198 141 -203 200 -203 C376 -203 393 -80 399 -40 L475 504 C476 511 473 515 466 515 L429 515 C422 515 417 511 416 504 L413 477 L406 477 C386 510 361 520 333 520 L274 520 C193 520 134 461 123 382 L88 133 C77 54 119 -5 200 -5 L259 -5 C287 -5 315 5 344 38 L351 38 L341 -33 Z " />
<glyph glyph-name="h" unicode="h" horiz-adv-x="501" d="M91 11 C90 4 94 0 101 0 L138 0 C145 0 149 4 150 11 L200 366 C263 465 314 466 349 466 L357 466 C408 466 421 424 412 356 L363 11 C362 4 366 0 373 0 L410 0 C417 0 421 4 422 11 L472 368 C485 458 459 520 366 520 L338 520 C318 520 262 519 219 455 L212 455 L245 689 C246 696 243 700 236 700 L199 700 C192 700 187 696 186 689 L91 11 Z " />
<glyph glyph-name="i" unicode="i" horiz-adv-x="257" d="M102 11 C101 4 105 0 112 0 L149 0 C156 0 160 4 161 11 L230 504 C231 511 228 515 221 515 L184 515 C177 515 172 511 171 504 L102 11 Z M180 589 C179 582 183 578 190 578 L233 578 C240 578 244 582 245 589 L255 657 C256 664 252 668 245 668 L202 668 C195 668 191 664 190 657 L180 589 Z " />
<glyph glyph-name="j" unicode="j" horiz-adv-x="257" d="M182 589 C181 582 185 578 192 578 L235 578 C242 578 246 582 247 589 L257 657 C258 664 254 668 247 668 L204 668 C197 668 193 664 192 657 L182 589 Z M-6 -124 C-10 -126 -12 -129 -13 -136 L-2 -176 C-1 -180 2 -182 5 -182 C6 -182 8 -182 10 -181 C58 -161 146 -107 161 -2 L232 504 C233 511 230 515 223 515 L186 515 C179 515 174 511 173 504 L103 3 C103 3 88 -76 -6 -124 L-6 -124 Z " />
<glyph glyph-name="k" unicode="k" horiz-adv-x="459" d="M359 8 C360 4 364 0 369 0 L411 0 C416 0 419 3 420 8 L383 274 L488 507 C488 512 486 515 481 515 L440 515 C435 515 430 511 428 507 L333 300 L191 300 L245 689 C246 696 243 700 236 700 L199 700 C192 700 187 696 186 689 L91 11 C90 4 94 0 101 0 L138 0 C145 0 149 4 150 11 L183 246 L324 246 L359 8 Z " />
<glyph glyph-name="l" unicode="l" horiz-adv-x="239" d="M245 689 C246 692 245 695 243 697 C242 699 240 700 236 700 L199 700 C195 700 193 699 190 697 C188 695 187 692 186 689 L91 11 C91 8 91 5 93 3 C95 1 97 0 101 0 L138 0 C142 0 144 1 146 3 C148 5 150 8 150 11 L245 689 Z " />
<glyph glyph-name="m" unicode="m" horiz-adv-x="709" d="M439 359 C475 424 516 466 557 466 C623 466 629 426 620 359 L571 11 C570 4 574 0 581 0 L618 0 C625 0 629 4 630 11 L682 381 C693 461 664 520 568 520 C547 520 493 520 438 442 L431 442 C409 499 384 520 338 520 C303 520 267 520 219 455 L212 455 L219 504 C220 511 217 515 210 515 L173 515 C166 515 161 511 160 504 L91 11 C90 4 94 0 101 0 L138 0 C145 0 149 4 150 11 L199 359 C235 424 276 466 317 466 C383 466 389 426 380 359 L331 11 C330 4 334 0 341 0 L378 0 C385 0 389 4 390 11 L439 359 Z " />
<glyph glyph-name="n" unicode="n" horiz-adv-x="501" d="M91 11 C90 4 94 0 101 0 L138 0 C145 0 149 4 150 11 L200 366 C263 465 314 466 349 466 L357 466 C408 466 421 424 412 356 L363 11 C362 4 366 0 373 0 L410 0 C417 0 421 4 422 11 L472 368 C485 458 459 520 366 520 L338 520 C318 520 262 519 219 455 L212 455 L219 504 C220 511 217 515 210 515 L173 515 C166 515 161 511 160 504 L91 11 Z " />
<glyph glyph-name="o" unicode="o" horiz-adv-x="470" d="M271 520 C190 520 138 450 128 384 L93 131 C84 65 116 -5 197 -5 L271 -5 C352 -5 404 65 413 131 L448 384 C458 450 426 520 345 520 L271 520 Z M223 49 C165 49 146 91 153 141 L186 374 C193 424 224 466 282 466 L318 466 C376 466 395 424 388 374 L355 141 C348 91 317 49 259 49 L223 49 Z " />
<glyph glyph-name="p" unicode="p" horiz-adv-x="495" d="M154 38 L161 38 C180 5 206 -5 234 -5 L293 -5 C374 -5 432 54 443 133 L478 382 C489 461 448 520 367 520 L308 520 C280 520 251 510 223 477 L216 477 L219 504 C220 511 217 515 210 515 L173 515 C166 515 161 511 160 504 L67 -163 C66 -170 69 -174 76 -174 L113 -174 C120 -174 125 -170 126 -163 L154 38 Z M253 49 C195 49 164 98 171 148 L202 367 C209 417 254 466 312 466 L348 466 C406 466 425 424 418 374 L385 141 C378 91 347 49 289 49 L253 49 Z " />
<glyph glyph-name="q" unicode="q" horiz-adv-x="495" d="M323 -163 C322 -170 325 -174 332 -174 L369 -174 C376 -174 381 -170 382 -163 L475 504 C476 511 473 515 466 515 L429 515 C422 515 417 511 416 504 L413 477 L406 477 C386 510 361 520 333 520 L274 520 C193 520 134 461 123 382 L88 133 C77 54 119 -5 200 -5 L259 -5 C287 -5 315 5 344 38 L351 38 L323 -163 Z M218 49 C160 49 141 91 148 141 L181 374 C188 424 219 466 277 466 L313 466 C371 466 402 417 395 367 L364 148 C357 98 312 49 254 49 L218 49 Z " />
<glyph glyph-name="r" unicode="r" horiz-adv-x="347" d="M368 517 C353 519 350 520 322 520 C299 520 250 513 218 448 L211 448 L219 504 C220 511 217 515 210 515 L173 515 C166 515 161 511 160 504 L91 11 C90 4 94 0 101 0 L138 0 C145 0 149 4 150 11 L198 355 C257 456 293 466 318 466 C335 466 348 464 359 463 C366 463 370 467 371 474 L378 506 C379 513 375 516 368 517 L368 517 Z " />
<glyph glyph-name="s" unicode="s" horiz-adv-x="451" d="M264 520 C182 520 132 464 122 396 L121 389 C93 192 369 271 350 141 L349 131 C341 75 300 49 253 49 L214 49 C166 49 137 94 143 141 L145 154 C146 161 143 165 136 165 L99 165 C92 165 87 161 86 154 L83 131 C74 65 109 -5 190 -5 L265 -5 C349 -5 398 51 407 119 L409 133 C437 333 160 249 179 379 L180 389 C188 445 228 466 276 466 L307 466 C355 466 385 421 378 374 L376 361 C375 354 379 350 386 350 L423 350 C430 350 434 354 435 361 L438 384 C448 450 413 520 332 520 L264 520 Z " />
<glyph glyph-name="t" unicode="t" horiz-adv-x="352" d="M291 0 C298 0 302 4 303 11 L308 43 C309 50 305 54 298 54 L292 54 C247 54 203 96 210 144 L254 461 L355 461 C362 461 367 465 368 472 L372 504 C373 511 370 515 363 515 L262 515 L286 689 C287 696 284 700 277 700 L240 700 C233 700 228 696 227 689 L203 515 L128 515 C121 515 116 511 115 504 L111 472 C110 465 113 461 120 461 L195 461 L151 144 C140 71 183 0 265 0 L291 0 Z " />
<glyph glyph-name="u" unicode="u" horiz-adv-x="480" d="M470 504 C471 511 468 515 461 515 L424 515 C417 515 412 511 411 504 L360 141 C354 94 310 49 263 49 L229 49 C182 49 152 94 158 141 L209 504 C210 511 207 515 200 515 L163 515 C156 515 151 511 150 504 L98 131 C89 65 121 -5 202 -5 L276 -5 C357 -5 409 65 418 131 L470 504 Z " />
<glyph glyph-name="v" unicode="v" horiz-adv-x="437" d="M259 0 C266 0 269 3 272 9 L472 504 C473 511 470 515 463 515 L426 515 C419 515 415 511 412 504 L232 58 L221 58 L165 504 C164 511 162 515 155 515 L118 515 C111 515 106 511 105 504 L167 9 C168 3 171 0 178 0 L259 0 Z " />
<glyph glyph-name="w" unicode="w" horiz-adv-x="640" d="M360 515 C354 515 349 511 347 505 L196 95 L166 504 C165 511 163 515 156 515 L118 515 C111 515 106 511 105 504 L144 10 C145 4 147 0 154 0 L214 0 C221 0 223 4 226 10 L380 431 L416 10 C417 4 419 0 426 0 L486 0 C493 0 495 4 498 10 L675 504 C676 511 673 515 666 515 L628 515 C621 515 617 511 614 504 L470 95 L433 505 C433 511 430 515 424 515 L360 515 Z " />
<glyph glyph-name="x" unicode="x" horiz-adv-x="418" d="M214 286 L172 504 C170 511 168 515 161 515 L125 515 C118 515 113 511 112 504 L158 258 L41 11 C40 4 44 0 51 0 L89 0 C96 0 99 4 103 11 L206 232 L276 232 L317 11 C319 4 322 0 329 0 L367 0 C374 0 378 4 379 11 L332 258 L446 504 C447 511 444 515 437 515 L401 515 C394 515 390 511 386 504 L284 286 L214 286 Z " />
<glyph glyph-name="y" unicode="y" horiz-adv-x="437" d="M174 -49 C156 -100 118 -149 53 -149 L30 -149 C23 -149 18 -153 17 -160 L13 -192 C12 -199 15 -203 22 -203 L62 -203 C103 -203 187 -201 264 -11 L472 504 C473 511 470 515 463 515 L426 515 C419 515 415 511 412 504 L232 58 L221 58 L165 504 C164 511 162 515 155 515 L118 515 C111 515 106 511 105 504 L174 -49 Z " />
<glyph glyph-name="z" unicode="z" horiz-adv-x="413" d="M137 54 L415 460 C416 462 418 465 418 467 L423 504 C424 511 421 515 414 515 L143 515 C136 515 131 511 130 504 L126 472 C125 465 128 461 135 461 L349 461 L69 54 C68 52 66 49 66 47 L61 11 C60 4 64 0 71 0 L342 0 C349 0 353 4 354 11 L359 43 C360 50 356 54 349 54 L137 54 Z " />
<glyph glyph-name="braceleft" unicode="&#x7b;" horiz-adv-x="482" d="M259 313 C304 353 338 402 343 440 L371 640 C380 698 433 748 486 751 C493 751 498 755 499 762 L503 794 C504 801 501 805 494 805 L489 805 C405 805 326 738 315 656 L286 449 C277 385 217 340 163 340 L148 340 C141 340 137 336 136 329 L131 298 C130 291 134 287 141 287 L156 287 C210 287 257 242 248 178 L218 -29 C207 -111 266 -178 350 -178 L355 -178 C362 -178 367 -174 368 -167 L373 -135 C374 -128 370 -124 363 -124 C310 -121 272 -71 280 -13 L308 187 C313 225 293 273 259 313 L259 313 Z " />
<glyph glyph-name="bar" unicode="&#x7c;" horiz-adv-x="239" d="M66 -167 C65 -174 68 -178 75 -178 L112 -178 C119 -178 124 -174 125 -167 L260 794 C261 801 258 805 251 805 L214 805 C207 805 202 801 201 794 L66 -167 Z " />
<glyph glyph-name="braceright" unicode="&#x7d;" horiz-adv-x="482" d="M309 313 C265 273 231 225 226 187 L198 -13 C190 -71 136 -121 83 -124 C76 -124 72 -128 71 -135 L66 -167 C65 -174 68 -178 75 -178 L80 -178 C164 -178 243 -111 254 -29 L284 178 C293 242 352 287 406 287 L421 287 C428 287 432 291 433 298 L438 329 C439 336 435 340 428 340 L413 340 C359 340 313 385 322 449 L351 656 C362 738 303 805 219 805 L214 805 C207 805 202 801 201 794 L197 762 C196 755 199 751 206 751 C259 748 298 698 289 640 L261 440 C256 402 276 353 309 313 L309 313 Z " />
<glyph glyph-name="asciitilde" unicode="&#x7e;" horiz-adv-x="376" d="M263 178 C273 178 289 184 306 191 C311 193 313 197 314 201 L309 232 C309 236 306 238 302 238 C291 238 281 232 266 232 C222 232 230 262 174 262 C164 262 147 256 130 249 C126 247 124 243 123 239 L128 208 C128 204 131 202 135 202 C146 202 156 208 171 208 C214 208 207 178 263 178 L263 178 Z " />
<glyph glyph-name="uni00A0" unicode="&#xa0;" horiz-adv-x="198" d="" />
<glyph glyph-name="exclamdown" unicode="&#xa1;" horiz-adv-x="239" d="M91 11 C90 4 94 0 101 0 L138 0 C145 0 149 4 150 11 L209 433 L218 528 C219 535 215 539 208 539 L181 539 C174 539 170 535 169 528 L150 433 L91 11 Z M178 629 C177 622 180 618 187 618 L224 618 C231 618 236 622 237 629 L245 689 C246 696 243 700 236 700 L199 700 C192 700 187 696 186 689 L178 629 Z " />
<glyph glyph-name="cent" unicode="&#xa2;" horiz-adv-x="573" d="M233 -126 C232 -133 235 -137 242 -137 L279 -137 C286 -137 291 -133 292 -126 L309 -5 L337 -5 C422 -5 491 62 503 144 L510 196 C511 203 508 207 501 207 L464 207 C457 207 452 203 451 196 L446 160 C437 93 399 49 331 49 L254 49 C186 49 162 93 171 160 L225 541 C234 608 271 651 339 651 L416 651 C484 651 509 608 500 541 L494 504 C493 497 497 493 504 493 L541 493 C548 493 552 497 553 504 L561 556 C572 638 522 705 437 705 L409 705 L425 821 C426 828 422 832 415 832 L378 832 C371 832 367 828 366 821 L350 705 L334 705 C249 705 179 638 168 556 L110 144 C98 62 149 -5 234 -5 L250 -5 L233 -126 Z " />
<glyph glyph-name="sterling" unicode="&#xa3;" horiz-adv-x="578" d="M304 554 C311 604 342 646 400 646 L436 646 C494 646 513 604 506 554 L504 539 C503 532 507 528 514 528 L551 528 C558 528 562 532 563 539 L567 564 C576 630 544 700 463 700 L389 700 C308 700 256 630 247 564 L219 364 L152 364 C145 364 140 360 139 353 L135 321 C134 314 137 310 144 310 L211 310 L175 54 L108 54 C101 54 97 50 96 43 L91 11 C90 4 94 0 101 0 L470 0 C477 0 481 4 482 11 L487 43 C488 50 484 54 477 54 L234 54 L270 310 L356 310 C363 310 368 314 369 321 L373 353 C374 360 371 364 364 364 L278 364 L304 554 Z " />
<glyph glyph-name="currency" unicode="&#xa4;" horiz-adv-x="490" d="M404 154 L416 235 C418 252 415 276 405 298 L453 378 C453 384 449 389 443 389 L403 389 C396 389 394 386 390 380 L361 333 C353 337 343 337 332 338 L252 338 C241 337 231 337 221 333 L206 380 C204 386 202 389 195 389 L155 389 C149 389 143 384 143 378 L167 298 C151 276 142 252 140 235 L128 154 C126 137 128 113 138 91 L91 11 C90 5 95 0 101 0 L141 0 C148 0 150 3 154 9 L182 56 C191 52 201 52 212 51 L292 51 C303 52 313 52 322 56 L338 9 C340 3 342 0 349 0 L389 0 C395 0 400 5 401 11 L376 91 C392 113 402 137 404 154 L404 154 Z M198 231 C203 268 221 285 261 285 L309 285 C349 285 361 268 356 231 L346 158 C341 121 323 104 283 104 L235 104 C195 104 183 121 188 158 L198 231 Z " />
<glyph glyph-name="yen" unicode="&#xa5;" horiz-adv-x="617" d="M461 86 C468 86 472 90 473 97 L478 129 C479 136 475 140 468 140 L357 140 L368 216 L402 280 L488 280 C495 280 499 284 500 291 L505 323 C506 330 502 334 495 334 L431 334 L623 689 C624 696 621 700 614 700 L573 700 C566 700 563 696 559 689 L354 308 L349 308 L250 689 C248 696 247 700 240 700 L199 700 C192 700 187 696 186 689 L278 334 L214 334 C207 334 203 330 202 323 L197 291 C196 284 200 280 207 280 L292 280 L309 216 L298 140 L187 140 C180 140 176 136 175 129 L170 97 C169 90 173 86 180 86 L291 86 L280 11 C279 4 283 0 290 0 L327 0 C334 0 338 4 339 11 L350 86 L461 86 Z " />
<glyph glyph-name="brokenbar" unicode="&#xa6;" horiz-adv-x="239" d="M146 403 C145 396 149 392 156 392 L193 392 C200 392 204 396 205 403 L260 794 C261 801 258 805 251 805 L214 805 C207 805 202 801 201 794 L146 403 Z M66 -167 C65 -174 68 -178 75 -178 L112 -178 C119 -178 124 -174 125 -167 L180 224 C181 231 178 235 171 235 L134 235 C127 235 122 231 121 224 L66 -167 Z " />
<glyph glyph-name="section" unicode="&#xa7;" horiz-adv-x="506" d="M458 299 L459 313 C488 514 211 430 229 559 L230 569 C238 625 278 646 326 646 L357 646 C405 646 435 601 428 554 L427 541 C426 534 429 530 436 530 L473 530 C480 530 485 534 486 541 L489 564 C498 630 463 700 382 700 L314 700 C232 700 182 644 172 576 L171 569 C164 519 181 487 208 465 C173 442 149 406 143 365 L142 358 C114 160 389 239 371 110 L370 100 C362 44 321 18 274 18 L235 18 C187 18 157 63 164 110 L166 123 C167 130 163 134 156 134 L119 134 C112 134 108 130 107 123 L104 100 C94 34 129 -36 210 -36 L285 -36 C369 -36 418 20 428 88 L430 102 C436 149 423 181 398 203 C431 226 452 261 458 299 L458 299 Z M399 311 C395 283 381 262 361 249 C355 245 352 241 342 241 C337 241 334 242 330 243 C241 270 189 274 199 348 L201 358 C205 389 213 409 236 421 C242 425 255 428 265 428 C270 428 274 427 277 426 C335 409 411 398 401 321 L399 311 Z " />
<glyph glyph-name="dieresis" unicode="&#xa8;" horiz-adv-x="382" d="M179 640 C178 633 182 629 189 629 L235 629 C242 629 246 633 247 640 L254 689 C255 696 252 700 245 700 L199 700 C192 700 187 696 186 689 L179 640 Z M313 640 C312 633 316 629 323 629 L369 629 C376 629 380 633 381 640 L388 689 C389 696 386 700 379 700 L333 700 C326 700 321 696 320 689 L313 640 Z " />
<glyph glyph-name="copyright" unicode="&#xa9;" horiz-adv-x="892" d="M568 256 C565 228 534 203 505 203 L439 203 C411 203 387 229 391 257 L416 436 C420 465 451 490 479 490 L545 490 C574 490 598 465 594 436 L591 415 C590 409 593 406 599 406 L638 406 C644 406 647 409 648 415 L650 434 C658 488 625 541 561 541 L478 541 C413 541 366 488 358 434 L334 258 C326 206 358 152 423 152 L506 152 C570 152 618 206 626 259 L629 278 C629 284 627 287 621 287 L582 287 C576 287 572 284 572 278 L568 256 Z M544 699 C349 699 165 539 138 344 C110 148 249 -11 444 -11 C639 -11 822 148 850 344 C877 539 739 699 544 699 L544 699 Z M537 651 C708 651 822 515 798 344 C774 173 622 38 451 38 C280 38 166 173 190 344 C214 515 366 651 537 651 L537 651 Z " />
<glyph glyph-name="ordfeminine" unicode="&#xaa;" horiz-adv-x="404" d="M209 498 C213 526 231 536 254 536 L339 536 L333 493 C329 466 304 460 279 460 L250 460 C228 460 205 466 209 493 L209 498 Z M216 647 C238 651 256 654 277 654 C337 654 351 626 348 602 L345 582 L251 582 C206 582 167 554 161 509 L158 487 C152 444 183 414 228 414 L273 414 C282 414 303 420 319 437 L324 437 L322 424 C322 421 324 418 327 418 L366 418 C369 418 373 421 373 424 L398 602 C402 627 395 700 295 700 C257 700 230 696 214 692 C212 691 209 690 209 687 L210 651 C210 647 213 647 216 647 L216 647 Z " />
<glyph glyph-name="guillemotleft" unicode="&#xab;" horiz-adv-x="681" d="M197 248 L200 267 L355 479 C356 485 352 489 346 489 L301 489 C295 489 291 484 287 479 L126 261 L125 254 L221 10 C223 5 227 0 233 0 L278 0 C284 0 288 4 289 10 L197 248 Z M500 248 L503 267 L658 479 C659 485 655 489 649 489 L604 489 C598 489 594 484 590 479 L429 261 L428 254 L524 10 C526 5 530 0 536 0 L581 0 C587 0 591 4 592 10 L500 248 Z " />
<glyph glyph-name="logicalnot" unicode="&#xac;" horiz-adv-x="493" d="M440 264 C441 271 437 275 430 275 L139 275 C132 275 128 271 127 264 L122 232 C121 225 125 221 132 221 L375 221 L354 78 C353 71 357 67 364 67 L401 67 C408 67 412 71 413 78 L440 264 Z " />
<glyph glyph-name="uni00AD" unicode="&#xad;" horiz-adv-x="198" d="" />
<glyph glyph-name="registered" unicode="&#xae;" horiz-adv-x="892" d="M544 699 C349 699 165 539 138 344 C110 148 249 -11 444 -11 C639 -11 822 148 850 344 C877 539 739 699 544 699 L544 699 Z M537 651 C708 651 822 515 798 344 C774 173 622 38 451 38 C280 38 166 173 190 344 C214 515 366 651 537 651 L537 651 Z M418 335 L439 486 L540 486 C569 486 591 458 587 427 L582 392 C577 358 545 335 516 335 L418 335 Z M564 290 C602 307 632 346 638 387 L644 428 C652 490 623 541 548 541 L399 541 C393 541 389 538 388 532 L336 161 C335 155 338 152 344 152 L383 152 C389 152 392 155 393 161 L410 279 L511 279 L550 161 C552 156 555 152 561 152 L597 152 C603 152 606 155 607 161 L564 290 Z " />
<glyph glyph-name="macron" unicode="&#xaf;" horiz-adv-x="344" d="M333 646 C340 646 345 650 346 657 L350 689 C351 696 348 700 341 700 L199 700 C192 700 187 696 186 689 L182 657 C181 650 184 646 191 646 L333 646 Z " />
<glyph glyph-name="degree" unicode="&#xb0;" horiz-adv-x="410" d="M409 636 C418 700 374 751 310 751 C246 751 188 700 179 636 C170 572 214 521 278 521 C342 521 400 572 409 636 L409 636 Z M361 636 C355 597 322 569 284 569 C247 569 222 597 228 636 C233 675 266 703 303 703 C341 703 366 675 361 636 L361 636 Z " />
<glyph glyph-name="plusminus" unicode="&#xb1;" horiz-adv-x="395" d="M336 305 C343 305 348 309 349 316 L353 348 C354 355 351 359 344 359 L277 359 L294 479 C295 486 291 490 284 490 L247 490 C240 490 236 486 235 479 L218 359 L151 359 C144 359 139 355 138 348 L134 316 C133 309 136 305 143 305 L210 305 L193 182 C192 175 196 171 203 171 L240 171 C247 171 251 175 252 182 L269 305 L336 305 Z M108 54 C101 54 97 50 96 43 L91 11 C90 4 94 0 101 0 L294 0 C301 0 305 4 306 11 L311 43 C312 50 308 54 301 54 L108 54 Z " />
<glyph glyph-name="twosuperior" unicode="&#xb2;" horiz-adv-x="370" d="M182 616 C182 613 184 610 187 610 L226 610 C229 610 233 613 233 616 C237 642 245 654 274 654 L281 654 C311 654 313 640 311 621 L310 615 C299 534 172 590 155 467 L149 423 C149 420 151 417 154 417 L332 417 C335 417 339 420 339 423 L344 457 C344 460 342 463 339 463 L210 463 C222 548 344 492 361 612 L363 627 C367 661 346 700 312 700 L254 700 C221 700 190 674 186 641 L182 616 Z " />
<glyph glyph-name="threesuperior" unicode="&#xb3;" horiz-adv-x="359" d="M287 497 C285 478 279 464 249 464 L242 464 C213 464 207 476 211 502 C211 505 209 508 206 508 L167 508 C164 508 160 505 160 502 L157 477 C152 444 175 418 208 418 L266 418 C300 418 333 457 338 491 L339 502 C343 529 340 545 311 558 C342 576 351 589 355 616 L357 627 C361 661 340 700 306 700 L248 700 C215 700 184 674 180 641 L176 616 C176 613 178 610 181 610 L220 610 C223 610 227 613 227 616 C231 642 239 654 268 654 L275 654 C305 654 307 640 305 621 L304 612 C300 590 287 581 259 581 L245 581 C242 581 239 578 238 575 L234 541 C233 538 236 535 239 535 L253 535 C281 535 291 525 288 503 L287 497 Z " />
<glyph glyph-name="acute" unicode="&#xb4;" horiz-adv-x="288" d="M218 574 C225 574 229 578 234 586 L294 688 C295 696 292 700 285 700 L248 700 C241 700 237 696 232 688 L172 586 C171 578 174 574 182 574 L218 574 Z " />
<glyph glyph-name="mu" unicode="&#xb5;" horiz-adv-x="500" d="M67 -163 C66 -170 69 -174 76 -174 L113 -174 C120 -174 125 -170 126 -163 L150 13 C166 2 187 -5 212 -5 L286 -5 C367 -5 419 65 428 131 L480 504 C481 511 478 515 471 515 L434 515 C427 515 422 511 421 504 L370 141 C364 94 320 49 273 49 L239 49 C192 49 162 94 168 141 L219 504 C220 511 217 515 210 515 L173 515 C166 515 161 511 160 504 L67 -163 Z " />
<glyph glyph-name="paragraph" unicode="&#xb6;" horiz-adv-x="677" d="M346 700 C259 700 178 633 167 551 L150 427 C138 345 200 278 287 278 L391 278 L353 11 C352 4 356 0 363 0 L400 0 C407 0 411 4 412 11 L501 646 L618 646 L529 11 C528 4 532 0 539 0 L576 0 C583 0 587 4 588 11 L683 689 C684 696 681 700 674 700 L346 700 Z " />
<glyph glyph-name="periodcentered" unicode="&#xb7;" horiz-adv-x="248" d="M117 194 C116 187 119 183 126 183 L172 183 C179 183 184 187 185 194 L192 243 C193 250 189 254 182 254 L136 254 C129 254 125 250 124 243 L117 194 Z " />
<glyph glyph-name="cedilla" unicode="&#xb8;" horiz-adv-x="312" d="M88 -63 C85 -67 84 -73 84 -73 L81 -96 C80 -100 83 -103 87 -103 L136 -103 C136 -103 171 -103 167 -133 C163 -161 128 -161 128 -161 L74 -161 C70 -161 67 -163 66 -168 L63 -188 C63 -192 65 -195 69 -195 L134 -195 C174 -195 196 -179 204 -127 C209 -88 178 -69 138 -69 L126 -69 L166 -6 C167 0 165 1 161 1 L136 1 C132 1 129 -1 127 -4 L88 -63 Z " />
<glyph glyph-name="onesuperior" unicode="&#xb9;" horiz-adv-x="370" d="M318 694 C318 697 316 700 313 700 L264 700 L191 678 C188 677 184 674 184 671 L179 635 C178 632 181 629 184 629 L261 652 L235 464 L172 464 C169 464 165 461 165 458 L160 424 C160 421 162 418 165 418 L332 418 C335 418 339 421 339 424 L344 458 C344 461 342 464 339 464 L286 464 L318 694 Z " />
<glyph glyph-name="ordmasculine" unicode="&#xba;" horiz-adv-x="410" d="M409 636 C418 700 374 751 310 751 C246 751 188 700 179 636 C170 572 214 521 278 521 C342 521 400 572 409 636 L409 636 Z M361 636 C355 597 322 569 284 569 C247 569 222 597 228 636 C233 675 266 703 303 703 C341 703 366 675 361 636 L361 636 Z " />
<glyph glyph-name="guillemotright" unicode="&#xbb;" horiz-adv-x="681" d="M394 10 C393 4 397 0 403 0 L448 0 C454 0 458 5 462 10 L626 254 L627 261 L528 479 C526 484 522 489 516 489 L471 489 C465 489 461 485 460 479 L555 267 L552 248 L394 10 Z M91 10 C90 4 94 0 100 0 L145 0 C151 0 155 5 159 10 L323 254 L324 261 L225 479 C223 484 219 489 213 489 L168 489 C162 489 158 485 157 479 L252 267 L249 248 L91 10 Z " />
<glyph glyph-name="onequarter" unicode="&#xbc;" horiz-adv-x="771" d="M701 698 C700 699 698 700 696 700 L647 700 C643 700 639 697 636 691 L188 2 C189 1 191 0 193 0 L242 0 C246 0 249 3 253 8 L701 698 Z M318 694 C318 697 316 700 313 700 L264 700 L191 678 C188 677 184 674 184 671 L179 635 C178 632 181 629 184 629 L261 652 L235 464 L172 464 C169 464 165 461 165 458 L160 424 C160 421 162 418 165 418 L332 418 C335 418 339 421 339 424 L344 458 C344 461 342 464 339 464 L286 464 L318 694 Z M454 77 L450 45 C449 42 452 39 455 39 L603 39 L598 6 C598 3 601 0 604 0 L643 0 C646 0 649 3 649 6 L654 39 L680 39 C683 39 686 42 687 45 L692 79 C692 82 689 85 686 85 L660 85 L672 164 C672 167 669 170 666 170 L627 170 C624 170 621 167 621 164 L609 85 L513 85 L621 276 C622 280 619 283 615 283 L577 283 C574 283 570 280 567 276 L454 77 Z " />
<glyph glyph-name="onehalf" unicode="&#xbd;" horiz-adv-x="746" d="M698 698 C697 699 695 700 693 700 L644 700 C640 700 636 697 633 691 L185 2 C186 1 188 0 190 0 L239 0 C243 0 246 3 250 8 L698 698 Z M318 694 C318 697 316 700 313 700 L264 700 L191 678 C188 677 184 674 184 671 L179 635 C178 632 181 629 184 629 L261 652 L235 464 L172 464 C169 464 165 461 165 458 L160 424 C160 421 162 418 165 418 L332 418 C335 418 339 421 339 424 L344 458 C344 461 342 464 339 464 L286 464 L318 694 Z M499 199 C499 196 502 193 505 193 L544 193 C547 193 550 196 550 199 C554 225 563 237 592 237 L599 237 C629 237 631 223 628 204 L627 198 C616 117 490 173 473 50 L466 6 C466 3 469 0 472 0 L650 0 C653 0 656 3 656 6 L661 40 C662 43 659 46 656 46 L527 46 C539 131 661 75 678 195 L680 210 C685 244 663 283 629 283 L571 283 C538 283 508 257 503 224 L499 199 Z " />
<glyph glyph-name="threequarters" unicode="&#xbe;" horiz-adv-x="734" d="M671 698 C670 699 668 700 666 700 L617 700 C613 700 609 697 606 691 L158 2 C159 1 161 0 163 0 L212 0 C216 0 219 3 223 8 L671 698 Z M417 77 L413 45 C412 42 415 39 418 39 L566 39 L561 6 C561 3 564 0 567 0 L606 0 C609 0 612 3 612 6 L617 39 L643 39 C646 39 649 42 650 45 L655 79 C655 82 652 85 649 85 L623 85 L635 164 C635 167 632 170 629 170 L590 170 C587 170 584 167 584 164 L572 85 L476 85 L584 276 C585 280 582 283 578 283 L540 283 C537 283 533 280 530 276 L417 77 Z M287 497 C285 478 279 464 249 464 L242 464 C213 464 207 476 211 502 C211 505 209 508 206 508 L167 508 C164 508 160 505 160 502 L157 477 C152 444 175 418 208 418 L266 418 C300 418 333 457 338 491 L339 502 C343 529 340 545 311 558 C342 576 351 589 355 616 L357 627 C361 661 340 700 306 700 L248 700 C215 700 184 674 180 641 L176 616 C176 613 178 610 181 610 L220 610 C223 610 227 613 227 616 C231 642 239 654 268 654 L275 654 C305 654 307 640 305 621 L304 612 C300 590 287 581 259 581 L245 581 C242 581 239 578 238 575 L234 541 C233 538 236 535 239 535 L253 535 C281 535 291 525 288 503 L287 497 Z " />
<glyph glyph-name="questiondown" unicode="&#xbf;" horiz-adv-x="562" d="M415 533 C416 540 413 544 406 544 L369 544 C362 544 357 540 356 533 L355 521 C324 301 154 462 117 195 L110 148 C99 67 150 0 235 0 L326 0 C411 0 481 67 492 148 L499 196 C500 203 497 207 490 207 L453 207 C446 207 441 203 440 196 L436 164 C426 97 389 54 321 54 L255 54 C187 54 162 97 172 164 L176 195 C208 421 376 254 413 516 L415 533 Z M438 694 C439 701 436 705 429 705 L392 705 C385 705 380 701 379 694 L371 634 C370 627 373 623 380 623 L417 623 C424 623 429 627 430 634 L438 694 Z " />
<glyph glyph-name="Agrave" unicode="&#xc0;" horiz-adv-x="552" d="M394 751 C402 751 407 755 408 763 L376 865 C373 873 371 877 364 877 L327 877 C320 877 315 873 314 865 L346 763 C349 755 351 751 358 751 L394 751 Z M336 700 C330 700 326 697 324 692 L46 11 C45 4 49 0 56 0 L94 0 C101 0 104 4 107 11 L159 138 L431 138 L447 11 C448 4 451 0 458 0 L496 0 C503 0 507 4 508 11 L422 692 C420 697 418 700 412 700 L336 700 Z M359 629 L369 629 L424 191 L180 191 L359 629 Z " />
<glyph glyph-name="Aacute" unicode="&#xc1;" horiz-adv-x="552" d="M402 751 C409 751 413 755 418 763 L478 865 C479 873 476 877 469 877 L432 877 C425 877 421 873 416 865 L356 763 C355 755 358 751 366 751 L402 751 Z M336 700 C330 700 326 697 324 692 L46 11 C45 4 49 0 56 0 L94 0 C101 0 104 4 107 11 L159 138 L431 138 L447 11 C448 4 451 0 458 0 L496 0 C503 0 507 4 508 11 L422 692 C420 697 418 700 412 700 L336 700 Z M359 629 L369 629 L424 191 L180 191 L359 629 Z " />
<glyph glyph-name="Acircumflex" unicode="&#xc2;" horiz-adv-x="552" d="M372 894 C366 894 362 890 358 883 L279 759 C278 754 281 751 286 751 L324 751 C327 751 331 755 333 759 L395 854 L429 759 C431 755 433 751 436 751 L474 751 C479 751 482 754 483 759 L440 883 C438 890 434 894 428 894 L372 894 Z M336 700 C330 700 326 697 324 692 L46 11 C45 4 49 0 56 0 L94 0 C101 0 104 4 107 11 L159 138 L431 138 L447 11 C448 4 451 0 458 0 L496 0 C503 0 507 4 508 11 L422 692 C420 697 418 700 412 700 L336 700 Z M359 629 L369 629 L424 191 L180 191 L359 629 Z " />
<glyph glyph-name="Atilde" unicode="&#xc3;" horiz-adv-x="552" d="M336 700 C330 700 326 697 324 692 L46 11 C45 4 49 0 56 0 L94 0 C101 0 104 4 107 11 L159 138 L431 138 L447 11 C448 4 451 0 458 0 L496 0 C503 0 507 4 508 11 L422 692 C420 697 418 700 412 700 L336 700 Z M359 629 L369 629 L424 191 L180 191 L359 629 Z M430 751 C440 751 457 757 474 764 C478 766 481 770 481 774 L477 805 C476 809 473 811 469 811 C458 811 449 805 434 805 C390 805 398 835 342 835 C332 835 315 829 298 822 C294 820 291 816 291 812 L295 781 C296 777 298 775 302 775 C313 775 323 781 338 781 C381 781 374 751 430 751 L430 751 Z " />
<glyph glyph-name="Adieresis" unicode="&#xc4;" horiz-adv-x="552" d="M281 762 C280 755 283 751 290 751 L336 751 C343 751 348 755 349 762 L355 811 C356 818 353 822 346 822 L300 822 C293 822 288 818 287 811 L281 762 Z M415 762 C414 755 417 751 424 751 L470 751 C477 751 482 755 483 762 L489 811 C490 818 487 822 480 822 L434 822 C427 822 422 818 421 811 L415 762 Z M336 700 C330 700 326 697 324 692 L46 11 C45 4 49 0 56 0 L94 0 C101 0 104 4 107 11 L159 138 L431 138 L447 11 C448 4 451 0 458 0 L496 0 C503 0 507 4 508 11 L422 692 C420 697 418 700 412 700 L336 700 Z M359 629 L369 629 L424 191 L180 191 L359 629 Z " />
<glyph glyph-name="Aring" unicode="&#xc5;" horiz-adv-x="552" d="M498 767 C507 831 463 882 399 882 C335 882 277 831 268 767 C262 723 280 685 313 666 L46 11 C45 4 49 0 56 0 L94 0 C101 0 104 4 107 11 L159 138 L431 138 L447 11 C448 4 451 0 458 0 L496 0 C503 0 507 4 508 11 L425 666 C463 685 492 723 498 767 L498 767 Z M359 629 L369 629 L424 191 L180 191 L359 629 Z M450 767 C445 728 412 700 374 700 C337 700 312 728 317 767 C323 806 356 834 393 834 C431 834 456 806 450 767 L450 767 Z " />
<glyph glyph-name="AE" unicode="&#xc6;" horiz-adv-x="829" d="M462 187 L203 187 L461 646 L526 646 L462 187 Z M41 11 C40 4 44 0 51 0 L90 0 C97 0 100 5 104 11 L172 133 L454 133 L437 11 C436 4 440 0 447 0 L738 0 C745 0 749 4 750 11 L755 43 C756 50 752 54 745 54 L502 54 L538 310 L755 310 C762 310 767 314 768 321 L772 353 C773 360 770 364 763 364 L546 364 L585 646 L828 646 C835 646 840 650 841 657 L845 689 C846 696 843 700 836 700 L437 700 C431 700 425 695 423 691 L41 11 Z " />
<glyph glyph-name="Ccedilla" unicode="&#xc7;" horiz-adv-x="538" d="M220 -63 C217 -67 216 -73 216 -73 L213 -96 C212 -100 215 -103 219 -103 L268 -103 C268 -103 303 -103 299 -133 C295 -161 260 -161 260 -161 L206 -161 C202 -161 199 -163 198 -168 L195 -188 C195 -192 197 -195 201 -195 L266 -195 C306 -195 328 -179 336 -127 C341 -88 310 -69 270 -69 L258 -69 L298 -5 L327 -5 C412 -5 481 62 493 144 L500 196 C501 203 498 207 491 207 L454 207 C447 207 442 203 441 196 L436 160 C427 93 389 49 321 49 L244 49 C176 49 152 93 161 160 L215 541 C224 608 261 651 329 651 L406 651 C474 651 499 608 490 541 L484 504 C483 497 487 493 494 493 L531 493 C538 493 542 497 543 504 L551 556 C562 638 512 705 427 705 L324 705 C239 705 169 638 158 556 L100 144 C88 62 139 -5 224 -5 L258 -5 L220 -63 Z " />
<glyph glyph-name="Egrave" unicode="&#xc8;" horiz-adv-x="483" d="M375 751 C383 751 388 755 389 763 L357 865 C354 873 352 877 345 877 L308 877 C301 877 296 873 295 865 L327 763 C330 755 332 751 339 751 L375 751 Z M91 11 C90 4 94 0 101 0 L392 0 C399 0 403 4 404 11 L409 43 C410 50 406 54 399 54 L156 54 L192 310 L409 310 C416 310 421 314 422 321 L426 353 C427 360 424 364 417 364 L200 364 L239 646 L482 646 C489 646 494 650 495 657 L499 689 C500 696 497 700 490 700 L199 700 C192 700 187 696 186 689 L91 11 Z " />
<glyph glyph-name="Eacute" unicode="&#xc9;" horiz-adv-x="483" d="M369 751 C376 751 380 755 385 763 L445 865 C446 873 443 877 436 877 L399 877 C392 877 388 873 383 865 L323 763 C322 755 325 751 333 751 L369 751 Z M91 11 C90 4 94 0 101 0 L392 0 C399 0 403 4 404 11 L409 43 C410 50 406 54 399 54 L156 54 L192 310 L409 310 C416 310 421 314 422 321 L426 353 C427 360 424 364 417 364 L200 364 L239 646 L482 646 C489 646 494 650 495 657 L499 689 C500 696 497 700 490 700 L199 700 C192 700 187 696 186 689 L91 11 Z " />
<glyph glyph-name="Ecircumflex" unicode="&#xca;" horiz-adv-x="483" d="M345 894 C339 894 335 890 331 883 L252 759 C251 754 254 751 259 751 L297 751 C300 751 304 755 306 759 L368 854 L402 759 C404 755 406 751 409 751 L447 751 C452 751 455 754 456 759 L413 883 C411 890 407 894 401 894 L345 894 Z M91 11 C90 4 94 0 101 0 L392 0 C399 0 403 4 404 11 L409 43 C410 50 406 54 399 54 L156 54 L192 310 L409 310 C416 310 421 314 422 321 L426 353 C427 360 424 364 417 364 L200 364 L239 646 L482 646 C489 646 494 650 495 657 L499 689 C500 696 497 700 490 700 L199 700 C192 700 187 696 186 689 L91 11 Z " />
<glyph glyph-name="Edieresis" unicode="&#xcb;" horiz-adv-x="483" d="M250 762 C249 755 252 751 259 751 L305 751 C312 751 317 755 318 762 L324 811 C325 818 322 822 315 822 L269 822 C262 822 257 818 256 811 L250 762 Z M384 762 C383 755 386 751 393 751 L439 751 C446 751 451 755 452 762 L458 811 C459 818 456 822 449 822 L403 822 C396 822 391 818 390 811 L384 762 Z M91 11 C90 4 94 0 101 0 L392 0 C399 0 403 4 404 11 L409 43 C410 50 406 54 399 54 L156 54 L192 310 L409 310 C416 310 421 314 422 321 L426 353 C427 360 424 364 417 364 L200 364 L239 646 L482 646 C489 646 494 650 495 657 L499 689 C500 696 497 700 490 700 L199 700 C192 700 187 696 186 689 L91 11 Z " />
<glyph glyph-name="Igrave" unicode="&#xcc;" horiz-adv-x="239" d="M242 751 C250 751 255 755 256 763 L224 865 C221 873 219 877 212 877 L175 877 C168 877 163 873 162 865 L194 763 C197 755 199 751 206 751 L242 751 Z M245 689 C246 692 245 695 243 697 C242 699 240 700 236 700 L199 700 C195 700 193 699 190 697 C188 695 187 692 186 689 L91 11 C91 8 91 5 93 3 C95 1 97 0 101 0 L138 0 C142 0 144 1 146 3 C148 5 150 8 150 11 L245 689 Z " />
<glyph glyph-name="Iacute" unicode="&#xcd;" horiz-adv-x="239" d="M248 751 C255 751 259 755 264 763 L324 865 C325 873 322 877 315 877 L278 877 C271 877 267 873 262 865 L202 763 C201 755 204 751 212 751 L248 751 Z M245 689 C246 692 245 695 243 697 C242 699 240 700 236 700 L199 700 C195 700 193 699 190 697 C188 695 187 692 186 689 L91 11 C91 8 91 5 93 3 C95 1 97 0 101 0 L138 0 C142 0 144 1 146 3 C148 5 150 8 150 11 L245 689 Z " />
<glyph glyph-name="Icircumflex" unicode="&#xce;" horiz-adv-x="239" d="M216 894 C210 894 206 890 202 883 L123 759 C122 754 125 751 130 751 L168 751 C171 751 175 755 177 759 L239 854 L273 759 C275 755 277 751 280 751 L318 751 C323 751 326 754 327 759 L284 883 C282 890 278 894 272 894 L216 894 Z M245 689 C246 692 245 695 243 697 C242 699 240 700 236 700 L199 700 C195 700 193 699 190 697 C188 695 187 692 186 689 L91 11 C91 8 91 5 93 3 C95 1 97 0 101 0 L138 0 C142 0 144 1 146 3 C148 5 150 8 150 11 L245 689 Z " />
<glyph glyph-name="Idieresis" unicode="&#xcf;" horiz-adv-x="239" d="M140 762 C139 755 142 751 149 751 L195 751 C202 751 207 755 208 762 L214 811 C215 818 212 822 205 822 L159 822 C152 822 147 818 146 811 L140 762 Z M245 762 C244 755 247 751 254 751 L300 751 C307 751 312 755 313 762 L319 811 C320 818 317 822 310 822 L264 822 C257 822 252 818 251 811 L245 762 Z M245 689 C246 692 245 695 243 697 C242 699 240 700 236 700 L199 700 C195 700 193 699 190 697 C188 695 187 692 186 689 L91 11 C91 8 91 5 93 3 C95 1 97 0 101 0 L138 0 C142 0 144 1 146 3 C148 5 150 8 150 11 L245 689 Z " />
<glyph glyph-name="Eth" unicode="&#xd0;" horiz-adv-x="584" d="M220 700 C213 700 208 696 207 689 L164 378 L94 378 C87 378 82 374 81 367 L77 335 C76 328 79 324 86 324 L156 324 L112 11 C111 4 115 0 122 0 L349 0 C434 0 513 67 524 149 L581 551 C592 633 532 700 447 700 L220 700 Z M177 54 L215 324 L292 324 C299 324 304 328 305 335 L309 367 C310 374 307 378 300 378 L223 378 L260 646 L427 646 C495 646 530 602 521 535 L469 165 C459 98 412 54 344 54 L177 54 Z " />
<glyph glyph-name="Ntilde" unicode="&#xd1;" horiz-adv-x="605" d="M462 101 L277 689 C275 695 271 700 264 700 L199 700 C192 700 187 696 186 689 L91 11 C90 4 94 0 101 0 L138 0 C145 0 149 4 150 11 L233 598 L241 598 L426 11 C428 5 433 0 440 0 L504 0 C511 0 515 4 516 11 L611 689 C612 696 609 700 602 700 L565 700 C558 700 553 696 552 689 L470 101 L462 101 Z M458 751 C468 751 485 757 502 764 C506 766 509 770 509 774 L505 805 C504 809 501 811 497 811 C486 811 477 805 462 805 C418 805 426 835 370 835 C360 835 343 829 326 822 C322 820 319 816 319 812 L323 781 C324 777 326 775 330 775 C341 775 351 781 366 781 C409 781 402 751 458 751 L458 751 Z " />
<glyph glyph-name="Ograve" unicode="&#xd2;" horiz-adv-x="553" d="M395 751 C403 751 408 755 409 763 L377 865 C374 873 372 877 365 877 L328 877 C321 877 316 873 315 865 L347 763 C350 755 352 751 359 751 L395 751 Z M427 705 L324 705 C239 705 169 638 158 556 L100 144 C88 62 139 -5 224 -5 L327 -5 C412 -5 481 62 493 144 L551 556 C562 638 512 705 427 705 L427 705 Z M436 160 C427 93 389 49 321 49 L244 49 C176 49 152 93 161 160 L215 541 C224 608 261 651 329 651 L406 651 C474 651 499 608 490 541 L436 160 Z " />
<glyph glyph-name="Oacute" unicode="&#xd3;" horiz-adv-x="553" d="M407 751 C414 751 418 755 423 763 L483 865 C484 873 481 877 474 877 L437 877 C430 877 426 873 421 865 L361 763 C360 755 363 751 371 751 L407 751 Z M427 705 L324 705 C239 705 169 638 158 556 L100 144 C88 62 139 -5 224 -5 L327 -5 C412 -5 481 62 493 144 L551 556 C562 638 512 705 427 705 L427 705 Z M436 160 C427 93 389 49 321 49 L244 49 C176 49 152 93 161 160 L215 541 C224 608 261 651 329 651 L406 651 C474 651 499 608 490 541 L436 160 Z " />
<glyph glyph-name="Ocircumflex" unicode="&#xd4;" horiz-adv-x="553" d="M373 894 C367 894 363 890 359 883 L280 759 C279 754 282 751 287 751 L325 751 C328 751 332 755 334 759 L396 854 L430 759 C432 755 434 751 437 751 L475 751 C480 751 483 754 484 759 L441 883 C439 890 435 894 429 894 L373 894 Z M427 705 L324 705 C239 705 169 638 158 556 L100 144 C88 62 139 -5 224 -5 L327 -5 C412 -5 481 62 493 144 L551 556 C562 638 512 705 427 705 L427 705 Z M436 160 C427 93 389 49 321 49 L244 49 C176 49 152 93 161 160 L215 541 C224 608 261 651 329 651 L406 651 C474 651 499 608 490 541 L436 160 Z " />
<glyph glyph-name="Otilde" unicode="&#xd5;" horiz-adv-x="553" d="M427 705 L324 705 C239 705 169 638 158 556 L100 144 C88 62 139 -5 224 -5 L327 -5 C412 -5 481 62 493 144 L551 556 C562 638 512 705 427 705 L427 705 Z M436 160 C427 93 389 49 321 49 L244 49 C176 49 152 93 161 160 L215 541 C224 608 261 651 329 651 L406 651 C474 651 499 608 490 541 L436 160 Z M436 751 C446 751 463 757 480 764 C484 766 487 770 487 774 L483 805 C482 809 479 811 475 811 C464 811 455 805 440 805 C396 805 404 835 348 835 C338 835 321 829 304 822 C300 820 297 816 297 812 L301 781 C302 777 304 775 308 775 C319 775 329 781 344 781 C387 781 380 751 436 751 L436 751 Z " />
<glyph glyph-name="Odieresis" unicode="&#xd6;" horiz-adv-x="553" d="M282 762 C281 755 284 751 291 751 L337 751 C344 751 349 755 350 762 L356 811 C357 818 354 822 347 822 L301 822 C294 822 289 818 288 811 L282 762 Z M416 762 C415 755 418 751 425 751 L471 751 C478 751 483 755 484 762 L490 811 C491 818 488 822 481 822 L435 822 C428 822 423 818 422 811 L416 762 Z M427 705 L324 705 C239 705 169 638 158 556 L100 144 C88 62 139 -5 224 -5 L327 -5 C412 -5 481 62 493 144 L551 556 C562 638 512 705 427 705 L427 705 Z M436 160 C427 93 389 49 321 49 L244 49 C176 49 152 93 161 160 L215 541 C224 608 261 651 329 651 L406 651 C474 651 499 608 490 541 L436 160 Z " />
<glyph glyph-name="multiply" unicode="&#xd7;" horiz-adv-x="400" d="M220 143 L283 68 C286 65 288 65 289 65 C291 65 293 66 295 68 L319 89 C321 91 323 93 323 95 C323 97 322 99 321 101 L257 174 L341 247 C343 249 345 251 345 253 C345 255 345 257 343 259 L325 280 C323 282 321 283 319 283 C318 283 316 283 313 280 L228 205 L165 280 C162 283 160 283 159 283 C157 283 155 282 153 280 L129 259 C127 257 125 255 125 253 C125 251 125 249 127 247 L191 174 L107 101 C104 99 103 97 103 95 C103 93 103 91 105 89 L123 68 C125 66 127 65 129 65 C130 65 132 65 135 68 L220 143 Z " />
<glyph glyph-name="Oslash" unicode="&#xd8;" horiz-adv-x="553" d="M96 -82 C95 -88 98 -91 104 -91 L144 -91 C150 -91 153 -88 156 -82 L192 -2 C202 -4 213 -5 224 -5 L327 -5 C412 -5 481 62 493 144 L551 556 C558 607 541 652 507 679 L554 782 C555 788 553 791 547 791 L507 791 C501 791 497 788 494 782 L457 702 C447 704 438 705 427 705 L324 705 C239 705 169 638 158 556 L100 144 C93 93 109 48 143 21 L96 -82 Z M436 160 C427 93 389 49 321 49 L244 49 C234 49 226 50 217 52 L478 618 C491 599 494 573 490 541 L436 160 Z M161 160 L215 541 C224 608 261 651 329 651 L406 651 C415 651 425 650 433 648 L171 82 C160 101 156 128 161 160 L161 160 Z " />
<glyph glyph-name="Ugrave" unicode="&#xd9;" horiz-adv-x="563" d="M400 751 C408 751 413 755 414 763 L382 865 C379 873 377 877 370 877 L333 877 C326 877 321 873 320 865 L352 763 C355 755 357 751 364 751 L400 751 Z M574 689 C575 696 572 700 565 700 L528 700 C521 700 516 696 515 689 L441 160 C432 93 394 49 326 49 L249 49 C181 49 157 93 166 160 L240 689 C241 696 238 700 231 700 L194 700 C187 700 182 696 181 689 L105 144 C93 62 144 -5 229 -5 L332 -5 C417 -5 486 62 498 144 L574 689 Z " />
<glyph glyph-name="Uacute" unicode="&#xda;" horiz-adv-x="563" d="M409 751 C416 751 420 755 425 763 L485 865 C486 873 483 877 476 877 L439 877 C432 877 428 873 423 865 L363 763 C362 755 365 751 373 751 L409 751 Z M574 689 C575 696 572 700 565 700 L528 700 C521 700 516 696 515 689 L441 160 C432 93 394 49 326 49 L249 49 C181 49 157 93 166 160 L240 689 C241 696 238 700 231 700 L194 700 C187 700 182 696 181 689 L105 144 C93 62 144 -5 229 -5 L332 -5 C417 -5 486 62 498 144 L574 689 Z " />
<glyph glyph-name="Ucircumflex" unicode="&#xdb;" horiz-adv-x="563" d="M378 894 C372 894 368 890 364 883 L285 759 C284 754 287 751 292 751 L330 751 C333 751 337 755 339 759 L401 854 L435 759 C437 755 439 751 442 751 L480 751 C485 751 488 754 489 759 L446 883 C444 890 440 894 434 894 L378 894 Z M574 689 C575 696 572 700 565 700 L528 700 C521 700 516 696 515 689 L441 160 C432 93 394 49 326 49 L249 49 C181 49 157 93 166 160 L240 689 C241 696 238 700 231 700 L194 700 C187 700 182 696 181 689 L105 144 C93 62 144 -5 229 -5 L332 -5 C417 -5 486 62 498 144 L574 689 Z " />
<glyph glyph-name="Udieresis" unicode="&#xdc;" horiz-adv-x="563" d="M287 762 C286 755 289 751 296 751 L342 751 C349 751 354 755 355 762 L361 811 C362 818 359 822 352 822 L306 822 C299 822 294 818 293 811 L287 762 Z M421 762 C420 755 423 751 430 751 L476 751 C483 751 488 755 489 762 L495 811 C496 818 493 822 486 822 L440 822 C433 822 428 818 427 811 L421 762 Z M574 689 C575 696 572 700 565 700 L528 700 C521 700 516 696 515 689 L441 160 C432 93 394 49 326 49 L249 49 C181 49 157 93 166 160 L240 689 C241 696 238 700 231 700 L194 700 C187 700 182 696 181 689 L105 144 C93 62 144 -5 229 -5 L332 -5 C417 -5 486 62 498 144 L574 689 Z " />
<glyph glyph-name="Yacute" unicode="&#xdd;" horiz-adv-x="517" d="M383 751 C390 751 394 755 399 763 L459 865 C460 873 457 877 450 877 L413 877 C406 877 402 873 397 865 L337 763 C336 755 339 751 347 751 L383 751 Z M304 308 L299 308 L200 689 C198 696 197 700 190 700 L149 700 C142 700 137 696 136 689 L259 216 L230 11 C229 4 233 0 240 0 L277 0 C284 0 288 4 289 11 L318 216 L573 689 C574 696 571 700 564 700 L523 700 C516 700 513 696 509 689 L304 308 Z " />
<glyph glyph-name="Thorn" unicode="&#xde;" horiz-adv-x="550" d="M172 165 L224 534 L389 534 C445 534 488 482 480 423 L459 275 C450 212 393 165 337 165 L172 165 Z M91 11 C90 4 94 0 101 0 L138 0 C145 0 149 4 150 11 L164 111 L338 111 C424 111 505 178 516 261 L541 439 C553 521 491 588 405 588 L231 588 L245 689 C246 696 243 700 236 700 L199 700 C192 700 187 696 186 689 L91 11 Z " />
<glyph glyph-name="germandbls" unicode="&#xdf;" horiz-adv-x="534" d="M314 0 C402 0 483 69 495 153 L505 227 C512 272 493 325 427 362 C476 390 505 458 509 489 L518 548 C529 632 467 700 379 700 L199 700 C192 700 187 696 186 689 L91 11 C90 4 94 0 101 0 L138 0 C145 0 149 4 150 11 L239 646 L361 646 C417 646 465 592 456 533 L451 494 C442 430 380 381 324 381 L260 381 C253 381 248 377 248 370 L243 338 C242 331 245 327 252 327 L352 327 C407 327 453 275 445 214 L438 166 C429 102 369 54 314 54 L244 54 C237 54 233 50 232 43 L227 11 C226 4 230 0 237 0 L314 0 Z " />
<glyph glyph-name="agrave" unicode="&#xe0;" horiz-adv-x="466" d="M344 571 C352 571 356 575 357 583 L326 685 C323 693 320 697 313 697 L276 697 C269 697 265 693 264 685 L295 583 C298 575 301 571 308 571 L344 571 Z M210 49 C160 49 140 84 147 133 L152 165 C159 215 188 248 238 248 L366 248 L350 133 C343 84 306 49 257 49 L210 49 Z M194 451 C241 461 259 466 291 466 C397 466 385 379 379 336 L374 302 L243 302 C163 302 105 252 93 166 L87 123 C75 38 120 -5 200 -5 L236 -5 C275 -5 303 7 328 34 L336 34 L333 11 C332 4 336 0 343 0 L380 0 C387 0 391 4 392 11 L439 342 C445 387 461 520 309 520 C239 520 219 512 188 504 C184 502 182 500 181 495 C181 495 180 493 184 457 C185 451 189 451 194 451 L194 451 Z " />
<glyph glyph-name="aacute" unicode="&#xe1;" horiz-adv-x="466" d="M354 571 C361 571 364 575 369 583 L430 685 C431 693 427 697 420 697 L383 697 C376 697 373 693 368 685 L307 583 C306 575 310 571 318 571 L354 571 Z M210 49 C160 49 140 84 147 133 L152 165 C159 215 188 248 238 248 L366 248 L350 133 C343 84 306 49 257 49 L210 49 Z M194 451 C241 461 259 466 291 466 C397 466 385 379 379 336 L374 302 L243 302 C163 302 105 252 93 166 L87 123 C75 38 120 -5 200 -5 L236 -5 C275 -5 303 7 328 34 L336 34 L333 11 C332 4 336 0 343 0 L380 0 C387 0 391 4 392 11 L439 342 C445 387 461 520 309 520 C239 520 219 512 188 504 C184 502 182 500 181 495 C181 495 180 493 184 457 C185 451 189 451 194 451 L194 451 Z " />
<glyph glyph-name="acircumflex" unicode="&#xe2;" horiz-adv-x="466" d="M328 714 C322 714 317 710 313 703 L235 579 C234 574 237 571 242 571 L280 571 C283 571 286 575 289 579 L350 674 L385 579 C386 575 389 571 392 571 L430 571 C435 571 438 574 439 579 L395 703 C393 710 390 714 384 714 L328 714 Z M210 49 C160 49 140 84 147 133 L152 165 C159 215 188 248 238 248 L366 248 L350 133 C343 84 306 49 257 49 L210 49 Z M194 451 C241 461 259 466 291 466 C397 466 385 379 379 336 L374 302 L243 302 C163 302 105 252 93 166 L87 123 C75 38 120 -5 200 -5 L236 -5 C275 -5 303 7 328 34 L336 34 L333 11 C332 4 336 0 343 0 L380 0 C387 0 391 4 392 11 L439 342 C445 387 461 520 309 520 C239 520 219 512 188 504 C184 502 182 500 181 495 C181 495 180 493 184 457 C185 451 189 451 194 451 L194 451 Z " />
<glyph glyph-name="atilde" unicode="&#xe3;" horiz-adv-x="466" d="M210 49 C160 49 140 84 147 133 L152 165 C159 215 188 248 238 248 L366 248 L350 133 C343 84 306 49 257 49 L210 49 Z M194 451 C241 461 259 466 291 466 C397 466 385 379 379 336 L374 302 L243 302 C163 302 105 252 93 166 L87 123 C75 38 120 -5 200 -5 L236 -5 C275 -5 303 7 328 34 L336 34 L333 11 C332 4 336 0 343 0 L380 0 C387 0 391 4 392 11 L439 342 C445 387 461 520 309 520 C239 520 219 512 188 504 C184 502 182 500 181 495 C181 495 180 493 184 457 C185 451 189 451 194 451 L194 451 Z M387 571 C397 571 414 577 431 584 C435 586 437 590 438 594 L433 625 C433 629 430 631 426 631 C415 631 405 625 390 625 C346 625 355 655 299 655 C289 655 272 649 255 642 C250 640 248 636 247 632 L252 601 C252 597 255 595 259 595 C270 595 280 601 295 601 C338 601 331 571 387 571 L387 571 Z " />
<glyph glyph-name="adieresis" unicode="&#xe4;" horiz-adv-x="466" d="M237 582 C236 575 240 571 247 571 L293 571 C300 571 304 575 305 582 L312 631 C313 638 310 642 303 642 L257 642 C250 642 245 638 244 631 L237 582 Z M371 582 C370 575 374 571 381 571 L427 571 C434 571 438 575 439 582 L446 631 C447 638 444 642 437 642 L391 642 C384 642 379 638 378 631 L371 582 Z M210 49 C160 49 140 84 147 133 L152 165 C159 215 188 248 238 248 L366 248 L350 133 C343 84 306 49 257 49 L210 49 Z M194 451 C241 461 259 466 291 466 C397 466 385 379 379 336 L374 302 L243 302 C163 302 105 252 93 166 L87 123 C75 38 120 -5 200 -5 L236 -5 C275 -5 303 7 328 34 L336 34 L333 11 C332 4 336 0 343 0 L380 0 C387 0 391 4 392 11 L439 342 C445 387 461 520 309 520 C239 520 219 512 188 504 C184 502 182 500 181 495 C181 495 180 493 184 457 C185 451 189 451 194 451 L194 451 Z " />
<glyph glyph-name="aring" unicode="&#xe5;" horiz-adv-x="466" d="M471 686 C480 750 436 801 372 801 C308 801 250 750 241 686 C232 622 276 571 340 571 C404 571 462 622 471 686 L471 686 Z M423 686 C417 647 384 619 346 619 C309 619 284 647 290 686 C295 725 328 753 365 753 C403 753 428 725 423 686 L423 686 Z M210 49 C160 49 140 84 147 133 L152 165 C159 215 188 248 238 248 L366 248 L350 133 C343 84 306 49 257 49 L210 49 Z M194 451 C241 461 259 466 291 466 C397 466 385 379 379 336 L374 302 L243 302 C163 302 105 252 93 166 L87 123 C75 38 120 -5 200 -5 L236 -5 C275 -5 303 7 328 34 L336 34 L333 11 C332 4 336 0 343 0 L380 0 C387 0 391 4 392 11 L439 342 C445 387 461 520 309 520 C239 520 219 512 188 504 C184 502 182 500 181 495 C181 495 180 493 184 457 C185 451 189 451 194 451 L194 451 Z " />
<glyph glyph-name="ae" unicode="&#xe6;" horiz-adv-x="722" d="M595 73 C576 60 559 49 523 49 L481 49 C435 49 403 92 410 137 L423 229 L673 229 C680 229 684 233 685 240 L705 384 C715 450 683 520 602 520 L528 520 C483 520 447 499 422 469 C403 498 370 520 309 520 C239 520 219 512 188 504 C184 502 182 500 181 495 C181 495 180 493 184 457 C185 451 189 451 194 451 C241 461 259 466 291 466 C383 466 386 399 381 354 L374 302 L243 302 C163 302 105 252 93 166 L87 123 C75 38 120 -5 200 -5 L266 -5 C305 -5 334 12 359 39 L367 39 C384 13 413 -5 454 -5 L516 -5 C516 -5 577 -6 630 39 C632 42 634 43 634 45 C634 48 633 49 631 52 L612 76 C610 79 608 79 607 79 C603 79 597 74 595 73 L595 73 Z M210 49 C160 49 140 84 147 133 L152 165 C159 215 188 248 238 248 L366 248 L349 126 C340 81 303 49 257 49 L210 49 Z M443 374 C450 424 481 466 539 466 L575 466 C633 466 652 424 645 374 L632 283 L430 283 L443 374 Z " />
<glyph glyph-name="ccedilla" unicode="&#xe7;" horiz-adv-x="450" d="M176 -63 C173 -67 172 -73 172 -73 L169 -96 C168 -100 171 -103 175 -103 L224 -103 C224 -103 259 -103 255 -133 C251 -161 216 -161 216 -161 L162 -161 C158 -161 155 -163 154 -168 L151 -188 C151 -192 153 -195 157 -195 L222 -195 C262 -195 284 -179 292 -127 C297 -88 266 -69 226 -69 L214 -69 L255 -5 L271 -5 C352 -5 404 65 413 131 L416 156 C417 163 414 167 407 167 L370 167 C363 167 358 163 357 156 L355 141 C349 94 305 49 258 49 L224 49 C177 49 147 94 153 141 L186 374 C193 424 224 466 282 466 L318 466 C376 466 395 424 388 374 L386 359 C385 352 388 348 395 348 L432 348 C439 348 444 352 445 359 L448 384 C458 450 426 520 345 520 L271 520 C190 520 138 450 128 384 L93 131 C84 65 116 -5 197 -5 L214 -5 L176 -63 Z " />
<glyph glyph-name="egrave" unicode="&#xe8;" horiz-adv-x="465" d="M332 571 C340 571 344 575 345 583 L314 685 C311 693 308 697 301 697 L264 697 C257 697 253 693 252 685 L283 583 C286 575 289 571 296 571 L332 571 Z M338 73 C319 60 302 49 266 49 L224 49 C177 49 147 94 153 141 L166 229 L416 229 C423 229 427 233 428 240 L448 384 C458 450 426 520 345 520 L271 520 C190 520 138 450 128 384 L93 131 C84 65 116 -5 197 -5 L259 -5 C259 -5 320 -6 373 39 C375 42 377 43 377 45 C377 48 376 49 374 52 L355 76 C353 79 351 79 350 79 C346 79 340 74 338 73 L338 73 Z M186 374 C193 424 224 466 282 466 L318 466 C376 466 395 424 388 374 L375 283 L173 283 L186 374 Z " />
<glyph glyph-name="eacute" unicode="&#xe9;" horiz-adv-x="465" d="M333 571 C340 571 343 575 348 583 L409 685 C410 693 406 697 399 697 L362 697 C355 697 352 693 347 685 L286 583 C285 575 289 571 297 571 L333 571 Z M338 73 C319 60 302 49 266 49 L224 49 C177 49 147 94 153 141 L166 229 L416 229 C423 229 427 233 428 240 L448 384 C458 450 426 520 345 520 L271 520 C190 520 138 450 128 384 L93 131 C84 65 116 -5 197 -5 L259 -5 C259 -5 320 -6 373 39 C375 42 377 43 377 45 C377 48 376 49 374 52 L355 76 C353 79 351 79 350 79 C346 79 340 74 338 73 L338 73 Z M186 374 C193 424 224 466 282 466 L318 466 C376 466 395 424 388 374 L375 283 L173 283 L186 374 Z " />
<glyph glyph-name="ecircumflex" unicode="&#xea;" horiz-adv-x="465" d="M307 714 C301 714 296 710 292 703 L214 579 C213 574 216 571 221 571 L259 571 C262 571 265 575 268 579 L329 674 L364 579 C365 575 368 571 371 571 L409 571 C414 571 417 574 418 579 L374 703 C372 710 369 714 363 714 L307 714 Z M338 73 C319 60 302 49 266 49 L224 49 C177 49 147 94 153 141 L166 229 L416 229 C423 229 427 233 428 240 L448 384 C458 450 426 520 345 520 L271 520 C190 520 138 450 128 384 L93 131 C84 65 116 -5 197 -5 L259 -5 C259 -5 320 -6 373 39 C375 42 377 43 377 45 C377 48 376 49 374 52 L355 76 C353 79 351 79 350 79 C346 79 340 74 338 73 L338 73 Z M186 374 C193 424 224 466 282 466 L318 466 C376 466 395 424 388 374 L375 283 L173 283 L186 374 Z " />
<glyph glyph-name="edieresis" unicode="&#xeb;" horiz-adv-x="465" d="M218 582 C217 575 221 571 228 571 L274 571 C281 571 285 575 286 582 L293 631 C294 638 291 642 284 642 L238 642 C231 642 226 638 225 631 L218 582 Z M352 582 C351 575 355 571 362 571 L408 571 C415 571 419 575 420 582 L427 631 C428 638 425 642 418 642 L372 642 C365 642 360 638 359 631 L352 582 Z M338 73 C319 60 302 49 266 49 L224 49 C177 49 147 94 153 141 L166 229 L416 229 C423 229 427 233 428 240 L448 384 C458 450 426 520 345 520 L271 520 C190 520 138 450 128 384 L93 131 C84 65 116 -5 197 -5 L259 -5 C259 -5 320 -6 373 39 C375 42 377 43 377 45 C377 48 376 49 374 52 L355 76 C353 79 351 79 350 79 C346 79 340 74 338 73 L338 73 Z M186 374 C193 424 224 466 282 466 L318 466 C376 466 395 424 388 374 L375 283 L173 283 L186 374 Z " />
<glyph glyph-name="igrave" unicode="&#xec;" horiz-adv-x="239" d="M91 11 C90 4 94 0 101 0 L138 0 C145 0 149 4 150 11 L219 504 C220 511 217 515 210 515 L173 515 C166 515 161 511 160 504 L91 11 Z M217 571 C225 571 229 575 230 583 L199 685 C196 693 193 697 186 697 L149 697 C142 697 138 693 137 685 L168 583 C171 575 174 571 181 571 L217 571 Z " />
<glyph glyph-name="iacute" unicode="&#xed;" horiz-adv-x="239" d="M219 504 C220 511 217 515 210 515 L173 515 C166 515 161 511 160 504 L91 11 C90 4 94 0 101 0 L138 0 C145 0 149 4 150 11 L219 504 Z M218 571 C225 571 228 575 233 583 L294 685 C295 693 291 697 284 697 L247 697 C240 697 237 693 232 685 L171 583 C170 575 174 571 182 571 L218 571 Z " />
<glyph glyph-name="icircumflex" unicode="&#xee;" horiz-adv-x="239" d="M91 11 C90 4 94 0 101 0 L138 0 C145 0 149 4 150 11 L219 504 C220 511 217 515 210 515 L173 515 C166 515 161 511 160 504 L91 11 Z M190 711 C184 711 180 707 176 700 L97 576 C97 571 99 568 104 568 L142 568 C145 568 149 572 151 576 L213 671 L247 576 C249 572 251 568 254 568 L292 568 C297 568 301 571 301 576 L258 700 C256 707 252 711 246 711 L190 711 Z " />
<glyph glyph-name="idieresis" unicode="&#xef;" horiz-adv-x="239" d="M91 11 C90 4 94 0 101 0 L138 0 C145 0 149 4 150 11 L219 504 C220 511 217 515 210 515 L173 515 C166 515 161 511 160 504 L91 11 Z M114 582 C113 575 117 571 124 571 L170 571 C177 571 181 575 182 582 L189 631 C190 638 187 642 180 642 L134 642 C127 642 122 638 121 631 L114 582 Z M219 582 C218 575 222 571 229 571 L275 571 C282 571 286 575 287 582 L294 631 C295 638 292 642 285 642 L239 642 C232 642 227 638 226 631 L219 582 Z " />
<glyph glyph-name="eth" unicode="&#xf0;" horiz-adv-x="544" d="M466 566 C473 566 478 570 479 577 L483 609 C484 616 481 620 474 620 L395 620 L451 690 C452 696 450 700 444 700 L396 700 C391 700 383 695 379 690 L323 620 L209 620 C202 620 197 616 196 609 L192 577 C191 570 194 566 201 566 L278 566 L139 394 C135 388 133 378 132 374 L100 143 C88 62 150 -5 237 -5 L318 -5 C403 -5 482 62 494 143 L511 267 C522 348 462 414 377 414 L303 414 C292 414 258 413 217 391 L207 391 L350 566 L466 566 Z M437 159 C427 92 380 49 312 49 L254 49 C186 49 151 92 161 159 L174 250 C183 317 230 360 298 360 L356 360 C424 360 459 317 450 250 L437 159 Z " />
<glyph glyph-name="ntilde" unicode="&#xf1;" horiz-adv-x="501" d="M91 11 C90 4 94 0 101 0 L138 0 C145 0 149 4 150 11 L200 366 C263 465 314 466 349 466 L357 466 C408 466 421 424 412 356 L363 11 C362 4 366 0 373 0 L410 0 C417 0 421 4 422 11 L472 368 C485 458 459 520 366 520 L338 520 C318 520 262 519 219 455 L212 455 L219 504 C220 511 217 515 210 515 L173 515 C166 515 161 511 160 504 L91 11 Z M391 571 C401 571 418 577 435 584 C439 586 441 590 442 594 L437 625 C437 629 434 631 430 631 C419 631 409 625 394 625 C350 625 359 655 303 655 C293 655 276 649 259 642 C254 640 252 636 251 632 L256 601 C256 597 259 595 263 595 C274 595 284 601 299 601 C342 601 335 571 391 571 L391 571 Z " />
<glyph glyph-name="ograve" unicode="&#xf2;" horiz-adv-x="470" d="M332 571 C340 571 344 575 345 583 L314 685 C311 693 308 697 301 697 L264 697 C257 697 253 693 252 685 L283 583 C286 575 289 571 296 571 L332 571 Z M271 520 C190 520 138 450 128 384 L93 131 C84 65 116 -5 197 -5 L271 -5 C352 -5 404 65 413 131 L448 384 C458 450 426 520 345 520 L271 520 Z M223 49 C165 49 146 91 153 141 L186 374 C193 424 224 466 282 466 L318 466 C376 466 395 424 388 374 L355 141 C348 91 317 49 259 49 L223 49 Z " />
<glyph glyph-name="oacute" unicode="&#xf3;" horiz-adv-x="470" d="M334 571 C341 571 344 575 349 583 L410 685 C411 693 407 697 400 697 L363 697 C356 697 353 693 348 685 L287 583 C286 575 290 571 298 571 L334 571 Z M271 520 C190 520 138 450 128 384 L93 131 C84 65 116 -5 197 -5 L271 -5 C352 -5 404 65 413 131 L448 384 C458 450 426 520 345 520 L271 520 Z M223 49 C165 49 146 91 153 141 L186 374 C193 424 224 466 282 466 L318 466 C376 466 395 424 388 374 L355 141 C348 91 317 49 259 49 L223 49 Z " />
<glyph glyph-name="ocircumflex" unicode="&#xf4;" horiz-adv-x="470" d="M307 714 C301 714 296 710 292 703 L214 579 C213 574 216 571 221 571 L259 571 C262 571 265 575 268 579 L329 674 L364 579 C365 575 368 571 371 571 L409 571 C414 571 417 574 418 579 L374 703 C372 710 369 714 363 714 L307 714 Z M271 520 C190 520 138 450 128 384 L93 131 C84 65 116 -5 197 -5 L271 -5 C352 -5 404 65 413 131 L448 384 C458 450 426 520 345 520 L271 520 Z M223 49 C165 49 146 91 153 141 L186 374 C193 424 224 466 282 466 L318 466 C376 466 395 424 388 374 L355 141 C348 91 317 49 259 49 L223 49 Z " />
<glyph glyph-name="otilde" unicode="&#xf5;" horiz-adv-x="470" d="M271 520 C190 520 138 450 128 384 L93 131 C84 65 116 -5 197 -5 L271 -5 C352 -5 404 65 413 131 L448 384 C458 450 426 520 345 520 L271 520 Z M223 49 C165 49 146 91 153 141 L186 374 C193 424 224 466 282 466 L318 466 C376 466 395 424 388 374 L355 141 C348 91 317 49 259 49 L223 49 Z M359 571 C369 571 386 577 403 584 C407 586 409 590 410 594 L405 625 C405 629 402 631 398 631 C387 631 377 625 362 625 C318 625 327 655 271 655 C261 655 244 649 227 642 C222 640 220 636 219 632 L224 601 C224 597 227 595 231 595 C242 595 252 601 267 601 C310 601 303 571 359 571 L359 571 Z " />
<glyph glyph-name="odieresis" unicode="&#xf6;" horiz-adv-x="470" d="M214 582 C213 575 217 571 224 571 L270 571 C277 571 281 575 282 582 L289 631 C290 638 287 642 280 642 L234 642 C227 642 222 638 221 631 L214 582 Z M348 582 C347 575 351 571 358 571 L404 571 C411 571 415 575 416 582 L423 631 C424 638 421 642 414 642 L368 642 C361 642 356 638 355 631 L348 582 Z M271 520 C190 520 138 450 128 384 L93 131 C84 65 116 -5 197 -5 L271 -5 C352 -5 404 65 413 131 L448 384 C458 450 426 520 345 520 L271 520 Z M223 49 C165 49 146 91 153 141 L186 374 C193 424 224 466 282 466 L318 466 C376 466 395 424 388 374 L355 141 C348 91 317 49 259 49 L223 49 Z " />
<glyph glyph-name="divide" unicode="&#xf7;" horiz-adv-x="431" d="M350 146 C357 146 362 150 363 157 L367 189 C368 196 365 200 358 200 L129 200 C122 200 117 196 116 189 L112 157 C111 150 114 146 121 146 L350 146 Z M186 13 C185 6 189 2 196 2 L236 2 C243 2 247 6 248 13 L254 56 C255 63 252 67 245 67 L205 67 C198 67 193 63 192 56 L186 13 Z M224 284 C223 277 227 273 234 273 L273 273 C280 273 284 277 285 284 L291 327 C292 334 289 338 282 338 L243 338 C236 338 231 334 230 327 L224 284 Z " />
<glyph glyph-name="oslash" unicode="&#xf8;" horiz-adv-x="470" d="M86 -82 C85 -88 88 -91 94 -91 L134 -91 C140 -91 143 -88 146 -82 L182 -4 C187 -4 192 -5 197 -5 L271 -5 C352 -5 404 65 413 131 L448 384 C454 426 443 470 413 496 L459 597 C460 603 458 606 452 606 L412 606 C406 606 402 603 399 597 L363 518 C357 519 351 520 345 520 L271 520 C190 520 138 450 128 384 L93 131 C87 87 98 41 131 16 L86 -82 Z M153 141 L186 374 C193 424 224 466 282 466 L318 466 C325 466 332 465 338 464 L161 81 C152 97 150 118 153 141 L153 141 Z M223 49 C217 49 211 49 207 50 L382 430 C390 414 391 395 388 374 L355 141 C348 91 317 49 259 49 L223 49 Z " />
<glyph glyph-name="ugrave" unicode="&#xf9;" horiz-adv-x="480" d="M337 571 C345 571 349 575 350 583 L319 685 C316 693 313 697 306 697 L269 697 C262 697 258 693 257 685 L288 583 C291 575 294 571 301 571 L337 571 Z M470 504 C471 511 468 515 461 515 L424 515 C417 515 412 511 411 504 L360 141 C354 94 310 49 263 49 L229 49 C182 49 152 94 158 141 L209 504 C210 511 207 515 200 515 L163 515 C156 515 151 511 150 504 L98 131 C89 65 121 -5 202 -5 L276 -5 C357 -5 409 65 418 131 L470 504 Z " />
<glyph glyph-name="uacute" unicode="&#xfa;" horiz-adv-x="480" d="M339 571 C346 571 349 575 354 583 L415 685 C416 693 412 697 405 697 L368 697 C361 697 358 693 353 685 L292 583 C291 575 295 571 303 571 L339 571 Z M470 504 C471 511 468 515 461 515 L424 515 C417 515 412 511 411 504 L360 141 C354 94 310 49 263 49 L229 49 C182 49 152 94 158 141 L209 504 C210 511 207 515 200 515 L163 515 C156 515 151 511 150 504 L98 131 C89 65 121 -5 202 -5 L276 -5 C357 -5 409 65 418 131 L470 504 Z " />
<glyph glyph-name="ucircumflex" unicode="&#xfb;" horiz-adv-x="480" d="M312 714 C306 714 301 710 297 703 L219 579 C218 574 221 571 226 571 L264 571 C267 571 270 575 273 579 L334 674 L369 579 C370 575 373 571 376 571 L414 571 C419 571 422 574 423 579 L379 703 C377 710 374 714 368 714 L312 714 Z M470 504 C471 511 468 515 461 515 L424 515 C417 515 412 511 411 504 L360 141 C354 94 310 49 263 49 L229 49 C182 49 152 94 158 141 L209 504 C210 511 207 515 200 515 L163 515 C156 515 151 511 150 504 L98 131 C89 65 121 -5 202 -5 L276 -5 C357 -5 409 65 418 131 L470 504 Z " />
<glyph glyph-name="udieresis" unicode="&#xfc;" horiz-adv-x="480" d="M219 582 C218 575 222 571 229 571 L275 571 C282 571 286 575 287 582 L294 631 C295 638 292 642 285 642 L239 642 C232 642 227 638 226 631 L219 582 Z M353 582 C352 575 356 571 363 571 L409 571 C416 571 420 575 421 582 L428 631 C429 638 426 642 419 642 L373 642 C366 642 361 638 360 631 L353 582 Z M470 504 C471 511 468 515 461 515 L424 515 C417 515 412 511 411 504 L360 141 C354 94 310 49 263 49 L229 49 C182 49 152 94 158 141 L209 504 C210 511 207 515 200 515 L163 515 C156 515 151 511 150 504 L98 131 C89 65 121 -5 202 -5 L276 -5 C357 -5 409 65 418 131 L470 504 Z " />
<glyph glyph-name="yacute" unicode="&#xfd;" horiz-adv-x="437" d="M323 571 C330 571 333 575 338 583 L399 685 C400 693 396 697 389 697 L352 697 C345 697 342 693 337 685 L276 583 C275 575 279 571 287 571 L323 571 Z M174 -49 C156 -100 118 -149 53 -149 L30 -149 C23 -149 18 -153 17 -160 L13 -192 C12 -199 15 -203 22 -203 L62 -203 C103 -203 187 -201 264 -11 L472 504 C473 511 470 515 463 515 L426 515 C419 515 415 511 412 504 L232 58 L221 58 L165 504 C164 511 162 515 155 515 L118 515 C111 515 106 511 105 504 L174 -49 Z " />
<glyph glyph-name="thorn" unicode="&#xfe;" horiz-adv-x="500" d="M154 38 L161 38 C180 5 206 -5 234 -5 L293 -5 C374 -5 432 54 443 133 L478 382 C489 461 448 520 367 520 L308 520 C280 520 251 510 223 477 L216 477 L245 689 C246 696 243 700 236 700 L199 700 C192 700 187 696 186 689 L67 -163 C66 -170 69 -174 76 -174 L113 -174 C120 -174 125 -170 126 -163 L154 38 Z M253 49 C195 49 164 98 171 148 L202 367 C209 417 254 466 312 466 L348 466 C406 466 425 424 418 374 L385 141 C378 91 347 49 289 49 L253 49 Z " />
<glyph glyph-name="ydieresis" unicode="&#xff;" horiz-adv-x="437" d="M198 582 C197 575 201 571 208 571 L254 571 C261 571 265 575 266 582 L273 631 C274 638 271 642 264 642 L218 642 C211 642 206 638 205 631 L198 582 Z M332 582 C331 575 335 571 342 571 L388 571 C395 571 399 575 400 582 L407 631 C408 638 405 642 398 642 L352 642 C345 642 340 638 339 631 L332 582 Z M174 -49 C156 -100 118 -149 53 -149 L30 -149 C23 -149 18 -153 17 -160 L13 -192 C12 -199 15 -203 22 -203 L62 -203 C103 -203 187 -201 264 -11 L472 504 C473 511 470 515 463 515 L426 515 C419 515 415 511 412 504 L232 58 L221 58 L165 504 C164 511 162 515 155 515 L118 515 C111 515 106 511 105 504 L174 -49 Z " />
<glyph glyph-name="Amacron" unicode="&#x100;" horiz-adv-x="552" d="M451 751 C458 751 463 755 464 762 L468 794 C469 801 466 805 459 805 L317 805 C310 805 305 801 304 794 L300 762 C299 755 302 751 309 751 L451 751 Z M336 700 C330 700 326 697 324 692 L46 11 C45 4 49 0 56 0 L94 0 C101 0 104 4 107 11 L159 138 L431 138 L447 11 C448 4 451 0 458 0 L496 0 C503 0 507 4 508 11 L422 692 C420 697 418 700 412 700 L336 700 Z M359 629 L369 629 L424 191 L180 191 L359 629 Z " />
<glyph glyph-name="amacron" unicode="&#x101;" horiz-adv-x="466" d="M406 571 C413 571 417 575 418 582 L423 614 C424 621 420 625 413 625 L271 625 C264 625 260 621 259 614 L254 582 C253 575 257 571 264 571 L406 571 Z M210 49 C160 49 140 84 147 133 L152 165 C159 215 188 248 238 248 L366 248 L350 133 C343 84 306 49 257 49 L210 49 Z M194 451 C241 461 259 466 291 466 C397 466 385 379 379 336 L374 302 L243 302 C163 302 105 252 93 166 L87 123 C75 38 120 -5 200 -5 L236 -5 C275 -5 303 7 328 34 L336 34 L333 11 C332 4 336 0 343 0 L380 0 C387 0 391 4 392 11 L439 342 C445 387 461 520 309 520 C239 520 219 512 188 504 C184 502 182 500 181 495 C181 495 180 493 184 457 C185 451 189 451 194 451 L194 451 Z " />
<glyph glyph-name="Abreve" unicode="&#x102;" horiz-adv-x="552" d="M336 700 C330 700 326 697 324 692 L46 11 C45 4 49 0 56 0 L94 0 C101 0 104 4 107 11 L159 138 L431 138 L447 11 C448 4 451 0 458 0 L496 0 C503 0 507 4 508 11 L422 692 C420 697 418 700 412 700 L336 700 Z M359 629 L369 629 L424 191 L180 191 L359 629 Z M381 751 C457 751 488 794 515 858 C516 863 512 867 507 867 L465 867 C460 867 457 863 454 858 C435 822 422 799 388 799 C354 799 347 822 338 858 C337 863 334 867 329 867 L287 867 C282 867 278 863 277 858 C286 794 305 751 381 751 L381 751 Z " />
<glyph glyph-name="abreve" unicode="&#x103;" horiz-adv-x="466" d="M210 49 C160 49 140 84 147 133 L152 165 C159 215 188 248 238 248 L366 248 L350 133 C343 84 306 49 257 49 L210 49 Z M194 451 C241 461 259 466 291 466 C397 466 385 379 379 336 L374 302 L243 302 C163 302 105 252 93 166 L87 123 C75 38 120 -5 200 -5 L236 -5 C275 -5 303 7 328 34 L336 34 L333 11 C332 4 336 0 343 0 L380 0 C387 0 391 4 392 11 L439 342 C445 387 461 520 309 520 C239 520 219 512 188 504 C184 502 182 500 181 495 C181 495 180 493 184 457 C185 451 189 451 194 451 L194 451 Z M332 571 C408 571 439 614 466 678 C466 683 463 687 458 687 L416 687 C411 687 407 683 405 678 C386 642 372 619 338 619 C304 619 298 642 289 678 C287 683 285 687 280 687 L238 687 C233 687 228 683 228 678 C237 614 256 571 332 571 L332 571 Z " />
<glyph glyph-name="Aogonek" unicode="&#x104;" horiz-adv-x="552" d="M359 629 L369 629 L424 191 L180 191 L359 629 Z M443 34 L431 34 C391 34 360 -3 355 -37 C348 -89 375 -109 421 -109 L469 -109 C473 -109 477 -106 477 -102 L480 -82 C481 -77 478 -75 474 -75 L420 -75 C420 -75 385 -75 390 -38 C396 0 431 0 431 0 L496 0 C503 0 507 4 508 11 L422 692 C420 697 418 700 412 700 L336 700 C330 700 326 697 324 692 L46 11 C45 4 49 0 56 0 L94 0 C101 0 104 4 107 11 L159 138 L431 138 L443 34 Z " />
<glyph glyph-name="aogonek" unicode="&#x105;" horiz-adv-x="466" d="M210 49 C160 49 140 84 147 133 L152 165 C159 215 188 248 238 248 L366 248 L350 133 C343 84 306 49 257 49 L210 49 Z M329 -19 C295 -24 267 -47 262 -80 C255 -132 283 -144 324 -144 L361 -144 C365 -144 369 -141 369 -137 L372 -117 C373 -112 370 -110 366 -110 L329 -110 C329 -110 294 -110 298 -82 C302 -52 337 -52 337 -52 L376 -52 C380 -52 384 -49 384 -45 L439 342 C445 387 461 520 309 520 C239 520 219 512 188 504 C184 502 182 500 181 495 C181 495 180 493 184 457 C185 451 189 451 194 451 C241 461 259 466 291 466 C397 466 385 379 379 336 L374 302 L243 302 C163 302 105 252 93 166 L87 123 C75 38 120 -5 200 -5 L236 -5 C275 -5 303 7 328 34 L336 34 L329 -19 Z " />
<glyph glyph-name="Cacute" unicode="&#x106;" horiz-adv-x="538" d="M407 751 C414 751 418 755 423 763 L483 865 C484 873 481 877 474 877 L437 877 C430 877 426 873 421 865 L361 763 C360 755 363 751 371 751 L407 751 Z M436 160 C427 93 389 49 321 49 L244 49 C176 49 152 93 161 160 L215 541 C224 608 261 651 329 651 L406 651 C474 651 499 608 490 541 L484 504 C483 497 487 493 494 493 L531 493 C538 493 542 497 543 504 L551 556 C562 638 512 705 427 705 L324 705 C239 705 169 638 158 556 L100 144 C88 62 139 -5 224 -5 L327 -5 C412 -5 481 62 493 144 L500 196 C501 203 498 207 491 207 L454 207 C447 207 442 203 441 196 L436 160 Z " />
<glyph glyph-name="cacute" unicode="&#x107;" horiz-adv-x="450" d="M344 571 C351 571 354 575 359 583 L420 685 C421 693 417 697 410 697 L373 697 C366 697 363 693 358 685 L297 583 C296 575 300 571 308 571 L344 571 Z M416 156 C417 163 414 167 407 167 L370 167 C363 167 358 163 357 156 L355 141 C349 94 305 49 258 49 L224 49 C177 49 147 94 153 141 L186 374 C193 424 224 466 282 466 L318 466 C376 466 395 424 388 374 L386 359 C385 352 388 348 395 348 L432 348 C439 348 444 352 445 359 L448 384 C458 450 426 520 345 520 L271 520 C190 520 138 450 128 384 L93 131 C84 65 116 -5 197 -5 L271 -5 C352 -5 404 65 413 131 L416 156 Z " />
<glyph glyph-name="Ccircumflex" unicode="&#x108;" horiz-adv-x="538" d="M375 894 C369 894 365 890 361 883 L282 759 C281 754 284 751 289 751 L327 751 C330 751 334 755 336 759 L398 854 L432 759 C434 755 436 751 439 751 L477 751 C482 751 485 754 486 759 L443 883 C441 890 437 894 431 894 L375 894 Z M436 160 C427 93 389 49 321 49 L244 49 C176 49 152 93 161 160 L215 541 C224 608 261 651 329 651 L406 651 C474 651 499 608 490 541 L484 504 C483 497 487 493 494 493 L531 493 C538 493 542 497 543 504 L551 556 C562 638 512 705 427 705 L324 705 C239 705 169 638 158 556 L100 144 C88 62 139 -5 224 -5 L327 -5 C412 -5 481 62 493 144 L500 196 C501 203 498 207 491 207 L454 207 C447 207 442 203 441 196 L436 160 Z " />
<glyph glyph-name="ccircumflex" unicode="&#x109;" horiz-adv-x="450" d="M305 714 C299 714 294 710 290 703 L212 579 C211 574 214 571 219 571 L257 571 C260 571 263 575 266 579 L327 674 L362 579 C363 575 366 571 369 571 L407 571 C412 571 415 574 416 579 L372 703 C370 710 367 714 361 714 L305 714 Z M416 156 C417 163 414 167 407 167 L370 167 C363 167 358 163 357 156 L355 141 C349 94 305 49 258 49 L224 49 C177 49 147 94 153 141 L186 374 C193 424 224 466 282 466 L318 466 C376 466 395 424 388 374 L386 359 C385 352 388 348 395 348 L432 348 C439 348 444 352 445 359 L448 384 C458 450 426 520 345 520 L271 520 C190 520 138 450 128 384 L93 131 C84 65 116 -5 197 -5 L271 -5 C352 -5 404 65 413 131 L416 156 Z " />
<glyph glyph-name="Cdotaccent" unicode="&#x10a;" horiz-adv-x="538" d="M355 762 C354 755 357 751 364 751 L410 751 C417 751 422 755 423 762 L429 811 C430 818 427 822 420 822 L374 822 C367 822 362 818 361 811 L355 762 Z M436 160 C427 93 389 49 321 49 L244 49 C176 49 152 93 161 160 L215 541 C224 608 261 651 329 651 L406 651 C474 651 499 608 490 541 L484 504 C483 497 487 493 494 493 L531 493 C538 493 542 497 543 504 L551 556 C562 638 512 705 427 705 L324 705 C239 705 169 638 158 556 L100 144 C88 62 139 -5 224 -5 L327 -5 C412 -5 481 62 493 144 L500 196 C501 203 498 207 491 207 L454 207 C447 207 442 203 441 196 L436 160 Z " />
<glyph glyph-name="cdotaccent" unicode="&#x10b;" horiz-adv-x="450" d="M286 582 C285 575 289 571 296 571 L342 571 C349 571 353 575 354 582 L361 631 C362 638 359 642 352 642 L306 642 C299 642 294 638 293 631 L286 582 Z M416 156 C417 163 414 167 407 167 L370 167 C363 167 358 163 357 156 L355 141 C349 94 305 49 258 49 L224 49 C177 49 147 94 153 141 L186 374 C193 424 224 466 282 466 L318 466 C376 466 395 424 388 374 L386 359 C385 352 388 348 395 348 L432 348 C439 348 444 352 445 359 L448 384 C458 450 426 520 345 520 L271 520 C190 520 138 450 128 384 L93 131 C84 65 116 -5 197 -5 L271 -5 C352 -5 404 65 413 131 L416 156 Z " />
<glyph glyph-name="Ccaron" unicode="&#x10c;" horiz-adv-x="538" d="M406 751 C412 751 417 755 421 762 L499 886 C500 891 497 894 492 894 L454 894 C451 894 448 890 445 886 L384 791 L349 886 C348 890 345 894 342 894 L304 894 C299 894 296 891 295 886 L339 762 C341 755 344 751 350 751 L406 751 Z M436 160 C427 93 389 49 321 49 L244 49 C176 49 152 93 161 160 L215 541 C224 608 261 651 329 651 L406 651 C474 651 499 608 490 541 L484 504 C483 497 487 493 494 493 L531 493 C538 493 542 497 543 504 L551 556 C562 638 512 705 427 705 L324 705 C239 705 169 638 158 556 L100 144 C88 62 139 -5 224 -5 L327 -5 C412 -5 481 62 493 144 L500 196 C501 203 498 207 491 207 L454 207 C447 207 442 203 441 196 L436 160 Z " />
<glyph glyph-name="ccaron" unicode="&#x10d;" horiz-adv-x="450" d="M342 571 C348 571 352 575 356 582 L435 706 C435 711 433 714 428 714 L390 714 C387 714 383 710 381 706 L319 611 L285 706 C283 710 281 714 278 714 L240 714 C235 714 231 711 231 706 L274 582 C276 575 280 571 286 571 L342 571 Z M416 156 C417 163 414 167 407 167 L370 167 C363 167 358 163 357 156 L355 141 C349 94 305 49 258 49 L224 49 C177 49 147 94 153 141 L186 374 C193 424 224 466 282 466 L318 466 C376 466 395 424 388 374 L386 359 C385 352 388 348 395 348 L432 348 C439 348 444 352 445 359 L448 384 C458 450 426 520 345 520 L271 520 C190 520 138 450 128 384 L93 131 C84 65 116 -5 197 -5 L271 -5 C352 -5 404 65 413 131 L416 156 Z " />
<glyph glyph-name="Dcaron" unicode="&#x10e;" horiz-adv-x="563" d="M380 751 C386 751 391 755 395 762 L473 886 C474 891 471 894 466 894 L428 894 C425 894 422 890 419 886 L358 791 L323 886 C322 890 319 894 316 894 L278 894 C273 894 270 891 269 886 L313 762 C315 755 318 751 324 751 L380 751 Z M156 54 L239 646 L406 646 C474 646 509 602 500 535 L448 165 C438 98 391 54 323 54 L156 54 Z M199 700 C192 700 187 696 186 689 L91 11 C90 4 94 0 101 0 L328 0 C413 0 492 67 503 149 L560 551 C571 633 511 700 426 700 L199 700 Z " />
<glyph glyph-name="dcaron" unicode="&#x10f;" horiz-adv-x="717" d="M707 574 C714 574 718 578 723 586 L783 688 C784 696 781 700 774 700 L737 700 C730 700 726 696 721 688 L661 586 C660 578 663 574 671 574 L707 574 Z M347 11 C346 4 350 0 357 0 L394 0 C401 0 405 4 406 11 L501 689 C502 696 499 700 492 700 L455 700 C448 700 443 696 442 689 L413 477 L406 477 C386 510 361 520 333 520 L274 520 C193 520 134 461 123 382 L88 133 C77 54 119 -5 200 -5 L259 -5 C287 -5 315 5 344 38 L351 38 L347 11 Z M218 49 C160 49 141 91 148 141 L181 374 C188 424 219 466 277 466 L313 466 C371 466 402 417 395 367 L364 148 C357 98 312 49 254 49 L218 49 Z " />
<glyph glyph-name="Dcroat" unicode="&#x110;" horiz-adv-x="584" d="M220 700 C213 700 208 696 207 689 L164 378 L94 378 C87 378 82 374 81 367 L77 335 C76 328 79 324 86 324 L156 324 L112 11 C111 4 115 0 122 0 L349 0 C434 0 513 67 524 149 L581 551 C592 633 532 700 447 700 L220 700 Z M177 54 L215 324 L292 324 C299 324 304 328 305 335 L309 367 C310 374 307 378 300 378 L223 378 L260 646 L427 646 C495 646 530 602 521 535 L469 165 C459 98 412 54 344 54 L177 54 Z " />
<glyph glyph-name="dcroat" unicode="&#x111;" horiz-adv-x="493" d="M533 577 C540 577 544 581 545 588 L550 620 C551 627 547 631 540 631 L493 631 L501 689 C502 696 499 700 492 700 L455 700 C448 700 443 696 442 689 L434 631 L342 631 C335 631 331 627 330 620 L325 588 C324 581 328 577 335 577 L427 577 L413 477 L406 477 C386 510 361 520 333 520 L274 520 C193 520 134 461 123 382 L88 133 C77 54 119 -5 200 -5 L259 -5 C287 -5 315 5 344 38 L351 38 L347 11 C346 4 350 0 357 0 L394 0 C401 0 405 4 406 11 L486 577 L533 577 Z M218 49 C160 49 141 91 148 141 L181 374 C188 424 219 466 277 466 L313 466 C371 466 402 417 395 367 L364 148 C357 98 312 49 254 49 L218 49 Z " />
<glyph glyph-name="Emacron" unicode="&#x112;" horiz-adv-x="483" d="M447 751 C454 751 459 755 460 762 L464 794 C465 801 462 805 455 805 L249 805 C242 805 237 801 236 794 L232 762 C231 755 234 751 241 751 L447 751 Z M91 11 C90 4 94 0 101 0 L392 0 C399 0 403 4 404 11 L409 43 C410 50 406 54 399 54 L156 54 L192 310 L409 310 C416 310 421 314 422 321 L426 353 C427 360 424 364 417 364 L200 364 L239 646 L482 646 C489 646 494 650 495 657 L499 689 C500 696 497 700 490 700 L199 700 C192 700 187 696 186 689 L91 11 Z " />
<glyph glyph-name="emacron" unicode="&#x113;" horiz-adv-x="465" d="M416 571 C423 571 427 575 428 582 L433 614 C434 621 430 625 423 625 L217 625 C210 625 206 621 205 614 L200 582 C199 575 203 571 210 571 L416 571 Z M338 73 C319 60 302 49 266 49 L224 49 C177 49 147 94 153 141 L166 229 L416 229 C423 229 427 233 428 240 L448 384 C458 450 426 520 345 520 L271 520 C190 520 138 450 128 384 L93 131 C84 65 116 -5 197 -5 L259 -5 C259 -5 320 -6 373 39 C375 42 377 43 377 45 C377 48 376 49 374 52 L355 76 C353 79 351 79 350 79 C346 79 340 74 338 73 L338 73 Z M186 374 C193 424 224 466 282 466 L318 466 C376 466 395 424 388 374 L375 283 L173 283 L186 374 Z " />
<glyph glyph-name="Edotaccent" unicode="&#x116;" horiz-adv-x="483" d="M319 762 C318 755 321 751 328 751 L374 751 C381 751 386 755 387 762 L393 811 C394 818 391 822 384 822 L338 822 C331 822 326 818 325 811 L319 762 Z M91 11 C90 4 94 0 101 0 L392 0 C399 0 403 4 404 11 L409 43 C410 50 406 54 399 54 L156 54 L192 310 L409 310 C416 310 421 314 422 321 L426 353 C427 360 424 364 417 364 L200 364 L239 646 L482 646 C489 646 494 650 495 657 L499 689 C500 696 497 700 490 700 L199 700 C192 700 187 696 186 689 L91 11 Z " />
<glyph glyph-name="edotaccent" unicode="&#x117;" horiz-adv-x="465" d="M282 582 C281 575 285 571 292 571 L338 571 C345 571 349 575 350 582 L357 631 C358 638 355 642 348 642 L302 642 C295 642 290 638 289 631 L282 582 Z M338 73 C319 60 302 49 266 49 L224 49 C177 49 147 94 153 141 L166 229 L416 229 C423 229 427 233 428 240 L448 384 C458 450 426 520 345 520 L271 520 C190 520 138 450 128 384 L93 131 C84 65 116 -5 197 -5 L259 -5 C259 -5 320 -6 373 39 C375 42 377 43 377 45 C377 48 376 49 374 52 L355 76 C353 79 351 79 350 79 C346 79 340 74 338 73 L338 73 Z M186 374 C193 424 224 466 282 466 L318 466 C376 466 395 424 388 374 L375 283 L173 283 L186 374 Z " />
<glyph glyph-name="Eogonek" unicode="&#x118;" horiz-adv-x="483" d="M258 0 C250 -13 242 -34 239 -51 C233 -97 250 -118 290 -118 L355 -118 C359 -118 362 -115 363 -111 L366 -91 C366 -86 364 -84 360 -84 L306 -84 C306 -84 271 -84 275 -51 C279 -27 289 -10 299 0 L392 0 C399 0 403 4 404 11 L409 43 C410 50 406 54 399 54 L156 54 L192 310 L409 310 C416 310 421 314 422 321 L426 353 C427 360 424 364 417 364 L200 364 L239 646 L482 646 C489 646 494 650 495 657 L499 689 C500 696 497 700 490 700 L199 700 C192 700 187 696 186 689 L91 11 C90 4 94 0 101 0 L258 0 Z " />
<glyph glyph-name="eogonek" unicode="&#x119;" horiz-adv-x="465" d="M338 73 C319 60 302 49 266 49 L224 49 C177 49 147 94 153 141 L166 229 L416 229 C423 229 427 233 428 240 L448 384 C458 450 426 520 345 520 L271 520 C190 520 138 450 128 384 L93 131 C84 71 109 7 175 -3 C168 -16 160 -35 157 -51 C151 -97 168 -118 208 -118 L273 -118 C277 -118 280 -115 281 -111 L284 -91 C284 -86 282 -84 278 -84 L224 -84 C224 -84 189 -84 193 -51 C197 -27 206 -15 216 -5 L259 -5 C259 -5 320 -6 373 39 C375 42 377 43 377 45 C377 48 376 49 374 52 L355 76 C353 79 351 79 350 79 C346 79 340 74 338 73 L338 73 Z M186 374 C193 424 224 466 282 466 L318 466 C376 466 395 424 388 374 L375 283 L173 283 L186 374 Z " />
<glyph glyph-name="Ecaron" unicode="&#x11a;" horiz-adv-x="483" d="M379 751 C385 751 390 755 394 762 L472 886 C473 891 470 894 465 894 L427 894 C424 894 421 890 418 886 L357 791 L322 886 C321 890 318 894 315 894 L277 894 C272 894 269 891 268 886 L312 762 C314 755 317 751 323 751 L379 751 Z M91 11 C90 4 94 0 101 0 L392 0 C399 0 403 4 404 11 L409 43 C410 50 406 54 399 54 L156 54 L192 310 L409 310 C416 310 421 314 422 321 L426 353 C427 360 424 364 417 364 L200 364 L239 646 L482 646 C489 646 494 650 495 657 L499 689 C500 696 497 700 490 700 L199 700 C192 700 187 696 186 689 L91 11 Z " />
<glyph glyph-name="ecaron" unicode="&#x11b;" horiz-adv-x="465" d="M345 571 C351 571 355 575 359 582 L438 706 C438 711 436 714 431 714 L393 714 C390 714 386 710 384 706 L322 611 L288 706 C286 710 284 714 281 714 L243 714 C238 714 234 711 234 706 L277 582 C279 575 283 571 289 571 L345 571 Z M338 73 C319 60 302 49 266 49 L224 49 C177 49 147 94 153 141 L166 229 L416 229 C423 229 427 233 428 240 L448 384 C458 450 426 520 345 520 L271 520 C190 520 138 450 128 384 L93 131 C84 65 116 -5 197 -5 L259 -5 C259 -5 320 -6 373 39 C375 42 377 43 377 45 C377 48 376 49 374 52 L355 76 C353 79 351 79 350 79 C346 79 340 74 338 73 L338 73 Z M186 374 C193 424 224 466 282 466 L318 466 C376 466 395 424 388 374 L375 283 L173 283 L186 374 Z " />
<glyph glyph-name="Gcircumflex" unicode="&#x11c;" horiz-adv-x="553" d="M373 894 C367 894 363 890 359 883 L280 759 C279 754 282 751 287 751 L325 751 C328 751 332 755 334 759 L396 854 L430 759 C432 755 434 751 437 751 L475 751 C480 751 483 754 484 759 L441 883 C439 890 435 894 429 894 L373 894 Z M339 370 C332 370 327 366 326 359 L321 327 C320 320 324 316 331 316 L458 316 L436 160 C427 93 389 49 321 49 L244 49 C176 49 152 93 161 160 L215 541 C224 608 261 651 329 651 L406 651 C474 651 499 608 490 541 L484 504 C483 497 487 493 494 493 L531 493 C538 493 542 497 543 504 L551 556 C562 638 512 705 427 705 L324 705 C239 705 169 638 158 556 L100 144 C88 62 139 -5 224 -5 L327 -5 C412 -5 481 62 493 144 L523 359 C524 366 521 370 514 370 L339 370 Z " />
<glyph glyph-name="gcircumflex" unicode="&#x11d;" horiz-adv-x="495" d="M303 714 C297 714 292 710 288 703 L210 579 C209 574 212 571 217 571 L255 571 C258 571 261 575 264 579 L325 674 L360 579 C361 575 364 571 367 571 L405 571 C410 571 413 574 414 579 L370 703 C368 710 365 714 359 714 L303 714 Z M218 49 C160 49 141 91 148 141 L181 374 C188 424 219 466 277 466 L313 466 C371 466 402 417 395 367 L364 148 C357 98 312 49 254 49 L218 49 Z M341 -33 C334 -80 321 -149 212 -149 C158 -149 144 -145 115 -140 C112 -140 108 -140 106 -147 L95 -181 C94 -186 96 -188 101 -190 C131 -198 141 -203 200 -203 C376 -203 393 -80 399 -40 L475 504 C476 511 473 515 466 515 L429 515 C422 515 417 511 416 504 L413 477 L406 477 C386 510 361 520 333 520 L274 520 C193 520 134 461 123 382 L88 133 C77 54 119 -5 200 -5 L259 -5 C287 -5 315 5 344 38 L351 38 L341 -33 Z " />
<glyph glyph-name="Gbreve" unicode="&#x11e;" horiz-adv-x="553" d="M339 370 C332 370 327 366 326 359 L321 327 C320 320 324 316 331 316 L458 316 L436 160 C427 93 389 49 321 49 L244 49 C176 49 152 93 161 160 L215 541 C224 608 261 651 329 651 L406 651 C474 651 499 608 490 541 L484 504 C483 497 487 493 494 493 L531 493 C538 493 542 497 543 504 L551 556 C562 638 512 705 427 705 L324 705 C239 705 169 638 158 556 L100 144 C88 62 139 -5 224 -5 L327 -5 C412 -5 481 62 493 144 L523 359 C524 366 521 370 514 370 L339 370 Z M375 751 C451 751 482 794 509 858 C510 863 506 867 501 867 L459 867 C454 867 451 863 448 858 C429 822 416 799 382 799 C348 799 341 822 332 858 C331 863 328 867 323 867 L281 867 C276 867 272 863 271 858 C280 794 299 751 375 751 L375 751 Z " />
<glyph glyph-name="gbreve" unicode="&#x11f;" horiz-adv-x="495" d="M218 49 C160 49 141 91 148 141 L181 374 C188 424 219 466 277 466 L313 466 C371 466 402 417 395 367 L364 148 C357 98 312 49 254 49 L218 49 Z M341 -33 C334 -80 321 -149 212 -149 C158 -149 144 -145 115 -140 C112 -140 108 -140 106 -147 L95 -181 C94 -186 96 -188 101 -190 C131 -198 141 -203 200 -203 C376 -203 393 -80 399 -40 L475 504 C476 511 473 515 466 515 L429 515 C422 515 417 511 416 504 L413 477 L406 477 C386 510 361 520 333 520 L274 520 C193 520 134 461 123 382 L88 133 C77 54 119 -5 200 -5 L259 -5 C287 -5 315 5 344 38 L351 38 L341 -33 Z M313 571 C389 571 420 614 447 678 C447 683 444 687 439 687 L397 687 C392 687 388 683 386 678 C367 642 353 619 319 619 C285 619 279 642 270 678 C268 683 266 687 261 687 L219 687 C214 687 209 683 209 678 C218 614 237 571 313 571 L313 571 Z " />
<glyph glyph-name="Gdotaccent" unicode="&#x120;" horiz-adv-x="553" d="M349 762 C348 755 351 751 358 751 L404 751 C411 751 416 755 417 762 L423 811 C424 818 421 822 414 822 L368 822 C361 822 356 818 355 811 L349 762 Z M339 370 C332 370 327 366 326 359 L321 327 C320 320 324 316 331 316 L458 316 L436 160 C427 93 389 49 321 49 L244 49 C176 49 152 93 161 160 L215 541 C224 608 261 651 329 651 L406 651 C474 651 499 608 490 541 L484 504 C483 497 487 493 494 493 L531 493 C538 493 542 497 543 504 L551 556 C562 638 512 705 427 705 L324 705 C239 705 169 638 158 556 L100 144 C88 62 139 -5 224 -5 L327 -5 C412 -5 481 62 493 144 L523 359 C524 366 521 370 514 370 L339 370 Z " />
<glyph glyph-name="gdotaccent" unicode="&#x121;" horiz-adv-x="495" d="M283 582 C282 575 286 571 293 571 L339 571 C346 571 350 575 351 582 L358 631 C359 638 356 642 349 642 L303 642 C296 642 291 638 290 631 L283 582 Z M218 49 C160 49 141 91 148 141 L181 374 C188 424 219 466 277 466 L313 466 C371 466 402 417 395 367 L364 148 C357 98 312 49 254 49 L218 49 Z M341 -33 C334 -80 321 -149 212 -149 C158 -149 144 -145 115 -140 C112 -140 108 -140 106 -147 L95 -181 C94 -186 96 -188 101 -190 C131 -198 141 -203 200 -203 C376 -203 393 -80 399 -40 L475 504 C476 511 473 515 466 515 L429 515 C422 515 417 511 416 504 L413 477 L406 477 C386 510 361 520 333 520 L274 520 C193 520 134 461 123 382 L88 133 C77 54 119 -5 200 -5 L259 -5 C287 -5 315 5 344 38 L351 38 L341 -33 Z " />
<glyph glyph-name="uni0122" unicode="&#x122;" horiz-adv-x="553" d="M231 -179 C238 -179 242 -175 247 -167 L307 -65 C308 -57 305 -53 298 -53 L261 -53 C254 -53 250 -57 245 -65 L185 -167 C184 -175 187 -179 195 -179 L231 -179 Z M339 370 C332 370 327 366 326 359 L321 327 C320 320 324 316 331 316 L458 316 L436 160 C427 93 389 49 321 49 L244 49 C176 49 152 93 161 160 L215 541 C224 608 261 651 329 651 L406 651 C474 651 499 608 490 541 L484 504 C483 497 487 493 494 493 L531 493 C538 493 542 497 543 504 L551 556 C562 638 512 705 427 705 L324 705 C239 705 169 638 158 556 L100 144 C88 62 139 -5 224 -5 L327 -5 C412 -5 481 62 493 144 L523 359 C524 366 521 370 514 370 L339 370 Z " />
<glyph glyph-name="uni0123" unicode="&#x123;" horiz-adv-x="495" d="M337 571 C344 571 347 575 352 583 L413 685 C414 693 410 697 403 697 L366 697 C359 697 356 693 351 685 L290 583 C289 575 293 571 301 571 L337 571 Z M218 49 C160 49 141 91 148 141 L181 374 C188 424 219 466 277 466 L313 466 C371 466 402 417 395 367 L364 148 C357 98 312 49 254 49 L218 49 Z M341 -33 C334 -80 321 -149 212 -149 C158 -149 144 -145 115 -140 C112 -140 108 -140 106 -147 L95 -181 C94 -186 96 -188 101 -190 C131 -198 141 -203 200 -203 C376 -203 393 -80 399 -40 L475 504 C476 511 473 515 466 515 L429 515 C422 515 417 511 416 504 L413 477 L406 477 C386 510 361 520 333 520 L274 520 C193 520 134 461 123 382 L88 133 C77 54 119 -5 200 -5 L259 -5 C287 -5 315 5 344 38 L351 38 L341 -33 Z " />
<glyph glyph-name="Hcircumflex" unicode="&#x124;" horiz-adv-x="566" d="M380 894 C374 894 370 890 366 883 L287 759 C286 754 289 751 294 751 L332 751 C335 751 339 755 341 759 L403 854 L437 759 C439 755 441 751 444 751 L482 751 C487 751 490 754 491 759 L448 883 C446 890 442 894 436 894 L380 894 Z M418 11 C417 4 421 0 428 0 L465 0 C472 0 476 4 477 11 L572 689 C573 696 570 700 563 700 L526 700 C519 700 514 696 513 689 L468 363 L200 363 L245 689 C246 696 243 700 236 700 L199 700 C192 700 187 696 186 689 L91 11 C90 4 94 0 101 0 L138 0 C145 0 149 4 150 11 L192 309 L460 309 L418 11 Z " />
<glyph glyph-name="hcircumflex" unicode="&#x125;" horiz-adv-x="501" d="M292 894 C286 894 282 890 278 883 L199 759 C198 754 201 751 206 751 L244 751 C247 751 251 755 253 759 L315 854 L349 759 C351 755 353 751 356 751 L394 751 C399 751 402 754 403 759 L360 883 C358 890 354 894 348 894 L292 894 Z M91 11 C90 4 94 0 101 0 L138 0 C145 0 149 4 150 11 L200 366 C263 465 314 466 349 466 L357 466 C408 466 421 424 412 356 L363 11 C362 4 366 0 373 0 L410 0 C417 0 421 4 422 11 L472 368 C485 458 459 520 366 520 L338 520 C318 520 262 519 219 455 L212 455 L245 689 C246 696 243 700 236 700 L199 700 C192 700 187 696 186 689 L91 11 Z " />
<glyph glyph-name="Hbar" unicode="&#x126;" horiz-adv-x="566" d="M593 490 C600 490 605 494 606 501 L610 533 C611 540 608 544 601 544 L552 544 L572 689 C573 696 570 700 563 700 L526 700 C519 700 514 696 513 689 L493 544 L225 544 L245 689 C246 696 243 700 236 700 L199 700 C192 700 187 696 186 689 L166 544 L117 544 C110 544 105 540 104 533 L100 501 C99 494 102 490 109 490 L158 490 L91 11 C90 4 94 0 101 0 L138 0 C145 0 149 4 150 11 L192 309 L460 309 L418 11 C417 4 421 0 428 0 L465 0 C472 0 476 4 477 11 L544 490 L593 490 Z M200 363 L217 490 L485 490 L468 363 L200 363 Z " />
<glyph glyph-name="hbar" unicode="&#x127;" horiz-adv-x="532" d="M320 577 C327 577 331 581 332 588 L337 620 C338 627 334 631 327 631 L235 631 L243 689 C244 696 241 700 234 700 L197 700 C190 700 185 696 184 689 L176 631 L129 631 C122 631 118 627 117 620 L112 588 C111 581 115 577 122 577 L169 577 L89 11 C88 4 92 0 99 0 L136 0 C143 0 147 4 148 11 L198 366 C261 465 320 466 355 466 L363 466 C414 466 452 424 443 356 L394 11 C393 4 397 0 404 0 L441 0 C448 0 452 4 453 11 L503 368 C516 458 465 520 372 520 L344 520 C324 520 260 519 217 455 L210 455 L228 577 L320 577 Z " />
<glyph glyph-name="Itilde" unicode="&#x128;" horiz-adv-x="239" d="M275 751 C285 751 302 757 319 764 C323 766 326 770 326 774 L322 805 C321 809 318 811 314 811 C303 811 294 805 279 805 C235 805 243 835 187 835 C177 835 160 829 143 822 C139 820 136 816 136 812 L140 781 C141 777 143 775 147 775 C158 775 168 781 183 781 C226 781 219 751 275 751 L275 751 Z M245 689 C246 692 245 695 243 697 C242 699 240 700 236 700 L199 700 C195 700 193 699 190 697 C188 695 187 692 186 689 L91 11 C91 8 91 5 93 3 C95 1 97 0 101 0 L138 0 C142 0 144 1 146 3 C148 5 150 8 150 11 L245 689 Z " />
<glyph glyph-name="itilde" unicode="&#x129;" horiz-adv-x="239" d="M91 11 C90 4 94 0 101 0 L138 0 C145 0 149 4 150 11 L219 504 C220 511 217 515 210 515 L173 515 C166 515 161 511 160 504 L91 11 Z M251 571 C261 571 278 577 295 584 C299 586 301 590 302 594 L297 625 C297 629 294 631 290 631 C279 631 269 625 254 625 C210 625 219 655 163 655 C153 655 136 649 119 642 C114 640 112 636 111 632 L116 601 C116 597 119 595 123 595 C134 595 144 601 159 601 C202 601 195 571 251 571 L251 571 Z " />
<glyph glyph-name="Imacron" unicode="&#x12a;" horiz-adv-x="239" d="M311 751 C318 751 323 755 324 762 L328 794 C329 801 326 805 319 805 L145 805 C138 805 133 801 132 794 L128 762 C127 755 130 751 137 751 L311 751 Z M245 689 C246 692 245 695 243 697 C242 699 240 700 236 700 L199 700 C195 700 193 699 190 697 C188 695 187 692 186 689 L91 11 C91 8 91 5 93 3 C95 1 97 0 101 0 L138 0 C142 0 144 1 146 3 C148 5 150 8 150 11 L245 689 Z " />
<glyph glyph-name="imacron" unicode="&#x12b;" horiz-adv-x="239" d="M91 11 C90 4 94 0 101 0 L138 0 C145 0 149 4 150 11 L219 504 C220 511 217 515 210 515 L173 515 C166 515 161 511 160 504 L91 11 Z M270 571 C277 571 281 575 282 582 L287 614 C288 621 284 625 277 625 L135 625 C128 625 124 621 123 614 L118 582 C117 575 121 571 128 571 L270 571 Z " />
<glyph glyph-name="Iogonek" unicode="&#x12e;" horiz-adv-x="239" d="M245 689 C246 696 243 700 236 700 L199 700 C192 700 187 696 186 689 L94 34 C59 30 33 0 28 -31 C21 -83 49 -93 95 -93 L143 -93 C147 -93 151 -90 151 -86 L154 -66 C155 -61 152 -59 148 -59 L94 -59 C94 -59 59 -59 63 -32 C68 1 102 0 102 0 L138 0 C145 0 149 4 150 11 L245 689 Z " />
<glyph glyph-name="iogonek" unicode="&#x12f;" horiz-adv-x="239" d="M169 589 C168 582 172 578 179 578 L222 578 C229 578 233 582 234 589 L244 657 C245 664 241 668 234 668 L191 668 C184 668 180 664 179 657 L169 589 Z M94 34 C59 30 33 0 28 -31 C21 -83 49 -93 95 -93 L143 -93 C147 -93 151 -90 151 -86 L154 -66 C155 -61 152 -59 148 -59 L94 -59 C94 -59 59 -59 63 -32 C68 1 102 0 102 0 L138 0 C145 0 149 4 150 11 L219 504 C220 511 217 515 210 515 L173 515 C166 515 161 511 160 504 L94 34 Z " />
<glyph glyph-name="Idotaccent" unicode="&#x130;" horiz-adv-x="239" d="M91 11 C90 4 94 0 101 0 L138 0 C145 0 149 4 150 11 L227 560 C228 567 225 571 218 571 L181 571 C174 571 169 567 168 560 L91 11 Z M177 645 C176 638 180 634 187 634 L230 634 C237 634 241 638 242 645 L252 713 C253 720 249 724 242 724 L199 724 C192 724 188 720 187 713 L177 645 Z " />
<glyph glyph-name="dotlessi" unicode="&#x131;" horiz-adv-x="239" d="M91 11 C90 4 94 0 101 0 L138 0 C145 0 149 4 150 11 L219 504 C220 511 217 515 210 515 L173 515 C166 515 161 511 160 504 L91 11 Z " />
<glyph glyph-name="Jcircumflex" unicode="&#x134;" horiz-adv-x="386" d="M311 894 C305 894 301 890 297 883 L218 759 C217 754 220 751 225 751 L263 751 C266 751 270 755 272 759 L334 854 L368 759 C370 755 372 751 375 751 L413 751 C418 751 421 754 422 759 L379 883 C377 890 373 894 367 894 L311 894 Z M27 36 C53 17 82 -5 149 -5 C265 -5 326 72 337 154 L412 689 C413 696 410 700 403 700 L366 700 C359 700 354 696 353 689 L280 164 C277 149 263 49 150 49 C122 49 104 55 72 76 C68 78 68 79 65 79 C63 79 59 78 57 76 L30 50 C27 48 26 45 25 42 C25 39 25 38 27 36 L27 36 Z " />
<glyph glyph-name="jcircumflex" unicode="&#x135;" horiz-adv-x="239" d="M-19 -124 C-23 -126 -25 -129 -26 -136 L-15 -176 C-14 -180 -10 -182 -7 -182 C-6 -182 -4 -182 -2 -181 C45 -161 133 -107 148 -2 L219 504 C220 511 217 515 210 515 L173 515 C166 515 161 511 160 504 L90 3 C90 3 75 -76 -19 -124 L-19 -124 Z M190 711 C184 711 180 707 176 700 L97 576 C97 571 99 568 104 568 L142 568 C145 568 149 572 151 576 L213 671 L247 576 C249 572 251 568 254 568 L292 568 C297 568 301 571 301 576 L258 700 C256 707 252 711 246 711 L190 711 Z " />
<glyph glyph-name="uni0136" unicode="&#x136;" horiz-adv-x="517" d="M224 -179 C231 -179 235 -175 240 -167 L300 -65 C301 -57 298 -53 291 -53 L254 -53 C247 -53 243 -57 238 -65 L178 -167 C177 -175 180 -179 188 -179 L224 -179 Z M404 8 C405 4 407 0 413 0 L458 0 C463 0 466 3 467 8 L410 348 L563 692 C563 697 561 700 556 700 L513 700 C507 700 504 696 502 692 L362 376 L201 376 L245 689 C246 696 243 700 236 700 L199 700 C192 700 187 696 186 689 L91 11 C90 4 94 0 101 0 L138 0 C145 0 149 4 150 11 L194 322 L350 322 L404 8 Z " />
<glyph glyph-name="uni0137" unicode="&#x137;" horiz-adv-x="459" d="M186 -179 C193 -179 197 -175 202 -167 L262 -65 C263 -57 260 -53 253 -53 L216 -53 C209 -53 205 -57 200 -65 L140 -167 C139 -175 142 -179 150 -179 L186 -179 Z M359 8 C360 4 364 0 369 0 L411 0 C416 0 419 3 420 8 L383 274 L488 507 C488 512 486 515 481 515 L440 515 C435 515 430 511 428 507 L333 300 L191 300 L245 689 C246 696 243 700 236 700 L199 700 C192 700 187 696 186 689 L91 11 C90 4 94 0 101 0 L138 0 C145 0 149 4 150 11 L183 246 L324 246 L359 8 Z " />
<glyph glyph-name="kgreenlandic" unicode="&#x138;" horiz-adv-x="459" d="M359 8 C360 4 364 0 369 0 L411 0 C416 0 419 3 420 8 L383 274 L488 507 C488 512 486 515 481 515 L440 515 C435 515 430 511 428 507 L333 300 L191 300 L219 504 C220 511 217 515 210 515 L173 515 C166 515 161 511 160 504 L91 11 C90 4 94 0 101 0 L138 0 C145 0 149 4 150 11 L183 246 L324 246 L359 8 Z " />
<glyph glyph-name="Lacute" unicode="&#x139;" horiz-adv-x="453" d="M249 751 C256 751 260 755 265 763 L325 865 C326 873 323 877 316 877 L279 877 C272 877 268 873 263 865 L203 763 C202 755 205 751 213 751 L249 751 Z M91 11 C90 4 94 0 101 0 L392 0 C399 0 403 4 404 11 L409 43 C410 50 406 54 399 54 L156 54 L245 689 C246 696 243 700 236 700 L199 700 C192 700 187 696 186 689 L91 11 Z " />
<glyph glyph-name="lacute" unicode="&#x13a;" horiz-adv-x="239" d="M248 751 C255 751 259 755 264 763 L324 865 C325 873 322 877 315 877 L278 877 C271 877 267 873 262 865 L202 763 C201 755 204 751 212 751 L248 751 Z M245 689 C246 692 245 695 243 697 C242 699 240 700 236 700 L199 700 C195 700 193 699 190 697 C188 695 187 692 186 689 L91 11 C91 8 91 5 93 3 C95 1 97 0 101 0 L138 0 C142 0 144 1 146 3 C148 5 150 8 150 11 L245 689 Z " />
<glyph glyph-name="uni013B" unicode="&#x13b;" horiz-adv-x="453" d="M187 -179 C194 -179 198 -175 203 -167 L263 -65 C264 -57 261 -53 254 -53 L217 -53 C210 -53 206 -57 201 -65 L141 -167 C140 -175 143 -179 151 -179 L187 -179 Z M91 11 C90 4 94 0 101 0 L392 0 C399 0 403 4 404 11 L409 43 C410 50 406 54 399 54 L156 54 L245 689 C246 696 243 700 236 700 L199 700 C192 700 187 696 186 689 L91 11 Z " />
<glyph glyph-name="uni013C" unicode="&#x13c;" horiz-adv-x="239" d="M64 -179 C71 -179 75 -175 80 -167 L140 -65 C141 -57 138 -53 131 -53 L94 -53 C87 -53 83 -57 78 -65 L18 -167 C17 -175 20 -179 28 -179 L64 -179 Z M245 689 C246 692 245 695 243 697 C242 699 240 700 236 700 L199 700 C195 700 193 699 190 697 C188 695 187 692 186 689 L91 11 C91 8 91 5 93 3 C95 1 97 0 101 0 L138 0 C142 0 144 1 146 3 C148 5 150 8 150 11 L245 689 Z " />
<glyph glyph-name="Lcaron" unicode="&#x13d;" horiz-adv-x="487" d="M458 583 C465 583 469 587 474 595 L533 688 C534 696 531 700 524 700 L493 700 C486 700 482 696 477 688 L418 595 C417 587 420 583 428 583 L458 583 Z M91 11 C90 4 94 0 101 0 L392 0 C399 0 403 4 404 11 L409 43 C410 50 406 54 399 54 L156 54 L245 689 C246 696 243 700 236 700 L199 700 C192 700 187 696 186 689 L91 11 Z " />
<glyph glyph-name="lcaron" unicode="&#x13e;" horiz-adv-x="461" d="M91 11 C90 4 94 0 101 0 L138 0 C145 0 149 4 150 11 L245 689 C246 696 243 700 236 700 L199 700 C192 700 187 696 186 689 L91 11 Z M451 574 C458 574 462 578 467 586 L527 688 C528 696 525 700 518 700 L481 700 C474 700 470 696 465 688 L405 586 C404 578 407 574 415 574 L451 574 Z " />
<glyph glyph-name="Lslash" unicode="&#x141;" horiz-adv-x="459" d="M88 354 C83 352 79 349 78 343 L73 307 C72 302 75 298 80 298 L160 319 L117 11 C116 4 120 0 127 0 L418 0 C425 0 429 4 430 11 L435 43 C436 50 432 54 425 54 L182 54 L222 335 L302 356 C307 358 311 361 312 367 L317 403 C318 408 314 412 309 412 L229 391 L271 689 C272 696 269 700 262 700 L225 700 C218 700 213 696 212 689 L168 375 L88 354 Z " />
<glyph glyph-name="lslash" unicode="&#x142;" horiz-adv-x="291" d="M88 353 C83 351 78 348 78 342 L73 306 C72 301 75 297 80 297 L160 319 L117 11 C116 4 120 0 127 0 L164 0 C171 0 175 4 176 11 L222 335 L302 356 C307 358 311 361 312 367 L317 403 C318 408 314 412 309 412 L229 391 L271 689 C272 696 269 700 262 700 L225 700 C218 700 213 696 212 689 L168 375 L88 353 Z " />
<glyph glyph-name="Nacute" unicode="&#x143;" horiz-adv-x="605" d="M436 751 C443 751 447 755 452 763 L512 865 C513 873 510 877 503 877 L466 877 C459 877 455 873 450 865 L390 763 C389 755 392 751 400 751 L436 751 Z M462 101 L277 689 C275 695 271 700 264 700 L199 700 C192 700 187 696 186 689 L91 11 C90 4 94 0 101 0 L138 0 C145 0 149 4 150 11 L233 598 L241 598 L426 11 C428 5 433 0 440 0 L504 0 C511 0 515 4 516 11 L611 689 C612 696 609 700 602 700 L565 700 C558 700 553 696 552 689 L470 101 L462 101 Z " />
<glyph glyph-name="nacute" unicode="&#x144;" horiz-adv-x="501" d="M372 571 C379 571 382 575 387 583 L448 685 C449 693 445 697 438 697 L401 697 C394 697 391 693 386 685 L325 583 C324 575 328 571 336 571 L372 571 Z M91 11 C90 4 94 0 101 0 L138 0 C145 0 149 4 150 11 L200 366 C263 465 314 466 349 466 L357 466 C408 466 421 424 412 356 L363 11 C362 4 366 0 373 0 L410 0 C417 0 421 4 422 11 L472 368 C485 458 459 520 366 520 L338 520 C318 520 262 519 219 455 L212 455 L219 504 C220 511 217 515 210 515 L173 515 C166 515 161 511 160 504 L91 11 Z " />
<glyph glyph-name="uni0145" unicode="&#x145;" horiz-adv-x="605" d="M254 -179 C261 -179 265 -175 270 -167 L330 -65 C331 -57 328 -53 321 -53 L284 -53 C277 -53 273 -57 268 -65 L208 -167 C207 -175 210 -179 218 -179 L254 -179 Z M462 101 L277 689 C275 695 271 700 264 700 L199 700 C192 700 187 696 186 689 L91 11 C90 4 94 0 101 0 L138 0 C145 0 149 4 150 11 L233 598 L241 598 L426 11 C428 5 433 0 440 0 L504 0 C511 0 515 4 516 11 L611 689 C612 696 609 700 602 700 L565 700 C558 700 553 696 552 689 L470 101 L462 101 Z " />
<glyph glyph-name="uni0146" unicode="&#x146;" horiz-adv-x="501" d="M205 -179 C212 -179 216 -175 221 -167 L281 -65 C282 -57 279 -53 272 -53 L235 -53 C228 -53 224 -57 219 -65 L159 -167 C158 -175 161 -179 169 -179 L205 -179 Z M91 11 C90 4 94 0 101 0 L138 0 C145 0 149 4 150 11 L200 366 C263 465 314 466 349 466 L357 466 C408 466 421 424 412 356 L363 11 C362 4 366 0 373 0 L410 0 C417 0 421 4 422 11 L472 368 C485 458 459 520 366 520 L338 520 C318 520 262 519 219 455 L212 455 L219 504 C220 511 217 515 210 515 L173 515 C166 515 161 511 160 504 L91 11 Z " />
<glyph glyph-name="Ncaron" unicode="&#x147;" horiz-adv-x="605" d="M436 751 C442 751 447 755 451 762 L529 886 C530 891 527 894 522 894 L484 894 C481 894 478 890 475 886 L414 791 L379 886 C378 890 375 894 372 894 L334 894 C329 894 326 891 325 886 L369 762 C371 755 374 751 380 751 L436 751 Z M462 101 L277 689 C275 695 271 700 264 700 L199 700 C192 700 187 696 186 689 L91 11 C90 4 94 0 101 0 L138 0 C145 0 149 4 150 11 L233 598 L241 598 L426 11 C428 5 433 0 440 0 L504 0 C511 0 515 4 516 11 L611 689 C612 696 609 700 602 700 L565 700 C558 700 553 696 552 689 L470 101 L462 101 Z " />
<glyph glyph-name="ncaron" unicode="&#x148;" horiz-adv-x="501" d="M371 571 C377 571 381 575 385 582 L464 706 C464 711 462 714 457 714 L419 714 C416 714 412 710 410 706 L348 611 L314 706 C312 710 310 714 307 714 L269 714 C264 714 260 711 260 706 L303 582 C305 575 309 571 315 571 L371 571 Z M91 11 C90 4 94 0 101 0 L138 0 C145 0 149 4 150 11 L200 366 C263 465 314 466 349 466 L357 466 C408 466 421 424 412 356 L363 11 C362 4 366 0 373 0 L410 0 C417 0 421 4 422 11 L472 368 C485 458 459 520 366 520 L338 520 C318 520 262 519 219 455 L212 455 L219 504 C220 511 217 515 210 515 L173 515 C166 515 161 511 160 504 L91 11 Z " />
<glyph glyph-name="Eng" unicode="&#x14a;" horiz-adv-x="605" d="M346 -124 C342 -126 340 -129 339 -136 L350 -176 C351 -180 355 -182 358 -182 C359 -182 361 -182 363 -181 C411 -161 499 -107 514 -2 L611 689 C612 696 609 700 602 700 L565 700 C558 700 553 696 552 689 L470 101 L462 101 L277 689 C275 695 271 700 264 700 L199 700 C192 700 187 696 186 689 L91 11 C90 4 94 0 101 0 L138 0 C145 0 149 4 150 11 L233 598 L241 598 L440 -36 C426 -62 398 -98 346 -124 L346 -124 Z " />
<glyph glyph-name="eng" unicode="&#x14b;" horiz-adv-x="501" d="M252 -124 C248 -126 246 -129 245 -136 L256 -176 C257 -180 261 -182 264 -182 C265 -182 267 -182 269 -181 C317 -161 405 -107 420 -2 L472 368 C485 458 459 520 366 520 L338 520 C318 520 262 519 219 455 L212 455 L219 504 C220 511 217 515 210 515 L173 515 C166 515 161 511 160 504 L91 11 C90 4 94 0 101 0 L138 0 C145 0 149 4 150 11 L200 366 C263 465 314 466 349 466 L357 466 C408 466 421 424 412 356 L362 3 C362 3 347 -76 252 -124 L252 -124 Z " />
<glyph glyph-name="Omacron" unicode="&#x14c;" horiz-adv-x="553" d="M484 751 C491 751 496 755 497 762 L501 794 C502 801 499 805 492 805 L286 805 C279 805 274 801 273 794 L269 762 C268 755 271 751 278 751 L484 751 Z M427 705 L324 705 C239 705 169 638 158 556 L100 144 C88 62 139 -5 224 -5 L327 -5 C412 -5 481 62 493 144 L551 556 C562 638 512 705 427 705 L427 705 Z M436 160 C427 93 389 49 321 49 L244 49 C176 49 152 93 161 160 L215 541 C224 608 261 651 329 651 L406 651 C474 651 499 608 490 541 L436 160 Z " />
<glyph glyph-name="omacron" unicode="&#x14d;" horiz-adv-x="470" d="M418 571 C425 571 429 575 430 582 L435 614 C436 621 432 625 425 625 L219 625 C212 625 208 621 207 614 L202 582 C201 575 205 571 212 571 L418 571 Z M271 520 C190 520 138 450 128 384 L93 131 C84 65 116 -5 197 -5 L271 -5 C352 -5 404 65 413 131 L448 384 C458 450 426 520 345 520 L271 520 Z M223 49 C165 49 146 91 153 141 L186 374 C193 424 224 466 282 466 L318 466 C376 466 395 424 388 374 L355 141 C348 91 317 49 259 49 L223 49 Z " />
<glyph glyph-name="Ohungarumlaut" unicode="&#x150;" horiz-adv-x="553" d="M336 751 C343 751 347 755 352 763 L410 856 C411 864 407 868 400 868 L369 868 C362 868 359 864 354 856 L296 763 C295 755 298 751 306 751 L336 751 Z M467 751 C474 751 478 755 483 763 L541 856 C542 864 538 868 531 868 L500 868 C493 868 490 864 485 856 L427 763 C426 755 429 751 437 751 L467 751 Z M427 705 L324 705 C239 705 169 638 158 556 L100 144 C88 62 139 -5 224 -5 L327 -5 C412 -5 481 62 493 144 L551 556 C562 638 512 705 427 705 L427 705 Z M436 160 C427 93 389 49 321 49 L244 49 C176 49 152 93 161 160 L215 541 C224 608 261 651 329 651 L406 651 C474 651 499 608 490 541 L436 160 Z " />
<glyph glyph-name="ohungarumlaut" unicode="&#x151;" horiz-adv-x="470" d="M277 571 C284 571 287 575 292 583 L351 676 C352 684 348 688 341 688 L310 688 C303 688 300 684 295 676 L236 583 C235 575 239 571 247 571 L277 571 Z M408 571 C415 571 418 575 423 583 L482 676 C483 684 479 688 472 688 L441 688 C434 688 431 684 426 676 L367 583 C366 575 370 571 378 571 L408 571 Z M271 520 C190 520 138 450 128 384 L93 131 C84 65 116 -5 197 -5 L271 -5 C352 -5 404 65 413 131 L448 384 C458 450 426 520 345 520 L271 520 Z M223 49 C165 49 146 91 153 141 L186 374 C193 424 224 466 282 466 L318 466 C376 466 395 424 388 374 L355 141 C348 91 317 49 259 49 L223 49 Z " />
<glyph glyph-name="OE" unicode="&#x152;" horiz-adv-x="807" d="M235 0 L716 0 C723 0 727 4 728 11 L733 43 C734 50 730 54 723 54 L480 54 L516 310 L733 310 C740 310 745 314 746 321 L750 353 C751 360 748 364 741 364 L524 364 L563 646 L806 646 C813 646 818 650 819 657 L823 689 C824 696 821 700 814 700 L333 700 C248 700 168 633 157 551 L100 149 C89 67 150 0 235 0 L235 0 Z M428 646 C474 646 500 619 494 575 L431 125 C425 81 391 54 345 54 L255 54 C187 54 152 98 162 165 L214 536 C223 603 270 646 338 646 L428 646 Z " />
<glyph glyph-name="oe" unicode="&#x153;" horiz-adv-x="726" d="M599 73 C580 60 563 49 527 49 L485 49 C439 49 407 92 414 137 L427 229 L677 229 C684 229 688 233 689 240 L709 384 C719 450 687 520 606 520 L532 520 C490 520 456 502 431 475 C415 502 386 520 345 520 L271 520 C190 520 138 450 128 384 L93 131 C84 65 116 -5 197 -5 L271 -5 C312 -5 346 13 370 40 C387 13 416 -5 458 -5 L520 -5 C520 -5 581 -6 634 39 C636 42 638 43 638 45 C638 48 637 49 635 52 L616 76 C614 79 612 79 611 79 C607 79 601 74 599 73 L599 73 Z M223 49 C165 49 146 91 153 141 L186 374 C193 424 224 466 282 466 L318 466 C376 466 395 424 388 374 L354 133 C345 87 314 49 259 49 L223 49 Z M543 466 L579 466 C637 466 656 424 649 374 L636 283 L434 283 L448 381 C455 428 488 466 543 466 L543 466 Z " />
<glyph glyph-name="Racute" unicode="&#x154;" horiz-adv-x="535" d="M378 751 C385 751 389 755 394 763 L454 865 C455 873 452 877 445 877 L408 877 C401 877 397 873 392 865 L332 763 C331 755 334 751 342 751 L378 751 Z M528 380 L552 551 C563 633 502 700 416 700 L199 700 C192 700 187 696 186 689 L91 11 C90 4 94 0 101 0 L138 0 C145 0 149 4 150 11 L181 230 L326 230 L396 11 C398 4 401 0 408 0 L449 0 C456 0 460 4 461 11 L388 235 C458 251 518 310 528 380 L528 380 Z M471 394 C462 331 404 284 348 284 L188 284 L239 646 L399 646 C455 646 499 594 491 535 L471 394 Z " />
<glyph glyph-name="racute" unicode="&#x155;" horiz-adv-x="347" d="M220 571 C227 571 230 575 235 583 L296 685 C297 693 293 697 286 697 L249 697 C242 697 239 693 234 685 L173 583 C172 575 176 571 184 571 L220 571 Z M368 517 C353 519 350 520 322 520 C299 520 250 513 218 448 L211 448 L219 504 C220 511 217 515 210 515 L173 515 C166 515 161 511 160 504 L91 11 C90 4 94 0 101 0 L138 0 C145 0 149 4 150 11 L198 355 C257 456 293 466 318 466 C335 466 348 464 359 463 C366 463 370 467 371 474 L378 506 C379 513 375 516 368 517 L368 517 Z " />
<glyph glyph-name="uni0156" unicode="&#x156;" horiz-adv-x="535" d="M217 -179 C224 -179 228 -175 233 -167 L293 -65 C294 -57 291 -53 284 -53 L247 -53 C240 -53 236 -57 231 -65 L171 -167 C170 -175 173 -179 181 -179 L217 -179 Z M528 380 L552 551 C563 633 502 700 416 700 L199 700 C192 700 187 696 186 689 L91 11 C90 4 94 0 101 0 L138 0 C145 0 149 4 150 11 L181 230 L326 230 L396 11 C398 4 401 0 408 0 L449 0 C456 0 460 4 461 11 L388 235 C458 251 518 310 528 380 L528 380 Z M471 394 C462 331 404 284 348 284 L188 284 L239 646 L399 646 C455 646 499 594 491 535 L471 394 Z " />
<glyph glyph-name="uni0157" unicode="&#x157;" horiz-adv-x="347" d="M113 -179 C120 -179 124 -175 129 -167 L189 -65 C190 -57 187 -53 180 -53 L143 -53 C136 -53 132 -57 127 -65 L67 -167 C66 -175 69 -179 77 -179 L113 -179 Z M368 517 C353 519 350 520 322 520 C299 520 250 513 218 448 L211 448 L219 504 C220 511 217 515 210 515 L173 515 C166 515 161 511 160 504 L91 11 C90 4 94 0 101 0 L138 0 C145 0 149 4 150 11 L198 355 C257 456 293 466 318 466 C335 466 348 464 359 463 C366 463 370 467 371 474 L378 506 C379 513 375 516 368 517 L368 517 Z " />
<glyph glyph-name="Rcaron" unicode="&#x158;" horiz-adv-x="535" d="M372 751 C378 751 383 755 387 762 L465 886 C466 891 463 894 458 894 L420 894 C417 894 414 890 411 886 L350 791 L315 886 C314 890 311 894 308 894 L270 894 C265 894 262 891 261 886 L305 762 C307 755 310 751 316 751 L372 751 Z M528 380 L552 551 C563 633 502 700 416 700 L199 700 C192 700 187 696 186 689 L91 11 C90 4 94 0 101 0 L138 0 C145 0 149 4 150 11 L181 230 L326 230 L396 11 C398 4 401 0 408 0 L449 0 C456 0 460 4 461 11 L388 235 C458 251 518 310 528 380 L528 380 Z M471 394 C462 331 404 284 348 284 L188 284 L239 646 L399 646 C455 646 499 594 491 535 L471 394 Z " />
<glyph glyph-name="rcaron" unicode="&#x159;" horiz-adv-x="347" d="M308 571 C314 571 318 575 322 582 L401 706 C401 711 399 714 394 714 L356 714 C353 714 349 710 347 706 L285 611 L251 706 C249 710 247 714 244 714 L206 714 C201 714 197 711 197 706 L240 582 C242 575 246 571 252 571 L308 571 Z M368 517 C353 519 350 520 322 520 C299 520 250 513 218 448 L211 448 L219 504 C220 511 217 515 210 515 L173 515 C166 515 161 511 160 504 L91 11 C90 4 94 0 101 0 L138 0 C145 0 149 4 150 11 L198 355 C257 456 293 466 318 466 C335 466 348 464 359 463 C366 463 370 467 371 474 L378 506 C379 513 375 516 368 517 L368 517 Z " />
<glyph glyph-name="Sacute" unicode="&#x15a;" horiz-adv-x="519" d="M342 751 C334 751 331 755 332 763 L392 865 C397 873 401 877 408 877 L445 877 C452 877 455 873 454 865 L394 763 C389 755 385 751 378 751 L342 751 Z M417 159 C407 92 370 49 302 49 L224 49 C156 49 131 92 141 159 L143 171 C144 178 140 182 133 182 L96 182 C89 182 85 178 84 171 L80 143 C68 62 120 -5 205 -5 L308 -5 C393 -5 462 62 474 143 L476 162 C517 450 160 294 191 519 L195 541 C204 608 241 651 309 651 L375 651 C443 651 468 608 459 541 L457 529 C456 522 459 518 466 518 L503 518 C510 518 515 522 516 529 L520 557 C531 638 480 705 395 705 L304 705 C219 705 149 638 138 557 L134 532 C93 236 450 395 419 174 L417 159 Z " />
<glyph glyph-name="sacute" unicode="&#x15b;" horiz-adv-x="451" d="M328 571 C335 571 338 575 343 583 L404 685 C405 693 401 697 394 697 L357 697 C350 697 347 693 342 685 L281 583 C280 575 284 571 292 571 L328 571 Z M264 520 C182 520 132 464 122 396 L121 389 C93 192 369 271 350 141 L349 131 C341 75 300 49 253 49 L214 49 C166 49 137 94 143 141 L145 154 C146 161 143 165 136 165 L99 165 C92 165 87 161 86 154 L83 131 C74 65 109 -5 190 -5 L265 -5 C349 -5 398 51 407 119 L409 133 C437 333 160 249 179 379 L180 389 C188 445 228 466 276 466 L307 466 C355 466 385 421 378 374 L376 361 C375 354 379 350 386 350 L423 350 C430 350 434 354 435 361 L438 384 C448 450 413 520 332 520 L264 520 Z " />
<glyph glyph-name="Scircumflex" unicode="&#x15c;" horiz-adv-x="519" d="M403 894 C409 894 413 890 415 883 L458 759 C457 754 454 751 449 751 L411 751 C408 751 406 755 404 759 L370 854 L308 759 C306 755 302 751 299 751 L261 751 C256 751 253 754 254 759 L333 883 C337 890 341 894 347 894 L403 894 Z M417 159 C407 92 370 49 302 49 L224 49 C156 49 131 92 141 159 L143 171 C144 178 140 182 133 182 L96 182 C89 182 85 178 84 171 L80 143 C68 62 120 -5 205 -5 L308 -5 C393 -5 462 62 474 143 L476 162 C517 450 160 294 191 519 L195 541 C204 608 241 651 309 651 L375 651 C443 651 468 608 459 541 L457 529 C456 522 459 518 466 518 L503 518 C510 518 515 522 516 529 L520 557 C531 638 480 705 395 705 L304 705 C219 705 149 638 138 557 L134 532 C93 236 450 395 419 174 L417 159 Z " />
<glyph glyph-name="scircumflex" unicode="&#x15d;" horiz-adv-x="451" d="M300 714 C294 714 289 710 285 703 L207 579 C206 574 209 571 214 571 L252 571 C255 571 258 575 261 579 L322 674 L357 579 C358 575 361 571 364 571 L402 571 C407 571 410 574 411 579 L367 703 C365 710 362 714 356 714 L300 714 Z M264 520 C182 520 132 464 122 396 L121 389 C93 192 369 271 350 141 L349 131 C341 75 300 49 253 49 L214 49 C166 49 137 94 143 141 L145 154 C146 161 143 165 136 165 L99 165 C92 165 87 161 86 154 L83 131 C74 65 109 -5 190 -5 L265 -5 C349 -5 398 51 407 119 L409 133 C437 333 160 249 179 379 L180 389 C188 445 228 466 276 466 L307 466 C355 466 385 421 378 374 L376 361 C375 354 379 350 386 350 L423 350 C430 350 434 354 435 361 L438 384 C448 450 413 520 332 520 L264 520 Z " />
<glyph glyph-name="Scedilla" unicode="&#x15e;" horiz-adv-x="519" d="M191 519 L195 541 C204 608 241 651 309 651 L375 651 C443 651 468 608 459 541 L457 529 C456 522 459 518 466 518 L503 518 C510 518 515 522 516 529 L520 557 C531 638 480 705 395 705 L304 705 C219 705 149 638 138 557 L134 532 C93 236 450 395 419 174 L417 159 C407 92 370 49 302 49 L224 49 C156 49 131 92 141 159 L143 171 C144 178 140 182 133 182 L96 182 C89 182 85 178 84 171 L80 143 C68 62 120 -5 205 -5 L239 -5 L198 -63 C195 -67 194 -73 194 -73 L191 -96 C190 -100 193 -103 197 -103 L246 -103 C246 -103 281 -103 277 -133 C273 -161 238 -161 238 -161 L184 -161 C180 -161 177 -163 176 -168 L173 -188 C173 -192 175 -195 179 -195 L244 -195 C284 -195 306 -179 314 -127 C319 -88 288 -69 248 -69 L236 -69 L279 -5 L308 -5 C393 -5 462 62 474 143 L476 162 C517 450 160 294 191 519 L191 519 Z " />
<glyph glyph-name="scedilla" unicode="&#x15f;" horiz-adv-x="451" d="M172 -63 C169 -67 168 -73 168 -73 L165 -96 C164 -100 167 -103 171 -103 L220 -103 C220 -103 255 -103 251 -133 C247 -161 212 -161 212 -161 L158 -161 C154 -161 151 -163 150 -168 L147 -188 C147 -192 149 -195 153 -195 L218 -195 C258 -195 280 -179 288 -127 C293 -88 262 -69 222 -69 L210 -69 L250 -5 L265 -5 C349 -5 398 51 407 119 L409 133 C437 333 160 249 179 379 L180 389 C188 445 228 466 276 466 L307 466 C355 466 385 421 378 374 L376 361 C375 354 379 350 386 350 L423 350 C430 350 434 354 435 361 L438 384 C448 450 413 520 332 520 L264 520 C182 520 132 464 122 396 L121 389 C93 192 369 271 350 141 L349 131 C341 75 300 49 253 49 L214 49 C166 49 137 94 143 141 L145 154 C146 161 143 165 136 165 L99 165 C92 165 87 161 86 154 L83 131 C74 65 109 -5 190 -5 L210 -5 L172 -63 Z " />
<glyph glyph-name="Scaron" unicode="&#x160;" horiz-adv-x="519" d="M325 751 C319 751 316 755 314 762 L270 886 C271 891 274 894 279 894 L317 894 C320 894 323 890 324 886 L359 791 L420 886 C423 890 426 894 429 894 L467 894 C472 894 475 891 474 886 L396 762 C392 755 387 751 381 751 L325 751 Z M417 159 C407 92 370 49 302 49 L224 49 C156 49 131 92 141 159 L143 171 C144 178 140 182 133 182 L96 182 C89 182 85 178 84 171 L80 143 C68 62 120 -5 205 -5 L308 -5 C393 -5 462 62 474 143 L476 162 C517 450 160 294 191 519 L195 541 C204 608 241 651 309 651 L375 651 C443 651 468 608 459 541 L457 529 C456 522 459 518 466 518 L503 518 C510 518 515 522 516 529 L520 557 C531 638 480 705 395 705 L304 705 C219 705 149 638 138 557 L134 532 C93 236 450 395 419 174 L417 159 Z " />
<glyph glyph-name="scaron" unicode="&#x161;" horiz-adv-x="451" d="M335 571 C341 571 345 575 349 582 L428 706 C428 711 426 714 421 714 L383 714 C380 714 376 710 374 706 L312 611 L278 706 C276 710 274 714 271 714 L233 714 C228 714 224 711 224 706 L267 582 C269 575 273 571 279 571 L335 571 Z M264 520 C182 520 132 464 122 396 L121 389 C93 192 369 271 350 141 L349 131 C341 75 300 49 253 49 L214 49 C166 49 137 94 143 141 L145 154 C146 161 143 165 136 165 L99 165 C92 165 87 161 86 154 L83 131 C74 65 109 -5 190 -5 L265 -5 C349 -5 398 51 407 119 L409 133 C437 333 160 249 179 379 L180 389 C188 445 228 466 276 466 L307 466 C355 466 385 421 378 374 L376 361 C375 354 379 350 386 350 L423 350 C430 350 434 354 435 361 L438 384 C448 450 413 520 332 520 L264 520 Z " />
<glyph glyph-name="uni0162" unicode="&#x162;" horiz-adv-x="493" d="M264 0 C264 0 298 1 293 -32 C289 -59 254 -59 254 -59 L200 -59 C196 -59 193 -61 192 -66 L189 -86 C189 -90 191 -93 195 -93 L243 -93 C289 -93 321 -83 328 -31 C333 0 315 30 280 34 L366 646 L517 646 C524 646 529 650 530 657 L534 689 C535 696 532 700 525 700 L164 700 C157 700 152 696 151 689 L147 657 C146 650 149 646 156 646 L307 646 L218 11 C217 4 221 0 228 0 L264 0 Z " />
<glyph glyph-name="uni0163" unicode="&#x163;" horiz-adv-x="352" d="M152 -56 C149 -60 148 -66 148 -66 L145 -89 C144 -93 147 -96 151 -96 L200 -96 C200 -96 235 -96 231 -126 C227 -154 192 -154 192 -154 L138 -154 C134 -154 131 -156 130 -161 L127 -181 C126 -185 129 -188 133 -188 L198 -188 C238 -188 260 -172 268 -120 C273 -81 242 -62 202 -62 L190 -62 L231 4 C241 1 253 0 265 0 L291 0 C298 0 302 4 303 11 L308 43 C309 50 305 54 298 54 L292 54 C247 54 203 96 210 144 L254 461 L355 461 C362 461 367 465 368 472 L372 504 C373 511 370 515 363 515 L262 515 L286 689 C287 696 284 700 277 700 L240 700 C233 700 228 696 227 689 L203 515 L128 515 C121 515 116 511 115 504 L111 472 C110 465 113 461 120 461 L195 461 L151 144 C144 94 161 44 199 18 L152 -56 Z " />
<glyph glyph-name="Tcaron" unicode="&#x164;" horiz-adv-x="493" d="M379 751 C385 751 390 755 394 762 L472 886 C473 891 470 894 465 894 L427 894 C424 894 421 890 418 886 L357 791 L322 886 C321 890 318 894 315 894 L277 894 C272 894 269 891 268 886 L312 762 C314 755 317 751 323 751 L379 751 Z M164 700 C157 700 152 696 151 689 L147 657 C146 650 149 646 156 646 L307 646 L218 11 C217 4 221 0 228 0 L265 0 C272 0 276 4 277 11 L366 646 L517 646 C524 646 529 650 530 657 L534 689 C535 696 532 700 525 700 L164 700 Z " />
<glyph glyph-name="tcaron" unicode="&#x165;" horiz-adv-x="521" d="M501 574 C508 574 512 578 517 586 L577 688 C578 696 575 700 568 700 L531 700 C524 700 520 696 515 688 L455 586 C454 578 457 574 465 574 L501 574 Z M291 0 C298 0 302 4 303 11 L308 43 C309 50 305 54 298 54 L292 54 C247 54 203 96 210 144 L254 461 L355 461 C362 461 367 465 368 472 L372 504 C373 511 370 515 363 515 L262 515 L286 689 C287 696 284 700 277 700 L240 700 C233 700 228 696 227 689 L203 515 L128 515 C121 515 116 511 115 504 L111 472 C110 465 113 461 120 461 L195 461 L151 144 C140 71 183 0 265 0 L291 0 Z " />
<glyph glyph-name="Tbar" unicode="&#x166;" horiz-adv-x="493" d="M409 301 C416 301 420 305 421 312 L426 344 C427 351 423 355 416 355 L325 355 L366 646 L517 646 C524 646 529 650 530 657 L534 689 C535 696 532 700 525 700 L164 700 C157 700 152 696 151 689 L147 657 C146 650 149 646 156 646 L307 646 L266 355 L175 355 C168 355 164 351 163 344 L158 312 C157 305 161 301 168 301 L259 301 L218 11 C217 4 221 0 228 0 L265 0 C272 0 276 4 277 11 L318 301 L409 301 Z " />
<glyph glyph-name="tbar" unicode="&#x167;" horiz-adv-x="352" d="M98 301 C91 301 86 297 85 290 L81 258 C80 251 83 247 90 247 L165 247 L151 144 C140 71 183 0 265 0 L291 0 C298 0 302 4 303 11 L308 43 C309 50 305 54 298 54 L292 54 C247 54 203 96 210 144 L224 247 L325 247 C332 247 337 251 338 258 L342 290 C343 297 340 301 333 301 L232 301 L254 461 L355 461 C362 461 367 465 368 472 L372 504 C373 511 370 515 363 515 L262 515 L286 689 C287 696 284 700 277 700 L240 700 C233 700 228 696 227 689 L203 515 L128 515 C121 515 116 511 115 504 L111 472 C110 465 113 461 120 461 L195 461 L173 301 L98 301 Z " />
<glyph glyph-name="Utilde" unicode="&#x168;" horiz-adv-x="563" d="M574 689 C575 696 572 700 565 700 L528 700 C521 700 516 696 515 689 L441 160 C432 93 394 49 326 49 L249 49 C181 49 157 93 166 160 L240 689 C241 696 238 700 231 700 L194 700 C187 700 182 696 181 689 L105 144 C93 62 144 -5 229 -5 L332 -5 C417 -5 486 62 498 144 L574 689 Z M430 751 C440 751 457 757 474 764 C478 766 481 770 481 774 L477 805 C476 809 473 811 469 811 C458 811 449 805 434 805 C390 805 398 835 342 835 C332 835 315 829 298 822 C294 820 291 816 291 812 L295 781 C296 777 298 775 302 775 C313 775 323 781 338 781 C381 781 374 751 430 751 L430 751 Z " />
<glyph glyph-name="utilde" unicode="&#x169;" horiz-adv-x="480" d="M470 504 C471 511 468 515 461 515 L424 515 C417 515 412 511 411 504 L360 141 C354 94 310 49 263 49 L229 49 C182 49 152 94 158 141 L209 504 C210 511 207 515 200 515 L163 515 C156 515 151 511 150 504 L98 131 C89 65 121 -5 202 -5 L276 -5 C357 -5 409 65 418 131 L470 504 Z M365 571 C375 571 392 577 409 584 C413 586 415 590 416 594 L411 625 C411 629 408 631 404 631 C393 631 383 625 368 625 C324 625 333 655 277 655 C267 655 250 649 233 642 C228 640 226 636 225 632 L230 601 C230 597 233 595 237 595 C248 595 258 601 273 601 C316 601 309 571 365 571 L365 571 Z " />
<glyph glyph-name="Umacron" unicode="&#x16a;" horiz-adv-x="563" d="M473 751 C480 751 485 755 486 762 L490 794 C491 801 488 805 481 805 L307 805 C300 805 295 801 294 794 L290 762 C289 755 292 751 299 751 L473 751 Z M574 689 C575 696 572 700 565 700 L528 700 C521 700 516 696 515 689 L441 160 C432 93 394 49 326 49 L249 49 C181 49 157 93 166 160 L240 689 C241 696 238 700 231 700 L194 700 C187 700 182 696 181 689 L105 144 C93 62 144 -5 229 -5 L332 -5 C417 -5 486 62 498 144 L574 689 Z " />
<glyph glyph-name="umacron" unicode="&#x16b;" horiz-adv-x="480" d="M391 571 C398 571 402 575 403 582 L408 614 C409 621 405 625 398 625 L256 625 C249 625 245 621 244 614 L239 582 C238 575 242 571 249 571 L391 571 Z M470 504 C471 511 468 515 461 515 L424 515 C417 515 412 511 411 504 L360 141 C354 94 310 49 263 49 L229 49 C182 49 152 94 158 141 L209 504 C210 511 207 515 200 515 L163 515 C156 515 151 511 150 504 L98 131 C89 65 121 -5 202 -5 L276 -5 C357 -5 409 65 418 131 L470 504 Z " />
<glyph glyph-name="Ubreve" unicode="&#x16c;" horiz-adv-x="563" d="M574 689 C575 696 572 700 565 700 L528 700 C521 700 516 696 515 689 L441 160 C432 93 394 49 326 49 L249 49 C181 49 157 93 166 160 L240 689 C241 696 238 700 231 700 L194 700 C187 700 182 696 181 689 L105 144 C93 62 144 -5 229 -5 L332 -5 C417 -5 486 62 498 144 L574 689 Z M387 751 C463 751 494 794 521 858 C522 863 518 867 513 867 L471 867 C466 867 463 863 460 858 C441 822 428 799 394 799 C360 799 353 822 344 858 C343 863 340 867 335 867 L293 867 C288 867 284 863 283 858 C292 794 311 751 387 751 L387 751 Z " />
<glyph glyph-name="ubreve" unicode="&#x16d;" horiz-adv-x="480" d="M470 504 C471 511 468 515 461 515 L424 515 C417 515 412 511 411 504 L360 141 C354 94 310 49 263 49 L229 49 C182 49 152 94 158 141 L209 504 C210 511 207 515 200 515 L163 515 C156 515 151 511 150 504 L98 131 C89 65 121 -5 202 -5 L276 -5 C357 -5 409 65 418 131 L470 504 Z M320 571 C396 571 427 614 454 678 C454 683 451 687 446 687 L404 687 C399 687 395 683 393 678 C374 642 360 619 326 619 C292 619 286 642 277 678 C275 683 273 687 268 687 L226 687 C221 687 216 683 216 678 C225 614 244 571 320 571 L320 571 Z " />
<glyph glyph-name="Uring" unicode="&#x16e;" horiz-adv-x="563" d="M513 834 C522 898 478 949 414 949 C350 949 292 898 283 834 C274 770 318 719 382 719 C446 719 504 770 513 834 L513 834 Z M465 834 C459 795 426 767 388 767 C351 767 326 795 332 834 C337 873 370 901 407 901 C445 901 470 873 465 834 L465 834 Z M574 689 C575 696 572 700 565 700 L528 700 C521 700 516 696 515 689 L441 160 C432 93 394 49 326 49 L249 49 C181 49 157 93 166 160 L240 689 C241 696 238 700 231 700 L194 700 C187 700 182 696 181 689 L105 144 C93 62 144 -5 229 -5 L332 -5 C417 -5 486 62 498 144 L574 689 Z " />
<glyph glyph-name="uring" unicode="&#x16f;" horiz-adv-x="480" d="M451 686 C460 750 416 801 352 801 C288 801 230 750 221 686 C212 622 256 571 320 571 C384 571 442 622 451 686 L451 686 Z M403 686 C397 647 364 619 326 619 C289 619 264 647 270 686 C275 725 308 753 345 753 C383 753 408 725 403 686 L403 686 Z M470 504 C471 511 468 515 461 515 L424 515 C417 515 412 511 411 504 L360 141 C354 94 310 49 263 49 L229 49 C182 49 152 94 158 141 L209 504 C210 511 207 515 200 515 L163 515 C156 515 151 511 150 504 L98 131 C89 65 121 -5 202 -5 L276 -5 C357 -5 409 65 418 131 L470 504 Z " />
<glyph glyph-name="Uhungarumlaut" unicode="&#x170;" horiz-adv-x="563" d="M334 751 C341 751 345 755 350 763 L408 856 C409 864 405 868 398 868 L367 868 C360 868 357 864 352 856 L294 763 C293 755 296 751 304 751 L334 751 Z M465 751 C472 751 476 755 481 763 L539 856 C540 864 536 868 529 868 L498 868 C491 868 488 864 483 856 L425 763 C424 755 427 751 435 751 L465 751 Z M574 689 C575 696 572 700 565 700 L528 700 C521 700 516 696 515 689 L441 160 C432 93 394 49 326 49 L249 49 C181 49 157 93 166 160 L240 689 C241 696 238 700 231 700 L194 700 C187 700 182 696 181 689 L105 144 C93 62 144 -5 229 -5 L332 -5 C417 -5 486 62 498 144 L574 689 Z " />
<glyph glyph-name="uhungarumlaut" unicode="&#x171;" horiz-adv-x="480" d="M282 571 C289 571 292 575 297 583 L356 676 C357 684 353 688 346 688 L315 688 C308 688 305 684 300 676 L241 583 C240 575 244 571 252 571 L282 571 Z M413 571 C420 571 423 575 428 583 L487 676 C488 684 484 688 477 688 L446 688 C439 688 436 684 431 676 L372 583 C371 575 375 571 383 571 L413 571 Z M470 504 C471 511 468 515 461 515 L424 515 C417 515 412 511 411 504 L360 141 C354 94 310 49 263 49 L229 49 C182 49 152 94 158 141 L209 504 C210 511 207 515 200 515 L163 515 C156 515 151 511 150 504 L98 131 C89 65 121 -5 202 -5 L276 -5 C357 -5 409 65 418 131 L470 504 Z " />
<glyph glyph-name="Uogonek" unicode="&#x172;" horiz-adv-x="563" d="M226 -63 C223 -67 222 -73 222 -73 L219 -96 C218 -100 221 -103 225 -103 L274 -103 C274 -103 309 -103 305 -133 C301 -161 266 -161 266 -161 L212 -161 C208 -161 205 -163 204 -168 L201 -188 C201 -192 203 -195 207 -195 L272 -195 C312 -195 334 -179 342 -127 C347 -88 316 -69 276 -69 L264 -69 L304 -5 L332 -5 C417 -5 486 62 498 144 L574 689 C575 696 572 700 565 700 L528 700 C521 700 516 696 515 689 L441 160 C432 93 394 49 326 49 L249 49 C181 49 157 93 166 160 L240 689 C241 696 238 700 231 700 L194 700 C187 700 182 696 181 689 L105 144 C93 62 144 -5 229 -5 L264 -5 L226 -63 Z " />
<glyph glyph-name="uogonek" unicode="&#x173;" horiz-adv-x="480" d="M470 504 C471 511 468 515 461 515 L424 515 C417 515 412 511 411 504 L360 141 C354 94 310 49 263 49 L229 49 C182 49 152 94 158 141 L209 504 C210 511 207 515 200 515 L163 515 C156 515 151 511 150 504 L98 131 C89 65 121 -5 202 -5 L218 -5 L209 -69 L197 -69 C157 -69 120 -88 115 -127 C107 -179 125 -195 165 -195 L230 -195 C234 -195 238 -192 238 -188 L241 -168 C242 -163 239 -161 235 -161 L181 -161 C181 -161 146 -161 150 -133 C154 -103 189 -103 189 -103 L238 -103 C242 -103 245 -100 246 -96 L259 -5 L276 -5 C357 -5 409 65 418 131 L470 504 Z " />
<glyph glyph-name="Ydieresis" unicode="&#x178;" horiz-adv-x="517" d="M264 762 C263 755 266 751 273 751 L319 751 C326 751 331 755 332 762 L338 811 C339 818 336 822 329 822 L283 822 C276 822 271 818 270 811 L264 762 Z M398 762 C397 755 400 751 407 751 L453 751 C460 751 465 755 466 762 L472 811 C473 818 470 822 463 822 L417 822 C410 822 405 818 404 811 L398 762 Z M304 308 L299 308 L200 689 C198 696 197 700 190 700 L149 700 C142 700 137 696 136 689 L259 216 L230 11 C229 4 233 0 240 0 L277 0 C284 0 288 4 289 11 L318 216 L573 689 C574 696 571 700 564 700 L523 700 C516 700 513 696 509 689 L304 308 Z " />
<glyph glyph-name="Zacute" unicode="&#x179;" horiz-adv-x="484" d="M373 751 C380 751 384 755 389 763 L449 865 C450 873 447 877 440 877 L403 877 C396 877 392 873 387 865 L327 763 C326 755 329 751 337 751 L373 751 Z M141 54 L508 652 C509 654 511 657 511 659 L515 689 C516 696 513 700 506 700 L174 700 C167 700 162 696 161 689 L157 657 C156 650 159 646 166 646 L440 646 L73 48 C72 46 71 43 70 41 L66 11 C65 4 69 0 76 0 L408 0 C415 0 419 4 420 11 L425 43 C426 50 422 54 415 54 L141 54 Z " />
<glyph glyph-name="zacute" unicode="&#x17a;" horiz-adv-x="413" d="M306 571 C313 571 316 575 321 583 L382 685 C383 693 379 697 372 697 L335 697 C328 697 325 693 320 685 L259 583 C258 575 262 571 270 571 L306 571 Z M137 54 L415 460 C416 462 418 465 418 467 L423 504 C424 511 421 515 414 515 L143 515 C136 515 131 511 130 504 L126 472 C125 465 128 461 135 461 L349 461 L69 54 C68 52 66 49 66 47 L61 11 C60 4 64 0 71 0 L342 0 C349 0 353 4 354 11 L359 43 C360 50 356 54 349 54 L137 54 Z " />
<glyph glyph-name="Zdotaccent" unicode="&#x17b;" horiz-adv-x="484" d="M316 762 C315 755 318 751 325 751 L371 751 C378 751 383 755 384 762 L390 811 C391 818 388 822 381 822 L335 822 C328 822 323 818 322 811 L316 762 Z M141 54 L508 652 C509 654 511 657 511 659 L515 689 C516 696 513 700 506 700 L174 700 C167 700 162 696 161 689 L157 657 C156 650 159 646 166 646 L440 646 L73 48 C72 46 71 43 70 41 L66 11 C65 4 69 0 76 0 L408 0 C415 0 419 4 420 11 L425 43 C426 50 422 54 415 54 L141 54 Z " />
<glyph glyph-name="zdotaccent" unicode="&#x17c;" horiz-adv-x="418" d="M253 582 C252 575 256 571 263 571 L309 571 C316 571 320 575 321 582 L328 631 C329 638 326 642 319 642 L273 642 C266 642 261 638 260 631 L253 582 Z M137 54 L415 460 C416 462 418 465 418 467 L423 504 C424 511 421 515 414 515 L143 515 C136 515 131 511 130 504 L126 472 C125 465 128 461 135 461 L349 461 L69 54 C68 52 66 49 66 47 L61 11 C60 4 64 0 71 0 L342 0 C349 0 353 4 354 11 L359 43 C360 50 356 54 349 54 L137 54 Z " />
<glyph glyph-name="Zcaron" unicode="&#x17d;" horiz-adv-x="484" d="M378 751 C384 751 389 755 393 762 L471 886 C472 891 469 894 464 894 L426 894 C423 894 420 890 417 886 L356 791 L321 886 C320 890 317 894 314 894 L276 894 C271 894 268 891 267 886 L311 762 C313 755 316 751 322 751 L378 751 Z M141 54 L508 652 C509 654 511 657 511 659 L515 689 C516 696 513 700 506 700 L174 700 C167 700 162 696 161 689 L157 657 C156 650 159 646 166 646 L440 646 L73 48 C72 46 71 43 70 41 L66 11 C65 4 69 0 76 0 L408 0 C415 0 419 4 420 11 L425 43 C426 50 422 54 415 54 L141 54 Z " />
<glyph glyph-name="zcaron" unicode="&#x17e;" horiz-adv-x="413" d="M314 571 C320 571 324 575 328 582 L407 706 C407 711 405 714 400 714 L362 714 C359 714 355 710 353 706 L291 611 L257 706 C255 710 253 714 250 714 L212 714 C207 714 203 711 203 706 L246 582 C248 575 252 571 258 571 L314 571 Z M137 54 L415 460 C416 462 418 465 418 467 L423 504 C424 511 421 515 414 515 L143 515 C136 515 131 511 130 504 L126 472 C125 465 128 461 135 461 L349 461 L69 54 C68 52 66 49 66 47 L61 11 C60 4 64 0 71 0 L342 0 C349 0 353 4 354 11 L359 43 C360 50 356 54 349 54 L137 54 Z " />
<glyph glyph-name="florin" unicode="&#x192;" horiz-adv-x="342" d="M410 646 C417 646 422 650 423 657 L427 689 C428 696 425 700 418 700 L398 700 C320 700 267 622 243 558 L214 480 L131 480 C124 480 119 476 118 469 L114 437 C113 430 116 426 123 426 L191 426 L-48 -170 C-49 -177 -46 -181 -39 -181 L-1 -181 C5 -181 9 -177 12 -170 L249 426 L337 426 C344 426 349 430 350 437 L354 469 C355 476 352 480 345 480 L276 480 L305 565 C319 605 362 646 410 646 L410 646 Z " />
<glyph glyph-name="uni0218" unicode="&#x218;" horiz-adv-x="519" d="M202 -179 C209 -179 213 -175 218 -167 L278 -65 C279 -57 276 -53 269 -53 L232 -53 C225 -53 221 -57 216 -65 L156 -167 C155 -175 158 -179 166 -179 L202 -179 Z M417 159 C407 92 370 49 302 49 L224 49 C156 49 131 92 141 159 L143 171 C144 178 140 182 133 182 L96 182 C89 182 85 178 84 171 L80 143 C68 62 120 -5 205 -5 L308 -5 C393 -5 462 62 474 143 L476 162 C517 450 160 294 191 519 L195 541 C204 608 241 651 309 651 L375 651 C443 651 468 608 459 541 L457 529 C456 522 459 518 466 518 L503 518 C510 518 515 522 516 529 L520 557 C531 638 480 705 395 705 L304 705 C219 705 149 638 138 557 L134 532 C93 236 450 395 419 174 L417 159 Z " />
<glyph glyph-name="uni0219" unicode="&#x219;" horiz-adv-x="451" d="M178 -179 C185 -179 189 -175 194 -167 L254 -65 C255 -57 252 -53 245 -53 L208 -53 C201 -53 197 -57 192 -65 L132 -167 C131 -175 134 -179 142 -179 L178 -179 Z M264 520 C182 520 132 464 122 396 L121 389 C93 192 369 271 350 141 L349 131 C341 75 300 49 253 49 L214 49 C166 49 137 94 143 141 L145 154 C146 161 143 165 136 165 L99 165 C92 165 87 161 86 154 L83 131 C74 65 109 -5 190 -5 L265 -5 C349 -5 398 51 407 119 L409 133 C437 333 160 249 179 379 L180 389 C188 445 228 466 276 466 L307 466 C355 466 385 421 378 374 L376 361 C375 354 379 350 386 350 L423 350 C430 350 434 354 435 361 L438 384 C448 450 413 520 332 520 L264 520 Z " />
<glyph glyph-name="uni021A" unicode="&#x21a;" horiz-adv-x="493" d="M187 -179 C194 -179 198 -175 203 -167 L263 -65 C264 -57 261 -53 254 -53 L217 -53 C210 -53 206 -57 201 -65 L141 -167 C140 -175 143 -179 151 -179 L187 -179 Z M164 700 C157 700 152 696 151 689 L147 657 C146 650 149 646 156 646 L307 646 L218 11 C217 4 221 0 228 0 L265 0 C272 0 276 4 277 11 L366 646 L517 646 C524 646 529 650 530 657 L534 689 C535 696 532 700 525 700 L164 700 Z " />
<glyph glyph-name="uni021B" unicode="&#x21b;" horiz-adv-x="352" d="M190 -179 C197 -179 201 -175 206 -167 L266 -65 C267 -57 264 -53 257 -53 L220 -53 C213 -53 209 -57 204 -65 L144 -167 C143 -175 146 -179 154 -179 L190 -179 Z M291 0 C298 0 302 4 303 11 L308 43 C309 50 305 54 298 54 L292 54 C247 54 203 96 210 144 L254 461 L355 461 C362 461 367 465 368 472 L372 504 C373 511 370 515 363 515 L262 515 L286 689 C287 696 284 700 277 700 L240 700 C233 700 228 696 227 689 L203 515 L128 515 C121 515 116 511 115 504 L111 472 C110 465 113 461 120 461 L195 461 L151 144 C140 71 183 0 265 0 L291 0 Z " />
<glyph glyph-name="circumflex" unicode="&#x2c6;" horiz-adv-x="384" d="M262 700 C256 700 251 696 247 689 L169 565 C168 560 171 557 176 557 L214 557 C217 557 220 561 223 565 L284 660 L319 565 C320 561 323 557 326 557 L364 557 C369 557 372 560 373 565 L329 689 C327 696 324 700 318 700 L262 700 Z " />
<glyph glyph-name="caron" unicode="&#x2c7;" horiz-adv-x="384" d="M298 557 C304 557 308 561 312 568 L391 692 C391 697 389 700 384 700 L346 700 C343 700 339 696 337 692 L275 597 L241 692 C239 696 237 700 234 700 L196 700 C191 700 187 697 187 692 L230 568 C232 561 236 557 242 557 L298 557 Z " />
<glyph glyph-name="breve" unicode="&#x2d8;" horiz-adv-x="418" d="M291 584 C367 584 398 627 425 691 C425 696 422 700 417 700 L375 700 C370 700 366 696 364 691 C345 655 331 632 297 632 C263 632 257 655 248 691 C246 696 244 700 239 700 L197 700 C192 700 187 696 187 691 C196 627 215 584 291 584 L291 584 Z " />
<glyph glyph-name="dotaccent" unicode="&#x2d9;" horiz-adv-x="248" d="M179 640 C178 633 182 629 189 629 L235 629 C242 629 246 633 247 640 L254 689 C255 696 252 700 245 700 L199 700 C192 700 187 696 186 689 L179 640 Z " />
<glyph glyph-name="ring" unicode="&#x2da;" horiz-adv-x="410" d="M409 636 C418 700 374 751 310 751 C246 751 188 700 179 636 C170 572 214 521 278 521 C342 521 400 572 409 636 L409 636 Z M361 636 C355 597 322 569 284 569 C247 569 222 597 228 636 C233 675 266 703 303 703 C341 703 366 675 361 636 L361 636 Z " />
<glyph glyph-name="ogonek" unicode="&#x2db;" horiz-adv-x="312" d="M183 1 C179 1 176 0 175 -6 L166 -69 L154 -69 C114 -69 77 -88 72 -127 C64 -179 82 -195 122 -195 L187 -195 C191 -195 195 -192 195 -188 L198 -168 C199 -163 196 -161 192 -161 L138 -161 C138 -161 103 -161 107 -133 C111 -103 146 -103 146 -103 L195 -103 C199 -103 202 -100 203 -96 L216 -6 C217 0 214 1 210 1 L183 1 Z " />
<glyph glyph-name="tilde" unicode="&#x2dc;" horiz-adv-x="376" d="M324 616 C334 616 351 622 368 629 C372 631 375 635 375 639 L371 670 C370 674 368 676 364 676 C353 676 343 670 328 670 C284 670 292 700 236 700 C226 700 209 694 192 687 C188 685 185 681 185 677 L189 646 C190 642 192 640 196 640 C207 640 217 646 232 646 C275 646 268 616 324 616 L324 616 Z " />
<glyph glyph-name="hungarumlaut" unicode="&#x2dd;" horiz-adv-x="412" d="M213 583 C220 583 224 587 229 595 L287 688 C288 696 285 700 278 700 L247 700 C240 700 236 696 231 688 L173 595 C172 587 175 583 183 583 L213 583 Z M344 583 C351 583 355 587 360 595 L418 688 C419 696 416 700 409 700 L378 700 C371 700 367 696 362 688 L304 595 C303 587 306 583 314 583 L344 583 Z " />
<glyph glyph-name="uni03A9" unicode="&#x3a9;" horiz-adv-x="709" d="M404 700 C316 700 245 633 234 551 L180 167 C178 152 173 99 196 54 L108 54 C101 54 97 50 96 43 L91 11 C90 4 94 0 101 0 L249 0 C256 0 260 4 261 11 L268 59 C268 60 269 65 265 67 C229 84 236 144 239 170 L291 535 C299 594 348 646 404 646 L485 646 C541 646 576 594 568 535 L516 170 C513 144 502 84 462 67 C458 65 457 60 457 59 L450 11 C449 4 453 0 460 0 L608 0 C615 0 619 4 620 11 L625 43 C626 50 622 54 615 54 L527 54 C562 99 573 152 575 167 L629 551 C640 633 589 700 501 700 L404 700 Z " />
<glyph glyph-name="pi" unicode="&#x3c0;" horiz-adv-x="742" d="M173 515 C166 515 161 511 160 504 L156 472 C155 465 158 461 165 461 L293 461 L230 11 C229 4 233 0 240 0 L277 0 C284 0 288 4 289 11 L352 461 L518 461 L455 11 C454 4 458 0 465 0 L502 0 C509 0 513 4 514 11 L577 461 L705 461 C712 461 717 465 718 472 L722 504 C723 511 720 515 713 515 L173 515 Z " />
<glyph glyph-name="ZWSP" unicode="&#x200b;" d="" />
<glyph glyph-name="endash" unicode="&#x2013;" horiz-adv-x="344" d="M272 209 C279 209 283 213 284 220 L289 252 C290 259 286 263 279 263 L137 263 C130 263 126 259 125 252 L120 220 C119 213 123 209 130 209 L272 209 Z " />
<glyph glyph-name="emdash" unicode="&#x2014;" horiz-adv-x="402" d="M330 209 C337 209 341 213 342 220 L347 252 C348 259 344 263 337 263 L137 263 C130 263 126 259 125 252 L120 220 C119 213 123 209 130 209 L330 209 Z " />
<glyph glyph-name="quoteleft" unicode="&#x2018;" horiz-adv-x="267" d="M213 583 C220 583 224 587 229 595 L273 688 C274 696 271 700 264 700 L233 700 C226 700 222 696 217 688 L173 595 C172 587 175 583 183 583 L213 583 Z " />
<glyph glyph-name="quoteright" unicode="&#x2019;" horiz-adv-x="267" d="M233 700 C226 700 222 696 217 688 L173 595 C172 587 175 583 182 583 L213 583 C220 583 224 587 229 595 L273 688 C274 696 271 700 263 700 L233 700 Z " />
<glyph glyph-name="quotesinglbase" unicode="&#x201a;" horiz-adv-x="267" d="M146 82 C139 82 135 78 130 70 L86 -23 C85 -31 89 -35 96 -35 L127 -35 C134 -35 137 -31 142 -23 L186 70 C187 78 184 82 176 82 L146 82 Z " />
<glyph glyph-name="quotedblleft" unicode="&#x201c;" horiz-adv-x="383" d="M213 583 C220 583 224 587 229 595 L273 688 C274 696 271 700 264 700 L233 700 C226 700 222 696 217 688 L173 595 C172 587 175 583 183 583 L213 583 Z M329 583 C336 583 340 587 345 595 L389 688 C390 696 387 700 380 700 L349 700 C342 700 338 696 333 688 L289 595 C288 587 291 583 299 583 L329 583 Z " />
<glyph glyph-name="quotedblright" unicode="&#x201d;" horiz-adv-x="383" d="M349 700 C342 700 338 696 333 688 L289 595 C288 587 291 583 298 583 L329 583 C336 583 340 587 345 595 L389 688 C390 696 387 700 379 700 L349 700 Z M233 700 C226 700 222 696 217 688 L173 595 C172 587 175 583 182 583 L213 583 C220 583 224 587 229 595 L273 688 C274 696 271 700 263 700 L233 700 Z " />
<glyph glyph-name="quotedblbase" unicode="&#x201e;" horiz-adv-x="383" d="M262 82 C255 82 251 78 246 70 L202 -23 C201 -31 205 -35 212 -35 L243 -35 C250 -35 253 -31 258 -23 L302 70 C303 78 300 82 292 82 L262 82 Z M146 82 C139 82 135 78 130 70 L86 -23 C85 -31 89 -35 96 -35 L127 -35 C134 -35 137 -31 142 -23 L186 70 C187 78 184 82 176 82 L146 82 Z " />
<glyph glyph-name="dagger" unicode="&#x2020;" horiz-adv-x="439" d="M176 540 C169 540 165 536 164 529 L159 497 C158 490 162 486 169 486 L258 486 L153 -257 C152 -264 156 -268 163 -268 L200 -268 C207 -268 211 -264 212 -257 L317 486 L406 486 C413 486 417 490 418 497 L423 529 C424 536 420 540 413 540 L324 540 L345 689 C346 696 343 700 336 700 L299 700 C292 700 287 696 286 689 L265 540 L176 540 Z " />
<glyph glyph-name="daggerdbl" unicode="&#x2021;" horiz-adv-x="439" d="M99 -13 C92 -13 87 -17 86 -24 L82 -56 C81 -63 84 -67 91 -67 L180 -67 L153 -257 C152 -264 156 -268 163 -268 L200 -268 C207 -268 211 -264 212 -257 L239 -67 L328 -67 C335 -67 340 -63 341 -56 L345 -24 C346 -17 343 -13 336 -13 L247 -13 L317 486 L406 486 C413 486 417 490 418 497 L423 529 C424 536 420 540 413 540 L324 540 L345 689 C346 696 343 700 336 700 L299 700 C292 700 287 696 286 689 L265 540 L176 540 C169 540 165 536 164 529 L159 497 C158 490 162 486 169 486 L258 486 L188 -13 L99 -13 Z " />
<glyph glyph-name="bullet" unicode="&#x2022;" horiz-adv-x="248" d="M117 194 C116 187 119 183 126 183 L172 183 C179 183 184 187 185 194 L192 243 C193 250 189 254 182 254 L136 254 C129 254 125 250 124 243 L117 194 Z " />
<glyph glyph-name="ellipsis" unicode="&#x2026;" horiz-adv-x="898" d="M90 6 C89 -1 93 -5 100 -5 L146 -5 C153 -5 157 -1 158 6 L165 55 C166 62 163 66 156 66 L110 66 C103 66 98 62 97 55 L90 6 Z M415 6 C414 -1 418 -5 425 -5 L471 -5 C478 -5 482 -1 483 6 L490 55 C491 62 488 66 481 66 L435 66 C428 66 423 62 422 55 L415 6 Z M740 6 C739 -1 743 -5 750 -5 L796 -5 C803 -5 807 -1 808 6 L815 55 C816 62 813 66 806 66 L760 66 C753 66 748 62 747 55 L740 6 Z " />
<glyph glyph-name="perthousand" unicode="&#x2030;" horiz-adv-x="1067" d="M303 700 C239 700 181 649 172 585 C163 521 206 469 270 469 C334 469 393 521 402 585 C411 649 367 700 303 700 L303 700 Z M277 519 C240 519 216 552 221 585 C226 624 259 652 296 652 C334 652 359 624 354 585 C349 552 315 519 277 519 L277 519 Z M224 9 C223 3 226 0 232 0 L272 0 C278 0 281 3 284 9 L668 691 C668 697 666 700 660 700 L620 700 C614 700 610 697 608 691 L224 9 Z M621 231 C557 231 499 180 490 116 C481 52 525 0 589 0 C653 0 711 52 720 116 C729 180 685 231 621 231 L621 231 Z M596 50 C559 50 534 83 539 116 C544 155 577 183 614 183 C652 183 677 155 672 116 C667 83 634 50 596 50 L596 50 Z M894 231 C830 231 772 180 763 116 C754 52 798 0 862 0 C926 0 984 52 993 116 C1002 180 958 231 894 231 L894 231 Z M869 50 C832 50 807 83 812 116 C817 155 850 183 887 183 C925 183 950 155 945 116 C940 83 907 50 869 50 L869 50 Z " />
<glyph glyph-name="guilsinglleft" unicode="&#x2039;" horiz-adv-x="386" d="M116 185 C115 178 116 175 124 172 L300 99 C304 99 310 102 311 108 L317 151 C318 158 313 161 309 163 L177 218 L178 224 L326 279 C330 281 335 284 336 291 L342 334 C343 340 339 343 335 343 L137 270 C129 267 127 264 126 257 L116 185 Z " />
<glyph glyph-name="guilsinglright" unicode="&#x203a;" horiz-adv-x="386" d="M332 257 C333 264 331 267 323 270 L147 343 C143 343 137 340 136 334 L130 291 C129 284 134 281 138 279 L270 224 L269 218 L121 163 C117 161 112 158 111 151 L105 108 C104 102 108 99 112 99 L310 172 C318 175 321 178 322 185 L332 257 Z " />
<glyph glyph-name="fraction" unicode="&#x2044;" horiz-adv-x="549" d="M66 -170 C65 -176 67 -179 73 -179 L113 -179 C119 -179 123 -176 126 -170 L570 795 C571 801 568 804 562 804 L522 804 C516 804 513 801 510 795 L66 -170 Z " />
<glyph glyph-name="Euro" unicode="&#x20ac;" horiz-adv-x="653" d="M339 229 C346 229 350 233 351 240 L356 272 C357 279 353 283 346 283 L268 283 L287 413 L365 413 C372 413 376 417 377 424 L382 456 C383 463 379 467 372 467 L294 467 L305 541 C314 608 351 651 419 651 L496 651 C564 651 589 608 580 541 L574 504 C573 497 577 493 584 493 L621 493 C628 493 632 497 633 504 L641 556 C652 638 602 705 517 705 L414 705 C329 705 259 638 248 556 L235 467 L166 467 C159 467 155 463 154 456 L149 424 C148 417 152 413 159 413 L228 413 L209 283 L140 283 C133 283 129 279 128 272 L123 240 C122 233 126 229 133 229 L202 229 L190 144 C178 62 229 -5 314 -5 L417 -5 C502 -5 571 62 583 144 L590 196 C591 203 588 207 581 207 L544 207 C537 207 532 203 531 196 L526 160 C517 93 479 49 411 49 L334 49 C266 49 242 93 251 160 L261 229 L339 229 Z " />
<glyph glyph-name="Numero" unicode="&#x2116;" horiz-adv-x="1031" d="M842 175 C923 175 975 245 984 311 L1020 564 C1029 630 997 700 916 700 L842 700 C761 700 709 630 700 564 L664 311 C655 245 687 175 768 175 L842 175 Z M889 646 C947 646 966 604 959 554 L927 321 C920 274 877 229 830 229 L796 229 C749 229 718 274 725 321 L757 554 C764 604 795 646 853 646 L889 646 Z M851 0 C858 0 862 4 863 11 L868 43 C869 50 865 54 858 54 L716 54 C709 54 705 50 704 43 L699 11 C698 4 702 0 709 0 L851 0 Z M462 101 L277 689 C275 695 271 700 264 700 L199 700 C192 700 187 696 186 689 L91 11 C90 4 94 0 101 0 L138 0 C145 0 149 4 150 11 L233 598 L241 598 L426 11 C428 5 433 0 440 0 L504 0 C511 0 515 4 516 11 L611 689 C612 696 609 700 602 700 L565 700 C558 700 553 696 552 689 L470 101 L462 101 Z " />
<glyph glyph-name="trademark" unicode="&#x2122;" horiz-adv-x="729" d="M218 424 C218 421 220 418 223 418 L262 418 C265 418 269 421 269 424 L301 654 L364 654 C367 654 371 657 371 660 L376 694 C376 697 374 700 371 700 L194 700 C191 700 187 697 187 694 L182 660 C182 657 184 654 187 654 L250 654 L218 424 Z M558 454 C560 454 561 455 564 458 L674 615 L647 424 C647 421 649 418 652 418 L691 418 C694 418 698 421 698 424 L736 694 C736 697 734 700 731 700 L684 700 C681 700 677 697 675 694 L565 537 L561 537 L495 694 C493 697 491 700 488 700 L441 700 C438 700 434 697 434 694 L396 424 C396 421 398 418 401 418 L440 418 C443 418 447 421 447 424 L474 615 L540 458 C541 455 542 454 544 454 L558 454 Z " />
<glyph glyph-name="Omega" unicode="&#x2126;" horiz-adv-x="709" d="M404 700 C316 700 245 633 234 551 L180 167 C178 152 173 99 196 54 L108 54 C101 54 97 50 96 43 L91 11 C90 4 94 0 101 0 L249 0 C256 0 260 4 261 11 L268 59 C268 60 269 65 265 67 C229 84 236 144 239 170 L291 535 C299 594 348 646 404 646 L485 646 C541 646 576 594 568 535 L516 170 C513 144 502 84 462 67 C458 65 457 60 457 59 L450 11 C449 4 453 0 460 0 L608 0 C615 0 619 4 620 11 L625 43 C626 50 622 54 615 54 L527 54 C562 99 573 152 575 167 L629 551 C640 633 589 700 501 700 L404 700 Z " />
<glyph glyph-name="partialdiff" unicode="&#x2202;" horiz-adv-x="515" d="M238 49 C180 49 161 91 168 141 L189 289 C196 339 227 381 285 381 L321 381 C379 381 410 332 403 282 L384 148 C377 98 332 49 274 49 L238 49 Z M504 569 C514 635 482 705 401 705 L327 705 C246 705 194 635 184 569 L181 544 C180 537 183 533 190 533 L227 533 C234 533 239 537 240 544 L242 559 C249 609 280 651 338 651 L374 651 C432 651 451 609 444 559 L421 392 L414 392 C394 425 369 435 341 435 L282 435 C201 435 142 376 131 297 L108 133 C97 54 139 -5 220 -5 L279 -5 C307 -5 335 5 364 38 L371 38 L367 11 C366 4 370 0 377 0 L414 0 C421 0 425 4 426 11 L504 569 Z " />
<glyph glyph-name="Delta" unicode="&#x2206;" horiz-adv-x="842" d="M676 54 L180 54 L511 641 L676 54 Z M740 0 C747 0 750 3 753 9 L561 690 C560 695 556 700 549 700 L489 700 C482 700 476 695 473 690 L91 9 C92 3 95 0 102 0 L740 0 Z " />
<glyph glyph-name="product" unicode="&#x220f;" horiz-adv-x="742" d="M199 700 C192 700 187 696 186 689 L182 657 C181 650 184 646 191 646 L319 646 L230 11 C229 4 233 0 240 0 L277 0 C284 0 288 4 289 11 L378 646 L544 646 L455 11 C454 4 458 0 465 0 L502 0 C509 0 513 4 514 11 L603 646 L731 646 C738 646 743 650 744 657 L748 689 C749 696 746 700 739 700 L199 700 Z " />
<glyph glyph-name="summation" unicode="&#x2211;" horiz-adv-x="493" d="M291 344 L100 77 L91 11 C90 4 94 0 101 0 L392 0 C399 0 403 4 404 11 L409 43 C410 50 406 54 399 54 L150 54 C192 110 248 186 362 348 L363 352 C294 514 259 590 233 646 L482 646 C489 646 494 650 495 657 L499 689 C500 696 497 700 490 700 L199 700 C192 700 187 696 186 689 L177 623 L293 356 L291 344 Z " />
<glyph glyph-name="minus" unicode="&#x2212;" horiz-adv-x="344" d="M272 209 C279 209 283 213 284 220 L289 252 C290 259 286 263 279 263 L137 263 C130 263 126 259 125 252 L120 220 C119 213 123 209 130 209 L272 209 Z " />
<glyph glyph-name="radical" unicode="&#x221a;" horiz-adv-x="677" d="M666 646 C673 646 678 650 679 657 L683 689 C684 696 681 700 674 700 L521 700 C514 700 510 696 507 689 L252 58 L241 58 L202 373 C201 380 198 384 191 384 L154 384 C147 384 143 380 142 373 L187 9 C188 3 191 0 198 0 L279 0 C286 0 289 3 292 9 L549 646 L666 646 Z " />
<glyph glyph-name="infinity" unicode="&#x221e;" horiz-adv-x="898" d="M450 226 C443 176 402 134 344 134 L260 134 C202 134 173 176 180 226 L190 298 C197 348 238 390 296 390 L380 390 C438 390 467 348 460 298 L450 226 Z M469 144 C490 86 542 81 569 81 L691 81 C771 81 828 146 837 211 L851 313 C861 378 822 443 742 443 L620 443 C593 443 539 438 502 380 C481 438 429 443 402 443 L280 443 C200 443 143 378 133 313 L119 211 C110 146 149 81 229 81 L351 81 C378 81 432 86 469 144 L469 144 Z M520 298 C527 348 568 390 626 390 L710 390 C768 390 797 348 790 298 L780 226 C773 176 732 134 674 134 L590 134 C532 134 503 176 510 226 L520 298 Z " />
<glyph glyph-name="integral" unicode="&#x222b;" horiz-adv-x="433" d="M428 643 C432 645 434 648 435 655 L424 695 C423 699 419 701 416 701 C415 701 413 701 411 700 C363 680 274 626 260 521 L187 3 C187 3 172 -76 77 -124 C73 -126 71 -129 70 -136 L81 -176 C82 -180 86 -182 89 -182 C90 -182 92 -182 94 -181 C142 -161 230 -107 245 -2 L318 516 C318 516 333 595 428 643 L428 643 Z " />
<glyph glyph-name="approxequal" unicode="&#x2248;" horiz-adv-x="376" d="M252 106 C262 106 279 112 296 119 C301 121 303 125 304 129 L299 160 C299 164 296 166 292 166 C281 166 271 160 256 160 C212 160 220 190 164 190 C154 190 137 184 120 177 C116 175 114 171 113 167 L118 136 C118 132 121 130 125 130 C136 130 146 136 161 136 C204 136 196 106 252 106 L252 106 Z M274 260 C284 260 301 266 318 273 C322 275 325 279 325 283 L321 314 C320 318 317 320 313 320 C302 320 293 314 278 314 C234 314 242 344 186 344 C176 344 159 338 142 331 C138 329 135 325 135 321 L139 290 C140 286 142 284 146 284 C157 284 167 290 182 290 C225 290 218 260 274 260 L274 260 Z " />
<glyph glyph-name="notequal" unicode="&#x2260;" horiz-adv-x="391" d="M320 304 C327 304 332 308 333 315 L337 347 C338 354 335 358 328 358 L311 358 L368 482 C369 488 367 491 361 491 L321 491 C315 491 311 488 308 482 L251 358 L154 358 C147 358 142 354 141 347 L137 315 C136 308 139 304 146 304 L226 304 L160 160 L126 160 C119 160 114 156 113 149 L109 117 C108 110 111 106 118 106 L135 106 L91 9 C90 3 93 0 99 0 L139 0 C145 0 148 3 151 9 L195 106 L292 106 C299 106 304 110 305 117 L309 149 C310 156 307 160 300 160 L220 160 L286 304 L320 304 Z " />
<glyph glyph-name="lessequal" unicode="&#x2264;" horiz-adv-x="386" d="M285 0 C292 0 296 4 297 11 L302 43 C303 50 299 54 292 54 L108 54 C101 54 97 50 96 43 L91 11 C90 4 94 0 101 0 L285 0 Z M118 201 C117 194 118 191 126 188 L303 115 C307 115 312 118 313 124 L319 167 C320 174 315 177 312 179 L179 234 L180 240 L328 295 C332 297 338 300 339 307 L345 350 C346 356 341 359 337 359 L140 286 C131 283 129 280 128 273 L118 201 Z " />
<glyph glyph-name="greaterequal" unicode="&#x2265;" horiz-adv-x="386" d="M285 0 C292 0 296 4 297 11 L302 43 C303 50 299 54 292 54 L108 54 C101 54 97 50 96 43 L91 11 C90 4 94 0 101 0 L285 0 Z M334 273 C335 280 333 283 326 286 L149 359 C145 359 140 356 139 350 L133 307 C132 300 136 297 140 295 L272 240 L271 234 L124 179 C119 177 114 174 113 167 L107 124 C106 118 111 115 115 115 L312 188 C320 191 323 194 324 201 L334 273 Z " />
<glyph glyph-name="lozenge" unicode="&#x25ca;" horiz-adv-x="626" d="M319 49 L206 349 L404 651 L518 349 L319 49 Z M348 0 C354 0 358 4 361 9 L585 350 L455 691 C453 696 450 700 444 700 L378 700 C372 700 367 696 365 691 L139 350 L267 9 C268 4 272 0 278 0 L348 0 Z " />
<glyph glyph-name="uni25CC" unicode="&#x25cc;" horiz-adv-x="199" d="" />
<glyph glyph-name="fi" unicode="&#xfb01;" horiz-adv-x="615" d="M370 744 C288 744 226 679 216 606 L203 515 L128 515 C121 515 116 511 115 504 L111 472 C110 465 113 461 120 461 L195 461 L132 11 C131 4 135 0 142 0 L179 0 C186 0 190 4 191 11 L254 461 L355 461 C362 461 367 465 368 472 L372 504 C373 511 370 515 363 515 L263 515 L274 597 C281 645 327 690 373 690 L388 690 C395 690 400 694 401 701 L406 733 C407 740 403 744 396 744 L370 744 Z M460 11 C459 4 463 0 470 0 L507 0 C514 0 518 4 519 11 L588 504 C589 511 586 515 579 515 L542 515 C535 515 530 511 529 504 L460 11 Z M538 589 C537 582 541 578 548 578 L591 578 C598 578 602 582 603 589 L613 657 C614 664 610 668 603 668 L560 668 C553 668 549 664 548 657 L538 589 Z " />
<glyph glyph-name="fl" unicode="&#xfb02;" horiz-adv-x="597" d="M370 744 C288 744 226 679 216 606 L203 515 L128 515 C121 515 116 511 115 504 L111 472 C110 465 113 461 120 461 L195 461 L132 11 C131 4 135 0 142 0 L179 0 C186 0 190 4 191 11 L254 461 L355 461 C362 461 367 465 368 472 L372 504 C373 511 370 515 363 515 L263 515 L274 597 C281 645 327 690 373 690 L388 690 C395 690 400 694 401 701 L406 733 C407 740 403 744 396 744 L370 744 Z M449 11 C448 4 452 0 459 0 L496 0 C503 0 507 4 508 11 L603 689 C604 696 601 700 594 700 L557 700 C550 700 545 696 544 689 L449 11 Z " />
</font>
</svg>
