<?xml version="1.0" encoding="UTF-8"?>
<svg xmlns="http://www.w3.org/2000/svg" xmlns:xlink="http://www.w3.org/1999/xlink" version="1.2" >
<font id="Tomkin Condense Black Italic">
<font-face  font-family="Tomkin Condense" units-per-em="1000" ascent="750" descent="-250" font-style="italic" font-weight="900" font-stretch="normal" cap-height="700" x-height="515" underline-position="-91" underline-thickness="35" />
<missing-glyph  horiz-adv-x="569" d="" />
<glyph glyph-name="space" unicode="&#x20;" horiz-adv-x="182" d="" />
<glyph glyph-name="exclam" unicode="&#x21;" horiz-adv-x="284" d="M62 15 C60 3 68 -6 80 -6 L202 -6 C214 -6 224 3 226 15 L239 112 C241 124 233 133 221 133 L99 133 C87 133 77 124 75 112 L62 15 Z M209 163 C221 163 230 173 232 184 L263 303 L316 679 C318 691 310 700 298 700 L182 700 C170 700 160 691 158 679 L105 303 L102 184 C102 173 107 163 119 163 L209 163 Z " />
<glyph glyph-name="quotedbl" unicode="&#x22;" horiz-adv-x="467" d="M139 460 C138 448 145 439 157 439 L235 439 C247 439 256 448 259 460 L291 584 L304 679 C306 691 298 700 286 700 L179 700 C167 700 157 691 155 679 L142 584 L139 460 Z M337 460 C336 448 343 439 355 439 L433 439 C445 439 454 448 457 460 L489 584 L502 679 C504 691 496 700 484 700 L377 700 C365 700 355 691 353 679 L340 584 L337 460 Z " />
<glyph glyph-name="numbersign" unicode="&#x23;" horiz-adv-x="747" d="M432 417 L486 417 L423 282 L369 282 L432 417 Z M718 567 L770 679 C772 691 764 700 752 700 L633 700 C621 700 613 690 607 679 L555 567 L501 567 L553 679 C555 691 547 700 535 700 L416 700 C404 700 396 690 390 679 L338 567 L271 567 C259 567 249 558 247 546 L232 438 C230 426 238 417 250 417 L269 417 L206 282 L120 282 C108 282 98 273 96 261 L81 153 C79 141 87 132 99 132 L137 132 L85 21 C84 9 92 0 104 0 L223 0 C235 0 242 10 248 21 L300 132 L355 132 L302 21 C301 9 309 0 321 0 L440 0 C452 0 459 10 465 21 L517 132 L574 132 C586 132 596 141 598 153 L613 261 C615 273 607 282 595 282 L586 282 L648 417 L724 417 C736 417 746 426 748 438 L763 546 C765 558 757 567 745 567 L718 567 Z " />
<glyph glyph-name="dollar" unicode="&#x24;" horiz-adv-x="553" d="M289 492 L292 517 C295 538 314 555 334 555 L368 555 C387 555 400 538 397 517 L394 491 C392 479 400 470 412 470 L528 470 C540 470 550 479 552 491 L556 524 C568 609 519 678 443 699 L458 811 C460 823 452 832 440 832 L338 832 C326 832 316 823 314 811 L299 699 C215 679 145 609 133 524 L130 503 C92 233 377 310 362 206 L359 183 C356 162 337 145 318 145 L273 145 C254 145 240 162 243 183 L248 215 C249 227 242 236 230 236 L114 236 C102 236 91 227 90 215 L84 176 C72 90 123 20 201 0 L184 -116 C183 -128 190 -137 202 -137 L304 -137 C316 -137 327 -128 328 -116 L344 -1 C432 16 505 88 517 176 L519 192 C559 474 272 373 289 492 L289 492 Z " />
<glyph glyph-name="percent" unicode="&#x25;" horiz-adv-x="776" d="M299 700 C222 700 149 637 138 558 C127 481 182 417 259 417 C339 417 411 481 422 558 C433 637 379 700 299 700 L299 700 Z M273 517 C251 517 235 536 238 558 C241 581 263 600 285 600 C308 600 324 581 321 558 C318 536 296 517 273 517 L273 517 Z M707 679 C709 691 701 700 689 700 L570 700 C558 700 550 690 544 679 L163 21 C162 9 170 0 182 0 L301 0 C313 0 320 10 326 21 L707 679 Z M612 283 C535 283 462 220 451 141 C440 64 496 0 573 0 C653 0 724 64 735 141 C746 220 692 283 612 283 L612 283 Z M587 100 C565 100 548 119 551 141 C555 164 576 183 598 183 C621 183 638 164 634 141 C631 119 610 100 587 100 L587 100 Z " />
<glyph glyph-name="ampersand" unicode="&#x26;" horiz-adv-x="586" d="M360 278 L342 150 L274 150 C254 150 241 167 244 188 L251 240 C254 261 272 278 292 278 L360 278 Z M569 278 C581 278 591 287 593 299 L607 401 C609 413 601 422 589 422 L337 422 C318 422 304 439 307 460 L315 517 C318 538 337 555 356 555 L364 555 C382 555 396 538 393 517 L389 484 C387 472 395 463 407 463 L523 463 C535 463 545 472 547 484 L552 524 C566 625 497 705 393 705 L371 705 C267 705 172 625 158 524 L149 459 C144 425 156 393 169 367 C132 334 100 290 93 241 L85 181 C71 80 141 0 245 0 L458 0 C470 0 480 9 481 21 L518 278 L569 278 Z " />
<glyph glyph-name="quotesingle" unicode="&#x27;" horiz-adv-x="269" d="M139 460 C138 448 145 439 157 439 L235 439 C247 439 256 448 259 460 L291 584 L304 679 C306 691 298 700 286 700 L179 700 C167 700 157 691 155 679 L142 584 L139 460 Z " />
<glyph glyph-name="parenleft" unicode="&#x28;" horiz-adv-x="329" d="M261 312 C282 460 324 634 379 784 C380 796 373 805 361 805 L244 805 C232 805 221 796 217 784 C163 636 124 462 103 312 C82 162 72 -9 84 -157 C86 -169 93 -178 105 -178 L222 -178 C234 -178 245 -169 246 -157 C234 -7 241 164 261 312 L261 312 Z " />
<glyph glyph-name="parenright" unicode="&#x29;" horiz-adv-x="329" d="M154 312 C134 164 93 -7 37 -157 C36 -169 43 -178 55 -178 L172 -178 C184 -178 195 -169 199 -157 C253 -9 291 162 312 312 C333 462 344 636 332 784 C330 796 323 805 311 805 L194 805 C182 805 171 796 170 784 C183 634 175 460 154 312 L154 312 Z " />
<glyph glyph-name="asterisk" unicode="&#x2a;" horiz-adv-x="500" d="M306 700 C296 700 286 693 284 683 L272 595 L223 630 C220 632 217 634 214 634 C209 634 201 631 197 627 L141 558 C138 554 137 550 136 547 C136 542 137 538 142 534 L218 476 L149 405 C146 402 144 398 144 395 C143 388 147 383 149 381 L204 325 C207 323 211 322 214 322 C220 322 225 324 228 327 L306 405 L362 327 C365 324 370 322 376 322 C379 322 383 323 386 325 L457 381 C459 383 465 388 466 395 C466 398 466 402 463 405 L414 476 L508 534 C513 538 516 542 516 547 C517 550 516 554 515 558 L479 627 C475 631 469 634 464 634 C461 634 456 632 453 630 L394 595 L406 683 C408 693 400 700 390 700 L306 700 Z " />
<glyph glyph-name="plus" unicode="&#x2b;" horiz-adv-x="418" d="M333 326 L346 419 C348 431 340 440 328 440 L212 440 C200 440 190 431 188 419 L175 326 L126 326 C114 326 104 317 102 305 L87 198 C86 186 93 177 105 177 L154 177 L141 84 C140 72 147 63 159 63 L275 63 C287 63 298 72 299 84 L312 177 L361 177 C373 177 384 186 385 198 L400 305 C402 317 394 326 382 326 L333 326 Z " />
<glyph glyph-name="comma" unicode="&#x2c;" horiz-adv-x="333" d="M173 -99 C185 -99 194 -89 200 -79 L285 90 C287 100 280 109 269 109 L161 109 C149 109 139 99 133 90 L48 -79 C47 -90 55 -99 65 -99 L173 -99 Z " />
<glyph glyph-name="hyphen" unicode="&#x2d;" horiz-adv-x="365" d="M308 176 C320 176 331 185 332 197 L347 305 C349 317 341 326 329 326 L126 326 C114 326 104 317 102 305 L87 197 C86 185 93 176 105 176 L308 176 Z " />
<glyph glyph-name="period" unicode="&#x2e;" horiz-adv-x="278" d="M62 16 C60 4 68 -5 80 -5 L196 -5 C208 -5 218 4 220 16 L236 134 C238 146 230 155 218 155 L102 155 C90 155 80 146 78 134 L62 16 Z " />
<glyph glyph-name="slash" unicode="&#x2f;" horiz-adv-x="584" d="M38 -153 C36 -165 44 -174 56 -174 L175 -174 C187 -174 196 -164 202 -153 L634 783 C635 795 627 804 615 804 L496 804 C484 804 475 794 470 783 L38 -153 Z " />
<glyph glyph-name="zero" unicode="0" horiz-adv-x="529" d="M262 145 C244 145 230 162 233 183 L280 517 C283 538 302 555 320 555 L365 555 C384 555 396 538 393 517 L346 183 C343 162 326 145 307 145 L262 145 Z M290 -5 C395 -5 489 75 503 176 L552 524 C566 625 495 705 390 705 L337 705 C232 705 137 625 123 524 L74 176 C60 75 132 -5 237 -5 L290 -5 Z " />
<glyph glyph-name="one" unicode="1" horiz-adv-x="485" d="M442 679 C444 691 436 700 424 700 L302 700 L151 643 C139 639 128 629 126 617 L112 514 C110 502 118 493 130 493 L265 542 L210 150 L110 150 C98 150 87 141 86 129 L70 21 C69 9 77 0 89 0 L449 0 C461 0 471 9 472 21 L488 129 C489 141 482 150 470 150 L368 150 L442 679 Z " />
<glyph glyph-name="two" unicode="2" horiz-adv-x="503" d="M219 150 L222 172 C239 292 489 188 529 476 L536 524 C550 625 478 705 374 705 L325 705 C221 705 128 625 114 524 L110 491 C108 479 116 470 128 470 L244 470 C256 470 266 479 268 491 L271 517 C274 538 293 555 311 555 L348 555 C367 555 380 538 377 517 L370 466 C353 346 102 447 63 164 L42 21 C41 9 49 0 61 0 L442 0 C454 0 464 9 465 21 L481 129 C482 141 475 150 463 150 L219 150 Z " />
<glyph glyph-name="three" unicode="3" horiz-adv-x="513" d="M335 183 C332 162 314 145 295 145 L257 145 C239 145 225 162 228 183 L232 209 C234 221 226 230 214 230 L98 230 C86 230 76 221 74 209 L69 176 C55 75 125 -5 229 -5 L279 -5 C383 -5 478 75 492 176 L502 249 C508 287 493 326 471 355 C503 384 527 420 532 461 L541 524 C555 625 483 705 379 705 L329 705 C225 705 132 625 118 524 L114 491 C112 479 120 470 132 470 L248 470 C260 470 270 479 272 491 L275 517 C278 538 297 555 315 555 L353 555 C372 555 385 538 382 517 L375 468 C372 446 354 430 335 430 L290 430 C278 430 268 421 266 409 L251 301 C249 289 257 280 269 280 L316 280 C333 278 346 262 344 242 L335 183 Z " />
<glyph glyph-name="four" unicode="4" horiz-adv-x="525" d="M470 679 C472 691 464 700 452 700 L325 700 C313 700 305 690 299 679 L52 233 L42 159 C40 147 48 138 60 138 L302 138 L285 21 C284 9 292 0 304 0 L420 0 C432 0 442 9 443 21 L460 138 L496 138 C513 138 526 150 528 166 L541 260 C543 276 534 288 517 288 L481 288 L494 382 C496 394 488 403 476 403 L360 403 C348 403 338 394 336 382 L323 288 L255 288 L470 679 Z " />
<glyph glyph-name="five" unicode="5" horiz-adv-x="512" d="M92 297 C91 285 98 276 110 276 L220 276 C229 276 241 283 246 291 C253 300 264 304 273 304 L321 304 C341 304 354 288 351 266 L339 183 C336 162 319 145 299 145 L262 145 C244 145 230 162 233 183 L236 206 C238 218 230 227 218 227 L102 227 C90 227 80 218 78 206 L74 176 C60 75 132 -5 237 -5 L284 -5 C388 -5 482 75 496 176 L510 273 C524 374 452 454 348 454 L305 454 C297 454 283 452 272 449 L286 550 L484 550 C496 550 506 559 508 571 L523 679 C525 691 517 700 505 700 L170 700 C158 700 148 691 146 679 L92 297 Z " />
<glyph glyph-name="six" unicode="6" horiz-adv-x="519" d="M263 145 C243 145 230 162 233 183 L244 262 C247 284 265 300 285 300 L328 300 C347 300 360 284 357 262 L346 183 C343 162 325 145 306 145 L263 145 Z M542 524 C556 625 486 705 382 705 L337 705 C233 705 137 625 123 524 L74 176 C60 75 133 -5 237 -5 L291 -5 C395 -5 489 75 503 176 L516 269 C531 370 459 450 355 450 L305 450 C295 450 281 447 270 442 L280 517 C283 538 301 555 321 555 L354 555 C372 555 387 541 383 517 L381 499 C379 487 387 478 399 478 L515 478 C527 478 537 487 539 499 L542 524 Z " />
<glyph glyph-name="seven" unicode="7" horiz-adv-x="447" d="M264 21 C313 187 374 405 501 566 L517 679 C519 691 511 700 499 700 L144 700 C132 700 122 691 120 679 L105 571 C103 559 111 550 123 550 L324 550 C198 383 149 192 105 21 C104 9 112 0 124 0 L239 0 C251 0 260 9 264 21 L264 21 Z " />
<glyph glyph-name="eight" unicode="8" horiz-adv-x="524" d="M312 426 C294 426 280 443 283 464 L290 517 C293 538 313 555 331 555 L349 555 C367 555 381 538 378 517 L371 464 C368 443 348 426 330 426 L312 426 Z M325 276 C343 276 357 260 354 238 L346 183 C343 162 325 145 307 145 L257 145 C239 145 225 162 228 183 L236 238 C239 260 257 276 275 276 L325 276 Z M290 -5 C394 -5 489 75 503 176 L513 245 C519 286 503 332 472 362 C501 388 523 424 528 457 L537 524 C551 625 480 705 376 705 L346 705 C242 705 147 625 133 524 L124 457 C119 424 131 388 152 362 C113 332 85 286 79 245 L69 176 C55 75 128 -5 232 -5 L290 -5 Z " />
<glyph glyph-name="nine" unicode="9" horiz-adv-x="509" d="M354 555 C374 555 386 538 383 517 L372 438 C369 416 352 400 332 400 L289 400 C270 400 256 416 259 438 L270 517 C273 538 292 555 311 555 L354 555 Z M74 176 C60 75 131 -5 235 -5 L280 -5 C384 -5 479 75 493 176 L542 524 C556 625 484 705 380 705 L326 705 C222 705 127 625 113 524 L100 431 C86 330 158 250 262 250 L312 250 C322 250 335 253 347 258 L336 183 C333 162 316 145 296 145 L263 145 C245 145 230 159 233 183 L236 201 C237 213 230 222 218 222 L102 222 C90 222 79 213 78 201 L74 176 Z " />
<glyph glyph-name="colon" unicode="&#x3a;" horiz-adv-x="278" d="M62 16 C60 4 68 -5 80 -5 L196 -5 C208 -5 218 4 220 16 L236 134 C238 146 230 155 218 155 L102 155 C90 155 80 146 78 134 L62 16 Z M102 301 C100 289 108 280 120 280 L236 280 C248 280 258 289 260 301 L276 419 C278 431 270 440 258 440 L142 440 C130 440 120 431 118 419 L102 301 Z " />
<glyph glyph-name="semicolon" unicode="&#x3b;" horiz-adv-x="333" d="M156 301 C154 289 162 280 174 280 L290 280 C302 280 312 289 314 301 L330 419 C332 431 324 440 312 440 L196 440 C184 440 174 431 172 419 L156 301 Z M173 -99 C185 -99 194 -89 200 -79 L285 90 C287 100 280 109 269 109 L161 109 C149 109 139 99 133 90 L48 -79 C47 -90 55 -99 65 -99 L173 -99 Z " />
<glyph glyph-name="less" unicode="&#x3c;" horiz-adv-x="356" d="M82 162 C81 152 87 146 98 142 L288 72 C298 72 307 79 308 90 L322 187 C323 198 316 206 307 209 L233 233 L235 246 L315 270 C326 273 335 281 337 292 L350 389 C352 400 345 407 335 407 L126 336 C113 332 105 326 104 316 L82 162 Z " />
<glyph glyph-name="equal" unicode="&#x3d;" horiz-adv-x="361" d="M291 82 C303 82 313 91 315 103 L328 196 C330 208 322 217 310 217 L111 217 C99 217 89 208 87 196 L74 103 C72 91 80 82 92 82 L291 82 Z M316 263 C328 263 339 272 340 284 L353 377 C355 389 347 398 335 398 L136 398 C124 398 114 389 112 377 L99 284 C98 272 105 263 117 263 L316 263 Z " />
<glyph glyph-name="greater" unicode="&#x3e;" horiz-adv-x="356" d="M340 316 C341 326 335 332 324 336 L135 407 C125 407 116 400 114 389 L101 292 C99 281 106 273 115 270 L189 246 L187 233 L107 209 C96 206 87 198 86 187 L72 90 C71 79 78 72 88 72 L296 142 C309 146 317 152 318 162 L340 316 Z " />
<glyph glyph-name="question" unicode="&#x3f;" horiz-adv-x="542" d="M555 524 C569 625 497 705 393 705 L344 705 C240 705 147 625 133 524 L129 491 C127 479 135 470 147 470 L263 470 C275 470 285 479 287 491 L290 517 C293 538 312 555 330 555 L367 555 C386 555 399 538 396 517 L392 485 C374 357 227 456 193 214 L189 188 C187 176 195 167 207 167 L323 167 C335 167 345 176 347 188 L350 210 C367 330 514 233 549 481 L555 524 Z M162 16 C160 4 168 -5 180 -5 L302 -5 C314 -5 324 4 326 16 L339 113 C341 125 333 134 321 134 L199 134 C187 134 177 125 175 113 L162 16 Z " />
<glyph glyph-name="at" unicode="&#x40;" horiz-adv-x="676" d="M451 329 C453 345 459 359 474 359 L490 359 C505 359 506 345 504 329 L493 254 C491 238 486 224 471 224 L455 224 C440 224 438 238 440 254 L451 329 Z M532 470 L516 470 C506 500 468 506 459 506 L442 506 C346 506 309 436 296 344 L281 239 C268 147 285 77 381 77 L398 77 C407 77 447 83 465 113 L473 113 L472 103 C470 91 478 82 490 82 L606 82 C618 82 628 91 630 103 L688 519 C703 620 631 700 527 700 L344 700 C240 700 147 620 132 519 L69 66 C55 -35 125 -115 229 -115 L449 -115 C461 -115 472 -106 473 -94 L488 8 C489 20 482 29 470 29 L248 29 C230 29 215 46 218 67 L281 518 C284 539 304 556 322 556 L509 556 C529 556 541 539 538 518 L532 470 Z " />
<glyph glyph-name="A" unicode="A" horiz-adv-x="552" d="M376 21 C378 9 385 0 397 0 L516 0 C528 0 538 9 539 21 L473 679 C472 691 464 700 452 700 L296 700 C284 700 274 691 269 679 L17 21 C16 9 24 0 36 0 L155 0 C167 0 176 9 180 21 L212 112 L369 112 L376 21 Z M335 456 L345 456 L358 261 L265 261 L335 456 Z " />
<glyph glyph-name="B" unicode="B" horiz-adv-x="513" d="M277 424 L295 551 L338 551 C357 551 371 534 368 513 L360 462 C357 441 339 424 320 424 L277 424 Z M326 275 C346 275 359 258 356 237 L349 187 C346 166 328 149 308 149 L238 149 L256 275 L326 275 Z M179 700 C167 700 157 691 155 679 L62 21 C61 9 69 0 81 0 L295 0 C399 0 494 80 508 181 L516 241 C523 289 501 334 468 367 C494 392 515 424 520 459 L528 519 C543 620 470 700 366 700 L179 700 Z " />
<glyph glyph-name="C" unicode="C" horiz-adv-x="514" d="M510 221 C511 233 504 242 492 242 L376 242 C364 242 353 233 352 221 L346 183 C343 162 326 145 307 145 L262 145 C244 145 230 162 233 183 L280 517 C283 538 302 555 320 555 L365 555 C384 555 396 538 393 517 L388 479 C386 467 394 458 406 458 L522 458 C534 458 544 467 546 479 L552 524 C566 625 495 705 390 705 L337 705 C232 705 137 625 123 524 L74 176 C60 75 132 -5 237 -5 L290 -5 C395 -5 489 75 503 176 L510 221 Z " />
<glyph glyph-name="D" unicode="D" horiz-adv-x="540" d="M62 21 C61 9 69 0 81 0 L302 0 C406 0 501 80 515 181 L562 519 C577 620 504 700 400 700 L179 700 C167 700 157 691 155 679 L62 21 Z M374 551 C393 551 407 534 404 513 L358 187 C355 166 336 149 317 149 L238 149 L295 551 L374 551 Z " />
<glyph glyph-name="E" unicode="E" horiz-adv-x="473" d="M239 150 L258 287 L420 287 C432 287 442 296 444 308 L459 416 C461 428 453 437 441 437 L279 437 L295 550 L479 550 C491 550 501 559 503 571 L518 679 C520 691 512 700 500 700 L179 700 C167 700 157 691 155 679 L62 21 C61 9 69 0 81 0 L402 0 C414 0 424 9 425 21 L441 129 C442 141 435 150 423 150 L239 150 Z " />
<glyph glyph-name="F" unicode="F" horiz-adv-x="442" d="M415 262 C427 262 438 271 439 283 L454 391 C456 403 448 412 436 412 L275 412 L295 550 L478 550 C490 550 500 559 502 571 L517 679 C519 691 511 700 499 700 L179 700 C167 700 157 691 155 679 L62 21 C61 9 69 0 81 0 L197 0 C209 0 219 9 220 21 L254 262 L415 262 Z " />
<glyph glyph-name="G" unicode="G" horiz-adv-x="529" d="M347 406 C335 406 324 397 323 385 L308 283 C307 271 314 262 326 262 L357 262 L346 183 C343 162 326 145 307 145 L262 145 C244 145 230 162 233 183 L280 517 C283 538 302 555 320 555 L365 555 C384 555 396 538 393 517 L388 479 C386 467 394 458 406 458 L522 458 C534 458 544 467 546 479 L552 524 C566 625 495 705 390 705 L337 705 C232 705 137 625 123 524 L74 176 C60 75 132 -5 237 -5 L290 -5 C395 -5 489 75 503 176 L533 385 C534 397 527 406 515 406 L347 406 Z " />
<glyph glyph-name="H" unicode="H" horiz-adv-x="546" d="M330 21 C329 9 337 0 349 0 L465 0 C477 0 487 9 488 21 L581 679 C583 691 575 700 563 700 L447 700 C435 700 425 691 423 679 L386 414 L276 414 L313 679 C315 691 307 700 295 700 L179 700 C167 700 157 691 155 679 L62 21 C61 9 69 0 81 0 L197 0 C209 0 219 9 220 21 L255 265 L365 265 L330 21 Z " />
<glyph glyph-name="I" unicode="I" horiz-adv-x="278" d="M62 21 C61 9 69 0 81 0 L197 0 C209 0 219 9 220 21 L313 679 C315 691 307 700 295 700 L179 700 C167 700 157 691 155 679 L62 21 Z " />
<glyph glyph-name="J" unicode="J" horiz-adv-x="394" d="M6 70 C31 38 70 -5 153 -5 C296 -5 366 88 380 185 L449 679 C451 691 443 700 431 700 L315 700 C303 700 293 691 291 679 L222 187 C221 183 216 145 168 145 C152 145 139 145 123 168 C120 171 113 173 108 173 C102 173 97 171 93 168 L12 101 C5 95 2 91 1 84 C1 80 2 75 6 70 L6 70 Z " />
<glyph glyph-name="K" unicode="K" horiz-adv-x="526" d="M324 425 L277 425 L313 679 C315 691 307 700 295 700 L179 700 C167 700 157 691 155 679 L62 21 C61 9 69 0 81 0 L197 0 C209 0 219 9 220 21 L256 275 L301 275 L343 21 C347 10 356 0 368 0 L484 0 C496 0 506 9 507 21 L452 351 L597 679 C599 691 591 700 579 700 L465 700 C453 700 441 690 435 679 L324 425 Z " />
<glyph glyph-name="L" unicode="L" horiz-adv-x="442" d="M239 150 L313 679 C315 691 307 700 295 700 L179 700 C167 700 157 691 155 679 L62 21 C61 9 69 0 81 0 L401 0 C413 0 423 9 424 21 L440 129 C441 141 434 150 422 150 L239 150 Z " />
<glyph glyph-name="M" unicode="M" horiz-adv-x="694" d="M389 88 C406 88 411 97 419 109 L516 288 L478 21 C477 9 485 0 497 0 L613 0 C625 0 635 9 636 21 L729 679 C731 691 723 700 711 700 L595 700 C583 700 572 690 566 679 L405 383 L395 383 L318 679 C314 690 307 700 295 700 L179 700 C167 700 157 691 155 679 L62 21 C61 9 69 0 81 0 L197 0 C209 0 219 9 220 21 L258 288 L305 109 C309 97 312 88 329 88 L389 88 Z " />
<glyph glyph-name="N" unicode="N" horiz-adv-x="577" d="M405 392 L349 679 C345 690 340 700 328 700 L179 700 C167 700 157 691 155 679 L62 21 C61 9 69 0 81 0 L197 0 C209 0 219 9 220 21 L261 311 L270 311 L325 21 C328 10 335 0 347 0 L496 0 C508 0 518 9 519 21 L612 679 C614 691 606 700 594 700 L478 700 C466 700 456 691 454 679 L414 392 L405 392 Z " />
<glyph glyph-name="O" unicode="O" horiz-adv-x="529" d="M262 145 C244 145 230 162 233 183 L280 517 C283 538 302 555 320 555 L365 555 C384 555 396 538 393 517 L346 183 C343 162 326 145 307 145 L262 145 Z M290 -5 C395 -5 489 75 503 176 L552 524 C566 625 495 705 390 705 L337 705 C232 705 137 625 123 524 L74 176 C60 75 132 -5 237 -5 L290 -5 Z " />
<glyph glyph-name="P" unicode="P" horiz-adv-x="523" d="M266 343 L295 550 L367 550 C387 550 399 533 396 512 L378 381 C375 361 358 343 338 343 L266 343 Z M179 700 C167 700 157 691 155 679 L62 21 C61 9 69 0 81 0 L197 0 C209 0 219 9 220 21 L245 193 L322 193 C426 193 521 273 535 374 L555 519 C570 620 497 700 393 700 L179 700 Z " />
<glyph glyph-name="Q" unicode="Q" horiz-adv-x="529" d="M390 705 L337 705 C232 705 137 625 123 524 L74 176 C62 86 117 12 204 -2 L235 -99 C238 -109 244 -118 255 -118 L358 -118 C369 -118 378 -110 380 -99 L349 3 C428 27 492 94 503 176 L552 524 C566 625 495 705 390 705 L390 705 Z M280 517 C283 538 302 555 320 555 L365 555 C384 555 396 538 393 517 L346 183 C343 162 326 145 307 145 L262 145 C244 145 230 162 233 183 L280 517 Z " />
<glyph glyph-name="R" unicode="R" horiz-adv-x="535" d="M440 230 C490 262 527 315 535 374 L555 519 C570 620 497 700 393 700 L179 700 C167 700 157 691 155 679 L62 21 C61 9 69 0 81 0 L197 0 C209 0 219 9 220 21 L245 193 L279 193 L331 21 C335 10 344 0 356 0 L484 0 C496 0 506 9 507 21 L440 230 Z M295 550 L367 550 C387 550 399 533 396 512 L378 381 C375 361 358 343 338 343 L266 343 L295 550 Z " />
<glyph glyph-name="S" unicode="S" horiz-adv-x="498" d="M274 -5 C378 -5 473 75 487 176 L489 192 C529 474 242 373 259 492 L262 517 C265 538 284 555 304 555 L338 555 C357 555 370 538 367 517 L364 491 C362 479 370 470 382 470 L498 470 C510 470 520 479 522 491 L526 524 C540 625 468 705 366 705 L317 705 C213 705 117 625 103 524 L100 503 C62 233 347 310 332 206 L329 183 C326 162 307 145 288 145 L243 145 C224 145 210 162 213 183 L218 215 C219 227 212 236 200 236 L84 236 C72 236 61 227 60 215 L54 176 C40 75 113 -5 215 -5 L274 -5 Z " />
<glyph glyph-name="T" unicode="T" horiz-adv-x="468" d="M144 700 C132 700 122 691 120 679 L105 571 C103 559 111 550 123 550 L232 550 L157 21 C156 9 164 0 176 0 L292 0 C304 0 314 9 315 21 L390 550 L499 550 C511 550 521 559 523 571 L538 679 C540 691 532 700 520 700 L144 700 Z " />
<glyph glyph-name="U" unicode="U" horiz-adv-x="539" d="M296 -5 C401 -5 494 75 508 176 L579 679 C581 691 573 700 561 700 L445 700 C433 700 423 691 421 679 L351 183 C348 162 330 145 312 145 L267 145 C249 145 235 162 238 183 L308 679 C310 691 302 700 290 700 L174 700 C162 700 152 691 150 679 L79 176 C65 75 136 -5 241 -5 L296 -5 Z " />
<glyph glyph-name="V" unicode="V" horiz-adv-x="552" d="M315 244 L305 244 L273 679 C272 691 265 700 253 700 L134 700 C122 700 112 691 110 679 L176 21 C178 9 186 0 198 0 L354 0 C366 0 376 9 380 21 L632 679 C634 691 626 700 614 700 L495 700 C483 700 474 691 469 679 L315 244 Z " />
<glyph glyph-name="W" unicode="W" horiz-adv-x="730" d="M421 700 C409 700 399 691 395 679 L269 320 L271 679 C271 691 263 700 251 700 L134 700 C122 700 112 691 110 679 L132 25 C133 11 144 0 160 0 L278 0 C295 0 305 10 310 26 L407 299 L426 26 C427 10 435 0 452 0 L570 0 C586 0 599 11 604 25 L810 679 C812 691 804 700 792 700 L675 700 C663 700 653 691 649 679 L549 320 L525 679 C525 691 517 700 505 700 L421 700 Z " />
<glyph glyph-name="X" unicode="X" horiz-adv-x="531" d="M304 238 L351 21 C355 10 362 0 374 0 L490 0 C502 0 512 9 513 21 L444 349 L606 679 C608 691 600 700 588 700 L472 700 C460 700 450 690 444 679 L335 460 L324 460 L277 679 C273 690 267 700 255 700 L139 700 C127 700 117 691 115 679 L185 349 L22 21 C21 9 29 0 41 0 L157 0 C169 0 178 10 184 21 L293 238 L304 238 Z " />
<glyph glyph-name="Y" unicode="Y" horiz-adv-x="538" d="M337 436 L323 436 L266 679 C262 690 258 700 246 700 L129 700 C117 700 107 691 105 679 L221 227 L192 21 C191 9 199 0 211 0 L327 0 C339 0 349 9 350 21 L379 227 L623 679 C625 691 617 700 605 700 L488 700 C476 700 468 690 462 679 L337 436 Z " />
<glyph glyph-name="Z" unicode="Z" horiz-adv-x="470" d="M249 150 L512 597 C515 602 521 612 521 617 L530 679 C532 691 524 700 512 700 L154 700 C142 700 132 691 130 679 L115 571 C113 559 121 550 133 550 L318 550 L55 103 C52 98 47 88 46 83 L37 21 C36 9 44 0 56 0 L414 0 C426 0 436 9 437 21 L453 129 C454 141 447 150 435 150 L249 150 Z " />
<glyph glyph-name="bracketleft" unicode="&#x5b;" horiz-adv-x="383" d="M214 -27 L310 655 L394 655 C406 655 416 664 418 676 L433 784 C434 796 427 805 415 805 L194 805 C182 805 171 796 170 784 L38 -156 C36 -168 44 -177 56 -177 L277 -177 C289 -177 299 -168 301 -156 L316 -48 C317 -36 310 -27 298 -27 L214 -27 Z " />
<glyph glyph-name="backslash" unicode="&#x5c;" horiz-adv-x="584" d="M334 783 C331 794 324 804 312 804 L193 804 C181 804 171 795 170 783 L338 -153 C340 -164 347 -174 359 -174 L478 -174 C490 -174 500 -165 502 -153 L334 783 Z " />
<glyph glyph-name="bracketright" unicode="&#x5d;" horiz-adv-x="383" d="M77 -27 C65 -27 54 -36 53 -48 L38 -156 C36 -168 44 -177 56 -177 L277 -177 C289 -177 299 -168 301 -156 L433 784 C434 796 427 805 415 805 L194 805 C182 805 171 796 170 784 L155 676 C153 664 161 655 173 655 L257 655 L161 -27 L77 -27 Z " />
<glyph glyph-name="asciicircum" unicode="&#x5e;" horiz-adv-x="450" d="M274 700 C257 700 246 691 238 679 L131 512 C130 500 137 492 149 492 L248 492 C260 492 269 501 274 512 L303 555 L318 512 C321 501 328 492 340 492 L439 492 C451 492 460 500 461 512 L402 679 C398 691 389 700 372 700 L274 700 Z " />
<glyph glyph-name="underscore" unicode="&#x5f;" horiz-adv-x="366" d="M266 -133 C278 -133 288 -124 290 -112 L305 -4 C307 8 299 17 287 17 L83 17 C71 17 61 8 59 -4 L44 -112 C42 -124 50 -133 62 -133 L266 -133 Z " />
<glyph glyph-name="grave" unicode="&#x60;" horiz-adv-x="347" d="M337 492 C347 492 357 501 358 512 L307 681 C303 690 297 700 285 700 L177 700 C166 700 157 691 155 681 L206 512 C210 502 217 492 229 492 L337 492 Z " />
<glyph glyph-name="a" unicode="a" horiz-adv-x="436" d="M174 361 C208 371 214 373 244 373 C282 373 282 351 278 322 L239 322 C143 322 78 275 65 182 L60 143 C47 50 68 -5 153 -5 L163 -5 C170 -5 205 -5 229 31 L237 31 L235 21 C234 9 242 0 254 0 L370 0 C382 0 392 9 393 21 L436 324 C453 443 414 520 288 520 C208 520 182 507 161 500 C150 497 142 490 141 480 C141 478 139 467 149 377 C151 364 158 360 164 360 C166 360 170 360 174 361 L174 361 Z M205 174 C207 190 218 201 232 201 L261 201 L255 163 C253 149 246 136 234 136 L223 136 C209 136 201 149 203 163 L205 174 Z " />
<glyph glyph-name="b" unicode="b" horiz-adv-x="468" d="M295 172 C292 156 286 142 271 142 L255 142 C240 142 239 156 242 172 L266 343 C268 359 273 373 288 373 L304 373 C319 373 321 359 319 343 L295 172 Z M286 484 L313 679 C315 691 307 700 295 700 L179 700 C167 700 157 691 155 679 L62 21 C61 9 69 0 81 0 L197 0 C209 0 219 9 220 21 L222 31 L230 31 C240 1 278 -5 287 -5 L304 -5 C400 -5 437 65 450 157 L478 358 C491 450 474 520 378 520 L361 520 C352 520 312 514 294 484 L286 484 Z " />
<glyph glyph-name="c" unicode="c" horiz-adv-x="423" d="M270 172 C267 156 261 142 248 142 L233 142 C220 142 218 156 221 172 L245 343 C247 359 253 373 266 373 L281 373 C294 373 296 359 294 343 L292 332 C290 320 298 311 310 311 L420 311 C432 311 442 320 444 332 L448 358 C459 438 408 520 310 520 L279 520 C181 520 106 438 95 358 L66 156 C55 77 107 -5 205 -5 L236 -5 C334 -5 408 77 419 156 L423 183 C425 195 417 204 405 204 L295 204 C283 204 273 195 271 183 L270 172 Z " />
<glyph glyph-name="d" unicode="d" horiz-adv-x="468" d="M245 343 C247 359 253 373 268 373 L284 373 C299 373 300 359 298 343 L274 172 C271 156 266 142 251 142 L235 142 C220 142 218 156 221 172 L245 343 Z M310 484 C300 514 262 520 253 520 L236 520 C140 520 103 450 90 358 L62 157 C49 65 66 -5 162 -5 L179 -5 C188 -5 228 1 246 31 L254 31 L252 21 C251 9 259 0 271 0 L387 0 C399 0 409 9 410 21 L503 679 C505 691 497 700 485 700 L369 700 C357 700 347 691 345 679 L318 484 L310 484 Z " />
<glyph glyph-name="e" unicode="e" horiz-adv-x="436" d="M242 343 C244 359 251 373 264 373 L282 373 C295 373 298 359 296 343 L291 312 L237 312 L242 343 Z M394 81 C396 85 399 90 400 93 C401 100 399 104 393 109 L328 170 C325 172 320 173 317 173 C309 173 303 169 298 164 C288 155 274 142 256 142 L242 142 C227 142 224 156 227 172 L230 197 L395 197 C412 197 425 208 427 225 L446 358 C457 438 422 520 322 520 L264 520 C166 520 106 438 95 358 L66 156 C55 77 92 -5 190 -5 L256 -5 C256 -5 332 -2 394 81 L394 81 Z " />
<glyph glyph-name="f" unicode="f" horiz-adv-x="336" d="M76 21 C75 9 83 0 95 0 L211 0 C223 0 233 9 234 21 L283 368 L340 368 C352 368 362 377 364 389 L379 494 C381 506 373 515 361 515 L304 515 L309 550 C311 566 328 580 343 580 L371 580 C383 580 393 589 395 601 L410 706 C411 718 404 727 392 727 L337 727 C238 727 169 645 153 565 L146 515 L108 515 C96 515 86 506 84 494 L69 389 C67 377 75 368 87 368 L125 368 L76 21 Z " />
<glyph glyph-name="g" unicode="g" horiz-adv-x="468" d="M245 343 C247 359 253 373 268 373 L284 373 C299 373 300 359 298 343 L274 172 C271 156 266 142 251 142 L235 142 C220 142 218 156 221 172 L245 343 Z M246 -22 C244 -38 240 -60 190 -60 C128 -60 119 -49 112 -49 C103 -49 97 -54 92 -66 C61 -146 56 -163 55 -166 C54 -175 59 -179 68 -183 C88 -190 111 -203 184 -203 C375 -203 398 -70 405 -20 L477 494 C479 506 471 515 459 515 L343 515 C331 515 321 506 319 494 L318 484 L310 484 C300 514 262 520 253 520 L236 520 C140 520 103 450 90 358 L62 157 C49 65 66 -5 162 -5 L179 -5 C188 -5 228 1 246 31 L254 31 L246 -22 Z " />
<glyph glyph-name="h" unicode="h" horiz-adv-x="469" d="M298 373 C312 373 311 359 309 343 L263 21 C262 9 270 0 282 0 L398 0 C410 0 420 9 421 21 L469 357 C482 450 482 520 386 520 L374 520 C350 520 322 510 291 470 L284 470 L313 679 C315 691 307 700 295 700 L179 700 C167 700 157 691 155 679 L62 21 C61 9 69 0 81 0 L197 0 C209 0 219 9 220 21 L265 338 C269 366 284 373 291 373 L298 373 Z " />
<glyph glyph-name="i" unicode="i" horiz-adv-x="278" d="M62 21 C61 9 69 0 81 0 L197 0 C209 0 219 9 220 21 L287 494 C289 506 281 515 269 515 L153 515 C141 515 131 506 129 494 L62 21 Z M138 579 C136 567 144 558 156 558 L278 558 C290 558 300 567 302 579 L316 676 C317 688 309 697 297 697 L175 697 C163 697 153 688 152 676 L138 579 Z " />
<glyph glyph-name="j" unicode="j" horiz-adv-x="278" d="M20 -188 C20 -188 198 -142 220 16 L287 494 C289 506 281 515 269 515 L153 515 C141 515 131 506 129 494 L62 21 C62 21 55 -23 -18 -45 C-27 -47 -32 -56 -33 -63 C-34 -65 -33 -69 -32 -71 L-4 -177 C-3 -186 3 -190 10 -190 C12 -190 18 -189 20 -188 L20 -188 Z M138 579 C136 567 144 558 156 558 L278 558 C290 558 300 567 302 579 L316 676 C317 688 309 697 297 697 L175 697 C163 697 153 688 152 676 L138 579 Z " />
<glyph glyph-name="k" unicode="k" horiz-adv-x="458" d="M269 197 L285 21 C290 9 303 0 315 0 L426 0 C438 0 448 9 449 21 L420 270 L517 494 C519 506 511 515 499 515 L388 515 C370 515 360 507 353 494 L292 342 L266 342 L313 679 C315 691 307 700 295 700 L179 700 C167 700 157 691 155 679 L62 21 C61 9 69 0 81 0 L197 0 C209 0 219 9 220 21 L245 197 L269 197 Z " />
<glyph glyph-name="l" unicode="l" horiz-adv-x="278" d="M62 21 C61 9 69 0 81 0 L197 0 C209 0 219 9 220 21 L313 679 C315 691 307 700 295 700 L179 700 C167 700 157 691 155 679 L62 21 Z " />
<glyph glyph-name="m" unicode="m" horiz-adv-x="680" d="M470 335 C478 363 486 373 501 373 C519 373 522 362 520 342 L474 21 C473 9 481 0 493 0 L609 0 C621 0 631 9 632 21 L680 357 C693 450 659 520 562 520 C542 520 507 516 460 468 L450 468 C431 498 418 520 373 520 C357 520 322 515 291 470 L284 470 L287 494 C289 506 281 515 269 515 L153 515 C141 515 131 506 129 494 L62 21 C61 9 69 0 81 0 L197 0 C209 0 219 9 220 21 L265 335 C273 363 281 373 296 373 C314 373 317 362 315 342 L269 21 C268 9 276 0 288 0 L402 0 C414 0 424 9 425 21 L470 335 Z " />
<glyph glyph-name="n" unicode="n" horiz-adv-x="469" d="M298 373 C312 373 311 359 309 343 L263 21 C262 9 270 0 282 0 L398 0 C410 0 420 9 421 21 L469 357 C482 450 482 520 386 520 L374 520 C350 520 322 510 291 470 L284 470 L287 494 C289 506 281 515 269 515 L153 515 C141 515 131 506 129 494 L62 21 C61 9 69 0 81 0 L197 0 C209 0 219 9 220 21 L265 338 C269 366 284 373 291 373 L298 373 Z " />
<glyph glyph-name="o" unicode="o" horiz-adv-x="443" d="M236 -5 C334 -5 408 77 419 156 L448 358 C459 438 408 520 310 520 L279 520 C181 520 106 438 95 358 L66 156 C55 77 107 -5 205 -5 L236 -5 Z M245 343 C247 359 253 373 266 373 L281 373 C294 373 296 359 294 343 L270 172 C267 156 261 142 248 142 L233 142 C220 142 218 156 221 172 L245 343 Z " />
<glyph glyph-name="p" unicode="p" horiz-adv-x="468" d="M295 172 C292 156 286 142 271 142 L255 142 C240 142 239 156 242 172 L266 343 C268 359 273 373 288 373 L304 373 C319 373 321 359 319 343 L295 172 Z M286 484 L287 494 C289 506 281 515 269 515 L153 515 C141 515 131 506 129 494 L38 -153 C36 -165 44 -174 56 -174 L172 -174 C184 -174 194 -165 196 -153 L222 31 L230 31 C240 1 278 -5 287 -5 L304 -5 C400 -5 437 65 450 157 L478 358 C491 450 474 520 378 520 L361 520 C352 520 312 514 294 484 L286 484 Z " />
<glyph glyph-name="q" unicode="q" horiz-adv-x="468" d="M245 343 C247 359 253 373 268 373 L284 373 C299 373 300 359 298 343 L274 172 C271 156 266 142 251 142 L235 142 C220 142 218 156 221 172 L245 343 Z M310 484 C300 514 262 520 253 520 L236 520 C140 520 103 450 90 358 L62 157 C49 65 66 -5 162 -5 L179 -5 C188 -5 228 1 246 31 L254 31 L228 -153 C226 -165 234 -174 246 -174 L362 -174 C374 -174 384 -165 386 -153 L477 494 C479 506 471 515 459 515 L343 515 C331 515 321 506 319 494 L318 484 L310 484 Z " />
<glyph glyph-name="r" unicode="r" horiz-adv-x="346" d="M358 367 C370 367 379 374 381 386 L404 487 C406 500 407 508 394 514 C380 520 374 520 364 520 C348 520 326 517 291 474 L284 474 L287 494 C289 506 281 515 269 515 L153 515 C141 515 131 506 129 494 L62 21 C61 9 69 0 81 0 L197 0 C209 0 219 9 220 21 L264 333 C283 373 304 373 312 373 C324 373 337 370 358 367 L358 367 Z " />
<glyph glyph-name="s" unicode="s" horiz-adv-x="415" d="M292 352 C290 340 298 331 310 331 L405 331 C417 331 427 340 429 352 L430 359 C441 438 406 520 308 520 L253 520 C155 520 104 457 87 377 L86 369 C63 200 261 217 254 167 L252 155 C250 139 242 133 227 133 L211 133 C196 133 192 144 194 160 L195 167 C197 179 189 188 177 188 L82 188 C70 188 60 179 58 167 L56 156 C45 77 84 -5 182 -5 L238 -5 C337 -5 393 57 404 137 L406 151 C429 319 232 299 239 353 L241 364 C243 380 250 386 265 386 L275 386 C290 386 295 375 293 359 L292 352 Z " />
<glyph glyph-name="t" unicode="t" horiz-adv-x="330" d="M283 368 L340 368 C352 368 362 377 364 389 L379 494 C381 506 373 515 361 515 L304 515 L327 679 C329 691 321 700 309 700 L193 700 C181 700 171 691 169 679 L146 515 L108 515 C96 515 86 506 84 494 L69 389 C67 377 75 368 87 368 L125 368 L97 170 C83 70 136 0 235 0 L289 0 C301 0 311 9 312 21 L327 125 C329 137 321 146 309 146 L282 146 C267 146 254 160 256 176 L283 368 Z " />
<glyph glyph-name="u" unicode="u" horiz-adv-x="459" d="M247 -5 C345 -5 419 77 430 156 L478 494 C480 506 472 515 460 515 L344 515 C332 515 322 506 320 494 L274 169 C272 153 266 142 254 142 L243 142 C231 142 229 153 231 169 L277 494 C279 506 271 515 259 515 L143 515 C131 515 121 506 119 494 L71 156 C60 77 112 -5 210 -5 L247 -5 Z " />
<glyph glyph-name="v" unicode="v" horiz-adv-x="420" d="M284 0 C296 0 307 9 311 21 L484 494 C486 506 478 515 466 515 L352 515 C340 515 331 506 326 494 L245 218 L235 218 L232 494 C231 506 224 515 212 515 L98 515 C86 515 76 506 74 494 L113 21 C115 9 124 0 136 0 L284 0 Z " />
<glyph glyph-name="w" unicode="w" horiz-adv-x="590" d="M324 515 C312 515 302 506 298 494 L234 301 L234 494 C233 506 226 515 214 515 L98 515 C86 515 76 506 74 494 L109 21 C111 9 118 0 130 0 L225 0 C237 0 246 8 250 21 L323 204 L344 21 C346 8 353 0 365 0 L460 0 C472 0 481 9 485 21 L654 494 C656 506 648 515 636 515 L520 515 C508 515 499 506 494 494 L440 301 L430 494 C430 506 422 515 410 515 L324 515 Z " />
<glyph glyph-name="x" unicode="x" horiz-adv-x="411" d="M233 154 L248 21 C252 10 262 0 274 0 L380 0 C392 0 402 9 403 21 L359 258 L467 494 C469 506 461 515 449 515 L348 515 C336 515 323 505 317 494 L263 369 L250 369 L232 494 C228 505 219 515 207 515 L106 515 C94 515 84 506 82 494 L124 258 L12 21 C11 9 19 0 31 0 L137 0 C149 0 161 10 167 21 L220 154 L233 154 Z " />
<glyph glyph-name="y" unicode="y" horiz-adv-x="420" d="M117 -25 C113 -46 89 -58 70 -58 L28 -58 C16 -58 6 -67 4 -79 L-9 -182 C-11 -194 -3 -203 8 -203 L89 -203 C114 -203 237 -182 299 -13 L484 494 C486 506 478 515 466 515 L352 515 C340 515 331 506 326 494 L245 218 L235 218 L232 494 C231 506 224 515 212 515 L98 515 C86 515 76 506 74 494 L117 -25 Z " />
<glyph glyph-name="z" unicode="z" horiz-adv-x="385" d="M238 148 L403 399 C409 408 413 414 414 422 L424 494 C426 506 418 515 406 515 L123 515 C111 515 101 506 99 494 L84 388 C82 376 90 367 102 367 L219 367 L54 116 C48 107 44 101 43 93 L32 21 C31 9 39 0 51 0 L334 0 C346 0 356 9 357 21 L372 127 C374 139 366 148 354 148 L238 148 Z " />
<glyph glyph-name="braceleft" unicode="&#x7b;" horiz-adv-x="449" d="M147 3 C133 -98 203 -178 307 -178 L342 -178 C354 -178 365 -169 366 -157 L382 -49 C383 -37 376 -28 364 -28 L336 -28 C318 -28 304 -11 307 10 L334 204 C340 248 333 283 311 314 C342 344 359 380 365 425 L392 617 C395 638 414 655 432 655 L460 655 C472 655 482 664 484 676 L499 784 C500 796 493 805 481 805 L446 805 C342 805 248 725 234 624 L206 426 C203 404 183 389 165 389 L135 389 C123 389 113 380 111 368 L96 260 C94 248 102 239 114 239 L144 239 C162 239 178 224 175 202 L147 3 Z " />
<glyph glyph-name="bar" unicode="&#x7c;" horiz-adv-x="278" d="M37 -157 C36 -169 43 -178 55 -178 L171 -178 C183 -178 194 -169 195 -157 L328 784 C329 796 322 805 310 805 L194 805 C182 805 171 796 170 784 L37 -157 Z " />
<glyph glyph-name="braceright" unicode="&#x7d;" horiz-adv-x="449" d="M330 202 C333 224 353 239 371 239 L401 239 C413 239 423 248 425 260 L440 368 C442 380 434 389 422 389 L392 389 C374 389 358 404 361 426 L389 624 C403 725 333 805 229 805 L194 805 C182 805 171 796 170 784 L155 676 C153 664 161 655 173 655 L201 655 C219 655 232 638 229 617 L202 425 C196 380 203 344 226 314 C194 283 177 248 171 204 L144 10 C141 -11 123 -28 105 -28 L77 -28 C65 -28 54 -37 53 -49 L37 -157 C36 -169 43 -178 55 -178 L90 -178 C194 -178 288 -98 302 3 L330 202 Z " />
<glyph glyph-name="asciitilde" unicode="&#x7e;" horiz-adv-x="394" d="M263 150 C291 150 319 166 346 182 C356 189 361 199 363 209 L348 295 C347 303 339 310 328 310 C308 310 301 299 284 299 C235 299 227 324 197 324 C169 324 141 308 114 292 C104 285 98 275 97 265 L112 179 C113 171 121 164 132 164 C152 164 159 175 176 175 C205 175 215 150 263 150 L263 150 Z " />
<glyph glyph-name="uni00A0" unicode="&#xa0;" horiz-adv-x="198" d="" />
<glyph glyph-name="exclamdown" unicode="&#xa1;" horiz-adv-x="284" d="M141 582 C140 570 147 561 159 561 L281 561 C293 561 304 570 305 582 L319 679 C321 691 313 700 301 700 L179 700 C167 700 157 691 155 679 L141 582 Z M171 531 C159 531 151 521 148 510 L117 391 L65 15 C63 3 71 -6 83 -6 L199 -6 C211 -6 221 3 223 15 L275 391 L278 510 C279 521 273 531 261 531 L171 531 Z " />
<glyph glyph-name="cent" unicode="&#xa2;" horiz-adv-x="549" d="M187 -116 C186 -128 193 -137 205 -137 L307 -137 C319 -137 330 -128 331 -116 L348 0 C431 20 501 90 513 176 L520 221 C521 233 514 242 502 242 L386 242 C374 242 363 233 362 221 L356 183 C353 162 336 145 317 145 L272 145 C254 145 240 162 243 183 L290 517 C293 538 312 555 330 555 L375 555 C394 555 406 538 403 517 L398 479 C396 467 404 458 416 458 L532 458 C544 458 554 467 556 479 L562 524 C574 609 524 679 446 699 L461 811 C463 823 455 832 443 832 L341 832 C329 832 319 823 317 811 L302 700 C216 681 145 610 133 524 L84 176 C72 89 123 18 204 0 L187 -116 Z " />
<glyph glyph-name="sterling" unicode="&#xa3;" horiz-adv-x="551" d="M172 406 L138 406 C126 406 115 397 114 385 L98 277 C97 265 104 256 116 256 L150 256 L136 150 L102 150 C90 150 79 141 78 129 L62 21 C61 9 69 0 81 0 L456 0 C468 0 478 9 479 21 L495 129 C496 141 489 150 477 150 L294 150 L308 256 L350 256 C362 256 373 265 374 277 L390 385 C391 397 384 406 372 406 L330 406 L345 517 C348 538 357 555 375 555 L388 555 C407 555 408 538 405 517 L401 486 C399 474 407 465 419 465 L535 465 C547 465 557 474 559 486 L564 524 C578 625 518 705 413 705 L392 705 C287 705 202 625 188 524 L172 406 Z " />
<glyph glyph-name="currency" unicode="&#xa4;" horiz-adv-x="488" d="M294 20 C297 9 303 1 314 1 L408 1 C419 1 429 10 430 21 L402 117 C413 134 424 155 427 176 L437 248 C440 269 435 290 429 307 L484 403 C486 414 478 423 467 423 L373 423 C362 423 354 415 348 404 L333 377 L259 377 L252 404 C250 415 244 423 233 423 L139 423 C128 423 118 414 116 403 L145 307 C133 290 122 269 119 248 L109 176 C106 155 111 134 118 117 L62 21 C61 10 69 1 80 1 L174 1 C185 1 193 9 198 20 L213 47 L287 47 L294 20 Z M256 169 C248 169 240 176 242 186 L249 238 C250 248 260 255 268 255 L290 255 C298 255 306 248 305 238 L298 186 C296 176 286 169 278 169 L256 169 Z " />
<glyph glyph-name="yen" unicode="&#xa5;" horiz-adv-x="638" d="M500 75 C512 75 522 84 524 96 L537 186 C538 198 531 207 519 207 L427 207 L429 227 L441 249 L524 249 C536 249 547 258 548 270 L561 360 C563 372 555 381 543 381 L512 381 L673 679 C675 691 667 700 655 700 L538 700 C526 700 518 690 512 679 L387 436 L373 436 L316 679 C312 690 308 700 296 700 L179 700 C167 700 157 691 155 679 L231 381 L200 381 C188 381 178 372 176 360 L163 270 C162 258 169 249 181 249 L265 249 L271 227 L269 207 L176 207 C164 207 153 198 152 186 L139 96 C137 84 145 75 157 75 L250 75 L242 21 C241 9 249 0 261 0 L377 0 C389 0 399 9 400 21 L408 75 L500 75 Z " />
<glyph glyph-name="brokenbar" unicode="&#xa6;" horiz-adv-x="278" d="M116 403 C114 391 122 382 134 382 L250 382 C262 382 272 391 274 403 L328 784 C329 796 322 805 310 805 L194 805 C182 805 171 796 170 784 L116 403 Z M37 -157 C36 -169 43 -178 55 -178 L171 -178 C183 -178 194 -169 195 -157 L249 224 C251 236 243 245 231 245 L115 245 C103 245 93 236 91 224 L37 -157 Z " />
<glyph glyph-name="section" unicode="&#xa7;" horiz-adv-x="489" d="M361 532 C360 520 367 511 379 511 L474 511 C486 511 497 520 498 532 L499 539 C510 618 475 700 377 700 L322 700 C224 700 173 637 157 557 L156 549 C150 508 157 478 171 455 C138 429 117 389 108 344 L107 336 C83 167 281 184 274 134 L273 122 C270 106 263 100 248 100 L232 100 C217 100 212 111 214 127 L215 134 C217 146 209 155 197 155 L102 155 C90 155 80 146 78 134 L77 123 C66 44 104 -38 202 -38 L258 -38 C357 -38 413 24 424 104 L426 118 C431 156 426 185 413 207 C446 233 467 272 473 317 L475 331 C499 499 301 479 308 533 L310 544 C312 560 319 566 334 566 L344 566 C359 566 365 555 362 539 L361 532 Z M281 313 C270 313 260 319 262 329 L263 337 C264 347 276 353 287 353 L295 353 C306 353 316 347 315 337 L314 329 C312 319 300 313 289 313 L281 313 Z " />
<glyph glyph-name="dieresis" unicode="&#xa8;" horiz-adv-x="456" d="M140 576 C139 564 147 555 159 555 L259 555 C271 555 281 564 282 576 L297 679 C299 691 291 700 279 700 L179 700 C167 700 157 691 155 679 L140 576 Z M334 576 C333 564 341 555 353 555 L453 555 C465 555 475 564 476 576 L491 679 C493 691 485 700 473 700 L373 700 C361 700 351 691 349 679 L334 576 Z " />
<glyph glyph-name="copyright" unicode="&#xa9;" horiz-adv-x="831" d="M514 699 C318 699 136 541 108 344 C80 148 218 -11 414 -11 C609 -11 791 148 819 344 C847 541 709 699 514 699 L514 699 Z M428 87 C285 87 187 202 207 344 C227 487 357 603 500 603 C644 603 743 487 723 344 C703 202 572 87 428 87 L428 87 Z M500 271 C498 260 486 251 475 251 L426 251 C414 251 405 260 407 271 L428 420 C429 432 440 440 452 440 L501 440 C512 440 522 432 521 420 L519 406 C518 399 521 391 531 391 L617 391 C627 391 634 399 635 406 L637 423 C642 485 607 548 530 548 L454 548 C377 548 321 485 312 423 L290 267 C281 206 320 143 397 143 L473 143 C550 143 602 206 615 267 L618 285 C619 292 615 300 605 300 L519 300 C509 300 503 292 502 285 L500 271 Z " />
<glyph glyph-name="ordfeminine" unicode="&#xaa;" horiz-adv-x="384" d="M234 493 C235 500 242 504 249 504 L290 504 L287 477 C286 470 277 467 269 467 L244 467 C237 467 231 470 232 477 L234 493 Z M187 595 C202 600 241 605 263 605 C292 605 302 595 301 578 L243 578 C184 578 137 550 129 493 L126 470 C118 413 156 380 215 380 L223 380 C233 380 260 386 271 405 L276 405 L275 396 C274 389 279 383 286 383 L364 383 C371 383 378 389 379 396 L405 581 C409 611 399 700 284 700 C238 700 203 690 188 685 C179 683 175 677 173 668 L175 607 C175 600 180 595 187 595 L187 595 Z " />
<glyph glyph-name="guillemotleft" unicode="&#xab;" horiz-adv-x="690" d="M265 269 L267 279 L420 495 C422 507 414 516 402 516 L279 516 C267 516 258 506 250 495 L100 291 L96 259 L183 21 C188 10 195 0 207 0 L330 0 C342 0 352 9 353 21 L265 269 Z M544 269 L546 279 L699 495 C701 507 693 516 681 516 L558 516 C546 516 537 506 529 495 L379 291 L375 259 L462 21 C467 10 474 0 486 0 L609 0 C621 0 631 9 632 21 L544 269 Z " />
<glyph glyph-name="logicalnot" unicode="&#xac;" horiz-adv-x="485" d="M293 190 L278 79 C276 67 284 58 296 58 L412 58 C424 58 434 67 436 79 L469 319 C471 331 463 340 451 340 L128 340 C116 340 106 331 104 319 L89 211 C87 199 95 190 107 190 L293 190 Z " />
<glyph glyph-name="uni00AD" unicode="&#xad;" horiz-adv-x="198" d="" />
<glyph glyph-name="registered" unicode="&#xae;" horiz-adv-x="831" d="M514 699 C318 699 136 541 108 344 C80 148 218 -11 414 -11 C609 -11 791 148 819 344 C847 541 709 699 514 699 L514 699 Z M428 87 C285 87 187 202 207 344 C227 487 357 603 500 603 C644 603 743 487 723 344 C703 202 572 87 428 87 L428 87 Z M438 367 L448 436 L489 436 C501 436 509 426 507 412 L504 390 C502 377 491 367 479 367 L438 367 Z M362 544 C352 544 346 536 345 529 L294 169 C293 162 297 154 307 154 L393 154 C403 154 409 162 410 169 L423 259 L446 259 L478 169 C480 163 484 154 494 154 L580 154 C590 154 596 162 597 169 L558 278 C587 297 611 329 616 364 L626 438 C634 497 593 544 532 544 L362 544 Z " />
<glyph glyph-name="macron" unicode="&#xaf;" horiz-adv-x="368" d="M364 550 C376 550 386 559 388 571 L403 679 C405 691 397 700 385 700 L179 700 C167 700 157 691 155 679 L140 571 C138 559 146 550 158 550 L364 550 Z " />
<glyph glyph-name="degree" unicode="&#xb0;" horiz-adv-x="404" d="M306 751 C229 751 156 688 145 609 C134 532 189 468 266 468 C346 468 418 532 429 609 C440 688 386 751 306 751 L306 751 Z M280 568 C258 568 242 587 245 609 C248 632 270 651 292 651 C315 651 331 632 328 609 C325 587 303 568 280 568 L280 568 Z " />
<glyph glyph-name="plusminus" unicode="&#xb1;" horiz-adv-x="418" d="M348 427 L357 498 C359 510 351 519 339 519 L223 519 C211 519 201 510 199 498 L190 427 L141 427 C129 427 118 418 117 406 L102 299 C100 287 108 278 120 278 L169 278 L158 206 C157 194 165 185 177 185 L293 185 C305 185 315 194 316 206 L327 278 L376 278 C388 278 398 287 400 299 L415 406 C416 418 409 427 397 427 L348 427 Z M101 149 C89 149 79 140 77 128 L62 21 C61 9 69 0 81 0 L337 0 C349 0 359 9 360 21 L375 128 C377 140 369 149 357 149 L101 149 Z " />
<glyph glyph-name="twosuperior" unicode="&#xb2;" horiz-adv-x="359" d="M148 586 C147 579 152 573 159 573 L221 573 C228 573 235 579 236 586 L237 591 C238 600 242 607 248 607 L266 607 C272 607 274 602 274 598 L273 593 C265 536 141 577 124 458 L116 400 C114 390 120 383 130 383 L339 383 C346 383 353 389 354 396 L364 464 C365 471 360 477 353 477 L240 477 C292 509 358 504 372 604 L374 617 C381 664 349 700 301 700 L248 700 C200 700 159 664 152 617 L148 586 Z " />
<glyph glyph-name="threesuperior" unicode="&#xb3;" horiz-adv-x="342" d="M246 506 C252 506 254 501 253 497 L252 486 C251 482 248 477 242 477 L224 477 C218 477 215 480 216 489 L217 494 C218 501 213 507 206 507 L144 507 C137 507 130 501 129 494 L125 467 C119 420 149 384 197 384 L250 384 C298 384 341 420 347 467 L349 480 C353 509 343 530 328 542 C346 554 362 575 366 604 L368 617 C375 664 343 700 295 700 L242 700 C194 700 153 664 146 617 L142 590 C141 583 147 577 154 577 L216 577 C223 577 229 583 230 590 L231 595 C232 604 236 607 242 607 L260 607 C266 607 268 602 268 598 L265 582 C265 578 261 573 255 573 L240 573 C233 573 226 567 225 560 L219 519 C218 512 224 506 231 506 L246 506 Z " />
<glyph glyph-name="acute" unicode="&#xb4;" horiz-adv-x="329" d="M261 528 C273 528 282 538 289 548 L364 681 C366 691 359 700 348 700 L240 700 C228 700 218 690 212 681 L137 548 C135 537 143 528 153 528 L261 528 Z " />
<glyph glyph-name="mu" unicode="&#xb5;" horiz-adv-x="479" d="M38 -153 C36 -165 44 -174 56 -174 L172 -174 C184 -174 194 -165 196 -153 L217 -5 L257 -5 C355 -5 429 77 440 156 L488 494 C490 506 482 515 470 515 L354 515 C342 515 332 506 330 494 L284 169 C282 153 276 142 264 142 L253 142 C242 142 240 150 240 163 L287 494 C289 506 281 515 269 515 L153 515 C141 515 131 506 129 494 L38 -153 Z " />
<glyph glyph-name="paragraph" unicode="&#xb6;" horiz-adv-x="699" d="M734 679 C736 691 728 700 716 700 L346 700 C242 700 147 620 132 519 L121 441 C107 339 180 260 284 260 L313 260 L279 21 C278 9 286 0 298 0 L414 0 C426 0 436 9 437 21 L512 550 L558 550 L483 21 C482 9 490 0 502 0 L618 0 C630 0 640 9 641 21 L734 679 Z " />
<glyph glyph-name="periodcentered" unicode="&#xb7;" horiz-adv-x="278" d="M84 172 C82 160 90 151 102 151 L218 151 C230 151 240 160 242 172 L258 290 C260 302 252 311 240 311 L124 311 C112 311 102 302 100 290 L84 172 Z " />
<glyph glyph-name="cedilla" unicode="&#xb8;" horiz-adv-x="299" d="M124 -92 C124 -92 136 -92 134 -105 C132 -118 120 -118 120 -118 L58 -118 C50 -118 42 -124 41 -133 L34 -180 C33 -188 39 -195 47 -195 L134 -195 C194 -195 215 -168 225 -93 C231 -53 206 -29 174 -23 L197 8 C198 19 191 27 180 27 L125 27 C114 27 108 17 101 8 L72 -32 C68 -37 65 -45 65 -48 L61 -77 C60 -85 66 -92 74 -92 L124 -92 Z " />
<glyph glyph-name="onesuperior" unicode="&#xb9;" horiz-adv-x="352" d="M218 602 L201 477 L150 477 C143 477 136 471 135 464 L125 396 C124 389 129 383 136 383 L332 383 C339 383 346 389 347 396 L357 464 C358 471 353 477 346 477 L305 477 L334 687 C335 694 330 700 323 700 L239 700 L168 672 C160 669 152 660 151 653 L143 591 C141 583 147 577 155 577 L218 602 Z " />
<glyph glyph-name="ordmasculine" unicode="&#xba;" horiz-adv-x="404" d="M306 751 C229 751 156 688 145 609 C134 532 189 468 266 468 C346 468 418 532 429 609 C440 688 386 751 306 751 L306 751 Z M280 568 C258 568 242 587 245 609 C248 632 270 651 292 651 C315 651 331 632 328 609 C325 587 303 568 280 568 L280 568 Z " />
<glyph glyph-name="guillemotright" unicode="&#xbb;" horiz-adv-x="690" d="M341 21 C340 9 348 0 360 0 L483 0 C495 0 504 10 511 21 L666 259 L670 291 L578 495 C574 506 567 516 555 516 L432 516 C420 516 410 507 408 495 L501 279 L499 269 L341 21 Z M62 21 C61 9 69 0 81 0 L204 0 C216 0 225 10 232 21 L387 259 L391 291 L299 495 C295 506 288 516 276 516 L153 516 C141 516 131 507 129 495 L222 279 L220 269 L62 21 Z " />
<glyph glyph-name="onequarter" unicode="&#xbc;" horiz-adv-x="746" d="M218 602 L201 477 L150 477 C143 477 136 471 135 464 L125 396 C124 389 129 383 136 383 L332 383 C339 383 346 389 347 396 L357 464 C358 471 353 477 346 477 L305 477 L334 687 C335 694 330 700 323 700 L239 700 L168 672 C160 669 152 660 151 653 L143 591 C141 583 147 577 155 577 L218 602 Z M161 20 C160 8 167 0 179 0 L254 0 C266 0 274 8 281 20 L710 680 C712 692 705 700 693 700 L618 700 C606 700 598 692 590 680 L161 20 Z M417 55 C416 48 421 42 428 42 L564 42 L560 13 C559 6 565 0 572 0 L650 0 C657 0 663 6 664 13 L668 42 L678 42 C685 42 692 48 693 55 L703 123 C704 130 699 136 692 136 L682 136 L689 189 C690 196 685 202 678 202 L600 202 C593 202 586 196 585 189 L578 136 L543 136 L633 295 C635 307 627 317 616 317 L558 317 C548 317 538 308 534 300 L424 106 L417 55 Z " />
<glyph glyph-name="onehalf" unicode="&#xbd;" horiz-adv-x="745" d="M218 602 L201 477 L150 477 C143 477 136 471 135 464 L125 396 C124 389 129 383 136 383 L332 383 C339 383 346 389 347 396 L357 464 C358 471 353 477 346 477 L305 477 L334 687 C335 694 330 700 323 700 L239 700 L168 672 C160 669 152 660 151 653 L143 591 C141 583 147 577 155 577 L218 602 Z M161 20 C160 8 167 0 179 0 L254 0 C266 0 274 8 281 20 L710 680 C712 692 705 700 693 700 L618 700 C606 700 598 692 590 680 L161 20 Z M480 203 C479 196 484 190 491 190 L553 190 C560 190 567 196 568 203 L569 208 C570 217 574 224 580 224 L598 224 C604 224 606 219 606 215 L605 210 C597 153 473 194 456 75 L448 17 C446 7 453 0 463 0 L672 0 C679 0 685 6 686 13 L696 81 C697 88 692 94 685 94 L572 94 C624 126 691 121 705 221 L706 234 C713 281 681 317 633 317 L580 317 C532 317 491 281 484 234 L480 203 Z " />
<glyph glyph-name="threequarters" unicode="&#xbe;" horiz-adv-x="720" d="M246 506 C252 506 254 501 253 497 L252 486 C251 482 248 477 242 477 L224 477 C218 477 215 480 216 489 L217 494 C218 501 213 507 206 507 L144 507 C137 507 130 501 129 494 L125 467 C119 420 149 384 197 384 L250 384 C298 384 341 420 347 467 L349 480 C353 509 343 530 328 542 C346 554 362 575 366 604 L368 617 C375 664 343 700 295 700 L242 700 C194 700 153 664 146 617 L142 590 C141 583 147 577 154 577 L216 577 C223 577 229 583 230 590 L231 595 C232 604 236 607 242 607 L260 607 C266 607 268 602 268 598 L265 582 C265 578 261 573 255 573 L240 573 C233 573 226 567 225 560 L219 519 C218 512 224 506 231 506 L246 506 Z M133 20 C132 8 139 0 151 0 L226 0 C238 0 246 8 253 20 L682 680 C684 692 677 700 665 700 L590 700 C578 700 570 692 562 680 L133 20 Z M391 55 C390 48 395 42 402 42 L538 42 L534 13 C533 6 539 0 546 0 L624 0 C631 0 637 6 638 13 L642 42 L652 42 C659 42 666 48 667 55 L677 123 C678 130 673 136 666 136 L656 136 L663 189 C664 196 659 202 652 202 L574 202 C567 202 560 196 559 189 L552 136 L517 136 L607 295 C609 307 601 317 590 317 L532 317 C522 317 512 308 508 300 L398 106 L391 55 Z " />
<glyph glyph-name="questiondown" unicode="&#xbf;" horiz-adv-x="542" d="M84 176 C70 75 143 -5 247 -5 L296 -5 C400 -5 492 75 506 176 L511 209 C513 221 505 230 493 230 L377 230 C365 230 355 221 353 209 L349 183 C346 162 328 145 310 145 L273 145 C254 145 240 162 243 183 L248 215 C266 343 413 244 447 486 L450 512 C452 524 444 533 432 533 L316 533 C304 533 294 524 292 512 L289 490 C273 370 125 467 90 219 L84 176 Z M464 587 C462 575 452 566 440 566 L318 566 C306 566 298 575 300 587 L314 684 C315 696 326 705 338 705 L460 705 C472 705 479 696 478 684 L464 587 Z " />
<glyph glyph-name="Agrave" unicode="&#xc0;" horiz-adv-x="552" d="M429 751 C439 751 449 760 451 771 L413 904 C409 913 402 923 390 923 L282 923 C271 923 262 914 261 904 L299 771 C302 761 309 751 321 751 L429 751 Z M376 21 C378 9 385 0 397 0 L516 0 C528 0 538 9 539 21 L473 679 C472 691 464 700 452 700 L296 700 C284 700 274 691 269 679 L17 21 C16 9 24 0 36 0 L155 0 C167 0 176 9 180 21 L212 112 L369 112 L376 21 Z M335 456 L345 456 L358 261 L265 261 L335 456 Z " />
<glyph glyph-name="Aacute" unicode="&#xc1;" horiz-adv-x="552" d="M437 751 C449 751 458 761 465 771 L541 904 C542 914 535 923 524 923 L416 923 C404 923 395 913 389 904 L313 771 C311 760 319 751 329 751 L437 751 Z M376 21 C378 9 385 0 397 0 L516 0 C528 0 538 9 539 21 L473 679 C472 691 464 700 452 700 L296 700 C284 700 274 691 269 679 L17 21 C16 9 24 0 36 0 L155 0 C167 0 176 9 180 21 L212 112 L369 112 L376 21 Z M335 456 L345 456 L358 261 L265 261 L335 456 Z " />
<glyph glyph-name="Acircumflex" unicode="&#xc2;" horiz-adv-x="552" d="M361 959 C344 959 333 950 325 938 L219 771 C217 759 224 751 236 751 L335 751 C347 751 355 761 362 771 L390 814 L406 771 C409 761 415 751 427 751 L526 751 C538 751 547 759 549 771 L489 938 C485 950 476 959 459 959 L361 959 Z M376 21 C378 9 385 0 397 0 L516 0 C528 0 538 9 539 21 L473 679 C472 691 464 700 452 700 L296 700 C284 700 274 691 269 679 L17 21 C16 9 24 0 36 0 L155 0 C167 0 176 9 180 21 L212 112 L369 112 L376 21 Z M335 456 L345 456 L358 261 L265 261 L335 456 Z " />
<glyph glyph-name="Atilde" unicode="&#xc3;" horiz-adv-x="552" d="M376 21 C378 9 385 0 397 0 L516 0 C528 0 538 9 539 21 L473 679 C472 691 464 700 452 700 L296 700 C284 700 274 691 269 679 L17 21 C16 9 24 0 36 0 L155 0 C167 0 176 9 180 21 L212 112 L369 112 L376 21 Z M335 456 L345 456 L358 261 L265 261 L335 456 Z M428 751 C456 751 484 767 512 783 C522 790 527 800 528 810 L513 896 C513 904 505 911 494 911 C474 911 466 900 449 900 C400 900 393 925 363 925 C335 925 306 909 279 893 C269 886 264 876 262 866 L277 780 C278 772 286 765 297 765 C317 765 325 776 342 776 C371 776 380 751 428 751 L428 751 Z " />
<glyph glyph-name="Adieresis" unicode="&#xc4;" horiz-adv-x="552" d="M216 772 C214 760 222 751 234 751 L334 751 C346 751 356 760 358 772 L372 875 C374 887 366 896 354 896 L254 896 C242 896 232 887 230 875 L216 772 Z M410 772 C408 760 416 751 428 751 L528 751 C540 751 550 760 552 772 L566 875 C568 887 560 896 548 896 L448 896 C436 896 426 887 424 875 L410 772 Z M376 21 C378 9 385 0 397 0 L516 0 C528 0 538 9 539 21 L473 679 C472 691 464 700 452 700 L296 700 C284 700 274 691 269 679 L17 21 C16 9 24 0 36 0 L155 0 C167 0 176 9 180 21 L212 112 L369 112 L376 21 Z M335 456 L345 456 L358 261 L265 261 L335 456 Z " />
<glyph glyph-name="Aring" unicode="&#xc5;" horiz-adv-x="552" d="M400 883 C323 883 250 820 239 741 C234 707 242 676 258 651 L17 21 C16 9 24 0 36 0 L155 0 C167 0 176 9 180 21 L212 112 L369 112 L376 21 C378 9 385 0 397 0 L516 0 C528 0 538 9 539 21 L476 649 C500 674 518 706 523 741 C534 820 480 883 400 883 L400 883 Z M335 456 L345 456 L358 261 L265 261 L335 456 Z M374 700 C352 700 336 719 339 741 C342 764 364 783 386 783 C409 783 425 764 422 741 C419 720 399 702 374 700 L374 700 Z " />
<glyph glyph-name="AE" unicode="&#xc6;" horiz-adv-x="785" d="M791 550 C803 550 813 559 815 571 L830 679 C832 691 824 700 812 700 L407 700 C389 700 380 692 370 679 L14 31 C11 13 22 0 38 0 L149 0 C164 0 175 10 183 24 L233 112 L387 112 L374 21 C373 9 381 0 393 0 L714 0 C726 0 736 9 737 21 L753 129 C754 141 747 150 735 150 L551 150 L570 287 L732 287 C744 287 754 296 756 308 L771 416 C773 428 765 437 753 437 L591 437 L607 550 L791 550 Z M406 248 L306 248 L447 535 L406 248 Z " />
<glyph glyph-name="Ccedilla" unicode="&#xc7;" horiz-adv-x="514" d="M247 -92 C247 -92 259 -92 257 -105 C255 -118 243 -118 243 -118 L181 -118 C173 -118 165 -124 164 -133 L157 -180 C156 -188 162 -195 170 -195 L257 -195 C317 -195 338 -168 348 -93 C354 -53 329 -29 297 -23 L311 -4 C407 6 490 82 503 176 L510 221 C511 233 504 242 492 242 L376 242 C364 242 353 233 352 221 L346 183 C343 162 326 145 307 145 L262 145 C244 145 230 162 233 183 L280 517 C283 538 302 555 320 555 L365 555 C384 555 396 538 393 517 L388 479 C386 467 394 458 406 458 L522 458 C534 458 544 467 546 479 L552 524 C566 625 495 705 390 705 L337 705 C232 705 137 625 123 524 L74 176 C61 82 122 6 215 -3 L195 -32 C191 -37 188 -45 188 -48 L184 -77 C183 -85 189 -92 197 -92 L247 -92 Z " />
<glyph glyph-name="Egrave" unicode="&#xc8;" horiz-adv-x="473" d="M404 751 C414 751 424 760 426 771 L388 904 C384 913 377 923 365 923 L257 923 C246 923 237 914 236 904 L274 771 C277 761 284 751 296 751 L404 751 Z M239 150 L258 287 L420 287 C432 287 442 296 444 308 L459 416 C461 428 453 437 441 437 L279 437 L295 550 L479 550 C491 550 501 559 503 571 L518 679 C520 691 512 700 500 700 L179 700 C167 700 157 691 155 679 L62 21 C61 9 69 0 81 0 L402 0 C414 0 424 9 425 21 L441 129 C442 141 435 150 423 150 L239 150 Z " />
<glyph glyph-name="Eacute" unicode="&#xc9;" horiz-adv-x="473" d="M404 751 C416 751 425 761 432 771 L508 904 C509 914 502 923 491 923 L383 923 C371 923 362 913 356 904 L280 771 C278 760 286 751 296 751 L404 751 Z M239 150 L258 287 L420 287 C432 287 442 296 444 308 L459 416 C461 428 453 437 441 437 L279 437 L295 550 L479 550 C491 550 501 559 503 571 L518 679 C520 691 512 700 500 700 L179 700 C167 700 157 691 155 679 L62 21 C61 9 69 0 81 0 L402 0 C414 0 424 9 425 21 L441 129 C442 141 435 150 423 150 L239 150 Z " />
<glyph glyph-name="Ecircumflex" unicode="&#xca;" horiz-adv-x="473" d="M328 959 C311 959 300 950 292 938 L186 771 C184 759 191 751 203 751 L302 751 C314 751 322 761 329 771 L357 814 L373 771 C376 761 382 751 394 751 L493 751 C505 751 514 759 516 771 L456 938 C452 950 443 959 426 959 L328 959 Z M239 150 L258 287 L420 287 C432 287 442 296 444 308 L459 416 C461 428 453 437 441 437 L279 437 L295 550 L479 550 C491 550 501 559 503 571 L518 679 C520 691 512 700 500 700 L179 700 C167 700 157 691 155 679 L62 21 C61 9 69 0 81 0 L402 0 C414 0 424 9 425 21 L441 129 C442 141 435 150 423 150 L239 150 Z " />
<glyph glyph-name="Edieresis" unicode="&#xcb;" horiz-adv-x="473" d="M184 772 C182 760 190 751 202 751 L302 751 C314 751 324 760 326 772 L340 875 C342 887 334 896 322 896 L222 896 C210 896 200 887 198 875 L184 772 Z M378 772 C376 760 384 751 396 751 L496 751 C508 751 518 760 520 772 L534 875 C536 887 528 896 516 896 L416 896 C404 896 394 887 392 875 L378 772 Z M239 150 L258 287 L420 287 C432 287 442 296 444 308 L459 416 C461 428 453 437 441 437 L279 437 L295 550 L479 550 C491 550 501 559 503 571 L518 679 C520 691 512 700 500 700 L179 700 C167 700 157 691 155 679 L62 21 C61 9 69 0 81 0 L402 0 C414 0 424 9 425 21 L441 129 C442 141 435 150 423 150 L239 150 Z " />
<glyph glyph-name="Igrave" unicode="&#xcc;" horiz-adv-x="278" d="M62 21 C61 9 69 0 81 0 L197 0 C209 0 219 9 220 21 L313 679 C315 691 307 700 295 700 L179 700 C167 700 157 691 155 679 L62 21 Z M296 751 C306 751 316 760 318 771 L280 904 C276 913 269 923 257 923 L149 923 C138 923 129 914 128 904 L166 771 C169 761 176 751 188 751 L296 751 Z " />
<glyph glyph-name="Iacute" unicode="&#xcd;" horiz-adv-x="278" d="M62 21 C61 9 69 0 81 0 L197 0 C209 0 219 9 220 21 L313 679 C315 691 307 700 295 700 L179 700 C167 700 157 691 155 679 L62 21 Z M295 751 C307 751 316 761 323 771 L399 904 C400 914 393 923 382 923 L274 923 C262 923 253 913 247 904 L171 771 C169 760 177 751 187 751 L295 751 Z " />
<glyph glyph-name="Icircumflex" unicode="&#xce;" horiz-adv-x="278" d="M62 21 C61 9 69 0 81 0 L197 0 C209 0 219 9 220 21 L313 679 C315 691 307 700 295 700 L179 700 C167 700 157 691 155 679 L62 21 Z M224 959 C207 959 196 950 188 938 L82 771 C80 759 87 751 99 751 L198 751 C210 751 218 761 225 771 L253 814 L269 771 C272 761 278 751 290 751 L389 751 C401 751 410 759 412 771 L352 938 C348 950 339 959 322 959 L224 959 Z " />
<glyph glyph-name="Idieresis" unicode="&#xcf;" horiz-adv-x="278" d="M62 21 C61 9 69 0 81 0 L197 0 C209 0 219 9 220 21 L313 679 C315 691 307 700 295 700 L179 700 C167 700 157 691 155 679 L62 21 Z M79 772 C77 760 85 751 97 751 L197 751 C209 751 219 760 221 772 L235 875 C237 887 229 896 217 896 L117 896 C105 896 95 887 93 875 L79 772 Z M273 772 C271 760 279 751 291 751 L391 751 C403 751 413 760 415 772 L429 875 C431 887 423 896 411 896 L311 896 C299 896 289 887 287 875 L273 772 Z " />
<glyph glyph-name="Eth" unicode="&#xd0;" horiz-adv-x="544" d="M66 21 C65 9 73 0 85 0 L306 0 C410 0 505 80 519 181 L566 519 C581 620 508 700 404 700 L183 700 C171 700 161 691 159 679 L122 416 L79 416 C67 416 57 407 55 395 L42 303 C40 291 48 282 60 282 L103 282 L66 21 Z M315 282 C327 282 337 291 339 303 L352 395 C354 407 346 416 334 416 L280 416 L299 551 L378 551 C397 551 411 534 408 513 L362 187 C359 166 340 149 321 149 L242 149 L261 282 L315 282 Z " />
<glyph glyph-name="Ntilde" unicode="&#xd1;" horiz-adv-x="577" d="M405 392 L349 679 C345 690 340 700 328 700 L179 700 C167 700 157 691 155 679 L62 21 C61 9 69 0 81 0 L197 0 C209 0 219 9 220 21 L261 311 L270 311 L325 21 C328 10 335 0 347 0 L496 0 C508 0 518 9 519 21 L612 679 C614 691 606 700 594 700 L478 700 C466 700 456 691 454 679 L414 392 L405 392 Z M429 751 C457 751 485 767 513 783 C523 790 528 800 529 810 L514 896 C514 904 506 911 495 911 C475 911 467 900 450 900 C401 900 394 925 364 925 C336 925 307 909 280 893 C270 886 265 876 263 866 L278 780 C279 772 287 765 298 765 C318 765 326 776 343 776 C372 776 381 751 429 751 L429 751 Z " />
<glyph glyph-name="Ograve" unicode="&#xd2;" horiz-adv-x="529" d="M424 751 C434 751 444 760 446 771 L408 904 C404 913 397 923 385 923 L277 923 C266 923 257 914 256 904 L294 771 C297 761 304 751 316 751 L424 751 Z M262 145 C244 145 230 162 233 183 L280 517 C283 538 302 555 320 555 L365 555 C384 555 396 538 393 517 L346 183 C343 162 326 145 307 145 L262 145 Z M290 -5 C395 -5 489 75 503 176 L552 524 C566 625 495 705 390 705 L337 705 C232 705 137 625 123 524 L74 176 C60 75 132 -5 237 -5 L290 -5 Z " />
<glyph glyph-name="Oacute" unicode="&#xd3;" horiz-adv-x="529" d="M433 751 C445 751 454 761 461 771 L537 904 C538 914 531 923 520 923 L412 923 C400 923 391 913 385 904 L309 771 C307 760 315 751 325 751 L433 751 Z M262 145 C244 145 230 162 233 183 L280 517 C283 538 302 555 320 555 L365 555 C384 555 396 538 393 517 L346 183 C343 162 326 145 307 145 L262 145 Z M290 -5 C395 -5 489 75 503 176 L552 524 C566 625 495 705 390 705 L337 705 C232 705 137 625 123 524 L74 176 C60 75 132 -5 237 -5 L290 -5 Z " />
<glyph glyph-name="Ocircumflex" unicode="&#xd4;" horiz-adv-x="529" d="M349 959 C332 959 321 950 313 938 L207 771 C205 759 212 751 224 751 L323 751 C335 751 343 761 350 771 L378 814 L394 771 C397 761 403 751 415 751 L514 751 C526 751 535 759 537 771 L477 938 C473 950 464 959 447 959 L349 959 Z M262 145 C244 145 230 162 233 183 L280 517 C283 538 302 555 320 555 L365 555 C384 555 396 538 393 517 L346 183 C343 162 326 145 307 145 L262 145 Z M290 -5 C395 -5 489 75 503 176 L552 524 C566 625 495 705 390 705 L337 705 C232 705 137 625 123 524 L74 176 C60 75 132 -5 237 -5 L290 -5 Z " />
<glyph glyph-name="Otilde" unicode="&#xd5;" horiz-adv-x="529" d="M262 145 C244 145 230 162 233 183 L280 517 C283 538 302 555 320 555 L365 555 C384 555 396 538 393 517 L346 183 C343 162 326 145 307 145 L262 145 Z M290 -5 C395 -5 489 75 503 176 L552 524 C566 625 495 705 390 705 L337 705 C232 705 137 625 123 524 L74 176 C60 75 132 -5 237 -5 L290 -5 Z M418 751 C446 751 474 767 502 783 C512 790 517 800 518 810 L503 896 C503 904 495 911 484 911 C464 911 456 900 439 900 C390 900 383 925 353 925 C325 925 296 909 269 893 C259 886 254 876 252 866 L267 780 C268 772 276 765 287 765 C307 765 315 776 332 776 C361 776 370 751 418 751 L418 751 Z " />
<glyph glyph-name="Odieresis" unicode="&#xd6;" horiz-adv-x="529" d="M204 772 C202 760 210 751 222 751 L322 751 C334 751 344 760 346 772 L360 875 C362 887 354 896 342 896 L242 896 C230 896 220 887 218 875 L204 772 Z M398 772 C396 760 404 751 416 751 L516 751 C528 751 538 760 540 772 L554 875 C556 887 548 896 536 896 L436 896 C424 896 414 887 412 875 L398 772 Z M262 145 C244 145 230 162 233 183 L280 517 C283 538 302 555 320 555 L365 555 C384 555 396 538 393 517 L346 183 C343 162 326 145 307 145 L262 145 Z M290 -5 C395 -5 489 75 503 176 L552 524 C566 625 495 705 390 705 L337 705 C232 705 137 625 123 524 L74 176 C60 75 132 -5 237 -5 L290 -5 Z " />
<glyph glyph-name="multiply" unicode="&#xd7;" horiz-adv-x="444" d="M235 93 L285 32 C289 28 294 26 299 26 C303 26 308 28 313 32 L392 102 C396 106 399 111 400 115 C400 120 399 126 396 129 L345 189 L412 249 C417 252 420 258 420 263 C421 267 420 272 416 276 L357 346 C354 350 349 352 345 352 C340 352 335 350 329 346 L262 285 L211 346 C207 350 202 352 197 352 C193 352 188 350 183 346 L104 276 C100 272 97 267 96 263 C96 258 97 252 100 249 L151 189 L84 129 C79 126 76 120 76 115 C75 111 76 106 80 102 L139 32 C142 28 147 26 151 26 C156 26 161 28 167 32 L235 93 Z " />
<glyph glyph-name="Oslash" unicode="&#xd8;" horiz-adv-x="529" d="M59 -70 C57 -82 65 -91 77 -91 L163 -91 C175 -91 184 -81 190 -70 L220 -4 C225 -5 231 -5 237 -5 L290 -5 C395 -5 489 75 503 176 L552 524 C559 572 546 616 520 648 L576 770 C577 782 570 791 558 791 L472 791 C460 791 450 781 445 770 L414 703 C406 704 398 705 390 705 L337 705 C232 705 137 625 123 524 L74 176 C67 124 81 78 112 46 L59 -70 Z M280 517 C283 538 302 555 320 555 L346 555 L259 365 L280 517 Z M307 145 L288 145 L364 309 L346 183 C343 162 326 145 307 145 L307 145 Z " />
<glyph glyph-name="Ugrave" unicode="&#xd9;" horiz-adv-x="539" d="M431 751 C441 751 451 760 453 771 L415 904 C411 913 404 923 392 923 L284 923 C273 923 264 914 263 904 L301 771 C304 761 311 751 323 751 L431 751 Z M296 -5 C401 -5 494 75 508 176 L579 679 C581 691 573 700 561 700 L445 700 C433 700 423 691 421 679 L351 183 C348 162 330 145 312 145 L267 145 C249 145 235 162 238 183 L308 679 C310 691 302 700 290 700 L174 700 C162 700 152 691 150 679 L79 176 C65 75 136 -5 241 -5 L296 -5 Z " />
<glyph glyph-name="Uacute" unicode="&#xda;" horiz-adv-x="539" d="M432 751 C444 751 453 761 460 771 L536 904 C537 914 530 923 519 923 L411 923 C399 923 390 913 384 904 L308 771 C306 760 314 751 324 751 L432 751 Z M296 -5 C401 -5 494 75 508 176 L579 679 C581 691 573 700 561 700 L445 700 C433 700 423 691 421 679 L351 183 C348 162 330 145 312 145 L267 145 C249 145 235 162 238 183 L308 679 C310 691 302 700 290 700 L174 700 C162 700 152 691 150 679 L79 176 C65 75 136 -5 241 -5 L296 -5 Z " />
<glyph glyph-name="Ucircumflex" unicode="&#xdb;" horiz-adv-x="539" d="M354 959 C337 959 326 950 318 938 L212 771 C210 759 217 751 229 751 L328 751 C340 751 348 761 355 771 L383 814 L399 771 C402 761 408 751 420 751 L519 751 C531 751 540 759 542 771 L482 938 C478 950 469 959 452 959 L354 959 Z M296 -5 C401 -5 494 75 508 176 L579 679 C581 691 573 700 561 700 L445 700 C433 700 423 691 421 679 L351 183 C348 162 330 145 312 145 L267 145 C249 145 235 162 238 183 L308 679 C310 691 302 700 290 700 L174 700 C162 700 152 691 150 679 L79 176 C65 75 136 -5 241 -5 L296 -5 Z " />
<glyph glyph-name="Udieresis" unicode="&#xdc;" horiz-adv-x="539" d="M209 772 C207 760 215 751 227 751 L327 751 C339 751 349 760 351 772 L365 875 C367 887 359 896 347 896 L247 896 C235 896 225 887 223 875 L209 772 Z M403 772 C401 760 409 751 421 751 L521 751 C533 751 543 760 545 772 L559 875 C561 887 553 896 541 896 L441 896 C429 896 419 887 417 875 L403 772 Z M296 -5 C401 -5 494 75 508 176 L579 679 C581 691 573 700 561 700 L445 700 C433 700 423 691 421 679 L351 183 C348 162 330 145 312 145 L267 145 C249 145 235 162 238 183 L308 679 C310 691 302 700 290 700 L174 700 C162 700 152 691 150 679 L79 176 C65 75 136 -5 241 -5 L296 -5 Z " />
<glyph glyph-name="Yacute" unicode="&#xdd;" horiz-adv-x="538" d="M437 751 C449 751 458 761 465 771 L541 904 C542 914 535 923 524 923 L416 923 C404 923 395 913 389 904 L313 771 C311 760 319 751 329 751 L437 751 Z M337 436 L323 436 L266 679 C262 690 258 700 246 700 L129 700 C117 700 107 691 105 679 L221 227 L192 21 C191 9 199 0 211 0 L327 0 C339 0 349 9 350 21 L379 227 L623 679 C625 691 617 700 605 700 L488 700 C476 700 468 690 462 679 L337 436 Z " />
<glyph glyph-name="Thorn" unicode="&#xde;" horiz-adv-x="523" d="M252 248 L281 455 L353 455 C373 455 386 438 383 417 L365 286 C362 266 344 248 324 248 L252 248 Z M303 605 L313 679 C315 691 307 700 295 700 L179 700 C167 700 157 691 155 679 L62 21 C61 9 69 0 81 0 L197 0 C209 0 219 9 220 21 L231 98 L308 98 C412 98 508 178 522 279 L542 424 C556 524 485 605 382 605 L303 605 Z " />
<glyph glyph-name="germandbls" unicode="&#xdf;" horiz-adv-x="513" d="M326 275 C346 275 359 258 356 237 L349 187 C346 166 328 149 308 149 L288 149 C276 149 266 140 264 128 L249 21 C248 9 256 0 268 0 L295 0 C399 0 494 80 508 181 L516 241 C523 289 501 334 468 367 C494 392 515 424 520 459 L528 519 C543 620 470 700 366 700 L179 700 C167 700 157 691 155 679 L62 21 C61 9 69 0 81 0 L197 0 C209 0 219 9 220 21 L295 551 L338 551 C357 551 371 534 368 513 L360 462 C357 441 339 424 320 424 C308 424 298 415 296 403 L281 296 C279 284 287 275 299 275 L326 275 Z " />
<glyph glyph-name="agrave" unicode="&#xe0;" horiz-adv-x="436" d="M374 571 C384 571 394 580 396 591 L357 724 C354 733 347 743 335 743 L227 743 C216 743 207 734 205 724 L244 591 C247 581 254 571 266 571 L374 571 Z M174 361 C208 371 214 373 244 373 C282 373 282 351 278 322 L239 322 C143 322 78 275 65 182 L60 143 C47 50 68 -5 153 -5 L163 -5 C170 -5 205 -5 229 31 L237 31 L235 21 C234 9 242 0 254 0 L370 0 C382 0 392 9 393 21 L436 324 C453 443 414 520 288 520 C208 520 182 507 161 500 C150 497 142 490 141 480 C141 478 139 467 149 377 C151 364 158 360 164 360 C166 360 170 360 174 361 L174 361 Z M205 174 C207 190 218 201 232 201 L261 201 L255 163 C253 149 246 136 234 136 L223 136 C209 136 201 149 203 163 L205 174 Z " />
<glyph glyph-name="aacute" unicode="&#xe1;" horiz-adv-x="436" d="M366 571 C378 571 387 581 394 591 L469 724 C471 734 464 743 453 743 L345 743 C333 743 324 733 317 724 L242 591 C240 580 248 571 258 571 L366 571 Z M174 361 C208 371 214 373 244 373 C282 373 282 351 278 322 L239 322 C143 322 78 275 65 182 L60 143 C47 50 68 -5 153 -5 L163 -5 C170 -5 205 -5 229 31 L237 31 L235 21 C234 9 242 0 254 0 L370 0 C382 0 392 9 393 21 L436 324 C453 443 414 520 288 520 C208 520 182 507 161 500 C150 497 142 490 141 480 C141 478 139 467 149 377 C151 364 158 360 164 360 C166 360 170 360 174 361 L174 361 Z M205 174 C207 190 218 201 232 201 L261 201 L255 163 C253 149 246 136 234 136 L223 136 C209 136 201 149 203 163 L205 174 Z " />
<glyph glyph-name="acircumflex" unicode="&#xe2;" horiz-adv-x="436" d="M285 779 C268 779 257 770 249 758 L143 591 C141 579 148 571 160 571 L259 571 C271 571 279 581 286 591 L314 634 L330 591 C333 581 339 571 351 571 L450 571 C462 571 471 579 473 591 L413 758 C409 770 400 779 383 779 L285 779 Z M174 361 C208 371 214 373 244 373 C282 373 282 351 278 322 L239 322 C143 322 78 275 65 182 L60 143 C47 50 68 -5 153 -5 L163 -5 C170 -5 205 -5 229 31 L237 31 L235 21 C234 9 242 0 254 0 L370 0 C382 0 392 9 393 21 L436 324 C453 443 414 520 288 520 C208 520 182 507 161 500 C150 497 142 490 141 480 C141 478 139 467 149 377 C151 364 158 360 164 360 C166 360 170 360 174 361 L174 361 Z M205 174 C207 190 218 201 232 201 L261 201 L255 163 C253 149 246 136 234 136 L223 136 C209 136 201 149 203 163 L205 174 Z " />
<glyph glyph-name="atilde" unicode="&#xe3;" horiz-adv-x="436" d="M174 361 C208 371 214 373 244 373 C282 373 282 351 278 322 L239 322 C143 322 78 275 65 182 L60 143 C47 50 68 -5 153 -5 L163 -5 C170 -5 205 -5 229 31 L237 31 L235 21 C234 9 242 0 254 0 L370 0 C382 0 392 9 393 21 L436 324 C453 443 414 520 288 520 C208 520 182 507 161 500 C150 497 142 490 141 480 C141 478 139 467 149 377 C151 364 158 360 164 360 C166 360 170 360 174 361 L174 361 Z M205 174 C207 190 218 201 232 201 L261 201 L255 163 C253 149 246 136 234 136 L223 136 C209 136 201 149 203 163 L205 174 Z M364 571 C392 571 420 587 447 603 C457 610 463 620 464 630 L449 716 C448 724 440 731 429 731 C409 731 402 720 385 720 C336 720 328 745 298 745 C270 745 242 729 215 713 C205 706 199 696 198 686 L213 600 C214 592 222 585 233 585 C253 585 260 596 277 596 C306 596 316 571 364 571 L364 571 Z " />
<glyph glyph-name="adieresis" unicode="&#xe4;" horiz-adv-x="437" d="M154 592 C152 580 160 571 172 571 L272 571 C284 571 294 580 296 592 L310 695 C312 707 304 716 292 716 L192 716 C180 716 170 707 168 695 L154 592 Z M333 592 C331 580 339 571 351 571 L451 571 C463 571 473 580 475 592 L489 695 C491 707 483 716 471 716 L371 716 C359 716 349 707 347 695 L333 592 Z M174 361 C208 371 214 373 244 373 C282 373 282 351 278 322 L239 322 C143 322 78 275 65 182 L60 143 C47 50 68 -5 153 -5 L163 -5 C170 -5 205 -5 229 31 L237 31 L235 21 C234 9 242 0 254 0 L370 0 C382 0 392 9 393 21 L436 324 C453 443 414 520 288 520 C208 520 182 507 161 500 C150 497 142 490 141 480 C141 478 139 467 149 377 C151 364 158 360 164 360 C166 360 170 360 174 361 L174 361 Z M205 174 C207 190 218 201 232 201 L261 201 L255 163 C253 149 246 136 234 136 L223 136 C209 136 201 149 203 163 L205 174 Z " />
<glyph glyph-name="aring" unicode="&#xe5;" horiz-adv-x="436" d="M350 854 C273 854 200 791 189 712 C178 635 233 571 310 571 C390 571 462 635 473 712 C484 791 430 854 350 854 L350 854 Z M324 671 C302 671 285 690 289 712 C292 735 313 754 335 754 C358 754 375 735 372 712 C368 690 347 671 324 671 L324 671 Z M174 361 C208 371 214 373 244 373 C282 373 282 351 278 322 L239 322 C143 322 78 275 65 182 L60 143 C47 50 68 -5 153 -5 L163 -5 C170 -5 205 -5 229 31 L237 31 L235 21 C234 9 242 0 254 0 L370 0 C382 0 392 9 393 21 L436 324 C453 443 414 520 288 520 C208 520 182 507 161 500 C150 497 142 490 141 480 C141 478 139 467 149 377 C151 364 158 360 164 360 C166 360 170 360 174 361 L174 361 Z M205 174 C207 190 218 201 232 201 L261 201 L255 163 C253 149 246 136 234 136 L223 136 C209 136 201 149 203 163 L205 174 Z " />
<glyph glyph-name="ae" unicode="&#xe6;" horiz-adv-x="633" d="M591 81 C593 85 596 90 597 93 C598 100 596 104 590 109 L525 170 C522 172 517 173 514 173 C506 173 500 169 495 164 C485 155 471 142 453 142 L439 142 C424 142 421 156 424 172 L427 197 L592 197 C609 197 622 208 624 225 L643 358 C654 438 619 520 519 520 L461 520 C430 520 403 512 381 499 C357 513 327 520 288 520 C208 520 182 507 161 500 C150 497 142 490 141 480 C141 478 139 467 149 377 C151 364 158 360 164 360 C166 360 170 360 174 361 C208 371 214 373 244 373 C282 373 282 351 278 322 L239 322 C143 322 78 275 65 182 L60 143 C47 50 68 -5 153 -5 L212 -5 C225 -5 275 8 299 44 L306 44 C326 15 359 -5 407 -5 L453 -5 C453 -5 529 -2 591 81 L591 81 Z M439 343 C441 359 448 373 461 373 L479 373 C492 373 495 359 493 343 L488 312 L434 312 L439 343 Z M205 174 C207 190 218 201 232 201 L261 201 L255 163 C253 149 246 136 234 136 L223 136 C209 136 201 149 203 163 L205 174 Z " />
<glyph glyph-name="ccedilla" unicode="&#xe7;" horiz-adv-x="423" d="M204 -92 C204 -92 216 -92 214 -105 C212 -118 200 -118 200 -118 L138 -118 C130 -118 122 -124 121 -133 L114 -180 C113 -188 119 -195 127 -195 L214 -195 C274 -195 295 -168 305 -93 C311 -53 286 -29 254 -23 L269 -2 C350 14 410 86 419 156 L423 183 C425 195 417 204 405 204 L295 204 C283 204 273 195 271 183 L270 172 C267 156 261 142 248 142 L233 142 C220 142 218 156 221 172 L245 343 C247 359 253 373 266 373 L281 373 C294 373 296 359 294 343 L292 332 C290 320 298 311 310 311 L420 311 C432 311 442 320 444 332 L448 358 C459 438 408 520 310 520 L279 520 C181 520 106 438 95 358 L66 156 C57 86 95 13 173 -2 L152 -32 C148 -37 145 -45 145 -48 L141 -77 C140 -85 146 -92 154 -92 L204 -92 Z " />
<glyph glyph-name="egrave" unicode="&#xe8;" horiz-adv-x="436" d="M359 571 C369 571 379 580 381 591 L342 724 C339 733 332 743 320 743 L212 743 C201 743 192 734 190 724 L229 591 C232 581 239 571 251 571 L359 571 Z M242 343 C244 359 251 373 264 373 L282 373 C295 373 298 359 296 343 L291 312 L237 312 L242 343 Z M394 81 C396 85 399 90 400 93 C401 100 399 104 393 109 L328 170 C325 172 320 173 317 173 C309 173 303 169 298 164 C288 155 274 142 256 142 L242 142 C227 142 224 156 227 172 L230 197 L395 197 C412 197 425 208 427 225 L446 358 C457 438 422 520 322 520 L264 520 C166 520 106 438 95 358 L66 156 C55 77 92 -5 190 -5 L256 -5 C256 -5 332 -2 394 81 L394 81 Z " />
<glyph glyph-name="eacute" unicode="&#xe9;" horiz-adv-x="436" d="M359 571 C371 571 380 581 387 591 L462 724 C464 734 457 743 446 743 L338 743 C326 743 317 733 310 724 L235 591 C233 580 241 571 251 571 L359 571 Z M242 343 C244 359 251 373 264 373 L282 373 C295 373 298 359 296 343 L291 312 L237 312 L242 343 Z M394 81 C396 85 399 90 400 93 C401 100 399 104 393 109 L328 170 C325 172 320 173 317 173 C309 173 303 169 298 164 C288 155 274 142 256 142 L242 142 C227 142 224 156 227 172 L230 197 L395 197 C412 197 425 208 427 225 L446 358 C457 438 422 520 322 520 L264 520 C166 520 106 438 95 358 L66 156 C55 77 92 -5 190 -5 L256 -5 C256 -5 332 -2 394 81 L394 81 Z " />
<glyph glyph-name="ecircumflex" unicode="&#xea;" horiz-adv-x="436" d="M281 779 C264 779 253 770 245 758 L139 591 C137 579 144 571 156 571 L255 571 C267 571 275 581 282 591 L310 634 L326 591 C329 581 335 571 347 571 L446 571 C458 571 467 579 469 591 L409 758 C405 770 396 779 379 779 L281 779 Z M242 343 C244 359 251 373 264 373 L282 373 C295 373 298 359 296 343 L291 312 L237 312 L242 343 Z M394 81 C396 85 399 90 400 93 C401 100 399 104 393 109 L328 170 C325 172 320 173 317 173 C309 173 303 169 298 164 C288 155 274 142 256 142 L242 142 C227 142 224 156 227 172 L230 197 L395 197 C412 197 425 208 427 225 L446 358 C457 438 422 520 322 520 L264 520 C166 520 106 438 95 358 L66 156 C55 77 92 -5 190 -5 L256 -5 C256 -5 332 -2 394 81 L394 81 Z " />
<glyph glyph-name="edieresis" unicode="&#xeb;" horiz-adv-x="436" d="M142 592 C140 580 148 571 160 571 L260 571 C272 571 282 580 284 592 L298 695 C300 707 292 716 280 716 L180 716 C168 716 158 707 156 695 L142 592 Z M324 592 C322 580 330 571 342 571 L442 571 C454 571 464 580 466 592 L480 695 C482 707 474 716 462 716 L362 716 C350 716 340 707 338 695 L324 592 Z M242 343 C244 359 251 373 264 373 L282 373 C295 373 298 359 296 343 L291 312 L237 312 L242 343 Z M394 81 C396 85 399 90 400 93 C401 100 399 104 393 109 L328 170 C325 172 320 173 317 173 C309 173 303 169 298 164 C288 155 274 142 256 142 L242 142 C227 142 224 156 227 172 L230 197 L395 197 C412 197 425 208 427 225 L446 358 C457 438 422 520 322 520 L264 520 C166 520 106 438 95 358 L66 156 C55 77 92 -5 190 -5 L256 -5 C256 -5 332 -2 394 81 L394 81 Z " />
<glyph glyph-name="igrave" unicode="&#xec;" horiz-adv-x="278" d="M62 21 C61 9 69 0 81 0 L197 0 C209 0 219 9 220 21 L287 494 C289 506 281 515 269 515 L153 515 C141 515 131 506 129 494 L62 21 Z M271 571 C281 571 291 580 293 591 L254 724 C251 733 244 743 232 743 L124 743 C113 743 104 734 102 724 L141 591 C144 581 151 571 163 571 L271 571 Z " />
<glyph glyph-name="iacute" unicode="&#xed;" horiz-adv-x="278" d="M287 494 C289 506 281 515 269 515 L153 515 C141 515 131 506 129 494 L62 21 C61 9 69 0 81 0 L197 0 C209 0 219 9 220 21 L287 494 Z M275 571 C287 571 296 581 303 591 L378 724 C380 734 373 743 362 743 L254 743 C242 743 233 733 226 724 L151 591 C149 580 157 571 167 571 L275 571 Z " />
<glyph glyph-name="icircumflex" unicode="&#xee;" horiz-adv-x="278" d="M62 21 C61 9 69 0 81 0 L197 0 C209 0 219 9 220 21 L287 494 C289 506 281 515 269 515 L153 515 C141 515 131 506 129 494 L62 21 Z M199 779 C182 779 171 770 163 758 L57 591 C55 579 62 571 74 571 L173 571 C185 571 193 581 200 591 L228 634 L244 591 C247 581 253 571 265 571 L364 571 C376 571 385 579 387 591 L327 758 C323 770 314 779 297 779 L199 779 Z " />
<glyph glyph-name="idieresis" unicode="&#xef;" horiz-adv-x="278" d="M62 21 C61 9 69 0 81 0 L197 0 C209 0 219 9 220 21 L287 494 C289 506 281 515 269 515 L153 515 C141 515 131 506 129 494 L62 21 Z M54 592 C52 580 60 571 72 571 L172 571 C184 571 194 580 196 592 L210 695 C212 707 204 716 192 716 L92 716 C80 716 70 707 68 695 L54 592 Z M248 592 C246 580 254 571 266 571 L366 571 C378 571 388 580 390 592 L404 695 C406 707 398 716 386 716 L286 716 C274 716 264 707 262 695 L248 592 Z " />
<glyph glyph-name="eth" unicode="&#xf0;" horiz-adv-x="519" d="M263 145 C243 145 230 162 233 183 L243 254 C246 276 264 292 284 292 L327 292 C346 292 359 276 356 254 L346 183 C343 162 325 145 306 145 L263 145 Z M74 176 C60 75 133 -5 237 -5 L291 -5 C395 -5 489 75 503 176 L515 261 C529 362 458 442 354 442 L321 442 C315 442 307 441 300 439 L343 484 L477 484 C489 484 499 493 500 505 L514 601 C516 613 508 622 496 622 L464 622 L513 679 C515 691 507 700 495 700 L379 700 C367 700 356 689 347 679 L295 622 L176 622 C164 622 154 613 152 601 L138 505 C137 493 145 484 157 484 L177 484 L118 419 C111 406 105 394 103 379 L74 176 Z " />
<glyph glyph-name="ntilde" unicode="&#xf1;" horiz-adv-x="469" d="M298 373 C312 373 311 359 309 343 L263 21 C262 9 270 0 282 0 L398 0 C410 0 420 9 421 21 L469 357 C482 450 482 520 386 520 L374 520 C350 520 322 510 291 470 L284 470 L287 494 C289 506 281 515 269 515 L153 515 C141 515 131 506 129 494 L62 21 C61 9 69 0 81 0 L197 0 C209 0 219 9 220 21 L265 338 C269 366 284 373 291 373 L298 373 Z M368 571 C396 571 424 587 451 603 C461 610 467 620 468 630 L453 716 C452 724 444 731 433 731 C413 731 406 720 389 720 C340 720 332 745 302 745 C274 745 246 729 219 713 C209 706 203 696 202 686 L217 600 C218 592 226 585 237 585 C257 585 264 596 281 596 C310 596 320 571 368 571 L368 571 Z " />
<glyph glyph-name="ograve" unicode="&#xf2;" horiz-adv-x="443" d="M354 571 C364 571 374 580 376 591 L337 724 C334 733 327 743 315 743 L207 743 C196 743 187 734 185 724 L224 591 C227 581 234 571 246 571 L354 571 Z M236 -5 C334 -5 408 77 419 156 L448 358 C459 438 408 520 310 520 L279 520 C181 520 106 438 95 358 L66 156 C55 77 107 -5 205 -5 L236 -5 Z M245 343 C247 359 253 373 266 373 L281 373 C294 373 296 359 294 343 L270 172 C267 156 261 142 248 142 L233 142 C220 142 218 156 221 172 L245 343 Z " />
<glyph glyph-name="oacute" unicode="&#xf3;" horiz-adv-x="443" d="M355 571 C367 571 376 581 383 591 L458 724 C460 734 453 743 442 743 L334 743 C322 743 313 733 306 724 L231 591 C229 580 237 571 247 571 L355 571 Z M236 -5 C334 -5 408 77 419 156 L448 358 C459 438 408 520 310 520 L279 520 C181 520 106 438 95 358 L66 156 C55 77 107 -5 205 -5 L236 -5 Z M245 343 C247 359 253 373 266 373 L281 373 C294 373 296 359 294 343 L270 172 C267 156 261 142 248 142 L233 142 C220 142 218 156 221 172 L245 343 Z " />
<glyph glyph-name="ocircumflex" unicode="&#xf4;" horiz-adv-x="443" d="M281 779 C264 779 253 770 245 758 L139 591 C137 579 144 571 156 571 L255 571 C267 571 275 581 282 591 L310 634 L326 591 C329 581 335 571 347 571 L446 571 C458 571 467 579 469 591 L409 758 C405 770 396 779 379 779 L281 779 Z M236 -5 C334 -5 408 77 419 156 L448 358 C459 438 408 520 310 520 L279 520 C181 520 106 438 95 358 L66 156 C55 77 107 -5 205 -5 L236 -5 Z M245 343 C247 359 253 373 266 373 L281 373 C294 373 296 359 294 343 L270 172 C267 156 261 142 248 142 L233 142 C220 142 218 156 221 172 L245 343 Z " />
<glyph glyph-name="otilde" unicode="&#xf5;" horiz-adv-x="443" d="M236 -5 C334 -5 408 77 419 156 L448 358 C459 438 408 520 310 520 L279 520 C181 520 106 438 95 358 L66 156 C55 77 107 -5 205 -5 L236 -5 Z M245 343 C247 359 253 373 266 373 L281 373 C294 373 296 359 294 343 L270 172 C267 156 261 142 248 142 L233 142 C220 142 218 156 221 172 L245 343 Z M353 571 C381 571 409 587 436 603 C446 610 452 620 453 630 L438 716 C437 724 429 731 418 731 C398 731 391 720 374 720 C325 720 317 745 287 745 C259 745 231 729 204 713 C194 706 188 696 187 686 L202 600 C203 592 211 585 222 585 C242 585 249 596 266 596 C295 596 305 571 353 571 L353 571 Z " />
<glyph glyph-name="odieresis" unicode="&#xf6;" horiz-adv-x="443" d="M136 592 C134 580 142 571 154 571 L254 571 C266 571 276 580 278 592 L292 695 C294 707 286 716 274 716 L174 716 C162 716 152 707 150 695 L136 592 Z M330 592 C328 580 336 571 348 571 L448 571 C460 571 470 580 472 592 L486 695 C488 707 480 716 468 716 L368 716 C356 716 346 707 344 695 L330 592 Z M236 -5 C334 -5 408 77 419 156 L448 358 C459 438 408 520 310 520 L279 520 C181 520 106 438 95 358 L66 156 C55 77 107 -5 205 -5 L236 -5 Z M245 343 C247 359 253 373 266 373 L281 373 C294 373 296 359 294 343 L270 172 C267 156 261 142 248 142 L233 142 C220 142 218 156 221 172 L245 343 Z " />
<glyph glyph-name="divide" unicode="&#xf7;" horiz-adv-x="429" d="M194 326 C193 314 200 305 212 305 L300 305 C312 305 323 314 324 326 L336 408 C338 420 330 429 318 429 L230 429 C218 429 208 420 206 408 L194 326 Z M368 146 C380 146 390 155 392 167 L404 253 C406 265 398 274 386 274 L119 274 C107 274 97 265 95 253 L83 167 C81 155 89 146 101 146 L368 146 Z M150 12 C149 0 156 -9 168 -9 L256 -9 C268 -9 279 0 280 12 L292 94 C293 106 286 115 274 115 L186 115 C174 115 163 106 162 94 L150 12 Z " />
<glyph glyph-name="oslash" unicode="&#xf8;" horiz-adv-x="475" d="M84 -70 C82 -82 90 -91 102 -91 L137 -91 C149 -91 158 -81 164 -70 L194 -4 C197 -4 201 -5 205 -5 L268 -5 C367 -5 440 77 451 156 L480 358 C487 411 468 465 424 495 L466 585 C467 597 460 606 448 606 L413 606 C401 606 391 596 386 585 L355 519 C351 520 347 520 342 520 L279 520 C181 520 106 438 95 358 L66 156 C59 102 79 48 124 18 L84 -70 Z M251 343 C253 359 264 373 279 373 L288 373 L240 269 L251 343 Z M267 142 L261 142 L305 235 L296 172 C293 156 282 142 267 142 L267 142 Z " />
<glyph glyph-name="ugrave" unicode="&#xf9;" horiz-adv-x="459" d="M359 571 C369 571 379 580 381 591 L342 724 C339 733 332 743 320 743 L212 743 C201 743 192 734 190 724 L229 591 C232 581 239 571 251 571 L359 571 Z M247 -5 C345 -5 419 77 430 156 L478 494 C480 506 472 515 460 515 L344 515 C332 515 322 506 320 494 L274 169 C272 153 266 142 254 142 L243 142 C231 142 229 153 231 169 L277 494 C279 506 271 515 259 515 L143 515 C131 515 121 506 119 494 L71 156 C60 77 112 -5 210 -5 L247 -5 Z " />
<glyph glyph-name="uacute" unicode="&#xfa;" horiz-adv-x="459" d="M364 571 C376 571 385 581 392 591 L467 724 C469 734 462 743 451 743 L343 743 C331 743 322 733 315 724 L240 591 C238 580 246 571 256 571 L364 571 Z M247 -5 C345 -5 419 77 430 156 L478 494 C480 506 472 515 460 515 L344 515 C332 515 322 506 320 494 L274 169 C272 153 266 142 254 142 L243 142 C231 142 229 153 231 169 L277 494 C279 506 271 515 259 515 L143 515 C131 515 121 506 119 494 L71 156 C60 77 112 -5 210 -5 L247 -5 Z " />
<glyph glyph-name="ucircumflex" unicode="&#xfb;" horiz-adv-x="459" d="M291 779 C274 779 263 770 255 758 L149 591 C147 579 154 571 166 571 L265 571 C277 571 285 581 292 591 L320 634 L336 591 C339 581 345 571 357 571 L456 571 C468 571 477 579 479 591 L419 758 C415 770 406 779 389 779 L291 779 Z M247 -5 C345 -5 419 77 430 156 L478 494 C480 506 472 515 460 515 L344 515 C332 515 322 506 320 494 L274 169 C272 153 266 142 254 142 L243 142 C231 142 229 153 231 169 L277 494 C279 506 271 515 259 515 L143 515 C131 515 121 506 119 494 L71 156 C60 77 112 -5 210 -5 L247 -5 Z " />
<glyph glyph-name="udieresis" unicode="&#xfc;" horiz-adv-x="459" d="M145 592 C143 580 151 571 163 571 L263 571 C275 571 285 580 287 592 L301 695 C303 707 295 716 283 716 L183 716 C171 716 161 707 159 695 L145 592 Z M339 592 C337 580 345 571 357 571 L457 571 C469 571 479 580 481 592 L495 695 C497 707 489 716 477 716 L377 716 C365 716 355 707 353 695 L339 592 Z M247 -5 C345 -5 419 77 430 156 L478 494 C480 506 472 515 460 515 L344 515 C332 515 322 506 320 494 L274 169 C272 153 266 142 254 142 L243 142 C231 142 229 153 231 169 L277 494 C279 506 271 515 259 515 L143 515 C131 515 121 506 119 494 L71 156 C60 77 112 -5 210 -5 L247 -5 Z " />
<glyph glyph-name="yacute" unicode="&#xfd;" horiz-adv-x="420" d="M356 571 C368 571 377 581 384 591 L459 724 C461 734 454 743 443 743 L335 743 C323 743 314 733 307 724 L232 591 C230 580 238 571 248 571 L356 571 Z M117 -25 C113 -46 89 -58 70 -58 L28 -58 C16 -58 6 -67 4 -79 L-9 -182 C-11 -194 -3 -203 8 -203 L89 -203 C114 -203 237 -182 299 -13 L484 494 C486 506 478 515 466 515 L352 515 C340 515 331 506 326 494 L245 218 L235 218 L232 494 C231 506 224 515 212 515 L98 515 C86 515 76 506 74 494 L117 -25 Z " />
<glyph glyph-name="thorn" unicode="&#xfe;" horiz-adv-x="468" d="M295 172 C292 156 286 142 271 142 L255 142 C240 142 239 156 242 172 L266 343 C268 359 273 373 288 373 L304 373 C319 373 321 359 319 343 L295 172 Z M286 484 L313 679 C315 691 307 700 295 700 L179 700 C167 700 157 691 155 679 L38 -153 C36 -165 44 -174 56 -174 L172 -174 C184 -174 194 -165 196 -153 L222 31 L230 31 C240 1 278 -5 287 -5 L304 -5 C400 -5 437 65 450 157 L478 358 C491 450 474 520 378 520 L361 520 C352 520 312 514 294 484 L286 484 Z " />
<glyph glyph-name="ydieresis" unicode="&#xff;" horiz-adv-x="420" d="M125 592 C123 580 131 571 143 571 L243 571 C255 571 265 580 267 592 L281 695 C283 707 275 716 263 716 L163 716 C151 716 141 707 139 695 L125 592 Z M319 592 C317 580 325 571 337 571 L437 571 C449 571 459 580 461 592 L475 695 C477 707 469 716 457 716 L357 716 C345 716 335 707 333 695 L319 592 Z M117 -25 C113 -46 89 -58 70 -58 L28 -58 C16 -58 6 -67 4 -79 L-9 -182 C-11 -194 -3 -203 8 -203 L89 -203 C114 -203 237 -182 299 -13 L484 494 C486 506 478 515 466 515 L352 515 C340 515 331 506 326 494 L245 218 L235 218 L232 494 C231 506 224 515 212 515 L98 515 C86 515 76 506 74 494 L117 -25 Z " />
<glyph glyph-name="Amacron" unicode="&#x100;" horiz-adv-x="552" d="M499 751 C511 751 521 760 523 772 L538 880 C540 892 532 901 520 901 L285 901 C273 901 263 892 261 880 L246 772 C244 760 252 751 264 751 L499 751 Z M376 21 C378 9 385 0 397 0 L516 0 C528 0 538 9 539 21 L473 679 C472 691 464 700 452 700 L296 700 C284 700 274 691 269 679 L17 21 C16 9 24 0 36 0 L155 0 C167 0 176 9 180 21 L212 112 L369 112 L376 21 Z M335 456 L345 456 L358 261 L265 261 L335 456 Z " />
<glyph glyph-name="amacron" unicode="&#x101;" horiz-adv-x="436" d="M424 571 C436 571 446 580 448 592 L463 700 C465 712 457 721 445 721 L210 721 C198 721 188 712 186 700 L171 592 C169 580 177 571 189 571 L424 571 Z M174 361 C208 371 214 373 244 373 C282 373 282 351 278 322 L239 322 C143 322 78 275 65 182 L60 143 C47 50 68 -5 153 -5 L163 -5 C170 -5 205 -5 229 31 L237 31 L235 21 C234 9 242 0 254 0 L370 0 C382 0 392 9 393 21 L436 324 C453 443 414 520 288 520 C208 520 182 507 161 500 C150 497 142 490 141 480 C141 478 139 467 149 377 C151 364 158 360 164 360 C166 360 170 360 174 361 L174 361 Z M205 174 C207 190 218 201 232 201 L261 201 L255 163 C253 149 246 136 234 136 L223 136 C209 136 201 149 203 163 L205 174 Z " />
<glyph glyph-name="Abreve" unicode="&#x102;" horiz-adv-x="552" d="M376 21 C378 9 385 0 397 0 L516 0 C528 0 538 9 539 21 L473 679 C472 691 464 700 452 700 L296 700 C284 700 274 691 269 679 L17 21 C16 9 24 0 36 0 L155 0 C167 0 176 9 180 21 L212 112 L369 112 L376 21 Z M335 456 L345 456 L358 261 L265 261 L335 456 Z M381 751 C482 751 531 800 559 909 C561 919 555 926 545 926 L456 926 C446 926 436 920 431 909 C419 875 415 870 398 870 C381 870 377 875 375 909 C374 920 366 926 356 926 L267 926 C257 926 249 919 247 909 C245 800 280 751 381 751 L381 751 Z " />
<glyph glyph-name="abreve" unicode="&#x103;" horiz-adv-x="436" d="M174 361 C208 371 214 373 244 373 C282 373 282 351 278 322 L239 322 C143 322 78 275 65 182 L60 143 C47 50 68 -5 153 -5 L163 -5 C170 -5 205 -5 229 31 L237 31 L235 21 C234 9 242 0 254 0 L370 0 C382 0 392 9 393 21 L436 324 C453 443 414 520 288 520 C208 520 182 507 161 500 C150 497 142 490 141 480 C141 478 139 467 149 377 C151 364 158 360 164 360 C166 360 170 360 174 361 L174 361 Z M205 174 C207 190 218 201 232 201 L261 201 L255 163 C253 149 246 136 234 136 L223 136 C209 136 201 149 203 163 L205 174 Z M301 571 C402 571 451 620 479 729 C480 739 474 746 464 746 L375 746 C365 746 356 740 351 729 C339 695 334 690 317 690 C300 690 297 695 295 729 C294 740 285 746 275 746 L186 746 C176 746 168 739 167 729 C165 620 200 571 301 571 L301 571 Z " />
<glyph glyph-name="Aogonek" unicode="&#x104;" horiz-adv-x="552" d="M335 456 L345 456 L358 261 L265 261 L335 456 Z M374 65 C329 39 315 -19 313 -34 C306 -79 331 -123 390 -123 L461 -123 C469 -123 477 -116 478 -108 L486 -56 C487 -47 481 -41 473 -41 L419 -41 C419 -41 402 -41 405 -20 C406 -10 413 0 425 0 L516 0 C528 0 538 9 539 21 L473 679 C472 691 464 700 452 700 L296 700 C284 700 274 691 269 679 L17 21 C16 9 24 0 36 0 L155 0 C167 0 176 9 180 21 L212 112 L369 112 L374 65 Z " />
<glyph glyph-name="aogonek" unicode="&#x105;" horiz-adv-x="436" d="M205 174 C207 190 218 201 232 201 L261 201 L255 163 C253 149 246 136 234 136 L223 136 C209 136 201 149 203 163 L205 174 Z M237 31 L232 -4 C195 -34 190 -70 188 -82 C182 -127 206 -171 265 -171 L346 -171 C354 -171 362 -164 364 -156 L371 -104 C372 -95 366 -89 358 -89 L294 -89 C294 -89 277 -89 280 -68 C281 -58 288 -48 300 -48 L365 -48 C376 -48 385 -40 386 -29 L436 324 C453 443 414 520 288 520 C208 520 182 507 161 500 C150 497 142 490 141 480 C141 478 139 467 149 377 C151 364 158 360 164 360 C166 360 170 360 174 361 C208 371 214 373 244 373 C282 373 282 351 278 322 L239 322 C143 322 78 275 65 182 L60 143 C47 50 68 -5 153 -5 L163 -5 C170 -5 205 -5 229 31 L237 31 Z " />
<glyph glyph-name="Cacute" unicode="&#x106;" horiz-adv-x="514" d="M431 751 C443 751 452 761 459 771 L535 904 C536 914 529 923 518 923 L410 923 C398 923 389 913 383 904 L307 771 C305 760 313 751 323 751 L431 751 Z M510 221 C511 233 504 242 492 242 L376 242 C364 242 353 233 352 221 L346 183 C343 162 326 145 307 145 L262 145 C244 145 230 162 233 183 L280 517 C283 538 302 555 320 555 L365 555 C384 555 396 538 393 517 L388 479 C386 467 394 458 406 458 L522 458 C534 458 544 467 546 479 L552 524 C566 625 495 705 390 705 L337 705 C232 705 137 625 123 524 L74 176 C60 75 132 -5 237 -5 L290 -5 C395 -5 489 75 503 176 L510 221 Z " />
<glyph glyph-name="cacute" unicode="&#x107;" horiz-adv-x="423" d="M362 571 C374 571 383 581 390 591 L465 724 C467 734 460 743 449 743 L341 743 C329 743 320 733 313 724 L238 591 C236 580 244 571 254 571 L362 571 Z M270 172 C267 156 261 142 248 142 L233 142 C220 142 218 156 221 172 L245 343 C247 359 253 373 266 373 L281 373 C294 373 296 359 294 343 L292 332 C290 320 298 311 310 311 L420 311 C432 311 442 320 444 332 L448 358 C459 438 408 520 310 520 L279 520 C181 520 106 438 95 358 L66 156 C55 77 107 -5 205 -5 L236 -5 C334 -5 408 77 419 156 L423 183 C425 195 417 204 405 204 L295 204 C283 204 273 195 271 183 L270 172 Z " />
<glyph glyph-name="Ccircumflex" unicode="&#x108;" horiz-adv-x="514" d="M349 959 C332 959 321 950 313 938 L207 771 C205 759 212 751 224 751 L323 751 C335 751 343 761 350 771 L378 814 L394 771 C397 761 403 751 415 751 L514 751 C526 751 535 759 537 771 L477 938 C473 950 464 959 447 959 L349 959 Z M510 221 C511 233 504 242 492 242 L376 242 C364 242 353 233 352 221 L346 183 C343 162 326 145 307 145 L262 145 C244 145 230 162 233 183 L280 517 C283 538 302 555 320 555 L365 555 C384 555 396 538 393 517 L388 479 C386 467 394 458 406 458 L522 458 C534 458 544 467 546 479 L552 524 C566 625 495 705 390 705 L337 705 C232 705 137 625 123 524 L74 176 C60 75 132 -5 237 -5 L290 -5 C395 -5 489 75 503 176 L510 221 Z " />
<glyph glyph-name="ccircumflex" unicode="&#x109;" horiz-adv-x="423" d="M281 779 C264 779 253 770 245 758 L139 591 C137 579 144 571 156 571 L255 571 C267 571 275 581 282 591 L310 634 L326 591 C329 581 335 571 347 571 L446 571 C458 571 467 579 469 591 L409 758 C405 770 396 779 379 779 L281 779 Z M270 172 C267 156 261 142 248 142 L233 142 C220 142 218 156 221 172 L245 343 C247 359 253 373 266 373 L281 373 C294 373 296 359 294 343 L292 332 C290 320 298 311 310 311 L420 311 C432 311 442 320 444 332 L448 358 C459 438 408 520 310 520 L279 520 C181 520 106 438 95 358 L66 156 C55 77 107 -5 205 -5 L236 -5 C334 -5 408 77 419 156 L423 183 C425 195 417 204 405 204 L295 204 C283 204 273 195 271 183 L270 172 Z " />
<glyph glyph-name="Cdotaccent" unicode="&#x10a;" horiz-adv-x="514" d="M304 772 C302 760 310 751 322 751 L422 751 C434 751 444 760 446 772 L460 875 C462 887 454 896 442 896 L342 896 C330 896 320 887 318 875 L304 772 Z M510 221 C511 233 504 242 492 242 L376 242 C364 242 353 233 352 221 L346 183 C343 162 326 145 307 145 L262 145 C244 145 230 162 233 183 L280 517 C283 538 302 555 320 555 L365 555 C384 555 396 538 393 517 L388 479 C386 467 394 458 406 458 L522 458 C534 458 544 467 546 479 L552 524 C566 625 495 705 390 705 L337 705 C232 705 137 625 123 524 L74 176 C60 75 132 -5 237 -5 L290 -5 C395 -5 489 75 503 176 L510 221 Z " />
<glyph glyph-name="cdotaccent" unicode="&#x10b;" horiz-adv-x="423" d="M231 592 C229 580 237 571 249 571 L349 571 C361 571 371 580 373 592 L387 695 C389 707 381 716 369 716 L269 716 C257 716 247 707 245 695 L231 592 Z M270 172 C267 156 261 142 248 142 L233 142 C220 142 218 156 221 172 L245 343 C247 359 253 373 266 373 L281 373 C294 373 296 359 294 343 L292 332 C290 320 298 311 310 311 L420 311 C432 311 442 320 444 332 L448 358 C459 438 408 520 310 520 L279 520 C181 520 106 438 95 358 L66 156 C55 77 107 -5 205 -5 L236 -5 C334 -5 408 77 419 156 L423 183 C425 195 417 204 405 204 L295 204 C283 204 273 195 271 183 L270 172 Z " />
<glyph glyph-name="Ccaron" unicode="&#x10c;" horiz-adv-x="514" d="M418 751 C435 751 446 760 454 772 L560 939 C562 951 555 959 543 959 L444 959 C432 959 424 949 417 939 L389 896 L373 939 C370 949 364 959 352 959 L253 959 C241 959 232 951 230 939 L290 772 C294 760 303 751 320 751 L418 751 Z M510 221 C511 233 504 242 492 242 L376 242 C364 242 353 233 352 221 L346 183 C343 162 326 145 307 145 L262 145 C244 145 230 162 233 183 L280 517 C283 538 302 555 320 555 L365 555 C384 555 396 538 393 517 L388 479 C386 467 394 458 406 458 L522 458 C534 458 544 467 546 479 L552 524 C566 625 495 705 390 705 L337 705 C232 705 137 625 123 524 L74 176 C60 75 132 -5 237 -5 L290 -5 C395 -5 489 75 503 176 L510 221 Z " />
<glyph glyph-name="ccaron" unicode="&#x10d;" horiz-adv-x="423" d="M352 571 C369 571 380 580 388 592 L494 759 C496 771 489 779 477 779 L378 779 C366 779 358 769 351 759 L323 716 L307 759 C304 769 298 779 286 779 L187 779 C175 779 166 771 164 759 L224 592 C228 580 237 571 254 571 L352 571 Z M270 172 C267 156 261 142 248 142 L233 142 C220 142 218 156 221 172 L245 343 C247 359 253 373 266 373 L281 373 C294 373 296 359 294 343 L292 332 C290 320 298 311 310 311 L420 311 C432 311 442 320 444 332 L448 358 C459 438 408 520 310 520 L279 520 C181 520 106 438 95 358 L66 156 C55 77 107 -5 205 -5 L236 -5 C334 -5 408 77 419 156 L423 183 C425 195 417 204 405 204 L295 204 C283 204 273 195 271 183 L270 172 Z " />
<glyph glyph-name="Dcaron" unicode="&#x10e;" horiz-adv-x="540" d="M400 751 C417 751 428 760 436 772 L542 939 C544 951 537 959 525 959 L426 959 C414 959 406 949 399 939 L371 896 L355 939 C352 949 346 959 334 959 L235 959 C223 959 214 951 212 939 L272 772 C276 760 285 751 302 751 L400 751 Z M62 21 C61 9 69 0 81 0 L302 0 C406 0 501 80 515 181 L562 519 C577 620 504 700 400 700 L179 700 C167 700 157 691 155 679 L62 21 Z M374 551 C393 551 407 534 404 513 L358 187 C355 166 336 149 317 149 L238 149 L295 551 L374 551 Z " />
<glyph glyph-name="dcaron" unicode="&#x10f;" horiz-adv-x="661" d="M653 528 C665 528 674 538 681 548 L756 681 C758 691 751 700 740 700 L632 700 C620 700 610 690 604 681 L529 548 C527 537 535 528 545 528 L653 528 Z M245 343 C247 359 253 373 268 373 L284 373 C299 373 300 359 298 343 L274 172 C271 156 266 142 251 142 L235 142 C220 142 218 156 221 172 L245 343 Z M310 484 C300 514 262 520 253 520 L236 520 C140 520 103 450 90 358 L62 157 C49 65 66 -5 162 -5 L179 -5 C188 -5 228 1 246 31 L254 31 L252 21 C251 9 259 0 271 0 L387 0 C399 0 409 9 410 21 L503 679 C505 691 497 700 485 700 L369 700 C357 700 347 691 345 679 L318 484 L310 484 Z " />
<glyph glyph-name="Dcroat" unicode="&#x110;" horiz-adv-x="544" d="M66 21 C65 9 73 0 85 0 L306 0 C410 0 505 80 519 181 L566 519 C581 620 508 700 404 700 L183 700 C171 700 161 691 159 679 L122 416 L79 416 C67 416 57 407 55 395 L42 303 C40 291 48 282 60 282 L103 282 L66 21 Z M315 282 C327 282 337 291 339 303 L352 395 C354 407 346 416 334 416 L280 416 L299 551 L378 551 C397 551 411 534 408 513 L362 187 C359 166 340 149 321 149 L242 149 L261 282 L315 282 Z " />
<glyph glyph-name="dcroat" unicode="&#x111;" horiz-adv-x="458" d="M513 546 C525 546 536 555 537 567 L547 636 C549 648 541 657 529 657 L500 657 L503 679 C505 691 497 700 485 700 L369 700 C357 700 347 691 345 679 L342 657 L301 657 C289 657 279 648 277 636 L267 567 C266 555 273 546 285 546 L326 546 L318 484 L310 484 C300 514 262 520 253 520 L236 520 C140 520 103 450 90 358 L62 157 C49 65 66 -5 162 -5 L179 -5 C188 -5 228 1 246 31 L254 31 L252 21 C251 9 259 0 271 0 L387 0 C399 0 409 9 410 21 L484 546 L513 546 Z M245 343 C247 359 253 373 268 373 L284 373 C299 373 300 359 298 343 L274 172 C271 156 266 142 251 142 L235 142 C220 142 218 156 221 172 L245 343 Z " />
<glyph glyph-name="Emacron" unicode="&#x112;" horiz-adv-x="473" d="M468 751 C480 751 490 760 492 772 L507 880 C509 892 501 901 489 901 L254 901 C242 901 232 892 230 880 L215 772 C213 760 221 751 233 751 L468 751 Z M239 150 L258 287 L420 287 C432 287 442 296 444 308 L459 416 C461 428 453 437 441 437 L279 437 L295 550 L479 550 C491 550 501 559 503 571 L518 679 C520 691 512 700 500 700 L179 700 C167 700 157 691 155 679 L62 21 C61 9 69 0 81 0 L402 0 C414 0 424 9 425 21 L441 129 C442 141 435 150 423 150 L239 150 Z " />
<glyph glyph-name="emacron" unicode="&#x113;" horiz-adv-x="436" d="M419 571 C431 571 441 580 443 592 L458 700 C460 712 452 721 440 721 L205 721 C193 721 183 712 181 700 L166 592 C164 580 172 571 184 571 L419 571 Z M242 343 C244 359 251 373 264 373 L282 373 C295 373 298 359 296 343 L291 312 L237 312 L242 343 Z M394 81 C396 85 399 90 400 93 C401 100 399 104 393 109 L328 170 C325 172 320 173 317 173 C309 173 303 169 298 164 C288 155 274 142 256 142 L242 142 C227 142 224 156 227 172 L230 197 L395 197 C412 197 425 208 427 225 L446 358 C457 438 422 520 322 520 L264 520 C166 520 106 438 95 358 L66 156 C55 77 92 -5 190 -5 L256 -5 C256 -5 332 -2 394 81 L394 81 Z " />
<glyph glyph-name="Edotaccent" unicode="&#x116;" horiz-adv-x="473" d="M277 772 C275 760 283 751 295 751 L395 751 C407 751 417 760 419 772 L433 875 C435 887 427 896 415 896 L315 896 C303 896 293 887 291 875 L277 772 Z M239 150 L258 287 L420 287 C432 287 442 296 444 308 L459 416 C461 428 453 437 441 437 L279 437 L295 550 L479 550 C491 550 501 559 503 571 L518 679 C520 691 512 700 500 700 L179 700 C167 700 157 691 155 679 L62 21 C61 9 69 0 81 0 L402 0 C414 0 424 9 425 21 L441 129 C442 141 435 150 423 150 L239 150 Z " />
<glyph glyph-name="edotaccent" unicode="&#x117;" horiz-adv-x="436" d="M233 592 C231 580 239 571 251 571 L351 571 C363 571 373 580 375 592 L389 695 C391 707 383 716 371 716 L271 716 C259 716 249 707 247 695 L233 592 Z M242 343 C244 359 251 373 264 373 L282 373 C295 373 298 359 296 343 L291 312 L237 312 L242 343 Z M394 81 C396 85 399 90 400 93 C401 100 399 104 393 109 L328 170 C325 172 320 173 317 173 C309 173 303 169 298 164 C288 155 274 142 256 142 L242 142 C227 142 224 156 227 172 L230 197 L395 197 C412 197 425 208 427 225 L446 358 C457 438 422 520 322 520 L264 520 C166 520 106 438 95 358 L66 156 C55 77 92 -5 190 -5 L256 -5 C256 -5 332 -2 394 81 L394 81 Z " />
<glyph glyph-name="Eogonek" unicode="&#x118;" horiz-adv-x="473" d="M239 0 C230 -15 228 -28 227 -34 C220 -79 245 -123 304 -123 L375 -123 C383 -123 391 -116 392 -108 L400 -56 C401 -47 395 -41 387 -41 L333 -41 C333 -41 316 -41 319 -20 C320 -10 325 -1 336 0 L402 0 C414 0 424 9 425 21 L441 129 C442 141 435 150 423 150 L239 150 L258 287 L420 287 C432 287 442 296 444 308 L459 416 C461 428 453 437 441 437 L279 437 L295 550 L479 550 C491 550 501 559 503 571 L518 679 C520 691 512 700 500 700 L179 700 C167 700 157 691 155 679 L62 21 C61 9 69 0 81 0 L239 0 Z " />
<glyph glyph-name="eogonek" unicode="&#x119;" horiz-adv-x="436" d="M394 81 C396 85 399 90 400 93 C401 100 399 104 393 109 L328 170 C325 172 320 173 317 173 C309 173 303 169 298 164 C288 155 274 142 256 142 L242 142 C227 142 224 156 227 172 L230 197 L395 197 C412 197 425 208 427 225 L446 358 C457 438 422 520 322 520 L264 520 C166 520 106 438 95 358 L66 156 C57 91 80 24 142 2 C138 -10 133 -31 132 -40 C126 -84 150 -123 209 -123 L294 -123 C302 -123 310 -116 311 -108 L318 -58 C320 -49 313 -43 305 -43 L236 -43 C236 -43 220 -43 223 -25 C225 -13 233 -6 240 -5 L256 -5 C256 -5 332 -2 394 81 L394 81 Z M242 343 C244 359 251 373 264 373 L282 373 C295 373 298 359 296 343 L291 312 L237 312 L242 343 Z " />
<glyph glyph-name="Ecaron" unicode="&#x11a;" horiz-adv-x="473" d="M401 751 C418 751 429 760 437 772 L543 939 C545 951 538 959 526 959 L427 959 C415 959 407 949 400 939 L372 896 L356 939 C353 949 347 959 335 959 L236 959 C224 959 215 951 213 939 L273 772 C277 760 286 751 303 751 L401 751 Z M239 150 L258 287 L420 287 C432 287 442 296 444 308 L459 416 C461 428 453 437 441 437 L279 437 L295 550 L479 550 C491 550 501 559 503 571 L518 679 C520 691 512 700 500 700 L179 700 C167 700 157 691 155 679 L62 21 C61 9 69 0 81 0 L402 0 C414 0 424 9 425 21 L441 129 C442 141 435 150 423 150 L239 150 Z " />
<glyph glyph-name="ecaron" unicode="&#x11b;" horiz-adv-x="436" d="M351 571 C368 571 379 580 387 592 L493 759 C495 771 488 779 476 779 L377 779 C365 779 357 769 350 759 L322 716 L306 759 C303 769 297 779 285 779 L186 779 C174 779 165 771 163 759 L223 592 C227 580 236 571 253 571 L351 571 Z M242 343 C244 359 251 373 264 373 L282 373 C295 373 298 359 296 343 L291 312 L237 312 L242 343 Z M394 81 C396 85 399 90 400 93 C401 100 399 104 393 109 L328 170 C325 172 320 173 317 173 C309 173 303 169 298 164 C288 155 274 142 256 142 L242 142 C227 142 224 156 227 172 L230 197 L395 197 C412 197 425 208 427 225 L446 358 C457 438 422 520 322 520 L264 520 C166 520 106 438 95 358 L66 156 C55 77 92 -5 190 -5 L256 -5 C256 -5 332 -2 394 81 L394 81 Z " />
<glyph glyph-name="Gcircumflex" unicode="&#x11c;" horiz-adv-x="529" d="M347 959 C330 959 319 950 311 938 L205 771 C203 759 210 751 222 751 L321 751 C333 751 341 761 348 771 L376 814 L392 771 C395 761 401 751 413 751 L512 751 C524 751 533 759 535 771 L475 938 C471 950 462 959 445 959 L347 959 Z M347 406 C335 406 324 397 323 385 L308 283 C307 271 314 262 326 262 L357 262 L346 183 C343 162 326 145 307 145 L262 145 C244 145 230 162 233 183 L280 517 C283 538 302 555 320 555 L365 555 C384 555 396 538 393 517 L388 479 C386 467 394 458 406 458 L522 458 C534 458 544 467 546 479 L552 524 C566 625 495 705 390 705 L337 705 C232 705 137 625 123 524 L74 176 C60 75 132 -5 237 -5 L290 -5 C395 -5 489 75 503 176 L533 385 C534 397 527 406 515 406 L347 406 Z " />
<glyph glyph-name="gcircumflex" unicode="&#x11d;" horiz-adv-x="468" d="M286 779 C269 779 258 770 250 758 L144 591 C142 579 149 571 161 571 L260 571 C272 571 280 581 287 591 L315 634 L331 591 C334 581 340 571 352 571 L451 571 C463 571 472 579 474 591 L414 758 C410 770 401 779 384 779 L286 779 Z M245 343 C247 359 253 373 268 373 L284 373 C299 373 300 359 298 343 L274 172 C271 156 266 142 251 142 L235 142 C220 142 218 156 221 172 L245 343 Z M246 -22 C244 -38 240 -60 190 -60 C128 -60 119 -49 112 -49 C103 -49 97 -54 92 -66 C61 -146 56 -163 55 -166 C54 -175 59 -179 68 -183 C88 -190 111 -203 184 -203 C375 -203 398 -70 405 -20 L477 494 C479 506 471 515 459 515 L343 515 C331 515 321 506 319 494 L318 484 L310 484 C300 514 262 520 253 520 L236 520 C140 520 103 450 90 358 L62 157 C49 65 66 -5 162 -5 L179 -5 C188 -5 228 1 246 31 L254 31 L246 -22 Z " />
<glyph glyph-name="Gbreve" unicode="&#x11e;" horiz-adv-x="529" d="M347 406 C335 406 324 397 323 385 L308 283 C307 271 314 262 326 262 L357 262 L346 183 C343 162 326 145 307 145 L262 145 C244 145 230 162 233 183 L280 517 C283 538 302 555 320 555 L365 555 C384 555 396 538 393 517 L388 479 C386 467 394 458 406 458 L522 458 C534 458 544 467 546 479 L552 524 C566 625 495 705 390 705 L337 705 C232 705 137 625 123 524 L74 176 C60 75 132 -5 237 -5 L290 -5 C395 -5 489 75 503 176 L533 385 C534 397 527 406 515 406 L347 406 Z M372 751 C473 751 522 800 550 909 C552 919 546 926 536 926 L447 926 C437 926 427 920 422 909 C410 875 406 870 389 870 C372 870 368 875 366 909 C365 920 357 926 347 926 L258 926 C248 926 240 919 238 909 C236 800 271 751 372 751 L372 751 Z " />
<glyph glyph-name="gbreve" unicode="&#x11f;" horiz-adv-x="468" d="M245 343 C247 359 253 373 268 373 L284 373 C299 373 300 359 298 343 L274 172 C271 156 266 142 251 142 L235 142 C220 142 218 156 221 172 L245 343 Z M246 -22 C244 -38 240 -60 190 -60 C128 -60 119 -49 112 -49 C103 -49 97 -54 92 -66 C61 -146 56 -163 55 -166 C54 -175 59 -179 68 -183 C88 -190 111 -203 184 -203 C375 -203 398 -70 405 -20 L477 494 C479 506 471 515 459 515 L343 515 C331 515 321 506 319 494 L318 484 L310 484 C300 514 262 520 253 520 L236 520 C140 520 103 450 90 358 L62 157 C49 65 66 -5 162 -5 L179 -5 C188 -5 228 1 246 31 L254 31 L246 -22 Z M298 571 C399 571 448 620 476 729 C477 739 471 746 461 746 L372 746 C362 746 353 740 348 729 C336 695 331 690 314 690 C297 690 294 695 292 729 C291 740 282 746 272 746 L183 746 C173 746 165 739 164 729 C162 620 197 571 298 571 L298 571 Z " />
<glyph glyph-name="Gdotaccent" unicode="&#x120;" horiz-adv-x="529" d="M300 772 C298 760 306 751 318 751 L418 751 C430 751 440 760 442 772 L456 875 C458 887 450 896 438 896 L338 896 C326 896 316 887 314 875 L300 772 Z M347 406 C335 406 324 397 323 385 L308 283 C307 271 314 262 326 262 L357 262 L346 183 C343 162 326 145 307 145 L262 145 C244 145 230 162 233 183 L280 517 C283 538 302 555 320 555 L365 555 C384 555 396 538 393 517 L388 479 C386 467 394 458 406 458 L522 458 C534 458 544 467 546 479 L552 524 C566 625 495 705 390 705 L337 705 C232 705 137 625 123 524 L74 176 C60 75 132 -5 237 -5 L290 -5 C395 -5 489 75 503 176 L533 385 C534 397 527 406 515 406 L347 406 Z " />
<glyph glyph-name="gdotaccent" unicode="&#x121;" horiz-adv-x="468" d="M237 592 C235 580 243 571 255 571 L355 571 C367 571 377 580 379 592 L393 695 C395 707 387 716 375 716 L275 716 C263 716 253 707 251 695 L237 592 Z M245 343 C247 359 253 373 268 373 L284 373 C299 373 300 359 298 343 L274 172 C271 156 266 142 251 142 L235 142 C220 142 218 156 221 172 L245 343 Z M246 -22 C244 -38 240 -60 190 -60 C128 -60 119 -49 112 -49 C103 -49 97 -54 92 -66 C61 -146 56 -163 55 -166 C54 -175 59 -179 68 -183 C88 -190 111 -203 184 -203 C375 -203 398 -70 405 -20 L477 494 C479 506 471 515 459 515 L343 515 C331 515 321 506 319 494 L318 484 L310 484 C300 514 262 520 253 520 L236 520 C140 520 103 450 90 358 L62 157 C49 65 66 -5 162 -5 L179 -5 C188 -5 228 1 246 31 L254 31 L246 -22 Z " />
<glyph glyph-name="uni0122" unicode="&#x122;" horiz-adv-x="529" d="M239 -223 C251 -223 261 -213 267 -203 L326 -72 C328 -62 321 -53 310 -53 L202 -53 C190 -53 181 -63 174 -72 L115 -203 C113 -214 121 -223 131 -223 L239 -223 Z M347 406 C335 406 324 397 323 385 L308 283 C307 271 314 262 326 262 L357 262 L346 183 C343 162 326 145 307 145 L262 145 C244 145 230 162 233 183 L280 517 C283 538 302 555 320 555 L365 555 C384 555 396 538 393 517 L388 479 C386 467 394 458 406 458 L522 458 C534 458 544 467 546 479 L552 524 C566 625 495 705 390 705 L337 705 C232 705 137 625 123 524 L74 176 C60 75 132 -5 237 -5 L290 -5 C395 -5 489 75 503 176 L533 385 C534 397 527 406 515 406 L347 406 Z " />
<glyph glyph-name="uni0123" unicode="&#x123;" horiz-adv-x="468" d="M348 571 C360 571 369 581 376 591 L451 724 C453 734 446 743 435 743 L327 743 C315 743 306 733 299 724 L224 591 C222 580 230 571 240 571 L348 571 Z M245 343 C247 359 253 373 268 373 L284 373 C299 373 300 359 298 343 L274 172 C271 156 266 142 251 142 L235 142 C220 142 218 156 221 172 L245 343 Z M246 -22 C244 -38 240 -60 190 -60 C128 -60 119 -49 112 -49 C103 -49 97 -54 92 -66 C61 -146 56 -163 55 -166 C54 -175 59 -179 68 -183 C88 -190 111 -203 184 -203 C375 -203 398 -70 405 -20 L477 494 C479 506 471 515 459 515 L343 515 C331 515 321 506 319 494 L318 484 L310 484 C300 514 262 520 253 520 L236 520 C140 520 103 450 90 358 L62 157 C49 65 66 -5 162 -5 L179 -5 C188 -5 228 1 246 31 L254 31 L246 -22 Z " />
<glyph glyph-name="Hcircumflex" unicode="&#x124;" horiz-adv-x="546" d="M358 959 C341 959 330 950 322 938 L216 771 C214 759 221 751 233 751 L332 751 C344 751 352 761 359 771 L387 814 L403 771 C406 761 412 751 424 751 L523 751 C535 751 544 759 546 771 L486 938 C482 950 473 959 456 959 L358 959 Z M330 21 C329 9 337 0 349 0 L465 0 C477 0 487 9 488 21 L581 679 C583 691 575 700 563 700 L447 700 C435 700 425 691 423 679 L386 414 L276 414 L313 679 C315 691 307 700 295 700 L179 700 C167 700 157 691 155 679 L62 21 C61 9 69 0 81 0 L197 0 C209 0 219 9 220 21 L255 265 L365 265 L330 21 Z " />
<glyph glyph-name="hcircumflex" unicode="&#x125;" horiz-adv-x="469" d="M314 959 C297 959 286 950 278 938 L172 771 C170 759 177 751 189 751 L288 751 C300 751 308 761 315 771 L343 814 L359 771 C362 761 368 751 380 751 L479 751 C491 751 500 759 502 771 L442 938 C438 950 429 959 412 959 L314 959 Z M298 373 C312 373 311 359 309 343 L263 21 C262 9 270 0 282 0 L398 0 C410 0 420 9 421 21 L469 357 C482 450 482 520 386 520 L374 520 C350 520 322 510 291 470 L284 470 L313 679 C315 691 307 700 295 700 L179 700 C167 700 157 691 155 679 L62 21 C61 9 69 0 81 0 L197 0 C209 0 219 9 220 21 L265 338 C269 366 284 373 291 373 L298 373 Z " />
<glyph glyph-name="Hbar" unicode="&#x126;" horiz-adv-x="534" d="M572 422 C584 422 594 431 596 443 L609 536 C611 548 603 557 591 557 L558 557 L575 679 C577 691 569 700 557 700 L441 700 C429 700 419 691 417 679 L400 557 L290 557 L307 679 C309 691 301 700 289 700 L173 700 C161 700 151 691 149 679 L132 557 L99 557 C87 557 77 548 75 536 L62 443 C60 431 68 422 80 422 L113 422 L56 21 C55 9 63 0 75 0 L191 0 C203 0 213 9 214 21 L239 193 L349 193 L324 21 C323 9 331 0 343 0 L459 0 C471 0 481 9 482 21 L539 422 L572 422 Z M260 342 L271 422 L381 422 L370 342 L260 342 Z " />
<glyph glyph-name="hbar" unicode="&#x127;" horiz-adv-x="459" d="M126 546 L52 21 C51 9 59 0 71 0 L187 0 C199 0 209 9 210 21 L255 338 C259 366 274 373 281 373 L288 373 C302 373 301 359 299 343 L253 21 C252 9 260 0 272 0 L388 0 C400 0 410 9 411 21 L459 357 C472 450 472 520 376 520 L364 520 C340 520 312 510 281 470 L274 470 L284 546 L325 546 C337 546 348 555 349 567 L359 636 C361 648 353 657 341 657 L300 657 L303 679 C305 691 297 700 285 700 L169 700 C157 700 147 691 145 679 L142 657 L113 657 C101 657 91 648 89 636 L79 567 C78 555 85 546 97 546 L126 546 Z " />
<glyph glyph-name="Itilde" unicode="&#x128;" horiz-adv-x="278" d="M62 21 C61 9 69 0 81 0 L197 0 C209 0 219 9 220 21 L313 679 C315 691 307 700 295 700 L179 700 C167 700 157 691 155 679 L62 21 Z M294 751 C322 751 350 767 378 783 C388 790 393 800 394 810 L379 896 C379 904 371 911 360 911 C340 911 332 900 315 900 C266 900 259 925 229 925 C201 925 172 909 145 893 C135 886 130 876 128 866 L143 780 C144 772 152 765 163 765 C183 765 191 776 208 776 C237 776 246 751 294 751 L294 751 Z " />
<glyph glyph-name="itilde" unicode="&#x129;" horiz-adv-x="278" d="M62 21 C61 9 69 0 81 0 L197 0 C209 0 219 9 220 21 L287 494 C289 506 281 515 269 515 L153 515 C141 515 131 506 129 494 L62 21 Z M269 571 C297 571 325 587 352 603 C362 610 368 620 369 630 L354 716 C353 724 345 731 334 731 C314 731 307 720 290 720 C241 720 233 745 203 745 C175 745 147 729 120 713 C110 706 104 696 103 686 L118 600 C119 592 127 585 138 585 C158 585 165 596 182 596 C211 596 221 571 269 571 L269 571 Z " />
<glyph glyph-name="Imacron" unicode="&#x12a;" horiz-adv-x="278" d="M62 21 C61 9 69 0 81 0 L197 0 C209 0 219 9 220 21 L313 679 C315 691 307 700 295 700 L179 700 C167 700 157 691 155 679 L62 21 Z M350 751 C362 751 372 760 374 772 L389 880 C391 892 383 901 371 901 L160 901 C148 901 138 892 136 880 L121 772 C119 760 127 751 139 751 L350 751 Z " />
<glyph glyph-name="imacron" unicode="&#x12b;" horiz-adv-x="278" d="M62 21 C61 9 69 0 81 0 L197 0 C209 0 219 9 220 21 L287 494 C289 506 281 515 269 515 L153 515 C141 515 131 506 129 494 L62 21 Z M325 571 C337 571 347 580 349 592 L364 700 C366 712 358 721 346 721 L135 721 C123 721 113 712 111 700 L96 592 C94 580 102 571 114 571 L325 571 Z " />
<glyph glyph-name="Iogonek" unicode="&#x12e;" horiz-adv-x="278" d="M70 73 C-10 60 -22 -17 -24 -34 C-31 -79 -6 -123 52 -123 L123 -123 C131 -123 139 -116 140 -108 L148 -56 C149 -47 143 -41 135 -41 L81 -41 C81 -41 64 -41 67 -20 C68 -10 75 0 87 0 L197 0 C209 0 219 9 220 21 L313 679 C315 691 307 700 295 700 L179 700 C167 700 157 691 155 679 L70 73 Z " />
<glyph glyph-name="iogonek" unicode="&#x12f;" horiz-adv-x="278" d="M138 579 C136 567 144 558 156 558 L278 558 C290 558 300 567 302 579 L316 676 C317 688 309 697 297 697 L175 697 C163 697 153 688 152 676 L138 579 Z M70 73 C-10 60 -22 -17 -24 -34 C-31 -79 -6 -123 52 -123 L123 -123 C131 -123 139 -116 140 -108 L148 -56 C149 -47 143 -41 135 -41 L81 -41 C81 -41 64 -41 67 -20 C68 -10 75 0 87 0 L197 0 C209 0 219 9 220 21 L287 494 C289 506 281 515 269 515 L153 515 C141 515 131 506 129 494 L70 73 Z " />
<glyph glyph-name="Idotaccent" unicode="&#x130;" horiz-adv-x="278" d="M62 21 C61 9 69 0 81 0 L197 0 C209 0 219 9 220 21 L295 550 C296 562 289 571 277 571 L161 571 C149 571 138 562 137 550 L62 21 Z M147 642 C145 630 153 621 165 621 L287 621 C299 621 309 630 311 642 L324 739 C326 751 318 760 306 760 L184 760 C172 760 162 751 160 739 L147 642 Z " />
<glyph glyph-name="dotlessi" unicode="&#x131;" horiz-adv-x="278" d="M62 21 C61 9 69 0 81 0 L197 0 C209 0 219 9 220 21 L287 494 C289 506 281 515 269 515 L153 515 C141 515 131 506 129 494 L62 21 Z " />
<glyph glyph-name="Jcircumflex" unicode="&#x134;" horiz-adv-x="394" d="M273 959 C256 959 245 950 237 938 L131 771 C129 759 136 751 148 751 L247 751 C259 751 267 761 274 771 L302 814 L318 771 C321 761 327 751 339 751 L438 751 C450 751 459 759 461 771 L401 938 C397 950 388 959 371 959 L273 959 Z M6 70 C31 38 70 -5 153 -5 C296 -5 366 88 380 185 L449 679 C451 691 443 700 431 700 L315 700 C303 700 293 691 291 679 L222 187 C221 183 216 145 168 145 C152 145 139 145 123 168 C120 171 113 173 108 173 C102 173 97 171 93 168 L12 101 C5 95 2 91 1 84 C1 80 2 75 6 70 L6 70 Z " />
<glyph glyph-name="jcircumflex" unicode="&#x135;" horiz-adv-x="278" d="M20 -188 C20 -188 198 -142 220 16 L287 494 C289 506 281 515 269 515 L153 515 C141 515 131 506 129 494 L62 21 C62 21 55 -23 -18 -45 C-27 -47 -32 -56 -33 -63 C-34 -65 -33 -69 -32 -71 L-4 -177 C-3 -186 3 -190 10 -190 C12 -190 18 -189 20 -188 L20 -188 Z M199 779 C182 779 171 770 163 758 L57 591 C55 579 62 571 74 571 L173 571 C185 571 193 581 200 591 L228 634 L244 591 C247 581 253 571 265 571 L364 571 C376 571 385 579 387 591 L327 758 C323 770 314 779 297 779 L199 779 Z " />
<glyph glyph-name="uni0136" unicode="&#x136;" horiz-adv-x="526" d="M260 -223 C272 -223 282 -213 288 -203 L347 -72 C349 -62 342 -53 331 -53 L223 -53 C211 -53 202 -63 195 -72 L136 -203 C134 -214 142 -223 152 -223 L260 -223 Z M324 425 L277 425 L313 679 C315 691 307 700 295 700 L179 700 C167 700 157 691 155 679 L62 21 C61 9 69 0 81 0 L197 0 C209 0 219 9 220 21 L256 275 L301 275 L343 21 C347 10 356 0 368 0 L484 0 C496 0 506 9 507 21 L452 351 L597 679 C599 691 591 700 579 700 L465 700 C453 700 441 690 435 679 L324 425 Z " />
<glyph glyph-name="uni0137" unicode="&#x137;" horiz-adv-x="458" d="M232 -223 C244 -223 254 -213 260 -203 L319 -72 C321 -62 314 -53 303 -53 L195 -53 C183 -53 174 -63 167 -72 L108 -203 C106 -214 114 -223 124 -223 L232 -223 Z M269 197 L285 21 C290 9 303 0 315 0 L426 0 C438 0 448 9 449 21 L420 270 L517 494 C519 506 511 515 499 515 L388 515 C370 515 360 507 353 494 L292 342 L266 342 L313 679 C315 691 307 700 295 700 L179 700 C167 700 157 691 155 679 L62 21 C61 9 69 0 81 0 L197 0 C209 0 219 9 220 21 L245 197 L269 197 Z " />
<glyph glyph-name="kgreenlandic" unicode="&#x138;" horiz-adv-x="458" d="M269 197 L285 21 C290 9 303 0 315 0 L426 0 C438 0 448 9 449 21 L420 270 L517 494 C519 506 511 515 499 515 L388 515 C370 515 360 507 353 494 L292 342 L266 342 L287 494 C289 506 281 515 269 515 L153 515 C141 515 131 506 129 494 L62 21 C61 9 69 0 81 0 L197 0 C209 0 219 9 220 21 L245 197 L269 197 Z " />
<glyph glyph-name="Lacute" unicode="&#x139;" horiz-adv-x="442" d="M304 751 C316 751 325 761 332 771 L408 904 C409 914 402 923 391 923 L283 923 C271 923 262 913 256 904 L180 771 C178 760 186 751 196 751 L304 751 Z M239 150 L313 679 C315 691 307 700 295 700 L179 700 C167 700 157 691 155 679 L62 21 C61 9 69 0 81 0 L401 0 C413 0 423 9 424 21 L440 129 C441 141 434 150 422 150 L239 150 Z " />
<glyph glyph-name="lacute" unicode="&#x13a;" horiz-adv-x="278" d="M62 21 C61 9 69 0 81 0 L197 0 C209 0 219 9 220 21 L313 679 C315 691 307 700 295 700 L179 700 C167 700 157 691 155 679 L62 21 Z M295 751 C307 751 316 761 323 771 L399 904 C400 914 393 923 382 923 L274 923 C262 923 253 913 247 904 L171 771 C169 760 177 751 187 751 L295 751 Z " />
<glyph glyph-name="uni013B" unicode="&#x13b;" horiz-adv-x="442" d="M219 -223 C231 -223 241 -213 247 -203 L306 -72 C308 -62 301 -53 290 -53 L182 -53 C170 -53 161 -63 154 -72 L95 -203 C93 -214 101 -223 111 -223 L219 -223 Z M239 150 L313 679 C315 691 307 700 295 700 L179 700 C167 700 157 691 155 679 L62 21 C61 9 69 0 81 0 L401 0 C413 0 423 9 424 21 L440 129 C441 141 434 150 422 150 L239 150 Z " />
<glyph glyph-name="uni013C" unicode="&#x13c;" horiz-adv-x="278" d="M62 21 C61 9 69 0 81 0 L197 0 C209 0 219 9 220 21 L313 679 C315 691 307 700 295 700 L179 700 C167 700 157 691 155 679 L62 21 Z M112 -223 C124 -223 134 -213 140 -203 L199 -72 C201 -62 194 -53 183 -53 L75 -53 C63 -53 54 -63 47 -72 L-11 -203 C-13 -214 -5 -223 4 -223 L112 -223 Z " />
<glyph glyph-name="Lcaron" unicode="&#x13d;" horiz-adv-x="505" d="M460 700 C448 700 438 690 432 680 L359 534 C357 524 364 515 375 515 L479 515 C491 515 500 525 507 534 L580 680 C582 691 574 700 564 700 L460 700 Z M239 150 L313 679 C315 691 307 700 295 700 L179 700 C167 700 157 691 155 679 L62 21 C61 9 69 0 81 0 L401 0 C413 0 423 9 424 21 L440 129 C441 141 434 150 422 150 L239 150 Z " />
<glyph glyph-name="lcaron" unicode="&#x13e;" horiz-adv-x="471" d="M62 21 C61 9 69 0 81 0 L197 0 C209 0 219 9 220 21 L313 679 C315 691 307 700 295 700 L179 700 C167 700 157 691 155 679 L62 21 Z M463 528 C475 528 484 538 491 548 L566 681 C568 691 561 700 550 700 L442 700 C430 700 420 690 414 681 L339 548 C337 537 345 528 355 528 L463 528 Z " />
<glyph glyph-name="Lslash" unicode="&#x141;" horiz-adv-x="442" d="M239 150 L261 307 L302 318 C315 321 324 327 326 339 L341 447 C343 459 335 468 323 468 L282 457 L313 679 C315 691 307 700 295 700 L179 700 C167 700 157 691 155 679 L118 413 L77 402 C65 399 55 393 53 381 L38 273 C36 261 44 252 56 252 L96 263 L62 21 C61 9 69 0 81 0 L401 0 C413 0 423 9 424 21 L440 129 C441 141 434 150 422 150 L239 150 Z " />
<glyph glyph-name="lslash" unicode="&#x142;" horiz-adv-x="279" d="M302 318 C315 321 324 327 326 339 L341 447 C343 459 335 468 323 468 L282 457 L313 679 C315 691 307 700 295 700 L179 700 C167 700 157 691 155 679 L118 413 L77 402 C65 399 55 393 53 381 L38 273 C36 261 44 252 56 252 L96 263 L62 21 C61 9 69 0 81 0 L197 0 C209 0 219 9 220 21 L261 307 L302 318 Z " />
<glyph glyph-name="Nacute" unicode="&#x143;" horiz-adv-x="577" d="M453 751 C465 751 474 761 481 771 L557 904 C558 914 551 923 540 923 L432 923 C420 923 411 913 405 904 L329 771 C327 760 335 751 345 751 L453 751 Z M405 392 L349 679 C345 690 340 700 328 700 L179 700 C167 700 157 691 155 679 L62 21 C61 9 69 0 81 0 L197 0 C209 0 219 9 220 21 L261 311 L270 311 L325 21 C328 10 335 0 347 0 L496 0 C508 0 518 9 519 21 L612 679 C614 691 606 700 594 700 L478 700 C466 700 456 691 454 679 L414 392 L405 392 Z " />
<glyph glyph-name="nacute" unicode="&#x144;" horiz-adv-x="469" d="M384 571 C396 571 405 581 412 591 L487 724 C489 734 482 743 471 743 L363 743 C351 743 342 733 335 724 L260 591 C258 580 266 571 276 571 L384 571 Z M298 373 C312 373 311 359 309 343 L263 21 C262 9 270 0 282 0 L398 0 C410 0 420 9 421 21 L469 357 C482 450 482 520 386 520 L374 520 C350 520 322 510 291 470 L284 470 L287 494 C289 506 281 515 269 515 L153 515 C141 515 131 506 129 494 L62 21 C61 9 69 0 81 0 L197 0 C209 0 219 9 220 21 L265 338 C269 366 284 373 291 373 L298 373 Z " />
<glyph glyph-name="uni0145" unicode="&#x145;" horiz-adv-x="577" d="M263 -223 C275 -223 285 -213 291 -203 L350 -72 C352 -62 345 -53 334 -53 L226 -53 C214 -53 205 -63 198 -72 L139 -203 C137 -214 145 -223 155 -223 L263 -223 Z M405 392 L349 679 C345 690 340 700 328 700 L179 700 C167 700 157 691 155 679 L62 21 C61 9 69 0 81 0 L197 0 C209 0 219 9 220 21 L261 311 L270 311 L325 21 C328 10 335 0 347 0 L496 0 C508 0 518 9 519 21 L612 679 C614 691 606 700 594 700 L478 700 C466 700 456 691 454 679 L414 392 L405 392 Z " />
<glyph glyph-name="uni0146" unicode="&#x146;" horiz-adv-x="469" d="M221 -223 C233 -223 243 -213 249 -203 L308 -72 C310 -62 303 -53 292 -53 L184 -53 C172 -53 163 -63 156 -72 L97 -203 C95 -214 103 -223 113 -223 L221 -223 Z M298 373 C312 373 311 359 309 343 L263 21 C262 9 270 0 282 0 L398 0 C410 0 420 9 421 21 L469 357 C482 450 482 520 386 520 L374 520 C350 520 322 510 291 470 L284 470 L287 494 C289 506 281 515 269 515 L153 515 C141 515 131 506 129 494 L62 21 C61 9 69 0 81 0 L197 0 C209 0 219 9 220 21 L265 338 C269 366 284 373 291 373 L298 373 Z " />
<glyph glyph-name="Ncaron" unicode="&#x147;" horiz-adv-x="577" d="M456 751 C473 751 484 760 492 772 L598 939 C600 951 593 959 581 959 L482 959 C470 959 462 949 455 939 L427 896 L411 939 C408 949 402 959 390 959 L291 959 C279 959 270 951 268 939 L328 772 C332 760 341 751 358 751 L456 751 Z M405 392 L349 679 C345 690 340 700 328 700 L179 700 C167 700 157 691 155 679 L62 21 C61 9 69 0 81 0 L197 0 C209 0 219 9 220 21 L261 311 L270 311 L325 21 C328 10 335 0 347 0 L496 0 C508 0 518 9 519 21 L612 679 C614 691 606 700 594 700 L478 700 C466 700 456 691 454 679 L414 392 L405 392 Z " />
<glyph glyph-name="ncaron" unicode="&#x148;" horiz-adv-x="469" d="M369 571 C386 571 397 580 405 592 L511 759 C513 771 506 779 494 779 L395 779 C383 779 375 769 368 759 L340 716 L324 759 C321 769 315 779 303 779 L204 779 C192 779 183 771 181 759 L241 592 C245 580 254 571 271 571 L369 571 Z M298 373 C312 373 311 359 309 343 L263 21 C262 9 270 0 282 0 L398 0 C410 0 420 9 421 21 L469 357 C482 450 482 520 386 520 L374 520 C350 520 322 510 291 470 L284 470 L287 494 C289 506 281 515 269 515 L153 515 C141 515 131 506 129 494 L62 21 C61 9 69 0 81 0 L197 0 C209 0 219 9 220 21 L265 338 C269 366 284 373 291 373 L298 373 Z " />
<glyph glyph-name="Eng" unicode="&#x14a;" horiz-adv-x="577" d="M612 679 C614 691 606 700 594 700 L478 700 C466 700 456 691 454 679 L414 392 L405 392 L349 679 C345 690 340 700 328 700 L179 700 C167 700 157 691 155 679 L62 21 C61 9 69 0 81 0 L197 0 C209 0 219 9 220 21 L261 311 L270 311 L332 -17 C321 -27 306 -37 280 -45 C271 -47 266 -56 265 -63 C264 -65 265 -69 266 -71 L294 -177 C295 -186 302 -190 309 -190 C311 -190 317 -189 319 -188 C319 -188 497 -142 519 16 L612 679 Z " />
<glyph glyph-name="eng" unicode="&#x14b;" horiz-adv-x="469" d="M469 357 C482 450 482 520 386 520 L374 520 C350 520 322 510 291 470 L284 470 L287 494 C289 506 281 515 269 515 L153 515 C141 515 131 506 129 494 L62 21 C61 9 69 0 81 0 L197 0 C209 0 219 9 220 21 L265 338 C269 366 284 373 291 373 L298 373 C312 373 311 359 309 343 L263 21 C263 21 256 -23 182 -45 C173 -47 168 -56 167 -63 C166 -65 167 -69 168 -71 L196 -177 C197 -186 204 -190 211 -190 C213 -190 219 -189 221 -188 C221 -188 399 -142 421 16 L469 357 Z " />
<glyph glyph-name="Omacron" unicode="&#x14c;" horiz-adv-x="529" d="M487 751 C499 751 509 760 511 772 L526 880 C528 892 520 901 508 901 L273 901 C261 901 251 892 249 880 L234 772 C232 760 240 751 252 751 L487 751 Z M262 145 C244 145 230 162 233 183 L280 517 C283 538 302 555 320 555 L365 555 C384 555 396 538 393 517 L346 183 C343 162 326 145 307 145 L262 145 Z M290 -5 C395 -5 489 75 503 176 L552 524 C566 625 495 705 390 705 L337 705 C232 705 137 625 123 524 L74 176 C60 75 132 -5 237 -5 L290 -5 Z " />
<glyph glyph-name="omacron" unicode="&#x14d;" horiz-adv-x="443" d="M420 571 C432 571 442 580 444 592 L459 700 C461 712 453 721 441 721 L206 721 C194 721 184 712 182 700 L167 592 C165 580 173 571 185 571 L420 571 Z M236 -5 C334 -5 408 77 419 156 L448 358 C459 438 408 520 310 520 L279 520 C181 520 106 438 95 358 L66 156 C55 77 107 -5 205 -5 L236 -5 Z M245 343 C247 359 253 373 266 373 L281 373 C294 373 296 359 294 343 L270 172 C267 156 261 142 248 142 L233 142 C220 142 218 156 221 172 L245 343 Z " />
<glyph glyph-name="Ohungarumlaut" unicode="&#x150;" horiz-adv-x="536" d="M347 751 C359 751 368 761 375 771 L439 902 C441 912 434 921 423 921 L318 921 C306 921 297 911 290 902 L226 771 C224 760 232 751 242 751 L347 751 Z M520 751 C532 751 541 761 548 771 L612 902 C614 912 607 921 596 921 L491 921 C479 921 470 911 463 902 L399 771 C397 760 405 751 415 751 L520 751 Z M262 145 C244 145 230 162 233 183 L280 517 C283 538 302 555 320 555 L365 555 C384 555 396 538 393 517 L346 183 C343 162 326 145 307 145 L262 145 Z M290 -5 C395 -5 489 75 503 176 L552 524 C566 625 495 705 390 705 L337 705 C232 705 137 625 123 524 L74 176 C60 75 132 -5 237 -5 L290 -5 Z " />
<glyph glyph-name="ohungarumlaut" unicode="&#x151;" horiz-adv-x="443" d="M251 571 C262 571 270 580 276 590 L337 712 C338 721 331 729 321 729 L223 729 C212 729 204 720 198 712 L137 590 C136 579 143 571 153 571 L251 571 Z M412 571 C423 571 431 580 437 590 L498 712 C499 721 493 729 482 729 L384 729 C373 729 365 720 359 712 L298 590 C297 579 305 571 314 571 L412 571 Z M236 -5 C334 -5 408 77 419 156 L448 358 C459 438 408 520 310 520 L279 520 C181 520 106 438 95 358 L66 156 C55 77 107 -5 205 -5 L236 -5 Z M245 343 C247 359 253 373 266 373 L281 373 C294 373 296 359 294 343 L270 172 C267 156 261 142 248 142 L233 142 C220 142 218 156 221 172 L245 343 Z " />
<glyph glyph-name="OE" unicode="&#x152;" horiz-adv-x="734" d="M500 150 L519 287 L681 287 C693 287 703 296 705 308 L720 416 C722 428 714 437 702 437 L540 437 L556 550 L740 550 C752 550 762 559 764 571 L779 679 C781 691 773 700 761 700 L336 700 C231 700 137 620 122 519 L75 181 C61 80 133 0 238 0 L663 0 C675 0 685 9 686 21 L702 129 C703 141 696 150 684 150 L500 150 Z M263 150 C245 150 231 167 234 188 L279 512 C282 533 301 550 319 550 L364 550 C381 550 394 535 393 516 L347 188 C344 167 327 150 308 150 L263 150 Z " />
<glyph glyph-name="oe" unicode="&#x153;" horiz-adv-x="640" d="M598 81 C600 85 603 90 604 93 C605 100 603 104 597 109 L532 170 C529 172 524 173 521 173 C513 173 507 169 502 164 C492 155 478 142 460 142 L446 142 C431 142 428 156 431 172 L434 197 L599 197 C616 197 629 208 631 225 L650 358 C661 438 626 520 526 520 L468 520 C437 520 409 512 386 498 C365 512 340 520 310 520 L279 520 C181 520 106 438 95 358 L66 156 C55 77 107 -5 205 -5 L236 -5 C266 -5 294 3 319 16 C338 3 363 -5 394 -5 L460 -5 C460 -5 536 -2 598 81 L598 81 Z M245 343 C247 359 253 373 266 373 L281 373 C294 373 296 359 294 343 L270 172 C267 156 261 142 248 142 L233 142 C220 142 218 156 221 172 L245 343 Z M468 373 L486 373 C499 373 502 359 500 343 L495 312 L441 312 L446 348 C449 362 456 373 468 373 L468 373 Z " />
<glyph glyph-name="Racute" unicode="&#x154;" horiz-adv-x="535" d="M407 751 C419 751 428 761 435 771 L511 904 C512 914 505 923 494 923 L386 923 C374 923 365 913 359 904 L283 771 C281 760 289 751 299 751 L407 751 Z M440 230 C490 262 527 315 535 374 L555 519 C570 620 497 700 393 700 L179 700 C167 700 157 691 155 679 L62 21 C61 9 69 0 81 0 L197 0 C209 0 219 9 220 21 L245 193 L279 193 L331 21 C335 10 344 0 356 0 L484 0 C496 0 506 9 507 21 L440 230 Z M295 550 L367 550 C387 550 399 533 396 512 L378 381 C375 361 358 343 338 343 L266 343 L295 550 Z " />
<glyph glyph-name="racute" unicode="&#x155;" horiz-adv-x="346" d="M286 571 C298 571 307 581 314 591 L389 724 C391 734 384 743 373 743 L265 743 C253 743 244 733 237 724 L162 591 C160 580 168 571 178 571 L286 571 Z M358 367 C370 367 379 374 381 386 L404 487 C406 500 407 508 394 514 C380 520 374 520 364 520 C348 520 326 517 291 474 L284 474 L287 494 C289 506 281 515 269 515 L153 515 C141 515 131 506 129 494 L62 21 C61 9 69 0 81 0 L197 0 C209 0 219 9 220 21 L264 333 C283 373 304 373 312 373 C324 373 337 370 358 367 L358 367 Z " />
<glyph glyph-name="uni0156" unicode="&#x156;" horiz-adv-x="535" d="M254 -223 C266 -223 276 -213 282 -203 L341 -72 C343 -62 336 -53 325 -53 L217 -53 C205 -53 196 -63 189 -72 L130 -203 C128 -214 136 -223 146 -223 L254 -223 Z M440 230 C490 262 527 315 535 374 L555 519 C570 620 497 700 393 700 L179 700 C167 700 157 691 155 679 L62 21 C61 9 69 0 81 0 L197 0 C209 0 219 9 220 21 L245 193 L279 193 L331 21 C335 10 344 0 356 0 L484 0 C496 0 506 9 507 21 L440 230 Z M295 550 L367 550 C387 550 399 533 396 512 L378 381 C375 361 358 343 338 343 L266 343 L295 550 Z " />
<glyph glyph-name="uni0157" unicode="&#x157;" horiz-adv-x="346" d="M156 -223 C168 -223 178 -213 184 -203 L243 -72 C245 -62 238 -53 227 -53 L119 -53 C107 -53 98 -63 91 -72 L32 -203 C30 -214 38 -223 48 -223 L156 -223 Z M358 367 C370 367 379 374 381 386 L404 487 C406 500 407 508 394 514 C380 520 374 520 364 520 C348 520 326 517 291 474 L284 474 L287 494 C289 506 281 515 269 515 L153 515 C141 515 131 506 129 494 L62 21 C61 9 69 0 81 0 L197 0 C209 0 219 9 220 21 L264 333 C283 373 304 373 312 373 C324 373 337 370 358 367 L358 367 Z " />
<glyph glyph-name="Rcaron" unicode="&#x158;" horiz-adv-x="535" d="M391 751 C408 751 419 760 427 772 L533 939 C535 951 528 959 516 959 L417 959 C405 959 397 949 390 939 L362 896 L346 939 C343 949 337 959 325 959 L226 959 C214 959 205 951 203 939 L263 772 C267 760 276 751 293 751 L391 751 Z M440 230 C490 262 527 315 535 374 L555 519 C570 620 497 700 393 700 L179 700 C167 700 157 691 155 679 L62 21 C61 9 69 0 81 0 L197 0 C209 0 219 9 220 21 L245 193 L279 193 L331 21 C335 10 344 0 356 0 L484 0 C496 0 506 9 507 21 L440 230 Z M295 550 L367 550 C387 550 399 533 396 512 L378 381 C375 361 358 343 338 343 L266 343 L295 550 Z " />
<glyph glyph-name="rcaron" unicode="&#x159;" horiz-adv-x="346" d="M320 571 C335 571 344 578 350 588 L438 726 C439 736 434 742 424 742 L343 742 C333 742 325 734 321 726 L296 690 L284 726 C282 734 276 742 266 742 L185 742 C175 742 168 736 167 726 L215 588 C219 578 226 571 241 571 L320 571 Z M358 367 C370 367 379 374 381 386 L404 487 C406 500 407 508 394 514 C380 520 374 520 364 520 C348 520 326 517 291 474 L284 474 L287 494 C289 506 281 515 269 515 L153 515 C141 515 131 506 129 494 L62 21 C61 9 69 0 81 0 L197 0 C209 0 219 9 220 21 L264 333 C283 373 304 373 312 373 C324 373 337 370 358 367 L358 367 Z " />
<glyph glyph-name="Sacute" unicode="&#x15a;" horiz-adv-x="498" d="M297 751 C287 751 279 760 281 771 L357 904 C363 913 372 923 384 923 L492 923 C503 923 510 914 509 904 L433 771 C426 761 417 751 405 751 L297 751 Z M274 -5 C378 -5 473 75 487 176 L489 192 C529 474 242 373 259 492 L262 517 C265 538 284 555 304 555 L338 555 C357 555 370 538 367 517 L364 491 C362 479 370 470 382 470 L498 470 C510 470 520 479 522 491 L526 524 C540 625 468 705 366 705 L317 705 C213 705 117 625 103 524 L100 503 C62 233 347 310 332 206 L329 183 C326 162 307 145 288 145 L243 145 C224 145 210 162 213 183 L218 215 C219 227 212 236 200 236 L84 236 C72 236 61 227 60 215 L54 176 C40 75 113 -5 215 -5 L274 -5 Z " />
<glyph glyph-name="sacute" unicode="&#x15b;" horiz-adv-x="415" d="M341 571 C353 571 362 581 369 591 L444 724 C446 734 439 743 428 743 L320 743 C308 743 299 733 292 724 L217 591 C215 580 223 571 233 571 L341 571 Z M292 352 C290 340 298 331 310 331 L405 331 C417 331 427 340 429 352 L430 359 C441 438 406 520 308 520 L253 520 C155 520 104 457 87 377 L86 369 C63 200 261 217 254 167 L252 155 C250 139 242 133 227 133 L211 133 C196 133 192 144 194 160 L195 167 C197 179 189 188 177 188 L82 188 C70 188 60 179 58 167 L56 156 C45 77 84 -5 182 -5 L238 -5 C337 -5 393 57 404 137 L406 151 C429 319 232 299 239 353 L241 364 C243 380 250 386 265 386 L275 386 C290 386 295 375 293 359 L292 352 Z " />
<glyph glyph-name="Scircumflex" unicode="&#x15c;" horiz-adv-x="498" d="M426 959 C443 959 452 950 456 938 L516 771 C514 759 505 751 493 751 L394 751 C382 751 376 761 373 771 L357 814 L329 771 C322 761 314 751 302 751 L203 751 C191 751 184 759 186 771 L292 938 C300 950 311 959 328 959 L426 959 Z M274 -5 C378 -5 473 75 487 176 L489 192 C529 474 242 373 259 492 L262 517 C265 538 284 555 304 555 L338 555 C357 555 370 538 367 517 L364 491 C362 479 370 470 382 470 L498 470 C510 470 520 479 522 491 L526 524 C540 625 468 705 366 705 L317 705 C213 705 117 625 103 524 L100 503 C62 233 347 310 332 206 L329 183 C326 162 307 145 288 145 L243 145 C224 145 210 162 213 183 L218 215 C219 227 212 236 200 236 L84 236 C72 236 61 227 60 215 L54 176 C40 75 113 -5 215 -5 L274 -5 Z " />
<glyph glyph-name="scircumflex" unicode="&#x15d;" horiz-adv-x="415" d="M268 779 C251 779 240 770 232 758 L126 591 C124 579 131 571 143 571 L242 571 C254 571 262 581 269 591 L297 634 L313 591 C316 581 322 571 334 571 L433 571 C445 571 454 579 456 591 L396 758 C392 770 383 779 366 779 L268 779 Z M292 352 C290 340 298 331 310 331 L405 331 C417 331 427 340 429 352 L430 359 C441 438 406 520 308 520 L253 520 C155 520 104 457 87 377 L86 369 C63 200 261 217 254 167 L252 155 C250 139 242 133 227 133 L211 133 C196 133 192 144 194 160 L195 167 C197 179 189 188 177 188 L82 188 C70 188 60 179 58 167 L56 156 C45 77 84 -5 182 -5 L238 -5 C337 -5 393 57 404 137 L406 151 C429 319 232 299 239 353 L241 364 C243 380 250 386 265 386 L275 386 C290 386 295 375 293 359 L292 352 Z " />
<glyph glyph-name="Scedilla" unicode="&#x15e;" horiz-adv-x="498" d="M259 492 L262 516 C265 537 283 554 303 554 L337 554 C356 554 370 537 367 516 L363 490 C362 478 369 469 381 469 L497 469 C509 469 520 478 521 490 L526 524 C540 624 468 705 366 705 L317 705 C213 705 117 624 103 524 L100 502 C62 233 347 309 332 205 L329 182 C326 161 307 144 288 144 L243 144 C224 144 210 161 213 182 L218 214 C219 226 212 236 200 236 L84 236 C72 236 61 226 60 214 L54 176 C41 81 104 5 196 -5 L176 -33 C172 -37 169 -45 169 -48 L165 -77 C163 -86 170 -92 178 -92 L228 -92 C228 -92 240 -92 238 -106 C236 -118 224 -118 224 -118 L162 -118 C154 -118 146 -124 145 -133 L138 -181 C137 -188 143 -196 151 -196 L238 -196 C298 -196 319 -168 329 -94 C335 -54 310 -30 278 -24 L292 -5 C389 4 474 80 487 176 L489 191 C529 473 242 373 259 492 L259 492 Z " />
<glyph glyph-name="scedilla" unicode="&#x15f;" horiz-adv-x="415" d="M194 -92 C194 -92 206 -92 204 -105 C202 -118 190 -118 190 -118 L128 -118 C120 -118 112 -124 111 -133 L104 -180 C103 -188 109 -195 117 -195 L204 -195 C264 -195 285 -168 295 -93 C301 -53 276 -29 244 -23 L258 -4 C344 4 393 62 404 137 L406 151 C429 319 232 299 239 353 L241 364 C243 380 250 386 265 386 L275 386 C290 386 295 375 293 359 L292 352 C290 340 298 331 310 331 L405 331 C417 331 427 340 429 352 L430 359 C441 438 406 520 308 520 L253 520 C155 520 104 457 87 377 L86 369 C63 200 261 217 254 167 L252 155 C250 139 242 133 227 133 L211 133 C196 133 192 144 194 160 L195 167 C197 179 189 188 177 188 L82 188 C70 188 60 179 58 167 L56 156 C46 82 78 6 162 -3 L142 -32 C138 -37 135 -45 135 -48 L131 -77 C130 -85 136 -92 144 -92 L194 -92 Z " />
<glyph glyph-name="Scaron" unicode="&#x160;" horiz-adv-x="498" d="M301 751 C284 751 275 760 271 772 L211 939 C213 951 222 959 234 959 L333 959 C345 959 351 949 354 939 L370 896 L398 939 C405 949 413 959 425 959 L524 959 C536 959 543 951 541 939 L435 772 C427 760 416 751 399 751 L301 751 Z M274 -5 C378 -5 473 75 487 176 L489 192 C529 474 242 373 259 492 L262 517 C265 538 284 555 304 555 L338 555 C357 555 370 538 367 517 L364 491 C362 479 370 470 382 470 L498 470 C510 470 520 479 522 491 L526 524 C540 625 468 705 366 705 L317 705 C213 705 117 625 103 524 L100 503 C62 233 347 310 332 206 L329 183 C326 162 307 145 288 145 L243 145 C224 145 210 162 213 183 L218 215 C219 227 212 236 200 236 L84 236 C72 236 61 227 60 215 L54 176 C40 75 113 -5 215 -5 L274 -5 Z " />
<glyph glyph-name="scaron" unicode="&#x161;" horiz-adv-x="415" d="M336 571 C353 571 364 580 372 592 L478 759 C480 771 473 779 461 779 L362 779 C350 779 342 769 335 759 L307 716 L291 759 C288 769 282 779 270 779 L171 779 C159 779 150 771 148 759 L208 592 C212 580 221 571 238 571 L336 571 Z M292 352 C290 340 298 331 310 331 L405 331 C417 331 427 340 429 352 L430 359 C441 438 406 520 308 520 L253 520 C155 520 104 457 87 377 L86 369 C63 200 261 217 254 167 L252 155 C250 139 242 133 227 133 L211 133 C196 133 192 144 194 160 L195 167 C197 179 189 188 177 188 L82 188 C70 188 60 179 58 167 L56 156 C45 77 84 -5 182 -5 L238 -5 C337 -5 393 57 404 137 L406 151 C429 319 232 299 239 353 L241 364 C243 380 250 386 265 386 L275 386 C290 386 295 375 293 359 L292 352 Z " />
<glyph glyph-name="uni0162" unicode="&#x162;" horiz-adv-x="468" d="M188 0 L286 0 C298 0 301 -10 300 -20 C297 -41 280 -41 280 -41 L226 -41 C218 -41 210 -47 209 -56 L201 -108 C200 -116 206 -123 214 -123 L285 -123 C344 -123 381 -79 388 -34 C390 -17 400 60 323 73 L390 550 L499 550 C511 550 521 559 523 571 L538 679 C540 691 532 700 520 700 L144 700 C132 700 122 691 120 679 L105 571 C103 559 111 550 123 550 L232 550 L157 21 C156 9 164 0 176 0 L188 0 Z " />
<glyph glyph-name="uni0163" unicode="&#x163;" horiz-adv-x="330" d="M194 -92 C194 -92 206 -92 204 -105 C202 -118 190 -118 190 -118 L128 -118 C120 -118 112 -124 111 -133 L104 -180 C103 -188 109 -195 117 -195 L204 -195 C264 -195 285 -168 295 -93 C301 -53 276 -29 244 -23 L261 0 L289 0 C301 0 311 9 312 21 L327 125 C329 137 321 146 309 146 L282 146 C267 146 254 160 256 176 L283 368 L340 368 C352 368 362 377 364 389 L379 494 C381 506 373 515 361 515 L304 515 L327 679 C329 691 321 700 309 700 L193 700 C181 700 171 691 169 679 L146 515 L108 515 C96 515 86 506 84 494 L69 389 C67 377 75 368 87 368 L125 368 L97 170 C87 93 114 34 173 11 L142 -32 C138 -37 135 -45 135 -48 L131 -77 C130 -85 136 -92 144 -92 L194 -92 Z " />
<glyph glyph-name="Tcaron" unicode="&#x164;" horiz-adv-x="468" d="M389 751 C406 751 417 760 425 772 L531 939 C533 951 526 959 514 959 L415 959 C403 959 395 949 388 939 L360 896 L344 939 C341 949 335 959 323 959 L224 959 C212 959 203 951 201 939 L261 772 C265 760 274 751 291 751 L389 751 Z M144 700 C132 700 122 691 120 679 L105 571 C103 559 111 550 123 550 L232 550 L157 21 C156 9 164 0 176 0 L292 0 C304 0 314 9 315 21 L390 550 L499 550 C511 550 521 559 523 571 L538 679 C540 691 532 700 520 700 L144 700 Z " />
<glyph glyph-name="tcaron" unicode="&#x165;" horiz-adv-x="504" d="M498 551 C510 551 519 561 526 571 L589 681 C591 691 584 700 573 700 L465 700 C453 700 443 690 437 681 L374 571 C372 560 380 551 390 551 L498 551 Z M283 368 L340 368 C352 368 362 377 364 389 L379 494 C381 506 373 515 361 515 L304 515 L327 679 C329 691 321 700 309 700 L193 700 C181 700 171 691 169 679 L146 515 L108 515 C96 515 86 506 84 494 L69 389 C67 377 75 368 87 368 L125 368 L97 170 C83 70 136 0 235 0 L289 0 C301 0 311 9 312 21 L327 125 C329 137 321 146 309 146 L282 146 C267 146 254 160 256 176 L283 368 Z " />
<glyph glyph-name="Tbar" unicode="&#x166;" horiz-adv-x="468" d="M405 264 C417 264 427 273 429 285 L442 378 C443 390 436 399 424 399 L369 399 L390 550 L499 550 C511 550 521 559 523 571 L538 679 C540 691 532 700 520 700 L144 700 C132 700 122 691 120 679 L105 571 C103 559 111 550 123 550 L232 550 L211 399 L156 399 C144 399 133 390 132 378 L119 285 C117 273 125 264 137 264 L192 264 L157 21 C156 9 164 0 176 0 L292 0 C304 0 314 9 315 21 L350 264 L405 264 Z " />
<glyph glyph-name="tbar" unicode="&#x167;" horiz-adv-x="330" d="M318 209 C330 209 340 218 342 230 L354 318 C356 330 348 339 336 339 L279 339 L286 385 L343 385 C355 385 365 394 367 406 L379 494 C381 506 373 515 361 515 L304 515 L327 679 C329 691 321 700 309 700 L193 700 C181 700 171 691 169 679 L146 515 L108 515 C96 515 86 506 84 494 L72 406 C70 394 78 385 90 385 L128 385 L121 339 L83 339 C71 339 61 330 59 318 L47 230 C45 218 53 209 65 209 L103 209 L97 170 C83 70 136 0 235 0 L289 0 C301 0 311 9 312 21 L327 125 C329 137 321 146 309 146 L282 146 C267 146 254 160 256 176 L261 209 L318 209 Z " />
<glyph glyph-name="Utilde" unicode="&#x168;" horiz-adv-x="539" d="M296 -5 C401 -5 494 75 508 176 L579 679 C581 691 573 700 561 700 L445 700 C433 700 423 691 421 679 L351 183 C348 162 330 145 312 145 L267 145 C249 145 235 162 238 183 L308 679 C310 691 302 700 290 700 L174 700 C162 700 152 691 150 679 L79 176 C65 75 136 -5 241 -5 L296 -5 Z M422 751 C450 751 478 767 506 783 C516 790 521 800 522 810 L507 896 C507 904 499 911 488 911 C468 911 460 900 443 900 C394 900 387 925 357 925 C329 925 300 909 273 893 C263 886 258 876 256 866 L271 780 C272 772 280 765 291 765 C311 765 319 776 336 776 C365 776 374 751 422 751 L422 751 Z " />
<glyph glyph-name="utilde" unicode="&#x169;" horiz-adv-x="459" d="M247 -5 C345 -5 419 77 430 156 L478 494 C480 506 472 515 460 515 L344 515 C332 515 322 506 320 494 L274 169 C272 153 266 142 254 142 L243 142 C231 142 229 153 231 169 L277 494 C279 506 271 515 259 515 L143 515 C131 515 121 506 119 494 L71 156 C60 77 112 -5 210 -5 L247 -5 Z M355 571 C383 571 411 587 438 603 C448 610 454 620 455 630 L440 716 C439 724 431 731 420 731 C400 731 393 720 376 720 C327 720 319 745 289 745 C261 745 233 729 206 713 C196 706 190 696 189 686 L204 600 C205 592 213 585 224 585 C244 585 251 596 268 596 C297 596 307 571 355 571 L355 571 Z " />
<glyph glyph-name="Umacron" unicode="&#x16a;" horiz-adv-x="539" d="M492 751 C504 751 514 760 516 772 L531 880 C533 892 525 901 513 901 L278 901 C266 901 256 892 254 880 L239 772 C237 760 245 751 257 751 L492 751 Z M296 -5 C401 -5 494 75 508 176 L579 679 C581 691 573 700 561 700 L445 700 C433 700 423 691 421 679 L351 183 C348 162 330 145 312 145 L267 145 C249 145 235 162 238 183 L308 679 C310 691 302 700 290 700 L174 700 C162 700 152 691 150 679 L79 176 C65 75 136 -5 241 -5 L296 -5 Z " />
<glyph glyph-name="umacron" unicode="&#x16b;" horiz-adv-x="459" d="M428 571 C440 571 450 580 452 592 L467 700 C469 712 461 721 449 721 L214 721 C202 721 192 712 190 700 L175 592 C173 580 181 571 193 571 L428 571 Z M247 -5 C345 -5 419 77 430 156 L478 494 C480 506 472 515 460 515 L344 515 C332 515 322 506 320 494 L274 169 C272 153 266 142 254 142 L243 142 C231 142 229 153 231 169 L277 494 C279 506 271 515 259 515 L143 515 C131 515 121 506 119 494 L71 156 C60 77 112 -5 210 -5 L247 -5 Z " />
<glyph glyph-name="Ubreve" unicode="&#x16c;" horiz-adv-x="539" d="M296 -5 C401 -5 494 75 508 176 L579 679 C581 691 573 700 561 700 L445 700 C433 700 423 691 421 679 L351 183 C348 162 330 145 312 145 L267 145 C249 145 235 162 238 183 L308 679 C310 691 302 700 290 700 L174 700 C162 700 152 691 150 679 L79 176 C65 75 136 -5 241 -5 L296 -5 Z M372 751 C473 751 522 800 550 909 C552 919 546 926 536 926 L447 926 C437 926 427 920 422 909 C410 875 406 870 389 870 C372 870 368 875 366 909 C365 920 357 926 347 926 L258 926 C248 926 240 919 238 909 C236 800 271 751 372 751 L372 751 Z " />
<glyph glyph-name="ubreve" unicode="&#x16d;" horiz-adv-x="459" d="M247 -5 C345 -5 419 77 430 156 L478 494 C480 506 472 515 460 515 L344 515 C332 515 322 506 320 494 L274 169 C272 153 266 142 254 142 L243 142 C231 142 229 153 231 169 L277 494 C279 506 271 515 259 515 L143 515 C131 515 121 506 119 494 L71 156 C60 77 112 -5 210 -5 L247 -5 Z M310 571 C411 571 460 620 488 729 C489 739 483 746 473 746 L384 746 C374 746 365 740 360 729 C348 695 343 690 326 690 C309 690 306 695 304 729 C303 740 294 746 284 746 L195 746 C185 746 177 739 176 729 C174 620 209 571 310 571 L310 571 Z " />
<glyph glyph-name="Uring" unicode="&#x16e;" horiz-adv-x="539" d="M409 1002 C332 1002 259 939 248 860 C238 783 293 719 370 719 C450 719 522 783 532 860 C543 939 489 1002 409 1002 L409 1002 Z M384 819 C362 819 345 838 348 860 C352 883 373 902 395 902 C418 902 435 883 431 860 C428 838 407 819 384 819 L384 819 Z M296 -5 C401 -5 494 75 508 176 L579 679 C581 691 573 700 561 700 L445 700 C433 700 423 691 421 679 L351 183 C348 162 330 145 312 145 L267 145 C249 145 235 162 238 183 L308 679 C310 691 302 700 290 700 L174 700 C162 700 152 691 150 679 L79 176 C65 75 136 -5 241 -5 L296 -5 Z " />
<glyph glyph-name="uring" unicode="&#x16f;" horiz-adv-x="459" d="M350 854 C273 854 200 791 189 712 C178 635 233 571 310 571 C390 571 462 635 473 712 C484 791 430 854 350 854 L350 854 Z M324 671 C302 671 285 690 289 712 C292 735 313 754 335 754 C358 754 375 735 372 712 C368 690 347 671 324 671 L324 671 Z M247 -5 C345 -5 419 77 430 156 L478 494 C480 506 472 515 460 515 L344 515 C332 515 322 506 320 494 L274 169 C272 153 266 142 254 142 L243 142 C231 142 229 153 231 169 L277 494 C279 506 271 515 259 515 L143 515 C131 515 121 506 119 494 L71 156 C60 77 112 -5 210 -5 L247 -5 Z " />
<glyph glyph-name="Uhungarumlaut" unicode="&#x170;" horiz-adv-x="539" d="M328 751 C340 751 349 761 356 771 L420 902 C422 912 415 921 404 921 L299 921 C287 921 278 911 271 902 L207 771 C205 760 213 751 223 751 L328 751 Z M501 751 C513 751 522 761 529 771 L593 902 C595 912 588 921 577 921 L472 921 C460 921 451 911 444 902 L380 771 C378 760 386 751 396 751 L501 751 Z M296 -5 C401 -5 494 75 508 176 L579 679 C581 691 573 700 561 700 L445 700 C433 700 423 691 421 679 L351 183 C348 162 330 145 312 145 L267 145 C249 145 235 162 238 183 L308 679 C310 691 302 700 290 700 L174 700 C162 700 152 691 150 679 L79 176 C65 75 136 -5 241 -5 L296 -5 Z " />
<glyph glyph-name="uhungarumlaut" unicode="&#x171;" horiz-adv-x="459" d="M252 571 C264 571 273 581 279 590 L341 717 C343 727 336 736 326 736 L224 736 C212 736 203 726 197 717 L134 590 C133 580 141 571 150 571 L252 571 Z M420 571 C432 571 441 581 446 590 L509 717 C511 727 504 736 494 736 L392 736 C380 736 371 726 364 717 L302 590 C301 580 309 571 318 571 L420 571 Z M247 -5 C345 -5 419 77 430 156 L478 494 C480 506 472 515 460 515 L344 515 C332 515 322 506 320 494 L274 169 C272 153 266 142 254 142 L243 142 C231 142 229 153 231 169 L277 494 C279 506 271 515 259 515 L143 515 C131 515 121 506 119 494 L71 156 C60 77 112 -5 210 -5 L247 -5 Z " />
<glyph glyph-name="Uogonek" unicode="&#x172;" horiz-adv-x="539" d="M252 -92 C252 -92 264 -92 262 -105 C260 -118 248 -118 248 -118 L186 -118 C178 -118 170 -124 169 -133 L162 -180 C161 -188 167 -195 175 -195 L262 -195 C322 -195 343 -168 353 -93 C359 -53 334 -29 302 -23 L316 -4 C412 5 495 81 508 176 L579 679 C581 691 573 700 561 700 L445 700 C433 700 423 691 421 679 L351 183 C348 162 330 145 312 145 L267 145 C249 145 235 162 238 183 L308 679 C310 691 302 700 290 700 L174 700 C162 700 152 691 150 679 L79 176 C66 82 126 6 220 -4 L200 -32 C196 -37 193 -45 193 -48 L189 -77 C188 -85 194 -92 202 -92 L252 -92 Z " />
<glyph glyph-name="uogonek" unicode="&#x173;" horiz-adv-x="459" d="M430 156 L478 494 C480 506 472 515 460 515 L344 515 C332 515 322 506 320 494 L274 169 C272 153 266 142 254 142 L243 142 C231 142 229 153 231 169 L277 494 C279 506 271 515 259 515 L143 515 C131 515 121 506 119 494 L71 156 C61 85 101 12 180 -2 L177 -23 C143 -29 112 -53 106 -93 C96 -168 109 -195 169 -195 L244 -195 C252 -195 260 -188 261 -180 L268 -133 C269 -124 263 -118 255 -118 L205 -118 C205 -118 193 -118 195 -105 C197 -92 209 -92 209 -92 L249 -92 C257 -92 265 -85 266 -77 L276 -2 C359 11 420 85 430 156 L430 156 Z " />
<glyph glyph-name="Ydieresis" unicode="&#x178;" horiz-adv-x="538" d="M210 772 C208 760 216 751 228 751 L328 751 C340 751 350 760 352 772 L366 875 C368 887 360 896 348 896 L248 896 C236 896 226 887 224 875 L210 772 Z M404 772 C402 760 410 751 422 751 L522 751 C534 751 544 760 546 772 L560 875 C562 887 554 896 542 896 L442 896 C430 896 420 887 418 875 L404 772 Z M337 436 L323 436 L266 679 C262 690 258 700 246 700 L129 700 C117 700 107 691 105 679 L221 227 L192 21 C191 9 199 0 211 0 L327 0 C339 0 349 9 350 21 L379 227 L623 679 C625 691 617 700 605 700 L488 700 C476 700 468 690 462 679 L337 436 Z " />
<glyph glyph-name="Zacute" unicode="&#x179;" horiz-adv-x="470" d="M401 751 C413 751 422 761 429 771 L505 904 C506 914 499 923 488 923 L380 923 C368 923 359 913 353 904 L277 771 C275 760 283 751 293 751 L401 751 Z M249 150 L512 597 C515 602 521 612 521 617 L530 679 C532 691 524 700 512 700 L154 700 C142 700 132 691 130 679 L115 571 C113 559 121 550 133 550 L318 550 L55 103 C52 98 47 88 46 83 L37 21 C36 9 44 0 56 0 L414 0 C426 0 436 9 437 21 L453 129 C454 141 447 150 435 150 L249 150 Z " />
<glyph glyph-name="zacute" unicode="&#x17a;" horiz-adv-x="385" d="M335 571 C347 571 356 581 363 591 L438 724 C440 734 433 743 422 743 L314 743 C302 743 293 733 286 724 L211 591 C209 580 217 571 227 571 L335 571 Z M238 148 L403 399 C409 408 413 414 414 422 L424 494 C426 506 418 515 406 515 L123 515 C111 515 101 506 99 494 L84 388 C82 376 90 367 102 367 L219 367 L54 116 C48 107 44 101 43 93 L32 21 C31 9 39 0 51 0 L334 0 C346 0 356 9 357 21 L372 127 C374 139 366 148 354 148 L238 148 Z " />
<glyph glyph-name="Zdotaccent" unicode="&#x17b;" horiz-adv-x="470" d="M277 772 C275 760 283 751 295 751 L395 751 C407 751 417 760 419 772 L433 875 C435 887 427 896 415 896 L315 896 C303 896 293 887 291 875 L277 772 Z M249 150 L512 597 C515 602 521 612 521 617 L530 679 C532 691 524 700 512 700 L154 700 C142 700 132 691 130 679 L115 571 C113 559 121 550 133 550 L318 550 L55 103 C52 98 47 88 46 83 L37 21 C36 9 44 0 56 0 L414 0 C426 0 436 9 437 21 L453 129 C454 141 447 150 435 150 L249 150 Z " />
<glyph glyph-name="zdotaccent" unicode="&#x17c;" horiz-adv-x="385" d="M215 592 C213 580 221 571 233 571 L333 571 C345 571 355 580 357 592 L371 695 C373 707 365 716 353 716 L253 716 C241 716 231 707 229 695 L215 592 Z M238 148 L403 399 C409 408 413 414 414 422 L424 494 C426 506 418 515 406 515 L123 515 C111 515 101 506 99 494 L84 388 C82 376 90 367 102 367 L219 367 L54 116 C48 107 44 101 43 93 L32 21 C31 9 39 0 51 0 L334 0 C346 0 356 9 357 21 L372 127 C374 139 366 148 354 148 L238 148 Z " />
<glyph glyph-name="Zcaron" unicode="&#x17d;" horiz-adv-x="470" d="M395 751 C412 751 423 760 431 772 L537 939 C539 951 532 959 520 959 L421 959 C409 959 401 949 394 939 L366 896 L350 939 C347 949 341 959 329 959 L230 959 C218 959 209 951 207 939 L267 772 C271 760 280 751 297 751 L395 751 Z M249 150 L512 597 C515 602 521 612 521 617 L530 679 C532 691 524 700 512 700 L154 700 C142 700 132 691 130 679 L115 571 C113 559 121 550 133 550 L318 550 L55 103 C52 98 47 88 46 83 L37 21 C36 9 44 0 56 0 L414 0 C426 0 436 9 437 21 L453 129 C454 141 447 150 435 150 L249 150 Z " />
<glyph glyph-name="zcaron" unicode="&#x17e;" horiz-adv-x="385" d="M321 571 C338 571 349 580 357 592 L461 756 C462 767 455 775 443 775 L346 775 C334 775 327 765 321 756 L293 713 L277 756 C273 765 268 775 256 775 L159 775 C147 775 138 767 137 756 L195 592 C199 580 208 571 225 571 L321 571 Z M238 148 L403 399 C409 408 413 414 414 422 L424 494 C426 506 418 515 406 515 L123 515 C111 515 101 506 99 494 L84 388 C82 376 90 367 102 367 L219 367 L54 116 C48 107 44 101 43 93 L32 21 C31 9 39 0 51 0 L334 0 C346 0 356 9 357 21 L372 127 C374 139 366 148 354 148 L238 148 Z " />
<glyph glyph-name="florin" unicode="&#x192;" horiz-adv-x="326" d="M397 554 C409 554 420 563 421 575 L436 679 C438 691 430 700 418 700 L371 700 C273 700 217 618 189 542 L166 483 L110 483 C98 483 88 474 86 462 L72 356 C70 344 78 335 90 335 L108 335 L-87 -153 C-89 -165 -81 -174 -69 -174 L44 -174 C56 -174 63 -164 70 -153 C100 -75 138 17 171 99 L267 335 L330 335 C342 335 352 344 354 356 L368 462 C370 474 362 483 350 483 L325 483 L343 531 C347 541 354 554 366 554 L397 554 Z " />
<glyph glyph-name="uni0218" unicode="&#x218;" horiz-adv-x="498" d="M220 -223 C232 -223 242 -213 248 -203 L307 -72 C309 -62 302 -53 291 -53 L183 -53 C171 -53 162 -63 155 -72 L96 -203 C94 -214 102 -223 112 -223 L220 -223 Z M274 -5 C378 -5 473 75 487 176 L489 192 C529 474 242 373 259 492 L262 517 C265 538 284 555 304 555 L338 555 C357 555 370 538 367 517 L364 491 C362 479 370 470 382 470 L498 470 C510 470 520 479 522 491 L526 524 C540 625 468 705 366 705 L317 705 C213 705 117 625 103 524 L100 503 C62 233 347 310 332 206 L329 183 C326 162 307 145 288 145 L243 145 C224 145 210 162 213 183 L218 215 C219 227 212 236 200 236 L84 236 C72 236 61 227 60 215 L54 176 C40 75 113 -5 215 -5 L274 -5 Z " />
<glyph glyph-name="uni0219" unicode="&#x219;" horiz-adv-x="415" d="M186 -223 C198 -223 208 -213 214 -203 L273 -72 C275 -62 268 -53 257 -53 L149 -53 C137 -53 128 -63 121 -72 L62 -203 C60 -214 68 -223 78 -223 L186 -223 Z M292 352 C290 340 298 331 310 331 L405 331 C417 331 427 340 429 352 L430 359 C441 438 406 520 308 520 L253 520 C155 520 104 457 87 377 L86 369 C63 200 261 217 254 167 L252 155 C250 139 242 133 227 133 L211 133 C196 133 192 144 194 160 L195 167 C197 179 189 188 177 188 L82 188 C70 188 60 179 58 167 L56 156 C45 77 84 -5 182 -5 L238 -5 C337 -5 393 57 404 137 L406 151 C429 319 232 299 239 353 L241 364 C243 380 250 386 265 386 L275 386 C290 386 295 375 293 359 L292 352 Z " />
<glyph glyph-name="uni021A" unicode="&#x21a;" horiz-adv-x="468" d="M211 -223 C223 -223 233 -213 239 -203 L298 -72 C300 -62 293 -53 282 -53 L174 -53 C162 -53 153 -63 146 -72 L87 -203 C85 -214 93 -223 103 -223 L211 -223 Z M144 700 C132 700 122 691 120 679 L105 571 C103 559 111 550 123 550 L232 550 L157 21 C156 9 164 0 176 0 L292 0 C304 0 314 9 315 21 L390 550 L499 550 C511 550 521 559 523 571 L538 679 C540 691 532 700 520 700 L144 700 Z " />
<glyph glyph-name="uni021B" unicode="&#x21b;" horiz-adv-x="330" d="M196 -223 C208 -223 218 -213 224 -203 L283 -72 C285 -62 278 -53 267 -53 L159 -53 C147 -53 138 -63 131 -72 L72 -203 C70 -214 78 -223 88 -223 L196 -223 Z M283 368 L340 368 C352 368 362 377 364 389 L379 494 C381 506 373 515 361 515 L304 515 L327 679 C329 691 321 700 309 700 L193 700 C181 700 171 691 169 679 L146 515 L108 515 C96 515 86 506 84 494 L69 389 C67 377 75 368 87 368 L125 368 L97 170 C83 70 136 0 235 0 L289 0 C301 0 311 9 312 21 L327 125 C329 137 321 146 309 146 L282 146 C267 146 254 160 256 176 L283 368 Z " />
<glyph glyph-name="circumflex" unicode="&#x2c6;" horiz-adv-x="450" d="M274 700 C257 700 246 691 238 679 L131 512 C130 500 137 492 149 492 L248 492 C260 492 268 502 274 512 L303 555 L318 512 C322 502 328 492 340 492 L439 492 C451 492 460 500 461 512 L402 679 C398 691 389 700 372 700 L274 700 Z " />
<glyph glyph-name="caron" unicode="&#x2c7;" horiz-adv-x="450" d="M343 492 C360 492 371 501 379 513 L485 680 C487 692 480 700 468 700 L369 700 C357 700 348 690 342 680 L314 637 L298 680 C294 690 289 700 277 700 L178 700 C166 700 157 692 155 680 L215 513 C219 501 228 492 245 492 L343 492 Z " />
<glyph glyph-name="breve" unicode="&#x2d8;" horiz-adv-x="432" d="M289 525 C390 525 439 574 467 683 C469 693 463 700 453 700 L364 700 C354 700 344 694 339 683 C328 649 323 644 306 644 C289 644 286 649 283 683 C282 694 274 700 264 700 L175 700 C165 700 157 693 155 683 C153 574 188 525 289 525 L289 525 Z " />
<glyph glyph-name="dotaccent" unicode="&#x2d9;" horiz-adv-x="278" d="M138 561 C137 549 144 540 156 540 L272 540 C284 540 295 549 296 561 L313 679 C315 691 307 700 295 700 L179 700 C167 700 157 691 155 679 L138 561 Z " />
<glyph glyph-name="ring" unicode="&#x2da;" horiz-adv-x="404" d="M306 751 C229 751 156 688 145 609 C134 532 189 468 266 468 C346 468 418 532 429 609 C440 688 386 751 306 751 L306 751 Z M280 568 C258 568 242 587 245 609 C248 632 270 651 292 651 C315 651 331 632 328 609 C325 587 303 568 280 568 L280 568 Z " />
<glyph glyph-name="ogonek" unicode="&#x2db;" horiz-adv-x="287" d="M143 27 C132 27 123 19 122 8 L117 -23 C83 -29 52 -53 46 -93 C36 -168 49 -195 109 -195 L184 -195 C192 -195 200 -188 201 -180 L208 -133 C209 -124 203 -118 195 -118 L145 -118 C145 -118 133 -118 135 -105 C137 -92 149 -92 149 -92 L189 -92 C197 -92 205 -85 206 -77 L218 8 C219 19 212 27 201 27 L143 27 Z " />
<glyph glyph-name="tilde" unicode="&#x2dc;" horiz-adv-x="394" d="M315 526 C343 526 372 542 399 558 C409 565 414 575 416 585 L401 671 C400 679 392 686 381 686 C361 686 353 675 336 675 C287 675 280 700 250 700 C222 700 194 684 166 668 C156 661 151 651 150 641 L165 555 C165 547 173 540 184 540 C204 540 212 551 229 551 C258 551 267 526 315 526 L315 526 Z " />
<glyph glyph-name="hungarumlaut" unicode="&#x2dd;" horiz-adv-x="488" d="M258 530 C270 530 279 540 286 550 L350 681 C352 691 345 700 334 700 L229 700 C217 700 207 690 201 681 L137 550 C135 539 143 530 153 530 L258 530 Z M431 530 C443 530 452 540 459 550 L523 681 C525 691 518 700 507 700 L402 700 C390 700 380 690 374 681 L310 550 C308 539 316 530 326 530 L431 530 Z " />
<glyph glyph-name="uni03A9" unicode="&#x3a9;" horiz-adv-x="660" d="M456 705 L403 705 C298 705 203 625 189 524 L144 204 C143 193 141 170 145 150 L102 150 C90 150 79 141 78 129 L62 21 C61 9 69 0 81 0 L292 0 C304 0 314 9 315 21 L329 118 C331 129 326 144 315 150 C303 157 301 189 303 203 L347 517 C350 538 369 555 387 555 L429 555 C447 555 460 538 457 517 L413 203 C411 189 401 157 387 150 C374 144 365 129 363 118 L349 21 C348 9 356 0 368 0 L579 0 C591 0 601 9 602 21 L618 129 C619 141 612 150 600 150 L557 150 C565 170 571 193 572 204 L617 524 C631 625 560 705 456 705 L456 705 Z " />
<glyph glyph-name="pi" unicode="&#x3c0;" horiz-adv-x="682" d="M153 515 C141 515 131 506 129 494 L114 386 C112 374 120 365 132 365 L214 365 L165 21 C164 9 172 0 184 0 L300 0 C312 0 322 9 323 21 L372 365 L412 365 L363 21 C362 9 370 0 382 0 L498 0 C510 0 520 9 521 21 L570 365 L652 365 C664 365 674 374 676 386 L691 494 C693 506 685 515 673 515 L153 515 Z " />
<glyph glyph-name="ZWSP" unicode="&#x200b;" d="" />
<glyph glyph-name="endash" unicode="&#x2013;" horiz-adv-x="365" d="M308 176 C320 176 331 185 332 197 L347 305 C349 317 341 326 329 326 L126 326 C114 326 104 317 102 305 L87 197 C86 185 93 176 105 176 L308 176 Z " />
<glyph glyph-name="emdash" unicode="&#x2014;" horiz-adv-x="435" d="M378 176 C390 176 401 185 402 197 L417 305 C419 317 411 326 399 326 L126 326 C114 326 104 317 102 305 L87 197 C86 185 93 176 105 176 L378 176 Z " />
<glyph glyph-name="quoteleft" unicode="&#x2018;" horiz-adv-x="317" d="M253 499 C265 499 274 509 280 519 L352 681 C354 691 347 700 336 700 L232 700 C220 700 210 690 204 681 L132 519 C131 508 139 499 149 499 L253 499 Z " />
<glyph glyph-name="quoteright" unicode="&#x2019;" horiz-adv-x="317" d="M232 700 C220 700 210 690 204 680 L132 518 C131 508 138 499 149 499 L253 499 C265 499 274 509 280 518 L352 680 C354 691 346 700 336 700 L232 700 Z " />
<glyph glyph-name="quotesinglbase" unicode="&#x201a;" horiz-adv-x="317" d="M171 -81 C183 -81 193 -71 199 -61 L271 101 C272 111 265 120 254 120 L150 120 C138 120 129 110 123 101 L51 -61 C49 -72 57 -81 67 -81 L171 -81 Z " />
<glyph glyph-name="quotedblleft" unicode="&#x201c;" horiz-adv-x="509" d="M253 499 C265 499 274 509 280 519 L352 681 C354 691 347 700 336 700 L232 700 C220 700 210 690 204 681 L132 519 C131 508 139 499 149 499 L253 499 Z M445 499 C457 499 466 509 472 519 L544 681 C546 691 539 700 528 700 L424 700 C412 700 402 690 396 681 L324 519 C323 508 331 499 341 499 L445 499 Z " />
<glyph glyph-name="quotedblright" unicode="&#x201d;" horiz-adv-x="509" d="M424 700 C412 700 402 690 396 680 L324 518 C323 508 330 499 341 499 L445 499 C457 499 466 509 472 518 L544 680 C546 691 538 700 528 700 L424 700 Z M232 700 C220 700 210 690 204 680 L132 518 C131 508 138 499 149 499 L253 499 C265 499 274 509 280 518 L352 680 C354 691 346 700 336 700 L232 700 Z " />
<glyph glyph-name="quotedblbase" unicode="&#x201e;" horiz-adv-x="509" d="M342 120 C330 120 321 110 315 100 L243 -62 C241 -72 248 -81 259 -81 L363 -81 C375 -81 385 -71 391 -62 L463 100 C464 111 456 120 446 120 L342 120 Z M150 120 C138 120 129 110 123 100 L51 -62 C49 -72 56 -81 67 -81 L171 -81 C183 -81 193 -71 199 -62 L271 100 C272 111 264 120 254 120 L150 120 Z " />
<glyph glyph-name="dagger" unicode="&#x2020;" horiz-adv-x="432" d="M158 553 C146 553 136 544 134 532 L119 424 C117 412 125 403 137 403 L193 403 L102 -247 C100 -259 108 -268 120 -268 L236 -268 C248 -268 258 -259 260 -247 L351 403 L407 403 C419 403 429 412 431 424 L446 532 C448 544 440 553 428 553 L372 553 L390 679 C392 691 384 700 372 700 L256 700 C244 700 234 691 232 679 L214 553 L158 553 Z " />
<glyph glyph-name="daggerdbl" unicode="&#x2021;" horiz-adv-x="432" d="M85 33 C73 33 63 24 61 12 L46 -96 C44 -108 52 -117 64 -117 L120 -117 L102 -247 C100 -259 108 -268 120 -268 L236 -268 C248 -268 258 -259 260 -247 L278 -117 L334 -117 C346 -117 356 -108 358 -96 L373 12 C375 24 367 33 355 33 L299 33 L351 403 L407 403 C419 403 429 412 431 424 L446 532 C448 544 440 553 428 553 L372 553 L390 679 C392 691 384 700 372 700 L256 700 C244 700 234 691 232 679 L214 553 L158 553 C146 553 136 544 134 532 L119 424 C117 412 125 403 137 403 L193 403 L141 33 L85 33 Z " />
<glyph glyph-name="bullet" unicode="&#x2022;" horiz-adv-x="278" d="M84 172 C82 160 90 151 102 151 L218 151 C230 151 240 160 242 172 L258 290 C260 302 252 311 240 311 L124 311 C112 311 102 302 100 290 L84 172 Z " />
<glyph glyph-name="ellipsis" unicode="&#x2026;" horiz-adv-x="948" d="M62 16 C60 4 68 -5 80 -5 L196 -5 C208 -5 218 4 220 16 L236 134 C238 146 230 155 218 155 L102 155 C90 155 80 146 78 134 L62 16 Z M397 16 C395 4 403 -5 415 -5 L531 -5 C543 -5 553 4 555 16 L571 134 C573 146 565 155 553 155 L437 155 C425 155 415 146 413 134 L397 16 Z M732 16 C730 4 738 -5 750 -5 L866 -5 C878 -5 888 4 890 16 L906 134 C908 146 900 155 888 155 L772 155 C760 155 750 146 748 134 L732 16 Z " />
<glyph glyph-name="perthousand" unicode="&#x2030;" horiz-adv-x="1096" d="M299 700 C222 700 149 637 138 558 C127 481 182 417 259 417 C339 417 411 481 422 558 C433 637 379 700 299 700 L299 700 Z M273 517 C251 517 235 536 238 558 C241 581 263 600 285 600 C308 600 324 581 321 558 C318 536 296 517 273 517 L273 517 Z M707 679 C709 691 701 700 689 700 L570 700 C558 700 550 690 544 679 L163 21 C162 9 170 0 182 0 L301 0 C313 0 320 10 326 21 L707 679 Z M612 283 C535 283 462 220 451 141 C440 64 496 0 573 0 C653 0 724 64 735 141 C746 220 692 283 612 283 L612 283 Z M587 100 C565 100 548 119 551 141 C555 164 576 183 598 183 C621 183 638 164 634 141 C631 119 610 100 587 100 L587 100 Z M932 283 C855 283 782 220 771 141 C760 64 816 0 893 0 C973 0 1044 64 1055 141 C1066 220 1012 283 932 283 L932 283 Z M907 100 C885 100 868 119 871 141 C875 164 896 183 918 183 C941 183 958 164 954 141 C951 119 930 100 907 100 L907 100 Z " />
<glyph glyph-name="guilsinglleft" unicode="&#x2039;" horiz-adv-x="356" d="M82 162 C81 152 87 146 98 142 L288 72 C298 72 307 79 308 90 L322 187 C323 198 316 206 307 209 L233 233 L235 246 L315 270 C326 273 335 281 337 292 L350 389 C352 400 345 407 335 407 L126 336 C113 332 105 326 104 316 L82 162 Z " />
<glyph glyph-name="guilsinglright" unicode="&#x203a;" horiz-adv-x="356" d="M340 316 C341 326 335 332 324 336 L135 407 C125 407 116 400 114 389 L101 292 C99 281 106 273 115 270 L189 246 L187 233 L107 209 C96 206 87 198 86 187 L72 90 C71 79 78 72 88 72 L296 142 C309 146 317 152 318 162 L340 316 Z " />
<glyph glyph-name="fraction" unicode="&#x2044;" horiz-adv-x="584" d="M38 -153 C36 -165 44 -174 56 -174 L175 -174 C187 -174 196 -164 202 -153 L634 783 C635 795 627 804 615 804 L496 804 C484 804 475 794 470 783 L38 -153 Z " />
<glyph glyph-name="Euro" unicode="&#x20ac;" horiz-adv-x="606" d="M360 203 C372 203 382 212 384 224 L395 305 C397 317 389 326 377 326 L320 326 L327 373 L384 373 C396 373 406 382 408 394 L419 475 C421 487 413 496 401 496 L344 496 L347 517 C350 538 369 555 387 555 L432 555 C451 555 463 538 460 517 L455 479 C453 467 461 458 473 458 L589 458 C601 458 611 467 613 479 L619 524 C633 625 562 705 457 705 L404 705 C299 705 204 625 190 524 L186 496 L150 496 C138 496 128 487 126 475 L115 394 C113 382 121 373 133 373 L169 373 L162 326 L126 326 C114 326 104 317 102 305 L91 224 C89 212 97 203 109 203 L145 203 L141 176 C127 75 199 -5 304 -5 L357 -5 C462 -5 556 75 570 176 L577 221 C578 233 571 242 559 242 L443 242 C431 242 420 233 419 221 L413 183 C410 162 393 145 374 145 L329 145 C311 145 297 162 300 183 L303 203 L360 203 Z " />
<glyph glyph-name="Numero" unicode="&#x2116;" horiz-adv-x="1019" d="M884 0 C896 0 906 9 907 21 L921 116 C922 128 915 137 903 137 L699 137 C687 137 676 128 675 116 L661 21 C660 9 668 0 680 0 L884 0 Z M405 392 L349 679 C345 690 340 700 328 700 L179 700 C167 700 157 691 155 679 L62 21 C61 9 69 0 81 0 L197 0 C209 0 219 9 220 21 L261 311 L270 311 L325 21 C328 10 335 0 347 0 L496 0 C508 0 518 9 519 21 L612 679 C614 691 606 700 594 700 L478 700 C466 700 456 691 454 679 L414 392 L405 392 Z M822 175 C920 175 995 257 1006 336 L1034 538 C1045 618 994 700 896 700 L865 700 C767 700 692 618 681 538 L653 336 C642 257 693 175 791 175 L822 175 Z M831 523 C833 539 839 553 852 553 L867 553 C880 553 882 539 880 523 L856 352 C854 336 848 322 835 322 L820 322 C807 322 805 336 807 352 L831 523 Z " />
<glyph glyph-name="trademark" unicode="&#x2122;" horiz-adv-x="701" d="M171 700 C164 700 157 694 156 687 L146 619 C146 612 151 606 158 606 L204 606 L174 396 C173 389 178 383 185 383 L263 383 C270 383 277 389 278 396 L308 606 L353 606 C360 606 367 612 367 619 L377 687 C378 694 373 700 366 700 L171 700 Z M545 417 C551 417 555 418 560 426 L606 493 L592 396 C591 389 596 383 603 383 L681 383 C688 383 695 389 696 396 L737 687 C738 694 733 700 726 700 L648 700 C643 700 637 697 635 692 L556 560 L551 560 L510 692 C508 697 504 700 499 700 L421 700 C414 700 407 694 406 687 L365 396 C364 389 369 383 376 383 L454 383 C461 383 468 389 469 396 L483 493 L509 426 C512 418 516 417 522 417 L545 417 Z " />
<glyph glyph-name="Omega" unicode="&#x2126;" horiz-adv-x="660" d="M456 705 L403 705 C298 705 203 625 189 524 L144 204 C143 193 141 170 145 150 L102 150 C90 150 79 141 78 129 L62 21 C61 9 69 0 81 0 L292 0 C304 0 314 9 315 21 L329 118 C331 129 326 144 315 150 C303 157 301 189 303 203 L347 517 C350 538 369 555 387 555 L429 555 C447 555 460 538 457 517 L413 203 C411 189 401 157 387 150 C374 144 365 129 363 118 L349 21 C348 9 356 0 368 0 L579 0 C591 0 601 9 602 21 L618 129 C619 141 612 150 600 150 L557 150 C565 170 571 193 572 204 L617 524 C631 625 560 705 456 705 L456 705 Z " />
<glyph glyph-name="partialdiff" unicode="&#x2202;" horiz-adv-x="488" d="M254 266 C256 282 262 296 277 296 L293 296 C308 296 309 282 307 266 L294 172 C291 156 286 142 271 142 L255 142 C240 142 238 156 241 172 L254 266 Z M327 407 L319 407 C309 437 271 443 262 443 L245 443 C149 443 112 373 99 281 L82 157 C69 65 86 -5 182 -5 L199 -5 C208 -5 248 1 266 31 L274 31 L272 21 C271 9 279 0 291 0 L407 0 C419 0 429 9 430 21 L504 543 C515 623 464 705 366 705 L334 705 C234 705 161 623 150 543 L145 510 C143 498 151 489 163 489 L279 489 C291 489 301 498 303 510 L306 528 C308 544 313 558 324 558 L334 558 C345 558 346 544 344 528 L327 407 Z " />
<glyph glyph-name="Delta" unicode="&#x2206;" horiz-adv-x="832" d="M578 150 L296 150 L486 499 L578 150 Z M751 0 C763 0 773 9 774 21 L602 679 C598 690 590 700 578 700 L450 700 C438 700 426 690 420 679 L62 21 C61 9 69 0 81 0 L751 0 Z " />
<glyph glyph-name="product" unicode="&#x220f;" horiz-adv-x="682" d="M179 700 C167 700 157 691 155 679 L140 571 C138 559 146 550 158 550 L240 550 L165 21 C164 9 172 0 184 0 L300 0 C312 0 322 9 323 21 L398 550 L438 550 L363 21 C362 9 370 0 382 0 L498 0 C510 0 520 9 521 21 L596 550 L678 550 C690 550 700 559 702 571 L717 679 C719 691 711 700 699 700 L179 700 Z " />
<glyph glyph-name="summation" unicode="&#x2211;" horiz-adv-x="483" d="M257 150 L386 329 L392 371 L313 550 L479 550 C491 550 501 559 503 571 L518 679 C520 691 512 700 500 700 L179 700 C167 700 157 691 155 679 L139 564 L232 361 L229 339 L79 136 L62 21 C61 9 69 0 81 0 L402 0 C414 0 424 9 425 21 L441 129 C442 141 435 150 423 150 L257 150 Z " />
<glyph glyph-name="minus" unicode="&#x2212;" horiz-adv-x="365" d="M308 176 C320 176 331 185 332 197 L347 305 C349 317 341 326 329 326 L126 326 C114 326 104 317 102 305 L87 197 C86 185 93 176 105 176 L308 176 Z " />
<glyph glyph-name="radical" unicode="&#x221a;" horiz-adv-x="628" d="M624 550 C636 550 646 559 648 571 L663 679 C665 691 657 700 645 700 L441 700 C429 700 420 691 415 679 L276 218 L266 218 L271 380 C270 392 263 401 251 401 L137 401 C125 401 115 392 113 380 L144 21 C146 9 155 0 167 0 L315 0 C327 0 338 9 342 21 L528 550 L624 550 Z " />
<glyph glyph-name="infinity" unicode="&#x221e;" horiz-adv-x="823" d="M355 322 C366 322 374 313 373 301 L363 233 C362 223 351 214 340 214 L269 214 C258 214 249 223 250 233 L260 301 C261 313 273 322 284 322 L355 322 Z M425 102 C446 75 482 64 512 64 L610 64 C710 64 783 148 795 228 L806 306 C817 388 768 472 668 472 L570 472 C538 472 500 462 471 433 C450 462 416 472 384 472 L287 472 C187 472 114 388 103 306 L92 228 C80 148 129 64 229 64 L326 64 C356 64 396 75 425 102 L425 102 Z M629 322 C640 322 648 313 647 301 L637 233 C636 223 625 214 614 214 L542 214 C531 214 522 223 523 233 L533 301 C534 313 546 322 557 322 L629 322 Z " />
<glyph glyph-name="integral" unicode="&#x222b;" horiz-adv-x="448" d="M414 698 C414 698 236 652 214 494 L147 21 C147 21 140 -23 66 -45 C57 -47 52 -56 51 -63 C50 -65 51 -69 52 -71 L80 -177 C81 -186 88 -190 95 -190 C97 -190 103 -189 105 -188 C105 -188 283 -142 305 16 L371 489 C371 489 378 533 453 555 C462 557 467 566 468 573 C468 575 468 579 467 581 L439 687 C437 696 431 700 424 700 C422 700 416 699 414 698 L414 698 Z " />
<glyph glyph-name="approxequal" unicode="&#x2248;" horiz-adv-x="394" d="M275 238 C303 238 331 254 358 270 C368 277 374 287 375 297 L360 383 C359 391 351 398 340 398 C320 398 313 387 296 387 C247 387 239 412 209 412 C181 412 153 396 126 380 C116 373 111 363 109 353 L124 267 C125 259 133 252 144 252 C164 252 171 263 188 263 C217 263 227 238 275 238 L275 238 Z M249 51 C277 51 305 67 332 83 C342 90 348 100 349 110 L334 196 C333 204 325 211 314 211 C294 211 287 200 270 200 C221 200 213 225 183 225 C155 225 127 209 100 193 C90 186 84 176 83 166 L98 80 C99 72 107 65 118 65 C138 65 145 76 162 76 C191 76 201 51 249 51 L249 51 Z " />
<glyph glyph-name="notequal" unicode="&#x2260;" horiz-adv-x="384" d="M339 263 C351 263 362 272 363 284 L376 377 C378 389 370 398 358 398 L353 398 L387 470 C388 482 381 491 369 491 L314 491 C302 491 292 481 287 470 L253 398 L136 398 C124 398 114 389 112 377 L99 284 C98 272 105 263 117 263 L190 263 L170 217 L111 217 C99 217 89 208 87 196 L74 103 C72 91 80 82 92 82 L107 82 L79 21 C78 9 86 0 98 0 L153 0 C165 0 174 10 179 21 L207 82 L314 82 C326 82 336 91 338 103 L351 196 C353 208 345 217 333 217 L270 217 L290 263 L339 263 Z " />
<glyph glyph-name="lessequal" unicode="&#x2264;" horiz-adv-x="356" d="M275 0 C287 0 297 9 298 21 L307 84 C309 96 301 105 289 105 L96 105 C84 105 74 96 72 84 L63 21 C62 9 70 0 82 0 L275 0 Z M92 232 C91 222 97 216 108 212 L298 143 C308 143 317 150 318 161 L330 248 C332 259 325 267 315 270 L242 293 L244 306 L324 331 C334 334 344 342 345 353 L357 440 C359 451 352 458 342 458 L133 386 C120 382 112 376 111 366 L92 232 Z " />
<glyph glyph-name="greaterequal" unicode="&#x2265;" horiz-adv-x="356" d="M274 0 C286 0 296 9 297 21 L306 84 C308 96 300 105 288 105 L95 105 C83 105 73 96 71 84 L62 21 C61 9 69 0 81 0 L274 0 Z M347 366 C348 376 342 382 331 386 L142 458 C132 458 123 451 121 440 L109 353 C108 342 114 334 124 331 L198 306 L196 293 L115 270 C105 267 96 259 94 248 L82 161 C81 150 88 143 98 143 L306 212 C319 216 327 222 328 232 L347 366 Z " />
<glyph glyph-name="lozenge" unicode="&#x25ca;" horiz-adv-x="606" d="M330 193 L271 348 L374 507 L431 348 L330 193 Z M333 700 C320 700 314 692 307 682 L109 350 C140 247 183 121 214 18 C218 8 222 0 235 0 L367 0 C384 0 390 8 396 18 C457 121 534 247 595 350 L489 682 C486 692 482 700 469 700 L333 700 Z " />
<glyph glyph-name="uni25CC" unicode="&#x25cc;" horiz-adv-x="199" d="" />
<glyph glyph-name="fi" unicode="&#xfb01;" horiz-adv-x="613" d="M76 21 C75 9 83 0 95 0 L211 0 C223 0 233 9 234 21 L283 368 L340 368 C352 368 362 377 364 389 L379 494 C381 506 373 515 361 515 L304 515 L309 550 C311 566 328 580 343 580 L371 580 C383 580 393 589 395 601 L410 706 C411 718 404 727 392 727 L337 727 C238 727 169 645 153 565 L146 515 L108 515 C96 515 86 506 84 494 L69 389 C67 377 75 368 87 368 L125 368 L76 21 Z M397 21 C396 9 404 0 416 0 L532 0 C544 0 554 9 555 21 L622 494 C624 506 616 515 604 515 L488 515 C476 515 466 506 464 494 L397 21 Z M473 579 C471 567 479 558 491 558 L613 558 C625 558 635 567 637 579 L651 676 C652 688 644 697 632 697 L510 697 C498 697 488 688 487 676 L473 579 Z " />
<glyph glyph-name="fl" unicode="&#xfb02;" horiz-adv-x="613" d="M76 21 C75 9 83 0 95 0 L211 0 C223 0 233 9 234 21 L283 368 L340 368 C352 368 362 377 364 389 L379 494 C381 506 373 515 361 515 L304 515 L309 550 C311 566 328 580 343 580 L371 580 C383 580 393 589 395 601 L410 706 C411 718 404 727 392 727 L337 727 C238 727 169 645 153 565 L146 515 L108 515 C96 515 86 506 84 494 L69 389 C67 377 75 368 87 368 L125 368 L76 21 Z M397 21 C396 9 404 0 416 0 L532 0 C544 0 554 9 555 21 L648 679 C650 691 642 700 630 700 L514 700 C502 700 492 691 490 679 L397 21 Z " />
</font>
</svg>
