<?xml version="1.0" encoding="UTF-8" standalone="no"?>
<svg
   version="1.0"
   width="1228.8707pt"
   height="670.20001pt"
   viewBox="0 0 1228.8707 670.20001"
   preserveAspectRatio="xMidYMid meet"
   id="svg234"
   sodipodi:docname="bg.svg"
   inkscape:version="1.1.1 (3bf5ae0d25, 2021-09-20)"
   xmlns:inkscape="http://www.inkscape.org/namespaces/inkscape"
   xmlns:sodipodi="http://sodipodi.sourceforge.net/DTD/sodipodi-0.dtd"
   xmlns="http://www.w3.org/2000/svg"
   xmlns:svg="http://www.w3.org/2000/svg">
  <defs
     id="defs238" />
  <sodipodi:namedview
     id="namedview236"
     pagecolor="#505050"
     bordercolor="#ffffff"
     borderopacity="1"
     inkscape:pageshadow="0"
     inkscape:pageopacity="0"
     inkscape:pagecheckerboard="1"
     inkscape:document-units="pt"
     showgrid="false"
     fit-margin-top="0"
     fit-margin-left="0"
     fit-margin-right="0"
     fit-margin-bottom="0"
     inkscape:zoom="0.70717423"
     inkscape:cx="827.23602"
     inkscape:cy="441.19255"
     inkscape:window-width="1868"
     inkscape:window-height="1016"
     inkscape:window-x="52"
     inkscape:window-y="27"
     inkscape:window-maximized="1"
     inkscape:current-layer="svg234" />
  <g
     transform="matrix(0.1,0,0,-0.1,-19.045227,672)"
     fill="#eeeeee"
     stroke="none"
     id="g232">
    <path
       d="m 5851,6656 c -52,-79 -146,-170 -203,-196 -107,-48 -248,-1 -369,123 -39,39 -40,40 -26,11 22,-43 126,-136 180,-162 124,-58 203,-46 300,46 64,61 125,145 151,205 8,20 13,37 12,37 -2,0 -22,-29 -45,-64 z"
       id="path2" />
    <path
       d="m 6107,6713 c -4,-3 -7,-11 -7,-17 0,-6 5,-5 12,2 6,6 9,14 7,17 -3,3 -9,2 -12,-2 z"
       id="path4" />
    <path
       d="m 6342,6634 c -12,-39 -45,-108 -73,-155 -28,-46 -60,-97 -69,-114 -10,-16 -22,-47 -25,-67 -6,-33 -3,-41 22,-67 53,-53 164,-67 239,-30 49,23 96,87 121,164 19,59 31,285 15,285 -13,0 -48,-104 -63,-185 -23,-128 -92,-203 -159,-175 -56,23 -55,79 4,215 26,60 32,124 17,175 -7,22 -11,15 -29,-46 z"
       id="path6" />
    <path
       d="m 6053,6612 c -75,-118 -263,-343 -316,-376 -161,-99 -449,29 -660,294 l -28,35 20,-40 c 81,-164 319,-341 511,-381 131,-27 195,-3 261,96 20,30 77,116 127,191 90,136 114,177 132,224 17,45 -4,26 -47,-43 z"
       id="path8" />
    <path
       d="m 3152,6601 c -20,-14 -70,-53 -110,-87 -49,-42 -121,-87 -215,-135 -180,-93 -219,-131 -356,-349 -108,-170 -180,-269 -384,-524 -118,-146 -618,-670 -793,-830 -110,-101 -215,-231 -262,-325 -31,-63 -36,-83 -37,-145 0,-98 32,-162 128,-253 124,-117 279,-185 471,-204 126,-13 243,-7 427,21 162,25 306,33 394,22 l 70,-9 -110,-2 c -60,-1 -164,-11 -230,-22 -382,-64 -471,-71 -624,-44 -208,36 -409,142 -550,290 -82,87 -105,139 -99,223 8,119 113,269 357,512 92,91 203,207 249,258 45,51 138,144 205,207 144,132 193,186 349,391 145,190 246,337 333,484 131,222 164,261 358,411 70,55 127,102 127,105 0,8 -13,-2 -145,-100 -135,-100 -232,-195 -286,-276 -20,-30 -84,-127 -142,-215 -106,-161 -374,-500 -499,-630 -36,-38 -111,-108 -165,-154 -54,-47 -125,-116 -158,-155 -33,-38 -135,-147 -227,-242 -174,-181 -361,-416 -407,-514 -36,-76 -35,-140 4,-206 96,-165 421,-371 680,-430 115,-26 354,-25 540,3 170,26 351,38 384,25 19,-7 -4,-10 -90,-15 -63,-3 -161,-15 -219,-27 -329,-65 -525,-66 -718,-4 -42,14 -205,88 -362,164 -179,88 -311,146 -354,157 -65,16 -74,16 -132,0 -63,-16 -338,-137 -330,-144 2,-3 69,17 148,43 193,63 259,68 386,25 50,-17 195,-80 320,-140 404,-194 443,-205 692,-205 133,0 197,5 331,27 103,17 199,27 255,26 l 89,-2 -104,-13 c -57,-7 -183,-30 -280,-50 -153,-32 -194,-37 -316,-37 -203,-1 -293,22 -540,139 -125,59 -286,116 -389,139 -117,26 -244,17 -366,-25 -101,-35 -224,-92 -235,-110 -4,-6 15,0 41,13 69,35 230,85 316,98 173,27 373,-27 703,-191 237,-118 301,-135 500,-134 135,0 164,3 290,33 104,25 168,34 250,36 l 110,3 -75,-10 c -90,-12 -222,-44 -385,-94 -108,-34 -131,-37 -235,-38 -172,0 -224,16 -490,156 -143,76 -269,119 -422,143 -92,15 -118,16 -185,6 -136,-22 -334,-102 -403,-163 -14,-13 -21,-20 -15,-16 39,24 169,84 225,103 158,54 303,57 485,10 165,-42 262,-94 505,-273 145,-108 170,-130 170,-158 0,-41 -57,-70 -312,-157 C 1048,2935 980,2887 837,2697 696,2510 632,2472 405,2439 l -130,-19 123,5 c 217,9 300,52 456,239 101,122 143,162 208,200 131,76 406,118 560,85 97,-21 186,-77 359,-226 148,-128 200,-165 289,-207 110,-53 201,-70 334,-62 61,3 125,9 141,12 22,5 27,4 19,-5 -11,-12 -160,-40 -255,-48 -132,-11 -275,54 -504,227 -263,200 -311,220 -526,220 -292,0 -411,-53 -573,-255 -158,-195 -257,-249 -526,-284 -73,-9 -71,-10 36,-5 127,5 201,22 294,67 53,25 92,58 210,178 161,164 203,191 327,215 95,18 278,18 365,-1 37,-7 104,-32 150,-55 76,-39 119,-70 368,-265 158,-125 290,-182 470,-205 130,-17 193,-34 345,-93 153,-59 220,-77 294,-77 86,0 153,36 187,102 16,32 18,125 3,165 -5,15 -31,49 -56,75 -55,55 -29,57 35,2 104,-88 111,-258 15,-356 -47,-48 -89,-61 -188,-60 -89,1 -213,33 -330,84 -141,61 -174,69 -325,78 -226,13 -270,33 -457,208 -187,175 -326,269 -452,306 -71,21 -289,21 -384,1 -125,-26 -167,-53 -321,-203 -128,-125 -150,-143 -236,-185 -108,-53 -178,-73 -288,-83 -98,-9 -137,-22 -67,-23 71,-1 230,25 295,47 125,44 189,85 322,209 142,132 212,167 376,186 138,16 274,-2 367,-49 177,-90 316,-240 340,-367 11,-55 -17,-118 -72,-167 -26,-22 -103,-68 -172,-101 -201,-97 -227,-112 -299,-172 -63,-52 -99,-93 -274,-312 -80,-99 -176,-181 -290,-247 -49,-28 -88,-52 -88,-54 0,-3 33,12 73,32 161,81 256,163 396,339 171,214 289,293 538,361 135,37 234,33 290,-12 53,-43 97,-104 125,-171 20,-52 23,-74 22,-208 0,-203 -21,-519 -39,-608 -62,-296 -127,-418 -241,-458 -41,-14 -149,-17 -224,-6 -29,4 -38,3 -24,-2 11,-5 60,-14 108,-20 136,-16 214,5 274,74 42,47 54,72 90,185 43,134 69,292 76,455 4,77 14,185 23,240 12,70 17,164 17,317 1,214 1,217 25,242 46,49 100,61 271,60 120,0 179,-5 265,-23 226,-47 256,-51 352,-51 114,0 157,16 215,76 49,51 75,114 89,210 21,152 -6,261 -87,341 -29,29 -51,53 -48,53 19,0 89,-61 113,-99 42,-65 54,-121 54,-241 -1,-124 -18,-200 -65,-276 -85,-141 -179,-160 -517,-102 -270,45 -388,42 -472,-15 -56,-38 -78,-92 -122,-305 l -41,-197 v -340 c 0,-325 1,-342 21,-387 12,-25 29,-50 40,-55 46,-23 152,-9 228,31 65,33 165,142 255,276 157,234 240,335 330,402 63,46 172,78 297,86 212,14 280,4 638,-94 72,-20 171,-17 222,6 61,27 126,92 293,291 166,198 205,265 247,424 20,79 27,131 30,246 6,170 -7,247 -63,391 -51,132 -51,136 2,28 102,-210 137,-364 129,-565 -7,-157 -12,-196 -37,-268 -24,-69 -31,-77 -223,-278 -77,-80 -178,-187 -225,-237 -142,-152 -207,-166 -430,-94 -261,84 -357,99 -517,81 -341,-38 -446,-123 -680,-549 -44,-80 -105,-183 -135,-230 -68,-107 -174,-289 -204,-355 -24,-51 -33,-122 -14,-110 27,17 122,178 224,378 242,476 285,549 380,642 109,107 209,148 402,164 191,17 317,-3 537,-85 86,-33 143,-48 192,-51 115,-9 164,24 379,255 78,85 167,154 316,248 80,50 157,109 216,165 120,114 121,115 356,100 212,-13 444,-2 622,30 61,10 141,25 178,31 113,20 228,-20 337,-119 88,-79 135,-177 173,-358 26,-126 21,-274 -12,-380 -49,-154 -168,-401 -223,-462 -11,-12 -43,-30 -71,-39 -46,-16 -68,-16 -255,-4 -162,11 -219,11 -275,1 -102,-17 -186,-60 -262,-132 -71,-69 -82,-93 -13,-29 152,140 265,166 604,137 184,-16 244,-13 287,15 25,16 48,63 129,258 108,259 134,349 138,475 2,80 -22,264 -45,344 -36,125 -113,236 -227,329 -130,105 -202,116 -351,53 -164,-69 -241,-87 -416,-98 -118,-6 -228,8 -302,39 -53,23 -114,83 -124,124 -12,48 2,147 28,194 73,132 102,179 134,215 l 35,40 -31,-57 c -40,-73 -79,-196 -86,-273 -5,-51 -2,-67 18,-105 47,-87 132,-121 305,-121 167,0 229,18 436,129 68,37 86,42 142,42 76,0 136,-23 215,-83 206,-155 277,-279 320,-557 31,-198 20,-314 -51,-559 -40,-136 -47,-222 -25,-289 10,-28 24,-56 32,-62 18,-16 18,-10 -3,31 -13,25 -18,57 -18,124 1,76 7,113 43,235 53,181 62,236 62,380 0,209 -43,402 -117,530 -46,78 -184,221 -272,280 -146,98 -266,106 -378,25 -178,-129 -257,-162 -373,-152 -82,7 -156,40 -182,81 -31,50 -22,142 24,236 19,41 43,84 53,95 9,11 14,14 10,8 -11,-22 4,-14 16,8 8,16 8,20 -1,14 -6,-4 0,11 15,34 15,22 29,41 30,41 6,0 -18,-66 -41,-115 -35,-73 -58,-176 -50,-221 14,-73 101,-123 190,-109 63,10 139,48 204,103 91,75 143,97 232,97 90,0 155,-20 259,-80 154,-89 280,-218 343,-352 43,-92 86,-279 97,-423 12,-155 2,-278 -39,-467 -41,-192 -38,-262 10,-323 l 20,-25 -20,45 c -24,55 -26,147 -4,245 58,261 63,299 64,451 0,108 -6,183 -20,265 -59,334 -152,466 -480,688 -144,98 -215,134 -327,166 -48,14 -98,30 -111,37 -23,12 -53,89 -51,137 0,25 1,25 16,-6 17,-34 41,-47 28,-15 -18,42 -16,56 3,27 31,-48 64,-73 133,-101 131,-53 146,-62 477,-293 177,-124 259,-223 312,-376 20,-57 63,-259 76,-350 9,-62 10,-348 1,-395 -45,-265 -46,-361 -3,-434 15,-26 30,-46 32,-43 3,2 -7,24 -21,48 -21,37 -25,57 -25,126 0,45 6,114 14,155 56,292 46,598 -29,895 -47,186 -117,284 -300,423 -128,97 -208,186 -284,316 -47,79 -87,132 -148,193 -79,79 -109,122 -60,87 12,-9 33,-22 47,-28 22,-11 118,-86 145,-113 6,-6 21,-19 34,-30 l 24,-20 -12,25 c -30,62 22,-19 65,-100 58,-112 121,-182 246,-271 239,-170 267,-220 335,-594 23,-128 26,-174 33,-525 7,-391 9,-418 48,-478 8,-13 24,-28 36,-34 16,-8 15,-4 -8,20 -50,54 -54,93 -48,462 5,342 2,386 -38,675 -37,269 -82,387 -184,483 -134,126 -164,162 -181,213 -43,129 44,264 170,263 76,-1 137,-36 250,-144 55,-53 143,-125 195,-160 52,-35 129,-91 170,-124 160,-129 456,-446 548,-586 65,-100 84,-123 51,-61 -90,166 -332,444 -709,812 -171,167 -332,319 -358,337 -67,48 -124,75 -239,116 -136,47 -174,68 -217,117 -44,52 -47,73 -5,33 35,-32 35,-30 -3,41 -14,28 -40,87 -57,132 -36,91 -90,161 -148,188 -21,10 -32,20 -25,23 10,3 8,8 -5,19 -17,13 -16,14 12,8 92,-20 143,-72 220,-225 34,-67 71,-125 94,-148 40,-38 50,-43 227,-130 129,-63 176,-95 299,-207 55,-50 142,-126 193,-169 171,-146 566,-596 706,-805 67,-100 81,-115 41,-46 -57,102 -283,409 -390,530 -34,39 -95,113 -137,165 -114,145 -464,464 -666,607 -143,102 -154,114 -263,289 -80,129 -144,204 -203,239 -54,31 -162,58 -206,51 -30,-4 -32,-3 -15,6 11,6 53,12 95,12 60,0 85,-4 125,-24 68,-33 147,-115 230,-240 79,-119 143,-187 241,-256 83,-58 197,-149 279,-223 33,-30 119,-98 190,-151 150,-113 194,-157 295,-295 40,-55 97,-127 125,-160 72,-83 278,-379 353,-508 35,-59 65,-107 68,-107 3,0 -3,15 -14,33 -11,17 -41,70 -67,117 -67,119 -256,410 -325,501 -32,41 -84,118 -116,170 -77,126 -132,181 -288,293 -72,52 -176,136 -232,188 -55,51 -137,124 -181,161 -95,81 -157,151 -264,303 -185,262 -283,323 -499,312 l -95,-6 50,15 c 28,8 91,15 140,15 78,1 98,-2 147,-25 102,-46 142,-87 333,-337 66,-85 200,-212 433,-408 75,-63 195,-141 312,-203 99,-52 170,-125 252,-258 40,-64 96,-149 125,-190 29,-40 77,-119 107,-175 29,-55 95,-180 146,-276 50,-96 96,-179 102,-185 5,-5 -35,80 -90,190 -55,110 -114,234 -131,275 -32,76 -55,119 -191,362 -103,182 -159,238 -343,338 -76,41 -168,97 -205,125 -87,64 -370,348 -447,449 -292,379 -336,411 -575,411 -69,0 -152,-4 -184,-8 -85,-11 -64,1 30,17 131,23 215,28 292,17 143,-21 202,-66 402,-306 159,-191 343,-375 473,-474 38,-28 141,-87 230,-131 201,-99 272,-152 392,-292 163,-190 196,-252 264,-500 39,-143 107,-322 138,-363 18,-24 16,-16 -31,92 -41,96 -67,182 -96,313 -53,245 -110,346 -324,568 -95,99 -148,137 -323,233 -191,104 -267,162 -350,262 -217,262 -437,518 -480,559 -111,103 -222,130 -525,126 -114,-1 -210,1 -214,5 -4,4 24,7 62,7 38,0 135,5 216,12 113,9 175,9 270,0 173,-16 213,-30 292,-102 37,-33 85,-72 107,-86 50,-31 93,-30 97,4 7,45 -21,94 -104,183 -110,118 -119,146 -118,359 1,256 43,394 207,683 110,194 178,251 302,251 97,0 173,-28 340,-125 157,-91 238,-133 275,-143 14,-4 -3,9 -38,28 -34,20 -124,76 -200,124 -191,123 -201,129 -276,157 -138,52 -259,24 -334,-77 -49,-67 -231,-419 -265,-514 -25,-68 -56,-216 -92,-424 -30,-179 -74,-217 -268,-230 -167,-12 -371,2 -433,29 -131,58 -194,197 -214,475 -13,175 -24,243 -57,371 -37,141 -37,250 -1,327 52,111 146,186 262,207 33,6 106,11 162,11 212,0 362,40 621,165 184,89 215,111 250,183 24,50 27,68 29,176 3,119 2,119 -6,41 -22,-192 -55,-236 -249,-334 -299,-152 -399,-180 -666,-190 -184,-6 -192,-8 -255,-37 -154,-73 -250,-233 -237,-398 3,-39 18,-120 33,-181 28,-108 28,-115 26,-364 -2,-140 -5,-257 -7,-260 -23,-23 -44,109 -45,286 -2,166 -10,223 -60,403 -49,174 -15,333 100,478 94,119 170,150 405,163 186,10 257,24 353,69 76,36 217,131 293,199 90,81 125,194 98,316 l -13,60 -7,-95 c -10,-152 -33,-190 -182,-303 -220,-166 -296,-194 -561,-207 -220,-10 -279,-28 -368,-108 -83,-75 -175,-243 -198,-360 -15,-76 -9,-142 26,-282 46,-184 35,-330 -41,-542 -31,-86 -73,-168 -85,-168 -18,0 -11,44 24,148 57,169 69,239 63,365 -4,82 -13,135 -32,197 -19,59 -29,116 -32,186 -7,122 8,175 98,361 84,172 160,250 274,283 22,6 117,15 210,21 175,9 243,24 300,62 125,84 274,320 275,436 0,37 -2,42 -15,31 -8,-7 -15,-23 -15,-35 0,-49 -133,-269 -204,-338 -22,-22 -70,-54 -106,-71 -64,-30 -68,-31 -270,-37 -350,-12 -367,-24 -528,-390 -33,-74 -67,-160 -76,-189 -23,-77 -20,-172 10,-307 34,-153 36,-266 6,-343 -49,-125 -117,-196 -215,-225 -27,-8 -138,-24 -246,-36 -228,-26 -281,-21 -354,35 -80,60 -151,242 -183,466 -20,144 -15,267 21,455 37,193 33,275 -19,380 -24,48 -59,97 -94,133 -60,61 -203,162 -289,206 -113,57 -304,97 -543,116 -230,17 -329,-16 -471,-159 -68,-69 -95,-105 -128,-171 -70,-143 -81,-239 -61,-525 22,-302 45,-376 179,-565 86,-121 169,-203 298,-293 137,-94 210,-171 308,-322 43,-66 110,-153 149,-194 54,-57 61,-67 29,-42 -50,38 -129,127 -207,233 -87,120 -151,179 -292,270 -156,102 -210,150 -318,282 -187,228 -211,293 -230,621 -3,50 -8,133 -12,185 -14,211 57,407 213,583 72,80 143,137 213,171 61,29 72,31 185,31 66,0 158,-4 205,-8 177,-17 328,-26 410,-25 67,0 48,3 -90,14 -96,7 -253,20 -349,30 -219,21 -290,16 -385,-29 -129,-62 -295,-239 -376,-402 -70,-142 -75,-172 -74,-505 0,-321 5,-360 56,-465 60,-122 249,-363 443,-564 133,-138 245,-268 245,-285 0,-12 -460,462 -541,558 -193,227 -243,308 -273,438 -20,86 -40,445 -32,573 10,162 73,366 157,508 44,73 180,223 279,306 30,25 55,50 55,55 0,4 -33,9 -73,10 -63,2 -77,-1 -110,-23 z m -261,-313 c 10,-23 -7,-100 -78,-353 -27,-99 -28,-104 -27,-375 0,-443 23,-514 264,-815 150,-187 278,-370 267,-381 -2,-2 -53,58 -113,133 -59,76 -145,178 -189,227 -208,230 -239,290 -335,656 -64,246 -89,294 -150,292 -71,-2 -170,-83 -445,-363 -104,-107 -338,-342 -521,-524 -182,-181 -346,-352 -364,-379 -73,-109 -92,-228 -51,-321 26,-59 110,-141 186,-182 92,-48 164,-64 325,-70 128,-4 171,-1 365,27 184,27 237,31 327,26 162,-9 164,-21 5,-22 -143,-1 -168,-4 -377,-46 -95,-18 -148,-22 -305,-22 -182,0 -193,1 -270,28 -44,15 -104,41 -134,58 -73,42 -172,137 -199,192 -29,58 -38,140 -23,203 28,113 73,167 481,573 512,510 757,797 956,1117 129,208 182,271 266,312 75,38 124,41 139,9 z m 1113,-28 c 60,-12 137,-32 170,-44 78,-30 170,-76 163,-82 -3,-3 -18,3 -33,13 -16,10 -25,12 -20,5 4,-7 59,-49 122,-94 126,-89 181,-144 219,-222 51,-105 54,-191 13,-406 -25,-136 -34,-395 -19,-565 28,-313 48,-373 141,-436 75,-51 123,-59 344,-60 185,0 209,-2 305,-27 58,-15 106,-33 109,-39 6,-19 -44,-16 -129,8 -60,17 -117,22 -304,29 -308,10 -373,32 -449,151 -59,94 -81,687 -35,981 28,178 -11,313 -114,403 -29,24 -121,89 -205,144 -203,133 -278,160 -492,182 -206,20 -320,-11 -434,-121 -109,-105 -156,-219 -156,-382 0,-112 29,-311 61,-413 62,-201 191,-370 410,-535 144,-110 202,-174 334,-371 62,-92 127,-177 158,-205 30,-28 102,-74 168,-108 106,-55 229,-131 229,-141 0,-3 -24,10 -52,29 -29,18 -113,64 -186,101 -76,39 -156,88 -184,114 -27,24 -93,106 -146,180 -133,189 -200,255 -370,368 -158,105 -209,151 -299,271 -104,137 -140,232 -175,452 -27,175 -29,353 -4,435 56,190 208,355 366,401 70,21 357,12 494,-16 z m -46,-103 c 81,-23 173,-70 217,-111 22,-20 80,-65 130,-99 183,-127 241,-204 251,-333 4,-41 -3,-147 -15,-259 -11,-104 -23,-242 -26,-305 -13,-237 -49,-456 -100,-610 -32,-97 -98,-119 -192,-65 -26,16 -122,103 -213,194 -118,119 -200,191 -285,252 -188,135 -335,302 -399,456 -57,136 -100,400 -84,518 23,174 139,317 303,372 54,18 339,11 413,-10 z M 2516,5491 c 40,-25 99,-145 164,-336 73,-214 97,-254 270,-461 87,-102 161,-211 186,-269 8,-19 12,-35 10,-35 -3,0 -36,42 -75,93 -38,50 -122,151 -187,222 -139,154 -163,191 -248,368 -35,75 -76,152 -92,172 -34,45 -101,85 -142,85 -47,0 -130,-35 -209,-87 -97,-66 -817,-778 -873,-864 -95,-147 -87,-270 21,-363 114,-98 336,-118 689,-64 144,22 420,29 473,12 20,-7 -16,-10 -120,-10 -105,-1 -184,-7 -272,-23 -69,-12 -127,-24 -131,-26 -3,-2 -75,-11 -161,-19 -305,-32 -485,17 -596,162 -65,86 -68,177 -7,302 33,67 54,92 212,245 97,94 311,305 477,471 416,418 513,485 611,425 z m -81,-270 c 57,-26 90,-69 153,-200 73,-153 99,-196 207,-331 138,-174 200,-273 193,-308 -2,-12 -14,-2 -38,33 -18,28 -68,90 -109,138 -166,194 -210,251 -272,355 -100,168 -149,212 -236,212 -46,-1 -132,-35 -193,-77 -69,-47 -367,-321 -441,-404 -284,-321 -339,-437 -246,-527 44,-43 104,-62 229,-72 117,-10 282,-1 473,25 145,20 371,24 400,7 17,-9 7,-11 -55,-12 -96,0 -311,-23 -465,-49 -240,-40 -459,-44 -565,-9 -145,47 -199,176 -130,312 46,90 148,200 580,622 203,198 275,255 363,285 66,23 102,23 152,0 z m -62,-215 c 48,-21 76,-55 192,-244 166,-269 199,-357 161,-430 -27,-52 -109,-99 -222,-127 -467,-117 -876,-125 -963,-21 -38,46 21,195 144,361 110,149 361,377 489,444 65,35 142,41 199,17 z m 2832,-857 c 71,-27 66,-34 -11,-14 -113,29 -302,12 -363,-32 -44,-34 -49,-65 -18,-128 15,-30 25,-55 23,-55 -12,0 -76,117 -76,138 0,78 76,109 277,111 91,1 123,-3 168,-20 z M 4121,3993 c 13,-16 12,-17 -3,-4 -17,13 -22,21 -14,21 2,0 10,-8 17,-17 z M 2365,3398 c -224,-34 -390,-120 -447,-231 -48,-95 13,-229 179,-388 78,-75 120,-107 182,-138 47,-25 153,-50 216,-52 22,-1 32,-3 22,-6 -9,-2 -15,-9 -12,-14 9,-14 -95,-11 -158,6 -82,21 -141,54 -232,128 -139,112 -353,358 -370,425 -8,34 29,71 125,126 180,104 336,155 470,154 l 85,-1 z m 33,-107 c 9,-5 -7,-10 -44,-14 -34,-3 -83,-19 -122,-38 -162,-80 -163,-249 -2,-403 68,-65 128,-95 205,-103 80,-8 57,-27 -26,-21 -96,7 -161,42 -243,128 -71,76 -112,145 -122,209 -16,103 92,212 241,244 36,8 100,7 113,-2 z m 2032,-456 c -28,-133 -121,-183 -255,-137 -52,18 -164,88 -225,141 -19,17 6,4 55,-28 108,-71 190,-101 259,-95 101,8 148,66 163,202 8,76 8,76 11,24 2,-30 -2,-78 -8,-107 z m 2274,113 c 8,-13 17,-45 20,-73 l 6,-50 -14,50 c -8,28 -25,59 -41,72 -24,21 -24,23 -6,23 11,0 27,-10 35,-22 z m -2127,-85 c -3,-10 -5,-4 -5,12 0,17 2,24 5,18 2,-7 2,-21 0,-30 z m 110,-15 c -3,-8 -6,-5 -6,6 -1,11 2,17 5,13 3,-3 4,-12 1,-19 z m 100,-20 c -3,-8 -6,-5 -6,6 -1,11 2,17 5,13 3,-3 4,-12 1,-19 z m -174,-253 c 1,-107 -2,-129 -27,-205 -40,-121 -88,-202 -165,-280 -96,-97 -175,-152 -227,-158 -37,-4 -46,-1 -68,23 -36,38 -56,112 -62,225 -2,52 -6,131 -9,175 -7,144 -59,251 -190,395 l -69,75 68,-65 c 141,-136 208,-252 251,-433 38,-162 55,-187 131,-187 115,0 262,155 324,340 20,58 22,80 18,215 l -5,150 15,-75 c 7,-41 14,-129 15,-195 z m 122,110 c 49,-191 53,-266 21,-429 -29,-148 -53,-205 -163,-385 -202,-331 -236,-362 -381,-348 -73,7 -219,50 -302,88 -127,59 -142,94 -106,245 33,137 43,196 62,369 9,86 13,176 9,212 -9,86 -61,189 -132,265 -32,34 -48,56 -36,50 37,-20 113,-115 148,-187 56,-113 58,-151 34,-545 -9,-135 -8,-185 1,-220 23,-85 114,-144 263,-170 132,-23 171,6 358,265 167,232 178,253 219,425 28,121 26,218 -10,374 -32,137 -33,142 -26,135 3,-2 21,-67 41,-144 z m 110,-12 c 37,-109 69,-263 68,-323 -3,-154 -28,-299 -69,-408 -29,-78 -100,-216 -129,-251 -12,-14 -53,-71 -91,-126 -168,-244 -239,-269 -524,-186 -245,71 -427,88 -604,56 -186,-33 -276,-114 -512,-460 -171,-250 -256,-328 -373,-342 -65,-7 -103,14 -125,68 -13,33 -20,99 -27,288 -6,135 -8,269 -4,296 17,146 82,325 145,405 19,25 56,52 98,72 66,33 67,33 217,33 125,0 173,-5 290,-29 215,-44 281,-30 383,78 94,99 134,221 148,446 5,91 3,128 -10,180 -18,70 -70,155 -120,196 -17,14 -22,21 -10,15 45,-22 119,-116 142,-182 19,-54 22,-84 22,-199 0,-140 -17,-274 -44,-348 -8,-24 -45,-99 -81,-168 -36,-69 -65,-133 -65,-142 1,-48 63,-79 241,-121 68,-16 198,-48 288,-71 226,-58 284,-50 384,54 64,67 211,287 274,411 140,277 158,525 59,814 -14,41 -26,77 -26,79 0,18 16,-22 55,-135 z m 169,111 c 3,-8 2,-12 -4,-9 -6,3 -10,10 -10,16 0,14 7,11 14,-7 z m 67,-109 c 64,-99 169,-229 169,-210 0,4 9,0 19,-9 29,-26 92,-31 135,-11 20,9 61,44 91,77 42,45 52,53 44,31 -5,-15 -15,-33 -20,-39 -5,-7 -12,-22 -14,-34 -6,-30 -97,-132 -138,-155 -71,-38 -105,-8 -207,179 -38,72 -87,160 -107,196 -47,84 -38,75 28,-25 z m 198,5 c 14,-7 36,-17 50,-21 22,-8 21,-8 -8,-4 -37,6 -141,78 -141,97 0,7 17,-4 38,-24 20,-20 48,-41 61,-48 z m -2691,-87 c -10,-2 -26,-2 -35,0 -10,3 -2,5 17,5 19,0 27,-2 18,-5 z m 1816,-194 c -9,-15 -85,-49 -109,-48 -11,0 -1,6 21,13 23,7 52,21 65,30 28,19 33,20 23,5 z m -284,-481 23,-33 -26,24 c -15,14 -27,28 -27,33 0,14 5,9 30,-24 z"
       id="path10" />
    <path
       d="m 3551,6079 c -53,-17 -76,-32 -126,-82 -125,-125 -144,-283 -70,-580 55,-218 200,-418 425,-587 47,-35 150,-127 230,-205 165,-160 201,-186 262,-187 36,0 46,4 70,33 48,58 99,224 122,404 13,97 40,521 41,625 0,104 -3,120 -26,170 -32,67 -71,108 -169,173 -41,28 -110,77 -153,109 -100,74 -188,115 -283,133 -109,21 -244,18 -323,-6 z m 379,-35 c 41,-13 87,-34 102,-46 62,-52 188,-151 267,-210 145,-109 168,-176 151,-438 -37,-545 -148,-743 -358,-637 -80,41 -335,221 -408,290 -164,153 -256,305 -299,493 -59,263 -39,383 80,493 52,48 98,70 170,82 77,12 211,0 295,-27 z"
       id="path12" />
    <path
       d="m 3583,5951 c -121,-62 -164,-167 -142,-351 28,-239 115,-409 300,-586 138,-132 353,-264 429,-264 145,0 232,233 234,620 l 1,165 -34,69 c -28,57 -44,76 -98,115 -36,25 -111,80 -168,122 -152,112 -203,132 -345,137 -112,4 -116,3 -177,-27 z m 298,-23 c 35,-10 98,-53 283,-195 174,-133 192,-173 183,-407 -6,-155 -21,-234 -59,-311 -77,-154 -195,-164 -394,-34 -175,115 -329,309 -377,479 -35,123 -40,268 -11,345 23,63 94,118 175,135 49,10 145,4 200,-12 z"
       id="path14" />
    <path
       d="m 3689,5803 c -82,-42 -104,-88 -103,-218 0,-120 17,-184 75,-280 93,-155 193,-255 318,-317 162,-79 260,-22 307,179 18,78 14,263 -7,326 -20,60 -76,115 -214,211 -188,131 -270,152 -376,99 z m 206,-75 c 64,-32 228,-153 265,-194 51,-59 63,-97 63,-205 0,-81 -4,-104 -26,-152 -31,-69 -71,-97 -139,-97 -153,0 -381,250 -404,442 -22,188 88,282 241,206 z"
       id="path16" />
    <path
       d="m 3843,5550 c -124,-50 42,-360 193,-360 34,0 47,5 67,29 70,84 23,232 -92,291 -28,14 -142,53 -145,49 -1,0 -11,-4 -23,-9 z"
       id="path18" />
    <path
       d="m 2169,4891 c -59,-23 -126,-68 -218,-148 -158,-137 -240,-266 -248,-390 -5,-63 -3,-71 21,-99 69,-83 235,-104 486,-60 162,28 294,65 357,102 101,59 98,159 -12,341 -151,250 -243,310 -386,254 z m 143,-110 c 51,-32 77,-65 113,-143 29,-61 34,-152 11,-196 -38,-72 -130,-126 -277,-163 -103,-26 -218,-23 -270,7 -118,69 -100,221 43,364 150,150 279,195 380,131 z"
       id="path20" />
    <path
       d="m 2094,4671 c -22,-10 -57,-33 -76,-50 -39,-34 -88,-121 -88,-155 0,-36 39,-86 78,-103 77,-32 251,12 307,79 52,62 37,160 -33,218 -31,25 -45,30 -92,30 -32,0 -72,-8 -96,-19 z"
       id="path22" />
    <path
       d="m 2803,1706 c -131,-43 -218,-154 -265,-339 -24,-94 -21,-158 12,-288 38,-147 87,-219 150,-219 80,0 164,81 343,329 61,85 141,191 178,235 38,45 76,96 85,115 15,31 15,35 -3,60 -22,31 -108,76 -184,97 -78,21 -264,28 -316,10 z m 245,-102 c 96,-40 107,-99 42,-233 -96,-198 -255,-392 -334,-406 -51,-10 -82,8 -117,70 -91,158 -77,341 37,473 89,105 251,147 372,96 z"
       id="path24" />
    <path
       d="m 2810,1464 c -80,-35 -125,-108 -118,-191 6,-67 32,-97 82,-97 94,0 201,180 156,264 -5,10 -24,23 -41,29 -39,13 -36,14 -79,-5 z"
       id="path26" />
    <path
       d="m 6846,6543 c 9,-38 14,-42 14,-10 0,14 -5,29 -10,32 -7,4 -8,-3 -4,-22 z"
       id="path28" />
    <path
       d="m 2545,6509 c -131,-106 -259,-248 -380,-424 -115,-166 -186,-228 -462,-404 -99,-64 -156,-117 -255,-241 -94,-118 -123,-145 -270,-254 C 1043,5086 983,5023 916,4908 783,4680 690,4571 609,4550 c -53,-15 -82,-5 -139,47 -28,25 -50,40 -50,35 0,-22 81,-128 110,-146 44,-26 96,-17 165,29 84,56 159,156 285,380 45,81 133,166 260,252 108,74 199,160 288,273 71,91 118,134 264,239 187,135 274,225 406,422 128,193 207,290 300,373 81,70 108,96 102,96 -3,-1 -27,-19 -55,-41 z"
       id="path30" />
    <path
       d="m 2285,6418 c -48,-45 -132,-135 -186,-199 -125,-148 -169,-187 -349,-300 -162,-102 -174,-111 -351,-259 -69,-58 -186,-145 -260,-195 C 1038,5397 969,5339 855,5229 685,5063 657,5045 592,5054 l -44,6 19,-33 c 16,-27 26,-32 63,-35 l 43,-3 171,173 c 132,133 197,191 286,252 124,85 227,166 330,260 89,81 161,132 313,223 146,88 236,169 337,303 35,46 111,133 168,192 58,59 102,108 100,108 -3,0 -44,-37 -93,-82 z"
       id="path32" />
    <path
       d="m 4860,6485 c 0,-30 63,-111 166,-212 141,-138 206,-190 341,-269 235,-138 257,-209 153,-484 -49,-129 -51,-217 -10,-390 25,-104 31,-149 27,-197 -5,-72 -40,-139 -87,-173 -104,-74 -356,-103 -455,-52 -61,30 -123,104 -165,195 -49,105 -70,203 -70,319 0,107 15,178 69,333 52,147 56,181 36,252 -27,94 -154,312 -235,403 -34,38 -31,27 10,-35 42,-64 45,-73 9,-30 -69,82 -108,121 -141,139 -38,23 -39,23 37,-69 135,-163 211,-288 241,-389 22,-79 15,-157 -31,-316 -67,-236 -70,-437 -9,-645 56,-193 122,-290 216,-316 89,-24 405,18 505,67 57,27 101,73 135,137 16,31 23,65 26,132 3,78 -1,108 -32,232 -51,201 -50,255 10,432 47,139 62,230 50,296 -12,60 -73,111 -235,195 -187,96 -378,244 -514,398 -26,29 -47,50 -47,47 z"
       id="path34" />
    <path
       d="m 2030,6314 c -112,-113 -217,-199 -390,-319 -47,-32 -132,-95 -190,-140 -208,-161 -390,-265 -520,-296 -37,-9 -47,-15 -32,-17 89,-14 339,121 587,318 39,30 135,100 214,155 79,55 173,128 210,161 62,57 247,254 239,254 -2,0 -55,-52 -118,-116 z"
       id="path36" />
    <path
       d="m 1864,6308 -19,-23 23,19 c 12,11 22,21 22,23 0,8 -8,2 -26,-19 z"
       id="path38" />
    <path
       d="m 1825,6280 c -4,-6 -62,-52 -128,-102 -67,-50 -169,-128 -227,-173 -111,-87 -244,-177 -326,-220 -27,-14 -38,-23 -24,-20 36,9 182,98 270,165 73,54 367,282 425,328 15,12 26,25 23,28 -4,3 -9,0 -13,-6 z"
       id="path40" />
    <path
       d="m 7501,6095 c -1,-99 20,-204 53,-260 31,-52 86,-98 231,-195 60,-41 162,-111 225,-157 63,-46 97,-68 75,-48 -22,20 -126,101 -232,181 -193,146 -249,198 -284,266 -21,42 -47,142 -59,233 l -7,60 z"
       id="path42" />
    <path
       d="m 7690,6001 c 0,-6 4,-13 10,-16 6,-3 7,1 4,9 -7,18 -14,21 -14,7 z"
       id="path44" />
    <path
       d="m 7726,5938 c 18,-34 184,-211 192,-204 2,3 -25,32 -61,65 -35,34 -82,86 -102,116 -43,62 -53,70 -29,23 z"
       id="path46" />
    <path
       d="m 10055,5941 c -11,-18 -323,-250 -366,-273 -78,-40 -138,-23 -237,66 -50,45 -53,47 -32,16 14,-19 52,-62 85,-96 97,-99 128,-96 258,23 40,37 125,111 190,166 64,55 117,101 117,103 0,7 -9,4 -15,-5 z"
       id="path48" />
    <path
       d="m 10158,5873 c -43,-42 -100,-108 -125,-145 -40,-58 -47,-77 -51,-128 -3,-35 1,-72 8,-90 31,-75 202,-178 366,-220 136,-35 373,-22 464,25 46,24 70,70 70,135 0,73 -19,130 -92,282 -63,131 -88,166 -45,62 85,-204 108,-325 72,-394 -31,-60 -159,-100 -319,-100 -82,0 -112,5 -185,29 -146,49 -263,132 -291,207 -34,90 7,188 134,321 48,51 85,93 81,93 -4,0 -43,-35 -87,-77 z"
       id="path50" />
    <path
       d="m 5067,5882 c -10,-10 -28,-57 -41,-103 -26,-97 -43,-131 -102,-215 -88,-124 -125,-243 -120,-384 6,-144 72,-300 158,-376 59,-52 114,-68 216,-61 139,8 229,53 273,137 22,43 14,145 -21,255 -58,186 -61,242 -19,465 16,88 7,132 -41,184 -78,84 -262,144 -303,98 z m 157,-281 c 11,-12 20,-50 27,-112 6,-52 24,-155 40,-229 48,-215 39,-287 -39,-333 -40,-23 -142,-25 -194,-4 -55,23 -111,80 -143,144 -23,47 -29,75 -33,148 -7,155 39,238 190,338 113,74 125,78 152,48 z"
       id="path52" />
    <path
       d="m 5031,5347 c -89,-44 -83,-221 9,-287 56,-40 133,-26 146,26 21,81 -29,230 -88,260 -33,17 -36,17 -67,1 z"
       id="path54" />
    <path
       d="m 10355,5823 c -66,-34 -122,-105 -139,-176 -11,-47 10,-101 58,-145 55,-51 104,-72 168,-72 174,0 220,176 91,348 -45,60 -116,78 -178,45 z m 138,-50 c 43,-41 67,-99 67,-166 0,-54 -3,-62 -33,-92 -65,-65 -163,-53 -233,28 -34,39 -35,45 -32,99 9,132 146,210 231,131 z"
       id="path56" />
    <path
       d="m 11014,5693 c 58,-169 77,-377 43,-455 -18,-42 -63,-74 -116,-83 -42,-7 -438,20 -526,36 -92,17 -422,95 -500,120 -38,12 -114,43 -167,70 -54,27 -108,49 -120,49 -13,0 -41,-12 -63,-27 -58,-39 -411,-345 -590,-512 -167,-155 -180,-159 -324,-76 -94,53 -168,85 -199,85 -8,0 13,-14 48,-31 115,-58 230,-198 230,-282 0,-70 -70,-168 -164,-228 -86,-56 -196,-88 -328,-96 -124,-7 -146,-23 -30,-23 115,0 242,24 377,71 150,53 172,51 243,-24 65,-66 173,-201 253,-314 34,-48 115,-151 179,-228 295,-352 336,-453 365,-890 18,-260 56,-440 136,-632 58,-137 69,-179 69,-253 -1,-117 -65,-217 -178,-272 l -67,-33 h -310 c -339,1 -392,8 -484,62 -145,85 -261,281 -383,648 -61,183 -101,270 -167,360 -54,74 -161,199 -180,209 -9,5 -2,-7 15,-26 54,-62 173,-234 214,-310 21,-40 67,-149 100,-243 64,-175 172,-406 231,-492 78,-113 196,-190 334,-217 39,-8 165,-17 280,-21 116,-3 217,-8 225,-11 9,-2 48,0 89,5 230,29 369,223 317,445 -9,37 -32,104 -51,147 -19,43 -33,84 -31,91 1,7 1,9 -2,4 -8,-16 -33,56 -26,77 4,14 3,17 -7,12 -9,-6 -11,-3 -6,9 8,21 -2,68 -13,61 -4,-2 -5,7 -2,22 3,17 1,24 -6,19 -6,-3 -8,1 -6,11 3,10 -2,59 -11,108 -11,59 -19,190 -25,380 -9,305 -13,333 -62,414 -35,57 -116,156 -239,291 -375,410 -518,614 -558,792 -14,60 -2,99 60,195 93,142 479,503 639,597 89,53 116,54 245,12 144,-46 187,-56 455,-111 132,-27 303,-53 415,-65 104,-11 212,-24 240,-29 66,-12 155,-8 182,9 12,8 29,31 39,52 36,80 1,349 -67,518 -34,83 -43,84 -15,3 z"
       id="path58" />
    <path
       d="m 9246,5685 c 4,-11 9,-56 11,-100 4,-66 1,-90 -17,-138 -28,-74 -119,-194 -224,-295 -142,-136 -217,-160 -385,-123 -52,11 -96,20 -97,18 -2,-2 36,-16 84,-33 105,-35 206,-39 263,-11 105,52 316,273 376,394 33,68 35,77 31,145 -3,46 -13,90 -27,118 -11,25 -18,36 -15,25 z"
       id="path60" />
    <path
       d="m 6860,5633 c -19,-2 -60,-8 -90,-14 -30,-6 -152,-14 -270,-18 -192,-7 -221,-10 -267,-31 -59,-25 -124,-89 -149,-147 -23,-53 -21,-182 5,-311 12,-57 24,-163 27,-235 10,-237 50,-453 93,-500 56,-62 91,-71 266,-75 187,-5 270,7 342,48 79,45 106,115 158,400 21,116 54,222 110,360 59,145 78,220 79,320 0,67 -4,94 -20,125 -34,66 -62,80 -162,81 -48,1 -103,0 -122,-3 z m 147,-91 c 49,-26 71,-58 86,-127 14,-71 -4,-157 -73,-335 -29,-74 -74,-219 -100,-321 -64,-246 -88,-292 -181,-339 -78,-41 -277,-37 -360,6 -71,36 -115,104 -153,237 -27,93 -31,114 -46,264 -5,56 -19,155 -31,220 -52,287 27,392 295,394 61,0 170,7 241,14 168,18 269,13 322,-13 z"
       id="path62" />
    <path
       d="m 6370,5421 c -78,-25 -120,-69 -135,-139 -4,-18 -2,-131 5,-250 13,-233 32,-347 76,-442 51,-111 107,-145 239,-145 77,0 98,4 140,25 95,49 123,115 215,505 73,309 66,371 -48,427 -44,22 -59,23 -257,25 -115,1 -221,-1 -235,-6 z m 423,-106 c 25,-13 44,-33 58,-63 29,-58 22,-137 -26,-327 -61,-241 -119,-331 -219,-342 -58,-7 -105,10 -159,57 -87,77 -133,246 -125,466 7,202 54,236 318,230 89,-2 124,-6 153,-21 z"
       id="path64" />
    <path
       d="m 6530,5112 c -52,-26 -80,-88 -80,-180 0,-116 51,-192 130,-192 48,0 82,33 111,109 69,184 -22,333 -161,263 z"
       id="path66" />
    <path
       d="m 11220,5614 c 0,-36 38,-216 60,-279 23,-67 61,-127 95,-149 53,-35 150,-58 265,-63 82,-3 111,-2 100,6 -8,6 -22,8 -31,6 -28,-9 -192,25 -252,52 -108,49 -151,118 -208,338 -15,61 -28,100 -29,89 z"
       id="path68" />
    <path
       d="m 9060,5568 c 0,-31 -90,-194 -135,-246 -59,-66 -111,-96 -200,-116 l -70,-16 72,4 c 86,4 138,31 205,105 68,75 155,257 134,279 -3,3 -6,-2 -6,-10 z"
       id="path70" />
    <path
       d="m 11470,5434 c 0,-18 71,-94 104,-110 30,-16 30,-15 -6,15 -21,18 -51,48 -68,69 -16,20 -30,32 -30,26 z"
       id="path72" />
    <path
       d="m 7470,5278 c -89,-43 -220,-207 -276,-347 -47,-116 -66,-226 -62,-351 5,-157 19,-183 180,-328 153,-140 202,-166 307,-165 42,0 137,12 211,27 92,19 194,30 320,37 102,5 235,17 295,26 61,9 153,19 205,23 86,5 91,7 55,15 -26,5 -78,4 -145,-4 -58,-7 -233,-17 -390,-22 -157,-5 -339,-12 -406,-15 -195,-10 -261,18 -431,182 -124,120 -138,152 -137,304 0,77 6,136 18,180 44,163 155,320 265,377 110,58 192,45 493,-77 171,-69 288,-105 311,-97 7,2 -19,14 -58,27 -38,12 -128,49 -200,82 -147,68 -259,114 -325,134 -69,21 -176,17 -230,-8 z"
       id="path74" />
    <path
       d="m 9608,5179 c -173,-41 -462,-298 -554,-494 -67,-141 -65,-266 7,-415 39,-80 54,-97 268,-310 239,-239 289,-280 379,-313 72,-26 257,-28 377,-5 77,16 241,33 200,21 -163,-45 -362,-137 -390,-179 -26,-40 -21,-115 10,-172 64,-118 198,-248 318,-309 38,-19 71,-33 73,-31 2,2 -25,21 -59,41 -110,64 -226,174 -254,238 -7,17 18,-3 70,-56 96,-96 166,-138 334,-199 65,-23 132,-50 150,-59 100,-52 147,-207 157,-512 5,-176 24,-260 91,-409 62,-138 101,-202 165,-267 44,-45 65,-58 106,-68 55,-13 78,-9 307,53 53,15 159,35 235,45 75,10 119,19 97,20 -54,1 -281,-26 -325,-39 -83,-25 -235,-50 -269,-44 -95,16 -166,88 -248,251 -101,197 -114,269 -110,618 3,250 13,335 37,335 5,0 7,-8 4,-17 -4,-10 4,-2 16,17 12,19 32,43 43,52 46,37 204,73 542,123 332,50 388,68 465,151 80,87 89,148 66,414 -32,347 -49,390 -224,562 -147,143 -177,194 -176,303 0,81 22,139 75,200 40,46 189,145 265,176 30,12 53,23 51,25 -7,7 -119,-36 -212,-81 -175,-86 -239,-171 -239,-315 -1,-135 48,-222 199,-359 93,-84 144,-154 169,-233 31,-101 56,-261 63,-405 6,-140 6,-143 -21,-197 -66,-134 -180,-173 -557,-191 -249,-12 -296,8 -374,154 -91,170 -156,220 -321,247 -112,18 -311,18 -386,0 -68,-16 -79,-2 -13,16 27,7 40,15 33,19 -35,22 128,49 297,49 191,0 294,-24 367,-85 44,-37 103,-111 129,-162 44,-85 115,-130 222,-139 92,-9 284,11 349,36 65,24 129,86 148,145 15,45 8,162 -15,249 -24,90 -98,224 -176,317 -167,201 -230,341 -245,550 -10,129 1,207 39,271 27,45 43,58 102,88 39,19 136,53 218,74 81,22 145,41 143,43 -3,3 -206,-30 -346,-57 -30,-5 -80,-23 -110,-38 -43,-21 -60,-37 -78,-72 -23,-43 -23,-51 -18,-215 5,-182 18,-254 68,-400 47,-138 81,-197 169,-293 150,-161 203,-270 204,-417 0,-67 -4,-86 -23,-118 -47,-74 -169,-115 -307,-103 -145,14 -203,49 -286,174 -28,42 -65,92 -83,110 -74,79 -205,112 -448,112 -133,0 -402,-21 -468,-36 -14,-3 -21,-2 -17,3 8,7 103,30 285,68 168,34 731,41 809,9 25,-10 34,-21 43,-56 35,-140 100,-208 198,-208 103,0 132,122 51,215 -19,21 -65,51 -114,75 -59,27 -86,46 -91,62 -4,13 -8,93 -10,178 -1,90 -9,191 -19,240 -9,47 -25,137 -36,200 -33,194 -58,285 -99,353 -69,114 -199,195 -385,238 -100,23 -475,82 -655,104 -74,9 -184,23 -243,31 -119,16 -154,16 -209,3 z m 382,-53 c 260,-27 676,-95 760,-124 167,-58 270,-141 330,-266 44,-92 68,-194 100,-432 22,-153 22,-164 6,-240 -26,-132 -86,-192 -220,-220 -34,-7 -153,-18 -266,-24 -165,-9 -237,-18 -375,-46 -307,-63 -401,-67 -536,-20 -110,38 -262,143 -550,380 -76,62 -142,155 -164,229 -21,72 -19,182 5,261 56,180 324,455 498,511 56,18 182,15 412,-9 z m 213,-1662 c -5,-14 -3,-15 15,-5 13,7 22,8 22,2 0,-5 -5,-11 -12,-13 -6,-2 -13,-24 -15,-48 -2,-24 -5,-45 -7,-48 -3,-2 8,-25 23,-50 37,-64 98,-108 184,-133 125,-36 126,-37 37,-34 -81,3 -178,22 -217,43 -24,13 -64,58 -97,107 -40,60 -36,107 13,156 40,40 65,51 54,23 z m 425,-73 c 59,-27 102,-71 102,-106 0,-13 -11,-37 -24,-52 -24,-28 -26,-28 -138,-28 -137,1 -202,20 -248,71 -46,53 -38,95 25,129 46,25 213,16 283,-14 z"
       id="path76" />
    <path
       d="m 9588,5027 c -128,-55 -225,-140 -316,-280 -116,-178 -126,-351 -28,-475 33,-41 252,-225 424,-355 87,-66 197,-123 257,-132 60,-10 275,11 406,39 63,13 179,31 259,40 180,19 287,39 344,64 63,28 120,84 147,145 33,73 31,232 -4,404 -37,182 -88,273 -202,360 -95,72 -168,101 -364,140 -265,52 -364,63 -626,69 -237,5 -241,5 -297,-19 z m 564,-17 c 53,-5 188,-28 300,-50 236,-47 327,-84 420,-169 100,-91 146,-185 173,-356 53,-325 -28,-455 -310,-500 -127,-20 -303,-50 -475,-81 -278,-49 -376,-25 -598,144 -220,168 -312,244 -356,293 -102,113 -100,263 4,439 77,130 188,229 300,270 48,17 81,19 250,19 107,0 239,-4 292,-9 z"
       id="path78" />
    <path
       d="m 9725,4933 c -136,-31 -219,-86 -289,-191 -90,-136 -108,-254 -55,-360 55,-110 357,-383 499,-451 71,-34 82,-36 192,-39 102,-4 139,0 295,31 98,19 221,43 273,52 172,31 256,76 307,162 27,46 28,53 28,178 0,194 -41,304 -150,409 -71,67 -148,103 -317,146 -250,64 -289,69 -538,68 -124,0 -234,-2 -245,-5 z m 551,-39 c 121,-24 322,-83 391,-114 72,-33 162,-114 201,-179 65,-110 83,-310 38,-406 -57,-120 -128,-148 -626,-246 -147,-29 -282,-24 -364,14 -92,43 -180,111 -316,246 -181,180 -212,245 -184,378 34,162 162,285 325,312 97,16 448,13 535,-5 z"
       id="path80" />
    <path
       d="m 9880,4824 c -147,-18 -203,-37 -258,-87 -87,-81 -119,-203 -78,-300 28,-67 119,-190 207,-278 185,-186 328,-213 663,-125 291,77 356,108 397,188 27,53 35,149 19,219 -38,161 -132,238 -399,329 -205,70 -323,81 -551,54 z m 363,-38 c 127,-25 343,-122 423,-190 87,-74 127,-213 90,-311 -32,-81 -96,-122 -301,-188 -346,-111 -495,-90 -676,99 -227,237 -250,446 -59,541 113,56 363,79 523,49 z"
       id="path82" />
    <path
       d="m 9930,4689 c -79,-20 -140,-56 -174,-102 -17,-23 -21,-43 -20,-96 1,-132 99,-283 227,-352 54,-29 73,-34 152,-37 109,-5 185,12 303,69 171,82 222,189 146,305 -61,91 -229,198 -352,223 -79,16 -198,12 -282,-10 z m 342,-67 c 189,-91 246,-263 123,-371 -64,-56 -138,-83 -236,-89 -113,-6 -171,13 -243,78 -74,68 -110,149 -104,236 3,54 8,68 33,95 63,65 140,90 270,85 77,-3 101,-8 157,-34 z"
       id="path84" />
    <path
       d="m 10023,4490 c -63,-38 -68,-103 -11,-159 78,-76 218,-40 218,57 0,94 -122,154 -207,102 z"
       id="path86" />
    <path
       d="m 7553,5120 c -59,-12 -99,-35 -147,-85 -116,-119 -168,-330 -115,-471 15,-40 39,-74 83,-118 112,-114 202,-160 339,-172 99,-8 516,12 610,30 162,31 270,113 292,221 5,25 2,23 -19,-15 -47,-87 -134,-146 -251,-170 -72,-15 -538,-15 -618,0 -122,23 -190,60 -290,157 -64,62 -89,113 -95,194 -11,151 58,291 173,352 31,17 57,22 120,22 95,0 157,-18 401,-115 156,-62 215,-80 357,-108 77,-15 42,3 -73,39 -58,17 -175,62 -260,99 -309,133 -406,160 -507,140 z"
       id="path88" />
    <path
       d="m 7603,4910 c -92,-21 -148,-120 -128,-226 14,-79 163,-185 306,-219 89,-21 300,-20 385,1 118,30 163,82 131,150 -33,69 -218,171 -447,247 -147,49 -198,59 -247,47 z m 419,-189 c 32,-12 78,-41 104,-65 40,-36 46,-46 41,-68 -10,-37 -69,-58 -161,-58 -102,0 -170,24 -228,80 -64,61 -63,107 2,134 32,13 185,-2 242,-23 z"
       id="path90" />
    <path
       d="m 11916,4799 c -69,-36 -145,-109 -177,-170 -16,-31 -23,-61 -24,-105 0,-74 18,-104 129,-218 87,-88 132,-153 167,-241 24,-63 26,-105 33,-700 1,-116 -18,-180 -65,-219 -63,-53 -242,-99 -434,-111 -201,-12 -439,-74 -557,-144 -67,-41 -119,-104 -138,-169 -17,-58 -24,-346 -11,-430 25,-162 119,-327 224,-397 70,-47 140,-58 272,-45 335,33 372,39 437,69 75,36 136,86 161,132 16,31 16,32 0,9 -33,-47 -90,-96 -139,-120 -86,-40 -358,-70 -543,-59 -82,5 -106,10 -144,32 -99,58 -182,184 -213,324 -21,96 -15,337 11,423 22,72 112,163 206,208 120,57 266,100 384,112 207,22 524,95 558,129 25,24 24,-20 15,611 -4,272 -6,300 -26,353 -31,85 -72,151 -153,247 -75,89 -119,167 -119,211 0,88 73,199 177,268 59,39 45,39 -31,0 z"
       id="path92" />
    <path
       d="m 8355,4674 c 64,-84 42,-175 -54,-224 -20,-10 -54,-21 -74,-25 -58,-11 -59,-29 -1,-21 71,10 115,25 152,53 82,62 83,168 2,231 -50,38 -60,32 -25,-14 z"
       id="path94" />
    <path
       d="m 12072,4656 c -33,-17 -62,-66 -62,-102 0,-40 25,-111 88,-249 28,-61 61,-144 73,-185 26,-81 27,-108 18,-460 -4,-151 -2,-171 19,-238 27,-87 72,-141 140,-170 78,-33 112,-34 42,-2 -78,37 -105,61 -135,120 -51,100 -59,198 -40,492 10,159 2,199 -82,433 -77,214 -85,265 -53,324 27,46 25,55 -8,37 z"
       id="path96" />
    <path
       d="m 12376,4194 c -3,-9 -6,-50 -6,-92 0,-42 -5,-106 -10,-142 -44,-298 -31,-417 56,-518 20,-23 45,-47 57,-53 13,-7 5,6 -20,32 -96,100 -120,225 -90,471 14,113 28,318 21,318 -1,0 -5,-7 -8,-16 z"
       id="path98" />
    <path
       d="m 8520,4150 c -25,-4 -135,-13 -245,-20 -110,-6 -204,-13 -210,-16 -5,-2 122,-2 284,0 311,4 358,-1 438,-42 67,-35 109,-77 200,-204 47,-64 128,-164 180,-220 126,-137 183,-214 236,-323 85,-171 113,-296 132,-590 9,-146 45,-442 67,-550 38,-195 34,-247 -24,-304 -53,-52 -111,-63 -346,-64 -223,-1 -294,8 -372,48 -50,26 -125,100 -162,160 -43,70 -97,217 -132,366 -70,291 -101,346 -306,549 -81,80 -169,161 -196,180 -30,21 11,-24 105,-115 254,-247 295,-315 367,-600 62,-248 131,-401 225,-497 104,-106 183,-126 529,-130 221,-3 249,-1 288,16 57,25 108,86 122,147 14,56 10,89 -26,208 -48,157 -78,352 -99,641 -8,107 -17,204 -19,215 -2,11 -7,40 -11,65 -13,79 -56,203 -101,290 -54,105 -114,184 -240,320 -53,58 -134,155 -179,215 -147,198 -233,257 -380,261 -44,2 -100,-1 -125,-6 z"
       id="path100" />
    <path
       d="m 7980,4045 c -41,-7 -100,-22 -130,-33 -105,-37 -368,-164 -390,-187 -51,-54 2,-210 111,-329 59,-64 104,-96 284,-201 140,-82 201,-128 353,-268 255,-233 310,-320 382,-605 40,-156 77,-264 106,-312 10,-16 13,-18 8,-5 -4,11 -20,55 -35,98 -16,42 -44,142 -63,222 -67,275 -119,369 -316,564 -160,158 -288,269 -420,362 -237,167 -295,278 -216,413 58,99 233,212 371,240 39,8 187,20 331,27 253,12 321,9 388,-17 13,-5 17,-4 13,4 -4,6 -38,18 -77,26 -89,21 -584,21 -700,1 z"
       id="path102" />
    <path
       d="m 8270,3998 c -265,-14 -252,-25 25,-20 405,7 465,-15 623,-223 25,-33 102,-118 171,-190 173,-178 241,-285 301,-473 41,-126 48,-185 55,-492 9,-354 -9,-447 -103,-532 -54,-48 -101,-63 -202,-62 -75,0 -95,4 -154,32 -154,72 -217,159 -297,404 -89,276 -129,350 -278,501 -100,102 -373,349 -394,356 -7,2 17,-23 53,-55 116,-105 315,-298 362,-351 105,-118 156,-217 229,-448 28,-88 67,-191 87,-228 42,-82 128,-171 199,-210 103,-55 255,-71 361,-38 125,38 155,83 179,259 10,79 13,151 9,222 -3,58 -10,191 -16,295 -10,205 -24,288 -66,405 -64,179 -126,272 -299,450 -72,74 -150,160 -172,191 -59,80 -129,146 -183,174 -88,45 -177,51 -490,33 z"
       id="path104" />
    <path
       d="m 8240,3930 c -192,-11 -276,-35 -359,-106 -94,-81 -119,-179 -68,-266 15,-25 79,-95 144,-154 503,-467 527,-490 592,-584 59,-84 97,-166 151,-325 27,-80 54,-153 60,-163 7,-11 9,-11 6,-2 -2,8 -23,74 -46,145 -99,307 -136,362 -480,710 -146,149 -283,295 -303,325 -72,109 -66,202 18,279 79,72 147,93 386,116 201,20 322,4 409,-52 21,-14 23,-14 12,-1 -25,31 -127,67 -218,78 -95,11 -99,11 -304,0 z"
       id="path106" />
    <path
       d="m 8296,3874 c -148,-20 -225,-46 -277,-95 -38,-35 -39,-37 -9,-16 87,61 181,85 360,94 211,10 315,-28 427,-155 38,-42 133,-142 213,-222 155,-154 197,-210 260,-342 73,-154 88,-265 71,-548 -11,-197 -23,-246 -78,-309 -48,-57 -86,-74 -158,-74 -133,0 -216,81 -310,304 -66,157 -108,241 -171,334 -66,98 -122,159 -288,311 -135,124 -286,287 -337,363 -16,25 -29,40 -29,34 0,-32 148,-204 355,-413 128,-129 250,-262 272,-295 55,-82 107,-187 165,-335 58,-146 86,-197 142,-258 112,-122 302,-136 393,-28 61,73 75,124 85,320 17,326 -4,471 -93,649 -64,127 -91,161 -253,322 -83,83 -182,185 -221,226 -126,137 -254,170 -519,133 z"
       id="path108" />
    <path
       d="m 8287,3805 c -178,-36 -247,-88 -247,-189 0,-105 68,-198 345,-471 235,-232 283,-295 380,-498 30,-62 54,-107 54,-102 1,19 -128,274 -175,347 -29,45 -117,144 -228,258 -191,194 -228,240 -276,342 -63,132 -26,211 125,268 50,20 80,24 180,24 147,1 194,-13 285,-86 l 65,-51 -44,45 c -105,110 -272,151 -464,113 z"
       id="path110" />
    <path
       d="m 8337,3750 c -103,-26 -167,-84 -175,-159 -9,-100 91,-250 278,-416 156,-138 226,-230 370,-490 154,-276 193,-320 286,-320 45,0 57,4 84,30 46,43 56,68 80,191 31,159 30,314 -3,417 -49,150 -118,241 -347,452 -36,33 -100,99 -143,147 -105,118 -170,151 -301,155 -50,1 -108,-2 -129,-7 z m 219,-41 c 65,-20 74,-27 159,-116 50,-53 160,-166 245,-252 158,-159 200,-215 247,-333 49,-120 39,-310 -24,-451 -76,-170 -187,-115 -362,180 -135,227 -171,275 -285,383 -228,217 -281,274 -314,340 -64,128 -30,213 103,253 71,22 152,20 231,-4 z"
       id="path112" />
    <path
       d="m 8357,3665 c -50,-17 -84,-49 -98,-92 -25,-77 37,-184 181,-313 220,-197 241,-222 345,-396 36,-60 65,-106 65,-102 0,14 -151,282 -185,328 -18,25 -90,98 -160,164 -140,132 -185,195 -185,263 0,108 135,156 263,92 23,-11 77,-55 120,-97 42,-42 77,-73 77,-69 0,19 -114,149 -156,178 -83,57 -185,74 -267,44 z"
       id="path114" />
    <path
       d="m 8432,3575 c -100,-44 -44,-170 129,-291 111,-78 157,-134 238,-291 81,-158 128,-225 174,-253 86,-53 157,7 157,132 0,114 -59,209 -194,311 -114,87 -170,140 -223,216 -111,159 -196,213 -281,176 z m 537,-582 c 30,-25 44,-78 25,-94 -29,-24 -90,66 -69,101 9,14 20,13 44,-7 z"
       id="path116" />
    <path
       d="M 625,3544 C 481,3507 306,3426 235,3364 l -40,-35 60,38 c 141,87 321,143 462,143 213,-1 437,-111 459,-226 13,-70 -18,-113 -156,-221 C 928,2990 865,2922 767,2788 637,2612 580,2577 375,2554 l -110,-13 125,3 c 200,4 270,44 411,232 110,146 174,200 372,308 139,76 167,135 108,228 -55,87 -178,164 -331,208 -73,21 -277,36 -325,24 z"
       id="path118" />
    <path
       d="m 654,3390 c -78,-14 -222,-68 -297,-112 -37,-21 -93,-64 -125,-95 -60,-59 -57,-58 22,1 98,74 201,115 351,141 113,19 180,9 225,-36 55,-56 34,-120 -110,-337 C 561,2714 469,2670 250,2726 l -25,6 22,-16 c 12,-9 52,-24 89,-33 57,-14 75,-15 127,-4 111,23 151,55 266,210 44,59 112,146 151,192 80,93 114,155 104,193 -20,83 -186,141 -330,116 z"
       id="path120" />
    <path
       d="m 9823,3095 c -43,-30 -58,-97 -57,-250 0,-175 25,-274 118,-473 124,-267 142,-404 73,-555 -50,-109 -185,-224 -314,-269 -63,-21 -83,-23 -293,-23 -124,0 -263,4 -310,8 -46,4 -82,6 -79,3 18,-18 224,-39 394,-40 216,-1 258,6 382,65 95,45 170,113 232,209 59,91 76,154 74,275 -1,118 -25,202 -104,370 -118,251 -130,483 -26,518 58,19 203,-52 382,-187 151,-114 174,-149 205,-315 25,-135 46,-205 111,-369 56,-142 127,-371 140,-451 10,-62 -8,-159 -46,-245 -37,-85 -112,-316 -129,-398 -26,-124 -17,-133 13,-13 38,155 75,262 137,397 67,146 80,201 65,277 -6,32 -52,182 -101,333 -92,283 -102,330 -114,538 -11,189 -75,270 -318,402 -51,27 -131,75 -178,106 -149,97 -212,118 -257,87 z"
       id="path122" />
    <path
       d="m 12222,3086 c -82,-14 -108,-33 -116,-86 -2,-19 -10,-136 -16,-260 -7,-124 -20,-272 -30,-330 -11,-57 -18,-106 -16,-108 11,-10 48,219 61,373 17,205 37,296 78,339 33,35 111,65 171,67 17,0 40,4 51,9 30,13 -96,10 -183,-4 z"
       id="path124" />
    <path
       d="m 12323,2906 c -47,-41 -87,-124 -102,-216 -7,-36 -14,-76 -17,-90 -3,-14 -3,-22 1,-18 4,4 13,37 20,75 22,113 53,183 105,236 55,55 51,62 -7,13 z"
       id="path126" />
    <path
       d="m 9895,2876 c -29,-29 -39,-79 -32,-159 5,-60 34,-173 42,-165 2,2 -2,28 -10,58 -8,30 -15,83 -15,118 0,139 62,170 205,101 31,-16 36,-16 20,-3 -31,26 -138,74 -163,74 -13,0 -34,-11 -47,-24 z"
       id="path128" />
    <path
       d="m 11445,2889 c -157,-36 -305,-109 -373,-184 -70,-77 -87,-136 -86,-300 0,-151 18,-210 85,-295 82,-104 152,-130 348,-130 317,1 416,68 497,337 22,73 27,114 31,239 10,298 -36,345 -332,343 -71,-1 -148,-5 -170,-10 z m 336,-76 c 66,-30 95,-70 115,-160 38,-172 -19,-445 -114,-546 -62,-66 -168,-97 -329,-97 -180,0 -289,45 -354,148 -46,72 -62,141 -57,243 4,76 9,97 41,163 58,116 164,197 332,253 62,20 85,23 195,20 99,-3 135,-8 171,-24 z"
       id="path130" />
    <path
       d="m 11421,2654 c -71,-36 -155,-120 -186,-186 -32,-69 -32,-129 0,-194 88,-176 407,-160 469,23 34,98 11,240 -50,320 -51,68 -142,82 -233,37 z m 138,-210 c 72,-60 42,-169 -53,-186 -130,-25 -174,123 -57,191 48,27 73,26 110,-5 z"
       id="path132" />
    <path
       d="m 10204,2741 c 20,-22 26,-25 26,-13 0,4 -10,13 -22,21 -23,14 -23,14 -4,-8 z"
       id="path134" />
    <path
       d="m 1415,2554 c -11,-2 -45,-9 -75,-15 -89,-18 -175,-71 -293,-179 C 923,2246 859,2204 734,2156 612,2109 551,2092 440,2076 l -95,-14 h 80 c 132,2 306,48 455,123 64,32 124,76 249,183 103,87 157,109 299,122 138,12 227,-12 320,-87 56,-45 82,-98 82,-164 0,-95 -46,-148 -232,-264 -85,-53 -230,-195 -330,-324 -156,-198 -256,-290 -394,-359 -33,-17 -77,-34 -97,-37 -21,-4 -39,-11 -42,-15 -8,-14 106,20 159,47 150,75 239,149 354,292 94,118 218,244 293,299 31,22 100,63 153,90 174,90 245,161 254,254 13,131 -157,293 -342,327 -58,11 -150,13 -191,5 z"
       id="path136" />
    <path
       d="m 7428,2434 c -38,-20 -54,-57 -63,-139 -7,-76 14,-426 31,-504 3,-14 9,-135 14,-270 9,-259 27,-390 69,-502 20,-52 82,-129 104,-129 5,0 -2,9 -17,21 -46,36 -87,136 -101,244 -4,28 -9,61 -12,75 -2,14 -9,228 -15,475 -10,478 -7,530 33,587 64,90 175,64 357,-82 145,-116 331,-303 392,-395 29,-44 57,-84 63,-90 23,-22 -49,95 -101,165 -75,100 -380,405 -465,465 -123,86 -226,114 -289,79 z"
       id="path138" />
    <path
       d="m 9970,2415 c 0,-5 5,-17 10,-25 5,-8 10,-10 10,-5 0,6 -5,17 -10,25 -5,8 -10,11 -10,5 z"
       id="path140" />
    <path
       d="m 1369,2386 c -69,-18 -129,-58 -226,-148 -48,-45 -114,-98 -145,-119 -87,-56 -497,-215 -598,-232 -14,-2 2,-5 35,-6 43,0 82,7 140,28 183,66 255,91 338,116 91,29 183,81 252,144 60,55 152,121 169,121 8,0 17,4 20,9 8,13 127,7 154,-8 12,-6 29,-23 38,-36 32,-49 14,-77 -170,-260 C 1245,1864 1183,1794 1110,1691 954,1472 844,1389 685,1370 l -80,-9 86,3 c 71,3 97,9 150,34 94,45 188,125 285,243 145,175 313,337 444,426 111,76 154,150 127,216 -39,93 -189,141 -328,103 z"
       id="path142" />
    <path
       d="m 9760,2375 c 0,-5 5,-17 10,-25 5,-8 10,-10 10,-5 0,6 -5,17 -10,25 -5,8 -10,11 -10,5 z"
       id="path144" />
    <path
       d="m 8270,2300 c 6,-11 13,-20 16,-20 2,0 0,9 -6,20 -6,11 -13,20 -16,20 -2,0 0,-9 6,-20 z"
       id="path146" />
    <path
       d="m 10271,2171 c -27,-27 -42,-64 -85,-216 -20,-71 -51,-153 -68,-184 -83,-145 -303,-295 -513,-351 -115,-30 -300,-45 -407,-34 -49,6 -84,6 -79,1 14,-14 228,-25 321,-16 129,12 272,53 385,109 112,55 145,80 260,195 66,65 89,98 129,178 58,116 92,157 133,157 75,0 131,-82 183,-267 41,-144 41,-237 0,-428 -54,-245 -60,-279 -73,-368 -20,-132 -5,-104 21,40 13,70 44,213 69,318 59,240 62,324 14,510 -38,150 -78,230 -150,306 -66,69 -106,84 -140,50 z"
       id="path148" />
    <path
       d="m 7620,2148 c -62,-32 -77,-138 -82,-563 -3,-249 -2,-263 20,-327 27,-77 72,-150 112,-178 44,-31 47,-23 5,17 -47,46 -81,119 -102,220 -14,68 -15,97 -4,222 14,183 39,376 52,419 6,18 22,46 36,62 20,25 32,30 68,30 55,0 100,-19 205,-87 106,-69 203,-165 266,-264 72,-113 78,-120 43,-54 -75,141 -141,222 -263,324 -195,161 -293,211 -356,179 z"
       id="path150" />
    <path
       d="m 11927,1871 c -41,-26 -46,-36 -10,-17 17,9 35,20 38,26 8,13 6,12 -28,-9 z"
       id="path152" />
    <path
       d="m 8380,1840 c 6,-11 13,-20 16,-20 2,0 0,9 -6,20 -6,11 -13,20 -16,20 -2,0 0,-9 6,-20 z"
       id="path154" />
    <path
       d="m 6260,1833 c -30,-2 -185,-10 -345,-18 -373,-20 -419,-31 -560,-129 -33,-23 -139,-84 -235,-135 -96,-51 -195,-108 -220,-126 -41,-31 -114,-103 -305,-307 -92,-98 -152,-133 -225,-132 -47,1 -74,11 -186,67 -237,119 -340,140 -555,112 -191,-24 -286,-63 -370,-152 -112,-117 -202,-329 -203,-473 -1,-135 38,-165 214,-164 128,1 214,13 370,53 100,25 117,26 345,25 132,0 272,-3 310,-7 l 70,-6 -45,14 c -59,19 -348,39 -469,32 -62,-3 -140,-16 -221,-37 -113,-30 -139,-33 -275,-34 -140,-1 -153,1 -187,22 -94,58 -87,213 19,414 98,187 255,268 518,268 181,0 288,-34 443,-139 141,-95 206,-110 297,-67 58,26 114,79 237,221 165,191 224,236 461,350 85,40 188,94 229,118 181,110 238,129 458,152 277,29 572,14 718,-36 118,-40 203,-119 245,-225 30,-78 45,-195 37,-283 -19,-187 -152,-389 -303,-460 -63,-29 -120,-38 -383,-56 -155,-10 -283,-67 -392,-174 -110,-108 -205,-211 -195,-211 5,0 31,24 57,53 87,94 217,207 281,243 81,45 159,60 370,73 94,6 191,17 217,25 148,44 286,195 357,391 23,62 26,85 26,200 -1,143 -24,251 -70,331 -33,56 -114,127 -181,159 -100,47 -181,58 -354,48 z"
       id="path156" />
    <path
       d="m 7804,1825 c -59,-30 -118,-183 -131,-337 -10,-123 31,-219 118,-273 52,-34 61,-31 18,4 -54,45 -93,132 -97,216 -6,116 55,275 122,316 85,52 210,-17 310,-171 50,-76 45,-50 -8,40 -92,158 -243,250 -332,205 z"
       id="path158" />
    <path
       d="m 1875,1810 c -80,-17 -191,-63 -255,-105 -81,-54 -134,-110 -240,-250 -114,-151 -188,-225 -305,-302 -119,-79 -135,-93 -75,-63 153,76 276,181 390,331 132,174 217,245 350,294 267,97 461,-10 477,-264 6,-101 -21,-406 -46,-502 -23,-89 -77,-203 -121,-253 -67,-76 -142,-101 -333,-111 -64,-4 -119,-10 -122,-15 -2,-4 26,-6 63,-4 37,2 114,5 172,8 170,6 244,55 320,210 53,108 75,198 97,407 33,320 22,428 -56,527 -52,66 -112,94 -205,98 -39,2 -89,-1 -111,-6 z"
       id="path160" />
    <path
       d="m 11748,1803 c 6,-2 18,-2 25,0 6,3 1,5 -13,5 -14,0 -19,-2 -12,-5 z"
       id="path162" />
    <path
       d="m 8350,1750 c 6,-11 13,-20 16,-20 2,0 0,9 -6,20 -6,11 -13,20 -16,20 -2,0 0,-9 6,-20 z"
       id="path164" />
    <path
       d="m 729,1736 c -38,-26 -49,-44 -49,-80 0,-31 19,-46 58,-46 58,0 122,86 95,129 -16,26 -64,24 -104,-3 z"
       id="path166" />
    <path
       d="m 5830,1700 c -145,-20 -216,-46 -385,-141 -66,-37 -156,-82 -200,-99 -102,-40 -243,-111 -303,-152 -93,-64 -210,-197 -326,-373 -135,-203 -158,-246 -152,-282 12,-61 101,-145 218,-204 76,-39 75,-29 -2,12 -72,38 -135,91 -155,130 -19,36 -19,90 0,136 20,48 25,39 12,-23 -8,-40 -7,-59 2,-83 19,-44 29,-38 24,13 -7,56 15,125 79,246 67,126 99,171 182,259 105,108 194,165 412,261 66,29 184,85 264,125 198,98 243,111 465,130 155,13 373,-29 521,-100 121,-58 162,-111 185,-239 31,-166 -61,-349 -213,-423 -68,-34 -176,-58 -302,-68 -110,-10 -177,-28 -276,-77 -74,-36 -102,-59 -230,-183 -80,-79 -172,-161 -204,-184 -66,-46 -68,-55 -3,-15 54,34 132,100 232,196 176,169 268,209 555,238 63,7 143,21 177,31 222,69 355,295 314,534 -32,182 -122,253 -406,321 -82,19 -382,28 -485,14 z"
       id="path168" />
    <path
       d="m 11768,1703 c 7,-3 16,-2 19,1 4,3 -2,6 -13,5 -11,0 -14,-3 -6,-6 z"
       id="path170" />
    <path
       d="m 11540,1689 c -92,-15 -176,-48 -252,-98 -114,-75 -153,-131 -164,-238 -13,-124 53,-300 137,-363 33,-24 32,-23 -8,22 -108,120 -144,307 -83,428 52,104 210,206 364,235 44,9 82,18 85,20 6,6 -10,5 -79,-6 z"
       id="path172" />
    <path
       d="m 11643,1693 c 9,-2 23,-2 30,0 6,3 -1,5 -18,5 -16,0 -22,-2 -12,-5 z"
       id="path174" />
    <path
       d="m 11708,1693 c 7,-3 16,-2 19,1 4,3 -2,6 -13,5 -11,0 -14,-3 -6,-6 z"
       id="path176" />
    <path
       d="m 1798,1644 c -139,-33 -224,-103 -364,-300 -51,-73 -117,-157 -145,-189 -66,-71 -211,-195 -264,-224 -22,-12 -31,-19 -20,-16 54,16 177,98 248,165 45,42 131,143 197,230 167,223 242,273 412,274 80,1 89,-1 129,-29 68,-48 83,-89 87,-232 9,-325 -80,-499 -287,-563 -55,-18 -228,-38 -348,-42 -29,0 -53,-5 -53,-10 0,-11 194,-10 310,2 127,14 207,41 264,92 108,95 161,252 173,515 7,166 -3,208 -66,274 -67,69 -146,84 -273,53 z"
       id="path178" />
    <path
       d="m 11598,1593 c 6,-2 18,-2 25,0 6,3 1,5 -13,5 -14,0 -19,-2 -12,-5 z"
       id="path180" />
    <path
       d="m 11808,1593 c 7,-3 16,-2 19,1 4,3 -2,6 -13,5 -11,0 -14,-3 -6,-6 z"
       id="path182" />
    <path
       d="m 11548,1583 c 6,-2 18,-2 25,0 6,3 1,5 -13,5 -14,0 -19,-2 -12,-5 z"
       id="path184" />
    <path
       d="m 5805,1565 c -86,-16 -135,-35 -295,-118 -69,-35 -170,-81 -225,-102 -116,-42 -269,-121 -337,-173 -141,-107 -238,-279 -238,-424 0,-89 23,-142 88,-199 105,-92 238,-142 377,-142 156,0 244,49 455,253 130,126 155,145 245,190 82,42 125,56 240,80 181,38 230,53 286,89 107,67 153,193 117,313 -29,96 -155,182 -332,228 -93,24 -269,26 -381,5 z m 254,-56 c 222,-27 385,-151 376,-285 -7,-104 -88,-173 -255,-219 -322,-89 -329,-93 -542,-306 -93,-92 -196,-186 -229,-208 -118,-79 -247,-94 -396,-47 -178,57 -283,171 -283,306 0,30 19,82 20,55 0,-5 11,19 23,55 69,201 213,321 533,441 60,22 165,66 234,98 167,77 238,99 345,110 50,4 90,9 90,10 0,0 38,-4 84,-10 z"
       id="path186" />
    <path
       d="m 5824,1369 c -28,-3 -111,-29 -185,-57 -74,-28 -170,-60 -214,-72 -180,-49 -272,-83 -348,-128 -92,-55 -145,-110 -189,-199 -27,-55 -30,-70 -25,-121 12,-138 109,-229 272,-254 71,-11 78,-10 157,16 126,43 195,100 324,271 89,117 204,221 311,283 138,79 186,145 146,200 -38,53 -132,76 -249,61 z m -215,-190 c 66,-14 95,-48 86,-99 -17,-95 -156,-323 -250,-408 -31,-29 -86,-66 -123,-84 -58,-28 -77,-32 -142,-32 -54,1 -88,7 -122,22 -69,31 -133,94 -152,149 -32,93 -16,147 71,242 101,111 237,178 408,201 50,6 97,13 105,15 33,6 71,4 119,-6 z"
       id="path188" />
    <path
       d="m 5248,1011 c -70,-23 -149,-86 -166,-134 -11,-32 -11,-41 8,-76 11,-23 24,-41 28,-41 5,0 18,-10 31,-21 57,-53 194,-8 258,85 44,64 47,134 7,171 -15,14 -32,25 -39,25 -7,0 -25,2 -41,5 -16,2 -55,-4 -86,-14 z m 65,-112 c 29,-41 -17,-99 -79,-99 -63,0 -70,65 -11,101 41,25 72,24 90,-2 z"
       id="path190" />
    <path
       d="m 4742,770 c 0,-14 2,-19 5,-12 2,6 2,18 0,25 -3,6 -5,1 -5,-13 z"
       id="path192" />
    <path
       d="m 11450,1549 c -73,-40 -115,-82 -148,-149 -52,-107 -28,-254 56,-331 l 36,-34 -37,44 c -70,85 -89,219 -43,316 28,61 100,129 169,160 29,13 45,24 37,24 -8,0 -40,-13 -70,-30 z"
       id="path194" />
    <path
       d="m 10100,1504 c -332,-150 -480,-199 -690,-229 l -105,-14 92,4 c 51,3 134,14 185,25 105,23 455,137 478,156 20,17 156,54 197,54 56,0 95,-57 108,-156 6,-44 -16,-375 -32,-479 -3,-22 -3,-37 1,-34 15,14 57,380 58,504 1,136 -6,172 -44,213 -36,38 -85,29 -248,-44 z"
       id="path196" />
    <path
       d="m 8928,1543 c 7,-3 16,-2 19,1 4,3 -2,6 -13,5 -11,0 -14,-3 -6,-6 z"
       id="path198" />
    <path
       d="m 11588,1476 c -113,-30 -184,-134 -164,-240 7,-39 46,-91 80,-107 14,-7 12,-3 -7,11 -79,62 -84,179 -11,260 48,52 110,75 204,74 49,0 64,2 45,7 -46,10 -96,9 -147,-5 z"
       id="path200" />
    <path
       d="m 1748,1436 c -26,-7 -63,-23 -83,-37 -49,-32 -124,-134 -177,-238 -35,-70 -42,-96 -43,-143 0,-49 4,-61 30,-88 60,-63 202,-77 298,-29 54,27 113,84 138,131 31,61 52,166 45,236 -12,141 -86,201 -208,168 z m 51,-121 c 58,-29 81,-175 42,-260 -42,-93 -151,-149 -241,-125 -94,25 -117,107 -61,214 82,155 174,216 260,171 z"
       id="path202" />
    <path
       d="m 9915,1283 c -11,-3 -92,-22 -180,-43 -88,-22 -169,-41 -180,-43 -19,-4 -19,-5 1,-6 12,0 101,15 197,34 189,38 233,41 304,24 90,-23 152,-118 154,-233 0,-23 4,-59 9,-81 7,-29 8,-8 6,80 -4,131 -17,179 -63,228 -15,15 -43,32 -62,37 -36,10 -149,12 -186,3 z"
       id="path204" />
    <path
       d="m 11849,1183 c -13,-16 -12,-17 4,-4 16,13 21,21 13,21 -2,0 -10,-8 -17,-17 z"
       id="path206" />
    <path
       d="m 9478,1183 c 12,-2 30,-2 40,0 9,3 -1,5 -23,4 -22,0 -30,-2 -17,-4 z"
       id="path208" />
    <path
       d="m 830,1150 c -8,-5 -10,-10 -5,-10 6,0 17,5 25,10 8,5 11,10 5,10 -5,0 -17,-5 -25,-10 z"
       id="path210" />
    <path
       d="m 9695,1115 -110,-13 125,4 c 226,9 303,-28 351,-167 20,-58 26,-39 8,26 -37,138 -138,178 -374,150 z"
       id="path212" />
    <path
       d="m 10833,1100 c -46,-28 -99,-105 -122,-180 -31,-98 -25,-105 13,-17 19,43 46,93 61,112 26,35 72,65 97,65 42,0 99,-29 171,-87 121,-97 122,-97 13,7 -54,52 -108,100 -120,107 -31,18 -77,15 -113,-7 z"
       id="path214" />
    <path
       d="m 3535,1016 c -154,-39 -246,-123 -275,-251 -32,-143 66,-225 254,-212 140,9 367,101 441,177 37,37 40,46 40,95 0,60 12,63 21,4 7,-43 24,-53 24,-14 0,71 -77,161 -163,193 -63,23 -264,28 -342,8 z m 271,-67 c 130,-64 121,-183 -19,-267 -69,-42 -184,-82 -252,-89 -72,-8 -156,18 -189,58 -21,25 -26,41 -26,88 0,84 41,143 135,193 100,54 261,62 351,17 z"
       id="path216" />
    <path
       d="m 9820,949 c 19,-12 46,-31 60,-43 l 25,-21 -25,28 c -14,16 -37,35 -52,43 -42,22 -47,17 -8,-7 z"
       id="path218" />
    <path
       d="m 6081,434 c -46,-16 -94,-44 -88,-50 2,-2 20,5 41,16 83,42 211,48 301,15 14,-6 17,-5 10,3 -13,13 -115,32 -174,32 -25,-1 -66,-8 -90,-16 z"
       id="path220" />
    <path
       d="m 6400,391 c 19,-11 39,-20 45,-21 16,0 -28,27 -55,34 -19,5 -16,2 10,-13 z"
       id="path222" />
    <path
       d="M 3615,315 C 3555,303 3459,283 3403,271 3346,259 3268,238 3228,224 3110,182 2938,95 2895,55 l -40,-37 55,32 c 98,56 293,148 358,169 35,11 154,40 265,63 201,42 203,43 402,42 125,0 179,2 145,7 -30,4 -122,7 -205,7 -120,1 -172,-4 -260,-23 z"
       id="path224" />
    <path
       d="m 5733,328 c -20,-26 -26,-41 -15,-34 12,7 36,46 29,46 -3,0 -9,-6 -14,-12 z"
       id="path226" />
    <path
       d="m 5905,314 c -9,-15 -12,-23 -6,-20 11,7 35,46 28,46 -3,0 -12,-12 -22,-26 z"
       id="path228" />
    <path
       d="m 3725,219 c -148,-23 -333,-62 -389,-83 -55,-21 -166,-82 -166,-91 0,-2 37,16 83,40 45,24 109,50 142,59 104,26 336,66 440,75 100,8 100,8 25,8 -41,1 -102,-3 -135,-8 z"
       id="path230" />
  </g>
</svg>
