<?xml version="1.0" encoding="UTF-8"?>
<svg xmlns="http://www.w3.org/2000/svg" xmlns:xlink="http://www.w3.org/1999/xlink" version="1.2" >
<font id="Tomkin Condense Bold">
<font-face  font-family="Tomkin Condense" units-per-em="1000" ascent="750" descent="-250" font-style="normal" font-weight="700" font-stretch="normal" cap-height="700" x-height="515" underline-position="-91" underline-thickness="35" />
<missing-glyph  horiz-adv-x="569" d="" />
<glyph glyph-name="space" unicode="&#x20;" horiz-adv-x="182" d="" />
<glyph glyph-name="exclam" unicode="&#x21;" horiz-adv-x="269" d="M199 301 L199 683 C199 693 192 700 182 700 L87 700 C77 700 70 693 70 683 L70 301 L83 183 C84 173 90 166 100 166 L169 166 C179 166 185 173 186 183 L199 301 Z M182 -16 C192 -16 199 -9 199 1 L199 92 C199 102 192 109 182 109 L87 109 C77 109 70 102 70 92 L70 1 C70 -9 77 -16 87 -16 L182 -16 Z " />
<glyph glyph-name="quotedbl" unicode="&#x22;" horiz-adv-x="464" d="M189 582 L189 683 C189 693 182 700 172 700 L87 700 C77 700 70 693 70 683 L70 582 L83 464 C84 454 90 447 100 447 L159 447 C169 447 175 454 176 464 L189 582 Z M394 582 L394 683 C394 693 387 700 377 700 L292 700 C282 700 275 693 275 683 L275 582 L288 464 C289 454 295 447 305 447 L364 447 C374 447 380 454 381 464 L394 582 Z " />
<glyph glyph-name="numbersign" unicode="&#x23;" horiz-adv-x="767" d="M439 0 C449 0 453 7 456 17 L495 141 L563 141 C573 141 580 148 580 158 L580 241 C580 251 573 258 563 258 L532 258 L591 442 L680 442 C690 442 697 449 697 459 L697 542 C697 552 690 559 680 559 L628 559 L668 683 C668 693 661 700 651 700 L556 700 C546 700 542 693 539 683 L499 559 L414 559 L454 683 C454 693 447 700 437 700 L342 700 C332 700 328 693 325 683 L285 559 L204 559 C194 559 187 552 187 542 L187 459 C187 449 194 442 204 442 L248 442 L189 258 L87 258 C77 258 70 251 70 241 L70 158 C70 148 77 141 87 141 L152 141 L113 17 C113 7 120 0 130 0 L225 0 C235 0 239 7 242 17 L281 141 L366 141 L327 17 C327 7 334 0 344 0 L439 0 Z M377 442 L462 442 L403 258 L318 258 L377 442 Z " />
<glyph glyph-name="dollar" unicode="&#x24;" horiz-adv-x="561" d="M199 500 L199 527 C199 560 220 587 250 587 L301 587 C331 587 352 560 352 527 L352 514 C352 504 359 497 369 497 L464 497 C474 497 481 504 481 514 L481 534 C481 617 425 685 346 701 L346 815 C346 825 339 832 329 832 L234 832 C224 832 217 825 217 815 L217 703 C132 692 70 621 70 534 L70 512 C70 215 362 360 362 194 L362 173 C362 140 341 113 311 113 L250 113 C220 113 199 140 199 173 L199 192 C199 202 192 209 182 209 L87 209 C77 209 70 202 70 192 L70 166 C70 79 132 8 217 -3 L217 -120 C217 -130 224 -137 234 -137 L329 -137 C339 -137 346 -130 346 -120 L346 -3 C431 9 491 80 491 166 L491 182 C491 479 199 334 199 500 L199 500 Z " />
<glyph glyph-name="percent" unicode="&#x25;" horiz-adv-x="773" d="M198 700 C128 700 70 643 70 572 C70 502 128 444 198 444 C269 444 327 502 327 572 C327 643 269 700 198 700 L198 700 Z M198 529 C174 529 155 550 155 572 C155 596 174 615 198 615 C220 615 241 596 241 572 C241 550 220 529 198 529 L198 529 Z M575 256 C504 256 446 199 446 128 C446 58 504 0 575 0 C645 0 703 58 703 128 C703 199 645 256 575 256 L575 256 Z M575 85 C553 85 532 106 532 128 C532 152 553 171 575 171 C599 171 618 152 618 128 C618 106 599 85 575 85 L575 85 Z M292 0 C302 0 305 7 309 17 L592 683 C592 693 585 700 575 700 L480 700 C470 700 467 693 463 683 L180 17 C180 7 187 0 197 0 L292 0 Z " />
<glyph glyph-name="ampersand" unicode="&#x26;" horiz-adv-x="601" d="M275 406 C245 406 228 433 228 466 L228 527 C228 560 245 587 275 587 L305 587 C335 587 352 560 352 527 L352 501 C352 491 359 484 369 484 L464 484 C474 484 481 491 481 501 L481 534 C481 629 411 705 313 705 L267 705 C169 705 99 629 99 534 L99 465 C99 428 122 393 143 365 C105 334 70 287 70 235 L70 171 C70 76 140 0 238 0 L464 0 C474 0 481 7 481 17 L481 294 L539 294 C549 294 556 301 556 311 L556 389 C556 399 549 406 539 406 L275 406 Z M352 294 L352 117 L246 117 C216 117 199 144 199 177 L199 234 C199 267 216 294 246 294 L352 294 Z " />
<glyph glyph-name="quotesingle" unicode="&#x27;" horiz-adv-x="259" d="M189 582 L189 683 C189 693 182 700 172 700 L87 700 C77 700 70 693 70 683 L70 582 L83 464 C84 454 90 447 100 447 L159 447 C169 447 175 454 176 464 L189 582 Z " />
<glyph glyph-name="parenleft" unicode="&#x28;" horiz-adv-x="319" d="M249 -161 C212 -3 199 155 199 313 C199 471 213 630 249 788 C249 798 242 805 232 805 L137 805 C127 805 120 798 120 788 C84 630 70 471 70 313 C70 155 83 -3 120 -161 C120 -171 127 -178 137 -178 L232 -178 C241 -178 249 -172 249 -161 L249 -161 Z " />
<glyph glyph-name="parenright" unicode="&#x29;" horiz-adv-x="319" d="M70 -161 C70 -172 78 -178 87 -178 L182 -178 C192 -178 199 -171 199 -161 C236 -3 249 155 249 313 C249 471 235 630 199 788 C199 798 192 805 182 805 L87 805 C77 805 70 798 70 788 C106 630 120 471 120 313 C120 155 107 -3 70 -161 L70 -161 Z " />
<glyph glyph-name="asterisk" unicode="&#x2a;" horiz-adv-x="500" d="M210 700 C200 700 193 693 193 683 L193 601 L141 634 C138 636 134 638 131 638 C126 638 121 635 117 631 L73 566 C71 562 70 558 70 555 C70 550 72 546 77 542 L158 488 L101 421 C98 418 97 414 97 411 C97 404 102 399 104 397 L163 345 C166 343 170 342 173 342 C179 342 184 344 187 347 L250 421 L313 347 C316 344 321 342 327 342 C330 342 334 343 337 345 L396 397 C398 399 403 404 403 411 C403 414 402 418 399 421 L342 488 L423 542 C428 546 430 550 430 555 C430 558 429 562 427 566 L383 631 C379 635 374 638 369 638 C366 638 362 636 359 634 L307 601 L307 683 C307 693 300 700 290 700 L210 700 Z " />
<glyph glyph-name="plus" unicode="&#x2b;" horiz-adv-x="403" d="M249 67 C259 67 266 74 266 84 L266 187 L316 187 C326 187 333 194 333 204 L333 287 C333 297 326 304 316 304 L266 304 L266 408 C266 418 259 425 249 425 L154 425 C144 425 137 418 137 408 L137 304 L87 304 C77 304 70 297 70 287 L70 204 C70 194 77 187 87 187 L137 187 L137 84 C137 74 144 67 154 67 L249 67 Z " />
<glyph glyph-name="comma" unicode="&#x2c;" horiz-adv-x="326" d="M178 -109 C188 -109 195 -101 199 -92 L256 71 C256 81 249 88 239 88 L148 88 C138 88 131 80 127 71 L70 -92 C70 -102 77 -109 87 -109 L178 -109 Z " />
<glyph glyph-name="hyphen" unicode="&#x2d;" horiz-adv-x="359" d="M272 187 C282 187 289 194 289 204 L289 287 C289 297 282 304 272 304 L87 304 C77 304 70 297 70 287 L70 204 C70 194 77 187 87 187 L272 187 Z " />
<glyph glyph-name="period" unicode="&#x2e;" horiz-adv-x="274" d="M187 -5 C197 -5 204 2 204 12 L204 113 C204 123 197 130 187 130 L87 130 C77 130 70 123 70 113 L70 12 C70 2 77 -5 87 -5 L187 -5 Z " />
<glyph glyph-name="slash" unicode="&#x2f;" horiz-adv-x="571" d="M182 -179 C192 -179 196 -172 199 -162 L501 787 C501 797 494 804 484 804 L389 804 C379 804 375 797 372 787 L70 -162 C70 -172 77 -179 87 -179 L182 -179 Z " />
<glyph glyph-name="zero" unicode="0" horiz-adv-x="541" d="M238 -5 L303 -5 C401 -5 481 71 481 166 L481 534 C481 629 401 705 303 705 L238 705 C140 705 60 629 60 534 L60 166 C60 71 140 -5 238 -5 L238 -5 Z M295 587 C325 587 352 560 352 527 L352 173 C352 140 325 113 295 113 L246 113 C216 113 189 140 189 173 L189 527 C189 560 216 587 246 587 L295 587 Z " />
<glyph glyph-name="one" unicode="1" horiz-adv-x="493" d="M80 17 C80 7 87 0 97 0 L451 0 C461 0 468 7 468 17 L468 100 C468 110 461 117 451 117 L338 117 L338 683 C338 693 331 700 321 700 L208 700 L67 645 C58 641 50 636 50 626 L50 544 C50 534 57 527 67 527 L209 582 L209 117 L97 117 C87 117 80 110 80 100 L80 17 Z " />
<glyph glyph-name="two" unicode="2" horiz-adv-x="512" d="M179 166 C179 332 462 187 462 484 L462 534 C462 629 388 705 290 705 L223 705 C125 705 51 629 51 534 L51 514 C51 504 58 497 68 497 L163 497 C173 497 180 504 180 514 L180 527 C180 560 201 587 231 587 L282 587 C312 587 333 560 333 527 L333 472 C333 306 50 451 50 154 L50 17 C50 7 57 0 67 0 L445 0 C455 0 462 7 462 17 L462 101 C462 111 455 118 445 118 L179 118 L179 166 Z " />
<glyph glyph-name="three" unicode="3" horiz-adv-x="521" d="M246 412 C236 412 229 405 229 395 L229 311 C229 301 236 294 246 294 L284 294 C312 291 337 265 337 234 L337 173 C337 140 310 113 280 113 L241 113 C211 113 184 140 184 173 L184 186 C184 196 177 203 167 203 L72 203 C62 203 55 196 55 186 L55 166 C55 71 135 -5 233 -5 L288 -5 C386 -5 466 71 466 166 L466 241 C466 284 440 323 408 353 C440 383 466 422 466 465 L466 534 C466 629 386 705 288 705 L233 705 C135 705 55 629 55 534 L55 514 C55 504 62 497 72 497 L167 497 C177 497 184 504 184 514 L184 527 C184 560 211 587 241 587 L280 587 C310 587 337 560 337 527 L337 472 C337 439 310 412 280 412 L246 412 Z " />
<glyph glyph-name="four" unicode="4" horiz-adv-x="525" d="M412 0 C422 0 429 7 429 17 L429 146 L478 146 C488 146 495 153 495 163 L495 247 C495 257 488 264 478 264 L429 264 L429 440 C429 450 422 457 412 457 L317 457 C307 457 300 450 300 440 L300 264 L183 264 L349 683 C349 693 342 700 332 700 L228 700 C218 700 213 692 209 683 L30 223 L30 163 C30 153 37 146 47 146 L300 146 L300 17 C300 7 307 0 317 0 L412 0 Z " />
<glyph glyph-name="five" unicode="5" horiz-adv-x="531" d="M189 301 C197 315 215 321 231 321 L295 321 C325 321 352 294 352 261 L352 173 C352 140 325 113 295 113 L246 113 C216 113 189 140 189 173 L189 182 C189 192 182 199 172 199 L77 199 C67 199 60 192 60 182 L60 166 C60 71 140 -5 238 -5 L303 -5 C401 -5 481 71 481 166 L481 268 C481 363 401 439 303 439 L245 439 C228 439 205 435 189 419 L189 582 L417 582 C427 582 434 589 434 599 L434 683 C434 693 427 700 417 700 L77 700 C67 700 60 693 60 683 L60 302 C60 292 67 285 77 285 L168 285 C178 285 184 292 189 301 L189 301 Z " />
<glyph glyph-name="six" unicode="6" horiz-adv-x="531" d="M245 444 C228 444 205 440 189 424 L189 527 C189 560 216 587 246 587 L284 587 C314 587 341 560 341 527 L341 517 C341 507 348 500 358 500 L453 500 C463 500 470 507 470 517 L470 534 C470 629 390 705 292 705 L238 705 C140 705 60 629 60 534 L60 166 C60 71 140 -5 238 -5 L303 -5 C401 -5 481 71 481 166 L481 273 C481 368 401 444 303 444 L245 444 Z M246 113 C216 113 189 140 189 173 L189 266 C189 299 216 326 246 326 L295 326 C325 326 352 299 352 266 L352 173 C352 140 325 113 295 113 L246 113 Z " />
<glyph glyph-name="seven" unicode="7" horiz-adv-x="452" d="M416 683 C416 693 409 700 399 700 L52 700 C42 700 35 693 35 683 L35 599 C35 589 42 582 52 582 L287 582 C167 399 130 208 106 17 C106 7 113 0 123 0 L218 0 C228 0 235 7 235 17 C259 208 297 399 417 582 L416 683 Z " />
<glyph glyph-name="eight" unicode="8" horiz-adv-x="531" d="M294 705 L239 705 C141 705 71 629 71 534 L71 460 C71 421 88 381 119 357 C74 328 55 283 55 236 L55 166 C55 71 125 -5 223 -5 L308 -5 C406 -5 476 71 476 166 L476 236 C476 283 457 328 412 357 C443 381 460 421 460 460 L460 534 C460 629 390 705 294 705 L294 705 Z M231 113 C201 113 184 140 184 173 L184 229 C184 262 201 289 231 289 L300 289 C330 289 347 262 347 229 L347 173 C347 140 330 113 300 113 L231 113 Z M286 407 L247 407 C217 407 200 434 200 467 L200 527 C200 560 217 587 247 587 L286 587 C314 587 331 560 331 527 L331 467 C331 434 314 407 286 407 L286 407 Z " />
<glyph glyph-name="nine" unicode="9" horiz-adv-x="531" d="M228 256 L286 256 C303 256 326 260 342 276 L342 173 C342 140 315 113 285 113 L247 113 C217 113 190 140 190 173 L190 183 C190 193 183 200 173 200 L78 200 C68 200 61 193 61 183 L61 166 C61 71 141 -5 239 -5 L293 -5 C391 -5 471 71 471 166 L471 534 C471 629 391 705 293 705 L228 705 C130 705 50 629 50 534 L50 427 C50 332 130 256 228 256 L228 256 Z M285 587 C315 587 342 560 342 527 L342 434 C342 401 315 374 285 374 L236 374 C206 374 179 401 179 434 L179 527 C179 560 206 587 236 587 L285 587 Z " />
<glyph glyph-name="colon" unicode="&#x3a;" horiz-adv-x="274" d="M187 -5 C197 -5 204 2 204 12 L204 113 C204 123 197 130 187 130 L87 130 C77 130 70 123 70 113 L70 12 C70 2 77 -5 87 -5 L187 -5 Z M187 300 C197 300 204 307 204 317 L204 418 C204 428 197 435 187 435 L87 435 C77 435 70 428 70 418 L70 317 C70 307 77 300 87 300 L187 300 Z " />
<glyph glyph-name="semicolon" unicode="&#x3b;" horiz-adv-x="326" d="M239 300 C249 300 256 307 256 317 L256 418 C256 428 249 435 239 435 L139 435 C129 435 122 428 122 418 L122 317 C122 307 129 300 139 300 L239 300 Z M178 -109 C188 -109 195 -101 199 -92 L256 71 C256 81 249 88 239 88 L148 88 C138 88 131 80 127 71 L70 -92 C70 -102 77 -109 87 -109 L178 -109 Z " />
<glyph glyph-name="less" unicode="&#x3c;" horiz-adv-x="358" d="M70 162 C70 152 77 146 87 143 L271 76 C281 76 288 83 288 93 L288 185 C288 195 281 202 271 205 L203 228 L203 240 L271 262 C281 265 288 272 288 282 L288 374 C288 384 281 391 271 391 L87 325 C77 322 70 316 70 306 L70 162 Z " />
<glyph glyph-name="equal" unicode="&#x3d;" horiz-adv-x="359" d="M272 86 C282 86 289 93 289 103 L289 186 C289 196 282 203 272 203 L87 203 C77 203 70 196 70 186 L70 103 C70 93 77 86 87 86 L272 86 Z M272 277 C282 277 289 284 289 294 L289 377 C289 387 282 394 272 394 L87 394 C77 394 70 387 70 377 L70 294 C70 284 77 277 87 277 L272 277 Z " />
<glyph glyph-name="greater" unicode="&#x3e;" horiz-adv-x="358" d="M288 306 C288 316 281 322 271 325 L87 391 C77 391 70 384 70 374 L70 282 C70 272 77 265 87 262 L155 240 L155 228 L87 205 C77 202 70 195 70 185 L70 93 C70 83 77 76 87 76 L271 143 C281 146 288 152 288 162 L288 306 Z " />
<glyph glyph-name="question" unicode="&#x3f;" horiz-adv-x="551" d="M317 208 C317 372 481 217 481 489 L481 529 C481 624 401 700 303 700 L248 700 C150 700 70 624 70 529 L70 480 C70 470 77 463 87 463 L182 463 C192 463 199 470 199 480 L199 522 C199 555 226 582 256 582 L295 582 C325 582 352 555 352 522 L352 493 C352 332 195 482 188 206 L188 190 C188 180 195 173 205 173 L300 173 C310 173 317 180 317 190 L317 208 Z M203 135 C193 135 186 128 186 118 L186 17 C186 7 193 0 203 0 L303 0 C313 0 320 7 320 17 L320 118 C320 128 313 135 303 135 L203 135 Z " />
<glyph glyph-name="at" unicode="&#x40;" horiz-adv-x="694" d="M624 529 C624 624 544 700 446 700 L248 700 C150 700 70 624 70 529 L70 56 C70 -39 150 -115 248 -115 L433 -115 C443 -115 450 -108 450 -98 L450 -14 C450 -4 443 3 433 3 L256 3 C226 3 199 30 199 63 L199 522 C199 555 226 582 256 582 L438 582 C468 582 495 555 495 522 L495 473 L487 473 C467 502 438 511 416 511 L394 511 C293 511 266 444 266 356 L266 218 C266 130 293 63 394 63 L416 63 C438 63 467 72 487 101 L495 101 L495 85 C495 75 502 68 512 68 L607 68 C617 68 624 75 624 85 L624 529 Z M495 222 C495 200 484 181 463 181 L427 181 C406 181 395 200 395 222 L395 352 C395 374 406 393 427 393 L463 393 C484 393 495 374 495 352 L495 222 Z " />
<glyph glyph-name="A" unicode="A" horiz-adv-x="552" d="M398 17 C401 7 408 0 418 0 L510 0 C520 0 527 7 527 17 L367 683 C364 693 358 700 348 700 L204 700 C194 700 188 693 185 683 L25 17 C25 7 32 0 42 0 L134 0 C144 0 151 7 154 17 L177 118 L375 118 L398 17 Z M270 523 L282 523 L348 235 L204 235 L270 523 Z " />
<glyph glyph-name="B" unicode="B" horiz-adv-x="521" d="M408 365 C429 393 452 428 452 465 L452 529 C452 624 372 700 274 700 L87 700 C77 700 70 693 70 683 L70 17 C70 7 77 0 87 0 L303 0 C401 0 481 76 481 171 L481 235 C481 287 446 334 408 365 L408 365 Z M199 406 L199 582 L266 582 C296 582 323 555 323 522 L323 466 C323 433 296 406 266 406 L199 406 Z M295 294 C325 294 352 267 352 234 L352 177 C352 144 325 117 295 117 L199 117 L199 294 L295 294 Z " />
<glyph glyph-name="C" unicode="C" horiz-adv-x="526" d="M352 173 C352 140 325 113 295 113 L246 113 C216 113 189 140 189 173 L189 527 C189 560 216 587 246 587 L295 587 C325 587 352 560 352 527 L352 501 C352 491 359 484 369 484 L464 484 C474 484 481 491 481 501 L481 534 C481 629 401 705 303 705 L238 705 C140 705 60 629 60 534 L60 166 C60 71 140 -5 238 -5 L303 -5 C401 -5 481 71 481 166 L481 199 C481 209 474 216 464 216 L369 216 C359 216 352 209 352 199 L352 173 Z " />
<glyph glyph-name="D" unicode="D" horiz-adv-x="551" d="M313 0 C411 0 491 76 491 171 L491 529 C491 624 411 700 313 700 L87 700 C77 700 70 693 70 683 L70 17 C70 7 77 0 87 0 L313 0 Z M305 582 C335 582 362 555 362 522 L362 177 C362 144 335 117 305 117 L199 117 L199 582 L305 582 Z " />
<glyph glyph-name="E" unicode="E" horiz-adv-x="477" d="M400 0 C410 0 417 7 417 17 L417 100 C417 110 410 117 400 117 L199 117 L199 304 L377 304 C387 304 394 311 394 321 L394 405 C394 415 387 422 377 422 L199 422 L199 582 L400 582 C410 582 417 589 417 599 L417 683 C417 693 410 700 400 700 L87 700 C77 700 70 693 70 683 L70 17 C70 7 77 0 87 0 L400 0 Z " />
<glyph glyph-name="F" unicode="F" horiz-adv-x="447" d="M199 278 L377 278 C387 278 394 285 394 295 L394 379 C394 389 387 396 377 396 L199 396 L199 582 L400 582 C410 582 417 589 417 599 L417 683 C417 693 410 700 400 700 L87 700 C77 700 70 693 70 683 L70 17 C70 7 77 0 87 0 L182 0 C192 0 199 7 199 17 L199 278 Z " />
<glyph glyph-name="G" unicode="G" horiz-adv-x="541" d="M258 295 C258 285 265 278 275 278 L352 278 L352 173 C352 140 325 113 295 113 L246 113 C216 113 189 140 189 173 L189 527 C189 560 216 587 246 587 L295 587 C325 587 352 560 352 527 L352 501 C352 491 359 484 369 484 L464 484 C474 484 481 491 481 501 L481 534 C481 629 401 705 303 705 L238 705 C140 705 60 629 60 534 L60 166 C60 71 140 -5 238 -5 L303 -5 C401 -5 481 71 481 166 L481 378 C481 388 474 395 464 395 L275 395 C265 395 258 388 258 378 L258 295 Z " />
<glyph glyph-name="H" unicode="H" horiz-adv-x="553" d="M199 683 C199 693 192 700 182 700 L87 700 C77 700 70 693 70 683 L70 17 C70 7 77 0 87 0 L182 0 C192 0 199 7 199 17 L199 281 L354 281 L354 17 C354 7 361 0 371 0 L466 0 C476 0 483 7 483 17 L483 683 C483 693 476 700 466 700 L371 700 C361 700 354 693 354 683 L354 399 L199 399 L199 683 Z " />
<glyph glyph-name="I" unicode="I" horiz-adv-x="269" d="M182 0 C192 0 199 7 199 17 L199 683 C199 693 192 700 182 700 L87 700 C77 700 70 693 70 683 L70 17 C70 7 77 0 87 0 L182 0 Z " />
<glyph glyph-name="J" unicode="J" horiz-adv-x="396" d="M91 142 C87 145 83 146 78 146 C74 146 70 145 66 142 L6 87 C2 83 0 79 0 74 C0 70 2 66 5 62 C23 41 60 -5 151 -5 C290 -5 346 84 346 175 L346 683 C346 693 339 700 329 700 L234 700 C224 700 217 693 217 683 L217 178 C217 178 217 113 151 113 C129 113 116 119 91 142 L91 142 Z " />
<glyph glyph-name="K" unicode="K" horiz-adv-x="527" d="M392 349 L494 683 C494 693 487 700 477 700 L384 700 C374 700 368 692 363 683 L279 407 L199 407 L199 683 C199 693 192 700 182 700 L87 700 C77 700 70 693 70 683 L70 17 C70 7 77 0 87 0 L182 0 C192 0 199 7 199 17 L199 292 L278 292 L364 17 C369 8 375 0 385 0 L479 0 C489 0 496 7 496 17 L392 349 Z " />
<glyph glyph-name="L" unicode="L" horiz-adv-x="447" d="M199 683 C199 693 192 700 182 700 L87 700 C77 700 70 693 70 683 L70 17 C70 7 77 0 87 0 L400 0 C410 0 417 7 417 17 L417 101 C417 111 410 118 400 118 L199 118 L199 683 Z " />
<glyph glyph-name="M" unicode="M" horiz-adv-x="712" d="M383 97 C393 97 397 104 401 114 L509 407 L513 407 L513 17 C513 7 520 0 530 0 L625 0 C635 0 642 7 642 17 L642 683 C642 693 635 700 625 700 L507 700 C497 700 490 692 487 683 L361 345 L351 345 L225 683 C222 692 215 700 205 700 L87 700 C77 700 70 693 70 683 L70 17 C70 7 77 0 87 0 L182 0 C192 0 199 7 199 17 L199 407 L203 407 L311 114 C315 104 319 97 329 97 L383 97 Z " />
<glyph glyph-name="N" unicode="N" horiz-adv-x="589" d="M213 700 L87 700 C77 700 70 693 70 683 L70 17 C70 7 77 0 87 0 L182 0 C192 0 199 7 199 17 L199 414 L204 414 L356 17 C360 8 366 0 376 0 L502 0 C512 0 519 7 519 17 L519 683 C519 693 512 700 502 700 L407 700 C397 700 390 693 390 683 L390 290 L385 290 L233 683 C229 692 223 700 213 700 L213 700 Z " />
<glyph glyph-name="O" unicode="O" horiz-adv-x="541" d="M238 -5 L303 -5 C401 -5 481 71 481 166 L481 534 C481 629 401 705 303 705 L238 705 C140 705 60 629 60 534 L60 166 C60 71 140 -5 238 -5 L238 -5 Z M295 587 C325 587 352 560 352 527 L352 173 C352 140 325 113 295 113 L246 113 C216 113 189 140 189 173 L189 527 C189 560 216 587 246 587 L295 587 Z " />
<glyph glyph-name="P" unicode="P" horiz-adv-x="531" d="M199 324 L199 582 L295 582 C325 582 352 555 352 522 L352 384 C352 351 325 324 295 324 L199 324 Z M87 700 C77 700 70 693 70 683 L70 17 C70 7 77 0 87 0 L182 0 C192 0 199 7 199 17 L199 205 L303 205 C401 205 481 281 481 376 L481 529 C481 624 401 700 303 700 L87 700 Z " />
<glyph glyph-name="Q" unicode="Q" horiz-adv-x="541" d="M303 705 L238 705 C140 705 60 629 60 534 L60 166 C60 79 127 8 213 -3 L257 -101 C261 -110 268 -118 278 -118 L369 -118 C379 -118 386 -111 386 -101 L341 -1 C421 16 481 84 481 166 L481 534 C481 629 401 705 303 705 L303 705 Z M352 173 C352 140 325 113 295 113 L246 113 C216 113 189 140 189 173 L189 527 C189 560 216 587 246 587 L295 587 C325 587 352 560 352 527 L352 173 Z " />
<glyph glyph-name="R" unicode="R" horiz-adv-x="535" d="M87 700 C77 700 70 693 70 683 L70 17 C70 7 77 0 87 0 L182 0 C192 0 199 7 199 17 L199 205 L268 205 L354 17 C357 7 364 0 374 0 L478 0 C488 0 495 7 495 17 L394 229 C445 259 480 313 480 376 L480 529 C480 624 400 700 302 700 L87 700 Z M199 324 L199 582 L294 582 C324 582 351 555 351 522 L351 384 C351 351 324 324 294 324 L199 324 Z " />
<glyph glyph-name="S" unicode="S" horiz-adv-x="506" d="M461 182 C461 479 169 334 169 500 L169 527 C169 560 190 587 220 587 L271 587 C301 587 322 560 322 527 L322 514 C322 504 329 497 339 497 L434 497 C444 497 451 504 451 514 L451 534 C451 629 377 705 279 705 L212 705 C114 705 40 629 40 534 L40 512 C40 215 332 360 332 194 L332 173 C332 140 311 113 281 113 L220 113 C190 113 169 140 169 173 L169 192 C169 202 162 209 152 209 L57 209 C47 209 40 202 40 192 L40 166 C40 71 114 -5 212 -5 L289 -5 C387 -5 461 71 461 166 L461 182 Z " />
<glyph glyph-name="T" unicode="T" horiz-adv-x="477" d="M35 600 C35 590 42 583 52 583 L174 583 L174 17 C174 7 181 0 191 0 L286 0 C296 0 303 7 303 17 L303 583 L425 583 C435 583 442 590 442 600 L442 683 C442 693 435 700 425 700 L52 700 C42 700 35 693 35 683 L35 600 Z " />
<glyph glyph-name="U" unicode="U" horiz-adv-x="551" d="M194 683 C194 693 187 700 177 700 L82 700 C72 700 65 693 65 683 L65 166 C65 71 145 -5 243 -5 L308 -5 C406 -5 486 71 486 166 L486 683 C486 693 479 700 469 700 L374 700 C364 700 357 693 357 683 L357 173 C357 140 330 113 300 113 L251 113 C221 113 194 140 194 173 L194 683 Z " />
<glyph glyph-name="V" unicode="V" horiz-adv-x="552" d="M282 177 L270 177 L154 683 C151 693 144 700 134 700 L42 700 C32 700 25 693 25 683 L185 17 C188 7 194 0 204 0 L348 0 C358 0 364 7 367 17 L527 683 C527 693 520 700 510 700 L418 700 C408 700 401 693 398 683 L282 177 Z " />
<glyph glyph-name="W" unicode="W" horiz-adv-x="742" d="M332 700 C322 700 313 693 311 683 L223 264 L155 683 C153 693 144 700 134 700 L42 700 C32 700 25 693 25 683 L141 17 C143 7 148 0 158 0 L272 0 C282 0 288 8 293 17 L371 403 L449 17 C454 8 460 0 470 0 L584 0 C594 0 599 7 601 17 L717 683 C717 693 710 700 700 700 L608 700 C598 700 589 693 587 683 L519 264 L431 683 C429 693 420 700 410 700 L332 700 Z " />
<glyph glyph-name="X" unicode="X" horiz-adv-x="532" d="M371 17 C376 8 382 0 392 0 L485 0 C495 0 502 7 502 17 L381 349 L500 683 C500 693 493 700 483 700 L391 700 C381 700 373 693 370 683 L272 407 L260 407 L162 683 C159 693 151 700 141 700 L49 700 C39 700 32 693 32 683 L151 349 L30 17 C30 7 37 0 47 0 L140 0 C150 0 156 8 161 17 L260 292 L272 292 L371 17 Z " />
<glyph glyph-name="Y" unicode="Y" horiz-adv-x="537" d="M333 224 L517 683 C517 693 510 700 500 700 L408 700 C398 700 392 692 388 683 L275 389 L262 389 L149 683 C145 692 139 700 129 700 L37 700 C27 700 20 693 20 683 L204 224 L204 17 C204 7 211 0 221 0 L316 0 C326 0 333 7 333 17 L333 224 Z " />
<glyph glyph-name="Z" unicode="Z" horiz-adv-x="476" d="M427 620 C429 624 431 628 431 633 L431 683 C431 693 424 700 414 700 L62 700 C52 700 45 693 45 683 L45 600 C45 590 52 583 62 583 L281 583 L49 80 C47 76 45 72 45 67 L45 17 C45 7 52 0 62 0 L414 0 C424 0 431 7 431 17 L431 100 C431 110 424 117 414 117 L197 117 L427 620 Z " />
<glyph glyph-name="bracketleft" unicode="&#x5b;" horiz-adv-x="397" d="M310 -177 C320 -177 327 -170 327 -160 L327 -77 C327 -67 320 -60 310 -60 L199 -60 L199 688 L310 688 C320 688 327 695 327 705 L327 788 C327 798 320 805 310 805 L87 805 C77 805 70 798 70 788 L70 -160 C70 -170 77 -177 87 -177 L310 -177 Z " />
<glyph glyph-name="backslash" unicode="&#x5c;" horiz-adv-x="571" d="M484 -179 C494 -179 501 -172 501 -162 L199 787 C196 797 192 804 182 804 L87 804 C77 804 70 797 70 787 L372 -162 C375 -172 379 -179 389 -179 L484 -179 Z " />
<glyph glyph-name="bracketright" unicode="&#x5d;" horiz-adv-x="397" d="M310 -177 C320 -177 327 -170 327 -160 L327 788 C327 798 320 805 310 805 L87 805 C77 805 70 798 70 788 L70 705 C70 695 77 688 87 688 L198 688 L198 -60 L87 -60 C77 -60 70 -67 70 -77 L70 -160 C70 -170 77 -177 87 -177 L310 -177 Z " />
<glyph glyph-name="asciicircum" unicode="&#x5e;" horiz-adv-x="454" d="M174 700 C164 700 158 692 153 683 L70 516 C70 506 77 499 87 499 L171 499 C181 499 188 507 192 516 L227 586 L262 516 C266 507 273 499 283 499 L367 499 C377 499 384 506 384 516 L301 683 C296 692 290 700 280 700 L174 700 Z " />
<glyph glyph-name="underscore" unicode="&#x5f;" horiz-adv-x="358" d="M271 -140 C281 -140 288 -133 288 -123 L288 -40 C288 -30 281 -23 271 -23 L87 -23 C77 -23 70 -30 70 -40 L70 -123 C70 -133 77 -140 87 -140 L271 -140 Z " />
<glyph glyph-name="grave" unicode="&#x60;" horiz-adv-x="334" d="M247 520 C257 520 264 527 264 537 L199 683 C195 692 188 700 178 700 L87 700 C77 700 70 693 70 683 L135 537 C139 528 146 520 156 520 L247 520 Z " />
<glyph glyph-name="a" unicode="a" horiz-adv-x="443" d="M179 168 C179 190 190 209 211 209 L264 209 L264 154 C264 132 253 113 232 113 L211 113 C190 113 179 132 179 154 L179 168 Z M97 497 C89 494 84 488 84 480 C84 478 84 470 102 398 C106 386 114 386 123 386 C146 391 165 402 206 402 C264 402 264 354 264 329 L264 315 L176 315 C84 315 50 264 50 176 L50 134 C50 46 79 -5 171 -5 L185 -5 C207 -5 236 4 256 33 L264 33 L264 17 C264 7 271 0 281 0 L376 0 C386 0 393 7 393 17 L393 330 C393 377 393 520 222 520 C138 520 119 506 97 497 L97 497 Z " />
<glyph glyph-name="b" unicode="b" horiz-adv-x="478" d="M199 361 C199 383 210 402 231 402 L267 402 C288 402 299 383 299 361 L299 154 C299 132 288 113 267 113 L231 113 C210 113 199 132 199 154 L199 361 Z M199 682 C199 693 195 700 184 700 L88 700 C77 700 70 693 70 682 L70 17 C70 7 77 0 87 0 L182 0 C192 0 199 7 199 17 L199 33 L207 33 C227 4 256 -5 278 -5 L300 -5 C401 -5 428 62 428 150 L428 365 C428 453 401 520 300 520 L278 520 C256 520 227 511 207 482 L199 482 L199 682 Z " />
<glyph glyph-name="c" unicode="c" horiz-adv-x="434" d="M55 149 C60 73 104 -5 198 -5 L256 -5 C350 -5 394 73 399 149 L399 162 C399 172 392 179 382 179 L287 179 C277 179 270 172 270 162 L270 154 C270 132 259 113 238 113 L216 113 C195 113 184 132 184 154 L184 361 C184 383 195 402 216 402 L238 402 C259 402 270 383 270 361 L270 353 C270 343 277 336 287 336 L382 336 C392 336 399 343 399 353 L399 366 C394 442 350 520 256 520 L198 520 C104 520 60 442 55 366 L55 149 Z " />
<glyph glyph-name="d" unicode="d" horiz-adv-x="478" d="M279 154 C279 132 268 113 247 113 L211 113 C190 113 179 132 179 154 L179 361 C179 383 190 402 211 402 L247 402 C268 402 279 383 279 361 L279 154 Z M279 482 L271 482 C251 511 222 520 200 520 L178 520 C77 520 50 453 50 365 L50 150 C50 62 77 -5 178 -5 L200 -5 C222 -5 251 4 271 33 L279 33 L279 17 C279 7 286 0 296 0 L391 0 C401 0 408 7 408 17 L408 682 C408 693 401 700 390 700 L294 700 C283 700 279 693 279 682 L279 482 Z " />
<glyph glyph-name="e" unicode="e" horiz-adv-x="449" d="M384 72 C386 75 387 79 387 82 C387 87 385 92 380 95 L321 143 C318 145 314 146 311 146 C305 146 301 143 297 139 C286 128 278 113 246 113 L216 113 C195 113 184 132 184 154 L184 203 L382 203 C392 203 399 210 399 220 L399 366 C394 442 350 520 256 520 L198 520 C104 520 60 442 55 366 L55 149 C60 73 104 -5 198 -5 L246 -5 C246 -5 336 -5 384 72 L384 72 Z M184 361 C184 383 195 402 216 402 L238 402 C259 402 270 383 270 361 L270 307 L184 307 L184 361 Z " />
<glyph glyph-name="f" unicode="f" horiz-adv-x="343" d="M25 414 C25 404 32 397 42 397 L91 397 L91 17 C91 7 98 0 108 0 L203 0 C213 0 220 7 220 17 L220 397 L291 397 C301 397 308 404 308 414 L308 498 C308 508 301 515 291 515 L220 515 L220 577 C220 599 241 618 262 618 L291 618 C301 618 308 625 308 635 L308 718 C308 728 301 735 291 735 L244 735 C150 735 96 657 91 581 L91 515 L42 515 C32 515 25 508 25 498 L25 414 Z " />
<glyph glyph-name="g" unicode="g" horiz-adv-x="478" d="M279 154 C279 132 268 113 247 113 L211 113 C190 113 179 132 179 154 L179 361 C179 383 190 402 211 402 L247 402 C268 402 279 383 279 361 L279 154 Z M279 -24 C279 -49 276 -85 208 -85 C167 -85 154 -79 131 -74 C122 -74 114 -74 110 -86 C92 -158 92 -167 92 -169 C92 -177 97 -181 105 -184 C128 -191 140 -203 224 -203 C407 -203 408 -72 408 -25 L408 497 C408 508 401 515 390 515 L294 515 C283 515 279 508 279 497 L279 482 L271 482 C251 511 222 520 200 520 L178 520 C77 520 50 453 50 365 L50 150 C50 62 77 -5 178 -5 L200 -5 C222 -5 251 4 271 33 L279 33 L279 -24 Z " />
<glyph glyph-name="h" unicode="h" horiz-adv-x="480" d="M199 345 C210 393 224 402 246 402 L259 402 C280 402 291 383 291 361 L291 17 C291 7 298 0 308 0 L403 0 C413 0 420 7 420 17 L420 365 C420 453 408 520 316 520 L301 520 C279 520 236 519 207 463 L199 463 L199 682 C199 693 195 700 184 700 L88 700 C77 700 70 693 70 682 L70 17 C70 7 77 0 87 0 L182 0 C192 0 199 7 199 17 L199 345 Z " />
<glyph glyph-name="i" unicode="i" horiz-adv-x="269" d="M182 0 C192 0 199 7 199 17 L199 498 C199 508 192 515 182 515 L87 515 C77 515 70 508 70 498 L70 17 C70 7 77 0 87 0 L182 0 Z M185 565 C195 565 202 572 202 582 L202 683 C202 693 195 700 185 700 L85 700 C75 700 68 693 68 683 L68 582 C68 572 75 565 85 565 L185 565 Z " />
<glyph glyph-name="j" unicode="j" horiz-adv-x="269" d="M41 -186 C41 -186 199 -142 199 12 L199 498 C199 508 192 515 182 515 L87 515 C77 515 70 508 70 498 L70 17 C70 17 70 -41 -8 -67 C-15 -69 -19 -76 -19 -82 C-19 -84 -18 -87 -17 -89 L19 -177 C22 -184 28 -188 34 -188 C36 -188 39 -187 41 -186 L41 -186 Z M185 565 C195 565 202 572 202 582 L202 683 C202 693 195 700 185 700 L85 700 C75 700 68 693 68 683 L68 582 C68 572 75 565 85 565 L185 565 Z " />
<glyph glyph-name="k" unicode="k" horiz-adv-x="462" d="M375 270 L442 498 C442 508 435 515 425 515 L337 515 C327 515 314 508 311 498 L259 328 L199 328 L199 683 C199 693 192 700 182 700 L87 700 C77 700 70 693 70 683 L70 17 C70 7 77 0 87 0 L182 0 C192 0 199 7 199 17 L199 213 L258 213 L309 17 C311 7 320 0 330 0 L424 0 C434 0 441 7 441 17 L375 270 Z " />
<glyph glyph-name="l" unicode="l" horiz-adv-x="269" d="M182 0 C192 0 199 7 199 17 L199 683 C199 693 192 700 182 700 L87 700 C77 700 70 693 70 683 L70 17 C70 7 77 0 87 0 L182 0 Z " />
<glyph glyph-name="m" unicode="m" horiz-adv-x="691" d="M502 17 C502 7 509 0 519 0 L614 0 C624 0 631 7 631 17 L631 365 C631 453 594 520 502 520 C481 520 442 520 403 463 L386 463 C363 498 349 520 297 520 C274 520 243 520 207 463 L199 463 L199 497 C199 508 195 515 184 515 L88 515 C77 515 70 508 70 497 L70 17 C70 7 77 0 87 0 L182 0 C192 0 199 7 199 17 L199 345 C207 383 219 402 248 402 C281 402 286 383 286 348 L286 17 C286 7 293 0 303 0 L398 0 C408 0 415 7 415 17 L415 345 C423 383 435 402 464 402 C497 402 502 383 502 348 L502 17 Z " />
<glyph glyph-name="n" unicode="n" horiz-adv-x="480" d="M199 345 C210 393 224 402 246 402 L259 402 C280 402 291 383 291 361 L291 17 C291 7 298 0 308 0 L403 0 C413 0 420 7 420 17 L420 365 C420 453 408 520 316 520 L301 520 C279 520 236 519 207 463 L199 463 L199 497 C199 508 195 515 184 515 L88 515 C77 515 70 508 70 497 L70 17 C70 7 77 0 87 0 L182 0 C192 0 199 7 199 17 L199 345 Z " />
<glyph glyph-name="o" unicode="o" horiz-adv-x="454" d="M216 113 C195 113 184 132 184 154 L184 361 C184 383 195 402 216 402 L238 402 C259 402 270 383 270 361 L270 154 C270 132 259 113 238 113 L216 113 Z M256 -5 C350 -5 394 73 399 149 L399 366 C394 442 350 520 256 520 L198 520 C104 520 60 442 55 366 L55 149 C60 73 104 -5 198 -5 L256 -5 Z " />
<glyph glyph-name="p" unicode="p" horiz-adv-x="478" d="M199 361 C199 383 210 402 231 402 L267 402 C288 402 299 383 299 361 L299 154 C299 132 288 113 267 113 L231 113 C210 113 199 132 199 154 L199 361 Z M199 497 C199 508 195 515 184 515 L88 515 C77 515 70 508 70 497 L70 -157 C70 -167 77 -174 87 -174 L182 -174 C192 -174 199 -167 199 -157 L199 33 L207 33 C227 4 256 -5 278 -5 L300 -5 C401 -5 428 62 428 150 L428 365 C428 453 401 520 300 520 L278 520 C256 520 227 511 207 482 L199 482 L199 497 Z " />
<glyph glyph-name="q" unicode="q" horiz-adv-x="478" d="M279 154 C279 132 268 113 247 113 L211 113 C190 113 179 132 179 154 L179 361 C179 383 190 402 211 402 L247 402 C268 402 279 383 279 361 L279 154 Z M279 482 L271 482 C251 511 222 520 200 520 L178 520 C77 520 50 453 50 365 L50 150 C50 62 77 -5 178 -5 L200 -5 C222 -5 251 4 271 33 L279 33 L279 -157 C279 -167 286 -174 296 -174 L391 -174 C401 -174 408 -167 408 -157 L408 497 C408 508 401 515 390 515 L294 515 C283 515 279 508 279 497 L279 482 Z " />
<glyph glyph-name="r" unicode="r" horiz-adv-x="349" d="M305 396 C315 396 322 403 322 413 L329 495 C329 505 326 510 316 514 C303 518 291 520 275 520 C253 520 228 518 207 463 L199 463 L199 497 C199 508 195 515 184 515 L88 515 C77 515 70 508 70 497 L70 17 C70 7 77 0 87 0 L182 0 C192 0 199 7 199 17 L199 345 C220 399 245 402 267 402 C284 402 291 399 305 396 L305 396 Z " />
<glyph glyph-name="s" unicode="s" horiz-adv-x="429" d="M45 369 C45 171 260 235 260 158 L260 141 C260 119 249 108 228 108 L206 108 C185 108 174 127 174 149 L174 154 C174 164 167 171 157 171 L62 171 C52 171 45 164 45 154 L45 149 C50 73 94 -5 188 -5 L246 -5 C340 -5 384 62 389 138 L389 151 C389 348 174 284 174 362 L174 374 C174 396 185 407 206 407 L221 407 C242 407 253 388 253 366 L253 361 C253 351 260 344 270 344 L365 344 C375 344 382 351 382 361 L382 366 C377 442 333 520 239 520 L188 520 C94 520 50 453 45 377 L45 369 Z " />
<glyph glyph-name="t" unicode="t" horiz-adv-x="337" d="M25 414 C25 404 32 397 42 397 L91 397 L91 154 C96 78 150 0 244 0 L290 0 C300 0 307 7 307 17 L307 100 C307 110 300 117 290 117 L262 117 C241 117 220 136 220 158 L220 397 L290 397 C300 397 307 404 307 414 L307 498 C307 508 300 515 290 515 L220 515 L220 683 C220 693 213 700 203 700 L108 700 C98 700 91 693 91 683 L91 515 L42 515 C32 515 25 508 25 498 L25 414 Z " />
<glyph glyph-name="u" unicode="u" horiz-adv-x="464" d="M404 498 C404 508 397 515 387 515 L292 515 C282 515 275 508 275 498 L275 154 C275 132 264 113 243 113 L221 113 C200 113 189 132 189 154 L189 498 C189 508 182 515 172 515 L77 515 C67 515 60 508 60 498 L60 149 C65 73 109 -5 203 -5 L261 -5 C355 -5 399 73 404 149 L404 498 Z " />
<glyph glyph-name="v" unicode="v" horiz-adv-x="426" d="M285 0 C295 0 301 7 304 17 L411 498 C411 508 404 515 394 515 L302 515 C292 515 285 508 282 498 L219 181 L207 181 L144 498 C141 508 134 515 124 515 L32 515 C22 515 15 508 15 498 L122 17 C125 7 131 0 141 0 L285 0 Z " />
<glyph glyph-name="w" unicode="w" horiz-adv-x="600" d="M266 515 C256 515 249 508 246 498 L188 255 L145 498 C142 508 135 515 125 515 L32 515 C22 515 15 508 15 498 L119 17 C122 7 129 0 139 0 L223 0 C233 0 238 7 241 17 L300 266 L359 17 C362 7 367 0 377 0 L461 0 C471 0 478 7 481 17 L585 498 C585 508 578 515 568 515 L475 515 C465 515 458 508 455 498 L412 255 L354 498 C351 508 344 515 334 515 L266 515 Z " />
<glyph glyph-name="x" unicode="x" horiz-adv-x="428" d="M279 17 C284 8 290 0 300 0 L391 0 C401 0 408 7 408 17 L329 258 L405 498 C405 508 398 515 388 515 L297 515 C287 515 281 507 276 498 L220 319 L208 319 L152 498 C147 507 141 515 131 515 L40 515 C30 515 23 508 23 498 L99 258 L20 17 C20 7 27 0 37 0 L128 0 C138 0 144 8 149 17 L208 201 L220 201 L279 17 Z " />
<glyph glyph-name="y" unicode="y" horiz-adv-x="426" d="M135 -39 C130 -60 115 -86 77 -86 L41 -86 C31 -86 24 -93 24 -103 L24 -186 C24 -196 31 -203 41 -203 L120 -203 C143 -203 259 -182 297 -11 L411 498 C411 508 404 515 394 515 L302 515 C292 515 285 508 282 498 L219 181 L207 181 L144 498 C141 508 134 515 124 515 L32 515 C22 515 15 508 15 498 L135 -39 Z " />
<glyph glyph-name="z" unicode="z" horiz-adv-x="396" d="M191 117 L352 436 C354 440 356 443 356 448 L356 498 C356 508 349 515 339 515 L57 515 C47 515 40 508 40 498 L40 415 C40 405 47 398 57 398 L205 398 L44 79 C42 75 40 72 40 67 L40 17 C40 7 47 0 57 0 L339 0 C349 0 356 7 356 17 L356 100 C356 110 349 117 339 117 L191 117 Z " />
<glyph glyph-name="braceleft" unicode="&#x7b;" horiz-adv-x="462" d="M165 -7 C165 -102 245 -178 343 -178 L367 -178 C377 -178 384 -171 384 -161 L384 -78 C384 -68 377 -61 367 -61 L351 -61 C321 -61 294 -34 294 -1 L294 204 C294 245 279 282 254 312 C284 342 302 383 302 429 L302 628 C302 661 329 688 359 688 L375 688 C385 688 392 695 392 705 L392 788 C392 798 385 805 375 805 L351 805 C253 805 173 729 173 634 L173 435 C173 402 146 375 116 375 L87 375 C77 375 70 368 70 358 L70 275 C70 265 77 258 87 258 L112 258 C140 255 165 229 165 198 L165 -7 Z " />
<glyph glyph-name="bar" unicode="&#x7c;" horiz-adv-x="269" d="M182 -178 C192 -178 199 -171 199 -161 L199 788 C199 798 192 805 182 805 L87 805 C77 805 70 798 70 788 L70 -161 C70 -171 77 -178 87 -178 L182 -178 Z " />
<glyph glyph-name="braceright" unicode="&#x7d;" horiz-adv-x="462" d="M297 198 C297 229 322 255 350 258 L375 258 C385 258 392 265 392 275 L392 358 C392 368 385 375 375 375 L346 375 C316 375 289 402 289 435 L289 634 C289 729 209 805 111 805 L87 805 C77 805 70 798 70 788 L70 705 C70 695 77 688 87 688 L103 688 C133 688 160 661 160 628 L160 429 C160 383 178 342 208 312 C183 282 168 245 168 204 L168 -1 C168 -34 141 -61 111 -61 L95 -61 C85 -61 78 -68 78 -78 L78 -161 C78 -171 85 -178 95 -178 L119 -178 C217 -178 297 -102 297 -7 L297 198 Z " />
<glyph glyph-name="asciitilde" unicode="&#x7e;" horiz-adv-x="396" d="M244 159 C271 159 289 169 315 185 C321 190 326 197 326 205 C326 206 326 208 307 274 C305 280 299 286 289 286 C273 286 259 276 244 276 C203 276 195 315 154 315 C128 315 107 305 82 289 C75 284 70 277 70 269 L91 200 C93 194 100 189 109 189 C126 189 139 198 154 198 C196 198 203 159 244 159 L244 159 Z " />
<glyph glyph-name="uni00A0" unicode="&#xa0;" horiz-adv-x="198" d="" />
<glyph glyph-name="exclamdown" unicode="&#xa1;" horiz-adv-x="269" d="M186 501 C185 511 179 518 169 518 L100 518 C90 518 84 511 83 501 L70 383 L70 1 C70 -9 77 -16 87 -16 L182 -16 C192 -16 199 -9 199 1 L199 383 L186 501 Z M87 700 C77 700 70 693 70 683 L70 592 C70 582 77 575 87 575 L182 575 C192 575 199 582 199 592 L199 683 C199 693 192 700 182 700 L87 700 Z " />
<glyph glyph-name="cent" unicode="&#xa2;" horiz-adv-x="561" d="M329 -137 C339 -137 346 -130 346 -120 L346 -2 C428 12 491 82 491 166 L491 199 C491 209 484 216 474 216 L379 216 C369 216 362 209 362 199 L362 173 C362 140 335 113 305 113 L256 113 C226 113 199 140 199 173 L199 527 C199 560 226 587 256 587 L305 587 C335 587 362 560 362 527 L362 501 C362 491 369 484 379 484 L474 484 C484 484 491 491 491 501 L491 534 C491 618 428 687 346 702 L346 815 C346 825 339 832 329 832 L234 832 C224 832 217 825 217 815 L217 702 C133 688 70 619 70 534 L70 166 C70 81 133 11 217 -2 L217 -120 C217 -130 224 -137 234 -137 L329 -137 Z " />
<glyph glyph-name="sterling" unicode="&#xa3;" horiz-adv-x="556" d="M469 0 C479 0 486 7 486 17 L486 101 C486 111 479 118 469 118 L268 118 L268 271 L317 271 C327 271 334 278 334 288 L334 372 C334 382 327 389 317 389 L268 389 L268 541 C268 563 279 582 300 582 L322 582 C343 582 354 563 354 541 L354 533 C354 523 361 516 371 516 L466 516 C476 516 483 523 483 533 L483 546 C483 622 434 700 340 700 L282 700 C188 700 139 622 139 546 L139 389 L87 389 C77 389 70 382 70 372 L70 288 C70 278 77 271 87 271 L139 271 L139 118 L87 118 C77 118 70 111 70 101 L70 17 C70 7 77 0 87 0 L469 0 Z " />
<glyph glyph-name="currency" unicode="&#xa4;" horiz-adv-x="490" d="M206 359 C199 359 193 358 187 357 L172 391 C169 401 165 408 155 408 L87 408 C77 408 70 401 70 391 L109 303 C98 285 90 263 90 242 L90 166 C90 144 98 123 109 104 L70 17 C70 7 77 0 87 0 L155 0 C165 0 169 7 172 17 L187 50 C193 49 199 49 206 49 L283 49 C291 49 297 49 303 50 L318 17 C321 7 325 0 335 0 L403 0 C413 0 420 7 420 17 L381 104 C392 123 400 144 400 166 L400 242 C400 263 392 285 381 303 L420 391 C420 401 413 408 403 408 L335 408 C325 408 321 401 318 391 L303 357 C297 358 291 359 284 359 L206 359 Z M270 270 C286 270 302 255 302 238 L302 170 C302 153 286 138 270 138 L220 138 C204 138 188 153 188 170 L188 238 C188 255 204 270 220 270 L270 270 Z " />
<glyph glyph-name="yen" unicode="&#xa5;" horiz-adv-x="637" d="M476 78 C486 78 493 85 493 95 L493 178 C493 188 486 195 476 195 L383 195 L383 224 L395 255 L476 255 C486 255 493 262 493 272 L493 355 C493 365 486 372 476 372 L442 372 L567 683 C567 693 560 700 550 700 L458 700 C448 700 442 692 438 683 L325 389 L312 389 L199 683 C195 692 189 700 179 700 L87 700 C77 700 70 693 70 683 L194 372 L161 372 C151 372 144 365 144 355 L144 272 C144 262 151 255 161 255 L241 255 L254 224 L254 195 L161 195 C151 195 144 188 144 178 L144 95 C144 85 151 78 161 78 L254 78 L254 17 C254 7 261 0 271 0 L366 0 C376 0 383 7 383 17 L383 78 L476 78 Z " />
<glyph glyph-name="brokenbar" unicode="&#xa6;" horiz-adv-x="269" d="M182 382 C192 382 199 389 199 399 L199 788 C199 798 192 805 182 805 L87 805 C77 805 70 798 70 788 L70 399 C70 389 77 382 87 382 L182 382 Z M182 -178 C192 -178 199 -171 199 -161 L199 228 C199 238 192 245 182 245 L87 245 C77 245 70 238 70 228 L70 -161 C70 -171 77 -178 87 -178 L182 -178 Z " />
<glyph glyph-name="section" unicode="&#xa7;" horiz-adv-x="484" d="M70 549 C70 498 87 463 114 440 C89 415 74 381 70 344 L70 331 C70 252 112 213 163 192 L174 187 C252 158 282 162 285 120 L285 108 C285 86 274 75 253 75 L231 75 C210 75 199 94 199 116 L199 121 C199 131 192 138 182 138 L87 138 C77 138 70 131 70 121 L70 116 C75 40 119 -38 213 -38 L261 -38 C355 -38 409 29 414 105 L414 113 C414 164 396 198 369 221 C396 248 411 284 414 323 L414 331 C414 532 203 468 199 542 L199 554 C199 576 210 587 231 587 L246 587 C267 587 278 568 278 546 L278 541 C278 531 285 524 295 524 L390 524 C400 524 407 531 407 541 L407 546 C402 622 358 700 264 700 L213 700 C119 700 75 633 70 557 L70 549 Z M231 293 C210 293 199 304 199 326 L199 336 C199 358 210 369 231 369 L246 369 C267 369 278 358 278 336 L278 326 C278 304 267 293 246 293 L231 293 Z " />
<glyph glyph-name="dieresis" unicode="&#xa8;" horiz-adv-x="435" d="M179 574 C188 574 195 581 195 590 L195 684 C195 693 188 700 179 700 L86 700 C76 700 70 693 70 684 L70 590 C70 581 76 574 86 574 L179 574 Z M349 574 C358 574 365 581 365 590 L365 684 C365 693 358 700 349 700 L256 700 C246 700 240 693 240 684 L240 590 C240 581 246 574 256 574 L349 574 Z " />
<glyph glyph-name="copyright" unicode="&#xa9;" horiz-adv-x="851" d="M426 699 C230 699 70 540 70 344 C70 148 230 -11 426 -11 C621 -11 781 148 781 344 C781 540 621 699 426 699 L426 699 Z M426 70 C273 70 152 192 152 344 C152 497 273 620 426 620 C580 620 702 497 702 344 C702 192 580 70 426 70 L426 70 Z M266 263 C270 204 311 144 384 144 L462 144 C535 144 576 204 580 263 L580 273 C580 280 575 286 567 286 L494 286 C486 286 481 280 481 273 L481 266 C481 249 465 235 448 235 L398 235 C381 235 365 249 365 266 L365 426 C365 443 381 457 398 457 L448 457 C465 457 481 443 481 426 L481 419 C481 412 486 406 494 406 L567 406 C575 406 580 412 580 419 L580 429 C576 488 535 548 462 548 L384 548 C311 548 270 488 266 429 L266 263 Z " />
<glyph glyph-name="ordfeminine" unicode="&#xaa;" horiz-adv-x="391" d="M158 493 C158 506 170 514 182 514 L234 514 L234 485 C234 472 221 464 208 464 L182 464 C170 464 158 472 158 485 L158 493 Z M97 686 C93 685 90 682 90 677 C90 676 90 663 100 620 C102 613 107 613 112 613 C127 616 157 622 181 622 C221 622 234 602 234 588 L234 580 L165 580 C110 580 70 550 70 497 L70 473 C70 421 110 391 165 391 L179 391 C191 391 216 396 229 413 L234 413 L234 404 C234 398 238 394 244 394 L311 394 C317 394 321 398 321 404 L321 588 C321 616 300 700 190 700 C141 700 110 691 97 686 L97 686 Z " />
<glyph glyph-name="guillemotleft" unicode="&#xab;" horiz-adv-x="705" d="M219 281 L345 498 C345 508 338 515 328 515 L223 515 C213 515 202 507 197 498 L70 281 L70 259 L199 17 C204 8 210 0 220 0 L327 0 C337 0 344 7 344 17 L219 259 L219 281 Z M509 281 L635 498 C635 508 628 515 618 515 L513 515 C503 515 492 507 487 498 L360 281 L360 259 L489 17 C494 8 500 0 510 0 L617 0 C627 0 634 7 634 17 L509 259 L509 281 Z " />
<glyph glyph-name="logicalnot" unicode="&#xac;" horiz-adv-x="487" d="M288 75 C288 65 295 58 305 58 L400 58 C410 58 417 65 417 75 L417 296 C417 306 410 313 400 313 L87 313 C77 313 70 306 70 296 L70 212 C70 202 77 195 87 195 L288 195 L288 75 Z " />
<glyph glyph-name="uni00AD" unicode="&#xad;" horiz-adv-x="198" d="" />
<glyph glyph-name="registered" unicode="&#xae;" horiz-adv-x="851" d="M426 699 C230 699 70 540 70 344 C70 148 230 -11 426 -11 C621 -11 781 148 781 344 C781 540 621 699 426 699 L426 699 Z M426 70 C273 70 152 192 152 344 C152 497 273 620 426 620 C580 620 702 497 702 344 C702 192 580 70 426 70 L426 70 Z M384 357 L384 459 L451 459 C468 459 483 443 483 424 L483 391 C483 372 468 357 451 357 L384 357 Z M285 161 C285 154 290 148 298 148 L371 148 C379 148 384 154 384 161 L384 266 L439 266 L488 158 C490 152 494 148 500 148 L580 148 C586 148 590 152 590 158 L532 279 C561 297 581 328 581 364 L581 451 C581 506 536 550 479 550 L298 550 C290 550 285 544 285 537 L285 161 Z " />
<glyph glyph-name="macron" unicode="&#xaf;" horiz-adv-x="360" d="M273 583 C283 583 290 590 290 600 L290 683 C290 693 283 700 273 700 L87 700 C77 700 70 693 70 683 L70 600 C70 590 77 583 87 583 L273 583 Z " />
<glyph glyph-name="degree" unicode="&#xb0;" horiz-adv-x="412" d="M205 751 C131 751 70 691 70 615 C70 541 131 480 205 480 C281 480 342 541 342 615 C342 691 281 751 205 751 L205 751 Z M205 570 C180 570 160 592 160 615 C160 641 180 661 205 661 C229 661 251 641 251 615 C251 592 229 570 205 570 L205 570 Z " />
<glyph glyph-name="plusminus" unicode="&#xb1;" horiz-adv-x="403" d="M249 162 C259 162 266 169 266 179 L266 272 L316 272 C326 272 333 279 333 289 L333 372 C333 382 326 389 316 389 L266 389 L266 483 C266 493 259 500 249 500 L154 500 C144 500 137 493 137 483 L137 389 L87 389 C77 389 70 382 70 372 L70 289 C70 279 77 272 87 272 L137 272 L137 179 C137 169 144 162 154 162 L249 162 Z M316 0 C326 0 333 7 333 17 L333 100 C333 110 326 117 316 117 L87 117 C77 117 70 110 70 100 L70 17 C70 7 77 0 87 0 L316 0 Z " />
<glyph glyph-name="twosuperior" unicode="&#xb2;" horiz-adv-x="356" d="M161 471 C161 522 284 468 284 611 L284 625 C284 667 250 700 207 700 L152 700 C109 700 76 667 76 625 L76 593 C76 588 79 585 84 585 L142 585 C147 585 150 588 150 593 L150 598 C150 613 157 624 170 624 L180 624 C193 624 199 614 199 605 L199 600 C199 531 70 592 70 461 L70 401 C70 397 73 394 77 394 L279 394 C283 394 286 397 286 401 L286 463 C286 468 283 471 279 471 L161 471 Z " />
<glyph glyph-name="threesuperior" unicode="&#xb3;" horiz-adv-x="348" d="M238 547 C260 557 278 578 278 611 L278 625 C278 667 244 700 201 700 L146 700 C103 700 70 667 70 625 L70 593 C70 588 73 585 78 585 L136 585 C141 585 144 588 144 593 L144 598 C144 613 151 624 164 624 L174 624 C187 624 193 614 193 605 L193 599 C193 590 187 580 174 580 L157 580 C153 580 150 577 150 572 L150 522 C150 517 153 514 157 514 L174 514 C187 514 193 504 193 495 L193 489 C193 480 187 470 174 470 L164 470 C151 470 144 481 144 496 L144 501 C144 506 141 509 136 509 L78 509 C73 509 70 506 70 501 L70 469 C70 427 103 394 146 394 L201 394 C244 394 278 427 278 469 L278 483 C278 516 260 537 238 547 L238 547 Z " />
<glyph glyph-name="acute" unicode="&#xb4;" horiz-adv-x="330" d="M178 538 C188 538 195 546 199 555 L260 683 C260 693 253 700 243 700 L152 700 C142 700 135 692 131 683 L70 555 C70 545 77 538 87 538 L178 538 Z " />
<glyph glyph-name="mu" unicode="&#xb5;" horiz-adv-x="484" d="M182 -174 C192 -174 199 -167 199 -157 L199 -4 C203 -5 208 -5 213 -5 L271 -5 C365 -5 409 73 414 149 L414 498 C414 508 407 515 397 515 L302 515 C292 515 285 508 285 498 L285 154 C285 132 274 113 253 113 L231 113 C210 113 199 132 199 154 L199 498 C199 508 192 515 182 515 L87 515 C77 515 70 508 70 498 L70 -157 C70 -167 77 -174 87 -174 L182 -174 Z " />
<glyph glyph-name="paragraph" unicode="&#xb6;" horiz-adv-x="685" d="M486 17 C486 7 493 0 503 0 L598 0 C608 0 615 7 615 17 L615 683 C615 693 608 700 598 700 L248 700 C150 700 70 624 70 529 L70 419 C70 324 150 248 248 248 L302 248 L302 17 C302 7 309 0 319 0 L414 0 C424 0 431 7 431 17 L431 582 L486 582 L486 17 Z " />
<glyph glyph-name="periodcentered" unicode="&#xb7;" horiz-adv-x="274" d="M187 162 C197 162 204 169 204 179 L204 280 C204 290 197 297 187 297 L87 297 C77 297 70 290 70 280 L70 179 C70 169 77 162 87 162 L187 162 Z " />
<glyph glyph-name="cedilla" unicode="&#xb8;" horiz-adv-x="304" d="M85 -44 C83 -47 82 -51 82 -54 L82 -90 C82 -97 87 -102 94 -102 L147 -102 C147 -102 161 -102 161 -117 C161 -131 147 -131 147 -131 L82 -131 C75 -131 70 -136 70 -143 L70 -183 C70 -190 75 -195 82 -195 L164 -195 C218 -195 234 -171 234 -100 C234 -59 199 -38 164 -38 L182 -7 C182 3 175 10 165 10 L127 10 C120 10 114 5 111 0 L85 -44 Z " />
<glyph glyph-name="onesuperior" unicode="&#xb9;" horiz-adv-x="359" d="M146 623 L146 471 L92 471 C86 471 81 466 81 460 L81 405 C81 399 86 394 92 394 L278 394 C284 394 289 399 289 405 L289 460 C289 466 284 471 278 471 L233 471 L233 689 C233 695 228 700 222 700 L145 700 L81 674 C75 672 70 666 70 660 L70 608 C70 602 75 597 81 597 L146 623 Z " />
<glyph glyph-name="ordmasculine" unicode="&#xba;" horiz-adv-x="412" d="M205 751 C131 751 70 691 70 615 C70 541 131 480 205 480 C281 480 342 541 342 615 C342 691 281 751 205 751 L205 751 Z M205 570 C180 570 160 592 160 615 C160 641 180 661 205 661 C229 661 251 641 251 615 C251 592 229 570 205 570 L205 570 Z " />
<glyph glyph-name="guillemotright" unicode="&#xbb;" horiz-adv-x="705" d="M486 259 L361 17 C361 7 368 0 378 0 L485 0 C495 0 501 8 506 17 L635 259 L635 281 L508 498 C503 507 492 515 482 515 L377 515 C367 515 360 508 360 498 L486 281 L486 259 Z M196 259 L71 17 C71 7 78 0 88 0 L195 0 C205 0 211 8 216 17 L345 259 L345 281 L218 498 C213 507 202 515 192 515 L87 515 C77 515 70 508 70 498 L196 281 L196 259 Z " />
<glyph glyph-name="onequarter" unicode="&#xbc;" horiz-adv-x="764" d="M256 0 C266 0 273 7 277 17 L616 683 C616 693 609 700 599 700 L535 700 C525 700 518 693 514 683 L175 17 C175 7 182 0 192 0 L256 0 Z M146 623 L146 471 L92 471 C86 471 81 466 81 460 L81 405 C81 399 86 394 92 394 L278 394 C284 394 289 399 289 405 L289 460 C289 466 284 471 278 471 L233 471 L233 689 C233 695 228 700 222 700 L145 700 L81 674 C75 672 70 666 70 660 L70 608 C70 602 75 597 81 597 L146 623 Z M598 295 C598 301 593 306 587 306 L527 306 C521 306 516 300 514 295 L430 97 L430 54 C430 48 435 43 441 43 L584 43 L584 11 C584 5 589 0 595 0 L660 0 C666 0 671 5 671 11 L671 43 L683 43 C689 43 694 48 694 54 L694 109 C694 115 689 120 683 120 L671 120 L671 189 C671 195 666 200 660 200 L595 200 C589 200 584 195 584 189 L584 120 L524 120 L598 295 Z " />
<glyph glyph-name="onehalf" unicode="&#xbd;" horiz-adv-x="763" d="M256 0 C266 0 273 7 277 17 L616 683 C616 693 609 700 599 700 L535 700 C525 700 518 693 514 683 L175 17 C175 7 182 0 192 0 L256 0 Z M146 623 L146 471 L92 471 C86 471 81 466 81 460 L81 405 C81 399 86 394 92 394 L278 394 C284 394 289 399 289 405 L289 460 C289 466 284 471 278 471 L233 471 L233 689 C233 695 228 700 222 700 L145 700 L81 674 C75 672 70 666 70 660 L70 608 C70 602 75 597 81 597 L146 623 Z M568 77 C568 128 691 74 691 217 L691 231 C691 273 657 306 614 306 L559 306 C516 306 483 273 483 231 L483 199 C483 194 486 191 491 191 L549 191 C554 191 557 194 557 199 L557 204 C557 219 564 230 577 230 L587 230 C600 230 606 220 606 211 L606 206 C606 137 477 198 477 67 L477 7 C477 3 480 0 484 0 L686 0 C690 0 693 3 693 7 L693 69 C693 74 690 77 686 77 L568 77 Z " />
<glyph glyph-name="threequarters" unicode="&#xbe;" horiz-adv-x="731" d="M223 0 C233 0 240 7 244 17 L583 683 C583 693 576 700 566 700 L502 700 C492 700 485 693 481 683 L142 17 C142 7 149 0 159 0 L223 0 Z M638 189 C638 195 633 200 627 200 L562 200 C556 200 551 195 551 189 L551 120 L501 120 L561 299 C561 303 558 306 554 306 L485 306 C481 306 479 303 477 299 L410 97 L410 54 C410 48 415 43 421 43 L551 43 L551 11 C551 5 556 0 562 0 L627 0 C633 0 638 5 638 11 L638 43 L650 43 C656 43 661 48 661 54 L661 109 C661 115 656 120 650 120 L638 120 L638 189 Z M238 547 C260 557 278 578 278 611 L278 625 C278 667 244 700 201 700 L146 700 C103 700 70 667 70 625 L70 593 C70 588 73 585 78 585 L136 585 C141 585 144 588 144 593 L144 598 C144 613 151 624 164 624 L174 624 C187 624 193 614 193 605 L193 599 C193 590 187 580 174 580 L157 580 C153 580 150 577 150 572 L150 522 C150 517 153 514 157 514 L174 514 C187 514 193 504 193 495 L193 489 C193 480 187 470 174 470 L164 470 C151 470 144 481 144 496 L144 501 C144 506 141 509 136 509 L78 509 C73 509 70 506 70 501 L70 469 C70 427 103 394 146 394 L201 394 C244 394 278 427 278 469 L278 483 C278 516 260 537 238 547 L238 547 Z " />
<glyph glyph-name="questiondown" unicode="&#xbf;" horiz-adv-x="551" d="M234 492 C234 328 70 483 70 211 L70 171 C70 76 150 0 248 0 L303 0 C401 0 481 76 481 171 L481 220 C481 230 474 237 464 237 L369 237 C359 237 352 230 352 220 L352 178 C352 145 325 118 295 118 L256 118 C226 118 199 145 199 178 L199 207 C199 368 356 218 363 494 L363 510 C363 520 356 527 346 527 L251 527 C241 527 234 520 234 510 L234 492 Z M248 565 C238 565 231 572 231 582 L231 683 C231 693 238 700 248 700 L348 700 C358 700 365 693 365 683 L365 582 C365 572 358 565 348 565 L248 565 Z " />
<glyph glyph-name="Agrave" unicode="&#xc0;" horiz-adv-x="552" d="M316 751 C326 751 333 758 333 768 L272 896 C268 905 261 913 251 913 L160 913 C150 913 143 906 143 896 L204 768 C208 759 215 751 225 751 L316 751 Z M398 17 C401 7 408 0 418 0 L510 0 C520 0 527 7 527 17 L367 683 C364 693 358 700 348 700 L204 700 C194 700 188 693 185 683 L25 17 C25 7 32 0 42 0 L134 0 C144 0 151 7 154 17 L177 118 L375 118 L398 17 Z M270 523 L282 523 L348 235 L204 235 L270 523 Z " />
<glyph glyph-name="Aacute" unicode="&#xc1;" horiz-adv-x="552" d="M327 751 C337 751 344 759 348 768 L409 896 C409 906 402 913 392 913 L301 913 C291 913 284 905 280 896 L219 768 C219 758 226 751 236 751 L327 751 Z M398 17 C401 7 408 0 418 0 L510 0 C520 0 527 7 527 17 L367 683 C364 693 358 700 348 700 L204 700 C194 700 188 693 185 683 L25 17 C25 7 32 0 42 0 L134 0 C144 0 151 7 154 17 L177 118 L375 118 L398 17 Z M270 523 L282 523 L348 235 L204 235 L270 523 Z " />
<glyph glyph-name="Acircumflex" unicode="&#xc2;" horiz-adv-x="552" d="M226 939 C217 939 211 932 207 923 L129 767 C129 758 136 751 145 751 L224 751 C233 751 239 758 243 767 L276 832 L309 767 C313 758 319 751 328 751 L407 751 C416 751 423 758 423 767 L345 923 C341 932 335 939 326 939 L226 939 Z M398 17 C401 7 408 0 418 0 L510 0 C520 0 527 7 527 17 L367 683 C364 693 358 700 348 700 L204 700 C194 700 188 693 185 683 L25 17 C25 7 32 0 42 0 L134 0 C144 0 151 7 154 17 L177 118 L375 118 L398 17 Z M270 523 L282 523 L348 235 L204 235 L270 523 Z " />
<glyph glyph-name="Atilde" unicode="&#xc3;" horiz-adv-x="552" d="M398 17 C401 7 408 0 418 0 L510 0 C520 0 527 7 527 17 L367 683 C364 693 358 700 348 700 L204 700 C194 700 188 693 185 683 L25 17 C25 7 32 0 42 0 L134 0 C144 0 151 7 154 17 L177 118 L375 118 L398 17 Z M270 523 L282 523 L348 235 L204 235 L270 523 Z M321 751 C348 751 366 761 392 777 C398 782 403 789 403 797 C403 798 403 800 384 866 C382 872 376 878 366 878 C350 878 336 868 321 868 C280 868 272 907 231 907 C205 907 184 897 159 881 C152 876 147 869 147 861 L168 792 C170 786 177 781 186 781 C203 781 216 790 231 790 C273 790 280 751 321 751 L321 751 Z " />
<glyph glyph-name="Adieresis" unicode="&#xc4;" horiz-adv-x="552" d="M238 751 C247 751 254 758 254 767 L254 861 C254 870 247 877 238 877 L145 877 C135 877 129 870 129 861 L129 767 C129 758 135 751 145 751 L238 751 Z M408 751 C417 751 424 758 424 767 L424 861 C424 870 417 877 408 877 L315 877 C305 877 299 870 299 861 L299 767 C299 758 305 751 315 751 L408 751 Z M398 17 C401 7 408 0 418 0 L510 0 C520 0 527 7 527 17 L367 683 C364 693 358 700 348 700 L204 700 C194 700 188 693 185 683 L25 17 C25 7 32 0 42 0 L134 0 C144 0 151 7 154 17 L177 118 L375 118 L398 17 Z M270 523 L282 523 L348 235 L204 235 L270 523 Z " />
<glyph glyph-name="Aring" unicode="&#xc5;" horiz-adv-x="552" d="M276 883 C199 883 135 820 135 741 C135 703 150 668 175 642 L25 17 C25 7 32 0 42 0 L134 0 C144 0 151 7 154 17 L177 118 L375 118 L398 17 C401 7 408 0 418 0 L510 0 C520 0 527 7 527 17 L377 641 C403 666 419 702 419 741 C419 820 356 883 276 883 L276 883 Z M270 523 L282 523 L348 235 L204 235 L270 523 Z M276 700 C254 700 235 719 235 741 C235 764 254 783 276 783 C299 783 318 764 318 741 C318 719 299 700 276 700 L276 700 Z " />
<glyph glyph-name="AE" unicode="&#xc6;" horiz-adv-x="796" d="M406 0 L719 0 C729 0 736 7 736 17 L736 100 C736 110 729 117 719 117 L518 117 L518 304 L696 304 C706 304 713 311 713 321 L713 405 C713 415 706 422 696 422 L518 422 L518 582 L719 582 C729 582 736 589 736 599 L736 683 C736 693 729 700 719 700 L322 700 C312 700 306 692 301 683 L20 17 C20 7 27 0 37 0 L140 0 C150 0 155 8 160 17 L203 118 L389 118 L389 17 C389 7 396 0 406 0 L406 0 Z M389 542 L389 235 L251 235 L381 542 L389 542 Z " />
<glyph glyph-name="Ccedilla" unicode="&#xc7;" horiz-adv-x="526" d="M210 -44 C208 -47 207 -51 207 -54 L207 -90 C207 -97 212 -102 219 -102 L272 -102 C272 -102 286 -102 286 -117 C286 -131 272 -131 272 -131 L207 -131 C200 -131 195 -136 195 -143 L195 -183 C195 -190 200 -195 207 -195 L289 -195 C343 -195 359 -171 359 -100 C359 -59 324 -38 289 -38 L308 -5 C404 -2 481 72 481 166 L481 199 C481 209 474 216 464 216 L369 216 C359 216 352 209 352 199 L352 173 C352 140 325 113 295 113 L246 113 C216 113 189 140 189 173 L189 527 C189 560 216 587 246 587 L295 587 C325 587 352 560 352 527 L352 501 C352 491 359 484 369 484 L464 484 C474 484 481 491 481 501 L481 534 C481 629 401 705 303 705 L238 705 C140 705 60 629 60 534 L60 166 C60 72 137 -2 233 -5 L210 -44 Z " />
<glyph glyph-name="Egrave" unicode="&#xc8;" horiz-adv-x="477" d="M298 751 C308 751 315 758 315 768 L254 896 C250 905 243 913 233 913 L142 913 C132 913 125 906 125 896 L186 768 C190 759 197 751 207 751 L298 751 Z M400 0 C410 0 417 7 417 17 L417 100 C417 110 410 117 400 117 L199 117 L199 304 L377 304 C387 304 394 311 394 321 L394 405 C394 415 387 422 377 422 L199 422 L199 582 L400 582 C410 582 417 589 417 599 L417 683 C417 693 410 700 400 700 L87 700 C77 700 70 693 70 683 L70 17 C70 7 77 0 87 0 L400 0 Z " />
<glyph glyph-name="Eacute" unicode="&#xc9;" horiz-adv-x="477" d="M299 751 C309 751 316 759 320 768 L381 896 C381 906 374 913 364 913 L273 913 C263 913 256 905 252 896 L191 768 C191 758 198 751 208 751 L299 751 Z M400 0 C410 0 417 7 417 17 L417 100 C417 110 410 117 400 117 L199 117 L199 304 L377 304 C387 304 394 311 394 321 L394 405 C394 415 387 422 377 422 L199 422 L199 582 L400 582 C410 582 417 589 417 599 L417 683 C417 693 410 700 400 700 L87 700 C77 700 70 693 70 683 L70 17 C70 7 77 0 87 0 L400 0 Z " />
<glyph glyph-name="Ecircumflex" unicode="&#xca;" horiz-adv-x="477" d="M193 939 C184 939 178 932 174 923 L96 767 C96 758 103 751 112 751 L191 751 C200 751 206 758 210 767 L243 832 L276 767 C280 758 286 751 295 751 L374 751 C383 751 390 758 390 767 L312 923 C308 932 302 939 293 939 L193 939 Z M400 0 C410 0 417 7 417 17 L417 100 C417 110 410 117 400 117 L199 117 L199 304 L377 304 C387 304 394 311 394 321 L394 405 C394 415 387 422 377 422 L199 422 L199 582 L400 582 C410 582 417 589 417 599 L417 683 C417 693 410 700 400 700 L87 700 C77 700 70 693 70 683 L70 17 C70 7 77 0 87 0 L400 0 Z " />
<glyph glyph-name="Edieresis" unicode="&#xcb;" horiz-adv-x="477" d="M206 751 C215 751 222 758 222 767 L222 861 C222 870 215 877 206 877 L113 877 C103 877 97 870 97 861 L97 767 C97 758 103 751 113 751 L206 751 Z M376 751 C385 751 392 758 392 767 L392 861 C392 870 385 877 376 877 L283 877 C273 877 267 870 267 861 L267 767 C267 758 273 751 283 751 L376 751 Z M400 0 C410 0 417 7 417 17 L417 100 C417 110 410 117 400 117 L199 117 L199 304 L377 304 C387 304 394 311 394 321 L394 405 C394 415 387 422 377 422 L199 422 L199 582 L400 582 C410 582 417 589 417 599 L417 683 C417 693 410 700 400 700 L87 700 C77 700 70 693 70 683 L70 17 C70 7 77 0 87 0 L400 0 Z " />
<glyph glyph-name="Igrave" unicode="&#xcc;" horiz-adv-x="269" d="M182 0 C192 0 199 7 199 17 L199 683 C199 693 192 700 182 700 L87 700 C77 700 70 693 70 683 L70 17 C70 7 77 0 87 0 L182 0 Z M182 751 C192 751 199 758 199 768 L138 896 C134 905 127 913 117 913 L26 913 C16 913 9 906 9 896 L70 768 C74 759 81 751 91 751 L182 751 Z " />
<glyph glyph-name="Iacute" unicode="&#xcd;" horiz-adv-x="269" d="M182 0 C192 0 199 7 199 17 L199 683 C199 693 192 700 182 700 L87 700 C77 700 70 693 70 683 L70 17 C70 7 77 0 87 0 L182 0 Z M178 751 C188 751 195 759 199 768 L260 896 C260 906 253 913 243 913 L152 913 C142 913 135 905 131 896 L70 768 C70 758 77 751 87 751 L178 751 Z " />
<glyph glyph-name="Icircumflex" unicode="&#xce;" horiz-adv-x="269" d="M182 0 C192 0 199 7 199 17 L199 683 C199 693 192 700 182 700 L87 700 C77 700 70 693 70 683 L70 17 C70 7 77 0 87 0 L182 0 Z M84 939 C75 939 69 932 65 923 L-13 767 C-13 758 -6 751 3 751 L82 751 C91 751 97 758 101 767 L134 832 L167 767 C171 758 177 751 186 751 L265 751 C274 751 281 758 281 767 L203 923 C199 932 193 939 184 939 L84 939 Z " />
<glyph glyph-name="Idieresis" unicode="&#xcf;" horiz-adv-x="269" d="M182 0 C192 0 199 7 199 17 L199 683 C199 693 192 700 182 700 L87 700 C77 700 70 693 70 683 L70 17 C70 7 77 0 87 0 L182 0 Z M86 751 C95 751 102 758 102 767 L102 861 C102 870 95 877 86 877 L-7 877 C-17 877 -23 870 -23 861 L-23 767 C-23 758 -17 751 -7 751 L86 751 Z M276 751 C285 751 292 758 292 767 L292 861 C292 870 285 877 276 877 L183 877 C173 877 167 870 167 861 L167 767 C167 758 173 751 183 751 L276 751 Z " />
<glyph glyph-name="Eth" unicode="&#xd0;" horiz-adv-x="561" d="M323 0 C421 0 501 76 501 171 L501 529 C501 624 421 700 323 700 L97 700 C87 700 80 693 80 683 L80 408 L27 408 C17 408 10 401 10 391 L10 308 C10 298 17 291 27 291 L80 291 L80 17 C80 7 87 0 97 0 L323 0 Z M277 291 C287 291 294 298 294 308 L294 391 C294 401 287 408 277 408 L209 408 L209 582 L315 582 C345 582 372 555 372 522 L372 177 C372 144 345 117 315 117 L209 117 L209 291 L277 291 Z " />
<glyph glyph-name="Ntilde" unicode="&#xd1;" horiz-adv-x="589" d="M213 700 L87 700 C77 700 70 693 70 683 L70 17 C70 7 77 0 87 0 L182 0 C192 0 199 7 199 17 L199 414 L204 414 L356 17 C360 8 366 0 376 0 L502 0 C512 0 519 7 519 17 L519 683 C519 693 512 700 502 700 L407 700 C397 700 390 693 390 683 L390 290 L385 290 L233 683 C229 692 223 700 213 700 L213 700 Z M337 751 C364 751 382 761 408 777 C414 782 419 789 419 797 C419 798 419 800 400 866 C398 872 392 878 382 878 C366 878 352 868 337 868 C296 868 288 907 247 907 C221 907 200 897 175 881 C168 876 163 869 163 861 L184 792 C186 786 193 781 202 781 C219 781 232 790 247 790 C289 790 296 751 337 751 L337 751 Z " />
<glyph glyph-name="Ograve" unicode="&#xd2;" horiz-adv-x="541" d="M311 751 C321 751 328 758 328 768 L267 896 C263 905 256 913 246 913 L155 913 C145 913 138 906 138 896 L199 768 C203 759 210 751 220 751 L311 751 Z M238 -5 L303 -5 C401 -5 481 71 481 166 L481 534 C481 629 401 705 303 705 L238 705 C140 705 60 629 60 534 L60 166 C60 71 140 -5 238 -5 L238 -5 Z M295 587 C325 587 352 560 352 527 L352 173 C352 140 325 113 295 113 L246 113 C216 113 189 140 189 173 L189 527 C189 560 216 587 246 587 L295 587 Z " />
<glyph glyph-name="Oacute" unicode="&#xd3;" horiz-adv-x="541" d="M319 751 C329 751 336 759 340 768 L401 896 C401 906 394 913 384 913 L293 913 C283 913 276 905 272 896 L211 768 C211 758 218 751 228 751 L319 751 Z M238 -5 L303 -5 C401 -5 481 71 481 166 L481 534 C481 629 401 705 303 705 L238 705 C140 705 60 629 60 534 L60 166 C60 71 140 -5 238 -5 L238 -5 Z M295 587 C325 587 352 560 352 527 L352 173 C352 140 325 113 295 113 L246 113 C216 113 189 140 189 173 L189 527 C189 560 216 587 246 587 L295 587 Z " />
<glyph glyph-name="Ocircumflex" unicode="&#xd4;" horiz-adv-x="541" d="M219 939 C210 939 204 932 200 923 L122 767 C122 758 129 751 138 751 L217 751 C226 751 232 758 236 767 L269 832 L302 767 C306 758 312 751 321 751 L400 751 C409 751 416 758 416 767 L338 923 C334 932 328 939 319 939 L219 939 Z M238 -5 L303 -5 C401 -5 481 71 481 166 L481 534 C481 629 401 705 303 705 L238 705 C140 705 60 629 60 534 L60 166 C60 71 140 -5 238 -5 L238 -5 Z M295 587 C325 587 352 560 352 527 L352 173 C352 140 325 113 295 113 L246 113 C216 113 189 140 189 173 L189 527 C189 560 216 587 246 587 L295 587 Z " />
<glyph glyph-name="Otilde" unicode="&#xd5;" horiz-adv-x="541" d="M238 -5 L303 -5 C401 -5 481 71 481 166 L481 534 C481 629 401 705 303 705 L238 705 C140 705 60 629 60 534 L60 166 C60 71 140 -5 238 -5 L238 -5 Z M295 587 C325 587 352 560 352 527 L352 173 C352 140 325 113 295 113 L246 113 C216 113 189 140 189 173 L189 527 C189 560 216 587 246 587 L295 587 Z M317 751 C344 751 362 761 388 777 C394 782 399 789 399 797 C399 798 399 800 380 866 C378 872 372 878 362 878 C346 878 332 868 317 868 C276 868 268 907 227 907 C201 907 180 897 155 881 C148 876 143 869 143 861 L164 792 C166 786 173 781 182 781 C199 781 212 790 227 790 C269 790 276 751 317 751 L317 751 Z " />
<glyph glyph-name="Odieresis" unicode="&#xd6;" horiz-adv-x="541" d="M221 751 C230 751 237 758 237 767 L237 861 C237 870 230 877 221 877 L128 877 C118 877 112 870 112 861 L112 767 C112 758 118 751 128 751 L221 751 Z M411 751 C420 751 427 758 427 767 L427 861 C427 870 420 877 411 877 L318 877 C308 877 302 870 302 861 L302 767 C302 758 308 751 318 751 L411 751 Z M238 -5 L303 -5 C401 -5 481 71 481 166 L481 534 C481 629 401 705 303 705 L238 705 C140 705 60 629 60 534 L60 166 C60 71 140 -5 238 -5 L238 -5 Z M295 587 C325 587 352 560 352 527 L352 173 C352 140 325 113 295 113 L246 113 C216 113 189 140 189 173 L189 527 C189 560 216 587 246 587 L295 587 Z " />
<glyph glyph-name="multiply" unicode="&#xd7;" horiz-adv-x="428" d="M214 98 L272 40 C276 36 280 35 284 35 C288 35 293 36 296 40 L353 97 C357 100 358 105 358 109 C358 113 357 117 353 121 L295 180 L353 239 C356 242 358 247 358 251 C358 255 356 259 353 263 L297 320 C293 323 289 325 285 325 C281 325 276 323 273 320 L214 260 L155 320 C152 323 147 325 143 325 C139 325 135 323 131 320 L75 263 C72 259 70 255 70 251 C70 247 72 242 75 239 L133 180 L75 121 C71 117 70 113 70 109 C70 105 71 100 75 97 L132 40 C135 36 140 35 144 35 C148 35 152 36 156 40 L214 98 Z " />
<glyph glyph-name="Oslash" unicode="&#xd8;" horiz-adv-x="541" d="M72 -74 C72 -84 79 -91 89 -91 L184 -91 C194 -91 198 -84 201 -74 L223 -4 C228 -5 233 -5 238 -5 L303 -5 C401 -5 481 71 481 166 L481 534 C481 580 462 622 431 653 L469 774 C469 784 462 791 452 791 L357 791 C347 791 343 784 340 774 L318 704 C313 705 308 705 303 705 L238 705 C140 705 60 629 60 534 L60 166 C60 119 79 77 110 47 L72 -74 Z M295 113 L260 113 L352 404 L352 173 C352 140 325 113 295 113 L295 113 Z M189 527 C189 560 216 587 246 587 L281 587 L189 296 L189 527 Z " />
<glyph glyph-name="Ugrave" unicode="&#xd9;" horiz-adv-x="551" d="M321 751 C331 751 338 758 338 768 L277 896 C273 905 266 913 256 913 L165 913 C155 913 148 906 148 896 L209 768 C213 759 220 751 230 751 L321 751 Z M194 683 C194 693 187 700 177 700 L82 700 C72 700 65 693 65 683 L65 166 C65 71 145 -5 243 -5 L308 -5 C406 -5 486 71 486 166 L486 683 C486 693 479 700 469 700 L374 700 C364 700 357 693 357 683 L357 173 C357 140 330 113 300 113 L251 113 C221 113 194 140 194 173 L194 683 Z " />
<glyph glyph-name="Uacute" unicode="&#xda;" horiz-adv-x="551" d="M321 751 C331 751 338 759 342 768 L403 896 C403 906 396 913 386 913 L295 913 C285 913 278 905 274 896 L213 768 C213 758 220 751 230 751 L321 751 Z M194 683 C194 693 187 700 177 700 L82 700 C72 700 65 693 65 683 L65 166 C65 71 145 -5 243 -5 L308 -5 C406 -5 486 71 486 166 L486 683 C486 693 479 700 469 700 L374 700 C364 700 357 693 357 683 L357 173 C357 140 330 113 300 113 L251 113 C221 113 194 140 194 173 L194 683 Z " />
<glyph glyph-name="Ucircumflex" unicode="&#xdb;" horiz-adv-x="551" d="M225 939 C216 939 210 932 206 923 L128 767 C128 758 135 751 144 751 L223 751 C232 751 238 758 242 767 L275 832 L308 767 C312 758 318 751 327 751 L406 751 C415 751 422 758 422 767 L344 923 C340 932 334 939 325 939 L225 939 Z M194 683 C194 693 187 700 177 700 L82 700 C72 700 65 693 65 683 L65 166 C65 71 145 -5 243 -5 L308 -5 C406 -5 486 71 486 166 L486 683 C486 693 479 700 469 700 L374 700 C364 700 357 693 357 683 L357 173 C357 140 330 113 300 113 L251 113 C221 113 194 140 194 173 L194 683 Z " />
<glyph glyph-name="Udieresis" unicode="&#xdc;" horiz-adv-x="551" d="M227 751 C236 751 243 758 243 767 L243 861 C243 870 236 877 227 877 L134 877 C124 877 118 870 118 861 L118 767 C118 758 124 751 134 751 L227 751 Z M417 751 C426 751 433 758 433 767 L433 861 C433 870 426 877 417 877 L324 877 C314 877 308 870 308 861 L308 767 C308 758 314 751 324 751 L417 751 Z M194 683 C194 693 187 700 177 700 L82 700 C72 700 65 693 65 683 L65 166 C65 71 145 -5 243 -5 L308 -5 C406 -5 486 71 486 166 L486 683 C486 693 479 700 469 700 L374 700 C364 700 357 693 357 683 L357 173 C357 140 330 113 300 113 L251 113 C221 113 194 140 194 173 L194 683 Z " />
<glyph glyph-name="Yacute" unicode="&#xdd;" horiz-adv-x="537" d="M320 751 C330 751 337 759 341 768 L402 896 C402 906 395 913 385 913 L294 913 C284 913 277 905 273 896 L212 768 C212 758 219 751 229 751 L320 751 Z M333 224 L517 683 C517 693 510 700 500 700 L408 700 C398 700 392 692 388 683 L275 389 L262 389 L149 683 C145 692 139 700 129 700 L37 700 C27 700 20 693 20 683 L204 224 L204 17 C204 7 211 0 221 0 L316 0 C326 0 333 7 333 17 L333 224 Z " />
<glyph glyph-name="Thorn" unicode="&#xde;" horiz-adv-x="531" d="M199 223 L199 480 L295 480 C325 480 352 453 352 420 L352 283 C352 250 325 223 295 223 L199 223 Z M199 598 L199 685 C199 695 192 702 182 702 L87 702 C77 702 70 695 70 685 L70 17 C70 7 77 0 87 0 L182 0 C192 0 199 7 199 17 L199 104 L303 104 C401 104 481 180 481 275 L481 427 C481 522 401 598 303 598 L199 598 Z " />
<glyph glyph-name="germandbls" unicode="&#xdf;" horiz-adv-x="521" d="M199 582 L266 582 C296 582 323 555 323 522 L323 466 C323 433 296 406 266 406 L258 406 C248 406 241 399 241 389 L241 311 C241 301 248 294 258 294 L295 294 C325 294 352 267 352 234 L352 177 C352 144 325 117 295 117 L268 117 C258 117 251 110 251 100 L251 17 C251 7 258 0 268 0 L303 0 C401 0 481 76 481 171 L481 235 C481 287 446 334 408 365 C429 393 452 428 452 465 L452 529 C452 624 372 700 274 700 L87 700 C77 700 70 693 70 683 L70 17 C70 7 77 0 87 0 L182 0 C192 0 199 7 199 17 L199 582 Z " />
<glyph glyph-name="agrave" unicode="&#xe0;" horiz-adv-x="448" d="M294 571 C304 571 311 578 311 588 L250 716 C246 725 239 733 229 733 L138 733 C128 733 121 726 121 716 L182 588 C186 579 193 571 203 571 L294 571 Z M179 168 C179 190 190 209 211 209 L264 209 L264 154 C264 132 253 113 232 113 L211 113 C190 113 179 132 179 154 L179 168 Z M97 497 C89 494 84 488 84 480 C84 478 84 470 102 398 C106 386 114 386 123 386 C146 391 165 402 206 402 C264 402 264 354 264 329 L264 315 L176 315 C84 315 50 264 50 176 L50 134 C50 46 79 -5 171 -5 L185 -5 C207 -5 236 4 256 33 L264 33 L264 17 C264 7 271 0 281 0 L376 0 C386 0 393 7 393 17 L393 330 C393 377 393 520 222 520 C138 520 119 506 97 497 L97 497 Z " />
<glyph glyph-name="aacute" unicode="&#xe1;" horiz-adv-x="448" d="M280 571 C290 571 297 579 301 588 L362 716 C362 726 355 733 345 733 L254 733 C244 733 237 725 233 716 L172 588 C172 578 179 571 189 571 L280 571 Z M179 168 C179 190 190 209 211 209 L264 209 L264 154 C264 132 253 113 232 113 L211 113 C190 113 179 132 179 154 L179 168 Z M97 497 C89 494 84 488 84 480 C84 478 84 470 102 398 C106 386 114 386 123 386 C146 391 165 402 206 402 C264 402 264 354 264 329 L264 315 L176 315 C84 315 50 264 50 176 L50 134 C50 46 79 -5 171 -5 L185 -5 C207 -5 236 4 256 33 L264 33 L264 17 C264 7 271 0 281 0 L376 0 C386 0 393 7 393 17 L393 330 C393 377 393 520 222 520 C138 520 119 506 97 497 L97 497 Z " />
<glyph glyph-name="acircumflex" unicode="&#xe2;" horiz-adv-x="448" d="M180 759 C171 759 165 752 161 743 L83 587 C83 578 90 571 99 571 L178 571 C187 571 193 578 197 587 L230 652 L263 587 C267 578 273 571 282 571 L361 571 C370 571 377 578 377 587 L299 743 C295 752 289 759 280 759 L180 759 Z M179 168 C179 190 190 209 211 209 L264 209 L264 154 C264 132 253 113 232 113 L211 113 C190 113 179 132 179 154 L179 168 Z M97 497 C89 494 84 488 84 480 C84 478 84 470 102 398 C106 386 114 386 123 386 C146 391 165 402 206 402 C264 402 264 354 264 329 L264 315 L176 315 C84 315 50 264 50 176 L50 134 C50 46 79 -5 171 -5 L185 -5 C207 -5 236 4 256 33 L264 33 L264 17 C264 7 271 0 281 0 L376 0 C386 0 393 7 393 17 L393 330 C393 377 393 520 222 520 C138 520 119 506 97 497 L97 497 Z " />
<glyph glyph-name="atilde" unicode="&#xe3;" horiz-adv-x="448" d="M179 168 C179 190 190 209 211 209 L264 209 L264 154 C264 132 253 113 232 113 L211 113 C190 113 179 132 179 154 L179 168 Z M97 497 C89 494 84 488 84 480 C84 478 84 470 102 398 C106 386 114 386 123 386 C146 391 165 402 206 402 C264 402 264 354 264 329 L264 315 L176 315 C84 315 50 264 50 176 L50 134 C50 46 79 -5 171 -5 L185 -5 C207 -5 236 4 256 33 L264 33 L264 17 C264 7 271 0 281 0 L376 0 C386 0 393 7 393 17 L393 330 C393 377 393 520 222 520 C138 520 119 506 97 497 L97 497 Z M287 571 C314 571 332 581 358 597 C364 602 369 609 369 617 C369 618 369 620 350 686 C348 692 342 698 332 698 C316 698 302 688 287 688 C246 688 238 727 197 727 C171 727 150 717 125 701 C118 696 113 689 113 681 L134 612 C136 606 143 601 152 601 C169 601 182 610 197 610 C239 610 246 571 287 571 L287 571 Z " />
<glyph glyph-name="adieresis" unicode="&#xe4;" horiz-adv-x="448" d="M187 571 C196 571 203 578 203 587 L203 681 C203 690 196 697 187 697 L94 697 C84 697 78 690 78 681 L78 587 C78 578 84 571 94 571 L187 571 Z M357 571 C366 571 373 578 373 587 L373 681 C373 690 366 697 357 697 L264 697 C254 697 248 690 248 681 L248 587 C248 578 254 571 264 571 L357 571 Z M179 168 C179 190 190 209 211 209 L264 209 L264 154 C264 132 253 113 232 113 L211 113 C190 113 179 132 179 154 L179 168 Z M97 497 C89 494 84 488 84 480 C84 478 84 470 102 398 C106 386 114 386 123 386 C146 391 165 402 206 402 C264 402 264 354 264 329 L264 315 L176 315 C84 315 50 264 50 176 L50 134 C50 46 79 -5 171 -5 L185 -5 C207 -5 236 4 256 33 L264 33 L264 17 C264 7 271 0 281 0 L376 0 C386 0 393 7 393 17 L393 330 C393 377 393 520 222 520 C138 520 119 506 97 497 L97 497 Z " />
<glyph glyph-name="aring" unicode="&#xe5;" horiz-adv-x="448" d="M236 842 C162 842 101 782 101 706 C101 632 162 571 236 571 C312 571 373 632 373 706 C373 782 312 842 236 842 L236 842 Z M236 661 C211 661 191 683 191 706 C191 732 211 752 236 752 C260 752 282 732 282 706 C282 683 260 661 236 661 L236 661 Z M179 168 C179 190 190 209 211 209 L264 209 L264 154 C264 132 253 113 232 113 L211 113 C190 113 179 132 179 154 L179 168 Z M97 497 C89 494 84 488 84 480 C84 478 84 470 102 398 C106 386 114 386 123 386 C146 391 165 402 206 402 C264 402 264 354 264 329 L264 315 L176 315 C84 315 50 264 50 176 L50 134 C50 46 79 -5 171 -5 L185 -5 C207 -5 236 4 256 33 L264 33 L264 17 C264 7 271 0 281 0 L376 0 C386 0 393 7 393 17 L393 330 C393 377 393 520 222 520 C138 520 119 506 97 497 L97 497 Z " />
<glyph glyph-name="ae" unicode="&#xe6;" horiz-adv-x="658" d="M316 33 L325 33 C348 10 379 -5 420 -5 L455 -5 C455 -5 545 -5 593 72 C595 75 596 79 596 82 C596 87 594 92 589 95 L530 143 C527 145 523 146 520 146 C514 146 510 143 506 139 C495 128 487 113 455 113 L425 113 C406 113 395 129 393 149 L393 203 L591 203 C601 203 608 210 608 220 L608 366 C603 442 559 520 465 520 L407 520 C374 520 347 510 325 494 C301 510 267 520 222 520 C138 520 119 506 97 497 C89 494 84 488 84 480 C84 478 84 470 102 398 C106 386 114 386 123 386 C146 391 165 402 206 402 C256 402 263 367 264 341 L264 315 L176 315 C84 315 50 264 50 176 L50 134 C50 46 79 -5 171 -5 L245 -5 C267 -5 296 4 316 33 L316 33 Z M393 361 C393 383 404 402 425 402 L447 402 C468 402 479 383 479 361 L479 307 L393 307 L393 361 Z M179 168 C179 190 190 209 211 209 L264 209 L264 154 C264 132 253 113 232 113 L211 113 C190 113 179 132 179 154 L179 168 Z " />
<glyph glyph-name="ccedilla" unicode="&#xe7;" horiz-adv-x="434" d="M167 -44 C165 -47 164 -51 164 -54 L164 -90 C164 -97 169 -102 176 -102 L229 -102 C229 -102 243 -102 243 -117 C243 -131 229 -131 229 -131 L164 -131 C157 -131 152 -136 152 -143 L152 -183 C152 -190 157 -195 164 -195 L246 -195 C300 -195 316 -171 316 -100 C316 -59 281 -38 246 -38 L264 -5 C352 0 394 75 399 149 L399 162 C399 172 392 179 382 179 L287 179 C277 179 270 172 270 162 L270 154 C270 132 259 113 238 113 L216 113 C195 113 184 132 184 154 L184 361 C184 383 195 402 216 402 L238 402 C259 402 270 383 270 361 L270 353 C270 343 277 336 287 336 L382 336 C392 336 399 343 399 353 L399 366 C394 442 350 520 256 520 L198 520 C104 520 60 442 55 366 L55 149 C60 75 101 0 190 -5 L167 -44 Z " />
<glyph glyph-name="egrave" unicode="&#xe8;" horiz-adv-x="449" d="M271 571 C281 571 288 578 288 588 L227 716 C223 725 216 733 206 733 L115 733 C105 733 98 726 98 716 L159 588 C163 579 170 571 180 571 L271 571 Z M384 72 C386 75 387 79 387 82 C387 87 385 92 380 95 L321 143 C318 145 314 146 311 146 C305 146 301 143 297 139 C286 128 278 113 246 113 L216 113 C195 113 184 132 184 154 L184 203 L382 203 C392 203 399 210 399 220 L399 366 C394 442 350 520 256 520 L198 520 C104 520 60 442 55 366 L55 149 C60 73 104 -5 198 -5 L246 -5 C246 -5 336 -5 384 72 L384 72 Z M184 361 C184 383 195 402 216 402 L238 402 C259 402 270 383 270 361 L270 307 L184 307 L184 361 Z " />
<glyph glyph-name="eacute" unicode="&#xe9;" horiz-adv-x="449" d="M281 571 C291 571 298 579 302 588 L363 716 C363 726 356 733 346 733 L255 733 C245 733 238 725 234 716 L173 588 C173 578 180 571 190 571 L281 571 Z M384 72 C386 75 387 79 387 82 C387 87 385 92 380 95 L321 143 C318 145 314 146 311 146 C305 146 301 143 297 139 C286 128 278 113 246 113 L216 113 C195 113 184 132 184 154 L184 203 L382 203 C392 203 399 210 399 220 L399 366 C394 442 350 520 256 520 L198 520 C104 520 60 442 55 366 L55 149 C60 73 104 -5 198 -5 L246 -5 C246 -5 336 -5 384 72 L384 72 Z M184 361 C184 383 195 402 216 402 L238 402 C259 402 270 383 270 361 L270 307 L184 307 L184 361 Z " />
<glyph glyph-name="ecircumflex" unicode="&#xea;" horiz-adv-x="449" d="M176 759 C167 759 161 752 157 743 L79 587 C79 578 86 571 95 571 L174 571 C183 571 189 578 193 587 L226 652 L259 587 C263 578 269 571 278 571 L357 571 C366 571 373 578 373 587 L295 743 C291 752 285 759 276 759 L176 759 Z M384 72 C386 75 387 79 387 82 C387 87 385 92 380 95 L321 143 C318 145 314 146 311 146 C305 146 301 143 297 139 C286 128 278 113 246 113 L216 113 C195 113 184 132 184 154 L184 203 L382 203 C392 203 399 210 399 220 L399 366 C394 442 350 520 256 520 L198 520 C104 520 60 442 55 366 L55 149 C60 73 104 -5 198 -5 L246 -5 C246 -5 336 -5 384 72 L384 72 Z M184 361 C184 383 195 402 216 402 L238 402 C259 402 270 383 270 361 L270 307 L184 307 L184 361 Z " />
<glyph glyph-name="edieresis" unicode="&#xeb;" horiz-adv-x="449" d="M187 571 C196 571 203 578 203 587 L203 681 C203 690 196 697 187 697 L94 697 C84 697 78 690 78 681 L78 587 C78 578 84 571 94 571 L187 571 Z M357 571 C366 571 373 578 373 587 L373 681 C373 690 366 697 357 697 L264 697 C254 697 248 690 248 681 L248 587 C248 578 254 571 264 571 L357 571 Z M384 72 C386 75 387 79 387 82 C387 87 385 92 380 95 L321 143 C318 145 314 146 311 146 C305 146 301 143 297 139 C286 128 278 113 246 113 L216 113 C195 113 184 132 184 154 L184 203 L382 203 C392 203 399 210 399 220 L399 366 C394 442 350 520 256 520 L198 520 C104 520 60 442 55 366 L55 149 C60 73 104 -5 198 -5 L246 -5 C246 -5 336 -5 384 72 L384 72 Z M184 361 C184 383 195 402 216 402 L238 402 C259 402 270 383 270 361 L270 307 L184 307 L184 361 Z " />
<glyph glyph-name="igrave" unicode="&#xec;" horiz-adv-x="269" d="M182 0 C192 0 199 7 199 17 L199 498 C199 508 192 515 182 515 L87 515 C77 515 70 508 70 498 L70 17 C70 7 77 0 87 0 L182 0 Z M182 571 C192 571 199 578 199 588 L138 716 C134 725 127 733 117 733 L26 733 C16 733 9 726 9 716 L70 588 C74 579 81 571 91 571 L182 571 Z " />
<glyph glyph-name="iacute" unicode="&#xed;" horiz-adv-x="269" d="M182 0 C192 0 199 7 199 17 L199 498 C199 508 192 515 182 515 L87 515 C77 515 70 508 70 498 L70 17 C70 7 77 0 87 0 L182 0 Z M178 571 C188 571 195 579 199 588 L260 716 C260 726 253 733 243 733 L152 733 C142 733 135 725 131 716 L70 588 C70 578 77 571 87 571 L178 571 Z " />
<glyph glyph-name="icircumflex" unicode="&#xee;" horiz-adv-x="269" d="M182 0 C192 0 199 7 199 17 L199 498 C199 508 192 515 182 515 L87 515 C77 515 70 508 70 498 L70 17 C70 7 77 0 87 0 L182 0 Z M84 759 C75 759 69 752 65 743 L-13 587 C-13 578 -6 571 3 571 L82 571 C91 571 97 578 101 587 L134 652 L167 587 C171 578 177 571 186 571 L265 571 C274 571 281 578 281 587 L203 743 C199 752 193 759 184 759 L84 759 Z " />
<glyph glyph-name="idieresis" unicode="&#xef;" horiz-adv-x="269" d="M182 0 C192 0 199 7 199 17 L199 498 C199 508 192 515 182 515 L87 515 C77 515 70 508 70 498 L70 17 C70 7 77 0 87 0 L182 0 Z M86 571 C95 571 102 578 102 587 L102 681 C102 690 95 697 86 697 L-7 697 C-17 697 -23 690 -23 681 L-23 587 C-23 578 -17 571 -7 571 L86 571 Z M276 571 C285 571 292 578 292 587 L292 681 C292 690 285 697 276 697 L183 697 C173 697 167 690 167 681 L167 587 C167 578 173 571 183 571 L276 571 Z " />
<glyph glyph-name="eth" unicode="&#xf0;" horiz-adv-x="530" d="M407 515 C417 515 424 522 424 532 L424 606 C424 616 417 623 407 623 L346 623 L391 683 C391 693 384 700 374 700 L282 700 C272 700 265 693 259 684 L215 623 L107 623 C97 623 90 616 90 606 L90 532 C90 522 97 515 107 515 L136 515 L69 422 C63 412 60 401 60 389 L60 166 C60 71 140 -5 238 -5 L302 -5 C400 -5 480 71 480 166 L480 258 C480 353 400 429 302 429 L245 429 C234 429 221 427 208 422 L198 422 L267 515 L407 515 Z M246 113 C216 113 189 140 189 173 L189 251 C189 284 216 311 246 311 L294 311 C324 311 351 284 351 251 L351 173 C351 140 324 113 294 113 L246 113 Z " />
<glyph glyph-name="ntilde" unicode="&#xf1;" horiz-adv-x="480" d="M199 345 C210 393 224 402 246 402 L259 402 C280 402 291 383 291 361 L291 17 C291 7 298 0 308 0 L403 0 C413 0 420 7 420 17 L420 365 C420 453 408 520 316 520 L301 520 C279 520 236 519 207 463 L199 463 L199 497 C199 508 195 515 184 515 L88 515 C77 515 70 508 70 497 L70 17 C70 7 77 0 87 0 L182 0 C192 0 199 7 199 17 L199 345 Z M289 571 C316 571 334 581 360 597 C366 602 371 609 371 617 C371 618 371 620 352 686 C350 692 344 698 334 698 C318 698 304 688 289 688 C248 688 240 727 199 727 C173 727 152 717 127 701 C120 696 115 689 115 681 L136 612 C138 606 145 601 154 601 C171 601 184 610 199 610 C241 610 248 571 289 571 L289 571 Z " />
<glyph glyph-name="ograve" unicode="&#xf2;" horiz-adv-x="454" d="M269 571 C279 571 286 578 286 588 L225 716 C221 725 214 733 204 733 L113 733 C103 733 96 726 96 716 L157 588 C161 579 168 571 178 571 L269 571 Z M216 113 C195 113 184 132 184 154 L184 361 C184 383 195 402 216 402 L238 402 C259 402 270 383 270 361 L270 154 C270 132 259 113 238 113 L216 113 Z M256 -5 C350 -5 394 73 399 149 L399 366 C394 442 350 520 256 520 L198 520 C104 520 60 442 55 366 L55 149 C60 73 104 -5 198 -5 L256 -5 Z " />
<glyph glyph-name="oacute" unicode="&#xf3;" horiz-adv-x="454" d="M275 571 C285 571 292 579 296 588 L357 716 C357 726 350 733 340 733 L249 733 C239 733 232 725 228 716 L167 588 C167 578 174 571 184 571 L275 571 Z M216 113 C195 113 184 132 184 154 L184 361 C184 383 195 402 216 402 L238 402 C259 402 270 383 270 361 L270 154 C270 132 259 113 238 113 L216 113 Z M256 -5 C350 -5 394 73 399 149 L399 366 C394 442 350 520 256 520 L198 520 C104 520 60 442 55 366 L55 149 C60 73 104 -5 198 -5 L256 -5 Z " />
<glyph glyph-name="ocircumflex" unicode="&#xf4;" horiz-adv-x="454" d="M177 759 C168 759 162 752 158 743 L80 587 C80 578 87 571 96 571 L175 571 C184 571 190 578 194 587 L227 652 L260 587 C264 578 270 571 279 571 L358 571 C367 571 374 578 374 587 L296 743 C292 752 286 759 277 759 L177 759 Z M216 113 C195 113 184 132 184 154 L184 361 C184 383 195 402 216 402 L238 402 C259 402 270 383 270 361 L270 154 C270 132 259 113 238 113 L216 113 Z M256 -5 C350 -5 394 73 399 149 L399 366 C394 442 350 520 256 520 L198 520 C104 520 60 442 55 366 L55 149 C60 73 104 -5 198 -5 L256 -5 Z " />
<glyph glyph-name="otilde" unicode="&#xf5;" horiz-adv-x="454" d="M216 113 C195 113 184 132 184 154 L184 361 C184 383 195 402 216 402 L238 402 C259 402 270 383 270 361 L270 154 C270 132 259 113 238 113 L216 113 Z M256 -5 C350 -5 394 73 399 149 L399 366 C394 442 350 520 256 520 L198 520 C104 520 60 442 55 366 L55 149 C60 73 104 -5 198 -5 L256 -5 Z M272 571 C299 571 317 581 343 597 C349 602 354 609 354 617 C354 618 354 620 335 686 C333 692 327 698 317 698 C301 698 287 688 272 688 C231 688 223 727 182 727 C156 727 135 717 110 701 C103 696 98 689 98 681 L119 612 C121 606 128 601 137 601 C154 601 167 610 182 610 C224 610 231 571 272 571 L272 571 Z " />
<glyph glyph-name="odieresis" unicode="&#xf6;" horiz-adv-x="454" d="M179 571 C188 571 195 578 195 587 L195 681 C195 690 188 697 179 697 L86 697 C76 697 70 690 70 681 L70 587 C70 578 76 571 86 571 L179 571 Z M369 571 C378 571 385 578 385 587 L385 681 C385 690 378 697 369 697 L276 697 C266 697 260 690 260 681 L260 587 C260 578 266 571 276 571 L369 571 Z M216 113 C195 113 184 132 184 154 L184 361 C184 383 195 402 216 402 L238 402 C259 402 270 383 270 361 L270 154 C270 132 259 113 238 113 L216 113 Z M256 -5 C350 -5 394 73 399 149 L399 366 C394 442 350 520 256 520 L198 520 C104 520 60 442 55 366 L55 149 C60 73 104 -5 198 -5 L256 -5 Z " />
<glyph glyph-name="divide" unicode="&#xf7;" horiz-adv-x="437" d="M350 151 C360 151 367 158 367 168 L367 240 C367 250 360 257 350 257 L87 257 C77 257 70 250 70 240 L70 168 C70 158 77 151 87 151 L350 151 Z M259 -5 C269 -5 276 2 276 12 L276 88 C276 98 269 105 259 105 L181 105 C171 105 164 98 164 88 L164 12 C164 2 171 -5 181 -5 L259 -5 Z M181 413 C171 413 164 406 164 396 L164 320 C164 310 171 303 181 303 L259 303 C269 303 276 310 276 320 L276 396 C276 406 269 413 259 413 L181 413 Z " />
<glyph glyph-name="oslash" unicode="&#xf8;" horiz-adv-x="486" d="M278 -5 C372 -5 426 73 431 149 L431 366 C428 408 410 451 379 481 L413 589 C413 599 406 606 396 606 L301 606 C291 606 287 599 284 589 L262 520 L208 520 C114 520 60 442 55 366 L55 149 C58 106 76 63 108 33 L74 -74 C74 -84 81 -91 91 -91 L186 -91 C196 -91 200 -84 203 -74 L225 -5 L278 -5 Z M184 361 C184 382 204 401 224 402 L184 273 L184 361 Z M262 113 L302 238 L302 154 C302 133 282 114 262 113 L262 113 Z " />
<glyph glyph-name="ugrave" unicode="&#xf9;" horiz-adv-x="464" d="M277 571 C287 571 294 578 294 588 L233 716 C229 725 222 733 212 733 L121 733 C111 733 104 726 104 716 L165 588 C169 579 176 571 186 571 L277 571 Z M404 498 C404 508 397 515 387 515 L292 515 C282 515 275 508 275 498 L275 154 C275 132 264 113 243 113 L221 113 C200 113 189 132 189 154 L189 498 C189 508 182 515 172 515 L77 515 C67 515 60 508 60 498 L60 149 C65 73 109 -5 203 -5 L261 -5 C355 -5 399 73 404 149 L404 498 Z " />
<glyph glyph-name="uacute" unicode="&#xfa;" horiz-adv-x="464" d="M278 571 C288 571 295 579 299 588 L360 716 C360 726 353 733 343 733 L252 733 C242 733 235 725 231 716 L170 588 C170 578 177 571 187 571 L278 571 Z M404 498 C404 508 397 515 387 515 L292 515 C282 515 275 508 275 498 L275 154 C275 132 264 113 243 113 L221 113 C200 113 189 132 189 154 L189 498 C189 508 182 515 172 515 L77 515 C67 515 60 508 60 498 L60 149 C65 73 109 -5 203 -5 L261 -5 C355 -5 399 73 404 149 L404 498 Z " />
<glyph glyph-name="ucircumflex" unicode="&#xfb;" horiz-adv-x="464" d="M182 759 C173 759 167 752 163 743 L85 587 C85 578 92 571 101 571 L180 571 C189 571 195 578 199 587 L232 652 L265 587 C269 578 275 571 284 571 L363 571 C372 571 379 578 379 587 L301 743 C297 752 291 759 282 759 L182 759 Z M404 498 C404 508 397 515 387 515 L292 515 C282 515 275 508 275 498 L275 154 C275 132 264 113 243 113 L221 113 C200 113 189 132 189 154 L189 498 C189 508 182 515 172 515 L77 515 C67 515 60 508 60 498 L60 149 C65 73 109 -5 203 -5 L261 -5 C355 -5 399 73 404 149 L404 498 Z " />
<glyph glyph-name="udieresis" unicode="&#xfc;" horiz-adv-x="464" d="M184 571 C193 571 200 578 200 587 L200 681 C200 690 193 697 184 697 L91 697 C81 697 75 690 75 681 L75 587 C75 578 81 571 91 571 L184 571 Z M374 571 C383 571 390 578 390 587 L390 681 C390 690 383 697 374 697 L281 697 C271 697 265 690 265 681 L265 587 C265 578 271 571 281 571 L374 571 Z M404 498 C404 508 397 515 387 515 L292 515 C282 515 275 508 275 498 L275 154 C275 132 264 113 243 113 L221 113 C200 113 189 132 189 154 L189 498 C189 508 182 515 172 515 L77 515 C67 515 60 508 60 498 L60 149 C65 73 109 -5 203 -5 L261 -5 C355 -5 399 73 404 149 L404 498 Z " />
<glyph glyph-name="yacute" unicode="&#xfd;" horiz-adv-x="426" d="M262 571 C272 571 279 579 283 588 L344 716 C344 726 337 733 327 733 L236 733 C226 733 219 725 215 716 L154 588 C154 578 161 571 171 571 L262 571 Z M135 -39 C130 -60 115 -86 77 -86 L41 -86 C31 -86 24 -93 24 -103 L24 -186 C24 -196 31 -203 41 -203 L120 -203 C143 -203 259 -182 297 -11 L411 498 C411 508 404 515 394 515 L302 515 C292 515 285 508 282 498 L219 181 L207 181 L144 498 C141 508 134 515 124 515 L32 515 C22 515 15 508 15 498 L135 -39 Z " />
<glyph glyph-name="thorn" unicode="&#xfe;" horiz-adv-x="478" d="M199 361 C199 383 210 402 231 402 L267 402 C288 402 299 383 299 361 L299 154 C299 132 288 113 267 113 L231 113 C210 113 199 132 199 154 L199 361 Z M199 682 C199 693 195 700 184 700 L88 700 C77 700 70 693 70 682 L70 -157 C70 -167 77 -174 87 -174 L182 -174 C192 -174 199 -167 199 -157 L199 33 L207 33 C227 4 256 -5 278 -5 L300 -5 C401 -5 428 62 428 150 L428 365 C428 453 401 520 300 520 L278 520 C256 520 227 511 207 482 L199 482 L199 682 Z " />
<glyph glyph-name="ydieresis" unicode="&#xff;" horiz-adv-x="426" d="M165 571 C174 571 181 578 181 587 L181 681 C181 690 174 697 165 697 L72 697 C62 697 56 690 56 681 L56 587 C56 578 62 571 72 571 L165 571 Z M355 571 C364 571 371 578 371 587 L371 681 C371 690 364 697 355 697 L262 697 C252 697 246 690 246 681 L246 587 C246 578 252 571 262 571 L355 571 Z M135 -39 C130 -60 115 -86 77 -86 L41 -86 C31 -86 24 -93 24 -103 L24 -186 C24 -196 31 -203 41 -203 L120 -203 C143 -203 259 -182 297 -11 L411 498 C411 508 404 515 394 515 L302 515 C292 515 285 508 282 498 L219 181 L207 181 L144 498 C141 508 134 515 124 515 L32 515 C22 515 15 508 15 498 L135 -39 Z " />
<glyph glyph-name="Amacron" unicode="&#x100;" horiz-adv-x="552" d="M369 751 C379 751 386 758 386 768 L386 851 C386 861 379 868 369 868 L183 868 C173 868 166 861 166 851 L166 768 C166 758 173 751 183 751 L369 751 Z M398 17 C401 7 408 0 418 0 L510 0 C520 0 527 7 527 17 L367 683 C364 693 358 700 348 700 L204 700 C194 700 188 693 185 683 L25 17 C25 7 32 0 42 0 L134 0 C144 0 151 7 154 17 L177 118 L375 118 L398 17 Z M270 523 L282 523 L348 235 L204 235 L270 523 Z " />
<glyph glyph-name="amacron" unicode="&#x101;" horiz-adv-x="448" d="M353 571 C363 571 370 578 370 588 L370 671 C370 681 363 688 353 688 L125 688 C115 688 108 681 108 671 L108 588 C108 578 115 571 125 571 L353 571 Z M179 168 C179 190 190 209 211 209 L264 209 L264 154 C264 132 253 113 232 113 L211 113 C190 113 179 132 179 154 L179 168 Z M97 497 C89 494 84 488 84 480 C84 478 84 470 102 398 C106 386 114 386 123 386 C146 391 165 402 206 402 C264 402 264 354 264 329 L264 315 L176 315 C84 315 50 264 50 176 L50 134 C50 46 79 -5 171 -5 L185 -5 C207 -5 236 4 256 33 L264 33 L264 17 C264 7 271 0 281 0 L376 0 C386 0 393 7 393 17 L393 330 C393 377 393 520 222 520 C138 520 119 506 97 497 L97 497 Z " />
<glyph glyph-name="Abreve" unicode="&#x102;" horiz-adv-x="552" d="M398 17 C401 7 408 0 418 0 L510 0 C520 0 527 7 527 17 L367 683 C364 693 358 700 348 700 L204 700 C194 700 188 693 185 683 L25 17 C25 7 32 0 42 0 L134 0 C144 0 151 7 154 17 L177 118 L375 118 L398 17 Z M270 523 L282 523 L348 235 L204 235 L270 523 Z M276 751 C374 751 408 795 421 901 C421 911 414 918 404 918 L334 918 C324 918 316 911 312 901 C304 858 291 853 276 853 C261 853 248 858 240 901 C236 911 228 918 218 918 L148 918 C138 918 131 911 131 901 C144 795 178 751 276 751 L276 751 Z " />
<glyph glyph-name="abreve" unicode="&#x103;" horiz-adv-x="448" d="M179 168 C179 190 190 209 211 209 L264 209 L264 154 C264 132 253 113 232 113 L211 113 C190 113 179 132 179 154 L179 168 Z M97 497 C89 494 84 488 84 480 C84 478 84 470 102 398 C106 386 114 386 123 386 C146 391 165 402 206 402 C264 402 264 354 264 329 L264 315 L176 315 C84 315 50 264 50 176 L50 134 C50 46 79 -5 171 -5 L185 -5 C207 -5 236 4 256 33 L264 33 L264 17 C264 7 271 0 281 0 L376 0 C386 0 393 7 393 17 L393 330 C393 377 393 520 222 520 C138 520 119 506 97 497 L97 497 Z M225 571 C323 571 357 615 370 721 C370 731 363 738 353 738 L283 738 C273 738 265 731 261 721 C253 678 240 673 225 673 C210 673 197 678 189 721 C185 731 177 738 167 738 L97 738 C87 738 80 731 80 721 C93 615 127 571 225 571 L225 571 Z " />
<glyph glyph-name="Aogonek" unicode="&#x104;" horiz-adv-x="553" d="M270 523 L282 523 L348 235 L204 235 L270 523 Z M388 56 C324 38 324 -25 324 -41 C324 -82 353 -118 407 -118 L473 -118 C480 -118 485 -113 485 -106 L485 -66 C485 -59 480 -54 473 -54 L424 -54 C424 -54 397 -54 397 -26 C397 -7 410 -1 418 0 L511 0 C521 0 528 7 528 17 L367 683 C365 693 358 700 348 700 L204 700 C194 700 188 693 185 683 L25 17 C25 7 32 0 42 0 L134 0 C144 0 151 7 154 17 L177 118 L375 118 L388 56 Z " />
<glyph glyph-name="aogonek" unicode="&#x105;" horiz-adv-x="448" d="M179 168 C179 190 190 209 211 209 L264 209 L264 154 C264 132 253 113 232 113 L211 113 C190 113 179 132 179 154 L179 168 Z M264 -14 C229 -14 184 -35 184 -90 C184 -142 200 -171 254 -171 L336 -171 C343 -171 348 -166 348 -159 L348 -119 C348 -112 343 -107 336 -107 L271 -107 C271 -107 257 -107 257 -93 C257 -78 271 -78 271 -78 L381 -78 C388 -78 393 -73 393 -66 L393 330 C393 377 393 520 222 520 C138 520 119 506 97 497 C89 494 84 488 84 480 C84 478 84 470 102 398 C106 386 114 386 123 386 C146 391 165 402 206 402 C264 402 264 354 264 329 L264 315 L176 315 C84 315 50 264 50 176 L50 134 C50 46 79 -5 171 -5 L185 -5 C207 -5 236 4 256 33 L264 33 L264 -14 Z " />
<glyph glyph-name="Cacute" unicode="&#x106;" horiz-adv-x="526" d="M324 751 C334 751 341 759 345 768 L406 896 C406 906 399 913 389 913 L298 913 C288 913 281 905 277 896 L216 768 C216 758 223 751 233 751 L324 751 Z M352 173 C352 140 325 113 295 113 L246 113 C216 113 189 140 189 173 L189 527 C189 560 216 587 246 587 L295 587 C325 587 352 560 352 527 L352 501 C352 491 359 484 369 484 L464 484 C474 484 481 491 481 501 L481 534 C481 629 401 705 303 705 L238 705 C140 705 60 629 60 534 L60 166 C60 71 140 -5 238 -5 L303 -5 C401 -5 481 71 481 166 L481 199 C481 209 474 216 464 216 L369 216 C359 216 352 209 352 199 L352 173 Z " />
<glyph glyph-name="cacute" unicode="&#x107;" horiz-adv-x="434" d="M271 571 C281 571 288 579 292 588 L353 716 C353 726 346 733 336 733 L245 733 C235 733 228 725 224 716 L163 588 C163 578 170 571 180 571 L271 571 Z M55 149 C60 73 104 -5 198 -5 L256 -5 C350 -5 394 73 399 149 L399 162 C399 172 392 179 382 179 L287 179 C277 179 270 172 270 162 L270 154 C270 132 259 113 238 113 L216 113 C195 113 184 132 184 154 L184 361 C184 383 195 402 216 402 L238 402 C259 402 270 383 270 361 L270 353 C270 343 277 336 287 336 L382 336 C392 336 399 343 399 353 L399 366 C394 442 350 520 256 520 L198 520 C104 520 60 442 55 366 L55 149 Z " />
<glyph glyph-name="Ccircumflex" unicode="&#x108;" horiz-adv-x="526" d="M220 939 C211 939 205 932 201 923 L123 767 C123 758 130 751 139 751 L218 751 C227 751 233 758 237 767 L270 832 L303 767 C307 758 313 751 322 751 L401 751 C410 751 417 758 417 767 L339 923 C335 932 329 939 320 939 L220 939 Z M352 173 C352 140 325 113 295 113 L246 113 C216 113 189 140 189 173 L189 527 C189 560 216 587 246 587 L295 587 C325 587 352 560 352 527 L352 501 C352 491 359 484 369 484 L464 484 C474 484 481 491 481 501 L481 534 C481 629 401 705 303 705 L238 705 C140 705 60 629 60 534 L60 166 C60 71 140 -5 238 -5 L303 -5 C401 -5 481 71 481 166 L481 199 C481 209 474 216 464 216 L369 216 C359 216 352 209 352 199 L352 173 Z " />
<glyph glyph-name="ccircumflex" unicode="&#x109;" horiz-adv-x="434" d="M177 759 C168 759 162 752 158 743 L80 587 C80 578 87 571 96 571 L175 571 C184 571 190 578 194 587 L227 652 L260 587 C264 578 270 571 279 571 L358 571 C367 571 374 578 374 587 L296 743 C292 752 286 759 277 759 L177 759 Z M55 149 C60 73 104 -5 198 -5 L256 -5 C350 -5 394 73 399 149 L399 162 C399 172 392 179 382 179 L287 179 C277 179 270 172 270 162 L270 154 C270 132 259 113 238 113 L216 113 C195 113 184 132 184 154 L184 361 C184 383 195 402 216 402 L238 402 C259 402 270 383 270 361 L270 353 C270 343 277 336 287 336 L382 336 C392 336 399 343 399 353 L399 366 C394 442 350 520 256 520 L198 520 C104 520 60 442 55 366 L55 149 Z " />
<glyph glyph-name="Cdotaccent" unicode="&#x10a;" horiz-adv-x="526" d="M315 751 C324 751 331 758 331 767 L331 861 C331 870 324 877 315 877 L222 877 C212 877 206 870 206 861 L206 767 C206 758 212 751 222 751 L315 751 Z M352 173 C352 140 325 113 295 113 L246 113 C216 113 189 140 189 173 L189 527 C189 560 216 587 246 587 L295 587 C325 587 352 560 352 527 L352 501 C352 491 359 484 369 484 L464 484 C474 484 481 491 481 501 L481 534 C481 629 401 705 303 705 L238 705 C140 705 60 629 60 534 L60 166 C60 71 140 -5 238 -5 L303 -5 C401 -5 481 71 481 166 L481 199 C481 209 474 216 464 216 L369 216 C359 216 352 209 352 199 L352 173 Z " />
<glyph glyph-name="cdotaccent" unicode="&#x10b;" horiz-adv-x="434" d="M274 571 C283 571 290 578 290 587 L290 681 C290 690 283 697 274 697 L181 697 C171 697 165 690 165 681 L165 587 C165 578 171 571 181 571 L274 571 Z M55 149 C60 73 104 -5 198 -5 L256 -5 C350 -5 394 73 399 149 L399 162 C399 172 392 179 382 179 L287 179 C277 179 270 172 270 162 L270 154 C270 132 259 113 238 113 L216 113 C195 113 184 132 184 154 L184 361 C184 383 195 402 216 402 L238 402 C259 402 270 383 270 361 L270 353 C270 343 277 336 287 336 L382 336 C392 336 399 343 399 353 L399 366 C394 442 350 520 256 520 L198 520 C104 520 60 442 55 366 L55 149 Z " />
<glyph glyph-name="Ccaron" unicode="&#x10c;" horiz-adv-x="526" d="M321 751 C330 751 336 758 340 767 L418 923 C418 932 411 939 402 939 L323 939 C314 939 308 932 304 923 L271 858 L238 923 C234 932 228 939 219 939 L140 939 C131 939 124 932 124 923 L202 767 C206 758 212 751 221 751 L321 751 Z M352 173 C352 140 325 113 295 113 L246 113 C216 113 189 140 189 173 L189 527 C189 560 216 587 246 587 L295 587 C325 587 352 560 352 527 L352 501 C352 491 359 484 369 484 L464 484 C474 484 481 491 481 501 L481 534 C481 629 401 705 303 705 L238 705 C140 705 60 629 60 534 L60 166 C60 71 140 -5 238 -5 L303 -5 C401 -5 481 71 481 166 L481 199 C481 209 474 216 464 216 L369 216 C359 216 352 209 352 199 L352 173 Z " />
<glyph glyph-name="ccaron" unicode="&#x10d;" horiz-adv-x="434" d="M277 571 C286 571 292 578 296 587 L374 743 C374 752 367 759 358 759 L279 759 C270 759 264 752 260 743 L227 678 L194 743 C190 752 184 759 175 759 L96 759 C87 759 80 752 80 743 L158 587 C162 578 168 571 177 571 L277 571 Z M55 149 C60 73 104 -5 198 -5 L256 -5 C350 -5 394 73 399 149 L399 162 C399 172 392 179 382 179 L287 179 C277 179 270 172 270 162 L270 154 C270 132 259 113 238 113 L216 113 C195 113 184 132 184 154 L184 361 C184 383 195 402 216 402 L238 402 C259 402 270 383 270 361 L270 353 C270 343 277 336 287 336 L382 336 C392 336 399 343 399 353 L399 366 C394 442 350 520 256 520 L198 520 C104 520 60 442 55 366 L55 149 Z " />
<glyph glyph-name="Dcaron" unicode="&#x10e;" horiz-adv-x="551" d="M294 751 C303 751 309 758 313 767 L391 923 C391 932 384 939 375 939 L296 939 C287 939 281 932 277 923 L244 858 L211 923 C207 932 201 939 192 939 L113 939 C104 939 97 932 97 923 L175 767 C179 758 185 751 194 751 L294 751 Z M313 0 C411 0 491 76 491 171 L491 529 C491 624 411 700 313 700 L87 700 C77 700 70 693 70 683 L70 17 C70 7 77 0 87 0 L313 0 Z M305 582 C335 582 362 555 362 522 L362 177 C362 144 335 117 305 117 L199 117 L199 582 L305 582 Z " />
<glyph glyph-name="dcaron" unicode="&#x10f;" horiz-adv-x="683" d="M591 538 C601 538 608 546 612 555 L673 683 C673 693 666 700 656 700 L565 700 C555 700 548 692 544 683 L483 555 C483 545 490 538 500 538 L591 538 Z M279 154 C279 132 268 113 247 113 L211 113 C190 113 179 132 179 154 L179 361 C179 383 190 402 211 402 L247 402 C268 402 279 383 279 361 L279 154 Z M279 482 L271 482 C251 511 222 520 200 520 L178 520 C77 520 50 453 50 365 L50 150 C50 62 77 -5 178 -5 L200 -5 C222 -5 251 4 271 33 L279 33 L279 17 C279 7 286 0 296 0 L391 0 C401 0 408 7 408 17 L408 682 C408 693 401 700 390 700 L294 700 C283 700 279 693 279 682 L279 482 Z " />
<glyph glyph-name="Dcroat" unicode="&#x110;" horiz-adv-x="561" d="M323 0 C421 0 501 76 501 171 L501 529 C501 624 421 700 323 700 L97 700 C87 700 80 693 80 683 L80 408 L27 408 C17 408 10 401 10 391 L10 308 C10 298 17 291 27 291 L80 291 L80 17 C80 7 87 0 97 0 L323 0 Z M277 291 C287 291 294 298 294 308 L294 391 C294 401 287 408 277 408 L209 408 L209 582 L315 582 C345 582 372 555 372 522 L372 177 C372 144 345 117 315 117 L209 117 L209 291 L277 291 Z " />
<glyph glyph-name="dcroat" unicode="&#x111;" horiz-adv-x="476" d="M279 154 C279 132 268 113 247 113 L211 113 C190 113 179 132 179 154 L179 361 C179 383 190 402 211 402 L247 402 C268 402 279 383 279 361 L279 154 Z M279 549 L279 482 L271 482 C251 511 222 520 200 520 L178 520 C77 520 50 453 50 365 L50 150 C50 62 77 -5 178 -5 L200 -5 C222 -5 251 4 271 33 L279 33 L279 17 C279 7 286 0 296 0 L391 0 C401 0 408 7 408 17 L408 549 L449 549 C459 549 466 556 466 566 L466 637 C466 647 459 654 449 654 L408 654 L408 682 C408 693 401 700 390 700 L294 700 C283 700 279 693 279 682 L279 654 L219 654 C209 654 202 647 202 637 L202 566 C202 556 209 549 219 549 L279 549 Z " />
<glyph glyph-name="Emacron" unicode="&#x112;" horiz-adv-x="477" d="M356 751 C366 751 373 758 373 768 L373 851 C373 861 366 868 356 868 L127 868 C117 868 110 861 110 851 L110 768 C110 758 117 751 127 751 L356 751 Z M400 0 C410 0 417 7 417 17 L417 100 C417 110 410 117 400 117 L199 117 L199 304 L377 304 C387 304 394 311 394 321 L394 405 C394 415 387 422 377 422 L199 422 L199 582 L400 582 C410 582 417 589 417 599 L417 683 C417 693 410 700 400 700 L87 700 C77 700 70 693 70 683 L70 17 C70 7 77 0 87 0 L400 0 Z " />
<glyph glyph-name="emacron" unicode="&#x113;" horiz-adv-x="449" d="M320 571 C330 571 337 578 337 588 L337 671 C337 681 330 688 320 688 L134 688 C124 688 117 681 117 671 L117 588 C117 578 124 571 134 571 L320 571 Z M384 72 C386 75 387 79 387 82 C387 87 385 92 380 95 L321 143 C318 145 314 146 311 146 C305 146 301 143 297 139 C286 128 278 113 246 113 L216 113 C195 113 184 132 184 154 L184 203 L382 203 C392 203 399 210 399 220 L399 366 C394 442 350 520 256 520 L198 520 C104 520 60 442 55 366 L55 149 C60 73 104 -5 198 -5 L246 -5 C246 -5 336 -5 384 72 L384 72 Z M184 361 C184 383 195 402 216 402 L238 402 C259 402 270 383 270 361 L270 307 L184 307 L184 361 Z " />
<glyph glyph-name="Edotaccent" unicode="&#x116;" horiz-adv-x="477" d="M298 751 C307 751 314 758 314 767 L314 861 C314 870 307 877 298 877 L205 877 C195 877 189 870 189 861 L189 767 C189 758 195 751 205 751 L298 751 Z M400 0 C410 0 417 7 417 17 L417 100 C417 110 410 117 400 117 L199 117 L199 304 L377 304 C387 304 394 311 394 321 L394 405 C394 415 387 422 377 422 L199 422 L199 582 L400 582 C410 582 417 589 417 599 L417 683 C417 693 410 700 400 700 L87 700 C77 700 70 693 70 683 L70 17 C70 7 77 0 87 0 L400 0 Z " />
<glyph glyph-name="edotaccent" unicode="&#x117;" horiz-adv-x="449" d="M273 571 C282 571 289 578 289 587 L289 681 C289 690 282 697 273 697 L180 697 C170 697 164 690 164 681 L164 587 C164 578 170 571 180 571 L273 571 Z M384 72 C386 75 387 79 387 82 C387 87 385 92 380 95 L321 143 C318 145 314 146 311 146 C305 146 301 143 297 139 C286 128 278 113 246 113 L216 113 C195 113 184 132 184 154 L184 203 L382 203 C392 203 399 210 399 220 L399 366 C394 442 350 520 256 520 L198 520 C104 520 60 442 55 366 L55 149 C60 73 104 -5 198 -5 L246 -5 C246 -5 336 -5 384 72 L384 72 Z M184 361 C184 383 195 402 216 402 L238 402 C259 402 270 383 270 361 L270 307 L184 307 L184 361 Z " />
<glyph glyph-name="Eogonek" unicode="&#x118;" horiz-adv-x="476" d="M399 0 C409 0 416 7 416 17 L416 100 C416 110 409 117 399 117 L199 117 L199 304 L376 304 C386 304 393 311 393 321 L393 405 C393 415 386 422 376 422 L199 422 L199 582 L399 582 C409 582 416 589 416 599 L416 683 C416 693 409 700 399 700 L87 700 C77 700 70 693 70 683 L70 17 C70 7 77 0 87 0 L233 0 C227 -12 224 -25 224 -41 C224 -82 253 -118 307 -118 L389 -118 C396 -118 401 -113 401 -106 L401 -66 C401 -59 396 -54 389 -54 L324 -54 C324 -54 297 -54 297 -26 C297 -4 315 0 321 0 L399 0 Z " />
<glyph glyph-name="eogonek" unicode="&#x119;" horiz-adv-x="449" d="M384 72 C386 75 387 79 387 82 C387 87 385 92 380 95 L321 143 C318 145 314 146 311 146 C305 146 301 143 297 139 C286 128 278 113 246 113 L216 113 C195 113 184 132 184 154 L184 203 L382 203 C392 203 399 210 399 220 L399 366 C394 442 350 520 256 520 L198 520 C104 520 60 442 55 366 L55 149 C59 85 91 20 156 0 C150 -12 145 -30 145 -46 C145 -87 174 -123 228 -123 L310 -123 C317 -123 322 -118 322 -111 L322 -71 C322 -64 317 -59 310 -59 L245 -59 C245 -59 218 -59 218 -31 C218 -9 236 -5 242 -5 L249 -5 C263 -4 340 2 384 72 L384 72 Z M184 361 C184 383 195 402 216 402 L238 402 C259 402 270 383 270 361 L270 307 L184 307 L184 361 Z " />
<glyph glyph-name="Ecaron" unicode="&#x11a;" horiz-adv-x="477" d="M294 751 C303 751 309 758 313 767 L391 923 C391 932 384 939 375 939 L296 939 C287 939 281 932 277 923 L244 858 L211 923 C207 932 201 939 192 939 L113 939 C104 939 97 932 97 923 L175 767 C179 758 185 751 194 751 L294 751 Z M400 0 C410 0 417 7 417 17 L417 100 C417 110 410 117 400 117 L199 117 L199 304 L377 304 C387 304 394 311 394 321 L394 405 C394 415 387 422 377 422 L199 422 L199 582 L400 582 C410 582 417 589 417 599 L417 683 C417 693 410 700 400 700 L87 700 C77 700 70 693 70 683 L70 17 C70 7 77 0 87 0 L400 0 Z " />
<glyph glyph-name="ecaron" unicode="&#x11b;" horiz-adv-x="449" d="M278 571 C287 571 293 578 297 587 L375 743 C375 752 368 759 359 759 L280 759 C271 759 265 752 261 743 L228 678 L195 743 C191 752 185 759 176 759 L97 759 C88 759 81 752 81 743 L159 587 C163 578 169 571 178 571 L278 571 Z M384 72 C386 75 387 79 387 82 C387 87 385 92 380 95 L321 143 C318 145 314 146 311 146 C305 146 301 143 297 139 C286 128 278 113 246 113 L216 113 C195 113 184 132 184 154 L184 203 L382 203 C392 203 399 210 399 220 L399 366 C394 442 350 520 256 520 L198 520 C104 520 60 442 55 366 L55 149 C60 73 104 -5 198 -5 L246 -5 C246 -5 336 -5 384 72 L384 72 Z M184 361 C184 383 195 402 216 402 L238 402 C259 402 270 383 270 361 L270 307 L184 307 L184 361 Z " />
<glyph glyph-name="Gcircumflex" unicode="&#x11c;" horiz-adv-x="541" d="M219 939 C210 939 204 932 200 923 L122 767 C122 758 129 751 138 751 L217 751 C226 751 232 758 236 767 L269 832 L302 767 C306 758 312 751 321 751 L400 751 C409 751 416 758 416 767 L338 923 C334 932 328 939 319 939 L219 939 Z M258 295 C258 285 265 278 275 278 L352 278 L352 173 C352 140 325 113 295 113 L246 113 C216 113 189 140 189 173 L189 527 C189 560 216 587 246 587 L295 587 C325 587 352 560 352 527 L352 501 C352 491 359 484 369 484 L464 484 C474 484 481 491 481 501 L481 534 C481 629 401 705 303 705 L238 705 C140 705 60 629 60 534 L60 166 C60 71 140 -5 238 -5 L303 -5 C401 -5 481 71 481 166 L481 378 C481 388 474 395 464 395 L275 395 C265 395 258 388 258 378 L258 295 Z " />
<glyph glyph-name="gcircumflex" unicode="&#x11d;" horiz-adv-x="478" d="M175 759 C166 759 160 752 156 743 L78 587 C78 578 85 571 94 571 L173 571 C182 571 188 578 192 587 L225 652 L258 587 C262 578 268 571 277 571 L356 571 C365 571 372 578 372 587 L294 743 C290 752 284 759 275 759 L175 759 Z M279 154 C279 132 268 113 247 113 L211 113 C190 113 179 132 179 154 L179 361 C179 383 190 402 211 402 L247 402 C268 402 279 383 279 361 L279 154 Z M279 -24 C279 -49 276 -85 208 -85 C167 -85 154 -79 131 -74 C122 -74 114 -74 110 -86 C92 -158 92 -167 92 -169 C92 -177 97 -181 105 -184 C128 -191 140 -203 224 -203 C407 -203 408 -72 408 -25 L408 497 C408 508 401 515 390 515 L294 515 C283 515 279 508 279 497 L279 482 L271 482 C251 511 222 520 200 520 L178 520 C77 520 50 453 50 365 L50 150 C50 62 77 -5 178 -5 L200 -5 C222 -5 251 4 271 33 L279 33 L279 -24 Z " />
<glyph glyph-name="Gbreve" unicode="&#x11e;" horiz-adv-x="541" d="M258 295 C258 285 265 278 275 278 L352 278 L352 173 C352 140 325 113 295 113 L246 113 C216 113 189 140 189 173 L189 527 C189 560 216 587 246 587 L295 587 C325 587 352 560 352 527 L352 501 C352 491 359 484 369 484 L464 484 C474 484 481 491 481 501 L481 534 C481 629 401 705 303 705 L238 705 C140 705 60 629 60 534 L60 166 C60 71 140 -5 238 -5 L303 -5 C401 -5 481 71 481 166 L481 378 C481 388 474 395 464 395 L275 395 C265 395 258 388 258 378 L258 295 Z M271 751 C369 751 403 795 416 901 C416 911 409 918 399 918 L329 918 C319 918 311 911 307 901 C299 858 286 853 271 853 C256 853 243 858 235 901 C231 911 223 918 213 918 L143 918 C133 918 126 911 126 901 C139 795 173 751 271 751 L271 751 Z " />
<glyph glyph-name="gbreve" unicode="&#x11f;" horiz-adv-x="478" d="M279 154 C279 132 268 113 247 113 L211 113 C190 113 179 132 179 154 L179 361 C179 383 190 402 211 402 L247 402 C268 402 279 383 279 361 L279 154 Z M279 -24 C279 -49 276 -85 208 -85 C167 -85 154 -79 131 -74 C122 -74 114 -74 110 -86 C92 -158 92 -167 92 -169 C92 -177 97 -181 105 -184 C128 -191 140 -203 224 -203 C407 -203 408 -72 408 -25 L408 497 C408 508 401 515 390 515 L294 515 C283 515 279 508 279 497 L279 482 L271 482 C251 511 222 520 200 520 L178 520 C77 520 50 453 50 365 L50 150 C50 62 77 -5 178 -5 L200 -5 C222 -5 251 4 271 33 L279 33 L279 -24 Z M233 571 C331 571 365 615 378 721 C378 731 371 738 361 738 L291 738 C281 738 273 731 269 721 C261 678 248 673 233 673 C218 673 205 678 197 721 C193 731 185 738 175 738 L105 738 C95 738 88 731 88 721 C101 615 135 571 233 571 L233 571 Z " />
<glyph glyph-name="Gdotaccent" unicode="&#x120;" horiz-adv-x="541" d="M317 751 C326 751 333 758 333 767 L333 861 C333 870 326 877 317 877 L224 877 C214 877 208 870 208 861 L208 767 C208 758 214 751 224 751 L317 751 Z M258 295 C258 285 265 278 275 278 L352 278 L352 173 C352 140 325 113 295 113 L246 113 C216 113 189 140 189 173 L189 527 C189 560 216 587 246 587 L295 587 C325 587 352 560 352 527 L352 501 C352 491 359 484 369 484 L464 484 C474 484 481 491 481 501 L481 534 C481 629 401 705 303 705 L238 705 C140 705 60 629 60 534 L60 166 C60 71 140 -5 238 -5 L303 -5 C401 -5 481 71 481 166 L481 378 C481 388 474 395 464 395 L275 395 C265 395 258 388 258 378 L258 295 Z " />
<glyph glyph-name="gdotaccent" unicode="&#x121;" horiz-adv-x="478" d="M278 571 C287 571 294 578 294 587 L294 681 C294 690 287 697 278 697 L185 697 C175 697 169 690 169 681 L169 587 C169 578 175 571 185 571 L278 571 Z M279 154 C279 132 268 113 247 113 L211 113 C190 113 179 132 179 154 L179 361 C179 383 190 402 211 402 L247 402 C268 402 279 383 279 361 L279 154 Z M279 -24 C279 -49 276 -85 208 -85 C167 -85 154 -79 131 -74 C122 -74 114 -74 110 -86 C92 -158 92 -167 92 -169 C92 -177 97 -181 105 -184 C128 -191 140 -203 224 -203 C407 -203 408 -72 408 -25 L408 497 C408 508 401 515 390 515 L294 515 C283 515 279 508 279 497 L279 482 L271 482 C251 511 222 520 200 520 L178 520 C77 520 50 453 50 365 L50 150 C50 62 77 -5 178 -5 L200 -5 C222 -5 251 4 271 33 L279 33 L279 -24 Z " />
<glyph glyph-name="uni0122" unicode="&#x122;" horiz-adv-x="541" d="M268 -201 C278 -201 285 -193 289 -184 L330 -70 C330 -60 323 -53 313 -53 L222 -53 C212 -53 205 -61 201 -70 L160 -184 C160 -194 167 -201 177 -201 L268 -201 Z M258 295 C258 285 265 278 275 278 L352 278 L352 173 C352 140 325 113 295 113 L246 113 C216 113 189 140 189 173 L189 527 C189 560 216 587 246 587 L295 587 C325 587 352 560 352 527 L352 501 C352 491 359 484 369 484 L464 484 C474 484 481 491 481 501 L481 534 C481 629 401 705 303 705 L238 705 C140 705 60 629 60 534 L60 166 C60 71 140 -5 238 -5 L303 -5 C401 -5 481 71 481 166 L481 378 C481 388 474 395 464 395 L275 395 C265 395 258 388 258 378 L258 295 Z " />
<glyph glyph-name="uni0123" unicode="&#x123;" horiz-adv-x="478" d="M280 571 C290 571 297 579 301 588 L362 716 C362 726 355 733 345 733 L254 733 C244 733 237 725 233 716 L172 588 C172 578 179 571 189 571 L280 571 Z M279 154 C279 132 268 113 247 113 L211 113 C190 113 179 132 179 154 L179 361 C179 383 190 402 211 402 L247 402 C268 402 279 383 279 361 L279 154 Z M279 -24 C279 -49 276 -85 208 -85 C167 -85 154 -79 131 -74 C122 -74 114 -74 110 -86 C92 -158 92 -167 92 -169 C92 -177 97 -181 105 -184 C128 -191 140 -203 224 -203 C407 -203 408 -72 408 -25 L408 497 C408 508 401 515 390 515 L294 515 C283 515 279 508 279 497 L279 482 L271 482 C251 511 222 520 200 520 L178 520 C77 520 50 453 50 365 L50 150 C50 62 77 -5 178 -5 L200 -5 C222 -5 251 4 271 33 L279 33 L279 -24 Z " />
<glyph glyph-name="Hcircumflex" unicode="&#x124;" horiz-adv-x="553" d="M226 939 C217 939 211 932 207 923 L129 767 C129 758 136 751 145 751 L224 751 C233 751 239 758 243 767 L276 832 L309 767 C313 758 319 751 328 751 L407 751 C416 751 423 758 423 767 L345 923 C341 932 335 939 326 939 L226 939 Z M199 683 C199 693 192 700 182 700 L87 700 C77 700 70 693 70 683 L70 17 C70 7 77 0 87 0 L182 0 C192 0 199 7 199 17 L199 281 L354 281 L354 17 C354 7 361 0 371 0 L466 0 C476 0 483 7 483 17 L483 683 C483 693 476 700 466 700 L371 700 C361 700 354 693 354 683 L354 399 L199 399 L199 683 Z " />
<glyph glyph-name="hcircumflex" unicode="&#x125;" horiz-adv-x="480" d="M173 939 C164 939 158 932 154 923 L76 767 C76 758 83 751 92 751 L171 751 C180 751 186 758 190 767 L223 832 L256 767 C260 758 266 751 275 751 L354 751 C363 751 370 758 370 767 L292 923 C288 932 282 939 273 939 L173 939 Z M199 345 C210 393 224 402 246 402 L259 402 C280 402 291 383 291 361 L291 17 C291 7 298 0 308 0 L403 0 C413 0 420 7 420 17 L420 365 C420 453 408 520 316 520 L301 520 C279 520 236 519 207 463 L199 463 L199 682 C199 693 195 700 184 700 L88 700 C77 700 70 693 70 682 L70 17 C70 7 77 0 87 0 L182 0 C192 0 199 7 199 17 L199 345 Z " />
<glyph glyph-name="Hbar" unicode="&#x126;" horiz-adv-x="535" d="M508 434 C518 434 525 441 525 451 L525 534 C525 544 518 551 508 551 L474 551 L474 683 C474 693 467 700 457 700 L362 700 C352 700 345 693 345 683 L345 551 L190 551 L190 683 C190 693 183 700 173 700 L78 700 C68 700 61 693 61 683 L61 551 L27 551 C17 551 10 544 10 534 L10 451 C10 441 17 434 27 434 L61 434 L61 17 C61 7 68 0 78 0 L173 0 C183 0 190 7 190 17 L190 205 L345 205 L345 17 C345 7 352 0 362 0 L457 0 C467 0 474 7 474 17 L474 434 L508 434 Z M190 434 L345 434 L345 323 L190 323 L190 434 Z " />
<glyph glyph-name="hbar" unicode="&#x127;" horiz-adv-x="478" d="M68 547 L68 17 C68 7 75 0 85 0 L180 0 C190 0 197 7 197 17 L197 345 C208 393 222 402 244 402 L257 402 C278 402 289 383 289 361 L289 17 C289 7 296 0 306 0 L401 0 C411 0 418 7 418 17 L418 365 C418 453 406 520 314 520 L299 520 C277 520 234 519 205 463 L197 463 L197 547 L257 547 C267 547 274 554 274 564 L274 635 C274 645 267 652 257 652 L197 652 L197 682 C197 693 193 700 182 700 L86 700 C75 700 68 693 68 682 L68 652 L27 652 C17 652 10 645 10 635 L10 564 C10 554 17 547 27 547 L68 547 Z " />
<glyph glyph-name="Itilde" unicode="&#x128;" horiz-adv-x="269" d="M182 0 C192 0 199 7 199 17 L199 683 C199 693 192 700 182 700 L87 700 C77 700 70 693 70 683 L70 17 C70 7 77 0 87 0 L182 0 Z M181 751 C208 751 226 761 252 777 C258 782 263 789 263 797 C263 798 263 800 244 866 C242 872 236 878 226 878 C210 878 196 868 181 868 C140 868 132 907 91 907 C65 907 44 897 19 881 C12 876 7 869 7 861 L28 792 C30 786 37 781 46 781 C63 781 76 790 91 790 C133 790 140 751 181 751 L181 751 Z " />
<glyph glyph-name="itilde" unicode="&#x129;" horiz-adv-x="269" d="M182 0 C192 0 199 7 199 17 L199 498 C199 508 192 515 182 515 L87 515 C77 515 70 508 70 498 L70 17 C70 7 77 0 87 0 L182 0 Z M181 571 C208 571 226 581 252 597 C258 602 263 609 263 617 C263 618 263 620 244 686 C242 692 236 698 226 698 C210 698 196 688 181 688 C140 688 132 727 91 727 C65 727 44 717 19 701 C12 696 7 689 7 681 L28 612 C30 606 37 601 46 601 C63 601 76 610 91 610 C133 610 140 571 181 571 L181 571 Z " />
<glyph glyph-name="Imacron" unicode="&#x12a;" horiz-adv-x="269" d="M182 0 C192 0 199 7 199 17 L199 683 C199 693 192 700 182 700 L87 700 C77 700 70 693 70 683 L70 17 C70 7 77 0 87 0 L182 0 Z M226 751 C236 751 243 758 243 768 L243 851 C243 861 236 868 226 868 L41 868 C31 868 24 861 24 851 L24 768 C24 758 31 751 41 751 L226 751 Z " />
<glyph glyph-name="imacron" unicode="&#x12b;" horiz-adv-x="269" d="M182 0 C192 0 199 7 199 17 L199 498 C199 508 192 515 182 515 L87 515 C77 515 70 508 70 498 L70 17 C70 7 77 0 87 0 L182 0 Z M226 571 C236 571 243 578 243 588 L243 671 C243 681 236 688 226 688 L41 688 C31 688 24 681 24 671 L24 588 C24 578 31 571 41 571 L226 571 Z " />
<glyph glyph-name="Iogonek" unicode="&#x12e;" horiz-adv-x="269" d="M70 64 C35 64 0 43 0 2 C0 -69 16 -93 70 -93 L152 -93 C159 -93 164 -88 164 -81 L164 -41 C164 -34 159 -29 152 -29 L87 -29 C87 -29 73 -29 73 -15 C73 -3 81 0 87 0 L182 0 C192 0 199 7 199 17 L199 683 C199 693 192 700 182 700 L87 700 C77 700 70 693 70 683 L70 64 Z " />
<glyph glyph-name="iogonek" unicode="&#x12f;" horiz-adv-x="269" d="M70 64 C35 64 0 43 0 2 C0 -69 16 -93 70 -93 L152 -93 C159 -93 164 -88 164 -81 L164 -41 C164 -34 159 -29 152 -29 L87 -29 C87 -29 73 -29 73 -15 C73 -3 81 0 87 0 L182 0 C192 0 199 7 199 17 L199 498 C199 508 192 515 182 515 L87 515 C77 515 70 508 70 498 L70 64 Z M185 565 C195 565 202 572 202 582 L202 683 C202 693 195 700 185 700 L85 700 C75 700 68 693 68 683 L68 582 C68 572 75 565 85 565 L185 565 Z " />
<glyph glyph-name="Idotaccent" unicode="&#x130;" horiz-adv-x="269" d="M182 0 C192 0 199 7 199 17 L199 554 C199 564 192 571 182 571 L87 571 C77 571 70 564 70 554 L70 17 C70 7 77 0 87 0 L182 0 Z M185 621 C195 621 202 628 202 638 L202 739 C202 749 195 756 185 756 L85 756 C75 756 68 749 68 739 L68 638 C68 628 75 621 85 621 L185 621 Z " />
<glyph glyph-name="dotlessi" unicode="&#x131;" horiz-adv-x="269" d="M182 0 C192 0 199 7 199 17 L199 498 C199 508 192 515 182 515 L87 515 C77 515 70 508 70 498 L70 17 C70 7 77 0 87 0 L182 0 Z " />
<glyph glyph-name="Jcircumflex" unicode="&#x134;" horiz-adv-x="396" d="M148 939 C139 939 133 932 129 923 L51 767 C51 758 58 751 67 751 L146 751 C155 751 161 758 165 767 L198 832 L231 767 C235 758 241 751 250 751 L329 751 C338 751 345 758 345 767 L267 923 C263 932 257 939 248 939 L148 939 Z M91 142 C87 145 83 146 78 146 C74 146 70 145 66 142 L6 87 C2 83 0 79 0 74 C0 70 2 66 5 62 C23 41 60 -5 151 -5 C290 -5 346 84 346 175 L346 683 C346 693 339 700 329 700 L234 700 C224 700 217 693 217 683 L217 178 C217 178 217 113 151 113 C129 113 116 119 91 142 L91 142 Z " />
<glyph glyph-name="jcircumflex" unicode="&#x135;" horiz-adv-x="269" d="M41 -186 C41 -186 199 -142 199 12 L199 498 C199 508 192 515 182 515 L87 515 C77 515 70 508 70 498 L70 17 C70 17 70 -41 -8 -67 C-15 -69 -19 -76 -19 -82 C-19 -84 -18 -87 -17 -89 L19 -177 C22 -184 28 -188 34 -188 C36 -188 39 -187 41 -186 L41 -186 Z M84 759 C75 759 69 752 65 743 L-13 587 C-13 578 -6 571 3 571 L82 571 C91 571 97 578 101 587 L134 652 L167 587 C171 578 177 571 186 571 L265 571 C274 571 281 578 281 587 L203 743 C199 752 193 759 184 759 L84 759 Z " />
<glyph glyph-name="uni0136" unicode="&#x136;" horiz-adv-x="527" d="M288 -201 C298 -201 305 -193 309 -184 L350 -70 C350 -60 343 -53 333 -53 L242 -53 C232 -53 225 -61 221 -70 L180 -184 C180 -194 187 -201 197 -201 L288 -201 Z M392 349 L494 683 C494 693 487 700 477 700 L384 700 C374 700 368 692 363 683 L279 407 L199 407 L199 683 C199 693 192 700 182 700 L87 700 C77 700 70 693 70 683 L70 17 C70 7 77 0 87 0 L182 0 C192 0 199 7 199 17 L199 292 L278 292 L364 17 C369 8 375 0 385 0 L479 0 C489 0 496 7 496 17 L392 349 Z " />
<glyph glyph-name="uni0137" unicode="&#x137;" horiz-adv-x="462" d="M253 -201 C263 -201 270 -193 274 -184 L315 -70 C315 -60 308 -53 298 -53 L207 -53 C197 -53 190 -61 186 -70 L145 -184 C145 -194 152 -201 162 -201 L253 -201 Z M375 270 L442 498 C442 508 435 515 425 515 L337 515 C327 515 314 508 311 498 L259 328 L199 328 L199 683 C199 693 192 700 182 700 L87 700 C77 700 70 693 70 683 L70 17 C70 7 77 0 87 0 L182 0 C192 0 199 7 199 17 L199 213 L258 213 L309 17 C311 7 320 0 330 0 L424 0 C434 0 441 7 441 17 L375 270 Z " />
<glyph glyph-name="kgreenlandic" unicode="&#x138;" horiz-adv-x="462" d="M375 270 L442 498 C442 508 435 515 425 515 L337 515 C327 515 314 508 311 498 L259 328 L199 328 L199 498 C199 508 192 515 182 515 L87 515 C77 515 70 508 70 498 L70 17 C70 7 77 0 87 0 L182 0 C192 0 199 7 199 17 L199 213 L258 213 L309 17 C311 7 320 0 330 0 L424 0 C434 0 441 7 441 17 L375 270 Z " />
<glyph glyph-name="Lacute" unicode="&#x139;" horiz-adv-x="447" d="M182 751 C192 751 199 759 203 768 L264 896 C264 906 257 913 247 913 L156 913 C146 913 139 905 135 896 L74 768 C74 758 81 751 91 751 L182 751 Z M199 683 C199 693 192 700 182 700 L87 700 C77 700 70 693 70 683 L70 17 C70 7 77 0 87 0 L400 0 C410 0 417 7 417 17 L417 101 C417 111 410 118 400 118 L199 118 L199 683 Z " />
<glyph glyph-name="lacute" unicode="&#x13a;" horiz-adv-x="269" d="M182 0 C192 0 199 7 199 17 L199 683 C199 693 192 700 182 700 L87 700 C77 700 70 693 70 683 L70 17 C70 7 77 0 87 0 L182 0 Z M178 751 C188 751 195 759 199 768 L260 896 C260 906 253 913 243 913 L152 913 C142 913 135 905 131 896 L70 768 C70 758 77 751 87 751 L178 751 Z " />
<glyph glyph-name="uni013B" unicode="&#x13b;" horiz-adv-x="447" d="M250 -201 C260 -201 267 -193 271 -184 L312 -70 C312 -60 305 -53 295 -53 L204 -53 C194 -53 187 -61 183 -70 L142 -184 C142 -194 149 -201 159 -201 L250 -201 Z M199 683 C199 693 192 700 182 700 L87 700 C77 700 70 693 70 683 L70 17 C70 7 77 0 87 0 L400 0 C410 0 417 7 417 17 L417 101 C417 111 410 118 400 118 L199 118 L199 683 Z " />
<glyph glyph-name="uni013C" unicode="&#x13c;" horiz-adv-x="269" d="M182 0 C192 0 199 7 199 17 L199 683 C199 693 192 700 182 700 L87 700 C77 700 70 693 70 683 L70 17 C70 7 77 0 87 0 L182 0 Z M137 -201 C147 -201 154 -193 158 -184 L199 -70 C199 -60 192 -53 182 -53 L91 -53 C81 -53 74 -61 70 -70 L29 -184 C29 -194 36 -201 46 -201 L137 -201 Z " />
<glyph glyph-name="Lcaron" unicode="&#x13d;" horiz-adv-x="479" d="M367 538 C377 538 384 546 388 555 L449 683 C449 693 442 700 432 700 L341 700 C331 700 324 692 320 683 L259 555 C259 545 266 538 276 538 L367 538 Z M199 683 C199 693 192 700 182 700 L87 700 C77 700 70 693 70 683 L70 17 C70 7 77 0 87 0 L400 0 C410 0 417 7 417 17 L417 101 C417 111 410 118 400 118 L199 118 L199 683 Z " />
<glyph glyph-name="lcaron" unicode="&#x13e;" horiz-adv-x="474" d="M182 0 C192 0 199 7 199 17 L199 683 C199 693 192 700 182 700 L87 700 C77 700 70 693 70 683 L70 17 C70 7 77 0 87 0 L182 0 Z M382 538 C392 538 399 546 403 555 L464 683 C464 693 457 700 447 700 L356 700 C346 700 339 692 335 683 L274 555 C274 545 281 538 291 538 L382 538 Z " />
<glyph glyph-name="Lslash" unicode="&#x141;" horiz-adv-x="455" d="M258 332 C268 335 275 339 275 349 L275 432 C275 442 268 449 258 449 L207 435 L207 683 C207 693 200 700 190 700 L95 700 C85 700 78 693 78 683 L78 399 L27 384 C17 381 10 377 10 367 L10 284 C10 274 17 267 27 267 L78 282 L78 17 C78 7 85 0 95 0 L408 0 C418 0 425 7 425 17 L425 101 C425 111 418 118 408 118 L207 118 L207 318 L258 332 Z " />
<glyph glyph-name="lslash" unicode="&#x142;" horiz-adv-x="285" d="M258 332 C268 335 275 339 275 349 L275 432 C275 442 268 449 258 449 L207 435 L207 683 C207 693 200 700 190 700 L95 700 C85 700 78 693 78 683 L78 399 L27 384 C17 381 10 377 10 367 L10 284 C10 274 17 267 27 267 L78 282 L78 17 C78 7 85 0 95 0 L190 0 C200 0 207 7 207 17 L207 318 L258 332 Z " />
<glyph glyph-name="Nacute" unicode="&#x143;" horiz-adv-x="589" d="M356 751 C366 751 373 759 377 768 L438 896 C438 906 431 913 421 913 L330 913 C320 913 313 905 309 896 L248 768 C248 758 255 751 265 751 L356 751 Z M213 700 L87 700 C77 700 70 693 70 683 L70 17 C70 7 77 0 87 0 L182 0 C192 0 199 7 199 17 L199 414 L204 414 L356 17 C360 8 366 0 376 0 L502 0 C512 0 519 7 519 17 L519 683 C519 693 512 700 502 700 L407 700 C397 700 390 693 390 683 L390 290 L385 290 L233 683 C229 692 223 700 213 700 L213 700 Z " />
<glyph glyph-name="nacute" unicode="&#x144;" horiz-adv-x="480" d="M301 571 C311 571 318 579 322 588 L383 716 C383 726 376 733 366 733 L275 733 C265 733 258 725 254 716 L193 588 C193 578 200 571 210 571 L301 571 Z M199 345 C210 393 224 402 246 402 L259 402 C280 402 291 383 291 361 L291 17 C291 7 298 0 308 0 L403 0 C413 0 420 7 420 17 L420 365 C420 453 408 520 316 520 L301 520 C279 520 236 519 207 463 L199 463 L199 497 C199 508 195 515 184 515 L88 515 C77 515 70 508 70 497 L70 17 C70 7 77 0 87 0 L182 0 C192 0 199 7 199 17 L199 345 Z " />
<glyph glyph-name="uni0145" unicode="&#x145;" horiz-adv-x="589" d="M317 -201 C327 -201 334 -193 338 -184 L379 -70 C379 -60 372 -53 362 -53 L271 -53 C261 -53 254 -61 250 -70 L209 -184 C209 -194 216 -201 226 -201 L317 -201 Z M213 700 L87 700 C77 700 70 693 70 683 L70 17 C70 7 77 0 87 0 L182 0 C192 0 199 7 199 17 L199 414 L204 414 L356 17 C360 8 366 0 376 0 L502 0 C512 0 519 7 519 17 L519 683 C519 693 512 700 502 700 L407 700 C397 700 390 693 390 683 L390 290 L385 290 L233 683 C229 692 223 700 213 700 L213 700 Z " />
<glyph glyph-name="uni0146" unicode="&#x146;" horiz-adv-x="480" d="M243 -201 C253 -201 260 -193 264 -184 L305 -70 C305 -60 298 -53 288 -53 L197 -53 C187 -53 180 -61 176 -70 L135 -184 C135 -194 142 -201 152 -201 L243 -201 Z M199 345 C210 393 224 402 246 402 L259 402 C280 402 291 383 291 361 L291 17 C291 7 298 0 308 0 L403 0 C413 0 420 7 420 17 L420 365 C420 453 408 520 316 520 L301 520 C279 520 236 519 207 463 L199 463 L199 497 C199 508 195 515 184 515 L88 515 C77 515 70 508 70 497 L70 17 C70 7 77 0 87 0 L182 0 C192 0 199 7 199 17 L199 345 Z " />
<glyph glyph-name="Ncaron" unicode="&#x147;" horiz-adv-x="589" d="M345 751 C354 751 360 758 364 767 L442 923 C442 932 435 939 426 939 L347 939 C338 939 332 932 328 923 L295 858 L262 923 C258 932 252 939 243 939 L164 939 C155 939 148 932 148 923 L226 767 C230 758 236 751 245 751 L345 751 Z M213 700 L87 700 C77 700 70 693 70 683 L70 17 C70 7 77 0 87 0 L182 0 C192 0 199 7 199 17 L199 414 L204 414 L356 17 C360 8 366 0 376 0 L502 0 C512 0 519 7 519 17 L519 683 C519 693 512 700 502 700 L407 700 C397 700 390 693 390 683 L390 290 L385 290 L233 683 C229 692 223 700 213 700 L213 700 Z " />
<glyph glyph-name="ncaron" unicode="&#x148;" horiz-adv-x="480" d="M299 571 C308 571 314 578 318 587 L396 743 C396 752 389 759 380 759 L301 759 C292 759 286 752 282 743 L249 678 L216 743 C212 752 206 759 197 759 L118 759 C109 759 102 752 102 743 L180 587 C184 578 190 571 199 571 L299 571 Z M199 345 C210 393 224 402 246 402 L259 402 C280 402 291 383 291 361 L291 17 C291 7 298 0 308 0 L403 0 C413 0 420 7 420 17 L420 365 C420 453 408 520 316 520 L301 520 C279 520 236 519 207 463 L199 463 L199 497 C199 508 195 515 184 515 L88 515 C77 515 70 508 70 497 L70 17 C70 7 77 0 87 0 L182 0 C192 0 199 7 199 17 L199 345 Z " />
<glyph glyph-name="Eng" unicode="&#x14a;" horiz-adv-x="589" d="M361 -186 C361 -186 519 -142 519 12 L519 683 C519 693 512 700 502 700 L407 700 C397 700 390 693 390 683 L390 290 L385 290 L233 683 C229 692 223 700 213 700 L87 700 C77 700 70 693 70 683 L70 17 C70 7 77 0 87 0 L182 0 C192 0 199 7 199 17 L199 414 L204 414 L373 -26 C362 -41 343 -56 312 -67 C305 -69 301 -76 301 -82 C301 -84 302 -87 303 -89 L339 -177 C342 -184 348 -188 354 -188 C356 -188 359 -187 361 -186 L361 -186 Z " />
<glyph glyph-name="eng" unicode="&#x14b;" horiz-adv-x="480" d="M291 17 C290 3 281 -44 213 -67 C206 -69 202 -76 202 -82 C202 -84 203 -87 204 -89 L240 -177 C243 -184 249 -188 255 -188 C257 -188 260 -187 262 -186 C262 -186 420 -142 420 12 L420 365 C420 453 408 520 316 520 L301 520 C279 520 236 519 207 463 L199 463 L199 497 C199 508 195 515 184 515 L88 515 C77 515 70 508 70 497 L70 17 C70 7 77 0 87 0 L182 0 C192 0 199 7 199 17 L199 345 C210 393 224 402 246 402 L259 402 C280 402 291 383 291 361 L291 17 Z " />
<glyph glyph-name="Omacron" unicode="&#x14c;" horiz-adv-x="541" d="M401 751 C411 751 418 758 418 768 L418 851 C418 861 411 868 401 868 L140 868 C130 868 123 861 123 851 L123 768 C123 758 130 751 140 751 L401 751 Z M238 -5 L303 -5 C401 -5 481 71 481 166 L481 534 C481 629 401 705 303 705 L238 705 C140 705 60 629 60 534 L60 166 C60 71 140 -5 238 -5 L238 -5 Z M295 587 C325 587 352 560 352 527 L352 173 C352 140 325 113 295 113 L246 113 C216 113 189 140 189 173 L189 527 C189 560 216 587 246 587 L295 587 Z " />
<glyph glyph-name="omacron" unicode="&#x14d;" horiz-adv-x="454" d="M319 571 C329 571 336 578 336 588 L336 671 C336 681 329 688 319 688 L134 688 C124 688 117 681 117 671 L117 588 C117 578 124 571 134 571 L319 571 Z M216 113 C195 113 184 132 184 154 L184 361 C184 383 195 402 216 402 L238 402 C259 402 270 383 270 361 L270 154 C270 132 259 113 238 113 L216 113 Z M256 -5 C350 -5 394 73 399 149 L399 366 C394 442 350 520 256 520 L198 520 C104 520 60 442 55 366 L55 149 C60 73 104 -5 198 -5 L256 -5 Z " />
<glyph glyph-name="Ohungarumlaut" unicode="&#x150;" horiz-adv-x="541" d="M225 751 C235 751 242 759 246 768 L307 896 C307 906 300 913 290 913 L199 913 C189 913 182 905 178 896 L126 768 C126 758 133 751 143 751 L225 751 Z M399 751 C409 751 416 759 420 768 L481 896 C481 906 474 913 464 913 L373 913 C363 913 356 905 352 896 L300 768 C300 758 307 751 317 751 L399 751 Z M238 -5 L303 -5 C401 -5 481 71 481 166 L481 534 C481 629 401 705 303 705 L238 705 C140 705 60 629 60 534 L60 166 C60 71 140 -5 238 -5 L238 -5 Z M295 587 C325 587 352 560 352 527 L352 173 C352 140 325 113 295 113 L246 113 C216 113 189 140 189 173 L189 527 C189 560 216 587 246 587 L295 587 Z " />
<glyph glyph-name="ohungarumlaut" unicode="&#x151;" horiz-adv-x="454" d="M155 571 C164 571 171 579 175 587 L233 709 C233 719 226 726 217 726 L130 726 C120 726 113 718 110 709 L60 587 C60 578 67 571 76 571 L155 571 Z M321 571 C330 571 337 579 341 587 L399 709 C399 719 392 726 383 726 L296 726 C286 726 280 718 276 709 L226 587 C226 578 233 571 242 571 L321 571 Z M216 113 C195 113 184 132 184 154 L184 361 C184 383 195 402 216 402 L238 402 C259 402 270 383 270 361 L270 154 C270 132 259 113 238 113 L216 113 Z M256 -5 C350 -5 394 73 399 149 L399 366 C394 442 350 520 256 520 L198 520 C104 520 60 442 55 366 L55 149 C60 73 104 -5 198 -5 L256 -5 Z " />
<glyph glyph-name="OE" unicode="&#x152;" horiz-adv-x="759" d="M238 0 L682 0 C692 0 699 7 699 17 L699 100 C699 110 692 117 682 117 L481 117 L481 304 L659 304 C669 304 676 311 676 321 L676 405 C676 415 669 422 659 422 L481 422 L481 582 L682 582 C692 582 699 589 699 599 L699 683 C699 693 692 700 682 700 L238 700 C140 700 60 624 60 529 L60 171 C60 76 140 0 238 0 L238 0 Z M352 178 C352 145 325 118 295 118 L246 118 C216 118 189 145 189 178 L189 522 C189 555 216 582 246 582 L295 582 C325 582 352 555 352 522 L352 178 Z " />
<glyph glyph-name="oe" unicode="&#x153;" horiz-adv-x="664" d="M599 72 C601 75 602 79 602 82 C602 87 600 92 595 95 L536 143 C533 145 529 146 526 146 C520 146 516 143 512 139 C501 128 493 113 461 113 L431 113 C410 113 399 132 399 154 L399 203 L597 203 C607 203 614 210 614 220 L614 366 C609 442 565 520 471 520 L413 520 C381 520 355 511 334 496 C314 511 287 520 256 520 L198 520 C104 520 60 442 55 366 L55 149 C60 73 104 -5 198 -5 L256 -5 C287 -5 314 4 334 18 C355 4 381 -5 413 -5 L461 -5 C461 -5 551 -5 599 72 L599 72 Z M216 113 C195 113 184 132 184 154 L184 361 C184 383 195 402 216 402 L238 402 C257 402 268 386 270 366 L270 149 C268 129 257 113 238 113 L216 113 Z M399 361 C399 383 410 402 431 402 L453 402 C474 402 485 383 485 361 L485 307 L399 307 L399 361 Z " />
<glyph glyph-name="Racute" unicode="&#x154;" horiz-adv-x="535" d="M304 751 C314 751 321 759 325 768 L386 896 C386 906 379 913 369 913 L278 913 C268 913 261 905 257 896 L196 768 C196 758 203 751 213 751 L304 751 Z M87 700 C77 700 70 693 70 683 L70 17 C70 7 77 0 87 0 L182 0 C192 0 199 7 199 17 L199 205 L268 205 L354 17 C357 7 364 0 374 0 L478 0 C488 0 495 7 495 17 L394 229 C445 259 480 313 480 376 L480 529 C480 624 400 700 302 700 L87 700 Z M199 324 L199 582 L294 582 C324 582 351 555 351 522 L351 384 C351 351 324 324 294 324 L199 324 Z " />
<glyph glyph-name="racute" unicode="&#x155;" horiz-adv-x="349" d="M179 571 C189 571 196 579 200 588 L261 716 C261 726 254 733 244 733 L153 733 C143 733 136 725 132 716 L71 588 C71 578 78 571 88 571 L179 571 Z M305 396 C315 396 322 403 322 413 L329 495 C329 505 326 510 316 514 C303 518 291 520 275 520 C253 520 228 518 207 463 L199 463 L199 497 C199 508 195 515 184 515 L88 515 C77 515 70 508 70 497 L70 17 C70 7 77 0 87 0 L182 0 C192 0 199 7 199 17 L199 345 C220 399 245 402 267 402 C284 402 291 399 305 396 L305 396 Z " />
<glyph glyph-name="uni0156" unicode="&#x156;" horiz-adv-x="535" d="M288 -201 C298 -201 305 -193 309 -184 L350 -70 C350 -60 343 -53 333 -53 L242 -53 C232 -53 225 -61 221 -70 L180 -184 C180 -194 187 -201 197 -201 L288 -201 Z M87 700 C77 700 70 693 70 683 L70 17 C70 7 77 0 87 0 L182 0 C192 0 199 7 199 17 L199 205 L268 205 L354 17 C357 7 364 0 374 0 L478 0 C488 0 495 7 495 17 L394 229 C445 259 480 313 480 376 L480 529 C480 624 400 700 302 700 L87 700 Z M199 324 L199 582 L294 582 C324 582 351 555 351 522 L351 384 C351 351 324 324 294 324 L199 324 Z " />
<glyph glyph-name="uni0157" unicode="&#x157;" horiz-adv-x="349" d="M181 -201 C191 -201 198 -193 202 -184 L243 -70 C243 -60 236 -53 226 -53 L135 -53 C125 -53 118 -61 114 -70 L73 -184 C73 -194 80 -201 90 -201 L181 -201 Z M305 396 C315 396 322 403 322 413 L329 495 C329 505 326 510 316 514 C303 518 291 520 275 520 C253 520 228 518 207 463 L199 463 L199 497 C199 508 195 515 184 515 L88 515 C77 515 70 508 70 497 L70 17 C70 7 77 0 87 0 L182 0 C192 0 199 7 199 17 L199 345 C220 399 245 402 267 402 C284 402 291 399 305 396 L305 396 Z " />
<glyph glyph-name="Rcaron" unicode="&#x158;" horiz-adv-x="535" d="M279 751 C288 751 294 758 298 767 L376 923 C376 932 369 939 360 939 L281 939 C272 939 266 932 262 923 L229 858 L196 923 C192 932 186 939 177 939 L98 939 C89 939 82 932 82 923 L160 767 C164 758 170 751 179 751 L279 751 Z M87 700 C77 700 70 693 70 683 L70 17 C70 7 77 0 87 0 L182 0 C192 0 199 7 199 17 L199 205 L268 205 L354 17 C357 7 364 0 374 0 L478 0 C488 0 495 7 495 17 L394 229 C445 259 480 313 480 376 L480 529 C480 624 400 700 302 700 L87 700 Z M199 324 L199 582 L294 582 C324 582 351 555 351 522 L351 384 C351 351 324 324 294 324 L199 324 Z " />
<glyph glyph-name="rcaron" unicode="&#x159;" horiz-adv-x="349" d="M244 571 C252 571 258 577 261 585 L329 721 C329 729 323 735 315 735 L246 735 C238 735 233 729 229 721 L200 665 L172 721 C168 729 163 735 155 735 L86 735 C78 735 72 729 72 721 L140 585 C143 577 149 571 157 571 L244 571 Z M305 396 C315 396 322 403 322 413 L329 495 C329 505 326 510 316 514 C303 518 291 520 275 520 C253 520 228 518 207 463 L199 463 L199 497 C199 508 195 515 184 515 L88 515 C77 515 70 508 70 497 L70 17 C70 7 77 0 87 0 L182 0 C192 0 199 7 199 17 L199 345 C220 399 245 402 267 402 C284 402 291 399 305 396 L305 396 Z " />
<glyph glyph-name="Sacute" unicode="&#x15a;" horiz-adv-x="506" d="M211 751 C201 751 194 758 194 768 L255 896 C259 905 266 913 276 913 L367 913 C377 913 384 906 384 896 L323 768 C319 759 312 751 302 751 L211 751 Z M461 182 C461 479 169 334 169 500 L169 527 C169 560 190 587 220 587 L271 587 C301 587 322 560 322 527 L322 514 C322 504 329 497 339 497 L434 497 C444 497 451 504 451 514 L451 534 C451 629 377 705 279 705 L212 705 C114 705 40 629 40 534 L40 512 C40 215 332 360 332 194 L332 173 C332 140 311 113 281 113 L220 113 C190 113 169 140 169 173 L169 192 C169 202 162 209 152 209 L57 209 C47 209 40 202 40 192 L40 166 C40 71 114 -5 212 -5 L289 -5 C387 -5 461 71 461 166 L461 182 Z " />
<glyph glyph-name="sacute" unicode="&#x15b;" horiz-adv-x="429" d="M255 571 C265 571 272 579 276 588 L337 716 C337 726 330 733 320 733 L229 733 C219 733 212 725 208 716 L147 588 C147 578 154 571 164 571 L255 571 Z M45 369 C45 171 260 235 260 158 L260 141 C260 119 249 108 228 108 L206 108 C185 108 174 127 174 149 L174 154 C174 164 167 171 157 171 L62 171 C52 171 45 164 45 154 L45 149 C50 73 94 -5 188 -5 L246 -5 C340 -5 384 62 389 138 L389 151 C389 348 174 284 174 362 L174 374 C174 396 185 407 206 407 L221 407 C242 407 253 388 253 366 L253 361 C253 351 260 344 270 344 L365 344 C375 344 382 351 382 361 L382 366 C377 442 333 520 239 520 L188 520 C94 520 50 453 45 377 L45 369 Z " />
<glyph glyph-name="Scircumflex" unicode="&#x15c;" horiz-adv-x="506" d="M292 939 C301 939 307 932 311 923 L389 767 C389 758 382 751 373 751 L294 751 C285 751 279 758 275 767 L242 832 L209 767 C205 758 199 751 190 751 L111 751 C102 751 95 758 95 767 L173 923 C177 932 183 939 192 939 L292 939 Z M461 182 C461 479 169 334 169 500 L169 527 C169 560 190 587 220 587 L271 587 C301 587 322 560 322 527 L322 514 C322 504 329 497 339 497 L434 497 C444 497 451 504 451 514 L451 534 C451 629 377 705 279 705 L212 705 C114 705 40 629 40 534 L40 512 C40 215 332 360 332 194 L332 173 C332 140 311 113 281 113 L220 113 C190 113 169 140 169 173 L169 192 C169 202 162 209 152 209 L57 209 C47 209 40 202 40 192 L40 166 C40 71 114 -5 212 -5 L289 -5 C387 -5 461 71 461 166 L461 182 Z " />
<glyph glyph-name="scircumflex" unicode="&#x15d;" horiz-adv-x="429" d="M166 759 C157 759 151 752 147 743 L69 587 C69 578 76 571 85 571 L164 571 C173 571 179 578 183 587 L216 652 L249 587 C253 578 259 571 268 571 L347 571 C356 571 363 578 363 587 L285 743 C281 752 275 759 266 759 L166 759 Z M45 369 C45 171 260 235 260 158 L260 141 C260 119 249 108 228 108 L206 108 C185 108 174 127 174 149 L174 154 C174 164 167 171 157 171 L62 171 C52 171 45 164 45 154 L45 149 C50 73 94 -5 188 -5 L246 -5 C340 -5 384 62 389 138 L389 151 C389 348 174 284 174 362 L174 374 C174 396 185 407 206 407 L221 407 C242 407 253 388 253 366 L253 361 C253 351 260 344 270 344 L365 344 C375 344 382 351 382 361 L382 366 C377 442 333 520 239 520 L188 520 C94 520 50 453 45 377 L45 369 Z " />
<glyph glyph-name="Scedilla" unicode="&#x15e;" horiz-adv-x="506" d="M169 500 L169 527 C169 560 190 587 220 587 L271 587 C301 587 322 560 322 527 L322 514 C322 504 329 497 339 497 L434 497 C444 497 451 504 451 514 L451 534 C451 629 377 705 279 705 L212 705 C114 705 40 629 40 534 L40 512 C40 215 332 360 332 194 L332 173 C332 140 311 113 281 113 L220 113 C190 113 169 140 169 173 L169 192 C169 202 162 209 152 209 L57 209 C47 209 40 202 40 192 L40 166 C40 71 114 -5 212 -5 L219 -5 L196 -44 C194 -47 193 -51 193 -54 L193 -90 C193 -97 198 -102 205 -102 L258 -102 C258 -102 272 -102 272 -117 C272 -131 258 -131 258 -131 L193 -131 C186 -131 181 -136 181 -143 L181 -183 C181 -190 186 -195 193 -195 L275 -195 C329 -195 345 -171 345 -100 C345 -59 310 -38 275 -38 L294 -4 C390 -2 461 73 461 166 L461 182 C461 479 169 334 169 500 L169 500 Z " />
<glyph glyph-name="scedilla" unicode="&#x15f;" horiz-adv-x="429" d="M158 -44 C156 -47 155 -51 155 -54 L155 -90 C155 -97 160 -102 167 -102 L220 -102 C220 -102 234 -102 234 -117 C234 -131 220 -131 220 -131 L155 -131 C148 -131 143 -136 143 -143 L143 -183 C143 -190 148 -195 155 -195 L237 -195 C291 -195 307 -171 307 -100 C307 -59 272 -38 237 -38 L256 -5 C343 0 384 64 389 138 L389 151 C389 348 174 284 174 362 L174 374 C174 396 185 407 206 407 L221 407 C242 407 253 388 253 366 L253 361 C253 351 260 344 270 344 L365 344 C375 344 382 351 382 361 L382 366 C377 442 333 520 239 520 L188 520 C94 520 50 453 45 377 L45 369 C45 171 260 235 260 158 L260 141 C260 119 249 108 228 108 L206 108 C185 108 174 127 174 149 L174 154 C174 164 167 171 157 171 L62 171 C52 171 45 164 45 154 L45 149 C50 75 92 -1 181 -5 L158 -44 Z " />
<glyph glyph-name="Scaron" unicode="&#x160;" horiz-adv-x="506" d="M196 751 C187 751 181 758 177 767 L99 923 C99 932 106 939 115 939 L194 939 C203 939 209 932 213 923 L246 858 L279 923 C283 932 289 939 298 939 L377 939 C386 939 393 932 393 923 L315 767 C311 758 305 751 296 751 L196 751 Z M461 182 C461 479 169 334 169 500 L169 527 C169 560 190 587 220 587 L271 587 C301 587 322 560 322 527 L322 514 C322 504 329 497 339 497 L434 497 C444 497 451 504 451 514 L451 534 C451 629 377 705 279 705 L212 705 C114 705 40 629 40 534 L40 512 C40 215 332 360 332 194 L332 173 C332 140 311 113 281 113 L220 113 C190 113 169 140 169 173 L169 192 C169 202 162 209 152 209 L57 209 C47 209 40 202 40 192 L40 166 C40 71 114 -5 212 -5 L289 -5 C387 -5 461 71 461 166 L461 182 Z " />
<glyph glyph-name="scaron" unicode="&#x161;" horiz-adv-x="429" d="M263 571 C272 571 278 578 282 587 L360 743 C360 752 353 759 344 759 L265 759 C256 759 250 752 246 743 L213 678 L180 743 C176 752 170 759 161 759 L82 759 C73 759 66 752 66 743 L144 587 C148 578 154 571 163 571 L263 571 Z M45 369 C45 171 260 235 260 158 L260 141 C260 119 249 108 228 108 L206 108 C185 108 174 127 174 149 L174 154 C174 164 167 171 157 171 L62 171 C52 171 45 164 45 154 L45 149 C50 73 94 -5 188 -5 L246 -5 C340 -5 384 62 389 138 L389 151 C389 348 174 284 174 362 L174 374 C174 396 185 407 206 407 L221 407 C242 407 253 388 253 366 L253 361 C253 351 260 344 270 344 L365 344 C375 344 382 351 382 361 L382 366 C377 442 333 520 239 520 L188 520 C94 520 50 453 45 377 L45 369 Z " />
<glyph glyph-name="uni0162" unicode="&#x162;" horiz-adv-x="477" d="M35 600 C35 590 42 583 52 583 L174 583 L174 17 C174 7 181 0 191 0 L286 0 C292 0 300 -3 300 -15 C300 -29 286 -29 286 -29 L221 -29 C214 -29 209 -34 209 -41 L209 -81 C209 -88 214 -93 221 -93 L303 -93 C357 -93 373 -69 373 2 C373 43 338 64 303 64 L303 583 L425 583 C435 583 442 590 442 600 L442 683 C442 693 435 700 425 700 L52 700 C42 700 35 693 35 683 L35 600 Z " />
<glyph glyph-name="uni0163" unicode="&#x163;" horiz-adv-x="339" d="M160 -37 C158 -40 157 -44 157 -47 L157 -83 C157 -90 162 -95 169 -95 L222 -95 C222 -95 236 -95 236 -110 C236 -124 222 -124 222 -124 L157 -124 C150 -124 145 -129 145 -136 L145 -176 C145 -183 150 -188 157 -188 L239 -188 C293 -188 309 -164 309 -93 C309 -52 274 -31 239 -31 L257 0 L290 0 C300 0 307 7 307 17 L307 100 C307 110 300 117 290 117 L262 117 C241 117 220 136 220 158 L220 397 L290 397 C300 397 307 404 307 414 L307 498 C307 508 300 515 290 515 L220 515 L220 683 C220 693 213 700 203 700 L108 700 C98 700 91 693 91 683 L91 515 L42 515 C32 515 25 508 25 498 L25 414 C25 404 32 397 42 397 L91 397 L91 154 C95 94 128 33 188 10 L160 -37 Z " />
<glyph glyph-name="Tcaron" unicode="&#x164;" horiz-adv-x="477" d="M288 751 C297 751 303 758 307 767 L385 923 C385 932 378 939 369 939 L290 939 C281 939 275 932 271 923 L238 858 L205 923 C201 932 195 939 186 939 L107 939 C98 939 91 932 91 923 L169 767 C173 758 179 751 188 751 L288 751 Z M35 600 C35 590 42 583 52 583 L174 583 L174 17 C174 7 181 0 191 0 L286 0 C296 0 303 7 303 17 L303 583 L425 583 C435 583 442 590 442 600 L442 683 C442 693 435 700 425 700 L52 700 C42 700 35 693 35 683 L35 600 Z " />
<glyph glyph-name="tcaron" unicode="&#x165;" horiz-adv-x="508" d="M422 569 C432 569 439 577 443 586 L488 683 C488 693 481 700 471 700 L380 700 C370 700 363 692 359 683 L314 586 C314 576 321 569 331 569 L422 569 Z M25 414 C25 404 32 397 42 397 L91 397 L91 154 C96 78 150 0 244 0 L290 0 C300 0 307 7 307 17 L307 100 C307 110 300 117 290 117 L262 117 C241 117 220 136 220 158 L220 397 L290 397 C300 397 307 404 307 414 L307 498 C307 508 300 515 290 515 L220 515 L220 683 C220 693 213 700 203 700 L108 700 C98 700 91 693 91 683 L91 515 L42 515 C32 515 25 508 25 498 L25 414 Z " />
<glyph glyph-name="Tbar" unicode="&#x166;" horiz-adv-x="477" d="M371 272 C381 272 388 279 388 289 L388 372 C388 382 381 389 371 389 L303 389 L303 583 L425 583 C435 583 442 590 442 600 L442 683 C442 693 435 700 425 700 L52 700 C42 700 35 693 35 683 L35 600 C35 590 42 583 52 583 L174 583 L174 389 L105 389 C95 389 88 382 88 372 L88 289 C88 279 95 272 105 272 L174 272 L174 17 C174 7 181 0 191 0 L286 0 C296 0 303 7 303 17 L303 272 L371 272 Z " />
<glyph glyph-name="tbar" unicode="&#x167;" horiz-adv-x="337" d="M42 339 C32 339 25 332 25 322 L25 238 C25 228 32 221 42 221 L91 221 L91 154 C96 78 150 0 244 0 L290 0 C300 0 307 7 307 17 L307 100 C307 110 300 117 290 117 L262 117 C241 117 220 136 220 158 L220 221 L290 221 C300 221 307 228 307 238 L307 322 C307 332 300 339 290 339 L220 339 L220 397 L290 397 C300 397 307 404 307 414 L307 498 C307 508 300 515 290 515 L220 515 L220 683 C220 693 213 700 203 700 L108 700 C98 700 91 693 91 683 L91 515 L42 515 C32 515 25 508 25 498 L25 414 C25 404 32 397 42 397 L91 397 L91 339 L42 339 Z " />
<glyph glyph-name="Utilde" unicode="&#x168;" horiz-adv-x="551" d="M194 683 C194 693 187 700 177 700 L82 700 C72 700 65 693 65 683 L65 166 C65 71 145 -5 243 -5 L308 -5 C406 -5 486 71 486 166 L486 683 C486 693 479 700 469 700 L374 700 C364 700 357 693 357 683 L357 173 C357 140 330 113 300 113 L251 113 C221 113 194 140 194 173 L194 683 Z M322 751 C349 751 367 761 393 777 C399 782 404 789 404 797 C404 798 404 800 385 866 C383 872 377 878 367 878 C351 878 337 868 322 868 C281 868 273 907 232 907 C206 907 185 897 160 881 C153 876 148 869 148 861 L169 792 C171 786 178 781 187 781 C204 781 217 790 232 790 C274 790 281 751 322 751 L322 751 Z " />
<glyph glyph-name="utilde" unicode="&#x169;" horiz-adv-x="464" d="M404 498 C404 508 397 515 387 515 L292 515 C282 515 275 508 275 498 L275 154 C275 132 264 113 243 113 L221 113 C200 113 189 132 189 154 L189 498 C189 508 182 515 172 515 L77 515 C67 515 60 508 60 498 L60 149 C65 73 109 -5 203 -5 L261 -5 C355 -5 399 73 404 149 L404 498 Z M281 571 C308 571 326 581 352 597 C358 602 363 609 363 617 C363 618 363 620 344 686 C342 692 336 698 326 698 C310 698 296 688 281 688 C240 688 232 727 191 727 C165 727 144 717 119 701 C112 696 107 689 107 681 L128 612 C130 606 137 601 146 601 C163 601 176 610 191 610 C233 610 240 571 281 571 L281 571 Z " />
<glyph glyph-name="Umacron" unicode="&#x16a;" horiz-adv-x="551" d="M407 751 C417 751 424 758 424 768 L424 851 C424 861 417 868 407 868 L146 868 C136 868 129 861 129 851 L129 768 C129 758 136 751 146 751 L407 751 Z M194 683 C194 693 187 700 177 700 L82 700 C72 700 65 693 65 683 L65 166 C65 71 145 -5 243 -5 L308 -5 C406 -5 486 71 486 166 L486 683 C486 693 479 700 469 700 L374 700 C364 700 357 693 357 683 L357 173 C357 140 330 113 300 113 L251 113 C221 113 194 140 194 173 L194 683 Z " />
<glyph glyph-name="umacron" unicode="&#x16b;" horiz-adv-x="464" d="M325 571 C335 571 342 578 342 588 L342 671 C342 681 335 688 325 688 L139 688 C129 688 122 681 122 671 L122 588 C122 578 129 571 139 571 L325 571 Z M404 498 C404 508 397 515 387 515 L292 515 C282 515 275 508 275 498 L275 154 C275 132 264 113 243 113 L221 113 C200 113 189 132 189 154 L189 498 C189 508 182 515 172 515 L77 515 C67 515 60 508 60 498 L60 149 C65 73 109 -5 203 -5 L261 -5 C355 -5 399 73 404 149 L404 498 Z " />
<glyph glyph-name="Ubreve" unicode="&#x16c;" horiz-adv-x="551" d="M194 683 C194 693 187 700 177 700 L82 700 C72 700 65 693 65 683 L65 166 C65 71 145 -5 243 -5 L308 -5 C406 -5 486 71 486 166 L486 683 C486 693 479 700 469 700 L374 700 C364 700 357 693 357 683 L357 173 C357 140 330 113 300 113 L251 113 C221 113 194 140 194 173 L194 683 Z M276 751 C374 751 408 795 421 901 C421 911 414 918 404 918 L334 918 C324 918 316 911 312 901 C304 858 291 853 276 853 C261 853 248 858 240 901 C236 911 228 918 218 918 L148 918 C138 918 131 911 131 901 C144 795 178 751 276 751 L276 751 Z " />
<glyph glyph-name="ubreve" unicode="&#x16d;" horiz-adv-x="464" d="M404 498 C404 508 397 515 387 515 L292 515 C282 515 275 508 275 498 L275 154 C275 132 264 113 243 113 L221 113 C200 113 189 132 189 154 L189 498 C189 508 182 515 172 515 L77 515 C67 515 60 508 60 498 L60 149 C65 73 109 -5 203 -5 L261 -5 C355 -5 399 73 404 149 L404 498 Z M232 571 C330 571 364 615 377 721 C377 731 370 738 360 738 L290 738 C280 738 272 731 268 721 C260 678 247 673 232 673 C217 673 204 678 196 721 C192 731 184 738 174 738 L104 738 C94 738 87 731 87 721 C100 615 134 571 232 571 L232 571 Z " />
<glyph glyph-name="Uring" unicode="&#x16e;" horiz-adv-x="551" d="M273 990 C199 990 138 930 138 854 C138 780 199 719 273 719 C349 719 410 780 410 854 C410 930 349 990 273 990 L273 990 Z M273 809 C248 809 228 831 228 854 C228 880 248 900 273 900 C297 900 319 880 319 854 C319 831 297 809 273 809 L273 809 Z M194 683 C194 693 187 700 177 700 L82 700 C72 700 65 693 65 683 L65 166 C65 71 145 -5 243 -5 L308 -5 C406 -5 486 71 486 166 L486 683 C486 693 479 700 469 700 L374 700 C364 700 357 693 357 683 L357 173 C357 140 330 113 300 113 L251 113 C221 113 194 140 194 173 L194 683 Z " />
<glyph glyph-name="uring" unicode="&#x16f;" horiz-adv-x="464" d="M232 842 C158 842 97 782 97 706 C97 632 158 571 232 571 C308 571 369 632 369 706 C369 782 308 842 232 842 L232 842 Z M232 661 C207 661 187 683 187 706 C187 732 207 752 232 752 C256 752 278 732 278 706 C278 683 256 661 232 661 L232 661 Z M404 498 C404 508 397 515 387 515 L292 515 C282 515 275 508 275 498 L275 154 C275 132 264 113 243 113 L221 113 C200 113 189 132 189 154 L189 498 C189 508 182 515 172 515 L77 515 C67 515 60 508 60 498 L60 149 C65 73 109 -5 203 -5 L261 -5 C355 -5 399 73 404 149 L404 498 Z " />
<glyph glyph-name="Uhungarumlaut" unicode="&#x170;" horiz-adv-x="551" d="M227 751 C237 751 244 759 248 768 L309 896 C309 906 302 913 292 913 L201 913 C191 913 184 905 180 896 L128 768 C128 758 135 751 145 751 L227 751 Z M401 751 C411 751 418 759 422 768 L483 896 C483 906 476 913 466 913 L375 913 C365 913 358 905 354 896 L302 768 C302 758 309 751 319 751 L401 751 Z M194 683 C194 693 187 700 177 700 L82 700 C72 700 65 693 65 683 L65 166 C65 71 145 -5 243 -5 L308 -5 C406 -5 486 71 486 166 L486 683 C486 693 479 700 469 700 L374 700 C364 700 357 693 357 683 L357 173 C357 140 330 113 300 113 L251 113 C221 113 194 140 194 173 L194 683 Z " />
<glyph glyph-name="uhungarumlaut" unicode="&#x171;" horiz-adv-x="464" d="M162 571 C172 571 178 579 182 587 L240 708 C240 717 233 724 224 724 L138 724 C128 724 122 716 118 708 L69 587 C69 578 76 571 85 571 L162 571 Z M327 571 C336 571 343 579 346 587 L404 708 C404 717 397 724 388 724 L302 724 C293 724 286 716 282 708 L233 587 C233 578 240 571 249 571 L327 571 Z M404 498 C404 508 397 515 387 515 L292 515 C282 515 275 508 275 498 L275 154 C275 132 264 113 243 113 L221 113 C200 113 189 132 189 154 L189 498 C189 508 182 515 172 515 L77 515 C67 515 60 508 60 498 L60 149 C65 73 109 -5 203 -5 L261 -5 C355 -5 399 73 404 149 L404 498 Z " />
<glyph glyph-name="Uogonek" unicode="&#x172;" horiz-adv-x="551" d="M218 -44 C216 -47 215 -51 215 -54 L215 -90 C215 -97 220 -102 227 -102 L280 -102 C280 -102 294 -102 294 -117 C294 -131 280 -131 280 -131 L215 -131 C208 -131 203 -136 203 -143 L203 -183 C203 -190 208 -195 215 -195 L297 -195 C351 -195 367 -171 367 -100 C367 -59 332 -38 297 -38 L316 -5 C410 -1 486 73 486 166 L486 683 C486 693 479 700 469 700 L374 700 C364 700 357 693 357 683 L357 173 C357 140 330 113 300 113 L251 113 C221 113 194 140 194 173 L194 683 C194 693 187 700 177 700 L82 700 C72 700 65 693 65 683 L65 166 C65 71 144 -4 241 -5 L218 -44 Z " />
<glyph glyph-name="uogonek" unicode="&#x173;" horiz-adv-x="464" d="M404 498 C404 508 397 515 387 515 L292 515 C282 515 275 508 275 498 L275 154 C275 132 264 113 243 113 L221 113 C200 113 189 132 189 154 L189 498 C189 508 182 515 172 515 L77 515 C67 515 60 508 60 498 L60 149 C65 75 106 0 195 -5 L195 -38 C160 -38 115 -59 115 -114 C115 -166 131 -195 185 -195 L267 -195 C274 -195 279 -190 279 -183 L279 -143 C279 -136 274 -131 267 -131 L202 -131 C202 -131 188 -131 188 -117 C188 -102 202 -102 202 -102 L255 -102 C262 -102 267 -97 267 -90 L267 -5 C357 -2 399 74 404 149 L404 498 Z " />
<glyph glyph-name="Ydieresis" unicode="&#x178;" horiz-adv-x="537" d="M230 751 C239 751 246 758 246 767 L246 861 C246 870 239 877 230 877 L137 877 C127 877 121 870 121 861 L121 767 C121 758 127 751 137 751 L230 751 Z M400 751 C409 751 416 758 416 767 L416 861 C416 870 409 877 400 877 L307 877 C297 877 291 870 291 861 L291 767 C291 758 297 751 307 751 L400 751 Z M333 224 L517 683 C517 693 510 700 500 700 L408 700 C398 700 392 692 388 683 L275 389 L262 389 L149 683 C145 692 139 700 129 700 L37 700 C27 700 20 693 20 683 L204 224 L204 17 C204 7 211 0 221 0 L316 0 C326 0 333 7 333 17 L333 224 Z " />
<glyph glyph-name="Zacute" unicode="&#x179;" horiz-adv-x="476" d="M291 751 C301 751 308 759 312 768 L373 896 C373 906 366 913 356 913 L265 913 C255 913 248 905 244 896 L183 768 C183 758 190 751 200 751 L291 751 Z M427 620 C429 624 431 628 431 633 L431 683 C431 693 424 700 414 700 L62 700 C52 700 45 693 45 683 L45 600 C45 590 52 583 62 583 L281 583 L49 80 C47 76 45 72 45 67 L45 17 C45 7 52 0 62 0 L414 0 C424 0 431 7 431 17 L431 100 C431 110 424 117 414 117 L197 117 L427 620 Z " />
<glyph glyph-name="zacute" unicode="&#x17a;" horiz-adv-x="396" d="M254 571 C264 571 271 579 275 588 L336 716 C336 726 329 733 319 733 L228 733 C218 733 211 725 207 716 L146 588 C146 578 153 571 163 571 L254 571 Z M191 117 L352 436 C354 440 356 443 356 448 L356 498 C356 508 349 515 339 515 L57 515 C47 515 40 508 40 498 L40 415 C40 405 47 398 57 398 L205 398 L44 79 C42 75 40 72 40 67 L40 17 C40 7 47 0 57 0 L339 0 C349 0 356 7 356 17 L356 100 C356 110 349 117 339 117 L191 117 Z " />
<glyph glyph-name="Zdotaccent" unicode="&#x17b;" horiz-adv-x="476" d="M285 751 C294 751 301 758 301 767 L301 861 C301 870 294 877 285 877 L192 877 C182 877 176 870 176 861 L176 767 C176 758 182 751 192 751 L285 751 Z M427 620 C429 624 431 628 431 633 L431 683 C431 693 424 700 414 700 L62 700 C52 700 45 693 45 683 L45 600 C45 590 52 583 62 583 L281 583 L49 80 C47 76 45 72 45 67 L45 17 C45 7 52 0 62 0 L414 0 C424 0 431 7 431 17 L431 100 C431 110 424 117 414 117 L197 117 L427 620 Z " />
<glyph glyph-name="zdotaccent" unicode="&#x17c;" horiz-adv-x="396" d="M245 571 C254 571 261 578 261 587 L261 681 C261 690 254 697 245 697 L152 697 C142 697 136 690 136 681 L136 587 C136 578 142 571 152 571 L245 571 Z M191 117 L352 436 C354 440 356 443 356 448 L356 498 C356 508 349 515 339 515 L57 515 C47 515 40 508 40 498 L40 415 C40 405 47 398 57 398 L205 398 L44 79 C42 75 40 72 40 67 L40 17 C40 7 47 0 57 0 L339 0 C349 0 356 7 356 17 L356 100 C356 110 349 117 339 117 L191 117 Z " />
<glyph glyph-name="Zcaron" unicode="&#x17d;" horiz-adv-x="476" d="M288 751 C297 751 303 758 307 767 L385 923 C385 932 378 939 369 939 L290 939 C281 939 275 932 271 923 L238 858 L205 923 C201 932 195 939 186 939 L107 939 C98 939 91 932 91 923 L169 767 C173 758 179 751 188 751 L288 751 Z M427 620 C429 624 431 628 431 633 L431 683 C431 693 424 700 414 700 L62 700 C52 700 45 693 45 683 L45 600 C45 590 52 583 62 583 L281 583 L49 80 C47 76 45 72 45 67 L45 17 C45 7 52 0 62 0 L414 0 C424 0 431 7 431 17 L431 100 C431 110 424 117 414 117 L197 117 L427 620 Z " />
<glyph glyph-name="zcaron" unicode="&#x17e;" horiz-adv-x="396" d="M248 571 C257 571 263 578 267 587 L345 743 C345 752 338 759 329 759 L250 759 C241 759 235 752 231 743 L198 678 L165 743 C161 752 155 759 146 759 L67 759 C58 759 51 752 51 743 L129 587 C133 578 139 571 148 571 L248 571 Z M191 117 L352 436 C354 440 356 443 356 448 L356 498 C356 508 349 515 339 515 L57 515 C47 515 40 508 40 498 L40 415 C40 405 47 398 57 398 L205 398 L44 79 C42 75 40 72 40 67 L40 17 C40 7 47 0 57 0 L339 0 C349 0 356 7 356 17 L356 100 C356 110 349 117 339 117 L191 117 Z " />
<glyph glyph-name="florin" unicode="&#x192;" horiz-adv-x="332" d="M33 379 C33 369 40 362 50 362 L83 362 L-51 -157 C-51 -167 -44 -174 -34 -174 L61 -174 C71 -174 78 -167 78 -157 L212 362 L282 362 C292 362 299 369 299 379 L299 463 C299 473 292 480 282 480 L244 480 L258 542 C263 563 279 583 300 583 L319 583 C329 583 336 590 336 600 L336 683 C336 693 329 700 319 700 L282 700 C188 700 145 621 129 546 L115 480 L50 480 C40 480 33 473 33 463 L33 379 Z " />
<glyph glyph-name="uni0218" unicode="&#x218;" horiz-adv-x="506" d="M253 -201 C263 -201 270 -193 274 -184 L315 -70 C315 -60 308 -53 298 -53 L207 -53 C197 -53 190 -61 186 -70 L145 -184 C145 -194 152 -201 162 -201 L253 -201 Z M461 182 C461 479 169 334 169 500 L169 527 C169 560 190 587 220 587 L271 587 C301 587 322 560 322 527 L322 514 C322 504 329 497 339 497 L434 497 C444 497 451 504 451 514 L451 534 C451 629 377 705 279 705 L212 705 C114 705 40 629 40 534 L40 512 C40 215 332 360 332 194 L332 173 C332 140 311 113 281 113 L220 113 C190 113 169 140 169 173 L169 192 C169 202 162 209 152 209 L57 209 C47 209 40 202 40 192 L40 166 C40 71 114 -5 212 -5 L289 -5 C387 -5 461 71 461 166 L461 182 Z " />
<glyph glyph-name="uni0219" unicode="&#x219;" horiz-adv-x="429" d="M214 -201 C224 -201 231 -193 235 -184 L276 -70 C276 -60 269 -53 259 -53 L168 -53 C158 -53 151 -61 147 -70 L106 -184 C106 -194 113 -201 123 -201 L214 -201 Z M45 369 C45 171 260 235 260 158 L260 141 C260 119 249 108 228 108 L206 108 C185 108 174 127 174 149 L174 154 C174 164 167 171 157 171 L62 171 C52 171 45 164 45 154 L45 149 C50 73 94 -5 188 -5 L246 -5 C340 -5 384 62 389 138 L389 151 C389 348 174 284 174 362 L174 374 C174 396 185 407 206 407 L221 407 C242 407 253 388 253 366 L253 361 C253 351 260 344 270 344 L365 344 C375 344 382 351 382 361 L382 366 C377 442 333 520 239 520 L188 520 C94 520 50 453 45 377 L45 369 Z " />
<glyph glyph-name="uni021A" unicode="&#x21a;" horiz-adv-x="477" d="M237 -201 C247 -201 254 -193 258 -184 L299 -70 C299 -60 292 -53 282 -53 L191 -53 C181 -53 174 -61 170 -70 L129 -184 C129 -194 136 -201 146 -201 L237 -201 Z M35 600 C35 590 42 583 52 583 L174 583 L174 17 C174 7 181 0 191 0 L286 0 C296 0 303 7 303 17 L303 583 L425 583 C435 583 442 590 442 600 L442 683 C442 693 435 700 425 700 L52 700 C42 700 35 693 35 683 L35 600 Z " />
<glyph glyph-name="uni021B" unicode="&#x21b;" horiz-adv-x="337" d="M237 -201 C247 -201 254 -193 258 -184 L299 -70 C299 -60 292 -53 282 -53 L191 -53 C181 -53 174 -61 170 -70 L129 -184 C129 -194 136 -201 146 -201 L237 -201 Z M25 414 C25 404 32 397 42 397 L91 397 L91 154 C96 78 150 0 244 0 L290 0 C300 0 307 7 307 17 L307 100 C307 110 300 117 290 117 L262 117 C241 117 220 136 220 158 L220 397 L290 397 C300 397 307 404 307 414 L307 498 C307 508 300 515 290 515 L220 515 L220 683 C220 693 213 700 203 700 L108 700 C98 700 91 693 91 683 L91 515 L42 515 C32 515 25 508 25 498 L25 414 Z " />
<glyph glyph-name="circumflex" unicode="&#x2c6;" horiz-adv-x="434" d="M167 700 C158 700 152 693 148 684 L70 528 C70 519 77 512 86 512 L165 512 C174 512 180 519 184 528 L217 593 L250 528 C254 519 260 512 269 512 L348 512 C357 512 364 519 364 528 L286 684 C282 693 276 700 267 700 L167 700 Z " />
<glyph glyph-name="caron" unicode="&#x2c7;" horiz-adv-x="434" d="M267 512 C276 512 282 519 286 528 L364 684 C364 693 357 700 348 700 L269 700 C260 700 254 693 250 684 L217 619 L184 684 C180 693 174 700 165 700 L86 700 C77 700 70 693 70 684 L148 528 C152 519 158 512 167 512 L267 512 Z " />
<glyph glyph-name="breve" unicode="&#x2d8;" horiz-adv-x="430" d="M215 533 C313 533 347 577 360 683 C360 693 353 700 343 700 L273 700 C263 700 255 693 251 683 C243 640 230 635 215 635 C200 635 187 640 179 683 C175 693 167 700 157 700 L87 700 C77 700 70 693 70 683 C83 577 117 533 215 533 L215 533 Z " />
<glyph glyph-name="dotaccent" unicode="&#x2d9;" horiz-adv-x="265" d="M179 574 C188 574 195 581 195 590 L195 684 C195 693 188 700 179 700 L86 700 C76 700 70 693 70 684 L70 590 C70 581 76 574 86 574 L179 574 Z " />
<glyph glyph-name="ring" unicode="&#x2da;" horiz-adv-x="412" d="M205 751 C131 751 70 691 70 615 C70 541 131 480 205 480 C281 480 342 541 342 615 C342 691 281 751 205 751 L205 751 Z M205 570 C180 570 160 592 160 615 C160 641 180 661 205 661 C229 661 251 641 251 615 C251 592 229 570 205 570 L205 570 Z " />
<glyph glyph-name="ogonek" unicode="&#x2db;" horiz-adv-x="304" d="M222 0 C219 5 213 10 206 10 L167 10 C157 10 150 3 150 -7 L150 -38 C115 -38 70 -59 70 -114 C70 -166 86 -195 140 -195 L222 -195 C229 -195 234 -190 234 -183 L234 -143 C234 -136 229 -131 222 -131 L157 -131 C157 -131 143 -131 143 -117 C143 -102 157 -102 157 -102 L210 -102 C217 -102 222 -97 222 -90 L222 0 Z " />
<glyph glyph-name="tilde" unicode="&#x2dc;" horiz-adv-x="396" d="M244 544 C271 544 289 554 315 570 C321 575 326 582 326 590 C326 591 326 593 307 659 C305 665 299 671 289 671 C273 671 259 661 244 661 C203 661 195 700 154 700 C128 700 107 690 82 674 C75 669 70 662 70 654 L91 585 C93 579 100 574 109 574 C126 574 139 583 154 583 C196 583 203 544 244 544 L244 544 Z " />
<glyph glyph-name="hungarumlaut" unicode="&#x2dd;" horiz-adv-x="495" d="M169 538 C179 538 186 546 190 555 L251 683 C251 693 244 700 234 700 L143 700 C133 700 126 692 122 683 L70 555 C70 545 77 538 87 538 L169 538 Z M343 538 C353 538 360 546 364 555 L425 683 C425 693 418 700 408 700 L317 700 C307 700 300 692 296 683 L244 555 C244 545 251 538 261 538 L343 538 Z " />
<glyph glyph-name="uni03A9" unicode="&#x3a9;" horiz-adv-x="681" d="M308 700 C210 700 130 624 130 529 L130 196 C130 179 134 129 154 118 L87 118 C77 118 70 111 70 101 L70 17 C70 7 77 0 87 0 L281 0 C291 0 298 7 298 17 L298 110 C298 117 295 123 290 125 C266 136 259 179 259 198 L259 522 C259 555 286 582 316 582 L365 582 C395 582 422 555 422 522 L422 198 C422 179 415 136 391 125 C386 123 383 117 383 110 L383 17 C383 7 390 0 400 0 L594 0 C604 0 611 7 611 17 L611 101 C611 111 604 118 594 118 L527 118 C547 129 551 179 551 196 L551 529 C551 624 471 700 373 700 L308 700 Z " />
<glyph glyph-name="pi" unicode="&#x3c0;" horiz-adv-x="722" d="M652 498 C652 508 645 515 635 515 L87 515 C77 515 70 508 70 498 L70 415 C70 405 77 398 87 398 L191 398 L191 17 C191 7 198 0 208 0 L303 0 C313 0 320 7 320 17 L320 398 L402 398 L402 17 C402 7 409 0 419 0 L514 0 C524 0 531 7 531 17 L531 398 L635 398 C645 398 652 405 652 415 L652 498 Z " />
<glyph glyph-name="ZWSP" unicode="&#x200b;" d="" />
<glyph glyph-name="endash" unicode="&#x2013;" horiz-adv-x="360" d="M273 187 C283 187 290 194 290 204 L290 287 C290 297 283 304 273 304 L87 304 C77 304 70 297 70 287 L70 204 C70 194 77 187 87 187 L273 187 Z " />
<glyph glyph-name="emdash" unicode="&#x2014;" horiz-adv-x="429" d="M342 187 C352 187 359 194 359 204 L359 287 C359 297 352 304 342 304 L87 304 C77 304 70 297 70 287 L70 204 C70 194 77 187 87 187 L342 187 Z " />
<glyph glyph-name="quoteleft" unicode="&#x2018;" horiz-adv-x="315" d="M137 700 C127 700 120 692 116 683 L70 544 C70 534 77 527 87 527 L178 527 C188 527 195 535 199 544 L245 683 C245 693 238 700 228 700 L137 700 Z " />
<glyph glyph-name="quoteright" unicode="&#x2019;" horiz-adv-x="315" d="M178 527 C188 527 195 535 199 544 L245 683 C245 693 238 700 228 700 L137 700 C127 700 120 692 116 683 L70 544 C70 534 77 527 87 527 L178 527 Z " />
<glyph glyph-name="quotesinglbase" unicode="&#x201a;" horiz-adv-x="315" d="M178 -75 C188 -75 195 -67 199 -58 L245 81 C245 91 238 98 228 98 L137 98 C127 98 120 90 116 81 L70 -58 C70 -68 77 -75 87 -75 L178 -75 Z " />
<glyph glyph-name="quotedblleft" unicode="&#x201c;" horiz-adv-x="503" d="M137 700 C127 700 120 692 116 683 L70 544 C70 534 77 527 87 527 L178 527 C188 527 195 535 199 544 L245 683 C245 693 238 700 228 700 L137 700 Z M325 700 C315 700 308 692 304 683 L258 544 C258 534 265 527 275 527 L366 527 C376 527 383 535 387 544 L433 683 C433 693 426 700 416 700 L325 700 Z " />
<glyph glyph-name="quotedblright" unicode="&#x201d;" horiz-adv-x="503" d="M366 527 C376 527 383 535 387 544 L433 683 C433 693 426 700 416 700 L325 700 C315 700 308 692 304 683 L258 544 C258 534 265 527 275 527 L366 527 Z M178 527 C188 527 195 535 199 544 L245 683 C245 693 238 700 228 700 L137 700 C127 700 120 692 116 683 L70 544 C70 534 77 527 87 527 L178 527 Z " />
<glyph glyph-name="quotedblbase" unicode="&#x201e;" horiz-adv-x="503" d="M366 -75 C376 -75 383 -67 387 -58 L433 81 C433 91 426 98 416 98 L325 98 C315 98 308 90 304 81 L258 -58 C258 -68 265 -75 275 -75 L366 -75 Z M178 -75 C188 -75 195 -67 199 -58 L245 81 C245 91 238 98 228 98 L137 98 C127 98 120 90 116 81 L70 -58 C70 -68 77 -75 87 -75 L178 -75 Z " />
<glyph glyph-name="dagger" unicode="&#x2020;" horiz-adv-x="443" d="M157 -251 C157 -261 164 -268 174 -268 L269 -268 C279 -268 286 -261 286 -251 L286 432 L356 432 C366 432 373 439 373 449 L373 532 C373 542 366 549 356 549 L286 549 L286 683 C286 693 279 700 269 700 L174 700 C164 700 157 693 157 683 L157 549 L87 549 C77 549 70 542 70 532 L70 449 C70 439 77 432 87 432 L157 432 L157 -251 Z " />
<glyph glyph-name="daggerdbl" unicode="&#x2021;" horiz-adv-x="443" d="M70 449 C70 439 77 432 87 432 L157 432 L157 0 L87 0 C77 0 70 -7 70 -17 L70 -100 C70 -110 77 -117 87 -117 L157 -117 L157 -251 C157 -261 164 -268 174 -268 L269 -268 C279 -268 286 -261 286 -251 L286 -117 L356 -117 C366 -117 373 -110 373 -100 L373 -17 C373 -7 366 0 356 0 L286 0 L286 432 L356 432 C366 432 373 439 373 449 L373 532 C373 542 366 549 356 549 L286 549 L286 683 C286 693 279 700 269 700 L174 700 C164 700 157 693 157 683 L157 549 L87 549 C77 549 70 542 70 532 L70 449 Z " />
<glyph glyph-name="bullet" unicode="&#x2022;" horiz-adv-x="274" d="M187 162 C197 162 204 169 204 179 L204 280 C204 290 197 297 187 297 L87 297 C77 297 70 290 70 280 L70 179 C70 169 77 162 87 162 L187 162 Z " />
<glyph glyph-name="ellipsis" unicode="&#x2026;" horiz-adv-x="968" d="M187 -5 C197 -5 204 2 204 12 L204 113 C204 123 197 130 187 130 L87 130 C77 130 70 123 70 113 L70 12 C70 2 77 -5 87 -5 L187 -5 Z M534 -5 C544 -5 551 2 551 12 L551 113 C551 123 544 130 534 130 L434 130 C424 130 417 123 417 113 L417 12 C417 2 424 -5 434 -5 L534 -5 Z M881 -5 C891 -5 898 2 898 12 L898 113 C898 123 891 130 881 130 L781 130 C771 130 764 123 764 113 L764 12 C764 2 771 -5 781 -5 L881 -5 Z " />
<glyph glyph-name="perthousand" unicode="&#x2030;" horiz-adv-x="1073" d="M198 700 C128 700 70 643 70 572 C70 502 128 444 198 444 C269 444 327 502 327 572 C327 643 269 700 198 700 L198 700 Z M198 529 C174 529 155 550 155 572 C155 596 174 615 198 615 C220 615 241 596 241 572 C241 550 220 529 198 529 L198 529 Z M575 256 C504 256 446 199 446 128 C446 58 504 0 575 0 C645 0 703 58 703 128 C703 199 645 256 575 256 L575 256 Z M575 85 C553 85 532 106 532 128 C532 152 553 171 575 171 C599 171 618 152 618 128 C618 106 599 85 575 85 L575 85 Z M292 0 C302 0 305 7 309 17 L592 683 C592 693 585 700 575 700 L480 700 C470 700 467 693 463 683 L180 17 C180 7 187 0 197 0 L292 0 Z M875 256 C804 256 746 199 746 128 C746 58 804 0 875 0 C945 0 1003 58 1003 128 C1003 199 945 256 875 256 L875 256 Z M875 85 C853 85 832 106 832 128 C832 152 853 171 875 171 C899 171 918 152 918 128 C918 106 899 85 875 85 L875 85 Z " />
<glyph glyph-name="guilsinglleft" unicode="&#x2039;" horiz-adv-x="358" d="M70 162 C70 152 77 146 87 143 L271 76 C281 76 288 83 288 93 L288 185 C288 195 281 202 271 205 L203 228 L203 240 L271 262 C281 265 288 272 288 282 L288 374 C288 384 281 391 271 391 L87 325 C77 322 70 316 70 306 L70 162 Z " />
<glyph glyph-name="guilsinglright" unicode="&#x203a;" horiz-adv-x="358" d="M288 306 C288 316 281 322 271 325 L87 391 C77 391 70 384 70 374 L70 282 C70 272 77 265 87 262 L155 240 L155 228 L87 205 C77 202 70 195 70 185 L70 93 C70 83 77 76 87 76 L271 143 C281 146 288 152 288 162 L288 306 Z " />
<glyph glyph-name="fraction" unicode="&#x2044;" horiz-adv-x="571" d="M182 -179 C192 -179 196 -172 199 -162 L501 787 C501 797 494 804 484 804 L389 804 C379 804 375 797 372 787 L70 -162 C70 -172 77 -179 87 -179 L182 -179 Z " />
<glyph glyph-name="Euro" unicode="&#x20ac;" horiz-adv-x="627" d="M337 214 C347 214 354 221 354 231 L354 296 C354 306 347 313 337 313 L265 313 L265 387 L337 387 C347 387 354 394 354 404 L354 469 C354 479 347 486 337 486 L265 486 L265 527 C265 560 292 587 322 587 L371 587 C401 587 428 560 428 527 L428 501 C428 491 435 484 445 484 L540 484 C550 484 557 491 557 501 L557 534 C557 629 477 705 379 705 L314 705 C216 705 136 629 136 534 L136 486 L87 486 C77 486 70 479 70 469 L70 404 C70 394 77 387 87 387 L136 387 L136 313 L87 313 C77 313 70 306 70 296 L70 231 C70 221 77 214 87 214 L136 214 L136 166 C136 71 216 -5 314 -5 L379 -5 C477 -5 557 71 557 166 L557 199 C557 209 550 216 540 216 L445 216 C435 216 428 209 428 199 L428 173 C428 140 401 113 371 113 L322 113 C292 113 265 140 265 173 L265 214 L337 214 Z " />
<glyph glyph-name="Numero" unicode="&#x2116;" horiz-adv-x="1022" d="M881 0 C891 0 898 7 898 17 L898 100 C898 110 891 117 881 117 L679 117 C669 117 662 110 662 100 L662 17 C662 7 669 0 679 0 L881 0 Z M213 700 L87 700 C77 700 70 693 70 683 L70 17 C70 7 77 0 87 0 L182 0 C192 0 199 7 199 17 L199 414 L204 414 L356 17 C360 8 366 0 376 0 L502 0 C512 0 519 7 519 17 L519 683 C519 693 512 700 502 700 L407 700 C397 700 390 693 390 683 L390 290 L385 290 L233 683 C229 692 223 700 213 700 L213 700 Z M769 293 C748 293 737 312 737 334 L737 541 C737 563 748 582 769 582 L791 582 C812 582 823 563 823 541 L823 334 C823 312 812 293 791 293 L769 293 Z M809 175 C903 175 947 253 952 329 L952 546 C947 622 903 700 809 700 L751 700 C657 700 613 622 608 546 L608 329 C613 253 657 175 751 175 L809 175 Z " />
<glyph glyph-name="trademark" unicode="&#x2122;" horiz-adv-x="706" d="M130 405 C130 399 135 394 141 394 L206 394 C212 394 217 399 217 405 L217 623 L266 623 C272 623 277 628 277 634 L277 689 C277 695 272 700 266 700 L81 700 C75 700 70 695 70 689 L70 634 C70 628 75 623 81 623 L130 623 L130 405 Z M474 567 L407 689 C404 695 400 700 394 700 L327 700 C321 700 316 695 316 689 L316 405 C316 399 321 394 327 394 L392 394 C398 394 403 399 403 405 L403 539 L456 436 C458 432 460 429 464 429 L489 429 C493 429 494 432 496 436 L549 539 L549 405 C549 399 554 394 560 394 L625 394 C631 394 636 399 636 405 L636 689 C636 695 631 700 625 700 L558 700 C552 700 548 695 545 689 L478 567 L474 567 Z " />
<glyph glyph-name="Omega" unicode="&#x2126;" horiz-adv-x="681" d="M308 700 C210 700 130 624 130 529 L130 196 C130 179 134 129 154 118 L87 118 C77 118 70 111 70 101 L70 17 C70 7 77 0 87 0 L281 0 C291 0 298 7 298 17 L298 110 C298 117 295 123 290 125 C266 136 259 179 259 198 L259 522 C259 555 286 582 316 582 L365 582 C395 582 422 555 422 522 L422 198 C422 179 415 136 391 125 C386 123 383 117 383 110 L383 17 C383 7 390 0 400 0 L594 0 C604 0 611 7 611 17 L611 101 C611 111 604 118 594 118 L527 118 C547 129 551 179 551 196 L551 529 C551 624 471 700 373 700 L308 700 Z " />
<glyph glyph-name="partialdiff" unicode="&#x2202;" horiz-adv-x="498" d="M428 534 C428 629 364 705 266 705 L230 705 C132 705 73 629 73 534 L73 501 C73 491 80 484 90 484 L185 484 C195 484 202 491 202 501 L202 527 C202 560 208 587 238 587 L258 587 C288 587 299 560 299 527 L299 405 L291 405 C271 434 242 443 220 443 L198 443 C97 443 70 376 70 288 L70 150 C70 62 97 -5 198 -5 L220 -5 C242 -5 271 4 291 33 L299 33 L299 17 C299 7 306 0 316 0 L411 0 C421 0 428 7 428 17 L428 534 Z M299 154 C299 132 288 113 267 113 L231 113 C210 113 199 132 199 154 L199 284 C199 306 210 325 231 325 L267 325 C288 325 299 306 299 284 L299 154 Z " />
<glyph glyph-name="Delta" unicode="&#x2206;" horiz-adv-x="836" d="M597 118 L239 118 L418 562 L597 118 Z M749 0 C759 0 766 7 766 17 L499 683 C496 693 489 700 479 700 L357 700 C347 700 340 693 337 683 L70 17 C70 7 77 0 87 0 L749 0 Z " />
<glyph glyph-name="product" unicode="&#x220f;" horiz-adv-x="722" d="M652 683 C652 693 645 700 635 700 L87 700 C77 700 70 693 70 683 L70 600 C70 590 77 583 87 583 L191 583 L191 17 C191 7 198 0 208 0 L303 0 C313 0 320 7 320 17 L320 583 L402 583 L402 17 C402 7 409 0 419 0 L514 0 C524 0 531 7 531 17 L531 583 L635 583 C645 583 652 590 652 600 L652 683 Z " />
<glyph glyph-name="summation" unicode="&#x2211;" horiz-adv-x="487" d="M326 333 L326 367 L199 582 L400 582 C410 582 417 589 417 599 L417 683 C417 693 410 700 400 700 L87 700 C77 700 70 693 70 683 L70 582 L197 367 C197 355 198 344 198 334 L70 118 L70 17 C70 7 77 0 87 0 L400 0 C410 0 417 7 417 17 L417 101 C417 111 410 118 400 118 L199 118 L326 333 Z " />
<glyph glyph-name="minus" unicode="&#x2212;" horiz-adv-x="360" d="M273 187 C283 187 290 194 290 204 L290 287 C290 297 283 304 273 304 L87 304 C77 304 70 297 70 287 L70 204 C70 194 77 187 87 187 L273 187 Z " />
<glyph glyph-name="radical" unicode="&#x221a;" horiz-adv-x="661" d="M574 583 C584 583 591 590 591 600 L591 683 C591 693 584 700 574 700 L371 700 C361 700 354 693 351 683 L249 181 L237 181 L199 385 C196 395 189 402 179 402 L87 402 C77 402 70 395 70 385 L152 17 C155 7 161 0 171 0 L315 0 C325 0 331 7 334 17 L458 583 L574 583 Z " />
<glyph glyph-name="infinity" unicode="&#x221e;" horiz-adv-x="850" d="M241 186 C220 186 199 205 199 227 L199 299 C199 321 220 340 241 340 L319 340 C339 340 359 323 361 302 L361 227 C361 205 340 186 319 186 L241 186 Z M425 401 C408 440 363 458 328 458 L223 458 C129 458 75 380 70 304 L70 222 C75 146 129 68 223 68 L328 68 C363 68 408 86 425 125 C442 86 487 68 522 68 L627 68 C721 68 775 146 780 222 L780 304 C775 380 721 458 627 458 L522 458 C487 458 442 440 425 401 L425 401 Z M531 186 C510 186 489 205 489 227 L489 302 C491 323 511 340 531 340 L609 340 C630 340 651 321 651 299 L651 227 C651 205 630 186 609 186 L531 186 Z " />
<glyph glyph-name="integral" unicode="&#x222b;" horiz-adv-x="447" d="M317 698 C317 698 159 654 159 500 L159 14 C158 3 149 -44 81 -67 C74 -69 70 -76 70 -82 C70 -84 71 -87 72 -89 L108 -177 C111 -184 117 -188 123 -188 C125 -188 128 -187 130 -186 C130 -186 288 -142 288 12 L288 495 C288 495 288 553 366 579 C373 581 377 588 377 594 C377 596 376 599 375 601 L339 689 C336 696 330 700 324 700 C322 700 319 699 317 698 L317 698 Z " />
<glyph glyph-name="approxequal" unicode="&#x2248;" horiz-adv-x="396" d="M244 50 C271 50 289 60 315 76 C321 81 326 88 326 96 C326 97 326 99 307 165 C305 171 299 177 289 177 C273 177 259 167 244 167 C203 167 195 206 154 206 C128 206 107 196 82 180 C75 175 70 168 70 160 L91 91 C93 85 100 80 109 80 C126 80 139 89 154 89 C196 89 203 50 244 50 L244 50 Z M244 231 C271 231 289 241 315 257 C321 262 326 269 326 277 C326 278 326 280 307 346 C305 352 299 358 289 358 C273 358 259 348 244 348 C203 348 195 387 154 387 C128 387 107 377 82 361 C75 356 70 349 70 341 L91 272 C93 266 100 261 109 261 C126 261 139 270 154 270 C196 270 203 231 244 231 L244 231 Z " />
<glyph glyph-name="notequal" unicode="&#x2260;" horiz-adv-x="392" d="M305 277 C315 277 322 284 322 294 L322 377 C322 387 315 394 305 394 L295 394 L321 474 C321 484 314 491 304 491 L244 491 C234 491 230 484 227 474 L201 394 L87 394 C77 394 70 387 70 377 L70 294 C70 284 77 277 87 277 L164 277 L140 203 L87 203 C77 203 70 196 70 186 L70 103 C70 93 77 86 87 86 L103 86 L81 17 C81 7 88 0 98 0 L158 0 C168 0 172 7 175 17 L197 86 L305 86 C315 86 322 93 322 103 L322 186 C322 196 315 203 305 203 L234 203 L258 277 L305 277 Z " />
<glyph glyph-name="lessequal" unicode="&#x2264;" horiz-adv-x="358" d="M271 0 C281 0 288 7 288 17 L288 75 C288 85 281 92 271 92 L87 92 C77 92 70 85 70 75 L70 17 C70 7 77 0 87 0 L271 0 Z M70 223 C70 213 77 207 87 204 L271 137 C281 137 288 144 288 154 L288 246 C288 256 281 263 271 266 L203 289 L203 301 L271 323 C281 326 288 333 288 343 L288 435 C288 445 281 452 271 452 L87 386 C77 383 70 377 70 367 L70 223 Z " />
<glyph glyph-name="greaterequal" unicode="&#x2265;" horiz-adv-x="358" d="M271 0 C281 0 288 7 288 17 L288 75 C288 85 281 92 271 92 L87 92 C77 92 70 85 70 75 L70 17 C70 7 77 0 87 0 L271 0 Z M288 367 C288 377 281 383 271 386 L87 452 C77 452 70 445 70 435 L70 343 C70 333 77 326 87 323 L155 301 L155 289 L87 266 C77 263 70 256 70 246 L70 154 C70 144 77 137 87 137 L271 204 C281 207 288 213 288 223 L288 367 Z " />
<glyph glyph-name="lozenge" unicode="&#x25ca;" horiz-adv-x="610" d="M244 700 C234 700 227 693 224 683 L70 350 L224 17 C227 7 234 0 244 0 L366 0 C376 0 383 7 386 17 L540 350 L386 683 C383 693 376 700 366 700 L244 700 Z M305 562 L411 349 L305 138 L199 349 L305 562 Z " />
<glyph glyph-name="uni25CC" unicode="&#x25cc;" horiz-adv-x="199" d="" />
<glyph glyph-name="fi" unicode="&#xfb01;" horiz-adv-x="612" d="M25 414 C25 404 32 397 42 397 L91 397 L91 17 C91 7 98 0 108 0 L203 0 C213 0 220 7 220 17 L220 397 L291 397 C301 397 308 404 308 414 L308 498 C308 508 301 515 291 515 L220 515 L220 577 C220 599 241 618 262 618 L291 618 C301 618 308 625 308 635 L308 718 C308 728 301 735 291 735 L244 735 C150 735 96 657 91 581 L91 515 L42 515 C32 515 25 508 25 498 L25 414 Z M525 0 C535 0 542 7 542 17 L542 498 C542 508 535 515 525 515 L430 515 C420 515 413 508 413 498 L413 17 C413 7 420 0 430 0 L525 0 Z M528 565 C538 565 545 572 545 582 L545 683 C545 693 538 700 528 700 L428 700 C418 700 411 693 411 683 L411 582 C411 572 418 565 428 565 L528 565 Z " />
<glyph glyph-name="fl" unicode="&#xfb02;" horiz-adv-x="612" d="M25 414 C25 404 32 397 42 397 L91 397 L91 17 C91 7 98 0 108 0 L203 0 C213 0 220 7 220 17 L220 397 L291 397 C301 397 308 404 308 414 L308 498 C308 508 301 515 291 515 L220 515 L220 577 C220 599 241 618 262 618 L291 618 C301 618 308 625 308 635 L308 718 C308 728 301 735 291 735 L244 735 C150 735 96 657 91 581 L91 515 L42 515 C32 515 25 508 25 498 L25 414 Z M525 0 C535 0 542 7 542 17 L542 683 C542 693 535 700 525 700 L430 700 C420 700 413 693 413 683 L413 17 C413 7 420 0 430 0 L525 0 Z " />
</font>
</svg>
