<svg xmlns="http://www.w3.org/2000/svg" version="1.1" width="600px" height="600px" viewBox="0 0 200 200" style="overflow:hidden!important;"><g id="svga-group-wrapper"><g id="svga-group-backs-single"><path id="SvgjsPath12120" d="M0 0h200v200H0V0z" fill="#ecf0f1" stroke-width="none" opacity="1"></path></g><g id="svga-group-humanwrap-move" transform="matrix(1,0,0,1,0,0)"><g id="svga-group-humanwrap"><g id="svga-group-hair-back-move" transform="matrix(1,0,0,1,0,0)"><g id="svga-group-hair-back"></g></g><g id="svga-group-humanbody-back"><path id="SvgjsPath12278" d="m170 180.3-27.3-6.9-18-9.9-1.5-28.2H76.8l-1.5 28.2-18 9.9-27.3 6.9-9.1 19.7-3 20h164.2l-3-20z" fill="#fbd5c0" stroke-width="none" opacity="1"></path><path id="SvgjsPath12279" d="m76.8 135.3-1.5 28.2-18 9.9-27.3 6.9-9.1 19.7-3 20h14.6v-20l2.7-17.7 23.8-6.4 24.7-8.3 3.5-32.3H76.8zm16 33 2 7.9 6.9 4.6s-8.5-3-8.7-3.6c-.2-.6-.2-8.9-.2-8.9z" fill="#dc9f7d" stroke-width="none" opacity="1"></path></g><g id="svga-group-chinshadow-single"><path id="SvgjsPath12274" d="m124.1 152-.9-16.7H76.8l-1 18.5 21.3 3.8v.1l.1-.1v.1-.1l25.1-4.5z" fill="#cd865f" stroke-width="none" opacity="1"></path></g><g id="svga-group-humanbody-front"></g><g id="svga-group-clothes-single"><path id="SvgjsPath12162" d="m183.7 220-3.2-20.5-9.6-20.1-27.7-7-17.6-9.7-1-1.3.1 2.1.7 2.9-8.8 10.2-9.4 4.2H92.8l-9.4-4.2-8.8-10.2.7-2.9.1-2.1-1 1.3-17.6 9.7-27.8 7-9.5 20.1-3.2 20.5z" fill="#b0babc" stroke-width="none" opacity="1"></path><path id="SvgjsPath12163" d="m72 164.1-1.1 3.8 7.9 11.6 13.9 6.6 9 1.2h-8.9l-14-6.5-8.7-12.5 1.5-4 .4-.2zM29.6 207l3.5-14.5 2.9.7 2.5 9.3-1.6-9.4-3.3-8.9 27.6-5.8 12-6.2 4.2-2.5-2.8-3.2.7-2.9.1-2.1-1 1.3-17.7 9.7-27.7 7-9.6 20.1-3.1 20.4h13.2l.1-13zm13.6 8.7-1.8-6.5.2 10.8h2.1l-.5-4.3zm84.8-51.6 1.1 3.8-7.9 11.6-13.9 6.6-9 1.2h8.9l14-6.5 8.7-12.5-1.5-4-.4-.2zm28.8 51.6 1.8-6.5-.2 10.8h-2.1l.5-4.3z" fill="#90a8ad" stroke-width="none" opacity="1"></path></g><g id="svga-group-head" transform="matrix(1,0,0,1,0,0)"><g id="svga-group-ears-left-move" transform="matrix(1,0,0,1,0,0)"><g id="svga-group-ears-left"><path id="SvgjsPath12172" d="m64.4 98.3-5.3-9.7-7-.9-2 7.2.4 8.9 7 11.4 6.1 4.5 3.8-11.6z" fill="#fbd5c0" stroke-width="none" opacity="1"></path><path id="SvgjsPath12173" d="m58.4 101.2-4.1-9.8-1.9 5.1.4 5 2.6 6.1-1.6-9.4 1.5-.7 1.3 10.8 2 2.1z" fill="#dc9f7d" stroke-width="none" opacity="1"></path><path id="SvgjsPath12174" d="m60.7 101-3.2-11.6-5.4-1.7 7 .9 5.3 9.7 3 9.8-3.8 11.6-6.1-4.5 3.6.7z" fill="#ecb99d" stroke-width="none" opacity="1"></path></g></g><g id="svga-group-ears-right-move" transform="matrix(1,0,0,1,0,0)"><g id="svga-group-ears-right"><path id="SvgjsPath12175" d="m135.6 98.3 5.3-9.7 7-.9 2 7.2-.4 8.9-7 11.4-6.1 4.5-3.8-11.6z" fill="#fbd5c0" stroke-width="none" opacity="1"></path><path id="SvgjsPath12176" d="m141.6 101.2 4.1-9.8 1.9 5.1-.4 5-2.6 6.1 1.6-9.4-1.5-.7-1.3 10.8-2 2.1z" fill="#dc9f7d" stroke-width="none" opacity="1"></path><path id="SvgjsPath12177" d="m139.3 101 3.2-11.6 5.4-1.7-7 .9-5.3 9.7-3 9.8 3.8 11.6 6.1-4.5-3.6.7z" fill="#ecb99d" stroke-width="none" opacity="1"></path></g></g><g id="svga-group-faceshape-wrap"><g id="svga-group-faceshape-single"><path id="SvgjsPath12260" d="M138.1 59.5c-6.9-11.3-19.7-19-19.7-19-7.2-1.5-18.4-2.2-18.4-2.2s-11.1.7-18.4 2.2c0 0-12.8 7.7-19.7 19 0 0-5.1 14.2-5.3 24.2l2.7 31.1 4.5 24.8 11.1 7.2 25.1 4.4 25.1-4.4 11.1-7.2 4.5-24.8 2.7-31.1c-.2-10.1-5.3-24.2-5.3-24.2z" fill="#fbd5c0" stroke-width="none" opacity="1"></path><path id="SvgjsPath12261" d="m99.7 146.9-24.6-2.1-9-6.8-5.5-55.1 4.7-21.6C67.8 57 82.8 43 82.8 43l17.2-2.9 18.4.4c-7.2-1.5-18.4-2.2-18.4-2.2s-11.1.7-18.4 2.1c0 0-12.8 7.7-19.7 19 0 0-5.1 14.1-5.3 24.2l2.7 31.1 4.5 24.8 11.1 7.2 25.1 4.4 25.1-4.4 11.1-7.2-12.4 5.4-24.1 2z" fill="#dc9f7d" stroke-width="none" opacity="1"></path></g></g><g id="svga-group-mouth-single-move" transform="matrix(1,0,0,1,0.5,3)"><g id="svga-group-mouth-single" transform="matrix(0.8999996000000001,0,0,0.8999996000000001,9.905039162234488,13.050051437057476)"><path id="SvgjsPath12125" d="m81.4 123.4 1.5 4.2 10.2 9.2h13.4l8.6-8.4 1-5.2-17.4 4.4z" fill="#000000" stroke-width="none" opacity="1"></path><path id="SvgjsPath12126" d="m98.7 127.6-17.3-4.2 1.8 4.1 15.4 3.5 16.1-2.8 1.4-5z" fill="#ffffff" stroke-width="none" opacity="1"></path><path id="SvgjsPath12127" d="m80.5 123.1 18.2 4.8 18.9-5-19.1 4.4-18-4.2zm35.5-2.5 1 2.4.2 2.7.7-2.4-.9-2.3-1-.4zm-34.9.6-.9 2.3.7 2.4.2-2.7 1-2.4-1 .4zm14.1 18.4s1.4.8 1.6.8c.2 0 6.4-.1 6.4-.1l.7-.9-8.7.2z" fill="#d19271" stroke-width="none" opacity="1"></path></g></g><g id="svga-group-eyes-left-move" transform="matrix(1,0,0,1,0,0)"><g id="svga-group-eyes-left"><g id="svga-group-eyesback-left"><path id="SvgjsPath12216" d="M90.5 99.6s-.5-5.6-1.8-7.4c-.2-.2-14.7.2-17.9.3L72 99l1.9 1.5c0 .1 15.6-.4 16.6-.9z" fill="#ffffff" stroke-width="none" opacity="1"></path></g><g id="svga-group-eyesiriswrapper-left" transform="matrix(1,0,0,1,0,0)"><g id="svga-group-eyesiriscontrol-left" transform="matrix(1,0,0,1,0,0)"><g id="svga-group-eyesiris-left"><path id="SvgjsPath12354" d="m77 97.9-1.3-3.8 1.9-3.7 3.9-1.2 3.6 1.9 1.2 3.8-1.8 3.6-3.9 1.3z" fill="#66724e" stroke-width="none" opacity="1"></path><path id="SvgjsPath12355" d="m81.5 89.5 3.4 1.8 1.2 3.7-1.8 3.4-3.7 1.2-3.4-1.8-1.2-3.7 1.8-3.4 3.7-1.2m0-.6-4.1 1.3-2 3.8 1.3 4.1 3.8 2 4.1-1.3 2-3.8-1.3-4.1-3.8-2z" fill="#455328" stroke-width="none" opacity="1"></path><path id="SvgjsPath12356" d="m82.2 91.6-2.4.1-1.6 1.7v2.3l1.7 1.6h2.4l1.6-1.7v-2.3z" fill="#000000" stroke-width="none" opacity="1"></path><path id="SvgjsPath12357" d="m77.9 91.2.9 1.1-1.2-.7.3-.4zm2.1-1v1.3l-.6-1.1.6-.2zm1.7-.2-.3 1.3-.3-1.3h.6zm1.7.9-.7.8.2-1.1.5.3zm1.5 1-1.3.8 1-1.2.3.4zm.6 1.9-1.4.1 1.2-.6.2.5zm.1 1.5-1.2-.4 1.3-.1-.1.5zm-.9 1.4-.8-.7 1.1.3-.3.4zm-.8 1.5-.7-1.3 1.1.9-.4.4zm-1.8.6-.1-1.4.6 1.2-.5.2zm-1.8.1.5-1.2.1 1.3-.6-.1zm-2-1.1.9-.9-.4 1.2-.5-.3zM77 96.2l1.1-.3-.8.8-.3-.5zm-.4-1.7 1.3.3-1.3.2v-.5zm.5-1.9.8.7-1.1-.2.3-.5z" fill="#2f3c14" stroke-width="none" opacity="1"></path><path id="SvgjsPath12358" d="m78 92 2.2 2 .6-.4-1.3-2.7z" fill="#ffffff" stroke-width="none" opacity="1"></path><path id="SvgjsPath12359" d="m82.1 96.6.5 1 .9-.4-.5-1z" fill="#ffffff" stroke-width="none" opacity="1"></path></g></g></g><g id="svga-group-eyesfront-left"><path id="SvgjsPath12224" d="M67.1 89.3v11.9l7.9 8.4h11.2l7.9-8.4V89.3l-7.9-8.4H75l-7.9 8.4zm3.7 3.2c3.2-.1 17.7-.5 17.9-.3 1.3 1.8 1.8 7.4 1.8 7.4-1 .5-16.6 1-16.6 1L72 99l-1.2-6.5z" fill="#fbd5c0" stroke-width="none" opacity="1"></path><path id="SvgjsPath12225" d="m89.8 95.1.3 4.3-3.1.5-.3-.5-2.3.8h2.1l.7 1.2 4.1-.1z" fill="#ecb99d" stroke-width="none" opacity="1"></path><path id="SvgjsPath12226" d="m90.3 98.1-1.9-5.3H71.1l.2 1.6-1.4-.5-.6-1.9 21.2-.2-.9.7 1.3 7.1z" fill="#000000" stroke-width="none" opacity="1"></path></g></g></g><g id="svga-group-eyes-right-move" transform="matrix(1,0,0,1,0,0)"><g id="svga-group-eyes-right"><g id="svga-group-eyesback-right"><path id="SvgjsPath12217" d="M109.5 99.6s.5-5.6 1.8-7.4c.2-.2 14.6.2 17.9.3L128 99l-1.9 1.5c0 .1-15.6-.4-16.6-.9z" fill="#ffffff" stroke-width="none" opacity="1"></path></g><g id="svga-group-eyesiriswrapper-right" transform="matrix(1,0,0,1,0,0)"><g id="svga-group-eyesiriscontrol-right" transform="matrix(1,0,0,1,0,0)"><g id="svga-group-eyesiris-right"><path id="SvgjsPath12360" d="m114.9 97.9-1.2-3.8 1.8-3.7 3.9-1.2 3.6 1.9 1.3 3.8-1.9 3.6-3.9 1.3z" fill="#66724e" stroke-width="none" opacity="1"></path><path id="SvgjsPath12361" d="m119.4 89.5 3.4 1.8L124 95l-1.8 3.4-3.7 1.2-3.4-1.8-1.2-3.7 1.8-3.4 3.7-1.2m0-.6-4.1 1.3-2 3.8 1.3 4.1 3.8 2 4.1-1.3 2-3.8-1.3-4.1-3.8-2z" fill="#455328" stroke-width="none" opacity="1"></path><path id="SvgjsPath12362" d="m120.1 91.6-2.4.1-1.6 1.7v2.3l1.7 1.6h2.4l1.6-1.7v-2.3z" fill="#000000" stroke-width="none" opacity="1"></path><path id="SvgjsPath12363" d="m115.9 91.2.8 1.1-1.2-.7.4-.4zm2-1v1.3l-.5-1.1.5-.2zm1.7-.2-.3 1.3-.3-1.3h.6zm1.7.9-.7.8.3-1.1.4.3zm1.5 1-1.3.8 1-1.2.3.4zm.6 1.9-1.3.1 1.1-.6.2.5zm.1 1.5-1.2-.4 1.3-.1-.1.5zm-.9 1.4-.8-.7 1.1.3-.3.4zm-.8 1.5-.7-1.3 1.1.9-.4.4zm-1.8.6-.1-1.4.6 1.2-.5.2zm-1.8.1.5-1.2.1 1.3-.6-.1zm-2-1.1.9-.9-.4 1.2-.5-.3zm-1.2-1.6 1-.3-.8.8-.2-.5zm-.5-1.7 1.3.3-1.3.2v-.5zm.5-1.9.8.7-1-.2.2-.5z" fill="#2f3c14" stroke-width="none" opacity="1"></path><path id="SvgjsPath12364" d="m115.9 92 2.2 2 .6-.4-1.3-2.7z" fill="#ffffff" stroke-width="none" opacity="1"></path><path id="SvgjsPath12365" d="m120 96.6.5 1 .9-.4-.5-1z" fill="#ffffff" stroke-width="none" opacity="1"></path></g></g></g><g id="svga-group-eyesfront-right"><path id="SvgjsPath12227" d="M125 80.8h-11.2l-7.9 8.4v11.9l7.9 8.4H125l7.9-8.4V89.3l-7.9-8.5zm3 18.2-1.9 1.5s-15.6-.5-16.6-1c0 0 .5-5.6 1.8-7.4.2-.2 14.6.2 17.9.3L128 99z" fill="#fbd5c0" stroke-width="none" opacity="1"></path><path id="SvgjsPath12230" d="m110.2 95.1-.3 4.3 3.1.5.3-.5 2.3.8h-2.1l-.7 1.2-4.1-.1z" fill="#ecb99d" stroke-width="none" opacity="1"></path><path id="SvgjsPath12231" d="m109.7 98.1 1.9-5.3h17.3l-.2 1.6 1.4-.5.6-1.9-21.2-.2.9.7-1.3 7.1z" fill="#000000" stroke-width="none" opacity="1"></path></g></g></g><g id="svga-group-facehighlight-single"></g><g id="svga-group-eyebrows-left-move" transform="matrix(1,0,0,1,0,0)"><g id="svga-group-eyebrows-left-rotate" transform="matrix(1,0,0,1,0,0)"><g id="svga-group-eyebrows-left" transform="matrix(1.0500002000000002,0,0,1.0500002000000002,-3.9100156781471327,-4.169516647482311)"><path id="SvgjsPath12148" d="m93.58 85.39-1.3 2.72-18.78-7.17-10.68 3.59 11.09-5.86z" fill="#2a232b" stroke-width="none" opacity="1"></path></g></g></g><g id="svga-group-eyebrows-right-move" transform="matrix(1,0,0,1,0,0)"><g id="svga-group-eyebrows-right-rotate" transform="matrix(1,0,0,1,0,0)"><g id="svga-group-eyebrows-right" transform="matrix(1.0500002000000002,0,0,1.0500002000000002,-6.090024131117275,-4.169516647482311)"><path id="SvgjsPath12149" d="m106.42 85.39 1.3 2.72 18.78-7.17 10.68 3.59-11.09-5.86z" fill="#2a232b" stroke-width="none" opacity="1"></path></g></g></g><g id="svga-group-beardwrap"><g id="svga-group-beard-single-move" transform="matrix(1,0,0,1,1,1)"><g id="svga-group-beard-single" transform="matrix(0.8499994000000002,0,0,0.8499994000000002,15.000059999999976,20.37758128111723)"><path id="SvgjsPath12138" d="m118 116.8-10.7.8-6.3 1.8h-2l-6.3-1.8-10.7-.8-6.6 4.5.1 12.9 7.4 13.6 10.6 7.1h13l10.6-7.1 7.4-13.6.1-12.9-6.6-4.5zm-1.4 16.2-5.7 7.3-5.5 2.2-1.2-1.1v-3.9H96v3.9l-1.2 1.1-5.5-2.2-5.7-7.3-2-10.8 2.8-1.8 14.6 1.9h2.4l14.6-1.9 2.8 1.8-2.2 10.8z" fill="#2a232b" stroke-width="none" opacity="1"></path><path id="SvgjsPath12139" d="M94.3 153.7c-.3.1-7.7-6.5-7.7-6.5l-8.1-13.1-1.6-11.4 5.1-4.6 8.8.4 9.8 2.1 8.2-3-1.5.1-6.3 1.8h-2l-6.3-1.8-10.7-.9-6.6 4.5.1 12.9 7.4 13.6 10.6 7.1h13l10.6-7.1-10.9 5.7s-11.6.1-11.9.2zm2.2-12-.5-4.2v3.9l-1.2 1.1-5.5-2.2c.1.4 5 2.4 5.2 2.8.1.2 2-1.4 2-1.4zm4.7-19.5 14.6-1.9 2.8 1.8-2 10.8-5.7 7.3-5.5 2.2 6-2 6.1-7 2.7-11.6-3.4-2.5-15.6 2.9z" fill="#1b141c" stroke-width="none" opacity="1"></path></g></g></g><g id="svga-group-mustache-single-move" transform="matrix(1,0,0,1,0,0)"><g id="svga-group-mustache-single" transform="matrix(0.7999992000000002,0,0,0.7999992000000002,0,0)"></g></g><g id="svga-group-nose-single-move" transform="matrix(1,0,0,1,0,0)"><g id="svga-group-nose-single" transform="matrix(1,0,0,1,0,2)"><path id="SvgjsPath12407" d="m96.12 99.91-.45 6.4-5.78 8.87 2.98 2.25 1.63-2.02 4.32 3.82h2.41l4.27-3.82 1.57 1.96 3.15-2.19-5.79-8.92-.56-6.46-3.82-1.63z" fill="#fbd5c0" stroke-width="none" opacity="1"></path><path id="SvgjsPath12408" d="m104.86 106.44-1.95-15.67 1.1 14.55-.86-.22 6.58 10.06-2.34 1.73-1.28-1.51.28-1.34-5.15 4.47h-2.4l-5.15-4.47.29 1.34-1.29 1.51-2.34-1.73 6.59-10.06-.86.22 1.33-22.81-2.19 23.93-5.82 8.83 3.81 2.79 1.44-2.01 4.19 3.91h2.4l4.2-3.91 1.43 2.01 3.81-2.79z" fill="#dc9f7d" stroke-width="none" opacity="1"></path><path id="SvgjsPath12409" d="m96.15 113.17 2.37 1.46 3.1.06 2.55-1.16-.3-1.76-3.59-.6-3.94.66z" fill="#ffe1d0" stroke-width="none" opacity="1"></path></g></g><g id="svga-group-hair-front"></g><g id="svga-group-glasses-single-move" transform="matrix(1,0,0,1,0,0)"><g id="svga-group-glasses-single"><path id="SvgjsPath12291" d="m63.4 90.8 1.9 14.4s2.1 2.9 2.2 2.9c.2 0 5.8 1.1 5.8 1.1l12.7-.1 5.5-1.7 3.1-5.5 2.7-9.3-11.2-2.2-18.9-.3-3.8.7z" fill="url(#SvgjsLinearGradient12292)" opacity="1"></path><path id="SvgjsPath12296" d="m136.6 90.8-1.9 14.4s-2.1 2.9-2.2 2.9c-.2 0-5.8 1.1-5.8 1.1l-12.7-.1-5.5-1.7-3.1-5.5-2.7-9.3 11.2-2.2 18.9-.3 3.8.7z" fill="url(#SvgjsLinearGradient12297)" opacity="1"></path><path id="SvgjsPath12301" d="m128.2 89.1-17.5 1-8 1.5-2.1.1h-1.2l-2.1-.1-8-1.5-17.5-1-10.5.8.6 5.6 1 .6 1.6 9.2 2.5 3.2 4.8 1.3 15.2-.1 5-1.5 3.7-6.5 1.8-5.1 1.9-1.2h1.2l1.9 1.2 1.8 5.1 3.7 6.5 5 1.5 15.2.1 4.8-1.3 2.5-3.2 1.6-9.2 1-.6.6-5.6-10.5-.8zm-33 7.8-1.7 5.6-2.8 4.5-5.3 1.4H72l-4.2-1.1-2.1-2.8-1-5.6-.4-5.7 1.7-1.7 3.2-.6 16.5.5 8.3 1.8 1.3 1.2-.1 2.5zm40 1.9-1 5.6-2.1 2.8-4.2 1.1h-13.4l-5.3-1.4-2.8-4.5-1.7-5.6-.1-2.6 1.3-1.2 8.3-1.8 16.5-.5 3.2.6 1.7 1.7-.4 5.8z" fill="#26120b" stroke-width="none" opacity="1"></path></g></g></g></g></g><rect id="svga-credit-rect" width="200" height="15" x="0" y="185" fill="#ecf0f1" opacity="0.5" style="display: none;"></rect><text id="svga-credit-text" font-family="Avenir Next, Roboto, Helvetica, Arial, sans-serif" font-size="10px" text-anchor="start" font-weight="400" size="10px" anchor="start" weight="400" fill="#333333" x="33.298973083496094" y="182.60824728012085" style="display: none;"><tspan id="SvgjsTspan12119" dy="13" x="33.298973083496094">Created on AvatarMaker.com</tspan></text></g><defs id="SvgjsDefs12066"><linearGradient id="SvgjsLinearGradient12292" x1="80.35" y1="109.9" x2="80.35" y2="90.7671" gradientTransform="matrix(1 0 0 -1 0 200)" gradientUnits="userSpaceOnUse" class="svga-on-canvas-glasses-gradient-single-0-null"><stop id="SvgjsStop12293" stop-opacity="1" stop-color="#bfeaf2" offset="0" ></stop><stop id="SvgjsStop12294" stop-opacity="0.649" stop-color="#a1cae3" offset="0.351" ></stop><stop id="SvgjsStop12295" stop-opacity="0" stop-color="#6086c4" offset="1" ></stop></linearGradient><linearGradient id="SvgjsLinearGradient12297" x1="-19.65" y1="109.9" x2="-19.65" y2="90.7671" gradientTransform="matrix(-1 0 0 -1 100 200)" gradientUnits="userSpaceOnUse" class="svga-on-canvas-glasses-gradient-single-1-null"><stop id="SvgjsStop12298" stop-opacity="1" stop-color="#bfeaf2" offset="0" ></stop><stop id="SvgjsStop12299" stop-opacity="0.649" stop-color="#a1cae3" offset="0.351" ></stop><stop id="SvgjsStop12300" stop-opacity="0" stop-color="#6086c4" offset="1" ></stop></linearGradient></defs></svg>
