<?xml version="1.0" encoding="UTF-8" standalone="no"?>
<svg
   viewBox="0 0 340 340"
   version="1.1"
   width="340"
   height="340"
   id="svg48"
   sodipodi:docname="favicon.svg"
   inkscape:version="1.1.1 (3bf5ae0d25, 2021-09-20)"
   xmlns:inkscape="http://www.inkscape.org/namespaces/inkscape"
   xmlns:sodipodi="http://sodipodi.sourceforge.net/DTD/sodipodi-0.dtd"
   xmlns="http://www.w3.org/2000/svg"
   xmlns:svg="http://www.w3.org/2000/svg">
  <defs
     id="defs52" />
  <sodipodi:namedview
     id="namedview50"
     pagecolor="#505050"
     bordercolor="#ffffff"
     borderopacity="1"
     inkscape:pageshadow="0"
     inkscape:pageopacity="0"
     inkscape:pagecheckerboard="1"
     showgrid="false"
     fit-margin-top="0"
     fit-margin-left="0"
     fit-margin-right="0"
     fit-margin-bottom="0"
     inkscape:zoom="1.61"
     inkscape:cx="170.18634"
     inkscape:cy="154.96894"
     inkscape:window-width="1868"
     inkscape:window-height="1025"
     inkscape:window-x="52"
     inkscape:window-y="27"
     inkscape:window-maximized="1"
     inkscape:current-layer="svg48" />
  <style
     id="style2">
  .s2 {stroke-width:13.0769; }
  .s {stroke-width:13.0769; }
  .f-light {fill: #d0cfce; }
  .f-light2 {fill: #9b9b9a; }
  .f-white {fill: #ffffff; }
  .f-red {fill: #d22f27; }
  .f-none {fill: none; stroke: #000; stroke-miterlimit: 2;}
  @media (prefers-color-scheme: dark) {  }
</style>
  <path
     class="s f-red"
     d="M 156.92307,55.965035 V 39.547608 c 0,-9.027656 7.3185,-16.346158 16.34615,-16.346158 v 0 c 9.02766,0 16.34616,7.318502 16.34616,16.346158 v 16.346158"
     id="path4" />
  <path
     class="s f-light"
     d="m 22.884604,219.35535 v 0 c -9.027654,0 -16.3461542,-7.31851 -16.3461542,-16.34616 v -52.30771 c 0,-9.02765 7.3185002,-16.34615 16.3461542,-16.34615 v 0 c 9.027654,0 16.346154,7.3185 16.346154,16.34615 v 52.30771 c 0,9.02765 -7.3185,16.34616 -16.346154,16.34616 z"
     id="path6" />
  <path
     class="s f-light"
     d="m 317.11538,219.35535 v 0 c 9.02765,0 16.34615,-7.31851 16.34615,-16.34616 v -52.30771 c 0,-9.02765 -7.3185,-16.34615 -16.34615,-16.34615 v 0 c -9.02766,0 -16.34616,7.3185 -16.34616,16.34615 v 52.30771 c 0,9.02765 7.3185,16.34616 16.34616,16.34616 z"
     id="path8" />
  <path
     class="s f-light"
     d="M 244.86865,317.50356 H 95.131339 c -30.745158,0 -55.900581,-25.15543 -55.900581,-55.90059 V 111.86563 c 0,-30.745163 25.155423,-55.900595 55.900581,-55.900595 H 244.86865 c 30.74515,0 55.90057,25.155432 55.90057,55.900595 v 149.73734 c 0,30.74451 -25.15542,55.90059 -55.90057,55.90059 z"
     id="path10" />
  <path
     class="s f-light2"
     d="m 166.71572,317.49833 h 86.87327 c 25.94919,0 47.18023,-25.15543 47.18023,-55.90059 V 111.8604 c 0,-30.745163 -21.23104,-55.900596 -47.18023,-55.900596 h -15.38238"
     id="path12" />
  <ellipse
     class="s f-white"
     cx="227.76466"
     cy="140.24844"
     rx="18.528692"
     ry="18.528698"
     id="ellipse14" />
  <ellipse
     class="s f-white"
     cx="113.339"
     cy="140.24516"
     rx="18.528692"
     ry="18.528698"
     id="ellipse16" />
  <path
     class="s f-white"
     d="M 225.57691,261.19563 H 114.42307 c -14.38462,0 -26.153851,-11.76924 -26.153851,-26.15386 v 0 c 0,-14.38462 11.769231,-26.15385 26.153851,-26.15385 h 111.15384 c 14.38462,0 26.15385,11.76923 26.15385,26.15385 v 0 c 0,14.38462 -11.76923,26.15386 -26.15385,26.15386 z"
     id="path18" />
  <path
     class="s2 f-none"
     d="M 173.26922,90.892197"
     id="path20" />
  <path
     class="s2 f-none"
     d="M 156.92307,55.302035 V 38.884608 c 0,-9.027656 7.3185,-16.346158 16.34615,-16.346158 v 0 c 9.02766,0 16.34616,7.318502 16.34616,16.346158 v 16.346158"
     id="path22" />
  <path
     class="s2 f-none"
     d="M 244.86865,316.76929 H 95.131339 c -30.745158,0 -55.900581,-25.15543 -55.900581,-55.90059 V 111.13136 c 0,-30.745163 25.155423,-55.900594 55.900581,-55.900594 H 244.86865 c 30.74515,0 55.90057,25.155431 55.90057,55.900594 V 260.8687 c 0,30.74516 -25.15542,55.90059 -55.90057,55.90059 z"
     id="path24" />
  <ellipse
     class="s2 f-none"
     cx="227.76466"
     cy="140.24516"
     rx="18.528692"
     ry="18.528698"
     id="ellipse26" />
  <ellipse
     class="s2 f-none"
     cx="113.339"
     cy="140.2419"
     rx="18.528692"
     ry="18.528698"
     id="ellipse28" />
  <path
     class="s f-none"
     d="M 225.57691,261.19236 H 114.42307 c -14.38462,0 -26.153851,-11.76924 -26.153851,-26.15386 v 0 c 0,-14.38461 11.769231,-26.15385 26.153851,-26.15385 h 111.15384 c 14.38462,0 26.15385,11.76924 26.15385,26.15385 v 0 c 0,14.38462 -11.76923,26.15386 -26.15385,26.15386 z"
     id="path30" />
  <path
     class="s2 f-none"
     d="m 22.884604,219.35535 v 0 c -9.027654,0 -16.3461542,-7.31851 -16.3461542,-16.34616 v -52.30771 c 0,-9.02765 7.3185002,-16.34615 16.3461542,-16.34615 v 0 c 9.027654,0 16.346154,7.3185 16.346154,16.34615 v 52.30771 c 0,9.02765 -7.3185,16.34616 -16.346154,16.34616 z"
     id="path32" />
  <path
     class="s2 f-none"
     d="m 317.11538,218.69235 v 0 c 9.02765,0 16.34615,-7.31851 16.34615,-16.34616 v -52.30771 c 0,-9.02765 -7.3185,-16.34615 -16.34615,-16.34615 v 0 c -9.02766,0 -16.34616,7.3185 -16.34616,16.34615 v 52.30771 c 0,9.02765 7.3185,16.34616 16.34616,16.34616 z"
     id="path34" />
  <path
     class="s f-none"
     d="M 173.26922,195.80773"
     id="path36" />
  <path
     class="s f-none"
     d="M 173.26922,326.57699"
     id="path38" />
  <line
     class="s2 f-none"
     x1="117.6923"
     x2="117.6923"
     y1="212.15388"
     y2="257.9231"
     id="line40" />
  <line
     class="s2 f-none"
     x1="150.3846"
     x2="150.3846"
     y1="212.15388"
     y2="257.9231"
     id="line42" />
  <line
     class="s2 f-none"
     x1="183.0769"
     x2="183.0769"
     y1="212.15388"
     y2="257.9231"
     id="line44" />
  <line
     class="s2 f-none"
     x1="215.76921"
     x2="215.76921"
     y1="212.15388"
     y2="257.9231"
     id="line46" />
</svg>
