<?xml version="1.0" encoding="UTF-8" standalone="no"?>
<!-- Created with Inkscape (http://www.inkscape.org/) -->

<svg
   width="2000"
   height="1000"
   viewBox="0 0 529.16667 264.58333"
   version="1.1"
   id="svg1"
   inkscape:version="1.3.2 (1:1.3.2+202311252150+091e20ef0f)"
   sodipodi:docname="template-articleimage.svg"
   xml:space="preserve"
   xmlns:inkscape="http://www.inkscape.org/namespaces/inkscape"
   xmlns:sodipodi="http://sodipodi.sourceforge.net/DTD/sodipodi-0.dtd"
   xmlns="http://www.w3.org/2000/svg"
   xmlns:svg="http://www.w3.org/2000/svg"><sodipodi:namedview
     id="namedview1"
     pagecolor="#ffffff"
     bordercolor="#000000"
     borderopacity="0.25"
     inkscape:showpageshadow="false"
     inkscape:pageopacity="0.0"
     inkscape:pagecheckerboard="0"
     inkscape:deskcolor="#d1d1d1"
     inkscape:document-units="mm"
     borderlayer="true"
     inkscape:lockguides="true"
     showgrid="true"
     inkscape:zoom="0.5355"
     inkscape:cx="986.9281"
     inkscape:cy="584.50047"
     inkscape:window-width="1866"
     inkscape:window-height="1021"
     inkscape:window-x="54"
     inkscape:window-y="22"
     inkscape:window-maximized="1"
     inkscape:current-layer="layer2"><sodipodi:guide
       position="0,264.58333"
       orientation="0,2000"
       inkscape:locked="true"
       id="guide1" /><sodipodi:guide
       position="529.16666,264.58333"
       orientation="1000,0"
       inkscape:locked="true"
       id="guide2" /><sodipodi:guide
       position="529.16666,0"
       orientation="0,-2000"
       inkscape:locked="true"
       id="guide3" /><sodipodi:guide
       position="0,0"
       orientation="-1000,0"
       inkscape:locked="true"
       id="guide4" /><inkscape:grid
       id="grid5"
       units="px"
       originx="0"
       originy="0"
       spacingx="13.229167"
       spacingy="13.229167"
       empcolor="#0099e5"
       empopacity="0.30196078"
       color="#0099e5"
       opacity="0.14901961"
       empspacing="5"
       dotted="false"
       gridanglex="30"
       gridanglez="30"
       visible="true" /></sodipodi:namedview><defs
     id="defs1" /><g
     inkscape:groupmode="layer"
     id="layer2"
     inkscape:label="Background"
     style="display:inline;mix-blend-mode:normal;fill:#2b0000" /><g
     inkscape:label="Layer 1"
     inkscape:groupmode="layer"
     id="layer1"
     style="display:inline"><g
       style="fill:currentColor"
       id="g5"
       transform="matrix(6.107068,0,0,6.107068,149.87598,34.540674)"><path
         d="M 6.428,1.151 C 6.708,0.591 7.213,0 8,0 8.787,0 9.292,0.592 9.572,1.151 9.861,1.73 10,2.431 10,3 v 3.691 l 5.17,2.585 A 1.5,1.5 0 0 1 16,10.618 V 12 a 0.5,0.5 0 0 1 -0.582,0.493 l -5.507,-0.918 -0.375,2.253 1.318,1.318 A 0.5,0.5 0 0 1 10.5,16 h -5 A 0.5,0.5 0 0 1 5.146,15.146 L 6.465,13.828 6.089,11.575 0.582,12.493 A 0.5,0.5 0 0 1 0,12 V 10.618 A 1.5,1.5 0 0 1 0.83,9.276 L 6,6.691 V 3 C 6,2.432 6.14,1.729 6.428,1.151 M 7.322,1.599 C 7.111,2.02 7,2.569 7,3 V 7 A 0.5,0.5 0 0 1 6.724,7.447 L 1.276,10.171 A 0.5,0.5 0 0 0 1,10.618 v 0.792 l 5.418,-0.903 a 0.5,0.5 0 0 1 0.575,0.41 l 0.5,3 a 0.5,0.5 0 0 1 -0.14,0.437 L 6.708,15 H 9.294 L 8.647,14.354 a 0.5,0.5 0 0 1 -0.14,-0.436 l 0.5,-3 A 0.5,0.5 0 0 1 9.583,10.507 L 15,11.41 V 10.618 A 0.5,0.5 0 0 0 14.724,10.171 L 9.276,7.447 A 0.5,0.5 0 0 1 9,7 V 3 C 9,2.568 8.89,2.021 8.678,1.599 8.458,1.159 8.213,1 8,1 7.787,1 7.542,1.158 7.322,1.599"
         id="path1"
         inkscape:label="path1" /></g><g
       style="fill:currentColor"
       id="g6"
       transform="matrix(8.8132709,0,0,8.8132709,105.02212,118.63217)"><path
         d="m 0.18035857,5.3329419 a 0.5,0.5 0 0 1 0.5,-0.5 H 2.1803586 a 0.5,0.5 0 0 1 0,1 v 0.5 h 4.14 l 0.386,-1.158 a 0.5,0.5 0 0 1 0.474,-0.342 h 1 a 0.5,0.5 0 0 1 0,1 h -0.64 l -0.311,0.935 0.807,1.29 a 3,3 0 1 1 -0.848,0.53 l -0.508,-0.812 -2.076,3.3220001 a 0.5,0.5 0 0 1 -0.424,0.235 h -2.041 A 3,3 0 1 1 0.32435857,8.0589419 l 0.85600003,-1.37 v -0.856 H 0.68035857 a 0.5,0.5 0 0 1 -0.5,-0.5 m 1.50000003,2.443 -0.508,0.814 c 0.5,0.444 0.85,1.054 0.967,1.7430001 h 1.139 z m 2.5,2.114 1.598,-2.557 h -3.196 z m -3.063,0.4430001 A 2,2 0 0 0 0.63035857,9.4559419 l -0.548,0.8770001 z M -0.21664143,8.9249419 A 2,2 0 1 0 1.1173586,11.332942 h -1.93700003 a 0.5,0.5 0 0 1 -0.42399997,-0.765 z m 7.94700003,0.53 a 2,2 0 1 0 0.848,-0.53 l 1.026,1.6430001 a 0.500001,0.500001 0 1 1 -0.848,0.53 z"
         id="path1-6" /></g><g
       style="fill:currentColor"
       id="g7"
       transform="matrix(4.4490694,0,0,4.4490694,27.94842,30.374124)"><path
         d="m 5,11 a 1,1 0 1 1 -2,0 1,1 0 0 1 2,0 m 8,0 a 1,1 0 1 1 -2,0 1,1 0 0 1 2,0 M 7,10 a 1,1 0 1 0 0,2 H 9 A 1,1 0 1 0 9,10 Z M 8,4 C 6.124,4 4.574,4.109 3.448,4.226 A 0.5,0.5 0 0 0 3,4.723 V 8.277 A 0.5,0.5 0 0 0 3.448,8.774 C 4.574,8.891 6.124,9 8,9 9.876,9 11.426,8.891 12.552,8.774 A 0.5,0.5 0 0 0 13,8.277 V 4.723 A 0.5,0.5 0 0 0 12.552,4.226 44,44 0 0 0 8,4 M 8,3 C 6.163,3 4.647,3.107 3.552,3.22 A 0.5,0.5 0 1 1 3.448,2.226 44,44 0 0 1 8,2 c 1.876,0 3.426,0.109 4.552,0.226 A 0.5,0.5 0 1 1 12.448,3.22 43,43 0 0 0 8,3"
         id="path1-2" /><path
         d="M 15,8 A 1,1 0 0 0 16,7 V 5 A 1,1 0 0 0 15,4 V 2.64 C 15,1.452 14.155,0.408 12.936,0.268 A 44,44 0 0 0 8,0 C 5.9,0 4.208,0.136 3.064,0.268 1.845,0.408 1,1.452 1,2.64 V 4 A 1,1 0 0 0 0,5 v 2 a 1,1 0 0 0 1,1 v 3.5 c 0,0.818 0.393,1.544 1,2 v 2 A 0.5,0.5 0 0 0 2.5,16 h 2 A 0.5,0.5 0 0 0 5,15.5 V 14 h 6 v 1.5 a 0.5,0.5 0 0 0 0.5,0.5 h 2 A 0.5,0.5 0 0 0 14,15.5 v -2 c 0.607,-0.456 1,-1.182 1,-2 z M 8,1 c 2.056,0 3.71,0.134 4.822,0.261 C 13.498,1.339 14,1.921 14,2.64 V 11.5 A 1.5,1.5 0 0 1 12.5,13 h -9 A 1.5,1.5 0 0 1 2,11.5 V 2.64 C 2,1.92 2.502,1.339 3.178,1.261 A 43,43 0 0 1 8,1"
         id="path2" /></g><g
       style="fill:currentColor"
       id="g8"
       transform="matrix(5.8090461,0,0,5.8090461,292.90159,14.55235)"><path
         d="m 5,11 a 1,1 0 1 1 -2,0 1,1 0 0 1 2,0 m 8,0 a 1,1 0 1 1 -2,0 1,1 0 0 1 2,0 M 7,10 a 1,1 0 1 0 0,2 H 9 A 1,1 0 1 0 9,10 Z M 4,2 A 1,1 0 0 0 3,3 V 6.9 C 3,7.525 3.562,7.992 4.17,7.894 5.075,7.747 6.792,7.5 8,7.5 c 1.208,0 2.925,0.247 3.83,0.394 A 1.008,1.008 0 0 0 13,6.9 V 3 A 1,1 0 0 0 12,2 Z m 0,1 h 8 v 3.9 q 0,0.002 0,0 L 11.998,6.904 11.993,6.906 H 11.989 C 11.088,6.761 9.299,6.5 8,6.5 6.701,6.5 4.912,6.76 4.01,6.906 H 4.007 L 4.002,6.904 4,6.9 q 0,0.002 0,0 z"
         id="path1-9" /><path
         d="M 1,2.5 A 2.5,2.5 0 0 1 3.5,0 h 9 A 2.5,2.5 0 0 1 15,2.5 v 9 c 0,0.818 -0.393,1.544 -1,2 v 2 A 0.5,0.5 0 0 1 13.5,16 h -2 A 0.5,0.5 0 0 1 11,15.5 V 14 H 5 v 1.5 A 0.5,0.5 0 0 1 4.5,16 h -2 A 0.5,0.5 0 0 1 2,15.5 v -2 a 2.5,2.5 0 0 1 -1,-2 z M 3.5,1 A 1.5,1.5 0 0 0 2,2.5 v 9 A 1.5,1.5 0 0 0 3.5,13 h 9 A 1.5,1.5 0 0 0 14,11.5 v -9 A 1.5,1.5 0 0 0 12.5,1 Z"
         id="path2-1" /></g><g
       style="fill:currentColor"
       id="g9"
       transform="matrix(6.3130127,0,0,6.3130127,384.8764,128.35965)"><path
         d="m 6.5,0 a 0.5,0.5 0 0 0 0,1 h 1 V 2.011 C 5.975,2.075 4.154,2.405 2.912,2.666 1.775,2.904 1,3.915 1,5.055 V 13.5 A 2.5,2.5 0 0 0 3.5,16 h 9 A 2.5,2.5 0 0 0 15,13.5 V 5.055 C 15,3.915 14.225,2.905 13.088,2.665 11.846,2.405 10.025,2.075 8.5,2.011 V 1 h 1 a 0.5,0.5 0 0 0 0,-1 z M 8,3 C 9.497,3 11.505,3.356 12.883,3.644 13.536,3.781 14,4.366 14,5.055 V 13.5 a 1.5,1.5 0 0 1 -1.072,1.438 76,76 0 0 1 -0.1,-0.792 c -0.092,-0.761 -0.2,-1.752 -0.266,-2.682 A 21,21 0 0 1 12.5,10 c 0,-1.051 0.143,-2.404 0.278,-3.435 l 0.07,-0.522 C 12.96,5.245 12.428,4.472 11.604,4.346 10.644,4.199 9.136,4 8,4 6.864,4 5.355,4.2 4.396,4.346 3.571,4.472 3.04,5.246 3.152,6.043 q 0.034,0.24 0.07,0.522 C 3.357,7.596 3.5,8.949 3.5,10 c 0,0.428 -0.024,0.933 -0.062,1.464 a 57,57 0 0 1 -0.266,2.682 c -0.038,0.31 -0.072,0.58 -0.1,0.792 A 1.5,1.5 0 0 1 2,13.5 V 5.055 C 2,4.365 2.464,3.781 3.117,3.645 4.495,3.354 6.503,3 8,3 m 3.835,11.266 c 0.034,0.28 0.066,0.53 0.093,0.734 H 4.072 A 63,63 0 0 0 4.4,12 h 2.246 c 0.36,0 0.704,-0.143 0.958,-0.396 A 0.35,0.35 0 0 1 7.854,11.5 h 0.292 a 0.35,0.35 0 0 1 0.25,0.104 C 8.65,11.857 8.995,12 9.354,12 H 11.6 c 0.068,0.808 0.158,1.621 0.236,2.266 z M 6,13.5 a 0.5,0.5 0 1 1 -1,0 0.5,0.5 0 0 1 1,0 m 0,0 a 0.5,0.5 0 1 1 1,0 0.5,0.5 0 0 1 -1,0 M 9.5,14 a 0.5,0.5 0 0 0 0.5,-0.5 0.5,0.5 0 1 0 1,0 0.5,0.5 0 0 0 -1,0 A 0.5,0.5 0 1 0 9.5,14 M 4.47,11 C 4.489,10.647 4.5,10.308 4.5,10 4.5,9.073 4.396,7.949 4.284,7 h 7.432 C 11.604,7.949 11.5,9.073 11.5,10 c 0,0.308 0.011,0.647 0.03,1 H 9.354 A 0.35,0.35 0 0 1 9.104,10.896 1.35,1.35 0 0 0 8.146,10.5 H 7.854 c -0.36,0 -0.704,0.143 -0.958,0.396 A 0.35,0.35 0 0 1 6.646,11 Z M 4.155,6 4.142,5.904 A 0.497,0.497 0 0 1 4.547,5.334 C 5.505,5.188 6.947,5 8,5 c 1.053,0 2.495,0.188 3.453,0.334 a 0.497,0.497 0 0 1 0.405,0.57 L 11.845,6 Z"
         id="path1-93" /></g><g
       style="fill:currentColor"
       id="g10"
       transform="matrix(6.3317711,0,0,6.3317711,256.22907,114.66471)"><path
         d="M 4.862,5.276 3.906,7.19 A 0.51,0.51 0 0 0 4.403,7.921 C 5.313,7.848 6.753,7.751 8,7.751 c 1.247,0 2.688,0.097 3.597,0.17 A 0.51,0.51 0 0 0 12.094,7.19 L 11.138,5.277 A 0.5,0.5 0 0 0 10.691,5 H 5.309 A 0.5,0.5 0 0 0 4.862,5.276 M 4,10 a 1,1 0 1 1 -2,0 1,1 0 0 1 2,0 m 10,0 a 1,1 0 1 1 -2,0 1,1 0 0 1 2,0 M 5,10 A 1,1 0 0 1 6,9 h 4 a 1,1 0 1 1 0,2 H 6 A 1,1 0 0 1 5,10"
         id="path1-60" /><path
         d="M 6,1 A 1,1 0 0 0 5,2 V 3 H 4.819 A 2.5,2.5 0 0 0 2.52,4.515 L 1.728,6.363 A 0.8,0.8 0 0 1 1.348,6.767 C 0.848,7.017 0.493,7.482 0.383,8.029 L 0.05,9.708 a 2.5,2.5 0 0 0 -0.049,0.49 v 0.413 c 0,0.814 0.39,1.543 1,1.997 V 14.5 a 0.5,0.5 0 0 0 0.5,0.5 h 2 a 0.5,0.5 0 0 0 0.5,-0.5 v -1.338 c 1.292,0.048 2.745,0.088 4,0.088 1.255,0 2.708,-0.04 4,-0.088 V 14.5 a 0.5,0.5 0 0 0 0.5,0.5 h 2 a 0.5,0.5 0 0 0 0.5,-0.5 v -1.892 c 0.61,-0.454 1,-1.183 1,-1.997 v -0.413 q 0,-0.248 -0.049,-0.49 L 15.617,8.028 A 1.8,1.8 0 0 0 14.653,6.767 0.8,0.8 0 0 1 14.272,6.363 L 13.48,4.515 A 2.5,2.5 0 0 0 11.181,3 H 11 V 2 A 1,1 0 0 0 10,1 Z M 4.819,4 h 6.362 a 1.5,1.5 0 0 1 1.379,0.91 l 0.792,1.847 a 1.8,1.8 0 0 0 0.853,0.904 c 0.222,0.112 0.381,0.32 0.43,0.564 l 0.336,1.679 q 0.03,0.146 0.029,0.294 v 0.413 a 1.48,1.48 0 0 1 -1.408,1.484 C 12.037,12.165 9.806,12.25 8,12.25 6.194,12.25 3.963,12.166 2.408,12.095 A 1.48,1.48 0 0 1 1,10.611 V 10.198 Q 1,10.05 1.03,9.904 L 1.365,8.224 A 0.8,0.8 0 0 1 1.795,7.661 C 2.178,7.471 2.48,7.15 2.648,6.757 L 3.44,4.909 A 1.5,1.5 0 0 1 4.82,4 Z"
         id="path2-6" /></g></g></svg>
