<?xml version="1.0" encoding="UTF-8"?>
<svg viewBox="0 0 231.06 39.688" xmlns="http://www.w3.org/2000/svg">
  <g transform="translate(-29.007 -24.168)">
    <g stroke-width=".26458">
      <path d="m41.919 24.168-3.175 6.0854-3.5983 6.9321-0.84667 1.6404v-14.658h-5.2917v39.688h5.2917v-13.547l2.8575-5.5563 5.2388 19.103h5.4504l-7.0908-26.035 7.0908-13.653z"/>
      <path d="m55.174 24.168h-5.2917v39.688h15.875v-39.688h-5.2917zm0 34.396v-29.104h5.2917v29.104z"/>
      <path d="m73.086 24.168h-5.2917v39.688h13.229v-5.2917h-7.9375z"/>
      <path d="m88.353 24.168h-5.2917v39.688h13.229v-5.2917h-7.9375z"/>
      <path d="m114.2 29.46v-5.2917h-15.875v5.2917h5.2917v29.104h-5.2917v5.2917h15.875v-5.2917h-5.2917v-29.104h1.5346z"/>
      <path d="m125.5 24.168h-9.2604v5.2917h3.9688v34.396h5.2917v-34.396h3.9688v-5.2917z"/>
      <path d="m147.38 38.773v-14.605h-15.875v15.928c0 0.89958 0.37042 1.6404 1.0583 2.1167l9.525 7.0379v9.3133h-5.2917v-9.3133l-5.2917-3.9158v18.521h15.875v-15.822c0-0.89958-0.37041-1.5875-1.0583-2.1167l-9.525-7.1438v-9.3133h5.2917v9.3133z"/>
      <path d="m149.42 24.168v39.688h15.875v-14.605h-5.2917v9.3133h-5.2917v-29.104h5.2917v9.3133h5.2917v-14.605h-5.2917z"/>
      <path d="m177.91 41.366h-5.2917v-17.198h-5.2917v39.688h5.2917v-17.198h5.2917v17.198h5.2917v-39.688h-5.2917z"/>
      <path d="m190.53 58.564h-5.2917v5.2917h5.2917z"/>
      <path d="m192.57 63.855h7.9375c4.3921 0 7.9375-3.5454 7.9375-7.9375v-23.813c0-4.3921-3.5454-7.9375-7.9375-7.9375h-7.9375zm7.9375-34.396c1.4817 0 2.6458 1.1642 2.6458 2.6458v23.813c0 1.4817-1.1642 2.6458-2.6458 2.6458h-2.6458v-29.104z"/>
      <path d="m223.71 24.168h-13.229v39.688h13.229v-5.2917h-7.9375v-14.499h7.9375v-5.2917h-7.9375v-9.3133h7.9375z"/>
      <path d="m233.69 24.168v5.2917h2.1167l-2.8046 29.104h-1.9579v-34.396h-5.2917v39.688h12.065l3.81-39.688h-5.3446z"/>
      <path d="m257.42 25.808-2.9104 1.6933v-3.3338h-5.2917v3.3338l-2.9104-1.6933-2.6458 4.6038 2.9104 1.6933-2.9104 1.6404 2.6458 4.6038 2.9104-1.6933v3.3867h5.2917v-3.3867l2.9104 1.6933 2.6458-4.6038-2.9104-1.6404 2.9104-1.6933z"/>
    </g>
  </g>
</svg>
