<?xml version="1.0" encoding="UTF-8"?>
<svg xmlns="http://www.w3.org/2000/svg" xmlns:xlink="http://www.w3.org/1999/xlink" version="1.2" >
<font id="Tomkin Condense Regular">
<font-face  font-family="Tomkin Condense" units-per-em="1000" ascent="750" descent="-250" font-style="normal" font-weight="400" font-stretch="normal" cap-height="700" x-height="515" underline-position="-91" underline-thickness="35" />
<missing-glyph  horiz-adv-x="569" d="" />
<glyph glyph-name="space" unicode="&#x20;" horiz-adv-x="182" d="" />
<glyph glyph-name="exclam" unicode="&#x21;" horiz-adv-x="261" d="M96 189 C97 181 101 176 109 176 L152 176 C160 176 164 181 165 189 L178 301 L178 687 C178 695 173 700 165 700 L96 700 C88 700 83 695 83 687 L83 301 L96 189 Z M80 13 C80 5 85 0 93 0 L168 0 C176 0 181 5 181 13 L181 93 C181 101 176 106 168 106 L93 106 C85 106 80 101 80 93 L80 13 Z " />
<glyph glyph-name="quotedbl" unicode="&#x22;" horiz-adv-x="429" d="M89 487 C89 479 94 474 102 474 L146 474 C154 474 159 479 159 487 L168 598 L168 687 C168 695 163 700 155 700 L93 700 C85 700 80 695 80 687 L80 598 L89 487 Z M270 487 C270 479 275 474 283 474 L327 474 C335 474 340 479 340 487 L349 598 L349 687 C349 695 344 700 336 700 L274 700 C266 700 261 695 261 687 L261 598 L270 487 Z " />
<glyph glyph-name="numbersign" unicode="&#x23;" horiz-adv-x="797" d="M354 13 C354 5 359 0 367 0 L440 0 C448 0 451 5 454 13 L496 147 L584 147 C592 147 597 152 597 160 L597 219 C597 227 592 232 584 232 L523 232 L596 463 L704 463 C712 463 717 468 717 476 L717 535 C717 543 712 548 704 548 L623 548 L667 687 C667 695 662 700 654 700 L581 700 C573 700 570 695 567 687 L523 548 L403 548 L447 687 C447 695 442 700 434 700 L361 700 C353 700 350 695 347 687 L303 548 L213 548 C205 548 200 543 200 535 L200 476 C200 468 205 463 213 463 L276 463 L203 232 L93 232 C85 232 80 227 80 219 L80 160 C80 152 85 147 93 147 L176 147 L134 13 C134 5 139 0 147 0 L220 0 C228 0 231 5 234 13 L276 147 L396 147 L354 13 Z M376 463 L496 463 L423 232 L303 232 L376 463 Z " />
<glyph glyph-name="dollar" unicode="&#x24;" horiz-adv-x="568" d="M175 509 L175 535 C175 581 203 620 245 620 L313 620 C355 620 383 581 383 535 L383 518 C383 510 388 505 396 505 L465 505 C473 505 478 510 478 518 L478 545 C478 631 414 702 325 705 L325 819 C325 827 320 832 312 832 L243 832 C235 832 230 827 230 819 L230 705 C143 701 80 630 80 545 L80 522 C80 228 393 381 393 184 L393 165 C393 117 363 80 321 80 L245 80 C203 80 175 119 175 165 L175 182 C175 190 170 195 162 195 L93 195 C85 195 80 190 80 182 L80 155 C80 69 143 -1 230 -5 L230 -124 C230 -132 235 -137 243 -137 L312 -137 C320 -137 325 -132 325 -124 L325 -5 L330 -5 C423 -5 488 67 488 155 L488 172 C488 464 175 314 175 509 L175 509 Z " />
<glyph glyph-name="percent" unicode="&#x25;" horiz-adv-x="786" d="M204 13 C204 5 209 0 217 0 L289 0 C297 0 301 5 304 13 L589 687 C589 695 584 700 576 700 L504 700 C496 700 492 695 489 687 L204 13 Z M201 700 C134 700 80 645 80 579 C80 512 134 457 201 457 C268 457 324 512 324 579 C324 645 268 700 201 700 L201 700 Z M201 528 C172 528 150 553 150 579 C150 608 172 630 201 630 C227 630 252 608 252 579 C252 553 227 528 201 528 L201 528 Z M583 243 C516 243 462 188 462 122 C462 55 516 0 583 0 C650 0 706 55 706 122 C706 188 650 243 583 243 L583 243 Z M583 71 C554 71 532 96 532 122 C532 151 554 173 583 173 C609 173 634 151 634 122 C634 96 609 71 583 71 L583 71 Z " />
<glyph glyph-name="ampersand" unicode="&#x26;" horiz-adv-x="613" d="M383 308 L383 85 L246 85 C204 85 175 122 175 170 L175 223 C175 269 204 308 246 308 L383 308 Z M277 393 C235 393 206 430 206 478 L206 536 C206 582 235 621 277 621 L313 621 C356 621 384 582 384 536 L384 525 C384 517 389 512 397 512 L466 512 C474 512 479 517 479 525 L479 545 C479 633 412 705 321 705 L269 705 C176 705 111 633 111 545 L111 471 C111 437 130 391 171 363 C105 323 80 276 80 229 L80 161 C80 72 147 0 238 0 L466 0 C474 0 479 5 479 13 L479 308 L545 308 C553 308 558 313 558 321 L558 380 C558 388 553 393 545 393 L277 393 Z " />
<glyph glyph-name="quotesingle" unicode="&#x27;" horiz-adv-x="248" d="M89 487 C89 479 94 474 102 474 L146 474 C154 474 159 479 159 487 L168 598 L168 687 C168 695 163 700 155 700 L93 700 C85 700 80 695 80 687 L80 598 L89 487 Z " />
<glyph glyph-name="parenleft" unicode="&#x28;" horiz-adv-x="304" d="M175 311 C175 465 193 638 224 792 C224 800 219 805 211 805 L142 805 C134 805 131 800 129 792 C95 633 80 468 80 311 C80 154 95 -6 129 -165 C131 -173 134 -178 142 -178 L211 -178 C219 -178 224 -173 224 -165 C193 -11 175 157 175 311 L175 311 Z " />
<glyph glyph-name="parenright" unicode="&#x29;" horiz-adv-x="304" d="M129 311 C129 157 111 -11 80 -165 C80 -173 85 -178 93 -178 L162 -178 C170 -178 173 -173 175 -165 C209 -6 224 154 224 311 C224 468 209 633 175 792 C173 800 170 805 162 805 L93 805 C85 805 80 800 80 792 C111 638 129 465 129 311 L129 311 Z " />
<glyph glyph-name="asterisk" unicode="&#x2a;" horiz-adv-x="484" d="M286 594 L286 687 C286 694 281 700 273 700 L212 700 C204 700 199 694 199 687 L199 594 L134 636 C131 638 129 638 126 638 C123 638 118 637 116 633 L83 583 C81 580 80 577 80 575 C80 571 81 568 85 565 L171 507 L104 430 C102 427 100 425 100 422 C100 417 104 414 106 412 L152 372 C154 370 158 369 160 369 C164 369 168 371 170 373 L242 457 L314 373 C316 371 320 369 324 369 C326 369 330 370 332 372 L378 412 C380 414 384 417 384 422 C384 425 382 427 380 430 L313 507 L399 565 C403 568 404 571 404 575 C404 577 403 580 401 583 L368 633 C366 637 361 638 358 638 C355 638 353 638 350 636 L286 594 Z " />
<glyph glyph-name="plus" unicode="&#x2b;" horiz-adv-x="400" d="M153 84 C153 76 158 71 166 71 L235 71 C243 71 248 76 248 84 L248 197 L307 197 C315 197 320 202 320 210 L320 269 C320 277 315 282 307 282 L248 282 L248 396 C248 404 243 409 235 409 L166 409 C158 409 153 404 153 396 L153 282 L93 282 C85 282 80 277 80 269 L80 210 C80 202 85 197 93 197 L153 197 L153 84 Z " />
<glyph glyph-name="comma" unicode="&#x2c;" horiz-adv-x="308" d="M159 -94 C168 -94 173 -88 177 -80 L228 63 C228 72 222 77 214 77 L149 77 C140 77 135 71 131 63 L80 -80 C80 -89 85 -94 94 -94 L159 -94 Z " />
<glyph glyph-name="hyphen" unicode="&#x2d;" horiz-adv-x="354" d="M93 282 C85 282 80 277 80 269 L80 210 C80 202 85 197 93 197 L261 197 C269 197 274 202 274 210 L274 269 C274 277 269 282 261 282 L93 282 Z " />
<glyph glyph-name="period" unicode="&#x2e;" horiz-adv-x="261" d="M80 10 C80 1 86 -5 95 -5 L166 -5 C175 -5 181 1 181 10 L181 87 C181 96 175 102 166 102 L95 102 C86 102 80 96 80 87 L80 10 Z " />
<glyph glyph-name="slash" unicode="&#x2f;" horiz-adv-x="567" d="M80 -166 C80 -174 85 -179 93 -179 L166 -179 C174 -179 177 -174 180 -166 L487 791 C487 799 482 804 474 804 L401 804 C393 804 390 799 387 791 L80 -166 Z " />
<glyph glyph-name="zero" unicode="0" horiz-adv-x="547" d="M228 705 C135 705 70 633 70 545 L70 155 C70 67 135 -5 228 -5 L319 -5 C412 -5 477 67 477 155 L477 545 C477 633 412 705 319 705 L228 705 Z M237 80 C195 80 165 117 165 165 L165 535 C165 581 195 620 237 620 L310 620 C352 620 382 581 382 535 L382 165 C382 117 352 80 310 80 L237 80 Z " />
<glyph glyph-name="one" unicode="1" horiz-adv-x="500" d="M68 644 C63 642 60 638 60 632 L60 567 C60 559 65 554 73 554 L230 615 L230 85 L105 85 C97 85 92 80 92 72 L92 13 C92 5 97 0 105 0 L452 0 C460 0 465 5 465 13 L465 72 C465 80 460 85 452 85 L325 85 L325 687 C325 695 320 700 312 700 L211 700 L68 644 Z " />
<glyph glyph-name="two" unicode="2" horiz-adv-x="519" d="M61 518 C61 510 66 505 74 505 L143 505 C151 505 156 510 156 518 L156 535 C156 581 186 620 228 620 L293 620 C335 620 364 581 364 535 L364 480 C364 284 60 436 60 142 L60 13 C60 5 65 0 73 0 L445 0 C453 0 458 5 458 13 L458 72 C458 80 453 85 445 85 L155 85 L155 153 C155 350 459 198 459 492 L459 545 C459 633 393 705 300 705 L217 705 C126 705 61 633 61 545 L61 518 Z " />
<glyph glyph-name="three" unicode="3" horiz-adv-x="527" d="M296 309 C338 309 367 273 367 224 L367 165 C367 119 338 80 296 80 L232 80 C190 80 160 119 160 165 L160 183 C160 191 155 196 147 196 L78 196 C70 196 65 191 65 183 L65 155 C65 67 131 -5 224 -5 L305 -5 C398 -5 462 67 462 155 L462 231 C462 270 431 324 393 350 C431 376 462 430 462 469 L462 545 C462 633 398 705 305 705 L224 705 C131 705 65 633 65 545 L65 517 C65 509 70 504 78 504 L147 504 C155 504 160 509 160 517 L160 535 C160 581 190 620 232 620 L296 620 C338 620 367 581 367 535 L367 479 C367 430 338 394 296 394 L240 394 C232 394 227 389 227 381 L227 322 C227 314 232 309 240 309 L296 309 Z " />
<glyph glyph-name="four" unicode="4" horiz-adv-x="527" d="M40 211 L40 166 C40 158 45 153 53 153 L323 153 L323 13 C323 5 328 0 336 0 L405 0 C413 0 418 5 418 13 L418 153 L474 153 C482 153 487 158 487 166 L487 225 C487 233 482 238 474 238 L418 238 L418 430 C418 438 413 443 405 443 L336 443 C328 443 323 438 323 430 L323 238 L156 238 L354 687 C354 695 349 700 341 700 L269 700 C261 700 256 695 253 687 L40 211 Z " />
<glyph glyph-name="five" unicode="5" horiz-adv-x="537" d="M70 155 C70 67 145 -5 238 -5 L309 -5 C402 -5 477 67 477 155 L477 264 C477 351 402 423 309 423 L246 423 C231 423 196 423 165 397 L165 615 L415 615 C423 615 428 620 428 628 L428 687 C428 695 423 700 415 700 L83 700 C75 700 70 695 70 687 L70 315 C70 307 75 302 83 302 L156 302 C164 302 167 308 172 315 C186 333 212 340 230 340 L300 340 C342 340 381 301 381 255 L381 165 C381 117 342 80 300 80 L247 80 C205 80 165 117 165 165 L165 177 C165 185 160 190 152 190 L83 190 C75 190 70 185 70 177 L70 155 Z " />
<glyph glyph-name="six" unicode="6" horiz-adv-x="538" d="M236 80 C194 80 165 118 165 164 L165 260 C165 308 194 345 236 345 L311 345 C354 345 383 308 383 260 L383 164 C383 118 354 80 311 80 L236 80 Z M372 526 C372 518 377 513 385 513 L454 513 C462 513 467 518 467 526 L467 545 C467 633 401 705 308 705 L228 705 C135 705 70 633 70 545 L70 155 C70 67 135 -5 228 -5 L321 -5 C412 -5 478 67 478 155 L478 271 C478 358 412 430 321 430 L235 430 C222 430 204 430 165 401 L165 536 C165 584 194 620 236 620 L300 620 C342 620 372 584 372 536 L372 526 Z " />
<glyph glyph-name="seven" unicode="7" horiz-adv-x="456" d="M130 13 C130 5 135 0 143 0 L212 0 C220 0 225 5 225 13 C252 207 290 412 411 600 L411 687 C411 695 406 700 398 700 L58 700 C50 700 45 695 45 687 L45 628 C45 620 50 615 58 615 L323 615 C192 417 158 197 130 13 L130 13 Z " />
<glyph glyph-name="eight" unicode="8" horiz-adv-x="539" d="M301 705 L239 705 C146 705 81 633 81 545 L81 466 C81 432 101 390 143 357 C84 320 65 273 65 230 L65 155 C65 67 130 -5 221 -5 L318 -5 C409 -5 474 67 474 155 L474 230 C474 273 455 320 396 357 C438 390 458 432 458 466 L458 545 C458 633 393 705 301 705 L301 705 Z M232 80 C189 80 160 117 160 165 L160 220 C160 268 189 305 232 305 L306 305 C350 305 379 268 379 220 L379 165 C379 117 350 80 307 80 L232 80 Z M292 620 C334 620 363 582 363 536 L363 475 C363 427 334 390 292 390 L247 390 C205 390 176 427 176 475 L176 536 C176 582 205 620 247 620 L292 620 Z " />
<glyph glyph-name="nine" unicode="9" horiz-adv-x="538" d="M302 620 C344 620 373 582 373 536 L373 440 C373 392 344 355 302 355 L227 355 C184 355 155 392 155 440 L155 536 C155 582 184 620 227 620 L302 620 Z M166 174 C166 182 161 187 153 187 L84 187 C76 187 71 182 71 174 L71 155 C71 67 137 -5 230 -5 L310 -5 C403 -5 468 67 468 155 L468 545 C468 633 403 705 310 705 L217 705 C126 705 60 633 60 545 L60 429 C60 342 126 270 217 270 L303 270 C316 270 334 270 373 299 L373 164 C373 116 344 80 302 80 L238 80 C196 80 166 116 166 164 L166 174 Z " />
<glyph glyph-name="colon" unicode="&#x3a;" horiz-adv-x="261" d="M80 10 C80 1 86 -5 95 -5 L166 -5 C175 -5 181 1 181 10 L181 87 C181 96 175 102 166 102 L95 102 C86 102 80 96 80 87 L80 10 Z M80 327 C80 318 86 312 95 312 L166 312 C175 312 181 318 181 327 L181 404 C181 413 175 419 166 419 L95 419 C86 419 80 413 80 404 L80 327 Z " />
<glyph glyph-name="semicolon" unicode="&#x3b;" horiz-adv-x="309" d="M128 327 C128 318 134 312 143 312 L214 312 C223 312 229 318 229 327 L229 404 C229 413 223 419 214 419 L143 419 C134 419 128 413 128 404 L128 327 Z M159 -94 C168 -94 173 -88 177 -80 L228 63 C228 72 222 77 214 77 L149 77 C140 77 135 71 131 63 L80 -80 C80 -89 85 -94 94 -94 L159 -94 Z " />
<glyph glyph-name="less" unicode="&#x3c;" horiz-adv-x="354" d="M80 175 C80 166 86 160 94 158 L262 97 C268 97 274 101 274 109 L274 171 C274 180 268 184 262 187 L158 225 L158 232 L262 270 C268 273 274 277 274 286 L274 348 C274 356 268 360 262 360 L94 299 C86 297 80 291 80 282 L80 175 Z " />
<glyph glyph-name="equal" unicode="&#x3d;" horiz-adv-x="354" d="M93 376 C85 376 80 371 80 363 L80 304 C80 296 85 291 93 291 L261 291 C269 291 274 296 274 304 L274 363 C274 371 269 376 261 376 L93 376 Z M93 186 C85 186 80 181 80 173 L80 114 C80 106 85 101 93 101 L261 101 C269 101 274 106 274 114 L274 173 C274 181 269 186 261 186 L93 186 Z " />
<glyph glyph-name="greater" unicode="&#x3e;" horiz-adv-x="354" d="M274 282 C274 291 268 297 260 299 L92 360 C86 360 80 356 80 348 L80 286 C80 277 86 273 92 270 L196 232 L196 225 L92 187 C86 184 80 180 80 171 L80 109 C80 101 86 97 92 97 L260 158 C268 160 274 166 274 175 L274 282 Z " />
<glyph glyph-name="question" unicode="&#x3f;" horiz-adv-x="558" d="M193 186 C193 178 198 173 206 173 L275 173 C283 173 288 178 288 186 L288 194 C288 281 333 296 382 313 C435 331 478 356 478 501 L478 545 C478 633 412 705 319 705 L236 705 C145 705 80 633 80 545 L80 492 C80 484 85 479 93 479 L162 479 C170 479 175 484 175 492 L175 535 C175 581 205 620 247 620 L312 620 C354 620 383 581 383 535 L383 501 C383 414 354 398 305 381 C251 362 193 341 193 198 L193 186 Z M190 13 C190 5 195 0 203 0 L278 0 C286 0 291 5 291 13 L291 93 C291 101 286 106 278 106 L203 106 C195 106 190 101 190 93 L190 13 Z " />
<glyph glyph-name="at" unicode="&#x40;" horiz-adv-x="711" d="M631 539 C631 628 556 700 464 700 L250 700 C157 700 80 628 80 539 L80 41 C80 -47 156 -118 248 -118 L465 -118 C473 -118 478 -113 478 -105 L478 -46 C478 -38 473 -33 465 -33 L256 -33 C214 -33 175 4 175 52 L175 530 C175 575 216 615 258 615 L454 615 C497 615 536 575 536 530 L536 458 L528 458 C506 489 466 495 446 495 L415 495 C328 495 285 432 285 347 L285 213 C285 128 328 65 415 65 L446 65 C466 65 506 71 528 102 L536 102 L536 83 C536 75 541 70 549 70 L618 70 C626 70 631 75 631 83 L631 539 Z M536 216 C536 181 512 150 479 150 L437 150 C403 150 380 181 380 216 L380 344 C380 379 403 410 437 410 L479 410 C512 410 536 379 536 344 L536 216 Z " />
<glyph glyph-name="A" unicode="A" horiz-adv-x="556" d="M232 700 C224 700 221 695 219 687 L35 13 C35 5 40 0 48 0 L121 0 C129 0 132 5 135 13 L164 125 L391 125 L421 13 C424 5 427 0 435 0 L508 0 C516 0 521 5 521 13 L337 687 C335 695 332 700 324 700 L232 700 Z M273 542 L283 542 L369 210 L186 210 L273 542 Z " />
<glyph glyph-name="B" unicode="B" horiz-adv-x="528" d="M310 0 C403 0 478 72 478 161 L478 229 C478 277 458 325 399 364 C428 388 447 439 447 471 L447 539 C447 628 372 700 279 700 L93 700 C85 700 80 695 80 687 L80 13 C80 5 85 0 93 0 L310 0 Z M175 393 L175 616 L270 616 C312 616 352 576 352 531 L352 478 C352 430 312 393 270 393 L175 393 Z M302 308 C344 308 383 269 383 223 L383 169 C383 121 344 84 302 84 L175 84 L175 308 L302 308 Z " />
<glyph glyph-name="C" unicode="C" horiz-adv-x="532" d="M382 165 C382 117 352 80 310 80 L237 80 C195 80 165 117 165 165 L165 535 C165 581 195 620 237 620 L310 620 C352 620 382 581 382 535 L382 502 C382 494 387 489 395 489 L464 489 C472 489 477 494 477 502 L477 545 C477 633 412 705 319 705 L228 705 C135 705 70 633 70 545 L70 155 C70 67 135 -5 228 -5 L319 -5 C412 -5 477 67 477 155 L477 193 C477 201 472 206 464 206 L395 206 C387 206 382 201 382 193 L382 165 Z " />
<glyph glyph-name="D" unicode="D" horiz-adv-x="557" d="M310 615 C353 615 392 575 392 530 L392 170 C392 122 353 85 310 85 L175 85 L175 615 L310 615 Z M320 0 C412 0 487 72 487 161 L487 539 C487 628 412 700 320 700 L93 700 C85 700 80 695 80 687 L80 13 C80 5 85 0 93 0 L320 0 Z " />
<glyph glyph-name="E" unicode="E" horiz-adv-x="481" d="M80 13 C80 5 85 0 93 0 L398 0 C406 0 411 5 411 13 L411 72 C411 80 406 85 398 85 L175 85 L175 293 L374 293 C382 293 387 298 387 306 L387 365 C387 373 382 378 374 378 L175 378 L175 615 L398 615 C406 615 411 620 411 628 L411 687 C411 695 406 700 398 700 L93 700 C85 700 80 695 80 687 L80 13 Z " />
<glyph glyph-name="F" unicode="F" horiz-adv-x="451" d="M398 700 L93 700 C85 700 80 695 80 687 L80 13 C80 5 85 0 93 0 L162 0 C170 0 175 5 175 13 L175 293 L374 293 C382 293 387 298 387 306 L387 365 C387 373 382 378 374 378 L175 378 L175 615 L398 615 C406 615 411 620 411 628 L411 687 C411 695 406 700 398 700 L398 700 Z " />
<glyph glyph-name="G" unicode="G" horiz-adv-x="547" d="M477 371 C477 379 472 384 464 384 L279 384 C271 384 266 379 266 371 L266 312 C266 304 271 299 279 299 L382 299 L382 165 C382 117 352 80 310 80 L237 80 C195 80 165 117 165 165 L165 535 C165 581 195 620 237 620 L310 620 C352 620 382 581 382 535 L382 502 C382 494 387 489 395 489 L464 489 C472 489 477 494 477 502 L477 545 C477 633 412 705 319 705 L228 705 C135 705 70 633 70 545 L70 155 C70 67 135 -5 228 -5 L319 -5 C412 -5 477 67 477 155 L477 371 Z " />
<glyph glyph-name="H" unicode="H" horiz-adv-x="560" d="M385 13 C385 5 390 0 398 0 L467 0 C475 0 480 5 480 13 L480 687 C480 695 475 700 467 700 L398 700 C390 700 385 695 385 687 L385 381 L175 381 L175 687 C175 695 170 700 162 700 L93 700 C85 700 80 695 80 687 L80 13 C80 5 85 0 93 0 L162 0 C170 0 175 5 175 13 L175 296 L385 296 L385 13 Z " />
<glyph glyph-name="I" unicode="I" horiz-adv-x="255" d="M80 13 C80 5 85 0 93 0 L162 0 C170 0 175 5 175 13 L175 687 C175 695 170 700 162 700 L93 700 C85 700 80 695 80 687 L80 13 Z " />
<glyph glyph-name="J" unicode="J" horiz-adv-x="394" d="M77 109 C74 111 71 112 68 112 C64 112 62 111 58 109 L14 68 C11 65 10 62 10 58 C10 55 11 53 14 50 C41 25 73 -5 154 -5 C289 -5 334 78 334 165 L334 687 C334 695 329 700 321 700 L252 700 C244 700 239 695 239 687 L239 168 C239 157 239 80 153 80 C117 80 105 87 77 109 L77 109 Z " />
<glyph glyph-name="K" unicode="K" horiz-adv-x="520" d="M383 13 C386 6 390 0 398 0 L466 0 C474 0 479 5 479 13 L377 348 L479 687 C479 695 474 700 466 700 L399 700 C391 700 387 694 384 687 L294 392 L175 392 L175 687 C175 695 170 700 162 700 L93 700 C85 700 80 695 80 687 L80 13 C80 5 85 0 93 0 L162 0 C170 0 175 5 175 13 L175 307 L293 307 L383 13 Z " />
<glyph glyph-name="L" unicode="L" horiz-adv-x="451" d="M398 0 C406 0 411 5 411 13 L411 72 C411 80 406 85 398 85 L175 85 L175 687 C175 695 170 700 162 700 L93 700 C85 700 80 695 80 687 L80 13 C80 5 85 0 93 0 L398 0 Z " />
<glyph glyph-name="M" unicode="M" horiz-adv-x="726" d="M391 103 C398 103 403 107 405 113 L538 474 L551 474 L551 13 C551 5 556 0 564 0 L633 0 C641 0 646 5 646 13 L646 687 C646 695 641 700 633 700 L530 700 C522 700 516 694 513 687 L367 284 L359 284 L213 687 C210 694 204 700 196 700 L93 700 C85 700 80 695 80 687 L80 13 C80 5 85 0 93 0 L162 0 C170 0 175 5 175 13 L175 474 L188 474 L321 113 C323 107 328 103 335 103 L391 103 Z " />
<glyph glyph-name="N" unicode="N" horiz-adv-x="597" d="M380 13 C384 6 390 0 398 0 L504 0 C512 0 517 5 517 13 L517 687 C517 695 512 700 504 700 L435 700 C427 700 422 695 422 687 L422 191 L412 191 L217 687 C213 694 207 700 199 700 L93 700 C85 700 80 695 80 687 L80 13 C80 5 85 0 93 0 L162 0 C170 0 175 5 175 13 L175 511 L186 511 L380 13 Z " />
<glyph glyph-name="O" unicode="O" horiz-adv-x="547" d="M228 705 C135 705 70 633 70 545 L70 155 C70 67 135 -5 228 -5 L319 -5 C412 -5 477 67 477 155 L477 545 C477 633 412 705 319 705 L228 705 Z M237 80 C195 80 165 117 165 165 L165 535 C165 581 195 620 237 620 L310 620 C352 620 382 581 382 535 L382 165 C382 117 352 80 310 80 L237 80 Z " />
<glyph glyph-name="P" unicode="P" horiz-adv-x="538" d="M175 302 L175 615 L302 615 C344 615 383 575 383 530 L383 386 C383 339 344 302 302 302 L175 302 Z M93 700 C85 700 80 695 80 687 L80 13 C80 5 85 0 93 0 L162 0 C170 0 175 5 175 13 L175 217 L310 217 C403 217 478 289 478 378 L478 539 C478 628 403 700 310 700 L93 700 Z " />
<glyph glyph-name="Q" unicode="Q" horiz-adv-x="547" d="M319 705 L228 705 C135 705 70 633 70 545 L70 155 C70 67 134 -5 227 -5 L271 -104 C274 -111 280 -118 288 -118 L349 -118 C357 -118 363 -112 363 -104 L319 -5 C412 -5 477 67 477 155 L477 545 C477 633 412 705 319 705 L319 705 Z M382 165 C382 117 352 80 310 80 L237 80 C195 80 165 117 165 165 L165 535 C165 581 195 620 237 620 L310 620 C352 620 382 581 382 535 L382 165 Z " />
<glyph glyph-name="R" unicode="R" horiz-adv-x="529" d="M479 378 L479 539 C479 628 404 700 311 700 L93 700 C85 700 80 695 80 687 L80 13 C80 5 85 0 93 0 L162 0 C170 0 175 5 175 13 L175 217 L278 217 L372 13 C375 6 379 0 387 0 L463 0 C471 0 476 5 476 13 L374 229 C436 253 479 311 479 378 L479 378 Z M384 386 C384 339 345 302 303 302 L175 302 L175 615 L303 615 C345 615 384 575 384 530 L384 386 Z " />
<glyph glyph-name="S" unicode="S" horiz-adv-x="513" d="M215 80 C173 80 145 119 145 165 L145 182 C145 190 140 195 132 195 L63 195 C55 195 50 190 50 182 L50 155 C50 67 117 -5 208 -5 L300 -5 C393 -5 458 67 458 155 L458 172 C458 464 145 314 145 509 L145 535 C145 581 173 620 215 620 L283 620 C325 620 353 581 353 535 L353 518 C353 510 358 505 366 505 L435 505 C443 505 448 510 448 518 L448 545 C448 633 381 705 290 705 L207 705 C116 705 50 633 50 545 L50 522 C50 228 363 381 363 184 L363 165 C363 117 333 80 291 80 L215 80 Z " />
<glyph glyph-name="T" unicode="T" horiz-adv-x="487" d="M58 700 C50 700 45 695 45 687 L45 628 C45 620 50 615 58 615 L196 615 L196 13 C196 5 201 0 209 0 L278 0 C286 0 291 5 291 13 L291 615 L429 615 C437 615 442 620 442 628 L442 687 C442 695 437 700 429 700 L58 700 Z " />
<glyph glyph-name="U" unicode="U" horiz-adv-x="557" d="M387 165 C387 117 357 80 315 80 L242 80 C200 80 170 117 170 165 L170 687 C170 695 165 700 157 700 L88 700 C80 700 75 695 75 687 L75 155 C75 67 140 -5 233 -5 L324 -5 C417 -5 482 67 482 155 L482 687 C482 695 477 700 469 700 L400 700 C392 700 387 695 387 687 L387 165 Z " />
<glyph glyph-name="V" unicode="V" horiz-adv-x="556" d="M324 0 C332 0 335 5 337 13 L521 687 C521 695 516 700 508 700 L435 700 C427 700 424 695 421 687 L283 158 L273 158 L135 687 C132 695 129 700 121 700 L48 700 C40 700 35 695 35 687 L219 13 C221 5 224 0 232 0 L324 0 Z " />
<glyph glyph-name="W" unicode="W" horiz-adv-x="740" d="M336 700 C328 700 324 695 322 687 L220 172 L134 687 C132 695 128 700 120 700 L48 700 C40 700 35 695 35 687 L153 14 C155 5 159 0 168 0 L267 0 C275 0 280 5 282 14 L370 489 L458 14 C460 5 465 0 473 0 L572 0 C581 0 585 5 587 14 L705 687 C705 695 700 700 692 700 L620 700 C612 700 608 695 606 687 L520 172 L418 687 C416 695 412 700 404 700 L336 700 Z " />
<glyph glyph-name="X" unicode="X" horiz-adv-x="518" d="M378 13 C382 4 386 0 394 0 L465 0 C473 0 478 5 478 13 L359 350 L478 687 C478 695 473 700 465 700 L398 700 C390 700 386 696 382 687 L273 394 L245 394 L136 687 C132 696 128 700 120 700 L53 700 C45 700 40 695 40 687 L159 350 L40 13 C40 5 45 0 53 0 L124 0 C132 0 136 4 140 13 L247 302 L271 302 L378 13 Z " />
<glyph glyph-name="Y" unicode="Y" horiz-adv-x="529" d="M312 220 L499 687 C499 695 494 700 486 700 L415 700 C407 700 404 697 400 689 L269 358 L260 358 L129 689 C125 697 122 700 114 700 L43 700 C35 700 30 695 30 687 L217 220 L217 13 C217 5 222 0 230 0 L299 0 C307 0 312 5 312 13 L312 220 Z " />
<glyph glyph-name="Z" unicode="Z" horiz-adv-x="480" d="M311 615 L59 73 C57 69 55 64 55 59 L55 13 C55 5 60 0 68 0 L412 0 C420 0 425 5 425 13 L425 72 C425 80 420 85 412 85 L169 85 L421 627 C423 631 425 636 425 641 L425 687 C425 695 420 700 412 700 L68 700 C60 700 55 695 55 687 L55 628 C55 620 60 615 68 615 L311 615 Z " />
<glyph glyph-name="bracketleft" unicode="&#x5b;" horiz-adv-x="381" d="M93 805 C85 805 80 800 80 792 L80 -164 C80 -172 85 -177 93 -177 L288 -177 C296 -177 301 -172 301 -164 L301 -105 C301 -97 296 -92 288 -92 L175 -92 L175 720 L288 720 C296 720 301 725 301 733 L301 792 C301 800 296 805 288 805 L93 805 Z " />
<glyph glyph-name="backslash" unicode="&#x5c;" horiz-adv-x="567" d="M180 791 C177 799 174 804 166 804 L93 804 C85 804 80 799 80 791 L387 -166 C390 -174 393 -179 401 -179 L474 -179 C482 -179 487 -174 487 -166 L180 791 Z " />
<glyph glyph-name="bracketright" unicode="&#x5d;" horiz-adv-x="381" d="M93 805 C85 805 80 800 80 792 L80 733 C80 725 85 720 93 720 L206 720 L206 -92 L93 -92 C85 -92 80 -97 80 -105 L80 -164 C80 -172 85 -177 93 -177 L288 -177 C296 -177 301 -172 301 -164 L301 792 C301 800 296 805 288 805 L93 805 Z " />
<glyph glyph-name="asciicircum" unicode="&#x5e;" horiz-adv-x="416" d="M171 700 C163 700 157 695 153 686 L80 538 C80 531 85 526 93 526 L156 526 C162 526 167 532 170 538 L208 615 L246 538 C249 532 254 526 260 526 L323 526 C331 526 336 531 336 538 L263 686 C259 695 253 700 245 700 L171 700 Z " />
<glyph glyph-name="underscore" unicode="&#x5f;" horiz-adv-x="356" d="M263 -144 C271 -144 276 -139 276 -131 L276 -72 C276 -64 271 -59 263 -59 L93 -59 C85 -59 80 -64 80 -72 L80 -131 C80 -139 85 -144 93 -144 L263 -144 Z " />
<glyph glyph-name="grave" unicode="&#x60;" horiz-adv-x="307" d="M213 550 C222 550 227 555 227 564 L173 686 C169 694 164 700 155 700 L94 700 C86 700 80 695 80 686 L134 564 C138 556 143 550 152 550 L213 550 Z " />
<glyph glyph-name="a" unicode="a" horiz-adv-x="458" d="M205 80 C170 80 155 111 155 146 L155 161 C155 196 170 225 205 225 L298 225 L298 146 C298 111 281 80 247 80 L205 80 Z M106 500 C100 497 97 494 97 488 C97 486 97 482 111 429 C113 420 118 420 123 420 C159 430 178 435 211 435 C298 435 298 368 298 335 L298 310 L188 310 C102 310 60 260 60 178 L60 124 C60 42 102 -5 188 -5 L206 -5 C246 -5 271 7 290 32 L298 32 L298 13 C298 5 303 0 311 0 L380 0 C388 0 393 5 393 13 L393 336 C393 382 392 520 221 520 C156 520 132 510 106 500 L106 500 Z " />
<glyph glyph-name="b" unicode="b" horiz-adv-x="486" d="M175 369 C175 404 199 435 232 435 L274 435 C308 435 331 404 331 369 L331 146 C331 111 308 80 274 80 L232 80 C199 80 175 111 175 146 L175 369 Z M175 687 C175 695 170 700 162 700 L93 700 C85 700 80 695 80 687 L80 13 C80 5 85 0 93 0 L162 0 C170 0 175 5 175 13 L175 32 L183 32 C205 1 245 -5 265 -5 L296 -5 C383 -5 426 58 426 143 L426 372 C426 457 383 520 296 520 L265 520 C245 520 205 514 183 483 L175 483 L175 687 Z " />
<glyph glyph-name="c" unicode="c" horiz-adv-x="442" d="M397 157 C397 165 392 170 384 170 L315 170 C307 170 302 165 302 157 L302 146 C302 111 279 80 246 80 L217 80 C184 80 160 111 160 146 L160 369 C160 404 184 435 217 435 L246 435 C279 435 302 404 302 369 L302 358 C302 350 307 345 315 345 L384 345 C392 345 397 350 397 358 L397 374 C397 446 351 520 262 520 L199 520 C112 520 65 446 65 374 L65 141 C65 69 112 -5 199 -5 L262 -5 C351 -5 397 69 397 141 L397 157 Z " />
<glyph glyph-name="d" unicode="d" horiz-adv-x="486" d="M311 146 C311 111 287 80 254 80 L212 80 C178 80 155 111 155 146 L155 369 C155 404 178 435 212 435 L254 435 C287 435 311 404 311 369 L311 146 Z M311 483 L303 483 C281 514 241 520 221 520 L190 520 C103 520 60 457 60 372 L60 143 C60 58 103 -5 190 -5 L221 -5 C241 -5 281 1 303 32 L311 32 L311 13 C311 5 316 0 324 0 L393 0 C401 0 406 5 406 13 L406 687 C406 695 401 700 393 700 L324 700 C316 700 311 695 311 687 L311 483 Z " />
<glyph glyph-name="e" unicode="e" horiz-adv-x="457" d="M314 105 C301 90 287 80 254 80 L217 80 C184 80 160 111 160 146 L160 216 L384 216 C392 216 397 221 397 229 L397 374 C397 446 351 520 262 520 L199 520 C112 520 65 446 65 374 L65 141 C65 69 112 -5 199 -5 L254 -5 C254 -5 330 -5 379 56 C381 59 382 61 382 64 C382 67 379 71 377 73 L333 108 C330 110 328 111 325 111 C321 111 316 108 314 105 L314 105 Z M160 369 C160 404 184 435 217 435 L246 435 C279 435 302 404 302 369 L302 301 L160 301 L160 369 Z " />
<glyph glyph-name="f" unicode="f" horiz-adv-x="350" d="M204 430 L292 430 C300 430 305 435 305 443 L305 502 C305 510 300 515 292 515 L204 515 L204 593 C204 628 239 659 272 659 L292 659 C300 659 305 664 305 672 L305 731 C305 739 300 744 292 744 L253 744 C166 744 114 670 109 597 L109 515 L48 515 C40 515 35 510 35 502 L35 443 C35 435 40 430 48 430 L109 430 L109 13 C109 5 114 0 122 0 L191 0 C199 0 204 5 204 13 L204 430 Z " />
<glyph glyph-name="g" unicode="g" horiz-adv-x="486" d="M311 146 C311 111 287 80 254 80 L212 80 C178 80 155 111 155 146 L155 369 C155 404 178 435 212 435 L254 435 C287 435 311 404 311 369 L311 146 Z M406 502 C406 510 401 515 393 515 L324 515 C316 515 311 510 311 502 L311 483 L303 483 C281 514 241 520 221 520 L190 520 C103 520 60 457 60 372 L60 143 C60 58 103 -5 190 -5 L221 -5 C241 -5 281 1 303 32 L311 32 L311 -30 C311 -67 310 -118 230 -118 C173 -118 159 -113 131 -108 C125 -108 120 -108 118 -116 L106 -174 C106 -180 109 -183 115 -185 C143 -194 156 -203 226 -203 C404 -203 406 -76 406 -32 L406 502 Z " />
<glyph glyph-name="h" unicode="h" horiz-adv-x="492" d="M327 13 C327 5 332 0 340 0 L409 0 C417 0 422 5 422 13 L422 371 C422 454 398 520 312 520 L284 520 C264 520 214 519 183 459 L175 459 L175 687 C175 695 170 700 162 700 L93 700 C85 700 80 695 80 687 L80 13 C80 5 85 0 93 0 L162 0 C170 0 175 5 175 13 L175 359 C212 434 250 435 271 435 L279 435 C316 435 327 405 327 353 L327 13 Z " />
<glyph glyph-name="i" unicode="i" horiz-adv-x="255" d="M80 13 C80 5 85 0 93 0 L162 0 C170 0 175 5 175 13 L175 502 C175 510 170 515 162 515 L93 515 C85 515 80 510 80 502 L80 13 Z M77 591 C77 583 82 578 90 578 L165 578 C173 578 178 583 178 591 L178 671 C178 679 173 684 165 684 L90 684 C82 684 77 679 77 671 L77 591 Z " />
<glyph glyph-name="j" unicode="j" horiz-adv-x="255" d="M33 -182 C71 -167 175 -116 175 7 L175 502 C175 510 170 515 162 515 L93 515 C85 515 80 510 80 502 L80 12 C80 12 79 -58 -5 -94 C-10 -96 -12 -101 -12 -106 C-12 -107 -11 -110 -10 -112 L16 -176 C18 -181 23 -183 27 -183 C28 -183 31 -183 33 -182 L33 -182 Z M77 591 C77 583 82 578 90 578 L165 578 C173 578 178 583 178 591 L178 671 C178 679 173 684 165 684 L90 684 C82 684 77 679 77 671 L77 591 Z " />
<glyph glyph-name="k" unicode="k" horiz-adv-x="460" d="M273 229 L331 13 C335 6 341 0 349 0 L417 0 C425 0 430 5 430 13 L360 272 L430 502 C430 510 425 515 417 515 L351 515 C343 515 337 509 333 502 L274 314 L175 314 L175 687 C175 695 170 700 162 700 L93 700 C85 700 80 695 80 687 L80 13 C80 5 85 0 93 0 L162 0 C170 0 175 5 175 13 L175 229 L273 229 Z " />
<glyph glyph-name="l" unicode="l" horiz-adv-x="255" d="M80 13 C80 5 85 0 93 0 L162 0 C170 0 175 5 175 13 L175 687 C175 695 170 700 162 700 L93 700 C85 700 80 695 80 687 L80 13 Z " />
<glyph glyph-name="m" unicode="m" horiz-adv-x="696" d="M531 13 C531 5 536 0 544 0 L613 0 C621 0 626 5 626 13 L626 371 C626 457 575 520 498 520 C477 520 435 520 392 459 L382 459 C357 496 336 520 287 520 C267 520 226 520 183 459 L175 459 L175 502 C175 510 170 515 162 515 L93 515 C85 515 80 510 80 502 L80 13 C80 5 85 0 93 0 L162 0 C170 0 175 5 175 13 L175 355 C196 410 220 435 251 435 C300 435 306 406 306 356 L306 13 C306 5 311 0 319 0 L387 0 C395 0 400 5 400 13 L400 355 C421 410 445 435 476 435 C525 435 531 406 531 356 L531 13 Z " />
<glyph glyph-name="n" unicode="n" horiz-adv-x="492" d="M327 13 C327 5 332 0 340 0 L409 0 C417 0 422 5 422 13 L422 371 C422 454 398 520 312 520 L284 520 C264 520 214 519 183 459 L175 459 L175 502 C175 510 170 515 162 515 L93 515 C85 515 80 510 80 502 L80 13 C80 5 85 0 93 0 L162 0 C170 0 175 5 175 13 L175 359 C212 434 250 435 271 435 L279 435 C316 435 327 405 327 353 L327 13 Z " />
<glyph glyph-name="o" unicode="o" horiz-adv-x="462" d="M199 520 C112 520 65 446 65 374 L65 141 C65 69 112 -5 199 -5 L262 -5 C350 -5 397 69 397 141 L397 374 C397 446 350 520 263 520 L199 520 Z M217 80 C184 80 160 111 160 146 L160 369 C160 404 184 435 217 435 L245 435 C278 435 302 404 302 369 L302 146 C302 111 278 80 245 80 L217 80 Z " />
<glyph glyph-name="p" unicode="p" horiz-adv-x="486" d="M175 369 C175 404 199 435 232 435 L274 435 C308 435 331 404 331 369 L331 146 C331 111 308 80 274 80 L232 80 C199 80 175 111 175 146 L175 369 Z M175 502 C175 510 170 515 162 515 L93 515 C85 515 80 510 80 502 L80 -161 C80 -169 85 -174 93 -174 L162 -174 C170 -174 175 -169 175 -161 L175 32 L183 32 C205 1 245 -5 265 -5 L296 -5 C383 -5 426 58 426 143 L426 372 C426 457 383 520 296 520 L265 520 C245 520 205 514 183 483 L175 483 L175 502 Z " />
<glyph glyph-name="q" unicode="q" horiz-adv-x="486" d="M311 146 C311 111 287 80 254 80 L212 80 C178 80 155 111 155 146 L155 369 C155 404 178 435 212 435 L254 435 C287 435 311 404 311 369 L311 146 Z M311 483 L303 483 C281 514 241 520 221 520 L190 520 C103 520 60 457 60 372 L60 143 C60 58 103 -5 190 -5 L221 -5 C241 -5 281 1 303 32 L311 32 L311 -161 C311 -169 316 -174 324 -174 L393 -174 C401 -174 406 -169 406 -161 L406 502 C406 510 401 515 393 515 L324 515 C316 515 311 510 311 502 L311 483 Z " />
<glyph glyph-name="r" unicode="r" horiz-adv-x="350" d="M302 432 C310 432 315 437 315 445 L320 503 C320 509 317 513 311 515 C296 520 278 520 267 520 C247 520 205 520 183 459 L175 459 L175 502 C175 510 170 515 162 515 L93 515 C85 515 80 510 80 502 L80 13 C80 5 85 0 93 0 L162 0 C170 0 175 5 175 13 L175 359 C208 425 248 435 261 435 C277 435 288 434 302 432 L302 432 Z " />
<glyph glyph-name="s" unicode="s" horiz-adv-x="440" d="M232 435 C266 435 289 404 289 369 L289 357 C289 349 294 344 302 344 L371 344 C379 344 384 349 384 357 L384 374 C384 446 336 520 249 520 L190 520 C102 520 56 458 56 386 L56 379 C56 182 295 256 295 150 L295 136 C295 98 272 80 238 80 L207 80 C173 80 150 111 150 146 L150 158 C150 166 145 171 137 171 L68 171 C60 171 55 166 55 158 L55 141 C55 69 103 -5 190 -5 L256 -5 C345 -5 390 57 390 129 L390 143 C390 341 151 267 151 369 L151 379 C151 417 174 435 208 435 L232 435 Z " />
<glyph glyph-name="t" unicode="t" horiz-adv-x="345" d="M292 0 C300 0 305 5 305 13 L305 72 C305 80 300 85 292 85 L272 85 C239 85 204 117 204 151 L204 430 L292 430 C300 430 305 435 305 443 L305 502 C305 510 300 515 292 515 L204 515 L204 687 C204 695 199 700 191 700 L122 700 C114 700 109 695 109 687 L109 515 L48 515 C40 515 35 510 35 502 L35 443 C35 435 40 430 48 430 L109 430 L109 148 C114 74 166 0 253 0 L292 0 Z " />
<glyph glyph-name="u" unicode="u" horiz-adv-x="472" d="M307 146 C307 111 283 80 250 80 L222 80 C189 80 165 111 165 146 L165 502 C165 510 160 515 152 515 L83 515 C75 515 70 510 70 502 L70 141 C70 69 117 -5 204 -5 L267 -5 C355 -5 402 69 402 141 L402 502 C402 510 397 515 389 515 L320 515 C312 515 307 510 307 502 L307 146 Z " />
<glyph glyph-name="v" unicode="v" horiz-adv-x="434" d="M279 0 C287 0 292 5 294 13 L409 502 C409 510 404 515 396 515 L323 515 C315 515 312 510 309 502 L222 110 L212 110 L125 502 C122 510 119 515 111 515 L38 515 C30 515 25 510 25 502 L140 13 C142 5 147 0 155 0 L279 0 Z " />
<glyph glyph-name="w" unicode="w" horiz-adv-x="632" d="M281 515 C273 515 268 510 266 502 L188 180 L124 502 C122 510 118 515 110 515 L38 515 C30 515 25 510 25 502 L130 12 C132 4 135 0 143 0 L223 0 C231 0 234 4 236 12 L316 343 L396 12 C398 4 401 0 409 0 L489 0 C497 0 500 4 502 12 L607 502 C607 510 602 515 594 515 L522 515 C514 515 510 510 508 502 L444 180 L366 502 C364 510 359 515 351 515 L281 515 Z " />
<glyph glyph-name="x" unicode="x" horiz-adv-x="417" d="M291 13 C295 4 299 0 307 0 L374 0 C382 0 387 5 387 13 L309 258 L387 502 C387 510 382 515 374 515 L308 515 C300 515 296 511 292 502 L228 301 L189 301 L125 502 C121 511 117 515 109 515 L43 515 C35 515 30 510 30 502 L108 258 L30 13 C30 5 35 0 43 0 L110 0 C118 0 122 4 126 13 L189 216 L228 216 L291 13 Z " />
<glyph glyph-name="y" unicode="y" horiz-adv-x="434" d="M158 -60 C151 -91 127 -118 78 -118 L44 -118 C36 -118 31 -123 31 -131 L31 -190 C31 -198 36 -203 44 -203 L106 -203 C149 -203 248 -182 288 -11 L409 502 C409 510 404 515 396 515 L323 515 C315 515 312 510 309 502 L222 110 L212 110 L125 502 C122 510 119 515 111 515 L38 515 C30 515 25 510 25 502 L158 -60 Z " />
<glyph glyph-name="z" unicode="z" horiz-adv-x="405" d="M351 442 C353 446 355 449 355 454 L355 502 C355 510 350 515 342 515 L63 515 C55 515 50 510 50 502 L50 443 C50 435 55 430 63 430 L247 430 L54 73 C52 69 50 66 50 61 L50 13 C50 5 55 0 63 0 L342 0 C350 0 355 5 355 13 L355 72 C355 80 350 85 342 85 L158 85 L351 442 Z " />
<glyph glyph-name="braceleft" unicode="&#x7b;" horiz-adv-x="463" d="M193 644 L193 441 C193 393 154 355 112 355 L93 355 C85 355 80 350 80 342 L80 283 C80 275 85 270 93 270 L112 270 C154 270 193 232 193 184 L193 -18 C193 -106 266 -178 358 -178 L370 -178 C378 -178 383 -173 383 -165 L383 -106 C383 -98 378 -93 370 -93 L366 -93 C324 -93 288 -55 288 -9 L288 191 C288 234 267 275 230 312 C267 349 288 391 288 433 L288 636 C288 682 324 720 366 720 L370 720 C378 720 383 725 383 733 L383 792 C383 800 378 805 370 805 L358 805 C266 805 193 733 193 644 L193 644 Z " />
<glyph glyph-name="bar" unicode="&#x7c;" horiz-adv-x="255" d="M80 -165 C80 -173 85 -178 93 -178 L162 -178 C170 -178 175 -173 175 -165 L175 792 C175 800 170 805 162 805 L93 805 C85 805 80 800 80 792 L80 -165 Z " />
<glyph glyph-name="braceright" unicode="&#x7d;" horiz-adv-x="463" d="M270 644 C270 733 197 805 105 805 L93 805 C85 805 80 800 80 792 L80 733 C80 725 85 720 93 720 L97 720 C139 720 175 682 175 636 L175 433 C175 391 196 349 233 312 C196 275 175 234 175 191 L175 -9 C175 -55 139 -93 97 -93 L93 -93 C85 -93 80 -98 80 -106 L80 -165 C80 -173 85 -178 93 -178 L105 -178 C197 -178 270 -106 270 -18 L270 184 C270 232 309 270 351 270 L370 270 C378 270 383 275 383 283 L383 342 C383 350 378 355 370 355 L351 355 C309 355 270 393 270 441 L270 644 Z " />
<glyph glyph-name="asciitilde" unicode="&#x7e;" horiz-adv-x="386" d="M242 168 C261 168 278 176 298 188 C303 191 306 196 306 202 L291 254 C289 260 284 262 279 262 C277 262 275 262 272 261 C259 257 249 253 242 253 C187 253 196 284 144 284 C125 284 108 276 88 264 C83 261 80 256 80 250 L95 198 C97 192 102 190 107 190 C109 190 111 190 114 191 C127 195 137 199 144 199 C199 199 189 168 242 168 L242 168 Z " />
<glyph glyph-name="uni00A0" unicode="&#xa0;" horiz-adv-x="198" d="" />
<glyph glyph-name="exclamdown" unicode="&#xa1;" horiz-adv-x="261" d="M83 399 L83 13 C83 5 88 0 96 0 L165 0 C173 0 178 5 178 13 L178 399 L165 511 C164 519 160 524 152 524 L109 524 C101 524 97 519 96 511 L83 399 Z M80 607 C80 599 85 594 93 594 L168 594 C176 594 181 599 181 607 L181 687 C181 695 176 700 168 700 L93 700 C85 700 80 695 80 687 L80 607 Z " />
<glyph glyph-name="cent" unicode="&#xa2;" horiz-adv-x="567" d="M241 -124 C241 -132 246 -137 254 -137 L323 -137 C331 -137 336 -132 336 -124 L336 -5 C425 -1 487 69 487 155 L487 193 C487 201 482 206 474 206 L405 206 C397 206 392 201 392 193 L392 165 C392 117 362 80 320 80 L247 80 C205 80 175 117 175 165 L175 535 C175 581 205 620 247 620 L320 620 C362 620 392 581 392 535 L392 502 C392 494 397 489 405 489 L474 489 C482 489 487 494 487 502 L487 545 C487 631 425 701 336 705 L336 819 C336 827 331 832 323 832 L254 832 C246 832 241 827 241 819 L241 705 C145 705 80 633 80 545 L80 155 C80 67 148 -5 241 -5 L241 -124 Z " />
<glyph glyph-name="sterling" unicode="&#xa3;" horiz-adv-x="558" d="M241 549 C241 584 265 615 298 615 L327 615 C360 615 383 584 383 549 L383 531 C383 523 388 518 396 518 L465 518 C473 518 478 523 478 531 L478 554 C478 626 432 700 343 700 L280 700 C193 700 146 626 146 554 L146 375 L93 375 C85 375 80 370 80 362 L80 303 C80 295 85 290 93 290 L146 290 L146 85 L93 85 C85 85 80 80 80 72 L80 13 C80 5 85 0 93 0 L464 0 C472 0 477 5 477 13 L477 72 C477 80 472 85 464 85 L241 85 L241 290 L327 290 C335 290 340 295 340 303 L340 362 C340 370 335 375 327 375 L241 375 L241 549 Z " />
<glyph glyph-name="currency" unicode="&#xa4;" horiz-adv-x="491" d="M205 349 C198 349 189 347 180 346 L162 387 C159 395 155 399 147 399 L94 399 C86 399 80 393 80 385 L117 301 C105 281 96 258 96 239 L96 161 C96 141 105 118 117 98 L80 14 C80 6 86 0 94 0 L147 0 C155 0 159 4 162 12 L180 53 C189 52 198 50 205 50 L285 50 C293 50 302 52 311 53 L329 12 C332 4 336 0 344 0 L397 0 C405 0 411 6 411 14 L374 98 C386 118 395 141 395 161 L395 239 C395 258 386 281 374 301 L411 385 C411 393 405 399 397 399 L344 399 C336 399 332 395 329 387 L311 346 C302 347 293 349 286 349 L205 349 Z M220 121 C198 121 177 142 177 164 L177 235 C177 257 198 278 220 278 L271 278 C293 278 314 257 314 235 L314 164 C314 142 293 121 271 121 L220 121 Z " />
<glyph glyph-name="yen" unicode="&#xa5;" horiz-adv-x="629" d="M163 353 C155 353 150 348 150 340 L150 281 C150 273 155 268 163 268 L248 268 L267 220 L267 168 L163 168 C155 168 150 163 150 155 L150 96 C150 88 155 83 163 83 L267 83 L267 13 C267 5 272 0 280 0 L349 0 C357 0 362 5 362 13 L362 83 L466 83 C474 83 479 88 479 96 L479 155 C479 163 474 168 466 168 L362 168 L362 220 L381 268 L466 268 C474 268 479 273 479 281 L479 340 C479 348 474 353 466 353 L415 353 L549 687 C549 695 544 700 536 700 L465 700 C457 700 454 697 450 689 L319 358 L310 358 L179 689 C175 697 172 700 164 700 L93 700 C85 700 80 695 80 687 L214 353 L163 353 Z " />
<glyph glyph-name="brokenbar" unicode="&#xa6;" horiz-adv-x="255" d="M80 405 C80 397 85 392 93 392 L162 392 C170 392 175 397 175 405 L175 792 C175 800 170 805 162 805 L93 805 C85 805 80 800 80 792 L80 405 Z M80 -165 C80 -173 85 -178 93 -178 L162 -178 C170 -178 175 -173 175 -165 L175 222 C175 230 170 235 162 235 L93 235 C85 235 80 230 80 222 L80 -165 Z " />
<glyph glyph-name="section" unicode="&#xa7;" horiz-adv-x="502" d="M422 309 L422 323 C422 523 183 449 183 549 L183 559 C183 597 206 615 240 615 L264 615 C298 615 321 584 321 549 L321 537 C321 529 326 524 334 524 L403 524 C411 524 416 529 416 537 L416 554 C416 626 368 700 281 700 L222 700 C134 700 88 638 88 566 L88 559 C88 511 105 479 131 457 C99 432 81 394 81 353 L81 346 C81 147 320 221 320 117 L320 103 C320 65 297 47 263 47 L232 47 C198 47 175 78 175 113 L175 125 C175 133 170 138 162 138 L93 138 C85 138 80 133 80 125 L80 108 C80 36 128 -38 215 -38 L281 -38 C370 -38 415 24 415 96 L415 110 C415 155 400 186 376 208 C405 233 422 270 422 309 L422 309 Z M327 316 C327 281 313 262 282 262 C278 262 275 262 271 263 C176 277 176 295 176 336 L176 346 C176 384 199 402 233 402 C287 402 327 379 327 334 L327 316 Z " />
<glyph glyph-name="dieresis" unicode="&#xa8;" horiz-adv-x="424" d="M80 608 C80 599 86 593 95 593 L166 593 C175 593 181 599 181 608 L181 685 C181 694 175 700 166 700 L95 700 C86 700 80 694 80 685 L80 608 Z M243 608 C243 599 249 593 258 593 L329 593 C338 593 344 599 344 608 L344 685 C344 694 338 700 329 700 L258 700 C249 700 243 694 243 685 L243 608 Z " />
<glyph glyph-name="copyright" unicode="&#xa9;" horiz-adv-x="871" d="M436 699 C241 699 80 539 80 344 C80 148 241 -11 436 -11 C632 -11 791 148 791 344 C791 539 632 699 436 699 L436 699 Z M436 51 C273 51 144 181 144 344 C144 507 273 638 436 638 C601 638 731 507 731 344 C731 181 601 51 436 51 L436 51 Z M407 222 C385 222 363 242 363 265 L363 428 C363 451 385 470 407 470 L459 470 C482 470 503 451 503 428 L503 413 C503 406 507 402 514 402 L574 402 C581 402 585 406 585 413 L585 430 C585 487 542 544 473 544 L393 544 C324 544 282 487 282 430 L282 261 C282 205 324 148 393 148 L473 148 C542 148 585 205 585 262 L585 279 C585 286 581 290 574 290 L514 290 C507 290 503 286 503 279 L503 264 C503 241 482 222 459 222 L407 222 Z " />
<glyph glyph-name="ordfeminine" unicode="&#xaa;" horiz-adv-x="398" d="M149 494 C149 514 160 521 177 521 L249 521 L249 489 C249 469 231 457 212 457 L184 457 C167 457 149 469 149 489 L149 494 Z M119 632 C144 637 163 640 184 640 C234 640 249 614 249 595 L249 576 L168 576 C118 576 80 547 80 498 L80 480 C80 432 118 402 168 402 L197 402 C208 402 230 408 244 425 L249 425 L249 415 C249 410 253 406 258 406 L309 406 C314 406 318 410 318 415 L318 595 C318 621 299 700 194 700 C151 700 122 694 107 689 C104 688 102 686 102 682 C102 681 102 671 110 637 C111 632 115 632 119 632 L119 632 Z " />
<glyph glyph-name="guillemotleft" unicode="&#xab;" horiz-adv-x="691" d="M80 259 L211 13 C215 6 219 0 227 0 L297 0 C305 0 310 5 310 13 L179 261 L179 271 L310 491 C310 499 305 504 297 504 L227 504 C219 504 215 498 211 491 L80 271 L80 259 Z M381 259 L512 13 C516 6 520 0 528 0 L598 0 C606 0 611 5 611 13 L480 261 L480 271 L611 491 C611 499 606 504 598 504 L528 504 C520 504 516 498 512 491 L381 271 L381 259 Z " />
<glyph glyph-name="logicalnot" unicode="&#xac;" horiz-adv-x="491" d="M93 288 C85 288 80 283 80 275 L80 216 C80 208 85 203 93 203 L316 203 L316 78 C316 70 321 65 329 65 L398 65 C406 65 411 70 411 78 L411 275 C411 283 406 288 398 288 L93 288 Z " />
<glyph glyph-name="uni00AD" unicode="&#xad;" horiz-adv-x="198" d="" />
<glyph glyph-name="registered" unicode="&#xae;" horiz-adv-x="871" d="M375 347 L375 472 L455 472 C478 472 498 451 498 426 L498 392 C498 366 478 347 455 347 L375 347 Z M436 699 C241 699 80 539 80 344 C80 148 241 -11 436 -11 C632 -11 791 148 791 344 C791 539 632 699 436 699 L436 699 Z M436 51 C273 51 144 181 144 344 C144 507 273 638 436 638 C601 638 731 507 731 344 C731 181 601 51 436 51 L436 51 Z M526 280 C557 300 579 330 579 364 L579 454 C579 504 536 546 484 546 L305 546 C298 546 294 542 294 535 L294 163 C294 156 298 152 305 152 L364 152 C371 152 375 156 375 163 L375 274 L449 274 L500 163 C503 157 508 152 515 152 L571 152 C578 152 582 156 582 163 L526 280 Z " />
<glyph glyph-name="macron" unicode="&#xaf;" horiz-adv-x="354" d="M93 700 C85 700 80 695 80 687 L80 628 C80 620 85 615 93 615 L261 615 C269 615 274 620 274 628 L274 687 C274 695 269 700 261 700 L93 700 Z " />
<glyph glyph-name="degree" unicode="&#xb0;" horiz-adv-x="418" d="M209 752 C138 752 80 695 80 623 C80 552 138 494 209 494 C280 494 338 552 338 623 C338 695 280 752 209 752 L209 752 Z M209 566 C177 566 152 594 152 623 C152 656 177 680 209 680 C241 680 266 656 266 623 C266 594 241 566 209 566 L209 566 Z " />
<glyph glyph-name="plusminus" unicode="&#xb1;" horiz-adv-x="397" d="M151 177 C151 169 156 164 164 164 L233 164 C241 164 246 169 246 177 L246 290 L304 290 C312 290 317 295 317 303 L317 362 C317 370 312 375 304 375 L246 375 L246 489 C246 497 241 502 233 502 L164 502 C156 502 151 497 151 489 L151 375 L93 375 C85 375 80 370 80 362 L80 303 C80 295 85 290 93 290 L151 290 L151 177 Z M93 85 C85 85 80 80 80 72 L80 13 C80 5 85 0 93 0 L304 0 C312 0 317 5 317 13 L317 72 C317 80 312 85 304 85 L93 85 Z " />
<glyph glyph-name="twosuperior" unicode="&#xb2;" horiz-adv-x="364" d="M155 607 C155 628 160 640 180 640 L187 640 C207 640 210 627 210 613 L210 608 C210 536 80 584 80 465 L80 414 C80 410 84 406 88 406 L276 406 C280 406 284 410 284 414 L284 463 C284 467 280 471 276 471 L153 471 C153 528 279 485 279 605 L279 619 C279 657 249 700 210 700 L154 700 C116 700 86 671 86 633 L86 607 C86 602 90 598 95 598 L146 598 C151 598 155 602 155 607 L155 607 Z " />
<glyph glyph-name="threesuperior" unicode="&#xb3;" horiz-adv-x="353" d="M156 582 C151 582 148 579 148 574 L148 531 C148 526 151 523 156 523 L175 523 C195 523 204 514 204 499 L204 493 C204 479 201 466 181 466 L174 466 C154 466 149 478 149 499 C149 504 145 508 140 508 L89 508 C84 508 80 504 80 499 L80 473 C80 435 110 406 148 406 L204 406 C243 406 273 449 273 487 L273 496 C273 526 264 543 244 552 C264 561 273 578 273 608 L273 619 C273 657 243 700 204 700 L148 700 C110 700 80 671 80 633 L80 607 C80 602 84 598 89 598 L140 598 C145 598 149 602 149 607 C149 628 154 640 174 640 L181 640 C201 640 204 627 204 613 L204 605 C204 590 195 582 175 582 L156 582 Z " />
<glyph glyph-name="acute" unicode="&#xb4;" horiz-adv-x="308" d="M155 554 C163 554 168 560 172 568 L228 686 C228 695 222 700 214 700 L153 700 C145 700 140 694 136 686 L80 568 C80 559 85 554 94 554 L155 554 Z " />
<glyph glyph-name="mu" unicode="&#xb5;" horiz-adv-x="492" d="M80 -161 C80 -169 85 -174 93 -174 L162 -174 C170 -174 175 -169 175 -161 L175 0 C187 -3 200 -5 214 -5 L277 -5 C365 -5 412 69 412 141 L412 502 C412 510 407 515 399 515 L330 515 C322 515 317 510 317 502 L317 146 C317 111 293 80 260 80 L232 80 C200 80 177 108 175 141 L175 502 C175 510 170 515 162 515 L93 515 C85 515 80 510 80 502 L80 -161 Z " />
<glyph glyph-name="paragraph" unicode="&#xb6;" horiz-adv-x="696" d="M248 700 C155 700 80 628 80 539 L80 423 C80 335 155 262 248 262 L326 262 L326 13 C326 5 331 0 339 0 L408 0 C416 0 421 5 421 13 L421 615 L521 615 L521 13 C521 5 526 0 534 0 L603 0 C611 0 616 5 616 13 L616 687 C616 695 611 700 603 700 L248 700 Z " />
<glyph glyph-name="periodcentered" unicode="&#xb7;" horiz-adv-x="261" d="M80 187 C80 178 86 172 95 172 L166 172 C175 172 181 178 181 187 L181 264 C181 273 175 279 166 279 L95 279 C86 279 80 273 80 264 L80 187 Z " />
<glyph glyph-name="cedilla" unicode="&#xb8;" horiz-adv-x="308" d="M88 -52 C86 -55 85 -58 85 -60 L85 -93 C85 -98 89 -102 94 -102 L149 -102 C149 -102 173 -102 173 -125 C173 -146 149 -146 149 -146 L89 -146 C84 -146 80 -150 80 -155 L80 -186 C80 -191 84 -195 89 -195 L166 -195 C213 -195 228 -178 228 -119 C228 -71 190 -53 151 -53 L174 -8 C174 0 171 1 166 1 L126 1 C120 1 116 -1 113 -5 L88 -52 Z " />
<glyph glyph-name="onesuperior" unicode="&#xb9;" horiz-adv-x="365" d="M88 676 C84 675 80 670 80 666 L80 616 C80 612 84 608 88 608 L158 635 L158 471 L99 471 C95 471 91 467 91 463 L91 414 C91 410 95 406 99 406 L277 406 C281 406 285 410 285 414 L285 463 C285 467 281 471 277 471 L227 471 L227 692 C227 696 223 700 219 700 L148 700 L88 676 Z " />
<glyph glyph-name="ordmasculine" unicode="&#xba;" horiz-adv-x="418" d="M209 752 C138 752 80 695 80 623 C80 552 138 494 209 494 C280 494 338 552 338 623 C338 695 280 752 209 752 L209 752 Z M209 566 C177 566 152 594 152 623 C152 656 177 680 209 680 C241 680 266 656 266 623 C266 594 241 566 209 566 L209 566 Z " />
<glyph glyph-name="guillemotright" unicode="&#xbb;" horiz-adv-x="691" d="M611 271 L480 491 C476 498 472 504 464 504 L394 504 C386 504 381 499 381 491 L512 271 L512 261 L381 13 C381 5 386 0 394 0 L464 0 C472 0 476 6 480 13 L611 259 L611 271 Z M310 271 L179 491 C175 498 171 504 163 504 L93 504 C85 504 80 499 80 491 L211 271 L211 261 L80 13 C80 5 85 0 93 0 L163 0 C171 0 175 6 179 13 L310 259 L310 271 Z " />
<glyph glyph-name="onequarter" unicode="&#xbc;" horiz-adv-x="774" d="M613 685 C613 694 607 700 598 700 L545 700 C536 700 530 695 526 686 L184 15 C184 6 190 0 199 0 L252 0 C261 0 267 5 271 14 L613 685 Z M88 676 C84 675 80 670 80 666 L80 616 C80 612 84 608 88 608 L158 635 L158 471 L99 471 C95 471 91 467 91 463 L91 414 C91 410 95 406 99 406 L277 406 C281 406 285 410 285 414 L285 463 C285 467 281 471 277 471 L227 471 L227 692 C227 696 223 700 219 700 L148 700 L88 676 Z M593 286 C593 290 589 294 585 294 L539 294 C535 294 530 290 528 286 L443 87 L443 52 C443 48 447 44 451 44 L597 44 L597 8 C597 4 601 0 605 0 L654 0 C658 0 662 4 662 8 L662 44 L686 44 C690 44 694 48 694 52 L694 95 C694 99 690 103 686 103 L662 103 L662 177 C662 181 658 185 654 185 L605 185 C601 185 597 181 597 177 L597 103 L515 103 L593 286 Z " />
<glyph glyph-name="onehalf" unicode="&#xbd;" horiz-adv-x="747" d="M613 685 C613 694 607 700 598 700 L545 700 C536 700 530 695 526 686 L184 15 C184 6 190 0 199 0 L252 0 C261 0 267 5 271 14 L613 685 Z M88 676 C84 675 80 670 80 666 L80 616 C80 612 84 608 88 608 L158 635 L158 471 L99 471 C95 471 91 467 91 463 L91 414 C91 410 95 406 99 406 L277 406 C281 406 285 410 285 414 L285 463 C285 467 281 471 277 471 L227 471 L227 692 C227 696 223 700 219 700 L148 700 L88 676 Z M538 201 C538 222 543 234 563 234 L570 234 C590 234 593 221 593 207 L593 202 C593 130 463 178 463 59 L463 8 C463 4 467 0 471 0 L659 0 C663 0 667 4 667 8 L667 57 C667 61 663 65 659 65 L536 65 C536 122 662 79 662 199 L662 213 C662 251 632 294 593 294 L537 294 C499 294 469 265 469 227 L469 201 C469 196 473 192 478 192 L529 192 C534 192 538 196 538 201 L538 201 Z " />
<glyph glyph-name="threequarters" unicode="&#xbe;" horiz-adv-x="726" d="M573 685 C573 694 567 700 558 700 L505 700 C496 700 490 695 486 686 L144 15 C144 6 150 0 159 0 L212 0 C221 0 227 5 231 14 L573 685 Z M545 286 C545 290 541 294 537 294 L491 294 C487 294 482 290 480 286 L395 87 L395 52 C395 48 399 44 403 44 L549 44 L549 8 C549 4 553 0 557 0 L606 0 C610 0 614 4 614 8 L614 44 L638 44 C642 44 646 48 646 52 L646 95 C646 99 642 103 638 103 L614 103 L614 177 C614 181 610 185 606 185 L557 185 C553 185 549 181 549 177 L549 103 L467 103 L545 286 Z M156 582 C151 582 148 579 148 574 L148 531 C148 526 151 523 156 523 L175 523 C195 523 204 514 204 499 L204 493 C204 479 201 466 181 466 L174 466 C154 466 149 478 149 499 C149 504 145 508 140 508 L89 508 C84 508 80 504 80 499 L80 473 C80 435 110 406 148 406 L204 406 C243 406 273 449 273 487 L273 496 C273 526 264 543 244 552 C264 561 273 578 273 608 L273 619 C273 657 243 700 204 700 L148 700 C110 700 80 671 80 633 L80 607 C80 602 84 598 89 598 L140 598 C145 598 149 602 149 607 C149 628 154 640 174 640 L181 640 C201 640 204 627 204 613 L204 605 C204 590 195 582 175 582 L156 582 Z " />
<glyph glyph-name="questiondown" unicode="&#xbf;" horiz-adv-x="558" d="M365 519 C365 527 360 532 352 532 L283 532 C275 532 270 527 270 519 L270 511 C270 424 225 409 176 392 C123 374 80 349 80 204 L80 160 C80 72 146 0 239 0 L322 0 C413 0 478 72 478 160 L478 213 C478 221 473 226 465 226 L396 226 C388 226 383 221 383 213 L383 170 C383 124 353 85 311 85 L246 85 C204 85 175 124 175 170 L175 204 C175 291 204 307 253 324 C307 343 365 364 365 507 L365 519 Z M368 612 C368 604 363 599 355 599 L280 599 C272 599 267 604 267 612 L267 692 C267 700 272 705 280 705 L355 705 C363 705 368 700 368 692 L368 612 Z " />
<glyph glyph-name="Agrave" unicode="&#xc0;" horiz-adv-x="556" d="M306 751 C315 751 320 756 320 765 L264 883 C260 891 255 897 247 897 L186 897 C178 897 172 892 172 883 L228 765 C232 757 237 751 245 751 L306 751 Z M232 700 C224 700 221 695 219 687 L35 13 C35 5 40 0 48 0 L121 0 C129 0 132 5 135 13 L164 125 L391 125 L421 13 C424 5 427 0 435 0 L508 0 C516 0 521 5 521 13 L337 687 C335 695 332 700 324 700 L232 700 Z M273 542 L283 542 L369 210 L186 210 L273 542 Z " />
<glyph glyph-name="Aacute" unicode="&#xc1;" horiz-adv-x="556" d="M315 751 C323 751 328 757 332 765 L388 883 C388 892 382 897 374 897 L313 897 C305 897 300 891 296 883 L240 765 C240 756 245 751 254 751 L315 751 Z M232 700 C224 700 221 695 219 687 L35 13 C35 5 40 0 48 0 L121 0 C129 0 132 5 135 13 L164 125 L391 125 L421 13 C424 5 427 0 435 0 L508 0 C516 0 521 5 521 13 L337 687 C335 695 332 700 324 700 L232 700 Z M273 542 L283 542 L369 210 L186 210 L273 542 Z " />
<glyph glyph-name="Acircumflex" unicode="&#xc2;" horiz-adv-x="556" d="M241 925 C233 925 227 920 223 911 L150 763 C150 756 155 751 163 751 L226 751 C232 751 237 757 240 763 L278 840 L316 763 C319 757 324 751 330 751 L393 751 C401 751 406 756 406 763 L333 911 C329 920 323 925 315 925 L241 925 Z M232 700 C224 700 221 695 219 687 L35 13 C35 5 40 0 48 0 L121 0 C129 0 132 5 135 13 L164 125 L391 125 L421 13 C424 5 427 0 435 0 L508 0 C516 0 521 5 521 13 L337 687 C335 695 332 700 324 700 L232 700 Z M273 542 L283 542 L369 210 L186 210 L273 542 Z " />
<glyph glyph-name="Atilde" unicode="&#xc3;" horiz-adv-x="556" d="M232 700 C224 700 221 695 219 687 L35 13 C35 5 40 0 48 0 L121 0 C129 0 132 5 135 13 L164 125 L391 125 L421 13 C424 5 427 0 435 0 L508 0 C516 0 521 5 521 13 L337 687 C335 695 332 700 324 700 L232 700 Z M273 542 L283 542 L369 210 L186 210 L273 542 Z M327 751 C346 751 363 759 383 771 C388 774 391 779 391 785 L376 837 C374 843 369 845 364 845 C362 845 360 845 357 844 C344 840 334 836 327 836 C272 836 281 867 229 867 C210 867 193 859 173 847 C168 844 165 839 165 833 L180 781 C182 775 187 773 192 773 C194 773 196 773 199 774 C212 778 222 782 229 782 C284 782 274 751 327 751 L327 751 Z " />
<glyph glyph-name="Adieresis" unicode="&#xc4;" horiz-adv-x="556" d="M146 766 C146 757 152 751 161 751 L232 751 C241 751 247 757 247 766 L247 843 C247 852 241 858 232 858 L161 858 C152 858 146 852 146 843 L146 766 Z M309 766 C309 757 315 751 324 751 L395 751 C404 751 410 757 410 766 L410 843 C410 852 404 858 395 858 L324 858 C315 858 309 852 309 843 L309 766 Z M232 700 C224 700 221 695 219 687 L35 13 C35 5 40 0 48 0 L121 0 C129 0 132 5 135 13 L164 125 L391 125 L421 13 C424 5 427 0 435 0 L508 0 C516 0 521 5 521 13 L337 687 C335 695 332 700 324 700 L232 700 Z M273 542 L283 542 L369 210 L186 210 L273 542 Z " />
<glyph glyph-name="Aring" unicode="&#xc5;" horiz-adv-x="556" d="M278 886 C207 886 149 829 149 757 C149 711 172 671 208 648 L35 13 C35 5 40 0 48 0 L121 0 C129 0 132 5 135 13 L164 125 L391 125 L421 13 C424 5 427 0 435 0 L508 0 C516 0 521 5 521 13 L347 648 C383 671 407 711 407 757 C407 829 349 886 278 886 L278 886 Z M273 542 L283 542 L369 210 L186 210 L273 542 Z M278 700 C246 700 221 728 221 757 C221 790 246 814 278 814 C310 814 335 790 335 757 C335 728 310 700 278 700 L278 700 Z " />
<glyph glyph-name="AE" unicode="&#xc6;" horiz-adv-x="815" d="M414 210 L217 210 L388 612 L414 612 L414 210 Z M30 13 C30 5 35 0 43 0 L113 0 C121 0 129 6 132 13 L180 125 L414 125 L414 13 C414 5 419 0 427 0 L732 0 C740 0 745 5 745 13 L745 72 C745 80 740 85 732 85 L509 85 L509 293 L708 293 C716 293 721 298 721 306 L721 365 C721 373 716 378 708 378 L509 378 L509 615 L732 615 C740 615 745 620 745 628 L745 687 C745 695 740 700 732 700 L335 700 C326 700 318 692 314 684 L30 13 Z " />
<glyph glyph-name="Ccedilla" unicode="&#xc7;" horiz-adv-x="532" d="M216 -52 C214 -55 213 -58 213 -60 L213 -93 C213 -98 217 -102 222 -102 L277 -102 C277 -102 301 -102 301 -125 C301 -146 277 -146 277 -146 L217 -146 C212 -146 208 -150 208 -155 L208 -186 C208 -191 212 -195 217 -195 L294 -195 C341 -195 356 -178 356 -119 C356 -71 318 -53 279 -53 L304 -5 L319 -5 C412 -5 477 67 477 155 L477 193 C477 201 472 206 464 206 L395 206 C387 206 382 201 382 193 L382 165 C382 117 352 80 310 80 L237 80 C195 80 165 117 165 165 L165 535 C165 581 195 620 237 620 L310 620 C352 620 382 581 382 535 L382 502 C382 494 387 489 395 489 L464 489 C472 489 477 494 477 502 L477 545 C477 633 412 705 319 705 L228 705 C135 705 70 633 70 545 L70 155 C70 67 135 -5 228 -5 L241 -5 L216 -52 Z " />
<glyph glyph-name="Egrave" unicode="&#xc8;" horiz-adv-x="481" d="M280 751 C289 751 294 756 294 765 L238 883 C234 891 229 897 221 897 L160 897 C152 897 146 892 146 883 L202 765 C206 757 211 751 219 751 L280 751 Z M80 13 C80 5 85 0 93 0 L398 0 C406 0 411 5 411 13 L411 72 C411 80 406 85 398 85 L175 85 L175 293 L374 293 C382 293 387 298 387 306 L387 365 C387 373 382 378 374 378 L175 378 L175 615 L398 615 C406 615 411 620 411 628 L411 687 C411 695 406 700 398 700 L93 700 C85 700 80 695 80 687 L80 13 Z " />
<glyph glyph-name="Eacute" unicode="&#xc9;" horiz-adv-x="481" d="M282 751 C290 751 295 757 299 765 L355 883 C355 892 349 897 341 897 L280 897 C272 897 267 891 263 883 L207 765 C207 756 212 751 221 751 L282 751 Z M80 13 C80 5 85 0 93 0 L398 0 C406 0 411 5 411 13 L411 72 C411 80 406 85 398 85 L175 85 L175 293 L374 293 C382 293 387 298 387 306 L387 365 C387 373 382 378 374 378 L175 378 L175 615 L398 615 C406 615 411 620 411 628 L411 687 C411 695 406 700 398 700 L93 700 C85 700 80 695 80 687 L80 13 Z " />
<glyph glyph-name="Ecircumflex" unicode="&#xca;" horiz-adv-x="481" d="M209 925 C201 925 195 920 191 911 L118 763 C118 756 123 751 131 751 L194 751 C200 751 205 757 208 763 L246 840 L284 763 C287 757 292 751 298 751 L361 751 C369 751 374 756 374 763 L301 911 C297 920 291 925 283 925 L209 925 Z M80 13 C80 5 85 0 93 0 L398 0 C406 0 411 5 411 13 L411 72 C411 80 406 85 398 85 L175 85 L175 293 L374 293 C382 293 387 298 387 306 L387 365 C387 373 382 378 374 378 L175 378 L175 615 L398 615 C406 615 411 620 411 628 L411 687 C411 695 406 700 398 700 L93 700 C85 700 80 695 80 687 L80 13 Z " />
<glyph glyph-name="Edieresis" unicode="&#xcb;" horiz-adv-x="481" d="M112 766 C112 757 118 751 127 751 L198 751 C207 751 213 757 213 766 L213 843 C213 852 207 858 198 858 L127 858 C118 858 112 852 112 843 L112 766 Z M275 766 C275 757 281 751 290 751 L361 751 C370 751 376 757 376 766 L376 843 C376 852 370 858 361 858 L290 858 C281 858 275 852 275 843 L275 766 Z M80 13 C80 5 85 0 93 0 L398 0 C406 0 411 5 411 13 L411 72 C411 80 406 85 398 85 L175 85 L175 293 L374 293 C382 293 387 298 387 306 L387 365 C387 373 382 378 374 378 L175 378 L175 615 L398 615 C406 615 411 620 411 628 L411 687 C411 695 406 700 398 700 L93 700 C85 700 80 695 80 687 L80 13 Z " />
<glyph glyph-name="Igrave" unicode="&#xcc;" horiz-adv-x="255" d="M80 13 C80 5 85 0 93 0 L162 0 C170 0 175 5 175 13 L175 687 C175 695 170 700 162 700 L93 700 C85 700 80 695 80 687 L80 13 Z M155 751 C164 751 169 756 169 765 L113 883 C109 891 104 897 96 897 L35 897 C27 897 21 892 21 883 L77 765 C81 757 86 751 94 751 L155 751 Z " />
<glyph glyph-name="Iacute" unicode="&#xcd;" horiz-adv-x="255" d="M80 13 C80 5 85 0 93 0 L162 0 C170 0 175 5 175 13 L175 687 C175 695 170 700 162 700 L93 700 C85 700 80 695 80 687 L80 13 Z M160 751 C168 751 173 757 177 765 L233 883 C233 892 227 897 219 897 L158 897 C150 897 145 891 141 883 L85 765 C85 756 90 751 99 751 L160 751 Z " />
<glyph glyph-name="Icircumflex" unicode="&#xce;" horiz-adv-x="255" d="M80 13 C80 5 85 0 93 0 L162 0 C170 0 175 5 175 13 L175 687 C175 695 170 700 162 700 L93 700 C85 700 80 695 80 687 L80 13 Z M90 943 C82 943 76 938 72 929 L-1 781 C-1 774 4 769 12 769 L75 769 C81 769 86 775 89 781 L127 858 L165 781 C168 775 173 769 179 769 L242 769 C250 769 255 774 255 781 L182 929 C178 938 172 943 164 943 L90 943 Z " />
<glyph glyph-name="Idieresis" unicode="&#xcf;" horiz-adv-x="255" d="M80 13 C80 5 85 0 93 0 L162 0 C170 0 175 5 175 13 L175 687 C175 695 170 700 162 700 L93 700 C85 700 80 695 80 687 L80 13 Z M-5 766 C-5 757 1 751 10 751 L81 751 C90 751 96 757 96 766 L96 843 C96 852 90 858 81 858 L10 858 C1 858 -5 852 -5 843 L-5 766 Z M158 766 C158 757 164 751 173 751 L244 751 C253 751 259 757 259 766 L259 843 C259 852 253 858 244 858 L173 858 C164 858 158 852 158 843 L158 766 Z " />
<glyph glyph-name="Eth" unicode="&#xd0;" horiz-adv-x="573" d="M33 393 C25 393 20 388 20 380 L20 321 C20 313 25 308 33 308 L96 308 L96 13 C96 5 101 0 109 0 L336 0 C428 0 503 72 503 161 L503 539 C503 628 428 700 336 700 L109 700 C101 700 96 695 96 687 L96 393 L33 393 Z M326 615 C369 615 408 575 408 530 L408 170 C408 122 369 85 326 85 L191 85 L191 308 L265 308 C273 308 278 313 278 321 L278 380 C278 388 273 393 265 393 L191 393 L191 615 L326 615 Z " />
<glyph glyph-name="Ntilde" unicode="&#xd1;" horiz-adv-x="597" d="M380 13 C384 6 390 0 398 0 L504 0 C512 0 517 5 517 13 L517 687 C517 695 512 700 504 700 L435 700 C427 700 422 695 422 687 L422 191 L412 191 L217 687 C213 694 207 700 199 700 L93 700 C85 700 80 695 80 687 L80 13 C80 5 85 0 93 0 L162 0 C170 0 175 5 175 13 L175 511 L186 511 L380 13 Z M344 751 C363 751 380 759 400 771 C405 774 408 779 408 785 L393 837 C391 843 386 845 381 845 C379 845 377 845 374 844 C361 840 351 836 344 836 C289 836 298 867 246 867 C227 867 210 859 190 847 C185 844 182 839 182 833 L197 781 C199 775 204 773 209 773 C211 773 213 773 216 774 C229 778 239 782 246 782 C301 782 291 751 344 751 L344 751 Z " />
<glyph glyph-name="Ograve" unicode="&#xd2;" horiz-adv-x="547" d="M300 751 C309 751 314 756 314 765 L258 883 C254 891 249 897 241 897 L180 897 C172 897 166 892 166 883 L222 765 C226 757 231 751 239 751 L300 751 Z M228 705 C135 705 70 633 70 545 L70 155 C70 67 135 -5 228 -5 L319 -5 C412 -5 477 67 477 155 L477 545 C477 633 412 705 319 705 L228 705 Z M237 80 C195 80 165 117 165 165 L165 535 C165 581 195 620 237 620 L310 620 C352 620 382 581 382 535 L382 165 C382 117 352 80 310 80 L237 80 Z " />
<glyph glyph-name="Oacute" unicode="&#xd3;" horiz-adv-x="547" d="M311 751 C319 751 324 757 328 765 L384 883 C384 892 378 897 370 897 L309 897 C301 897 296 891 292 883 L236 765 C236 756 241 751 250 751 L311 751 Z M228 705 C135 705 70 633 70 545 L70 155 C70 67 135 -5 228 -5 L319 -5 C412 -5 477 67 477 155 L477 545 C477 633 412 705 319 705 L228 705 Z M237 80 C195 80 165 117 165 165 L165 535 C165 581 195 620 237 620 L310 620 C352 620 382 581 382 535 L382 165 C382 117 352 80 310 80 L237 80 Z " />
<glyph glyph-name="Ocircumflex" unicode="&#xd4;" horiz-adv-x="547" d="M236 925 C228 925 222 920 218 911 L145 763 C145 756 150 751 158 751 L221 751 C227 751 232 757 235 763 L273 840 L311 763 C314 757 319 751 325 751 L388 751 C396 751 401 756 401 763 L328 911 C324 920 318 925 310 925 L236 925 Z M228 705 C135 705 70 633 70 545 L70 155 C70 67 135 -5 228 -5 L319 -5 C412 -5 477 67 477 155 L477 545 C477 633 412 705 319 705 L228 705 Z M237 80 C195 80 165 117 165 165 L165 535 C165 581 195 620 237 620 L310 620 C352 620 382 581 382 535 L382 165 C382 117 352 80 310 80 L237 80 Z " />
<glyph glyph-name="Otilde" unicode="&#xd5;" horiz-adv-x="547" d="M228 705 C135 705 70 633 70 545 L70 155 C70 67 135 -5 228 -5 L319 -5 C412 -5 477 67 477 155 L477 545 C477 633 412 705 319 705 L228 705 Z M237 80 C195 80 165 117 165 165 L165 535 C165 581 195 620 237 620 L310 620 C352 620 382 581 382 535 L382 165 C382 117 352 80 310 80 L237 80 Z M323 751 C342 751 359 759 379 771 C384 774 387 779 387 785 L372 837 C370 843 365 845 360 845 C358 845 356 845 353 844 C340 840 330 836 323 836 C268 836 277 867 225 867 C206 867 189 859 169 847 C164 844 161 839 161 833 L176 781 C178 775 183 773 188 773 C190 773 192 773 195 774 C208 778 218 782 225 782 C280 782 270 751 323 751 L323 751 Z " />
<glyph glyph-name="Odieresis" unicode="&#xd6;" horiz-adv-x="547" d="M141 766 C141 757 147 751 156 751 L227 751 C236 751 242 757 242 766 L242 843 C242 852 236 858 227 858 L156 858 C147 858 141 852 141 843 L141 766 Z M304 766 C304 757 310 751 319 751 L390 751 C399 751 405 757 405 766 L405 843 C405 852 399 858 390 858 L319 858 C310 858 304 852 304 843 L304 766 Z M228 705 C135 705 70 633 70 545 L70 155 C70 67 135 -5 228 -5 L319 -5 C412 -5 477 67 477 155 L477 545 C477 633 412 705 319 705 L228 705 Z M237 80 C195 80 165 117 165 165 L165 535 C165 581 195 620 237 620 L310 620 C352 620 382 581 382 535 L382 165 C382 117 352 80 310 80 L237 80 Z " />
<glyph glyph-name="multiply" unicode="&#xd7;" horiz-adv-x="412" d="M206 124 L273 56 C276 53 279 53 281 53 C284 53 287 54 289 56 L329 96 C331 99 332 101 332 105 C332 107 331 110 329 113 L263 179 L329 245 C331 248 332 251 332 253 C332 257 331 259 329 262 L289 302 C287 304 284 305 281 305 C279 305 276 305 273 302 L206 234 L139 302 C136 305 133 305 131 305 C128 305 125 304 123 302 L83 262 C81 259 80 257 80 253 C80 251 81 248 83 245 L149 179 L83 113 C81 110 80 107 80 105 C80 101 81 99 83 96 L123 56 C125 54 128 53 131 53 C133 53 136 53 139 56 L206 124 Z " />
<glyph glyph-name="Oslash" unicode="&#xd8;" horiz-adv-x="547" d="M86 -78 C86 -86 91 -91 99 -91 L172 -91 C180 -91 183 -86 186 -78 L209 -4 C215 -4 221 -5 228 -5 L319 -5 C412 -5 477 67 477 155 L477 545 C477 593 457 636 425 665 L461 778 C461 786 456 791 448 791 L375 791 C367 791 364 786 361 778 L337 704 C331 704 325 705 319 705 L228 705 C135 705 70 633 70 545 L70 155 C70 107 89 64 122 34 L86 -78 Z M237 80 L382 532 L382 165 C382 117 352 80 310 80 L237 80 Z M165 535 C165 581 195 620 237 620 L310 620 L165 168 L165 535 Z " />
<glyph glyph-name="Ugrave" unicode="&#xd9;" horiz-adv-x="557" d="M305 751 C314 751 319 756 319 765 L263 883 C259 891 254 897 246 897 L185 897 C177 897 171 892 171 883 L227 765 C231 757 236 751 244 751 L305 751 Z M387 165 C387 117 357 80 315 80 L242 80 C200 80 170 117 170 165 L170 687 C170 695 165 700 157 700 L88 700 C80 700 75 695 75 687 L75 155 C75 67 140 -5 233 -5 L324 -5 C417 -5 482 67 482 155 L482 687 C482 695 477 700 469 700 L400 700 C392 700 387 695 387 687 L387 165 Z " />
<glyph glyph-name="Uacute" unicode="&#xda;" horiz-adv-x="557" d="M313 751 C321 751 326 757 330 765 L386 883 C386 892 380 897 372 897 L311 897 C303 897 298 891 294 883 L238 765 C238 756 243 751 252 751 L313 751 Z M387 165 C387 117 357 80 315 80 L242 80 C200 80 170 117 170 165 L170 687 C170 695 165 700 157 700 L88 700 C80 700 75 695 75 687 L75 155 C75 67 140 -5 233 -5 L324 -5 C417 -5 482 67 482 155 L482 687 C482 695 477 700 469 700 L400 700 C392 700 387 695 387 687 L387 165 Z " />
<glyph glyph-name="Ucircumflex" unicode="&#xdb;" horiz-adv-x="557" d="M241 925 C233 925 227 920 223 911 L150 763 C150 756 155 751 163 751 L226 751 C232 751 237 757 240 763 L278 840 L316 763 C319 757 324 751 330 751 L393 751 C401 751 406 756 406 763 L333 911 C329 920 323 925 315 925 L241 925 Z M387 165 C387 117 357 80 315 80 L242 80 C200 80 170 117 170 165 L170 687 C170 695 165 700 157 700 L88 700 C80 700 75 695 75 687 L75 155 C75 67 140 -5 233 -5 L324 -5 C417 -5 482 67 482 155 L482 687 C482 695 477 700 469 700 L400 700 C392 700 387 695 387 687 L387 165 Z " />
<glyph glyph-name="Udieresis" unicode="&#xdc;" horiz-adv-x="557" d="M146 766 C146 757 152 751 161 751 L232 751 C241 751 247 757 247 766 L247 843 C247 852 241 858 232 858 L161 858 C152 858 146 852 146 843 L146 766 Z M309 766 C309 757 315 751 324 751 L395 751 C404 751 410 757 410 766 L410 843 C410 852 404 858 395 858 L324 858 C315 858 309 852 309 843 L309 766 Z M387 165 C387 117 357 80 315 80 L242 80 C200 80 170 117 170 165 L170 687 C170 695 165 700 157 700 L88 700 C80 700 75 695 75 687 L75 155 C75 67 140 -5 233 -5 L324 -5 C417 -5 482 67 482 155 L482 687 C482 695 477 700 469 700 L400 700 C392 700 387 695 387 687 L387 165 Z " />
<glyph glyph-name="Yacute" unicode="&#xdd;" horiz-adv-x="529" d="M300 751 C308 751 313 757 317 765 L373 883 C373 892 367 897 359 897 L298 897 C290 897 285 891 281 883 L225 765 C225 756 230 751 239 751 L300 751 Z M312 220 L499 687 C499 695 494 700 486 700 L415 700 C407 700 404 697 400 689 L269 358 L260 358 L129 689 C125 697 122 700 114 700 L43 700 C35 700 30 695 30 687 L217 220 L217 13 C217 5 222 0 230 0 L299 0 C307 0 312 5 312 13 L312 220 Z " />
<glyph glyph-name="Thorn" unicode="&#xde;" horiz-adv-x="538" d="M175 193 L175 506 L302 506 C344 506 383 466 383 421 L383 277 C383 230 344 193 302 193 L175 193 Z M175 591 L175 687 C175 695 170 700 162 700 L93 700 C85 700 80 695 80 687 L80 13 C80 5 85 0 93 0 L162 0 C170 0 175 5 175 13 L175 108 L310 108 C403 108 478 180 478 269 L478 430 C478 519 403 591 310 591 L175 591 Z " />
<glyph glyph-name="germandbls" unicode="&#xdf;" horiz-adv-x="528" d="M310 0 C403 0 478 72 478 161 L478 229 C478 277 458 325 399 364 C428 388 447 439 447 471 L447 539 C447 628 372 700 279 700 L93 700 C85 700 80 695 80 687 L80 13 C80 5 85 0 93 0 L162 0 C170 0 175 5 175 13 L175 616 L270 616 C312 616 352 576 352 531 L352 478 C352 430 312 393 270 393 L237 393 C229 393 224 388 224 380 L224 321 C224 313 229 308 237 308 L302 308 C344 308 383 269 383 223 L383 170 C383 122 344 85 302 85 L257 85 C249 85 244 80 244 72 L244 13 C244 5 249 0 257 0 L310 0 Z " />
<glyph glyph-name="agrave" unicode="&#xe0;" horiz-adv-x="458" d="M275 571 C284 571 289 576 289 585 L233 703 C229 711 224 717 216 717 L155 717 C147 717 141 712 141 703 L197 585 C201 577 206 571 214 571 L275 571 Z M205 80 C170 80 155 111 155 146 L155 161 C155 196 170 225 205 225 L298 225 L298 146 C298 111 281 80 247 80 L205 80 Z M106 500 C100 497 97 494 97 488 C97 486 97 482 111 429 C113 420 118 420 123 420 C159 430 178 435 211 435 C298 435 298 368 298 335 L298 310 L188 310 C102 310 60 260 60 178 L60 124 C60 42 102 -5 188 -5 L206 -5 C246 -5 271 7 290 32 L298 32 L298 13 C298 5 303 0 311 0 L380 0 C388 0 393 5 393 13 L393 336 C393 382 392 520 221 520 C156 520 132 510 106 500 L106 500 Z " />
<glyph glyph-name="aacute" unicode="&#xe1;" horiz-adv-x="458" d="M280 571 C288 571 293 577 297 585 L353 703 C353 712 347 717 339 717 L278 717 C270 717 265 711 261 703 L205 585 C205 576 210 571 219 571 L280 571 Z M205 80 C170 80 155 111 155 146 L155 161 C155 196 170 225 205 225 L298 225 L298 146 C298 111 281 80 247 80 L205 80 Z M106 500 C100 497 97 494 97 488 C97 486 97 482 111 429 C113 420 118 420 123 420 C159 430 178 435 211 435 C298 435 298 368 298 335 L298 310 L188 310 C102 310 60 260 60 178 L60 124 C60 42 102 -5 188 -5 L206 -5 C246 -5 271 7 290 32 L298 32 L298 13 C298 5 303 0 311 0 L380 0 C388 0 393 5 393 13 L393 336 C393 382 392 520 221 520 C156 520 132 510 106 500 L106 500 Z " />
<glyph glyph-name="acircumflex" unicode="&#xe2;" horiz-adv-x="458" d="M216 745 C208 745 202 740 198 731 L125 583 C125 576 130 571 138 571 L201 571 C207 571 212 577 215 583 L253 660 L291 583 C294 577 299 571 305 571 L368 571 C376 571 381 576 381 583 L308 731 C304 740 298 745 290 745 L216 745 Z M205 80 C170 80 155 111 155 146 L155 161 C155 196 170 225 205 225 L298 225 L298 146 C298 111 281 80 247 80 L205 80 Z M106 500 C100 497 97 494 97 488 C97 486 97 482 111 429 C113 420 118 420 123 420 C159 430 178 435 211 435 C298 435 298 368 298 335 L298 310 L188 310 C102 310 60 260 60 178 L60 124 C60 42 102 -5 188 -5 L206 -5 C246 -5 271 7 290 32 L298 32 L298 13 C298 5 303 0 311 0 L380 0 C388 0 393 5 393 13 L393 336 C393 382 392 520 221 520 C156 520 132 510 106 500 L106 500 Z " />
<glyph glyph-name="atilde" unicode="&#xe3;" horiz-adv-x="458" d="M304 571 C323 571 346 579 366 591 C371 594 374 599 374 605 L359 657 C357 663 352 665 347 665 C345 665 343 665 340 664 C327 660 311 656 304 656 C249 656 238 698 186 698 C167 698 144 690 124 678 C119 675 116 670 116 664 L131 612 C133 606 138 604 143 604 C145 604 147 604 150 605 C163 609 179 613 186 613 C241 613 251 571 304 571 L304 571 Z M205 80 C170 80 155 111 155 146 L155 161 C155 196 170 225 205 225 L298 225 L298 146 C298 111 281 80 247 80 L205 80 Z M106 500 C100 497 97 494 97 488 C97 486 97 482 111 429 C113 420 118 420 123 420 C159 430 178 435 211 435 C298 435 298 368 298 335 L298 310 L188 310 C102 310 60 260 60 178 L60 124 C60 42 102 -5 188 -5 L206 -5 C246 -5 271 7 290 32 L298 32 L298 13 C298 5 303 0 311 0 L380 0 C388 0 393 5 393 13 L393 336 C393 382 392 520 221 520 C156 520 132 510 106 500 L106 500 Z " />
<glyph glyph-name="adieresis" unicode="&#xe4;" horiz-adv-x="458" d="M121 586 C121 577 127 571 136 571 L207 571 C216 571 222 577 222 586 L222 663 C222 672 216 678 207 678 L136 678 C127 678 121 672 121 663 L121 586 Z M284 586 C284 577 290 571 299 571 L370 571 C379 571 385 577 385 586 L385 663 C385 672 379 678 370 678 L299 678 C290 678 284 672 284 663 L284 586 Z M205 80 C170 80 155 111 155 146 L155 161 C155 196 170 225 205 225 L298 225 L298 146 C298 111 281 80 247 80 L205 80 Z M106 500 C100 497 97 494 97 488 C97 486 97 482 111 429 C113 420 118 420 123 420 C159 430 178 435 211 435 C298 435 298 368 298 335 L298 310 L188 310 C102 310 60 260 60 178 L60 124 C60 42 102 -5 188 -5 L206 -5 C246 -5 271 7 290 32 L298 32 L298 13 C298 5 303 0 311 0 L380 0 C388 0 393 5 393 13 L393 336 C393 382 392 520 221 520 C156 520 132 510 106 500 L106 500 Z " />
<glyph glyph-name="aring" unicode="&#xe5;" horiz-adv-x="458" d="M247 829 C176 829 118 772 118 700 C118 629 176 571 247 571 C318 571 376 629 376 700 C376 772 318 829 247 829 L247 829 Z M247 643 C215 643 190 671 190 700 C190 733 215 757 247 757 C279 757 304 733 304 700 C304 671 279 643 247 643 L247 643 Z M205 80 C170 80 155 111 155 146 L155 161 C155 196 170 225 205 225 L298 225 L298 146 C298 111 281 80 247 80 L205 80 Z M106 500 C100 497 97 494 97 488 C97 486 97 482 111 429 C113 420 118 420 123 420 C159 430 178 435 211 435 C298 435 298 368 298 335 L298 310 L188 310 C102 310 60 260 60 178 L60 124 C60 42 102 -5 188 -5 L206 -5 C246 -5 271 7 290 32 L298 32 L298 13 C298 5 303 0 311 0 L380 0 C388 0 393 5 393 13 L393 336 C393 382 392 520 221 520 C156 520 132 510 106 500 L106 500 Z " />
<glyph glyph-name="ae" unicode="&#xe6;" horiz-adv-x="690" d="M547 105 C534 90 520 80 487 80 L450 80 C418 80 395 108 393 141 L393 216 L617 216 C625 216 630 221 630 229 L630 374 C630 446 584 520 495 520 L432 520 C393 520 362 505 340 483 C315 504 277 520 221 520 C156 520 132 510 106 500 C100 497 97 494 97 488 C97 486 97 482 111 429 C113 420 118 420 123 420 C159 430 178 435 211 435 C298 435 298 368 298 335 L298 310 L188 310 C102 310 60 260 60 178 L60 124 C60 42 102 -5 188 -5 L224 -5 C264 -5 297 9 321 46 L328 46 C351 15 386 -5 432 -5 L487 -5 C487 -5 563 -5 612 56 C614 59 615 61 615 64 C615 67 612 71 610 73 L566 108 C563 110 561 111 558 111 C554 111 549 108 547 105 L547 105 Z M205 80 C170 80 155 111 155 146 L155 161 C155 196 170 225 205 225 L298 225 L298 141 C296 108 279 80 247 80 L205 80 Z M393 369 C393 404 417 435 450 435 L479 435 C512 435 535 404 535 369 L535 301 L393 301 L393 369 Z " />
<glyph glyph-name="ccedilla" unicode="&#xe7;" horiz-adv-x="442" d="M176 -52 C174 -55 173 -58 173 -60 L173 -93 C173 -98 177 -102 182 -102 L237 -102 C237 -102 261 -102 261 -125 C261 -146 237 -146 237 -146 L177 -146 C172 -146 168 -150 168 -155 L168 -186 C168 -191 172 -195 177 -195 L254 -195 C301 -195 316 -178 316 -119 C316 -71 278 -53 239 -53 L262 -5 C351 -4 397 69 397 141 L397 157 C397 165 392 170 384 170 L315 170 C307 170 302 165 302 157 L302 146 C302 111 279 80 246 80 L217 80 C184 80 160 111 160 146 L160 369 C160 404 184 435 217 435 L246 435 C279 435 302 404 302 369 L302 358 C302 350 307 345 315 345 L384 345 C392 345 397 350 397 358 L397 374 C397 446 351 520 262 520 L199 520 C112 520 65 446 65 374 L65 141 C65 69 112 -5 199 -5 L176 -52 Z " />
<glyph glyph-name="egrave" unicode="&#xe8;" horiz-adv-x="457" d="M258 571 C267 571 272 576 272 585 L216 703 C212 711 207 717 199 717 L138 717 C130 717 124 712 124 703 L180 585 C184 577 189 571 197 571 L258 571 Z M314 105 C301 90 287 80 254 80 L217 80 C184 80 160 111 160 146 L160 216 L384 216 C392 216 397 221 397 229 L397 374 C397 446 351 520 262 520 L199 520 C112 520 65 446 65 374 L65 141 C65 69 112 -5 199 -5 L254 -5 C254 -5 330 -5 379 56 C381 59 382 61 382 64 C382 67 379 71 377 73 L333 108 C330 110 328 111 325 111 C321 111 316 108 314 105 L314 105 Z M160 369 C160 404 184 435 217 435 L246 435 C279 435 302 404 302 369 L302 301 L160 301 L160 369 Z " />
<glyph glyph-name="eacute" unicode="&#xe9;" horiz-adv-x="457" d="M265 571 C273 571 278 577 282 585 L338 703 C338 712 332 717 324 717 L263 717 C255 717 250 711 246 703 L190 585 C190 576 195 571 204 571 L265 571 Z M314 105 C301 90 287 80 254 80 L217 80 C184 80 160 111 160 146 L160 216 L384 216 C392 216 397 221 397 229 L397 374 C397 446 351 520 262 520 L199 520 C112 520 65 446 65 374 L65 141 C65 69 112 -5 199 -5 L254 -5 C254 -5 330 -5 379 56 C381 59 382 61 382 64 C382 67 379 71 377 73 L333 108 C330 110 328 111 325 111 C321 111 316 108 314 105 L314 105 Z M160 369 C160 404 184 435 217 435 L246 435 C279 435 302 404 302 369 L302 301 L160 301 L160 369 Z " />
<glyph glyph-name="ecircumflex" unicode="&#xea;" horiz-adv-x="457" d="M193 745 C185 745 179 740 175 731 L102 583 C102 576 107 571 115 571 L178 571 C184 571 189 577 192 583 L230 660 L268 583 C271 577 276 571 282 571 L345 571 C353 571 358 576 358 583 L285 731 C281 740 275 745 267 745 L193 745 Z M314 105 C301 90 287 80 254 80 L217 80 C184 80 160 111 160 146 L160 216 L384 216 C392 216 397 221 397 229 L397 374 C397 446 351 520 262 520 L199 520 C112 520 65 446 65 374 L65 141 C65 69 112 -5 199 -5 L254 -5 C254 -5 330 -5 379 56 C381 59 382 61 382 64 C382 67 379 71 377 73 L333 108 C330 110 328 111 325 111 C321 111 316 108 314 105 L314 105 Z M160 369 C160 404 184 435 217 435 L246 435 C279 435 302 404 302 369 L302 301 L160 301 L160 369 Z " />
<glyph glyph-name="edieresis" unicode="&#xeb;" horiz-adv-x="457" d="M101 586 C101 577 107 571 116 571 L187 571 C196 571 202 577 202 586 L202 663 C202 672 196 678 187 678 L116 678 C107 678 101 672 101 663 L101 586 Z M264 586 C264 577 270 571 279 571 L350 571 C359 571 365 577 365 586 L365 663 C365 672 359 678 350 678 L279 678 C270 678 264 672 264 663 L264 586 Z M314 105 C301 90 287 80 254 80 L217 80 C184 80 160 111 160 146 L160 216 L384 216 C392 216 397 221 397 229 L397 374 C397 446 351 520 262 520 L199 520 C112 520 65 446 65 374 L65 141 C65 69 112 -5 199 -5 L254 -5 C254 -5 330 -5 379 56 C381 59 382 61 382 64 C382 67 379 71 377 73 L333 108 C330 110 328 111 325 111 C321 111 316 108 314 105 L314 105 Z M160 369 C160 404 184 435 217 435 L246 435 C279 435 302 404 302 369 L302 301 L160 301 L160 369 Z " />
<glyph glyph-name="igrave" unicode="&#xec;" horiz-adv-x="255" d="M80 13 C80 5 85 0 93 0 L162 0 C170 0 175 5 175 13 L175 502 C175 510 170 515 162 515 L93 515 C85 515 80 510 80 502 L80 13 Z M155 571 C164 571 169 576 169 585 L113 703 C109 711 104 717 96 717 L35 717 C27 717 21 712 21 703 L77 585 C81 577 86 571 94 571 L155 571 Z " />
<glyph glyph-name="iacute" unicode="&#xed;" horiz-adv-x="255" d="M175 502 C175 510 170 515 162 515 L93 515 C85 515 80 510 80 502 L80 13 C80 5 85 0 93 0 L162 0 C170 0 175 5 175 13 L175 502 Z M161 571 C169 571 174 577 178 585 L234 703 C234 712 228 717 220 717 L159 717 C151 717 146 711 142 703 L86 585 C86 576 91 571 100 571 L161 571 Z " />
<glyph glyph-name="icircumflex" unicode="&#xee;" horiz-adv-x="255" d="M80 13 C80 5 85 0 93 0 L162 0 C170 0 175 5 175 13 L175 502 C175 510 170 515 162 515 L93 515 C85 515 80 510 80 502 L80 13 Z M90 742 C82 742 76 737 72 728 L-1 580 C-1 573 4 568 12 568 L75 568 C81 568 86 574 89 580 L127 657 L165 580 C168 574 173 568 179 568 L242 568 C250 568 255 573 255 580 L182 728 C178 737 172 742 164 742 L90 742 Z " />
<glyph glyph-name="idieresis" unicode="&#xef;" horiz-adv-x="255" d="M80 13 C80 5 85 0 93 0 L162 0 C170 0 175 5 175 13 L175 502 C175 510 170 515 162 515 L93 515 C85 515 80 510 80 502 L80 13 Z M-5 586 C-5 577 1 571 10 571 L81 571 C90 571 96 577 96 586 L96 663 C96 672 90 678 81 678 L10 678 C1 678 -5 672 -5 663 L-5 586 Z M158 586 C158 577 164 571 173 571 L244 571 C253 571 259 577 259 586 L259 663 C259 672 253 678 244 678 L173 678 C164 678 158 672 158 663 L158 586 Z " />
<glyph glyph-name="eth" unicode="&#xf0;" horiz-adv-x="537" d="M178 558 L75 407 C72 400 70 394 70 385 L70 155 C70 67 145 -5 238 -5 L310 -5 C401 -5 477 67 477 155 L477 262 C477 349 401 421 310 421 L245 421 C234 421 212 421 181 403 L172 403 L278 558 L411 558 C418 558 422 562 422 569 L422 621 C422 628 418 632 411 632 L330 632 L367 687 C367 695 364 700 356 700 L287 700 C280 700 272 694 268 687 L229 632 L113 632 C106 632 102 628 102 621 L102 569 C102 562 106 558 113 558 L178 558 Z M246 80 C204 80 165 118 165 164 L165 251 C165 299 204 336 246 336 L300 336 C343 336 382 299 382 251 L382 164 C382 118 343 80 300 80 L246 80 Z " />
<glyph glyph-name="ntilde" unicode="&#xf1;" horiz-adv-x="492" d="M327 13 C327 5 332 0 340 0 L409 0 C417 0 422 5 422 13 L422 371 C422 454 398 520 312 520 L284 520 C264 520 214 519 183 459 L175 459 L175 502 C175 510 170 515 162 515 L93 515 C85 515 80 510 80 502 L80 13 C80 5 85 0 93 0 L162 0 C170 0 175 5 175 13 L175 359 C212 434 250 435 271 435 L279 435 C316 435 327 405 327 353 L327 13 Z M307 571 C326 571 349 579 369 591 C374 594 377 599 377 605 L362 657 C360 663 355 665 350 665 C348 665 346 665 343 664 C330 660 314 656 307 656 C252 656 241 698 189 698 C170 698 147 690 127 678 C122 675 119 670 119 664 L134 612 C136 606 141 604 146 604 C148 604 150 604 153 605 C166 609 182 613 189 613 C244 613 254 571 307 571 L307 571 Z " />
<glyph glyph-name="ograve" unicode="&#xf2;" horiz-adv-x="462" d="M251 571 C260 571 265 576 265 585 L209 703 C205 711 200 717 192 717 L131 717 C123 717 117 712 117 703 L173 585 C177 577 182 571 190 571 L251 571 Z M199 520 C112 520 65 446 65 374 L65 141 C65 69 112 -5 199 -5 L262 -5 C350 -5 397 69 397 141 L397 374 C397 446 350 520 263 520 L199 520 Z M217 80 C184 80 160 111 160 146 L160 369 C160 404 184 435 217 435 L245 435 C278 435 302 404 302 369 L302 146 C302 111 278 80 245 80 L217 80 Z " />
<glyph glyph-name="oacute" unicode="&#xf3;" horiz-adv-x="462" d="M259 571 C267 571 272 577 276 585 L332 703 C332 712 326 717 318 717 L257 717 C249 717 244 711 240 703 L184 585 C184 576 189 571 198 571 L259 571 Z M199 520 C112 520 65 446 65 374 L65 141 C65 69 112 -5 199 -5 L262 -5 C350 -5 397 69 397 141 L397 374 C397 446 350 520 263 520 L199 520 Z M217 80 C184 80 160 111 160 146 L160 369 C160 404 184 435 217 435 L245 435 C278 435 302 404 302 369 L302 146 C302 111 278 80 245 80 L217 80 Z " />
<glyph glyph-name="ocircumflex" unicode="&#xf4;" horiz-adv-x="462" d="M188 745 C180 745 174 740 170 731 L97 583 C97 576 102 571 110 571 L173 571 C179 571 184 577 187 583 L225 660 L263 583 C266 577 271 571 277 571 L340 571 C348 571 353 576 353 583 L280 731 C276 740 270 745 262 745 L188 745 Z M199 520 C112 520 65 446 65 374 L65 141 C65 69 112 -5 199 -5 L262 -5 C350 -5 397 69 397 141 L397 374 C397 446 350 520 263 520 L199 520 Z M217 80 C184 80 160 111 160 146 L160 369 C160 404 184 435 217 435 L245 435 C278 435 302 404 302 369 L302 146 C302 111 278 80 245 80 L217 80 Z " />
<glyph glyph-name="otilde" unicode="&#xf5;" horiz-adv-x="462" d="M281 571 C300 571 323 579 343 591 C348 594 351 599 351 605 L336 657 C334 663 329 665 324 665 C322 665 320 665 317 664 C304 660 288 656 281 656 C226 656 215 698 163 698 C144 698 121 690 101 678 C96 675 93 670 93 664 L108 612 C110 606 115 604 120 604 C122 604 124 604 127 605 C140 609 156 613 163 613 C218 613 228 571 281 571 L281 571 Z M199 520 C112 520 65 446 65 374 L65 141 C65 69 112 -5 199 -5 L262 -5 C350 -5 397 69 397 141 L397 374 C397 446 350 520 263 520 L199 520 Z M217 80 C184 80 160 111 160 146 L160 369 C160 404 184 435 217 435 L245 435 C278 435 302 404 302 369 L302 146 C302 111 278 80 245 80 L217 80 Z " />
<glyph glyph-name="odieresis" unicode="&#xf6;" horiz-adv-x="462" d="M93 586 C93 577 99 571 108 571 L179 571 C188 571 194 577 194 586 L194 663 C194 672 188 678 179 678 L108 678 C99 678 93 672 93 663 L93 586 Z M256 586 C256 577 262 571 271 571 L342 571 C351 571 357 577 357 586 L357 663 C357 672 351 678 342 678 L271 678 C262 678 256 672 256 663 L256 586 Z M199 520 C112 520 65 446 65 374 L65 141 C65 69 112 -5 199 -5 L262 -5 C350 -5 397 69 397 141 L397 374 C397 446 350 520 263 520 L199 520 Z M217 80 C184 80 160 111 160 146 L160 369 C160 404 184 435 217 435 L245 435 C278 435 302 404 302 369 L302 146 C302 111 278 80 245 80 L217 80 Z " />
<glyph glyph-name="divide" unicode="&#xf7;" horiz-adv-x="433" d="M93 226 C85 226 80 221 80 213 L80 163 C80 155 85 150 93 150 L340 150 C348 150 353 155 353 163 L353 213 C353 221 348 226 340 226 L93 226 Z M169 301 C169 294 173 289 181 289 L252 289 C259 289 264 294 264 301 L264 369 C264 376 259 381 252 381 L181 381 C173 381 169 376 169 369 L169 301 Z M169 7 C169 0 173 -5 181 -5 L252 -5 C259 -5 264 0 264 7 L264 75 C264 82 259 87 252 87 L181 87 C173 87 169 82 169 75 L169 7 Z " />
<glyph glyph-name="oslash" unicode="&#xf8;" horiz-adv-x="463" d="M65 -78 C65 -86 70 -91 78 -91 L151 -91 C159 -91 162 -86 165 -78 L188 -4 C192 -5 196 -5 200 -5 L263 -5 C351 -5 398 69 398 141 L398 374 C398 417 381 462 348 490 L382 593 C382 601 377 606 369 606 L296 606 C288 606 285 601 282 593 L258 520 L200 520 C113 520 66 446 66 374 L66 141 C66 104 78 66 102 38 L65 -78 Z M217 80 L303 349 L303 146 C303 111 279 80 246 80 L217 80 Z M161 369 C161 404 185 435 218 435 L231 435 L161 219 L161 369 Z " />
<glyph glyph-name="ugrave" unicode="&#xf9;" horiz-adv-x="472" d="M262 571 C271 571 276 576 276 585 L220 703 C216 711 211 717 203 717 L142 717 C134 717 128 712 128 703 L184 585 C188 577 193 571 201 571 L262 571 Z M307 146 C307 111 283 80 250 80 L222 80 C189 80 165 111 165 146 L165 502 C165 510 160 515 152 515 L83 515 C75 515 70 510 70 502 L70 141 C70 69 117 -5 204 -5 L267 -5 C355 -5 402 69 402 141 L402 502 C402 510 397 515 389 515 L320 515 C312 515 307 510 307 502 L307 146 Z " />
<glyph glyph-name="uacute" unicode="&#xfa;" horiz-adv-x="472" d="M270 571 C278 571 283 577 287 585 L343 703 C343 712 337 717 329 717 L268 717 C260 717 255 711 251 703 L195 585 C195 576 200 571 209 571 L270 571 Z M307 146 C307 111 283 80 250 80 L222 80 C189 80 165 111 165 146 L165 502 C165 510 160 515 152 515 L83 515 C75 515 70 510 70 502 L70 141 C70 69 117 -5 204 -5 L267 -5 C355 -5 402 69 402 141 L402 502 C402 510 397 515 389 515 L320 515 C312 515 307 510 307 502 L307 146 Z " />
<glyph glyph-name="ucircumflex" unicode="&#xfb;" horiz-adv-x="472" d="M199 745 C191 745 185 740 181 731 L108 583 C108 576 113 571 121 571 L184 571 C190 571 195 577 198 583 L236 660 L274 583 C277 577 282 571 288 571 L351 571 C359 571 364 576 364 583 L291 731 C287 740 281 745 273 745 L199 745 Z M307 146 C307 111 283 80 250 80 L222 80 C189 80 165 111 165 146 L165 502 C165 510 160 515 152 515 L83 515 C75 515 70 510 70 502 L70 141 C70 69 117 -5 204 -5 L267 -5 C355 -5 402 69 402 141 L402 502 C402 510 397 515 389 515 L320 515 C312 515 307 510 307 502 L307 146 Z " />
<glyph glyph-name="udieresis" unicode="&#xfc;" horiz-adv-x="472" d="M104 586 C104 577 110 571 119 571 L190 571 C199 571 205 577 205 586 L205 663 C205 672 199 678 190 678 L119 678 C110 678 104 672 104 663 L104 586 Z M267 586 C267 577 273 571 282 571 L353 571 C362 571 368 577 368 586 L368 663 C368 672 362 678 353 678 L282 678 C273 678 267 672 267 663 L267 586 Z M307 146 C307 111 283 80 250 80 L222 80 C189 80 165 111 165 146 L165 502 C165 510 160 515 152 515 L83 515 C75 515 70 510 70 502 L70 141 C70 69 117 -5 204 -5 L267 -5 C355 -5 402 69 402 141 L402 502 C402 510 397 515 389 515 L320 515 C312 515 307 510 307 502 L307 146 Z " />
<glyph glyph-name="yacute" unicode="&#xfd;" horiz-adv-x="434" d="M264 571 C272 571 277 577 281 585 L337 703 C337 712 331 717 323 717 L262 717 C254 717 249 711 245 703 L189 585 C189 576 194 571 203 571 L264 571 Z M158 -60 C151 -91 127 -118 78 -118 L44 -118 C36 -118 31 -123 31 -131 L31 -190 C31 -198 36 -203 44 -203 L106 -203 C149 -203 248 -182 288 -11 L409 502 C409 510 404 515 396 515 L323 515 C315 515 312 510 309 502 L222 110 L212 110 L125 502 C122 510 119 515 111 515 L38 515 C30 515 25 510 25 502 L158 -60 Z " />
<glyph glyph-name="thorn" unicode="&#xfe;" horiz-adv-x="486" d="M175 369 C175 404 199 435 232 435 L274 435 C308 435 331 404 331 369 L331 146 C331 111 308 80 274 80 L232 80 C199 80 175 111 175 146 L175 369 Z M175 687 C175 695 170 700 162 700 L93 700 C85 700 80 695 80 687 L80 -161 C80 -169 85 -174 93 -174 L162 -174 C170 -174 175 -169 175 -161 L175 32 L183 32 C205 1 245 -5 265 -5 L296 -5 C383 -5 426 58 426 143 L426 372 C426 457 383 520 296 520 L265 520 C245 520 205 514 183 483 L175 483 L175 687 Z " />
<glyph glyph-name="ydieresis" unicode="&#xff;" horiz-adv-x="434" d="M85 586 C85 577 91 571 100 571 L171 571 C180 571 186 577 186 586 L186 663 C186 672 180 678 171 678 L100 678 C91 678 85 672 85 663 L85 586 Z M248 586 C248 577 254 571 263 571 L334 571 C343 571 349 577 349 586 L349 663 C349 672 343 678 334 678 L263 678 C254 678 248 672 248 663 L248 586 Z M158 -60 C151 -91 127 -118 78 -118 L44 -118 C36 -118 31 -123 31 -131 L31 -190 C31 -198 36 -203 44 -203 L106 -203 C149 -203 248 -182 288 -11 L409 502 C409 510 404 515 396 515 L323 515 C315 515 312 510 309 502 L222 110 L212 110 L125 502 C122 510 119 515 111 515 L38 515 C30 515 25 510 25 502 L158 -60 Z " />
<glyph glyph-name="Amacron" unicode="&#x100;" horiz-adv-x="556" d="M194 836 C186 836 181 831 181 823 L181 764 C181 756 186 751 194 751 L362 751 C370 751 375 756 375 764 L375 823 C375 831 370 836 362 836 L194 836 Z M232 700 C224 700 221 695 219 687 L35 13 C35 5 40 0 48 0 L121 0 C129 0 132 5 135 13 L164 125 L391 125 L421 13 C424 5 427 0 435 0 L508 0 C516 0 521 5 521 13 L337 687 C335 695 332 700 324 700 L232 700 Z M273 542 L283 542 L369 210 L186 210 L273 542 Z " />
<glyph glyph-name="amacron" unicode="&#x101;" horiz-adv-x="458" d="M170 656 C162 656 157 651 157 643 L157 584 C157 576 162 571 170 571 L336 571 C344 571 349 576 349 584 L349 643 C349 651 344 656 336 656 L170 656 Z M205 80 C170 80 155 111 155 146 L155 161 C155 196 170 225 205 225 L298 225 L298 146 C298 111 281 80 247 80 L205 80 Z M106 500 C100 497 97 494 97 488 C97 486 97 482 111 429 C113 420 118 420 123 420 C159 430 178 435 211 435 C298 435 298 368 298 335 L298 310 L188 310 C102 310 60 260 60 178 L60 124 C60 42 102 -5 188 -5 L206 -5 C246 -5 271 7 290 32 L298 32 L298 13 C298 5 303 0 311 0 L380 0 C388 0 393 5 393 13 L393 336 C393 382 392 520 221 520 C156 520 132 510 106 500 L106 500 Z " />
<glyph glyph-name="Abreve" unicode="&#x102;" horiz-adv-x="556" d="M232 700 C224 700 221 695 219 687 L35 13 C35 5 40 0 48 0 L121 0 C129 0 132 5 135 13 L164 125 L391 125 L421 13 C424 5 427 0 435 0 L508 0 C516 0 521 5 521 13 L337 687 C335 695 332 700 324 700 L232 700 Z M273 542 L283 542 L369 210 L186 210 L273 542 Z M278 751 C365 751 394 796 410 884 C410 893 404 899 395 899 L340 899 C332 899 325 893 323 884 C313 838 298 832 278 832 C258 832 243 838 233 884 C231 893 224 899 216 899 L161 899 C152 899 146 893 146 884 C162 796 191 751 278 751 L278 751 Z " />
<glyph glyph-name="abreve" unicode="&#x103;" horiz-adv-x="458" d="M205 80 C170 80 155 111 155 146 L155 161 C155 196 170 225 205 225 L298 225 L298 146 C298 111 281 80 247 80 L205 80 Z M106 500 C100 497 97 494 97 488 C97 486 97 482 111 429 C113 420 118 420 123 420 C159 430 178 435 211 435 C298 435 298 368 298 335 L298 310 L188 310 C102 310 60 260 60 178 L60 124 C60 42 102 -5 188 -5 L206 -5 C246 -5 271 7 290 32 L298 32 L298 13 C298 5 303 0 311 0 L380 0 C388 0 393 5 393 13 L393 336 C393 382 392 520 221 520 C156 520 132 510 106 500 L106 500 Z M247 571 C334 571 363 616 379 704 C379 713 373 719 364 719 L309 719 C301 719 294 713 292 704 C282 658 267 652 247 652 C227 652 212 658 202 704 C200 713 193 719 185 719 L130 719 C121 719 115 713 115 704 C131 616 160 571 247 571 L247 571 Z " />
<glyph glyph-name="Aogonek" unicode="&#x104;" horiz-adv-x="556" d="M273 542 L283 542 L369 210 L186 210 L273 542 Z M413 44 C342 28 338 -13 338 -44 C338 -82 365 -118 414 -118 L491 -118 C496 -118 500 -114 500 -109 L500 -78 C500 -73 496 -69 491 -69 L431 -69 C431 -69 393 -69 393 -34 C393 -17 402 0 435 0 L508 0 C516 0 521 5 521 13 L337 687 C335 695 332 700 324 700 L232 700 C224 700 221 695 219 687 L35 13 C35 5 40 0 48 0 L121 0 C129 0 132 5 135 13 L164 125 L391 125 L413 44 Z " />
<glyph glyph-name="aogonek" unicode="&#x105;" horiz-adv-x="458" d="M205 80 C170 80 155 111 155 146 L155 161 C155 196 170 225 205 225 L298 225 L298 146 C298 111 281 80 247 80 L205 80 Z M298 -20 C256 -26 241 -56 241 -85 C241 -144 265 -155 312 -155 L374 -155 C379 -155 383 -151 383 -146 L383 -115 C383 -110 379 -106 374 -106 L329 -106 C329 -106 301 -106 301 -85 C301 -62 329 -62 329 -62 L380 -62 C388 -62 393 -57 393 -49 L393 336 C393 382 392 520 221 520 C156 520 132 510 106 500 C100 497 97 494 97 488 C97 486 97 482 111 429 C113 420 118 420 123 420 C159 430 178 435 211 435 C298 435 298 368 298 335 L298 310 L188 310 C102 310 60 260 60 178 L60 124 C60 42 102 -5 188 -5 L206 -5 C246 -5 271 7 290 32 L298 32 L298 -20 Z " />
<glyph glyph-name="Cacute" unicode="&#x106;" horiz-adv-x="532" d="M309 751 C317 751 322 757 326 765 L382 883 C382 892 376 897 368 897 L307 897 C299 897 294 891 290 883 L234 765 C234 756 239 751 248 751 L309 751 Z M382 165 C382 117 352 80 310 80 L237 80 C195 80 165 117 165 165 L165 535 C165 581 195 620 237 620 L310 620 C352 620 382 581 382 535 L382 502 C382 494 387 489 395 489 L464 489 C472 489 477 494 477 502 L477 545 C477 633 412 705 319 705 L228 705 C135 705 70 633 70 545 L70 155 C70 67 135 -5 228 -5 L319 -5 C412 -5 477 67 477 155 L477 193 C477 201 472 206 464 206 L395 206 C387 206 382 201 382 193 L382 165 Z " />
<glyph glyph-name="cacute" unicode="&#x107;" horiz-adv-x="442" d="M265 571 C273 571 278 577 282 585 L338 703 C338 712 332 717 324 717 L263 717 C255 717 250 711 246 703 L190 585 C190 576 195 571 204 571 L265 571 Z M397 157 C397 165 392 170 384 170 L315 170 C307 170 302 165 302 157 L302 146 C302 111 279 80 246 80 L217 80 C184 80 160 111 160 146 L160 369 C160 404 184 435 217 435 L246 435 C279 435 302 404 302 369 L302 358 C302 350 307 345 315 345 L384 345 C392 345 397 350 397 358 L397 374 C397 446 351 520 262 520 L199 520 C112 520 65 446 65 374 L65 141 C65 69 112 -5 199 -5 L262 -5 C351 -5 397 69 397 141 L397 157 Z " />
<glyph glyph-name="Ccircumflex" unicode="&#x108;" horiz-adv-x="532" d="M234 925 C226 925 220 920 216 911 L143 763 C143 756 148 751 156 751 L219 751 C225 751 230 757 233 763 L271 840 L309 763 C312 757 317 751 323 751 L386 751 C394 751 399 756 399 763 L326 911 C322 920 316 925 308 925 L234 925 Z M382 165 C382 117 352 80 310 80 L237 80 C195 80 165 117 165 165 L165 535 C165 581 195 620 237 620 L310 620 C352 620 382 581 382 535 L382 502 C382 494 387 489 395 489 L464 489 C472 489 477 494 477 502 L477 545 C477 633 412 705 319 705 L228 705 C135 705 70 633 70 545 L70 155 C70 67 135 -5 228 -5 L319 -5 C412 -5 477 67 477 155 L477 193 C477 201 472 206 464 206 L395 206 C387 206 382 201 382 193 L382 165 Z " />
<glyph glyph-name="ccircumflex" unicode="&#x109;" horiz-adv-x="442" d="M193 745 C185 745 179 740 175 731 L102 583 C102 576 107 571 115 571 L178 571 C184 571 189 577 192 583 L230 660 L268 583 C271 577 276 571 282 571 L345 571 C353 571 358 576 358 583 L285 731 C281 740 275 745 267 745 L193 745 Z M397 157 C397 165 392 170 384 170 L315 170 C307 170 302 165 302 157 L302 146 C302 111 279 80 246 80 L217 80 C184 80 160 111 160 146 L160 369 C160 404 184 435 217 435 L246 435 C279 435 302 404 302 369 L302 358 C302 350 307 345 315 345 L384 345 C392 345 397 350 397 358 L397 374 C397 446 351 520 262 520 L199 520 C112 520 65 446 65 374 L65 141 C65 69 112 -5 199 -5 L262 -5 C351 -5 397 69 397 141 L397 157 Z " />
<glyph glyph-name="Cdotaccent" unicode="&#x10a;" horiz-adv-x="532" d="M224 766 C224 757 230 751 239 751 L310 751 C319 751 325 757 325 766 L325 843 C325 852 319 858 310 858 L239 858 C230 858 224 852 224 843 L224 766 Z M382 165 C382 117 352 80 310 80 L237 80 C195 80 165 117 165 165 L165 535 C165 581 195 620 237 620 L310 620 C352 620 382 581 382 535 L382 502 C382 494 387 489 395 489 L464 489 C472 489 477 494 477 502 L477 545 C477 633 412 705 319 705 L228 705 C135 705 70 633 70 545 L70 155 C70 67 135 -5 228 -5 L319 -5 C412 -5 477 67 477 155 L477 193 C477 201 472 206 464 206 L395 206 C387 206 382 201 382 193 L382 165 Z " />
<glyph glyph-name="cdotaccent" unicode="&#x10b;" horiz-adv-x="442" d="M181 586 C181 577 187 571 196 571 L267 571 C276 571 282 577 282 586 L282 663 C282 672 276 678 267 678 L196 678 C187 678 181 672 181 663 L181 586 Z M397 157 C397 165 392 170 384 170 L315 170 C307 170 302 165 302 157 L302 146 C302 111 279 80 246 80 L217 80 C184 80 160 111 160 146 L160 369 C160 404 184 435 217 435 L246 435 C279 435 302 404 302 369 L302 358 C302 350 307 345 315 345 L384 345 C392 345 397 350 397 358 L397 374 C397 446 351 520 262 520 L199 520 C112 520 65 446 65 374 L65 141 C65 69 112 -5 199 -5 L262 -5 C351 -5 397 69 397 141 L397 157 Z " />
<glyph glyph-name="Ccaron" unicode="&#x10c;" horiz-adv-x="532" d="M311 751 C319 751 325 756 329 765 L402 913 C402 920 397 925 389 925 L326 925 C320 925 315 919 312 913 L274 836 L236 913 C233 919 228 925 222 925 L159 925 C151 925 146 920 146 913 L219 765 C223 756 229 751 237 751 L311 751 Z M382 165 C382 117 352 80 310 80 L237 80 C195 80 165 117 165 165 L165 535 C165 581 195 620 237 620 L310 620 C352 620 382 581 382 535 L382 502 C382 494 387 489 395 489 L464 489 C472 489 477 494 477 502 L477 545 C477 633 412 705 319 705 L228 705 C135 705 70 633 70 545 L70 155 C70 67 135 -5 228 -5 L319 -5 C412 -5 477 67 477 155 L477 193 C477 201 472 206 464 206 L395 206 C387 206 382 201 382 193 L382 165 Z " />
<glyph glyph-name="ccaron" unicode="&#x10d;" horiz-adv-x="442" d="M269 571 C277 571 283 576 287 585 L360 733 C360 740 355 745 347 745 L284 745 C278 745 273 739 270 733 L232 656 L194 733 C191 739 186 745 180 745 L117 745 C109 745 104 740 104 733 L177 585 C181 576 187 571 195 571 L269 571 Z M397 157 C397 165 392 170 384 170 L315 170 C307 170 302 165 302 157 L302 146 C302 111 279 80 246 80 L217 80 C184 80 160 111 160 146 L160 369 C160 404 184 435 217 435 L246 435 C279 435 302 404 302 369 L302 358 C302 350 307 345 315 345 L384 345 C392 345 397 350 397 358 L397 374 C397 446 351 520 262 520 L199 520 C112 520 65 446 65 374 L65 141 C65 69 112 -5 199 -5 L262 -5 C351 -5 397 69 397 141 L397 157 Z " />
<glyph glyph-name="Dcaron" unicode="&#x10e;" horiz-adv-x="557" d="M283 751 C291 751 297 756 301 765 L374 913 C374 920 369 925 361 925 L298 925 C292 925 287 919 284 913 L246 836 L208 913 C205 919 200 925 194 925 L131 925 C123 925 118 920 118 913 L191 765 C195 756 201 751 209 751 L283 751 Z M310 615 C353 615 392 575 392 530 L392 170 C392 122 353 85 310 85 L175 85 L175 615 L310 615 Z M320 0 C412 0 487 72 487 161 L487 539 C487 628 412 700 320 700 L93 700 C85 700 80 695 80 687 L80 13 C80 5 85 0 93 0 L320 0 Z " />
<glyph glyph-name="dcaron" unicode="&#x10f;" horiz-adv-x="696" d="M601 550 C610 550 615 556 619 564 L676 686 C676 695 670 700 662 700 L601 700 C592 700 587 694 583 686 L526 564 C526 555 531 550 540 550 L601 550 Z M311 146 C311 111 287 80 254 80 L212 80 C178 80 155 111 155 146 L155 369 C155 404 178 435 212 435 L254 435 C287 435 311 404 311 369 L311 146 Z M311 483 L303 483 C281 514 241 520 221 520 L190 520 C103 520 60 457 60 372 L60 143 C60 58 103 -5 190 -5 L221 -5 C241 -5 281 1 303 32 L311 32 L311 13 C311 5 316 0 324 0 L393 0 C401 0 406 5 406 13 L406 687 C406 695 401 700 393 700 L324 700 C316 700 311 695 311 687 L311 483 Z " />
<glyph glyph-name="Dcroat" unicode="&#x110;" horiz-adv-x="573" d="M33 393 C25 393 20 388 20 380 L20 321 C20 313 25 308 33 308 L96 308 L96 13 C96 5 101 0 109 0 L336 0 C428 0 503 72 503 161 L503 539 C503 628 428 700 336 700 L109 700 C101 700 96 695 96 687 L96 393 L33 393 Z M326 615 C369 615 408 575 408 530 L408 170 C408 122 369 85 326 85 L191 85 L191 308 L265 308 C273 308 278 313 278 321 L278 380 C278 388 273 393 265 393 L191 393 L191 615 L326 615 Z " />
<glyph glyph-name="dcroat" unicode="&#x111;" horiz-adv-x="486" d="M221 644 C213 644 208 639 208 631 L208 572 C208 564 213 559 221 559 L311 559 L311 483 L303 483 C281 514 241 520 221 520 L190 520 C103 520 60 457 60 372 L60 143 C60 58 103 -5 190 -5 L221 -5 C241 -5 281 1 303 32 L311 32 L311 13 C311 5 316 0 324 0 L393 0 C401 0 406 5 406 13 L406 559 L453 559 C461 559 466 564 466 572 L466 631 C466 639 461 644 453 644 L406 644 L406 687 C406 695 401 700 393 700 L324 700 C316 700 311 695 311 687 L311 644 L221 644 Z M311 146 C311 111 287 80 254 80 L212 80 C178 80 155 111 155 146 L155 369 C155 404 178 435 212 435 L254 435 C287 435 311 404 311 369 L311 146 Z " />
<glyph glyph-name="Emacron" unicode="&#x112;" horiz-adv-x="481" d="M162 836 C154 836 149 831 149 823 L149 764 C149 756 154 751 162 751 L330 751 C338 751 343 756 343 764 L343 823 C343 831 338 836 330 836 L162 836 Z M80 13 C80 5 85 0 93 0 L398 0 C406 0 411 5 411 13 L411 72 C411 80 406 85 398 85 L175 85 L175 293 L374 293 C382 293 387 298 387 306 L387 365 C387 373 382 378 374 378 L175 378 L175 615 L398 615 C406 615 411 620 411 628 L411 687 C411 695 406 700 398 700 L93 700 C85 700 80 695 80 687 L80 13 Z " />
<glyph glyph-name="emacron" unicode="&#x113;" horiz-adv-x="457" d="M130 656 C122 656 117 651 117 643 L117 584 C117 576 122 571 130 571 L330 571 C338 571 343 576 343 584 L343 643 C343 651 338 656 330 656 L130 656 Z M314 105 C301 90 287 80 254 80 L217 80 C184 80 160 111 160 146 L160 216 L384 216 C392 216 397 221 397 229 L397 374 C397 446 351 520 262 520 L199 520 C112 520 65 446 65 374 L65 141 C65 69 112 -5 199 -5 L254 -5 C254 -5 330 -5 379 56 C381 59 382 61 382 64 C382 67 379 71 377 73 L333 108 C330 110 328 111 325 111 C321 111 316 108 314 105 L314 105 Z M160 369 C160 404 184 435 217 435 L246 435 C279 435 302 404 302 369 L302 301 L160 301 L160 369 Z " />
<glyph glyph-name="Edotaccent" unicode="&#x116;" horiz-adv-x="481" d="M195 766 C195 757 201 751 210 751 L281 751 C290 751 296 757 296 766 L296 843 C296 852 290 858 281 858 L210 858 C201 858 195 852 195 843 L195 766 Z M80 13 C80 5 85 0 93 0 L398 0 C406 0 411 5 411 13 L411 72 C411 80 406 85 398 85 L175 85 L175 293 L374 293 C382 293 387 298 387 306 L387 365 C387 373 382 378 374 378 L175 378 L175 615 L398 615 C406 615 411 620 411 628 L411 687 C411 695 406 700 398 700 L93 700 C85 700 80 695 80 687 L80 13 Z " />
<glyph glyph-name="edotaccent" unicode="&#x117;" horiz-adv-x="457" d="M181 586 C181 577 187 571 196 571 L267 571 C276 571 282 577 282 586 L282 663 C282 672 276 678 267 678 L196 678 C187 678 181 672 181 663 L181 586 Z M314 105 C301 90 287 80 254 80 L217 80 C184 80 160 111 160 146 L160 216 L384 216 C392 216 397 221 397 229 L397 374 C397 446 351 520 262 520 L199 520 C112 520 65 446 65 374 L65 141 C65 69 112 -5 199 -5 L254 -5 C254 -5 330 -5 379 56 C381 59 382 61 382 64 C382 67 379 71 377 73 L333 108 C330 110 328 111 325 111 C321 111 316 108 314 105 L314 105 Z M160 369 C160 404 184 435 217 435 L246 435 C279 435 302 404 302 369 L302 301 L160 301 L160 369 Z " />
<glyph glyph-name="Eogonek" unicode="&#x118;" horiz-adv-x="481" d="M246 0 C236 -14 234 -37 234 -49 C234 -87 261 -118 310 -118 L387 -118 C392 -118 396 -114 396 -109 L396 -78 C396 -73 392 -69 387 -69 L327 -69 C327 -69 289 -69 289 -34 C289 -21 296 -5 307 0 L398 0 C406 0 411 5 411 13 L411 72 C411 80 406 85 398 85 L175 85 L175 293 L374 293 C382 293 387 298 387 306 L387 365 C387 373 382 378 374 378 L175 378 L175 615 L398 615 C406 615 411 620 411 628 L411 687 C411 695 406 700 398 700 L93 700 C85 700 80 695 80 687 L80 13 C80 5 85 0 93 0 L246 0 Z " />
<glyph glyph-name="eogonek" unicode="&#x119;" horiz-adv-x="457" d="M314 105 C301 90 287 80 254 80 L217 80 C184 80 160 111 160 146 L160 216 L384 216 C392 216 397 221 397 229 L397 374 C397 446 351 520 262 520 L199 520 C112 520 65 446 65 374 L65 141 C65 79 99 16 163 0 C157 -15 154 -37 154 -49 C154 -87 181 -118 230 -118 L307 -118 C312 -118 316 -114 316 -109 L316 -78 C316 -73 312 -69 307 -69 L247 -69 C247 -69 209 -69 209 -34 C209 -22 212 -11 218 -5 L254 -5 C254 -5 330 -5 379 56 C381 59 382 61 382 64 C382 67 379 71 377 73 L333 108 C330 110 328 111 325 111 C321 111 316 108 314 105 L314 105 Z M160 369 C160 404 184 435 217 435 L246 435 C279 435 302 404 302 369 L302 301 L160 301 L160 369 Z " />
<glyph glyph-name="Ecaron" unicode="&#x11a;" horiz-adv-x="481" d="M288 751 C296 751 302 756 306 765 L379 913 C379 920 374 925 366 925 L303 925 C297 925 292 919 289 913 L251 836 L213 913 C210 919 205 925 199 925 L136 925 C128 925 123 920 123 913 L196 765 C200 756 206 751 214 751 L288 751 Z M80 13 C80 5 85 0 93 0 L398 0 C406 0 411 5 411 13 L411 72 C411 80 406 85 398 85 L175 85 L175 293 L374 293 C382 293 387 298 387 306 L387 365 C387 373 382 378 374 378 L175 378 L175 615 L398 615 C406 615 411 620 411 628 L411 687 C411 695 406 700 398 700 L93 700 C85 700 80 695 80 687 L80 13 Z " />
<glyph glyph-name="ecaron" unicode="&#x11b;" horiz-adv-x="457" d="M268 571 C276 571 282 576 286 585 L359 733 C359 740 354 745 346 745 L283 745 C277 745 272 739 269 733 L231 656 L193 733 C190 739 185 745 179 745 L116 745 C108 745 103 740 103 733 L176 585 C180 576 186 571 194 571 L268 571 Z M314 105 C301 90 287 80 254 80 L217 80 C184 80 160 111 160 146 L160 216 L384 216 C392 216 397 221 397 229 L397 374 C397 446 351 520 262 520 L199 520 C112 520 65 446 65 374 L65 141 C65 69 112 -5 199 -5 L254 -5 C254 -5 330 -5 379 56 C381 59 382 61 382 64 C382 67 379 71 377 73 L333 108 C330 110 328 111 325 111 C321 111 316 108 314 105 L314 105 Z M160 369 C160 404 184 435 217 435 L246 435 C279 435 302 404 302 369 L302 301 L160 301 L160 369 Z " />
<glyph glyph-name="Gcircumflex" unicode="&#x11c;" horiz-adv-x="547" d="M236 925 C228 925 222 920 218 911 L145 763 C145 756 150 751 158 751 L221 751 C227 751 232 757 235 763 L273 840 L311 763 C314 757 319 751 325 751 L388 751 C396 751 401 756 401 763 L328 911 C324 920 318 925 310 925 L236 925 Z M477 371 C477 379 472 384 464 384 L279 384 C271 384 266 379 266 371 L266 312 C266 304 271 299 279 299 L382 299 L382 165 C382 117 352 80 310 80 L237 80 C195 80 165 117 165 165 L165 535 C165 581 195 620 237 620 L310 620 C352 620 382 581 382 535 L382 502 C382 494 387 489 395 489 L464 489 C472 489 477 494 477 502 L477 545 C477 633 412 705 319 705 L228 705 C135 705 70 633 70 545 L70 155 C70 67 135 -5 228 -5 L319 -5 C412 -5 477 67 477 155 L477 371 Z " />
<glyph glyph-name="gcircumflex" unicode="&#x11d;" horiz-adv-x="486" d="M198 745 C190 745 184 740 180 731 L107 583 C107 576 112 571 120 571 L183 571 C189 571 194 577 197 583 L235 660 L273 583 C276 577 281 571 287 571 L350 571 C358 571 363 576 363 583 L290 731 C286 740 280 745 272 745 L198 745 Z M311 146 C311 111 287 80 254 80 L212 80 C178 80 155 111 155 146 L155 369 C155 404 178 435 212 435 L254 435 C287 435 311 404 311 369 L311 146 Z M406 502 C406 510 401 515 393 515 L324 515 C316 515 311 510 311 502 L311 483 L303 483 C281 514 241 520 221 520 L190 520 C103 520 60 457 60 372 L60 143 C60 58 103 -5 190 -5 L221 -5 C241 -5 281 1 303 32 L311 32 L311 -30 C311 -67 310 -118 230 -118 C173 -118 159 -113 131 -108 C125 -108 120 -108 118 -116 L106 -174 C106 -180 109 -183 115 -185 C143 -194 156 -203 226 -203 C404 -203 406 -76 406 -32 L406 502 Z " />
<glyph glyph-name="Gbreve" unicode="&#x11e;" horiz-adv-x="547" d="M477 371 C477 379 472 384 464 384 L279 384 C271 384 266 379 266 371 L266 312 C266 304 271 299 279 299 L382 299 L382 165 C382 117 352 80 310 80 L237 80 C195 80 165 117 165 165 L165 535 C165 581 195 620 237 620 L310 620 C352 620 382 581 382 535 L382 502 C382 494 387 489 395 489 L464 489 C472 489 477 494 477 502 L477 545 C477 633 412 705 319 705 L228 705 C135 705 70 633 70 545 L70 155 C70 67 135 -5 228 -5 L319 -5 C412 -5 477 67 477 155 L477 371 Z M272 751 C359 751 388 796 404 884 C404 893 398 899 389 899 L334 899 C326 899 319 893 317 884 C307 838 292 832 272 832 C252 832 237 838 227 884 C225 893 218 899 210 899 L155 899 C146 899 140 893 140 884 C156 796 185 751 272 751 L272 751 Z " />
<glyph glyph-name="gbreve" unicode="&#x11f;" horiz-adv-x="486" d="M311 146 C311 111 287 80 254 80 L212 80 C178 80 155 111 155 146 L155 369 C155 404 178 435 212 435 L254 435 C287 435 311 404 311 369 L311 146 Z M406 502 C406 510 401 515 393 515 L324 515 C316 515 311 510 311 502 L311 483 L303 483 C281 514 241 520 221 520 L190 520 C103 520 60 457 60 372 L60 143 C60 58 103 -5 190 -5 L221 -5 C241 -5 281 1 303 32 L311 32 L311 -30 C311 -67 310 -118 230 -118 C173 -118 159 -113 131 -108 C125 -108 120 -108 118 -116 L106 -174 C106 -180 109 -183 115 -185 C143 -194 156 -203 226 -203 C404 -203 406 -76 406 -32 L406 502 Z M241 571 C328 571 357 616 373 704 C373 713 367 719 358 719 L303 719 C295 719 288 713 286 704 C276 658 261 652 241 652 C221 652 206 658 196 704 C194 713 187 719 179 719 L124 719 C115 719 109 713 109 704 C125 616 154 571 241 571 L241 571 Z " />
<glyph glyph-name="Gdotaccent" unicode="&#x120;" horiz-adv-x="547" d="M227 766 C227 757 233 751 242 751 L313 751 C322 751 328 757 328 766 L328 843 C328 852 322 858 313 858 L242 858 C233 858 227 852 227 843 L227 766 Z M477 371 C477 379 472 384 464 384 L279 384 C271 384 266 379 266 371 L266 312 C266 304 271 299 279 299 L382 299 L382 165 C382 117 352 80 310 80 L237 80 C195 80 165 117 165 165 L165 535 C165 581 195 620 237 620 L310 620 C352 620 382 581 382 535 L382 502 C382 494 387 489 395 489 L464 489 C472 489 477 494 477 502 L477 545 C477 633 412 705 319 705 L228 705 C135 705 70 633 70 545 L70 155 C70 67 135 -5 228 -5 L319 -5 C412 -5 477 67 477 155 L477 371 Z " />
<glyph glyph-name="gdotaccent" unicode="&#x121;" horiz-adv-x="486" d="M179 586 C179 577 185 571 194 571 L265 571 C274 571 280 577 280 586 L280 663 C280 672 274 678 265 678 L194 678 C185 678 179 672 179 663 L179 586 Z M311 146 C311 111 287 80 254 80 L212 80 C178 80 155 111 155 146 L155 369 C155 404 178 435 212 435 L254 435 C287 435 311 404 311 369 L311 146 Z M406 502 C406 510 401 515 393 515 L324 515 C316 515 311 510 311 502 L311 483 L303 483 C281 514 241 520 221 520 L190 520 C103 520 60 457 60 372 L60 143 C60 58 103 -5 190 -5 L221 -5 C241 -5 281 1 303 32 L311 32 L311 -30 C311 -67 310 -118 230 -118 C173 -118 159 -113 131 -108 C125 -108 120 -108 118 -116 L106 -174 C106 -180 109 -183 115 -185 C143 -194 156 -203 226 -203 C404 -203 406 -76 406 -32 L406 502 Z " />
<glyph glyph-name="uni0122" unicode="&#x122;" horiz-adv-x="547" d="M238 -53 C229 -53 224 -59 220 -67 L177 -179 C177 -188 183 -193 191 -193 L252 -193 C261 -193 266 -187 270 -179 L313 -67 C313 -58 308 -53 299 -53 L238 -53 Z M477 371 C477 379 472 384 464 384 L279 384 C271 384 266 379 266 371 L266 312 C266 304 271 299 279 299 L382 299 L382 165 C382 117 352 80 310 80 L237 80 C195 80 165 117 165 165 L165 535 C165 581 195 620 237 620 L310 620 C352 620 382 581 382 535 L382 502 C382 494 387 489 395 489 L464 489 C472 489 477 494 477 502 L477 545 C477 633 412 705 319 705 L228 705 C135 705 70 633 70 545 L70 155 C70 67 135 -5 228 -5 L319 -5 C412 -5 477 67 477 155 L477 371 Z " />
<glyph glyph-name="uni0123" unicode="&#x123;" horiz-adv-x="486" d="M265 571 C273 571 278 577 282 585 L338 703 C338 712 332 717 324 717 L263 717 C255 717 250 711 246 703 L190 585 C190 576 195 571 204 571 L265 571 Z M311 146 C311 111 287 80 254 80 L212 80 C178 80 155 111 155 146 L155 369 C155 404 178 435 212 435 L254 435 C287 435 311 404 311 369 L311 146 Z M406 502 C406 510 401 515 393 515 L324 515 C316 515 311 510 311 502 L311 483 L303 483 C281 514 241 520 221 520 L190 520 C103 520 60 457 60 372 L60 143 C60 58 103 -5 190 -5 L221 -5 C241 -5 281 1 303 32 L311 32 L311 -30 C311 -67 310 -118 230 -118 C173 -118 159 -113 131 -108 C125 -108 120 -108 118 -116 L106 -174 C106 -180 109 -183 115 -185 C143 -194 156 -203 226 -203 C404 -203 406 -76 406 -32 L406 502 Z " />
<glyph glyph-name="Hcircumflex" unicode="&#x124;" horiz-adv-x="560" d="M244 925 C236 925 230 920 226 911 L153 763 C153 756 158 751 166 751 L229 751 C235 751 240 757 243 763 L281 840 L319 763 C322 757 327 751 333 751 L396 751 C404 751 409 756 409 763 L336 911 C332 920 326 925 318 925 L244 925 Z M385 13 C385 5 390 0 398 0 L467 0 C475 0 480 5 480 13 L480 687 C480 695 475 700 467 700 L398 700 C390 700 385 695 385 687 L385 381 L175 381 L175 687 C175 695 170 700 162 700 L93 700 C85 700 80 695 80 687 L80 13 C80 5 85 0 93 0 L162 0 C170 0 175 5 175 13 L175 296 L385 296 L385 13 Z " />
<glyph glyph-name="hcircumflex" unicode="&#x125;" horiz-adv-x="492" d="M174 925 C166 925 160 920 156 911 L83 763 C83 756 88 751 96 751 L159 751 C165 751 170 757 173 763 L211 840 L249 763 C252 757 257 751 263 751 L326 751 C334 751 339 756 339 763 L266 911 C262 920 256 925 248 925 L174 925 Z M327 13 C327 5 332 0 340 0 L409 0 C417 0 422 5 422 13 L422 371 C422 454 398 520 312 520 L284 520 C264 520 214 519 183 459 L175 459 L175 687 C175 695 170 700 162 700 L93 700 C85 700 80 695 80 687 L80 13 C80 5 85 0 93 0 L162 0 C170 0 175 5 175 13 L175 359 C212 434 250 435 271 435 L279 435 C316 435 327 405 327 353 L327 13 Z " />
<glyph glyph-name="Hbar" unicode="&#x126;" horiz-adv-x="566" d="M33 544 C25 544 20 539 20 531 L20 472 C20 464 25 459 33 459 L83 459 L83 13 C83 5 88 0 96 0 L165 0 C173 0 178 5 178 13 L178 296 L388 296 L388 13 C388 5 393 0 401 0 L470 0 C478 0 483 5 483 13 L483 459 L533 459 C541 459 546 464 546 472 L546 531 C546 539 541 544 533 544 L483 544 L483 687 C483 695 478 700 470 700 L401 700 C393 700 388 695 388 687 L388 544 L178 544 L178 687 C178 695 173 700 165 700 L96 700 C88 700 83 695 83 687 L83 544 L33 544 Z M178 381 L178 459 L388 459 L388 381 L178 381 Z " />
<glyph glyph-name="hbar" unicode="&#x127;" horiz-adv-x="492" d="M175 559 L265 559 C273 559 278 564 278 572 L278 631 C278 639 273 644 265 644 L175 644 L175 687 C175 695 170 700 162 700 L93 700 C85 700 80 695 80 687 L80 644 L33 644 C25 644 20 639 20 631 L20 572 C20 564 25 559 33 559 L80 559 L80 13 C80 5 85 0 93 0 L162 0 C170 0 175 5 175 13 L175 359 C212 434 250 435 271 435 L279 435 C316 435 327 405 327 353 L327 13 C327 5 332 0 340 0 L409 0 C417 0 422 5 422 13 L422 371 C422 454 398 520 312 520 L284 520 C264 520 214 519 183 459 L175 459 L175 559 Z " />
<glyph glyph-name="Itilde" unicode="&#x128;" horiz-adv-x="255" d="M80 13 C80 5 85 0 93 0 L162 0 C170 0 175 5 175 13 L175 687 C175 695 170 700 162 700 L93 700 C85 700 80 695 80 687 L80 13 Z M179 751 C198 751 215 759 235 771 C240 774 243 779 243 785 L228 837 C226 843 221 845 216 845 C214 845 212 845 209 844 C196 840 186 836 179 836 C124 836 133 867 81 867 C62 867 45 859 25 847 C20 844 17 839 17 833 L32 781 C34 775 39 773 44 773 C46 773 48 773 51 774 C64 778 74 782 81 782 C136 782 126 751 179 751 L179 751 Z " />
<glyph glyph-name="itilde" unicode="&#x129;" horiz-adv-x="255" d="M80 13 C80 5 85 0 93 0 L162 0 C170 0 175 5 175 13 L175 502 C175 510 170 515 162 515 L93 515 C85 515 80 510 80 502 L80 13 Z M179 571 C198 571 215 579 235 591 C240 594 243 599 243 605 L228 657 C226 663 221 665 216 665 C214 665 212 665 209 664 C196 660 186 656 179 656 C124 656 133 687 81 687 C62 687 45 679 25 667 C20 664 17 659 17 653 L32 601 C34 595 39 593 44 593 C46 593 48 593 51 594 C64 598 74 602 81 602 C136 602 126 571 179 571 L179 571 Z " />
<glyph glyph-name="Imacron" unicode="&#x12a;" horiz-adv-x="255" d="M80 13 C80 5 85 0 93 0 L162 0 C170 0 175 5 175 13 L175 687 C175 695 170 700 162 700 L93 700 C85 700 80 695 80 687 L80 13 Z M43 836 C35 836 30 831 30 823 L30 764 C30 756 35 751 43 751 L211 751 C219 751 224 756 224 764 L224 823 C224 831 219 836 211 836 L43 836 Z " />
<glyph glyph-name="imacron" unicode="&#x12b;" horiz-adv-x="255" d="M80 13 C80 5 85 0 93 0 L162 0 C170 0 175 5 175 13 L175 502 C175 510 170 515 162 515 L93 515 C85 515 80 510 80 502 L80 13 Z M43 656 C35 656 30 651 30 643 L30 584 C30 576 35 571 43 571 L211 571 C219 571 224 576 224 584 L224 643 C224 651 219 656 211 656 L43 656 Z " />
<glyph glyph-name="Iogonek" unicode="&#x12e;" horiz-adv-x="255" d="M80 46 C37 46 7 25 7 -24 C7 -62 34 -93 83 -93 L160 -93 C165 -93 169 -89 169 -84 L169 -53 C169 -48 165 -44 160 -44 L96 -44 C96 -44 68 -44 68 -22 C68 -4 83 0 93 0 L162 0 C170 0 175 5 175 13 L175 687 C175 695 170 700 162 700 L93 700 C85 700 80 695 80 687 L80 46 Z " />
<glyph glyph-name="iogonek" unicode="&#x12f;" horiz-adv-x="255" d="M77 591 C77 583 82 578 90 578 L165 578 C173 578 178 583 178 591 L178 671 C178 679 173 684 165 684 L90 684 C82 684 77 679 77 671 L77 591 Z M80 46 C37 46 7 25 7 -24 C7 -62 34 -93 83 -93 L160 -93 C165 -93 169 -89 169 -84 L169 -53 C169 -48 165 -44 160 -44 L96 -44 C96 -44 68 -44 68 -22 C68 -4 83 0 93 0 L162 0 C170 0 175 5 175 13 L175 502 C175 510 170 515 162 515 L93 515 C85 515 80 510 80 502 L80 46 Z " />
<glyph glyph-name="Idotaccent" unicode="&#x130;" horiz-adv-x="255" d="M80 13 C80 5 85 0 93 0 L162 0 C170 0 175 5 175 13 L175 558 C175 566 170 571 162 571 L93 571 C85 571 80 566 80 558 L80 13 Z M77 647 C77 639 82 634 90 634 L165 634 C173 634 178 639 178 647 L178 727 C178 735 173 740 165 740 L90 740 C82 740 77 735 77 727 L77 647 Z " />
<glyph glyph-name="dotlessi" unicode="&#x131;" horiz-adv-x="255" d="M80 13 C80 5 85 0 93 0 L162 0 C170 0 175 5 175 13 L175 502 C175 510 170 515 162 515 L93 515 C85 515 80 510 80 502 L80 13 Z " />
<glyph glyph-name="Jcircumflex" unicode="&#x134;" horiz-adv-x="394" d="M168 925 C160 925 154 920 150 911 L77 763 C77 756 82 751 90 751 L153 751 C159 751 164 757 167 763 L205 840 L243 763 C246 757 251 751 257 751 L320 751 C328 751 333 756 333 763 L260 911 C256 920 250 925 242 925 L168 925 Z M77 109 C74 111 71 112 68 112 C64 112 62 111 58 109 L14 68 C11 65 10 62 10 58 C10 55 11 53 14 50 C41 25 73 -5 154 -5 C289 -5 334 78 334 165 L334 687 C334 695 329 700 321 700 L252 700 C244 700 239 695 239 687 L239 168 C239 157 239 80 153 80 C117 80 105 87 77 109 L77 109 Z " />
<glyph glyph-name="jcircumflex" unicode="&#x135;" horiz-adv-x="255" d="M90 742 C82 742 76 737 72 728 L-1 580 C-1 573 4 568 12 568 L75 568 C81 568 86 574 89 580 L127 657 L165 580 C168 574 173 568 179 568 L242 568 C250 568 255 573 255 580 L182 728 C178 737 172 742 164 742 L90 742 Z M33 -182 C71 -167 175 -116 175 7 L175 502 C175 510 170 515 162 515 L93 515 C85 515 80 510 80 502 L80 12 C80 12 79 -58 -5 -94 C-10 -96 -12 -101 -12 -106 C-12 -107 -11 -110 -10 -112 L16 -176 C18 -181 23 -183 27 -183 C28 -183 31 -183 33 -182 L33 -182 Z " />
<glyph glyph-name="uni0136" unicode="&#x136;" horiz-adv-x="520" d="M241 -53 C232 -53 227 -59 223 -67 L180 -179 C180 -188 186 -193 194 -193 L255 -193 C264 -193 269 -187 273 -179 L316 -67 C316 -58 311 -53 302 -53 L241 -53 Z M383 13 C386 6 390 0 398 0 L466 0 C474 0 479 5 479 13 L377 348 L479 687 C479 695 474 700 466 700 L399 700 C391 700 387 694 384 687 L294 392 L175 392 L175 687 C175 695 170 700 162 700 L93 700 C85 700 80 695 80 687 L80 13 C80 5 85 0 93 0 L162 0 C170 0 175 5 175 13 L175 307 L293 307 L383 13 Z " />
<glyph glyph-name="uni0137" unicode="&#x137;" horiz-adv-x="490" d="M225 -53 C216 -53 211 -59 207 -67 L164 -179 C164 -188 170 -193 178 -193 L239 -193 C248 -193 253 -187 257 -179 L300 -67 C300 -58 295 -53 286 -53 L225 -53 Z M273 229 L331 13 C335 6 341 0 349 0 L417 0 C425 0 430 5 430 13 L360 272 L430 502 C430 510 425 515 417 515 L351 515 C343 515 337 509 333 502 L274 314 L175 314 L175 687 C175 695 170 700 162 700 L93 700 C85 700 80 695 80 687 L80 13 C80 5 85 0 93 0 L162 0 C170 0 175 5 175 13 L175 229 L273 229 Z " />
<glyph glyph-name="kgreenlandic" unicode="&#x138;" horiz-adv-x="460" d="M273 229 L331 13 C335 6 341 0 349 0 L417 0 C425 0 430 5 430 13 L360 272 L430 502 C430 510 425 515 417 515 L351 515 C343 515 337 509 333 502 L274 314 L175 314 L175 502 C175 510 170 515 162 515 L93 515 C85 515 80 510 80 502 L80 13 C80 5 85 0 93 0 L162 0 C170 0 175 5 175 13 L175 229 L273 229 Z " />
<glyph glyph-name="Lacute" unicode="&#x139;" horiz-adv-x="451" d="M160 751 C168 751 173 757 177 765 L233 883 C233 892 227 897 219 897 L158 897 C150 897 145 891 141 883 L85 765 C85 756 90 751 99 751 L160 751 Z M398 0 C406 0 411 5 411 13 L411 72 C411 80 406 85 398 85 L175 85 L175 687 C175 695 170 700 162 700 L93 700 C85 700 80 695 80 687 L80 13 C80 5 85 0 93 0 L398 0 Z " />
<glyph glyph-name="lacute" unicode="&#x13a;" horiz-adv-x="255" d="M80 13 C80 5 85 0 93 0 L162 0 C170 0 175 5 175 13 L175 687 C175 695 170 700 162 700 L93 700 C85 700 80 695 80 687 L80 13 Z M160 751 C168 751 173 757 177 765 L233 883 C233 892 227 897 219 897 L158 897 C150 897 145 891 141 883 L85 765 C85 756 90 751 99 751 L160 751 Z " />
<glyph glyph-name="uni013B" unicode="&#x13b;" horiz-adv-x="451" d="M226 -53 C217 -53 212 -59 208 -67 L165 -179 C165 -188 171 -193 179 -193 L240 -193 C249 -193 254 -187 258 -179 L301 -67 C301 -58 296 -53 287 -53 L226 -53 Z M398 0 C406 0 411 5 411 13 L411 72 C411 80 406 85 398 85 L175 85 L175 687 C175 695 170 700 162 700 L93 700 C85 700 80 695 80 687 L80 13 C80 5 85 0 93 0 L398 0 Z " />
<glyph glyph-name="uni013C" unicode="&#x13c;" horiz-adv-x="255" d="M80 13 C80 5 85 0 93 0 L162 0 C170 0 175 5 175 13 L175 687 C175 695 170 700 162 700 L93 700 C85 700 80 695 80 687 L80 13 Z M97 -53 C88 -53 83 -59 79 -67 L36 -179 C36 -188 42 -193 50 -193 L111 -193 C120 -193 125 -187 129 -179 L172 -67 C172 -58 167 -53 158 -53 L97 -53 Z " />
<glyph glyph-name="Lcaron" unicode="&#x13d;" horiz-adv-x="477" d="M358 538 C367 538 372 544 376 552 L437 686 C437 695 431 700 423 700 L358 700 C349 700 344 694 340 686 L279 552 C279 543 284 538 293 538 L358 538 Z M398 0 C406 0 411 5 411 13 L411 72 C411 80 406 85 398 85 L175 85 L175 687 C175 695 170 700 162 700 L93 700 C85 700 80 695 80 687 L80 13 C80 5 85 0 93 0 L398 0 Z " />
<glyph glyph-name="lcaron" unicode="&#x13e;" horiz-adv-x="465" d="M80 13 C80 5 85 0 93 0 L162 0 C170 0 175 5 175 13 L175 687 C175 695 170 700 162 700 L93 700 C85 700 80 695 80 687 L80 13 Z M370 550 C379 550 384 556 388 564 L445 686 C445 695 439 700 431 700 L370 700 C361 700 356 694 352 686 L295 564 C295 555 300 550 309 550 L370 550 Z " />
<glyph glyph-name="Lslash" unicode="&#x141;" horiz-adv-x="445" d="M31 367 C25 365 20 360 20 353 L20 298 C20 292 25 287 31 287 L94 305 L94 13 C94 5 99 0 107 0 L412 0 C420 0 425 5 425 13 L425 72 C425 80 420 85 412 85 L189 85 L189 331 L251 348 C257 350 262 355 262 362 L262 417 C262 423 257 428 251 428 L189 411 L189 687 C189 695 184 700 176 700 L107 700 C99 700 94 695 94 687 L94 385 L31 367 Z " />
<glyph glyph-name="lslash" unicode="&#x142;" horiz-adv-x="281" d="M31 367 C25 365 20 360 20 353 L20 298 C20 292 25 287 31 287 L94 305 L94 13 C94 5 99 0 107 0 L176 0 C184 0 189 5 189 13 L189 331 L250 347 C256 349 261 354 261 361 L261 416 C261 422 256 427 250 427 L189 411 L189 687 C189 695 184 700 176 700 L107 700 C99 700 94 695 94 687 L94 385 L31 367 Z " />
<glyph glyph-name="Nacute" unicode="&#x143;" horiz-adv-x="597" d="M331 751 C339 751 344 757 348 765 L404 883 C404 892 398 897 390 897 L329 897 C321 897 316 891 312 883 L256 765 C256 756 261 751 270 751 L331 751 Z M380 13 C384 6 390 0 398 0 L504 0 C512 0 517 5 517 13 L517 687 C517 695 512 700 504 700 L435 700 C427 700 422 695 422 687 L422 191 L412 191 L217 687 C213 694 207 700 199 700 L93 700 C85 700 80 695 80 687 L80 13 C80 5 85 0 93 0 L162 0 C170 0 175 5 175 13 L175 511 L186 511 L380 13 Z " />
<glyph glyph-name="nacute" unicode="&#x144;" horiz-adv-x="492" d="M305 571 C313 571 318 577 322 585 L378 703 C378 712 372 717 364 717 L303 717 C295 717 290 711 286 703 L230 585 C230 576 235 571 244 571 L305 571 Z M327 13 C327 5 332 0 340 0 L409 0 C417 0 422 5 422 13 L422 371 C422 454 398 520 312 520 L284 520 C264 520 214 519 183 459 L175 459 L175 502 C175 510 170 515 162 515 L93 515 C85 515 80 510 80 502 L80 13 C80 5 85 0 93 0 L162 0 C170 0 175 5 175 13 L175 359 C212 434 250 435 271 435 L279 435 C316 435 327 405 327 353 L327 13 Z " />
<glyph glyph-name="uni0145" unicode="&#x145;" horiz-adv-x="597" d="M268 -53 C259 -53 254 -59 250 -67 L207 -179 C207 -188 213 -193 221 -193 L282 -193 C291 -193 296 -187 300 -179 L343 -67 C343 -58 338 -53 329 -53 L268 -53 Z M380 13 C384 6 390 0 398 0 L504 0 C512 0 517 5 517 13 L517 687 C517 695 512 700 504 700 L435 700 C427 700 422 695 422 687 L422 191 L412 191 L217 687 C213 694 207 700 199 700 L93 700 C85 700 80 695 80 687 L80 13 C80 5 85 0 93 0 L162 0 C170 0 175 5 175 13 L175 511 L186 511 L380 13 Z " />
<glyph glyph-name="uni0146" unicode="&#x146;" horiz-adv-x="492" d="M223 -53 C214 -53 209 -59 205 -67 L162 -179 C162 -188 168 -193 176 -193 L237 -193 C246 -193 251 -187 255 -179 L298 -67 C298 -58 293 -53 284 -53 L223 -53 Z M327 13 C327 5 332 0 340 0 L409 0 C417 0 422 5 422 13 L422 371 C422 454 398 520 312 520 L284 520 C264 520 214 519 183 459 L175 459 L175 502 C175 510 170 515 162 515 L93 515 C85 515 80 510 80 502 L80 13 C80 5 85 0 93 0 L162 0 C170 0 175 5 175 13 L175 359 C212 434 250 435 271 435 L279 435 C316 435 327 405 327 353 L327 13 Z " />
<glyph glyph-name="Ncaron" unicode="&#x147;" horiz-adv-x="597" d="M335 751 C343 751 349 756 353 765 L426 913 C426 920 421 925 413 925 L350 925 C344 925 339 919 336 913 L298 836 L260 913 C257 919 252 925 246 925 L183 925 C175 925 170 920 170 913 L243 765 C247 756 253 751 261 751 L335 751 Z M380 13 C384 6 390 0 398 0 L504 0 C512 0 517 5 517 13 L517 687 C517 695 512 700 504 700 L435 700 C427 700 422 695 422 687 L422 191 L412 191 L217 687 C213 694 207 700 199 700 L93 700 C85 700 80 695 80 687 L80 13 C80 5 85 0 93 0 L162 0 C170 0 175 5 175 13 L175 511 L186 511 L380 13 Z " />
<glyph glyph-name="ncaron" unicode="&#x148;" horiz-adv-x="492" d="M288 571 C296 571 302 576 306 585 L379 733 C379 740 374 745 366 745 L303 745 C297 745 292 739 289 733 L251 656 L213 733 C210 739 205 745 199 745 L136 745 C128 745 123 740 123 733 L196 585 C200 576 206 571 214 571 L288 571 Z M327 13 C327 5 332 0 340 0 L409 0 C417 0 422 5 422 13 L422 371 C422 454 398 520 312 520 L284 520 C264 520 214 519 183 459 L175 459 L175 502 C175 510 170 515 162 515 L93 515 C85 515 80 510 80 502 L80 13 C80 5 85 0 93 0 L162 0 C170 0 175 5 175 13 L175 359 C212 434 250 435 271 435 L279 435 C316 435 327 405 327 353 L327 13 Z " />
<glyph glyph-name="Eng" unicode="&#x14a;" horiz-adv-x="597" d="M375 -182 C413 -167 517 -116 517 7 L517 687 C517 695 512 700 504 700 L435 700 C427 700 422 695 422 687 L422 191 L412 191 L217 687 C213 694 207 700 199 700 L93 700 C85 700 80 695 80 687 L80 13 C80 5 85 0 93 0 L162 0 C170 0 175 5 175 13 L175 511 L186 511 L402 -43 C389 -61 369 -80 337 -94 C332 -96 330 -101 330 -106 C330 -107 331 -110 332 -112 L358 -176 C360 -181 365 -183 369 -183 C370 -183 373 -183 375 -182 L375 -182 Z " />
<glyph glyph-name="eng" unicode="&#x14b;" horiz-adv-x="492" d="M422 371 C422 454 398 520 312 520 L284 520 C264 520 214 519 183 459 L175 459 L175 502 C175 510 170 515 162 515 L93 515 C85 515 80 510 80 502 L80 13 C80 5 85 0 93 0 L162 0 C170 0 175 5 175 13 L175 359 C212 434 250 435 271 435 L279 435 C316 435 327 405 327 353 L327 12 C326 2 320 -60 242 -94 C237 -96 235 -101 235 -106 C235 -107 236 -110 237 -112 L263 -176 C265 -181 270 -183 274 -183 C275 -183 278 -183 280 -182 C318 -167 422 -116 422 7 L422 371 Z " />
<glyph glyph-name="Omacron" unicode="&#x14c;" horiz-adv-x="547" d="M189 836 C181 836 176 831 176 823 L176 764 C176 756 181 751 189 751 L356 751 C364 751 369 756 369 764 L369 823 C369 831 364 836 356 836 L189 836 Z M228 705 C135 705 70 633 70 545 L70 155 C70 67 135 -5 228 -5 L319 -5 C412 -5 477 67 477 155 L477 545 C477 633 412 705 319 705 L228 705 Z M237 80 C195 80 165 117 165 165 L165 535 C165 581 195 620 237 620 L310 620 C352 620 382 581 382 535 L382 165 C382 117 352 80 310 80 L237 80 Z " />
<glyph glyph-name="omacron" unicode="&#x14d;" horiz-adv-x="462" d="M149 656 C141 656 136 651 136 643 L136 584 C136 576 141 571 149 571 L315 571 C323 571 328 576 328 584 L328 643 C328 651 323 656 315 656 L149 656 Z M199 520 C112 520 65 446 65 374 L65 141 C65 69 112 -5 199 -5 L262 -5 C350 -5 397 69 397 141 L397 374 C397 446 350 520 263 520 L199 520 Z M217 80 C184 80 160 111 160 146 L160 369 C160 404 184 435 217 435 L245 435 C278 435 302 404 302 369 L302 146 C302 111 278 80 245 80 L217 80 Z " />
<glyph glyph-name="Ohungarumlaut" unicode="&#x150;" horiz-adv-x="547" d="M226 751 C235 751 240 757 244 765 L296 875 C296 884 290 889 282 889 L221 889 C212 889 207 883 203 875 L151 765 C151 756 156 751 165 751 L226 751 Z M386 751 C395 751 400 757 404 765 L456 875 C456 884 450 889 442 889 L381 889 C372 889 367 883 363 875 L311 765 C311 756 316 751 325 751 L386 751 Z M228 705 C135 705 70 633 70 545 L70 155 C70 67 135 -5 228 -5 L319 -5 C412 -5 477 67 477 155 L477 545 C477 633 412 705 319 705 L228 705 Z M237 80 C195 80 165 117 165 165 L165 535 C165 581 195 620 237 620 L310 620 C352 620 382 581 382 535 L382 165 C382 117 352 80 310 80 L237 80 Z " />
<glyph glyph-name="ohungarumlaut" unicode="&#x151;" horiz-adv-x="462" d="M173 571 C182 571 187 577 191 585 L243 695 C243 704 237 709 229 709 L168 709 C159 709 154 703 150 695 L98 585 C98 576 103 571 112 571 L173 571 Z M327 571 C336 571 341 577 345 585 L397 695 C397 704 391 709 383 709 L322 709 C313 709 308 703 304 695 L252 585 C252 576 257 571 266 571 L327 571 Z M199 520 C112 520 65 446 65 374 L65 141 C65 69 112 -5 199 -5 L262 -5 C350 -5 397 69 397 141 L397 374 C397 446 350 520 263 520 L199 520 Z M217 80 C184 80 160 111 160 146 L160 369 C160 404 184 435 217 435 L245 435 C278 435 302 404 302 369 L302 146 C302 111 278 80 245 80 L217 80 Z " />
<glyph glyph-name="OE" unicode="&#x152;" horiz-adv-x="783" d="M309 700 L238 700 C145 700 70 628 70 540 L70 160 C70 72 145 0 238 0 L700 0 C708 0 713 5 713 13 L713 72 C713 80 708 85 700 85 L477 85 L477 293 L676 293 C684 293 689 298 689 306 L689 365 C689 373 684 378 676 378 L477 378 L477 615 L700 615 C708 615 713 620 713 628 L713 687 C713 695 708 700 700 700 L309 700 Z M382 166 C380 120 341 85 300 85 L247 85 C205 85 165 122 165 170 L165 530 C165 576 205 615 247 615 L300 615 C341 615 382 578 382 533 L382 166 Z " />
<glyph glyph-name="oe" unicode="&#x153;" horiz-adv-x="694" d="M551 105 C538 90 524 80 491 80 L454 80 C422 80 399 108 397 141 L397 216 L621 216 C629 216 634 221 634 229 L634 374 C634 446 588 520 499 520 L436 520 C400 520 371 507 349 488 C328 507 298 520 263 520 L199 520 C112 520 65 446 65 374 L65 141 C65 69 112 -5 199 -5 L262 -5 C298 -5 327 7 349 27 C371 7 400 -5 436 -5 L491 -5 C491 -5 567 -5 616 56 C618 59 619 61 619 64 C619 67 616 71 614 73 L570 108 C567 110 565 111 562 111 C558 111 553 108 551 105 L551 105 Z M217 80 C184 80 160 111 160 146 L160 369 C160 404 184 435 217 435 L245 435 C276 435 300 407 302 374 L302 141 C300 108 276 80 245 80 L217 80 Z M397 369 C397 404 421 435 454 435 L483 435 C516 435 539 404 539 369 L539 301 L397 301 L397 369 Z " />
<glyph glyph-name="Racute" unicode="&#x154;" horiz-adv-x="529" d="M277 751 C285 751 290 757 294 765 L350 883 C350 892 344 897 336 897 L275 897 C267 897 262 891 258 883 L202 765 C202 756 207 751 216 751 L277 751 Z M479 378 L479 539 C479 628 404 700 311 700 L93 700 C85 700 80 695 80 687 L80 13 C80 5 85 0 93 0 L162 0 C170 0 175 5 175 13 L175 217 L278 217 L372 13 C375 6 379 0 387 0 L463 0 C471 0 476 5 476 13 L374 229 C436 253 479 311 479 378 L479 378 Z M384 386 C384 339 345 302 303 302 L175 302 L175 615 L303 615 C345 615 384 575 384 530 L384 386 Z " />
<glyph glyph-name="racute" unicode="&#x155;" horiz-adv-x="350" d="M164 571 C172 571 177 577 181 585 L237 703 C237 712 231 717 223 717 L162 717 C154 717 149 711 145 703 L89 585 C89 576 94 571 103 571 L164 571 Z M302 432 C310 432 315 437 315 445 L320 503 C320 509 317 513 311 515 C296 520 278 520 267 520 C247 520 205 520 183 459 L175 459 L175 502 C175 510 170 515 162 515 L93 515 C85 515 80 510 80 502 L80 13 C80 5 85 0 93 0 L162 0 C170 0 175 5 175 13 L175 359 C208 425 248 435 261 435 C277 435 288 434 302 432 L302 432 Z " />
<glyph glyph-name="uni0156" unicode="&#x156;" horiz-adv-x="529" d="M241 -53 C232 -53 227 -59 223 -67 L180 -179 C180 -188 186 -193 194 -193 L255 -193 C264 -193 269 -187 273 -179 L316 -67 C316 -58 311 -53 302 -53 L241 -53 Z M479 378 L479 539 C479 628 404 700 311 700 L93 700 C85 700 80 695 80 687 L80 13 C80 5 85 0 93 0 L162 0 C170 0 175 5 175 13 L175 217 L278 217 L372 13 C375 6 379 0 387 0 L463 0 C471 0 476 5 476 13 L374 229 C436 253 479 311 479 378 L479 378 Z M384 386 C384 339 345 302 303 302 L175 302 L175 615 L303 615 C345 615 384 575 384 530 L384 386 Z " />
<glyph glyph-name="uni0157" unicode="&#x157;" horiz-adv-x="350" d="M143 -53 C134 -53 129 -59 125 -67 L82 -179 C82 -188 88 -193 96 -193 L157 -193 C166 -193 171 -187 175 -179 L218 -67 C218 -58 213 -53 204 -53 L143 -53 Z M302 432 C310 432 315 437 315 445 L320 503 C320 509 317 513 311 515 C296 520 278 520 267 520 C247 520 205 520 183 459 L175 459 L175 502 C175 510 170 515 162 515 L93 515 C85 515 80 510 80 502 L80 13 C80 5 85 0 93 0 L162 0 C170 0 175 5 175 13 L175 359 C208 425 248 435 261 435 C277 435 288 434 302 432 L302 432 Z " />
<glyph glyph-name="Rcaron" unicode="&#x158;" horiz-adv-x="529" d="M272 751 C280 751 286 756 290 765 L363 913 C363 920 358 925 350 925 L287 925 C281 925 276 919 273 913 L235 836 L197 913 C194 919 189 925 183 925 L120 925 C112 925 107 920 107 913 L180 765 C184 756 190 751 198 751 L272 751 Z M479 378 L479 539 C479 628 404 700 311 700 L93 700 C85 700 80 695 80 687 L80 13 C80 5 85 0 93 0 L162 0 C170 0 175 5 175 13 L175 217 L278 217 L372 13 C375 6 379 0 387 0 L463 0 C471 0 476 5 476 13 L374 229 C436 253 479 311 479 378 L479 378 Z M384 386 C384 339 345 302 303 302 L175 302 L175 615 L303 615 C345 615 384 575 384 530 L384 386 Z " />
<glyph glyph-name="rcaron" unicode="&#x159;" horiz-adv-x="350" d="M238 571 C245 571 251 575 254 584 L320 717 C320 723 316 727 308 727 L252 727 C246 727 242 722 239 717 L205 647 L171 717 C168 722 164 727 158 727 L102 727 C94 727 90 723 90 717 L156 584 C159 575 165 571 172 571 L238 571 Z M302 432 C310 432 315 437 315 445 L320 503 C320 509 317 513 311 515 C296 520 278 520 267 520 C247 520 205 520 183 459 L175 459 L175 502 C175 510 170 515 162 515 L93 515 C85 515 80 510 80 502 L80 13 C80 5 85 0 93 0 L162 0 C170 0 175 5 175 13 L175 359 C208 425 248 435 261 435 C277 435 288 434 302 432 L302 432 Z " />
<glyph glyph-name="Sacute" unicode="&#x15a;" horiz-adv-x="513" d="M222 751 C213 751 208 756 208 765 L264 883 C268 891 273 897 281 897 L342 897 C350 897 356 892 356 883 L300 765 C296 757 291 751 283 751 L222 751 Z M215 80 C173 80 145 119 145 165 L145 182 C145 190 140 195 132 195 L63 195 C55 195 50 190 50 182 L50 155 C50 67 117 -5 208 -5 L300 -5 C393 -5 458 67 458 155 L458 172 C458 464 145 314 145 509 L145 535 C145 581 173 620 215 620 L283 620 C325 620 353 581 353 535 L353 518 C353 510 358 505 366 505 L435 505 C443 505 448 510 448 518 L448 545 C448 633 381 705 290 705 L207 705 C116 705 50 633 50 545 L50 522 C50 228 363 381 363 184 L363 165 C363 117 333 80 291 80 L215 80 Z " />
<glyph glyph-name="sacute" unicode="&#x15b;" horiz-adv-x="440" d="M251 571 C259 571 264 577 268 585 L324 703 C324 712 318 717 310 717 L249 717 C241 717 236 711 232 703 L176 585 C176 576 181 571 190 571 L251 571 Z M232 435 C266 435 289 404 289 369 L289 357 C289 349 294 344 302 344 L371 344 C379 344 384 349 384 357 L384 374 C384 446 336 520 249 520 L190 520 C102 520 56 458 56 386 L56 379 C56 182 295 256 295 150 L295 136 C295 98 272 80 238 80 L207 80 C173 80 150 111 150 146 L150 158 C150 166 145 171 137 171 L68 171 C60 171 55 166 55 158 L55 141 C55 69 103 -5 190 -5 L256 -5 C345 -5 390 57 390 129 L390 143 C390 341 151 267 151 369 L151 379 C151 417 174 435 208 435 L232 435 Z " />
<glyph glyph-name="Scircumflex" unicode="&#x15c;" horiz-adv-x="513" d="M285 925 C293 925 299 920 303 911 L376 763 C376 756 371 751 363 751 L300 751 C294 751 289 757 286 763 L248 840 L210 763 C207 757 202 751 196 751 L133 751 C125 751 120 756 120 763 L193 911 C197 920 203 925 211 925 L285 925 Z M215 80 C173 80 145 119 145 165 L145 182 C145 190 140 195 132 195 L63 195 C55 195 50 190 50 182 L50 155 C50 67 117 -5 208 -5 L300 -5 C393 -5 458 67 458 155 L458 172 C458 464 145 314 145 509 L145 535 C145 581 173 620 215 620 L283 620 C325 620 353 581 353 535 L353 518 C353 510 358 505 366 505 L435 505 C443 505 448 510 448 518 L448 545 C448 633 381 705 290 705 L207 705 C116 705 50 633 50 545 L50 522 C50 228 363 381 363 184 L363 165 C363 117 333 80 291 80 L215 80 Z " />
<glyph glyph-name="scircumflex" unicode="&#x15d;" horiz-adv-x="440" d="M186 745 C178 745 172 740 168 731 L95 583 C95 576 100 571 108 571 L171 571 C177 571 182 577 185 583 L223 660 L261 583 C264 577 269 571 275 571 L338 571 C346 571 351 576 351 583 L278 731 C274 740 268 745 260 745 L186 745 Z M232 435 C266 435 289 404 289 369 L289 357 C289 349 294 344 302 344 L371 344 C379 344 384 349 384 357 L384 374 C384 446 336 520 249 520 L190 520 C102 520 56 458 56 386 L56 379 C56 182 295 256 295 150 L295 136 C295 98 272 80 238 80 L207 80 C173 80 150 111 150 146 L150 158 C150 166 145 171 137 171 L68 171 C60 171 55 166 55 158 L55 141 C55 69 103 -5 190 -5 L256 -5 C345 -5 390 57 390 129 L390 143 C390 341 151 267 151 369 L151 379 C151 417 174 435 208 435 L232 435 Z " />
<glyph glyph-name="Scedilla" unicode="&#x15e;" horiz-adv-x="513" d="M145 509 L145 535 C145 581 173 620 215 620 L283 620 C325 620 353 581 353 535 L353 518 C353 510 358 505 366 505 L435 505 C443 505 448 510 448 518 L448 545 C448 633 381 705 290 705 L207 705 C116 705 50 633 50 545 L50 522 C50 228 363 381 363 184 L363 165 C363 117 333 80 291 80 L215 80 C173 80 145 119 145 165 L145 182 C145 190 140 195 132 195 L63 195 C55 195 50 190 50 182 L50 155 C50 67 117 -5 208 -5 L223 -5 L198 -52 C196 -55 195 -58 195 -60 L195 -93 C195 -98 199 -102 204 -102 L259 -102 C259 -102 283 -102 283 -125 C283 -146 259 -146 259 -146 L199 -146 C194 -146 190 -150 190 -155 L190 -186 C190 -191 194 -195 199 -195 L276 -195 C323 -195 338 -178 338 -119 C338 -71 300 -53 261 -53 L286 -5 L300 -5 C393 -5 458 67 458 155 L458 172 C458 464 145 314 145 509 L145 509 Z " />
<glyph glyph-name="scedilla" unicode="&#x15f;" horiz-adv-x="440" d="M167 -52 C165 -55 164 -58 164 -60 L164 -93 C164 -98 168 -102 173 -102 L228 -102 C228 -102 252 -102 252 -125 C252 -146 228 -146 228 -146 L168 -146 C163 -146 159 -150 159 -155 L159 -186 C159 -191 163 -195 168 -195 L245 -195 C292 -195 307 -178 307 -119 C307 -71 269 -53 230 -53 L252 -5 L256 -5 C345 -5 390 57 390 129 L390 143 C390 341 151 267 151 369 L151 379 C151 417 174 435 208 435 L232 435 C266 435 289 404 289 369 L289 357 C289 349 294 344 302 344 L371 344 C379 344 384 349 384 357 L384 374 C384 446 336 520 249 520 L190 520 C102 520 56 458 56 386 L56 379 C56 182 295 256 295 150 L295 136 C295 98 272 80 238 80 L207 80 C173 80 150 111 150 146 L150 158 C150 166 145 171 137 171 L68 171 C60 171 55 166 55 158 L55 141 C55 69 103 -5 190 -5 L194 -5 L167 -52 Z " />
<glyph glyph-name="Scaron" unicode="&#x160;" horiz-adv-x="513" d="M211 769 C203 769 197 774 193 783 L120 931 C120 938 125 943 133 943 L196 943 C202 943 207 937 210 931 L248 854 L286 931 C289 937 294 943 300 943 L363 943 C371 943 376 938 376 931 L303 783 C299 774 293 769 285 769 L211 769 Z M215 80 C173 80 145 119 145 165 L145 182 C145 190 140 195 132 195 L63 195 C55 195 50 190 50 182 L50 155 C50 67 117 -5 208 -5 L300 -5 C393 -5 458 67 458 155 L458 172 C458 464 145 314 145 509 L145 535 C145 581 173 620 215 620 L283 620 C325 620 353 581 353 535 L353 518 C353 510 358 505 366 505 L435 505 C443 505 448 510 448 518 L448 545 C448 633 381 705 290 705 L207 705 C116 705 50 633 50 545 L50 522 C50 228 363 381 363 184 L363 165 C363 117 333 80 291 80 L215 80 Z " />
<glyph glyph-name="scaron" unicode="&#x161;" horiz-adv-x="440" d="M260 571 C268 571 274 576 278 585 L351 733 C351 740 346 745 338 745 L275 745 C269 745 264 739 261 733 L223 656 L185 733 C182 739 177 745 171 745 L108 745 C100 745 95 740 95 733 L168 585 C172 576 178 571 186 571 L260 571 Z M232 435 C266 435 289 404 289 369 L289 357 C289 349 294 344 302 344 L371 344 C379 344 384 349 384 357 L384 374 C384 446 336 520 249 520 L190 520 C102 520 56 458 56 386 L56 379 C56 182 295 256 295 150 L295 136 C295 98 272 80 238 80 L207 80 C173 80 150 111 150 146 L150 158 C150 166 145 171 137 171 L68 171 C60 171 55 166 55 158 L55 141 C55 69 103 -5 190 -5 L256 -5 C345 -5 390 57 390 129 L390 143 C390 341 151 267 151 369 L151 379 C151 417 174 435 208 435 L232 435 Z " />
<glyph glyph-name="uni0162" unicode="&#x162;" horiz-adv-x="487" d="M291 46 L291 615 L429 615 C437 615 442 620 442 628 L442 687 C442 695 437 700 429 700 L58 700 C50 700 45 695 45 687 L45 628 C45 620 50 615 58 615 L196 615 L196 13 C196 5 201 0 209 0 L278 0 C288 0 303 -4 303 -22 C303 -44 275 -44 275 -44 L211 -44 C206 -44 202 -48 202 -53 L202 -84 C202 -89 206 -93 211 -93 L288 -93 C337 -93 364 -62 364 -24 C364 25 334 46 291 46 L291 46 Z " />
<glyph glyph-name="uni0163" unicode="&#x163;" horiz-adv-x="345" d="M158 -45 C156 -48 155 -51 155 -53 L155 -86 C155 -91 159 -95 164 -95 L219 -95 C219 -95 243 -95 243 -118 C243 -139 219 -139 219 -139 L159 -139 C154 -139 150 -143 150 -148 L150 -179 C150 -184 154 -188 159 -188 L236 -188 C283 -188 298 -171 298 -112 C298 -64 260 -46 221 -46 L243 0 L292 0 C300 0 305 5 305 13 L305 72 C305 80 300 85 292 85 L272 85 C239 85 204 117 204 151 L204 430 L292 430 C300 430 305 435 305 443 L305 502 C305 510 300 515 292 515 L204 515 L204 687 C204 695 199 700 191 700 L122 700 C114 700 109 695 109 687 L109 515 L48 515 C40 515 35 510 35 502 L35 443 C35 435 40 430 48 430 L109 430 L109 148 C112 95 140 42 188 16 L158 -45 Z " />
<glyph glyph-name="Tcaron" unicode="&#x164;" horiz-adv-x="487" d="M280 751 C288 751 294 756 298 765 L371 913 C371 920 366 925 358 925 L295 925 C289 925 284 919 281 913 L243 836 L205 913 C202 919 197 925 191 925 L128 925 C120 925 115 920 115 913 L188 765 C192 756 198 751 206 751 L280 751 Z M58 700 C50 700 45 695 45 687 L45 628 C45 620 50 615 58 615 L196 615 L196 13 C196 5 201 0 209 0 L278 0 C286 0 291 5 291 13 L291 615 L429 615 C437 615 442 620 442 628 L442 687 C442 695 437 700 429 700 L58 700 Z " />
<glyph glyph-name="tcaron" unicode="&#x165;" horiz-adv-x="502" d="M408 570 C416 570 421 576 425 584 L472 686 C472 695 466 700 458 700 L397 700 C389 700 384 694 380 686 L333 584 C333 575 338 570 347 570 L408 570 Z M292 0 C300 0 305 5 305 13 L305 72 C305 80 300 85 292 85 L272 85 C239 85 204 117 204 151 L204 430 L292 430 C300 430 305 435 305 443 L305 502 C305 510 300 515 292 515 L204 515 L204 687 C204 695 199 700 191 700 L122 700 C114 700 109 695 109 687 L109 515 L48 515 C40 515 35 510 35 502 L35 443 C35 435 40 430 48 430 L109 430 L109 148 C114 74 166 0 253 0 L292 0 Z " />
<glyph glyph-name="Tbar" unicode="&#x166;" horiz-adv-x="487" d="M99 373 C91 373 86 368 86 360 L86 301 C86 293 91 288 99 288 L196 288 L196 13 C196 5 201 0 209 0 L278 0 C286 0 291 5 291 13 L291 288 L388 288 C396 288 401 293 401 301 L401 360 C401 368 396 373 388 373 L291 373 L291 615 L429 615 C437 615 442 620 442 628 L442 687 C442 695 437 700 429 700 L58 700 C50 700 45 695 45 687 L45 628 C45 620 50 615 58 615 L196 615 L196 373 L99 373 Z " />
<glyph glyph-name="tbar" unicode="&#x167;" horiz-adv-x="345" d="M48 319 C40 319 35 314 35 306 L35 247 C35 239 40 234 48 234 L109 234 L109 148 C114 74 166 0 253 0 L292 0 C300 0 305 5 305 13 L305 72 C305 80 300 85 292 85 L272 85 C239 85 204 117 204 151 L204 234 L292 234 C300 234 305 239 305 247 L305 306 C305 314 300 319 292 319 L204 319 L204 430 L292 430 C300 430 305 435 305 443 L305 502 C305 510 300 515 292 515 L204 515 L204 687 C204 695 199 700 191 700 L122 700 C114 700 109 695 109 687 L109 515 L48 515 C40 515 35 510 35 502 L35 443 C35 435 40 430 48 430 L109 430 L109 319 L48 319 Z " />
<glyph glyph-name="Utilde" unicode="&#x168;" horiz-adv-x="557" d="M387 165 C387 117 357 80 315 80 L242 80 C200 80 170 117 170 165 L170 687 C170 695 165 700 157 700 L88 700 C80 700 75 695 75 687 L75 155 C75 67 140 -5 233 -5 L324 -5 C417 -5 482 67 482 155 L482 687 C482 695 477 700 469 700 L400 700 C392 700 387 695 387 687 L387 165 Z M328 751 C347 751 364 759 384 771 C389 774 392 779 392 785 L377 837 C375 843 370 845 365 845 C363 845 361 845 358 844 C345 840 335 836 328 836 C273 836 282 867 230 867 C211 867 194 859 174 847 C169 844 166 839 166 833 L181 781 C183 775 188 773 193 773 C195 773 197 773 200 774 C213 778 223 782 230 782 C285 782 275 751 328 751 L328 751 Z " />
<glyph glyph-name="utilde" unicode="&#x169;" horiz-adv-x="472" d="M307 146 C307 111 283 80 250 80 L222 80 C189 80 165 111 165 146 L165 502 C165 510 160 515 152 515 L83 515 C75 515 70 510 70 502 L70 141 C70 69 117 -5 204 -5 L267 -5 C355 -5 402 69 402 141 L402 502 C402 510 397 515 389 515 L320 515 C312 515 307 510 307 502 L307 146 Z M282 571 C301 571 318 579 338 591 C343 594 346 599 346 605 L331 657 C329 663 324 665 319 665 C317 665 315 665 312 664 C299 660 289 656 282 656 C227 656 236 687 184 687 C165 687 148 679 128 667 C123 664 120 659 120 653 L135 601 C137 595 142 593 147 593 C149 593 151 593 154 594 C167 598 177 602 184 602 C239 602 229 571 282 571 L282 571 Z " />
<glyph glyph-name="Umacron" unicode="&#x16a;" horiz-adv-x="557" d="M178 836 C170 836 165 831 165 823 L165 764 C165 756 170 751 178 751 L378 751 C386 751 391 756 391 764 L391 823 C391 831 386 836 378 836 L178 836 Z M387 165 C387 117 357 80 315 80 L242 80 C200 80 170 117 170 165 L170 687 C170 695 165 700 157 700 L88 700 C80 700 75 695 75 687 L75 155 C75 67 140 -5 233 -5 L324 -5 C417 -5 482 67 482 155 L482 687 C482 695 477 700 469 700 L400 700 C392 700 387 695 387 687 L387 165 Z " />
<glyph glyph-name="umacron" unicode="&#x16b;" horiz-adv-x="472" d="M136 656 C128 656 123 651 123 643 L123 584 C123 576 128 571 136 571 L336 571 C344 571 349 576 349 584 L349 643 C349 651 344 656 336 656 L136 656 Z M307 146 C307 111 283 80 250 80 L222 80 C189 80 165 111 165 146 L165 502 C165 510 160 515 152 515 L83 515 C75 515 70 510 70 502 L70 141 C70 69 117 -5 204 -5 L267 -5 C355 -5 402 69 402 141 L402 502 C402 510 397 515 389 515 L320 515 C312 515 307 510 307 502 L307 146 Z " />
<glyph glyph-name="Ubreve" unicode="&#x16c;" horiz-adv-x="557" d="M387 165 C387 117 357 80 315 80 L242 80 C200 80 170 117 170 165 L170 687 C170 695 165 700 157 700 L88 700 C80 700 75 695 75 687 L75 155 C75 67 140 -5 233 -5 L324 -5 C417 -5 482 67 482 155 L482 687 C482 695 477 700 469 700 L400 700 C392 700 387 695 387 687 L387 165 Z M278 751 C365 751 394 796 410 884 C410 893 404 899 395 899 L340 899 C332 899 325 893 323 884 C313 838 298 832 278 832 C258 832 243 838 233 884 C231 893 224 899 216 899 L161 899 C152 899 146 893 146 884 C162 796 191 751 278 751 L278 751 Z " />
<glyph glyph-name="ubreve" unicode="&#x16d;" horiz-adv-x="472" d="M307 146 C307 111 283 80 250 80 L222 80 C189 80 165 111 165 146 L165 502 C165 510 160 515 152 515 L83 515 C75 515 70 510 70 502 L70 141 C70 69 117 -5 204 -5 L267 -5 C355 -5 402 69 402 141 L402 502 C402 510 397 515 389 515 L320 515 C312 515 307 510 307 502 L307 146 Z M237 571 C324 571 353 616 369 704 C369 713 363 719 354 719 L299 719 C291 719 284 713 282 704 C272 658 257 652 237 652 C217 652 202 658 192 704 C190 713 183 719 175 719 L120 719 C111 719 105 713 105 704 C121 616 150 571 237 571 L237 571 Z " />
<glyph glyph-name="Uring" unicode="&#x16e;" horiz-adv-x="557" d="M279 977 C208 977 150 920 150 848 C150 777 208 719 279 719 C350 719 408 777 408 848 C408 920 350 977 279 977 L279 977 Z M279 791 C247 791 222 819 222 848 C222 881 247 905 279 905 C311 905 336 881 336 848 C336 819 311 791 279 791 L279 791 Z M387 165 C387 117 357 80 315 80 L242 80 C200 80 170 117 170 165 L170 687 C170 695 165 700 157 700 L88 700 C80 700 75 695 75 687 L75 155 C75 67 140 -5 233 -5 L324 -5 C417 -5 482 67 482 155 L482 687 C482 695 477 700 469 700 L400 700 C392 700 387 695 387 687 L387 165 Z " />
<glyph glyph-name="uring" unicode="&#x16f;" horiz-adv-x="472" d="M235 829 C164 829 106 772 106 700 C106 629 164 571 235 571 C306 571 364 629 364 700 C364 772 306 829 235 829 L235 829 Z M235 643 C203 643 178 671 178 700 C178 733 203 757 235 757 C267 757 292 733 292 700 C292 671 267 643 235 643 L235 643 Z M307 146 C307 111 283 80 250 80 L222 80 C189 80 165 111 165 146 L165 502 C165 510 160 515 152 515 L83 515 C75 515 70 510 70 502 L70 141 C70 69 117 -5 204 -5 L267 -5 C355 -5 402 69 402 141 L402 502 C402 510 397 515 389 515 L320 515 C312 515 307 510 307 502 L307 146 Z " />
<glyph glyph-name="Uhungarumlaut" unicode="&#x170;" horiz-adv-x="557" d="M229 751 C238 751 243 757 247 765 L299 875 C299 884 293 889 285 889 L224 889 C215 889 210 883 206 875 L154 765 C154 756 159 751 168 751 L229 751 Z M389 751 C398 751 403 757 407 765 L459 875 C459 884 453 889 445 889 L384 889 C375 889 370 883 366 875 L314 765 C314 756 319 751 328 751 L389 751 Z M387 165 C387 117 357 80 315 80 L242 80 C200 80 170 117 170 165 L170 687 C170 695 165 700 157 700 L88 700 C80 700 75 695 75 687 L75 155 C75 67 140 -5 233 -5 L324 -5 C417 -5 482 67 482 155 L482 687 C482 695 477 700 469 700 L400 700 C392 700 387 695 387 687 L387 165 Z " />
<glyph glyph-name="uhungarumlaut" unicode="&#x171;" horiz-adv-x="472" d="M170 571 C179 571 184 577 188 585 L240 695 C240 704 234 709 226 709 L165 709 C156 709 151 703 147 695 L95 585 C95 576 100 571 109 571 L170 571 Z M330 571 C339 571 344 577 348 585 L400 695 C400 704 394 709 386 709 L325 709 C316 709 311 703 307 695 L255 585 C255 576 260 571 269 571 L330 571 Z M307 146 C307 111 283 80 250 80 L222 80 C189 80 165 111 165 146 L165 502 C165 510 160 515 152 515 L83 515 C75 515 70 510 70 502 L70 141 C70 69 117 -5 204 -5 L267 -5 C355 -5 402 69 402 141 L402 502 C402 510 397 515 389 515 L320 515 C312 515 307 510 307 502 L307 146 Z " />
<glyph glyph-name="Uogonek" unicode="&#x172;" horiz-adv-x="557" d="M220 -52 C218 -55 217 -58 217 -60 L217 -93 C217 -98 221 -102 226 -102 L281 -102 C281 -102 305 -102 305 -125 C305 -146 281 -146 281 -146 L221 -146 C216 -146 212 -150 212 -155 L212 -186 C212 -191 216 -195 221 -195 L298 -195 C345 -195 360 -178 360 -119 C360 -71 322 -53 283 -53 L307 -5 L324 -5 C417 -5 482 67 482 155 L482 687 C482 695 477 700 469 700 L400 700 C392 700 387 695 387 687 L387 165 C387 117 357 80 315 80 L242 80 C200 80 170 117 170 165 L170 687 C170 695 165 700 157 700 L88 700 C80 700 75 695 75 687 L75 155 C75 67 140 -5 233 -5 L244 -5 L220 -52 Z " />
<glyph glyph-name="uogonek" unicode="&#x173;" horiz-adv-x="472" d="M389 515 L320 515 C312 515 307 510 307 502 L307 146 C307 111 283 80 250 80 L222 80 C189 80 165 111 165 146 L165 502 C165 510 160 515 152 515 L83 515 C75 515 70 510 70 502 L70 141 C70 69 117 -5 204 -5 L208 -5 L208 -53 C169 -53 130 -71 130 -119 C130 -178 145 -195 192 -195 L269 -195 C274 -195 278 -191 278 -186 L278 -155 C278 -150 274 -146 269 -146 L209 -146 C209 -146 185 -146 185 -125 C185 -102 209 -102 209 -102 L259 -102 C264 -102 268 -98 268 -93 L268 -5 C356 -4 402 70 402 141 L402 502 C402 510 397 515 389 515 L389 515 Z " />
<glyph glyph-name="Ydieresis" unicode="&#x178;" horiz-adv-x="529" d="M132 766 C132 757 138 751 147 751 L218 751 C227 751 233 757 233 766 L233 843 C233 852 227 858 218 858 L147 858 C138 858 132 852 132 843 L132 766 Z M295 766 C295 757 301 751 310 751 L381 751 C390 751 396 757 396 766 L396 843 C396 852 390 858 381 858 L310 858 C301 858 295 852 295 843 L295 766 Z M312 220 L499 687 C499 695 494 700 486 700 L415 700 C407 700 404 697 400 689 L269 358 L260 358 L129 689 C125 697 122 700 114 700 L43 700 C35 700 30 695 30 687 L217 220 L217 13 C217 5 222 0 230 0 L299 0 C307 0 312 5 312 13 L312 220 Z " />
<glyph glyph-name="Zacute" unicode="&#x179;" horiz-adv-x="480" d="M277 751 C285 751 290 757 294 765 L350 883 C350 892 344 897 336 897 L275 897 C267 897 262 891 258 883 L202 765 C202 756 207 751 216 751 L277 751 Z M311 615 L59 73 C57 69 55 64 55 59 L55 13 C55 5 60 0 68 0 L412 0 C420 0 425 5 425 13 L425 72 C425 80 420 85 412 85 L169 85 L421 627 C423 631 425 636 425 641 L425 687 C425 695 420 700 412 700 L68 700 C60 700 55 695 55 687 L55 628 C55 620 60 615 68 615 L311 615 Z " />
<glyph glyph-name="zacute" unicode="&#x17a;" horiz-adv-x="405" d="M246 571 C254 571 259 577 263 585 L319 703 C319 712 313 717 305 717 L244 717 C236 717 231 711 227 703 L171 585 C171 576 176 571 185 571 L246 571 Z M351 442 C353 446 355 449 355 454 L355 502 C355 510 350 515 342 515 L63 515 C55 515 50 510 50 502 L50 443 C50 435 55 430 63 430 L247 430 L54 73 C52 69 50 66 50 61 L50 13 C50 5 55 0 63 0 L342 0 C350 0 355 5 355 13 L355 72 C355 80 350 85 342 85 L158 85 L351 442 Z " />
<glyph glyph-name="Zdotaccent" unicode="&#x17b;" horiz-adv-x="480" d="M190 766 C190 757 196 751 205 751 L276 751 C285 751 291 757 291 766 L291 843 C291 852 285 858 276 858 L205 858 C196 858 190 852 190 843 L190 766 Z M311 615 L59 73 C57 69 55 64 55 59 L55 13 C55 5 60 0 68 0 L412 0 C420 0 425 5 425 13 L425 72 C425 80 420 85 412 85 L169 85 L421 627 C423 631 425 636 425 641 L425 687 C425 695 420 700 412 700 L68 700 C60 700 55 695 55 687 L55 628 C55 620 60 615 68 615 L311 615 Z " />
<glyph glyph-name="zdotaccent" unicode="&#x17c;" horiz-adv-x="405" d="M152 586 C152 577 158 571 167 571 L238 571 C247 571 253 577 253 586 L253 663 C253 672 247 678 238 678 L167 678 C158 678 152 672 152 663 L152 586 Z M351 442 C353 446 355 449 355 454 L355 502 C355 510 350 515 342 515 L63 515 C55 515 50 510 50 502 L50 443 C50 435 55 430 63 430 L247 430 L54 73 C52 69 50 66 50 61 L50 13 C50 5 55 0 63 0 L342 0 C350 0 355 5 355 13 L355 72 C355 80 350 85 342 85 L158 85 L351 442 Z " />
<glyph glyph-name="Zcaron" unicode="&#x17d;" horiz-adv-x="480" d="M277 769 C285 769 291 774 295 783 L368 931 C368 938 363 943 355 943 L292 943 C286 943 281 937 278 931 L240 854 L202 931 C199 937 194 943 188 943 L125 943 C117 943 112 938 112 931 L185 783 C189 774 195 769 203 769 L277 769 Z M311 615 L59 73 C57 69 55 64 55 59 L55 13 C55 5 60 0 68 0 L412 0 C420 0 425 5 425 13 L425 72 C425 80 420 85 412 85 L169 85 L421 627 C423 631 425 636 425 641 L425 687 C425 695 420 700 412 700 L68 700 C60 700 55 695 55 687 L55 628 C55 620 60 615 68 615 L311 615 Z " />
<glyph glyph-name="zcaron" unicode="&#x17e;" horiz-adv-x="405" d="M239 571 C247 571 253 576 257 585 L330 733 C330 740 325 745 317 745 L254 745 C248 745 243 739 240 733 L202 656 L164 733 C161 739 156 745 150 745 L87 745 C79 745 74 740 74 733 L147 585 C151 576 157 571 165 571 L239 571 Z M351 442 C353 446 355 449 355 454 L355 502 C355 510 350 515 342 515 L63 515 C55 515 50 510 50 502 L50 443 C50 435 55 430 63 430 L247 430 L54 73 C52 69 50 66 50 61 L50 13 C50 5 55 0 63 0 L342 0 C350 0 355 5 355 13 L355 72 C355 80 350 85 342 85 L158 85 L351 442 Z " />
<glyph glyph-name="florin" unicode="&#x192;" horiz-adv-x="337" d="M291 700 C204 700 161 621 146 552 L131 480 L56 480 C48 480 43 475 43 467 L43 408 C43 400 48 395 56 395 L107 395 L-40 -168 C-39 -180 -34 -181 -26 -181 L41 -181 C49 -181 54 -176 56 -168 L202 395 L281 395 C289 395 294 400 294 408 L294 467 C294 475 289 480 281 480 L227 480 L243 556 C249 585 276 615 310 615 L319 615 C327 615 332 620 332 628 L332 687 C332 695 327 700 319 700 L291 700 Z " />
<glyph glyph-name="uni0218" unicode="&#x218;" horiz-adv-x="513" d="M232 -53 C223 -53 218 -59 214 -67 L171 -179 C171 -188 177 -193 185 -193 L246 -193 C255 -193 260 -187 264 -179 L307 -67 C307 -58 302 -53 293 -53 L232 -53 Z M215 80 C173 80 145 119 145 165 L145 182 C145 190 140 195 132 195 L63 195 C55 195 50 190 50 182 L50 155 C50 67 117 -5 208 -5 L300 -5 C393 -5 458 67 458 155 L458 172 C458 464 145 314 145 509 L145 535 C145 581 173 620 215 620 L283 620 C325 620 353 581 353 535 L353 518 C353 510 358 505 366 505 L435 505 C443 505 448 510 448 518 L448 545 C448 633 381 705 290 705 L207 705 C116 705 50 633 50 545 L50 522 C50 228 363 381 363 184 L363 165 C363 117 333 80 291 80 L215 80 Z " />
<glyph glyph-name="uni0219" unicode="&#x219;" horiz-adv-x="440" d="M194 -53 C185 -53 180 -59 176 -67 L133 -179 C133 -188 139 -193 147 -193 L208 -193 C217 -193 222 -187 226 -179 L269 -67 C269 -58 264 -53 255 -53 L194 -53 Z M232 435 C266 435 289 404 289 369 L289 357 C289 349 294 344 302 344 L371 344 C379 344 384 349 384 357 L384 374 C384 446 336 520 249 520 L190 520 C102 520 56 458 56 386 L56 379 C56 182 295 256 295 150 L295 136 C295 98 272 80 238 80 L207 80 C173 80 150 111 150 146 L150 158 C150 166 145 171 137 171 L68 171 C60 171 55 166 55 158 L55 141 C55 69 103 -5 190 -5 L256 -5 C345 -5 390 57 390 129 L390 143 C390 341 151 267 151 369 L151 379 C151 417 174 435 208 435 L232 435 Z " />
<glyph glyph-name="uni021A" unicode="&#x21a;" horiz-adv-x="487" d="M213 -53 C204 -53 199 -59 195 -67 L152 -179 C152 -188 158 -193 166 -193 L227 -193 C236 -193 241 -187 245 -179 L288 -67 C288 -58 283 -53 274 -53 L213 -53 Z M58 700 C50 700 45 695 45 687 L45 628 C45 620 50 615 58 615 L196 615 L196 13 C196 5 201 0 209 0 L278 0 C286 0 291 5 291 13 L291 615 L429 615 C437 615 442 620 442 628 L442 687 C442 695 437 700 429 700 L58 700 Z " />
<glyph glyph-name="uni021B" unicode="&#x21b;" horiz-adv-x="345" d="M212 -53 C203 -53 198 -59 194 -67 L151 -179 C151 -188 157 -193 165 -193 L226 -193 C235 -193 240 -187 244 -179 L287 -67 C287 -58 282 -53 273 -53 L212 -53 Z M292 0 C300 0 305 5 305 13 L305 72 C305 80 300 85 292 85 L272 85 C239 85 204 117 204 151 L204 430 L292 430 C300 430 305 435 305 443 L305 502 C305 510 300 515 292 515 L204 515 L204 687 C204 695 199 700 191 700 L122 700 C114 700 109 695 109 687 L109 515 L48 515 C40 515 35 510 35 502 L35 443 C35 435 40 430 48 430 L109 430 L109 148 C114 74 166 0 253 0 L292 0 Z " />
<glyph glyph-name="circumflex" unicode="&#x2c6;" horiz-adv-x="416" d="M171 700 C163 700 157 695 153 686 L80 538 C80 531 85 526 93 526 L156 526 C162 526 167 532 170 538 L208 615 L246 538 C249 532 254 526 260 526 L323 526 C331 526 336 531 336 538 L263 686 C259 695 253 700 245 700 L171 700 Z " />
<glyph glyph-name="caron" unicode="&#x2c7;" horiz-adv-x="416" d="M245 526 C253 526 259 531 263 540 L336 688 C336 695 331 700 323 700 L260 700 C254 700 249 694 246 688 L208 611 L170 688 C167 694 162 700 156 700 L93 700 C85 700 80 695 80 688 L153 540 C157 531 163 526 171 526 L245 526 Z " />
<glyph glyph-name="breve" unicode="&#x2d8;" horiz-adv-x="424" d="M212 552 C299 552 328 597 344 685 C344 694 338 700 329 700 L274 700 C266 700 259 694 257 685 C247 639 232 633 212 633 C192 633 177 639 167 685 C165 694 158 700 150 700 L95 700 C86 700 80 694 80 685 C96 597 125 552 212 552 L212 552 Z " />
<glyph glyph-name="dotaccent" unicode="&#x2d9;" horiz-adv-x="261" d="M80 608 C80 599 86 593 95 593 L166 593 C175 593 181 599 181 608 L181 685 C181 694 175 700 166 700 L95 700 C86 700 80 694 80 685 L80 608 Z " />
<glyph glyph-name="ring" unicode="&#x2da;" horiz-adv-x="418" d="M209 752 C138 752 80 695 80 623 C80 552 138 494 209 494 C280 494 338 552 338 623 C338 695 280 752 209 752 L209 752 Z M209 566 C177 566 152 594 152 623 C152 656 177 680 209 680 C241 680 266 656 266 623 C266 594 241 566 209 566 L209 566 Z " />
<glyph glyph-name="ogonek" unicode="&#x2db;" horiz-adv-x="308" d="M166 1 C161 1 157 -3 157 -8 L157 -53 C118 -53 80 -71 80 -119 C80 -178 95 -195 142 -195 L219 -195 C224 -195 228 -191 228 -186 L228 -155 C228 -150 224 -146 219 -146 L159 -146 C159 -146 135 -146 135 -125 C135 -102 159 -102 159 -102 L209 -102 C214 -102 218 -98 218 -93 L218 -8 C218 -3 214 1 209 1 L166 1 Z " />
<glyph glyph-name="tilde" unicode="&#x2dc;" horiz-adv-x="374" d="M232 588 C251 588 266 596 286 608 C291 611 294 616 294 622 L279 674 C277 680 272 682 267 682 C265 682 263 682 260 681 C247 677 239 673 232 673 C177 673 194 700 142 700 C123 700 108 692 88 680 C83 677 80 672 80 666 L95 614 C97 608 102 606 107 606 C109 606 111 606 114 607 C127 611 135 615 142 615 C197 615 179 588 232 588 L232 588 Z " />
<glyph glyph-name="hungarumlaut" unicode="&#x2dd;" horiz-adv-x="465" d="M155 562 C164 562 169 568 173 576 L225 686 C225 695 219 700 211 700 L150 700 C141 700 136 694 132 686 L80 576 C80 567 85 562 94 562 L155 562 Z M315 562 C324 562 329 568 333 576 L385 686 C385 695 379 700 371 700 L310 700 C301 700 296 694 292 686 L240 576 C240 567 245 562 254 562 L315 562 Z " />
<glyph glyph-name="uni03A9" unicode="&#x3a9;" horiz-adv-x="695" d="M302 700 C209 700 143 628 143 539 L143 172 C143 157 145 110 177 85 L93 85 C85 85 80 80 80 72 L80 13 C80 5 85 0 93 0 L267 0 C275 0 280 5 280 13 L280 70 C280 78 275 83 266 86 C239 98 238 155 238 175 L238 530 C238 575 268 615 310 615 L385 615 C427 615 457 575 457 530 L457 175 C457 155 456 98 429 86 C420 83 415 78 415 70 L415 13 C415 5 420 0 428 0 L602 0 C610 0 615 5 615 13 L615 72 C615 80 610 85 602 85 L518 85 C550 110 552 157 552 172 L552 539 C552 628 486 700 393 700 L302 700 Z " />
<glyph glyph-name="pi" unicode="&#x3c0;" horiz-adv-x="731" d="M93 515 C85 515 80 510 80 502 L80 443 C80 435 85 430 93 430 L211 430 L211 13 C211 5 216 0 224 0 L293 0 C301 0 306 5 306 13 L306 430 L425 430 L425 13 C425 5 430 0 438 0 L507 0 C515 0 520 5 520 13 L520 430 L638 430 C646 430 651 435 651 443 L651 502 C651 510 646 515 638 515 L93 515 Z " />
<glyph glyph-name="ZWSP" unicode="&#x200b;" d="" />
<glyph glyph-name="endash" unicode="&#x2013;" horiz-adv-x="354" d="M93 282 C85 282 80 277 80 269 L80 210 C80 202 85 197 93 197 L261 197 C269 197 274 202 274 210 L274 269 C274 277 269 282 261 282 L93 282 Z " />
<glyph glyph-name="emdash" unicode="&#x2014;" horiz-adv-x="413" d="M93 282 C85 282 80 277 80 269 L80 210 C80 202 85 197 93 197 L320 197 C328 197 333 202 333 210 L333 269 C333 277 328 282 320 282 L93 282 Z " />
<glyph glyph-name="quoteleft" unicode="&#x2018;" horiz-adv-x="294" d="M155 550 C164 550 169 556 173 564 L214 686 C214 695 208 700 200 700 L139 700 C130 700 125 694 121 686 L80 564 C80 555 85 550 94 550 L155 550 Z " />
<glyph glyph-name="quoteright" unicode="&#x2019;" horiz-adv-x="294" d="M139 700 C130 700 125 694 121 686 L80 564 C80 555 86 550 94 550 L155 550 C164 550 169 556 173 564 L214 686 C214 695 209 700 200 700 L139 700 Z " />
<glyph glyph-name="quotesinglbase" unicode="&#x201a;" horiz-adv-x="294" d="M139 82 C130 82 125 76 121 68 L80 -54 C80 -63 86 -68 94 -68 L155 -68 C164 -68 169 -62 173 -54 L214 68 C214 77 209 82 200 82 L139 82 Z " />
<glyph glyph-name="quotedblleft" unicode="&#x201c;" horiz-adv-x="456" d="M155 550 C164 550 169 556 173 564 L214 686 C214 695 208 700 200 700 L139 700 C130 700 125 694 121 686 L80 564 C80 555 85 550 94 550 L155 550 Z M317 550 C326 550 331 556 335 564 L376 686 C376 695 370 700 362 700 L301 700 C292 700 287 694 283 686 L242 564 C242 555 247 550 256 550 L317 550 Z " />
<glyph glyph-name="quotedblright" unicode="&#x201d;" horiz-adv-x="456" d="M301 700 C292 700 287 694 283 686 L242 564 C242 555 248 550 256 550 L317 550 C326 550 331 556 335 564 L376 686 C376 695 371 700 362 700 L301 700 Z M139 700 C130 700 125 694 121 686 L80 564 C80 555 86 550 94 550 L155 550 C164 550 169 556 173 564 L214 686 C214 695 209 700 200 700 L139 700 Z " />
<glyph glyph-name="quotedblbase" unicode="&#x201e;" horiz-adv-x="456" d="M301 82 C292 82 287 76 283 68 L242 -54 C242 -63 248 -68 256 -68 L317 -68 C326 -68 331 -62 335 -54 L376 68 C376 77 371 82 362 82 L301 82 Z M139 82 C130 82 125 76 121 68 L80 -54 C80 -63 86 -68 94 -68 L155 -68 C164 -68 169 -62 173 -54 L214 68 C214 77 209 82 200 82 L139 82 Z " />
<glyph glyph-name="dagger" unicode="&#x2020;" horiz-adv-x="439" d="M267 540 L267 687 C267 695 262 700 254 700 L185 700 C177 700 172 695 172 687 L172 540 L93 540 C85 540 80 535 80 527 L80 468 C80 460 85 455 93 455 L172 455 L172 -255 C172 -263 177 -268 185 -268 L254 -268 C262 -268 267 -263 267 -255 L267 455 L346 455 C354 455 359 460 359 468 L359 527 C359 535 354 540 346 540 L267 540 Z " />
<glyph glyph-name="daggerdbl" unicode="&#x2021;" horiz-adv-x="439" d="M346 -85 C354 -85 359 -80 359 -72 L359 -13 C359 -5 354 0 346 0 L267 0 L267 455 L346 455 C354 455 359 460 359 468 L359 527 C359 535 354 540 346 540 L267 540 L267 687 C267 695 262 700 254 700 L185 700 C177 700 172 695 172 687 L172 540 L93 540 C85 540 80 535 80 527 L80 468 C80 460 85 455 93 455 L172 455 L172 0 L93 0 C85 0 80 -5 80 -13 L80 -72 C80 -80 85 -85 93 -85 L172 -85 L172 -255 C172 -263 177 -268 185 -268 L254 -268 C262 -268 267 -263 267 -255 L267 -85 L346 -85 Z " />
<glyph glyph-name="bullet" unicode="&#x2022;" horiz-adv-x="261" d="M80 187 C80 178 86 172 95 172 L166 172 C175 172 181 178 181 187 L181 264 C181 273 175 279 166 279 L95 279 C86 279 80 273 80 264 L80 187 Z " />
<glyph glyph-name="ellipsis" unicode="&#x2026;" horiz-adv-x="963" d="M80 10 C80 1 86 -5 95 -5 L166 -5 C175 -5 181 1 181 10 L181 87 C181 96 175 102 166 102 L95 102 C86 102 80 96 80 87 L80 10 Z M431 10 C431 1 437 -5 446 -5 L517 -5 C526 -5 532 1 532 10 L532 87 C532 96 526 102 517 102 L446 102 C437 102 431 96 431 87 L431 10 Z M782 10 C782 1 788 -5 797 -5 L868 -5 C877 -5 883 1 883 10 L883 87 C883 96 877 102 868 102 L797 102 C788 102 782 96 782 87 L782 10 Z " />
<glyph glyph-name="perthousand" unicode="&#x2030;" horiz-adv-x="1071" d="M204 13 C204 5 209 0 217 0 L289 0 C297 0 301 5 304 13 L589 687 C589 695 584 700 576 700 L504 700 C496 700 492 695 489 687 L204 13 Z M201 700 C134 700 80 645 80 579 C80 512 134 457 201 457 C268 457 324 512 324 579 C324 645 268 700 201 700 L201 700 Z M201 528 C172 528 150 553 150 579 C150 608 172 630 201 630 C227 630 252 608 252 579 C252 553 227 528 201 528 L201 528 Z M583 243 C516 243 462 188 462 122 C462 55 516 0 583 0 C650 0 706 55 706 122 C706 188 650 243 583 243 L583 243 Z M583 71 C554 71 532 96 532 122 C532 151 554 173 583 173 C609 173 634 151 634 122 C634 96 609 71 583 71 L583 71 Z M868 243 C801 243 747 188 747 122 C747 55 801 0 868 0 C935 0 991 55 991 122 C991 188 935 243 868 243 L868 243 Z M868 71 C839 71 817 96 817 122 C817 151 839 173 868 173 C894 173 919 151 919 122 C919 96 894 71 868 71 L868 71 Z " />
<glyph glyph-name="guilsinglleft" unicode="&#x2039;" horiz-adv-x="354" d="M80 175 C80 166 86 160 94 158 L262 97 C268 97 274 101 274 109 L274 171 C274 180 268 184 262 187 L158 225 L158 232 L262 270 C268 273 274 277 274 286 L274 348 C274 356 268 360 262 360 L94 299 C86 297 80 291 80 282 L80 175 Z " />
<glyph glyph-name="guilsinglright" unicode="&#x203a;" horiz-adv-x="354" d="M274 282 C274 291 268 297 260 299 L92 360 C86 360 80 356 80 348 L80 286 C80 277 86 273 92 270 L196 232 L196 225 L92 187 C86 184 80 180 80 171 L80 109 C80 101 86 97 92 97 L260 158 C268 160 274 166 274 175 L274 282 Z " />
<glyph glyph-name="fraction" unicode="&#x2044;" horiz-adv-x="567" d="M80 -166 C80 -174 85 -179 93 -179 L166 -179 C174 -179 177 -174 180 -166 L487 791 C487 799 482 804 474 804 L401 804 C393 804 390 799 387 791 L80 -166 Z " />
<glyph glyph-name="Euro" unicode="&#x20ac;" horiz-adv-x="646" d="M93 474 C85 474 80 469 80 461 L80 417 C80 409 85 404 93 404 L159 404 L159 295 L93 295 C85 295 80 290 80 282 L80 238 C80 230 85 225 93 225 L159 225 L159 155 C159 67 224 -5 317 -5 L408 -5 C501 -5 566 67 566 155 L566 193 C566 201 561 206 553 206 L484 206 C476 206 471 201 471 193 L471 165 C471 117 441 80 399 80 L326 80 C284 80 254 117 254 165 L254 225 L325 225 C333 225 338 230 338 238 L338 282 C338 290 333 295 325 295 L254 295 L254 404 L325 404 C333 404 338 409 338 417 L338 461 C338 469 333 474 325 474 L254 474 L254 535 C254 581 284 620 326 620 L399 620 C441 620 471 581 471 535 L471 502 C471 494 476 489 484 489 L553 489 C561 489 566 494 566 502 L566 545 C566 633 501 705 408 705 L317 705 C224 705 159 633 159 545 L159 474 L93 474 Z " />
<glyph glyph-name="Numero" unicode="&#x2116;" horiz-adv-x="1043" d="M767 700 C680 700 633 626 633 554 L633 321 C633 249 680 175 767 175 L818 175 C906 175 963 249 963 321 L963 554 C963 626 916 700 829 700 L767 700 Z M785 260 C752 260 728 291 728 326 L728 549 C728 584 752 615 785 615 L811 615 C844 615 868 584 868 549 L868 326 C868 291 834 260 801 260 L785 260 Z M714 85 C706 85 701 80 701 72 L701 13 C701 5 706 0 714 0 L880 0 C888 0 893 5 893 13 L893 72 C893 80 888 85 880 85 L714 85 Z M380 13 C384 6 390 0 398 0 L504 0 C512 0 517 5 517 13 L517 687 C517 695 512 700 504 700 L435 700 C427 700 422 695 422 687 L422 191 L412 191 L217 687 C213 694 207 700 199 700 L93 700 C85 700 80 695 80 687 L80 13 C80 5 85 0 93 0 L162 0 C170 0 175 5 175 13 L175 511 L186 511 L380 13 Z " />
<glyph glyph-name="trademark" unicode="&#x2122;" horiz-adv-x="718" d="M147 403 C147 398 151 394 156 394 L207 394 C212 394 216 398 216 403 L216 635 L275 635 C279 635 283 639 283 643 L283 692 C283 696 279 700 275 700 L88 700 C84 700 80 696 80 692 L80 643 C80 639 84 635 88 635 L147 635 L147 403 Z M492 436 C495 436 497 438 498 441 L569 581 L569 403 C569 398 573 394 578 394 L629 394 C634 394 638 398 638 403 L638 691 C638 696 634 700 629 700 L573 700 C567 700 563 695 560 689 L485 552 L480 552 L405 689 C402 695 398 700 392 700 L336 700 C331 700 327 696 327 691 L327 403 C327 398 331 394 336 394 L387 394 C392 394 396 398 396 403 L396 581 L467 441 C468 438 470 436 473 436 L492 436 Z " />
<glyph glyph-name="Omega" unicode="&#x2126;" horiz-adv-x="695" d="M302 700 C209 700 143 628 143 539 L143 172 C143 157 145 110 177 85 L93 85 C85 85 80 80 80 72 L80 13 C80 5 85 0 93 0 L267 0 C275 0 280 5 280 13 L280 70 C280 78 275 83 266 86 C239 98 238 155 238 175 L238 530 C238 575 268 615 310 615 L385 615 C427 615 457 575 457 530 L457 175 C457 155 456 98 429 86 C420 83 415 78 415 70 L415 13 C415 5 420 0 428 0 L602 0 C610 0 615 5 615 13 L615 72 C615 80 610 85 602 85 L518 85 C550 110 552 157 552 172 L552 539 C552 628 486 700 393 700 L302 700 Z " />
<glyph glyph-name="partialdiff" unicode="&#x2202;" horiz-adv-x="506" d="M331 146 C331 111 307 80 274 80 L232 80 C198 80 175 111 175 146 L175 284 C175 319 198 350 232 350 L274 350 C307 350 331 319 331 284 L331 146 Z M331 398 L323 398 C301 429 261 435 241 435 L210 435 C123 435 80 372 80 287 L80 143 C80 58 123 -5 210 -5 L241 -5 C261 -5 301 1 323 32 L331 32 L331 13 C331 5 336 0 344 0 L413 0 C421 0 426 5 426 13 L426 559 C426 631 379 705 292 705 L230 705 C141 705 95 631 95 559 L95 543 C95 535 100 530 108 530 L177 530 C185 530 190 535 190 543 L190 554 C190 589 213 620 246 620 L274 620 C307 620 331 589 331 554 L331 398 Z " />
<glyph glyph-name="Delta" unicode="&#x2206;" horiz-adv-x="844" d="M631 85 L213 85 L422 601 L631 85 Z M369 700 C360 700 355 694 352 686 L80 10 C80 4 84 0 90 0 L754 0 C760 0 764 4 764 10 L492 686 C489 694 484 700 475 700 L369 700 Z " />
<glyph glyph-name="product" unicode="&#x220f;" horiz-adv-x="731" d="M93 700 C85 700 80 695 80 687 L80 628 C80 620 85 615 93 615 L211 615 L211 13 C211 5 216 0 224 0 L293 0 C301 0 306 5 306 13 L306 615 L425 615 L425 13 C425 5 430 0 438 0 L507 0 C515 0 520 5 520 13 L520 615 L638 615 C646 615 651 620 651 628 L651 687 C651 695 646 700 638 700 L93 700 Z " />
<glyph glyph-name="summation" unicode="&#x2211;" horiz-adv-x="491" d="M215 333 L80 98 L80 13 C80 5 85 0 93 0 L398 0 C406 0 411 5 411 13 L411 72 C411 80 406 85 398 85 L160 85 L310 347 L310 353 L160 615 L398 615 C406 615 411 620 411 628 L411 687 C411 695 406 700 398 700 L93 700 C85 700 80 695 80 687 L80 602 L215 367 L215 333 Z " />
<glyph glyph-name="minus" unicode="&#x2212;" horiz-adv-x="354" d="M93 282 C85 282 80 277 80 269 L80 210 C80 202 85 197 93 197 L261 197 C269 197 274 202 274 210 L274 269 C274 277 269 282 261 282 L93 282 Z " />
<glyph glyph-name="radical" unicode="&#x221a;" horiz-adv-x="665" d="M389 700 C381 700 378 695 375 687 L246 110 L236 110 L180 371 C177 379 174 384 166 384 L93 384 C85 384 80 379 80 371 L164 13 C166 5 171 0 179 0 L303 0 C311 0 316 5 318 13 L458 615 L572 615 C580 615 585 620 585 628 L585 687 C585 695 580 700 572 700 L389 700 Z " />
<glyph glyph-name="infinity" unicode="&#x221e;" horiz-adv-x="874" d="M240 157 C208 157 175 188 175 221 L175 295 C175 329 208 360 240 360 L325 360 C355 360 387 332 389 301 L389 221 C389 188 357 157 325 157 L240 157 Z M549 157 C517 157 485 188 485 221 L485 301 C487 332 519 360 549 360 L634 360 C666 360 699 329 699 295 L699 221 C699 188 666 157 634 157 L549 157 Z M437 142 C464 81 509 72 540 72 L653 72 C740 72 794 144 794 215 L794 302 C794 373 740 445 653 445 L540 445 C509 445 464 436 437 375 C410 436 365 445 334 445 L221 445 C134 445 80 373 80 302 L80 215 C80 144 134 72 221 72 L334 72 C365 72 410 81 437 142 L437 142 Z " />
<glyph glyph-name="integral" unicode="&#x222b;" horiz-adv-x="439" d="M314 700 C276 685 172 634 172 511 L172 12 C172 12 171 -58 87 -94 C82 -96 80 -101 80 -106 C80 -107 81 -110 82 -112 L108 -176 C110 -181 115 -183 119 -183 C120 -183 123 -183 125 -182 C163 -167 267 -116 267 7 L267 506 C267 506 268 576 352 612 C357 614 359 619 359 624 C359 625 358 628 357 630 L331 694 C329 699 324 701 320 701 C319 701 316 701 314 700 L314 700 Z " />
<glyph glyph-name="approxequal" unicode="&#x2248;" horiz-adv-x="386" d="M242 53 C261 53 278 61 298 73 C303 76 306 81 306 87 L291 139 C289 145 284 147 279 147 C277 147 275 147 272 146 C259 142 249 138 242 138 C187 138 196 169 144 169 C125 169 108 161 88 149 C83 146 80 141 80 135 L95 83 C97 77 102 75 107 75 C109 75 111 75 114 76 C127 80 137 84 144 84 C199 84 189 53 242 53 L242 53 Z M242 238 C261 238 278 246 298 258 C303 261 306 266 306 272 L291 324 C289 330 284 332 279 332 C277 332 275 332 272 331 C259 327 249 323 242 323 C187 323 196 354 144 354 C125 354 108 346 88 334 C83 331 80 326 80 320 L95 268 C97 262 102 260 107 260 C109 260 111 260 114 261 C127 265 137 269 144 269 C199 269 189 238 242 238 L242 238 Z " />
<glyph glyph-name="notequal" unicode="&#x2260;" horiz-adv-x="401" d="M99 186 C91 186 86 181 86 173 L86 114 C86 106 91 101 99 101 L108 101 L80 13 C80 5 85 0 93 0 L159 0 C167 0 170 5 173 13 L201 101 L298 101 C306 101 311 106 311 114 L311 173 C311 181 306 186 298 186 L228 186 L261 291 L298 291 C306 291 311 296 311 304 L311 363 C311 371 306 376 298 376 L288 376 L321 478 C321 486 316 491 308 491 L242 491 C234 491 231 486 228 478 L195 376 L99 376 C91 376 86 371 86 363 L86 304 C86 296 91 291 99 291 L168 291 L135 186 L99 186 Z " />
<glyph glyph-name="lessequal" unicode="&#x2264;" horiz-adv-x="354" d="M93 85 C85 85 80 80 80 72 L80 13 C80 5 85 0 93 0 L261 0 C269 0 274 5 274 13 L274 72 C274 80 269 85 261 85 L93 85 Z M80 216 C80 207 86 201 94 199 L262 138 C268 138 274 142 274 150 L274 212 C274 221 268 225 262 228 L158 266 L158 273 L262 311 C268 314 274 318 274 327 L274 389 C274 397 268 401 262 401 L94 340 C86 338 80 332 80 323 L80 216 Z " />
<glyph glyph-name="greaterequal" unicode="&#x2265;" horiz-adv-x="354" d="M93 85 C85 85 80 80 80 72 L80 13 C80 5 85 0 93 0 L261 0 C269 0 274 5 274 13 L274 72 C274 80 269 85 261 85 L93 85 Z M274 323 C274 332 268 338 260 340 L92 401 C86 401 80 397 80 389 L80 327 C80 318 86 314 92 311 L196 273 L196 266 L92 228 C86 225 80 221 80 212 L80 150 C80 142 86 138 92 138 L260 199 C268 201 274 207 274 216 L274 323 Z " />
<glyph glyph-name="lozenge" unicode="&#x25ca;" horiz-adv-x="622" d="M383 689 C380 695 375 700 369 700 L254 700 C247 700 242 695 239 689 L80 350 L239 11 C242 5 247 0 253 0 L369 0 C375 0 380 5 383 11 L542 350 L383 689 Z M311 80 L186 349 L311 617 L436 349 L311 80 Z " />
<glyph glyph-name="uni25CC" unicode="&#x25cc;" horiz-adv-x="199" d="" />
<glyph glyph-name="fi" unicode="&#xfb01;" horiz-adv-x="605" d="M204 430 L292 430 C300 430 305 435 305 443 L305 502 C305 510 300 515 292 515 L204 515 L204 593 C204 628 239 659 272 659 L292 659 C300 659 305 664 305 672 L305 731 C305 739 300 744 292 744 L253 744 C166 744 114 670 109 597 L109 515 L48 515 C40 515 35 510 35 502 L35 443 C35 435 40 430 48 430 L109 430 L109 13 C109 5 114 0 122 0 L191 0 C199 0 204 5 204 13 L204 430 Z M430 13 C430 5 435 0 443 0 L512 0 C520 0 525 5 525 13 L525 502 C525 510 520 515 512 515 L443 515 C435 515 430 510 430 502 L430 13 Z M427 591 C427 583 432 578 440 578 L515 578 C523 578 528 583 528 591 L528 671 C528 679 523 684 515 684 L440 684 C432 684 427 679 427 671 L427 591 Z " />
<glyph glyph-name="fl" unicode="&#xfb02;" horiz-adv-x="605" d="M204 430 L292 430 C300 430 305 435 305 443 L305 502 C305 510 300 515 292 515 L204 515 L204 593 C204 628 239 659 272 659 L292 659 C300 659 305 664 305 672 L305 731 C305 739 300 744 292 744 L253 744 C166 744 114 670 109 597 L109 515 L48 515 C40 515 35 510 35 502 L35 443 C35 435 40 430 48 430 L109 430 L109 13 C109 5 114 0 122 0 L191 0 C199 0 204 5 204 13 L204 430 Z M430 13 C430 5 435 0 443 0 L512 0 C520 0 525 5 525 13 L525 687 C525 695 520 700 512 700 L443 700 C435 700 430 695 430 687 L430 13 Z " />
</font>
</svg>
