<?xml version="1.0" encoding="UTF-8"?>
<svg xmlns="http://www.w3.org/2000/svg" xmlns:xlink="http://www.w3.org/1999/xlink" version="1.2" >
<font id="Tomkin Light Italic">
<font-face  font-family="Tomkin" units-per-em="1000" ascent="750" descent="-250" font-style="italic" font-weight="300" font-stretch="normal" cap-height="700" x-height="515" underline-position="-91" underline-thickness="35" />
<missing-glyph  horiz-adv-x="569" d="" />
<glyph glyph-name="space" unicode="&#x20;" horiz-adv-x="182" d="" />
<glyph glyph-name="exclam" unicode="&#x21;" horiz-adv-x="239" d="M127 267 L119 172 C118 165 121 161 128 161 L155 161 C162 161 167 165 168 172 L186 267 L245 689 C246 696 243 700 236 700 L199 700 C192 700 187 696 186 689 L127 267 Z M91 11 C90 4 94 0 101 0 L138 0 C145 0 149 4 150 11 L158 71 C159 78 156 82 149 82 L112 82 C105 82 100 78 99 71 L91 11 Z " />
<glyph glyph-name="quotedbl" unicode="&#x22;" horiz-adv-x="388" d="M176 615 L168 520 C167 513 170 509 177 509 L197 509 C204 509 209 513 210 520 L228 615 L238 689 C239 696 236 700 229 700 L199 700 C192 700 187 696 186 689 L176 615 Z M332 615 L324 520 C323 513 326 509 333 509 L353 509 C360 509 365 513 366 520 L384 615 L394 689 C395 696 392 700 385 700 L355 700 C348 700 343 696 342 689 L332 615 Z " />
<glyph glyph-name="numbersign" unicode="&#x23;" horiz-adv-x="867" d="M450 9 C449 3 452 0 458 0 L498 0 C504 0 507 3 510 9 L577 156 L673 156 C680 156 685 160 686 167 L690 199 C691 206 688 210 681 210 L602 210 L727 483 L833 483 C840 483 845 487 846 494 L850 526 C851 533 848 537 841 537 L753 537 L824 691 C824 697 822 700 816 700 L776 700 C770 700 766 697 764 691 L693 537 L447 537 L518 691 C518 697 516 700 510 700 L470 700 C464 700 460 697 458 691 L387 537 L290 537 C283 537 278 533 277 526 L273 494 C272 487 275 483 282 483 L361 483 L236 210 L130 210 C123 210 118 206 117 199 L113 167 C112 160 115 156 122 156 L211 156 L144 9 C143 3 146 0 152 0 L192 0 C198 0 201 3 204 9 L271 156 L517 156 L450 9 Z M421 483 L667 483 L542 210 L296 210 L421 483 Z " />
<glyph glyph-name="dollar" unicode="&#x24;" horiz-adv-x="638" d="M221 519 L225 541 C234 608 281 651 349 651 L459 651 C527 651 562 608 553 541 L551 529 C550 522 553 518 560 518 L597 518 C604 518 609 522 610 529 L614 557 C625 638 564 705 479 705 L448 705 L464 821 C465 828 461 832 454 832 L417 832 C410 832 406 828 405 821 L389 705 L344 705 C259 705 179 638 168 557 L164 532 C123 235 544 394 513 174 L511 159 C501 92 454 49 386 49 L264 49 C196 49 161 92 171 159 L173 171 C174 178 170 182 163 182 L126 182 C119 182 115 178 114 171 L110 143 C98 62 160 -5 245 -5 L289 -5 L272 -126 C271 -133 274 -137 281 -137 L318 -137 C325 -137 330 -133 331 -126 L348 -5 L392 -5 C477 -5 556 62 568 143 L570 162 C611 452 190 296 221 519 L221 519 Z " />
<glyph glyph-name="percent" unicode="&#x25;" horiz-adv-x="794" d="M303 700 C239 700 181 649 172 585 C163 521 206 469 270 469 C334 469 393 521 402 585 C411 649 367 700 303 700 L303 700 Z M277 519 C240 519 216 552 221 585 C226 624 259 652 296 652 C334 652 359 624 354 585 C349 552 315 519 277 519 L277 519 Z M224 9 C223 3 226 0 232 0 L272 0 C278 0 281 3 284 9 L668 691 C668 697 666 700 660 700 L620 700 C614 700 610 697 608 691 L224 9 Z M621 231 C557 231 499 180 490 116 C481 52 525 0 589 0 C653 0 711 52 720 116 C729 180 685 231 621 231 L621 231 Z M596 50 C559 50 534 83 539 116 C544 155 577 183 614 183 C652 183 677 155 672 116 C667 83 634 50 596 50 L596 50 Z " />
<glyph glyph-name="ampersand" unicode="&#x26;" horiz-adv-x="688" d="M524 323 L485 49 L261 49 C207 49 162 97 171 161 L178 212 C187 272 246 323 300 323 L524 323 Z M552 530 C551 523 554 519 561 519 L598 519 C605 519 610 523 611 530 L615 557 C626 638 566 705 481 705 L379 705 C293 705 212 638 201 557 L190 479 C186 449 182 386 244 354 C164 340 125 253 119 209 L110 149 C99 67 162 0 247 0 L526 0 C533 0 537 4 538 11 L582 323 L657 323 C664 323 668 327 669 334 L674 366 C675 373 671 377 664 377 L340 377 C286 377 241 424 250 488 L258 541 C266 604 325 651 379 651 L464 651 C519 651 562 601 554 541 L552 530 Z " />
<glyph glyph-name="quotesingle" unicode="&#x27;" horiz-adv-x="232" d="M176 615 L168 520 C167 513 170 509 177 509 L197 509 C204 509 209 513 210 520 L228 615 L238 689 C239 696 236 700 229 700 L199 700 C192 700 187 696 186 689 L176 615 Z " />
<glyph glyph-name="parenleft" unicode="&#x28;" horiz-adv-x="287" d="M133 308 C111 150 105 1 114 -167 C114 -174 116 -178 123 -178 L160 -178 C167 -178 172 -174 173 -167 C165 -15 171 159 192 308 C213 457 258 642 308 794 C309 801 306 805 299 805 L262 805 C255 805 251 801 249 794 C192 626 155 466 133 308 L133 308 Z " />
<glyph glyph-name="parenright" unicode="&#x29;" horiz-adv-x="287" d="M240 308 C262 466 269 626 260 794 C260 801 258 805 251 805 L214 805 C207 805 202 801 201 794 C209 642 202 457 181 308 C160 159 116 -15 66 -167 C65 -174 68 -178 75 -178 L112 -178 C119 -178 123 -174 125 -167 C182 1 218 150 240 308 L240 308 Z " />
<glyph glyph-name="asterisk" unicode="&#x2a;" horiz-adv-x="430" d="M319 584 L334 693 C334 696 332 700 329 700 L298 700 C293 700 290 696 290 693 L275 584 L207 634 C205 635 203 635 203 635 C200 635 198 634 196 632 L176 605 C174 603 174 602 174 601 C174 600 174 597 176 596 L252 538 L174 462 C172 460 172 458 172 456 C171 454 172 452 174 450 L193 431 C194 430 196 430 197 430 C200 430 201 431 202 432 L287 516 L348 432 C349 431 350 430 353 430 C354 430 356 430 357 431 L382 450 C384 452 385 454 386 456 C386 458 386 460 384 462 L328 538 L420 596 C422 597 424 600 424 601 C424 602 424 603 424 605 L410 632 C410 634 408 635 405 635 C405 635 403 635 401 634 L319 584 Z " />
<glyph glyph-name="plus" unicode="&#x2b;" horiz-adv-x="459" d="M386 206 C393 206 398 210 399 217 L403 249 C404 256 401 260 394 260 L295 260 L312 380 C313 387 309 391 302 391 L265 391 C258 391 254 387 253 380 L236 260 L137 260 C130 260 125 256 124 249 L120 217 C119 210 122 206 129 206 L228 206 L211 83 C210 76 214 72 221 72 L258 72 C265 72 269 76 270 83 L287 206 L386 206 Z " />
<glyph glyph-name="comma" unicode="&#x2c;" horiz-adv-x="288" d="M125 -91 C132 -91 135 -87 140 -79 L201 23 C202 31 198 35 191 35 L154 35 C147 35 144 31 139 23 L78 -79 C77 -87 81 -91 89 -91 L125 -91 Z " />
<glyph glyph-name="hyphen" unicode="&#x2d;" horiz-adv-x="408" d="M336 209 C343 209 347 213 348 220 L353 252 C354 259 350 263 343 263 L137 263 C130 263 126 259 125 252 L120 220 C119 213 123 209 130 209 L336 209 Z " />
<glyph glyph-name="period" unicode="&#x2e;" horiz-adv-x="248" d="M90 6 C89 -1 93 -5 100 -5 L146 -5 C153 -5 157 -1 158 6 L165 55 C166 62 163 66 156 66 L110 66 C103 66 98 62 97 55 L90 6 Z " />
<glyph glyph-name="slash" unicode="&#x2f;" horiz-adv-x="549" d="M66 -170 C65 -176 67 -179 73 -179 L113 -179 C119 -179 123 -176 126 -170 L570 795 C571 801 568 804 562 804 L522 804 C516 804 513 801 510 795 L66 -170 Z " />
<glyph glyph-name="zero" unicode="0" horiz-adv-x="617" d="M481 705 L334 705 C249 705 169 638 158 556 L100 144 C88 62 149 -5 234 -5 L381 -5 C466 -5 545 62 557 144 L615 556 C626 638 566 705 481 705 L481 705 Z M500 160 C491 93 443 49 375 49 L254 49 C186 49 152 93 161 160 L215 541 C224 608 271 651 339 651 L460 651 C528 651 563 608 554 541 L500 160 Z " />
<glyph glyph-name="one" unicode="1" horiz-adv-x="570" d="M164 632 C160 630 157 626 157 622 L151 583 C151 577 152 574 159 574 L374 643 L291 54 L122 54 C115 54 111 50 110 43 L105 11 C104 4 108 0 115 0 L514 0 C521 0 525 4 526 11 L531 43 C532 50 528 54 521 54 L350 54 L439 689 C440 696 437 700 430 700 L376 700 L164 632 Z " />
<glyph glyph-name="two" unicode="2" horiz-adv-x="589" d="M71 11 C70 4 74 0 81 0 L506 0 C513 0 517 4 518 11 L523 43 C524 50 520 54 513 54 L136 54 L148 141 C179 362 548 207 589 500 L597 557 C608 638 548 705 463 705 L328 705 C243 705 162 638 151 557 L147 529 C146 522 149 518 156 518 L193 518 C200 518 205 522 206 529 L208 541 C217 608 264 651 332 651 L442 651 C510 651 545 608 536 541 L528 488 C497 269 129 422 88 130 L71 11 Z " />
<glyph glyph-name="three" unicode="3" horiz-adv-x="596" d="M480 350 C537 369 582 441 587 476 L599 557 C610 638 550 705 465 705 L330 705 C245 705 164 638 153 557 L149 529 C148 522 151 518 158 518 L195 518 C202 518 207 522 208 529 L210 541 C219 608 266 651 334 651 L444 651 C512 651 547 608 538 541 L530 487 C521 422 463 379 408 379 L306 379 C299 379 294 375 293 368 L288 332 C287 325 291 321 298 321 L400 321 C455 321 501 278 491 213 L484 159 C474 92 427 49 359 49 L249 49 C181 49 146 92 156 159 L158 171 C159 178 155 182 148 182 L111 182 C104 182 100 178 99 171 L95 143 C83 62 145 -5 230 -5 L365 -5 C450 -5 529 62 541 143 L552 224 C557 259 532 331 480 350 L480 350 Z " />
<glyph glyph-name="four" unicode="4" horiz-adv-x="602" d="M77 199 L73 167 C72 160 75 156 82 156 L442 156 L422 11 C421 4 425 0 432 0 L469 0 C476 0 480 4 481 11 L501 156 L562 156 C569 156 574 160 575 167 L579 199 C580 206 577 210 570 210 L509 210 L539 421 C540 428 536 432 529 432 L492 432 C485 432 481 428 480 421 L450 210 L150 210 L433 693 C433 697 431 700 427 700 L380 700 C374 700 371 697 369 693 L77 199 Z " />
<glyph glyph-name="five" unicode="5" horiz-adv-x="607" d="M100 143 C88 62 150 -5 236 -5 L379 -5 C465 -5 545 62 557 143 L574 266 C585 347 528 414 442 414 L296 414 C281 414 237 414 193 386 L229 646 L565 646 C572 646 577 650 578 657 L582 689 C583 696 580 700 573 700 L189 700 C182 700 177 696 176 689 L126 331 C125 324 128 320 135 320 L177 320 C184 320 187 324 193 331 C214 356 261 360 281 360 L421 360 C485 360 522 320 512 249 L500 161 C490 92 444 49 377 49 L253 49 C191 49 151 87 161 161 L162 165 C163 172 159 176 152 176 L115 176 C108 176 104 172 103 165 L100 143 Z " />
<glyph glyph-name="six" unicode="6" horiz-adv-x="608" d="M501 159 C491 92 444 49 376 49 L254 49 C186 49 151 92 161 159 L174 250 C183 317 230 360 298 360 L420 360 C488 360 523 317 514 250 L501 159 Z M450 651 C518 651 553 608 544 541 L542 532 C541 525 545 521 552 521 L589 521 C596 521 600 525 601 532 L605 557 C616 638 555 705 467 705 L337 705 C250 705 169 638 158 557 L100 143 C88 62 150 -5 237 -5 L382 -5 C467 -5 546 62 558 143 L575 267 C586 348 526 414 441 414 L303 414 C291 414 240 413 192 378 L215 541 C224 608 271 651 339 651 L450 651 Z " />
<glyph glyph-name="seven" unicode="7" horiz-adv-x="524" d="M192 11 C191 4 195 0 202 0 L239 0 C246 0 249 4 251 11 C309 211 405 443 558 640 L565 689 C566 696 563 700 556 700 L164 700 C157 700 152 696 151 689 L147 657 C146 650 149 646 156 646 L503 646 C325 426 247 195 192 11 L192 11 Z " />
<glyph glyph-name="eight" unicode="8" horiz-adv-x="609" d="M249 49 C181 49 147 93 156 160 L163 210 C172 277 220 321 288 321 L411 321 C479 321 513 277 504 210 L497 160 C488 93 440 49 372 49 L249 49 Z M348 705 C261 705 180 638 169 557 L157 472 C153 442 156 371 219 354 C139 327 111 262 106 222 L95 143 C83 62 143 -5 228 -5 L379 -5 C464 -5 542 62 554 143 L565 222 C570 262 560 327 488 354 C557 371 580 442 584 472 L596 557 C607 638 546 705 459 705 L348 705 Z M441 651 C509 651 544 608 535 541 L527 485 C517 418 470 375 402 375 L311 375 C243 375 208 418 218 485 L226 541 C235 608 282 651 350 651 L441 651 Z " />
<glyph glyph-name="nine" unicode="9" horiz-adv-x="608" d="M205 541 C214 608 261 651 329 651 L451 651 C519 651 554 608 545 541 L532 450 C522 383 475 340 407 340 L285 340 C217 340 182 383 192 450 L205 541 Z M255 49 C187 49 152 92 162 159 L163 168 C164 175 161 179 154 179 L117 179 C110 179 105 175 104 168 L101 143 C89 62 151 -5 239 -5 L369 -5 C456 -5 536 62 548 143 L606 557 C617 638 556 705 469 705 L324 705 C239 705 159 638 148 557 L130 433 C119 352 180 286 265 286 L403 286 C415 286 466 287 514 322 L491 159 C481 92 434 49 366 49 L255 49 Z " />
<glyph glyph-name="colon" unicode="&#x3a;" horiz-adv-x="248" d="M90 6 C89 -1 93 -5 100 -5 L146 -5 C153 -5 157 -1 158 6 L165 55 C166 62 163 66 156 66 L110 66 C103 66 98 62 97 55 L90 6 Z M138 345 C137 338 140 334 147 334 L193 334 C200 334 205 338 206 345 L213 394 C214 401 210 405 203 405 L157 405 C150 405 146 401 145 394 L138 345 Z " />
<glyph glyph-name="semicolon" unicode="&#x3b;" horiz-adv-x="289" d="M179 345 C178 338 181 334 188 334 L234 334 C241 334 246 338 247 345 L254 394 C255 401 251 405 244 405 L198 405 C191 405 187 401 186 394 L179 345 Z M125 -91 C132 -91 135 -87 140 -79 L201 23 C202 31 198 35 191 35 L154 35 C147 35 144 31 139 23 L78 -79 C77 -87 81 -91 89 -91 L125 -91 Z " />
<glyph glyph-name="less" unicode="&#x3c;" horiz-adv-x="450" d="M116 185 C115 178 116 175 124 172 L361 73 C365 73 370 76 371 82 L377 125 C378 132 373 135 370 137 L177 218 L178 224 L393 305 C398 307 403 310 404 317 L410 360 C411 366 406 369 402 369 L137 270 C129 267 127 264 126 257 L116 185 Z " />
<glyph glyph-name="equal" unicode="&#x3d;" horiz-adv-x="408" d="M322 109 C329 109 333 113 334 120 L339 152 C340 159 336 163 329 163 L123 163 C116 163 112 159 111 152 L106 120 C105 113 109 109 116 109 L322 109 Z M349 301 C356 301 360 305 361 312 L366 344 C367 351 363 355 356 355 L150 355 C143 355 139 351 138 344 L133 312 C132 305 136 301 143 301 L349 301 Z " />
<glyph glyph-name="greater" unicode="&#x3e;" horiz-adv-x="450" d="M396 257 C397 264 395 267 387 270 L150 369 C146 369 141 366 140 360 L134 317 C133 310 138 307 141 305 L334 224 L333 218 L118 137 C113 135 108 132 107 125 L101 82 C100 76 105 73 109 73 L374 172 C382 175 385 178 386 185 L396 257 Z " />
<glyph glyph-name="question" unicode="&#x3f;" horiz-adv-x="626" d="M283 172 C282 165 285 161 292 161 L329 161 C336 161 341 165 342 172 L343 184 C375 409 570 243 607 510 L614 557 C625 638 565 705 480 705 L345 705 C260 705 179 638 168 557 L161 509 C160 502 163 498 170 498 L207 498 C214 498 219 502 220 509 L225 541 C234 608 281 651 349 651 L459 651 C527 651 562 608 553 541 L548 510 C516 284 322 451 285 189 L283 172 Z M260 11 C259 4 263 0 270 0 L307 0 C314 0 318 4 319 11 L327 71 C328 78 325 82 318 82 L281 82 C274 82 269 78 268 71 L260 11 Z " />
<glyph glyph-name="at" unicode="&#x40;" horiz-adv-x="786" d="M640 705 L344 705 C259 705 179 638 168 556 L94 32 C82 -50 143 -117 228 -117 L455 -117 C462 -117 467 -113 468 -106 L472 -74 C473 -67 470 -63 463 -63 L249 -63 C181 -63 146 -19 155 48 L225 541 C234 608 281 651 349 651 L619 651 C687 651 722 608 713 541 L700 455 L693 455 C674 488 638 494 621 494 L507 494 C426 494 358 435 347 356 L323 190 C312 111 364 52 445 52 L559 52 C576 52 614 58 642 91 L649 91 L646 68 C645 61 649 57 656 57 L693 57 C700 57 704 61 705 68 L774 556 C785 638 725 705 640 705 L640 705 Z M662 198 C655 148 614 106 556 106 L463 106 C405 106 376 148 383 198 L404 348 C411 398 452 440 510 440 L603 440 C661 440 690 398 683 348 L662 198 Z " />
<glyph glyph-name="A" unicode="A" horiz-adv-x="616" d="M369 700 C363 700 359 697 357 692 L46 11 C45 4 49 0 56 0 L94 0 C101 0 104 4 107 11 L165 138 L489 138 L511 11 C512 4 515 0 522 0 L560 0 C567 0 571 4 572 11 L453 692 C451 697 449 700 443 700 L369 700 Z M390 631 L402 631 L479 191 L189 191 L390 631 Z " />
<glyph glyph-name="B" unicode="B" horiz-adv-x="598" d="M380 0 C467 0 547 67 558 149 L569 221 C575 267 561 319 493 359 C538 383 568 449 572 479 L582 551 C593 633 533 700 447 700 L199 700 C192 700 187 696 186 689 L91 11 C90 4 94 0 101 0 L380 0 Z M201 377 L239 646 L428 646 C484 646 529 594 521 535 L514 488 C505 424 446 377 390 377 L201 377 Z M417 323 C473 323 517 272 508 212 L502 165 C493 101 435 54 379 54 L156 54 L194 323 L417 323 Z " />
<glyph glyph-name="C" unicode="C" horiz-adv-x="602" d="M500 160 C491 93 443 49 375 49 L254 49 C186 49 152 93 161 160 L215 541 C224 608 271 651 339 651 L460 651 C528 651 563 608 554 541 L548 504 C547 497 551 493 558 493 L595 493 C602 493 606 497 607 504 L615 556 C626 638 566 705 481 705 L334 705 C249 705 169 638 158 556 L100 144 C88 62 149 -5 234 -5 L381 -5 C466 -5 545 62 557 144 L564 196 C565 203 562 207 555 207 L518 207 C511 207 506 203 505 196 L500 160 Z " />
<glyph glyph-name="D" unicode="D" horiz-adv-x="627" d="M156 54 L239 646 L470 646 C538 646 573 602 564 535 L512 165 C502 98 455 54 387 54 L156 54 Z M199 700 C192 700 187 696 186 689 L91 11 C90 4 94 0 101 0 L392 0 C477 0 556 67 567 149 L624 551 C635 633 575 700 490 700 L199 700 Z " />
<glyph glyph-name="E" unicode="E" horiz-adv-x="547" d="M91 11 C90 4 94 0 101 0 L456 0 C463 0 467 4 468 11 L473 43 C474 50 470 54 463 54 L156 54 L192 310 L473 310 C480 310 485 314 486 321 L490 353 C491 360 488 364 481 364 L200 364 L239 646 L546 646 C553 646 558 650 559 657 L563 689 C564 696 561 700 554 700 L199 700 C192 700 187 696 186 689 L91 11 Z " />
<glyph glyph-name="F" unicode="F" horiz-adv-x="517" d="M91 11 C90 4 94 0 101 0 L138 0 C145 0 149 4 150 11 L192 310 L473 310 C480 310 485 314 486 321 L490 353 C491 360 488 364 481 364 L200 364 L239 646 L546 646 C553 646 558 650 559 657 L563 689 C564 696 561 700 554 700 L199 700 C192 700 187 696 186 689 L91 11 Z " />
<glyph glyph-name="G" unicode="G" horiz-adv-x="617" d="M393 370 C386 370 381 366 380 359 L375 327 C374 320 378 316 385 316 L522 316 L500 160 C491 93 443 49 375 49 L254 49 C186 49 152 93 161 160 L215 541 C224 608 271 651 339 651 L460 651 C528 651 563 608 554 541 L548 504 C547 497 551 493 558 493 L595 493 C602 493 606 497 607 504 L615 556 C626 638 566 705 481 705 L334 705 C249 705 169 638 158 556 L100 144 C88 62 149 -5 234 -5 L381 -5 C466 -5 545 62 557 144 L587 359 C588 366 585 370 578 370 L393 370 Z " />
<glyph glyph-name="H" unicode="H" horiz-adv-x="630" d="M482 11 C481 4 485 0 492 0 L529 0 C536 0 540 4 541 11 L636 689 C637 696 634 700 627 700 L590 700 C583 700 578 696 577 689 L532 363 L200 363 L245 689 C246 696 243 700 236 700 L199 700 C192 700 187 696 186 689 L91 11 C90 4 94 0 101 0 L138 0 C145 0 149 4 150 11 L192 309 L524 309 L482 11 Z " />
<glyph glyph-name="I" unicode="I" horiz-adv-x="239" d="M245 689 C246 692 245 695 243 697 C242 699 240 700 236 700 L199 700 C195 700 193 699 190 697 C188 695 187 692 186 689 L91 11 C91 8 91 5 93 3 C95 1 97 0 101 0 L138 0 C142 0 144 1 146 3 C148 5 150 8 150 11 L245 689 Z " />
<glyph glyph-name="J" unicode="J" horiz-adv-x="450" d="M27 36 C53 17 98 -5 165 -5 C296 -5 390 72 401 154 L476 689 C477 696 474 700 467 700 L430 700 C423 700 418 696 417 689 L344 164 C341 149 306 49 166 49 C138 49 103 59 72 76 C68 78 68 79 65 79 C63 79 59 78 57 76 L30 50 C27 48 26 45 25 42 C25 39 25 38 27 36 L27 36 Z " />
<glyph glyph-name="K" unicode="K" horiz-adv-x="581" d="M466 8 C467 4 469 0 475 0 L522 0 C527 0 530 3 531 8 L410 348 L627 692 C627 697 625 700 620 700 L573 700 C567 700 564 696 562 692 L362 376 L201 376 L245 689 C246 696 243 700 236 700 L199 700 C192 700 187 696 186 689 L91 11 C90 4 94 0 101 0 L138 0 C145 0 149 4 150 11 L194 322 L352 322 L466 8 Z " />
<glyph glyph-name="L" unicode="L" horiz-adv-x="517" d="M91 11 C90 4 94 0 101 0 L456 0 C463 0 467 4 468 11 L473 43 C474 50 470 54 463 54 L156 54 L245 689 C246 696 243 700 236 700 L199 700 C192 700 187 696 186 689 L91 11 Z " />
<glyph glyph-name="M" unicode="M" horiz-adv-x="793" d="M440 109 C446 109 449 113 453 119 L716 572 L724 572 L645 11 C644 4 648 0 655 0 L692 0 C699 0 703 4 704 11 L800 691 C800 697 798 700 792 700 L735 700 C729 700 724 696 722 691 L425 183 L418 183 L265 691 C263 696 260 700 254 700 L197 700 C191 700 187 697 187 691 L91 11 C90 4 94 0 101 0 L138 0 C145 0 149 4 150 11 L229 572 L237 572 L372 119 C374 113 377 109 383 109 L440 109 Z " />
<glyph glyph-name="N" unicode="N" horiz-adv-x="669" d="M524 90 L277 689 C275 695 271 700 264 700 L199 700 C192 700 187 696 186 689 L91 11 C90 4 94 0 101 0 L138 0 C145 0 149 4 150 11 L234 610 L242 610 L490 11 C492 5 497 0 504 0 L568 0 C575 0 579 4 580 11 L675 689 C676 696 673 700 666 700 L629 700 C622 700 617 696 616 689 L532 90 L524 90 Z " />
<glyph glyph-name="O" unicode="O" horiz-adv-x="617" d="M481 705 L334 705 C249 705 169 638 158 556 L100 144 C88 62 149 -5 234 -5 L381 -5 C466 -5 545 62 557 144 L615 556 C626 638 566 705 481 705 L481 705 Z M500 160 C491 93 443 49 375 49 L254 49 C186 49 152 93 161 160 L215 541 C224 608 271 651 339 651 L460 651 C528 651 563 608 554 541 L500 160 Z " />
<glyph glyph-name="P" unicode="P" horiz-adv-x="609" d="M188 284 L239 646 L463 646 C519 646 563 594 555 535 L535 394 C526 331 468 284 412 284 L188 284 Z M199 700 C192 700 187 696 186 689 L91 11 C90 4 94 0 101 0 L138 0 C145 0 149 4 150 11 L181 230 L414 230 C500 230 580 297 592 380 L616 551 C627 633 566 700 480 700 L199 700 Z " />
<glyph glyph-name="Q" unicode="Q" horiz-adv-x="617" d="M481 705 L334 705 C249 705 169 638 158 556 L100 144 C88 62 149 -5 234 -5 L272 -5 L302 -103 C303 -109 307 -114 313 -114 L358 -114 C365 -114 368 -109 369 -103 L340 -5 L381 -5 C466 -5 545 62 557 144 L615 556 C626 638 566 705 481 705 L481 705 Z M500 160 C491 93 443 49 375 49 L254 49 C186 49 152 93 161 160 L215 541 C224 608 271 651 339 651 L460 651 C528 651 563 608 554 541 L500 160 L500 160 Z " />
<glyph glyph-name="R" unicode="R" horiz-adv-x="599" d="M592 380 L616 551 C627 633 566 700 480 700 L199 700 C192 700 187 696 186 689 L91 11 C90 4 94 0 101 0 L138 0 C145 0 149 4 150 11 L181 230 L390 230 L460 11 C462 4 465 0 472 0 L513 0 C520 0 524 4 525 11 L452 235 C522 251 582 310 592 380 L592 380 Z M535 394 C526 331 468 284 412 284 L188 284 L239 646 L463 646 C519 646 563 594 555 535 L535 394 Z " />
<glyph glyph-name="S" unicode="S" horiz-adv-x="583" d="M481 159 C471 92 424 49 356 49 L234 49 C166 49 131 92 141 159 L143 171 C144 178 140 182 133 182 L96 182 C89 182 85 178 84 171 L80 143 C68 62 130 -5 215 -5 L362 -5 C447 -5 526 62 538 143 L540 162 C581 452 160 296 191 519 L195 541 C204 608 251 651 319 651 L429 651 C497 651 532 608 523 541 L521 529 C520 522 523 518 530 518 L567 518 C574 518 579 522 580 529 L584 557 C595 638 534 705 449 705 L314 705 C229 705 149 638 138 557 L134 532 C93 235 514 394 483 174 L481 159 Z " />
<glyph glyph-name="T" unicode="T" horiz-adv-x="557" d="M164 700 C157 700 152 696 151 689 L147 657 C146 650 149 646 156 646 L339 646 L250 11 C249 4 253 0 260 0 L297 0 C304 0 308 4 309 11 L398 646 L581 646 C588 646 593 650 594 657 L598 689 C599 696 596 700 589 700 L164 700 Z " />
<glyph glyph-name="U" unicode="U" horiz-adv-x="627" d="M638 689 C639 696 636 700 629 700 L592 700 C585 700 580 696 579 689 L505 160 C496 93 448 49 380 49 L259 49 C191 49 157 93 166 160 L240 689 C241 696 238 700 231 700 L194 700 C187 700 182 696 181 689 L105 144 C93 62 154 -5 239 -5 L386 -5 C471 -5 550 62 562 144 L638 689 Z " />
<glyph glyph-name="V" unicode="V" horiz-adv-x="616" d="M345 0 C351 0 354 3 357 8 L667 689 C668 696 665 700 658 700 L620 700 C613 700 609 696 606 689 L323 69 L311 69 L202 689 C201 696 199 700 192 700 L154 700 C147 700 142 696 141 689 L261 8 C262 3 265 0 271 0 L345 0 Z " />
<glyph glyph-name="W" unicode="W" horiz-adv-x="888" d="M520 700 C514 700 510 696 507 690 L255 55 L202 689 C201 696 199 700 192 700 L154 700 C147 700 142 696 141 689 L197 11 C198 4 201 0 209 0 L285 0 C292 0 295 4 298 11 L525 580 L592 11 C593 4 596 0 603 0 L679 0 C687 0 690 4 693 11 L939 689 C940 696 937 700 930 700 L892 700 C885 700 881 696 878 689 L647 55 L573 690 C572 696 570 700 564 700 L520 700 Z " />
<glyph glyph-name="X" unicode="X" horiz-adv-x="579" d="M363 323 L464 11 C466 4 469 0 476 0 L518 0 C525 0 529 4 530 11 L421 350 L625 689 C626 696 623 700 616 700 L574 700 C567 700 563 696 559 689 L370 377 L313 377 L212 689 C210 696 208 700 201 700 L159 700 C152 700 147 696 146 689 L256 350 L51 11 C50 4 54 0 61 0 L103 0 C110 0 113 4 117 11 L306 323 L363 323 Z " />
<glyph glyph-name="Y" unicode="Y" horiz-adv-x="581" d="M335 299 L330 299 L202 689 C200 696 199 700 192 700 L149 700 C142 700 137 696 136 689 L291 216 L262 11 C261 4 265 0 272 0 L309 0 C316 0 320 4 321 11 L350 216 L637 689 C638 696 635 700 628 700 L585 700 C578 700 575 696 571 689 L335 299 Z " />
<glyph glyph-name="Z" unicode="Z" horiz-adv-x="548" d="M146 54 L572 652 C573 654 575 657 575 659 L579 689 C580 696 577 700 570 700 L174 700 C167 700 162 696 161 689 L157 657 C156 650 159 646 166 646 L500 646 L73 48 C72 46 71 43 70 41 L66 11 C65 4 69 0 76 0 L472 0 C479 0 483 4 484 11 L489 43 C490 50 486 54 479 54 L146 54 Z " />
<glyph glyph-name="bracketleft" unicode="&#x5b;" horiz-adv-x="363" d="M66 -166 C65 -173 69 -177 76 -177 L237 -177 C244 -177 248 -173 249 -166 L254 -134 C255 -127 251 -123 244 -123 L131 -123 L254 751 L367 751 C374 751 379 755 380 762 L384 794 C385 801 382 805 375 805 L214 805 C207 805 202 801 201 794 L66 -166 Z " />
<glyph glyph-name="backslash" unicode="&#x5c;" horiz-adv-x="549" d="M261 795 C260 801 257 804 251 804 L211 804 C205 804 202 801 201 795 L375 -170 C376 -176 378 -179 384 -179 L424 -179 C430 -179 434 -176 435 -170 L261 795 Z " />
<glyph glyph-name="bracketright" unicode="&#x5d;" horiz-adv-x="363" d="M384 794 C385 801 382 805 375 805 L214 805 C207 805 202 801 201 794 L197 762 C196 755 199 751 206 751 L319 751 L196 -123 L83 -123 C76 -123 72 -127 71 -134 L66 -166 C65 -173 69 -177 76 -177 L237 -177 C244 -177 248 -173 249 -166 L384 794 Z " />
<glyph glyph-name="asciicircum" unicode="&#x5e;" horiz-adv-x="384" d="M262 700 C256 700 251 696 247 689 L169 565 C168 560 171 557 176 557 L214 557 C217 557 220 561 223 565 L284 660 L319 565 C320 561 323 557 326 557 L364 557 C369 557 372 560 373 565 L329 689 C327 696 324 700 318 700 L262 700 Z " />
<glyph glyph-name="underscore" unicode="&#x5f;" horiz-adv-x="408" d="M291 -113 C298 -113 302 -109 303 -102 L308 -70 C309 -63 305 -59 298 -59 L92 -59 C85 -59 81 -63 80 -70 L75 -102 C74 -109 78 -113 85 -113 L291 -113 Z " />
<glyph glyph-name="grave" unicode="&#x60;" horiz-adv-x="288" d="M266 574 C274 574 279 578 280 586 L248 688 C245 696 243 700 236 700 L199 700 C192 700 187 696 186 688 L218 586 C221 578 223 574 230 574 L266 574 Z " />
<glyph glyph-name="a" unicode="a" horiz-adv-x="530" d="M220 49 C170 49 140 84 147 133 L152 165 C159 215 198 248 248 248 L430 248 L414 133 C407 84 344 49 295 49 L220 49 Z M194 451 C251 460 285 466 317 466 C450 466 449 379 443 336 L438 302 L253 302 C173 302 105 252 93 166 L87 123 C75 38 130 -5 210 -5 L274 -5 C313 -5 367 7 392 34 L400 34 L397 11 C396 4 400 0 407 0 L444 0 C451 0 455 4 456 11 L503 342 C509 387 514 520 335 520 C265 520 215 512 187 505 C183 503 181 501 180 496 C180 496 180 493 184 457 C185 451 189 451 194 451 L194 451 Z " />
<glyph glyph-name="b" unicode="b" horiz-adv-x="559" d="M154 38 L161 38 C180 5 216 -5 244 -5 L347 -5 C428 -5 496 54 507 133 L542 382 C553 461 502 520 421 520 L318 520 C290 520 251 510 223 477 L216 477 L245 689 C246 696 243 700 236 700 L199 700 C192 700 187 696 186 689 L91 11 C90 4 94 0 101 0 L138 0 C145 0 149 4 150 11 L154 38 Z M263 49 C205 49 164 98 171 148 L202 367 C209 417 264 466 322 466 L402 466 C460 466 489 424 482 374 L449 141 C442 91 401 49 343 49 L263 49 Z " />
<glyph glyph-name="c" unicode="c" horiz-adv-x="514" d="M480 156 C481 163 478 167 471 167 L434 167 C427 167 422 163 421 156 L419 141 C413 94 359 49 312 49 L234 49 C187 49 147 94 153 141 L186 374 C193 424 234 466 292 466 L372 466 C430 466 459 424 452 374 L450 359 C449 352 452 348 459 348 L496 348 C503 348 508 352 509 359 L512 384 C522 450 480 520 399 520 L281 520 C200 520 138 450 128 384 L93 131 C84 65 126 -5 207 -5 L325 -5 C406 -5 468 65 477 131 L480 156 Z " />
<glyph glyph-name="d" unicode="d" horiz-adv-x="559" d="M411 11 C410 4 414 0 421 0 L458 0 C465 0 469 4 470 11 L565 689 C566 696 563 700 556 700 L519 700 C512 700 507 696 506 689 L477 477 L470 477 C450 510 415 520 387 520 L284 520 C203 520 134 461 123 382 L88 133 C77 54 129 -5 210 -5 L313 -5 C341 -5 379 5 408 38 L415 38 L411 11 Z M228 49 C170 49 141 91 148 141 L181 374 C188 424 229 466 287 466 L367 466 C425 466 466 417 459 367 L428 148 C421 98 366 49 308 49 L228 49 Z " />
<glyph glyph-name="e" unicode="e" horiz-adv-x="529" d="M402 73 C383 60 356 49 320 49 L234 49 C187 49 147 94 153 141 L166 229 L480 229 C487 229 491 233 492 240 L512 384 C522 450 480 520 399 520 L281 520 C200 520 138 450 128 384 L93 131 C84 65 126 -5 207 -5 L313 -5 C313 -5 384 -6 437 39 C439 42 441 43 441 45 C441 48 440 49 438 52 L419 76 C417 79 415 79 414 79 C410 79 404 74 402 73 L402 73 Z M186 374 C193 424 234 466 292 466 L372 466 C430 466 459 424 452 374 L439 283 L173 283 L186 374 Z " />
<glyph glyph-name="f" unicode="f" horiz-adv-x="422" d="M402 744 C320 744 258 679 248 606 L235 515 L128 515 C121 515 116 511 115 504 L111 472 C110 465 113 461 120 461 L227 461 L164 11 C163 4 167 0 174 0 L211 0 C218 0 222 4 223 11 L286 461 L419 461 C426 461 431 465 432 472 L436 504 C437 511 434 515 427 515 L295 515 L306 597 C313 645 359 690 405 690 L452 690 C459 690 464 694 465 701 L470 733 C471 740 467 744 460 744 L402 744 Z " />
<glyph glyph-name="g" unicode="g" horiz-adv-x="559" d="M228 49 C170 49 141 91 148 141 L181 374 C188 424 229 466 287 466 L367 466 C425 466 466 417 459 367 L428 148 C421 98 366 49 308 49 L228 49 Z M405 -33 C398 -80 353 -149 244 -149 C190 -149 144 -145 115 -140 C112 -140 108 -140 106 -147 L95 -181 C94 -186 96 -188 101 -190 C131 -198 173 -203 232 -203 C411 -203 457 -80 463 -40 L539 504 C540 511 537 515 530 515 L493 515 C486 515 481 511 480 504 L477 477 L470 477 C450 510 415 520 387 520 L284 520 C203 520 134 461 123 382 L88 133 C77 54 129 -5 210 -5 L313 -5 C341 -5 379 5 408 38 L415 38 L405 -33 Z " />
<glyph glyph-name="h" unicode="h" horiz-adv-x="566" d="M91 11 C90 4 94 0 101 0 L138 0 C145 0 149 4 150 11 L200 366 C263 465 344 466 379 466 L387 466 C438 466 486 424 477 356 L428 11 C427 4 431 0 438 0 L475 0 C482 0 486 4 487 11 L537 368 C550 458 489 520 396 520 L368 520 C348 520 262 519 219 455 L212 455 L245 689 C246 696 243 700 236 700 L199 700 C192 700 187 696 186 689 L91 11 Z " />
<glyph glyph-name="i" unicode="i" horiz-adv-x="257" d="M102 11 C101 4 105 0 112 0 L149 0 C156 0 160 4 161 11 L230 504 C231 511 228 515 221 515 L184 515 C177 515 172 511 171 504 L102 11 Z M180 589 C179 582 183 578 190 578 L233 578 C240 578 244 582 245 589 L255 657 C256 664 252 668 245 668 L202 668 C195 668 191 664 190 657 L180 589 Z " />
<glyph glyph-name="j" unicode="j" horiz-adv-x="257" d="M182 589 C181 582 185 578 192 578 L235 578 C242 578 246 582 247 589 L257 657 C258 664 254 668 247 668 L204 668 C197 668 193 664 192 657 L182 589 Z M-6 -124 C-10 -126 -12 -129 -13 -136 L-2 -176 C-1 -180 2 -182 5 -182 C6 -182 8 -182 10 -181 C58 -161 146 -107 161 -2 L232 504 C233 511 230 515 223 515 L186 515 C179 515 174 511 173 504 L103 3 C103 3 88 -76 -6 -124 L-6 -124 Z " />
<glyph glyph-name="k" unicode="k" horiz-adv-x="523" d="M417 8 C418 4 422 0 427 0 L475 0 C480 0 483 3 484 8 L383 274 L552 507 C552 512 550 515 545 515 L496 515 C491 515 486 511 484 507 L333 300 L191 300 L245 689 C246 696 243 700 236 700 L199 700 C192 700 187 696 186 689 L91 11 C90 4 94 0 101 0 L138 0 C145 0 149 4 150 11 L183 246 L326 246 L417 8 Z " />
<glyph glyph-name="l" unicode="l" horiz-adv-x="239" d="M245 689 C246 692 245 695 243 697 C242 699 240 700 236 700 L199 700 C195 700 193 699 190 697 C188 695 187 692 186 689 L91 11 C91 8 91 5 93 3 C95 1 97 0 101 0 L138 0 C142 0 144 1 146 3 C148 5 150 8 150 11 L245 689 Z " />
<glyph glyph-name="m" unicode="m" horiz-adv-x="821" d="M683 11 C682 4 686 0 693 0 L730 0 C737 0 741 4 742 11 L794 381 C805 461 747 520 651 520 C630 520 552 519 494 442 L487 442 C464 493 411 520 365 520 C330 520 276 520 219 455 L212 455 L219 504 C220 511 217 515 210 515 L173 515 C166 515 161 511 160 504 L91 11 C90 4 94 0 101 0 L138 0 C145 0 149 4 150 11 L200 368 C254 450 300 466 345 466 C411 466 445 426 436 359 L387 11 C386 4 390 0 397 0 L434 0 C441 0 445 4 446 11 L496 368 C550 450 591 466 643 466 C708 466 741 426 732 359 L683 11 Z " />
<glyph glyph-name="n" unicode="n" horiz-adv-x="566" d="M91 11 C90 4 94 0 101 0 L138 0 C145 0 149 4 150 11 L200 366 C263 465 344 466 379 466 L387 466 C438 466 486 424 477 356 L428 11 C427 4 431 0 438 0 L475 0 C482 0 486 4 487 11 L537 368 C550 458 489 520 396 520 L368 520 C348 520 262 519 219 455 L212 455 L219 504 C220 511 217 515 210 515 L173 515 C166 515 161 511 160 504 L91 11 Z " />
<glyph glyph-name="o" unicode="o" horiz-adv-x="534" d="M281 520 C200 520 138 450 128 384 L93 131 C84 65 126 -5 207 -5 L325 -5 C406 -5 468 65 477 131 L512 384 C522 450 480 520 399 520 L281 520 Z M233 49 C175 49 146 91 153 141 L186 374 C193 424 234 466 292 466 L372 466 C430 466 459 424 452 374 L419 141 C412 91 371 49 313 49 L233 49 Z " />
<glyph glyph-name="p" unicode="p" horiz-adv-x="559" d="M154 38 L161 38 C180 5 216 -5 244 -5 L347 -5 C428 -5 496 54 507 133 L542 382 C553 461 502 520 421 520 L318 520 C290 520 251 510 223 477 L216 477 L219 504 C220 511 217 515 210 515 L173 515 C166 515 161 511 160 504 L67 -163 C66 -170 69 -174 76 -174 L113 -174 C120 -174 125 -170 126 -163 L154 38 Z M263 49 C205 49 164 98 171 148 L202 367 C209 417 264 466 322 466 L402 466 C460 466 489 424 482 374 L449 141 C442 91 401 49 343 49 L263 49 Z " />
<glyph glyph-name="q" unicode="q" horiz-adv-x="559" d="M387 -163 C386 -170 389 -174 396 -174 L433 -174 C440 -174 445 -170 446 -163 L539 504 C540 511 537 515 530 515 L493 515 C486 515 481 511 480 504 L477 477 L470 477 C450 510 415 520 387 520 L284 520 C203 520 134 461 123 382 L88 133 C77 54 129 -5 210 -5 L313 -5 C341 -5 379 5 408 38 L415 38 L387 -163 Z M228 49 C170 49 141 91 148 141 L181 374 C188 424 229 466 287 466 L367 466 C425 466 466 417 459 367 L428 148 C421 98 366 49 308 49 L228 49 Z " />
<glyph glyph-name="r" unicode="r" horiz-adv-x="411" d="M432 517 C417 518 400 520 372 520 C349 520 261 512 218 448 L211 448 L219 504 C220 511 217 515 210 515 L173 515 C166 515 161 511 160 504 L91 11 C90 4 94 0 101 0 L138 0 C145 0 149 4 150 11 L199 359 C262 458 337 466 372 466 C389 466 412 464 423 463 C430 463 434 467 435 474 L442 506 C443 513 439 517 432 517 L432 517 Z " />
<glyph glyph-name="s" unicode="s" horiz-adv-x="515" d="M274 520 C192 520 132 464 122 396 L121 389 C93 191 432 270 414 141 L413 131 C405 75 354 49 307 49 L224 49 C176 49 137 94 143 141 L145 154 C146 161 143 165 136 165 L99 165 C92 165 87 161 86 154 L83 131 C74 65 119 -5 200 -5 L319 -5 C403 -5 462 51 471 119 L473 133 C501 334 161 250 179 379 L180 389 C188 445 238 466 286 466 L361 466 C409 466 449 421 442 374 L440 361 C439 354 443 350 450 350 L487 350 C494 350 498 354 499 361 L502 384 C512 450 467 520 386 520 L274 520 Z " />
<glyph glyph-name="t" unicode="t" horiz-adv-x="416" d="M355 0 C362 0 366 4 367 11 L372 43 C373 50 369 54 362 54 L324 54 C279 54 235 96 242 144 L286 461 L419 461 C426 461 431 465 432 472 L436 504 C437 511 434 515 427 515 L294 515 L318 689 C319 696 316 700 309 700 L272 700 C265 700 260 696 259 689 L235 515 L128 515 C121 515 116 511 115 504 L111 472 C110 465 113 461 120 461 L227 461 L183 144 C172 71 215 0 297 0 L355 0 Z " />
<glyph glyph-name="u" unicode="u" horiz-adv-x="544" d="M534 504 C535 511 532 515 525 515 L488 515 C481 515 476 511 475 504 L424 141 C418 94 364 49 317 49 L239 49 C192 49 152 94 158 141 L209 504 C210 511 207 515 200 515 L163 515 C156 515 151 511 150 504 L98 131 C89 65 131 -5 212 -5 L330 -5 C411 -5 473 65 482 131 L534 504 Z " />
<glyph glyph-name="v" unicode="v" horiz-adv-x="500" d="M290 0 C297 0 300 3 303 9 L535 504 C536 511 533 515 526 515 L487 515 C480 515 476 511 473 504 L264 58 L252 58 L167 504 C166 511 164 515 157 515 L118 515 C111 515 106 511 105 504 L199 9 C200 3 203 0 210 0 L290 0 Z " />
<glyph glyph-name="w" unicode="w" horiz-adv-x="762" d="M421 515 C415 515 411 511 408 505 L222 82 L166 504 C165 511 163 515 156 515 L118 515 C111 515 106 511 105 504 L170 10 C171 4 173 0 180 0 L240 0 C247 0 249 4 252 10 L443 443 L512 10 C513 4 515 0 522 0 L582 0 C589 0 591 4 594 10 L797 504 C798 511 795 515 788 515 L750 515 C743 515 739 511 736 504 L562 82 L494 505 C493 511 491 515 485 515 L421 515 Z " />
<glyph glyph-name="x" unicode="x" horiz-adv-x="480" d="M245 286 L176 504 C174 511 172 515 165 515 L125 515 C118 515 113 511 112 504 L190 258 L41 11 C40 4 44 0 51 0 L91 0 C98 0 101 4 105 11 L238 232 L306 232 L377 11 C379 4 382 0 389 0 L429 0 C436 0 440 4 441 11 L362 258 L508 504 C509 511 506 515 499 515 L459 515 C452 515 448 511 444 504 L315 286 L245 286 Z " />
<glyph glyph-name="y" unicode="y" horiz-adv-x="500" d="M91 -203 C132 -203 206 -197 293 -11 L535 504 C536 511 533 515 526 515 L487 515 C480 515 476 511 473 504 L264 58 L252 58 L167 504 C166 511 164 515 157 515 L118 515 C111 515 106 511 105 504 L206 -36 C192 -92 153 -149 82 -149 L59 -149 C52 -149 47 -153 46 -160 L42 -192 C41 -199 44 -203 51 -203 L91 -203 Z " />
<glyph glyph-name="z" unicode="z" horiz-adv-x="477" d="M141 54 L479 460 C480 462 482 465 482 467 L487 504 C488 511 485 515 478 515 L143 515 C136 515 131 511 130 504 L126 472 C125 465 128 461 135 461 L408 461 L69 54 C68 52 66 49 66 47 L61 11 C60 4 64 0 71 0 L406 0 C413 0 417 4 418 11 L423 43 C424 50 420 54 413 54 L141 54 Z " />
<glyph glyph-name="braceleft" unicode="&#x7b;" horiz-adv-x="482" d="M259 313 C304 353 338 402 343 440 L371 640 C380 698 433 748 486 751 C493 751 498 755 499 762 L503 794 C504 801 501 805 494 805 L489 805 C405 805 326 738 315 656 L286 449 C277 385 217 340 163 340 L148 340 C141 340 137 336 136 329 L131 298 C130 291 134 287 141 287 L156 287 C210 287 257 242 248 178 L218 -29 C207 -111 266 -178 350 -178 L355 -178 C362 -178 367 -174 368 -167 L373 -135 C374 -128 370 -124 363 -124 C310 -121 272 -71 280 -13 L308 187 C313 225 293 273 259 313 L259 313 Z " />
<glyph glyph-name="bar" unicode="&#x7c;" horiz-adv-x="239" d="M66 -167 C65 -174 68 -178 75 -178 L112 -178 C119 -178 124 -174 125 -167 L260 794 C261 801 258 805 251 805 L214 805 C207 805 202 801 201 794 L66 -167 Z " />
<glyph glyph-name="braceright" unicode="&#x7d;" horiz-adv-x="482" d="M309 313 C265 273 231 225 226 187 L198 -13 C190 -71 136 -121 83 -124 C76 -124 72 -128 71 -135 L66 -167 C65 -174 68 -178 75 -178 L80 -178 C164 -178 243 -111 254 -29 L284 178 C293 242 352 287 406 287 L421 287 C428 287 432 291 433 298 L438 329 C439 336 435 340 428 340 L413 340 C359 340 313 385 322 449 L351 656 C362 738 303 805 219 805 L214 805 C207 805 202 801 201 794 L197 762 C196 755 199 751 206 751 C259 748 298 698 289 640 L261 440 C256 402 276 353 309 313 L309 313 Z " />
<glyph glyph-name="asciitilde" unicode="&#x7e;" horiz-adv-x="440" d="M327 178 C337 178 353 184 370 191 C375 193 377 197 378 201 L373 232 C373 236 370 238 366 238 C355 238 345 232 330 232 C271 232 232 276 176 276 C166 276 149 270 132 263 C128 261 126 257 125 253 L130 222 C130 218 133 216 137 216 C148 216 158 222 173 222 C230 222 271 178 327 178 L327 178 Z " />
<glyph glyph-name="uni00A0" unicode="&#xa0;" horiz-adv-x="198" d="" />
<glyph glyph-name="exclamdown" unicode="&#xa1;" horiz-adv-x="239" d="M91 11 C90 4 94 0 101 0 L138 0 C145 0 149 4 150 11 L209 433 L218 528 C219 535 215 539 208 539 L181 539 C174 539 170 535 169 528 L150 433 L91 11 Z M178 629 C177 622 180 618 187 618 L224 618 C231 618 236 622 237 629 L245 689 C246 696 243 700 236 700 L199 700 C192 700 187 696 186 689 L178 629 Z " />
<glyph glyph-name="cent" unicode="&#xa2;" horiz-adv-x="637" d="M271 -126 C270 -133 273 -137 280 -137 L317 -137 C324 -137 329 -133 330 -126 L347 -5 L391 -5 C476 -5 555 62 567 144 L574 196 C575 203 572 207 565 207 L528 207 C521 207 516 203 515 196 L510 160 C501 93 453 49 385 49 L264 49 C196 49 162 93 171 160 L225 541 C234 608 281 651 349 651 L470 651 C538 651 573 608 564 541 L558 504 C557 497 561 493 568 493 L605 493 C612 493 616 497 617 504 L625 556 C636 638 576 705 491 705 L447 705 L463 821 C464 828 460 832 453 832 L416 832 C409 832 405 828 404 821 L388 705 L344 705 C259 705 179 638 168 556 L110 144 C98 62 159 -5 244 -5 L288 -5 L271 -126 Z " />
<glyph glyph-name="sterling" unicode="&#xa3;" horiz-adv-x="687" d="M349 554 C356 604 397 646 455 646 L535 646 C593 646 622 604 615 554 L613 539 C612 532 616 528 623 528 L660 528 C667 528 671 532 672 539 L676 564 C685 630 643 700 562 700 L444 700 C363 700 301 630 292 564 L264 364 L152 364 C145 364 140 360 139 353 L135 321 C134 314 137 310 144 310 L256 310 L220 54 L108 54 C101 54 97 50 96 43 L91 11 C90 4 94 0 101 0 L579 0 C586 0 590 4 591 11 L596 43 C597 50 593 54 586 54 L279 54 L315 310 L446 310 C453 310 458 314 459 321 L463 353 C464 360 461 364 454 364 L323 364 L349 554 Z " />
<glyph glyph-name="currency" unicode="&#xa4;" horiz-adv-x="490" d="M404 154 L416 235 C418 252 415 276 405 298 L453 378 C453 384 449 389 443 389 L403 389 C396 389 394 386 390 380 L361 333 C353 337 343 337 332 338 L252 338 C241 337 231 337 221 333 L206 380 C204 386 202 389 195 389 L155 389 C149 389 143 384 143 378 L167 298 C151 276 142 252 140 235 L128 154 C126 137 128 113 138 91 L91 11 C90 5 95 0 101 0 L141 0 C148 0 150 3 154 9 L182 56 C191 52 201 52 212 51 L292 51 C303 52 313 52 322 56 L338 9 C340 3 342 0 349 0 L389 0 C395 0 400 5 401 11 L376 91 C392 113 402 137 404 154 L404 154 Z M198 231 C203 268 221 285 261 285 L309 285 C349 285 361 268 356 231 L346 158 C341 121 323 104 283 104 L235 104 C195 104 183 121 188 158 L198 231 Z " />
<glyph glyph-name="yen" unicode="&#xa5;" horiz-adv-x="681" d="M493 86 C500 86 504 90 505 97 L510 129 C511 136 507 140 500 140 L389 140 L400 216 L439 280 L520 280 C527 280 531 284 532 291 L537 323 C538 330 534 334 527 334 L471 334 L687 689 C688 696 685 700 678 700 L635 700 C628 700 625 696 621 689 L385 299 L380 299 L252 689 C250 696 249 700 242 700 L199 700 C192 700 187 696 186 689 L302 334 L246 334 C239 334 235 330 234 323 L229 291 C228 284 232 280 239 280 L320 280 L341 216 L330 140 L219 140 C212 140 208 136 207 129 L202 97 C201 90 205 86 212 86 L323 86 L312 11 C311 4 315 0 322 0 L359 0 C366 0 370 4 371 11 L382 86 L493 86 Z " />
<glyph glyph-name="brokenbar" unicode="&#xa6;" horiz-adv-x="239" d="M146 403 C145 396 149 392 156 392 L193 392 C200 392 204 396 205 403 L260 794 C261 801 258 805 251 805 L214 805 C207 805 202 801 201 794 L146 403 Z M66 -167 C65 -174 68 -178 75 -178 L112 -178 C119 -178 124 -174 125 -167 L180 224 C181 231 178 235 171 235 L134 235 C127 235 122 231 121 224 L66 -167 Z " />
<glyph glyph-name="section" unicode="&#xa7;" horiz-adv-x="570" d="M522 299 L523 313 C552 514 211 430 229 559 L230 569 C238 625 288 646 336 646 L411 646 C459 646 499 601 492 554 L491 541 C490 534 493 530 500 530 L537 530 C544 530 549 534 550 541 L553 564 C562 630 517 700 436 700 L324 700 C242 700 182 644 172 576 L171 569 C164 519 181 487 208 465 C173 442 149 406 143 365 L142 358 C114 160 453 239 435 110 L434 100 C426 44 375 18 328 18 L245 18 C197 18 157 63 164 110 L166 123 C167 130 163 134 156 134 L119 134 C112 134 108 130 107 123 L104 100 C94 34 139 -36 220 -36 L339 -36 C423 -36 482 20 492 88 L494 102 C500 149 487 181 462 203 C495 226 516 261 522 299 L522 299 Z M463 311 C459 283 445 262 425 249 C419 245 406 241 396 241 C391 241 388 242 384 243 C295 270 189 274 199 348 L201 358 C205 389 223 409 246 421 C252 425 265 428 275 428 C280 428 284 427 287 426 C375 400 475 393 465 321 L463 311 Z " />
<glyph glyph-name="dieresis" unicode="&#xa8;" horiz-adv-x="382" d="M179 640 C178 633 182 629 189 629 L235 629 C242 629 246 633 247 640 L254 689 C255 696 252 700 245 700 L199 700 C192 700 187 696 186 689 L179 640 Z M313 640 C312 633 316 629 323 629 L369 629 C376 629 380 633 381 640 L388 689 C389 696 386 700 379 700 L333 700 C326 700 321 696 320 689 L313 640 Z " />
<glyph glyph-name="copyright" unicode="&#xa9;" horiz-adv-x="892" d="M568 256 C565 228 534 203 505 203 L439 203 C411 203 387 229 391 257 L416 436 C420 465 451 490 479 490 L545 490 C574 490 598 465 594 436 L591 415 C590 409 593 406 599 406 L638 406 C644 406 647 409 648 415 L650 434 C658 488 625 541 561 541 L478 541 C413 541 366 488 358 434 L334 258 C326 206 358 152 423 152 L506 152 C570 152 618 206 626 259 L629 278 C629 284 627 287 621 287 L582 287 C576 287 572 284 572 278 L568 256 Z M544 699 C349 699 165 539 138 344 C110 148 249 -11 444 -11 C639 -11 822 148 850 344 C877 539 739 699 544 699 L544 699 Z M537 651 C708 651 822 515 798 344 C774 173 622 38 451 38 C280 38 166 173 190 344 C214 515 366 651 537 651 L537 651 Z " />
<glyph glyph-name="ordfeminine" unicode="&#xaa;" horiz-adv-x="404" d="M209 498 C213 526 231 536 254 536 L339 536 L333 493 C329 466 304 460 279 460 L250 460 C228 460 205 466 209 493 L209 498 Z M216 647 C238 651 256 654 277 654 C337 654 351 626 348 602 L345 582 L251 582 C206 582 167 554 161 509 L158 487 C152 444 183 414 228 414 L273 414 C282 414 303 420 319 437 L324 437 L322 424 C322 421 324 418 327 418 L366 418 C369 418 373 421 373 424 L398 602 C402 627 395 700 295 700 C257 700 230 696 214 692 C212 691 209 690 209 687 L210 651 C210 647 213 647 216 647 L216 647 Z " />
<glyph glyph-name="guillemotleft" unicode="&#xab;" horiz-adv-x="681" d="M197 248 L200 267 L355 479 C356 485 352 489 346 489 L301 489 C295 489 291 484 287 479 L126 261 L125 254 L221 10 C223 5 227 0 233 0 L278 0 C284 0 288 4 289 10 L197 248 Z M500 248 L503 267 L658 479 C659 485 655 489 649 489 L604 489 C598 489 594 484 590 479 L429 261 L428 254 L524 10 C526 5 530 0 536 0 L581 0 C587 0 591 4 592 10 L500 248 Z " />
<glyph glyph-name="logicalnot" unicode="&#xac;" horiz-adv-x="557" d="M504 264 C505 271 501 275 494 275 L139 275 C132 275 128 271 127 264 L122 232 C121 225 125 221 132 221 L439 221 L418 78 C417 71 421 67 428 67 L465 67 C472 67 476 71 477 78 L504 264 Z " />
<glyph glyph-name="uni00AD" unicode="&#xad;" horiz-adv-x="198" d="" />
<glyph glyph-name="registered" unicode="&#xae;" horiz-adv-x="892" d="M544 699 C349 699 165 539 138 344 C110 148 249 -11 444 -11 C639 -11 822 148 850 344 C877 539 739 699 544 699 L544 699 Z M537 651 C708 651 822 515 798 344 C774 173 622 38 451 38 C280 38 166 173 190 344 C214 515 366 651 537 651 L537 651 Z M418 335 L439 486 L540 486 C569 486 591 458 587 427 L582 392 C577 358 545 335 516 335 L418 335 Z M564 290 C602 307 632 346 638 387 L644 428 C652 490 623 541 548 541 L399 541 C393 541 389 538 388 532 L336 161 C335 155 338 152 344 152 L383 152 C389 152 392 155 393 161 L410 279 L511 279 L550 161 C552 156 555 152 561 152 L597 152 C603 152 606 155 607 161 L564 290 Z " />
<glyph glyph-name="macron" unicode="&#xaf;" horiz-adv-x="408" d="M397 646 C404 646 409 650 410 657 L414 689 C415 696 412 700 405 700 L199 700 C192 700 187 696 186 689 L182 657 C181 650 184 646 191 646 L397 646 Z " />
<glyph glyph-name="degree" unicode="&#xb0;" horiz-adv-x="410" d="M409 636 C418 700 374 751 310 751 C246 751 188 700 179 636 C170 572 214 521 278 521 C342 521 400 572 409 636 L409 636 Z M361 636 C355 597 322 569 284 569 C247 569 222 597 228 636 C233 675 266 703 303 703 C341 703 366 675 361 636 L361 636 Z " />
<glyph glyph-name="plusminus" unicode="&#xb1;" horiz-adv-x="459" d="M400 305 C407 305 412 309 413 316 L417 348 C418 355 415 359 408 359 L309 359 L326 479 C327 486 323 490 316 490 L279 490 C272 490 268 486 267 479 L250 359 L151 359 C144 359 139 355 138 348 L134 316 C133 309 136 305 143 305 L242 305 L225 182 C224 175 228 171 235 171 L272 171 C279 171 283 175 284 182 L301 305 L400 305 Z M108 54 C101 54 97 50 96 43 L91 11 C90 4 94 0 101 0 L358 0 C365 0 369 4 370 11 L375 43 C376 50 372 54 365 54 L108 54 Z " />
<glyph glyph-name="twosuperior" unicode="&#xb2;" horiz-adv-x="370" d="M182 616 C182 613 184 610 187 610 L226 610 C229 610 233 613 233 616 C237 642 245 654 274 654 L281 654 C311 654 313 640 311 621 L310 615 C299 534 172 590 155 467 L149 423 C149 420 151 417 154 417 L332 417 C335 417 339 420 339 423 L344 457 C344 460 342 463 339 463 L210 463 C222 548 344 492 361 612 L363 627 C367 661 346 700 312 700 L254 700 C221 700 190 674 186 641 L182 616 Z " />
<glyph glyph-name="threesuperior" unicode="&#xb3;" horiz-adv-x="359" d="M287 497 C285 478 279 464 249 464 L242 464 C213 464 207 476 211 502 C211 505 209 508 206 508 L167 508 C164 508 160 505 160 502 L157 477 C152 444 175 418 208 418 L266 418 C300 418 333 457 338 491 L339 502 C343 529 340 545 311 558 C342 576 351 589 355 616 L357 627 C361 661 340 700 306 700 L248 700 C215 700 184 674 180 641 L176 616 C176 613 178 610 181 610 L220 610 C223 610 227 613 227 616 C231 642 239 654 268 654 L275 654 C305 654 307 640 305 621 L304 612 C300 590 287 581 259 581 L245 581 C242 581 239 578 238 575 L234 541 C233 538 236 535 239 535 L253 535 C281 535 291 525 288 503 L287 497 Z " />
<glyph glyph-name="acute" unicode="&#xb4;" horiz-adv-x="288" d="M218 574 C225 574 229 578 234 586 L294 688 C295 696 292 700 285 700 L248 700 C241 700 237 696 232 688 L172 586 C171 578 174 574 182 574 L218 574 Z " />
<glyph glyph-name="mu" unicode="&#xb5;" horiz-adv-x="564" d="M67 -163 C66 -170 69 -174 76 -174 L113 -174 C120 -174 125 -170 126 -163 L152 23 C170 9 193 -5 222 -5 L340 -5 C421 -5 483 65 492 131 L544 504 C545 511 542 515 535 515 L498 515 C491 515 486 511 485 504 L434 141 C428 94 374 49 327 49 L249 49 C202 49 162 94 168 141 L219 504 C220 511 217 515 210 515 L173 515 C166 515 161 511 160 504 L67 -163 Z " />
<glyph glyph-name="paragraph" unicode="&#xb6;" horiz-adv-x="741" d="M346 700 C259 700 178 633 167 551 L150 427 C138 345 200 278 287 278 L391 278 L353 11 C352 4 356 0 363 0 L400 0 C407 0 411 4 412 11 L501 646 L682 646 L593 11 C592 4 596 0 603 0 L640 0 C647 0 651 4 652 11 L747 689 C748 696 745 700 738 700 L346 700 Z " />
<glyph glyph-name="periodcentered" unicode="&#xb7;" horiz-adv-x="248" d="M117 194 C116 187 119 183 126 183 L172 183 C179 183 184 187 185 194 L192 243 C193 250 189 254 182 254 L136 254 C129 254 125 250 124 243 L117 194 Z " />
<glyph glyph-name="cedilla" unicode="&#xb8;" horiz-adv-x="312" d="M88 -63 C85 -67 84 -73 84 -73 L81 -96 C80 -100 83 -103 87 -103 L136 -103 C136 -103 171 -103 167 -133 C163 -161 128 -161 128 -161 L74 -161 C70 -161 67 -163 66 -168 L63 -188 C63 -192 65 -195 69 -195 L134 -195 C174 -195 196 -179 204 -127 C209 -88 178 -69 138 -69 L126 -69 L166 -6 C167 0 165 1 161 1 L136 1 C132 1 129 -1 127 -4 L88 -63 Z " />
<glyph glyph-name="onesuperior" unicode="&#xb9;" horiz-adv-x="370" d="M318 694 C318 697 316 700 313 700 L264 700 L191 678 C188 677 184 674 184 671 L179 635 C178 632 181 629 184 629 L261 652 L235 464 L172 464 C169 464 165 461 165 458 L160 424 C160 421 162 418 165 418 L332 418 C335 418 339 421 339 424 L344 458 C344 461 342 464 339 464 L286 464 L318 694 Z " />
<glyph glyph-name="ordmasculine" unicode="&#xba;" horiz-adv-x="410" d="M409 636 C418 700 374 751 310 751 C246 751 188 700 179 636 C170 572 214 521 278 521 C342 521 400 572 409 636 L409 636 Z M361 636 C355 597 322 569 284 569 C247 569 222 597 228 636 C233 675 266 703 303 703 C341 703 366 675 361 636 L361 636 Z " />
<glyph glyph-name="guillemotright" unicode="&#xbb;" horiz-adv-x="681" d="M394 10 C393 4 397 0 403 0 L448 0 C454 0 458 5 462 10 L626 254 L627 261 L528 479 C526 484 522 489 516 489 L471 489 C465 489 461 485 460 479 L555 267 L552 248 L394 10 Z M91 10 C90 4 94 0 100 0 L145 0 C151 0 155 5 159 10 L323 254 L324 261 L225 479 C223 484 219 489 213 489 L168 489 C162 489 158 485 157 479 L252 267 L249 248 L91 10 Z " />
<glyph glyph-name="onequarter" unicode="&#xbc;" horiz-adv-x="771" d="M701 698 C700 699 698 700 696 700 L647 700 C643 700 639 697 636 691 L188 2 C189 1 191 0 193 0 L242 0 C246 0 249 3 253 8 L701 698 Z M318 694 C318 697 316 700 313 700 L264 700 L191 678 C188 677 184 674 184 671 L179 635 C178 632 181 629 184 629 L261 652 L235 464 L172 464 C169 464 165 461 165 458 L160 424 C160 421 162 418 165 418 L332 418 C335 418 339 421 339 424 L344 458 C344 461 342 464 339 464 L286 464 L318 694 Z M454 77 L450 45 C449 42 452 39 455 39 L603 39 L598 6 C598 3 601 0 604 0 L643 0 C646 0 649 3 649 6 L654 39 L680 39 C683 39 686 42 687 45 L692 79 C692 82 689 85 686 85 L660 85 L672 164 C672 167 669 170 666 170 L627 170 C624 170 621 167 621 164 L609 85 L513 85 L621 276 C622 280 619 283 615 283 L577 283 C574 283 570 280 567 276 L454 77 Z " />
<glyph glyph-name="onehalf" unicode="&#xbd;" horiz-adv-x="746" d="M698 698 C697 699 695 700 693 700 L644 700 C640 700 636 697 633 691 L185 2 C186 1 188 0 190 0 L239 0 C243 0 246 3 250 8 L698 698 Z M318 694 C318 697 316 700 313 700 L264 700 L191 678 C188 677 184 674 184 671 L179 635 C178 632 181 629 184 629 L261 652 L235 464 L172 464 C169 464 165 461 165 458 L160 424 C160 421 162 418 165 418 L332 418 C335 418 339 421 339 424 L344 458 C344 461 342 464 339 464 L286 464 L318 694 Z M499 199 C499 196 502 193 505 193 L544 193 C547 193 550 196 550 199 C554 225 563 237 592 237 L599 237 C629 237 631 223 628 204 L627 198 C616 117 490 173 473 50 L466 6 C466 3 469 0 472 0 L650 0 C653 0 656 3 656 6 L661 40 C662 43 659 46 656 46 L527 46 C539 131 661 75 678 195 L680 210 C685 244 663 283 629 283 L571 283 C538 283 508 257 503 224 L499 199 Z " />
<glyph glyph-name="threequarters" unicode="&#xbe;" horiz-adv-x="734" d="M671 698 C670 699 668 700 666 700 L617 700 C613 700 609 697 606 691 L158 2 C159 1 161 0 163 0 L212 0 C216 0 219 3 223 8 L671 698 Z M417 77 L413 45 C412 42 415 39 418 39 L566 39 L561 6 C561 3 564 0 567 0 L606 0 C609 0 612 3 612 6 L617 39 L643 39 C646 39 649 42 650 45 L655 79 C655 82 652 85 649 85 L623 85 L635 164 C635 167 632 170 629 170 L590 170 C587 170 584 167 584 164 L572 85 L476 85 L584 276 C585 280 582 283 578 283 L540 283 C537 283 533 280 530 276 L417 77 Z M287 497 C285 478 279 464 249 464 L242 464 C213 464 207 476 211 502 C211 505 209 508 206 508 L167 508 C164 508 160 505 160 502 L157 477 C152 444 175 418 208 418 L266 418 C300 418 333 457 338 491 L339 502 C343 529 340 545 311 558 C342 576 351 589 355 616 L357 627 C361 661 340 700 306 700 L248 700 C215 700 184 674 180 641 L176 616 C176 613 178 610 181 610 L220 610 C223 610 227 613 227 616 C231 642 239 654 268 654 L275 654 C305 654 307 640 305 621 L304 612 C300 590 287 581 259 581 L245 581 C242 581 239 578 238 575 L234 541 C233 538 236 535 239 535 L253 535 C281 535 291 525 288 503 L287 497 Z " />
<glyph glyph-name="questiondown" unicode="&#xbf;" horiz-adv-x="626" d="M441 533 C442 540 439 544 432 544 L395 544 C388 544 383 540 382 533 L381 521 C349 296 154 462 117 195 L110 148 C99 67 160 0 245 0 L380 0 C465 0 545 67 556 148 L563 196 C564 203 561 207 554 207 L517 207 C510 207 505 203 504 196 L500 164 C490 97 443 54 375 54 L265 54 C197 54 162 97 172 164 L176 195 C208 421 402 254 439 516 L441 533 Z M464 694 C465 701 462 705 455 705 L418 705 C411 705 406 701 405 694 L397 634 C396 627 399 623 406 623 L443 623 C450 623 455 627 456 634 L464 694 Z " />
<glyph glyph-name="Agrave" unicode="&#xc0;" horiz-adv-x="616" d="M369 700 C363 700 359 697 357 692 L46 11 C45 4 49 0 56 0 L94 0 C101 0 104 4 107 11 L165 138 L489 138 L511 11 C512 4 515 0 522 0 L560 0 C567 0 571 4 572 11 L453 692 C451 697 449 700 443 700 L369 700 Z M390 631 L402 631 L479 191 L189 191 L390 631 Z M427 751 C435 751 440 755 441 763 L409 865 C406 873 404 877 397 877 L360 877 C353 877 348 873 347 865 L379 763 C382 755 384 751 391 751 L427 751 Z " />
<glyph glyph-name="Aacute" unicode="&#xc1;" horiz-adv-x="616" d="M369 700 C363 700 359 697 357 692 L46 11 C45 4 49 0 56 0 L94 0 C101 0 104 4 107 11 L165 138 L489 138 L511 11 C512 4 515 0 522 0 L560 0 C567 0 571 4 572 11 L453 692 C451 697 449 700 443 700 L369 700 Z M479 191 L189 191 L390 631 L402 631 L479 191 Z M435 751 C442 751 446 755 451 763 L511 865 C512 873 509 877 502 877 L465 877 C458 877 454 873 449 865 L389 763 C388 755 391 751 399 751 L435 751 Z " />
<glyph glyph-name="Acircumflex" unicode="&#xc2;" horiz-adv-x="616" d="M369 700 C363 700 359 697 357 692 L46 11 C45 4 49 0 56 0 L94 0 C101 0 104 4 107 11 L165 138 L489 138 L511 11 C512 4 515 0 522 0 L560 0 C567 0 571 4 572 11 L453 692 C451 697 449 700 443 700 L369 700 Z M479 191 L189 191 L390 631 L402 631 L479 191 Z M405 894 C399 894 395 890 391 883 L312 759 C311 754 314 751 319 751 L357 751 C360 751 364 755 366 759 L428 854 L462 759 C464 755 466 751 469 751 L507 751 C512 751 515 754 516 759 L473 883 C471 890 467 894 461 894 L405 894 Z " />
<glyph glyph-name="Atilde" unicode="&#xc3;" horiz-adv-x="616" d="M369 700 C363 700 359 697 357 692 L46 11 C45 4 49 0 56 0 L94 0 C101 0 104 4 107 11 L165 138 L489 138 L511 11 C512 4 515 0 522 0 L560 0 C567 0 571 4 572 11 L453 692 C451 697 449 700 443 700 L369 700 Z M390 631 L402 631 L479 191 L189 191 L390 631 Z M495 751 C505 751 522 757 539 764 C543 766 546 770 546 774 L542 805 C541 809 538 811 534 811 C523 811 514 805 499 805 C440 805 401 849 345 849 C335 849 318 843 301 836 C297 834 294 830 294 826 L298 795 C299 791 301 789 305 789 C316 789 326 795 341 795 C398 795 439 751 495 751 L495 751 Z " />
<glyph glyph-name="Adieresis" unicode="&#xc4;" horiz-adv-x="616" d="M369 700 C363 700 359 697 357 692 L46 11 C45 4 49 0 56 0 L94 0 C101 0 104 4 107 11 L165 138 L489 138 L511 11 C512 4 515 0 522 0 L560 0 C567 0 571 4 572 11 L453 692 C451 697 449 700 443 700 L369 700 Z M479 191 L189 191 L390 631 L402 631 L479 191 Z M314 762 C313 755 316 751 323 751 L369 751 C376 751 381 755 382 762 L388 811 C389 818 386 822 379 822 L333 822 C326 822 321 818 320 811 L314 762 Z M448 762 C447 755 450 751 457 751 L503 751 C510 751 515 755 516 762 L522 811 C523 818 520 822 513 822 L467 822 C460 822 455 818 454 811 L448 762 Z " />
<glyph glyph-name="Aring" unicode="&#xc5;" horiz-adv-x="616" d="M431 881 C367 881 309 830 300 766 C294 722 312 685 344 665 L46 11 C45 4 49 0 56 0 L94 0 C101 0 104 4 107 11 L165 138 L489 138 L511 11 C512 4 515 0 522 0 L560 0 C567 0 571 4 572 11 L457 665 C495 685 524 722 530 766 C539 830 495 881 431 881 L431 881 Z M479 191 L189 191 L390 631 L402 631 L479 191 Z M406 700 L400 700 C366 703 345 734 349 766 C355 805 388 833 425 833 C463 833 488 805 482 766 C478 733 444 700 406 700 L406 700 Z " />
<glyph glyph-name="AE" unicode="&#xc6;" horiz-adv-x="956" d="M525 187 L222 187 L522 646 L589 646 L525 187 Z M41 11 C40 4 44 0 51 0 L93 0 C100 0 103 5 107 11 L186 133 L517 133 L500 11 C499 4 503 0 510 0 L865 0 C872 0 876 4 877 11 L882 43 C883 50 879 54 872 54 L565 54 L601 310 L882 310 C889 310 894 314 895 321 L899 353 C900 360 897 364 890 364 L609 364 L648 646 L955 646 C962 646 967 650 968 657 L972 689 C973 696 970 700 963 700 L500 700 C494 700 488 695 486 691 L41 11 Z " />
<glyph glyph-name="Ccedilla" unicode="&#xc7;" horiz-adv-x="602" d="M246 -96 C245 -100 248 -103 252 -103 L301 -103 C301 -103 336 -103 332 -133 C328 -161 293 -161 293 -161 L239 -161 C235 -161 232 -163 231 -168 L228 -188 C228 -192 230 -195 234 -195 L299 -195 C339 -195 361 -179 369 -127 C374 -88 343 -69 303 -69 L291 -69 L332 -5 L381 -5 C466 -5 545 62 557 144 L564 196 C565 203 562 207 555 207 L518 207 C511 207 506 203 505 196 L500 160 C491 93 443 49 375 49 L254 49 C186 49 152 93 161 160 L215 541 C224 608 271 651 339 651 L460 651 C528 651 563 608 554 541 L548 504 C547 497 551 493 558 493 L595 493 C602 493 606 497 607 504 L615 556 C626 638 566 705 481 705 L334 705 C249 705 169 638 158 556 L100 144 C88 62 149 -5 234 -5 L291 -5 L253 -63 C250 -67 249 -73 249 -73 L246 -96 Z " />
<glyph glyph-name="Egrave" unicode="&#xc8;" horiz-adv-x="547" d="M91 11 C90 4 94 0 101 0 L456 0 C463 0 467 4 468 11 L473 43 C474 50 470 54 463 54 L156 54 L192 310 L473 310 C480 310 485 314 486 321 L490 353 C491 360 488 364 481 364 L200 364 L239 646 L546 646 C553 646 558 650 559 657 L563 689 C564 696 561 700 554 700 L199 700 C192 700 187 696 186 689 L91 11 Z M407 751 C415 751 420 755 421 763 L389 865 C386 873 384 877 377 877 L340 877 C333 877 328 873 327 865 L359 763 C362 755 364 751 371 751 L407 751 Z " />
<glyph glyph-name="Eacute" unicode="&#xc9;" horiz-adv-x="547" d="M91 11 C90 4 94 0 101 0 L456 0 C463 0 467 4 468 11 L473 43 C474 50 470 54 463 54 L156 54 L192 310 L473 310 C480 310 485 314 486 321 L490 353 C491 360 488 364 481 364 L200 364 L239 646 L546 646 C553 646 558 650 559 657 L563 689 C564 696 561 700 554 700 L199 700 C192 700 187 696 186 689 L91 11 Z M401 751 C408 751 412 755 417 763 L477 865 C478 873 475 877 468 877 L431 877 C424 877 420 873 415 865 L355 763 C354 755 357 751 365 751 L401 751 Z " />
<glyph glyph-name="Ecircumflex" unicode="&#xca;" horiz-adv-x="547" d="M91 11 C90 4 94 0 101 0 L456 0 C463 0 467 4 468 11 L473 43 C474 50 470 54 463 54 L156 54 L192 310 L473 310 C480 310 485 314 486 321 L490 353 C491 360 488 364 481 364 L200 364 L239 646 L546 646 C553 646 558 650 559 657 L563 689 C564 696 561 700 554 700 L199 700 C192 700 187 696 186 689 L91 11 Z M377 894 C371 894 367 890 363 883 L284 759 C283 754 286 751 291 751 L329 751 C332 751 336 755 338 759 L400 854 L434 759 C436 755 438 751 441 751 L479 751 C484 751 487 754 488 759 L445 883 C443 890 439 894 433 894 L377 894 Z " />
<glyph glyph-name="Edieresis" unicode="&#xcb;" horiz-adv-x="547" d="M91 11 C90 4 94 0 101 0 L456 0 C463 0 467 4 468 11 L473 43 C474 50 470 54 463 54 L156 54 L192 310 L473 310 C480 310 485 314 486 321 L490 353 C491 360 488 364 481 364 L200 364 L239 646 L546 646 C553 646 558 650 559 657 L563 689 C564 696 561 700 554 700 L199 700 C192 700 187 696 186 689 L91 11 Z M282 762 C281 755 284 751 291 751 L337 751 C344 751 349 755 350 762 L356 811 C357 818 354 822 347 822 L301 822 C294 822 289 818 288 811 L282 762 Z M416 762 C415 755 418 751 425 751 L471 751 C478 751 483 755 484 762 L490 811 C491 818 488 822 481 822 L435 822 C428 822 423 818 422 811 L416 762 Z " />
<glyph glyph-name="Igrave" unicode="&#xcc;" horiz-adv-x="239" d="M242 751 C250 751 255 755 256 763 L224 865 C221 873 219 877 212 877 L175 877 C168 877 163 873 162 865 L194 763 C197 755 199 751 206 751 L242 751 Z M245 689 C246 692 245 695 243 697 C242 699 240 700 236 700 L199 700 C195 700 193 699 190 697 C188 695 187 692 186 689 L91 11 C91 8 91 5 93 3 C95 1 97 0 101 0 L138 0 C142 0 144 1 146 3 C148 5 150 8 150 11 L245 689 Z " />
<glyph glyph-name="Iacute" unicode="&#xcd;" horiz-adv-x="239" d="M248 751 C255 751 259 755 264 763 L324 865 C325 873 322 877 315 877 L278 877 C271 877 267 873 262 865 L202 763 C201 755 204 751 212 751 L248 751 Z M245 689 C246 692 245 695 243 697 C242 699 240 700 236 700 L199 700 C195 700 193 699 190 697 C188 695 187 692 186 689 L91 11 C91 8 91 5 93 3 C95 1 97 0 101 0 L138 0 C142 0 144 1 146 3 C148 5 150 8 150 11 L245 689 Z " />
<glyph glyph-name="Icircumflex" unicode="&#xce;" horiz-adv-x="239" d="M216 894 C210 894 206 890 202 883 L123 759 C122 754 125 751 130 751 L168 751 C171 751 175 755 177 759 L239 854 L273 759 C275 755 277 751 280 751 L318 751 C323 751 326 754 327 759 L284 883 C282 890 278 894 272 894 L216 894 Z M245 689 C246 692 245 695 243 697 C242 699 240 700 236 700 L199 700 C195 700 193 699 190 697 C188 695 187 692 186 689 L91 11 C91 8 91 5 93 3 C95 1 97 0 101 0 L138 0 C142 0 144 1 146 3 C148 5 150 8 150 11 L245 689 Z " />
<glyph glyph-name="Idieresis" unicode="&#xcf;" horiz-adv-x="239" d="M140 762 C139 755 142 751 149 751 L195 751 C202 751 207 755 208 762 L214 811 C215 818 212 822 205 822 L159 822 C152 822 147 818 146 811 L140 762 Z M245 762 C244 755 247 751 254 751 L300 751 C307 751 312 755 313 762 L319 811 C320 818 317 822 310 822 L264 822 C257 822 252 818 251 811 L245 762 Z M245 689 C246 692 245 695 243 697 C242 699 240 700 236 700 L199 700 C195 700 193 699 190 697 C188 695 187 692 186 689 L91 11 C91 8 91 5 93 3 C95 1 97 0 101 0 L138 0 C142 0 144 1 146 3 C148 5 150 8 150 11 L245 689 Z " />
<glyph glyph-name="Eth" unicode="&#xd0;" horiz-adv-x="648" d="M220 700 C213 700 208 696 207 689 L164 378 L94 378 C87 378 82 374 81 367 L77 335 C76 328 79 324 86 324 L156 324 L112 11 C111 4 115 0 122 0 L413 0 C498 0 577 67 588 149 L645 551 C656 633 596 700 511 700 L220 700 Z M177 54 L215 324 L292 324 C299 324 304 328 305 335 L309 367 C310 374 307 378 300 378 L223 378 L260 646 L491 646 C559 646 594 602 585 535 L533 165 C523 98 476 54 408 54 L177 54 Z " />
<glyph glyph-name="Ntilde" unicode="&#xd1;" horiz-adv-x="669" d="M524 90 L277 689 C275 695 271 700 264 700 L199 700 C192 700 187 696 186 689 L91 11 C90 4 94 0 101 0 L138 0 C145 0 149 4 150 11 L234 610 L242 610 L490 11 C492 5 497 0 504 0 L568 0 C575 0 579 4 580 11 L675 689 C676 696 673 700 666 700 L629 700 C622 700 617 696 616 689 L532 90 L524 90 Z M521 751 C531 751 548 757 565 764 C569 766 572 770 572 774 L568 805 C567 809 564 811 560 811 C549 811 540 805 525 805 C466 805 427 849 371 849 C361 849 344 843 327 836 C323 834 320 830 320 826 L324 795 C325 791 327 789 331 789 C342 789 352 795 367 795 C424 795 465 751 521 751 L521 751 Z " />
<glyph glyph-name="Ograve" unicode="&#xd2;" horiz-adv-x="617" d="M481 705 L334 705 C249 705 169 638 158 556 L100 144 C88 62 149 -5 234 -5 L381 -5 C466 -5 545 62 557 144 L615 556 C626 638 566 705 481 705 L481 705 Z M500 160 C491 93 443 49 375 49 L254 49 C186 49 152 93 161 160 L215 541 C224 608 271 651 339 651 L460 651 C528 651 563 608 554 541 L500 160 Z M427 751 C435 751 440 755 441 763 L409 865 C406 873 404 877 397 877 L360 877 C353 877 348 873 347 865 L379 763 C382 755 384 751 391 751 L427 751 Z " />
<glyph glyph-name="Oacute" unicode="&#xd3;" horiz-adv-x="617" d="M481 705 L334 705 C249 705 169 638 158 556 L100 144 C88 62 149 -5 234 -5 L381 -5 C466 -5 545 62 557 144 L615 556 C626 638 566 705 481 705 L481 705 Z M500 160 C491 93 443 49 375 49 L254 49 C186 49 152 93 161 160 L215 541 C224 608 271 651 339 651 L460 651 C528 651 563 608 554 541 L500 160 Z M439 751 C446 751 450 755 455 763 L515 865 C516 873 513 877 506 877 L469 877 C462 877 458 873 453 865 L393 763 C392 755 395 751 403 751 L439 751 Z " />
<glyph glyph-name="Ocircumflex" unicode="&#xd4;" horiz-adv-x="617" d="M481 705 L334 705 C249 705 169 638 158 556 L100 144 C88 62 149 -5 234 -5 L381 -5 C466 -5 545 62 557 144 L615 556 C626 638 566 705 481 705 L481 705 Z M500 160 C491 93 443 49 375 49 L254 49 C186 49 152 93 161 160 L215 541 C224 608 271 651 339 651 L460 651 C528 651 563 608 554 541 L500 160 Z M405 894 C399 894 395 890 391 883 L312 759 C311 754 314 751 319 751 L357 751 C360 751 364 755 366 759 L428 854 L462 759 C464 755 466 751 469 751 L507 751 C512 751 515 754 516 759 L473 883 C471 890 467 894 461 894 L405 894 Z " />
<glyph glyph-name="Otilde" unicode="&#xd5;" horiz-adv-x="617" d="M481 705 L334 705 C249 705 169 638 158 556 L100 144 C88 62 149 -5 234 -5 L381 -5 C466 -5 545 62 557 144 L615 556 C626 638 566 705 481 705 L481 705 Z M500 160 C491 93 443 49 375 49 L254 49 C186 49 152 93 161 160 L215 541 C224 608 271 651 339 651 L460 651 C528 651 563 608 554 541 L500 160 Z M497 751 C507 751 524 757 541 764 C545 766 548 770 548 774 L544 805 C543 809 540 811 536 811 C525 811 516 805 501 805 C442 805 403 849 347 849 C337 849 320 843 303 836 C299 834 296 830 296 826 L300 795 C301 791 303 789 307 789 C318 789 328 795 343 795 C400 795 441 751 497 751 L497 751 Z " />
<glyph glyph-name="Odieresis" unicode="&#xd6;" horiz-adv-x="617" d="M481 705 L334 705 C249 705 169 638 158 556 L100 144 C88 62 149 -5 234 -5 L381 -5 C466 -5 545 62 557 144 L615 556 C626 638 566 705 481 705 L481 705 Z M500 160 C491 93 443 49 375 49 L254 49 C186 49 152 93 161 160 L215 541 C224 608 271 651 339 651 L460 651 C528 651 563 608 554 541 L500 160 Z M314 762 C313 755 316 751 323 751 L369 751 C376 751 381 755 382 762 L388 811 C389 818 386 822 379 822 L333 822 C326 822 321 818 320 811 L314 762 Z M448 762 C447 755 450 751 457 751 L503 751 C510 751 515 755 516 762 L522 811 C523 818 520 822 513 822 L467 822 C460 822 455 818 454 811 L448 762 Z " />
<glyph glyph-name="multiply" unicode="&#xd7;" horiz-adv-x="400" d="M220 143 L283 68 C286 65 288 65 289 65 C291 65 293 66 295 68 L319 89 C321 91 323 93 323 95 C323 97 322 99 321 101 L257 174 L341 247 C343 249 345 251 345 253 C345 255 345 257 343 259 L325 280 C323 282 321 283 319 283 C318 283 316 283 313 280 L228 205 L165 280 C162 283 160 283 159 283 C157 283 155 282 153 280 L129 259 C127 257 125 255 125 253 C125 251 125 249 127 247 L191 174 L107 101 C104 99 103 97 103 95 C103 93 103 91 105 89 L123 68 C125 66 127 65 129 65 C130 65 132 65 135 68 L220 143 Z " />
<glyph glyph-name="Oslash" unicode="&#xd8;" horiz-adv-x="617" d="M128 -82 C127 -88 130 -91 136 -91 L176 -91 C182 -91 185 -88 188 -82 L224 -4 C227 -4 230 -5 234 -5 L381 -5 C466 -5 545 62 557 144 L615 556 C623 615 593 667 544 691 L586 782 C587 788 585 791 579 791 L539 791 C533 791 529 788 526 782 L490 704 C486 704 484 705 481 705 L334 705 C249 705 169 638 158 556 L100 144 C91 84 120 33 170 9 L128 -82 Z M500 160 C491 93 443 49 375 49 L248 49 L519 636 C547 618 560 584 554 541 L500 160 Z M161 160 L215 541 C224 608 271 651 339 651 L466 651 L195 64 C167 83 155 116 161 160 L161 160 Z " />
<glyph glyph-name="Ugrave" unicode="&#xd9;" horiz-adv-x="627" d="M638 689 C639 696 636 700 629 700 L592 700 C585 700 580 696 579 689 L505 160 C496 93 448 49 380 49 L259 49 C191 49 157 93 166 160 L240 689 C241 696 238 700 231 700 L194 700 C187 700 182 696 181 689 L105 144 C93 62 154 -5 239 -5 L386 -5 C471 -5 550 62 562 144 L638 689 Z M432 751 C440 751 445 755 446 763 L414 865 C411 873 409 877 402 877 L365 877 C358 877 353 873 352 865 L384 763 C387 755 389 751 396 751 L432 751 Z " />
<glyph glyph-name="Uacute" unicode="&#xda;" horiz-adv-x="627" d="M105 144 C93 62 154 -5 239 -5 L386 -5 C471 -5 550 62 562 144 L638 689 C639 696 636 700 629 700 L592 700 C585 700 580 696 579 689 L505 160 C496 93 448 49 380 49 L259 49 C191 49 157 93 166 160 L240 689 C241 696 238 700 231 700 L194 700 C187 700 182 696 181 689 L105 144 Z M441 751 C448 751 452 755 457 763 L517 865 C518 873 515 877 508 877 L471 877 C464 877 460 873 455 865 L395 763 C394 755 397 751 405 751 L441 751 Z " />
<glyph glyph-name="Ucircumflex" unicode="&#xdb;" horiz-adv-x="627" d="M638 689 C639 696 636 700 629 700 L592 700 C585 700 580 696 579 689 L505 160 C496 93 448 49 380 49 L259 49 C191 49 157 93 166 160 L240 689 C241 696 238 700 231 700 L194 700 C187 700 182 696 181 689 L105 144 C93 62 154 -5 239 -5 L386 -5 C471 -5 550 62 562 144 L638 689 Z M410 894 C404 894 400 890 396 883 L317 759 C316 754 319 751 324 751 L362 751 C365 751 369 755 371 759 L433 854 L467 759 C469 755 471 751 474 751 L512 751 C517 751 520 754 521 759 L478 883 C476 890 472 894 466 894 L410 894 Z " />
<glyph glyph-name="Udieresis" unicode="&#xdc;" horiz-adv-x="627" d="M638 689 C639 696 636 700 629 700 L592 700 C585 700 580 696 579 689 L505 160 C496 93 448 49 380 49 L259 49 C191 49 157 93 166 160 L240 689 C241 696 238 700 231 700 L194 700 C187 700 182 696 181 689 L105 144 C93 62 154 -5 239 -5 L386 -5 C471 -5 550 62 562 144 L638 689 Z M319 762 C318 755 321 751 328 751 L374 751 C381 751 386 755 387 762 L393 811 C394 818 391 822 384 822 L338 822 C331 822 326 818 325 811 L319 762 Z M453 762 C452 755 455 751 462 751 L508 751 C515 751 520 755 521 762 L527 811 C528 818 525 822 518 822 L472 822 C465 822 460 818 459 811 L453 762 Z " />
<glyph glyph-name="Yacute" unicode="&#xdd;" horiz-adv-x="581" d="M335 299 L330 299 L202 689 C200 696 199 700 192 700 L149 700 C142 700 137 696 136 689 L291 216 L262 11 C261 4 265 0 272 0 L309 0 C316 0 320 4 321 11 L350 216 L637 689 C638 696 635 700 628 700 L585 700 C578 700 575 696 571 689 L335 299 Z M415 751 C422 751 426 755 431 763 L491 865 C492 873 489 877 482 877 L445 877 C438 877 434 873 429 865 L369 763 C368 755 371 751 379 751 L415 751 Z " />
<glyph glyph-name="Thorn" unicode="&#xde;" horiz-adv-x="609" d="M172 165 L224 534 L448 534 C504 534 547 482 539 423 L518 275 C509 212 452 165 396 165 L172 165 Z M91 11 C90 4 94 0 101 0 L138 0 C145 0 149 4 150 11 L164 111 L397 111 C483 111 564 178 575 261 L600 439 C612 521 550 588 464 588 L231 588 L245 689 C246 696 243 700 236 700 L199 700 C192 700 187 696 186 689 L91 11 Z " />
<glyph glyph-name="germandbls" unicode="&#xdf;" horiz-adv-x="602" d="M382 0 C470 0 551 69 563 153 L573 227 C580 272 561 325 495 362 C544 390 573 458 577 489 L586 548 C597 632 535 700 447 700 L199 700 C192 700 187 696 186 689 L91 11 C90 4 94 0 101 0 L138 0 C145 0 149 4 150 11 L239 646 L429 646 C485 646 533 592 524 533 L519 494 C510 430 448 381 392 381 L328 381 C321 381 316 377 316 370 L311 338 C310 331 313 327 320 327 L420 327 C475 327 521 275 513 214 L506 166 C497 102 437 54 382 54 L312 54 C305 54 301 50 300 43 L295 11 C294 4 298 0 305 0 L382 0 Z " />
<glyph glyph-name="agrave" unicode="&#xe0;" horiz-adv-x="530" d="M220 49 C170 49 140 84 147 133 L152 165 C159 215 198 248 248 248 L430 248 L414 133 C407 84 344 49 295 49 L220 49 Z M194 451 C251 460 285 466 317 466 C450 466 449 379 443 336 L438 302 L253 302 C173 302 105 252 93 166 L87 123 C75 38 130 -5 210 -5 L274 -5 C313 -5 367 7 392 34 L400 34 L397 11 C396 4 400 0 407 0 L444 0 C451 0 455 4 456 11 L503 342 C509 387 514 520 335 520 C265 520 215 512 187 505 C183 503 181 501 180 496 C180 496 180 493 184 457 C185 451 189 451 194 451 L194 451 Z M376 571 C384 571 388 575 389 583 L358 685 C355 693 352 697 345 697 L308 697 C301 697 297 693 296 685 L327 583 C330 575 333 571 340 571 L376 571 Z " />
<glyph glyph-name="aacute" unicode="&#xe1;" horiz-adv-x="530" d="M220 49 C170 49 140 84 147 133 L152 165 C159 215 198 248 248 248 L430 248 L414 133 C407 84 344 49 295 49 L220 49 Z M194 451 C251 460 285 466 317 466 C450 466 449 379 443 336 L438 302 L253 302 C173 302 105 252 93 166 L87 123 C75 38 130 -5 210 -5 L274 -5 C313 -5 367 7 392 34 L400 34 L397 11 C396 4 400 0 407 0 L444 0 C451 0 455 4 456 11 L503 342 C509 387 514 520 335 520 C265 520 215 512 187 505 C183 503 181 501 180 496 C180 496 180 493 184 457 C185 451 189 451 194 451 L194 451 Z M386 571 C393 571 396 575 401 583 L462 685 C463 693 459 697 452 697 L415 697 C408 697 405 693 400 685 L339 583 C338 575 342 571 350 571 L386 571 Z " />
<glyph glyph-name="acircumflex" unicode="&#xe2;" horiz-adv-x="530" d="M220 49 C170 49 140 84 147 133 L152 165 C159 215 198 248 248 248 L430 248 L414 133 C407 84 344 49 295 49 L220 49 Z M194 451 C251 460 285 466 317 466 C450 466 449 379 443 336 L438 302 L253 302 C173 302 105 252 93 166 L87 123 C75 38 130 -5 210 -5 L274 -5 C313 -5 367 7 392 34 L400 34 L397 11 C396 4 400 0 407 0 L444 0 C451 0 455 4 456 11 L503 342 C509 387 514 520 335 520 C265 520 215 512 187 505 C183 503 181 501 180 496 C180 496 180 493 184 457 C185 451 189 451 194 451 L194 451 Z M360 714 C354 714 349 710 345 703 L267 579 C266 574 269 571 274 571 L312 571 C315 571 318 575 321 579 L382 674 L417 579 C418 575 421 571 424 571 L462 571 C467 571 470 574 471 579 L427 703 C425 710 422 714 416 714 L360 714 Z " />
<glyph glyph-name="atilde" unicode="&#xe3;" horiz-adv-x="530" d="M220 49 C170 49 140 84 147 133 L152 165 C159 215 198 248 248 248 L430 248 L414 133 C407 84 344 49 295 49 L220 49 Z M194 451 C251 460 285 466 317 466 C450 466 449 379 443 336 L438 302 L253 302 C173 302 105 252 93 166 L87 123 C75 38 130 -5 210 -5 L274 -5 C313 -5 367 7 392 34 L400 34 L397 11 C396 4 400 0 407 0 L444 0 C451 0 455 4 456 11 L503 342 C509 387 514 520 335 520 C265 520 215 512 187 505 C183 503 181 501 180 496 C180 496 180 493 184 457 C185 451 189 451 194 451 L194 451 Z M448 571 C458 571 475 577 492 584 C496 586 498 590 499 594 L494 625 C494 629 491 631 487 631 C476 631 466 625 451 625 C392 625 354 669 298 669 C288 669 271 663 254 656 C249 654 247 650 246 646 L251 615 C251 611 254 609 258 609 C269 609 279 615 294 615 C351 615 392 571 448 571 L448 571 Z " />
<glyph glyph-name="adieresis" unicode="&#xe4;" horiz-adv-x="530" d="M220 49 C170 49 140 84 147 133 L152 165 C159 215 198 248 248 248 L430 248 L414 133 C407 84 344 49 295 49 L220 49 Z M194 451 C251 460 285 466 317 466 C450 466 449 379 443 336 L438 302 L253 302 C173 302 105 252 93 166 L87 123 C75 38 130 -5 210 -5 L274 -5 C313 -5 367 7 392 34 L400 34 L397 11 C396 4 400 0 407 0 L444 0 C451 0 455 4 456 11 L503 342 C509 387 514 520 335 520 C265 520 215 512 187 505 C183 503 181 501 180 496 C180 496 180 493 184 457 C185 451 189 451 194 451 L194 451 Z M269 582 C268 575 272 571 279 571 L325 571 C332 571 336 575 337 582 L344 631 C345 638 342 642 335 642 L289 642 C282 642 277 638 276 631 L269 582 Z M403 582 C402 575 406 571 413 571 L459 571 C466 571 470 575 471 582 L478 631 C479 638 476 642 469 642 L423 642 C416 642 411 638 410 631 L403 582 Z " />
<glyph glyph-name="aring" unicode="&#xe5;" horiz-adv-x="530" d="M220 49 C170 49 140 84 147 133 L152 165 C159 215 198 248 248 248 L430 248 L414 133 C407 84 344 49 295 49 L220 49 Z M194 451 C251 460 285 466 317 466 C450 466 449 379 443 336 L438 302 L253 302 C173 302 105 252 93 166 L87 123 C75 38 130 -5 210 -5 L274 -5 C313 -5 367 7 392 34 L400 34 L397 11 C396 4 400 0 407 0 L444 0 C451 0 455 4 456 11 L503 342 C509 387 514 520 335 520 C265 520 215 512 187 505 C183 503 181 501 180 496 C180 496 180 493 184 457 C185 451 189 451 194 451 L194 451 Z M503 686 C512 750 468 801 404 801 C340 801 282 750 273 686 C264 622 308 571 372 571 C436 571 494 622 503 686 L503 686 Z M455 686 C449 647 416 619 378 619 C341 619 316 647 322 686 C327 725 360 753 397 753 C435 753 460 725 455 686 L455 686 Z " />
<glyph glyph-name="ae" unicode="&#xe6;" horiz-adv-x="850" d="M723 73 C704 60 677 49 641 49 L555 49 C508 49 468 94 474 141 L487 229 L801 229 C808 229 812 233 813 240 L833 384 C843 450 801 520 720 520 L602 520 C552 520 509 493 482 458 C459 492 416 520 335 520 C265 520 215 512 187 505 C183 503 181 501 180 496 C180 496 180 493 184 457 C185 451 189 451 194 451 C251 460 285 466 317 466 C450 466 449 379 443 336 L438 302 L253 302 C173 302 105 252 93 166 L87 123 C75 38 130 -5 210 -5 L314 -5 C353 -5 402 13 427 40 L435 40 C454 13 486 -5 528 -5 L634 -5 C634 -5 705 -6 758 39 C760 42 762 43 762 45 C762 48 761 49 759 52 L740 76 C738 79 736 79 735 79 C731 79 725 74 723 73 L723 73 Z M220 49 C170 49 140 84 147 133 L152 165 C159 215 198 248 248 248 L430 248 L414 129 C404 82 343 49 295 49 L220 49 Z M507 374 C514 424 555 466 613 466 L693 466 C751 466 780 424 773 374 L760 283 L494 283 L507 374 Z " />
<glyph glyph-name="ccedilla" unicode="&#xe7;" horiz-adv-x="514" d="M202 -96 C201 -100 204 -103 208 -103 L257 -103 C257 -103 292 -103 288 -133 C284 -161 249 -161 249 -161 L195 -161 C191 -161 188 -163 187 -168 L184 -188 C184 -192 186 -195 190 -195 L255 -195 C295 -195 317 -179 325 -127 C330 -88 299 -69 259 -69 L247 -69 L288 -5 L325 -5 C406 -5 468 65 477 131 L480 156 C481 163 478 167 471 167 L434 167 C427 167 422 163 421 156 L419 141 C413 94 359 49 312 49 L234 49 C187 49 147 94 153 141 L186 374 C193 424 234 466 292 466 L372 466 C430 466 459 424 452 374 L450 359 C449 352 452 348 459 348 L496 348 C503 348 508 352 509 359 L512 384 C522 450 480 520 399 520 L281 520 C200 520 138 450 128 384 L93 131 C84 65 126 -5 207 -5 L247 -5 L209 -63 C206 -67 205 -73 205 -73 L202 -96 Z " />
<glyph glyph-name="egrave" unicode="&#xe8;" horiz-adv-x="529" d="M402 73 C383 60 356 49 320 49 L234 49 C187 49 147 94 153 141 L166 229 L480 229 C487 229 491 233 492 240 L512 384 C522 450 480 520 399 520 L281 520 C200 520 138 450 128 384 L93 131 C84 65 126 -5 207 -5 L313 -5 C313 -5 384 -6 437 39 C439 42 441 43 441 45 C441 48 440 49 438 52 L419 76 C417 79 415 79 414 79 C410 79 404 74 402 73 L402 73 Z M186 374 C193 424 234 466 292 466 L372 466 C430 466 459 424 452 374 L439 283 L173 283 L186 374 Z M364 571 C372 571 376 575 377 583 L346 685 C343 693 340 697 333 697 L296 697 C289 697 285 693 284 685 L315 583 C318 575 321 571 328 571 L364 571 Z " />
<glyph glyph-name="eacute" unicode="&#xe9;" horiz-adv-x="529" d="M402 73 C383 60 356 49 320 49 L234 49 C187 49 147 94 153 141 L166 229 L480 229 C487 229 491 233 492 240 L512 384 C522 450 480 520 399 520 L281 520 C200 520 138 450 128 384 L93 131 C84 65 126 -5 207 -5 L313 -5 C313 -5 384 -6 437 39 C439 42 441 43 441 45 C441 48 440 49 438 52 L419 76 C417 79 415 79 414 79 C410 79 404 74 402 73 L402 73 Z M186 374 C193 424 234 466 292 466 L372 466 C430 466 459 424 452 374 L439 283 L173 283 L186 374 Z M365 571 C372 571 375 575 380 583 L441 685 C442 693 438 697 431 697 L394 697 C387 697 384 693 379 685 L318 583 C317 575 321 571 329 571 L365 571 Z " />
<glyph glyph-name="ecircumflex" unicode="&#xea;" horiz-adv-x="529" d="M402 73 C383 60 356 49 320 49 L234 49 C187 49 147 94 153 141 L166 229 L480 229 C487 229 491 233 492 240 L512 384 C522 450 480 520 399 520 L281 520 C200 520 138 450 128 384 L93 131 C84 65 126 -5 207 -5 L313 -5 C313 -5 384 -6 437 39 C439 42 441 43 441 45 C441 48 440 49 438 52 L419 76 C417 79 415 79 414 79 C410 79 404 74 402 73 L402 73 Z M186 374 C193 424 234 466 292 466 L372 466 C430 466 459 424 452 374 L439 283 L173 283 L186 374 Z M339 714 C333 714 328 710 324 703 L246 579 C245 574 248 571 253 571 L291 571 C294 571 297 575 300 579 L361 674 L396 579 C397 575 400 571 403 571 L441 571 C446 571 449 574 450 579 L406 703 C404 710 401 714 395 714 L339 714 Z " />
<glyph glyph-name="edieresis" unicode="&#xeb;" horiz-adv-x="529" d="M402 73 C383 60 356 49 320 49 L234 49 C187 49 147 94 153 141 L166 229 L480 229 C487 229 491 233 492 240 L512 384 C522 450 480 520 399 520 L281 520 C200 520 138 450 128 384 L93 131 C84 65 126 -5 207 -5 L313 -5 C313 -5 384 -6 437 39 C439 42 441 43 441 45 C441 48 440 49 438 52 L419 76 C417 79 415 79 414 79 C410 79 404 74 402 73 L402 73 Z M186 374 C193 424 234 466 292 466 L372 466 C430 466 459 424 452 374 L439 283 L173 283 L186 374 Z M250 582 C249 575 253 571 260 571 L306 571 C313 571 317 575 318 582 L325 631 C326 638 323 642 316 642 L270 642 C263 642 258 638 257 631 L250 582 Z M384 582 C383 575 387 571 394 571 L440 571 C447 571 451 575 452 582 L459 631 C460 638 457 642 450 642 L404 642 C397 642 392 638 391 631 L384 582 Z " />
<glyph glyph-name="igrave" unicode="&#xec;" horiz-adv-x="239" d="M91 11 C90 4 94 0 101 0 L138 0 C145 0 149 4 150 11 L219 504 C220 511 217 515 210 515 L173 515 C166 515 161 511 160 504 L91 11 Z M217 571 C225 571 229 575 230 583 L199 685 C196 693 193 697 186 697 L149 697 C142 697 138 693 137 685 L168 583 C171 575 174 571 181 571 L217 571 Z " />
<glyph glyph-name="iacute" unicode="&#xed;" horiz-adv-x="239" d="M219 504 C220 511 217 515 210 515 L173 515 C166 515 161 511 160 504 L91 11 C90 4 94 0 101 0 L138 0 C145 0 149 4 150 11 L219 504 Z M218 571 C225 571 228 575 233 583 L294 685 C295 693 291 697 284 697 L247 697 C240 697 237 693 232 685 L171 583 C170 575 174 571 182 571 L218 571 Z " />
<glyph glyph-name="icircumflex" unicode="&#xee;" horiz-adv-x="239" d="M91 11 C90 4 94 0 101 0 L138 0 C145 0 149 4 150 11 L219 504 C220 511 217 515 210 515 L173 515 C166 515 161 511 160 504 L91 11 Z M190 711 C184 711 180 707 176 700 L97 576 C97 571 99 568 104 568 L142 568 C145 568 149 572 151 576 L213 671 L247 576 C249 572 251 568 254 568 L292 568 C297 568 301 571 301 576 L258 700 C256 707 252 711 246 711 L190 711 Z " />
<glyph glyph-name="idieresis" unicode="&#xef;" horiz-adv-x="239" d="M91 11 C90 4 94 0 101 0 L138 0 C145 0 149 4 150 11 L219 504 C220 511 217 515 210 515 L173 515 C166 515 161 511 160 504 L91 11 Z M114 582 C113 575 117 571 124 571 L170 571 C177 571 181 575 182 582 L189 631 C190 638 187 642 180 642 L134 642 C127 642 122 638 121 631 L114 582 Z M219 582 C218 575 222 571 229 571 L275 571 C282 571 286 575 287 582 L294 631 C295 638 292 642 285 642 L239 642 C232 642 227 638 226 631 L219 582 Z " />
<glyph glyph-name="eth" unicode="&#xf0;" horiz-adv-x="608" d="M466 566 C473 566 478 570 479 577 L483 609 C484 616 481 620 474 620 L395 620 L451 690 C452 696 450 700 444 700 L396 700 C391 700 383 695 379 690 L323 620 L209 620 C202 620 197 616 196 609 L192 577 C191 570 194 566 201 566 L278 566 L139 394 C135 388 133 378 132 374 L100 143 C88 62 150 -5 237 -5 L382 -5 C467 -5 546 62 558 143 L575 267 C586 348 526 414 441 414 L303 414 C292 414 258 413 217 391 L207 391 L350 566 L466 566 Z M501 159 C491 92 444 49 376 49 L254 49 C186 49 151 92 161 159 L174 250 C183 317 230 360 298 360 L420 360 C488 360 523 317 514 250 L501 159 Z " />
<glyph glyph-name="ntilde" unicode="&#xf1;" horiz-adv-x="566" d="M91 11 C90 4 94 0 101 0 L138 0 C145 0 149 4 150 11 L200 366 C263 465 344 466 379 466 L387 466 C438 466 486 424 477 356 L428 11 C427 4 431 0 438 0 L475 0 C482 0 486 4 487 11 L537 368 C550 458 489 520 396 520 L368 520 C348 520 262 519 219 455 L212 455 L219 504 C220 511 217 515 210 515 L173 515 C166 515 161 511 160 504 L91 11 Z M451 571 C461 571 478 577 495 584 C499 586 501 590 502 594 L497 625 C497 629 494 631 490 631 C479 631 469 625 454 625 C395 625 357 669 301 669 C291 669 274 663 257 656 C252 654 250 650 249 646 L254 615 C254 611 257 609 261 609 C272 609 282 615 297 615 C354 615 395 571 451 571 L451 571 Z " />
<glyph glyph-name="ograve" unicode="&#xf2;" horiz-adv-x="534" d="M364 571 C372 571 376 575 377 583 L346 685 C343 693 340 697 333 697 L296 697 C289 697 285 693 284 685 L315 583 C318 575 321 571 328 571 L364 571 Z M281 520 C200 520 138 450 128 384 L93 131 C84 65 126 -5 207 -5 L325 -5 C406 -5 468 65 477 131 L512 384 C522 450 480 520 399 520 L281 520 Z M233 49 C175 49 146 91 153 141 L186 374 C193 424 234 466 292 466 L372 466 C430 466 459 424 452 374 L419 141 C412 91 371 49 313 49 L233 49 Z " />
<glyph glyph-name="oacute" unicode="&#xf3;" horiz-adv-x="534" d="M366 571 C373 571 376 575 381 583 L442 685 C443 693 439 697 432 697 L395 697 C388 697 385 693 380 685 L319 583 C318 575 322 571 330 571 L366 571 Z M281 520 C200 520 138 450 128 384 L93 131 C84 65 126 -5 207 -5 L325 -5 C406 -5 468 65 477 131 L512 384 C522 450 480 520 399 520 L281 520 Z M233 49 C175 49 146 91 153 141 L186 374 C193 424 234 466 292 466 L372 466 C430 466 459 424 452 374 L419 141 C412 91 371 49 313 49 L233 49 Z " />
<glyph glyph-name="ocircumflex" unicode="&#xf4;" horiz-adv-x="534" d="M339 714 C333 714 328 710 324 703 L246 579 C245 574 248 571 253 571 L291 571 C294 571 297 575 300 579 L361 674 L396 579 C397 575 400 571 403 571 L441 571 C446 571 449 574 450 579 L406 703 C404 710 401 714 395 714 L339 714 Z M281 520 C200 520 138 450 128 384 L93 131 C84 65 126 -5 207 -5 L325 -5 C406 -5 468 65 477 131 L512 384 C522 450 480 520 399 520 L281 520 Z M233 49 C175 49 146 91 153 141 L186 374 C193 424 234 466 292 466 L372 466 C430 466 459 424 452 374 L419 141 C412 91 371 49 313 49 L233 49 Z " />
<glyph glyph-name="otilde" unicode="&#xf5;" horiz-adv-x="534" d="M420 571 C430 571 447 577 464 584 C468 586 470 590 471 594 L466 625 C466 629 463 631 459 631 C448 631 438 625 423 625 C364 625 326 669 270 669 C260 669 243 663 226 656 C221 654 219 650 218 646 L223 615 C223 611 226 609 230 609 C241 609 251 615 266 615 C323 615 364 571 420 571 L420 571 Z M281 520 C200 520 138 450 128 384 L93 131 C84 65 126 -5 207 -5 L325 -5 C406 -5 468 65 477 131 L512 384 C522 450 480 520 399 520 L281 520 Z M233 49 C175 49 146 91 153 141 L186 374 C193 424 234 466 292 466 L372 466 C430 466 459 424 452 374 L419 141 C412 91 371 49 313 49 L233 49 Z " />
<glyph glyph-name="odieresis" unicode="&#xf6;" horiz-adv-x="534" d="M246 582 C245 575 249 571 256 571 L302 571 C309 571 313 575 314 582 L321 631 C322 638 319 642 312 642 L266 642 C259 642 254 638 253 631 L246 582 Z M380 582 C379 575 383 571 390 571 L436 571 C443 571 447 575 448 582 L455 631 C456 638 453 642 446 642 L400 642 C393 642 388 638 387 631 L380 582 Z M281 520 C200 520 138 450 128 384 L93 131 C84 65 126 -5 207 -5 L325 -5 C406 -5 468 65 477 131 L512 384 C522 450 480 520 399 520 L281 520 Z M233 49 C175 49 146 91 153 141 L186 374 C193 424 234 466 292 466 L372 466 C430 466 459 424 452 374 L419 141 C412 91 371 49 313 49 L233 49 Z " />
<glyph glyph-name="divide" unicode="&#xf7;" horiz-adv-x="431" d="M350 146 C357 146 362 150 363 157 L367 189 C368 196 365 200 358 200 L129 200 C122 200 117 196 116 189 L112 157 C111 150 114 146 121 146 L350 146 Z M186 13 C185 6 189 2 196 2 L236 2 C243 2 247 6 248 13 L254 56 C255 63 252 67 245 67 L205 67 C198 67 193 63 192 56 L186 13 Z M224 284 C223 277 227 273 234 273 L273 273 C280 273 284 277 285 284 L291 327 C292 334 289 338 282 338 L243 338 C236 338 231 334 230 327 L224 284 Z " />
<glyph glyph-name="oslash" unicode="&#xf8;" horiz-adv-x="534" d="M118 -82 C117 -88 120 -91 126 -91 L166 -91 C172 -91 175 -88 178 -82 L213 -5 L325 -5 C406 -5 468 65 477 131 L512 384 C519 434 497 486 450 508 L491 597 C492 603 490 606 484 606 L444 606 C438 606 434 603 431 597 L396 520 L281 520 C200 520 138 450 128 384 L93 131 C86 80 109 26 158 5 L118 -82 Z M153 141 L186 374 C193 424 234 466 292 466 L371 466 L184 62 C162 80 148 102 153 141 L153 141 Z M452 374 L419 141 C411 79 359 49 312 49 L238 49 L424 450 C446 434 456 405 452 374 L452 374 Z " />
<glyph glyph-name="ugrave" unicode="&#xf9;" horiz-adv-x="544" d="M534 504 C535 511 532 515 525 515 L488 515 C481 515 476 511 475 504 L424 141 C418 94 364 49 317 49 L239 49 C192 49 152 94 158 141 L209 504 C210 511 207 515 200 515 L163 515 C156 515 151 511 150 504 L98 131 C89 65 131 -5 212 -5 L330 -5 C411 -5 473 65 482 131 L534 504 Z M369 571 C377 571 381 575 382 583 L351 685 C348 693 345 697 338 697 L301 697 C294 697 290 693 289 685 L320 583 C323 575 326 571 333 571 L369 571 Z " />
<glyph glyph-name="uacute" unicode="&#xfa;" horiz-adv-x="544" d="M534 504 C535 511 532 515 525 515 L488 515 C481 515 476 511 475 504 L424 141 C418 94 364 49 317 49 L239 49 C192 49 152 94 158 141 L209 504 C210 511 207 515 200 515 L163 515 C156 515 151 511 150 504 L98 131 C89 65 131 -5 212 -5 L330 -5 C411 -5 473 65 482 131 L534 504 Z M371 571 C378 571 381 575 386 583 L447 685 C448 693 444 697 437 697 L400 697 C393 697 390 693 385 685 L324 583 C323 575 327 571 335 571 L371 571 Z " />
<glyph glyph-name="ucircumflex" unicode="&#xfb;" horiz-adv-x="544" d="M534 504 C535 511 532 515 525 515 L488 515 C481 515 476 511 475 504 L424 141 C418 94 364 49 317 49 L239 49 C192 49 152 94 158 141 L209 504 C210 511 207 515 200 515 L163 515 C156 515 151 511 150 504 L98 131 C89 65 131 -5 212 -5 L330 -5 C411 -5 473 65 482 131 L534 504 Z M344 714 C338 714 333 710 329 703 L251 579 C250 574 253 571 258 571 L296 571 C299 571 302 575 305 579 L366 674 L401 579 C402 575 405 571 408 571 L446 571 C451 571 454 574 455 579 L411 703 C409 710 406 714 400 714 L344 714 Z " />
<glyph glyph-name="udieresis" unicode="&#xfc;" horiz-adv-x="544" d="M534 504 C535 511 532 515 525 515 L488 515 C481 515 476 511 475 504 L424 141 C418 94 364 49 317 49 L239 49 C192 49 152 94 158 141 L209 504 C210 511 207 515 200 515 L163 515 C156 515 151 511 150 504 L98 131 C89 65 131 -5 212 -5 L330 -5 C411 -5 473 65 482 131 L534 504 Z M251 582 C250 575 254 571 261 571 L307 571 C314 571 318 575 319 582 L326 631 C327 638 324 642 317 642 L271 642 C264 642 259 638 258 631 L251 582 Z M385 582 C384 575 388 571 395 571 L441 571 C448 571 452 575 453 582 L460 631 C461 638 458 642 451 642 L405 642 C398 642 393 638 392 631 L385 582 Z " />
<glyph glyph-name="yacute" unicode="&#xfd;" horiz-adv-x="500" d="M91 -203 C132 -203 206 -197 293 -11 L535 504 C536 511 533 515 526 515 L487 515 C480 515 476 511 473 504 L264 58 L252 58 L167 504 C166 511 164 515 157 515 L118 515 C111 515 106 511 105 504 L206 -36 C192 -92 153 -149 82 -149 L59 -149 C52 -149 47 -153 46 -160 L42 -192 C41 -199 44 -203 51 -203 L91 -203 Z M355 571 C362 571 365 575 370 583 L431 685 C432 693 428 697 421 697 L384 697 C377 697 374 693 369 685 L308 583 C307 575 311 571 319 571 L355 571 Z " />
<glyph glyph-name="thorn" unicode="&#xfe;" horiz-adv-x="564" d="M160 34 C180 1 216 -5 233 -5 L347 -5 C428 -5 496 54 507 133 L542 382 C553 461 502 520 421 520 L307 520 C290 520 252 514 223 481 L216 481 L245 689 C246 696 243 700 236 700 L199 700 C192 700 187 696 186 689 L67 -163 C66 -170 69 -174 76 -174 L113 -174 C120 -174 125 -170 126 -163 L153 34 L160 34 Z M250 49 C192 49 163 91 170 141 L203 374 C210 424 251 466 309 466 L402 466 C460 466 489 424 482 374 L449 141 C442 91 401 49 343 49 L250 49 Z " />
<glyph glyph-name="ydieresis" unicode="&#xff;" horiz-adv-x="500" d="M91 -203 C132 -203 206 -197 293 -11 L535 504 C536 511 533 515 526 515 L487 515 C480 515 476 511 473 504 L264 58 L252 58 L167 504 C166 511 164 515 157 515 L118 515 C111 515 106 511 105 504 L206 -36 C192 -92 153 -149 82 -149 L59 -149 C52 -149 47 -153 46 -160 L42 -192 C41 -199 44 -203 51 -203 L91 -203 Z M230 582 C229 575 233 571 240 571 L286 571 C293 571 297 575 298 582 L305 631 C306 638 303 642 296 642 L250 642 C243 642 238 638 237 631 L230 582 Z M364 582 C363 575 367 571 374 571 L420 571 C427 571 431 575 432 582 L439 631 C440 638 437 642 430 642 L384 642 C377 642 372 638 371 631 L364 582 Z " />
<glyph glyph-name="Amacron" unicode="&#x100;" horiz-adv-x="616" d="M369 700 C363 700 359 697 357 692 L46 11 C45 4 49 0 56 0 L94 0 C101 0 104 4 107 11 L165 138 L489 138 L511 11 C512 4 515 0 522 0 L560 0 C567 0 571 4 572 11 L453 692 C451 697 449 700 443 700 L369 700 Z M390 631 L402 631 L479 191 L189 191 L390 631 Z M516 751 C523 751 528 755 529 762 L533 794 C534 801 531 805 524 805 L318 805 C311 805 306 801 305 794 L301 762 C300 755 303 751 310 751 L516 751 Z " />
<glyph glyph-name="amacron" unicode="&#x101;" horiz-adv-x="530" d="M220 49 C170 49 140 84 147 133 L152 165 C159 215 198 248 248 248 L430 248 L414 133 C407 84 344 49 295 49 L220 49 Z M194 451 C251 460 285 466 317 466 C450 466 449 379 443 336 L438 302 L253 302 C173 302 105 252 93 166 L87 123 C75 38 130 -5 210 -5 L274 -5 C313 -5 367 7 392 34 L400 34 L397 11 C396 4 400 0 407 0 L444 0 C451 0 455 4 456 11 L503 342 C509 387 514 520 335 520 C265 520 215 512 187 505 C183 503 181 501 180 496 C180 496 180 493 184 457 C185 451 189 451 194 451 L194 451 Z M470 571 C477 571 481 575 482 582 L487 614 C488 621 484 625 477 625 L271 625 C264 625 260 621 259 614 L254 582 C253 575 257 571 264 571 L470 571 Z " />
<glyph glyph-name="Abreve" unicode="&#x102;" horiz-adv-x="616" d="M369 700 C363 700 359 697 357 692 L46 11 C45 4 49 0 56 0 L94 0 C101 0 104 4 107 11 L165 138 L489 138 L511 11 C512 4 515 0 522 0 L560 0 C567 0 571 4 572 11 L453 692 C451 697 449 700 443 700 L369 700 Z M390 631 L402 631 L479 191 L189 191 L390 631 Z M411 751 C487 751 547 788 577 858 C578 863 574 867 569 867 L527 867 C522 867 519 863 516 858 C491 808 457 799 418 799 C379 799 347 808 336 858 C335 863 332 867 327 867 L285 867 C280 867 276 863 275 858 C285 788 335 751 411 751 L411 751 Z " />
<glyph glyph-name="abreve" unicode="&#x103;" horiz-adv-x="530" d="M220 49 C170 49 140 84 147 133 L152 165 C159 215 198 248 248 248 L430 248 L414 133 C407 84 344 49 295 49 L220 49 Z M194 451 C251 460 285 466 317 466 C450 466 449 379 443 336 L438 302 L253 302 C173 302 105 252 93 166 L87 123 C75 38 130 -5 210 -5 L274 -5 C313 -5 367 7 392 34 L400 34 L397 11 C396 4 400 0 407 0 L444 0 C451 0 455 4 456 11 L503 342 C509 387 514 520 335 520 C265 520 215 512 187 505 C183 503 181 501 180 496 C180 496 180 493 184 457 C185 451 189 451 194 451 L194 451 Z M362 571 C438 571 498 608 528 678 C528 683 525 687 520 687 L478 687 C473 687 469 683 467 678 C442 628 407 619 368 619 C329 619 298 628 287 678 C285 683 283 687 278 687 L236 687 C231 687 226 683 226 678 C236 608 286 571 362 571 L362 571 Z " />
<glyph glyph-name="Aogonek" unicode="&#x104;" horiz-adv-x="616" d="M390 631 L402 631 L479 191 L189 191 L390 631 Z M507 34 L495 34 C455 34 424 -3 419 -37 C412 -89 439 -109 485 -109 L533 -109 C537 -109 541 -106 541 -102 L544 -82 C545 -77 542 -75 538 -75 L484 -75 C484 -75 449 -75 454 -38 C460 0 495 0 495 0 L560 0 C567 0 571 4 572 11 L453 692 C451 697 449 700 443 700 L369 700 C363 700 359 697 357 692 L46 11 C45 4 49 0 56 0 L94 0 C101 0 104 4 107 11 L165 138 L489 138 L507 34 Z " />
<glyph glyph-name="aogonek" unicode="&#x105;" horiz-adv-x="530" d="M220 49 C170 49 140 84 147 133 L152 165 C159 215 198 248 248 248 L430 248 L414 133 C407 84 344 49 295 49 L220 49 Z M393 -19 C359 -24 331 -47 326 -80 C319 -132 347 -144 388 -144 L425 -144 C429 -144 433 -141 433 -137 L436 -117 C437 -112 434 -110 430 -110 L393 -110 C393 -110 358 -110 362 -82 C366 -52 401 -52 401 -52 L440 -52 C444 -52 448 -49 448 -45 L503 342 C509 387 514 520 335 520 C265 520 215 512 187 505 C183 503 181 501 180 496 C180 496 180 493 184 457 C185 451 189 451 194 451 C251 460 285 466 317 466 C450 466 449 379 443 336 L438 302 L253 302 C173 302 105 252 93 166 L87 123 C75 38 130 -5 210 -5 L274 -5 C313 -5 367 7 392 34 L400 34 L393 -19 Z " />
<glyph glyph-name="Cacute" unicode="&#x106;" horiz-adv-x="602" d="M500 160 C491 93 443 49 375 49 L254 49 C186 49 152 93 161 160 L215 541 C224 608 271 651 339 651 L460 651 C528 651 563 608 554 541 L548 504 C547 497 551 493 558 493 L595 493 C602 493 606 497 607 504 L615 556 C626 638 566 705 481 705 L334 705 C249 705 169 638 158 556 L100 144 C88 62 149 -5 234 -5 L381 -5 C466 -5 545 62 557 144 L564 196 C565 203 562 207 555 207 L518 207 C511 207 506 203 505 196 L500 160 Z M439 751 C446 751 450 755 455 763 L515 865 C516 873 513 877 506 877 L469 877 C462 877 458 873 453 865 L393 763 C392 755 395 751 403 751 L439 751 Z " />
<glyph glyph-name="cacute" unicode="&#x107;" horiz-adv-x="514" d="M480 156 C481 163 478 167 471 167 L434 167 C427 167 422 163 421 156 L419 141 C413 94 359 49 312 49 L234 49 C187 49 147 94 153 141 L186 374 C193 424 234 466 292 466 L372 466 C430 466 459 424 452 374 L450 359 C449 352 452 348 459 348 L496 348 C503 348 508 352 509 359 L512 384 C522 450 480 520 399 520 L281 520 C200 520 138 450 128 384 L93 131 C84 65 126 -5 207 -5 L325 -5 C406 -5 468 65 477 131 L480 156 Z M374 571 C381 571 384 575 389 583 L450 685 C451 693 447 697 440 697 L403 697 C396 697 393 693 388 685 L327 583 C326 575 330 571 338 571 L374 571 Z " />
<glyph glyph-name="Ccircumflex" unicode="&#x108;" horiz-adv-x="602" d="M500 160 C491 93 443 49 375 49 L254 49 C186 49 152 93 161 160 L215 541 C224 608 271 651 339 651 L460 651 C528 651 563 608 554 541 L548 504 C547 497 551 493 558 493 L595 493 C602 493 606 497 607 504 L615 556 C626 638 566 705 481 705 L334 705 C249 705 169 638 158 556 L100 144 C88 62 149 -5 234 -5 L381 -5 C466 -5 545 62 557 144 L564 196 C565 203 562 207 555 207 L518 207 C511 207 506 203 505 196 L500 160 Z M407 894 C401 894 397 890 393 883 L314 759 C313 754 316 751 321 751 L359 751 C362 751 366 755 368 759 L430 854 L464 759 C466 755 468 751 471 751 L509 751 C514 751 517 754 518 759 L475 883 C473 890 469 894 463 894 L407 894 Z " />
<glyph glyph-name="ccircumflex" unicode="&#x109;" horiz-adv-x="514" d="M480 156 C481 163 478 167 471 167 L434 167 C427 167 422 163 421 156 L419 141 C413 94 359 49 312 49 L234 49 C187 49 147 94 153 141 L186 374 C193 424 234 466 292 466 L372 466 C430 466 459 424 452 374 L450 359 C449 352 452 348 459 348 L496 348 C503 348 508 352 509 359 L512 384 C522 450 480 520 399 520 L281 520 C200 520 138 450 128 384 L93 131 C84 65 126 -5 207 -5 L325 -5 C406 -5 468 65 477 131 L480 156 Z M337 714 C331 714 326 710 322 703 L244 579 C243 574 246 571 251 571 L289 571 C292 571 295 575 298 579 L359 674 L394 579 C395 575 398 571 401 571 L439 571 C444 571 447 574 448 579 L404 703 C402 710 399 714 393 714 L337 714 Z " />
<glyph glyph-name="Cdotaccent" unicode="&#x10a;" horiz-adv-x="602" d="M500 160 C491 93 443 49 375 49 L254 49 C186 49 152 93 161 160 L215 541 C224 608 271 651 339 651 L460 651 C528 651 563 608 554 541 L548 504 C547 497 551 493 558 493 L595 493 C602 493 606 497 607 504 L615 556 C626 638 566 705 481 705 L334 705 C249 705 169 638 158 556 L100 144 C88 62 149 -5 234 -5 L381 -5 C466 -5 545 62 557 144 L564 196 C565 203 562 207 555 207 L518 207 C511 207 506 203 505 196 L500 160 Z M387 762 C386 755 389 751 396 751 L442 751 C449 751 454 755 455 762 L461 811 C462 818 459 822 452 822 L406 822 C399 822 394 818 393 811 L387 762 Z " />
<glyph glyph-name="cdotaccent" unicode="&#x10b;" horiz-adv-x="514" d="M480 156 C481 163 478 167 471 167 L434 167 C427 167 422 163 421 156 L419 141 C413 94 359 49 312 49 L234 49 C187 49 147 94 153 141 L186 374 C193 424 234 466 292 466 L372 466 C430 466 459 424 452 374 L450 359 C449 352 452 348 459 348 L496 348 C503 348 508 352 509 359 L512 384 C522 450 480 520 399 520 L281 520 C200 520 138 450 128 384 L93 131 C84 65 126 -5 207 -5 L325 -5 C406 -5 468 65 477 131 L480 156 Z M318 582 C317 575 321 571 328 571 L374 571 C381 571 385 575 386 582 L393 631 C394 638 391 642 384 642 L338 642 C331 642 326 638 325 631 L318 582 Z " />
<glyph glyph-name="Ccaron" unicode="&#x10c;" horiz-adv-x="602" d="M500 160 C491 93 443 49 375 49 L254 49 C186 49 152 93 161 160 L215 541 C224 608 271 651 339 651 L460 651 C528 651 563 608 554 541 L548 504 C547 497 551 493 558 493 L595 493 C602 493 606 497 607 504 L615 556 C626 638 566 705 481 705 L334 705 C249 705 169 638 158 556 L100 144 C88 62 149 -5 234 -5 L381 -5 C466 -5 545 62 557 144 L564 196 C565 203 562 207 555 207 L518 207 C511 207 506 203 505 196 L500 160 Z M438 751 C444 751 449 755 453 762 L531 886 C532 891 529 894 524 894 L486 894 C483 894 480 890 477 886 L416 791 L381 886 C380 890 377 894 374 894 L336 894 C331 894 328 891 327 886 L371 762 C373 755 376 751 382 751 L438 751 Z " />
<glyph glyph-name="ccaron" unicode="&#x10d;" horiz-adv-x="514" d="M480 156 C481 163 478 167 471 167 L434 167 C427 167 422 163 421 156 L419 141 C413 94 359 49 312 49 L234 49 C187 49 147 94 153 141 L186 374 C193 424 234 466 292 466 L372 466 C430 466 459 424 452 374 L450 359 C449 352 452 348 459 348 L496 348 C503 348 508 352 509 359 L512 384 C522 450 480 520 399 520 L281 520 C200 520 138 450 128 384 L93 131 C84 65 126 -5 207 -5 L325 -5 C406 -5 468 65 477 131 L480 156 Z M374 571 C380 571 384 575 388 582 L467 706 C467 711 465 714 460 714 L422 714 C419 714 415 710 413 706 L351 611 L317 706 C315 710 313 714 310 714 L272 714 C267 714 263 711 263 706 L306 582 C308 575 312 571 318 571 L374 571 Z " />
<glyph glyph-name="Dcaron" unicode="&#x10e;" horiz-adv-x="627" d="M156 54 L239 646 L470 646 C538 646 573 602 564 535 L512 165 C502 98 455 54 387 54 L156 54 Z M199 700 C192 700 187 696 186 689 L91 11 C90 4 94 0 101 0 L392 0 C477 0 556 67 567 149 L624 551 C635 633 575 700 490 700 L199 700 Z M412 751 C418 751 423 755 427 762 L505 886 C506 891 503 894 498 894 L460 894 C457 894 454 890 451 886 L390 791 L355 886 C354 890 351 894 348 894 L310 894 C305 894 302 891 301 886 L345 762 C347 755 350 751 356 751 L412 751 Z " />
<glyph glyph-name="dcaron" unicode="&#x10f;" horiz-adv-x="781" d="M771 574 C778 574 782 578 787 586 L847 688 C848 696 845 700 838 700 L801 700 C794 700 790 696 785 688 L725 586 C724 578 727 574 735 574 L771 574 Z M411 11 C410 4 414 0 421 0 L458 0 C465 0 469 4 470 11 L565 689 C566 696 563 700 556 700 L519 700 C512 700 507 696 506 689 L477 477 L470 477 C450 510 415 520 387 520 L284 520 C203 520 134 461 123 382 L88 133 C77 54 129 -5 210 -5 L313 -5 C341 -5 379 5 408 38 L415 38 L411 11 Z M228 49 C170 49 141 91 148 141 L181 374 C188 424 229 466 287 466 L367 466 C425 466 466 417 459 367 L428 148 C421 98 366 49 308 49 L228 49 Z " />
<glyph glyph-name="Dcroat" unicode="&#x110;" horiz-adv-x="648" d="M220 700 C213 700 208 696 207 689 L164 378 L94 378 C87 378 82 374 81 367 L77 335 C76 328 79 324 86 324 L156 324 L112 11 C111 4 115 0 122 0 L413 0 C498 0 577 67 588 149 L645 551 C656 633 596 700 511 700 L220 700 Z M177 54 L215 324 L292 324 C299 324 304 328 305 335 L309 367 C310 374 307 378 300 378 L223 378 L260 646 L491 646 C559 646 594 602 585 535 L533 165 C523 98 476 54 408 54 L177 54 Z " />
<glyph glyph-name="dcroat" unicode="&#x111;" horiz-adv-x="557" d="M491 577 L477 477 L470 477 C450 510 415 520 387 520 L284 520 C203 520 134 461 123 382 L88 133 C77 54 129 -5 210 -5 L313 -5 C341 -5 379 5 408 38 L415 38 L411 11 C410 4 414 0 421 0 L458 0 C465 0 469 4 470 11 L550 577 L597 577 C604 577 608 581 609 588 L614 620 C615 627 611 631 604 631 L557 631 L565 689 C566 696 563 700 556 700 L519 700 C512 700 507 696 506 689 L498 631 L406 631 C399 631 395 627 394 620 L389 588 C388 581 392 577 399 577 L491 577 Z M228 49 C170 49 141 91 148 141 L181 374 C188 424 229 466 287 466 L367 466 C425 466 466 417 459 367 L428 148 C421 98 366 49 308 49 L228 49 Z " />
<glyph glyph-name="Emacron" unicode="&#x112;" horiz-adv-x="547" d="M91 11 C90 4 94 0 101 0 L456 0 C463 0 467 4 468 11 L473 43 C474 50 470 54 463 54 L156 54 L192 310 L473 310 C480 310 485 314 486 321 L490 353 C491 360 488 364 481 364 L200 364 L239 646 L546 646 C553 646 558 650 559 657 L563 689 C564 696 561 700 554 700 L199 700 C192 700 187 696 186 689 L91 11 Z M479 751 C486 751 491 755 492 762 L496 794 C497 801 494 805 487 805 L281 805 C274 805 269 801 268 794 L264 762 C263 755 266 751 273 751 L479 751 Z " />
<glyph glyph-name="emacron" unicode="&#x113;" horiz-adv-x="529" d="M402 73 C383 60 356 49 320 49 L234 49 C187 49 147 94 153 141 L166 229 L480 229 C487 229 491 233 492 240 L512 384 C522 450 480 520 399 520 L281 520 C200 520 138 450 128 384 L93 131 C84 65 126 -5 207 -5 L313 -5 C313 -5 384 -6 437 39 C439 42 441 43 441 45 C441 48 440 49 438 52 L419 76 C417 79 415 79 414 79 C410 79 404 74 402 73 L402 73 Z M186 374 C193 424 234 466 292 466 L372 466 C430 466 459 424 452 374 L439 283 L173 283 L186 374 Z M448 571 C455 571 459 575 460 582 L465 614 C466 621 462 625 455 625 L249 625 C242 625 238 621 237 614 L232 582 C231 575 235 571 242 571 L448 571 Z " />
<glyph glyph-name="Edotaccent" unicode="&#x116;" horiz-adv-x="547" d="M91 11 C90 4 94 0 101 0 L456 0 C463 0 467 4 468 11 L473 43 C474 50 470 54 463 54 L156 54 L192 310 L473 310 C480 310 485 314 486 321 L490 353 C491 360 488 364 481 364 L200 364 L239 646 L546 646 C553 646 558 650 559 657 L563 689 C564 696 561 700 554 700 L199 700 C192 700 187 696 186 689 L91 11 Z M351 762 C350 755 353 751 360 751 L406 751 C413 751 418 755 419 762 L425 811 C426 818 423 822 416 822 L370 822 C363 822 358 818 357 811 L351 762 Z " />
<glyph glyph-name="edotaccent" unicode="&#x117;" horiz-adv-x="529" d="M402 73 C383 60 356 49 320 49 L234 49 C187 49 147 94 153 141 L166 229 L480 229 C487 229 491 233 492 240 L512 384 C522 450 480 520 399 520 L281 520 C200 520 138 450 128 384 L93 131 C84 65 126 -5 207 -5 L313 -5 C313 -5 384 -6 437 39 C439 42 441 43 441 45 C441 48 440 49 438 52 L419 76 C417 79 415 79 414 79 C410 79 404 74 402 73 L402 73 Z M186 374 C193 424 234 466 292 466 L372 466 C430 466 459 424 452 374 L439 283 L173 283 L186 374 Z M314 582 C313 575 317 571 324 571 L370 571 C377 571 381 575 382 582 L389 631 C390 638 387 642 380 642 L334 642 C327 642 322 638 321 631 L314 582 Z " />
<glyph glyph-name="Eogonek" unicode="&#x118;" horiz-adv-x="547" d="M322 0 C314 -13 306 -34 303 -51 C297 -97 314 -118 354 -118 L419 -118 C423 -118 426 -115 427 -111 L430 -91 C430 -86 428 -84 424 -84 L370 -84 C370 -84 335 -84 339 -51 C343 -27 353 -10 363 0 L456 0 C463 0 467 4 468 11 L473 43 C474 50 470 54 463 54 L156 54 L192 310 L473 310 C480 310 485 314 486 321 L490 353 C491 360 488 364 481 364 L200 364 L239 646 L546 646 C553 646 558 650 559 657 L563 689 C564 696 561 700 554 700 L199 700 C192 700 187 696 186 689 L91 11 C90 4 94 0 101 0 L322 0 Z " />
<glyph glyph-name="eogonek" unicode="&#x119;" horiz-adv-x="529" d="M402 73 C383 60 356 49 320 49 L234 49 C187 49 147 94 153 141 L166 229 L480 229 C487 229 491 233 492 240 L512 384 C522 450 480 520 399 520 L281 520 C200 520 138 450 128 384 L93 131 C84 65 126 -5 207 -5 C199 -18 192 -34 189 -51 C183 -97 200 -118 240 -118 L305 -118 C309 -118 312 -115 313 -111 L316 -91 C316 -86 314 -84 310 -84 L256 -84 C256 -84 221 -84 225 -51 C229 -27 238 -15 248 -5 L313 -5 C313 -5 384 -6 437 39 C439 42 441 43 441 45 C441 48 440 49 438 52 L419 76 C417 79 415 79 414 79 C410 79 404 74 402 73 L402 73 Z M186 374 C193 424 234 466 292 466 L372 466 C430 466 459 424 452 374 L439 283 L173 283 L186 374 Z " />
<glyph glyph-name="Ecaron" unicode="&#x11a;" horiz-adv-x="547" d="M91 11 C90 4 94 0 101 0 L456 0 C463 0 467 4 468 11 L473 43 C474 50 470 54 463 54 L156 54 L192 310 L473 310 C480 310 485 314 486 321 L490 353 C491 360 488 364 481 364 L200 364 L239 646 L546 646 C553 646 558 650 559 657 L563 689 C564 696 561 700 554 700 L199 700 C192 700 187 696 186 689 L91 11 Z M411 751 C417 751 422 755 426 762 L504 886 C505 891 502 894 497 894 L459 894 C456 894 453 890 450 886 L389 791 L354 886 C353 890 350 894 347 894 L309 894 C304 894 301 891 300 886 L344 762 C346 755 349 751 355 751 L411 751 Z " />
<glyph glyph-name="ecaron" unicode="&#x11b;" horiz-adv-x="529" d="M402 73 C383 60 356 49 320 49 L234 49 C187 49 147 94 153 141 L166 229 L480 229 C487 229 491 233 492 240 L512 384 C522 450 480 520 399 520 L281 520 C200 520 138 450 128 384 L93 131 C84 65 126 -5 207 -5 L313 -5 C313 -5 384 -6 437 39 C439 42 441 43 441 45 C441 48 440 49 438 52 L419 76 C417 79 415 79 414 79 C410 79 404 74 402 73 L402 73 Z M186 374 C193 424 234 466 292 466 L372 466 C430 466 459 424 452 374 L439 283 L173 283 L186 374 Z M377 571 C383 571 387 575 391 582 L470 706 C470 711 468 714 463 714 L425 714 C422 714 418 710 416 706 L354 611 L320 706 C318 710 316 714 313 714 L275 714 C270 714 266 711 266 706 L309 582 C311 575 315 571 321 571 L377 571 Z " />
<glyph glyph-name="Gcircumflex" unicode="&#x11c;" horiz-adv-x="617" d="M393 370 C386 370 381 366 380 359 L375 327 C374 320 378 316 385 316 L522 316 L500 160 C491 93 443 49 375 49 L254 49 C186 49 152 93 161 160 L215 541 C224 608 271 651 339 651 L460 651 C528 651 563 608 554 541 L548 504 C547 497 551 493 558 493 L595 493 C602 493 606 497 607 504 L615 556 C626 638 566 705 481 705 L334 705 C249 705 169 638 158 556 L100 144 C88 62 149 -5 234 -5 L381 -5 C466 -5 545 62 557 144 L587 359 C588 366 585 370 578 370 L393 370 Z M405 894 C399 894 395 890 391 883 L312 759 C311 754 314 751 319 751 L357 751 C360 751 364 755 366 759 L428 854 L462 759 C464 755 466 751 469 751 L507 751 C512 751 515 754 516 759 L473 883 C471 890 467 894 461 894 L405 894 Z " />
<glyph glyph-name="gcircumflex" unicode="&#x11d;" horiz-adv-x="559" d="M338 714 C332 714 327 710 323 703 L245 579 C244 574 247 571 252 571 L290 571 C293 571 296 575 299 579 L360 674 L395 579 C396 575 399 571 402 571 L440 571 C445 571 448 574 449 579 L405 703 C403 710 400 714 394 714 L338 714 Z M228 49 C170 49 141 91 148 141 L181 374 C188 424 229 466 287 466 L367 466 C425 466 466 417 459 367 L428 148 C421 98 366 49 308 49 L228 49 Z M405 -33 C398 -80 353 -149 244 -149 C190 -149 144 -145 115 -140 C112 -140 108 -140 106 -147 L95 -181 C94 -186 96 -188 101 -190 C131 -198 173 -203 232 -203 C411 -203 457 -80 463 -40 L539 504 C540 511 537 515 530 515 L493 515 C486 515 481 511 480 504 L477 477 L470 477 C450 510 415 520 387 520 L284 520 C203 520 134 461 123 382 L88 133 C77 54 129 -5 210 -5 L313 -5 C341 -5 379 5 408 38 L415 38 L405 -33 Z " />
<glyph glyph-name="Gbreve" unicode="&#x11e;" horiz-adv-x="617" d="M393 370 C386 370 381 366 380 359 L375 327 C374 320 378 316 385 316 L522 316 L500 160 C491 93 443 49 375 49 L254 49 C186 49 152 93 161 160 L215 541 C224 608 271 651 339 651 L460 651 C528 651 563 608 554 541 L548 504 C547 497 551 493 558 493 L595 493 C602 493 606 497 607 504 L615 556 C626 638 566 705 481 705 L334 705 C249 705 169 638 158 556 L100 144 C88 62 149 -5 234 -5 L381 -5 C466 -5 545 62 557 144 L587 359 C588 366 585 370 578 370 L393 370 Z M411 751 C487 751 547 788 577 858 C578 863 574 867 569 867 L527 867 C522 867 519 863 516 858 C491 808 457 799 418 799 C379 799 347 808 336 858 C335 863 332 867 327 867 L285 867 C280 867 276 863 275 858 C285 788 335 751 411 751 L411 751 Z " />
<glyph glyph-name="gbreve" unicode="&#x11f;" horiz-adv-x="559" d="M349 571 C425 571 485 608 515 678 C515 683 512 687 507 687 L465 687 C460 687 456 683 454 678 C429 628 394 619 355 619 C316 619 285 628 274 678 C272 683 270 687 265 687 L223 687 C218 687 213 683 213 678 C223 608 273 571 349 571 L349 571 Z M228 49 C170 49 141 91 148 141 L181 374 C188 424 229 466 287 466 L367 466 C425 466 466 417 459 367 L428 148 C421 98 366 49 308 49 L228 49 Z M405 -33 C398 -80 353 -149 244 -149 C190 -149 144 -145 115 -140 C112 -140 108 -140 106 -147 L95 -181 C94 -186 96 -188 101 -190 C131 -198 173 -203 232 -203 C411 -203 457 -80 463 -40 L539 504 C540 511 537 515 530 515 L493 515 C486 515 481 511 480 504 L477 477 L470 477 C450 510 415 520 387 520 L284 520 C203 520 134 461 123 382 L88 133 C77 54 129 -5 210 -5 L313 -5 C341 -5 379 5 408 38 L415 38 L405 -33 Z " />
<glyph glyph-name="Gdotaccent" unicode="&#x120;" horiz-adv-x="617" d="M393 370 C386 370 381 366 380 359 L375 327 C374 320 378 316 385 316 L522 316 L500 160 C491 93 443 49 375 49 L254 49 C186 49 152 93 161 160 L215 541 C224 608 271 651 339 651 L460 651 C528 651 563 608 554 541 L548 504 C547 497 551 493 558 493 L595 493 C602 493 606 497 607 504 L615 556 C626 638 566 705 481 705 L334 705 C249 705 169 638 158 556 L100 144 C88 62 149 -5 234 -5 L381 -5 C466 -5 545 62 557 144 L587 359 C588 366 585 370 578 370 L393 370 Z M381 762 C380 755 383 751 390 751 L436 751 C443 751 448 755 449 762 L455 811 C456 818 453 822 446 822 L400 822 C393 822 388 818 387 811 L381 762 Z " />
<glyph glyph-name="gdotaccent" unicode="&#x121;" horiz-adv-x="559" d="M318 582 C317 575 321 571 328 571 L374 571 C381 571 385 575 386 582 L393 631 C394 638 391 642 384 642 L338 642 C331 642 326 638 325 631 L318 582 Z M228 49 C170 49 141 91 148 141 L181 374 C188 424 229 466 287 466 L367 466 C425 466 466 417 459 367 L428 148 C421 98 366 49 308 49 L228 49 Z M405 -33 C398 -80 353 -149 244 -149 C190 -149 144 -145 115 -140 C112 -140 108 -140 106 -147 L95 -181 C94 -186 96 -188 101 -190 C131 -198 173 -203 232 -203 C411 -203 457 -80 463 -40 L539 504 C540 511 537 515 530 515 L493 515 C486 515 481 511 480 504 L477 477 L470 477 C450 510 415 520 387 520 L284 520 C203 520 134 461 123 382 L88 133 C77 54 129 -5 210 -5 L313 -5 C341 -5 379 5 408 38 L415 38 L405 -33 Z " />
<glyph glyph-name="uni0122" unicode="&#x122;" horiz-adv-x="617" d="M393 370 C386 370 381 366 380 359 L375 327 C374 320 378 316 385 316 L522 316 L500 160 C491 93 443 49 375 49 L254 49 C186 49 152 93 161 160 L215 541 C224 608 271 651 339 651 L460 651 C528 651 563 608 554 541 L548 504 C547 497 551 493 558 493 L595 493 C602 493 606 497 607 504 L615 556 C626 638 566 705 481 705 L334 705 C249 705 169 638 158 556 L100 144 C88 62 149 -5 234 -5 L381 -5 C466 -5 545 62 557 144 L587 359 C588 366 585 370 578 370 L393 370 Z M263 -179 C270 -179 274 -175 279 -167 L339 -65 C340 -57 337 -53 330 -53 L293 -53 C286 -53 282 -57 277 -65 L217 -167 C216 -175 219 -179 227 -179 L263 -179 Z " />
<glyph glyph-name="uni0123" unicode="&#x123;" horiz-adv-x="559" d="M372 571 C379 571 382 575 387 583 L448 685 C449 693 445 697 438 697 L401 697 C394 697 391 693 386 685 L325 583 C324 575 328 571 336 571 L372 571 Z M228 49 C170 49 141 91 148 141 L181 374 C188 424 229 466 287 466 L367 466 C425 466 466 417 459 367 L428 148 C421 98 366 49 308 49 L228 49 Z M405 -33 C398 -80 353 -149 244 -149 C190 -149 144 -145 115 -140 C112 -140 108 -140 106 -147 L95 -181 C94 -186 96 -188 101 -190 C131 -198 173 -203 232 -203 C411 -203 457 -80 463 -40 L539 504 C540 511 537 515 530 515 L493 515 C486 515 481 511 480 504 L477 477 L470 477 C450 510 415 520 387 520 L284 520 C203 520 134 461 123 382 L88 133 C77 54 129 -5 210 -5 L313 -5 C341 -5 379 5 408 38 L415 38 L405 -33 Z " />
<glyph glyph-name="Hcircumflex" unicode="&#x124;" horiz-adv-x="630" d="M482 11 C481 4 485 0 492 0 L529 0 C536 0 540 4 541 11 L636 689 C637 696 634 700 627 700 L590 700 C583 700 578 696 577 689 L532 363 L200 363 L245 689 C246 696 243 700 236 700 L199 700 C192 700 187 696 186 689 L91 11 C90 4 94 0 101 0 L138 0 C145 0 149 4 150 11 L192 309 L524 309 L482 11 Z M412 894 C406 894 402 890 398 883 L319 759 C318 754 321 751 326 751 L364 751 C367 751 371 755 373 759 L435 854 L469 759 C471 755 473 751 476 751 L514 751 C519 751 522 754 523 759 L480 883 C478 890 474 894 468 894 L412 894 Z " />
<glyph glyph-name="hcircumflex" unicode="&#x125;" horiz-adv-x="566" d="M91 11 C90 4 94 0 101 0 L138 0 C145 0 149 4 150 11 L200 366 C263 465 344 466 379 466 L387 466 C438 466 486 424 477 356 L428 11 C427 4 431 0 438 0 L475 0 C482 0 486 4 487 11 L537 368 C550 458 489 520 396 520 L368 520 C348 520 262 519 219 455 L212 455 L245 689 C246 696 243 700 236 700 L199 700 C192 700 187 696 186 689 L91 11 Z M292 894 C286 894 282 890 278 883 L199 759 C198 754 201 751 206 751 L244 751 C247 751 251 755 253 759 L315 854 L349 759 C351 755 353 751 356 751 L394 751 C399 751 402 754 403 759 L360 883 C358 890 354 894 348 894 L292 894 Z " />
<glyph glyph-name="Hbar" unicode="&#x126;" horiz-adv-x="630" d="M657 490 C664 490 669 494 670 501 L674 533 C675 540 672 544 665 544 L616 544 L636 689 C637 696 634 700 627 700 L590 700 C583 700 578 696 577 689 L557 544 L225 544 L245 689 C246 696 243 700 236 700 L199 700 C192 700 187 696 186 689 L166 544 L117 544 C110 544 105 540 104 533 L100 501 C99 494 102 490 109 490 L158 490 L91 11 C90 4 94 0 101 0 L138 0 C145 0 149 4 150 11 L192 309 L524 309 L482 11 C481 4 485 0 492 0 L529 0 C536 0 540 4 541 11 L608 490 L657 490 Z M200 363 L217 490 L549 490 L532 363 L200 363 Z " />
<glyph glyph-name="hbar" unicode="&#x127;" horiz-adv-x="564" d="M169 577 L89 11 C88 4 92 0 99 0 L136 0 C143 0 147 4 148 11 L198 366 C261 465 342 466 377 466 L385 466 C436 466 484 424 475 356 L426 11 C425 4 429 0 436 0 L473 0 C480 0 484 4 485 11 L535 368 C548 458 487 520 394 520 L366 520 C346 520 260 519 217 455 L210 455 L228 577 L320 577 C327 577 331 581 332 588 L337 620 C338 627 334 631 327 631 L235 631 L243 689 C244 696 241 700 234 700 L197 700 C190 700 185 696 184 689 L176 631 L129 631 C122 631 118 627 117 620 L112 588 C111 581 115 577 122 577 L169 577 Z " />
<glyph glyph-name="Itilde" unicode="&#x128;" horiz-adv-x="239" d="M306 751 C316 751 333 757 350 764 C354 766 357 770 357 774 L353 805 C352 809 349 811 345 811 C334 811 325 805 310 805 C251 805 212 849 156 849 C146 849 129 843 112 836 C108 834 105 830 105 826 L109 795 C110 791 112 789 116 789 C127 789 137 795 152 795 C209 795 250 751 306 751 L306 751 Z M245 689 C246 692 245 695 243 697 C242 699 240 700 236 700 L199 700 C195 700 193 699 190 697 C188 695 187 692 186 689 L91 11 C91 8 91 5 93 3 C95 1 97 0 101 0 L138 0 C142 0 144 1 146 3 C148 5 150 8 150 11 L245 689 Z " />
<glyph glyph-name="itilde" unicode="&#x129;" horiz-adv-x="239" d="M91 11 C90 4 94 0 101 0 L138 0 C145 0 149 4 150 11 L219 504 C220 511 217 515 210 515 L173 515 C166 515 161 511 160 504 L91 11 Z M281 571 C291 571 308 577 325 584 C329 586 331 590 332 594 L327 625 C327 629 324 631 320 631 C309 631 299 625 284 625 C225 625 187 669 131 669 C121 669 104 663 87 656 C82 654 80 650 79 646 L84 615 C84 611 87 609 91 609 C102 609 112 615 127 615 C184 615 225 571 281 571 L281 571 Z " />
<glyph glyph-name="Imacron" unicode="&#x12a;" horiz-adv-x="239" d="M327 751 C334 751 339 755 340 762 L344 794 C345 801 342 805 335 805 L129 805 C122 805 117 801 116 794 L112 762 C111 755 114 751 121 751 L327 751 Z M245 689 C246 692 245 695 243 697 C242 699 240 700 236 700 L199 700 C195 700 193 699 190 697 C188 695 187 692 186 689 L91 11 C91 8 91 5 93 3 C95 1 97 0 101 0 L138 0 C142 0 144 1 146 3 C148 5 150 8 150 11 L245 689 Z " />
<glyph glyph-name="imacron" unicode="&#x12b;" horiz-adv-x="239" d="M91 11 C90 4 94 0 101 0 L138 0 C145 0 149 4 150 11 L219 504 C220 511 217 515 210 515 L173 515 C166 515 161 511 160 504 L91 11 Z M302 571 C309 571 313 575 314 582 L319 614 C320 621 316 625 309 625 L103 625 C96 625 92 621 91 614 L86 582 C85 575 89 571 96 571 L302 571 Z " />
<glyph glyph-name="Iogonek" unicode="&#x12e;" horiz-adv-x="239" d="M245 689 C246 696 243 700 236 700 L199 700 C192 700 187 696 186 689 L94 34 C59 30 33 0 28 -31 C21 -83 49 -93 95 -93 L143 -93 C147 -93 151 -90 151 -86 L154 -66 C155 -61 152 -59 148 -59 L94 -59 C94 -59 59 -59 63 -32 C68 1 102 0 102 0 L138 0 C145 0 149 4 150 11 L245 689 Z " />
<glyph glyph-name="iogonek" unicode="&#x12f;" horiz-adv-x="239" d="M169 589 C168 582 172 578 179 578 L222 578 C229 578 233 582 234 589 L244 657 C245 664 241 668 234 668 L191 668 C184 668 180 664 179 657 L169 589 Z M94 34 C59 30 33 0 28 -31 C21 -83 49 -93 95 -93 L143 -93 C147 -93 151 -90 151 -86 L154 -66 C155 -61 152 -59 148 -59 L94 -59 C94 -59 59 -59 63 -32 C68 1 102 0 102 0 L138 0 C145 0 149 4 150 11 L219 504 C220 511 217 515 210 515 L173 515 C166 515 161 511 160 504 L94 34 Z " />
<glyph glyph-name="Idotaccent" unicode="&#x130;" horiz-adv-x="239" d="M91 11 C90 4 94 0 101 0 L138 0 C145 0 149 4 150 11 L227 560 C228 567 225 571 218 571 L181 571 C174 571 169 567 168 560 L91 11 Z M177 645 C176 638 180 634 187 634 L230 634 C237 634 241 638 242 645 L252 713 C253 720 249 724 242 724 L199 724 C192 724 188 720 187 713 L177 645 Z " />
<glyph glyph-name="dotlessi" unicode="&#x131;" horiz-adv-x="239" d="M91 11 C90 4 94 0 101 0 L138 0 C145 0 149 4 150 11 L219 504 C220 511 217 515 210 515 L173 515 C166 515 161 511 160 504 L91 11 Z " />
<glyph glyph-name="Jcircumflex" unicode="&#x134;" horiz-adv-x="450" d="M27 36 C53 17 98 -5 165 -5 C296 -5 390 72 401 154 L476 689 C477 696 474 700 467 700 L430 700 C423 700 418 696 417 689 L344 164 C341 149 306 49 166 49 C138 49 103 59 72 76 C68 78 68 79 65 79 C63 79 59 78 57 76 L30 50 C27 48 26 45 25 42 C25 39 25 38 27 36 L27 36 Z M375 894 C369 894 365 890 361 883 L282 759 C281 754 284 751 289 751 L327 751 C330 751 334 755 336 759 L398 854 L432 759 C434 755 436 751 439 751 L477 751 C482 751 485 754 486 759 L443 883 C441 890 437 894 431 894 L375 894 Z " />
<glyph glyph-name="jcircumflex" unicode="&#x135;" horiz-adv-x="239" d="M-19 -124 C-23 -126 -25 -129 -26 -136 L-15 -176 C-14 -180 -10 -182 -7 -182 C-6 -182 -4 -182 -2 -181 C45 -161 133 -107 148 -2 L219 504 C220 511 217 515 210 515 L173 515 C166 515 161 511 160 504 L90 3 C90 3 75 -76 -19 -124 L-19 -124 Z M190 711 C184 711 180 707 176 700 L97 576 C97 571 99 568 104 568 L142 568 C145 568 149 572 151 576 L213 671 L247 576 C249 572 251 568 254 568 L292 568 C297 568 301 571 301 576 L258 700 C256 707 252 711 246 711 L190 711 Z " />
<glyph glyph-name="uni0136" unicode="&#x136;" horiz-adv-x="581" d="M466 8 C467 4 469 0 475 0 L522 0 C527 0 530 3 531 8 L410 348 L627 692 C627 697 625 700 620 700 L573 700 C567 700 564 696 562 692 L362 376 L201 376 L245 689 C246 696 243 700 236 700 L199 700 C192 700 187 696 186 689 L91 11 C90 4 94 0 101 0 L138 0 C145 0 149 4 150 11 L194 322 L352 322 L466 8 Z M257 -179 C264 -179 268 -175 273 -167 L333 -65 C334 -57 331 -53 324 -53 L287 -53 C280 -53 276 -57 271 -65 L211 -167 C210 -175 213 -179 221 -179 L257 -179 Z " />
<glyph glyph-name="uni0137" unicode="&#x137;" horiz-adv-x="523" d="M417 8 C418 4 422 0 427 0 L475 0 C480 0 483 3 484 8 L383 274 L552 507 C552 512 550 515 545 515 L496 515 C491 515 486 511 484 507 L333 300 L191 300 L245 689 C246 696 243 700 236 700 L199 700 C192 700 187 696 186 689 L91 11 C90 4 94 0 101 0 L138 0 C145 0 149 4 150 11 L183 246 L326 246 L417 8 Z M218 -179 C225 -179 229 -175 234 -167 L294 -65 C295 -57 292 -53 285 -53 L248 -53 C241 -53 237 -57 232 -65 L172 -167 C171 -175 174 -179 182 -179 L218 -179 Z " />
<glyph glyph-name="kgreenlandic" unicode="&#x138;" horiz-adv-x="523" d="M417 8 C418 4 422 0 427 0 L475 0 C480 0 483 3 484 8 L383 274 L552 507 C552 512 550 515 545 515 L496 515 C491 515 486 511 484 507 L333 300 L191 300 L219 504 C220 511 217 515 210 515 L173 515 C166 515 161 511 160 504 L91 11 C90 4 94 0 101 0 L138 0 C145 0 149 4 150 11 L183 246 L326 246 L417 8 Z " />
<glyph glyph-name="Lacute" unicode="&#x139;" horiz-adv-x="517" d="M91 11 C90 4 94 0 101 0 L456 0 C463 0 467 4 468 11 L473 43 C474 50 470 54 463 54 L156 54 L245 689 C246 696 243 700 236 700 L199 700 C192 700 187 696 186 689 L91 11 Z M249 751 C256 751 260 755 265 763 L325 865 C326 873 323 877 316 877 L279 877 C272 877 268 873 263 865 L203 763 C202 755 205 751 213 751 L249 751 Z " />
<glyph glyph-name="lacute" unicode="&#x13a;" horiz-adv-x="239" d="M248 751 C255 751 259 755 264 763 L324 865 C325 873 322 877 315 877 L278 877 C271 877 267 873 262 865 L202 763 C201 755 204 751 212 751 L248 751 Z M245 689 C246 692 245 695 243 697 C242 699 240 700 236 700 L199 700 C195 700 193 699 190 697 C188 695 187 692 186 689 L91 11 C91 8 91 5 93 3 C95 1 97 0 101 0 L138 0 C142 0 144 1 146 3 C148 5 150 8 150 11 L245 689 Z " />
<glyph glyph-name="uni013B" unicode="&#x13b;" horiz-adv-x="517" d="M91 11 C90 4 94 0 101 0 L456 0 C463 0 467 4 468 11 L473 43 C474 50 470 54 463 54 L156 54 L245 689 C246 696 243 700 236 700 L199 700 C192 700 187 696 186 689 L91 11 Z M219 -179 C226 -179 230 -175 235 -167 L295 -65 C296 -57 293 -53 286 -53 L249 -53 C242 -53 238 -57 233 -65 L173 -167 C172 -175 175 -179 183 -179 L219 -179 Z " />
<glyph glyph-name="uni013C" unicode="&#x13c;" horiz-adv-x="239" d="M64 -179 C71 -179 75 -175 80 -167 L140 -65 C141 -57 138 -53 131 -53 L94 -53 C87 -53 83 -57 78 -65 L18 -167 C17 -175 20 -179 28 -179 L64 -179 Z M245 689 C246 692 245 695 243 697 C242 699 240 700 236 700 L199 700 C195 700 193 699 190 697 C188 695 187 692 186 689 L91 11 C91 8 91 5 93 3 C95 1 97 0 101 0 L138 0 C142 0 144 1 146 3 C148 5 150 8 150 11 L245 689 Z " />
<glyph glyph-name="Lcaron" unicode="&#x13d;" horiz-adv-x="519" d="M91 11 C90 4 94 0 101 0 L456 0 C463 0 467 4 468 11 L473 43 C474 50 470 54 463 54 L156 54 L245 689 C246 696 243 700 236 700 L199 700 C192 700 187 696 186 689 L91 11 Z M490 583 C497 583 501 587 506 595 L565 688 C566 696 563 700 556 700 L525 700 C518 700 514 696 509 688 L450 595 C449 587 452 583 460 583 L490 583 Z " />
<glyph glyph-name="lcaron" unicode="&#x13e;" horiz-adv-x="461" d="M451 574 C458 574 462 578 467 586 L527 688 C528 696 525 700 518 700 L481 700 C474 700 470 696 465 688 L405 586 C404 578 407 574 415 574 L451 574 Z M245 689 C246 692 245 695 243 697 C242 699 240 700 236 700 L199 700 C195 700 193 699 190 697 C188 695 187 692 186 689 L91 11 C91 8 91 5 93 3 C95 1 97 0 101 0 L138 0 C142 0 144 1 146 3 C148 5 150 8 150 11 L245 689 Z " />
<glyph glyph-name="Lslash" unicode="&#x141;" horiz-adv-x="555" d="M87 345 C82 343 77 340 76 334 L71 298 C71 293 74 289 79 289 L192 319 L149 11 C148 4 152 0 159 0 L514 0 C521 0 525 4 526 11 L531 43 C532 50 528 54 521 54 L214 54 L254 335 L367 365 C372 367 377 370 377 376 L382 412 C383 417 380 421 375 421 L261 391 L303 689 C304 696 301 700 294 700 L257 700 C250 700 245 696 244 689 L200 375 L87 345 Z " />
<glyph glyph-name="lslash" unicode="&#x142;" horiz-adv-x="355" d="M87 345 C82 343 77 340 76 334 L71 298 C71 293 74 289 79 289 L192 319 L149 11 C148 4 152 0 159 0 L196 0 C203 0 207 4 208 11 L254 335 L367 365 C372 367 377 370 377 376 L382 412 C383 417 380 421 375 421 L261 391 L303 689 C304 696 301 700 294 700 L257 700 C250 700 245 696 244 689 L200 375 L87 345 Z " />
<glyph glyph-name="Nacute" unicode="&#x143;" horiz-adv-x="669" d="M524 90 L277 689 C275 695 271 700 264 700 L199 700 C192 700 187 696 186 689 L91 11 C90 4 94 0 101 0 L138 0 C145 0 149 4 150 11 L234 610 L242 610 L490 11 C492 5 497 0 504 0 L568 0 C575 0 579 4 580 11 L675 689 C676 696 673 700 666 700 L629 700 C622 700 617 696 616 689 L532 90 L524 90 Z M468 751 C475 751 479 755 484 763 L544 865 C545 873 542 877 535 877 L498 877 C491 877 487 873 482 865 L422 763 C421 755 424 751 432 751 L468 751 Z " />
<glyph glyph-name="nacute" unicode="&#x144;" horiz-adv-x="566" d="M91 11 C90 4 94 0 101 0 L138 0 C145 0 149 4 150 11 L200 366 C263 465 344 466 379 466 L387 466 C438 466 486 424 477 356 L428 11 C427 4 431 0 438 0 L475 0 C482 0 486 4 487 11 L537 368 C550 458 489 520 396 520 L368 520 C348 520 262 519 219 455 L212 455 L219 504 C220 511 217 515 210 515 L173 515 C166 515 161 511 160 504 L91 11 Z M404 571 C411 571 414 575 419 583 L480 685 C481 693 477 697 470 697 L433 697 C426 697 423 693 418 685 L357 583 C356 575 360 571 368 571 L404 571 Z " />
<glyph glyph-name="uni0145" unicode="&#x145;" horiz-adv-x="669" d="M524 90 L277 689 C275 695 271 700 264 700 L199 700 C192 700 187 696 186 689 L91 11 C90 4 94 0 101 0 L138 0 C145 0 149 4 150 11 L234 610 L242 610 L490 11 C492 5 497 0 504 0 L568 0 C575 0 579 4 580 11 L675 689 C676 696 673 700 666 700 L629 700 C622 700 617 696 616 689 L532 90 L524 90 Z M286 -179 C293 -179 297 -175 302 -167 L362 -65 C363 -57 360 -53 353 -53 L316 -53 C309 -53 305 -57 300 -65 L240 -167 C239 -175 242 -179 250 -179 L286 -179 Z " />
<glyph glyph-name="uni0146" unicode="&#x146;" horiz-adv-x="566" d="M91 11 C90 4 94 0 101 0 L138 0 C145 0 149 4 150 11 L200 366 C263 465 344 466 379 466 L387 466 C438 466 486 424 477 356 L428 11 C427 4 431 0 438 0 L475 0 C482 0 486 4 487 11 L537 368 C550 458 489 520 396 520 L368 520 C348 520 262 519 219 455 L212 455 L219 504 C220 511 217 515 210 515 L173 515 C166 515 161 511 160 504 L91 11 Z M239 -179 C246 -179 250 -175 255 -167 L315 -65 C316 -57 313 -53 306 -53 L269 -53 C262 -53 258 -57 253 -65 L193 -167 C192 -175 195 -179 203 -179 L239 -179 Z " />
<glyph glyph-name="Ncaron" unicode="&#x147;" horiz-adv-x="669" d="M524 90 L277 689 C275 695 271 700 264 700 L199 700 C192 700 187 696 186 689 L91 11 C90 4 94 0 101 0 L138 0 C145 0 149 4 150 11 L234 610 L242 610 L490 11 C492 5 497 0 504 0 L568 0 C575 0 579 4 580 11 L675 689 C676 696 673 700 666 700 L629 700 C622 700 617 696 616 689 L532 90 L524 90 Z M468 751 C474 751 479 755 483 762 L561 886 C562 891 559 894 554 894 L516 894 C513 894 510 890 507 886 L446 791 L411 886 C410 890 407 894 404 894 L366 894 C361 894 358 891 357 886 L401 762 C403 755 406 751 412 751 L468 751 Z " />
<glyph glyph-name="ncaron" unicode="&#x148;" horiz-adv-x="566" d="M91 11 C90 4 94 0 101 0 L138 0 C145 0 149 4 150 11 L200 366 C263 465 344 466 379 466 L387 466 C438 466 486 424 477 356 L428 11 C427 4 431 0 438 0 L475 0 C482 0 486 4 487 11 L537 368 C550 458 489 520 396 520 L368 520 C348 520 262 519 219 455 L212 455 L219 504 C220 511 217 515 210 515 L173 515 C166 515 161 511 160 504 L91 11 Z M403 571 C409 571 413 575 417 582 L496 706 C496 711 494 714 489 714 L451 714 C448 714 444 710 442 706 L380 611 L346 706 C344 710 342 714 339 714 L301 714 C296 714 292 711 292 706 L335 582 C337 575 341 571 347 571 L403 571 Z " />
<glyph glyph-name="Eng" unicode="&#x14a;" horiz-adv-x="669" d="M410 -124 C406 -126 404 -129 403 -136 L414 -176 C415 -180 419 -182 422 -182 C423 -182 425 -182 427 -181 C475 -161 563 -107 578 -2 L675 689 C676 696 673 700 666 700 L629 700 C622 700 617 696 616 689 L532 90 L524 90 L277 689 C275 695 271 700 264 700 L199 700 C192 700 187 696 186 689 L91 11 C90 4 94 0 101 0 L138 0 C145 0 149 4 150 11 L234 610 L242 610 L507 -29 C493 -57 466 -95 410 -124 L410 -124 Z " />
<glyph glyph-name="eng" unicode="&#x14b;" horiz-adv-x="566" d="M317 -124 C313 -126 311 -129 310 -136 L321 -176 C322 -180 326 -182 329 -182 C330 -182 332 -182 334 -181 C382 -161 470 -107 485 -2 L537 368 C550 458 489 520 396 520 L368 520 C348 520 262 519 219 455 L212 455 L219 504 C220 511 217 515 210 515 L173 515 C166 515 161 511 160 504 L91 11 C90 4 94 0 101 0 L138 0 C145 0 149 4 150 11 L200 366 C263 465 344 466 379 466 L387 466 C438 466 486 424 477 356 L427 3 C427 3 412 -76 317 -124 L317 -124 Z " />
<glyph glyph-name="Omacron" unicode="&#x14c;" horiz-adv-x="617" d="M481 705 L334 705 C249 705 169 638 158 556 L100 144 C88 62 149 -5 234 -5 L381 -5 C466 -5 545 62 557 144 L615 556 C626 638 566 705 481 705 L481 705 Z M500 160 C491 93 443 49 375 49 L254 49 C186 49 152 93 161 160 L215 541 C224 608 271 651 339 651 L460 651 C528 651 563 608 554 541 L500 160 Z M516 751 C523 751 528 755 529 762 L533 794 C534 801 531 805 524 805 L318 805 C311 805 306 801 305 794 L301 762 C300 755 303 751 310 751 L516 751 Z " />
<glyph glyph-name="omacron" unicode="&#x14d;" horiz-adv-x="534" d="M450 571 C457 571 461 575 462 582 L467 614 C468 621 464 625 457 625 L251 625 C244 625 240 621 239 614 L234 582 C233 575 237 571 244 571 L450 571 Z M281 520 C200 520 138 450 128 384 L93 131 C84 65 126 -5 207 -5 L325 -5 C406 -5 468 65 477 131 L512 384 C522 450 480 520 399 520 L281 520 Z M233 49 C175 49 146 91 153 141 L186 374 C193 424 234 466 292 466 L372 466 C430 466 459 424 452 374 L419 141 C412 91 371 49 313 49 L233 49 Z " />
<glyph glyph-name="Ohungarumlaut" unicode="&#x150;" horiz-adv-x="617" d="M481 705 L334 705 C249 705 169 638 158 556 L100 144 C88 62 149 -5 234 -5 L381 -5 C466 -5 545 62 557 144 L615 556 C626 638 566 705 481 705 L481 705 Z M500 160 C491 93 443 49 375 49 L254 49 C186 49 152 93 161 160 L215 541 C224 608 271 651 339 651 L460 651 C528 651 563 608 554 541 L500 160 Z M368 751 C375 751 379 755 384 763 L442 856 C443 864 439 868 432 868 L401 868 C394 868 391 864 386 856 L328 763 C327 755 330 751 338 751 L368 751 Z M499 751 C506 751 510 755 515 763 L573 856 C574 864 570 868 563 868 L532 868 C525 868 522 864 517 856 L459 763 C458 755 461 751 469 751 L499 751 Z " />
<glyph glyph-name="ohungarumlaut" unicode="&#x151;" horiz-adv-x="534" d="M309 571 C316 571 319 575 324 583 L383 676 C384 684 380 688 373 688 L342 688 C335 688 332 684 327 676 L268 583 C267 575 271 571 279 571 L309 571 Z M440 571 C447 571 450 575 455 583 L514 676 C515 684 511 688 504 688 L473 688 C466 688 463 684 458 676 L399 583 C398 575 402 571 410 571 L440 571 Z M281 520 C200 520 138 450 128 384 L93 131 C84 65 126 -5 207 -5 L325 -5 C406 -5 468 65 477 131 L512 384 C522 450 480 520 399 520 L281 520 Z M233 49 C175 49 146 91 153 141 L186 374 C193 424 234 466 292 466 L372 466 C430 466 459 424 452 374 L419 141 C412 91 371 49 313 49 L233 49 Z " />
<glyph glyph-name="OE" unicode="&#x152;" horiz-adv-x="935" d="M235 0 L844 0 C851 0 855 4 856 11 L861 43 C862 50 858 54 851 54 L544 54 L580 310 L861 310 C868 310 873 314 874 321 L878 353 C879 360 876 364 869 364 L588 364 L627 646 L934 646 C941 646 946 650 947 657 L951 689 C952 696 949 700 942 700 L333 700 C248 700 168 633 157 551 L100 149 C89 67 150 0 235 0 L235 0 Z M492 646 C538 646 564 619 558 575 L495 125 C489 81 455 54 409 54 L255 54 C187 54 152 98 162 165 L214 536 C223 603 270 646 338 646 L492 646 Z " />
<glyph glyph-name="oe" unicode="&#x153;" horiz-adv-x="854" d="M727 73 C708 60 681 49 645 49 L559 49 C512 49 472 94 478 141 L491 229 L805 229 C812 229 816 233 817 240 L837 384 C847 450 805 520 724 520 L606 520 C561 520 522 499 494 469 C476 499 443 520 399 520 L281 520 C200 520 138 450 128 384 L93 131 C84 65 126 -5 207 -5 L325 -5 C369 -5 408 16 435 46 C454 16 487 -5 532 -5 L638 -5 C638 -5 709 -6 762 39 C764 42 766 43 766 45 C766 48 765 49 763 52 L744 76 C742 79 740 79 739 79 C735 79 729 74 727 73 L727 73 Z M372 466 C430 466 459 424 452 374 L419 137 C406 75 357 49 312 49 L234 49 C179 49 146 86 153 141 L186 374 C193 424 234 466 292 466 L372 466 Z M511 374 C518 424 559 466 617 466 L697 466 C755 466 784 424 777 374 L764 283 L498 283 L511 374 Z " />
<glyph glyph-name="Racute" unicode="&#x154;" horiz-adv-x="599" d="M592 380 L616 551 C627 633 566 700 480 700 L199 700 C192 700 187 696 186 689 L91 11 C90 4 94 0 101 0 L138 0 C145 0 149 4 150 11 L181 230 L390 230 L460 11 C462 4 465 0 472 0 L513 0 C520 0 524 4 525 11 L452 235 C522 251 582 310 592 380 L592 380 Z M535 394 C526 331 468 284 412 284 L188 284 L239 646 L463 646 C519 646 563 594 555 535 L535 394 Z M410 751 C417 751 421 755 426 763 L486 865 C487 873 484 877 477 877 L440 877 C433 877 429 873 424 865 L364 763 C363 755 366 751 374 751 L410 751 Z " />
<glyph glyph-name="racute" unicode="&#x155;" horiz-adv-x="411" d="M432 517 C417 518 400 520 372 520 C349 520 261 512 218 448 L211 448 L219 504 C220 511 217 515 210 515 L173 515 C166 515 161 511 160 504 L91 11 C90 4 94 0 101 0 L138 0 C145 0 149 4 150 11 L199 359 C262 458 337 466 372 466 C389 466 412 464 423 463 C430 463 434 467 435 474 L442 506 C443 513 439 517 432 517 L432 517 Z M220 571 C227 571 230 575 235 583 L296 685 C297 693 293 697 286 697 L249 697 C242 697 239 693 234 685 L173 583 C172 575 176 571 184 571 L220 571 Z " />
<glyph glyph-name="uni0156" unicode="&#x156;" horiz-adv-x="599" d="M592 380 L616 551 C627 633 566 700 480 700 L199 700 C192 700 187 696 186 689 L91 11 C90 4 94 0 101 0 L138 0 C145 0 149 4 150 11 L181 230 L390 230 L460 11 C462 4 465 0 472 0 L513 0 C520 0 524 4 525 11 L452 235 C522 251 582 310 592 380 L592 380 Z M535 394 C526 331 468 284 412 284 L188 284 L239 646 L463 646 C519 646 563 594 555 535 L535 394 Z M249 -179 C256 -179 260 -175 265 -167 L325 -65 C326 -57 323 -53 316 -53 L279 -53 C272 -53 268 -57 263 -65 L203 -167 C202 -175 205 -179 213 -179 L249 -179 Z " />
<glyph glyph-name="uni0157" unicode="&#x157;" horiz-adv-x="411" d="M432 517 C417 518 400 520 372 520 C349 520 261 512 218 448 L211 448 L219 504 C220 511 217 515 210 515 L173 515 C166 515 161 511 160 504 L91 11 C90 4 94 0 101 0 L138 0 C145 0 149 4 150 11 L199 359 C262 458 337 466 372 466 C389 466 412 464 423 463 C430 463 434 467 435 474 L442 506 C443 513 439 517 432 517 L432 517 Z M113 -179 C120 -179 124 -175 129 -167 L189 -65 C190 -57 187 -53 180 -53 L143 -53 C136 -53 132 -57 127 -65 L67 -167 C66 -175 69 -179 77 -179 L113 -179 Z " />
<glyph glyph-name="Rcaron" unicode="&#x158;" horiz-adv-x="599" d="M592 380 L616 551 C627 633 566 700 480 700 L199 700 C192 700 187 696 186 689 L91 11 C90 4 94 0 101 0 L138 0 C145 0 149 4 150 11 L181 230 L390 230 L460 11 C462 4 465 0 472 0 L513 0 C520 0 524 4 525 11 L452 235 C522 251 582 310 592 380 L592 380 Z M535 394 C526 331 468 284 412 284 L188 284 L239 646 L463 646 C519 646 563 594 555 535 L535 394 Z M404 751 C410 751 415 755 419 762 L497 886 C498 891 495 894 490 894 L452 894 C449 894 446 890 443 886 L382 791 L347 886 C346 890 343 894 340 894 L302 894 C297 894 294 891 293 886 L337 762 C339 755 342 751 348 751 L404 751 Z " />
<glyph glyph-name="rcaron" unicode="&#x159;" horiz-adv-x="411" d="M432 517 C417 518 400 520 372 520 C349 520 261 512 218 448 L211 448 L219 504 C220 511 217 515 210 515 L173 515 C166 515 161 511 160 504 L91 11 C90 4 94 0 101 0 L138 0 C145 0 149 4 150 11 L199 359 C262 458 337 466 372 466 C389 466 412 464 423 463 C430 463 434 467 435 474 L442 506 C443 513 439 517 432 517 L432 517 Z M308 571 C314 571 318 575 322 582 L401 706 C401 711 399 714 394 714 L356 714 C353 714 349 710 347 706 L285 611 L251 706 C249 710 247 714 244 714 L206 714 C201 714 197 711 197 706 L240 582 C242 575 246 571 252 571 L308 571 Z " />
<glyph glyph-name="Sacute" unicode="&#x15a;" horiz-adv-x="583" d="M481 159 C471 92 424 49 356 49 L234 49 C166 49 131 92 141 159 L143 171 C144 178 140 182 133 182 L96 182 C89 182 85 178 84 171 L80 143 C68 62 130 -5 215 -5 L362 -5 C447 -5 526 62 538 143 L540 162 C581 452 160 296 191 519 L195 541 C204 608 251 651 319 651 L429 651 C497 651 532 608 523 541 L521 529 C520 522 523 518 530 518 L567 518 C574 518 579 522 580 529 L584 557 C595 638 534 705 449 705 L314 705 C229 705 149 638 138 557 L134 532 C93 235 514 394 483 174 L481 159 Z M374 751 C366 751 363 755 364 763 L424 865 C429 873 433 877 440 877 L477 877 C484 877 487 873 486 865 L426 763 C421 755 417 751 410 751 L374 751 Z " />
<glyph glyph-name="sacute" unicode="&#x15b;" horiz-adv-x="515" d="M274 520 C192 520 132 464 122 396 L121 389 C93 191 432 270 414 141 L413 131 C405 75 354 49 307 49 L224 49 C176 49 137 94 143 141 L145 154 C146 161 143 165 136 165 L99 165 C92 165 87 161 86 154 L83 131 C74 65 119 -5 200 -5 L319 -5 C403 -5 462 51 471 119 L473 133 C501 334 161 250 179 379 L180 389 C188 445 238 466 286 466 L361 466 C409 466 449 421 442 374 L440 361 C439 354 443 350 450 350 L487 350 C494 350 498 354 499 361 L502 384 C512 450 467 520 386 520 L274 520 Z M360 571 C367 571 370 575 375 583 L436 685 C437 693 433 697 426 697 L389 697 C382 697 379 693 374 685 L313 583 C312 575 316 571 324 571 L360 571 Z " />
<glyph glyph-name="Scircumflex" unicode="&#x15c;" horiz-adv-x="583" d="M481 159 C471 92 424 49 356 49 L234 49 C166 49 131 92 141 159 L143 171 C144 178 140 182 133 182 L96 182 C89 182 85 178 84 171 L80 143 C68 62 130 -5 215 -5 L362 -5 C447 -5 526 62 538 143 L540 162 C581 452 160 296 191 519 L195 541 C204 608 251 651 319 651 L429 651 C497 651 532 608 523 541 L521 529 C520 522 523 518 530 518 L567 518 C574 518 579 522 580 529 L584 557 C595 638 534 705 449 705 L314 705 C229 705 149 638 138 557 L134 532 C93 235 514 394 483 174 L481 159 Z M435 894 C441 894 445 890 447 883 L490 759 C489 754 486 751 481 751 L443 751 C440 751 438 755 436 759 L402 854 L340 759 C338 755 334 751 331 751 L293 751 C288 751 285 754 286 759 L365 883 C369 890 373 894 379 894 L435 894 Z " />
<glyph glyph-name="scircumflex" unicode="&#x15d;" horiz-adv-x="515" d="M274 520 C192 520 132 464 122 396 L121 389 C93 191 432 270 414 141 L413 131 C405 75 354 49 307 49 L224 49 C176 49 137 94 143 141 L145 154 C146 161 143 165 136 165 L99 165 C92 165 87 161 86 154 L83 131 C74 65 119 -5 200 -5 L319 -5 C403 -5 462 51 471 119 L473 133 C501 334 161 250 179 379 L180 389 C188 445 238 466 286 466 L361 466 C409 466 449 421 442 374 L440 361 C439 354 443 350 450 350 L487 350 C494 350 498 354 499 361 L502 384 C512 450 467 520 386 520 L274 520 Z M332 714 C326 714 321 710 317 703 L239 579 C238 574 241 571 246 571 L284 571 C287 571 290 575 293 579 L354 674 L389 579 C390 575 393 571 396 571 L434 571 C439 571 442 574 443 579 L399 703 C397 710 394 714 388 714 L332 714 Z " />
<glyph glyph-name="Scedilla" unicode="&#x15e;" horiz-adv-x="583" d="M191 519 L195 541 C204 608 251 651 319 651 L429 651 C497 651 532 608 523 541 L521 529 C520 522 523 518 530 518 L567 518 C574 518 579 522 580 529 L584 557 C595 638 534 705 449 705 L314 705 C229 705 149 638 138 557 L134 532 C93 235 514 394 483 174 L481 159 C471 92 424 49 356 49 L234 49 C166 49 131 92 141 159 L143 171 C144 178 140 182 133 182 L96 182 C89 182 85 178 84 171 L80 143 C68 62 130 -5 215 -5 L269 -5 L230 -63 C227 -67 226 -73 226 -73 L223 -96 C222 -100 225 -103 229 -103 L278 -103 C278 -103 313 -103 309 -133 C305 -161 270 -161 270 -161 L216 -161 C212 -161 209 -163 208 -168 L205 -188 C205 -192 207 -195 211 -195 L276 -195 C316 -195 338 -179 346 -127 C351 -88 320 -69 280 -69 L268 -69 L309 -5 L362 -5 C447 -5 526 62 538 143 L540 162 C581 452 160 296 191 519 L191 519 Z " />
<glyph glyph-name="scedilla" unicode="&#x15f;" horiz-adv-x="515" d="M197 -96 C196 -100 199 -103 203 -103 L252 -103 C252 -103 287 -103 283 -133 C279 -161 244 -161 244 -161 L190 -161 C186 -161 183 -163 182 -168 L179 -188 C179 -192 181 -195 185 -195 L250 -195 C290 -195 312 -179 320 -127 C325 -88 294 -69 254 -69 L242 -69 L283 -5 L319 -5 C403 -5 462 51 471 119 L473 133 C501 334 161 250 179 379 L180 389 C188 445 238 466 286 466 L361 466 C409 466 449 421 442 374 L440 361 C439 354 443 350 450 350 L487 350 C494 350 498 354 499 361 L502 384 C512 450 467 520 386 520 L274 520 C192 520 132 464 122 396 L121 389 C93 191 432 270 414 141 L413 131 C405 75 354 49 307 49 L224 49 C176 49 137 94 143 141 L145 154 C146 161 143 165 136 165 L99 165 C92 165 87 161 86 154 L83 131 C74 65 119 -5 200 -5 L242 -5 L204 -63 C201 -67 200 -73 200 -73 L197 -96 Z " />
<glyph glyph-name="Scaron" unicode="&#x160;" horiz-adv-x="583" d="M481 159 C471 92 424 49 356 49 L234 49 C166 49 131 92 141 159 L143 171 C144 178 140 182 133 182 L96 182 C89 182 85 178 84 171 L80 143 C68 62 130 -5 215 -5 L362 -5 C447 -5 526 62 538 143 L540 162 C581 452 160 296 191 519 L195 541 C204 608 251 651 319 651 L429 651 C497 651 532 608 523 541 L521 529 C520 522 523 518 530 518 L567 518 C574 518 579 522 580 529 L584 557 C595 638 534 705 449 705 L314 705 C229 705 149 638 138 557 L134 532 C93 235 514 394 483 174 L481 159 Z M357 751 C351 751 348 755 346 762 L302 886 C303 891 306 894 311 894 L349 894 C352 894 355 890 356 886 L391 791 L452 886 C455 890 458 894 461 894 L499 894 C504 894 507 891 506 886 L428 762 C424 755 419 751 413 751 L357 751 Z " />
<glyph glyph-name="scaron" unicode="&#x161;" horiz-adv-x="515" d="M274 520 C192 520 132 464 122 396 L121 389 C93 191 432 270 414 141 L413 131 C405 75 354 49 307 49 L224 49 C176 49 137 94 143 141 L145 154 C146 161 143 165 136 165 L99 165 C92 165 87 161 86 154 L83 131 C74 65 119 -5 200 -5 L319 -5 C403 -5 462 51 471 119 L473 133 C501 334 161 250 179 379 L180 389 C188 445 238 466 286 466 L361 466 C409 466 449 421 442 374 L440 361 C439 354 443 350 450 350 L487 350 C494 350 498 354 499 361 L502 384 C512 450 467 520 386 520 L274 520 Z M367 571 C373 571 377 575 381 582 L460 706 C460 711 458 714 453 714 L415 714 C412 714 408 710 406 706 L344 611 L310 706 C308 710 306 714 303 714 L265 714 C260 714 256 711 256 706 L299 582 C301 575 305 571 311 571 L367 571 Z " />
<glyph glyph-name="uni0162" unicode="&#x162;" horiz-adv-x="557" d="M296 0 C296 0 330 1 325 -32 C321 -59 286 -59 286 -59 L232 -59 C228 -59 225 -61 224 -66 L221 -86 C221 -90 223 -93 227 -93 L275 -93 C321 -93 353 -83 360 -31 C365 0 347 30 312 34 L398 646 L581 646 C588 646 593 650 594 657 L598 689 C599 696 596 700 589 700 L164 700 C157 700 152 696 151 689 L147 657 C146 650 149 646 156 646 L339 646 L250 11 C249 4 253 0 260 0 L296 0 Z " />
<glyph glyph-name="uni0163" unicode="&#x163;" horiz-adv-x="416" d="M177 -89 C176 -93 179 -96 183 -96 L232 -96 C232 -96 267 -96 263 -126 C259 -154 224 -154 224 -154 L170 -154 C166 -154 163 -156 162 -161 L159 -181 C158 -185 161 -188 165 -188 L230 -188 C270 -188 292 -172 300 -120 C305 -81 274 -62 234 -62 L222 -62 L263 4 C274 1 285 0 297 0 L355 0 C362 0 366 4 367 11 L372 43 C373 50 369 54 362 54 L324 54 C279 54 235 96 242 144 L286 461 L419 461 C426 461 431 465 432 472 L436 504 C437 511 434 515 427 515 L294 515 L318 689 C319 696 316 700 309 700 L272 700 C265 700 260 696 259 689 L235 515 L128 515 C121 515 116 511 115 504 L111 472 C110 465 113 461 120 461 L227 461 L183 144 C176 94 193 44 231 18 L184 -56 C181 -60 180 -66 180 -66 L177 -89 Z " />
<glyph glyph-name="Tcaron" unicode="&#x164;" horiz-adv-x="557" d="M164 700 C157 700 152 696 151 689 L147 657 C146 650 149 646 156 646 L339 646 L250 11 C249 4 253 0 260 0 L297 0 C304 0 308 4 309 11 L398 646 L581 646 C588 646 593 650 594 657 L598 689 C599 696 596 700 589 700 L164 700 Z M411 751 C417 751 422 755 426 762 L504 886 C505 891 502 894 497 894 L459 894 C456 894 453 890 450 886 L389 791 L354 886 C353 890 350 894 347 894 L309 894 C304 894 301 891 300 886 L344 762 C346 755 349 751 355 751 L411 751 Z " />
<glyph glyph-name="tcaron" unicode="&#x165;" horiz-adv-x="569" d="M355 0 C362 0 366 4 367 11 L372 43 C373 50 369 54 362 54 L324 54 C279 54 235 96 242 144 L286 461 L419 461 C426 461 431 465 432 472 L436 504 C437 511 434 515 427 515 L294 515 L318 689 C319 696 316 700 309 700 L272 700 C265 700 260 696 259 689 L235 515 L128 515 C121 515 116 511 115 504 L111 472 C110 465 113 461 120 461 L227 461 L183 144 C172 71 215 0 297 0 L355 0 Z M549 574 C556 574 560 578 565 586 L625 688 C626 696 623 700 616 700 L579 700 C572 700 568 696 563 688 L503 586 C502 578 505 574 513 574 L549 574 Z " />
<glyph glyph-name="Tbar" unicode="&#x166;" horiz-adv-x="557" d="M473 301 C480 301 484 305 485 312 L490 344 C491 351 487 355 480 355 L357 355 L398 646 L581 646 C588 646 593 650 594 657 L598 689 C599 696 596 700 589 700 L164 700 C157 700 152 696 151 689 L147 657 C146 650 149 646 156 646 L339 646 L298 355 L175 355 C168 355 164 351 163 344 L158 312 C157 305 161 301 168 301 L291 301 L250 11 C249 4 253 0 260 0 L297 0 C304 0 308 4 309 11 L350 301 L473 301 Z " />
<glyph glyph-name="tbar" unicode="&#x167;" horiz-adv-x="416" d="M98 301 C91 301 86 297 85 290 L81 258 C80 251 83 247 90 247 L197 247 L183 144 C172 71 215 0 297 0 L355 0 C362 0 366 4 367 11 L372 43 C373 50 369 54 362 54 L324 54 C279 54 235 96 242 144 L256 247 L389 247 C396 247 401 251 402 258 L406 290 C407 297 404 301 397 301 L264 301 L286 461 L419 461 C426 461 431 465 432 472 L436 504 C437 511 434 515 427 515 L294 515 L318 689 C319 696 316 700 309 700 L272 700 C265 700 260 696 259 689 L235 515 L128 515 C121 515 116 511 115 504 L111 472 C110 465 113 461 120 461 L227 461 L205 301 L98 301 Z " />
<glyph glyph-name="Utilde" unicode="&#x168;" horiz-adv-x="627" d="M638 689 C639 696 636 700 629 700 L592 700 C585 700 580 696 579 689 L505 160 C496 93 448 49 380 49 L259 49 C191 49 157 93 166 160 L240 689 C241 696 238 700 231 700 L194 700 C187 700 182 696 181 689 L105 144 C93 62 154 -5 239 -5 L386 -5 C471 -5 550 62 562 144 L638 689 Z M495 751 C505 751 522 757 539 764 C543 766 546 770 546 774 L542 805 C541 809 538 811 534 811 C523 811 514 805 499 805 C440 805 401 849 345 849 C335 849 318 843 301 836 C297 834 294 830 294 826 L298 795 C299 791 301 789 305 789 C316 789 326 795 341 795 C398 795 439 751 495 751 L495 751 Z " />
<glyph glyph-name="utilde" unicode="&#x169;" horiz-adv-x="544" d="M534 504 C535 511 532 515 525 515 L488 515 C481 515 476 511 475 504 L424 141 C418 94 364 49 317 49 L239 49 C192 49 152 94 158 141 L209 504 C210 511 207 515 200 515 L163 515 C156 515 151 511 150 504 L98 131 C89 65 131 -5 212 -5 L330 -5 C411 -5 473 65 482 131 L534 504 Z M428 571 C438 571 455 577 472 584 C476 586 478 590 479 594 L474 625 C474 629 471 631 467 631 C456 631 446 625 431 625 C372 625 334 669 278 669 C268 669 251 663 234 656 C229 654 227 650 226 646 L231 615 C231 611 234 609 238 609 C249 609 259 615 274 615 C331 615 372 571 428 571 L428 571 Z " />
<glyph glyph-name="Umacron" unicode="&#x16a;" horiz-adv-x="627" d="M638 689 C639 696 636 700 629 700 L592 700 C585 700 580 696 579 689 L505 160 C496 93 448 49 380 49 L259 49 C191 49 157 93 166 160 L240 689 C241 696 238 700 231 700 L194 700 C187 700 182 696 181 689 L105 144 C93 62 154 -5 239 -5 L386 -5 C471 -5 550 62 562 144 L638 689 Z M521 751 C528 751 533 755 534 762 L538 794 C539 801 536 805 529 805 L323 805 C316 805 311 801 310 794 L306 762 C305 755 308 751 315 751 L521 751 Z " />
<glyph glyph-name="umacron" unicode="&#x16b;" horiz-adv-x="544" d="M534 504 C535 511 532 515 525 515 L488 515 C481 515 476 511 475 504 L424 141 C418 94 364 49 317 49 L239 49 C192 49 152 94 158 141 L209 504 C210 511 207 515 200 515 L163 515 C156 515 151 511 150 504 L98 131 C89 65 131 -5 212 -5 L330 -5 C411 -5 473 65 482 131 L534 504 Z M455 571 C462 571 466 575 467 582 L472 614 C473 621 469 625 462 625 L256 625 C249 625 245 621 244 614 L239 582 C238 575 242 571 249 571 L455 571 Z " />
<glyph glyph-name="Ubreve" unicode="&#x16c;" horiz-adv-x="627" d="M638 689 C639 696 636 700 629 700 L592 700 C585 700 580 696 579 689 L505 160 C496 93 448 49 380 49 L259 49 C191 49 157 93 166 160 L240 689 C241 696 238 700 231 700 L194 700 C187 700 182 696 181 689 L105 144 C93 62 154 -5 239 -5 L386 -5 C471 -5 550 62 562 144 L638 689 Z M419 751 C495 751 555 788 585 858 C586 863 582 867 577 867 L535 867 C530 867 527 863 524 858 C499 808 465 799 426 799 C387 799 355 808 344 858 C343 863 340 867 335 867 L293 867 C288 867 284 863 283 858 C293 788 343 751 419 751 L419 751 Z " />
<glyph glyph-name="ubreve" unicode="&#x16d;" horiz-adv-x="544" d="M534 504 C535 511 532 515 525 515 L488 515 C481 515 476 511 475 504 L424 141 C418 94 364 49 317 49 L239 49 C192 49 152 94 158 141 L209 504 C210 511 207 515 200 515 L163 515 C156 515 151 511 150 504 L98 131 C89 65 131 -5 212 -5 L330 -5 C411 -5 473 65 482 131 L534 504 Z M352 571 C428 571 488 608 518 678 C518 683 515 687 510 687 L468 687 C463 687 459 683 457 678 C432 628 397 619 358 619 C319 619 288 628 277 678 C275 683 273 687 268 687 L226 687 C221 687 216 683 216 678 C226 608 276 571 352 571 L352 571 Z " />
<glyph glyph-name="Uring" unicode="&#x16e;" horiz-adv-x="627" d="M638 689 C639 696 636 700 629 700 L592 700 C585 700 580 696 579 689 L505 160 C496 93 448 49 380 49 L259 49 C191 49 157 93 166 160 L240 689 C241 696 238 700 231 700 L194 700 C187 700 182 696 181 689 L105 144 C93 62 154 -5 239 -5 L386 -5 C471 -5 550 62 562 144 L638 689 Z M545 834 C554 898 510 949 446 949 C382 949 324 898 315 834 C306 770 350 719 414 719 C478 719 536 770 545 834 L545 834 Z M497 834 C491 795 458 767 420 767 C383 767 358 795 364 834 C369 873 402 901 439 901 C477 901 502 873 497 834 L497 834 Z " />
<glyph glyph-name="uring" unicode="&#x16f;" horiz-adv-x="544" d="M534 504 C535 511 532 515 525 515 L488 515 C481 515 476 511 475 504 L424 141 C418 94 364 49 317 49 L239 49 C192 49 152 94 158 141 L209 504 C210 511 207 515 200 515 L163 515 C156 515 151 511 150 504 L98 131 C89 65 131 -5 212 -5 L330 -5 C411 -5 473 65 482 131 L534 504 Z M483 686 C492 750 448 801 384 801 C320 801 262 750 253 686 C244 622 288 571 352 571 C416 571 474 622 483 686 L483 686 Z M435 686 C429 647 396 619 358 619 C321 619 296 647 302 686 C307 725 340 753 377 753 C415 753 440 725 435 686 L435 686 Z " />
<glyph glyph-name="Uhungarumlaut" unicode="&#x170;" horiz-adv-x="627" d="M638 689 C639 696 636 700 629 700 L592 700 C585 700 580 696 579 689 L505 160 C496 93 448 49 380 49 L259 49 C191 49 157 93 166 160 L240 689 C241 696 238 700 231 700 L194 700 C187 700 182 696 181 689 L105 144 C93 62 154 -5 239 -5 L386 -5 C471 -5 550 62 562 144 L638 689 Z M366 751 C373 751 377 755 382 763 L440 856 C441 864 437 868 430 868 L399 868 C392 868 389 864 384 856 L326 763 C325 755 328 751 336 751 L366 751 Z M497 751 C504 751 508 755 513 763 L571 856 C572 864 568 868 561 868 L530 868 C523 868 520 864 515 856 L457 763 C456 755 459 751 467 751 L497 751 Z " />
<glyph glyph-name="uhungarumlaut" unicode="&#x171;" horiz-adv-x="544" d="M534 504 C535 511 532 515 525 515 L488 515 C481 515 476 511 475 504 L424 141 C418 94 364 49 317 49 L239 49 C192 49 152 94 158 141 L209 504 C210 511 207 515 200 515 L163 515 C156 515 151 511 150 504 L98 131 C89 65 131 -5 212 -5 L330 -5 C411 -5 473 65 482 131 L534 504 Z M314 571 C321 571 324 575 329 583 L388 676 C389 684 385 688 378 688 L347 688 C340 688 337 684 332 676 L273 583 C272 575 276 571 284 571 L314 571 Z M445 571 C452 571 455 575 460 583 L519 676 C520 684 516 688 509 688 L478 688 C471 688 468 684 463 676 L404 583 C403 575 407 571 415 571 L445 571 Z " />
<glyph glyph-name="Uogonek" unicode="&#x172;" horiz-adv-x="627" d="M250 -96 C249 -100 252 -103 256 -103 L305 -103 C305 -103 340 -103 336 -133 C332 -161 297 -161 297 -161 L243 -161 C239 -161 236 -163 235 -168 L232 -188 C232 -192 234 -195 238 -195 L303 -195 C343 -195 365 -179 373 -127 C378 -88 347 -69 307 -69 L295 -69 L336 -5 L386 -5 C471 -5 550 62 562 144 L638 689 C639 696 636 700 629 700 L592 700 C585 700 580 696 579 689 L505 160 C496 93 448 49 380 49 L259 49 C191 49 157 93 166 160 L240 689 C241 696 238 700 231 700 L194 700 C187 700 182 696 181 689 L105 144 C93 62 154 -5 239 -5 L295 -5 L257 -63 C254 -67 253 -73 253 -73 L250 -96 Z " />
<glyph glyph-name="uogonek" unicode="&#x173;" horiz-adv-x="544" d="M278 -96 L291 -5 L330 -5 C411 -5 473 65 482 131 L534 504 C535 511 532 515 525 515 L488 515 C481 515 476 511 475 504 L424 141 C418 94 364 49 317 49 L239 49 C192 49 152 94 158 141 L209 504 C210 511 207 515 200 515 L163 515 C156 515 151 511 150 504 L98 131 C89 65 131 -5 212 -5 L250 -5 L241 -69 L229 -69 C189 -69 152 -88 147 -127 C139 -179 157 -195 197 -195 L262 -195 C266 -195 270 -192 270 -188 L273 -168 C274 -163 271 -161 267 -161 L213 -161 C213 -161 178 -161 182 -133 C186 -103 221 -103 221 -103 L270 -103 C274 -103 277 -100 278 -96 L278 -96 Z " />
<glyph glyph-name="Ydieresis" unicode="&#x178;" horiz-adv-x="581" d="M335 299 L330 299 L202 689 C200 696 199 700 192 700 L149 700 C142 700 137 696 136 689 L291 216 L262 11 C261 4 265 0 272 0 L309 0 C316 0 320 4 321 11 L350 216 L637 689 C638 696 635 700 628 700 L585 700 C578 700 575 696 571 689 L335 299 Z M296 762 C295 755 298 751 305 751 L351 751 C358 751 363 755 364 762 L370 811 C371 818 368 822 361 822 L315 822 C308 822 303 818 302 811 L296 762 Z M430 762 C429 755 432 751 439 751 L485 751 C492 751 497 755 498 762 L504 811 C505 818 502 822 495 822 L449 822 C442 822 437 818 436 811 L430 762 Z " />
<glyph glyph-name="Zacute" unicode="&#x179;" horiz-adv-x="548" d="M146 54 L572 652 C573 654 575 657 575 659 L579 689 C580 696 577 700 570 700 L174 700 C167 700 162 696 161 689 L157 657 C156 650 159 646 166 646 L500 646 L73 48 C72 46 71 43 70 41 L66 11 C65 4 69 0 76 0 L472 0 C479 0 483 4 484 11 L489 43 C490 50 486 54 479 54 L146 54 Z M404 751 C411 751 415 755 420 763 L480 865 C481 873 478 877 471 877 L434 877 C427 877 423 873 418 865 L358 763 C357 755 360 751 368 751 L404 751 Z " />
<glyph glyph-name="zacute" unicode="&#x17a;" horiz-adv-x="477" d="M141 54 L479 460 C480 462 482 465 482 467 L487 504 C488 511 485 515 478 515 L143 515 C136 515 131 511 130 504 L126 472 C125 465 128 461 135 461 L408 461 L69 54 C68 52 66 49 66 47 L61 11 C60 4 64 0 71 0 L406 0 C413 0 417 4 418 11 L423 43 C424 50 420 54 413 54 L141 54 Z M338 571 C345 571 348 575 353 583 L414 685 C415 693 411 697 404 697 L367 697 C360 697 357 693 352 685 L291 583 C290 575 294 571 302 571 L338 571 Z " />
<glyph glyph-name="Zdotaccent" unicode="&#x17b;" horiz-adv-x="548" d="M146 54 L572 652 C573 654 575 657 575 659 L579 689 C580 696 577 700 570 700 L174 700 C167 700 162 696 161 689 L157 657 C156 650 159 646 166 646 L500 646 L73 48 C72 46 71 43 70 41 L66 11 C65 4 69 0 76 0 L472 0 C479 0 483 4 484 11 L489 43 C490 50 486 54 479 54 L146 54 Z M347 762 C346 755 349 751 356 751 L402 751 C409 751 414 755 415 762 L421 811 C422 818 419 822 412 822 L366 822 C359 822 354 818 353 811 L347 762 Z " />
<glyph glyph-name="zdotaccent" unicode="&#x17c;" horiz-adv-x="477" d="M141 54 L479 460 C480 462 482 465 482 467 L487 504 C488 511 485 515 478 515 L143 515 C136 515 131 511 130 504 L126 472 C125 465 128 461 135 461 L408 461 L69 54 C68 52 66 49 66 47 L61 11 C60 4 64 0 71 0 L406 0 C413 0 417 4 418 11 L423 43 C424 50 420 54 413 54 L141 54 Z M285 582 C284 575 288 571 295 571 L341 571 C348 571 352 575 353 582 L360 631 C361 638 358 642 351 642 L305 642 C298 642 293 638 292 631 L285 582 Z " />
<glyph glyph-name="Zcaron" unicode="&#x17d;" horiz-adv-x="548" d="M146 54 L572 652 C573 654 575 657 575 659 L579 689 C580 696 577 700 570 700 L174 700 C167 700 162 696 161 689 L157 657 C156 650 159 646 166 646 L500 646 L73 48 C72 46 71 43 70 41 L66 11 C65 4 69 0 76 0 L472 0 C479 0 483 4 484 11 L489 43 C490 50 486 54 479 54 L146 54 Z M410 751 C416 751 421 755 425 762 L503 886 C504 891 501 894 496 894 L458 894 C455 894 452 890 449 886 L388 791 L353 886 C352 890 349 894 346 894 L308 894 C303 894 300 891 299 886 L343 762 C345 755 348 751 354 751 L410 751 Z " />
<glyph glyph-name="zcaron" unicode="&#x17e;" horiz-adv-x="477" d="M141 54 L479 460 C480 462 482 465 482 467 L487 504 C488 511 485 515 478 515 L143 515 C136 515 131 511 130 504 L126 472 C125 465 128 461 135 461 L408 461 L69 54 C68 52 66 49 66 47 L61 11 C60 4 64 0 71 0 L406 0 C413 0 417 4 418 11 L423 43 C424 50 420 54 413 54 L141 54 Z M346 571 C352 571 356 575 360 582 L439 706 C439 711 437 714 432 714 L394 714 C391 714 387 710 385 706 L323 611 L289 706 C287 710 285 714 282 714 L244 714 C239 714 235 711 235 706 L278 582 C280 575 284 571 290 571 L346 571 Z " />
<glyph glyph-name="florin" unicode="&#x192;" horiz-adv-x="406" d="M469 646 C476 646 481 650 482 657 L486 689 C487 696 484 700 477 700 L430 700 C352 700 299 622 275 558 L246 480 L131 480 C124 480 119 476 118 469 L114 437 C113 430 116 426 123 426 L223 426 L-16 -170 C-17 -177 -14 -181 -7 -181 L30 -181 C37 -181 41 -177 44 -170 L281 426 L401 426 C408 426 413 430 414 437 L418 469 C419 476 416 480 409 480 L308 480 L337 565 C351 605 394 646 442 646 L469 646 Z " />
<glyph glyph-name="uni0218" unicode="&#x218;" horiz-adv-x="583" d="M481 159 C471 92 424 49 356 49 L234 49 C166 49 131 92 141 159 L143 171 C144 178 140 182 133 182 L96 182 C89 182 85 178 84 171 L80 143 C68 62 130 -5 215 -5 L362 -5 C447 -5 526 62 538 143 L540 162 C581 452 160 296 191 519 L195 541 C204 608 251 651 319 651 L429 651 C497 651 532 608 523 541 L521 529 C520 522 523 518 530 518 L567 518 C574 518 579 522 580 529 L584 557 C595 638 534 705 449 705 L314 705 C229 705 149 638 138 557 L134 532 C93 235 514 394 483 174 L481 159 Z M234 -179 C241 -179 245 -175 250 -167 L310 -65 C311 -57 308 -53 301 -53 L264 -53 C257 -53 253 -57 248 -65 L188 -167 C187 -175 190 -179 198 -179 L234 -179 Z " />
<glyph glyph-name="uni0219" unicode="&#x219;" horiz-adv-x="515" d="M274 520 C192 520 132 464 122 396 L121 389 C93 191 432 270 414 141 L413 131 C405 75 354 49 307 49 L224 49 C176 49 137 94 143 141 L145 154 C146 161 143 165 136 165 L99 165 C92 165 87 161 86 154 L83 131 C74 65 119 -5 200 -5 L319 -5 C403 -5 462 51 471 119 L473 133 C501 334 161 250 179 379 L180 389 C188 445 238 466 286 466 L361 466 C409 466 449 421 442 374 L440 361 C439 354 443 350 450 350 L487 350 C494 350 498 354 499 361 L502 384 C512 450 467 520 386 520 L274 520 Z M210 -179 C217 -179 221 -175 226 -167 L286 -65 C287 -57 284 -53 277 -53 L240 -53 C233 -53 229 -57 224 -65 L164 -167 C163 -175 166 -179 174 -179 L210 -179 Z " />
<glyph glyph-name="uni021A" unicode="&#x21a;" horiz-adv-x="557" d="M164 700 C157 700 152 696 151 689 L147 657 C146 650 149 646 156 646 L339 646 L250 11 C249 4 253 0 260 0 L297 0 C304 0 308 4 309 11 L398 646 L581 646 C588 646 593 650 594 657 L598 689 C599 696 596 700 589 700 L164 700 Z M219 -179 C226 -179 230 -175 235 -167 L295 -65 C296 -57 293 -53 286 -53 L249 -53 C242 -53 238 -57 233 -65 L173 -167 C172 -175 175 -179 183 -179 L219 -179 Z " />
<glyph glyph-name="uni021B" unicode="&#x21b;" horiz-adv-x="416" d="M355 0 C362 0 366 4 367 11 L372 43 C373 50 369 54 362 54 L324 54 C279 54 235 96 242 144 L286 461 L419 461 C426 461 431 465 432 472 L436 504 C437 511 434 515 427 515 L294 515 L318 689 C319 696 316 700 309 700 L272 700 C265 700 260 696 259 689 L235 515 L128 515 C121 515 116 511 115 504 L111 472 C110 465 113 461 120 461 L227 461 L183 144 C172 71 215 0 297 0 L355 0 Z M222 -179 C229 -179 233 -175 238 -167 L298 -65 C299 -57 296 -53 289 -53 L252 -53 C245 -53 241 -57 236 -65 L176 -167 C175 -175 178 -179 186 -179 L222 -179 Z " />
<glyph glyph-name="circumflex" unicode="&#x2c6;" horiz-adv-x="384" d="M262 700 C256 700 251 696 247 689 L169 565 C168 560 171 557 176 557 L214 557 C217 557 220 561 223 565 L284 660 L319 565 C320 561 323 557 326 557 L364 557 C369 557 372 560 373 565 L329 689 C327 696 324 700 318 700 L262 700 Z " />
<glyph glyph-name="caron" unicode="&#x2c7;" horiz-adv-x="384" d="M298 557 C304 557 308 561 312 568 L391 692 C391 697 389 700 384 700 L346 700 C343 700 339 696 337 692 L275 597 L241 692 C239 696 237 700 234 700 L196 700 C191 700 187 697 187 692 L230 568 C232 561 236 557 242 557 L298 557 Z " />
<glyph glyph-name="breve" unicode="&#x2d8;" horiz-adv-x="482" d="M323 584 C399 584 459 621 489 691 C489 696 486 700 481 700 L439 700 C434 700 430 696 428 691 C403 641 368 632 329 632 C290 632 259 641 248 691 C246 696 244 700 239 700 L197 700 C192 700 187 696 187 691 C197 621 247 584 323 584 L323 584 Z " />
<glyph glyph-name="dotaccent" unicode="&#x2d9;" horiz-adv-x="248" d="M179 640 C178 633 182 629 189 629 L235 629 C242 629 246 633 247 640 L254 689 C255 696 252 700 245 700 L199 700 C192 700 187 696 186 689 L179 640 Z " />
<glyph glyph-name="ring" unicode="&#x2da;" horiz-adv-x="410" d="M409 636 C418 700 374 751 310 751 C246 751 188 700 179 636 C170 572 214 521 278 521 C342 521 400 572 409 636 L409 636 Z M361 636 C355 597 322 569 284 569 C247 569 222 597 228 636 C233 675 266 703 303 703 C341 703 366 675 361 636 L361 636 Z " />
<glyph glyph-name="ogonek" unicode="&#x2db;" horiz-adv-x="312" d="M183 1 C179 1 176 0 175 -6 L166 -69 L154 -69 C114 -69 77 -88 72 -127 C64 -179 82 -195 122 -195 L187 -195 C191 -195 195 -192 195 -188 L198 -168 C199 -163 196 -161 192 -161 L138 -161 C138 -161 103 -161 107 -133 C111 -103 146 -103 146 -103 L195 -103 C199 -103 202 -100 203 -96 L216 -6 C217 0 214 1 210 1 L183 1 Z " />
<glyph glyph-name="tilde" unicode="&#x2dc;" horiz-adv-x="440" d="M386 602 C396 602 413 608 430 615 C434 617 437 621 437 625 L433 656 C432 660 430 662 426 662 C415 662 405 656 390 656 C331 656 292 700 236 700 C226 700 209 694 192 687 C188 685 185 681 185 677 L189 646 C190 642 192 640 196 640 C207 640 217 646 232 646 C289 646 330 602 386 602 L386 602 Z " />
<glyph glyph-name="hungarumlaut" unicode="&#x2dd;" horiz-adv-x="412" d="M213 583 C220 583 224 587 229 595 L287 688 C288 696 285 700 278 700 L247 700 C240 700 236 696 231 688 L173 595 C172 587 175 583 183 583 L213 583 Z M344 583 C351 583 355 587 360 595 L418 688 C419 696 416 700 409 700 L378 700 C371 700 367 696 362 688 L304 595 C303 587 306 583 314 583 L344 583 Z " />
<glyph glyph-name="uni03A9" unicode="&#x3a9;" horiz-adv-x="773" d="M414 700 C326 700 245 633 234 551 L180 167 C178 152 173 99 196 54 L108 54 C101 54 97 50 96 43 L91 11 C90 4 94 0 101 0 L249 0 C256 0 260 4 261 11 L268 59 C268 60 269 65 265 67 C229 84 236 144 239 170 L291 535 C299 594 358 646 414 646 L539 646 C595 646 640 594 632 535 L580 170 C577 144 566 84 526 67 C522 65 521 60 521 59 L514 11 C513 4 517 0 524 0 L672 0 C679 0 683 4 684 11 L689 43 C690 50 686 54 679 54 L591 54 C626 99 637 152 639 167 L693 551 C704 633 643 700 555 700 L414 700 Z " />
<glyph glyph-name="pi" unicode="&#x3c0;" horiz-adv-x="806" d="M173 515 C166 515 161 511 160 504 L156 472 C155 465 158 461 165 461 L293 461 L230 11 C229 4 233 0 240 0 L277 0 C284 0 288 4 289 11 L352 461 L582 461 L519 11 C518 4 522 0 529 0 L566 0 C573 0 577 4 578 11 L641 461 L769 461 C776 461 781 465 782 472 L786 504 C787 511 784 515 777 515 L173 515 Z " />
<glyph glyph-name="ZWSP" unicode="&#x200b;" d="" />
<glyph glyph-name="endash" unicode="&#x2013;" horiz-adv-x="408" d="M336 209 C343 209 347 213 348 220 L353 252 C354 259 350 263 343 263 L137 263 C130 263 126 259 125 252 L120 220 C119 213 123 209 130 209 L336 209 Z " />
<glyph glyph-name="emdash" unicode="&#x2014;" horiz-adv-x="468" d="M396 209 C403 209 407 213 408 220 L413 252 C414 259 410 263 403 263 L137 263 C130 263 126 259 125 252 L120 220 C119 213 123 209 130 209 L396 209 Z " />
<glyph glyph-name="quoteleft" unicode="&#x2018;" horiz-adv-x="267" d="M213 583 C220 583 224 587 229 595 L273 688 C274 696 271 700 264 700 L233 700 C226 700 222 696 217 688 L173 595 C172 587 175 583 183 583 L213 583 Z " />
<glyph glyph-name="quoteright" unicode="&#x2019;" horiz-adv-x="267" d="M233 700 C226 700 222 696 217 688 L173 595 C172 587 175 583 182 583 L213 583 C220 583 224 587 229 595 L273 688 C274 696 271 700 263 700 L233 700 Z " />
<glyph glyph-name="quotesinglbase" unicode="&#x201a;" horiz-adv-x="267" d="M146 82 C139 82 135 78 130 70 L86 -23 C85 -31 89 -35 96 -35 L127 -35 C134 -35 137 -31 142 -23 L186 70 C187 78 184 82 176 82 L146 82 Z " />
<glyph glyph-name="quotedblleft" unicode="&#x201c;" horiz-adv-x="383" d="M213 583 C220 583 224 587 229 595 L273 688 C274 696 271 700 264 700 L233 700 C226 700 222 696 217 688 L173 595 C172 587 175 583 183 583 L213 583 Z M329 583 C336 583 340 587 345 595 L389 688 C390 696 387 700 380 700 L349 700 C342 700 338 696 333 688 L289 595 C288 587 291 583 299 583 L329 583 Z " />
<glyph glyph-name="quotedblright" unicode="&#x201d;" horiz-adv-x="383" d="M349 700 C342 700 338 696 333 688 L289 595 C288 587 291 583 298 583 L329 583 C336 583 340 587 345 595 L389 688 C390 696 387 700 379 700 L349 700 Z M233 700 C226 700 222 696 217 688 L173 595 C172 587 175 583 182 583 L213 583 C220 583 224 587 229 595 L273 688 C274 696 271 700 263 700 L233 700 Z " />
<glyph glyph-name="quotedblbase" unicode="&#x201e;" horiz-adv-x="383" d="M262 82 C255 82 251 78 246 70 L202 -23 C201 -31 205 -35 212 -35 L243 -35 C250 -35 253 -31 258 -23 L302 70 C303 78 300 82 292 82 L262 82 Z M146 82 C139 82 135 78 130 70 L86 -23 C85 -31 89 -35 96 -35 L127 -35 C134 -35 137 -31 142 -23 L186 70 C187 78 184 82 176 82 L146 82 Z " />
<glyph glyph-name="dagger" unicode="&#x2020;" horiz-adv-x="503" d="M176 540 C169 540 165 536 164 529 L159 497 C158 490 162 486 169 486 L290 486 L185 -257 C184 -264 188 -268 195 -268 L232 -268 C239 -268 243 -264 244 -257 L349 486 L470 486 C477 486 481 490 482 497 L487 529 C488 536 484 540 477 540 L356 540 L377 689 C378 696 375 700 368 700 L331 700 C324 700 319 696 318 689 L297 540 L176 540 Z " />
<glyph glyph-name="daggerdbl" unicode="&#x2021;" horiz-adv-x="503" d="M99 -13 C92 -13 87 -17 86 -24 L82 -56 C81 -63 84 -67 91 -67 L212 -67 L185 -257 C184 -264 188 -268 195 -268 L232 -268 C239 -268 243 -264 244 -257 L271 -67 L392 -67 C399 -67 404 -63 405 -56 L409 -24 C410 -17 407 -13 400 -13 L279 -13 L349 486 L470 486 C477 486 481 490 482 497 L487 529 C488 536 484 540 477 540 L356 540 L377 689 C378 696 375 700 368 700 L331 700 C324 700 319 696 318 689 L297 540 L176 540 C169 540 165 536 164 529 L159 497 C158 490 162 486 169 486 L290 486 L220 -13 L99 -13 Z " />
<glyph glyph-name="bullet" unicode="&#x2022;" horiz-adv-x="248" d="M117 194 C116 187 119 183 126 183 L172 183 C179 183 184 187 185 194 L192 243 C193 250 189 254 182 254 L136 254 C129 254 125 250 124 243 L117 194 Z " />
<glyph glyph-name="ellipsis" unicode="&#x2026;" horiz-adv-x="898" d="M90 6 C89 -1 93 -5 100 -5 L146 -5 C153 -5 157 -1 158 6 L165 55 C166 62 163 66 156 66 L110 66 C103 66 98 62 97 55 L90 6 Z M415 6 C414 -1 418 -5 425 -5 L471 -5 C478 -5 482 -1 483 6 L490 55 C491 62 488 66 481 66 L435 66 C428 66 423 62 422 55 L415 6 Z M740 6 C739 -1 743 -5 750 -5 L796 -5 C803 -5 807 -1 808 6 L815 55 C816 62 813 66 806 66 L760 66 C753 66 748 62 747 55 L740 6 Z " />
<glyph glyph-name="perthousand" unicode="&#x2030;" horiz-adv-x="1067" d="M303 700 C239 700 181 649 172 585 C163 521 206 469 270 469 C334 469 393 521 402 585 C411 649 367 700 303 700 L303 700 Z M277 519 C240 519 216 552 221 585 C226 624 259 652 296 652 C334 652 359 624 354 585 C349 552 315 519 277 519 L277 519 Z M224 9 C223 3 226 0 232 0 L272 0 C278 0 281 3 284 9 L668 691 C668 697 666 700 660 700 L620 700 C614 700 610 697 608 691 L224 9 Z M621 231 C557 231 499 180 490 116 C481 52 525 0 589 0 C653 0 711 52 720 116 C729 180 685 231 621 231 L621 231 Z M596 50 C559 50 534 83 539 116 C544 155 577 183 614 183 C652 183 677 155 672 116 C667 83 634 50 596 50 L596 50 Z M894 231 C830 231 772 180 763 116 C754 52 798 0 862 0 C926 0 984 52 993 116 C1002 180 958 231 894 231 L894 231 Z M869 50 C832 50 807 83 812 116 C817 155 850 183 887 183 C925 183 950 155 945 116 C940 83 907 50 869 50 L869 50 Z " />
<glyph glyph-name="guilsinglleft" unicode="&#x2039;" horiz-adv-x="450" d="M116 185 C115 178 116 175 124 172 L361 73 C365 73 370 76 371 82 L377 125 C378 132 373 135 370 137 L177 218 L178 224 L393 305 C398 307 403 310 404 317 L410 360 C411 366 406 369 402 369 L137 270 C129 267 127 264 126 257 L116 185 Z " />
<glyph glyph-name="guilsinglright" unicode="&#x203a;" horiz-adv-x="450" d="M396 257 C397 264 395 267 387 270 L150 369 C146 369 141 366 140 360 L134 317 C133 310 138 307 141 305 L334 224 L333 218 L118 137 C113 135 108 132 107 125 L101 82 C100 76 105 73 109 73 L374 172 C382 175 385 178 386 185 L396 257 Z " />
<glyph glyph-name="fraction" unicode="&#x2044;" horiz-adv-x="549" d="M66 -170 C65 -176 67 -179 73 -179 L113 -179 C119 -179 123 -176 126 -170 L570 795 C571 801 568 804 562 804 L522 804 C516 804 513 801 510 795 L66 -170 Z " />
<glyph glyph-name="Euro" unicode="&#x20ac;" horiz-adv-x="717" d="M339 229 C346 229 350 233 351 240 L356 272 C357 279 353 283 346 283 L268 283 L287 413 L365 413 C372 413 376 417 377 424 L382 456 C383 463 379 467 372 467 L294 467 L305 541 C314 608 361 651 429 651 L550 651 C618 651 653 608 644 541 L638 504 C637 497 641 493 648 493 L685 493 C692 493 696 497 697 504 L705 556 C716 638 656 705 571 705 L424 705 C339 705 259 638 248 556 L235 467 L166 467 C159 467 155 463 154 456 L149 424 C148 417 152 413 159 413 L228 413 L209 283 L140 283 C133 283 129 279 128 272 L123 240 C122 233 126 229 133 229 L202 229 L190 144 C178 62 239 -5 324 -5 L471 -5 C556 -5 635 62 647 144 L654 196 C655 203 652 207 645 207 L608 207 C601 207 596 203 595 196 L590 160 C581 93 533 49 465 49 L344 49 C276 49 242 93 251 160 L261 229 L339 229 Z " />
<glyph glyph-name="Numero" unicode="&#x2116;" horiz-adv-x="1159" d="M524 90 L277 689 C275 695 271 700 264 700 L199 700 C192 700 187 696 186 689 L91 11 C90 4 94 0 101 0 L138 0 C145 0 149 4 150 11 L234 610 L242 610 L490 11 C492 5 497 0 504 0 L568 0 C575 0 579 4 580 11 L675 689 C676 696 673 700 666 700 L629 700 C622 700 617 696 616 689 L532 90 L524 90 Z M960 175 C1041 175 1103 245 1112 311 L1148 564 C1157 630 1115 700 1034 700 L916 700 C835 700 773 630 764 564 L728 311 C719 245 761 175 842 175 L960 175 Z M1007 646 C1065 646 1094 604 1087 554 L1055 321 C1048 274 995 229 948 229 L870 229 C823 229 782 274 789 321 L821 554 C828 604 869 646 927 646 L1007 646 Z M979 0 C986 0 990 4 991 11 L996 43 C997 50 993 54 986 54 L780 54 C773 54 769 50 768 43 L763 11 C762 4 766 0 773 0 L979 0 Z " />
<glyph glyph-name="trademark" unicode="&#x2122;" horiz-adv-x="729" d="M218 424 C218 421 220 418 223 418 L262 418 C265 418 269 421 269 424 L301 654 L364 654 C367 654 371 657 371 660 L376 694 C376 697 374 700 371 700 L194 700 C191 700 187 697 187 694 L182 660 C182 657 184 654 187 654 L250 654 L218 424 Z M558 454 C560 454 561 455 564 458 L674 615 L647 424 C647 421 649 418 652 418 L691 418 C694 418 698 421 698 424 L736 694 C736 697 734 700 731 700 L684 700 C681 700 677 697 675 694 L565 537 L561 537 L495 694 C493 697 491 700 488 700 L441 700 C438 700 434 697 434 694 L396 424 C396 421 398 418 401 418 L440 418 C443 418 447 421 447 424 L474 615 L540 458 C541 455 542 454 544 454 L558 454 Z " />
<glyph glyph-name="Omega" unicode="&#x2126;" horiz-adv-x="773" d="M414 700 C326 700 245 633 234 551 L180 167 C178 152 173 99 196 54 L108 54 C101 54 97 50 96 43 L91 11 C90 4 94 0 101 0 L249 0 C256 0 260 4 261 11 L268 59 C268 60 269 65 265 67 C229 84 236 144 239 170 L291 535 C299 594 358 646 414 646 L539 646 C595 646 640 594 632 535 L580 170 C577 144 566 84 526 67 C522 65 521 60 521 59 L514 11 C513 4 517 0 524 0 L672 0 C679 0 683 4 684 11 L689 43 C690 50 686 54 679 54 L591 54 C626 99 637 152 639 167 L693 551 C704 633 643 700 555 700 L414 700 Z " />
<glyph glyph-name="partialdiff" unicode="&#x2202;" horiz-adv-x="579" d="M485 396 L478 396 C459 429 423 435 406 435 L292 435 C211 435 142 376 131 297 L108 133 C97 54 149 -5 230 -5 L344 -5 C361 -5 399 1 427 34 L434 34 L431 11 C430 4 434 0 441 0 L478 0 C485 0 489 4 490 11 L568 569 C578 635 536 705 455 705 L337 705 C256 705 194 635 184 569 L181 544 C180 537 183 533 190 533 L227 533 C234 533 239 537 240 544 L242 559 C249 609 290 651 348 651 L428 651 C486 651 515 609 508 559 L485 396 Z M388 381 C446 381 475 339 468 289 L447 141 C440 91 399 49 341 49 L248 49 C190 49 161 91 168 141 L189 289 C196 339 237 381 295 381 L388 381 Z " />
<glyph glyph-name="Delta" unicode="&#x2206;" horiz-adv-x="842" d="M676 54 L180 54 L511 641 L676 54 Z M740 0 C747 0 750 3 753 9 L561 690 C560 695 556 700 549 700 L489 700 C482 700 476 695 473 690 L91 9 C92 3 95 0 102 0 L740 0 Z " />
<glyph glyph-name="product" unicode="&#x220f;" horiz-adv-x="806" d="M199 700 C192 700 187 696 186 689 L182 657 C181 650 184 646 191 646 L319 646 L230 11 C229 4 233 0 240 0 L277 0 C284 0 288 4 289 11 L378 646 L608 646 L519 11 C518 4 522 0 529 0 L566 0 C573 0 577 4 578 11 L667 646 L795 646 C802 646 807 650 808 657 L812 689 C813 696 810 700 803 700 L199 700 Z " />
<glyph glyph-name="summation" unicode="&#x2211;" horiz-adv-x="557" d="M291 344 L100 77 L91 11 C90 4 94 0 101 0 L456 0 C463 0 467 4 468 11 L473 43 C474 50 470 54 463 54 L150 54 C192 110 248 186 362 348 L363 352 C294 514 259 590 233 646 L546 646 C553 646 558 650 559 657 L563 689 C564 696 561 700 554 700 L199 700 C192 700 187 696 186 689 L177 623 L293 356 L291 344 Z " />
<glyph glyph-name="minus" unicode="&#x2212;" horiz-adv-x="408" d="M336 209 C343 209 347 213 348 220 L353 252 C354 259 350 263 343 263 L137 263 C130 263 126 259 125 252 L120 220 C119 213 123 209 130 209 L336 209 Z " />
<glyph glyph-name="radical" unicode="&#x221a;" horiz-adv-x="759" d="M748 646 C755 646 760 650 761 657 L765 689 C766 696 763 700 756 700 L588 700 C581 700 577 696 574 689 L277 58 L265 58 L204 373 C203 380 200 384 193 384 L154 384 C147 384 143 380 142 373 L212 9 C213 3 216 0 223 0 L303 0 C310 0 313 3 316 9 L616 646 L748 646 Z " />
<glyph glyph-name="infinity" unicode="&#x221e;" horiz-adv-x="962" d="M482 226 C475 176 434 134 376 134 L260 134 C202 134 173 176 180 226 L190 298 C197 348 238 390 296 390 L412 390 C470 390 499 348 492 298 L482 226 Z M501 144 C522 86 574 81 601 81 L755 81 C835 81 892 146 901 211 L915 313 C925 378 886 443 806 443 L652 443 C625 443 571 438 534 380 C513 438 461 443 434 443 L280 443 C200 443 143 378 133 313 L119 211 C110 146 149 81 229 81 L383 81 C410 81 464 86 501 144 L501 144 Z M552 298 C559 348 600 390 658 390 L774 390 C832 390 861 348 854 298 L844 226 C837 176 796 134 738 134 L622 134 C564 134 535 176 542 226 L552 298 Z " />
<glyph glyph-name="integral" unicode="&#x222b;" horiz-adv-x="433" d="M428 643 C432 645 434 648 435 655 L424 695 C423 699 419 701 416 701 C415 701 413 701 411 700 C363 680 274 626 260 521 L187 3 C187 3 172 -76 77 -124 C73 -126 71 -129 70 -136 L81 -176 C82 -180 86 -182 89 -182 C90 -182 92 -182 94 -181 C142 -161 230 -107 245 -2 L318 516 C318 516 333 595 428 643 L428 643 Z " />
<glyph glyph-name="approxequal" unicode="&#x2248;" horiz-adv-x="440" d="M316 106 C326 106 343 112 360 119 C365 121 367 125 368 129 L363 160 C363 164 360 166 356 166 C345 166 335 160 320 160 C261 160 222 204 166 204 C156 204 139 198 122 191 C118 189 116 185 115 181 L120 150 C120 146 123 144 127 144 C138 144 148 150 163 150 C220 150 260 106 316 106 L316 106 Z M338 260 C348 260 365 266 382 273 C386 275 389 279 389 283 L385 314 C384 318 381 320 377 320 C366 320 357 314 342 314 C283 314 244 358 188 358 C178 358 161 352 144 345 C140 343 137 339 137 335 L141 304 C142 300 144 298 148 298 C159 298 169 304 184 304 C241 304 282 260 338 260 L338 260 Z " />
<glyph glyph-name="notequal" unicode="&#x2260;" horiz-adv-x="408" d="M349 304 C356 304 361 308 362 315 L366 347 C367 354 364 358 357 358 L324 358 L381 482 C382 488 380 491 374 491 L334 491 C328 491 324 488 321 482 L264 358 L151 358 C144 358 139 354 138 347 L134 315 C133 308 136 304 143 304 L239 304 L173 160 L123 160 C116 160 111 156 110 149 L106 117 C105 110 108 106 115 106 L148 106 L104 9 C103 3 106 0 112 0 L152 0 C158 0 161 3 164 9 L208 106 L321 106 C328 106 333 110 334 117 L338 149 C339 156 336 160 329 160 L233 160 L299 304 L349 304 Z " />
<glyph glyph-name="lessequal" unicode="&#x2264;" horiz-adv-x="450" d="M120 214 C119 207 120 204 128 201 L365 102 C369 102 374 105 375 111 L381 154 C382 161 378 164 374 166 L181 247 L182 253 L397 334 C402 336 407 339 408 346 L414 389 C415 395 410 398 406 398 L142 299 C133 296 131 293 130 286 L120 214 Z M346 0 C353 0 357 4 358 11 L363 43 C364 50 360 54 353 54 L108 54 C101 54 97 50 96 43 L91 11 C90 4 94 0 101 0 L346 0 Z " />
<glyph glyph-name="greaterequal" unicode="&#x2265;" horiz-adv-x="450" d="M400 286 C401 293 399 296 392 299 L154 398 C150 398 145 395 144 389 L138 346 C137 339 142 336 145 334 L338 253 L337 247 L122 166 C118 164 112 161 111 154 L105 111 C104 105 109 102 113 102 L378 201 C386 204 389 207 390 214 L400 286 Z M349 0 C356 0 360 4 361 11 L366 43 C367 50 363 54 356 54 L111 54 C104 54 100 50 99 43 L94 11 C93 4 97 0 104 0 L349 0 Z " />
<glyph glyph-name="lozenge" unicode="&#x25ca;" horiz-adv-x="626" d="M319 49 L206 349 L404 651 L518 349 L319 49 Z M348 0 C354 0 358 4 361 9 L585 350 L455 691 C453 696 450 700 444 700 L378 700 C372 700 367 696 365 691 L139 350 L267 9 C268 4 272 0 278 0 L348 0 Z " />
<glyph glyph-name="uni25CC" unicode="&#x25cc;" horiz-adv-x="199" d="" />
<glyph glyph-name="fi" unicode="&#xfb01;" horiz-adv-x="679" d="M402 744 C320 744 258 679 248 606 L235 515 L128 515 C121 515 116 511 115 504 L111 472 C110 465 113 461 120 461 L227 461 L164 11 C163 4 167 0 174 0 L211 0 C218 0 222 4 223 11 L286 461 L419 461 C426 461 431 465 432 472 L436 504 C437 511 434 515 427 515 L295 515 L306 597 C313 645 359 690 405 690 L452 690 C459 690 464 694 465 701 L470 733 C471 740 467 744 460 744 L402 744 Z M524 11 C523 4 527 0 534 0 L571 0 C578 0 582 4 583 11 L652 504 C653 511 650 515 643 515 L606 515 C599 515 594 511 593 504 L524 11 Z M602 589 C601 582 605 578 612 578 L655 578 C662 578 666 582 667 589 L677 657 C678 664 674 668 667 668 L624 668 C617 668 613 664 612 657 L602 589 Z " />
<glyph glyph-name="fl" unicode="&#xfb02;" horiz-adv-x="662" d="M402 744 C320 744 258 679 248 606 L235 515 L128 515 C121 515 116 511 115 504 L111 472 C110 465 113 461 120 461 L227 461 L164 11 C163 4 167 0 174 0 L211 0 C218 0 222 4 223 11 L286 461 L419 461 C426 461 431 465 432 472 L436 504 C437 511 434 515 427 515 L295 515 L306 597 C313 645 359 690 405 690 L452 690 C459 690 464 694 465 701 L470 733 C471 740 467 744 460 744 L402 744 Z M513 11 C512 4 516 0 523 0 L560 0 C567 0 571 4 572 11 L667 689 C668 696 665 700 658 700 L621 700 C614 700 609 696 608 689 L513 11 Z " />
</font>
</svg>
