<?xml version="1.0" encoding="UTF-8"?>
<svg xmlns="http://www.w3.org/2000/svg" xmlns:xlink="http://www.w3.org/1999/xlink" version="1.2" >
<font id="Tomkin Narrow Regular">
<font-face  font-family="Tomkin Narrow" units-per-em="1000" ascent="750" descent="-250" font-style="normal" font-weight="400" font-stretch="normal" cap-height="700" x-height="515" underline-position="-91" underline-thickness="35" />
<missing-glyph  horiz-adv-x="569" d="" />
<glyph glyph-name="space" unicode="&#x20;" horiz-adv-x="182" d="" />
<glyph glyph-name="exclam" unicode="&#x21;" horiz-adv-x="261" d="M96 189 C97 181 101 176 109 176 L152 176 C160 176 164 181 165 189 L178 301 L178 687 C178 695 173 700 165 700 L96 700 C88 700 83 695 83 687 L83 301 L96 189 Z M80 13 C80 5 85 0 93 0 L168 0 C176 0 181 5 181 13 L181 93 C181 101 176 106 168 106 L93 106 C85 106 80 101 80 93 L80 13 Z " />
<glyph glyph-name="quotedbl" unicode="&#x22;" horiz-adv-x="429" d="M89 487 C89 479 94 474 102 474 L146 474 C154 474 159 479 159 487 L168 598 L168 687 C168 695 163 700 155 700 L93 700 C85 700 80 695 80 687 L80 598 L89 487 Z M270 487 C270 479 275 474 283 474 L327 474 C335 474 340 479 340 487 L349 598 L349 687 C349 695 344 700 336 700 L274 700 C266 700 261 695 261 687 L261 598 L270 487 Z " />
<glyph glyph-name="numbersign" unicode="&#x23;" horiz-adv-x="829" d="M386 13 C386 5 391 0 399 0 L472 0 C480 0 483 5 486 13 L528 147 L616 147 C624 147 629 152 629 160 L629 219 C629 227 624 232 616 232 L555 232 L628 463 L736 463 C744 463 749 468 749 476 L749 535 C749 543 744 548 736 548 L655 548 L699 687 C699 695 694 700 686 700 L613 700 C605 700 602 695 599 687 L555 548 L403 548 L447 687 C447 695 442 700 434 700 L361 700 C353 700 350 695 347 687 L303 548 L213 548 C205 548 200 543 200 535 L200 476 C200 468 205 463 213 463 L276 463 L203 232 L93 232 C85 232 80 227 80 219 L80 160 C80 152 85 147 93 147 L176 147 L134 13 C134 5 139 0 147 0 L220 0 C228 0 231 5 234 13 L276 147 L428 147 L386 13 Z M376 463 L528 463 L455 232 L303 232 L376 463 Z " />
<glyph glyph-name="dollar" unicode="&#x24;" horiz-adv-x="600" d="M175 509 L175 535 C175 581 213 620 255 620 L335 620 C377 620 415 581 415 535 L415 518 C415 510 420 505 428 505 L497 505 C505 505 510 510 510 518 L510 545 C510 633 433 705 342 705 L341 705 L341 819 C341 827 336 832 328 832 L259 832 C251 832 246 827 246 819 L246 705 C155 704 80 633 80 545 L80 522 C80 228 425 381 425 184 L425 165 C425 117 385 80 343 80 L255 80 C213 80 175 119 175 165 L175 182 C175 190 170 195 162 195 L93 195 C85 195 80 190 80 182 L80 155 C80 68 156 -4 246 -5 L246 -124 C246 -132 251 -137 259 -137 L328 -137 C336 -137 341 -132 341 -124 L341 -5 L352 -5 C445 -5 520 67 520 155 L520 172 C520 464 175 314 175 509 L175 509 Z " />
<glyph glyph-name="percent" unicode="&#x25;" horiz-adv-x="786" d="M204 13 C204 5 209 0 217 0 L289 0 C297 0 301 5 304 13 L589 687 C589 695 584 700 576 700 L504 700 C496 700 492 695 489 687 L204 13 Z M201 700 C134 700 80 645 80 579 C80 512 134 457 201 457 C268 457 324 512 324 579 C324 645 268 700 201 700 L201 700 Z M201 528 C172 528 150 553 150 579 C150 608 172 630 201 630 C227 630 252 608 252 579 C252 553 227 528 201 528 L201 528 Z M583 243 C516 243 462 188 462 122 C462 55 516 0 583 0 C650 0 706 55 706 122 C706 188 650 243 583 243 L583 243 Z M583 71 C554 71 532 96 532 122 C532 151 554 173 583 173 C609 173 634 151 634 122 C634 96 609 71 583 71 L583 71 Z " />
<glyph glyph-name="ampersand" unicode="&#x26;" horiz-adv-x="645" d="M415 308 L415 85 L256 85 C214 85 175 122 175 170 L175 223 C175 269 214 308 256 308 L415 308 Z M287 393 C245 393 206 430 206 478 L206 536 C206 582 245 621 287 621 L335 621 C378 621 416 582 416 536 L416 525 C416 517 421 512 429 512 L498 512 C506 512 511 517 511 525 L511 545 C511 633 434 705 343 705 L279 705 C186 705 111 633 111 545 L111 471 C111 437 130 391 171 363 C105 323 80 276 80 229 L80 161 C80 72 157 0 248 0 L498 0 C506 0 511 5 511 13 L511 308 L577 308 C585 308 590 313 590 321 L590 380 C590 388 585 393 577 393 L287 393 Z " />
<glyph glyph-name="quotesingle" unicode="&#x27;" horiz-adv-x="248" d="M89 487 C89 479 94 474 102 474 L146 474 C154 474 159 479 159 487 L168 598 L168 687 C168 695 163 700 155 700 L93 700 C85 700 80 695 80 687 L80 598 L89 487 Z " />
<glyph glyph-name="parenleft" unicode="&#x28;" horiz-adv-x="304" d="M175 311 C175 465 193 638 224 792 C224 800 219 805 211 805 L142 805 C134 805 131 800 129 792 C95 633 80 468 80 311 C80 154 95 -6 129 -165 C131 -173 134 -178 142 -178 L211 -178 C219 -178 224 -173 224 -165 C193 -11 175 157 175 311 L175 311 Z " />
<glyph glyph-name="parenright" unicode="&#x29;" horiz-adv-x="304" d="M129 311 C129 157 111 -11 80 -165 C80 -173 85 -178 93 -178 L162 -178 C170 -178 173 -173 175 -165 C209 -6 224 154 224 311 C224 468 209 633 175 792 C173 800 170 805 162 805 L93 805 C85 805 80 800 80 792 C111 638 129 465 129 311 L129 311 Z " />
<glyph glyph-name="asterisk" unicode="&#x2a;" horiz-adv-x="484" d="M286 594 L286 687 C286 694 281 700 273 700 L212 700 C204 700 199 694 199 687 L199 594 L134 636 C131 638 129 638 126 638 C123 638 118 637 116 633 L83 583 C81 580 80 577 80 575 C80 571 81 568 85 565 L171 507 L104 430 C102 427 100 425 100 422 C100 417 104 414 106 412 L152 372 C154 370 158 369 160 369 C164 369 168 371 170 373 L242 457 L314 373 C316 371 320 369 324 369 C326 369 330 370 332 372 L378 412 C380 414 384 417 384 422 C384 425 382 427 380 430 L313 507 L399 565 C403 568 404 571 404 575 C404 577 403 580 401 583 L368 633 C366 637 361 638 358 638 C355 638 353 638 350 636 L286 594 Z " />
<glyph glyph-name="plus" unicode="&#x2b;" horiz-adv-x="432" d="M169 84 C169 76 174 71 182 71 L251 71 C259 71 264 76 264 84 L264 197 L339 197 C347 197 352 202 352 210 L352 269 C352 277 347 282 339 282 L264 282 L264 396 C264 404 259 409 251 409 L182 409 C174 409 169 404 169 396 L169 282 L93 282 C85 282 80 277 80 269 L80 210 C80 202 85 197 93 197 L169 197 L169 84 Z " />
<glyph glyph-name="comma" unicode="&#x2c;" horiz-adv-x="308" d="M159 -94 C168 -94 173 -88 177 -80 L228 63 C228 72 222 77 214 77 L149 77 C140 77 135 71 131 63 L80 -80 C80 -89 85 -94 94 -94 L159 -94 Z " />
<glyph glyph-name="hyphen" unicode="&#x2d;" horiz-adv-x="386" d="M93 282 C85 282 80 277 80 269 L80 210 C80 202 85 197 93 197 L293 197 C301 197 306 202 306 210 L306 269 C306 277 301 282 293 282 L93 282 Z " />
<glyph glyph-name="period" unicode="&#x2e;" horiz-adv-x="261" d="M80 10 C80 1 86 -5 95 -5 L166 -5 C175 -5 181 1 181 10 L181 87 C181 96 175 102 166 102 L95 102 C86 102 80 96 80 87 L80 10 Z " />
<glyph glyph-name="slash" unicode="&#x2f;" horiz-adv-x="567" d="M80 -166 C80 -174 85 -179 93 -179 L166 -179 C174 -179 177 -174 180 -166 L487 791 C487 799 482 804 474 804 L401 804 C393 804 390 799 387 791 L80 -166 Z " />
<glyph glyph-name="zero" unicode="0" horiz-adv-x="579" d="M238 705 C145 705 70 633 70 545 L70 155 C70 67 145 -5 238 -5 L341 -5 C434 -5 509 67 509 155 L509 545 C509 633 434 705 341 705 L238 705 Z M247 80 C205 80 165 117 165 165 L165 535 C165 581 205 620 247 620 L332 620 C374 620 414 581 414 535 L414 165 C414 117 374 80 332 80 L247 80 Z " />
<glyph glyph-name="one" unicode="1" horiz-adv-x="532" d="M68 637 C63 635 60 631 60 625 L60 560 C60 552 65 547 73 547 L246 615 L246 85 L105 85 C97 85 92 80 92 72 L92 13 C92 5 97 0 105 0 L484 0 C492 0 497 5 497 13 L497 72 C497 80 492 85 484 85 L341 85 L341 687 C341 695 336 700 328 700 L227 700 L68 637 Z " />
<glyph glyph-name="two" unicode="2" horiz-adv-x="551" d="M61 518 C61 510 66 505 74 505 L143 505 C151 505 156 510 156 518 L156 535 C156 581 196 620 238 620 L315 620 C357 620 396 581 396 535 L396 480 C396 284 60 436 60 142 L60 13 C60 5 65 0 73 0 L477 0 C485 0 490 5 490 13 L490 72 C490 80 485 85 477 85 L155 85 L155 153 C155 350 491 198 491 492 L491 545 C491 633 415 705 322 705 L227 705 C136 705 61 633 61 545 L61 518 Z " />
<glyph glyph-name="three" unicode="3" horiz-adv-x="559" d="M318 309 C360 309 399 273 399 224 L399 165 C399 119 360 80 318 80 L242 80 C200 80 160 119 160 165 L160 183 C160 191 155 196 147 196 L78 196 C70 196 65 191 65 183 L65 155 C65 67 141 -5 234 -5 L327 -5 C420 -5 494 67 494 155 L494 231 C494 270 463 324 425 350 C463 376 494 430 494 469 L494 545 C494 633 420 705 327 705 L234 705 C141 705 65 633 65 545 L65 517 C65 509 70 504 78 504 L147 504 C155 504 160 509 160 517 L160 535 C160 581 200 620 242 620 L318 620 C360 620 399 581 399 535 L399 479 C399 430 360 394 318 394 L250 394 C242 394 237 389 237 381 L237 322 C237 314 242 309 250 309 L318 309 Z " />
<glyph glyph-name="four" unicode="4" horiz-adv-x="559" d="M40 211 L40 166 C40 158 45 153 53 153 L355 153 L355 13 C355 5 360 0 368 0 L437 0 C445 0 450 5 450 13 L450 153 L506 153 C514 153 519 158 519 166 L519 225 C519 233 514 238 506 238 L450 238 L450 430 C450 438 445 443 437 443 L368 443 C360 443 355 438 355 430 L355 238 L156 238 L354 687 C354 695 349 700 341 700 L269 700 C261 700 256 695 253 687 L40 211 Z " />
<glyph glyph-name="five" unicode="5" horiz-adv-x="569" d="M70 155 C70 67 145 -5 238 -5 L341 -5 C434 -5 509 67 509 155 L509 264 C509 351 434 423 341 423 L246 423 C231 423 196 423 165 397 L165 615 L447 615 C455 615 460 620 460 628 L460 687 C460 695 455 700 447 700 L83 700 C75 700 70 695 70 687 L70 315 C70 307 75 302 83 302 L156 302 C164 302 167 308 172 315 C186 333 212 340 230 340 L332 340 C374 340 413 301 413 255 L413 165 C413 117 374 80 332 80 L247 80 C205 80 165 117 165 165 L165 177 C165 185 160 190 152 190 L83 190 C75 190 70 185 70 177 L70 155 Z " />
<glyph glyph-name="six" unicode="6" horiz-adv-x="570" d="M246 80 C204 80 165 118 165 164 L165 260 C165 308 204 345 246 345 L333 345 C376 345 415 308 415 260 L415 164 C415 118 376 80 333 80 L246 80 Z M404 526 C404 518 409 513 417 513 L486 513 C494 513 499 518 499 526 L499 545 C499 633 423 705 330 705 L238 705 C145 705 70 633 70 545 L70 155 C70 67 145 -5 238 -5 L343 -5 C434 -5 510 67 510 155 L510 271 C510 358 434 430 343 430 L245 430 C232 430 204 430 165 401 L165 536 C165 584 204 620 246 620 L322 620 C364 620 404 584 404 536 L404 526 Z " />
<glyph glyph-name="seven" unicode="7" horiz-adv-x="488" d="M146 13 C146 5 151 0 159 0 L228 0 C236 0 241 5 241 13 C268 207 322 412 443 600 L443 687 C443 695 438 700 430 700 L58 700 C50 700 45 695 45 687 L45 628 C45 620 50 615 58 615 L355 615 C224 417 174 197 146 13 L146 13 Z " />
<glyph glyph-name="eight" unicode="8" horiz-adv-x="571" d="M323 705 L249 705 C156 705 81 633 81 545 L81 466 C81 432 101 390 143 357 C84 320 65 273 65 230 L65 155 C65 67 140 -5 231 -5 L340 -5 C431 -5 506 67 506 155 L506 230 C506 273 487 320 428 357 C470 390 490 432 490 466 L490 545 C490 633 415 705 323 705 L323 705 Z M242 80 C199 80 160 117 160 165 L160 220 C160 268 199 305 242 305 L328 305 C372 305 411 268 411 220 L411 165 C411 117 372 80 329 80 L242 80 Z M314 620 C356 620 395 582 395 536 L395 475 C395 427 356 390 314 390 L257 390 C215 390 176 427 176 475 L176 536 C176 582 215 620 257 620 L314 620 Z " />
<glyph glyph-name="nine" unicode="9" horiz-adv-x="570" d="M324 620 C366 620 405 582 405 536 L405 440 C405 392 366 355 324 355 L237 355 C194 355 155 392 155 440 L155 536 C155 582 194 620 237 620 L324 620 Z M166 174 C166 182 161 187 153 187 L84 187 C76 187 71 182 71 174 L71 155 C71 67 147 -5 240 -5 L332 -5 C425 -5 500 67 500 155 L500 545 C500 633 425 705 332 705 L227 705 C136 705 60 633 60 545 L60 429 C60 342 136 270 227 270 L325 270 C338 270 366 270 405 299 L405 164 C405 116 366 80 324 80 L248 80 C206 80 166 116 166 164 L166 174 Z " />
<glyph glyph-name="colon" unicode="&#x3a;" horiz-adv-x="261" d="M80 10 C80 1 86 -5 95 -5 L166 -5 C175 -5 181 1 181 10 L181 87 C181 96 175 102 166 102 L95 102 C86 102 80 96 80 87 L80 10 Z M80 327 C80 318 86 312 95 312 L166 312 C175 312 181 318 181 327 L181 404 C181 413 175 419 166 419 L95 419 C86 419 80 413 80 404 L80 327 Z " />
<glyph glyph-name="semicolon" unicode="&#x3b;" horiz-adv-x="309" d="M128 327 C128 318 134 312 143 312 L214 312 C223 312 229 318 229 327 L229 404 C229 413 223 419 214 419 L143 419 C134 419 128 413 128 404 L128 327 Z M159 -94 C168 -94 173 -88 177 -80 L228 63 C228 72 222 77 214 77 L149 77 C140 77 135 71 131 63 L80 -80 C80 -89 85 -94 94 -94 L159 -94 Z " />
<glyph glyph-name="less" unicode="&#x3c;" horiz-adv-x="386" d="M80 175 C80 166 86 160 94 158 L294 85 C300 85 306 89 306 97 L306 159 C306 168 300 172 294 175 L158 225 L158 232 L294 282 C300 285 306 289 306 298 L306 360 C306 368 300 372 294 372 L94 299 C86 297 80 291 80 282 L80 175 Z " />
<glyph glyph-name="equal" unicode="&#x3d;" horiz-adv-x="386" d="M93 376 C85 376 80 371 80 363 L80 304 C80 296 85 291 93 291 L293 291 C301 291 306 296 306 304 L306 363 C306 371 301 376 293 376 L93 376 Z M93 186 C85 186 80 181 80 173 L80 114 C80 106 85 101 93 101 L293 101 C301 101 306 106 306 114 L306 173 C306 181 301 186 293 186 L93 186 Z " />
<glyph glyph-name="greater" unicode="&#x3e;" horiz-adv-x="386" d="M306 282 C306 291 300 297 292 299 L92 372 C86 372 80 368 80 360 L80 298 C80 289 86 285 92 282 L228 232 L228 225 L92 175 C86 172 80 168 80 159 L80 97 C80 89 86 85 92 85 L292 158 C300 160 306 166 306 175 L306 282 Z " />
<glyph glyph-name="question" unicode="&#x3f;" horiz-adv-x="590" d="M219 186 C219 178 224 173 232 173 L301 173 C309 173 314 178 314 186 L314 194 C314 281 359 296 408 313 C461 331 510 352 510 497 L510 545 C510 633 434 705 341 705 L246 705 C155 705 80 633 80 545 L80 492 C80 484 85 479 93 479 L162 479 C170 479 175 484 175 492 L175 535 C175 581 215 620 257 620 L334 620 C376 620 415 581 415 535 L415 501 C415 414 380 398 331 381 C277 362 219 341 219 198 L219 186 Z M216 13 C216 5 221 0 229 0 L304 0 C312 0 317 5 317 13 L317 93 C317 101 312 106 304 106 L229 106 C221 106 216 101 216 93 L216 13 Z " />
<glyph glyph-name="at" unicode="&#x40;" horiz-adv-x="743" d="M663 539 C663 628 588 700 496 700 L250 700 C157 700 80 628 80 539 L80 41 C80 -47 156 -118 248 -118 L465 -118 C473 -118 478 -113 478 -105 L478 -46 C478 -38 473 -33 465 -33 L256 -33 C214 -33 175 4 175 52 L175 530 C175 575 216 615 258 615 L486 615 C529 615 568 575 568 530 L568 458 L560 458 C538 489 494 495 474 495 L431 495 C344 495 285 432 285 347 L285 213 C285 128 344 65 431 65 L474 65 C494 65 538 71 560 102 L568 102 L568 83 C568 75 573 70 581 70 L650 70 C658 70 663 75 663 83 L663 539 Z M568 216 C568 181 534 150 501 150 L447 150 C413 150 380 181 380 216 L380 344 C380 379 413 410 447 410 L501 410 C534 410 568 379 568 344 L568 216 Z " />
<glyph glyph-name="A" unicode="A" horiz-adv-x="588" d="M248 700 C240 700 237 695 235 687 L35 13 C35 5 40 0 48 0 L121 0 C129 0 132 5 135 13 L166 125 L421 125 L453 13 C456 5 459 0 467 0 L540 0 C548 0 553 5 553 13 L353 687 C351 695 348 700 340 700 L248 700 Z M289 557 L299 557 L397 210 L190 210 L289 557 Z " />
<glyph glyph-name="B" unicode="B" horiz-adv-x="560" d="M342 0 C435 0 510 72 510 161 L510 229 C510 277 490 325 431 364 C460 388 479 439 479 471 L479 539 C479 628 404 700 311 700 L93 700 C85 700 80 695 80 687 L80 13 C80 5 85 0 93 0 L342 0 Z M175 393 L175 616 L302 616 C344 616 384 576 384 531 L384 478 C384 430 344 393 302 393 L175 393 Z M334 308 C376 308 415 269 415 223 L415 169 C415 121 376 84 334 84 L175 84 L175 308 L334 308 Z " />
<glyph glyph-name="C" unicode="C" horiz-adv-x="564" d="M414 165 C414 117 374 80 332 80 L247 80 C205 80 165 117 165 165 L165 535 C165 581 205 620 247 620 L332 620 C374 620 414 581 414 535 L414 502 C414 494 419 489 427 489 L496 489 C504 489 509 494 509 502 L509 545 C509 633 434 705 341 705 L238 705 C145 705 70 633 70 545 L70 155 C70 67 145 -5 238 -5 L341 -5 C434 -5 509 67 509 155 L509 193 C509 201 504 206 496 206 L427 206 C419 206 414 201 414 193 L414 165 Z " />
<glyph glyph-name="D" unicode="D" horiz-adv-x="589" d="M342 615 C385 615 424 575 424 530 L424 170 C424 122 385 85 342 85 L175 85 L175 615 L342 615 Z M352 0 C444 0 519 72 519 161 L519 539 C519 628 444 700 352 700 L93 700 C85 700 80 695 80 687 L80 13 C80 5 85 0 93 0 L352 0 Z " />
<glyph glyph-name="E" unicode="E" horiz-adv-x="513" d="M80 13 C80 5 85 0 93 0 L430 0 C438 0 443 5 443 13 L443 72 C443 80 438 85 430 85 L175 85 L175 293 L406 293 C414 293 419 298 419 306 L419 365 C419 373 414 378 406 378 L175 378 L175 615 L430 615 C438 615 443 620 443 628 L443 687 C443 695 438 700 430 700 L93 700 C85 700 80 695 80 687 L80 13 Z " />
<glyph glyph-name="F" unicode="F" horiz-adv-x="483" d="M430 700 L93 700 C85 700 80 695 80 687 L80 13 C80 5 85 0 93 0 L162 0 C170 0 175 5 175 13 L175 293 L406 293 C414 293 419 298 419 306 L419 365 C419 373 414 378 406 378 L175 378 L175 615 L430 615 C438 615 443 620 443 628 L443 687 C443 695 438 700 430 700 L430 700 Z " />
<glyph glyph-name="G" unicode="G" horiz-adv-x="579" d="M414 299 L414 165 C414 117 374 80 332 80 L247 80 C205 80 165 117 165 165 L165 535 C165 581 205 620 247 620 L332 620 C374 620 414 581 414 535 L414 502 C414 494 419 489 427 489 L496 489 C504 489 509 494 509 502 L509 545 C509 633 434 705 341 705 L238 705 C145 705 70 633 70 545 L70 155 C70 67 145 -5 238 -5 L341 -5 C434 -5 509 67 509 155 L509 371 C509 379 504 384 496 384 L311 384 C303 384 298 379 298 371 L298 312 C298 304 303 299 311 299 L414 299 Z " />
<glyph glyph-name="H" unicode="H" horiz-adv-x="592" d="M417 13 C417 5 422 0 430 0 L499 0 C507 0 512 5 512 13 L512 687 C512 695 507 700 499 700 L430 700 C422 700 417 695 417 687 L417 381 L175 381 L175 687 C175 695 170 700 162 700 L93 700 C85 700 80 695 80 687 L80 13 C80 5 85 0 93 0 L162 0 C170 0 175 5 175 13 L175 296 L417 296 L417 13 Z " />
<glyph glyph-name="I" unicode="I" horiz-adv-x="255" d="M80 13 C80 5 85 0 93 0 L162 0 C170 0 175 5 175 13 L175 687 C175 695 170 700 162 700 L93 700 C85 700 80 695 80 687 L80 13 Z " />
<glyph glyph-name="J" unicode="J" horiz-adv-x="426" d="M77 109 C74 111 71 112 68 112 C64 112 62 111 58 109 L14 68 C11 65 10 62 10 58 C10 55 11 53 14 50 C41 27 79 -5 160 -5 C295 -5 366 78 366 165 L366 687 C366 695 361 700 353 700 L284 700 C276 700 271 695 271 687 L271 168 C271 157 268 80 154 80 C118 80 108 91 77 109 L77 109 Z " />
<glyph glyph-name="K" unicode="K" horiz-adv-x="552" d="M413 13 C416 6 420 0 428 0 L498 0 C506 0 511 5 511 13 L377 348 L511 687 C511 695 506 700 498 700 L427 700 C419 700 415 694 412 687 L296 392 L175 392 L175 687 C175 695 170 700 162 700 L93 700 C85 700 80 695 80 687 L80 13 C80 5 85 0 93 0 L162 0 C170 0 175 5 175 13 L175 307 L295 307 L413 13 Z " />
<glyph glyph-name="L" unicode="L" horiz-adv-x="483" d="M430 0 C438 0 443 5 443 13 L443 72 C443 80 438 85 430 85 L175 85 L175 687 C175 695 170 700 162 700 L93 700 C85 700 80 695 80 687 L80 13 C80 5 85 0 93 0 L430 0 Z " />
<glyph glyph-name="M" unicode="M" horiz-adv-x="758" d="M407 103 C414 103 419 107 421 113 L570 474 L583 474 L583 13 C583 5 588 0 596 0 L665 0 C673 0 678 5 678 13 L678 687 C678 695 673 700 665 700 L571 700 C563 700 557 694 554 687 L383 272 L375 272 L204 687 C201 694 195 700 187 700 L93 700 C85 700 80 695 80 687 L80 13 C80 5 85 0 93 0 L162 0 C170 0 175 5 175 13 L175 474 L188 474 L337 113 C339 107 344 103 351 103 L407 103 Z " />
<glyph glyph-name="N" unicode="N" horiz-adv-x="629" d="M411 13 C415 6 421 0 429 0 L536 0 C544 0 549 5 549 13 L549 687 C549 695 544 700 536 700 L467 700 C459 700 454 695 454 687 L454 176 L444 176 L218 687 C214 694 208 700 200 700 L93 700 C85 700 80 695 80 687 L80 13 C80 5 85 0 93 0 L162 0 C170 0 175 5 175 13 L175 526 L186 526 L411 13 Z " />
<glyph glyph-name="O" unicode="O" horiz-adv-x="579" d="M238 705 C145 705 70 633 70 545 L70 155 C70 67 145 -5 238 -5 L341 -5 C434 -5 509 67 509 155 L509 545 C509 633 434 705 341 705 L238 705 Z M247 80 C205 80 165 117 165 165 L165 535 C165 581 205 620 247 620 L332 620 C374 620 414 581 414 535 L414 165 C414 117 374 80 332 80 L247 80 Z " />
<glyph glyph-name="P" unicode="P" horiz-adv-x="570" d="M175 302 L175 615 L334 615 C376 615 415 575 415 530 L415 386 C415 339 376 302 334 302 L175 302 Z M93 700 C85 700 80 695 80 687 L80 13 C80 5 85 0 93 0 L162 0 C170 0 175 5 175 13 L175 217 L342 217 C435 217 510 289 510 378 L510 539 C510 628 435 700 342 700 L93 700 Z " />
<glyph glyph-name="Q" unicode="Q" horiz-adv-x="579" d="M238 705 C145 705 70 633 70 545 L70 155 C70 67 146 -5 239 -5 L283 -104 C286 -111 292 -118 300 -118 L361 -118 C369 -118 375 -112 375 -104 L331 -5 L341 -5 C434 -5 509 67 509 155 L509 545 C509 633 434 705 341 705 L238 705 Z M247 80 C205 80 165 117 165 165 L165 535 C165 581 205 620 247 620 L332 620 C374 620 414 581 414 535 L414 165 C414 117 374 80 332 80 L247 80 Z " />
<glyph glyph-name="R" unicode="R" horiz-adv-x="561" d="M511 378 L511 539 C511 628 436 700 343 700 L93 700 C85 700 80 695 80 687 L80 13 C80 5 85 0 93 0 L162 0 C170 0 175 5 175 13 L175 217 L310 217 L404 13 C407 6 411 0 419 0 L495 0 C503 0 508 5 508 13 L406 229 C468 253 511 311 511 378 L511 378 Z M416 386 C416 339 377 302 335 302 L175 302 L175 615 L335 615 C377 615 416 575 416 530 L416 386 Z " />
<glyph glyph-name="S" unicode="S" horiz-adv-x="545" d="M225 80 C183 80 145 119 145 165 L145 182 C145 190 140 195 132 195 L63 195 C55 195 50 190 50 182 L50 155 C50 67 127 -5 218 -5 L322 -5 C415 -5 490 67 490 155 L490 172 C490 464 145 314 145 509 L145 535 C145 581 183 620 225 620 L305 620 C347 620 385 581 385 535 L385 518 C385 510 390 505 398 505 L467 505 C475 505 480 510 480 518 L480 545 C480 633 403 705 312 705 L217 705 C126 705 50 633 50 545 L50 522 C50 228 395 381 395 184 L395 165 C395 117 355 80 313 80 L225 80 Z " />
<glyph glyph-name="T" unicode="T" horiz-adv-x="519" d="M58 700 C50 700 45 695 45 687 L45 628 C45 620 50 615 58 615 L212 615 L212 13 C212 5 217 0 225 0 L294 0 C302 0 307 5 307 13 L307 615 L461 615 C469 615 474 620 474 628 L474 687 C474 695 469 700 461 700 L58 700 Z " />
<glyph glyph-name="U" unicode="U" horiz-adv-x="589" d="M419 165 C419 117 379 80 337 80 L252 80 C210 80 170 117 170 165 L170 687 C170 695 165 700 157 700 L88 700 C80 700 75 695 75 687 L75 155 C75 67 150 -5 243 -5 L346 -5 C439 -5 514 67 514 155 L514 687 C514 695 509 700 501 700 L432 700 C424 700 419 695 419 687 L419 165 Z " />
<glyph glyph-name="V" unicode="V" horiz-adv-x="588" d="M340 0 C348 0 351 5 353 13 L553 687 C553 695 548 700 540 700 L467 700 C459 700 456 695 453 687 L299 143 L289 143 L135 687 C132 695 129 700 121 700 L48 700 C40 700 35 695 35 687 L235 13 C237 5 240 0 248 0 L340 0 Z " />
<glyph glyph-name="W" unicode="W" horiz-adv-x="796" d="M364 700 C356 700 352 695 350 687 L233 166 L134 687 C132 695 128 700 120 700 L48 700 C40 700 35 695 35 687 L166 14 C168 5 172 0 181 0 L280 0 C288 0 293 5 295 14 L398 499 L501 14 C503 5 508 0 516 0 L615 0 C624 0 628 5 630 14 L761 687 C761 695 756 700 748 700 L676 700 C668 700 664 695 662 687 L563 166 L446 687 C444 695 440 700 432 700 L364 700 Z " />
<glyph glyph-name="X" unicode="X" horiz-adv-x="550" d="M410 13 C414 4 418 0 426 0 L497 0 C505 0 510 5 510 13 L375 350 L510 687 C510 695 505 700 497 700 L428 700 C420 700 416 696 412 687 L289 394 L261 394 L138 687 C134 696 130 700 122 700 L53 700 C45 700 40 695 40 687 L175 350 L40 13 C40 5 45 0 53 0 L124 0 C132 0 136 4 140 13 L261 302 L289 302 L410 13 Z " />
<glyph glyph-name="Y" unicode="Y" horiz-adv-x="561" d="M328 220 L531 687 C531 695 526 700 518 700 L446 700 C438 700 435 697 431 689 L285 350 L276 350 L130 689 C126 697 123 700 115 700 L43 700 C35 700 30 695 30 687 L233 220 L233 13 C233 5 238 0 246 0 L315 0 C323 0 328 5 328 13 L328 220 Z " />
<glyph glyph-name="Z" unicode="Z" horiz-adv-x="512" d="M340 615 L59 73 C57 69 55 64 55 59 L55 13 C55 5 60 0 68 0 L444 0 C452 0 457 5 457 13 L457 72 C457 80 452 85 444 85 L172 85 L453 627 C455 631 457 636 457 641 L457 687 C457 695 452 700 444 700 L68 700 C60 700 55 695 55 687 L55 628 C55 620 60 615 68 615 L340 615 Z " />
<glyph glyph-name="bracketleft" unicode="&#x5b;" horiz-adv-x="381" d="M93 805 C85 805 80 800 80 792 L80 -164 C80 -172 85 -177 93 -177 L288 -177 C296 -177 301 -172 301 -164 L301 -105 C301 -97 296 -92 288 -92 L175 -92 L175 720 L288 720 C296 720 301 725 301 733 L301 792 C301 800 296 805 288 805 L93 805 Z " />
<glyph glyph-name="backslash" unicode="&#x5c;" horiz-adv-x="567" d="M180 791 C177 799 174 804 166 804 L93 804 C85 804 80 799 80 791 L387 -166 C390 -174 393 -179 401 -179 L474 -179 C482 -179 487 -174 487 -166 L180 791 Z " />
<glyph glyph-name="bracketright" unicode="&#x5d;" horiz-adv-x="381" d="M93 805 C85 805 80 800 80 792 L80 733 C80 725 85 720 93 720 L206 720 L206 -92 L93 -92 C85 -92 80 -97 80 -105 L80 -164 C80 -172 85 -177 93 -177 L288 -177 C296 -177 301 -172 301 -164 L301 792 C301 800 296 805 288 805 L93 805 Z " />
<glyph glyph-name="asciicircum" unicode="&#x5e;" horiz-adv-x="416" d="M171 700 C163 700 157 695 153 686 L80 538 C80 531 85 526 93 526 L156 526 C162 526 167 532 170 538 L208 615 L246 538 C249 532 254 526 260 526 L323 526 C331 526 336 531 336 538 L263 686 C259 695 253 700 245 700 L171 700 Z " />
<glyph glyph-name="underscore" unicode="&#x5f;" horiz-adv-x="388" d="M295 -144 C303 -144 308 -139 308 -131 L308 -72 C308 -64 303 -59 295 -59 L93 -59 C85 -59 80 -64 80 -72 L80 -131 C80 -139 85 -144 93 -144 L295 -144 Z " />
<glyph glyph-name="grave" unicode="&#x60;" horiz-adv-x="307" d="M213 550 C222 550 227 555 227 564 L173 686 C169 694 164 700 155 700 L94 700 C86 700 80 695 80 686 L134 564 C138 556 143 550 152 550 L213 550 Z " />
<glyph glyph-name="a" unicode="a" horiz-adv-x="490" d="M215 80 C180 80 155 111 155 146 L155 161 C155 196 180 225 215 225 L330 225 L330 146 C330 111 303 80 269 80 L215 80 Z M106 500 C100 497 97 494 97 488 C97 486 97 482 111 429 C113 420 116 420 123 420 C176 429 200 435 233 435 C330 435 330 368 330 335 L330 310 L206 310 C120 310 60 260 60 178 L60 124 C60 42 120 -5 206 -5 L236 -5 C276 -5 303 7 322 32 L330 32 L330 13 C330 5 335 0 343 0 L412 0 C420 0 425 5 425 13 L425 336 C425 382 424 520 243 520 C166 520 132 510 106 500 L106 500 Z " />
<glyph glyph-name="b" unicode="b" horiz-adv-x="518" d="M175 369 C175 404 209 435 242 435 L296 435 C330 435 363 404 363 369 L363 146 C363 111 330 80 296 80 L242 80 C209 80 175 111 175 146 L175 369 Z M175 687 C175 695 170 700 162 700 L93 700 C85 700 80 695 80 687 L80 13 C80 5 85 0 93 0 L162 0 C170 0 175 5 175 13 L175 32 L183 32 C205 1 249 -5 269 -5 L312 -5 C399 -5 458 58 458 143 L458 372 C458 457 399 520 312 520 L269 520 C249 520 205 514 183 483 L175 483 L175 687 Z " />
<glyph glyph-name="c" unicode="c" horiz-adv-x="474" d="M429 157 C429 165 424 170 416 170 L347 170 C339 170 334 165 334 157 L334 146 C334 111 301 80 268 80 L227 80 C194 80 160 111 160 146 L160 369 C160 404 194 435 227 435 L268 435 C301 435 334 404 334 369 L334 358 C334 350 339 345 347 345 L416 345 C424 345 429 350 429 358 L429 374 C429 446 373 520 284 520 L209 520 C122 520 65 446 65 374 L65 141 C65 69 122 -5 209 -5 L284 -5 C373 -5 429 69 429 141 L429 157 Z " />
<glyph glyph-name="d" unicode="d" horiz-adv-x="518" d="M343 483 L335 483 C313 514 269 520 249 520 L206 520 C119 520 60 457 60 372 L60 143 C60 58 119 -5 206 -5 L249 -5 C269 -5 313 1 335 32 L343 32 L343 13 C343 5 348 0 356 0 L425 0 C433 0 438 5 438 13 L438 687 C438 695 433 700 425 700 L356 700 C348 700 343 695 343 687 L343 483 Z M343 146 C343 111 309 80 276 80 L222 80 C188 80 155 111 155 146 L155 369 C155 404 188 435 222 435 L276 435 C309 435 343 404 343 369 L343 146 Z " />
<glyph glyph-name="e" unicode="e" horiz-adv-x="489" d="M346 105 C331 93 309 80 276 80 L227 80 C194 80 160 111 160 146 L160 216 L416 216 C424 216 429 221 429 229 L429 374 C429 446 373 520 284 520 L209 520 C122 520 65 446 65 374 L65 141 C65 69 122 -5 209 -5 L276 -5 C276 -5 362 -5 411 56 C413 59 414 61 414 64 C414 67 411 71 409 73 L365 108 C362 110 360 111 357 111 C353 111 349 107 346 105 L346 105 Z M160 369 C160 404 194 435 227 435 L268 435 C301 435 334 404 334 369 L334 301 L160 301 L160 369 Z " />
<glyph glyph-name="f" unicode="f" horiz-adv-x="382" d="M220 430 L324 430 C332 430 337 435 337 443 L337 502 C337 510 332 515 324 515 L220 515 L220 593 C220 628 255 659 288 659 L324 659 C332 659 337 664 337 672 L337 731 C337 739 332 744 324 744 L269 744 C182 744 130 670 125 597 L125 515 L48 515 C40 515 35 510 35 502 L35 443 C35 435 40 430 48 430 L125 430 L125 13 C125 5 130 0 138 0 L207 0 C215 0 220 5 220 13 L220 430 Z " />
<glyph glyph-name="g" unicode="g" horiz-adv-x="518" d="M343 146 C343 111 309 80 276 80 L222 80 C188 80 155 111 155 146 L155 369 C155 404 188 435 222 435 L276 435 C309 435 343 404 343 369 L343 146 Z M343 -30 C343 -67 331 -118 246 -118 C189 -118 159 -113 131 -108 C125 -108 120 -108 118 -116 L106 -174 C106 -180 109 -183 115 -185 C143 -194 172 -203 242 -203 C425 -203 438 -76 438 -32 L438 502 C438 510 433 515 425 515 L356 515 C348 515 343 510 343 502 L343 483 L335 483 C313 514 269 520 249 520 L206 520 C119 520 60 457 60 372 L60 143 C60 58 119 -5 206 -5 L249 -5 C269 -5 313 1 335 32 L343 32 L343 -30 Z " />
<glyph glyph-name="h" unicode="h" horiz-adv-x="524" d="M359 13 C359 5 364 0 372 0 L441 0 C449 0 454 5 454 13 L454 371 C454 454 405 520 319 520 L288 520 C268 520 214 519 183 459 L175 459 L175 687 C175 695 170 700 162 700 L93 700 C85 700 80 695 80 687 L80 13 C80 5 85 0 93 0 L162 0 C170 0 175 5 175 13 L175 359 C212 434 265 435 293 435 L301 435 C338 435 359 405 359 353 L359 13 Z " />
<glyph glyph-name="i" unicode="i" horiz-adv-x="255" d="M80 13 C80 5 85 0 93 0 L162 0 C170 0 175 5 175 13 L175 502 C175 510 170 515 162 515 L93 515 C85 515 80 510 80 502 L80 13 Z M77 591 C77 583 82 578 90 578 L165 578 C173 578 178 583 178 591 L178 671 C178 679 173 684 165 684 L90 684 C82 684 77 679 77 671 L77 591 Z " />
<glyph glyph-name="j" unicode="j" horiz-adv-x="255" d="M33 -182 C71 -167 175 -116 175 7 L175 502 C175 510 170 515 162 515 L93 515 C85 515 80 510 80 502 L80 12 C80 12 79 -58 -5 -94 C-10 -96 -12 -101 -12 -106 C-12 -107 -11 -110 -10 -112 L16 -176 C18 -181 23 -183 27 -183 C28 -183 31 -183 33 -182 L33 -182 Z M77 591 C77 583 82 578 90 578 L165 578 C173 578 178 583 178 591 L178 671 C178 679 173 684 165 684 L90 684 C82 684 77 679 77 671 L77 591 Z " />
<glyph glyph-name="k" unicode="k" horiz-adv-x="492" d="M273 229 L358 13 C362 6 368 0 376 0 L449 0 C457 0 462 5 462 13 L360 272 L462 502 C462 510 457 515 449 515 L377 515 C369 515 363 509 359 502 L274 314 L175 314 L175 687 C175 695 170 700 162 700 L93 700 C85 700 80 695 80 687 L80 13 C80 5 85 0 93 0 L162 0 C170 0 175 5 175 13 L175 229 L273 229 Z " />
<glyph glyph-name="l" unicode="l" horiz-adv-x="255" d="M80 13 C80 5 85 0 93 0 L162 0 C170 0 175 5 175 13 L175 687 C175 695 170 700 162 700 L93 700 C85 700 80 695 80 687 L80 13 Z " />
<glyph glyph-name="m" unicode="m" horiz-adv-x="728" d="M416 355 C437 410 462 435 502 435 C551 435 563 406 563 356 L563 13 C563 5 568 0 576 0 L645 0 C653 0 658 5 658 13 L658 371 C658 457 601 520 524 520 C503 520 451 520 408 459 L398 459 C373 496 338 520 289 520 C269 520 226 520 183 459 L175 459 L175 502 C175 510 170 515 162 515 L93 515 C85 515 80 510 80 502 L80 13 C80 5 85 0 93 0 L162 0 C170 0 175 5 175 13 L175 355 C196 410 221 435 261 435 C310 435 322 406 322 356 L322 13 C322 5 327 0 335 0 L403 0 C411 0 416 5 416 13 L416 355 Z " />
<glyph glyph-name="n" unicode="n" horiz-adv-x="524" d="M359 13 C359 5 364 0 372 0 L441 0 C449 0 454 5 454 13 L454 371 C454 454 405 520 319 520 L288 520 C268 520 214 519 183 459 L175 459 L175 502 C175 510 170 515 162 515 L93 515 C85 515 80 510 80 502 L80 13 C80 5 85 0 93 0 L162 0 C170 0 175 5 175 13 L175 359 C212 434 265 435 293 435 L301 435 C338 435 359 405 359 353 L359 13 Z " />
<glyph glyph-name="o" unicode="o" horiz-adv-x="494" d="M209 520 C122 520 65 446 65 374 L65 141 C65 69 122 -5 209 -5 L284 -5 C372 -5 429 69 429 141 L429 374 C429 446 372 520 285 520 L209 520 Z M227 80 C194 80 160 111 160 146 L160 369 C160 404 194 435 227 435 L267 435 C300 435 334 404 334 369 L334 146 C334 111 300 80 267 80 L227 80 Z " />
<glyph glyph-name="p" unicode="p" horiz-adv-x="518" d="M175 369 C175 404 209 435 242 435 L296 435 C330 435 363 404 363 369 L363 146 C363 111 330 80 296 80 L242 80 C209 80 175 111 175 146 L175 369 Z M175 502 C175 510 170 515 162 515 L93 515 C85 515 80 510 80 502 L80 -161 C80 -169 85 -174 93 -174 L162 -174 C170 -174 175 -169 175 -161 L175 32 L183 32 C205 1 249 -5 269 -5 L312 -5 C399 -5 458 58 458 143 L458 372 C458 457 399 520 312 520 L269 520 C249 520 205 514 183 483 L175 483 L175 502 Z " />
<glyph glyph-name="q" unicode="q" horiz-adv-x="518" d="M343 146 C343 111 309 80 276 80 L222 80 C188 80 155 111 155 146 L155 369 C155 404 188 435 222 435 L276 435 C309 435 343 404 343 369 L343 146 Z M343 483 L335 483 C313 514 269 520 249 520 L206 520 C119 520 60 457 60 372 L60 143 C60 58 119 -5 206 -5 L249 -5 C269 -5 313 1 335 32 L343 32 L343 -161 C343 -169 348 -174 356 -174 L425 -174 C433 -174 438 -169 438 -161 L438 502 C438 510 433 515 425 515 L356 515 C348 515 343 510 343 502 L343 483 Z " />
<glyph glyph-name="r" unicode="r" horiz-adv-x="382" d="M334 431 C342 431 347 436 347 444 L352 503 C352 509 349 513 343 515 C328 520 306 520 295 520 C275 520 215 519 183 459 L175 459 L175 502 C175 510 170 515 162 515 L93 515 C85 515 80 510 80 502 L80 13 C80 5 85 0 93 0 L162 0 C170 0 175 5 175 13 L175 359 C212 434 260 435 288 435 C304 435 320 433 334 431 L334 431 Z " />
<glyph glyph-name="s" unicode="s" horiz-adv-x="472" d="M254 435 C288 435 321 404 321 369 L321 357 C321 349 326 344 334 344 L403 344 C411 344 416 349 416 357 L416 374 C416 446 358 520 271 520 L200 520 C112 520 56 458 56 386 L56 379 C56 182 327 256 327 150 L327 136 C327 98 294 80 260 80 L217 80 C183 80 150 111 150 146 L150 158 C150 166 145 171 137 171 L68 171 C60 171 55 166 55 158 L55 141 C55 69 113 -5 200 -5 L278 -5 C367 -5 422 57 422 129 L422 143 C422 341 151 267 151 369 L151 379 C151 417 184 435 218 435 L254 435 Z " />
<glyph glyph-name="t" unicode="t" horiz-adv-x="377" d="M324 0 C332 0 337 5 337 13 L337 72 C337 80 332 85 324 85 L288 85 C255 85 220 117 220 151 L220 430 L324 430 C332 430 337 435 337 443 L337 502 C337 510 332 515 324 515 L220 515 L220 687 C220 695 215 700 207 700 L138 700 C130 700 125 695 125 687 L125 515 L48 515 C40 515 35 510 35 502 L35 443 C35 435 40 430 48 430 L125 430 L125 148 C130 74 182 0 269 0 L324 0 Z " />
<glyph glyph-name="u" unicode="u" horiz-adv-x="504" d="M339 146 C339 111 305 80 272 80 L232 80 C199 80 165 111 165 146 L165 502 C165 510 160 515 152 515 L83 515 C75 515 70 510 70 502 L70 141 C70 69 127 -5 214 -5 L289 -5 C377 -5 434 69 434 141 L434 502 C434 510 429 515 421 515 L352 515 C344 515 339 510 339 502 L339 146 Z " />
<glyph glyph-name="v" unicode="v" horiz-adv-x="466" d="M295 0 C303 0 308 5 310 13 L441 502 C441 510 436 515 428 515 L355 515 C347 515 344 510 341 502 L238 97 L228 97 L125 502 C122 510 119 515 111 515 L38 515 C30 515 25 510 25 502 L156 13 C158 5 163 0 171 0 L295 0 Z " />
<glyph glyph-name="w" unicode="w" horiz-adv-x="664" d="M299 515 C291 515 286 510 284 502 L196 167 L124 502 C122 510 118 515 110 515 L38 515 C30 515 25 510 25 502 L138 12 C140 4 143 0 151 0 L231 0 C239 0 242 4 244 12 L332 343 L420 12 C422 4 425 0 433 0 L513 0 C521 0 524 4 526 12 L639 502 C639 510 634 515 626 515 L554 515 C546 515 542 510 540 502 L468 167 L380 502 C378 510 373 515 365 515 L299 515 Z " />
<glyph glyph-name="x" unicode="x" horiz-adv-x="449" d="M322 13 C326 4 330 0 338 0 L406 0 C414 0 419 5 419 13 L325 258 L419 502 C419 510 414 515 406 515 L338 515 C330 515 326 511 322 502 L244 301 L205 301 L127 502 C123 511 119 515 111 515 L43 515 C35 515 30 510 30 502 L124 258 L30 13 C30 5 35 0 43 0 L111 0 C119 0 123 4 127 13 L205 216 L244 216 L322 13 Z " />
<glyph glyph-name="y" unicode="y" horiz-adv-x="466" d="M174 -52 C170 -86 146 -118 93 -118 L59 -118 C51 -118 46 -123 46 -131 L46 -190 C46 -198 51 -203 59 -203 L121 -203 C164 -203 257 -181 303 -11 L441 502 C441 510 436 515 428 515 L355 515 C347 515 344 510 341 502 L238 97 L228 97 L125 502 C122 510 119 515 111 515 L38 515 C30 515 25 510 25 502 L174 -52 Z " />
<glyph glyph-name="z" unicode="z" horiz-adv-x="437" d="M383 442 C385 446 387 449 387 454 L387 502 C387 510 382 515 374 515 L63 515 C55 515 50 510 50 502 L50 443 C50 435 55 430 63 430 L274 430 L54 73 C51 69 50 66 50 61 L50 13 C50 5 55 0 63 0 L374 0 C382 0 387 5 387 13 L387 72 C387 80 382 85 374 85 L163 85 L383 442 Z " />
<glyph glyph-name="braceleft" unicode="&#x7b;" horiz-adv-x="463" d="M193 644 L193 441 C193 393 154 355 112 355 L93 355 C85 355 80 350 80 342 L80 283 C80 275 85 270 93 270 L112 270 C154 270 193 232 193 184 L193 -18 C193 -106 266 -178 358 -178 L370 -178 C378 -178 383 -173 383 -165 L383 -106 C383 -98 378 -93 370 -93 L366 -93 C324 -93 288 -55 288 -9 L288 191 C288 234 267 275 230 312 C267 349 288 391 288 433 L288 636 C288 682 324 720 366 720 L370 720 C378 720 383 725 383 733 L383 792 C383 800 378 805 370 805 L358 805 C266 805 193 733 193 644 L193 644 Z " />
<glyph glyph-name="bar" unicode="&#x7c;" horiz-adv-x="255" d="M80 -165 C80 -173 85 -178 93 -178 L162 -178 C170 -178 175 -173 175 -165 L175 792 C175 800 170 805 162 805 L93 805 C85 805 80 800 80 792 L80 -165 Z " />
<glyph glyph-name="braceright" unicode="&#x7d;" horiz-adv-x="463" d="M270 644 C270 733 197 805 105 805 L93 805 C85 805 80 800 80 792 L80 733 C80 725 85 720 93 720 L97 720 C139 720 175 682 175 636 L175 433 C175 391 196 349 233 312 C196 275 175 234 175 191 L175 -9 C175 -55 139 -93 97 -93 L93 -93 C85 -93 80 -98 80 -106 L80 -165 C80 -173 85 -178 93 -178 L105 -178 C197 -178 270 -106 270 -18 L270 184 C270 232 309 270 351 270 L370 270 C378 270 383 275 383 283 L383 342 C383 350 378 355 370 355 L351 355 C309 355 270 393 270 441 L270 644 Z " />
<glyph glyph-name="asciitilde" unicode="&#x7e;" horiz-adv-x="418" d="M268 168 C287 168 310 176 330 188 C335 191 338 196 338 202 L323 254 C321 260 316 262 311 262 C309 262 307 262 304 261 C291 257 275 253 268 253 C213 253 202 295 150 295 C131 295 108 287 88 275 C83 272 80 267 80 261 L95 209 C97 203 102 201 107 201 C109 201 111 201 114 202 C127 206 143 210 150 210 C205 210 215 168 268 168 L268 168 Z " />
<glyph glyph-name="uni00A0" unicode="&#xa0;" horiz-adv-x="198" d="" />
<glyph glyph-name="exclamdown" unicode="&#xa1;" horiz-adv-x="261" d="M83 399 L83 13 C83 5 88 0 96 0 L165 0 C173 0 178 5 178 13 L178 399 L165 511 C164 519 160 524 152 524 L109 524 C101 524 97 519 96 511 L83 399 Z M80 607 C80 599 85 594 93 594 L168 594 C176 594 181 599 181 607 L181 687 C181 695 176 700 168 700 L93 700 C85 700 80 695 80 687 L80 607 Z " />
<glyph glyph-name="cent" unicode="&#xa2;" horiz-adv-x="599" d="M257 -124 C257 -132 262 -137 270 -137 L339 -137 C347 -137 352 -132 352 -124 L352 -5 C444 -4 519 67 519 155 L519 193 C519 201 514 206 506 206 L437 206 C429 206 424 201 424 193 L424 165 C424 117 384 80 342 80 L257 80 C215 80 175 117 175 165 L175 535 C175 581 215 620 257 620 L342 620 C384 620 424 581 424 535 L424 502 C424 494 429 489 437 489 L506 489 C514 489 519 494 519 502 L519 545 C519 632 444 704 352 705 L352 819 C352 827 347 832 339 832 L270 832 C262 832 257 827 257 819 L257 705 L248 705 C155 705 80 633 80 545 L80 155 C80 67 155 -5 248 -5 L257 -5 L257 -124 Z " />
<glyph glyph-name="sterling" unicode="&#xa3;" horiz-adv-x="606" d="M257 549 C257 584 291 615 324 615 L365 615 C398 615 431 584 431 549 L431 531 C431 523 436 518 444 518 L513 518 C521 518 526 523 526 531 L526 554 C526 626 470 700 381 700 L306 700 C219 700 162 626 162 554 L162 375 L93 375 C85 375 80 370 80 362 L80 303 C80 295 85 290 93 290 L162 290 L162 85 L93 85 C85 85 80 80 80 72 L80 13 C80 5 85 0 93 0 L512 0 C520 0 525 5 525 13 L525 72 C525 80 520 85 512 85 L257 85 L257 290 L343 290 C351 290 356 295 356 303 L356 362 C356 370 351 375 343 375 L257 375 L257 549 Z " />
<glyph glyph-name="currency" unicode="&#xa4;" horiz-adv-x="491" d="M205 349 C198 349 189 347 180 346 L162 387 C159 395 155 399 147 399 L94 399 C86 399 80 393 80 385 L117 301 C105 281 96 258 96 239 L96 161 C96 141 105 118 117 98 L80 14 C80 6 86 0 94 0 L147 0 C155 0 159 4 162 12 L180 53 C189 52 198 50 205 50 L285 50 C293 50 302 52 311 53 L329 12 C332 4 336 0 344 0 L397 0 C405 0 411 6 411 14 L374 98 C386 118 395 141 395 161 L395 239 C395 258 386 281 374 301 L411 385 C411 393 405 399 397 399 L344 399 C336 399 332 395 329 387 L311 346 C302 347 293 349 286 349 L205 349 Z M220 121 C198 121 177 142 177 164 L177 235 C177 257 198 278 220 278 L271 278 C293 278 314 257 314 235 L314 164 C314 142 293 121 271 121 L220 121 Z " />
<glyph glyph-name="yen" unicode="&#xa5;" horiz-adv-x="661" d="M179 353 C171 353 166 348 166 340 L166 281 C166 273 171 268 179 268 L262 268 L283 220 L283 168 L179 168 C171 168 166 163 166 155 L166 96 C166 88 171 83 179 83 L283 83 L283 13 C283 5 288 0 296 0 L365 0 C373 0 378 5 378 13 L378 83 L482 83 C490 83 495 88 495 96 L495 155 C495 163 490 168 482 168 L378 168 L378 220 L399 268 L482 268 C490 268 495 273 495 281 L495 340 C495 348 490 353 482 353 L436 353 L581 687 C581 695 576 700 568 700 L496 700 C488 700 485 697 481 689 L335 350 L326 350 L180 689 C176 697 173 700 165 700 L93 700 C85 700 80 695 80 687 L225 353 L179 353 Z " />
<glyph glyph-name="brokenbar" unicode="&#xa6;" horiz-adv-x="255" d="M80 405 C80 397 85 392 93 392 L162 392 C170 392 175 397 175 405 L175 792 C175 800 170 805 162 805 L93 805 C85 805 80 800 80 792 L80 405 Z M80 -165 C80 -173 85 -178 93 -178 L162 -178 C170 -178 175 -173 175 -165 L175 222 C175 230 170 235 162 235 L93 235 C85 235 80 230 80 222 L80 -165 Z " />
<glyph glyph-name="section" unicode="&#xa7;" horiz-adv-x="534" d="M454 309 L454 323 C454 523 183 449 183 549 L183 559 C183 597 216 615 250 615 L286 615 C320 615 353 584 353 549 L353 537 C353 529 358 524 366 524 L435 524 C443 524 448 529 448 537 L448 554 C448 626 390 700 303 700 L232 700 C144 700 88 638 88 566 L88 559 C88 511 105 479 131 457 C99 432 81 394 81 353 L81 346 C81 147 352 221 352 117 L352 103 C352 65 319 47 285 47 L242 47 C208 47 175 78 175 113 L175 125 C175 133 170 138 162 138 L93 138 C85 138 80 133 80 125 L80 108 C80 36 138 -38 225 -38 L303 -38 C392 -38 447 24 447 96 L447 110 C447 155 432 186 408 208 C437 233 454 270 454 309 L454 309 Z M359 316 C359 281 335 262 304 262 C300 262 297 262 293 263 C196 277 176 295 176 336 L176 346 C176 384 209 402 243 402 C297 402 359 379 359 334 L359 316 Z " />
<glyph glyph-name="dieresis" unicode="&#xa8;" horiz-adv-x="424" d="M80 608 C80 599 86 593 95 593 L166 593 C175 593 181 599 181 608 L181 685 C181 694 175 700 166 700 L95 700 C86 700 80 694 80 685 L80 608 Z M243 608 C243 599 249 593 258 593 L329 593 C338 593 344 599 344 608 L344 685 C344 694 338 700 329 700 L258 700 C249 700 243 694 243 685 L243 608 Z " />
<glyph glyph-name="copyright" unicode="&#xa9;" horiz-adv-x="871" d="M436 699 C241 699 80 539 80 344 C80 148 241 -11 436 -11 C632 -11 791 148 791 344 C791 539 632 699 436 699 L436 699 Z M436 51 C273 51 144 181 144 344 C144 507 273 638 436 638 C601 638 731 507 731 344 C731 181 601 51 436 51 L436 51 Z M407 222 C385 222 363 242 363 265 L363 428 C363 451 385 470 407 470 L459 470 C482 470 503 451 503 428 L503 413 C503 406 507 402 514 402 L574 402 C581 402 585 406 585 413 L585 430 C585 487 542 544 473 544 L393 544 C324 544 282 487 282 430 L282 261 C282 205 324 148 393 148 L473 148 C542 148 585 205 585 262 L585 279 C585 286 581 290 574 290 L514 290 C507 290 503 286 503 279 L503 264 C503 241 482 222 459 222 L407 222 Z " />
<glyph glyph-name="ordfeminine" unicode="&#xaa;" horiz-adv-x="398" d="M149 494 C149 514 160 521 177 521 L249 521 L249 489 C249 469 231 457 212 457 L184 457 C167 457 149 469 149 489 L149 494 Z M119 632 C144 637 163 640 184 640 C234 640 249 614 249 595 L249 576 L168 576 C118 576 80 547 80 498 L80 480 C80 432 118 402 168 402 L197 402 C208 402 230 408 244 425 L249 425 L249 415 C249 410 253 406 258 406 L309 406 C314 406 318 410 318 415 L318 595 C318 621 299 700 194 700 C151 700 122 694 107 689 C104 688 102 686 102 682 C102 681 102 671 110 637 C111 632 115 632 119 632 L119 632 Z " />
<glyph glyph-name="guillemotleft" unicode="&#xab;" horiz-adv-x="691" d="M80 259 L211 13 C215 6 219 0 227 0 L297 0 C305 0 310 5 310 13 L179 261 L179 271 L310 491 C310 499 305 504 297 504 L227 504 C219 504 215 498 211 491 L80 271 L80 259 Z M381 259 L512 13 C516 6 520 0 528 0 L598 0 C606 0 611 5 611 13 L480 261 L480 271 L611 491 C611 499 606 504 598 504 L528 504 C520 504 516 498 512 491 L381 271 L381 259 Z " />
<glyph glyph-name="logicalnot" unicode="&#xac;" horiz-adv-x="523" d="M93 288 C85 288 80 283 80 275 L80 216 C80 208 85 203 93 203 L348 203 L348 78 C348 70 353 65 361 65 L430 65 C438 65 443 70 443 78 L443 275 C443 283 438 288 430 288 L93 288 Z " />
<glyph glyph-name="uni00AD" unicode="&#xad;" horiz-adv-x="198" d="" />
<glyph glyph-name="registered" unicode="&#xae;" horiz-adv-x="871" d="M375 347 L375 472 L455 472 C478 472 498 451 498 426 L498 392 C498 366 478 347 455 347 L375 347 Z M436 699 C241 699 80 539 80 344 C80 148 241 -11 436 -11 C632 -11 791 148 791 344 C791 539 632 699 436 699 L436 699 Z M436 51 C273 51 144 181 144 344 C144 507 273 638 436 638 C601 638 731 507 731 344 C731 181 601 51 436 51 L436 51 Z M526 280 C557 300 579 330 579 364 L579 454 C579 504 536 546 484 546 L305 546 C298 546 294 542 294 535 L294 163 C294 156 298 152 305 152 L364 152 C371 152 375 156 375 163 L375 274 L449 274 L500 163 C503 157 508 152 515 152 L571 152 C578 152 582 156 582 163 L526 280 Z " />
<glyph glyph-name="macron" unicode="&#xaf;" horiz-adv-x="386" d="M93 700 C85 700 80 695 80 687 L80 628 C80 620 85 615 93 615 L293 615 C301 615 306 620 306 628 L306 687 C306 695 301 700 293 700 L93 700 Z " />
<glyph glyph-name="degree" unicode="&#xb0;" horiz-adv-x="418" d="M209 752 C138 752 80 695 80 623 C80 552 138 494 209 494 C280 494 338 552 338 623 C338 695 280 752 209 752 L209 752 Z M209 566 C177 566 152 594 152 623 C152 656 177 680 209 680 C241 680 266 656 266 623 C266 594 241 566 209 566 L209 566 Z " />
<glyph glyph-name="plusminus" unicode="&#xb1;" horiz-adv-x="429" d="M167 177 C167 169 172 164 180 164 L249 164 C257 164 262 169 262 177 L262 290 L336 290 C344 290 349 295 349 303 L349 362 C349 370 344 375 336 375 L262 375 L262 489 C262 497 257 502 249 502 L180 502 C172 502 167 497 167 489 L167 375 L93 375 C85 375 80 370 80 362 L80 303 C80 295 85 290 93 290 L167 290 L167 177 Z M93 85 C85 85 80 80 80 72 L80 13 C80 5 85 0 93 0 L336 0 C344 0 349 5 349 13 L349 72 C349 80 344 85 336 85 L93 85 Z " />
<glyph glyph-name="twosuperior" unicode="&#xb2;" horiz-adv-x="364" d="M155 607 C155 628 160 640 180 640 L187 640 C207 640 210 627 210 613 L210 608 C210 536 80 584 80 465 L80 414 C80 410 84 406 88 406 L276 406 C280 406 284 410 284 414 L284 463 C284 467 280 471 276 471 L153 471 C153 528 279 485 279 605 L279 619 C279 657 249 700 210 700 L154 700 C116 700 86 671 86 633 L86 607 C86 602 90 598 95 598 L146 598 C151 598 155 602 155 607 L155 607 Z " />
<glyph glyph-name="threesuperior" unicode="&#xb3;" horiz-adv-x="353" d="M156 582 C151 582 148 579 148 574 L148 531 C148 526 151 523 156 523 L175 523 C195 523 204 514 204 499 L204 493 C204 479 201 466 181 466 L174 466 C154 466 149 478 149 499 C149 504 145 508 140 508 L89 508 C84 508 80 504 80 499 L80 473 C80 435 110 406 148 406 L204 406 C243 406 273 449 273 487 L273 496 C273 526 264 543 244 552 C264 561 273 578 273 608 L273 619 C273 657 243 700 204 700 L148 700 C110 700 80 671 80 633 L80 607 C80 602 84 598 89 598 L140 598 C145 598 149 602 149 607 C149 628 154 640 174 640 L181 640 C201 640 204 627 204 613 L204 605 C204 590 195 582 175 582 L156 582 Z " />
<glyph glyph-name="acute" unicode="&#xb4;" horiz-adv-x="308" d="M155 554 C163 554 168 560 172 568 L228 686 C228 695 222 700 214 700 L153 700 C145 700 140 694 136 686 L80 568 C80 559 85 554 94 554 L155 554 Z " />
<glyph glyph-name="mu" unicode="&#xb5;" horiz-adv-x="524" d="M80 -161 C80 -169 85 -174 93 -174 L162 -174 C170 -174 175 -169 175 -161 L175 3 C190 -2 206 -5 224 -5 L299 -5 C387 -5 444 69 444 141 L444 502 C444 510 439 515 431 515 L362 515 C354 515 349 510 349 502 L349 146 C349 111 315 80 282 80 L242 80 C209 80 175 111 175 146 L175 502 C175 510 170 515 162 515 L93 515 C85 515 80 510 80 502 L80 -161 Z " />
<glyph glyph-name="paragraph" unicode="&#xb6;" horiz-adv-x="696" d="M248 700 C155 700 80 628 80 539 L80 423 C80 335 155 262 248 262 L326 262 L326 13 C326 5 331 0 339 0 L408 0 C416 0 421 5 421 13 L421 615 L521 615 L521 13 C521 5 526 0 534 0 L603 0 C611 0 616 5 616 13 L616 687 C616 695 611 700 603 700 L248 700 Z " />
<glyph glyph-name="periodcentered" unicode="&#xb7;" horiz-adv-x="261" d="M80 187 C80 178 86 172 95 172 L166 172 C175 172 181 178 181 187 L181 264 C181 273 175 279 166 279 L95 279 C86 279 80 273 80 264 L80 187 Z " />
<glyph glyph-name="cedilla" unicode="&#xb8;" horiz-adv-x="308" d="M88 -52 C86 -55 85 -58 85 -60 L85 -93 C85 -98 89 -102 94 -102 L149 -102 C149 -102 173 -102 173 -125 C173 -146 149 -146 149 -146 L89 -146 C84 -146 80 -150 80 -155 L80 -186 C80 -191 84 -195 89 -195 L166 -195 C213 -195 228 -178 228 -119 C228 -71 190 -53 151 -53 L174 -8 C174 0 171 1 166 1 L126 1 C120 1 116 -1 113 -5 L88 -52 Z " />
<glyph glyph-name="onesuperior" unicode="&#xb9;" horiz-adv-x="365" d="M88 676 C84 675 80 670 80 666 L80 616 C80 612 84 608 88 608 L158 635 L158 471 L99 471 C95 471 91 467 91 463 L91 414 C91 410 95 406 99 406 L277 406 C281 406 285 410 285 414 L285 463 C285 467 281 471 277 471 L227 471 L227 692 C227 696 223 700 219 700 L148 700 L88 676 Z " />
<glyph glyph-name="ordmasculine" unicode="&#xba;" horiz-adv-x="418" d="M209 752 C138 752 80 695 80 623 C80 552 138 494 209 494 C280 494 338 552 338 623 C338 695 280 752 209 752 L209 752 Z M209 566 C177 566 152 594 152 623 C152 656 177 680 209 680 C241 680 266 656 266 623 C266 594 241 566 209 566 L209 566 Z " />
<glyph glyph-name="guillemotright" unicode="&#xbb;" horiz-adv-x="691" d="M611 271 L480 491 C476 498 472 504 464 504 L394 504 C386 504 381 499 381 491 L512 271 L512 261 L381 13 C381 5 386 0 394 0 L464 0 C472 0 476 6 480 13 L611 259 L611 271 Z M310 271 L179 491 C175 498 171 504 163 504 L93 504 C85 504 80 499 80 491 L211 271 L211 261 L80 13 C80 5 85 0 93 0 L163 0 C171 0 175 6 179 13 L310 259 L310 271 Z " />
<glyph glyph-name="onequarter" unicode="&#xbc;" horiz-adv-x="774" d="M613 685 C613 694 607 700 598 700 L545 700 C536 700 530 695 526 686 L184 15 C184 6 190 0 199 0 L252 0 C261 0 267 5 271 14 L613 685 Z M88 676 C84 675 80 670 80 666 L80 616 C80 612 84 608 88 608 L158 635 L158 471 L99 471 C95 471 91 467 91 463 L91 414 C91 410 95 406 99 406 L277 406 C281 406 285 410 285 414 L285 463 C285 467 281 471 277 471 L227 471 L227 692 C227 696 223 700 219 700 L148 700 L88 676 Z M593 286 C593 290 589 294 585 294 L539 294 C535 294 530 290 528 286 L443 87 L443 52 C443 48 447 44 451 44 L597 44 L597 8 C597 4 601 0 605 0 L654 0 C658 0 662 4 662 8 L662 44 L686 44 C690 44 694 48 694 52 L694 95 C694 99 690 103 686 103 L662 103 L662 177 C662 181 658 185 654 185 L605 185 C601 185 597 181 597 177 L597 103 L515 103 L593 286 Z " />
<glyph glyph-name="onehalf" unicode="&#xbd;" horiz-adv-x="747" d="M613 685 C613 694 607 700 598 700 L545 700 C536 700 530 695 526 686 L184 15 C184 6 190 0 199 0 L252 0 C261 0 267 5 271 14 L613 685 Z M88 676 C84 675 80 670 80 666 L80 616 C80 612 84 608 88 608 L158 635 L158 471 L99 471 C95 471 91 467 91 463 L91 414 C91 410 95 406 99 406 L277 406 C281 406 285 410 285 414 L285 463 C285 467 281 471 277 471 L227 471 L227 692 C227 696 223 700 219 700 L148 700 L88 676 Z M538 201 C538 222 543 234 563 234 L570 234 C590 234 593 221 593 207 L593 202 C593 130 463 178 463 59 L463 8 C463 4 467 0 471 0 L659 0 C663 0 667 4 667 8 L667 57 C667 61 663 65 659 65 L536 65 C536 122 662 79 662 199 L662 213 C662 251 632 294 593 294 L537 294 C499 294 469 265 469 227 L469 201 C469 196 473 192 478 192 L529 192 C534 192 538 196 538 201 L538 201 Z " />
<glyph glyph-name="threequarters" unicode="&#xbe;" horiz-adv-x="726" d="M573 685 C573 694 567 700 558 700 L505 700 C496 700 490 695 486 686 L144 15 C144 6 150 0 159 0 L212 0 C221 0 227 5 231 14 L573 685 Z M545 286 C545 290 541 294 537 294 L491 294 C487 294 482 290 480 286 L395 87 L395 52 C395 48 399 44 403 44 L549 44 L549 8 C549 4 553 0 557 0 L606 0 C610 0 614 4 614 8 L614 44 L638 44 C642 44 646 48 646 52 L646 95 C646 99 642 103 638 103 L614 103 L614 177 C614 181 610 185 606 185 L557 185 C553 185 549 181 549 177 L549 103 L467 103 L545 286 Z M156 582 C151 582 148 579 148 574 L148 531 C148 526 151 523 156 523 L175 523 C195 523 204 514 204 499 L204 493 C204 479 201 466 181 466 L174 466 C154 466 149 478 149 499 C149 504 145 508 140 508 L89 508 C84 508 80 504 80 499 L80 473 C80 435 110 406 148 406 L204 406 C243 406 273 449 273 487 L273 496 C273 526 264 543 244 552 C264 561 273 578 273 608 L273 619 C273 657 243 700 204 700 L148 700 C110 700 80 671 80 633 L80 607 C80 602 84 598 89 598 L140 598 C145 598 149 602 149 607 C149 628 154 640 174 640 L181 640 C201 640 204 627 204 613 L204 605 C204 590 195 582 175 582 L156 582 Z " />
<glyph glyph-name="questiondown" unicode="&#xbf;" horiz-adv-x="590" d="M371 519 C371 527 366 532 358 532 L289 532 C281 532 276 527 276 519 L276 511 C276 424 231 409 182 392 C129 374 80 353 80 208 L80 160 C80 72 156 0 249 0 L344 0 C435 0 510 72 510 160 L510 213 C510 221 505 226 497 226 L428 226 C420 226 415 221 415 213 L415 170 C415 124 375 85 333 85 L256 85 C214 85 175 124 175 170 L175 204 C175 291 210 307 259 324 C313 343 371 364 371 507 L371 519 Z M374 612 C374 604 369 599 361 599 L286 599 C278 599 273 604 273 612 L273 692 C273 700 278 705 286 705 L361 705 C369 705 374 700 374 692 L374 612 Z " />
<glyph glyph-name="Agrave" unicode="&#xc0;" horiz-adv-x="588" d="M322 751 C331 751 336 756 336 765 L280 883 C276 891 271 897 263 897 L202 897 C194 897 188 892 188 883 L244 765 C248 757 253 751 261 751 L322 751 Z M248 700 C240 700 237 695 235 687 L35 13 C35 5 40 0 48 0 L121 0 C129 0 132 5 135 13 L166 125 L421 125 L453 13 C456 5 459 0 467 0 L540 0 C548 0 553 5 553 13 L353 687 C351 695 348 700 340 700 L248 700 Z M289 557 L299 557 L397 210 L190 210 L289 557 Z " />
<glyph glyph-name="Aacute" unicode="&#xc1;" horiz-adv-x="588" d="M331 751 C339 751 344 757 348 765 L404 883 C404 892 398 897 390 897 L329 897 C321 897 316 891 312 883 L256 765 C256 756 261 751 270 751 L331 751 Z M248 700 C240 700 237 695 235 687 L35 13 C35 5 40 0 48 0 L121 0 C129 0 132 5 135 13 L166 125 L421 125 L453 13 C456 5 459 0 467 0 L540 0 C548 0 553 5 553 13 L353 687 C351 695 348 700 340 700 L248 700 Z M289 557 L299 557 L397 210 L190 210 L289 557 Z " />
<glyph glyph-name="Acircumflex" unicode="&#xc2;" horiz-adv-x="588" d="M257 925 C249 925 243 920 239 911 L166 763 C166 756 171 751 179 751 L242 751 C248 751 253 757 256 763 L294 840 L332 763 C335 757 340 751 346 751 L409 751 C417 751 422 756 422 763 L349 911 C345 920 339 925 331 925 L257 925 Z M248 700 C240 700 237 695 235 687 L35 13 C35 5 40 0 48 0 L121 0 C129 0 132 5 135 13 L166 125 L421 125 L453 13 C456 5 459 0 467 0 L540 0 C548 0 553 5 553 13 L353 687 C351 695 348 700 340 700 L248 700 Z M289 557 L299 557 L397 210 L190 210 L289 557 Z " />
<glyph glyph-name="Atilde" unicode="&#xc3;" horiz-adv-x="588" d="M248 700 C240 700 237 695 235 687 L35 13 C35 5 40 0 48 0 L121 0 C129 0 132 5 135 13 L166 125 L421 125 L453 13 C456 5 459 0 467 0 L540 0 C548 0 553 5 553 13 L353 687 C351 695 348 700 340 700 L248 700 Z M289 557 L299 557 L397 210 L190 210 L289 557 Z M353 751 C372 751 395 759 415 771 C420 774 423 779 423 785 L408 837 C406 843 401 845 396 845 C394 845 392 845 389 844 C376 840 360 836 353 836 C298 836 287 878 235 878 C216 878 193 870 173 858 C168 855 165 850 165 844 L180 792 C182 786 187 784 192 784 C194 784 196 784 199 785 C212 789 228 793 235 793 C290 793 300 751 353 751 L353 751 Z " />
<glyph glyph-name="Adieresis" unicode="&#xc4;" horiz-adv-x="588" d="M162 766 C162 757 168 751 177 751 L248 751 C257 751 263 757 263 766 L263 843 C263 852 257 858 248 858 L177 858 C168 858 162 852 162 843 L162 766 Z M325 766 C325 757 331 751 340 751 L411 751 C420 751 426 757 426 766 L426 843 C426 852 420 858 411 858 L340 858 C331 858 325 852 325 843 L325 766 Z M248 700 C240 700 237 695 235 687 L35 13 C35 5 40 0 48 0 L121 0 C129 0 132 5 135 13 L166 125 L421 125 L453 13 C456 5 459 0 467 0 L540 0 C548 0 553 5 553 13 L353 687 C351 695 348 700 340 700 L248 700 Z M289 557 L299 557 L397 210 L190 210 L289 557 Z " />
<glyph glyph-name="Aring" unicode="&#xc5;" horiz-adv-x="588" d="M294 886 C223 886 165 829 165 757 C165 712 188 672 223 649 L35 13 C35 5 40 0 48 0 L121 0 C129 0 132 5 135 13 L166 125 L421 125 L453 13 C456 5 459 0 467 0 L540 0 C548 0 553 5 553 13 L364 649 C399 672 423 712 423 757 C423 829 365 886 294 886 L294 886 Z M289 557 L299 557 L397 210 L190 210 L289 557 Z M294 700 C262 700 237 728 237 757 C237 790 262 814 294 814 C326 814 351 790 351 757 C351 728 326 700 294 700 L294 700 Z " />
<glyph glyph-name="AE" unicode="&#xc6;" horiz-adv-x="879" d="M446 210 L227 210 L417 617 L446 617 L446 210 Z M30 13 C30 5 35 0 43 0 L113 0 C121 0 129 6 132 13 L187 125 L446 125 L446 13 C446 5 451 0 459 0 L796 0 C804 0 809 5 809 13 L809 72 C809 80 804 85 796 85 L541 85 L541 293 L772 293 C780 293 785 298 785 306 L785 365 C785 373 780 378 772 378 L541 378 L541 615 L796 615 C804 615 809 620 809 628 L809 687 C809 695 804 700 796 700 L367 700 C358 700 350 692 346 684 L30 13 Z " />
<glyph glyph-name="Ccedilla" unicode="&#xc7;" horiz-adv-x="564" d="M230 -52 C228 -55 227 -58 227 -60 L227 -93 C227 -98 231 -102 236 -102 L291 -102 C291 -102 315 -102 315 -125 C315 -146 291 -146 291 -146 L231 -146 C226 -146 222 -150 222 -155 L222 -186 C222 -191 226 -195 231 -195 L308 -195 C355 -195 370 -178 370 -119 C370 -71 332 -53 293 -53 L317 -5 L341 -5 C434 -5 509 67 509 155 L509 193 C509 201 504 206 496 206 L427 206 C419 206 414 201 414 193 L414 165 C414 117 374 80 332 80 L247 80 C205 80 165 117 165 165 L165 535 C165 581 205 620 247 620 L332 620 C374 620 414 581 414 535 L414 502 C414 494 419 489 427 489 L496 489 C504 489 509 494 509 502 L509 545 C509 633 434 705 341 705 L238 705 C145 705 70 633 70 545 L70 155 C70 67 145 -5 238 -5 L255 -5 L230 -52 Z " />
<glyph glyph-name="Egrave" unicode="&#xc8;" horiz-adv-x="513" d="M296 751 C305 751 310 756 310 765 L254 883 C250 891 245 897 237 897 L176 897 C168 897 162 892 162 883 L218 765 C222 757 227 751 235 751 L296 751 Z M80 13 C80 5 85 0 93 0 L430 0 C438 0 443 5 443 13 L443 72 C443 80 438 85 430 85 L175 85 L175 293 L406 293 C414 293 419 298 419 306 L419 365 C419 373 414 378 406 378 L175 378 L175 615 L430 615 C438 615 443 620 443 628 L443 687 C443 695 438 700 430 700 L93 700 C85 700 80 695 80 687 L80 13 Z " />
<glyph glyph-name="Eacute" unicode="&#xc9;" horiz-adv-x="513" d="M298 751 C306 751 311 757 315 765 L371 883 C371 892 365 897 357 897 L296 897 C288 897 283 891 279 883 L223 765 C223 756 228 751 237 751 L298 751 Z M80 13 C80 5 85 0 93 0 L430 0 C438 0 443 5 443 13 L443 72 C443 80 438 85 430 85 L175 85 L175 293 L406 293 C414 293 419 298 419 306 L419 365 C419 373 414 378 406 378 L175 378 L175 615 L430 615 C438 615 443 620 443 628 L443 687 C443 695 438 700 430 700 L93 700 C85 700 80 695 80 687 L80 13 Z " />
<glyph glyph-name="Ecircumflex" unicode="&#xca;" horiz-adv-x="513" d="M225 925 C217 925 211 920 207 911 L134 763 C134 756 139 751 147 751 L210 751 C216 751 221 757 224 763 L262 840 L300 763 C303 757 308 751 314 751 L377 751 C385 751 390 756 390 763 L317 911 C313 920 307 925 299 925 L225 925 Z M80 13 C80 5 85 0 93 0 L430 0 C438 0 443 5 443 13 L443 72 C443 80 438 85 430 85 L175 85 L175 293 L406 293 C414 293 419 298 419 306 L419 365 C419 373 414 378 406 378 L175 378 L175 615 L430 615 C438 615 443 620 443 628 L443 687 C443 695 438 700 430 700 L93 700 C85 700 80 695 80 687 L80 13 Z " />
<glyph glyph-name="Edieresis" unicode="&#xcb;" horiz-adv-x="513" d="M128 766 C128 757 134 751 143 751 L214 751 C223 751 229 757 229 766 L229 843 C229 852 223 858 214 858 L143 858 C134 858 128 852 128 843 L128 766 Z M291 766 C291 757 297 751 306 751 L377 751 C386 751 392 757 392 766 L392 843 C392 852 386 858 377 858 L306 858 C297 858 291 852 291 843 L291 766 Z M80 13 C80 5 85 0 93 0 L430 0 C438 0 443 5 443 13 L443 72 C443 80 438 85 430 85 L175 85 L175 293 L406 293 C414 293 419 298 419 306 L419 365 C419 373 414 378 406 378 L175 378 L175 615 L430 615 C438 615 443 620 443 628 L443 687 C443 695 438 700 430 700 L93 700 C85 700 80 695 80 687 L80 13 Z " />
<glyph glyph-name="Igrave" unicode="&#xcc;" horiz-adv-x="255" d="M80 13 C80 5 85 0 93 0 L162 0 C170 0 175 5 175 13 L175 687 C175 695 170 700 162 700 L93 700 C85 700 80 695 80 687 L80 13 Z M155 751 C164 751 169 756 169 765 L113 883 C109 891 104 897 96 897 L35 897 C27 897 21 892 21 883 L77 765 C81 757 86 751 94 751 L155 751 Z " />
<glyph glyph-name="Iacute" unicode="&#xcd;" horiz-adv-x="255" d="M80 13 C80 5 85 0 93 0 L162 0 C170 0 175 5 175 13 L175 687 C175 695 170 700 162 700 L93 700 C85 700 80 695 80 687 L80 13 Z M160 751 C168 751 173 757 177 765 L233 883 C233 892 227 897 219 897 L158 897 C150 897 145 891 141 883 L85 765 C85 756 90 751 99 751 L160 751 Z " />
<glyph glyph-name="Icircumflex" unicode="&#xce;" horiz-adv-x="255" d="M80 13 C80 5 85 0 93 0 L162 0 C170 0 175 5 175 13 L175 687 C175 695 170 700 162 700 L93 700 C85 700 80 695 80 687 L80 13 Z M90 943 C82 943 76 938 72 929 L-1 781 C-1 774 4 769 12 769 L75 769 C81 769 86 775 89 781 L127 858 L165 781 C168 775 173 769 179 769 L242 769 C250 769 255 774 255 781 L182 929 C178 938 172 943 164 943 L90 943 Z " />
<glyph glyph-name="Idieresis" unicode="&#xcf;" horiz-adv-x="255" d="M80 13 C80 5 85 0 93 0 L162 0 C170 0 175 5 175 13 L175 687 C175 695 170 700 162 700 L93 700 C85 700 80 695 80 687 L80 13 Z M-5 766 C-5 757 1 751 10 751 L81 751 C90 751 96 757 96 766 L96 843 C96 852 90 858 81 858 L10 858 C1 858 -5 852 -5 843 L-5 766 Z M158 766 C158 757 164 751 173 751 L244 751 C253 751 259 757 259 766 L259 843 C259 852 253 858 244 858 L173 858 C164 858 158 852 158 843 L158 766 Z " />
<glyph glyph-name="Eth" unicode="&#xd0;" horiz-adv-x="605" d="M33 393 C25 393 20 388 20 380 L20 321 C20 313 25 308 33 308 L96 308 L96 13 C96 5 101 0 109 0 L368 0 C460 0 535 72 535 161 L535 539 C535 628 460 700 368 700 L109 700 C101 700 96 695 96 687 L96 393 L33 393 Z M358 615 C401 615 440 575 440 530 L440 170 C440 122 401 85 358 85 L191 85 L191 308 L265 308 C273 308 278 313 278 321 L278 380 C278 388 273 393 265 393 L191 393 L191 615 L358 615 Z " />
<glyph glyph-name="Ntilde" unicode="&#xd1;" horiz-adv-x="629" d="M411 13 C415 6 421 0 429 0 L536 0 C544 0 549 5 549 13 L549 687 C549 695 544 700 536 700 L467 700 C459 700 454 695 454 687 L454 176 L444 176 L218 687 C214 694 208 700 200 700 L93 700 C85 700 80 695 80 687 L80 13 C80 5 85 0 93 0 L162 0 C170 0 175 5 175 13 L175 526 L186 526 L411 13 Z M368 751 C387 751 410 759 430 771 C435 774 438 779 438 785 L423 837 C421 843 416 845 411 845 C409 845 407 845 404 844 C391 840 375 836 368 836 C313 836 302 878 250 878 C231 878 208 870 188 858 C183 855 180 850 180 844 L195 792 C197 786 202 784 207 784 C209 784 211 784 214 785 C227 789 243 793 250 793 C305 793 315 751 368 751 L368 751 Z " />
<glyph glyph-name="Ograve" unicode="&#xd2;" horiz-adv-x="579" d="M316 751 C325 751 330 756 330 765 L274 883 C270 891 265 897 257 897 L196 897 C188 897 182 892 182 883 L238 765 C242 757 247 751 255 751 L316 751 Z M238 705 C145 705 70 633 70 545 L70 155 C70 67 145 -5 238 -5 L341 -5 C434 -5 509 67 509 155 L509 545 C509 633 434 705 341 705 L238 705 Z M247 80 C205 80 165 117 165 165 L165 535 C165 581 205 620 247 620 L332 620 C374 620 414 581 414 535 L414 165 C414 117 374 80 332 80 L247 80 Z " />
<glyph glyph-name="Oacute" unicode="&#xd3;" horiz-adv-x="579" d="M327 751 C335 751 340 757 344 765 L400 883 C400 892 394 897 386 897 L325 897 C317 897 312 891 308 883 L252 765 C252 756 257 751 266 751 L327 751 Z M238 705 C145 705 70 633 70 545 L70 155 C70 67 145 -5 238 -5 L341 -5 C434 -5 509 67 509 155 L509 545 C509 633 434 705 341 705 L238 705 Z M247 80 C205 80 165 117 165 165 L165 535 C165 581 205 620 247 620 L332 620 C374 620 414 581 414 535 L414 165 C414 117 374 80 332 80 L247 80 Z " />
<glyph glyph-name="Ocircumflex" unicode="&#xd4;" horiz-adv-x="579" d="M252 925 C244 925 238 920 234 911 L161 763 C161 756 166 751 174 751 L237 751 C243 751 248 757 251 763 L289 840 L327 763 C330 757 335 751 341 751 L404 751 C412 751 417 756 417 763 L344 911 C340 920 334 925 326 925 L252 925 Z M238 705 C145 705 70 633 70 545 L70 155 C70 67 145 -5 238 -5 L341 -5 C434 -5 509 67 509 155 L509 545 C509 633 434 705 341 705 L238 705 Z M247 80 C205 80 165 117 165 165 L165 535 C165 581 205 620 247 620 L332 620 C374 620 414 581 414 535 L414 165 C414 117 374 80 332 80 L247 80 Z " />
<glyph glyph-name="Otilde" unicode="&#xd5;" horiz-adv-x="579" d="M365 751 C384 751 407 759 427 771 C432 774 435 779 435 785 L420 837 C418 843 413 845 408 845 C406 845 404 845 401 844 C388 840 372 836 365 836 C310 836 267 878 215 878 C196 878 173 870 153 858 C148 855 145 850 145 844 L160 792 C162 786 167 784 172 784 C174 784 176 784 179 785 C192 789 208 793 215 793 C270 793 312 751 365 751 L365 751 Z M238 705 C145 705 70 633 70 545 L70 155 C70 67 145 -5 238 -5 L341 -5 C434 -5 509 67 509 155 L509 545 C509 633 434 705 341 705 L238 705 Z M247 80 C205 80 165 117 165 165 L165 535 C165 581 205 620 247 620 L332 620 C374 620 414 581 414 535 L414 165 C414 117 374 80 332 80 L247 80 Z " />
<glyph glyph-name="Odieresis" unicode="&#xd6;" horiz-adv-x="579" d="M157 766 C157 757 163 751 172 751 L243 751 C252 751 258 757 258 766 L258 843 C258 852 252 858 243 858 L172 858 C163 858 157 852 157 843 L157 766 Z M320 766 C320 757 326 751 335 751 L406 751 C415 751 421 757 421 766 L421 843 C421 852 415 858 406 858 L335 858 C326 858 320 852 320 843 L320 766 Z M238 705 C145 705 70 633 70 545 L70 155 C70 67 145 -5 238 -5 L341 -5 C434 -5 509 67 509 155 L509 545 C509 633 434 705 341 705 L238 705 Z M247 80 C205 80 165 117 165 165 L165 535 C165 581 205 620 247 620 L332 620 C374 620 414 581 414 535 L414 165 C414 117 374 80 332 80 L247 80 Z " />
<glyph glyph-name="multiply" unicode="&#xd7;" horiz-adv-x="412" d="M206 124 L273 56 C276 53 279 53 281 53 C284 53 287 54 289 56 L329 96 C331 99 332 101 332 105 C332 107 331 110 329 113 L263 179 L329 245 C331 248 332 251 332 253 C332 257 331 259 329 262 L289 302 C287 304 284 305 281 305 C279 305 276 305 273 302 L206 234 L139 302 C136 305 133 305 131 305 C128 305 125 304 123 302 L83 262 C81 259 80 257 80 253 C80 251 81 248 83 245 L149 179 L83 113 C81 110 80 107 80 105 C80 101 81 99 83 96 L123 56 C125 54 128 53 131 53 C133 53 136 53 139 56 L206 124 Z " />
<glyph glyph-name="Oslash" unicode="&#xd8;" horiz-adv-x="579" d="M102 -78 C102 -86 107 -91 115 -91 L188 -91 C196 -91 199 -86 202 -78 L225 -4 C229 -5 234 -5 238 -5 L341 -5 C434 -5 509 67 509 155 L509 545 C509 596 483 642 443 672 L477 778 C477 786 472 791 464 791 L391 791 C383 791 380 786 377 778 L353 704 C349 705 345 705 341 705 L238 705 C145 705 70 633 70 545 L70 155 C70 103 96 57 136 28 L102 -78 Z M165 165 L165 535 C165 581 205 620 247 620 L326 620 L170 135 C167 144 165 154 165 165 L165 165 Z M414 535 L414 165 C414 117 374 80 332 80 L252 80 L408 564 C412 555 414 545 414 535 L414 535 Z " />
<glyph glyph-name="Ugrave" unicode="&#xd9;" horiz-adv-x="589" d="M321 751 C330 751 335 756 335 765 L279 883 C275 891 270 897 262 897 L201 897 C193 897 187 892 187 883 L243 765 C247 757 252 751 260 751 L321 751 Z M419 165 C419 117 379 80 337 80 L252 80 C210 80 170 117 170 165 L170 687 C170 695 165 700 157 700 L88 700 C80 700 75 695 75 687 L75 155 C75 67 150 -5 243 -5 L346 -5 C439 -5 514 67 514 155 L514 687 C514 695 509 700 501 700 L432 700 C424 700 419 695 419 687 L419 165 Z " />
<glyph glyph-name="Uacute" unicode="&#xda;" horiz-adv-x="589" d="M329 751 C337 751 342 757 346 765 L402 883 C402 892 396 897 388 897 L327 897 C319 897 314 891 310 883 L254 765 C254 756 259 751 268 751 L329 751 Z M419 165 C419 117 379 80 337 80 L252 80 C210 80 170 117 170 165 L170 687 C170 695 165 700 157 700 L88 700 C80 700 75 695 75 687 L75 155 C75 67 150 -5 243 -5 L346 -5 C439 -5 514 67 514 155 L514 687 C514 695 509 700 501 700 L432 700 C424 700 419 695 419 687 L419 165 Z " />
<glyph glyph-name="Ucircumflex" unicode="&#xdb;" horiz-adv-x="589" d="M257 925 C249 925 243 920 239 911 L166 763 C166 756 171 751 179 751 L242 751 C248 751 253 757 256 763 L294 840 L332 763 C335 757 340 751 346 751 L409 751 C417 751 422 756 422 763 L349 911 C345 920 339 925 331 925 L257 925 Z M419 165 C419 117 379 80 337 80 L252 80 C210 80 170 117 170 165 L170 687 C170 695 165 700 157 700 L88 700 C80 700 75 695 75 687 L75 155 C75 67 150 -5 243 -5 L346 -5 C439 -5 514 67 514 155 L514 687 C514 695 509 700 501 700 L432 700 C424 700 419 695 419 687 L419 165 Z " />
<glyph glyph-name="Udieresis" unicode="&#xdc;" horiz-adv-x="589" d="M162 766 C162 757 168 751 177 751 L248 751 C257 751 263 757 263 766 L263 843 C263 852 257 858 248 858 L177 858 C168 858 162 852 162 843 L162 766 Z M325 766 C325 757 331 751 340 751 L411 751 C420 751 426 757 426 766 L426 843 C426 852 420 858 411 858 L340 858 C331 858 325 852 325 843 L325 766 Z M419 165 C419 117 379 80 337 80 L252 80 C210 80 170 117 170 165 L170 687 C170 695 165 700 157 700 L88 700 C80 700 75 695 75 687 L75 155 C75 67 150 -5 243 -5 L346 -5 C439 -5 514 67 514 155 L514 687 C514 695 509 700 501 700 L432 700 C424 700 419 695 419 687 L419 165 Z " />
<glyph glyph-name="Yacute" unicode="&#xdd;" horiz-adv-x="561" d="M316 751 C324 751 329 757 333 765 L389 883 C389 892 383 897 375 897 L314 897 C306 897 301 891 297 883 L241 765 C241 756 246 751 255 751 L316 751 Z M328 220 L531 687 C531 695 526 700 518 700 L446 700 C438 700 435 697 431 689 L285 350 L276 350 L130 689 C126 697 123 700 115 700 L43 700 C35 700 30 695 30 687 L233 220 L233 13 C233 5 238 0 246 0 L315 0 C323 0 328 5 328 13 L328 220 Z " />
<glyph glyph-name="Thorn" unicode="&#xde;" horiz-adv-x="570" d="M175 193 L175 506 L334 506 C376 506 415 466 415 421 L415 277 C415 230 376 193 334 193 L175 193 Z M175 591 L175 687 C175 695 170 700 162 700 L93 700 C85 700 80 695 80 687 L80 13 C80 5 85 0 93 0 L162 0 C170 0 175 5 175 13 L175 108 L342 108 C435 108 510 180 510 269 L510 430 C510 519 435 591 342 591 L175 591 Z " />
<glyph glyph-name="germandbls" unicode="&#xdf;" horiz-adv-x="560" d="M342 0 C435 0 510 72 510 161 L510 229 C510 277 490 325 431 364 C460 388 479 439 479 471 L479 539 C479 628 404 700 311 700 L93 700 C85 700 80 695 80 687 L80 13 C80 5 85 0 93 0 L162 0 C170 0 175 5 175 13 L175 616 L302 616 C344 616 384 576 384 531 L384 478 C384 430 344 393 302 393 L237 393 C229 393 224 388 224 380 L224 321 C224 313 229 308 237 308 L334 308 C376 308 415 269 415 223 L415 170 C415 122 376 85 334 85 L257 85 C249 85 244 80 244 72 L244 13 C244 5 249 0 257 0 L342 0 Z " />
<glyph glyph-name="agrave" unicode="&#xe0;" horiz-adv-x="490" d="M291 571 C300 571 305 576 305 585 L249 703 C245 711 240 717 232 717 L171 717 C163 717 157 712 157 703 L213 585 C217 577 222 571 230 571 L291 571 Z M215 80 C180 80 155 111 155 146 L155 161 C155 196 180 225 215 225 L330 225 L330 146 C330 111 303 80 269 80 L215 80 Z M106 500 C100 497 97 494 97 488 C97 486 97 482 111 429 C113 420 116 420 123 420 C176 429 200 435 233 435 C330 435 330 368 330 335 L330 310 L206 310 C120 310 60 260 60 178 L60 124 C60 42 120 -5 206 -5 L236 -5 C276 -5 303 7 322 32 L330 32 L330 13 C330 5 335 0 343 0 L412 0 C420 0 425 5 425 13 L425 336 C425 382 424 520 243 520 C166 520 132 510 106 500 L106 500 Z " />
<glyph glyph-name="aacute" unicode="&#xe1;" horiz-adv-x="490" d="M296 571 C304 571 309 577 313 585 L369 703 C369 712 363 717 355 717 L294 717 C286 717 281 711 277 703 L221 585 C221 576 226 571 235 571 L296 571 Z M215 80 C180 80 155 111 155 146 L155 161 C155 196 180 225 215 225 L330 225 L330 146 C330 111 303 80 269 80 L215 80 Z M106 500 C100 497 97 494 97 488 C97 486 97 482 111 429 C113 420 116 420 123 420 C176 429 200 435 233 435 C330 435 330 368 330 335 L330 310 L206 310 C120 310 60 260 60 178 L60 124 C60 42 120 -5 206 -5 L236 -5 C276 -5 303 7 322 32 L330 32 L330 13 C330 5 335 0 343 0 L412 0 C420 0 425 5 425 13 L425 336 C425 382 424 520 243 520 C166 520 132 510 106 500 L106 500 Z " />
<glyph glyph-name="acircumflex" unicode="&#xe2;" horiz-adv-x="490" d="M232 745 C224 745 218 740 214 731 L141 583 C141 576 146 571 154 571 L217 571 C223 571 228 577 231 583 L269 660 L307 583 C310 577 315 571 321 571 L384 571 C392 571 397 576 397 583 L324 731 C320 740 314 745 306 745 L232 745 Z M215 80 C180 80 155 111 155 146 L155 161 C155 196 180 225 215 225 L330 225 L330 146 C330 111 303 80 269 80 L215 80 Z M106 500 C100 497 97 494 97 488 C97 486 97 482 111 429 C113 420 116 420 123 420 C176 429 200 435 233 435 C330 435 330 368 330 335 L330 310 L206 310 C120 310 60 260 60 178 L60 124 C60 42 120 -5 206 -5 L236 -5 C276 -5 303 7 322 32 L330 32 L330 13 C330 5 335 0 343 0 L412 0 C420 0 425 5 425 13 L425 336 C425 382 424 520 243 520 C166 520 132 510 106 500 L106 500 Z " />
<glyph glyph-name="atilde" unicode="&#xe3;" horiz-adv-x="490" d="M215 80 C180 80 155 111 155 146 L155 161 C155 196 180 225 215 225 L330 225 L330 146 C330 111 303 80 269 80 L215 80 Z M106 500 C100 497 97 494 97 488 C97 486 97 482 111 429 C113 420 116 420 123 420 C176 429 200 435 233 435 C330 435 330 368 330 335 L330 310 L206 310 C120 310 60 260 60 178 L60 124 C60 42 120 -5 206 -5 L236 -5 C276 -5 303 7 322 32 L330 32 L330 13 C330 5 335 0 343 0 L412 0 C420 0 425 5 425 13 L425 336 C425 382 424 520 243 520 C166 520 132 510 106 500 L106 500 Z M320 571 C339 571 362 579 382 591 C387 594 390 599 390 605 L375 657 C373 663 368 665 363 665 C361 665 359 665 356 664 C343 660 327 656 320 656 C265 656 254 698 202 698 C183 698 160 690 140 678 C135 675 132 670 132 664 L147 612 C149 606 154 604 159 604 C161 604 163 604 166 605 C179 609 195 613 202 613 C257 613 267 571 320 571 L320 571 Z " />
<glyph glyph-name="adieresis" unicode="&#xe4;" horiz-adv-x="490" d="M137 586 C137 577 143 571 152 571 L223 571 C232 571 238 577 238 586 L238 663 C238 672 232 678 223 678 L152 678 C143 678 137 672 137 663 L137 586 Z M300 586 C300 577 306 571 315 571 L386 571 C395 571 401 577 401 586 L401 663 C401 672 395 678 386 678 L315 678 C306 678 300 672 300 663 L300 586 Z M215 80 C180 80 155 111 155 146 L155 161 C155 196 180 225 215 225 L330 225 L330 146 C330 111 303 80 269 80 L215 80 Z M106 500 C100 497 97 494 97 488 C97 486 97 482 111 429 C113 420 116 420 123 420 C176 429 200 435 233 435 C330 435 330 368 330 335 L330 310 L206 310 C120 310 60 260 60 178 L60 124 C60 42 120 -5 206 -5 L236 -5 C276 -5 303 7 322 32 L330 32 L330 13 C330 5 335 0 343 0 L412 0 C420 0 425 5 425 13 L425 336 C425 382 424 520 243 520 C166 520 132 510 106 500 L106 500 Z " />
<glyph glyph-name="aring" unicode="&#xe5;" horiz-adv-x="490" d="M263 829 C192 829 134 772 134 700 C134 629 192 571 263 571 C334 571 392 629 392 700 C392 772 334 829 263 829 L263 829 Z M263 643 C231 643 206 671 206 700 C206 733 231 757 263 757 C295 757 320 733 320 700 C320 671 295 643 263 643 L263 643 Z M215 80 C180 80 155 111 155 146 L155 161 C155 196 180 225 215 225 L330 225 L330 146 C330 111 303 80 269 80 L215 80 Z M106 500 C100 497 97 494 97 488 C97 486 97 482 111 429 C113 420 116 420 123 420 C176 429 200 435 233 435 C330 435 330 368 330 335 L330 310 L206 310 C120 310 60 260 60 178 L60 124 C60 42 120 -5 206 -5 L236 -5 C276 -5 303 7 322 32 L330 32 L330 13 C330 5 335 0 343 0 L412 0 C420 0 425 5 425 13 L425 336 C425 382 424 520 243 520 C166 520 132 510 106 500 L106 500 Z " />
<glyph glyph-name="ae" unicode="&#xe6;" horiz-adv-x="754" d="M611 105 C596 93 574 80 541 80 L492 80 C459 80 425 111 425 146 L425 216 L681 216 C689 216 694 221 694 229 L694 374 C694 446 638 520 549 520 L474 520 C433 520 399 503 374 479 C347 503 306 520 243 520 C166 520 132 510 106 500 C100 497 97 494 97 488 C97 486 97 482 111 429 C113 420 116 420 123 420 C176 429 200 435 233 435 C318 435 328 384 330 349 L330 310 L206 310 C120 310 60 260 60 178 L60 124 C60 42 120 -5 206 -5 L284 -5 C324 -5 351 7 370 32 L378 32 C402 9 435 -5 474 -5 L541 -5 C541 -5 627 -5 676 56 C678 59 679 61 679 64 C679 67 676 71 674 73 L630 108 C627 110 625 111 622 111 C618 111 614 107 611 105 L611 105 Z M215 80 C180 80 155 111 155 146 L155 161 C155 196 180 225 215 225 L330 225 L330 141 C327 108 301 80 269 80 L215 80 Z M425 369 C425 404 459 435 492 435 L533 435 C566 435 599 404 599 369 L599 301 L425 301 L425 369 Z " />
<glyph glyph-name="ccedilla" unicode="&#xe7;" horiz-adv-x="474" d="M192 -52 C190 -55 189 -58 189 -60 L189 -93 C189 -98 193 -102 198 -102 L253 -102 C253 -102 277 -102 277 -125 C277 -146 253 -146 253 -146 L193 -146 C188 -146 184 -150 184 -155 L184 -186 C184 -191 188 -195 193 -195 L270 -195 C317 -195 332 -178 332 -119 C332 -71 294 -53 255 -53 L279 -5 L284 -5 C373 -5 429 69 429 141 L429 157 C429 165 424 170 416 170 L347 170 C339 170 334 165 334 157 L334 146 C334 111 301 80 268 80 L227 80 C194 80 160 111 160 146 L160 369 C160 404 194 435 227 435 L268 435 C301 435 334 404 334 369 L334 358 C334 350 339 345 347 345 L416 345 C424 345 429 350 429 358 L429 374 C429 446 373 520 284 520 L209 520 C122 520 65 446 65 374 L65 141 C65 69 122 -5 209 -5 L216 -5 L192 -52 Z " />
<glyph glyph-name="egrave" unicode="&#xe8;" horiz-adv-x="489" d="M274 571 C283 571 288 576 288 585 L232 703 C228 711 223 717 215 717 L154 717 C146 717 140 712 140 703 L196 585 C200 577 205 571 213 571 L274 571 Z M346 105 C331 93 309 80 276 80 L227 80 C194 80 160 111 160 146 L160 216 L416 216 C424 216 429 221 429 229 L429 374 C429 446 373 520 284 520 L209 520 C122 520 65 446 65 374 L65 141 C65 69 122 -5 209 -5 L276 -5 C276 -5 362 -5 411 56 C413 59 414 61 414 64 C414 67 411 71 409 73 L365 108 C362 110 360 111 357 111 C353 111 349 107 346 105 L346 105 Z M160 369 C160 404 194 435 227 435 L268 435 C301 435 334 404 334 369 L334 301 L160 301 L160 369 Z " />
<glyph glyph-name="eacute" unicode="&#xe9;" horiz-adv-x="489" d="M281 571 C289 571 294 577 298 585 L354 703 C354 712 348 717 340 717 L279 717 C271 717 266 711 262 703 L206 585 C206 576 211 571 220 571 L281 571 Z M346 105 C331 93 309 80 276 80 L227 80 C194 80 160 111 160 146 L160 216 L416 216 C424 216 429 221 429 229 L429 374 C429 446 373 520 284 520 L209 520 C122 520 65 446 65 374 L65 141 C65 69 122 -5 209 -5 L276 -5 C276 -5 362 -5 411 56 C413 59 414 61 414 64 C414 67 411 71 409 73 L365 108 C362 110 360 111 357 111 C353 111 349 107 346 105 L346 105 Z M160 369 C160 404 194 435 227 435 L268 435 C301 435 334 404 334 369 L334 301 L160 301 L160 369 Z " />
<glyph glyph-name="ecircumflex" unicode="&#xea;" horiz-adv-x="489" d="M209 745 C201 745 195 740 191 731 L118 583 C118 576 123 571 131 571 L194 571 C200 571 205 577 208 583 L246 660 L284 583 C287 577 292 571 298 571 L361 571 C369 571 374 576 374 583 L301 731 C297 740 291 745 283 745 L209 745 Z M346 105 C331 93 309 80 276 80 L227 80 C194 80 160 111 160 146 L160 216 L416 216 C424 216 429 221 429 229 L429 374 C429 446 373 520 284 520 L209 520 C122 520 65 446 65 374 L65 141 C65 69 122 -5 209 -5 L276 -5 C276 -5 362 -5 411 56 C413 59 414 61 414 64 C414 67 411 71 409 73 L365 108 C362 110 360 111 357 111 C353 111 349 107 346 105 L346 105 Z M160 369 C160 404 194 435 227 435 L268 435 C301 435 334 404 334 369 L334 301 L160 301 L160 369 Z " />
<glyph glyph-name="edieresis" unicode="&#xeb;" horiz-adv-x="489" d="M117 586 C117 577 123 571 132 571 L203 571 C212 571 218 577 218 586 L218 663 C218 672 212 678 203 678 L132 678 C123 678 117 672 117 663 L117 586 Z M280 586 C280 577 286 571 295 571 L366 571 C375 571 381 577 381 586 L381 663 C381 672 375 678 366 678 L295 678 C286 678 280 672 280 663 L280 586 Z M346 105 C331 93 309 80 276 80 L227 80 C194 80 160 111 160 146 L160 216 L416 216 C424 216 429 221 429 229 L429 374 C429 446 373 520 284 520 L209 520 C122 520 65 446 65 374 L65 141 C65 69 122 -5 209 -5 L276 -5 C276 -5 362 -5 411 56 C413 59 414 61 414 64 C414 67 411 71 409 73 L365 108 C362 110 360 111 357 111 C353 111 349 107 346 105 L346 105 Z M160 369 C160 404 194 435 227 435 L268 435 C301 435 334 404 334 369 L334 301 L160 301 L160 369 Z " />
<glyph glyph-name="igrave" unicode="&#xec;" horiz-adv-x="255" d="M80 13 C80 5 85 0 93 0 L162 0 C170 0 175 5 175 13 L175 502 C175 510 170 515 162 515 L93 515 C85 515 80 510 80 502 L80 13 Z M155 571 C164 571 169 576 169 585 L113 703 C109 711 104 717 96 717 L35 717 C27 717 21 712 21 703 L77 585 C81 577 86 571 94 571 L155 571 Z " />
<glyph glyph-name="iacute" unicode="&#xed;" horiz-adv-x="255" d="M175 502 C175 510 170 515 162 515 L93 515 C85 515 80 510 80 502 L80 13 C80 5 85 0 93 0 L162 0 C170 0 175 5 175 13 L175 502 Z M161 571 C169 571 174 577 178 585 L234 703 C234 712 228 717 220 717 L159 717 C151 717 146 711 142 703 L86 585 C86 576 91 571 100 571 L161 571 Z " />
<glyph glyph-name="icircumflex" unicode="&#xee;" horiz-adv-x="255" d="M80 13 C80 5 85 0 93 0 L162 0 C170 0 175 5 175 13 L175 502 C175 510 170 515 162 515 L93 515 C85 515 80 510 80 502 L80 13 Z M90 742 C82 742 76 737 72 728 L-1 580 C-1 573 4 568 12 568 L75 568 C81 568 86 574 89 580 L127 657 L165 580 C168 574 173 568 179 568 L242 568 C250 568 255 573 255 580 L182 728 C178 737 172 742 164 742 L90 742 Z " />
<glyph glyph-name="idieresis" unicode="&#xef;" horiz-adv-x="255" d="M80 13 C80 5 85 0 93 0 L162 0 C170 0 175 5 175 13 L175 502 C175 510 170 515 162 515 L93 515 C85 515 80 510 80 502 L80 13 Z M-5 586 C-5 577 1 571 10 571 L81 571 C90 571 96 577 96 586 L96 663 C96 672 90 678 81 678 L10 678 C1 678 -5 672 -5 663 L-5 586 Z M158 586 C158 577 164 571 173 571 L244 571 C253 571 259 577 259 586 L259 663 C259 672 253 678 244 678 L173 678 C164 678 158 672 158 663 L158 586 Z " />
<glyph glyph-name="eth" unicode="&#xf0;" horiz-adv-x="569" d="M178 558 L75 407 C72 400 70 394 70 385 L70 155 C70 67 145 -5 238 -5 L342 -5 C433 -5 509 67 509 155 L509 262 C509 349 433 421 342 421 L245 421 C234 421 212 421 181 403 L172 403 L278 558 L411 558 C418 558 422 562 422 569 L422 621 C422 628 418 632 411 632 L330 632 L367 687 C367 695 364 700 356 700 L287 700 C280 700 272 694 268 687 L229 632 L113 632 C106 632 102 628 102 621 L102 569 C102 562 106 558 113 558 L178 558 Z M246 80 C204 80 165 118 165 164 L165 251 C165 299 204 336 246 336 L332 336 C375 336 414 299 414 251 L414 164 C414 118 375 80 332 80 L246 80 Z " />
<glyph glyph-name="ntilde" unicode="&#xf1;" horiz-adv-x="524" d="M359 13 C359 5 364 0 372 0 L441 0 C449 0 454 5 454 13 L454 371 C454 454 405 520 319 520 L288 520 C268 520 214 519 183 459 L175 459 L175 502 C175 510 170 515 162 515 L93 515 C85 515 80 510 80 502 L80 13 C80 5 85 0 93 0 L162 0 C170 0 175 5 175 13 L175 359 C212 434 265 435 293 435 L301 435 C338 435 359 405 359 353 L359 13 Z M324 571 C343 571 366 579 386 591 C391 594 394 599 394 605 L379 657 C377 663 372 665 367 665 C365 665 363 665 360 664 C347 660 331 656 324 656 C269 656 258 698 206 698 C187 698 164 690 144 678 C139 675 136 670 136 664 L151 612 C153 606 158 604 163 604 C165 604 167 604 170 605 C183 609 199 613 206 613 C261 613 271 571 324 571 L324 571 Z " />
<glyph glyph-name="ograve" unicode="&#xf2;" horiz-adv-x="494" d="M273 571 C282 571 287 576 287 585 L231 703 C227 711 222 717 214 717 L153 717 C145 717 139 712 139 703 L195 585 C199 577 204 571 212 571 L273 571 Z M209 520 C122 520 65 446 65 374 L65 141 C65 69 122 -5 209 -5 L284 -5 C372 -5 429 69 429 141 L429 374 C429 446 372 520 285 520 L209 520 Z M227 80 C194 80 160 111 160 146 L160 369 C160 404 194 435 227 435 L267 435 C300 435 334 404 334 369 L334 146 C334 111 300 80 267 80 L227 80 Z " />
<glyph glyph-name="oacute" unicode="&#xf3;" horiz-adv-x="494" d="M281 571 C289 571 294 577 298 585 L354 703 C354 712 348 717 340 717 L279 717 C271 717 266 711 262 703 L206 585 C206 576 211 571 220 571 L281 571 Z M209 520 C122 520 65 446 65 374 L65 141 C65 69 122 -5 209 -5 L284 -5 C372 -5 429 69 429 141 L429 374 C429 446 372 520 285 520 L209 520 Z M227 80 C194 80 160 111 160 146 L160 369 C160 404 194 435 227 435 L267 435 C300 435 334 404 334 369 L334 146 C334 111 300 80 267 80 L227 80 Z " />
<glyph glyph-name="ocircumflex" unicode="&#xf4;" horiz-adv-x="494" d="M210 745 C202 745 196 740 192 731 L119 583 C119 576 124 571 132 571 L195 571 C201 571 206 577 209 583 L247 660 L285 583 C288 577 293 571 299 571 L362 571 C370 571 375 576 375 583 L302 731 C298 740 292 745 284 745 L210 745 Z M209 520 C122 520 65 446 65 374 L65 141 C65 69 122 -5 209 -5 L284 -5 C372 -5 429 69 429 141 L429 374 C429 446 372 520 285 520 L209 520 Z M227 80 C194 80 160 111 160 146 L160 369 C160 404 194 435 227 435 L267 435 C300 435 334 404 334 369 L334 146 C334 111 300 80 267 80 L227 80 Z " />
<glyph glyph-name="otilde" unicode="&#xf5;" horiz-adv-x="494" d="M209 520 C122 520 65 446 65 374 L65 141 C65 69 122 -5 209 -5 L284 -5 C372 -5 429 69 429 141 L429 374 C429 446 372 520 285 520 L209 520 Z M227 80 C194 80 160 111 160 146 L160 369 C160 404 194 435 227 435 L267 435 C300 435 334 404 334 369 L334 146 C334 111 300 80 267 80 L227 80 Z M303 571 C322 571 345 579 365 591 C370 594 373 599 373 605 L358 657 C356 663 351 665 346 665 C344 665 342 665 339 664 C326 660 310 656 303 656 C248 656 237 698 185 698 C166 698 143 690 123 678 C118 675 115 670 115 664 L130 612 C132 606 137 604 142 604 C144 604 146 604 149 605 C162 609 178 613 185 613 C240 613 250 571 303 571 L303 571 Z " />
<glyph glyph-name="odieresis" unicode="&#xf6;" horiz-adv-x="494" d="M115 586 C115 577 121 571 130 571 L201 571 C210 571 216 577 216 586 L216 663 C216 672 210 678 201 678 L130 678 C121 678 115 672 115 663 L115 586 Z M278 586 C278 577 284 571 293 571 L364 571 C373 571 379 577 379 586 L379 663 C379 672 373 678 364 678 L293 678 C284 678 278 672 278 663 L278 586 Z M209 520 C122 520 65 446 65 374 L65 141 C65 69 122 -5 209 -5 L284 -5 C372 -5 429 69 429 141 L429 374 C429 446 372 520 285 520 L209 520 Z M227 80 C194 80 160 111 160 146 L160 369 C160 404 194 435 227 435 L267 435 C300 435 334 404 334 369 L334 146 C334 111 300 80 267 80 L227 80 Z " />
<glyph glyph-name="divide" unicode="&#xf7;" horiz-adv-x="433" d="M93 226 C85 226 80 221 80 213 L80 163 C80 155 85 150 93 150 L340 150 C348 150 353 155 353 163 L353 213 C353 221 348 226 340 226 L93 226 Z M169 301 C169 294 173 289 181 289 L252 289 C259 289 264 294 264 301 L264 369 C264 376 259 381 252 381 L181 381 C173 381 169 376 169 369 L169 301 Z M169 7 C169 0 173 -5 181 -5 L252 -5 C259 -5 264 0 264 7 L264 75 C264 82 259 87 252 87 L181 87 C173 87 169 82 169 75 L169 7 Z " />
<glyph glyph-name="oslash" unicode="&#xf8;" horiz-adv-x="494" d="M80 -78 C80 -86 85 -91 93 -91 L166 -91 C174 -91 177 -86 180 -78 L203 -5 L284 -5 C372 -5 429 69 429 141 L429 374 C429 420 405 468 365 495 L397 593 C397 601 392 606 384 606 L311 606 C303 606 300 601 297 593 L273 520 L209 520 C122 520 65 446 65 374 L65 141 C65 100 83 59 115 30 L80 -78 Z M334 369 L334 146 C334 111 300 80 267 80 L231 80 L330 388 C332 382 334 375 334 369 L334 369 Z M160 369 C160 404 194 435 227 435 L246 435 L160 169 L160 369 Z " />
<glyph glyph-name="ugrave" unicode="&#xf9;" horiz-adv-x="504" d="M278 571 C287 571 292 576 292 585 L236 703 C232 711 227 717 219 717 L158 717 C150 717 144 712 144 703 L200 585 C204 577 209 571 217 571 L278 571 Z M339 146 C339 111 305 80 272 80 L232 80 C199 80 165 111 165 146 L165 502 C165 510 160 515 152 515 L83 515 C75 515 70 510 70 502 L70 141 C70 69 127 -5 214 -5 L289 -5 C377 -5 434 69 434 141 L434 502 C434 510 429 515 421 515 L352 515 C344 515 339 510 339 502 L339 146 Z " />
<glyph glyph-name="uacute" unicode="&#xfa;" horiz-adv-x="504" d="M286 571 C294 571 299 577 303 585 L359 703 C359 712 353 717 345 717 L284 717 C276 717 271 711 267 703 L211 585 C211 576 216 571 225 571 L286 571 Z M339 146 C339 111 305 80 272 80 L232 80 C199 80 165 111 165 146 L165 502 C165 510 160 515 152 515 L83 515 C75 515 70 510 70 502 L70 141 C70 69 127 -5 214 -5 L289 -5 C377 -5 434 69 434 141 L434 502 C434 510 429 515 421 515 L352 515 C344 515 339 510 339 502 L339 146 Z " />
<glyph glyph-name="ucircumflex" unicode="&#xfb;" horiz-adv-x="504" d="M215 745 C207 745 201 740 197 731 L124 583 C124 576 129 571 137 571 L200 571 C206 571 211 577 214 583 L252 660 L290 583 C293 577 298 571 304 571 L367 571 C375 571 380 576 380 583 L307 731 C303 740 297 745 289 745 L215 745 Z M339 146 C339 111 305 80 272 80 L232 80 C199 80 165 111 165 146 L165 502 C165 510 160 515 152 515 L83 515 C75 515 70 510 70 502 L70 141 C70 69 127 -5 214 -5 L289 -5 C377 -5 434 69 434 141 L434 502 C434 510 429 515 421 515 L352 515 C344 515 339 510 339 502 L339 146 Z " />
<glyph glyph-name="udieresis" unicode="&#xfc;" horiz-adv-x="504" d="M120 586 C120 577 126 571 135 571 L206 571 C215 571 221 577 221 586 L221 663 C221 672 215 678 206 678 L135 678 C126 678 120 672 120 663 L120 586 Z M283 586 C283 577 289 571 298 571 L369 571 C378 571 384 577 384 586 L384 663 C384 672 378 678 369 678 L298 678 C289 678 283 672 283 663 L283 586 Z M339 146 C339 111 305 80 272 80 L232 80 C199 80 165 111 165 146 L165 502 C165 510 160 515 152 515 L83 515 C75 515 70 510 70 502 L70 141 C70 69 127 -5 214 -5 L289 -5 C377 -5 434 69 434 141 L434 502 C434 510 429 515 421 515 L352 515 C344 515 339 510 339 502 L339 146 Z " />
<glyph glyph-name="yacute" unicode="&#xfd;" horiz-adv-x="466" d="M280 571 C288 571 293 577 297 585 L353 703 C353 712 347 717 339 717 L278 717 C270 717 265 711 261 703 L205 585 C205 576 210 571 219 571 L280 571 Z M174 -52 C170 -86 146 -118 93 -118 L59 -118 C51 -118 46 -123 46 -131 L46 -190 C46 -198 51 -203 59 -203 L121 -203 C164 -203 257 -181 303 -11 L441 502 C441 510 436 515 428 515 L355 515 C347 515 344 510 341 502 L238 97 L228 97 L125 502 C122 510 119 515 111 515 L38 515 C30 515 25 510 25 502 L174 -52 Z " />
<glyph glyph-name="thorn" unicode="&#xfe;" horiz-adv-x="518" d="M175 369 C175 404 209 435 242 435 L296 435 C330 435 363 404 363 369 L363 146 C363 111 330 80 296 80 L242 80 C209 80 175 111 175 146 L175 369 Z M175 687 C175 695 170 700 162 700 L93 700 C85 700 80 695 80 687 L80 -161 C80 -169 85 -174 93 -174 L162 -174 C170 -174 175 -169 175 -161 L175 32 L183 32 C205 1 249 -5 269 -5 L312 -5 C399 -5 458 58 458 143 L458 372 C458 457 399 520 312 520 L269 520 C249 520 205 514 183 483 L175 483 L175 687 Z " />
<glyph glyph-name="ydieresis" unicode="&#xff;" horiz-adv-x="466" d="M101 586 C101 577 107 571 116 571 L187 571 C196 571 202 577 202 586 L202 663 C202 672 196 678 187 678 L116 678 C107 678 101 672 101 663 L101 586 Z M264 586 C264 577 270 571 279 571 L350 571 C359 571 365 577 365 586 L365 663 C365 672 359 678 350 678 L279 678 C270 678 264 672 264 663 L264 586 Z M174 -52 C170 -86 146 -118 93 -118 L59 -118 C51 -118 46 -123 46 -131 L46 -190 C46 -198 51 -203 59 -203 L121 -203 C164 -203 257 -181 303 -11 L441 502 C441 510 436 515 428 515 L355 515 C347 515 344 510 341 502 L238 97 L228 97 L125 502 C122 510 119 515 111 515 L38 515 C30 515 25 510 25 502 L174 -52 Z " />
<glyph glyph-name="Amacron" unicode="&#x100;" horiz-adv-x="588" d="M194 836 C186 836 181 831 181 823 L181 764 C181 756 186 751 194 751 L394 751 C402 751 407 756 407 764 L407 823 C407 831 402 836 394 836 L194 836 Z M248 700 C240 700 237 695 235 687 L35 13 C35 5 40 0 48 0 L121 0 C129 0 132 5 135 13 L166 125 L421 125 L453 13 C456 5 459 0 467 0 L540 0 C548 0 553 5 553 13 L353 687 C351 695 348 700 340 700 L248 700 Z M289 557 L299 557 L397 210 L190 210 L289 557 Z " />
<glyph glyph-name="amacron" unicode="&#x101;" horiz-adv-x="490" d="M215 80 C180 80 155 111 155 146 L155 161 C155 196 180 225 215 225 L330 225 L330 146 C330 111 303 80 269 80 L215 80 Z M106 500 C100 497 97 494 97 488 C97 486 97 482 111 429 C113 420 116 420 123 420 C176 429 200 435 233 435 C330 435 330 368 330 335 L330 310 L206 310 C120 310 60 260 60 178 L60 124 C60 42 120 -5 206 -5 L236 -5 C276 -5 303 7 322 32 L330 32 L330 13 C330 5 335 0 343 0 L412 0 C420 0 425 5 425 13 L425 336 C425 382 424 520 243 520 C166 520 132 510 106 500 L106 500 Z M170 656 C162 656 157 651 157 643 L157 584 C157 576 162 571 170 571 L368 571 C376 571 381 576 381 584 L381 643 C381 651 376 656 368 656 L170 656 Z " />
<glyph glyph-name="Abreve" unicode="&#x102;" horiz-adv-x="588" d="M248 700 C240 700 237 695 235 687 L35 13 C35 5 40 0 48 0 L121 0 C129 0 132 5 135 13 L166 125 L421 125 L453 13 C456 5 459 0 467 0 L540 0 C548 0 553 5 553 13 L353 687 C351 695 348 700 340 700 L248 700 Z M289 557 L299 557 L397 210 L190 210 L289 557 Z M294 751 C381 751 426 798 442 886 C442 895 436 901 427 901 L372 901 C364 901 358 895 355 886 C342 843 324 832 294 832 C264 832 246 843 233 886 C230 895 224 901 216 901 L161 901 C152 901 146 895 146 886 C162 798 207 751 294 751 L294 751 Z " />
<glyph glyph-name="abreve" unicode="&#x103;" horiz-adv-x="490" d="M215 80 C180 80 155 111 155 146 L155 161 C155 196 180 225 215 225 L330 225 L330 146 C330 111 303 80 269 80 L215 80 Z M106 500 C100 497 97 494 97 488 C97 486 97 482 111 429 C113 420 116 420 123 420 C176 429 200 435 233 435 C330 435 330 368 330 335 L330 310 L206 310 C120 310 60 260 60 178 L60 124 C60 42 120 -5 206 -5 L236 -5 C276 -5 303 7 322 32 L330 32 L330 13 C330 5 335 0 343 0 L412 0 C420 0 425 5 425 13 L425 336 C425 382 424 520 243 520 C166 520 132 510 106 500 L106 500 Z M263 571 C350 571 395 618 411 706 C411 715 405 721 396 721 L341 721 C333 721 327 715 324 706 C311 663 293 652 263 652 C233 652 215 663 202 706 C199 715 193 721 185 721 L130 721 C121 721 115 715 115 706 C131 618 176 571 263 571 L263 571 Z " />
<glyph glyph-name="Aogonek" unicode="&#x104;" horiz-adv-x="588" d="M289 557 L299 557 L397 210 L190 210 L289 557 Z M443 44 C372 28 370 -13 370 -44 C370 -82 397 -118 446 -118 L523 -118 C528 -118 532 -114 532 -109 L532 -78 C532 -73 528 -69 523 -69 L463 -69 C463 -69 425 -69 425 -34 C425 -17 434 0 467 0 L540 0 C548 0 553 5 553 13 L353 687 C351 695 348 700 340 700 L248 700 C240 700 237 695 235 687 L35 13 C35 5 40 0 48 0 L121 0 C129 0 132 5 135 13 L166 125 L421 125 L443 44 Z " />
<glyph glyph-name="aogonek" unicode="&#x105;" horiz-adv-x="490" d="M215 80 C180 80 155 111 155 146 L155 161 C155 196 180 225 215 225 L330 225 L330 146 C330 111 303 80 269 80 L215 80 Z M425 336 C425 382 424 520 243 520 C166 520 132 510 106 500 C100 497 97 494 97 488 C97 486 97 482 111 429 C113 420 116 420 123 420 C176 429 200 435 233 435 C330 435 330 368 330 335 L330 310 L206 310 C120 310 60 260 60 178 L60 124 C60 42 120 -5 206 -5 L236 -5 C276 -5 303 7 322 32 L330 32 L330 -20 C288 -26 273 -56 273 -85 C273 -144 297 -155 344 -155 L406 -155 C411 -155 415 -151 415 -146 L415 -115 C415 -110 411 -106 406 -106 L361 -106 C361 -106 333 -106 333 -85 C333 -62 361 -62 361 -62 L412 -62 C420 -62 425 -57 425 -49 L425 336 Z " />
<glyph glyph-name="Cacute" unicode="&#x106;" horiz-adv-x="564" d="M325 751 C333 751 338 757 342 765 L398 883 C398 892 392 897 384 897 L323 897 C315 897 310 891 306 883 L250 765 C250 756 255 751 264 751 L325 751 Z M414 165 C414 117 374 80 332 80 L247 80 C205 80 165 117 165 165 L165 535 C165 581 205 620 247 620 L332 620 C374 620 414 581 414 535 L414 502 C414 494 419 489 427 489 L496 489 C504 489 509 494 509 502 L509 545 C509 633 434 705 341 705 L238 705 C145 705 70 633 70 545 L70 155 C70 67 145 -5 238 -5 L341 -5 C434 -5 509 67 509 155 L509 193 C509 201 504 206 496 206 L427 206 C419 206 414 201 414 193 L414 165 Z " />
<glyph glyph-name="cacute" unicode="&#x107;" horiz-adv-x="474" d="M281 571 C289 571 294 577 298 585 L354 703 C354 712 348 717 340 717 L279 717 C271 717 266 711 262 703 L206 585 C206 576 211 571 220 571 L281 571 Z M429 157 C429 165 424 170 416 170 L347 170 C339 170 334 165 334 157 L334 146 C334 111 301 80 268 80 L227 80 C194 80 160 111 160 146 L160 369 C160 404 194 435 227 435 L268 435 C301 435 334 404 334 369 L334 358 C334 350 339 345 347 345 L416 345 C424 345 429 350 429 358 L429 374 C429 446 373 520 284 520 L209 520 C122 520 65 446 65 374 L65 141 C65 69 122 -5 209 -5 L284 -5 C373 -5 429 69 429 141 L429 157 Z " />
<glyph glyph-name="Ccircumflex" unicode="&#x108;" horiz-adv-x="564" d="M250 925 C242 925 236 920 232 911 L159 763 C159 756 164 751 172 751 L235 751 C241 751 246 757 249 763 L287 840 L325 763 C328 757 333 751 339 751 L402 751 C410 751 415 756 415 763 L342 911 C338 920 332 925 324 925 L250 925 Z M414 165 C414 117 374 80 332 80 L247 80 C205 80 165 117 165 165 L165 535 C165 581 205 620 247 620 L332 620 C374 620 414 581 414 535 L414 502 C414 494 419 489 427 489 L496 489 C504 489 509 494 509 502 L509 545 C509 633 434 705 341 705 L238 705 C145 705 70 633 70 545 L70 155 C70 67 145 -5 238 -5 L341 -5 C434 -5 509 67 509 155 L509 193 C509 201 504 206 496 206 L427 206 C419 206 414 201 414 193 L414 165 Z " />
<glyph glyph-name="ccircumflex" unicode="&#x109;" horiz-adv-x="474" d="M209 745 C201 745 195 740 191 731 L118 583 C118 576 123 571 131 571 L194 571 C200 571 205 577 208 583 L246 660 L284 583 C287 577 292 571 298 571 L361 571 C369 571 374 576 374 583 L301 731 C297 740 291 745 283 745 L209 745 Z M429 157 C429 165 424 170 416 170 L347 170 C339 170 334 165 334 157 L334 146 C334 111 301 80 268 80 L227 80 C194 80 160 111 160 146 L160 369 C160 404 194 435 227 435 L268 435 C301 435 334 404 334 369 L334 358 C334 350 339 345 347 345 L416 345 C424 345 429 350 429 358 L429 374 C429 446 373 520 284 520 L209 520 C122 520 65 446 65 374 L65 141 C65 69 122 -5 209 -5 L284 -5 C373 -5 429 69 429 141 L429 157 Z " />
<glyph glyph-name="Cdotaccent" unicode="&#x10a;" horiz-adv-x="564" d="M240 766 C240 757 246 751 255 751 L326 751 C335 751 341 757 341 766 L341 843 C341 852 335 858 326 858 L255 858 C246 858 240 852 240 843 L240 766 Z M414 165 C414 117 374 80 332 80 L247 80 C205 80 165 117 165 165 L165 535 C165 581 205 620 247 620 L332 620 C374 620 414 581 414 535 L414 502 C414 494 419 489 427 489 L496 489 C504 489 509 494 509 502 L509 545 C509 633 434 705 341 705 L238 705 C145 705 70 633 70 545 L70 155 C70 67 145 -5 238 -5 L341 -5 C434 -5 509 67 509 155 L509 193 C509 201 504 206 496 206 L427 206 C419 206 414 201 414 193 L414 165 Z " />
<glyph glyph-name="cdotaccent" unicode="&#x10b;" horiz-adv-x="474" d="M197 586 C197 577 203 571 212 571 L283 571 C292 571 298 577 298 586 L298 663 C298 672 292 678 283 678 L212 678 C203 678 197 672 197 663 L197 586 Z M429 157 C429 165 424 170 416 170 L347 170 C339 170 334 165 334 157 L334 146 C334 111 301 80 268 80 L227 80 C194 80 160 111 160 146 L160 369 C160 404 194 435 227 435 L268 435 C301 435 334 404 334 369 L334 358 C334 350 339 345 347 345 L416 345 C424 345 429 350 429 358 L429 374 C429 446 373 520 284 520 L209 520 C122 520 65 446 65 374 L65 141 C65 69 122 -5 209 -5 L284 -5 C373 -5 429 69 429 141 L429 157 Z " />
<glyph glyph-name="Ccaron" unicode="&#x10c;" horiz-adv-x="564" d="M327 751 C335 751 341 756 345 765 L418 913 C418 920 413 925 405 925 L342 925 C336 925 331 919 328 913 L290 836 L252 913 C249 919 244 925 238 925 L175 925 C167 925 162 920 162 913 L235 765 C239 756 245 751 253 751 L327 751 Z M414 165 C414 117 374 80 332 80 L247 80 C205 80 165 117 165 165 L165 535 C165 581 205 620 247 620 L332 620 C374 620 414 581 414 535 L414 502 C414 494 419 489 427 489 L496 489 C504 489 509 494 509 502 L509 545 C509 633 434 705 341 705 L238 705 C145 705 70 633 70 545 L70 155 C70 67 145 -5 238 -5 L341 -5 C434 -5 509 67 509 155 L509 193 C509 201 504 206 496 206 L427 206 C419 206 414 201 414 193 L414 165 Z " />
<glyph glyph-name="ccaron" unicode="&#x10d;" horiz-adv-x="474" d="M429 157 C429 165 424 170 416 170 L347 170 C339 170 334 165 334 157 L334 146 C334 111 301 80 268 80 L227 80 C194 80 160 111 160 146 L160 369 C160 404 194 435 227 435 L268 435 C301 435 334 404 334 369 L334 358 C334 350 339 345 347 345 L416 345 C424 345 429 350 429 358 L429 374 C429 446 373 520 284 520 L209 520 C122 520 65 446 65 374 L65 141 C65 69 122 -5 209 -5 L284 -5 C373 -5 429 69 429 141 L429 157 Z M285 571 C293 571 299 576 303 585 L376 733 C376 740 371 745 363 745 L300 745 C294 745 289 739 286 733 L248 656 L210 733 C207 739 202 745 196 745 L133 745 C125 745 120 740 120 733 L193 585 C197 576 203 571 211 571 L285 571 Z " />
<glyph glyph-name="Dcaron" unicode="&#x10e;" horiz-adv-x="589" d="M299 751 C307 751 313 756 317 765 L390 913 C390 920 385 925 377 925 L314 925 C308 925 303 919 300 913 L262 836 L224 913 C221 919 216 925 210 925 L147 925 C139 925 134 920 134 913 L207 765 C211 756 217 751 225 751 L299 751 Z M342 615 C385 615 424 575 424 530 L424 170 C424 122 385 85 342 85 L175 85 L175 615 L342 615 Z M352 0 C444 0 519 72 519 161 L519 539 C519 628 444 700 352 700 L93 700 C85 700 80 695 80 687 L80 13 C80 5 85 0 93 0 L352 0 Z " />
<glyph glyph-name="dcaron" unicode="&#x10f;" horiz-adv-x="728" d="M633 550 C642 550 647 556 651 564 L708 686 C708 695 702 700 694 700 L633 700 C624 700 619 694 615 686 L558 564 C558 555 563 550 572 550 L633 550 Z M343 483 L335 483 C313 514 269 520 249 520 L206 520 C119 520 60 457 60 372 L60 143 C60 58 119 -5 206 -5 L249 -5 C269 -5 313 1 335 32 L343 32 L343 13 C343 5 348 0 356 0 L425 0 C433 0 438 5 438 13 L438 687 C438 695 433 700 425 700 L356 700 C348 700 343 695 343 687 L343 483 Z M343 146 C343 111 309 80 276 80 L222 80 C188 80 155 111 155 146 L155 369 C155 404 188 435 222 435 L276 435 C309 435 343 404 343 369 L343 146 Z " />
<glyph glyph-name="Dcroat" unicode="&#x110;" horiz-adv-x="605" d="M33 393 C25 393 20 388 20 380 L20 321 C20 313 25 308 33 308 L96 308 L96 13 C96 5 101 0 109 0 L368 0 C460 0 535 72 535 161 L535 539 C535 628 460 700 368 700 L109 700 C101 700 96 695 96 687 L96 393 L33 393 Z M358 615 C401 615 440 575 440 530 L440 170 C440 122 401 85 358 85 L191 85 L191 308 L265 308 C273 308 278 313 278 321 L278 380 C278 388 273 393 265 393 L191 393 L191 615 L358 615 Z " />
<glyph glyph-name="dcroat" unicode="&#x111;" horiz-adv-x="518" d="M343 559 L343 483 L335 483 C313 514 269 520 249 520 L206 520 C119 520 60 457 60 372 L60 143 C60 58 119 -5 206 -5 L249 -5 C269 -5 313 1 335 32 L343 32 L343 13 C343 5 348 0 356 0 L425 0 C433 0 438 5 438 13 L438 559 L485 559 C493 559 498 564 498 572 L498 631 C498 639 493 644 485 644 L438 644 L438 687 C438 695 433 700 425 700 L356 700 C348 700 343 695 343 687 L343 644 L253 644 C245 644 240 639 240 631 L240 572 C240 564 245 559 253 559 L343 559 Z M343 146 C343 111 309 80 276 80 L222 80 C188 80 155 111 155 146 L155 369 C155 404 188 435 222 435 L276 435 C309 435 343 404 343 369 L343 146 Z " />
<glyph glyph-name="Emacron" unicode="&#x112;" horiz-adv-x="513" d="M162 836 C154 836 149 831 149 823 L149 764 C149 756 154 751 162 751 L362 751 C370 751 375 756 375 764 L375 823 C375 831 370 836 362 836 L162 836 Z M80 13 C80 5 85 0 93 0 L430 0 C438 0 443 5 443 13 L443 72 C443 80 438 85 430 85 L175 85 L175 293 L406 293 C414 293 419 298 419 306 L419 365 C419 373 414 378 406 378 L175 378 L175 615 L430 615 C438 615 443 620 443 628 L443 687 C443 695 438 700 430 700 L93 700 C85 700 80 695 80 687 L80 13 Z " />
<glyph glyph-name="emacron" unicode="&#x113;" horiz-adv-x="489" d="M130 656 C122 656 117 651 117 643 L117 584 C117 576 122 571 130 571 L362 571 C370 571 375 576 375 584 L375 643 C375 651 370 656 362 656 L130 656 Z M346 105 C331 93 309 80 276 80 L227 80 C194 80 160 111 160 146 L160 216 L416 216 C424 216 429 221 429 229 L429 374 C429 446 373 520 284 520 L209 520 C122 520 65 446 65 374 L65 141 C65 69 122 -5 209 -5 L276 -5 C276 -5 362 -5 411 56 C413 59 414 61 414 64 C414 67 411 71 409 73 L365 108 C362 110 360 111 357 111 C353 111 349 107 346 105 L346 105 Z M160 369 C160 404 194 435 227 435 L268 435 C301 435 334 404 334 369 L334 301 L160 301 L160 369 Z " />
<glyph glyph-name="Edotaccent" unicode="&#x116;" horiz-adv-x="513" d="M211 766 C211 757 217 751 226 751 L297 751 C306 751 312 757 312 766 L312 843 C312 852 306 858 297 858 L226 858 C217 858 211 852 211 843 L211 766 Z M80 13 C80 5 85 0 93 0 L430 0 C438 0 443 5 443 13 L443 72 C443 80 438 85 430 85 L175 85 L175 293 L406 293 C414 293 419 298 419 306 L419 365 C419 373 414 378 406 378 L175 378 L175 615 L430 615 C438 615 443 620 443 628 L443 687 C443 695 438 700 430 700 L93 700 C85 700 80 695 80 687 L80 13 Z " />
<glyph glyph-name="edotaccent" unicode="&#x117;" horiz-adv-x="489" d="M197 586 C197 577 203 571 212 571 L283 571 C292 571 298 577 298 586 L298 663 C298 672 292 678 283 678 L212 678 C203 678 197 672 197 663 L197 586 Z M346 105 C331 93 309 80 276 80 L227 80 C194 80 160 111 160 146 L160 216 L416 216 C424 216 429 221 429 229 L429 374 C429 446 373 520 284 520 L209 520 C122 520 65 446 65 374 L65 141 C65 69 122 -5 209 -5 L276 -5 C276 -5 362 -5 411 56 C413 59 414 61 414 64 C414 67 411 71 409 73 L365 108 C362 110 360 111 357 111 C353 111 349 107 346 105 L346 105 Z M160 369 C160 404 194 435 227 435 L268 435 C301 435 334 404 334 369 L334 301 L160 301 L160 369 Z " />
<glyph glyph-name="Eogonek" unicode="&#x118;" horiz-adv-x="513" d="M278 0 C268 -14 266 -37 266 -49 C266 -87 293 -118 342 -118 L419 -118 C424 -118 428 -114 428 -109 L428 -78 C428 -73 424 -69 419 -69 L359 -69 C359 -69 321 -69 321 -34 C321 -21 328 -5 339 0 L430 0 C438 0 443 5 443 13 L443 72 C443 80 438 85 430 85 L175 85 L175 293 L406 293 C414 293 419 298 419 306 L419 365 C419 373 414 378 406 378 L175 378 L175 615 L430 615 C438 615 443 620 443 628 L443 687 C443 695 438 700 430 700 L93 700 C85 700 80 695 80 687 L80 13 C80 5 85 0 93 0 L278 0 Z " />
<glyph glyph-name="eogonek" unicode="&#x119;" horiz-adv-x="489" d="M346 105 C331 93 309 80 276 80 L227 80 C194 80 160 111 160 146 L160 216 L416 216 C424 216 429 221 429 229 L429 374 C429 446 373 520 284 520 L209 520 C122 520 65 446 65 374 L65 141 C65 77 109 12 179 -2 C173 -17 170 -37 170 -49 C170 -87 197 -118 246 -118 L323 -118 C328 -118 332 -114 332 -109 L332 -78 C332 -73 328 -69 323 -69 L263 -69 C263 -69 225 -69 225 -34 C225 -21 230 -11 237 -5 L276 -5 C276 -5 362 -5 411 56 C413 59 414 61 414 64 C414 67 411 71 409 73 L365 108 C362 110 360 111 357 111 C353 111 349 107 346 105 L346 105 Z M160 369 C160 404 194 435 227 435 L268 435 C301 435 334 404 334 369 L334 301 L160 301 L160 369 Z " />
<glyph glyph-name="Ecaron" unicode="&#x11a;" horiz-adv-x="513" d="M304 751 C312 751 318 756 322 765 L395 913 C395 920 390 925 382 925 L319 925 C313 925 308 919 305 913 L267 836 L229 913 C226 919 221 925 215 925 L152 925 C144 925 139 920 139 913 L212 765 C216 756 222 751 230 751 L304 751 Z M80 13 C80 5 85 0 93 0 L430 0 C438 0 443 5 443 13 L443 72 C443 80 438 85 430 85 L175 85 L175 293 L406 293 C414 293 419 298 419 306 L419 365 C419 373 414 378 406 378 L175 378 L175 615 L430 615 C438 615 443 620 443 628 L443 687 C443 695 438 700 430 700 L93 700 C85 700 80 695 80 687 L80 13 Z " />
<glyph glyph-name="ecaron" unicode="&#x11b;" horiz-adv-x="489" d="M284 571 C292 571 298 576 302 585 L375 733 C375 740 370 745 362 745 L299 745 C293 745 288 739 285 733 L247 656 L209 733 C206 739 201 745 195 745 L132 745 C124 745 119 740 119 733 L192 585 C196 576 202 571 210 571 L284 571 Z M346 105 C331 93 309 80 276 80 L227 80 C194 80 160 111 160 146 L160 216 L416 216 C424 216 429 221 429 229 L429 374 C429 446 373 520 284 520 L209 520 C122 520 65 446 65 374 L65 141 C65 69 122 -5 209 -5 L276 -5 C276 -5 362 -5 411 56 C413 59 414 61 414 64 C414 67 411 71 409 73 L365 108 C362 110 360 111 357 111 C353 111 349 107 346 105 L346 105 Z M160 369 C160 404 194 435 227 435 L268 435 C301 435 334 404 334 369 L334 301 L160 301 L160 369 Z " />
<glyph glyph-name="Gcircumflex" unicode="&#x11c;" horiz-adv-x="579" d="M252 925 C244 925 238 920 234 911 L161 763 C161 756 166 751 174 751 L237 751 C243 751 248 757 251 763 L289 840 L327 763 C330 757 335 751 341 751 L404 751 C412 751 417 756 417 763 L344 911 C340 920 334 925 326 925 L252 925 Z M414 299 L414 165 C414 117 374 80 332 80 L247 80 C205 80 165 117 165 165 L165 535 C165 581 205 620 247 620 L332 620 C374 620 414 581 414 535 L414 502 C414 494 419 489 427 489 L496 489 C504 489 509 494 509 502 L509 545 C509 633 434 705 341 705 L238 705 C145 705 70 633 70 545 L70 155 C70 67 145 -5 238 -5 L341 -5 C434 -5 509 67 509 155 L509 371 C509 379 504 384 496 384 L311 384 C303 384 298 379 298 371 L298 312 C298 304 303 299 311 299 L414 299 Z " />
<glyph glyph-name="gcircumflex" unicode="&#x11d;" horiz-adv-x="518" d="M214 745 C206 745 200 740 196 731 L123 583 C123 576 128 571 136 571 L199 571 C205 571 210 577 213 583 L251 660 L289 583 C292 577 297 571 303 571 L366 571 C374 571 379 576 379 583 L306 731 C302 740 296 745 288 745 L214 745 Z M343 146 C343 111 309 80 276 80 L222 80 C188 80 155 111 155 146 L155 369 C155 404 188 435 222 435 L276 435 C309 435 343 404 343 369 L343 146 Z M343 -30 C343 -67 331 -118 246 -118 C189 -118 159 -113 131 -108 C125 -108 120 -108 118 -116 L106 -174 C106 -180 109 -183 115 -185 C143 -194 172 -203 242 -203 C425 -203 438 -76 438 -32 L438 502 C438 510 433 515 425 515 L356 515 C348 515 343 510 343 502 L343 483 L335 483 C313 514 269 520 249 520 L206 520 C119 520 60 457 60 372 L60 143 C60 58 119 -5 206 -5 L249 -5 C269 -5 313 1 335 32 L343 32 L343 -30 Z " />
<glyph glyph-name="Gbreve" unicode="&#x11e;" horiz-adv-x="579" d="M288 751 C376 751 437 798 453 886 C453 895 447 901 438 901 L383 901 C375 901 369 895 366 886 C353 843 319 832 288 832 C258 832 224 843 211 886 C208 895 202 901 194 901 L139 901 C130 901 124 895 124 886 C140 798 201 751 288 751 L288 751 Z M414 299 L414 165 C414 117 374 80 332 80 L247 80 C205 80 165 117 165 165 L165 535 C165 581 205 620 247 620 L332 620 C374 620 414 581 414 535 L414 502 C414 494 419 489 427 489 L496 489 C504 489 509 494 509 502 L509 545 C509 633 434 705 341 705 L238 705 C145 705 70 633 70 545 L70 155 C70 67 145 -5 238 -5 L341 -5 C434 -5 509 67 509 155 L509 371 C509 379 504 384 496 384 L311 384 C303 384 298 379 298 371 L298 312 C298 304 303 299 311 299 L414 299 Z " />
<glyph glyph-name="gbreve" unicode="&#x11f;" horiz-adv-x="518" d="M343 146 C343 111 309 80 276 80 L222 80 C188 80 155 111 155 146 L155 369 C155 404 188 435 222 435 L276 435 C309 435 343 404 343 369 L343 146 Z M343 -30 C343 -67 331 -118 246 -118 C189 -118 159 -113 131 -108 C125 -108 120 -108 118 -116 L106 -174 C106 -180 109 -183 115 -185 C143 -194 172 -203 242 -203 C425 -203 438 -76 438 -32 L438 502 C438 510 433 515 425 515 L356 515 C348 515 343 510 343 502 L343 483 L335 483 C313 514 269 520 249 520 L206 520 C119 520 60 457 60 372 L60 143 C60 58 119 -5 206 -5 L249 -5 C269 -5 313 1 335 32 L343 32 L343 -30 Z M257 571 C344 571 389 618 405 706 C405 715 399 721 390 721 L335 721 C327 721 321 715 318 706 C305 663 287 652 257 652 C227 652 209 663 196 706 C193 715 187 721 179 721 L124 721 C115 721 109 715 109 706 C125 618 170 571 257 571 L257 571 Z " />
<glyph glyph-name="Gdotaccent" unicode="&#x120;" horiz-adv-x="579" d="M243 766 C243 757 249 751 258 751 L329 751 C338 751 344 757 344 766 L344 843 C344 852 338 858 329 858 L258 858 C249 858 243 852 243 843 L243 766 Z M414 299 L414 165 C414 117 374 80 332 80 L247 80 C205 80 165 117 165 165 L165 535 C165 581 205 620 247 620 L332 620 C374 620 414 581 414 535 L414 502 C414 494 419 489 427 489 L496 489 C504 489 509 494 509 502 L509 545 C509 633 434 705 341 705 L238 705 C145 705 70 633 70 545 L70 155 C70 67 145 -5 238 -5 L341 -5 C434 -5 509 67 509 155 L509 371 C509 379 504 384 496 384 L311 384 C303 384 298 379 298 371 L298 312 C298 304 303 299 311 299 L414 299 Z " />
<glyph glyph-name="gdotaccent" unicode="&#x121;" horiz-adv-x="518" d="M195 586 C195 577 201 571 210 571 L281 571 C290 571 296 577 296 586 L296 663 C296 672 290 678 281 678 L210 678 C201 678 195 672 195 663 L195 586 Z M343 146 C343 111 309 80 276 80 L222 80 C188 80 155 111 155 146 L155 369 C155 404 188 435 222 435 L276 435 C309 435 343 404 343 369 L343 146 Z M343 -30 C343 -67 331 -118 246 -118 C189 -118 159 -113 131 -108 C125 -108 120 -108 118 -116 L106 -174 C106 -180 109 -183 115 -185 C143 -194 172 -203 242 -203 C425 -203 438 -76 438 -32 L438 502 C438 510 433 515 425 515 L356 515 C348 515 343 510 343 502 L343 483 L335 483 C313 514 269 520 249 520 L206 520 C119 520 60 457 60 372 L60 143 C60 58 119 -5 206 -5 L249 -5 C269 -5 313 1 335 32 L343 32 L343 -30 Z " />
<glyph glyph-name="uni0122" unicode="&#x122;" horiz-adv-x="579" d="M254 -53 C245 -53 240 -59 236 -67 L193 -179 C193 -188 199 -193 207 -193 L268 -193 C277 -193 282 -187 286 -179 L329 -67 C329 -58 324 -53 315 -53 L254 -53 Z M414 299 L414 165 C414 117 374 80 332 80 L247 80 C205 80 165 117 165 165 L165 535 C165 581 205 620 247 620 L332 620 C374 620 414 581 414 535 L414 502 C414 494 419 489 427 489 L496 489 C504 489 509 494 509 502 L509 545 C509 633 434 705 341 705 L238 705 C145 705 70 633 70 545 L70 155 C70 67 145 -5 238 -5 L341 -5 C434 -5 509 67 509 155 L509 371 C509 379 504 384 496 384 L311 384 C303 384 298 379 298 371 L298 312 C298 304 303 299 311 299 L414 299 Z " />
<glyph glyph-name="uni0123" unicode="&#x123;" horiz-adv-x="518" d="M281 571 C289 571 294 577 298 585 L354 703 C354 712 348 717 340 717 L279 717 C271 717 266 711 262 703 L206 585 C206 576 211 571 220 571 L281 571 Z M343 146 C343 111 309 80 276 80 L222 80 C188 80 155 111 155 146 L155 369 C155 404 188 435 222 435 L276 435 C309 435 343 404 343 369 L343 146 Z M343 -30 C343 -67 331 -118 246 -118 C189 -118 159 -113 131 -108 C125 -108 120 -108 118 -116 L106 -174 C106 -180 109 -183 115 -185 C143 -194 172 -203 242 -203 C425 -203 438 -76 438 -32 L438 502 C438 510 433 515 425 515 L356 515 C348 515 343 510 343 502 L343 483 L335 483 C313 514 269 520 249 520 L206 520 C119 520 60 457 60 372 L60 143 C60 58 119 -5 206 -5 L249 -5 C269 -5 313 1 335 32 L343 32 L343 -30 Z " />
<glyph glyph-name="Hcircumflex" unicode="&#x124;" horiz-adv-x="592" d="M260 925 C252 925 246 920 242 911 L169 763 C169 756 174 751 182 751 L245 751 C251 751 256 757 259 763 L297 840 L335 763 C338 757 343 751 349 751 L412 751 C420 751 425 756 425 763 L352 911 C348 920 342 925 334 925 L260 925 Z M417 13 C417 5 422 0 430 0 L499 0 C507 0 512 5 512 13 L512 687 C512 695 507 700 499 700 L430 700 C422 700 417 695 417 687 L417 381 L175 381 L175 687 C175 695 170 700 162 700 L93 700 C85 700 80 695 80 687 L80 13 C80 5 85 0 93 0 L162 0 C170 0 175 5 175 13 L175 296 L417 296 L417 13 Z " />
<glyph glyph-name="hcircumflex" unicode="&#x125;" horiz-adv-x="524" d="M174 925 C166 925 160 920 156 911 L83 763 C83 756 88 751 96 751 L159 751 C165 751 170 757 173 763 L211 840 L249 763 C252 757 257 751 263 751 L326 751 C334 751 339 756 339 763 L266 911 C262 920 256 925 248 925 L174 925 Z M359 13 C359 5 364 0 372 0 L441 0 C449 0 454 5 454 13 L454 371 C454 454 405 520 319 520 L288 520 C268 520 214 519 183 459 L175 459 L175 687 C175 695 170 700 162 700 L93 700 C85 700 80 695 80 687 L80 13 C80 5 85 0 93 0 L162 0 C170 0 175 5 175 13 L175 359 C212 434 265 435 293 435 L301 435 C338 435 359 405 359 353 L359 13 Z " />
<glyph glyph-name="Hbar" unicode="&#x126;" horiz-adv-x="598" d="M33 544 C25 544 20 539 20 531 L20 472 C20 464 25 459 33 459 L83 459 L83 13 C83 5 88 0 96 0 L165 0 C173 0 178 5 178 13 L178 296 L420 296 L420 13 C420 5 425 0 433 0 L502 0 C510 0 515 5 515 13 L515 459 L565 459 C573 459 578 464 578 472 L578 531 C578 539 573 544 565 544 L515 544 L515 687 C515 695 510 700 502 700 L433 700 C425 700 420 695 420 687 L420 544 L178 544 L178 687 C178 695 173 700 165 700 L96 700 C88 700 83 695 83 687 L83 544 L33 544 Z M178 381 L178 459 L420 459 L420 381 L178 381 Z " />
<glyph glyph-name="hbar" unicode="&#x127;" horiz-adv-x="524" d="M80 559 L80 13 C80 5 85 0 93 0 L162 0 C170 0 175 5 175 13 L175 359 C212 434 265 435 293 435 L301 435 C338 435 359 405 359 353 L359 13 C359 5 364 0 372 0 L441 0 C449 0 454 5 454 13 L454 371 C454 454 405 520 319 520 L288 520 C268 520 214 519 183 459 L175 459 L175 559 L265 559 C273 559 278 564 278 572 L278 631 C278 639 273 644 265 644 L175 644 L175 687 C175 695 170 700 162 700 L93 700 C85 700 80 695 80 687 L80 644 L33 644 C25 644 20 639 20 631 L20 572 C20 564 25 559 33 559 L80 559 Z " />
<glyph glyph-name="Itilde" unicode="&#x128;" horiz-adv-x="255" d="M80 13 C80 5 85 0 93 0 L162 0 C170 0 175 5 175 13 L175 687 C175 695 170 700 162 700 L93 700 C85 700 80 695 80 687 L80 13 Z M187 751 C206 751 229 759 249 771 C254 774 257 779 257 785 L242 837 C240 843 235 845 230 845 C228 845 226 845 223 844 C210 840 194 836 187 836 C132 836 121 878 69 878 C50 878 27 870 7 858 C2 855 -1 850 -1 844 L14 792 C16 786 21 784 26 784 C28 784 30 784 33 785 C46 789 62 793 69 793 C124 793 134 751 187 751 L187 751 Z " />
<glyph glyph-name="itilde" unicode="&#x129;" horiz-adv-x="255" d="M80 13 C80 5 85 0 93 0 L162 0 C170 0 175 5 175 13 L175 502 C175 510 170 515 162 515 L93 515 C85 515 80 510 80 502 L80 13 Z M187 571 C206 571 229 579 249 591 C254 594 257 599 257 605 L242 657 C240 663 235 665 230 665 C228 665 226 665 223 664 C210 660 194 656 187 656 C132 656 121 698 69 698 C50 698 27 690 7 678 C2 675 -1 670 -1 664 L14 612 C16 606 21 604 26 604 C28 604 30 604 33 605 C46 609 62 613 69 613 C124 613 134 571 187 571 L187 571 Z " />
<glyph glyph-name="Imacron" unicode="&#x12a;" horiz-adv-x="255" d="M80 13 C80 5 85 0 93 0 L162 0 C170 0 175 5 175 13 L175 687 C175 695 170 700 162 700 L93 700 C85 700 80 695 80 687 L80 13 Z M27 836 C19 836 14 831 14 823 L14 764 C14 756 19 751 27 751 L227 751 C235 751 240 756 240 764 L240 823 C240 831 235 836 227 836 L27 836 Z " />
<glyph glyph-name="imacron" unicode="&#x12b;" horiz-adv-x="255" d="M80 13 C80 5 85 0 93 0 L162 0 C170 0 175 5 175 13 L175 502 C175 510 170 515 162 515 L93 515 C85 515 80 510 80 502 L80 13 Z M27 656 C19 656 14 651 14 643 L14 584 C14 576 19 571 27 571 L227 571 C235 571 240 576 240 584 L240 643 C240 651 235 656 227 656 L27 656 Z " />
<glyph glyph-name="Iogonek" unicode="&#x12e;" horiz-adv-x="255" d="M80 46 C37 46 7 25 7 -24 C7 -62 34 -93 83 -93 L160 -93 C165 -93 169 -89 169 -84 L169 -53 C169 -48 165 -44 160 -44 L96 -44 C96 -44 68 -44 68 -22 C68 -4 83 0 93 0 L162 0 C170 0 175 5 175 13 L175 687 C175 695 170 700 162 700 L93 700 C85 700 80 695 80 687 L80 46 Z " />
<glyph glyph-name="iogonek" unicode="&#x12f;" horiz-adv-x="255" d="M77 591 C77 583 82 578 90 578 L165 578 C173 578 178 583 178 591 L178 671 C178 679 173 684 165 684 L90 684 C82 684 77 679 77 671 L77 591 Z M80 46 C37 46 7 25 7 -24 C7 -62 34 -93 83 -93 L160 -93 C165 -93 169 -89 169 -84 L169 -53 C169 -48 165 -44 160 -44 L96 -44 C96 -44 68 -44 68 -22 C68 -4 83 0 93 0 L162 0 C170 0 175 5 175 13 L175 502 C175 510 170 515 162 515 L93 515 C85 515 80 510 80 502 L80 46 Z " />
<glyph glyph-name="Idotaccent" unicode="&#x130;" horiz-adv-x="255" d="M80 13 C80 5 85 0 93 0 L162 0 C170 0 175 5 175 13 L175 558 C175 566 170 571 162 571 L93 571 C85 571 80 566 80 558 L80 13 Z M77 647 C77 639 82 634 90 634 L165 634 C173 634 178 639 178 647 L178 727 C178 735 173 740 165 740 L90 740 C82 740 77 735 77 727 L77 647 Z " />
<glyph glyph-name="dotlessi" unicode="&#x131;" horiz-adv-x="255" d="M80 13 C80 5 85 0 93 0 L162 0 C170 0 175 5 175 13 L175 502 C175 510 170 515 162 515 L93 515 C85 515 80 510 80 502 L80 13 Z " />
<glyph glyph-name="Jcircumflex" unicode="&#x134;" horiz-adv-x="426" d="M200 925 C192 925 186 920 182 911 L109 763 C109 756 114 751 122 751 L185 751 C191 751 196 757 199 763 L237 840 L275 763 C278 757 283 751 289 751 L352 751 C360 751 365 756 365 763 L292 911 C288 920 282 925 274 925 L200 925 Z M77 109 C74 111 71 112 68 112 C64 112 62 111 58 109 L14 68 C11 65 10 62 10 58 C10 55 11 53 14 50 C41 27 79 -5 160 -5 C295 -5 366 78 366 165 L366 687 C366 695 361 700 353 700 L284 700 C276 700 271 695 271 687 L271 168 C271 157 268 80 154 80 C118 80 108 91 77 109 L77 109 Z " />
<glyph glyph-name="jcircumflex" unicode="&#x135;" horiz-adv-x="255" d="M90 742 C82 742 76 737 72 728 L-1 580 C-1 573 4 568 12 568 L75 568 C81 568 86 574 89 580 L127 657 L165 580 C168 574 173 568 179 568 L242 568 C250 568 255 573 255 580 L182 728 C178 737 172 742 164 742 L90 742 Z M33 -182 C71 -167 175 -116 175 7 L175 502 C175 510 170 515 162 515 L93 515 C85 515 80 510 80 502 L80 12 C80 12 79 -58 -5 -94 C-10 -96 -12 -101 -12 -106 C-12 -107 -11 -110 -10 -112 L16 -176 C18 -181 23 -183 27 -183 C28 -183 31 -183 33 -182 L33 -182 Z " />
<glyph glyph-name="uni0136" unicode="&#x136;" horiz-adv-x="552" d="M257 -53 C248 -53 243 -59 239 -67 L196 -179 C196 -188 202 -193 210 -193 L271 -193 C280 -193 285 -187 289 -179 L332 -67 C332 -58 327 -53 318 -53 L257 -53 Z M413 13 C416 6 420 0 428 0 L498 0 C506 0 511 5 511 13 L377 348 L511 687 C511 695 506 700 498 700 L427 700 C419 700 415 694 412 687 L296 392 L175 392 L175 687 C175 695 170 700 162 700 L93 700 C85 700 80 695 80 687 L80 13 C80 5 85 0 93 0 L162 0 C170 0 175 5 175 13 L175 307 L295 307 L413 13 Z " />
<glyph glyph-name="uni0137" unicode="&#x137;" horiz-adv-x="492" d="M241 -53 C232 -53 227 -59 223 -67 L180 -179 C180 -188 186 -193 194 -193 L255 -193 C264 -193 269 -187 273 -179 L316 -67 C316 -58 311 -53 302 -53 L241 -53 Z M273 229 L358 13 C362 6 368 0 376 0 L449 0 C457 0 462 5 462 13 L360 272 L462 502 C462 510 457 515 449 515 L377 515 C369 515 363 509 359 502 L274 314 L175 314 L175 687 C175 695 170 700 162 700 L93 700 C85 700 80 695 80 687 L80 13 C80 5 85 0 93 0 L162 0 C170 0 175 5 175 13 L175 229 L273 229 Z " />
<glyph glyph-name="kgreenlandic" unicode="&#x138;" horiz-adv-x="492" d="M273 229 L358 13 C362 6 368 0 376 0 L449 0 C457 0 462 5 462 13 L360 272 L462 502 C462 510 457 515 449 515 L377 515 C369 515 363 509 359 502 L274 314 L175 314 L175 502 C175 510 170 515 162 515 L93 515 C85 515 80 510 80 502 L80 13 C80 5 85 0 93 0 L162 0 C170 0 175 5 175 13 L175 229 L273 229 Z " />
<glyph glyph-name="Lacute" unicode="&#x139;" horiz-adv-x="483" d="M160 751 C168 751 173 757 177 765 L233 883 C233 892 227 897 219 897 L158 897 C150 897 145 891 141 883 L85 765 C85 756 90 751 99 751 L160 751 Z M430 0 C438 0 443 5 443 13 L443 72 C443 80 438 85 430 85 L175 85 L175 687 C175 695 170 700 162 700 L93 700 C85 700 80 695 80 687 L80 13 C80 5 85 0 93 0 L430 0 Z " />
<glyph glyph-name="lacute" unicode="&#x13a;" horiz-adv-x="255" d="M80 13 C80 5 85 0 93 0 L162 0 C170 0 175 5 175 13 L175 687 C175 695 170 700 162 700 L93 700 C85 700 80 695 80 687 L80 13 Z M160 751 C168 751 173 757 177 765 L233 883 C233 892 227 897 219 897 L158 897 C150 897 145 891 141 883 L85 765 C85 756 90 751 99 751 L160 751 Z " />
<glyph glyph-name="uni013B" unicode="&#x13b;" horiz-adv-x="483" d="M242 -53 C233 -53 228 -59 224 -67 L181 -179 C181 -188 187 -193 195 -193 L256 -193 C265 -193 270 -187 274 -179 L317 -67 C317 -58 312 -53 303 -53 L242 -53 Z M430 0 C438 0 443 5 443 13 L443 72 C443 80 438 85 430 85 L175 85 L175 687 C175 695 170 700 162 700 L93 700 C85 700 80 695 80 687 L80 13 C80 5 85 0 93 0 L430 0 Z " />
<glyph glyph-name="uni013C" unicode="&#x13c;" horiz-adv-x="255" d="M80 13 C80 5 85 0 93 0 L162 0 C170 0 175 5 175 13 L175 687 C175 695 170 700 162 700 L93 700 C85 700 80 695 80 687 L80 13 Z M97 -53 C88 -53 83 -59 79 -67 L36 -179 C36 -188 42 -193 50 -193 L111 -193 C120 -193 125 -187 129 -179 L172 -67 C172 -58 167 -53 158 -53 L97 -53 Z " />
<glyph glyph-name="Lcaron" unicode="&#x13d;" horiz-adv-x="509" d="M390 538 C399 538 404 544 408 552 L469 686 C469 695 463 700 455 700 L390 700 C381 700 376 694 372 686 L311 552 C311 543 316 538 325 538 L390 538 Z M430 0 C438 0 443 5 443 13 L443 72 C443 80 438 85 430 85 L175 85 L175 687 C175 695 170 700 162 700 L93 700 C85 700 80 695 80 687 L80 13 C80 5 85 0 93 0 L430 0 Z " />
<glyph glyph-name="lcaron" unicode="&#x13e;" horiz-adv-x="465" d="M80 13 C80 5 85 0 93 0 L162 0 C170 0 175 5 175 13 L175 687 C175 695 170 700 162 700 L93 700 C85 700 80 695 80 687 L80 13 Z M370 550 C379 550 384 556 388 564 L445 686 C445 695 439 700 431 700 L370 700 C361 700 356 694 352 686 L295 564 C295 555 300 550 309 550 L370 550 Z " />
<glyph glyph-name="Lslash" unicode="&#x141;" horiz-adv-x="493" d="M31 363 C25 361 20 356 20 349 L20 294 C20 288 25 283 31 283 L110 305 L110 13 C110 5 115 0 123 0 L460 0 C468 0 473 5 473 13 L473 72 C473 80 468 85 460 85 L205 85 L205 331 L283 352 C289 354 294 359 294 366 L294 421 C294 427 289 432 283 432 L205 411 L205 687 C205 695 200 700 192 700 L123 700 C115 700 110 695 110 687 L110 385 L31 363 Z " />
<glyph glyph-name="lslash" unicode="&#x142;" horiz-adv-x="314" d="M31 363 C25 361 20 356 20 349 L20 294 C20 288 25 283 31 283 L110 305 L110 13 C110 5 115 0 123 0 L192 0 C200 0 205 5 205 13 L205 331 L283 352 C289 354 294 359 294 366 L294 421 C294 427 289 432 283 432 L205 411 L205 687 C205 695 200 700 192 700 L123 700 C115 700 110 695 110 687 L110 385 L31 363 Z " />
<glyph glyph-name="Nacute" unicode="&#x143;" horiz-adv-x="629" d="M347 751 C355 751 360 757 364 765 L420 883 C420 892 414 897 406 897 L345 897 C337 897 332 891 328 883 L272 765 C272 756 277 751 286 751 L347 751 Z M411 13 C415 6 421 0 429 0 L536 0 C544 0 549 5 549 13 L549 687 C549 695 544 700 536 700 L467 700 C459 700 454 695 454 687 L454 176 L444 176 L218 687 C214 694 208 700 200 700 L93 700 C85 700 80 695 80 687 L80 13 C80 5 85 0 93 0 L162 0 C170 0 175 5 175 13 L175 526 L186 526 L411 13 Z " />
<glyph glyph-name="nacute" unicode="&#x144;" horiz-adv-x="524" d="M321 571 C329 571 334 577 338 585 L394 703 C394 712 388 717 380 717 L319 717 C311 717 306 711 302 703 L246 585 C246 576 251 571 260 571 L321 571 Z M359 13 C359 5 364 0 372 0 L441 0 C449 0 454 5 454 13 L454 371 C454 454 405 520 319 520 L288 520 C268 520 214 519 183 459 L175 459 L175 502 C175 510 170 515 162 515 L93 515 C85 515 80 510 80 502 L80 13 C80 5 85 0 93 0 L162 0 C170 0 175 5 175 13 L175 359 C212 434 265 435 293 435 L301 435 C338 435 359 405 359 353 L359 13 Z " />
<glyph glyph-name="uni0145" unicode="&#x145;" horiz-adv-x="629" d="M284 -53 C275 -53 270 -59 266 -67 L223 -179 C223 -188 229 -193 237 -193 L298 -193 C307 -193 312 -187 316 -179 L359 -67 C359 -58 354 -53 345 -53 L284 -53 Z M411 13 C415 6 421 0 429 0 L536 0 C544 0 549 5 549 13 L549 687 C549 695 544 700 536 700 L467 700 C459 700 454 695 454 687 L454 176 L444 176 L218 687 C214 694 208 700 200 700 L93 700 C85 700 80 695 80 687 L80 13 C80 5 85 0 93 0 L162 0 C170 0 175 5 175 13 L175 526 L186 526 L411 13 Z " />
<glyph glyph-name="uni0146" unicode="&#x146;" horiz-adv-x="524" d="M239 -53 C230 -53 225 -59 221 -67 L178 -179 C178 -188 184 -193 192 -193 L253 -193 C262 -193 267 -187 271 -179 L314 -67 C314 -58 309 -53 300 -53 L239 -53 Z M359 13 C359 5 364 0 372 0 L441 0 C449 0 454 5 454 13 L454 371 C454 454 405 520 319 520 L288 520 C268 520 214 519 183 459 L175 459 L175 502 C175 510 170 515 162 515 L93 515 C85 515 80 510 80 502 L80 13 C80 5 85 0 93 0 L162 0 C170 0 175 5 175 13 L175 359 C212 434 265 435 293 435 L301 435 C338 435 359 405 359 353 L359 13 Z " />
<glyph glyph-name="Ncaron" unicode="&#x147;" horiz-adv-x="629" d="M351 751 C359 751 365 756 369 765 L442 913 C442 920 437 925 429 925 L366 925 C360 925 355 919 352 913 L314 836 L276 913 C273 919 268 925 262 925 L199 925 C191 925 186 920 186 913 L259 765 C263 756 269 751 277 751 L351 751 Z M411 13 C415 6 421 0 429 0 L536 0 C544 0 549 5 549 13 L549 687 C549 695 544 700 536 700 L467 700 C459 700 454 695 454 687 L454 176 L444 176 L218 687 C214 694 208 700 200 700 L93 700 C85 700 80 695 80 687 L80 13 C80 5 85 0 93 0 L162 0 C170 0 175 5 175 13 L175 526 L186 526 L411 13 Z " />
<glyph glyph-name="ncaron" unicode="&#x148;" horiz-adv-x="524" d="M304 571 C312 571 318 576 322 585 L395 733 C395 740 390 745 382 745 L319 745 C313 745 308 739 305 733 L267 656 L229 733 C226 739 221 745 215 745 L152 745 C144 745 139 740 139 733 L212 585 C216 576 222 571 230 571 L304 571 Z M359 13 C359 5 364 0 372 0 L441 0 C449 0 454 5 454 13 L454 371 C454 454 405 520 319 520 L288 520 C268 520 214 519 183 459 L175 459 L175 502 C175 510 170 515 162 515 L93 515 C85 515 80 510 80 502 L80 13 C80 5 85 0 93 0 L162 0 C170 0 175 5 175 13 L175 359 C212 434 265 435 293 435 L301 435 C338 435 359 405 359 353 L359 13 Z " />
<glyph glyph-name="Eng" unicode="&#x14a;" horiz-adv-x="629" d="M407 -182 C445 -167 549 -116 549 7 L549 687 C549 695 544 700 536 700 L467 700 C459 700 454 695 454 687 L454 176 L444 176 L218 687 C214 694 208 700 200 700 L93 700 C85 700 80 695 80 687 L80 13 C80 5 85 0 93 0 L162 0 C170 0 175 5 175 13 L175 526 L186 526 L435 -41 C422 -59 402 -79 369 -94 C364 -96 362 -101 362 -106 C362 -107 363 -110 364 -112 L390 -176 C392 -181 397 -183 401 -183 C402 -183 405 -183 407 -182 L407 -182 Z " />
<glyph glyph-name="eng" unicode="&#x14b;" horiz-adv-x="524" d="M312 -182 C350 -167 454 -116 454 7 L454 371 C454 454 405 520 319 520 L288 520 C268 520 214 519 183 459 L175 459 L175 502 C175 510 170 515 162 515 L93 515 C85 515 80 510 80 502 L80 13 C80 5 85 0 93 0 L162 0 C170 0 175 5 175 13 L175 359 C212 434 265 435 293 435 L301 435 C338 435 359 405 359 353 L359 12 C358 2 352 -60 274 -94 C269 -96 267 -101 267 -106 C267 -107 268 -110 269 -112 L295 -176 C297 -181 302 -183 306 -183 C307 -183 310 -183 312 -182 L312 -182 Z " />
<glyph glyph-name="Omacron" unicode="&#x14c;" horiz-adv-x="579" d="M189 836 C181 836 176 831 176 823 L176 764 C176 756 181 751 189 751 L388 751 C396 751 401 756 401 764 L401 823 C401 831 396 836 388 836 L189 836 Z M238 705 C145 705 70 633 70 545 L70 155 C70 67 145 -5 238 -5 L341 -5 C434 -5 509 67 509 155 L509 545 C509 633 434 705 341 705 L238 705 Z M247 80 C205 80 165 117 165 165 L165 535 C165 581 205 620 247 620 L332 620 C374 620 414 581 414 535 L414 165 C414 117 374 80 332 80 L247 80 Z " />
<glyph glyph-name="omacron" unicode="&#x14d;" horiz-adv-x="494" d="M149 656 C141 656 136 651 136 643 L136 584 C136 576 141 571 149 571 L347 571 C355 571 360 576 360 584 L360 643 C360 651 355 656 347 656 L149 656 Z M209 520 C122 520 65 446 65 374 L65 141 C65 69 122 -5 209 -5 L284 -5 C372 -5 429 69 429 141 L429 374 C429 446 372 520 285 520 L209 520 Z M227 80 C194 80 160 111 160 146 L160 369 C160 404 194 435 227 435 L267 435 C300 435 334 404 334 369 L334 146 C334 111 300 80 267 80 L227 80 Z " />
<glyph glyph-name="Ohungarumlaut" unicode="&#x150;" horiz-adv-x="579" d="M242 751 C251 751 256 757 260 765 L312 875 C312 884 306 889 298 889 L237 889 C228 889 223 883 219 875 L167 765 C167 756 172 751 181 751 L242 751 Z M402 751 C411 751 416 757 420 765 L472 875 C472 884 466 889 458 889 L397 889 C388 889 383 883 379 875 L327 765 C327 756 332 751 341 751 L402 751 Z M238 705 C145 705 70 633 70 545 L70 155 C70 67 145 -5 238 -5 L341 -5 C434 -5 509 67 509 155 L509 545 C509 633 434 705 341 705 L238 705 Z M247 80 C205 80 165 117 165 165 L165 535 C165 581 205 620 247 620 L332 620 C374 620 414 581 414 535 L414 165 C414 117 374 80 332 80 L247 80 Z " />
<glyph glyph-name="ohungarumlaut" unicode="&#x151;" horiz-adv-x="494" d="M189 571 C198 571 203 577 207 585 L259 695 C259 704 253 709 245 709 L184 709 C175 709 170 703 166 695 L114 585 C114 576 119 571 128 571 L189 571 Z M349 571 C358 571 363 577 367 585 L419 695 C419 704 413 709 405 709 L344 709 C335 709 330 703 326 695 L274 585 C274 576 279 571 288 571 L349 571 Z M209 520 C122 520 65 446 65 374 L65 141 C65 69 122 -5 209 -5 L284 -5 C372 -5 429 69 429 141 L429 374 C429 446 372 520 285 520 L209 520 Z M227 80 C194 80 160 111 160 146 L160 369 C160 404 194 435 227 435 L267 435 C300 435 334 404 334 369 L334 146 C334 111 300 80 267 80 L227 80 Z " />
<glyph glyph-name="OE" unicode="&#x152;" horiz-adv-x="847" d="M341 700 L238 700 C145 700 70 628 70 540 L70 160 C70 72 145 0 238 0 L764 0 C772 0 777 5 777 13 L777 72 C777 80 772 85 764 85 L509 85 L509 293 L740 293 C748 293 753 298 753 306 L753 365 C753 373 748 378 740 378 L509 378 L509 615 L764 615 C772 615 777 620 777 628 L777 687 C777 695 772 700 764 700 L341 700 Z M414 166 C412 120 373 85 332 85 L247 85 C205 85 165 122 165 170 L165 530 C165 576 205 615 247 615 L332 615 C373 615 414 578 414 533 L414 166 Z " />
<glyph glyph-name="oe" unicode="&#x153;" horiz-adv-x="758" d="M615 105 C600 93 578 80 545 80 L496 80 C463 80 429 111 429 146 L429 216 L685 216 C693 216 698 221 698 229 L698 374 C698 446 642 520 553 520 L478 520 C439 520 406 505 381 482 C357 505 324 520 285 520 L209 520 C122 520 65 446 65 374 L65 141 C65 69 122 -5 209 -5 L284 -5 C323 -5 357 10 381 33 C406 10 439 -5 478 -5 L545 -5 C545 -5 631 -5 680 56 C682 59 683 61 683 64 C683 67 680 71 678 73 L634 108 C631 110 629 111 626 111 C622 111 618 107 615 105 L615 105 Z M227 80 C194 80 160 111 160 146 L160 369 C160 404 194 435 227 435 L267 435 C299 435 332 405 334 371 L334 143 C332 109 299 80 267 80 L227 80 Z M429 371 C430 405 464 435 496 435 L537 435 C570 435 603 404 603 369 L603 301 L429 301 L429 371 Z " />
<glyph glyph-name="Racute" unicode="&#x154;" horiz-adv-x="561" d="M293 751 C301 751 306 757 310 765 L366 883 C366 892 360 897 352 897 L291 897 C283 897 278 891 274 883 L218 765 C218 756 223 751 232 751 L293 751 Z M511 378 L511 539 C511 628 436 700 343 700 L93 700 C85 700 80 695 80 687 L80 13 C80 5 85 0 93 0 L162 0 C170 0 175 5 175 13 L175 217 L310 217 L404 13 C407 6 411 0 419 0 L495 0 C503 0 508 5 508 13 L406 229 C468 253 511 311 511 378 L511 378 Z M416 386 C416 339 377 302 335 302 L175 302 L175 615 L335 615 C377 615 416 575 416 530 L416 386 Z " />
<glyph glyph-name="racute" unicode="&#x155;" horiz-adv-x="382" d="M164 571 C172 571 177 577 181 585 L237 703 C237 712 231 717 223 717 L162 717 C154 717 149 711 145 703 L89 585 C89 576 94 571 103 571 L164 571 Z M334 431 C342 431 347 436 347 444 L352 503 C352 509 349 513 343 515 C328 520 306 520 295 520 C275 520 215 519 183 459 L175 459 L175 502 C175 510 170 515 162 515 L93 515 C85 515 80 510 80 502 L80 13 C80 5 85 0 93 0 L162 0 C170 0 175 5 175 13 L175 359 C212 434 260 435 288 435 C304 435 320 433 334 431 L334 431 Z " />
<glyph glyph-name="uni0156" unicode="&#x156;" horiz-adv-x="561" d="M257 -53 C248 -53 243 -59 239 -67 L196 -179 C196 -188 202 -193 210 -193 L271 -193 C280 -193 285 -187 289 -179 L332 -67 C332 -58 327 -53 318 -53 L257 -53 Z M511 378 L511 539 C511 628 436 700 343 700 L93 700 C85 700 80 695 80 687 L80 13 C80 5 85 0 93 0 L162 0 C170 0 175 5 175 13 L175 217 L310 217 L404 13 C407 6 411 0 419 0 L495 0 C503 0 508 5 508 13 L406 229 C468 253 511 311 511 378 L511 378 Z M416 386 C416 339 377 302 335 302 L175 302 L175 615 L335 615 C377 615 416 575 416 530 L416 386 Z " />
<glyph glyph-name="uni0157" unicode="&#x157;" horiz-adv-x="382" d="M143 -53 C134 -53 129 -59 125 -67 L82 -179 C82 -188 88 -193 96 -193 L157 -193 C166 -193 171 -187 175 -179 L218 -67 C218 -58 213 -53 204 -53 L143 -53 Z M334 431 C342 431 347 436 347 444 L352 503 C352 509 349 513 343 515 C328 520 306 520 295 520 C275 520 215 519 183 459 L175 459 L175 502 C175 510 170 515 162 515 L93 515 C85 515 80 510 80 502 L80 13 C80 5 85 0 93 0 L162 0 C170 0 175 5 175 13 L175 359 C212 434 260 435 288 435 C304 435 320 433 334 431 L334 431 Z " />
<glyph glyph-name="Rcaron" unicode="&#x158;" horiz-adv-x="561" d="M288 751 C296 751 302 756 306 765 L379 913 C379 920 374 925 366 925 L303 925 C297 925 292 919 289 913 L251 836 L213 913 C210 919 205 925 199 925 L136 925 C128 925 123 920 123 913 L196 765 C200 756 206 751 214 751 L288 751 Z M511 378 L511 539 C511 628 436 700 343 700 L93 700 C85 700 80 695 80 687 L80 13 C80 5 85 0 93 0 L162 0 C170 0 175 5 175 13 L175 217 L310 217 L404 13 C407 6 411 0 419 0 L495 0 C503 0 508 5 508 13 L406 229 C468 253 511 311 511 378 L511 378 Z M416 386 C416 339 377 302 335 302 L175 302 L175 615 L335 615 C377 615 416 575 416 530 L416 386 Z " />
<glyph glyph-name="rcaron" unicode="&#x159;" horiz-adv-x="382" d="M255 571 C263 571 269 576 273 585 L346 733 C346 740 341 745 333 745 L270 745 C264 745 259 739 256 733 L218 656 L180 733 C177 739 172 745 166 745 L103 745 C95 745 90 740 90 733 L163 585 C167 576 173 571 181 571 L255 571 Z M334 431 C342 431 347 436 347 444 L352 503 C352 509 349 513 343 515 C328 520 306 520 295 520 C275 520 215 519 183 459 L175 459 L175 502 C175 510 170 515 162 515 L93 515 C85 515 80 510 80 502 L80 13 C80 5 85 0 93 0 L162 0 C170 0 175 5 175 13 L175 359 C212 434 260 435 288 435 C304 435 320 433 334 431 L334 431 Z " />
<glyph glyph-name="Sacute" unicode="&#x15a;" horiz-adv-x="545" d="M238 751 C229 751 224 756 224 765 L280 883 C284 891 289 897 297 897 L358 897 C366 897 372 892 372 883 L316 765 C312 757 307 751 299 751 L238 751 Z M225 80 C183 80 145 119 145 165 L145 182 C145 190 140 195 132 195 L63 195 C55 195 50 190 50 182 L50 155 C50 67 127 -5 218 -5 L322 -5 C415 -5 490 67 490 155 L490 172 C490 464 145 314 145 509 L145 535 C145 581 183 620 225 620 L305 620 C347 620 385 581 385 535 L385 518 C385 510 390 505 398 505 L467 505 C475 505 480 510 480 518 L480 545 C480 633 403 705 312 705 L217 705 C126 705 50 633 50 545 L50 522 C50 228 395 381 395 184 L395 165 C395 117 355 80 313 80 L225 80 Z " />
<glyph glyph-name="sacute" unicode="&#x15b;" horiz-adv-x="472" d="M267 571 C275 571 280 577 284 585 L340 703 C340 712 334 717 326 717 L265 717 C257 717 252 711 248 703 L192 585 C192 576 197 571 206 571 L267 571 Z M254 435 C288 435 321 404 321 369 L321 357 C321 349 326 344 334 344 L403 344 C411 344 416 349 416 357 L416 374 C416 446 358 520 271 520 L200 520 C112 520 56 458 56 386 L56 379 C56 182 327 256 327 150 L327 136 C327 98 294 80 260 80 L217 80 C183 80 150 111 150 146 L150 158 C150 166 145 171 137 171 L68 171 C60 171 55 166 55 158 L55 141 C55 69 113 -5 200 -5 L278 -5 C367 -5 422 57 422 129 L422 143 C422 341 151 267 151 369 L151 379 C151 417 184 435 218 435 L254 435 Z " />
<glyph glyph-name="Scircumflex" unicode="&#x15c;" horiz-adv-x="545" d="M301 925 C309 925 315 920 319 911 L392 763 C392 756 387 751 379 751 L316 751 C310 751 305 757 302 763 L264 840 L226 763 C223 757 218 751 212 751 L149 751 C141 751 136 756 136 763 L209 911 C213 920 219 925 227 925 L301 925 Z M225 80 C183 80 145 119 145 165 L145 182 C145 190 140 195 132 195 L63 195 C55 195 50 190 50 182 L50 155 C50 67 127 -5 218 -5 L322 -5 C415 -5 490 67 490 155 L490 172 C490 464 145 314 145 509 L145 535 C145 581 183 620 225 620 L305 620 C347 620 385 581 385 535 L385 518 C385 510 390 505 398 505 L467 505 C475 505 480 510 480 518 L480 545 C480 633 403 705 312 705 L217 705 C126 705 50 633 50 545 L50 522 C50 228 395 381 395 184 L395 165 C395 117 355 80 313 80 L225 80 Z " />
<glyph glyph-name="scircumflex" unicode="&#x15d;" horiz-adv-x="472" d="M202 745 C194 745 188 740 184 731 L111 583 C111 576 116 571 124 571 L187 571 C193 571 198 577 201 583 L239 660 L277 583 C280 577 285 571 291 571 L354 571 C362 571 367 576 367 583 L294 731 C290 740 284 745 276 745 L202 745 Z M254 435 C288 435 321 404 321 369 L321 357 C321 349 326 344 334 344 L403 344 C411 344 416 349 416 357 L416 374 C416 446 358 520 271 520 L200 520 C112 520 56 458 56 386 L56 379 C56 182 327 256 327 150 L327 136 C327 98 294 80 260 80 L217 80 C183 80 150 111 150 146 L150 158 C150 166 145 171 137 171 L68 171 C60 171 55 166 55 158 L55 141 C55 69 113 -5 200 -5 L278 -5 C367 -5 422 57 422 129 L422 143 C422 341 151 267 151 369 L151 379 C151 417 184 435 218 435 L254 435 Z " />
<glyph glyph-name="Scedilla" unicode="&#x15e;" horiz-adv-x="545" d="M145 509 L145 535 C145 581 183 620 225 620 L305 620 C347 620 385 581 385 535 L385 518 C385 510 390 505 398 505 L467 505 C475 505 480 510 480 518 L480 545 C480 633 403 705 312 705 L217 705 C126 705 50 633 50 545 L50 522 C50 228 395 381 395 184 L395 165 C395 117 355 80 313 80 L225 80 C183 80 145 119 145 165 L145 182 C145 190 140 195 132 195 L63 195 C55 195 50 190 50 182 L50 155 C50 67 127 -5 218 -5 L240 -5 L215 -52 C213 -55 212 -58 212 -60 L212 -93 C212 -98 216 -102 221 -102 L276 -102 C276 -102 300 -102 300 -125 C300 -146 276 -146 276 -146 L216 -146 C211 -146 207 -150 207 -155 L207 -186 C207 -191 211 -195 216 -195 L293 -195 C340 -195 355 -178 355 -119 C355 -71 317 -53 278 -53 L302 -5 L322 -5 C415 -5 490 67 490 155 L490 172 C490 464 145 314 145 509 L145 509 Z " />
<glyph glyph-name="scedilla" unicode="&#x15f;" horiz-adv-x="472" d="M183 -52 C181 -55 180 -58 180 -60 L180 -93 C180 -98 184 -102 189 -102 L244 -102 C244 -102 268 -102 268 -125 C268 -146 244 -146 244 -146 L184 -146 C179 -146 175 -150 175 -155 L175 -186 C175 -191 179 -195 184 -195 L261 -195 C308 -195 323 -178 323 -119 C323 -71 285 -53 246 -53 L270 -5 L278 -5 C367 -5 422 57 422 129 L422 143 C422 341 151 267 151 369 L151 379 C151 417 184 435 218 435 L254 435 C288 435 321 404 321 369 L321 357 C321 349 326 344 334 344 L403 344 C411 344 416 349 416 357 L416 374 C416 446 358 520 271 520 L200 520 C112 520 56 458 56 386 L56 379 C56 182 327 256 327 150 L327 136 C327 98 294 80 260 80 L217 80 C183 80 150 111 150 146 L150 158 C150 166 145 171 137 171 L68 171 C60 171 55 166 55 158 L55 141 C55 69 113 -5 200 -5 L208 -5 L183 -52 Z " />
<glyph glyph-name="Scaron" unicode="&#x160;" horiz-adv-x="545" d="M227 769 C219 769 213 774 209 783 L136 931 C136 938 141 943 149 943 L212 943 C218 943 223 937 226 931 L264 854 L302 931 C305 937 310 943 316 943 L379 943 C387 943 392 938 392 931 L319 783 C315 774 309 769 301 769 L227 769 Z M225 80 C183 80 145 119 145 165 L145 182 C145 190 140 195 132 195 L63 195 C55 195 50 190 50 182 L50 155 C50 67 127 -5 218 -5 L322 -5 C415 -5 490 67 490 155 L490 172 C490 464 145 314 145 509 L145 535 C145 581 183 620 225 620 L305 620 C347 620 385 581 385 535 L385 518 C385 510 390 505 398 505 L467 505 C475 505 480 510 480 518 L480 545 C480 633 403 705 312 705 L217 705 C126 705 50 633 50 545 L50 522 C50 228 395 381 395 184 L395 165 C395 117 355 80 313 80 L225 80 Z " />
<glyph glyph-name="scaron" unicode="&#x161;" horiz-adv-x="472" d="M276 571 C284 571 290 576 294 585 L367 733 C367 740 362 745 354 745 L291 745 C285 745 280 739 277 733 L239 656 L201 733 C198 739 193 745 187 745 L124 745 C116 745 111 740 111 733 L184 585 C188 576 194 571 202 571 L276 571 Z M254 435 C288 435 321 404 321 369 L321 357 C321 349 326 344 334 344 L403 344 C411 344 416 349 416 357 L416 374 C416 446 358 520 271 520 L200 520 C112 520 56 458 56 386 L56 379 C56 182 327 256 327 150 L327 136 C327 98 294 80 260 80 L217 80 C183 80 150 111 150 146 L150 158 C150 166 145 171 137 171 L68 171 C60 171 55 166 55 158 L55 141 C55 69 113 -5 200 -5 L278 -5 C367 -5 422 57 422 129 L422 143 C422 341 151 267 151 369 L151 379 C151 417 184 435 218 435 L254 435 Z " />
<glyph glyph-name="uni0162" unicode="&#x162;" horiz-adv-x="519" d="M307 46 L307 615 L461 615 C469 615 474 620 474 628 L474 687 C474 695 469 700 461 700 L58 700 C50 700 45 695 45 687 L45 628 C45 620 50 615 58 615 L212 615 L212 13 C212 5 217 0 225 0 L294 0 C304 0 319 -4 319 -22 C319 -44 291 -44 291 -44 L227 -44 C222 -44 218 -48 218 -53 L218 -84 C218 -89 222 -93 227 -93 L304 -93 C353 -93 380 -62 380 -24 C380 25 350 46 307 46 L307 46 Z " />
<glyph glyph-name="uni0163" unicode="&#x163;" horiz-adv-x="377" d="M174 -45 C172 -48 171 -51 171 -53 L171 -86 C171 -91 175 -95 180 -95 L235 -95 C235 -95 259 -95 259 -118 C259 -139 235 -139 235 -139 L175 -139 C170 -139 166 -143 166 -148 L166 -179 C166 -184 170 -188 175 -188 L252 -188 C299 -188 314 -171 314 -112 C314 -64 276 -46 237 -46 L259 0 L324 0 C332 0 337 5 337 13 L337 72 C337 80 332 85 324 85 L288 85 C255 85 220 117 220 151 L220 430 L324 430 C332 430 337 435 337 443 L337 502 C337 510 332 515 324 515 L220 515 L220 687 C220 695 215 700 207 700 L138 700 C130 700 125 695 125 687 L125 515 L48 515 C40 515 35 510 35 502 L35 443 C35 435 40 430 48 430 L125 430 L125 148 C128 95 156 42 204 16 L174 -45 Z " />
<glyph glyph-name="Tcaron" unicode="&#x164;" horiz-adv-x="519" d="M296 751 C304 751 310 756 314 765 L387 913 C387 920 382 925 374 925 L311 925 C305 925 300 919 297 913 L259 836 L221 913 C218 919 213 925 207 925 L144 925 C136 925 131 920 131 913 L204 765 C208 756 214 751 222 751 L296 751 Z M58 700 C50 700 45 695 45 687 L45 628 C45 620 50 615 58 615 L212 615 L212 13 C212 5 217 0 225 0 L294 0 C302 0 307 5 307 13 L307 615 L461 615 C469 615 474 620 474 628 L474 687 C474 695 469 700 461 700 L58 700 Z " />
<glyph glyph-name="tcaron" unicode="&#x165;" horiz-adv-x="534" d="M440 570 C448 570 453 576 457 584 L504 686 C504 695 498 700 490 700 L429 700 C421 700 416 694 412 686 L365 584 C365 575 370 570 379 570 L440 570 Z M324 0 C332 0 337 5 337 13 L337 72 C337 80 332 85 324 85 L288 85 C255 85 220 117 220 151 L220 430 L324 430 C332 430 337 435 337 443 L337 502 C337 510 332 515 324 515 L220 515 L220 687 C220 695 215 700 207 700 L138 700 C130 700 125 695 125 687 L125 515 L48 515 C40 515 35 510 35 502 L35 443 C35 435 40 430 48 430 L125 430 L125 148 C130 74 182 0 269 0 L324 0 Z " />
<glyph glyph-name="Tbar" unicode="&#x166;" horiz-adv-x="519" d="M115 373 C107 373 102 368 102 360 L102 301 C102 293 107 288 115 288 L212 288 L212 13 C212 5 217 0 225 0 L294 0 C302 0 307 5 307 13 L307 288 L404 288 C412 288 417 293 417 301 L417 360 C417 368 412 373 404 373 L307 373 L307 615 L461 615 C469 615 474 620 474 628 L474 687 C474 695 469 700 461 700 L58 700 C50 700 45 695 45 687 L45 628 C45 620 50 615 58 615 L212 615 L212 373 L115 373 Z " />
<glyph glyph-name="tbar" unicode="&#x167;" horiz-adv-x="377" d="M48 319 C40 319 35 314 35 306 L35 247 C35 239 40 234 48 234 L125 234 L125 148 C130 74 182 0 269 0 L324 0 C332 0 337 5 337 13 L337 72 C337 80 332 85 324 85 L288 85 C255 85 220 117 220 151 L220 234 L324 234 C332 234 337 239 337 247 L337 306 C337 314 332 319 324 319 L220 319 L220 430 L324 430 C332 430 337 435 337 443 L337 502 C337 510 332 515 324 515 L220 515 L220 687 C220 695 215 700 207 700 L138 700 C130 700 125 695 125 687 L125 515 L48 515 C40 515 35 510 35 502 L35 443 C35 435 40 430 48 430 L125 430 L125 319 L48 319 Z " />
<glyph glyph-name="Utilde" unicode="&#x168;" horiz-adv-x="589" d="M419 165 C419 117 379 80 337 80 L252 80 C210 80 170 117 170 165 L170 687 C170 695 165 700 157 700 L88 700 C80 700 75 695 75 687 L75 155 C75 67 150 -5 243 -5 L346 -5 C439 -5 514 67 514 155 L514 687 C514 695 509 700 501 700 L432 700 C424 700 419 695 419 687 L419 165 Z M353 751 C372 751 395 759 415 771 C420 774 423 779 423 785 L408 837 C406 843 401 845 396 845 C394 845 392 845 389 844 C376 840 360 836 353 836 C298 836 287 878 235 878 C216 878 193 870 173 858 C168 855 165 850 165 844 L180 792 C182 786 187 784 192 784 C194 784 196 784 199 785 C212 789 228 793 235 793 C290 793 300 751 353 751 L353 751 Z " />
<glyph glyph-name="utilde" unicode="&#x169;" horiz-adv-x="504" d="M339 146 C339 111 305 80 272 80 L232 80 C199 80 165 111 165 146 L165 502 C165 510 160 515 152 515 L83 515 C75 515 70 510 70 502 L70 141 C70 69 127 -5 214 -5 L289 -5 C377 -5 434 69 434 141 L434 502 C434 510 429 515 421 515 L352 515 C344 515 339 510 339 502 L339 146 Z M306 571 C325 571 348 579 368 591 C373 594 376 599 376 605 L361 657 C359 663 354 665 349 665 C347 665 345 665 342 664 C329 660 313 656 306 656 C251 656 240 698 188 698 C169 698 146 690 126 678 C121 675 118 670 118 664 L133 612 C135 606 140 604 145 604 C147 604 149 604 152 605 C165 609 181 613 188 613 C243 613 253 571 306 571 L306 571 Z " />
<glyph glyph-name="Umacron" unicode="&#x16a;" horiz-adv-x="589" d="M178 836 C170 836 165 831 165 823 L165 764 C165 756 170 751 178 751 L410 751 C418 751 423 756 423 764 L423 823 C423 831 418 836 410 836 L178 836 Z M419 165 C419 117 379 80 337 80 L252 80 C210 80 170 117 170 165 L170 687 C170 695 165 700 157 700 L88 700 C80 700 75 695 75 687 L75 155 C75 67 150 -5 243 -5 L346 -5 C439 -5 514 67 514 155 L514 687 C514 695 509 700 501 700 L432 700 C424 700 419 695 419 687 L419 165 Z " />
<glyph glyph-name="umacron" unicode="&#x16b;" horiz-adv-x="504" d="M136 656 C128 656 123 651 123 643 L123 584 C123 576 128 571 136 571 L368 571 C376 571 381 576 381 584 L381 643 C381 651 376 656 368 656 L136 656 Z M339 146 C339 111 305 80 272 80 L232 80 C199 80 165 111 165 146 L165 502 C165 510 160 515 152 515 L83 515 C75 515 70 510 70 502 L70 141 C70 69 127 -5 214 -5 L289 -5 C377 -5 434 69 434 141 L434 502 C434 510 429 515 421 515 L352 515 C344 515 339 510 339 502 L339 146 Z " />
<glyph glyph-name="Ubreve" unicode="&#x16c;" horiz-adv-x="589" d="M294 751 C382 751 443 798 459 886 C459 895 453 901 444 901 L389 901 C381 901 375 895 372 886 C359 843 325 832 294 832 C264 832 230 843 217 886 C214 895 208 901 200 901 L145 901 C136 901 130 895 130 886 C146 798 207 751 294 751 L294 751 Z M419 165 C419 117 379 80 337 80 L252 80 C210 80 170 117 170 165 L170 687 C170 695 165 700 157 700 L88 700 C80 700 75 695 75 687 L75 155 C75 67 150 -5 243 -5 L346 -5 C439 -5 514 67 514 155 L514 687 C514 695 509 700 501 700 L432 700 C424 700 419 695 419 687 L419 165 Z " />
<glyph glyph-name="ubreve" unicode="&#x16d;" horiz-adv-x="504" d="M339 146 C339 111 305 80 272 80 L232 80 C199 80 165 111 165 146 L165 502 C165 510 160 515 152 515 L83 515 C75 515 70 510 70 502 L70 141 C70 69 127 -5 214 -5 L289 -5 C377 -5 434 69 434 141 L434 502 C434 510 429 515 421 515 L352 515 C344 515 339 510 339 502 L339 146 Z M253 571 C340 571 385 618 401 706 C401 715 395 721 386 721 L331 721 C323 721 317 715 314 706 C301 663 283 652 253 652 C223 652 205 663 192 706 C189 715 183 721 175 721 L120 721 C111 721 105 715 105 706 C121 618 166 571 253 571 L253 571 Z " />
<glyph glyph-name="Uring" unicode="&#x16e;" horiz-adv-x="589" d="M295 977 C224 977 166 920 166 848 C166 777 224 719 295 719 C366 719 424 777 424 848 C424 920 366 977 295 977 L295 977 Z M295 791 C263 791 238 819 238 848 C238 881 263 905 295 905 C327 905 352 881 352 848 C352 819 327 791 295 791 L295 791 Z M419 165 C419 117 379 80 337 80 L252 80 C210 80 170 117 170 165 L170 687 C170 695 165 700 157 700 L88 700 C80 700 75 695 75 687 L75 155 C75 67 150 -5 243 -5 L346 -5 C439 -5 514 67 514 155 L514 687 C514 695 509 700 501 700 L432 700 C424 700 419 695 419 687 L419 165 Z " />
<glyph glyph-name="uring" unicode="&#x16f;" horiz-adv-x="504" d="M252 829 C181 829 123 772 123 700 C123 629 181 571 252 571 C323 571 381 629 381 700 C381 772 323 829 252 829 L252 829 Z M252 643 C220 643 195 671 195 700 C195 733 220 757 252 757 C284 757 309 733 309 700 C309 671 284 643 252 643 L252 643 Z M339 146 C339 111 305 80 272 80 L232 80 C199 80 165 111 165 146 L165 502 C165 510 160 515 152 515 L83 515 C75 515 70 510 70 502 L70 141 C70 69 127 -5 214 -5 L289 -5 C377 -5 434 69 434 141 L434 502 C434 510 429 515 421 515 L352 515 C344 515 339 510 339 502 L339 146 Z " />
<glyph glyph-name="Uhungarumlaut" unicode="&#x170;" horiz-adv-x="589" d="M245 751 C254 751 259 757 263 765 L315 875 C315 884 309 889 301 889 L240 889 C231 889 226 883 222 875 L170 765 C170 756 175 751 184 751 L245 751 Z M405 751 C414 751 419 757 423 765 L475 875 C475 884 469 889 461 889 L400 889 C391 889 386 883 382 875 L330 765 C330 756 335 751 344 751 L405 751 Z M419 165 C419 117 379 80 337 80 L252 80 C210 80 170 117 170 165 L170 687 C170 695 165 700 157 700 L88 700 C80 700 75 695 75 687 L75 155 C75 67 150 -5 243 -5 L346 -5 C439 -5 514 67 514 155 L514 687 C514 695 509 700 501 700 L432 700 C424 700 419 695 419 687 L419 165 Z " />
<glyph glyph-name="uhungarumlaut" unicode="&#x171;" horiz-adv-x="504" d="M201 571 C210 571 215 577 219 585 L271 695 C271 704 265 709 257 709 L196 709 C187 709 182 703 178 695 L126 585 C126 576 131 571 140 571 L201 571 Z M361 571 C370 571 375 577 379 585 L431 695 C431 704 425 709 417 709 L356 709 C347 709 342 703 338 695 L286 585 C286 576 291 571 300 571 L361 571 Z M339 146 C339 111 305 80 272 80 L232 80 C199 80 165 111 165 146 L165 502 C165 510 160 515 152 515 L83 515 C75 515 70 510 70 502 L70 141 C70 69 127 -5 214 -5 L289 -5 C377 -5 434 69 434 141 L434 502 C434 510 429 515 421 515 L352 515 C344 515 339 510 339 502 L339 146 Z " />
<glyph glyph-name="Uogonek" unicode="&#x172;" horiz-adv-x="589" d="M236 -52 C234 -55 233 -58 233 -60 L233 -93 C233 -98 237 -102 242 -102 L297 -102 C297 -102 321 -102 321 -125 C321 -146 297 -146 297 -146 L237 -146 C232 -146 228 -150 228 -155 L228 -186 C228 -191 232 -195 237 -195 L314 -195 C361 -195 376 -178 376 -119 C376 -71 338 -53 299 -53 L323 -5 L346 -5 C439 -5 514 67 514 155 L514 687 C514 695 509 700 501 700 L432 700 C424 700 419 695 419 687 L419 165 C419 117 379 80 337 80 L252 80 C210 80 170 117 170 165 L170 687 C170 695 165 700 157 700 L88 700 C80 700 75 695 75 687 L75 155 C75 67 150 -5 243 -5 L260 -5 L236 -52 Z " />
<glyph glyph-name="uogonek" unicode="&#x173;" horiz-adv-x="504" d="M421 515 L352 515 C344 515 339 510 339 502 L339 146 C339 111 305 80 272 80 L232 80 C199 80 165 111 165 146 L165 502 C165 510 160 515 152 515 L83 515 C75 515 70 510 70 502 L70 141 C70 69 127 -5 214 -5 L222 -5 L222 -53 C183 -53 145 -71 145 -119 C145 -178 160 -195 207 -195 L284 -195 C289 -195 293 -191 293 -186 L293 -155 C293 -150 289 -146 284 -146 L224 -146 C224 -146 200 -146 200 -125 C200 -102 224 -102 224 -102 L274 -102 C279 -102 283 -98 283 -93 L283 -5 L289 -5 C377 -5 434 69 434 141 L434 502 C434 510 429 515 421 515 L421 515 Z " />
<glyph glyph-name="Ydieresis" unicode="&#x178;" horiz-adv-x="561" d="M148 766 C148 757 154 751 163 751 L234 751 C243 751 249 757 249 766 L249 843 C249 852 243 858 234 858 L163 858 C154 858 148 852 148 843 L148 766 Z M311 766 C311 757 317 751 326 751 L397 751 C406 751 412 757 412 766 L412 843 C412 852 406 858 397 858 L326 858 C317 858 311 852 311 843 L311 766 Z M328 220 L531 687 C531 695 526 700 518 700 L446 700 C438 700 435 697 431 689 L285 350 L276 350 L130 689 C126 697 123 700 115 700 L43 700 C35 700 30 695 30 687 L233 220 L233 13 C233 5 238 0 246 0 L315 0 C323 0 328 5 328 13 L328 220 Z " />
<glyph glyph-name="Zacute" unicode="&#x179;" horiz-adv-x="512" d="M293 751 C301 751 306 757 310 765 L366 883 C366 892 360 897 352 897 L291 897 C283 897 278 891 274 883 L218 765 C218 756 223 751 232 751 L293 751 Z M340 615 L59 73 C57 69 55 64 55 59 L55 13 C55 5 60 0 68 0 L444 0 C452 0 457 5 457 13 L457 72 C457 80 452 85 444 85 L172 85 L453 627 C455 631 457 636 457 641 L457 687 C457 695 452 700 444 700 L68 700 C60 700 55 695 55 687 L55 628 C55 620 60 615 68 615 L340 615 Z " />
<glyph glyph-name="zacute" unicode="&#x17a;" horiz-adv-x="437" d="M262 571 C270 571 275 577 279 585 L335 703 C335 712 329 717 321 717 L260 717 C252 717 247 711 243 703 L187 585 C187 576 192 571 201 571 L262 571 Z M383 442 C385 446 387 449 387 454 L387 502 C387 510 382 515 374 515 L63 515 C55 515 50 510 50 502 L50 443 C50 435 55 430 63 430 L274 430 L54 73 C51 69 50 66 50 61 L50 13 C50 5 55 0 63 0 L374 0 C382 0 387 5 387 13 L387 72 C387 80 382 85 374 85 L163 85 L383 442 Z " />
<glyph glyph-name="Zdotaccent" unicode="&#x17b;" horiz-adv-x="512" d="M206 766 C206 757 212 751 221 751 L292 751 C301 751 307 757 307 766 L307 843 C307 852 301 858 292 858 L221 858 C212 858 206 852 206 843 L206 766 Z M340 615 L59 73 C57 69 55 64 55 59 L55 13 C55 5 60 0 68 0 L444 0 C452 0 457 5 457 13 L457 72 C457 80 452 85 444 85 L172 85 L453 627 C455 631 457 636 457 641 L457 687 C457 695 452 700 444 700 L68 700 C60 700 55 695 55 687 L55 628 C55 620 60 615 68 615 L340 615 Z " />
<glyph glyph-name="zdotaccent" unicode="&#x17c;" horiz-adv-x="437" d="M168 586 C168 577 174 571 183 571 L254 571 C263 571 269 577 269 586 L269 663 C269 672 263 678 254 678 L183 678 C174 678 168 672 168 663 L168 586 Z M383 442 C385 446 387 449 387 454 L387 502 C387 510 382 515 374 515 L63 515 C55 515 50 510 50 502 L50 443 C50 435 55 430 63 430 L274 430 L54 73 C51 69 50 66 50 61 L50 13 C50 5 55 0 63 0 L374 0 C382 0 387 5 387 13 L387 72 C387 80 382 85 374 85 L163 85 L383 442 Z " />
<glyph glyph-name="Zcaron" unicode="&#x17d;" horiz-adv-x="512" d="M293 769 C301 769 307 774 311 783 L384 931 C384 938 379 943 371 943 L308 943 C302 943 297 937 294 931 L256 854 L218 931 C215 937 210 943 204 943 L141 943 C133 943 128 938 128 931 L201 783 C205 774 211 769 219 769 L293 769 Z M340 615 L59 73 C57 69 55 64 55 59 L55 13 C55 5 60 0 68 0 L444 0 C452 0 457 5 457 13 L457 72 C457 80 452 85 444 85 L172 85 L453 627 C455 631 457 636 457 641 L457 687 C457 695 452 700 444 700 L68 700 C60 700 55 695 55 687 L55 628 C55 620 60 615 68 615 L340 615 Z " />
<glyph glyph-name="zcaron" unicode="&#x17e;" horiz-adv-x="437" d="M255 571 C263 571 269 576 273 585 L346 733 C346 740 341 745 333 745 L270 745 C264 745 259 739 256 733 L218 656 L180 733 C177 739 172 745 166 745 L103 745 C95 745 90 740 90 733 L163 585 C167 576 173 571 181 571 L255 571 Z M383 442 C385 446 387 449 387 454 L387 502 C387 510 382 515 374 515 L63 515 C55 515 50 510 50 502 L50 443 C50 435 55 430 63 430 L274 430 L54 73 C51 69 50 66 50 61 L50 13 C50 5 55 0 63 0 L374 0 C382 0 387 5 387 13 L387 72 C387 80 382 85 374 85 L163 85 L383 442 Z " />
<glyph glyph-name="florin" unicode="&#x192;" horiz-adv-x="369" d="M307 700 C220 700 177 621 162 552 L147 480 L56 480 C48 480 43 475 43 467 L43 408 C43 400 48 395 56 395 L123 395 L-24 -168 C-23 -180 -18 -181 -10 -181 L57 -181 C65 -181 70 -176 72 -168 L218 395 L313 395 C321 395 326 400 326 408 L326 467 C326 475 321 480 313 480 L243 480 L259 556 C265 585 292 615 326 615 L351 615 C359 615 364 620 364 628 L364 687 C364 695 359 700 351 700 L307 700 Z " />
<glyph glyph-name="uni0218" unicode="&#x218;" horiz-adv-x="545" d="M248 -53 C239 -53 234 -59 230 -67 L187 -179 C187 -188 193 -193 201 -193 L262 -193 C271 -193 276 -187 280 -179 L323 -67 C323 -58 318 -53 309 -53 L248 -53 Z M225 80 C183 80 145 119 145 165 L145 182 C145 190 140 195 132 195 L63 195 C55 195 50 190 50 182 L50 155 C50 67 127 -5 218 -5 L322 -5 C415 -5 490 67 490 155 L490 172 C490 464 145 314 145 509 L145 535 C145 581 183 620 225 620 L305 620 C347 620 385 581 385 535 L385 518 C385 510 390 505 398 505 L467 505 C475 505 480 510 480 518 L480 545 C480 633 403 705 312 705 L217 705 C126 705 50 633 50 545 L50 522 C50 228 395 381 395 184 L395 165 C395 117 355 80 313 80 L225 80 Z " />
<glyph glyph-name="uni0219" unicode="&#x219;" horiz-adv-x="472" d="M210 -53 C201 -53 196 -59 192 -67 L149 -179 C149 -188 155 -193 163 -193 L224 -193 C233 -193 238 -187 242 -179 L285 -67 C285 -58 280 -53 271 -53 L210 -53 Z M254 435 C288 435 321 404 321 369 L321 357 C321 349 326 344 334 344 L403 344 C411 344 416 349 416 357 L416 374 C416 446 358 520 271 520 L200 520 C112 520 56 458 56 386 L56 379 C56 182 327 256 327 150 L327 136 C327 98 294 80 260 80 L217 80 C183 80 150 111 150 146 L150 158 C150 166 145 171 137 171 L68 171 C60 171 55 166 55 158 L55 141 C55 69 113 -5 200 -5 L278 -5 C367 -5 422 57 422 129 L422 143 C422 341 151 267 151 369 L151 379 C151 417 184 435 218 435 L254 435 Z " />
<glyph glyph-name="uni021A" unicode="&#x21a;" horiz-adv-x="519" d="M229 -53 C220 -53 215 -59 211 -67 L168 -179 C168 -188 174 -193 182 -193 L243 -193 C252 -193 257 -187 261 -179 L304 -67 C304 -58 299 -53 290 -53 L229 -53 Z M58 700 C50 700 45 695 45 687 L45 628 C45 620 50 615 58 615 L212 615 L212 13 C212 5 217 0 225 0 L294 0 C302 0 307 5 307 13 L307 615 L461 615 C469 615 474 620 474 628 L474 687 C474 695 469 700 461 700 L58 700 Z " />
<glyph glyph-name="uni021B" unicode="&#x21b;" horiz-adv-x="377" d="M228 -53 C219 -53 214 -59 210 -67 L167 -179 C167 -188 173 -193 181 -193 L242 -193 C251 -193 256 -187 260 -179 L303 -67 C303 -58 298 -53 289 -53 L228 -53 Z M324 0 C332 0 337 5 337 13 L337 72 C337 80 332 85 324 85 L288 85 C255 85 220 117 220 151 L220 430 L324 430 C332 430 337 435 337 443 L337 502 C337 510 332 515 324 515 L220 515 L220 687 C220 695 215 700 207 700 L138 700 C130 700 125 695 125 687 L125 515 L48 515 C40 515 35 510 35 502 L35 443 C35 435 40 430 48 430 L125 430 L125 148 C130 74 182 0 269 0 L324 0 Z " />
<glyph glyph-name="circumflex" unicode="&#x2c6;" horiz-adv-x="416" d="M171 700 C163 700 157 695 153 686 L80 538 C80 531 85 526 93 526 L156 526 C162 526 167 532 170 538 L208 615 L246 538 C249 532 254 526 260 526 L323 526 C331 526 336 531 336 538 L263 686 C259 695 253 700 245 700 L171 700 Z " />
<glyph glyph-name="caron" unicode="&#x2c7;" horiz-adv-x="416" d="M245 526 C253 526 259 531 263 540 L336 688 C336 695 331 700 323 700 L260 700 C254 700 249 694 246 688 L208 611 L170 688 C167 694 162 700 156 700 L93 700 C85 700 80 695 80 688 L153 540 C157 531 163 526 171 526 L245 526 Z " />
<glyph glyph-name="breve" unicode="&#x2d8;" horiz-adv-x="456" d="M228 550 C315 550 360 597 376 685 C376 694 370 700 361 700 L306 700 C298 700 292 694 289 685 C276 642 258 631 228 631 C198 631 180 642 167 685 C164 694 158 700 150 700 L95 700 C86 700 80 694 80 685 C96 597 141 550 228 550 L228 550 Z " />
<glyph glyph-name="dotaccent" unicode="&#x2d9;" horiz-adv-x="261" d="M80 608 C80 599 86 593 95 593 L166 593 C175 593 181 599 181 608 L181 685 C181 694 175 700 166 700 L95 700 C86 700 80 694 80 685 L80 608 Z " />
<glyph glyph-name="ring" unicode="&#x2da;" horiz-adv-x="418" d="M209 752 C138 752 80 695 80 623 C80 552 138 494 209 494 C280 494 338 552 338 623 C338 695 280 752 209 752 L209 752 Z M209 566 C177 566 152 594 152 623 C152 656 177 680 209 680 C241 680 266 656 266 623 C266 594 241 566 209 566 L209 566 Z " />
<glyph glyph-name="ogonek" unicode="&#x2db;" horiz-adv-x="308" d="M166 1 C161 1 157 -3 157 -8 L157 -53 C118 -53 80 -71 80 -119 C80 -178 95 -195 142 -195 L219 -195 C224 -195 228 -191 228 -186 L228 -155 C228 -150 224 -146 219 -146 L159 -146 C159 -146 135 -146 135 -125 C135 -102 159 -102 159 -102 L209 -102 C214 -102 218 -98 218 -93 L218 -8 C218 -3 214 1 209 1 L166 1 Z " />
<glyph glyph-name="tilde" unicode="&#x2dc;" horiz-adv-x="418" d="M268 573 C287 573 310 581 330 593 C335 596 338 601 338 607 L323 659 C321 665 316 667 311 667 C309 667 307 667 304 666 C291 662 275 658 268 658 C213 658 202 700 150 700 C131 700 108 692 88 680 C83 677 80 672 80 666 L95 614 C97 608 102 606 107 606 C109 606 111 606 114 607 C127 611 143 615 150 615 C205 615 215 573 268 573 L268 573 Z " />
<glyph glyph-name="hungarumlaut" unicode="&#x2dd;" horiz-adv-x="465" d="M155 562 C164 562 169 568 173 576 L225 686 C225 695 219 700 211 700 L150 700 C141 700 136 694 132 686 L80 576 C80 567 85 562 94 562 L155 562 Z M315 562 C324 562 329 568 333 576 L385 686 C385 695 379 700 371 700 L310 700 C301 700 296 694 292 686 L240 576 C240 567 245 562 254 562 L315 562 Z " />
<glyph glyph-name="uni03A9" unicode="&#x3a9;" horiz-adv-x="727" d="M312 700 C219 700 143 628 143 539 L143 172 C143 157 145 110 177 85 L93 85 C85 85 80 80 80 72 L80 13 C80 5 85 0 93 0 L267 0 C275 0 280 5 280 13 L280 70 C280 78 275 83 266 86 C239 98 238 155 238 175 L238 530 C238 575 278 615 320 615 L407 615 C449 615 489 575 489 530 L489 175 C489 155 488 98 461 86 C452 83 447 78 447 70 L447 13 C447 5 452 0 460 0 L634 0 C642 0 647 5 647 13 L647 72 C647 80 642 85 634 85 L550 85 C582 110 584 157 584 172 L584 539 C584 628 508 700 415 700 L312 700 Z " />
<glyph glyph-name="pi" unicode="&#x3c0;" horiz-adv-x="763" d="M93 515 C85 515 80 510 80 502 L80 443 C80 435 85 430 93 430 L211 430 L211 13 C211 5 216 0 224 0 L293 0 C301 0 306 5 306 13 L306 430 L457 430 L457 13 C457 5 462 0 470 0 L539 0 C547 0 552 5 552 13 L552 430 L670 430 C678 430 683 435 683 443 L683 502 C683 510 678 515 670 515 L93 515 Z " />
<glyph glyph-name="ZWSP" unicode="&#x200b;" d="" />
<glyph glyph-name="endash" unicode="&#x2013;" horiz-adv-x="386" d="M93 282 C85 282 80 277 80 269 L80 210 C80 202 85 197 93 197 L293 197 C301 197 306 202 306 210 L306 269 C306 277 301 282 293 282 L93 282 Z " />
<glyph glyph-name="emdash" unicode="&#x2014;" horiz-adv-x="446" d="M93 282 C85 282 80 277 80 269 L80 210 C80 202 85 197 93 197 L353 197 C361 197 366 202 366 210 L366 269 C366 277 361 282 353 282 L93 282 Z " />
<glyph glyph-name="quoteleft" unicode="&#x2018;" horiz-adv-x="294" d="M155 550 C164 550 169 556 173 564 L214 686 C214 695 208 700 200 700 L139 700 C130 700 125 694 121 686 L80 564 C80 555 85 550 94 550 L155 550 Z " />
<glyph glyph-name="quoteright" unicode="&#x2019;" horiz-adv-x="294" d="M139 700 C130 700 125 694 121 686 L80 564 C80 555 86 550 94 550 L155 550 C164 550 169 556 173 564 L214 686 C214 695 209 700 200 700 L139 700 Z " />
<glyph glyph-name="quotesinglbase" unicode="&#x201a;" horiz-adv-x="294" d="M139 82 C130 82 125 76 121 68 L80 -54 C80 -63 86 -68 94 -68 L155 -68 C164 -68 169 -62 173 -54 L214 68 C214 77 209 82 200 82 L139 82 Z " />
<glyph glyph-name="quotedblleft" unicode="&#x201c;" horiz-adv-x="456" d="M155 550 C164 550 169 556 173 564 L214 686 C214 695 208 700 200 700 L139 700 C130 700 125 694 121 686 L80 564 C80 555 85 550 94 550 L155 550 Z M317 550 C326 550 331 556 335 564 L376 686 C376 695 370 700 362 700 L301 700 C292 700 287 694 283 686 L242 564 C242 555 247 550 256 550 L317 550 Z " />
<glyph glyph-name="quotedblright" unicode="&#x201d;" horiz-adv-x="456" d="M301 700 C292 700 287 694 283 686 L242 564 C242 555 248 550 256 550 L317 550 C326 550 331 556 335 564 L376 686 C376 695 371 700 362 700 L301 700 Z M139 700 C130 700 125 694 121 686 L80 564 C80 555 86 550 94 550 L155 550 C164 550 169 556 173 564 L214 686 C214 695 209 700 200 700 L139 700 Z " />
<glyph glyph-name="quotedblbase" unicode="&#x201e;" horiz-adv-x="456" d="M301 82 C292 82 287 76 283 68 L242 -54 C242 -63 248 -68 256 -68 L317 -68 C326 -68 331 -62 335 -54 L376 68 C376 77 371 82 362 82 L301 82 Z M139 82 C130 82 125 76 121 68 L80 -54 C80 -63 86 -68 94 -68 L155 -68 C164 -68 169 -62 173 -54 L214 68 C214 77 209 82 200 82 L139 82 Z " />
<glyph glyph-name="dagger" unicode="&#x2020;" horiz-adv-x="471" d="M283 540 L283 687 C283 695 278 700 270 700 L201 700 C193 700 188 695 188 687 L188 540 L93 540 C85 540 80 535 80 527 L80 468 C80 460 85 455 93 455 L188 455 L188 -255 C188 -263 193 -268 201 -268 L270 -268 C278 -268 283 -263 283 -255 L283 455 L378 455 C386 455 391 460 391 468 L391 527 C391 535 386 540 378 540 L283 540 Z " />
<glyph glyph-name="daggerdbl" unicode="&#x2021;" horiz-adv-x="471" d="M378 -85 C386 -85 391 -80 391 -72 L391 -13 C391 -5 386 0 378 0 L283 0 L283 455 L378 455 C386 455 391 460 391 468 L391 527 C391 535 386 540 378 540 L283 540 L283 687 C283 695 278 700 270 700 L201 700 C193 700 188 695 188 687 L188 540 L93 540 C85 540 80 535 80 527 L80 468 C80 460 85 455 93 455 L188 455 L188 0 L93 0 C85 0 80 -5 80 -13 L80 -72 C80 -80 85 -85 93 -85 L188 -85 L188 -255 C188 -263 193 -268 201 -268 L270 -268 C278 -268 283 -263 283 -255 L283 -85 L378 -85 Z " />
<glyph glyph-name="bullet" unicode="&#x2022;" horiz-adv-x="261" d="M80 187 C80 178 86 172 95 172 L166 172 C175 172 181 178 181 187 L181 264 C181 273 175 279 166 279 L95 279 C86 279 80 273 80 264 L80 187 Z " />
<glyph glyph-name="ellipsis" unicode="&#x2026;" horiz-adv-x="963" d="M80 10 C80 1 86 -5 95 -5 L166 -5 C175 -5 181 1 181 10 L181 87 C181 96 175 102 166 102 L95 102 C86 102 80 96 80 87 L80 10 Z M431 10 C431 1 437 -5 446 -5 L517 -5 C526 -5 532 1 532 10 L532 87 C532 96 526 102 517 102 L446 102 C437 102 431 96 431 87 L431 10 Z M782 10 C782 1 788 -5 797 -5 L868 -5 C877 -5 883 1 883 10 L883 87 C883 96 877 102 868 102 L797 102 C788 102 782 96 782 87 L782 10 Z " />
<glyph glyph-name="perthousand" unicode="&#x2030;" horiz-adv-x="1071" d="M204 13 C204 5 209 0 217 0 L289 0 C297 0 301 5 304 13 L589 687 C589 695 584 700 576 700 L504 700 C496 700 492 695 489 687 L204 13 Z M201 700 C134 700 80 645 80 579 C80 512 134 457 201 457 C268 457 324 512 324 579 C324 645 268 700 201 700 L201 700 Z M201 528 C172 528 150 553 150 579 C150 608 172 630 201 630 C227 630 252 608 252 579 C252 553 227 528 201 528 L201 528 Z M583 243 C516 243 462 188 462 122 C462 55 516 0 583 0 C650 0 706 55 706 122 C706 188 650 243 583 243 L583 243 Z M583 71 C554 71 532 96 532 122 C532 151 554 173 583 173 C609 173 634 151 634 122 C634 96 609 71 583 71 L583 71 Z M868 243 C801 243 747 188 747 122 C747 55 801 0 868 0 C935 0 991 55 991 122 C991 188 935 243 868 243 L868 243 Z M868 71 C839 71 817 96 817 122 C817 151 839 173 868 173 C894 173 919 151 919 122 C919 96 894 71 868 71 L868 71 Z " />
<glyph glyph-name="guilsinglleft" unicode="&#x2039;" horiz-adv-x="386" d="M80 175 C80 166 86 160 94 158 L294 85 C300 85 306 89 306 97 L306 159 C306 168 300 172 294 175 L158 225 L158 232 L294 282 C300 285 306 289 306 298 L306 360 C306 368 300 372 294 372 L94 299 C86 297 80 291 80 282 L80 175 Z " />
<glyph glyph-name="guilsinglright" unicode="&#x203a;" horiz-adv-x="386" d="M306 282 C306 291 300 297 292 299 L92 372 C86 372 80 368 80 360 L80 298 C80 289 86 285 92 282 L228 232 L228 225 L92 175 C86 172 80 168 80 159 L80 97 C80 89 86 85 92 85 L292 158 C300 160 306 166 306 175 L306 282 Z " />
<glyph glyph-name="fraction" unicode="&#x2044;" horiz-adv-x="567" d="M80 -166 C80 -174 85 -179 93 -179 L166 -179 C174 -179 177 -174 180 -166 L487 791 C487 799 482 804 474 804 L401 804 C393 804 390 799 387 791 L80 -166 Z " />
<glyph glyph-name="Euro" unicode="&#x20ac;" horiz-adv-x="678" d="M93 474 C85 474 80 469 80 461 L80 417 C80 409 85 404 93 404 L159 404 L159 295 L93 295 C85 295 80 290 80 282 L80 238 C80 230 85 225 93 225 L159 225 L159 155 C159 67 234 -5 327 -5 L430 -5 C523 -5 598 67 598 155 L598 193 C598 201 593 206 585 206 L516 206 C508 206 503 201 503 193 L503 165 C503 117 463 80 421 80 L336 80 C294 80 254 117 254 165 L254 225 L325 225 C333 225 338 230 338 238 L338 282 C338 290 333 295 325 295 L254 295 L254 404 L325 404 C333 404 338 409 338 417 L338 461 C338 469 333 474 325 474 L254 474 L254 535 C254 581 294 620 336 620 L421 620 C463 620 503 581 503 535 L503 502 C503 494 508 489 516 489 L585 489 C593 489 598 494 598 502 L598 545 C598 633 523 705 430 705 L327 705 C234 705 159 633 159 545 L159 474 L93 474 Z " />
<glyph glyph-name="Numero" unicode="&#x2116;" horiz-adv-x="1107" d="M809 700 C722 700 665 626 665 554 L665 321 C665 249 722 175 809 175 L882 175 C970 175 1027 249 1027 321 L1027 554 C1027 626 970 700 883 700 L809 700 Z M827 260 C794 260 760 291 760 326 L760 549 C760 584 794 615 827 615 L865 615 C898 615 932 584 932 549 L932 326 C932 291 898 260 865 260 L827 260 Z M746 85 C738 85 733 80 733 72 L733 13 C733 5 738 0 746 0 L944 0 C952 0 957 5 957 13 L957 72 C957 80 952 85 944 85 L746 85 Z M411 13 C415 6 421 0 429 0 L536 0 C544 0 549 5 549 13 L549 687 C549 695 544 700 536 700 L467 700 C459 700 454 695 454 687 L454 176 L444 176 L218 687 C214 694 208 700 200 700 L93 700 C85 700 80 695 80 687 L80 13 C80 5 85 0 93 0 L162 0 C170 0 175 5 175 13 L175 526 L186 526 L411 13 Z " />
<glyph glyph-name="trademark" unicode="&#x2122;" horiz-adv-x="718" d="M147 403 C147 398 151 394 156 394 L207 394 C212 394 216 398 216 403 L216 635 L275 635 C279 635 283 639 283 643 L283 692 C283 696 279 700 275 700 L88 700 C84 700 80 696 80 692 L80 643 C80 639 84 635 88 635 L147 635 L147 403 Z M492 436 C495 436 497 438 498 441 L569 581 L569 403 C569 398 573 394 578 394 L629 394 C634 394 638 398 638 403 L638 691 C638 696 634 700 629 700 L573 700 C567 700 563 695 560 689 L485 552 L480 552 L405 689 C402 695 398 700 392 700 L336 700 C331 700 327 696 327 691 L327 403 C327 398 331 394 336 394 L387 394 C392 394 396 398 396 403 L396 581 L467 441 C468 438 470 436 473 436 L492 436 Z " />
<glyph glyph-name="Omega" unicode="&#x2126;" horiz-adv-x="727" d="M312 700 C219 700 143 628 143 539 L143 172 C143 157 145 110 177 85 L93 85 C85 85 80 80 80 72 L80 13 C80 5 85 0 93 0 L267 0 C275 0 280 5 280 13 L280 70 C280 78 275 83 266 86 C239 98 238 155 238 175 L238 530 C238 575 278 615 320 615 L407 615 C449 615 489 575 489 530 L489 175 C489 155 488 98 461 86 C452 83 447 78 447 70 L447 13 C447 5 452 0 460 0 L634 0 C642 0 647 5 647 13 L647 72 C647 80 642 85 634 85 L550 85 C582 110 584 157 584 172 L584 539 C584 628 508 700 415 700 L312 700 Z " />
<glyph glyph-name="partialdiff" unicode="&#x2202;" horiz-adv-x="537" d="M362 146 C362 111 328 80 295 80 L242 80 C208 80 175 111 175 146 L175 284 C175 319 208 350 242 350 L295 350 C328 350 362 319 362 284 L362 146 Z M362 398 L354 398 C332 429 292 435 272 435 L230 435 C143 435 80 372 80 287 L80 143 C80 58 143 -5 230 -5 L272 -5 C292 -5 332 1 354 32 L362 32 L362 13 C362 5 367 0 375 0 L444 0 C452 0 457 5 457 13 L457 559 C457 631 400 705 313 705 L239 705 C150 705 94 631 94 559 L94 543 C94 535 99 530 107 530 L176 530 C184 530 189 535 189 543 L189 554 C189 589 222 620 255 620 L295 620 C328 620 362 589 362 554 L362 398 Z " />
<glyph glyph-name="Delta" unicode="&#x2206;" horiz-adv-x="844" d="M631 85 L213 85 L422 601 L631 85 Z M369 700 C360 700 355 694 352 686 L80 10 C80 4 84 0 90 0 L754 0 C760 0 764 4 764 10 L492 686 C489 694 484 700 475 700 L369 700 Z " />
<glyph glyph-name="product" unicode="&#x220f;" horiz-adv-x="763" d="M93 700 C85 700 80 695 80 687 L80 628 C80 620 85 615 93 615 L211 615 L211 13 C211 5 216 0 224 0 L293 0 C301 0 306 5 306 13 L306 615 L457 615 L457 13 C457 5 462 0 470 0 L539 0 C547 0 552 5 552 13 L552 615 L670 615 C678 615 683 620 683 628 L683 687 C683 695 678 700 670 700 L93 700 Z " />
<glyph glyph-name="summation" unicode="&#x2211;" horiz-adv-x="523" d="M215 333 L80 98 L80 13 C80 5 85 0 93 0 L430 0 C438 0 443 5 443 13 L443 72 C443 80 438 85 430 85 L160 85 L310 347 L310 353 L160 615 L430 615 C438 615 443 620 443 628 L443 687 C443 695 438 700 430 700 L93 700 C85 700 80 695 80 687 L80 602 L215 367 L215 333 Z " />
<glyph glyph-name="minus" unicode="&#x2212;" horiz-adv-x="386" d="M93 282 C85 282 80 277 80 269 L80 210 C80 202 85 197 93 197 L293 197 C301 197 306 202 306 210 L306 269 C306 277 301 282 293 282 L93 282 Z " />
<glyph glyph-name="radical" unicode="&#x221a;" horiz-adv-x="709" d="M425 700 C417 700 414 695 411 687 L258 97 L248 97 L180 371 C177 379 174 384 166 384 L93 384 C85 384 80 379 80 371 L176 13 C178 5 183 0 191 0 L315 0 C323 0 328 5 330 13 L491 615 L616 615 C624 615 629 620 629 628 L629 687 C629 695 624 700 616 700 L425 700 Z " />
<glyph glyph-name="infinity" unicode="&#x221e;" horiz-adv-x="906" d="M240 157 C208 157 175 188 175 221 L175 295 C175 329 208 360 240 360 L341 360 C371 360 403 332 405 301 L405 221 C405 188 373 157 341 157 L240 157 Z M565 157 C533 157 501 188 501 221 L501 301 C503 332 535 360 565 360 L666 360 C698 360 731 329 731 295 L731 221 C731 188 698 157 666 157 L565 157 Z M453 142 C480 81 525 72 556 72 L685 72 C772 72 826 144 826 215 L826 302 C826 373 772 445 685 445 L556 445 C525 445 480 436 453 375 C426 436 381 445 350 445 L221 445 C134 445 80 373 80 302 L80 215 C80 144 134 72 221 72 L350 72 C381 72 426 81 453 142 L453 142 Z " />
<glyph glyph-name="integral" unicode="&#x222b;" horiz-adv-x="439" d="M314 700 C276 685 172 634 172 511 L172 12 C172 12 171 -58 87 -94 C82 -96 80 -101 80 -106 C80 -107 81 -110 82 -112 L108 -176 C110 -181 115 -183 119 -183 C120 -183 123 -183 125 -182 C163 -167 267 -116 267 7 L267 506 C267 506 268 576 352 612 C357 614 359 619 359 624 C359 625 358 628 357 630 L331 694 C329 699 324 701 320 701 C319 701 316 701 314 700 L314 700 Z " />
<glyph glyph-name="approxequal" unicode="&#x2248;" horiz-adv-x="418" d="M268 53 C287 53 310 61 330 73 C335 76 338 81 338 87 L323 139 C321 145 316 147 311 147 C309 147 307 147 304 146 C291 142 275 138 268 138 C213 138 202 180 150 180 C131 180 108 172 88 160 C83 157 80 152 80 146 L95 94 C97 88 102 86 107 86 C109 86 111 86 114 87 C127 91 143 95 150 95 C205 95 215 53 268 53 L268 53 Z M268 238 C287 238 310 246 330 258 C335 261 338 266 338 272 L323 324 C321 330 316 332 311 332 C309 332 307 332 304 331 C291 327 275 323 268 323 C213 323 202 365 150 365 C131 365 108 357 88 345 C83 342 80 337 80 331 L95 279 C97 273 102 271 107 271 C109 271 111 271 114 272 C127 276 143 280 150 280 C205 280 215 238 268 238 L268 238 Z " />
<glyph glyph-name="notequal" unicode="&#x2260;" horiz-adv-x="401" d="M99 186 C91 186 86 181 86 173 L86 114 C86 106 91 101 99 101 L108 101 L80 13 C80 5 85 0 93 0 L159 0 C167 0 170 5 173 13 L201 101 L298 101 C306 101 311 106 311 114 L311 173 C311 181 306 186 298 186 L228 186 L261 291 L298 291 C306 291 311 296 311 304 L311 363 C311 371 306 376 298 376 L288 376 L321 478 C321 486 316 491 308 491 L242 491 C234 491 231 486 228 478 L195 376 L99 376 C91 376 86 371 86 363 L86 304 C86 296 91 291 99 291 L168 291 L135 186 L99 186 Z " />
<glyph glyph-name="lessequal" unicode="&#x2264;" horiz-adv-x="386" d="M93 85 C85 85 80 80 80 72 L80 13 C80 5 85 0 93 0 L293 0 C301 0 306 5 306 13 L306 72 C306 80 301 85 293 85 L93 85 Z M80 228 C80 219 86 213 94 211 L294 138 C300 138 306 142 306 150 L306 212 C306 221 300 225 294 228 L158 278 L158 285 L294 335 C300 338 306 342 306 351 L306 413 C306 421 300 425 294 425 L94 352 C86 350 80 344 80 335 L80 228 Z " />
<glyph glyph-name="greaterequal" unicode="&#x2265;" horiz-adv-x="386" d="M93 85 C85 85 80 80 80 72 L80 13 C80 5 85 0 93 0 L293 0 C301 0 306 5 306 13 L306 72 C306 80 301 85 293 85 L93 85 Z M306 335 C306 344 300 350 292 352 L92 425 C86 425 80 421 80 413 L80 351 C80 342 86 338 92 335 L228 285 L228 278 L92 228 C86 225 80 221 80 212 L80 150 C80 142 86 138 92 138 L292 211 C300 213 306 219 306 228 L306 335 Z " />
<glyph glyph-name="lozenge" unicode="&#x25ca;" horiz-adv-x="622" d="M383 689 C380 695 375 700 369 700 L254 700 C247 700 242 695 239 689 L80 350 L239 11 C242 5 247 0 253 0 L369 0 C375 0 380 5 383 11 L542 350 L383 689 Z M311 80 L186 349 L311 617 L436 349 L311 80 Z " />
<glyph glyph-name="uni25CC" unicode="&#x25cc;" horiz-adv-x="199" d="" />
<glyph glyph-name="fi" unicode="&#xfb01;" horiz-adv-x="636" d="M220 430 L324 430 C332 430 337 435 337 443 L337 502 C337 510 332 515 324 515 L220 515 L220 593 C220 628 255 659 288 659 L324 659 C332 659 337 664 337 672 L337 731 C337 739 332 744 324 744 L269 744 C182 744 130 670 125 597 L125 515 L48 515 C40 515 35 510 35 502 L35 443 C35 435 40 430 48 430 L125 430 L125 13 C125 5 130 0 138 0 L207 0 C215 0 220 5 220 13 L220 430 Z M462 13 C462 5 467 0 475 0 L544 0 C552 0 557 5 557 13 L557 502 C557 510 552 515 544 515 L475 515 C467 515 462 510 462 502 L462 13 Z M459 591 C459 583 464 578 472 578 L547 578 C555 578 560 583 560 591 L560 671 C560 679 555 684 547 684 L472 684 C464 684 459 679 459 671 L459 591 Z " />
<glyph glyph-name="fl" unicode="&#xfb02;" horiz-adv-x="637" d="M220 430 L324 430 C332 430 337 435 337 443 L337 502 C337 510 332 515 324 515 L220 515 L220 593 C220 628 255 659 288 659 L324 659 C332 659 337 664 337 672 L337 731 C337 739 332 744 324 744 L269 744 C182 744 130 670 125 597 L125 515 L48 515 C40 515 35 510 35 502 L35 443 C35 435 40 430 48 430 L125 430 L125 13 C125 5 130 0 138 0 L207 0 C215 0 220 5 220 13 L220 430 Z M462 13 C462 5 467 0 475 0 L544 0 C552 0 557 5 557 13 L557 687 C557 695 552 700 544 700 L475 700 C467 700 462 695 462 687 L462 13 Z " />
</font>
</svg>
