<?xml version="1.0" encoding="UTF-8"?>
<svg xmlns="http://www.w3.org/2000/svg" xmlns:xlink="http://www.w3.org/1999/xlink" version="1.2" >
<font id="Tomkin Condense ExtraLight">
<font-face  font-family="Tomkin Condense" units-per-em="1000" ascent="750" descent="-250" font-style="normal" font-weight="100" font-stretch="normal" cap-height="700" x-height="515" underline-position="-91" underline-thickness="35" />
<missing-glyph  horiz-adv-x="569" d="" />
<glyph glyph-name="space" unicode="&#x20;" horiz-adv-x="182" d="" />
<glyph glyph-name="exclam" unicode="&#x21;" horiz-adv-x="234" d="M137 692 C137 697 134 700 129 700 L105 700 C100 700 97 697 97 692 L97 264 L102 172 C102 167 105 164 110 164 L124 164 C129 164 132 167 132 172 L137 264 L137 692 Z M139 69 C139 74 136 77 131 77 L103 77 C98 77 95 74 95 69 L95 8 C95 3 98 0 103 0 L131 0 C136 0 139 3 139 8 L139 69 Z " />
<glyph glyph-name="quotedbl" unicode="&#x22;" horiz-adv-x="372" d="M131 615 L131 692 C131 697 128 700 123 700 L103 700 C98 700 95 697 95 692 L95 615 L100 532 C100 527 103 524 108 524 L118 524 C123 524 126 527 126 532 L131 615 Z M277 615 L277 692 C277 697 274 700 269 700 L249 700 C244 700 241 697 241 692 L241 615 L246 532 C246 527 249 524 254 524 L264 524 C269 524 272 527 272 532 L277 615 Z " />
<glyph glyph-name="numbersign" unicode="&#x23;" horiz-adv-x="808" d="M396 8 C396 3 399 0 404 0 L430 0 C435 0 437 3 439 8 L488 162 L595 162 C600 162 603 165 603 170 L603 192 C603 197 600 200 595 200 L501 200 L596 496 L705 496 C710 496 713 499 713 504 L713 526 C713 531 710 534 705 534 L608 534 L659 692 C659 697 656 700 651 700 L625 700 C620 700 618 697 616 692 L565 534 L364 534 L415 692 C415 697 412 700 407 700 L381 700 C376 700 374 697 372 692 L321 534 L213 534 C208 534 205 531 205 526 L205 504 C205 499 208 496 213 496 L309 496 L213 200 L103 200 C98 200 95 197 95 192 L95 170 C95 165 98 162 103 162 L201 162 L152 8 C152 3 155 0 160 0 L186 0 C191 0 193 3 195 8 L244 162 L445 162 L396 8 Z M352 496 L553 496 L457 200 L257 200 L352 496 Z " />
<glyph glyph-name="dollar" unicode="&#x24;" horiz-adv-x="577" d="M135 524 L135 547 C135 622 171 667 247 667 L317 667 C393 667 429 622 429 547 L429 534 C429 529 432 526 437 526 L461 526 C466 526 469 529 469 534 L469 563 C469 641 411 705 329 705 L308 705 L308 824 C308 829 305 832 300 832 L276 832 C271 832 268 829 268 824 L268 705 L234 705 C152 705 95 641 95 563 L95 537 C95 243 442 403 442 169 L442 153 C442 78 405 33 329 33 L247 33 C171 33 135 78 135 153 L135 166 C135 171 132 174 127 174 L103 174 C98 174 95 171 95 166 L95 137 C95 59 153 -5 235 -5 L268 -5 L268 -129 C268 -134 271 -137 276 -137 L300 -137 C305 -137 308 -134 308 -129 L308 -5 L342 -5 C425 -5 482 59 482 137 L482 156 C482 447 135 282 135 524 L135 524 Z " />
<glyph glyph-name="percent" unicode="&#x25;" horiz-adv-x="789" d="M236 8 C236 3 239 0 244 0 L270 0 C275 0 277 3 279 8 L568 692 C568 697 565 700 560 700 L534 700 C529 700 527 697 525 692 L236 8 Z M206 700 C145 700 95 650 95 588 C95 527 145 476 206 476 C268 476 318 527 318 588 C318 650 268 700 206 700 L206 700 Z M206 516 C166 516 134 552 134 588 C134 631 166 661 206 661 C248 661 280 631 280 588 C280 552 248 516 206 516 L206 516 Z M582 224 C521 224 471 174 471 112 C471 51 521 0 582 0 C644 0 694 51 694 112 C694 174 644 224 582 224 L582 224 Z M582 40 C542 40 510 76 510 112 C510 155 542 185 582 185 C624 185 656 155 656 112 C656 76 624 40 582 40 L582 40 Z " />
<glyph glyph-name="ampersand" unicode="&#x26;" horiz-adv-x="629" d="M430 329 L430 38 L244 38 C184 38 135 88 135 160 L135 208 C135 275 184 329 244 329 L430 329 Z M551 329 C556 329 559 332 559 337 L559 359 C559 364 556 367 551 367 L278 367 C217 367 169 420 169 492 L169 547 C169 622 206 667 282 667 L317 667 C393 667 430 622 430 547 L430 523 C430 518 433 515 438 515 L462 515 C467 515 470 518 470 523 L470 562 C470 640 413 705 331 705 L268 705 C186 705 129 640 129 562 L129 489 C129 460 130 387 209 354 C111 339 95 247 95 205 L95 143 C95 65 154 0 236 0 L462 0 C467 0 470 3 470 8 L470 329 L551 329 Z " />
<glyph glyph-name="quotesingle" unicode="&#x27;" horiz-adv-x="226" d="M131 615 L131 692 C131 697 128 700 123 700 L103 700 C98 700 95 697 95 692 L95 615 L100 532 C100 527 103 524 108 524 L118 524 C123 524 126 527 126 532 L131 615 Z " />
<glyph glyph-name="parenleft" unicode="&#x28;" horiz-adv-x="278" d="M143 -170 C144 -175 146 -178 151 -178 L175 -178 C180 -178 183 -175 183 -170 C156 -17 135 157 135 307 C135 456 156 644 183 797 C183 802 180 805 175 805 L151 805 C146 805 144 802 143 797 C110 626 95 466 95 307 C95 147 110 0 143 -170 L143 -170 Z " />
<glyph glyph-name="parenright" unicode="&#x29;" horiz-adv-x="278" d="M135 -170 C168 0 183 147 183 307 C183 466 168 626 135 797 C134 802 132 805 127 805 L103 805 C98 805 95 802 95 797 C122 644 143 456 143 307 C143 157 122 -17 95 -170 C95 -175 98 -178 103 -178 L127 -178 C132 -178 134 -175 135 -170 L135 -170 Z " />
<glyph glyph-name="asterisk" unicode="&#x2a;" horiz-adv-x="426" d="M213 530 L290 443 C291 442 292 441 295 441 C296 441 298 441 299 442 L314 454 C316 456 317 458 317 460 C317 462 317 464 315 466 L242 549 L328 606 C330 607 331 610 331 611 C331 612 331 613 330 615 L320 630 C319 632 317 633 314 633 C314 633 312 633 310 632 L229 578 L229 694 C229 697 226 700 224 700 L203 700 C199 700 197 697 197 694 L197 578 L116 632 C114 633 112 633 112 633 C109 633 107 632 106 630 L96 615 C95 613 95 612 95 611 C95 610 96 607 98 606 L184 549 L111 466 C109 464 109 462 109 460 C109 458 110 456 112 454 L127 442 C128 441 130 441 131 441 C134 441 135 442 136 443 L213 530 Z " />
<glyph glyph-name="plus" unicode="&#x2b;" horiz-adv-x="392" d="M176 250 L103 250 C98 250 95 247 95 242 L95 220 C95 215 98 212 103 212 L176 212 L176 82 C176 77 179 74 184 74 L208 74 C213 74 216 77 216 82 L216 212 L289 212 C294 212 297 215 297 220 L297 242 C297 247 294 250 289 250 L216 250 L216 380 C216 385 213 388 208 388 L184 388 C179 388 176 385 176 380 L176 250 Z " />
<glyph glyph-name="comma" unicode="&#x2c;" horiz-adv-x="274" d="M179 27 C179 32 176 35 172 35 L148 35 C143 35 140 32 138 27 L95 -66 C95 -71 98 -74 102 -74 L126 -74 C131 -74 134 -71 136 -66 L179 27 Z " />
<glyph glyph-name="hyphen" unicode="&#x2d;" horiz-adv-x="351" d="M248 212 C253 212 256 215 256 220 L256 242 C256 247 253 250 248 250 L103 250 C98 250 95 247 95 242 L95 220 C95 215 98 212 103 212 L248 212 Z " />
<glyph glyph-name="period" unicode="&#x2e;" horiz-adv-x="239" d="M144 39 C144 44 141 47 136 47 L103 47 C98 47 95 44 95 39 L95 3 C95 -2 98 -5 103 -5 L136 -5 C141 -5 144 -2 144 3 L144 39 Z " />
<glyph glyph-name="slash" unicode="&#x2f;" horiz-adv-x="543" d="M95 -171 C95 -176 98 -179 103 -179 L129 -179 C134 -179 136 -176 138 -171 L448 796 C448 801 445 804 440 804 L414 804 C409 804 407 801 405 796 L95 -171 Z " />
<glyph glyph-name="zero" unicode="0" horiz-adv-x="556" d="M224 705 C142 705 85 640 85 562 L85 138 C85 60 142 -5 224 -5 L332 -5 C414 -5 471 60 471 138 L471 562 C471 640 414 705 332 705 L224 705 Z M318 667 C394 667 431 622 431 547 L431 154 C431 79 394 33 318 33 L238 33 C162 33 125 79 125 154 L125 547 C125 622 162 667 238 667 L318 667 Z " />
<glyph glyph-name="one" unicode="1" horiz-adv-x="509" d="M83 642 C78 640 75 638 75 633 L75 612 C75 607 78 604 83 604 L263 662 L263 38 L118 38 C113 38 110 35 110 30 L110 8 C110 3 113 0 118 0 L451 0 C456 0 459 3 459 8 L459 30 C459 35 456 38 451 38 L303 38 L303 692 C303 697 300 700 295 700 L260 700 L83 642 Z " />
<glyph glyph-name="two" unicode="2" horiz-adv-x="528" d="M75 8 C75 3 78 0 83 0 L443 0 C448 0 451 3 451 8 L451 30 C451 35 448 38 443 38 L115 38 L115 135 C115 372 453 212 453 504 L453 563 C453 641 394 705 310 705 L221 705 C136 705 77 641 77 563 L77 540 C77 535 80 532 85 532 L109 532 C114 532 117 535 117 540 L117 547 C117 622 154 667 230 667 L300 667 C376 667 413 622 413 547 L413 492 C413 257 75 414 75 124 L75 8 Z " />
<glyph glyph-name="three" unicode="3" horiz-adv-x="535" d="M364 350 C432 373 455 441 455 487 L455 563 C455 641 396 705 312 705 L224 705 C139 705 80 641 80 563 L80 540 C80 535 83 532 88 532 L112 532 C117 532 120 535 120 540 L120 547 C120 622 157 667 233 667 L302 667 C378 667 415 622 415 547 L415 491 C415 418 367 370 305 370 L249 370 C244 370 241 367 241 362 L241 340 C241 335 244 332 249 332 L305 332 C367 332 415 282 415 209 L415 153 C415 78 378 33 302 33 L233 33 C157 33 120 78 120 153 L120 160 C120 165 117 168 112 168 L88 168 C83 168 80 165 80 160 L80 137 C80 59 139 -5 224 -5 L312 -5 C396 -5 455 59 455 137 L455 213 C455 259 432 327 364 350 L364 350 Z " />
<glyph glyph-name="four" unicode="4" horiz-adv-x="543" d="M323 693 C323 697 320 700 316 700 L290 700 C284 700 282 697 280 693 L55 192 L55 166 C55 161 58 158 63 158 L373 158 L373 8 C373 3 376 0 381 0 L405 0 C410 0 413 3 413 8 L413 158 L480 158 C485 158 488 161 488 166 L488 188 C488 193 485 196 480 196 L413 196 L413 416 C413 421 410 424 405 424 L381 424 C376 424 373 421 373 416 L373 196 L100 196 L323 693 Z " />
<glyph glyph-name="five" unicode="5" horiz-adv-x="546" d="M138 336 C158 365 208 371 230 371 L310 371 C382 371 431 325 431 246 L431 155 C431 78 386 33 310 33 L247 33 C177 33 125 72 125 155 L125 160 C125 165 122 168 117 168 L93 168 C88 168 85 165 85 160 L85 137 C85 59 153 -5 236 -5 L320 -5 C403 -5 471 59 471 137 L471 264 C471 342 406 409 324 409 L237 409 C223 409 154 407 125 372 L125 662 L410 662 C415 662 418 665 418 670 L418 692 C418 697 415 700 410 700 L93 700 C88 700 85 697 85 692 L85 338 C85 332 88 329 94 329 L127 329 C133 329 134 330 138 336 L138 336 Z " />
<glyph glyph-name="six" unicode="6" horiz-adv-x="547" d="M432 153 C432 78 395 33 319 33 L238 33 C162 33 125 78 125 153 L125 247 C125 322 162 368 238 368 L319 368 C396 368 432 322 432 247 L432 153 Z M421 540 C421 535 424 532 429 532 L453 532 C458 532 461 535 461 540 L461 563 C461 641 402 705 317 705 L228 705 C144 705 85 641 85 563 L85 137 C85 59 144 -5 228 -5 L329 -5 C413 -5 472 59 472 137 L472 265 C472 342 415 406 333 406 L235 406 C223 406 177 405 125 361 L125 547 C125 622 162 667 238 667 L308 667 C384 667 421 622 421 547 L421 540 Z " />
<glyph glyph-name="seven" unicode="7" horiz-adv-x="462" d="M147 8 C147 3 150 0 155 0 L179 0 C184 0 187 3 187 8 C218 213 273 448 402 651 L402 692 C402 697 399 700 394 700 L68 700 C63 700 60 697 60 692 L60 670 C60 665 63 662 68 662 L368 662 C210 425 182 195 147 8 L147 8 Z " />
<glyph glyph-name="eight" unicode="8" horiz-adv-x="548" d="M233 33 C156 33 120 79 120 154 L120 206 C120 281 156 329 233 329 L315 329 C392 329 428 281 428 206 L428 154 C428 79 392 33 315 33 L233 33 Z M239 705 C155 705 96 641 96 563 L96 476 C96 448 96 374 175 350 C89 329 80 257 80 218 L80 137 C80 59 137 -5 218 -5 L330 -5 C411 -5 468 59 468 137 L468 218 C468 257 459 329 373 350 C452 374 452 448 452 476 L452 563 C452 641 393 705 309 705 L239 705 Z M249 367 C173 367 136 414 136 489 L136 547 C136 622 173 667 249 667 L299 667 C375 667 412 622 412 547 L412 489 C412 414 375 367 299 367 L249 367 Z " />
<glyph glyph-name="nine" unicode="9" horiz-adv-x="547" d="M115 547 C115 622 152 667 228 667 L309 667 C385 667 422 622 422 547 L422 453 C422 378 385 332 309 332 L228 332 C151 332 115 378 115 453 L115 547 Z M126 160 C126 165 123 168 118 168 L94 168 C89 168 86 165 86 160 L86 137 C86 59 145 -5 230 -5 L319 -5 C403 -5 462 59 462 137 L462 563 C462 641 403 705 319 705 L218 705 C134 705 75 641 75 563 L75 435 C75 358 132 294 214 294 L312 294 C324 294 370 295 422 339 L422 153 C422 78 385 33 309 33 L239 33 C163 33 126 78 126 153 L126 160 Z " />
<glyph glyph-name="colon" unicode="&#x3a;" horiz-adv-x="239" d="M144 39 C144 44 141 47 136 47 L103 47 C98 47 95 44 95 39 L95 3 C95 -2 98 -5 103 -5 L136 -5 C141 -5 144 -2 144 3 L144 39 Z M144 388 C144 393 141 396 136 396 L103 396 C98 396 95 393 95 388 L95 352 C95 347 98 344 103 344 L136 344 C141 344 144 347 144 352 L144 388 Z " />
<glyph glyph-name="semicolon" unicode="&#x3b;" horiz-adv-x="278" d="M183 388 C183 393 180 396 175 396 L142 396 C137 396 134 393 134 388 L134 352 C134 347 137 344 142 344 L175 344 C180 344 183 347 183 352 L183 388 Z M179 27 C179 32 176 35 172 35 L148 35 C143 35 140 32 138 27 L95 -66 C95 -71 98 -74 102 -74 L126 -74 C131 -74 134 -71 136 -66 L179 27 Z " />
<glyph glyph-name="less" unicode="&#x3c;" horiz-adv-x="393" d="M95 189 C95 184 97 181 103 179 L290 105 C295 105 298 108 298 113 L298 140 C298 145 295 147 290 149 L127 214 L127 220 L290 285 C295 287 298 289 298 294 L298 321 C298 326 295 329 290 329 L103 255 C97 253 95 250 95 245 L95 189 Z " />
<glyph glyph-name="equal" unicode="&#x3d;" horiz-adv-x="340" d="M237 307 C242 307 245 310 245 315 L245 337 C245 342 242 345 237 345 L103 345 C98 345 95 342 95 337 L95 315 C95 310 98 307 103 307 L237 307 Z M237 114 C242 114 245 117 245 122 L245 144 C245 149 242 152 237 152 L103 152 C98 152 95 149 95 144 L95 122 C95 117 98 114 103 114 L237 114 Z " />
<glyph glyph-name="greater" unicode="&#x3e;" horiz-adv-x="393" d="M298 245 C298 250 296 253 290 255 L103 329 C98 329 95 326 95 321 L95 294 C95 289 98 287 103 285 L266 220 L266 214 L103 149 C98 147 95 145 95 140 L95 113 C95 108 98 105 103 105 L290 179 C296 181 298 184 298 189 L298 245 Z " />
<glyph glyph-name="question" unicode="&#x3f;" horiz-adv-x="566" d="M232 169 C232 164 235 161 240 161 L264 161 C269 161 272 164 272 169 L272 179 C272 416 471 250 471 515 L471 563 C471 641 412 705 328 705 L239 705 C154 705 95 641 95 563 L95 512 C95 507 98 504 103 504 L127 504 C132 504 135 507 135 512 L135 547 C135 622 172 667 248 667 L318 667 C394 667 431 622 431 547 L431 515 C431 277 232 447 232 181 L232 169 Z M274 69 C274 74 271 77 266 77 L238 77 C233 77 230 74 230 69 L230 8 C230 3 233 0 238 0 L266 0 C271 0 274 3 274 8 L274 69 Z " />
<glyph glyph-name="at" unicode="&#x40;" horiz-adv-x="729" d="M634 562 C634 640 567 705 485 705 L244 705 C162 705 95 640 95 562 L95 26 C95 -53 162 -117 244 -117 L439 -117 C444 -117 447 -114 447 -109 L447 -87 C447 -82 444 -79 439 -79 L258 -79 C182 -79 135 -30 135 45 L135 547 C135 622 182 667 258 667 L472 667 C548 667 594 622 594 547 L594 433 L589 433 C562 478 524 488 497 488 L433 488 C355 488 307 431 307 355 L307 187 C307 111 355 54 433 54 L497 54 C524 54 562 64 589 109 L594 109 L594 67 C594 62 597 59 602 59 L626 59 C631 59 634 62 634 67 L634 562 Z M445 92 C378 92 347 138 347 195 L347 347 C347 404 378 450 445 450 L485 450 C550 450 594 394 594 337 L594 205 C594 148 550 92 485 92 L445 92 Z " />
<glyph glyph-name="A" unicode="A" horiz-adv-x="558" d="M259 700 C253 700 250 697 248 692 L50 8 C50 3 53 0 58 0 L83 0 C88 0 90 3 92 8 L132 148 L426 148 L466 8 C468 3 470 0 475 0 L500 0 C505 0 508 3 508 8 L310 692 C308 697 305 700 299 700 L259 700 Z M275 645 L283 645 L415 186 L143 186 L275 645 Z " />
<glyph glyph-name="B" unicode="B" horiz-adv-x="537" d="M135 369 L135 662 L276 662 C348 662 398 609 398 540 L398 492 C398 420 339 369 276 369 L135 369 Z M311 331 C374 331 432 275 432 208 L432 160 C432 87 374 38 311 38 L135 38 L135 331 L311 331 Z M103 700 C98 700 95 697 95 692 L95 8 C95 3 98 0 103 0 L320 0 C403 0 472 65 472 143 L472 217 C472 261 435 332 363 359 C415 383 438 454 438 483 L438 557 C438 635 370 700 288 700 L103 700 Z " />
<glyph glyph-name="C" unicode="C" horiz-adv-x="541" d="M332 -5 C414 -5 471 60 471 138 L471 187 C471 192 468 195 463 195 L439 195 C434 195 431 192 431 187 L431 153 C431 78 394 33 318 33 L238 33 C162 33 125 79 125 154 L125 547 C125 622 162 667 238 667 L318 667 C394 667 431 622 431 547 L431 513 C431 508 434 505 439 505 L463 505 C468 505 471 508 471 513 L471 562 C471 640 414 705 332 705 L224 705 C142 705 85 640 85 562 L85 138 C85 60 142 -5 224 -5 L332 -5 Z " />
<glyph glyph-name="D" unicode="D" horiz-adv-x="567" d="M135 662 L319 662 C396 662 442 616 442 540 L442 160 C442 84 396 38 319 38 L135 38 L135 662 Z M103 700 C98 700 95 697 95 692 L95 8 C95 3 98 0 103 0 L332 0 C414 0 482 65 482 143 L482 557 C482 635 414 700 332 700 L103 700 Z " />
<glyph glyph-name="E" unicode="E" horiz-adv-x="483" d="M95 8 C95 3 98 0 103 0 L390 0 C395 0 398 3 398 8 L398 30 C398 35 395 38 390 38 L135 38 L135 317 L364 317 C369 317 372 320 372 325 L372 347 C372 352 369 355 364 355 L135 355 L135 662 L390 662 C395 662 398 665 398 670 L398 692 C398 697 395 700 390 700 L103 700 C98 700 95 697 95 692 L95 8 Z " />
<glyph glyph-name="F" unicode="F" horiz-adv-x="453" d="M103 700 C98 700 95 697 95 692 L95 8 C95 3 98 0 103 0 L127 0 C132 0 135 3 135 8 L135 317 L364 317 C369 317 372 320 372 325 L372 347 C372 352 369 355 364 355 L135 355 L135 662 L390 662 C395 662 398 665 398 670 L398 692 C398 697 395 700 390 700 L103 700 Z " />
<glyph glyph-name="G" unicode="G" horiz-adv-x="556" d="M296 360 C291 360 288 357 288 352 L288 330 C288 325 291 322 296 322 L431 322 L431 153 C431 78 394 33 318 33 L238 33 C162 33 125 79 125 154 L125 547 C125 622 162 667 238 667 L318 667 C394 667 431 622 431 547 L431 513 C431 508 434 505 439 505 L463 505 C468 505 471 508 471 513 L471 562 C471 640 414 705 332 705 L224 705 C142 705 85 640 85 562 L85 138 C85 60 142 -5 224 -5 L332 -5 C414 -5 471 60 471 138 L471 352 C471 357 468 360 463 360 L296 360 Z " />
<glyph glyph-name="H" unicode="H" horiz-adv-x="568" d="M473 692 C473 697 470 700 465 700 L441 700 C436 700 433 697 433 692 L433 355 L135 355 L135 692 C135 697 132 700 127 700 L103 700 C98 700 95 697 95 692 L95 8 C95 3 98 0 103 0 L127 0 C132 0 135 3 135 8 L135 317 L433 317 L433 8 C433 3 436 0 441 0 L465 0 C470 0 473 3 473 8 L473 692 Z " />
<glyph glyph-name="I" unicode="I" horiz-adv-x="230" d="M135 692 C135 695 134 697 133 698 C132 699 131 700 127 700 L103 700 C99 700 98 699 97 698 C96 697 95 695 95 692 L95 8 C95 5 96 3 97 2 C98 1 99 0 103 0 L127 0 C131 0 132 1 133 2 C134 3 135 5 135 8 L135 692 Z " />
<glyph glyph-name="J" unicode="J" horiz-adv-x="383" d="M55 60 C53 61 52 61 49 61 C47 61 44 59 43 58 L27 40 C26 39 25 38 25 35 C25 33 26 31 27 30 C55 11 78 -5 140 -5 C269 -5 308 77 308 160 L308 692 C308 697 305 700 300 700 L276 700 C271 700 268 697 268 692 L268 162 C268 145 268 33 134 33 C105 33 87 41 55 60 L55 60 Z " />
<glyph glyph-name="K" unicode="K" horiz-adv-x="513" d="M317 331 L416 8 C419 3 422 0 427 0 L449 0 C454 0 457 3 457 8 L353 348 L457 692 C457 697 454 700 449 700 L426 700 C421 700 417 697 415 692 L317 366 L135 366 L135 692 C135 697 132 700 127 700 L103 700 C98 700 95 697 95 692 L95 8 C95 3 98 0 103 0 L127 0 C132 0 135 3 135 8 L135 331 L317 331 Z " />
<glyph glyph-name="L" unicode="L" horiz-adv-x="453" d="M390 0 C395 0 398 3 398 8 L398 30 C398 35 395 38 390 38 L135 38 L135 692 C135 697 132 700 127 700 L103 700 C98 700 95 697 95 692 L95 8 C95 3 98 0 103 0 L390 0 Z " />
<glyph glyph-name="M" unicode="M" horiz-adv-x="734" d="M389 112 C395 112 398 116 401 122 L595 638 L599 638 L599 8 C599 3 602 0 607 0 L631 0 C636 0 639 3 639 8 L639 692 C639 697 636 700 631 700 L584 700 C579 700 577 697 575 692 L371 151 L363 151 L159 692 C157 697 155 700 150 700 L103 700 C98 700 95 697 95 692 L95 8 C95 3 98 0 103 0 L127 0 C132 0 135 3 135 8 L135 638 L139 638 L333 122 C336 116 339 112 345 112 L389 112 Z " />
<glyph glyph-name="N" unicode="N" horiz-adv-x="609" d="M440 8 C442 4 446 0 451 0 L506 0 C511 0 514 3 514 8 L514 692 C514 697 511 700 506 700 L482 700 C477 700 474 697 474 692 L474 46 L467 46 L169 692 C167 696 163 700 158 700 L103 700 C98 700 95 697 95 692 L95 8 C95 3 98 0 103 0 L127 0 C132 0 135 3 135 8 L135 658 L142 658 L440 8 Z " />
<glyph glyph-name="O" unicode="O" horiz-adv-x="556" d="M224 705 C142 705 85 640 85 562 L85 138 C85 60 142 -5 224 -5 L332 -5 C414 -5 471 60 471 138 L471 562 C471 640 414 705 332 705 L224 705 Z M318 667 C394 667 431 622 431 547 L431 154 C431 79 394 33 318 33 L238 33 C162 33 125 79 125 154 L125 547 C125 622 162 667 238 667 L318 667 Z " />
<glyph glyph-name="P" unicode="P" horiz-adv-x="548" d="M473 381 L473 557 C473 635 405 700 322 700 L103 700 C98 700 95 697 95 692 L95 8 C95 3 98 0 103 0 L127 0 C132 0 135 3 135 8 L135 237 L322 237 C405 237 473 302 473 381 L473 381 Z M433 397 C433 329 390 275 312 275 L135 275 L135 662 L312 662 C390 662 433 608 433 540 L433 397 Z " />
<glyph glyph-name="Q" unicode="Q" horiz-adv-x="556" d="M332 705 L224 705 C142 705 85 640 85 562 L85 138 C85 60 142 -5 224 -5 L251 -5 L297 -106 C299 -111 302 -114 307 -114 L334 -114 C339 -114 342 -111 342 -106 L299 -5 L332 -5 C414 -5 471 60 471 138 L471 562 C471 640 414 705 332 705 L332 705 Z M431 154 C431 79 394 33 318 33 L238 33 C162 33 125 79 125 154 L125 547 C125 622 162 667 238 667 L318 667 C394 667 431 622 431 547 L431 154 Z " />
<glyph glyph-name="R" unicode="R" horiz-adv-x="538" d="M473 381 L473 557 C473 635 405 700 322 700 L103 700 C98 700 95 697 95 692 L95 8 C95 3 98 0 103 0 L127 0 C132 0 135 3 135 8 L135 237 L304 237 L409 8 C411 3 413 0 418 0 L444 0 C449 0 452 3 452 8 L345 239 C418 250 473 310 473 381 L473 381 Z M312 275 L135 275 L135 662 L312 662 C390 662 433 608 433 540 L433 397 C433 329 390 275 312 275 L312 275 Z " />
<glyph glyph-name="S" unicode="S" horiz-adv-x="522" d="M65 137 C65 59 123 -5 205 -5 L312 -5 C395 -5 452 59 452 137 L452 156 C452 447 105 282 105 524 L105 547 C105 622 141 667 217 667 L287 667 C363 667 399 622 399 547 L399 534 C399 529 402 526 407 526 L431 526 C436 526 439 529 439 534 L439 563 C439 641 381 705 299 705 L204 705 C122 705 65 641 65 563 L65 537 C65 243 412 403 412 169 L412 153 C412 78 375 33 299 33 L217 33 C141 33 105 78 105 153 L105 166 C105 171 102 174 97 174 L73 174 C68 174 65 171 65 166 L65 137 Z " />
<glyph glyph-name="T" unicode="T" horiz-adv-x="494" d="M68 700 C63 700 60 697 60 692 L60 670 C60 665 63 662 68 662 L227 662 L227 8 C227 3 230 0 235 0 L259 0 C264 0 267 3 267 8 L267 662 L426 662 C431 662 434 665 434 670 L434 692 C434 697 431 700 426 700 L68 700 Z " />
<glyph glyph-name="U" unicode="U" horiz-adv-x="566" d="M436 154 C436 79 399 33 323 33 L243 33 C167 33 130 79 130 154 L130 692 C130 697 127 700 122 700 L98 700 C93 700 90 697 90 692 L90 138 C90 60 147 -5 229 -5 L337 -5 C419 -5 476 60 476 138 L476 692 C476 697 473 700 468 700 L444 700 C439 700 436 697 436 692 L436 154 Z " />
<glyph glyph-name="V" unicode="V" horiz-adv-x="558" d="M299 0 C305 0 308 3 310 8 L508 692 C508 697 505 700 500 700 L475 700 C470 700 468 697 466 692 L283 55 L275 55 L92 692 C90 697 88 700 83 700 L58 700 C53 700 50 697 50 692 L248 8 C250 3 253 0 259 0 L299 0 Z " />
<glyph glyph-name="W" unicode="W" horiz-adv-x="756" d="M364 700 C358 700 356 696 354 691 L213 43 L88 692 C86 697 84 700 79 700 L59 700 C54 700 50 697 50 692 L180 8 C182 3 185 0 190 0 L236 0 C241 0 243 3 245 8 L378 628 L511 8 C513 3 515 0 520 0 L566 0 C571 0 574 3 576 8 L706 692 C706 697 702 700 697 700 L677 700 C672 700 670 697 668 692 L543 43 L402 691 C400 696 398 700 392 700 L364 700 Z " />
<glyph glyph-name="X" unicode="X" horiz-adv-x="520" d="M303 331 L422 8 C424 3 426 0 431 0 L457 0 C462 0 465 3 465 8 L339 352 L464 692 C464 697 461 700 456 700 L432 700 C427 700 425 697 423 692 L303 369 L217 369 L97 692 C95 697 93 700 88 700 L64 700 C59 700 56 697 56 692 L181 352 L55 8 C55 3 58 0 63 0 L89 0 C94 0 96 3 98 8 L217 331 L303 331 Z " />
<glyph glyph-name="Y" unicode="Y" horiz-adv-x="514" d="M277 213 L469 692 C469 697 466 700 461 700 L436 700 C431 700 429 697 427 692 L261 273 L253 273 L87 692 C85 697 83 700 78 700 L53 700 C48 700 45 697 45 692 L237 213 L237 8 C237 3 240 0 245 0 L269 0 C274 0 277 3 277 8 L277 213 Z " />
<glyph glyph-name="Z" unicode="Z" horiz-adv-x="486" d="M369 662 L72 36 C71 34 70 31 70 29 L70 8 C70 3 73 0 78 0 L408 0 C413 0 416 3 416 8 L416 30 C416 35 413 38 408 38 L118 38 L414 664 C415 666 416 669 416 671 L416 692 C416 697 413 700 408 700 L78 700 C73 700 70 697 70 692 L70 670 C70 665 73 662 78 662 L369 662 Z " />
<glyph glyph-name="bracketleft" unicode="&#x5b;" horiz-adv-x="358" d="M103 805 C98 805 95 802 95 797 L95 -169 C95 -174 98 -177 103 -177 L255 -177 C260 -177 263 -174 263 -169 L263 -147 C263 -142 260 -139 255 -139 L135 -139 L135 767 L255 767 C260 767 263 770 263 775 L263 797 C263 802 260 805 255 805 L103 805 Z " />
<glyph glyph-name="backslash" unicode="&#x5c;" horiz-adv-x="543" d="M138 796 C136 801 134 804 129 804 L103 804 C98 804 95 801 95 796 L405 -171 C407 -176 409 -179 414 -179 L440 -179 C445 -179 448 -176 448 -171 L138 796 Z " />
<glyph glyph-name="bracketright" unicode="&#x5d;" horiz-adv-x="358" d="M103 805 C98 805 95 802 95 797 L95 775 C95 770 98 767 103 767 L223 767 L223 -139 L103 -139 C98 -139 95 -142 95 -147 L95 -169 C95 -174 98 -177 103 -177 L255 -177 C260 -177 263 -174 263 -169 L263 797 C263 802 260 805 255 805 L103 805 Z " />
<glyph glyph-name="asciicircum" unicode="&#x5e;" horiz-adv-x="374" d="M175 700 C171 700 167 698 164 693 L95 580 C95 576 97 573 102 573 L128 573 C131 573 135 576 137 580 L187 668 L237 580 C239 576 243 573 246 573 L272 573 C277 573 279 576 279 580 L210 693 C207 698 203 700 199 700 L175 700 Z " />
<glyph glyph-name="underscore" unicode="&#x5f;" horiz-adv-x="351" d="M248 -97 C253 -97 256 -94 256 -89 L256 -67 C256 -62 253 -59 248 -59 L103 -59 C98 -59 95 -62 95 -67 L95 -89 C95 -94 98 -97 103 -97 L248 -97 Z " />
<glyph glyph-name="grave" unicode="&#x60;" horiz-adv-x="274" d="M138 599 C140 594 143 591 148 591 L172 591 C176 591 179 594 179 599 L136 692 C134 697 131 700 126 700 L102 700 C98 700 95 697 95 692 L138 599 Z " />
<glyph glyph-name="a" unicode="a" horiz-adv-x="470" d="M203 33 C145 33 115 71 115 128 L115 161 C115 220 145 258 203 258 L349 258 L349 130 C349 73 294 33 237 33 L203 33 Z M133 467 C180 478 200 482 227 482 C349 482 349 387 349 339 L349 296 L200 296 C123 296 75 246 75 162 L75 118 C75 36 123 -5 200 -5 L232 -5 C270 -5 321 14 343 42 L350 42 L350 8 C350 3 353 0 358 0 L382 0 C387 0 390 3 390 8 L390 345 C390 389 385 520 239 520 C175 520 153 512 124 505 C121 504 120 502 120 498 C120 498 119 498 126 471 C127 469 128 467 133 467 L133 467 Z " />
<glyph glyph-name="b" unicode="b" horiz-adv-x="497" d="M244 33 C179 33 135 89 135 146 L135 369 C135 426 179 482 244 482 L284 482 C351 482 382 436 382 379 L382 136 C382 79 351 33 284 33 L244 33 Z M135 50 L140 50 C167 5 205 -5 232 -5 L296 -5 C374 -5 422 52 422 128 L422 387 C422 463 374 520 296 520 L232 520 C205 520 167 510 140 465 L135 465 L135 692 C135 697 132 700 127 700 L103 700 C98 700 95 697 95 692 L95 8 C95 3 98 0 103 0 L127 0 C132 0 135 3 135 8 L135 50 Z " />
<glyph glyph-name="c" unicode="c" horiz-adv-x="455" d="M277 -5 C355 -5 395 62 395 126 L395 147 C395 152 392 155 387 155 L363 155 C358 155 355 152 355 147 L355 136 C355 79 324 33 257 33 L218 33 C151 33 120 79 120 136 L120 379 C120 436 151 482 218 482 L257 482 C324 482 355 436 355 379 L355 368 C355 363 358 360 363 360 L387 360 C392 360 395 363 395 368 L395 389 C395 453 355 520 277 520 L198 520 C120 520 80 453 80 389 L80 126 C80 62 120 -5 198 -5 L277 -5 Z " />
<glyph glyph-name="d" unicode="d" horiz-adv-x="497" d="M213 33 C146 33 115 79 115 136 L115 379 C115 436 146 482 213 482 L253 482 C318 482 362 426 362 369 L362 146 C362 89 318 33 253 33 L213 33 Z M362 8 C362 3 365 0 370 0 L394 0 C399 0 402 3 402 8 L402 692 C402 697 399 700 394 700 L370 700 C365 700 362 697 362 692 L362 465 L357 465 C330 510 292 520 265 520 L201 520 C123 520 75 463 75 387 L75 128 C75 52 123 -5 201 -5 L265 -5 C292 -5 330 5 357 50 L362 50 L362 8 Z " />
<glyph glyph-name="e" unicode="e" horiz-adv-x="470" d="M120 379 C120 436 151 482 218 482 L257 482 C324 482 355 436 355 379 L355 276 L120 276 L120 379 Z M363 32 C365 34 365 35 365 36 C365 39 364 40 362 42 L347 59 C345 61 344 61 343 61 C340 61 338 59 336 58 C309 44 298 33 262 33 L218 33 C151 33 120 79 120 136 L120 238 L387 238 C392 238 395 241 395 246 L395 389 C395 453 355 520 277 520 L198 520 C120 520 80 453 80 389 L80 126 C80 62 120 -5 198 -5 L262 -5 C262 -5 318 -5 363 32 L363 32 Z " />
<glyph glyph-name="f" unicode="f" horiz-adv-x="359" d="M291 706 C296 706 299 709 299 714 L299 736 C299 741 296 744 291 744 L271 744 C192 744 141 682 141 611 L141 515 L58 515 C53 515 50 512 50 507 L50 485 C50 480 53 477 58 477 L141 477 L141 8 C141 3 144 0 149 0 L173 0 C178 0 181 3 181 8 L181 477 L291 477 C296 477 299 480 299 485 L299 507 C299 512 296 515 291 515 L181 515 L181 602 C181 667 229 706 282 706 L291 706 Z " />
<glyph glyph-name="g" unicode="g" horiz-adv-x="497" d="M213 33 C146 33 115 79 115 136 L115 379 C115 436 146 482 213 482 L253 482 C318 482 362 426 362 369 L362 146 C362 89 318 33 253 33 L213 33 Z M362 -37 C362 -90 354 -165 232 -165 C181 -165 168 -161 137 -156 C134 -156 130 -156 129 -163 L126 -183 C126 -188 128 -190 133 -192 C164 -199 174 -203 228 -203 C401 -203 402 -84 402 -44 L402 507 C402 512 399 515 394 515 L370 515 C365 515 362 512 362 507 L362 465 L357 465 C330 510 292 520 265 520 L201 520 C123 520 75 463 75 387 L75 128 C75 52 123 -5 201 -5 L265 -5 C292 -5 330 5 357 50 L362 50 L362 -37 Z " />
<glyph glyph-name="h" unicode="h" horiz-adv-x="507" d="M135 692 C135 697 132 700 127 700 L103 700 C98 700 95 697 95 692 L95 8 C95 3 98 0 103 0 L127 0 C132 0 135 3 135 8 L135 372 C190 482 247 482 286 482 L294 482 C352 482 382 437 382 360 L382 8 C382 3 385 0 390 0 L414 0 C419 0 422 3 422 8 L422 372 C422 460 386 520 295 520 L266 520 C246 520 188 520 140 442 L135 442 L135 692 Z " />
<glyph glyph-name="i" unicode="i" horiz-adv-x="230" d="M135 507 C135 512 132 515 127 515 L103 515 C98 515 95 512 95 507 L95 8 C95 3 98 0 103 0 L127 0 C132 0 135 3 135 8 L135 507 Z M137 647 C137 652 134 655 129 655 L101 655 C96 655 93 652 93 647 L93 586 C93 581 96 578 101 578 L129 578 C134 578 137 581 137 586 L137 647 Z " />
<glyph glyph-name="j" unicode="j" horiz-adv-x="230" d="M14 -181 C59 -160 135 -101 135 1 L135 507 C135 512 132 515 127 515 L103 515 C98 515 95 512 95 507 L95 -1 C95 -1 90 -88 -4 -141 C-6 -143 -7 -145 -7 -149 L4 -178 C5 -181 8 -182 10 -182 C10 -182 12 -182 14 -181 L14 -181 Z M137 647 C137 652 134 655 129 655 L101 655 C96 655 93 652 93 647 L93 586 C93 581 96 578 101 578 L129 578 C134 578 137 581 137 586 L137 647 Z " />
<glyph glyph-name="k" unicode="k" horiz-adv-x="456" d="M301 255 L368 8 C371 3 374 0 379 0 L403 0 C408 0 411 3 411 8 L337 275 L408 507 C408 512 405 515 400 515 L377 515 C372 515 369 512 366 507 L300 293 L135 293 L135 692 C135 697 132 700 127 700 L103 700 C98 700 95 697 95 692 L95 8 C95 3 98 0 103 0 L127 0 C132 0 135 3 135 8 L135 255 L301 255 Z " />
<glyph glyph-name="l" unicode="l" horiz-adv-x="230" d="M135 692 C135 695 134 697 133 698 C132 699 131 700 127 700 L103 700 C99 700 98 699 97 698 C96 697 95 695 95 692 L95 8 C95 5 96 3 97 2 C98 1 99 0 103 0 L127 0 C131 0 132 1 133 2 C134 3 135 5 135 8 L135 692 Z " />
<glyph glyph-name="m" unicode="m" horiz-adv-x="720" d="M345 8 C345 3 348 0 353 0 L377 0 C382 0 385 3 385 8 L385 376 C419 458 460 482 503 482 C577 482 595 439 595 363 L595 8 C595 3 598 0 603 0 L627 0 C632 0 635 3 635 8 L635 378 C635 458 599 520 505 520 C484 520 428 520 377 435 L373 435 C346 502 305 520 257 520 C233 520 182 517 140 447 L135 447 L135 507 C135 512 132 515 127 515 L103 515 C98 515 95 512 95 507 L95 8 C95 3 98 0 103 0 L127 0 C132 0 135 3 135 8 L135 376 C169 458 210 482 253 482 C327 482 345 439 345 363 L345 8 Z " />
<glyph glyph-name="n" unicode="n" horiz-adv-x="507" d="M135 507 C135 512 132 515 127 515 L103 515 C98 515 95 512 95 507 L95 8 C95 3 98 0 103 0 L127 0 C132 0 135 3 135 8 L135 372 C190 482 247 482 286 482 L294 482 C352 482 382 437 382 360 L382 8 C382 3 385 0 390 0 L414 0 C419 0 422 3 422 8 L422 372 C422 460 386 520 295 520 L266 520 C246 520 188 520 140 442 L135 442 L135 507 Z " />
<glyph glyph-name="o" unicode="o" horiz-adv-x="475" d="M218 33 C151 33 120 79 120 136 L120 379 C120 436 151 482 218 482 L257 482 C324 482 355 436 355 379 L355 136 C355 79 324 33 257 33 L218 33 Z M277 -5 C355 -5 395 62 395 126 L395 389 C395 453 355 520 277 520 L198 520 C120 520 80 453 80 389 L80 126 C80 62 120 -5 198 -5 L277 -5 Z " />
<glyph glyph-name="p" unicode="p" horiz-adv-x="497" d="M244 33 C179 33 135 89 135 146 L135 369 C135 426 179 482 244 482 L284 482 C351 482 382 436 382 379 L382 136 C382 79 351 33 284 33 L244 33 Z M135 50 L140 50 C167 5 205 -5 232 -5 L296 -5 C374 -5 422 52 422 128 L422 387 C422 463 374 520 296 520 L232 520 C205 520 167 510 140 465 L135 465 L135 507 C135 512 132 515 127 515 L103 515 C98 515 95 512 95 507 L95 -166 C95 -171 98 -174 103 -174 L127 -174 C132 -174 135 -171 135 -166 L135 50 Z " />
<glyph glyph-name="q" unicode="q" horiz-adv-x="497" d="M213 33 C146 33 115 79 115 136 L115 379 C115 436 146 482 213 482 L253 482 C318 482 362 426 362 369 L362 146 C362 89 318 33 253 33 L213 33 Z M362 -166 C362 -171 365 -174 370 -174 L394 -174 C399 -174 402 -171 402 -166 L402 507 C402 512 399 515 394 515 L370 515 C365 515 362 512 362 507 L362 465 L357 465 C330 510 292 520 265 520 L201 520 C123 520 75 463 75 387 L75 128 C75 52 123 -5 201 -5 L265 -5 C292 -5 330 5 357 50 L362 50 L362 -166 Z " />
<glyph glyph-name="r" unicode="r" horiz-adv-x="349" d="M295 480 C300 480 303 483 303 488 L304 510 C304 515 301 518 296 518 C283 519 283 520 260 520 C227 520 174 520 140 442 L135 442 L135 507 C135 512 132 515 127 515 L103 515 C98 515 95 512 95 507 L95 8 C95 3 98 0 103 0 L127 0 C132 0 135 3 135 8 L135 358 C173 465 219 482 257 482 C270 482 281 481 295 480 L295 480 Z " />
<glyph glyph-name="s" unicode="s" horiz-adv-x="456" d="M271 -5 C352 -5 391 55 391 120 L391 128 C391 326 112 236 112 384 L112 394 C112 460 149 482 204 482 L246 482 C309 482 344 441 344 379 L344 367 C344 362 347 359 352 359 L376 359 C381 359 384 362 384 367 L384 389 C384 453 335 520 257 520 L191 520 C112 520 72 467 72 402 L72 394 C72 196 349 284 349 136 L349 126 C349 60 305 33 251 33 L208 33 C145 33 110 74 110 136 L110 148 C110 153 107 156 102 156 L78 156 C73 156 70 153 70 148 L70 126 C70 62 119 -5 197 -5 L271 -5 Z " />
<glyph glyph-name="t" unicode="t" horiz-adv-x="354" d="M291 477 C296 477 299 480 299 485 L299 507 C299 512 296 515 291 515 L181 515 L181 692 C181 697 178 700 173 700 L149 700 C144 700 141 697 141 692 L141 515 L58 515 C53 515 50 512 50 507 L50 485 C50 480 53 477 58 477 L141 477 L141 139 C141 62 191 0 270 0 L291 0 C296 0 299 3 299 8 L299 30 C299 35 296 38 291 38 L271 38 C239 38 181 70 181 145 L181 477 L291 477 Z " />
<glyph glyph-name="u" unicode="u" horiz-adv-x="485" d="M400 507 C400 512 397 515 392 515 L368 515 C363 515 360 512 360 507 L360 136 C360 79 329 33 262 33 L223 33 C156 33 125 79 125 136 L125 507 C125 512 122 515 117 515 L93 515 C88 515 85 512 85 507 L85 126 C85 62 125 -5 203 -5 L282 -5 C360 -5 400 62 400 126 L400 507 Z " />
<glyph glyph-name="v" unicode="v" horiz-adv-x="444" d="M242 0 C248 0 251 3 253 8 L404 507 C404 512 401 515 396 515 L371 515 C366 515 364 512 362 507 L226 53 L218 53 L82 507 C80 512 78 515 73 515 L48 515 C43 515 40 512 40 507 L191 8 C193 3 196 0 202 0 L242 0 Z " />
<glyph glyph-name="w" unicode="w" horiz-adv-x="642" d="M297 515 C292 515 288 511 287 506 L179 38 L83 507 C81 512 79 515 74 515 L48 515 C43 515 40 512 40 507 L144 8 C146 3 148 0 153 0 L201 0 C206 0 209 3 211 8 L321 482 L431 8 C433 3 436 0 441 0 L489 0 C494 0 496 3 498 8 L602 507 C602 512 599 515 594 515 L568 515 C563 515 561 512 559 507 L463 38 L355 506 C354 511 350 515 345 515 L297 515 Z " />
<glyph glyph-name="x" unicode="x" horiz-adv-x="420" d="M332 8 C334 3 336 0 341 0 L367 0 C372 0 375 3 375 8 L292 258 L374 507 C374 512 371 515 366 515 L339 515 C334 515 332 512 330 507 L257 278 L163 278 L90 507 C88 512 86 515 81 515 L54 515 C49 515 46 512 46 507 L128 258 L45 8 C45 3 48 0 53 0 L79 0 C84 0 86 3 88 8 L165 240 L255 240 L332 8 Z " />
<glyph glyph-name="y" unicode="y" horiz-adv-x="451" d="M411 507 C411 512 408 515 403 515 L378 515 C373 515 371 512 369 507 L233 53 L225 53 L89 507 C87 512 85 515 80 515 L55 515 C50 515 47 512 47 507 L205 -15 C197 -79 153 -165 73 -165 L48 -165 C43 -165 40 -168 40 -173 L40 -195 C40 -200 43 -203 48 -203 L76 -203 C135 -203 201 -186 249 -27 L411 507 Z " />
<glyph glyph-name="z" unicode="z" horiz-adv-x="418" d="M306 477 L67 36 C66 34 65 31 65 29 L65 8 C65 3 68 0 73 0 L345 0 C350 0 353 3 353 8 L353 30 C353 35 350 38 345 38 L115 38 L351 480 C352 482 353 485 353 487 L353 507 C353 512 350 515 345 515 L73 515 C68 515 65 512 65 507 L65 485 C65 480 68 477 73 477 L306 477 Z " />
<glyph glyph-name="braceleft" unicode="&#x7b;" horiz-adv-x="489" d="M194 312 C257 353 280 407 280 443 L280 657 C280 714 325 767 382 767 L386 767 C391 767 394 770 394 775 L394 797 C394 802 391 805 386 805 L380 805 C302 801 240 738 240 663 L240 452 C240 380 181 331 120 331 L103 331 C98 331 95 328 95 323 L95 301 C95 296 98 293 103 293 L120 293 C181 293 240 245 240 173 L240 -35 C240 -110 302 -173 380 -177 L386 -177 C391 -177 394 -174 394 -169 L394 -147 C394 -142 391 -139 386 -139 L382 -139 C325 -139 280 -86 280 -29 L280 182 C280 218 257 271 194 312 L194 312 Z " />
<glyph glyph-name="bar" unicode="&#x7c;" horiz-adv-x="230" d="M135 797 C135 802 132 805 127 805 L103 805 C98 805 95 802 95 797 L95 -170 C95 -175 98 -178 103 -178 L127 -178 C132 -178 135 -175 135 -170 L135 797 Z " />
<glyph glyph-name="braceright" unicode="&#x7d;" horiz-adv-x="489" d="M295 312 C232 271 209 218 209 182 L209 -29 C209 -86 164 -139 107 -139 L103 -139 C98 -139 95 -142 95 -147 L95 -169 C95 -174 98 -177 103 -177 L109 -177 C187 -173 249 -110 249 -35 L249 173 C249 245 308 293 369 293 L386 293 C391 293 394 296 394 301 L394 323 C394 328 391 331 386 331 L369 331 C308 331 249 380 249 452 L249 663 C249 738 187 801 109 805 L103 805 C98 805 95 802 95 797 L95 775 C95 770 98 767 103 767 L107 767 C164 767 209 714 209 657 L209 443 C209 407 232 353 295 312 L295 312 Z " />
<glyph glyph-name="asciitilde" unicode="&#x7e;" horiz-adv-x="369" d="M232 221 C185 221 194 253 133 253 C126 253 110 249 99 244 C96 243 95 240 95 237 L101 213 C102 210 105 209 107 209 C114 211 130 215 137 215 C183 215 174 183 236 183 C243 183 259 187 270 192 C273 193 274 196 274 199 L268 223 C267 226 264 227 262 227 C255 225 239 221 232 221 L232 221 Z " />
<glyph glyph-name="uni00A0" unicode="&#xa0;" horiz-adv-x="198" d="" />
<glyph glyph-name="exclamdown" unicode="&#xa1;" horiz-adv-x="234" d="M137 436 L132 528 C132 533 129 536 124 536 L110 536 C105 536 102 533 102 528 L97 436 L97 8 C97 3 100 0 105 0 L129 0 C134 0 137 3 137 8 L137 436 Z M139 692 C139 697 136 700 131 700 L103 700 C98 700 95 697 95 692 L95 631 C95 626 98 623 103 623 L131 623 C136 623 139 626 139 631 L139 692 Z " />
<glyph glyph-name="cent" unicode="&#xa2;" horiz-adv-x="576" d="M309 824 C309 829 306 832 301 832 L277 832 C272 832 269 829 269 824 L269 705 L234 705 C152 705 95 640 95 562 L95 138 C95 60 152 -5 234 -5 L269 -5 L269 -129 C269 -134 272 -137 277 -137 L301 -137 C306 -137 309 -134 309 -129 L309 -5 L342 -5 C424 -5 481 60 481 138 L481 187 C481 192 478 195 473 195 L449 195 C444 195 441 192 441 187 L441 153 C441 78 404 33 328 33 L248 33 C172 33 135 79 135 154 L135 547 C135 622 172 667 248 667 L328 667 C404 667 441 622 441 547 L441 513 C441 508 444 505 449 505 L473 505 C478 505 481 508 481 513 L481 562 C481 640 424 705 342 705 L309 705 L309 824 Z " />
<glyph glyph-name="sterling" unicode="&#xa3;" horiz-adv-x="595" d="M189 355 L103 355 C98 355 95 352 95 347 L95 325 C95 320 98 317 103 317 L189 317 L189 38 L103 38 C98 38 95 35 95 30 L95 8 C95 3 98 0 103 0 L484 0 C489 0 492 3 492 8 L492 30 C492 35 489 38 484 38 L229 38 L229 317 L327 317 C332 317 335 320 335 325 L335 347 C335 352 332 355 327 355 L229 355 L229 547 C229 622 260 667 336 667 L353 667 C429 667 460 622 460 547 L460 543 C460 538 463 535 468 535 L492 535 C497 535 500 538 500 543 L500 562 C500 640 449 705 367 705 L322 705 C240 705 189 640 189 562 L189 355 Z " />
<glyph glyph-name="currency" unicode="&#xa4;" horiz-adv-x="486" d="M199 327 C189 327 175 324 162 318 L138 371 C136 376 134 379 129 379 L103 379 C98 379 95 376 95 371 L128 295 C114 271 108 246 108 231 L108 148 C108 133 114 108 128 84 L95 8 C95 3 98 0 103 0 L129 0 C134 0 136 3 138 8 L162 61 C175 55 189 52 199 52 L287 52 C297 52 311 55 324 61 L348 8 C350 3 352 0 357 0 L383 0 C388 0 391 3 391 8 L358 84 C372 108 378 133 378 148 L378 231 C378 246 372 271 358 295 L391 371 C391 376 388 379 383 379 L357 379 C352 379 350 376 348 371 L324 318 C311 324 297 327 287 327 L199 327 Z M271 293 C310 293 338 270 338 227 L338 152 C338 109 310 86 271 86 L215 86 C176 86 148 109 148 152 L148 227 C148 270 176 293 215 293 L271 293 Z " />
<glyph glyph-name="yen" unicode="&#xa5;" horiz-adv-x="614" d="M443 89 C448 89 451 92 451 97 L451 119 C451 124 448 127 443 127 L327 127 L327 213 L355 284 L443 284 C448 284 451 287 451 292 L451 314 C451 319 448 322 443 322 L370 322 L519 692 C519 697 516 700 511 700 L486 700 C481 700 479 697 477 692 L311 273 L303 273 L137 692 C135 697 133 700 128 700 L103 700 C98 700 95 697 95 692 L243 322 L171 322 C166 322 163 319 163 314 L163 292 C163 287 166 284 171 284 L258 284 L287 213 L287 127 L171 127 C166 127 163 124 163 119 L163 97 C163 92 166 89 171 89 L287 89 L287 8 C287 3 290 0 295 0 L319 0 C324 0 327 3 327 8 L327 89 L443 89 Z " />
<glyph glyph-name="brokenbar" unicode="&#xa6;" horiz-adv-x="230" d="M135 797 C135 802 132 805 127 805 L103 805 C98 805 95 802 95 797 L95 400 C95 395 98 392 103 392 L127 392 C132 392 135 395 135 400 L135 797 Z M135 227 C135 232 132 235 127 235 L103 235 C98 235 95 232 95 227 L95 -170 C95 -175 98 -178 103 -178 L127 -178 C132 -178 135 -175 135 -170 L135 227 Z " />
<glyph glyph-name="section" unicode="&#xa7;" horiz-adv-x="511" d="M416 300 L416 308 C416 506 137 416 137 564 L137 574 C137 640 174 662 229 662 L271 662 C334 662 369 621 369 559 L369 547 C369 542 372 539 377 539 L401 539 C406 539 409 542 409 547 L409 569 C409 633 360 700 282 700 L216 700 C137 700 97 647 97 582 L97 574 C97 524 119 492 151 470 C116 449 97 412 97 371 L97 363 C97 165 374 253 374 105 L374 95 C374 29 330 2 276 2 L233 2 C170 2 135 43 135 105 L135 117 C135 122 132 125 127 125 L103 125 C98 125 95 122 95 117 L95 95 C95 31 144 -36 222 -36 L296 -36 C377 -36 416 24 416 89 L416 97 C416 145 395 176 364 198 C397 221 416 260 416 300 L416 300 Z M374 306 C374 265 354 240 326 226 C324 225 319 223 317 223 C314 223 310 224 308 225 C208 260 137 260 137 353 L137 363 C137 408 160 432 191 443 C193 444 197 445 199 445 C202 445 206 444 208 443 C307 409 374 408 374 316 L374 306 Z " />
<glyph glyph-name="dieresis" unicode="&#xa8;" horiz-adv-x="364" d="M144 692 C144 697 141 700 136 700 L103 700 C98 700 95 697 95 692 L95 656 C95 651 98 648 103 648 L136 648 C141 648 144 651 144 656 L144 692 Z M269 692 C269 697 266 700 261 700 L228 700 C223 700 220 697 220 692 L220 656 C220 651 223 648 228 648 L261 648 C266 648 269 651 269 656 L269 692 Z " />
<glyph glyph-name="copyright" unicode="&#xa9;" horiz-adv-x="901" d="M587 266 C587 271 584 274 579 274 L555 274 C550 274 547 271 547 266 L547 253 C547 219 516 192 481 192 L414 192 C380 192 346 220 346 254 L346 439 C346 474 380 499 414 499 L481 499 C516 499 547 474 547 439 L547 426 C547 421 550 418 555 418 L579 418 C584 418 587 421 587 426 L587 436 C587 487 549 536 490 536 L404 536 C344 536 306 487 306 436 L306 255 C306 207 344 156 404 156 L490 156 C549 156 587 207 587 256 L587 266 Z M450 699 C253 699 95 540 95 343 C95 146 253 -12 450 -12 C647 -12 806 146 806 343 C806 540 647 699 450 699 L450 699 Z M450 21 C272 21 128 165 128 343 C128 521 272 666 450 666 C628 666 773 521 773 343 C773 165 628 21 450 21 L450 21 Z " />
<glyph glyph-name="ordfeminine" unicode="&#xaa;" horiz-adv-x="400" d="M127 494 C127 530 146 544 176 544 L273 544 L273 499 C273 463 239 449 208 449 L183 449 C156 449 127 452 127 488 L127 494 Z M124 693 C121 692 120 690 120 687 L123 667 C124 663 127 663 130 663 C146 666 164 668 183 668 C253 668 273 639 273 609 L273 576 L167 576 C127 576 95 546 95 506 L95 482 C95 444 127 417 167 417 L213 417 C221 417 255 423 269 441 L273 441 L273 424 C273 421 276 418 279 418 L299 418 C302 418 305 421 305 424 L305 614 C305 637 288 700 195 700 C166 700 139 698 124 693 L124 693 Z " />
<glyph glyph-name="guillemotleft" unicode="&#xab;" horiz-adv-x="669" d="M95 229 L230 8 C233 3 237 0 242 0 L268 0 C273 0 276 3 276 8 L142 230 L142 238 L276 460 C276 465 273 468 268 468 L242 468 C237 468 233 465 230 460 L95 239 L95 229 Z M393 229 L528 8 C531 3 535 0 540 0 L566 0 C571 0 574 3 574 8 L440 230 L440 238 L574 460 C574 465 571 468 566 468 L540 468 C535 468 531 465 528 460 L393 239 L393 229 Z " />
<glyph glyph-name="logicalnot" unicode="&#xac;" horiz-adv-x="493" d="M103 264 C98 264 95 261 95 256 L95 234 C95 229 98 226 103 226 L358 226 L358 77 C358 72 361 69 366 69 L390 69 C395 69 398 72 398 77 L398 256 C398 261 395 264 390 264 L103 264 Z " />
<glyph glyph-name="uni00AD" unicode="&#xad;" horiz-adv-x="198" d="" />
<glyph glyph-name="registered" unicode="&#xae;" horiz-adv-x="901" d="M366 324 L366 499 L480 499 C515 499 547 465 547 428 L547 393 C547 352 508 324 477 324 L366 324 Z M545 164 C548 158 550 156 555 156 L572 156 C577 156 580 159 580 164 L520 293 C561 310 585 349 585 388 L585 430 C585 489 546 536 476 536 L334 536 C329 536 326 533 326 528 L326 164 C326 159 329 156 334 156 L358 156 C363 156 366 159 366 164 L366 287 L486 287 L545 164 Z M450 699 C253 699 95 540 95 343 C95 146 253 -12 450 -12 C647 -12 806 146 806 343 C806 540 647 699 450 699 L450 699 Z M450 21 C272 21 128 165 128 343 C128 521 272 666 450 666 C628 666 773 521 773 343 C773 165 628 21 450 21 L450 21 Z " />
<glyph glyph-name="macron" unicode="&#xaf;" horiz-adv-x="383" d="M280 662 C285 662 288 665 288 670 L288 692 C288 697 285 700 280 700 L103 700 C98 700 95 697 95 692 L95 670 C95 665 98 662 103 662 L280 662 Z " />
<glyph glyph-name="degree" unicode="&#xb0;" horiz-adv-x="410" d="M315 641 C315 702 266 751 205 751 C144 751 95 702 95 641 C95 579 144 531 205 531 C266 531 315 579 315 641 L315 641 Z M281 641 C281 597 248 565 205 565 C163 565 130 597 130 641 C130 685 163 716 205 716 C248 716 281 685 281 641 L281 641 Z " />
<glyph glyph-name="plusminus" unicode="&#xb1;" horiz-adv-x="392" d="M176 349 L103 349 C98 349 95 346 95 341 L95 319 C95 314 98 311 103 311 L176 311 L176 181 C176 176 179 173 184 173 L208 173 C213 173 216 176 216 181 L216 311 L289 311 C294 311 297 314 297 319 L297 341 C297 346 294 349 289 349 L216 349 L216 479 C216 484 213 487 208 487 L184 487 C179 487 176 484 176 479 L176 349 Z M289 0 C294 0 297 3 297 8 L297 30 C297 35 294 38 289 38 L103 38 C98 38 95 35 95 30 L95 8 C95 3 98 0 103 0 L289 0 Z " />
<glyph glyph-name="twosuperior" unicode="&#xb2;" horiz-adv-x="365" d="M103 629 C103 626 106 623 109 623 L129 623 C132 623 135 626 135 629 C135 654 140 668 180 668 L187 668 C227 668 232 654 232 629 L232 623 C232 532 95 583 95 470 L95 435 C95 432 98 429 101 429 L264 429 C267 429 270 432 270 435 L270 455 C270 458 267 461 264 461 L131 461 L131 469 C131 552 264 506 264 619 L264 635 C264 665 251 700 198 700 L169 700 C116 700 103 665 103 635 L103 629 Z " />
<glyph glyph-name="threesuperior" unicode="&#xb3;" horiz-adv-x="351" d="M224 500 C224 475 219 461 179 461 L172 461 C132 461 127 475 127 500 C127 503 124 506 121 506 L101 506 C98 506 95 503 95 500 L95 494 C95 464 108 429 161 429 L190 429 C243 429 256 464 256 494 L256 505 C256 529 250 551 223 564 C250 577 256 599 256 623 L256 635 C256 665 243 700 190 700 L161 700 C108 700 95 665 95 635 L95 629 C95 626 98 623 101 623 L121 623 C124 623 127 626 127 629 C127 654 132 668 172 668 L179 668 C219 668 224 654 224 629 L224 619 C224 589 209 578 173 578 L166 578 C163 578 160 575 160 572 L160 552 C160 549 163 546 166 546 L173 546 C209 546 224 536 224 506 L224 500 Z " />
<glyph glyph-name="acute" unicode="&#xb4;" horiz-adv-x="274" d="M179 692 C179 697 176 700 172 700 L148 700 C143 700 140 697 138 692 L95 599 C95 594 98 591 102 591 L126 591 C131 591 134 594 136 599 L179 692 Z " />
<glyph glyph-name="mu" unicode="&#xb5;" horiz-adv-x="505" d="M135 507 C135 512 132 515 127 515 L103 515 C98 515 95 512 95 507 L95 -166 C95 -171 98 -174 103 -174 L127 -174 C132 -174 135 -171 135 -166 L135 25 C154 7 180 -5 213 -5 L292 -5 C370 -5 410 62 410 126 L410 507 C410 512 407 515 402 515 L378 515 C373 515 370 512 370 507 L370 136 C370 79 339 33 272 33 L233 33 C166 33 135 79 135 136 L135 507 Z " />
<glyph glyph-name="paragraph" unicode="&#xb6;" horiz-adv-x="682" d="M247 700 C163 700 95 635 95 557 L95 429 C95 351 163 286 247 286 L364 286 L364 8 C364 3 367 0 372 0 L396 0 C401 0 404 3 404 8 L404 662 L547 662 L547 8 C547 3 550 0 555 0 L579 0 C584 0 587 3 587 8 L587 692 C587 697 584 700 579 700 L247 700 Z " />
<glyph glyph-name="periodcentered" unicode="&#xb7;" horiz-adv-x="239" d="M144 234 C144 239 141 242 136 242 L103 242 C98 242 95 239 95 234 L95 198 C95 193 98 190 103 190 L136 190 C141 190 144 193 144 198 L144 234 Z " />
<glyph glyph-name="cedilla" unicode="&#xb8;" horiz-adv-x="313" d="M101 -63 C99 -67 99 -73 99 -73 L99 -92 C99 -96 102 -99 106 -99 L149 -99 C164 -99 190 -103 190 -133 C190 -161 167 -165 155 -165 L102 -165 C98 -165 95 -167 95 -172 L95 -188 C95 -192 98 -195 102 -195 L158 -195 C198 -195 218 -179 218 -127 C218 -88 189 -69 144 -69 L132 -69 L163 -7 C163 -2 160 1 155 1 L140 1 C135 1 133 -2 130 -7 L101 -63 Z " />
<glyph glyph-name="onesuperior" unicode="&#xb9;" horiz-adv-x="375" d="M175 700 L101 678 C97 677 95 673 95 670 L95 652 C95 649 98 646 101 646 L180 669 L180 461 L115 461 C112 461 109 458 109 455 L109 435 C109 432 112 429 115 429 L274 429 C277 429 280 432 280 435 L280 455 C280 458 277 461 274 461 L212 461 L212 694 C212 697 209 700 206 700 L175 700 Z " />
<glyph glyph-name="ordmasculine" unicode="&#xba;" horiz-adv-x="410" d="M315 641 C315 702 266 751 205 751 C144 751 95 702 95 641 C95 579 144 531 205 531 C266 531 315 579 315 641 L315 641 Z M281 641 C281 597 248 565 205 565 C163 565 130 597 130 641 C130 685 163 716 205 716 C248 716 281 685 281 641 L281 641 Z " />
<glyph glyph-name="guillemotright" unicode="&#xbb;" horiz-adv-x="669" d="M574 239 L439 460 C436 465 432 468 427 468 L401 468 C396 468 393 465 393 460 L527 238 L527 230 L393 8 C393 3 396 0 401 0 L427 0 C432 0 436 3 439 8 L574 229 L574 239 Z M276 239 L141 460 C138 465 134 468 129 468 L103 468 C98 468 95 465 95 460 L229 238 L229 230 L95 8 C95 3 98 0 103 0 L129 0 C134 0 138 3 141 8 L276 229 L276 239 Z " />
<glyph glyph-name="onequarter" unicode="&#xbc;" horiz-adv-x="780" d="M175 700 L101 678 C97 677 95 673 95 670 L95 652 C95 649 98 646 101 646 L180 669 L180 461 L115 461 C112 461 109 458 109 455 L109 435 C109 432 112 429 115 429 L274 429 C277 429 280 432 280 435 L280 455 C280 458 277 461 274 461 L212 461 L212 694 C212 697 209 700 206 700 L175 700 Z M211 8 C211 3 214 0 219 0 L239 0 C244 0 246 3 248 8 L595 692 C595 697 592 700 587 700 L567 700 C562 700 560 697 558 692 L211 8 Z M581 265 C581 268 578 271 575 271 L553 271 C550 271 547 268 546 265 L462 79 L462 55 C462 52 465 49 468 49 L620 49 L620 6 C620 3 623 0 626 0 L646 0 C649 0 652 3 652 6 L652 49 L679 49 C682 49 685 52 685 55 L685 75 C685 78 682 81 679 81 L652 81 L652 160 C652 163 649 166 646 166 L626 166 C623 166 620 163 620 160 L620 81 L498 81 L581 265 Z " />
<glyph glyph-name="onehalf" unicode="&#xbd;" horiz-adv-x="748" d="M175 700 L101 678 C97 677 95 673 95 670 L95 652 C95 649 98 646 101 646 L180 669 L180 461 L115 461 C112 461 109 458 109 455 L109 435 C109 432 112 429 115 429 L274 429 C277 429 280 432 280 435 L280 455 C280 458 277 461 274 461 L212 461 L212 694 C212 697 209 700 206 700 L175 700 Z M211 8 C211 3 214 0 219 0 L239 0 C244 0 246 3 248 8 L595 692 C595 697 592 700 587 700 L567 700 C562 700 560 697 558 692 L211 8 Z M486 200 C486 197 489 194 492 194 L512 194 C515 194 518 197 518 200 C518 225 523 239 563 239 L570 239 C610 239 615 225 615 200 L615 194 C615 103 478 154 478 41 L478 6 C478 3 481 0 484 0 L647 0 C650 0 653 3 653 6 L653 26 C653 29 650 32 647 32 L514 32 L514 40 C514 123 647 77 647 190 L647 206 C647 236 634 271 581 271 L552 271 C499 271 486 236 486 206 L486 200 Z " />
<glyph glyph-name="threequarters" unicode="&#xbe;" horiz-adv-x="742" d="M224 500 C224 475 219 461 179 461 L172 461 C132 461 127 475 127 500 C127 503 124 506 121 506 L101 506 C98 506 95 503 95 500 L95 494 C95 464 108 429 161 429 L190 429 C243 429 256 464 256 494 L256 505 C256 529 250 551 223 564 C250 577 256 599 256 623 L256 635 C256 665 243 700 190 700 L161 700 C108 700 95 665 95 635 L95 629 C95 626 98 623 101 623 L121 623 C124 623 127 626 127 629 C127 654 132 668 172 668 L179 668 C219 668 224 654 224 629 L224 619 C224 589 209 578 173 578 L166 578 C163 578 160 575 160 572 L160 552 C160 549 163 546 166 546 L173 546 C209 546 224 536 224 506 L224 500 Z M543 265 C543 268 540 271 537 271 L515 271 C512 271 509 268 508 265 L424 79 L424 55 C424 52 427 49 430 49 L582 49 L582 6 C582 3 585 0 588 0 L608 0 C611 0 614 3 614 6 L614 49 L641 49 C644 49 647 52 647 55 L647 75 C647 78 644 81 641 81 L614 81 L614 160 C614 163 611 166 608 166 L588 166 C585 166 582 163 582 160 L582 81 L460 81 L543 265 Z M171 8 C171 3 174 0 179 0 L199 0 C204 0 206 3 208 8 L555 692 C555 697 552 700 547 700 L527 700 C522 700 520 697 518 692 L171 8 Z " />
<glyph glyph-name="questiondown" unicode="&#xbf;" horiz-adv-x="566" d="M334 536 C334 541 331 544 326 544 L302 544 C297 544 294 541 294 536 L294 526 C294 289 95 455 95 190 L95 142 C95 64 154 0 238 0 L327 0 C412 0 471 64 471 142 L471 193 C471 198 468 201 463 201 L439 201 C434 201 431 198 431 193 L431 158 C431 83 394 38 318 38 L248 38 C172 38 135 83 135 158 L135 190 C135 428 334 258 334 524 L334 536 Z M292 636 C292 631 295 628 300 628 L328 628 C333 628 336 631 336 636 L336 697 C336 702 333 705 328 705 L300 705 C295 705 292 702 292 697 L292 636 Z " />
<glyph glyph-name="Agrave" unicode="&#xc0;" horiz-adv-x="558" d="M256 759 C258 754 261 751 266 751 L290 751 C294 751 297 754 297 759 L254 852 C252 857 249 860 244 860 L220 860 C216 860 213 857 213 852 L256 759 Z M259 700 C253 700 250 697 248 692 L50 8 C50 3 53 0 58 0 L83 0 C88 0 90 3 92 8 L132 148 L426 148 L466 8 C468 3 470 0 475 0 L500 0 C505 0 508 3 508 8 L310 692 C308 697 305 700 299 700 L259 700 Z M275 645 L283 645 L415 186 L143 186 L275 645 Z " />
<glyph glyph-name="Aacute" unicode="&#xc1;" horiz-adv-x="558" d="M345 852 C345 857 342 860 338 860 L314 860 C309 860 306 857 304 852 L261 759 C261 754 264 751 268 751 L292 751 C297 751 300 754 302 759 L345 852 Z M259 700 C253 700 250 697 248 692 L50 8 C50 3 53 0 58 0 L83 0 C88 0 90 3 92 8 L132 148 L426 148 L466 8 C468 3 470 0 475 0 L500 0 C505 0 508 3 508 8 L310 692 C308 697 305 700 299 700 L259 700 Z M275 645 L283 645 L415 186 L143 186 L275 645 Z " />
<glyph glyph-name="Acircumflex" unicode="&#xc2;" horiz-adv-x="558" d="M267 878 C263 878 259 876 256 871 L187 758 C187 754 189 751 194 751 L220 751 C223 751 227 754 229 758 L279 846 L329 758 C331 754 335 751 338 751 L364 751 C369 751 371 754 371 758 L302 871 C299 876 295 878 291 878 L267 878 Z M259 700 C253 700 250 697 248 692 L50 8 C50 3 53 0 58 0 L83 0 C88 0 90 3 92 8 L132 148 L426 148 L466 8 C468 3 470 0 475 0 L500 0 C505 0 508 3 508 8 L310 692 C308 697 305 700 299 700 L259 700 Z M275 645 L283 645 L415 186 L143 186 L275 645 Z " />
<glyph glyph-name="Atilde" unicode="&#xc3;" horiz-adv-x="558" d="M259 700 C253 700 250 697 248 692 L50 8 C50 3 53 0 58 0 L83 0 C88 0 90 3 92 8 L132 148 L426 148 L466 8 C468 3 470 0 475 0 L500 0 C505 0 508 3 508 8 L310 692 C308 697 305 700 299 700 L259 700 Z M275 645 L283 645 L415 186 L143 186 L275 645 Z M326 789 C279 789 288 821 227 821 C220 821 204 817 193 812 C190 811 189 808 189 805 L195 781 C196 778 199 777 201 777 C208 779 224 783 231 783 C277 783 268 751 330 751 C337 751 353 755 364 760 C367 761 368 764 368 767 L362 791 C361 794 358 795 356 795 C349 793 333 789 326 789 L326 789 Z " />
<glyph glyph-name="Adieresis" unicode="&#xc4;" horiz-adv-x="558" d="M241 795 C241 800 238 803 233 803 L200 803 C195 803 192 800 192 795 L192 759 C192 754 195 751 200 751 L233 751 C238 751 241 754 241 759 L241 795 Z M366 795 C366 800 363 803 358 803 L325 803 C320 803 317 800 317 795 L317 759 C317 754 320 751 325 751 L358 751 C363 751 366 754 366 759 L366 795 Z M259 700 C253 700 250 697 248 692 L50 8 C50 3 53 0 58 0 L83 0 C88 0 90 3 92 8 L132 148 L426 148 L466 8 C468 3 470 0 475 0 L500 0 C505 0 508 3 508 8 L310 692 C308 697 305 700 299 700 L259 700 Z M275 645 L283 645 L415 186 L143 186 L275 645 Z " />
<glyph glyph-name="Aring" unicode="&#xc5;" horiz-adv-x="558" d="M389 776 C389 837 340 886 279 886 C218 886 169 837 169 776 C169 727 199 686 242 672 L50 8 C50 3 53 0 58 0 L83 0 C88 0 90 3 92 8 L132 148 L426 148 L466 8 C468 3 470 0 475 0 L500 0 C505 0 508 3 508 8 L315 672 C358 686 389 727 389 776 L389 776 Z M275 645 L283 645 L415 186 L143 186 L275 645 Z M355 776 C355 732 322 700 279 700 L273 700 C234 703 204 734 204 776 C204 820 237 851 279 851 C322 851 355 820 355 776 L355 776 Z " />
<glyph glyph-name="AE" unicode="&#xc6;" horiz-adv-x="835" d="M447 175 L158 175 L361 662 L447 662 L447 175 Z M142 137 L447 137 L447 8 C447 3 450 0 455 0 L742 0 C747 0 750 3 750 8 L750 30 C750 35 747 38 742 38 L487 38 L487 317 L716 317 C721 317 724 320 724 325 L724 347 C724 352 721 355 716 355 L487 355 L487 662 L742 662 C747 662 750 665 750 670 L750 692 C750 697 747 700 742 700 L341 700 C336 700 333 697 331 692 L45 10 C45 4 49 0 55 0 L78 0 C84 0 86 4 89 10 L142 137 Z " />
<glyph glyph-name="Ccedilla" unicode="&#xc7;" horiz-adv-x="541" d="M235 -63 C233 -67 233 -73 233 -73 L233 -92 C233 -96 236 -99 240 -99 L283 -99 C298 -99 324 -103 324 -133 C324 -161 301 -165 289 -165 L236 -165 C232 -165 229 -167 229 -172 L229 -188 C229 -192 232 -195 236 -195 L292 -195 C332 -195 352 -179 352 -127 C352 -88 323 -69 278 -69 L266 -69 L298 -5 L332 -5 C414 -5 471 60 471 138 L471 187 C471 192 468 195 463 195 L439 195 C434 195 431 192 431 187 L431 153 C431 78 394 33 318 33 L238 33 C162 33 125 79 125 154 L125 547 C125 622 162 667 238 667 L318 667 C394 667 431 622 431 547 L431 513 C431 508 434 505 439 505 L463 505 C468 505 471 508 471 513 L471 562 C471 640 414 705 332 705 L224 705 C142 705 85 640 85 562 L85 138 C85 60 142 -5 224 -5 L265 -5 L235 -63 Z " />
<glyph glyph-name="Egrave" unicode="&#xc8;" horiz-adv-x="483" d="M229 759 C231 754 234 751 239 751 L263 751 C267 751 270 754 270 759 L227 852 C225 857 222 860 217 860 L193 860 C189 860 186 857 186 852 L229 759 Z M95 8 C95 3 98 0 103 0 L390 0 C395 0 398 3 398 8 L398 30 C398 35 395 38 390 38 L135 38 L135 317 L364 317 C369 317 372 320 372 325 L372 347 C372 352 369 355 364 355 L135 355 L135 662 L390 662 C395 662 398 665 398 670 L398 692 C398 697 395 700 390 700 L103 700 C98 700 95 697 95 692 L95 8 Z " />
<glyph glyph-name="Eacute" unicode="&#xc9;" horiz-adv-x="483" d="M310 852 C310 857 307 860 303 860 L279 860 C274 860 271 857 269 852 L226 759 C226 754 229 751 233 751 L257 751 C262 751 265 754 267 759 L310 852 Z M95 8 C95 3 98 0 103 0 L390 0 C395 0 398 3 398 8 L398 30 C398 35 395 38 390 38 L135 38 L135 317 L364 317 C369 317 372 320 372 325 L372 347 C372 352 369 355 364 355 L135 355 L135 662 L390 662 C395 662 398 665 398 670 L398 692 C398 697 395 700 390 700 L103 700 C98 700 95 697 95 692 L95 8 Z " />
<glyph glyph-name="Ecircumflex" unicode="&#xca;" horiz-adv-x="483" d="M234 878 C230 878 226 876 223 871 L154 758 C154 754 156 751 161 751 L187 751 C190 751 194 754 196 758 L246 846 L296 758 C298 754 302 751 305 751 L331 751 C336 751 338 754 338 758 L269 871 C266 876 262 878 258 878 L234 878 Z M95 8 C95 3 98 0 103 0 L390 0 C395 0 398 3 398 8 L398 30 C398 35 395 38 390 38 L135 38 L135 317 L364 317 C369 317 372 320 372 325 L372 347 C372 352 369 355 364 355 L135 355 L135 662 L390 662 C395 662 398 665 398 670 L398 692 C398 697 395 700 390 700 L103 700 C98 700 95 697 95 692 L95 8 Z " />
<glyph glyph-name="Edieresis" unicode="&#xcb;" horiz-adv-x="483" d="M212 795 C212 800 209 803 204 803 L171 803 C166 803 163 800 163 795 L163 759 C163 754 166 751 171 751 L204 751 C209 751 212 754 212 759 L212 795 Z M337 795 C337 800 334 803 329 803 L296 803 C291 803 288 800 288 795 L288 759 C288 754 291 751 296 751 L329 751 C334 751 337 754 337 759 L337 795 Z M95 8 C95 3 98 0 103 0 L390 0 C395 0 398 3 398 8 L398 30 C398 35 395 38 390 38 L135 38 L135 317 L364 317 C369 317 372 320 372 325 L372 347 C372 352 369 355 364 355 L135 355 L135 662 L390 662 C395 662 398 665 398 670 L398 692 C398 697 395 700 390 700 L103 700 C98 700 95 697 95 692 L95 8 Z " />
<glyph glyph-name="Igrave" unicode="&#xcc;" horiz-adv-x="230" d="M93 759 C95 754 98 751 103 751 L127 751 C131 751 134 754 134 759 L91 852 C89 857 86 860 81 860 L57 860 C53 860 50 857 50 852 L93 759 Z M135 692 C135 695 134 697 133 698 C132 699 131 700 127 700 L103 700 C99 700 98 699 97 698 C96 697 95 695 95 692 L95 8 C95 5 96 3 97 2 C98 1 99 0 103 0 L127 0 C131 0 132 1 133 2 C134 3 135 5 135 8 L135 692 Z " />
<glyph glyph-name="Iacute" unicode="&#xcd;" horiz-adv-x="230" d="M178 852 C178 857 175 860 171 860 L147 860 C142 860 139 857 137 852 L94 759 C94 754 97 751 101 751 L125 751 C130 751 133 754 135 759 L178 852 Z M135 692 C135 695 134 697 133 698 C132 699 131 700 127 700 L103 700 C99 700 98 699 97 698 C96 697 95 695 95 692 L95 8 C95 5 96 3 97 2 C98 1 99 0 103 0 L127 0 C131 0 132 1 133 2 C134 3 135 5 135 8 L135 692 Z " />
<glyph glyph-name="Icircumflex" unicode="&#xce;" horiz-adv-x="230" d="M103 878 C99 878 95 876 92 871 L23 758 C23 754 25 751 30 751 L56 751 C59 751 63 754 65 758 L115 846 L165 758 C167 754 171 751 174 751 L200 751 C205 751 207 754 207 758 L138 871 C135 876 131 878 127 878 L103 878 Z M135 692 C135 695 134 697 133 698 C132 699 131 700 127 700 L103 700 C99 700 98 699 97 698 C96 697 95 695 95 692 L95 8 C95 5 96 3 97 2 C98 1 99 0 103 0 L127 0 C131 0 132 1 133 2 C134 3 135 5 135 8 L135 692 Z " />
<glyph glyph-name="Idieresis" unicode="&#xcf;" horiz-adv-x="230" d="M95 795 C95 800 92 803 87 803 L54 803 C49 803 46 800 46 795 L46 759 C46 754 49 751 54 751 L87 751 C92 751 95 754 95 759 L95 795 Z M184 795 C184 800 181 803 176 803 L143 803 C138 803 135 800 135 795 L135 759 C135 754 138 751 143 751 L176 751 C181 751 184 754 184 759 L184 795 Z M135 692 C135 695 134 697 133 698 C132 699 131 700 127 700 L103 700 C99 700 98 699 97 698 C96 697 95 695 95 692 L95 8 C95 5 96 3 97 2 C98 1 99 0 103 0 L127 0 C131 0 132 1 133 2 C134 3 135 5 135 8 L135 692 Z " />
<glyph glyph-name="Eth" unicode="&#xd0;" horiz-adv-x="594" d="M130 700 C125 700 122 697 122 692 L122 370 L43 370 C38 370 35 367 35 362 L35 340 C35 335 38 332 43 332 L122 332 L122 8 C122 3 125 0 130 0 L359 0 C441 0 509 65 509 143 L509 557 C509 635 441 700 359 700 L130 700 Z M252 332 C257 332 260 335 260 340 L260 362 C260 367 257 370 252 370 L162 370 L162 662 L346 662 C423 662 469 616 469 540 L469 160 C469 84 423 38 346 38 L162 38 L162 332 L252 332 Z " />
<glyph glyph-name="Ntilde" unicode="&#xd1;" horiz-adv-x="609" d="M440 8 C442 4 446 0 451 0 L506 0 C511 0 514 3 514 8 L514 692 C514 697 511 700 506 700 L482 700 C477 700 474 697 474 692 L474 46 L467 46 L169 692 C167 696 163 700 158 700 L103 700 C98 700 95 697 95 692 L95 8 C95 3 98 0 103 0 L127 0 C132 0 135 3 135 8 L135 658 L142 658 L440 8 Z M352 789 C305 789 314 821 253 821 C246 821 230 817 219 812 C216 811 215 808 215 805 L221 781 C222 778 225 777 227 777 C234 779 250 783 257 783 C303 783 294 751 356 751 C363 751 379 755 390 760 C393 761 394 764 394 767 L388 791 C387 794 384 795 382 795 C375 793 359 789 352 789 L352 789 Z " />
<glyph glyph-name="Ograve" unicode="&#xd2;" horiz-adv-x="556" d="M258 759 C260 754 263 751 268 751 L292 751 C296 751 299 754 299 759 L256 852 C254 857 251 860 246 860 L222 860 C218 860 215 857 215 852 L258 759 Z M224 705 C142 705 85 640 85 562 L85 138 C85 60 142 -5 224 -5 L332 -5 C414 -5 471 60 471 138 L471 562 C471 640 414 705 332 705 L224 705 Z M318 667 C394 667 431 622 431 547 L431 154 C431 79 394 33 318 33 L238 33 C162 33 125 79 125 154 L125 547 C125 622 162 667 238 667 L318 667 Z " />
<glyph glyph-name="Oacute" unicode="&#xd3;" horiz-adv-x="556" d="M349 852 C349 857 346 860 342 860 L318 860 C313 860 310 857 308 852 L265 759 C265 754 268 751 272 751 L296 751 C301 751 304 754 306 759 L349 852 Z M224 705 C142 705 85 640 85 562 L85 138 C85 60 142 -5 224 -5 L332 -5 C414 -5 471 60 471 138 L471 562 C471 640 414 705 332 705 L224 705 Z M318 667 C394 667 431 622 431 547 L431 154 C431 79 394 33 318 33 L238 33 C162 33 125 79 125 154 L125 547 C125 622 162 667 238 667 L318 667 Z " />
<glyph glyph-name="Ocircumflex" unicode="&#xd4;" horiz-adv-x="556" d="M266 878 C262 878 258 876 255 871 L186 758 C186 754 188 751 193 751 L219 751 C222 751 226 754 228 758 L278 846 L328 758 C330 754 334 751 337 751 L363 751 C368 751 370 754 370 758 L301 871 C298 876 294 878 290 878 L266 878 Z M224 705 C142 705 85 640 85 562 L85 138 C85 60 142 -5 224 -5 L332 -5 C414 -5 471 60 471 138 L471 562 C471 640 414 705 332 705 L224 705 Z M318 667 C394 667 431 622 431 547 L431 154 C431 79 394 33 318 33 L238 33 C162 33 125 79 125 154 L125 547 C125 622 162 667 238 667 L318 667 Z " />
<glyph glyph-name="Otilde" unicode="&#xd5;" horiz-adv-x="556" d="M224 705 C142 705 85 640 85 562 L85 138 C85 60 142 -5 224 -5 L332 -5 C414 -5 471 60 471 138 L471 562 C471 640 414 705 332 705 L224 705 Z M318 667 C394 667 431 622 431 547 L431 154 C431 79 394 33 318 33 L238 33 C162 33 125 79 125 154 L125 547 C125 622 162 667 238 667 L318 667 Z M328 789 C281 789 290 821 229 821 C222 821 206 817 195 812 C192 811 191 808 191 805 L197 781 C198 778 201 777 203 777 C210 779 226 783 233 783 C279 783 270 751 332 751 C339 751 355 755 366 760 C369 761 370 764 370 767 L364 791 C363 794 360 795 358 795 C351 793 335 789 328 789 L328 789 Z " />
<glyph glyph-name="Odieresis" unicode="&#xd6;" horiz-adv-x="556" d="M240 795 C240 800 237 803 232 803 L199 803 C194 803 191 800 191 795 L191 759 C191 754 194 751 199 751 L232 751 C237 751 240 754 240 759 L240 795 Z M365 795 C365 800 362 803 357 803 L324 803 C319 803 316 800 316 795 L316 759 C316 754 319 751 324 751 L357 751 C362 751 365 754 365 759 L365 795 Z M224 705 C142 705 85 640 85 562 L85 138 C85 60 142 -5 224 -5 L332 -5 C414 -5 471 60 471 138 L471 562 C471 640 414 705 332 705 L224 705 Z M318 667 C394 667 431 622 431 547 L431 154 C431 79 394 33 318 33 L238 33 C162 33 125 79 125 154 L125 547 C125 622 162 667 238 667 L318 667 Z " />
<glyph glyph-name="multiply" unicode="&#xd7;" horiz-adv-x="396" d="M198 146 L272 71 C275 68 277 68 278 68 C280 68 282 69 284 71 L298 84 C300 86 301 88 301 90 C301 92 300 94 298 96 L223 171 L298 246 C300 248 301 250 301 252 C301 254 300 256 298 258 L284 271 C282 273 280 274 278 274 C277 274 275 274 272 271 L198 196 L124 271 C121 274 119 274 118 274 C116 274 114 273 112 271 L98 258 C96 256 95 254 95 252 C95 250 96 248 98 246 L173 171 L98 96 C96 94 95 92 95 90 C95 88 96 86 98 84 L112 71 C114 69 116 68 118 68 C119 68 121 68 124 71 L198 146 Z " />
<glyph glyph-name="Oslash" unicode="&#xd8;" horiz-adv-x="556" d="M115 -83 C115 -88 118 -91 123 -91 L149 -91 C154 -91 156 -88 158 -83 L184 0 C197 -3 210 -5 224 -5 L332 -5 C414 -5 471 60 471 138 L471 562 C471 614 445 660 404 685 L436 783 C436 788 433 791 428 791 L402 791 C397 791 395 788 393 783 L366 701 C355 703 344 705 332 705 L224 705 C142 705 85 640 85 562 L85 138 C85 88 108 43 147 17 L115 -83 Z M431 547 L431 154 C431 79 394 33 318 33 L238 33 C223 33 209 35 197 38 L392 645 C418 625 431 591 431 547 L431 547 Z M318 667 C331 667 343 665 354 663 L160 58 C136 79 125 112 125 154 L125 547 C125 622 162 667 238 667 L318 667 Z " />
<glyph glyph-name="Ugrave" unicode="&#xd9;" horiz-adv-x="566" d="M263 759 C265 754 268 751 273 751 L297 751 C301 751 304 754 304 759 L261 852 C259 857 256 860 251 860 L227 860 C223 860 220 857 220 852 L263 759 Z M436 154 C436 79 399 33 323 33 L243 33 C167 33 130 79 130 154 L130 692 C130 697 127 700 122 700 L98 700 C93 700 90 697 90 692 L90 138 C90 60 147 -5 229 -5 L337 -5 C419 -5 476 60 476 138 L476 692 C476 697 473 700 468 700 L444 700 C439 700 436 697 436 692 L436 154 Z " />
<glyph glyph-name="Uacute" unicode="&#xda;" horiz-adv-x="566" d="M354 852 C354 857 351 860 347 860 L323 860 C318 860 315 857 313 852 L270 759 C270 754 273 751 277 751 L301 751 C306 751 309 754 311 759 L354 852 Z M436 154 C436 79 399 33 323 33 L243 33 C167 33 130 79 130 154 L130 692 C130 697 127 700 122 700 L98 700 C93 700 90 697 90 692 L90 138 C90 60 147 -5 229 -5 L337 -5 C419 -5 476 60 476 138 L476 692 C476 697 473 700 468 700 L444 700 C439 700 436 697 436 692 L436 154 Z " />
<glyph glyph-name="Ucircumflex" unicode="&#xdb;" horiz-adv-x="566" d="M271 878 C267 878 263 876 260 871 L191 758 C191 754 193 751 198 751 L224 751 C227 751 231 754 233 758 L283 846 L333 758 C335 754 339 751 342 751 L368 751 C373 751 375 754 375 758 L306 871 C303 876 299 878 295 878 L271 878 Z M436 154 C436 79 399 33 323 33 L243 33 C167 33 130 79 130 154 L130 692 C130 697 127 700 122 700 L98 700 C93 700 90 697 90 692 L90 138 C90 60 147 -5 229 -5 L337 -5 C419 -5 476 60 476 138 L476 692 C476 697 473 700 468 700 L444 700 C439 700 436 697 436 692 L436 154 Z " />
<glyph glyph-name="Udieresis" unicode="&#xdc;" horiz-adv-x="566" d="M245 795 C245 800 242 803 237 803 L204 803 C199 803 196 800 196 795 L196 759 C196 754 199 751 204 751 L237 751 C242 751 245 754 245 759 L245 795 Z M370 795 C370 800 367 803 362 803 L329 803 C324 803 321 800 321 795 L321 759 C321 754 324 751 329 751 L362 751 C367 751 370 754 370 759 L370 795 Z M436 154 C436 79 399 33 323 33 L243 33 C167 33 130 79 130 154 L130 692 C130 697 127 700 122 700 L98 700 C93 700 90 697 90 692 L90 138 C90 60 147 -5 229 -5 L337 -5 C419 -5 476 60 476 138 L476 692 C476 697 473 700 468 700 L444 700 C439 700 436 697 436 692 L436 154 Z " />
<glyph glyph-name="Yacute" unicode="&#xdd;" horiz-adv-x="514" d="M320 852 C320 857 317 860 313 860 L289 860 C284 860 281 857 279 852 L236 759 C236 754 239 751 243 751 L267 751 C272 751 275 754 277 759 L320 852 Z M277 213 L469 692 C469 697 466 700 461 700 L436 700 C431 700 429 697 427 692 L261 273 L253 273 L87 692 C85 697 83 700 78 700 L53 700 C48 700 45 697 45 692 L237 213 L237 8 C237 3 240 0 245 0 L269 0 C274 0 277 3 277 8 L277 213 Z " />
<glyph glyph-name="Thorn" unicode="&#xde;" horiz-adv-x="548" d="M433 279 C433 211 390 157 312 157 L135 157 L135 544 L312 544 C390 544 433 490 433 422 L433 279 Z M135 582 L135 692 C135 697 132 700 127 700 L103 700 C98 700 95 697 95 692 L95 8 C95 3 98 0 103 0 L127 0 C132 0 135 3 135 8 L135 119 L322 119 C405 119 473 184 473 263 L473 439 C473 517 405 582 322 582 L135 582 Z " />
<glyph glyph-name="germandbls" unicode="&#xdf;" horiz-adv-x="537" d="M135 662 L276 662 C348 662 398 609 398 540 L398 492 C398 420 339 369 276 369 L215 369 C210 369 207 366 207 361 L207 339 C207 334 210 331 215 331 L311 331 C374 331 432 275 432 208 L432 160 C432 87 374 38 311 38 L236 38 C231 38 228 35 228 30 L228 8 C228 3 231 0 236 0 L320 0 C403 0 472 65 472 143 L472 217 C472 261 435 332 363 359 C415 383 438 454 438 483 L438 557 C438 635 370 700 288 700 L103 700 C98 700 95 697 95 692 L95 8 C95 3 98 0 103 0 L127 0 C132 0 135 3 135 8 L135 662 Z " />
<glyph glyph-name="agrave" unicode="&#xe0;" horiz-adv-x="470" d="M224 579 C226 574 229 571 234 571 L258 571 C262 571 265 574 265 579 L222 672 C220 677 217 680 212 680 L188 680 C184 680 181 677 181 672 L224 579 Z M203 33 C145 33 115 71 115 128 L115 161 C115 220 145 258 203 258 L349 258 L349 130 C349 73 294 33 237 33 L203 33 Z M133 467 C180 478 200 482 227 482 C349 482 349 387 349 339 L349 296 L200 296 C123 296 75 246 75 162 L75 118 C75 36 123 -5 200 -5 L232 -5 C270 -5 321 14 343 42 L350 42 L350 8 C350 3 353 0 358 0 L382 0 C387 0 390 3 390 8 L390 345 C390 389 385 520 239 520 C175 520 153 512 124 505 C121 504 120 502 120 498 C120 498 119 498 126 471 C127 469 128 467 133 467 L133 467 Z " />
<glyph glyph-name="aacute" unicode="&#xe1;" horiz-adv-x="470" d="M314 672 C314 677 311 680 307 680 L283 680 C278 680 275 677 273 672 L230 579 C230 574 233 571 237 571 L261 571 C266 571 269 574 271 579 L314 672 Z M203 33 C145 33 115 71 115 128 L115 161 C115 220 145 258 203 258 L349 258 L349 130 C349 73 294 33 237 33 L203 33 Z M133 467 C180 478 200 482 227 482 C349 482 349 387 349 339 L349 296 L200 296 C123 296 75 246 75 162 L75 118 C75 36 123 -5 200 -5 L232 -5 C270 -5 321 14 343 42 L350 42 L350 8 C350 3 353 0 358 0 L382 0 C387 0 390 3 390 8 L390 345 C390 389 385 520 239 520 C175 520 153 512 124 505 C121 504 120 502 120 498 C120 498 119 498 126 471 C127 469 128 467 133 467 L133 467 Z " />
<glyph glyph-name="acircumflex" unicode="&#xe2;" horiz-adv-x="470" d="M240 698 C236 698 232 696 229 691 L160 578 C160 574 162 571 167 571 L193 571 C196 571 200 574 202 578 L252 666 L302 578 C304 574 308 571 311 571 L337 571 C342 571 344 574 344 578 L275 691 C272 696 268 698 264 698 L240 698 Z M203 33 C145 33 115 71 115 128 L115 161 C115 220 145 258 203 258 L349 258 L349 130 C349 73 294 33 237 33 L203 33 Z M133 467 C180 478 200 482 227 482 C349 482 349 387 349 339 L349 296 L200 296 C123 296 75 246 75 162 L75 118 C75 36 123 -5 200 -5 L232 -5 C270 -5 321 14 343 42 L350 42 L350 8 C350 3 353 0 358 0 L382 0 C387 0 390 3 390 8 L390 345 C390 389 385 520 239 520 C175 520 153 512 124 505 C121 504 120 502 120 498 C120 498 119 498 126 471 C127 469 128 467 133 467 L133 467 Z " />
<glyph glyph-name="atilde" unicode="&#xe3;" horiz-adv-x="470" d="M203 33 C145 33 115 71 115 128 L115 161 C115 220 145 258 203 258 L349 258 L349 130 C349 73 294 33 237 33 L203 33 Z M133 467 C180 478 200 482 227 482 C349 482 349 387 349 339 L349 296 L200 296 C123 296 75 246 75 162 L75 118 C75 36 123 -5 200 -5 L232 -5 C270 -5 321 14 343 42 L350 42 L350 8 C350 3 353 0 358 0 L382 0 C387 0 390 3 390 8 L390 345 C390 389 385 520 239 520 C175 520 153 512 124 505 C121 504 120 502 120 498 C120 498 119 498 126 471 C127 469 128 467 133 467 L133 467 Z M295 609 C248 609 257 641 196 641 C189 641 173 637 162 632 C159 631 158 628 158 625 L164 601 C165 598 168 597 170 597 C177 599 193 603 200 603 C246 603 237 571 299 571 C306 571 322 575 333 580 C336 581 337 584 337 587 L331 611 C330 614 327 615 325 615 C318 613 302 609 295 609 L295 609 Z " />
<glyph glyph-name="adieresis" unicode="&#xe4;" horiz-adv-x="470" d="M219 615 C219 620 216 623 211 623 L178 623 C173 623 170 620 170 615 L170 579 C170 574 173 571 178 571 L211 571 C216 571 219 574 219 579 L219 615 Z M344 615 C344 620 341 623 336 623 L303 623 C298 623 295 620 295 615 L295 579 C295 574 298 571 303 571 L336 571 C341 571 344 574 344 579 L344 615 Z M203 33 C145 33 115 71 115 128 L115 161 C115 220 145 258 203 258 L349 258 L349 130 C349 73 294 33 237 33 L203 33 Z M133 467 C180 478 200 482 227 482 C349 482 349 387 349 339 L349 296 L200 296 C123 296 75 246 75 162 L75 118 C75 36 123 -5 200 -5 L232 -5 C270 -5 321 14 343 42 L350 42 L350 8 C350 3 353 0 358 0 L382 0 C387 0 390 3 390 8 L390 345 C390 389 385 520 239 520 C175 520 153 512 124 505 C121 504 120 502 120 498 C120 498 119 498 126 471 C127 469 128 467 133 467 L133 467 Z " />
<glyph glyph-name="aring" unicode="&#xe5;" horiz-adv-x="470" d="M366 681 C366 742 317 791 256 791 C195 791 146 742 146 681 C146 619 195 571 256 571 C317 571 366 619 366 681 L366 681 Z M332 681 C332 637 299 605 256 605 C214 605 181 637 181 681 C181 725 214 756 256 756 C299 756 332 725 332 681 L332 681 Z M203 33 C145 33 115 71 115 128 L115 161 C115 220 145 258 203 258 L349 258 L349 130 C349 73 294 33 237 33 L203 33 Z M133 467 C180 478 200 482 227 482 C349 482 349 387 349 339 L349 296 L200 296 C123 296 75 246 75 162 L75 118 C75 36 123 -5 200 -5 L232 -5 C270 -5 321 14 343 42 L350 42 L350 8 C350 3 353 0 358 0 L382 0 C387 0 390 3 390 8 L390 345 C390 389 385 520 239 520 C175 520 153 512 124 505 C121 504 120 502 120 498 C120 498 119 498 126 471 C127 469 128 467 133 467 L133 467 Z " />
<glyph glyph-name="ae" unicode="&#xe6;" horiz-adv-x="740" d="M633 32 C635 34 635 35 635 36 C635 39 634 40 632 42 L617 59 C615 61 614 61 613 61 C610 61 608 59 606 58 C579 44 568 33 532 33 L488 33 C424 33 393 74 390 127 L390 238 L657 238 C662 238 665 241 665 246 L665 389 C665 453 625 520 547 520 L468 520 C418 520 384 492 365 456 C345 491 307 520 239 520 C175 520 153 512 124 505 C121 504 120 502 120 498 C120 498 119 498 126 471 C127 469 128 467 133 467 C180 478 200 482 227 482 C349 482 349 387 349 339 L349 296 L200 296 C123 296 75 246 75 162 L75 118 C75 36 123 -5 200 -5 L232 -5 C270 -5 330 16 361 55 L367 55 C386 20 420 -5 468 -5 L532 -5 C532 -5 588 -5 633 32 L633 32 Z M203 33 C145 33 115 71 115 128 L115 161 C115 220 145 258 203 258 L349 258 L349 130 C349 73 294 33 237 33 L203 33 Z M390 379 C390 436 421 482 488 482 L527 482 C594 482 625 436 625 379 L625 276 L390 276 L390 379 Z " />
<glyph glyph-name="ccedilla" unicode="&#xe7;" horiz-adv-x="455" d="M196 -63 C194 -67 194 -73 194 -73 L194 -92 C194 -96 197 -99 201 -99 L244 -99 C259 -99 285 -103 285 -133 C285 -161 262 -165 250 -165 L197 -165 C193 -165 190 -167 190 -172 L190 -188 C190 -192 193 -195 197 -195 L253 -195 C293 -195 313 -179 313 -127 C313 -88 284 -69 239 -69 L227 -69 L258 -5 L277 -5 C355 -5 395 62 395 126 L395 147 C395 152 392 155 387 155 L363 155 C358 155 355 152 355 147 L355 136 C355 79 324 33 257 33 L218 33 C151 33 120 79 120 136 L120 379 C120 436 151 482 218 482 L257 482 C324 482 355 436 355 379 L355 368 C355 363 358 360 363 360 L387 360 C392 360 395 363 395 368 L395 389 C395 453 355 520 277 520 L198 520 C120 520 80 453 80 389 L80 126 C80 62 120 -5 198 -5 L225 -5 L196 -63 Z " />
<glyph glyph-name="egrave" unicode="&#xe8;" horiz-adv-x="470" d="M214 579 C216 574 219 571 224 571 L248 571 C252 571 255 574 255 579 L212 672 C210 677 207 680 202 680 L178 680 C174 680 171 677 171 672 L214 579 Z M120 379 C120 436 151 482 218 482 L257 482 C324 482 355 436 355 379 L355 276 L120 276 L120 379 Z M363 32 C365 34 365 35 365 36 C365 39 364 40 362 42 L347 59 C345 61 344 61 343 61 C340 61 338 59 336 58 C309 44 298 33 262 33 L218 33 C151 33 120 79 120 136 L120 238 L387 238 C392 238 395 241 395 246 L395 389 C395 453 355 520 277 520 L198 520 C120 520 80 453 80 389 L80 126 C80 62 120 -5 198 -5 L262 -5 C262 -5 318 -5 363 32 L363 32 Z " />
<glyph glyph-name="eacute" unicode="&#xe9;" horiz-adv-x="470" d="M303 672 C303 677 300 680 296 680 L272 680 C267 680 264 677 262 672 L219 579 C219 574 222 571 226 571 L250 571 C255 571 258 574 260 579 L303 672 Z M120 379 C120 436 151 482 218 482 L257 482 C324 482 355 436 355 379 L355 276 L120 276 L120 379 Z M363 32 C365 34 365 35 365 36 C365 39 364 40 362 42 L347 59 C345 61 344 61 343 61 C340 61 338 59 336 58 C309 44 298 33 262 33 L218 33 C151 33 120 79 120 136 L120 238 L387 238 C392 238 395 241 395 246 L395 389 C395 453 355 520 277 520 L198 520 C120 520 80 453 80 389 L80 126 C80 62 120 -5 198 -5 L262 -5 C262 -5 318 -5 363 32 L363 32 Z " />
<glyph glyph-name="ecircumflex" unicode="&#xea;" horiz-adv-x="470" d="M228 698 C224 698 220 696 217 691 L148 578 C148 574 150 571 155 571 L181 571 C184 571 188 574 190 578 L240 666 L290 578 C292 574 296 571 299 571 L325 571 C330 571 332 574 332 578 L263 691 C260 696 256 698 252 698 L228 698 Z M120 379 C120 436 151 482 218 482 L257 482 C324 482 355 436 355 379 L355 276 L120 276 L120 379 Z M363 32 C365 34 365 35 365 36 C365 39 364 40 362 42 L347 59 C345 61 344 61 343 61 C340 61 338 59 336 58 C309 44 298 33 262 33 L218 33 C151 33 120 79 120 136 L120 238 L387 238 C392 238 395 241 395 246 L395 389 C395 453 355 520 277 520 L198 520 C120 520 80 453 80 389 L80 126 C80 62 120 -5 198 -5 L262 -5 C262 -5 318 -5 363 32 L363 32 Z " />
<glyph glyph-name="edieresis" unicode="&#xeb;" horiz-adv-x="470" d="M200 615 C200 620 197 623 192 623 L159 623 C154 623 151 620 151 615 L151 579 C151 574 154 571 159 571 L192 571 C197 571 200 574 200 579 L200 615 Z M325 615 C325 620 322 623 317 623 L284 623 C279 623 276 620 276 615 L276 579 C276 574 279 571 284 571 L317 571 C322 571 325 574 325 579 L325 615 Z M120 379 C120 436 151 482 218 482 L257 482 C324 482 355 436 355 379 L355 276 L120 276 L120 379 Z M363 32 C365 34 365 35 365 36 C365 39 364 40 362 42 L347 59 C345 61 344 61 343 61 C340 61 338 59 336 58 C309 44 298 33 262 33 L218 33 C151 33 120 79 120 136 L120 238 L387 238 C392 238 395 241 395 246 L395 389 C395 453 355 520 277 520 L198 520 C120 520 80 453 80 389 L80 126 C80 62 120 -5 198 -5 L262 -5 C262 -5 318 -5 363 32 L363 32 Z " />
<glyph glyph-name="igrave" unicode="&#xec;" horiz-adv-x="230" d="M135 507 C135 512 132 515 127 515 L103 515 C98 515 95 512 95 507 L95 8 C95 3 98 0 103 0 L127 0 C132 0 135 3 135 8 L135 507 Z M93 579 C95 574 98 571 103 571 L127 571 C131 571 134 574 134 579 L91 672 C89 677 86 680 81 680 L57 680 C53 680 50 677 50 672 L93 579 Z " />
<glyph glyph-name="iacute" unicode="&#xed;" horiz-adv-x="230" d="M135 507 C135 512 132 515 127 515 L103 515 C98 515 95 512 95 507 L95 8 C95 3 98 0 103 0 L127 0 C132 0 135 3 135 8 L135 507 Z M178 672 C178 677 175 680 171 680 L147 680 C142 680 139 677 137 672 L94 579 C94 574 97 571 101 571 L125 571 C130 571 133 574 135 579 L178 672 Z " />
<glyph glyph-name="icircumflex" unicode="&#xee;" horiz-adv-x="230" d="M135 507 C135 512 132 515 127 515 L103 515 C98 515 95 512 95 507 L95 8 C95 3 98 0 103 0 L127 0 C132 0 135 3 135 8 L135 507 Z M103 695 C99 695 95 693 92 688 L23 575 C23 571 25 568 30 568 L56 568 C59 568 63 571 65 575 L115 663 L165 575 C167 571 171 568 174 568 L200 568 C205 568 207 571 207 575 L138 688 C135 693 131 695 127 695 L103 695 Z " />
<glyph glyph-name="idieresis" unicode="&#xef;" horiz-adv-x="230" d="M135 507 C135 512 132 515 127 515 L103 515 C98 515 95 512 95 507 L95 8 C95 3 98 0 103 0 L127 0 C132 0 135 3 135 8 L135 507 Z M95 615 C95 620 92 623 87 623 L54 623 C49 623 46 620 46 615 L46 579 C46 574 49 571 54 571 L87 571 C92 571 95 574 95 579 L95 615 Z M184 615 C184 620 181 623 176 623 L143 623 C138 623 135 620 135 615 L135 579 C135 574 138 571 143 571 L176 571 C181 571 184 574 184 579 L184 615 Z " />
<glyph glyph-name="eth" unicode="&#xf0;" horiz-adv-x="548" d="M324 406 L245 406 C234 406 186 405 138 371 L124 371 L267 587 L385 587 C390 587 393 590 393 595 L393 617 C393 622 390 625 385 625 L291 625 L336 692 C336 697 333 700 328 700 L301 700 C296 700 291 697 289 692 L244 625 L124 625 C119 625 116 622 116 617 L116 595 C116 590 119 587 124 587 L219 587 L89 390 C86 384 85 374 85 370 L85 137 C85 59 154 -5 238 -5 L320 -5 C404 -5 473 59 473 137 L473 265 C473 342 406 406 324 406 L324 406 Z M433 153 C433 78 386 33 310 33 L248 33 C172 33 125 78 125 153 L125 247 C125 322 172 368 248 368 L310 368 C387 368 433 322 433 247 L433 153 Z " />
<glyph glyph-name="ntilde" unicode="&#xf1;" horiz-adv-x="507" d="M135 507 C135 512 132 515 127 515 L103 515 C98 515 95 512 95 507 L95 8 C95 3 98 0 103 0 L127 0 C132 0 135 3 135 8 L135 372 C190 482 247 482 286 482 L294 482 C352 482 382 437 382 360 L382 8 C382 3 385 0 390 0 L414 0 C419 0 422 3 422 8 L422 372 C422 460 386 520 295 520 L266 520 C246 520 188 520 140 442 L135 442 L135 507 Z M302 609 C255 609 264 641 203 641 C196 641 180 637 169 632 C166 631 165 628 165 625 L171 601 C172 598 175 597 177 597 C184 599 200 603 207 603 C253 603 244 571 306 571 C313 571 329 575 340 580 C343 581 344 584 344 587 L338 611 C337 614 334 615 332 615 C325 613 309 609 302 609 L302 609 Z " />
<glyph glyph-name="ograve" unicode="&#xf2;" horiz-adv-x="475" d="M214 579 C216 574 219 571 224 571 L248 571 C252 571 255 574 255 579 L212 672 C210 677 207 680 202 680 L178 680 C174 680 171 677 171 672 L214 579 Z M218 33 C151 33 120 79 120 136 L120 379 C120 436 151 482 218 482 L257 482 C324 482 355 436 355 379 L355 136 C355 79 324 33 257 33 L218 33 Z M277 -5 C355 -5 395 62 395 126 L395 389 C395 453 355 520 277 520 L198 520 C120 520 80 453 80 389 L80 126 C80 62 120 -5 198 -5 L277 -5 Z " />
<glyph glyph-name="oacute" unicode="&#xf3;" horiz-adv-x="475" d="M301 672 C301 677 298 680 294 680 L270 680 C265 680 262 677 260 672 L217 579 C217 574 220 571 224 571 L248 571 C253 571 256 574 258 579 L301 672 Z M218 33 C151 33 120 79 120 136 L120 379 C120 436 151 482 218 482 L257 482 C324 482 355 436 355 379 L355 136 C355 79 324 33 257 33 L218 33 Z M277 -5 C355 -5 395 62 395 126 L395 389 C395 453 355 520 277 520 L198 520 C120 520 80 453 80 389 L80 126 C80 62 120 -5 198 -5 L277 -5 Z " />
<glyph glyph-name="ocircumflex" unicode="&#xf4;" horiz-adv-x="475" d="M225 698 C221 698 217 696 214 691 L145 578 C145 574 147 571 152 571 L178 571 C181 571 185 574 187 578 L237 666 L287 578 C289 574 293 571 296 571 L322 571 C327 571 329 574 329 578 L260 691 C257 696 253 698 249 698 L225 698 Z M218 33 C151 33 120 79 120 136 L120 379 C120 436 151 482 218 482 L257 482 C324 482 355 436 355 379 L355 136 C355 79 324 33 257 33 L218 33 Z M277 -5 C355 -5 395 62 395 126 L395 389 C395 453 355 520 277 520 L198 520 C120 520 80 453 80 389 L80 126 C80 62 120 -5 198 -5 L277 -5 Z " />
<glyph glyph-name="otilde" unicode="&#xf5;" horiz-adv-x="475" d="M218 33 C151 33 120 79 120 136 L120 379 C120 436 151 482 218 482 L257 482 C324 482 355 436 355 379 L355 136 C355 79 324 33 257 33 L218 33 Z M277 -5 C355 -5 395 62 395 126 L395 389 C395 453 355 520 277 520 L198 520 C120 520 80 453 80 389 L80 126 C80 62 120 -5 198 -5 L277 -5 Z M276 609 C229 609 238 641 177 641 C170 641 154 637 143 632 C140 631 139 628 139 625 L145 601 C146 598 149 597 151 597 C158 599 174 603 181 603 C227 603 218 571 280 571 C287 571 303 575 314 580 C317 581 318 584 318 587 L312 611 C311 614 308 615 306 615 C299 613 283 609 276 609 L276 609 Z " />
<glyph glyph-name="odieresis" unicode="&#xf6;" horiz-adv-x="475" d="M199 615 C199 620 196 623 191 623 L158 623 C153 623 150 620 150 615 L150 579 C150 574 153 571 158 571 L191 571 C196 571 199 574 199 579 L199 615 Z M324 615 C324 620 321 623 316 623 L283 623 C278 623 275 620 275 615 L275 579 C275 574 278 571 283 571 L316 571 C321 571 324 574 324 579 L324 615 Z M218 33 C151 33 120 79 120 136 L120 379 C120 436 151 482 218 482 L257 482 C324 482 355 436 355 379 L355 136 C355 79 324 33 257 33 L218 33 Z M277 -5 C355 -5 395 62 395 126 L395 389 C395 453 355 520 277 520 L198 520 C120 520 80 453 80 389 L80 126 C80 62 120 -5 198 -5 L277 -5 Z " />
<glyph glyph-name="divide" unicode="&#xf7;" horiz-adv-x="428" d="M325 148 C330 148 333 151 333 156 L333 178 C333 183 330 186 325 186 L103 186 C98 186 95 183 95 178 L95 156 C95 151 98 148 103 148 L325 148 Z M237 42 C237 47 234 50 229 50 L199 50 C194 50 191 47 191 42 L191 10 C191 5 194 2 199 2 L229 2 C234 2 237 5 237 10 L237 42 Z M237 323 C237 328 234 331 229 331 L199 331 C194 331 191 328 191 323 L191 291 C191 286 194 283 199 283 L229 283 C234 283 237 286 237 291 L237 323 Z " />
<glyph glyph-name="oslash" unicode="&#xf8;" horiz-adv-x="475" d="M106 -83 C106 -88 109 -91 114 -91 L140 -91 C145 -91 147 -88 149 -83 L174 -3 C182 -4 190 -5 198 -5 L277 -5 C355 -5 395 62 395 126 L395 389 C395 434 375 480 337 504 L367 598 C367 603 364 606 359 606 L333 606 C328 606 326 603 324 598 L298 518 C291 519 284 520 277 520 L198 520 C120 520 80 453 80 389 L80 126 C80 82 99 36 136 12 L106 -83 Z M218 33 C206 33 196 34 187 36 L323 460 C345 441 355 412 355 379 L355 136 C355 79 324 33 257 33 L218 33 Z M120 136 L120 379 C120 436 151 482 218 482 L257 482 C267 482 277 480 286 478 L150 56 C130 75 120 104 120 136 L120 136 Z " />
<glyph glyph-name="ugrave" unicode="&#xf9;" horiz-adv-x="485" d="M219 579 C221 574 224 571 229 571 L253 571 C257 571 260 574 260 579 L217 672 C215 677 212 680 207 680 L183 680 C179 680 176 677 176 672 L219 579 Z M400 507 C400 512 397 515 392 515 L368 515 C363 515 360 512 360 507 L360 136 C360 79 329 33 262 33 L223 33 C156 33 125 79 125 136 L125 507 C125 512 122 515 117 515 L93 515 C88 515 85 512 85 507 L85 126 C85 62 125 -5 203 -5 L282 -5 C360 -5 400 62 400 126 L400 507 Z " />
<glyph glyph-name="uacute" unicode="&#xfa;" horiz-adv-x="485" d="M306 672 C306 677 303 680 299 680 L275 680 C270 680 267 677 265 672 L222 579 C222 574 225 571 229 571 L253 571 C258 571 261 574 263 579 L306 672 Z M400 507 C400 512 397 515 392 515 L368 515 C363 515 360 512 360 507 L360 136 C360 79 329 33 262 33 L223 33 C156 33 125 79 125 136 L125 507 C125 512 122 515 117 515 L93 515 C88 515 85 512 85 507 L85 126 C85 62 125 -5 203 -5 L282 -5 C360 -5 400 62 400 126 L400 507 Z " />
<glyph glyph-name="ucircumflex" unicode="&#xfb;" horiz-adv-x="485" d="M230 698 C226 698 222 696 219 691 L150 578 C150 574 152 571 157 571 L183 571 C186 571 190 574 192 578 L242 666 L292 578 C294 574 298 571 301 571 L327 571 C332 571 334 574 334 578 L265 691 C262 696 258 698 254 698 L230 698 Z M400 507 C400 512 397 515 392 515 L368 515 C363 515 360 512 360 507 L360 136 C360 79 329 33 262 33 L223 33 C156 33 125 79 125 136 L125 507 C125 512 122 515 117 515 L93 515 C88 515 85 512 85 507 L85 126 C85 62 125 -5 203 -5 L282 -5 C360 -5 400 62 400 126 L400 507 Z " />
<glyph glyph-name="udieresis" unicode="&#xfc;" horiz-adv-x="485" d="M204 615 C204 620 201 623 196 623 L163 623 C158 623 155 620 155 615 L155 579 C155 574 158 571 163 571 L196 571 C201 571 204 574 204 579 L204 615 Z M329 615 C329 620 326 623 321 623 L288 623 C283 623 280 620 280 615 L280 579 C280 574 283 571 288 571 L321 571 C326 571 329 574 329 579 L329 615 Z M400 507 C400 512 397 515 392 515 L368 515 C363 515 360 512 360 507 L360 136 C360 79 329 33 262 33 L223 33 C156 33 125 79 125 136 L125 507 C125 512 122 515 117 515 L93 515 C88 515 85 512 85 507 L85 126 C85 62 125 -5 203 -5 L282 -5 C360 -5 400 62 400 126 L400 507 Z " />
<glyph glyph-name="yacute" unicode="&#xfd;" horiz-adv-x="451" d="M312 672 C312 677 309 680 305 680 L281 680 C276 680 273 677 271 672 L228 579 C228 574 231 571 235 571 L259 571 C264 571 267 574 269 579 L312 672 Z M411 507 C411 512 408 515 403 515 L378 515 C373 515 371 512 369 507 L233 53 L225 53 L89 507 C87 512 85 515 80 515 L55 515 C50 515 47 512 47 507 L205 -15 C197 -79 153 -165 73 -165 L48 -165 C43 -165 40 -168 40 -173 L40 -195 C40 -200 43 -203 48 -203 L76 -203 C135 -203 201 -186 249 -27 L411 507 Z " />
<glyph glyph-name="thorn" unicode="&#xfe;" horiz-adv-x="502" d="M244 33 C179 33 135 89 135 146 L135 369 C135 426 179 482 244 482 L284 482 C351 482 382 436 382 379 L382 136 C382 79 351 33 284 33 L244 33 Z M135 50 L140 50 C167 5 205 -5 232 -5 L296 -5 C374 -5 422 52 422 128 L422 387 C422 463 374 520 296 520 L232 520 C205 520 167 510 140 465 L135 465 L135 692 C135 697 132 700 127 700 L103 700 C98 700 95 697 95 692 L95 -166 C95 -171 98 -174 103 -174 L127 -174 C132 -174 135 -171 135 -166 L135 50 Z " />
<glyph glyph-name="ydieresis" unicode="&#xff;" horiz-adv-x="451" d="M191 615 C191 620 188 623 183 623 L150 623 C145 623 142 620 142 615 L142 579 C142 574 145 571 150 571 L183 571 C188 571 191 574 191 579 L191 615 Z M316 615 C316 620 313 623 308 623 L275 623 C270 623 267 620 267 615 L267 579 C267 574 270 571 275 571 L308 571 C313 571 316 574 316 579 L316 615 Z M411 507 C411 512 408 515 403 515 L378 515 C373 515 371 512 369 507 L233 53 L225 53 L89 507 C87 512 85 515 80 515 L55 515 C50 515 47 512 47 507 L205 -15 C197 -79 153 -165 73 -165 L48 -165 C43 -165 40 -168 40 -173 L40 -195 C40 -200 43 -203 48 -203 L76 -203 C135 -203 201 -186 249 -27 L411 507 Z " />
<glyph glyph-name="Amacron" unicode="&#x100;" horiz-adv-x="558" d="M352 751 C357 751 360 754 360 759 L360 781 C360 786 357 789 352 789 L207 789 C202 789 199 786 199 781 L199 759 C199 754 202 751 207 751 L352 751 Z M259 700 C253 700 250 697 248 692 L50 8 C50 3 53 0 58 0 L83 0 C88 0 90 3 92 8 L132 148 L426 148 L466 8 C468 3 470 0 475 0 L500 0 C505 0 508 3 508 8 L310 692 C308 697 305 700 299 700 L259 700 Z M275 645 L283 645 L415 186 L143 186 L275 645 Z " />
<glyph glyph-name="amacron" unicode="&#x101;" horiz-adv-x="470" d="M331 571 C336 571 339 574 339 579 L339 601 C339 606 336 609 331 609 L186 609 C181 609 178 606 178 601 L178 579 C178 574 181 571 186 571 L331 571 Z M203 33 C145 33 115 71 115 128 L115 161 C115 220 145 258 203 258 L349 258 L349 130 C349 73 294 33 237 33 L203 33 Z M133 467 C180 478 200 482 227 482 C349 482 349 387 349 339 L349 296 L200 296 C123 296 75 246 75 162 L75 118 C75 36 123 -5 200 -5 L232 -5 C270 -5 321 14 343 42 L350 42 L350 8 C350 3 353 0 358 0 L382 0 C387 0 390 3 390 8 L390 345 C390 389 385 520 239 520 C175 520 153 512 124 505 C121 504 120 502 120 498 C120 498 119 498 126 471 C127 469 128 467 133 467 L133 467 Z " />
<glyph glyph-name="Abreve" unicode="&#x102;" horiz-adv-x="558" d="M259 700 C253 700 250 697 248 692 L50 8 C50 3 53 0 58 0 L83 0 C88 0 90 3 92 8 L132 148 L426 148 L466 8 C468 3 470 0 475 0 L500 0 C505 0 508 3 508 8 L310 692 C308 697 305 700 299 700 L259 700 Z M275 645 L283 645 L415 186 L143 186 L275 645 Z M279 751 C346 751 369 785 389 849 C389 854 386 857 381 857 L359 857 C354 857 351 854 349 849 C328 796 307 787 279 787 C251 787 230 796 209 849 C207 854 204 857 199 857 L177 857 C172 857 169 854 169 849 C189 785 212 751 279 751 L279 751 Z " />
<glyph glyph-name="abreve" unicode="&#x103;" horiz-adv-x="470" d="M203 33 C145 33 115 71 115 128 L115 161 C115 220 145 258 203 258 L349 258 L349 130 C349 73 294 33 237 33 L203 33 Z M133 467 C180 478 200 482 227 482 C349 482 349 387 349 339 L349 296 L200 296 C123 296 75 246 75 162 L75 118 C75 36 123 -5 200 -5 L232 -5 C270 -5 321 14 343 42 L350 42 L350 8 C350 3 353 0 358 0 L382 0 C387 0 390 3 390 8 L390 345 C390 389 385 520 239 520 C175 520 153 512 124 505 C121 504 120 502 120 498 C120 498 119 498 126 471 C127 469 128 467 133 467 L133 467 Z M242 571 C309 571 332 605 352 669 C352 674 349 677 344 677 L322 677 C317 677 314 674 312 669 C291 616 270 607 242 607 C214 607 193 616 172 669 C170 674 167 677 162 677 L140 677 C135 677 132 674 132 669 C152 605 175 571 242 571 L242 571 Z " />
<glyph glyph-name="Aogonek" unicode="&#x104;" horiz-adv-x="558" d="M275 645 L283 645 L415 186 L143 186 L275 645 Z M459 30 L447 30 C402 30 373 7 373 -32 C373 -84 393 -96 433 -96 L489 -96 C493 -96 496 -93 496 -89 L496 -73 C496 -68 493 -66 489 -66 L436 -66 C424 -66 401 -62 401 -34 C401 -4 427 0 442 0 L500 0 C505 0 508 3 508 8 L310 692 C308 697 305 700 299 700 L259 700 C253 700 250 697 248 692 L50 8 C50 3 53 0 58 0 L83 0 C88 0 90 3 92 8 L132 148 L426 148 L459 30 Z " />
<glyph glyph-name="aogonek" unicode="&#x105;" horiz-adv-x="470" d="M203 33 C145 33 115 71 115 128 L115 161 C115 220 145 258 203 258 L349 258 L349 130 C349 73 294 33 237 33 L203 33 Z M390 345 C390 389 385 520 239 520 C175 520 153 512 124 505 C121 504 120 502 120 498 C120 498 119 498 126 471 C127 469 128 467 133 467 C180 478 200 482 227 482 C349 482 349 387 349 339 L349 296 L200 296 C123 296 75 246 75 162 L75 118 C75 36 123 -5 200 -5 L232 -5 C270 -5 321 14 343 42 L350 42 L350 -18 L345 -18 C300 -18 271 -37 271 -76 C271 -128 291 -144 331 -144 L378 -144 C382 -144 385 -141 385 -137 L385 -121 C385 -116 382 -114 378 -114 L334 -114 C322 -114 299 -110 299 -82 C299 -52 325 -48 340 -48 L383 -48 C387 -48 390 -45 390 -41 L390 345 Z " />
<glyph glyph-name="Cacute" unicode="&#x106;" horiz-adv-x="541" d="M346 852 C346 857 343 860 339 860 L315 860 C310 860 307 857 305 852 L262 759 C262 754 265 751 269 751 L293 751 C298 751 301 754 303 759 L346 852 Z M332 -5 C414 -5 471 60 471 138 L471 187 C471 192 468 195 463 195 L439 195 C434 195 431 192 431 187 L431 153 C431 78 394 33 318 33 L238 33 C162 33 125 79 125 154 L125 547 C125 622 162 667 238 667 L318 667 C394 667 431 622 431 547 L431 513 C431 508 434 505 439 505 L463 505 C468 505 471 508 471 513 L471 562 C471 640 414 705 332 705 L224 705 C142 705 85 640 85 562 L85 138 C85 60 142 -5 224 -5 L332 -5 Z " />
<glyph glyph-name="cacute" unicode="&#x107;" horiz-adv-x="455" d="M309 672 C309 677 306 680 302 680 L278 680 C273 680 270 677 268 672 L225 579 C225 574 228 571 232 571 L256 571 C261 571 264 574 266 579 L309 672 Z M277 -5 C355 -5 395 62 395 126 L395 147 C395 152 392 155 387 155 L363 155 C358 155 355 152 355 147 L355 136 C355 79 324 33 257 33 L218 33 C151 33 120 79 120 136 L120 379 C120 436 151 482 218 482 L257 482 C324 482 355 436 355 379 L355 368 C355 363 358 360 363 360 L387 360 C392 360 395 363 395 368 L395 389 C395 453 355 520 277 520 L198 520 C120 520 80 453 80 389 L80 126 C80 62 120 -5 198 -5 L277 -5 Z " />
<glyph glyph-name="Ccircumflex" unicode="&#x108;" horiz-adv-x="541" d="M265 878 C261 878 257 876 254 871 L185 758 C185 754 187 751 192 751 L218 751 C221 751 225 754 227 758 L277 846 L327 758 C329 754 333 751 336 751 L362 751 C367 751 369 754 369 758 L300 871 C297 876 293 878 289 878 L265 878 Z M332 -5 C414 -5 471 60 471 138 L471 187 C471 192 468 195 463 195 L439 195 C434 195 431 192 431 187 L431 153 C431 78 394 33 318 33 L238 33 C162 33 125 79 125 154 L125 547 C125 622 162 667 238 667 L318 667 C394 667 431 622 431 547 L431 513 C431 508 434 505 439 505 L463 505 C468 505 471 508 471 513 L471 562 C471 640 414 705 332 705 L224 705 C142 705 85 640 85 562 L85 138 C85 60 142 -5 224 -5 L332 -5 Z " />
<glyph glyph-name="ccircumflex" unicode="&#x109;" horiz-adv-x="455" d="M227 698 C223 698 219 696 216 691 L147 578 C147 574 149 571 154 571 L180 571 C183 571 187 574 189 578 L239 666 L289 578 C291 574 295 571 298 571 L324 571 C329 571 331 574 331 578 L262 691 C259 696 255 698 251 698 L227 698 Z M277 -5 C355 -5 395 62 395 126 L395 147 C395 152 392 155 387 155 L363 155 C358 155 355 152 355 147 L355 136 C355 79 324 33 257 33 L218 33 C151 33 120 79 120 136 L120 379 C120 436 151 482 218 482 L257 482 C324 482 355 436 355 379 L355 368 C355 363 358 360 363 360 L387 360 C392 360 395 363 395 368 L395 389 C395 453 355 520 277 520 L198 520 C120 520 80 453 80 389 L80 126 C80 62 120 -5 198 -5 L277 -5 Z " />
<glyph glyph-name="Cdotaccent" unicode="&#x10a;" horiz-adv-x="541" d="M301 795 C301 800 298 803 293 803 L260 803 C255 803 252 800 252 795 L252 759 C252 754 255 751 260 751 L293 751 C298 751 301 754 301 759 L301 795 Z M332 -5 C414 -5 471 60 471 138 L471 187 C471 192 468 195 463 195 L439 195 C434 195 431 192 431 187 L431 153 C431 78 394 33 318 33 L238 33 C162 33 125 79 125 154 L125 547 C125 622 162 667 238 667 L318 667 C394 667 431 622 431 547 L431 513 C431 508 434 505 439 505 L463 505 C468 505 471 508 471 513 L471 562 C471 640 414 705 332 705 L224 705 C142 705 85 640 85 562 L85 138 C85 60 142 -5 224 -5 L332 -5 Z " />
<glyph glyph-name="cdotaccent" unicode="&#x10b;" horiz-adv-x="455" d="M266 615 C266 620 263 623 258 623 L225 623 C220 623 217 620 217 615 L217 579 C217 574 220 571 225 571 L258 571 C263 571 266 574 266 579 L266 615 Z M277 -5 C355 -5 395 62 395 126 L395 147 C395 152 392 155 387 155 L363 155 C358 155 355 152 355 147 L355 136 C355 79 324 33 257 33 L218 33 C151 33 120 79 120 136 L120 379 C120 436 151 482 218 482 L257 482 C324 482 355 436 355 379 L355 368 C355 363 358 360 363 360 L387 360 C392 360 395 363 395 368 L395 389 C395 453 355 520 277 520 L198 520 C120 520 80 453 80 389 L80 126 C80 62 120 -5 198 -5 L277 -5 Z " />
<glyph glyph-name="Ccaron" unicode="&#x10c;" horiz-adv-x="541" d="M287 751 C291 751 295 753 298 758 L367 871 C367 875 365 878 360 878 L334 878 C331 878 327 875 325 871 L275 783 L225 871 C223 875 219 878 216 878 L190 878 C185 878 183 875 183 871 L252 758 C255 753 259 751 263 751 L287 751 Z M332 -5 C414 -5 471 60 471 138 L471 187 C471 192 468 195 463 195 L439 195 C434 195 431 192 431 187 L431 153 C431 78 394 33 318 33 L238 33 C162 33 125 79 125 154 L125 547 C125 622 162 667 238 667 L318 667 C394 667 431 622 431 547 L431 513 C431 508 434 505 439 505 L463 505 C468 505 471 508 471 513 L471 562 C471 640 414 705 332 705 L224 705 C142 705 85 640 85 562 L85 138 C85 60 142 -5 224 -5 L332 -5 Z " />
<glyph glyph-name="ccaron" unicode="&#x10d;" horiz-adv-x="455" d="M249 571 C253 571 257 573 260 578 L329 691 C329 695 327 698 322 698 L296 698 C293 698 289 695 287 691 L237 603 L187 691 C185 695 181 698 178 698 L152 698 C147 698 145 695 145 691 L214 578 C217 573 221 571 225 571 L249 571 Z M277 -5 C355 -5 395 62 395 126 L395 147 C395 152 392 155 387 155 L363 155 C358 155 355 152 355 147 L355 136 C355 79 324 33 257 33 L218 33 C151 33 120 79 120 136 L120 379 C120 436 151 482 218 482 L257 482 C324 482 355 436 355 379 L355 368 C355 363 358 360 363 360 L387 360 C392 360 395 363 395 368 L395 389 C395 453 355 520 277 520 L198 520 C120 520 80 453 80 389 L80 126 C80 62 120 -5 198 -5 L277 -5 Z " />
<glyph glyph-name="Dcaron" unicode="&#x10e;" horiz-adv-x="567" d="M263 751 C267 751 271 753 274 758 L343 871 C343 875 341 878 336 878 L310 878 C307 878 303 875 301 871 L251 783 L201 871 C199 875 195 878 192 878 L166 878 C161 878 159 875 159 871 L228 758 C231 753 235 751 239 751 L263 751 Z M135 662 L319 662 C396 662 442 616 442 540 L442 160 C442 84 396 38 319 38 L135 38 L135 662 Z M103 700 C98 700 95 697 95 692 L95 8 C95 3 98 0 103 0 L332 0 C414 0 482 65 482 143 L482 557 C482 635 414 700 332 700 L103 700 Z " />
<glyph glyph-name="dcaron" unicode="&#x10f;" horiz-adv-x="727" d="M692 692 C692 697 689 700 685 700 L661 700 C656 700 653 697 651 692 L608 599 C608 594 611 591 615 591 L639 591 C644 591 647 594 649 599 L692 692 Z M213 33 C146 33 115 79 115 136 L115 379 C115 436 146 482 213 482 L253 482 C318 482 362 426 362 369 L362 146 C362 89 318 33 253 33 L213 33 Z M362 8 C362 3 365 0 370 0 L394 0 C399 0 402 3 402 8 L402 692 C402 697 399 700 394 700 L370 700 C365 700 362 697 362 692 L362 465 L357 465 C330 510 292 520 265 520 L201 520 C123 520 75 463 75 387 L75 128 C75 52 123 -5 201 -5 L265 -5 C292 -5 330 5 357 50 L362 50 L362 8 Z " />
<glyph glyph-name="Dcroat" unicode="&#x110;" horiz-adv-x="594" d="M130 700 C125 700 122 697 122 692 L122 370 L43 370 C38 370 35 367 35 362 L35 340 C35 335 38 332 43 332 L122 332 L122 8 C122 3 125 0 130 0 L359 0 C441 0 509 65 509 143 L509 557 C509 635 441 700 359 700 L130 700 Z M252 332 C257 332 260 335 260 340 L260 362 C260 367 257 370 252 370 L162 370 L162 662 L346 662 C423 662 469 616 469 540 L469 160 C469 84 423 38 346 38 L162 38 L162 332 L252 332 Z " />
<glyph glyph-name="dcroat" unicode="&#x111;" horiz-adv-x="495" d="M452 582 C457 582 460 585 460 590 L460 612 C460 617 457 620 452 620 L402 620 L402 692 C402 697 399 700 394 700 L370 700 C365 700 362 697 362 692 L362 620 L268 620 C263 620 260 617 260 612 L260 590 C260 585 263 582 268 582 L362 582 L362 465 L357 465 C330 510 292 520 265 520 L201 520 C123 520 75 463 75 387 L75 128 C75 52 123 -5 201 -5 L265 -5 C292 -5 330 5 357 50 L362 50 L362 8 C362 3 365 0 370 0 L394 0 C399 0 402 3 402 8 L402 582 L452 582 Z M213 33 C146 33 115 79 115 136 L115 379 C115 436 146 482 213 482 L253 482 C318 482 362 426 362 369 L362 146 C362 89 318 33 253 33 L213 33 Z " />
<glyph glyph-name="Emacron" unicode="&#x112;" horiz-adv-x="483" d="M331 751 C336 751 339 754 339 759 L339 781 C339 786 336 789 331 789 L154 789 C149 789 146 786 146 781 L146 759 C146 754 149 751 154 751 L331 751 Z M95 8 C95 3 98 0 103 0 L390 0 C395 0 398 3 398 8 L398 30 C398 35 395 38 390 38 L135 38 L135 317 L364 317 C369 317 372 320 372 325 L372 347 C372 352 369 355 364 355 L135 355 L135 662 L390 662 C395 662 398 665 398 670 L398 692 C398 697 395 700 390 700 L103 700 C98 700 95 697 95 692 L95 8 Z " />
<glyph glyph-name="emacron" unicode="&#x113;" horiz-adv-x="470" d="M307 571 C312 571 315 574 315 579 L315 601 C315 606 312 609 307 609 L162 609 C157 609 154 606 154 601 L154 579 C154 574 157 571 162 571 L307 571 Z M120 379 C120 436 151 482 218 482 L257 482 C324 482 355 436 355 379 L355 276 L120 276 L120 379 Z M363 32 C365 34 365 35 365 36 C365 39 364 40 362 42 L347 59 C345 61 344 61 343 61 C340 61 338 59 336 58 C309 44 298 33 262 33 L218 33 C151 33 120 79 120 136 L120 238 L387 238 C392 238 395 241 395 246 L395 389 C395 453 355 520 277 520 L198 520 C120 520 80 453 80 389 L80 126 C80 62 120 -5 198 -5 L262 -5 C262 -5 318 -5 363 32 L363 32 Z " />
<glyph glyph-name="Edotaccent" unicode="&#x116;" horiz-adv-x="483" d="M269 795 C269 800 266 803 261 803 L228 803 C223 803 220 800 220 795 L220 759 C220 754 223 751 228 751 L261 751 C266 751 269 754 269 759 L269 795 Z M95 8 C95 3 98 0 103 0 L390 0 C395 0 398 3 398 8 L398 30 C398 35 395 38 390 38 L135 38 L135 317 L364 317 C369 317 372 320 372 325 L372 347 C372 352 369 355 364 355 L135 355 L135 662 L390 662 C395 662 398 665 398 670 L398 692 C398 697 395 700 390 700 L103 700 C98 700 95 697 95 692 L95 8 Z " />
<glyph glyph-name="edotaccent" unicode="&#x117;" horiz-adv-x="470" d="M265 615 C265 620 262 623 257 623 L224 623 C219 623 216 620 216 615 L216 579 C216 574 219 571 224 571 L257 571 C262 571 265 574 265 579 L265 615 Z M120 379 C120 436 151 482 218 482 L257 482 C324 482 355 436 355 379 L355 276 L120 276 L120 379 Z M363 32 C365 34 365 35 365 36 C365 39 364 40 362 42 L347 59 C345 61 344 61 343 61 C340 61 338 59 336 58 C309 44 298 33 262 33 L218 33 C151 33 120 79 120 136 L120 238 L387 238 C392 238 395 241 395 246 L395 389 C395 453 355 520 277 520 L198 520 C120 520 80 453 80 389 L80 126 C80 62 120 -5 198 -5 L262 -5 C262 -5 318 -5 363 32 L363 32 Z " />
<glyph glyph-name="Eogonek" unicode="&#x118;" horiz-adv-x="483" d="M95 8 C95 3 98 0 103 0 L252 0 C243 -11 238 -26 238 -41 C238 -93 263 -113 303 -113 L359 -113 C363 -113 366 -110 366 -106 L366 -90 C366 -85 363 -83 359 -83 L308 -83 C292 -83 271 -70 271 -42 C271 -14 293 -1 308 0 L390 0 C395 0 398 3 398 8 L398 30 C398 35 395 38 390 38 L135 38 L135 317 L364 317 C369 317 372 320 372 325 L372 347 C372 352 369 355 364 355 L135 355 L135 662 L390 662 C395 662 398 665 398 670 L398 692 C398 697 395 700 390 700 L103 700 C98 700 95 697 95 692 L95 8 Z " />
<glyph glyph-name="eogonek" unicode="&#x119;" horiz-adv-x="470" d="M363 32 C365 34 365 35 365 36 C365 39 364 40 362 42 L347 59 C345 61 344 61 343 61 C340 61 338 59 336 58 C309 44 298 33 262 33 L218 33 C151 33 120 79 120 136 L120 238 L387 238 C392 238 395 241 395 246 L395 389 C395 453 355 520 277 520 L198 520 C120 520 80 453 80 389 L80 126 C80 69 111 10 172 -2 C164 -13 158 -32 158 -46 C158 -98 183 -118 223 -118 L279 -118 C283 -118 286 -115 286 -111 L286 -95 C286 -90 283 -88 279 -88 L228 -88 C212 -88 191 -75 191 -47 C191 -19 213 -6 228 -5 L262 -5 C262 -5 318 -5 363 32 L363 32 Z M120 379 C120 436 151 482 218 482 L257 482 C324 482 355 436 355 379 L355 276 L120 276 L120 379 Z " />
<glyph glyph-name="Ecaron" unicode="&#x11a;" horiz-adv-x="483" d="M262 751 C266 751 270 753 273 758 L342 871 C342 875 340 878 335 878 L309 878 C306 878 302 875 300 871 L250 783 L200 871 C198 875 194 878 191 878 L165 878 C160 878 158 875 158 871 L227 758 C230 753 234 751 238 751 L262 751 Z M95 8 C95 3 98 0 103 0 L390 0 C395 0 398 3 398 8 L398 30 C398 35 395 38 390 38 L135 38 L135 317 L364 317 C369 317 372 320 372 325 L372 347 C372 352 369 355 364 355 L135 355 L135 662 L390 662 C395 662 398 665 398 670 L398 692 C398 697 395 700 390 700 L103 700 C98 700 95 697 95 692 L95 8 Z " />
<glyph glyph-name="ecaron" unicode="&#x11b;" horiz-adv-x="470" d="M249 571 C253 571 257 573 260 578 L329 691 C329 695 327 698 322 698 L296 698 C293 698 289 695 287 691 L237 603 L187 691 C185 695 181 698 178 698 L152 698 C147 698 145 695 145 691 L214 578 C217 573 221 571 225 571 L249 571 Z M120 379 C120 436 151 482 218 482 L257 482 C324 482 355 436 355 379 L355 276 L120 276 L120 379 Z M363 32 C365 34 365 35 365 36 C365 39 364 40 362 42 L347 59 C345 61 344 61 343 61 C340 61 338 59 336 58 C309 44 298 33 262 33 L218 33 C151 33 120 79 120 136 L120 238 L387 238 C392 238 395 241 395 246 L395 389 C395 453 355 520 277 520 L198 520 C120 520 80 453 80 389 L80 126 C80 62 120 -5 198 -5 L262 -5 C262 -5 318 -5 363 32 L363 32 Z " />
<glyph glyph-name="Gcircumflex" unicode="&#x11c;" horiz-adv-x="556" d="M268 878 C264 878 260 876 257 871 L188 758 C188 754 190 751 195 751 L221 751 C224 751 228 754 230 758 L280 846 L330 758 C332 754 336 751 339 751 L365 751 C370 751 372 754 372 758 L303 871 C300 876 296 878 292 878 L268 878 Z M296 360 C291 360 288 357 288 352 L288 330 C288 325 291 322 296 322 L431 322 L431 153 C431 78 394 33 318 33 L238 33 C162 33 125 79 125 154 L125 547 C125 622 162 667 238 667 L318 667 C394 667 431 622 431 547 L431 513 C431 508 434 505 439 505 L463 505 C468 505 471 508 471 513 L471 562 C471 640 414 705 332 705 L224 705 C142 705 85 640 85 562 L85 138 C85 60 142 -5 224 -5 L332 -5 C414 -5 471 60 471 138 L471 352 C471 357 468 360 463 360 L296 360 Z " />
<glyph glyph-name="gcircumflex" unicode="&#x11d;" horiz-adv-x="497" d="M220 698 C216 698 212 696 209 691 L140 578 C140 574 142 571 147 571 L173 571 C176 571 180 574 182 578 L232 666 L282 578 C284 574 288 571 291 571 L317 571 C322 571 324 574 324 578 L255 691 C252 696 248 698 244 698 L220 698 Z M213 33 C146 33 115 79 115 136 L115 379 C115 436 146 482 213 482 L253 482 C318 482 362 426 362 369 L362 146 C362 89 318 33 253 33 L213 33 Z M362 -37 C362 -90 354 -165 232 -165 C181 -165 168 -161 137 -156 C134 -156 130 -156 129 -163 L126 -183 C126 -188 128 -190 133 -192 C164 -199 174 -203 228 -203 C401 -203 402 -84 402 -44 L402 507 C402 512 399 515 394 515 L370 515 C365 515 362 512 362 507 L362 465 L357 465 C330 510 292 520 265 520 L201 520 C123 520 75 463 75 387 L75 128 C75 52 123 -5 201 -5 L265 -5 C292 -5 330 5 357 50 L362 50 L362 -37 Z " />
<glyph glyph-name="Gbreve" unicode="&#x11e;" horiz-adv-x="556" d="M296 360 C291 360 288 357 288 352 L288 330 C288 325 291 322 296 322 L431 322 L431 153 C431 78 394 33 318 33 L238 33 C162 33 125 79 125 154 L125 547 C125 622 162 667 238 667 L318 667 C394 667 431 622 431 547 L431 513 C431 508 434 505 439 505 L463 505 C468 505 471 508 471 513 L471 562 C471 640 414 705 332 705 L224 705 C142 705 85 640 85 562 L85 138 C85 60 142 -5 224 -5 L332 -5 C414 -5 471 60 471 138 L471 352 C471 357 468 360 463 360 L296 360 Z M259 751 C326 751 349 785 369 849 C369 854 366 857 361 857 L339 857 C334 857 331 854 329 849 C308 796 287 787 259 787 C231 787 210 796 189 849 C187 854 184 857 179 857 L157 857 C152 857 149 854 149 849 C169 785 192 751 259 751 L259 751 Z " />
<glyph glyph-name="gbreve" unicode="&#x11f;" horiz-adv-x="497" d="M213 33 C146 33 115 79 115 136 L115 379 C115 436 146 482 213 482 L253 482 C318 482 362 426 362 369 L362 146 C362 89 318 33 253 33 L213 33 Z M362 -37 C362 -90 354 -165 232 -165 C181 -165 168 -161 137 -156 C134 -156 130 -156 129 -163 L126 -183 C126 -188 128 -190 133 -192 C164 -199 174 -203 228 -203 C401 -203 402 -84 402 -44 L402 507 C402 512 399 515 394 515 L370 515 C365 515 362 512 362 507 L362 465 L357 465 C330 510 292 520 265 520 L201 520 C123 520 75 463 75 387 L75 128 C75 52 123 -5 201 -5 L265 -5 C292 -5 330 5 357 50 L362 50 L362 -37 Z M230 571 C297 571 320 605 340 669 C340 674 337 677 332 677 L310 677 C305 677 302 674 300 669 C279 616 258 607 230 607 C202 607 181 616 160 669 C158 674 155 677 150 677 L128 677 C123 677 120 674 120 669 C140 605 163 571 230 571 L230 571 Z " />
<glyph glyph-name="Gdotaccent" unicode="&#x120;" horiz-adv-x="556" d="M308 795 C308 800 305 803 300 803 L267 803 C262 803 259 800 259 795 L259 759 C259 754 262 751 267 751 L300 751 C305 751 308 754 308 759 L308 795 Z M296 360 C291 360 288 357 288 352 L288 330 C288 325 291 322 296 322 L431 322 L431 153 C431 78 394 33 318 33 L238 33 C162 33 125 79 125 154 L125 547 C125 622 162 667 238 667 L318 667 C394 667 431 622 431 547 L431 513 C431 508 434 505 439 505 L463 505 C468 505 471 508 471 513 L471 562 C471 640 414 705 332 705 L224 705 C142 705 85 640 85 562 L85 138 C85 60 142 -5 224 -5 L332 -5 C414 -5 471 60 471 138 L471 352 C471 357 468 360 463 360 L296 360 Z " />
<glyph glyph-name="gdotaccent" unicode="&#x121;" horiz-adv-x="497" d="M255 615 C255 620 252 623 247 623 L214 623 C209 623 206 620 206 615 L206 579 C206 574 209 571 214 571 L247 571 C252 571 255 574 255 579 L255 615 Z M213 33 C146 33 115 79 115 136 L115 379 C115 436 146 482 213 482 L253 482 C318 482 362 426 362 369 L362 146 C362 89 318 33 253 33 L213 33 Z M362 -37 C362 -90 354 -165 232 -165 C181 -165 168 -161 137 -156 C134 -156 130 -156 129 -163 L126 -183 C126 -188 128 -190 133 -192 C164 -199 174 -203 228 -203 C401 -203 402 -84 402 -44 L402 507 C402 512 399 515 394 515 L370 515 C365 515 362 512 362 507 L362 465 L357 465 C330 510 292 520 265 520 L201 520 C123 520 75 463 75 387 L75 128 C75 52 123 -5 201 -5 L265 -5 C292 -5 330 5 357 50 L362 50 L362 -37 Z " />
<glyph glyph-name="uni0122" unicode="&#x122;" horiz-adv-x="556" d="M304 -61 C304 -56 301 -53 297 -53 L273 -53 C268 -53 265 -56 263 -61 L220 -154 C220 -159 223 -162 227 -162 L251 -162 C256 -162 259 -159 261 -154 L304 -61 Z M296 360 C291 360 288 357 288 352 L288 330 C288 325 291 322 296 322 L431 322 L431 153 C431 78 394 33 318 33 L238 33 C162 33 125 79 125 154 L125 547 C125 622 162 667 238 667 L318 667 C394 667 431 622 431 547 L431 513 C431 508 434 505 439 505 L463 505 C468 505 471 508 471 513 L471 562 C471 640 414 705 332 705 L224 705 C142 705 85 640 85 562 L85 138 C85 60 142 -5 224 -5 L332 -5 C414 -5 471 60 471 138 L471 352 C471 357 468 360 463 360 L296 360 Z " />
<glyph glyph-name="uni0123" unicode="&#x123;" horiz-adv-x="497" d="M302 672 C302 677 299 680 295 680 L271 680 C266 680 263 677 261 672 L218 579 C218 574 221 571 225 571 L249 571 C254 571 257 574 259 579 L302 672 Z M213 33 C146 33 115 79 115 136 L115 379 C115 436 146 482 213 482 L253 482 C318 482 362 426 362 369 L362 146 C362 89 318 33 253 33 L213 33 Z M362 -37 C362 -90 354 -165 232 -165 C181 -165 168 -161 137 -156 C134 -156 130 -156 129 -163 L126 -183 C126 -188 128 -190 133 -192 C164 -199 174 -203 228 -203 C401 -203 402 -84 402 -44 L402 507 C402 512 399 515 394 515 L370 515 C365 515 362 512 362 507 L362 465 L357 465 C330 510 292 520 265 520 L201 520 C123 520 75 463 75 387 L75 128 C75 52 123 -5 201 -5 L265 -5 C292 -5 330 5 357 50 L362 50 L362 -37 Z " />
<glyph glyph-name="Hcircumflex" unicode="&#x124;" horiz-adv-x="568" d="M272 878 C268 878 264 876 261 871 L192 758 C192 754 194 751 199 751 L225 751 C228 751 232 754 234 758 L284 846 L334 758 C336 754 340 751 343 751 L369 751 C374 751 376 754 376 758 L307 871 C304 876 300 878 296 878 L272 878 Z M473 692 C473 697 470 700 465 700 L441 700 C436 700 433 697 433 692 L433 355 L135 355 L135 692 C135 697 132 700 127 700 L103 700 C98 700 95 697 95 692 L95 8 C95 3 98 0 103 0 L127 0 C132 0 135 3 135 8 L135 317 L433 317 L433 8 C433 3 436 0 441 0 L465 0 C470 0 473 3 473 8 L473 692 Z " />
<glyph glyph-name="hcircumflex" unicode="&#x125;" horiz-adv-x="507" d="M180 878 C176 878 172 876 169 871 L100 758 C100 754 102 751 107 751 L133 751 C136 751 140 754 142 758 L192 846 L242 758 C244 754 248 751 251 751 L277 751 C282 751 284 754 284 758 L215 871 C212 876 208 878 204 878 L180 878 Z M135 692 C135 697 132 700 127 700 L103 700 C98 700 95 697 95 692 L95 8 C95 3 98 0 103 0 L127 0 C132 0 135 3 135 8 L135 372 C190 482 247 482 286 482 L294 482 C352 482 382 437 382 360 L382 8 C382 3 385 0 390 0 L414 0 C419 0 422 3 422 8 L422 372 C422 460 386 520 295 520 L266 520 C246 520 188 520 140 442 L135 442 L135 692 Z " />
<glyph glyph-name="Hbar" unicode="&#x126;" horiz-adv-x="570" d="M527 503 C532 503 535 506 535 511 L535 533 C535 538 532 541 527 541 L474 541 L474 692 C474 697 471 700 466 700 L442 700 C437 700 434 697 434 692 L434 541 L136 541 L136 692 C136 697 133 700 128 700 L104 700 C99 700 96 697 96 692 L96 541 L43 541 C38 541 35 538 35 533 L35 511 C35 506 38 503 43 503 L96 503 L96 8 C96 3 99 0 104 0 L128 0 C133 0 136 3 136 8 L136 317 L434 317 L434 8 C434 3 437 0 442 0 L466 0 C471 0 474 3 474 8 L474 503 L527 503 Z M136 355 L136 503 L434 503 L434 355 L136 355 Z " />
<glyph glyph-name="hbar" unicode="&#x127;" horiz-adv-x="505" d="M227 582 C232 582 235 585 235 590 L235 612 C235 617 232 620 227 620 L133 620 L133 692 C133 697 130 700 125 700 L101 700 C96 700 93 697 93 692 L93 620 L43 620 C38 620 35 617 35 612 L35 590 C35 585 38 582 43 582 L93 582 L93 8 C93 3 96 0 101 0 L125 0 C130 0 133 3 133 8 L133 372 C188 482 245 482 284 482 L292 482 C350 482 380 437 380 360 L380 8 C380 3 383 0 388 0 L412 0 C417 0 420 3 420 8 L420 372 C420 460 384 520 293 520 L264 520 C244 520 186 520 138 442 L133 442 L133 582 L227 582 Z " />
<glyph glyph-name="Itilde" unicode="&#x128;" horiz-adv-x="230" d="M165 789 C118 789 127 821 66 821 C59 821 43 817 32 812 C29 811 28 808 28 805 L34 781 C35 778 38 777 40 777 C47 779 63 783 70 783 C116 783 107 751 169 751 C176 751 192 755 203 760 C206 761 207 764 207 767 L201 791 C200 794 197 795 195 795 C188 793 172 789 165 789 L165 789 Z M135 692 C135 695 134 697 133 698 C132 699 131 700 127 700 L103 700 C99 700 98 699 97 698 C96 697 95 695 95 692 L95 8 C95 5 96 3 97 2 C98 1 99 0 103 0 L127 0 C131 0 132 1 133 2 C134 3 135 5 135 8 L135 692 Z " />
<glyph glyph-name="itilde" unicode="&#x129;" horiz-adv-x="230" d="M135 507 C135 512 132 515 127 515 L103 515 C98 515 95 512 95 507 L95 8 C95 3 98 0 103 0 L127 0 C132 0 135 3 135 8 L135 507 Z M164 609 C117 609 126 641 65 641 C58 641 42 637 31 632 C28 631 27 628 27 625 L33 601 C34 598 37 597 39 597 C46 599 62 603 69 603 C115 603 106 571 168 571 C175 571 191 575 202 580 C205 581 206 584 206 587 L200 611 C199 614 196 615 194 615 C187 613 171 609 164 609 L164 609 Z " />
<glyph glyph-name="Imacron" unicode="&#x12a;" horiz-adv-x="230" d="M189 751 C194 751 197 754 197 759 L197 781 C197 786 194 789 189 789 L43 789 C38 789 35 786 35 781 L35 759 C35 754 38 751 43 751 L189 751 Z M135 692 C135 695 134 697 133 698 C132 699 131 700 127 700 L103 700 C99 700 98 699 97 698 C96 697 95 695 95 692 L95 8 C95 5 96 3 97 2 C98 1 99 0 103 0 L127 0 C131 0 132 1 133 2 C134 3 135 5 135 8 L135 692 Z " />
<glyph glyph-name="imacron" unicode="&#x12b;" horiz-adv-x="230" d="M135 507 C135 512 132 515 127 515 L103 515 C98 515 95 512 95 507 L95 8 C95 3 98 0 103 0 L127 0 C132 0 135 3 135 8 L135 507 Z M187 571 C192 571 195 574 195 579 L195 601 C195 606 192 609 187 609 L43 609 C38 609 35 606 35 601 L35 579 C35 574 38 571 43 571 L187 571 Z " />
<glyph glyph-name="Iogonek" unicode="&#x12e;" horiz-adv-x="230" d="M135 692 C135 697 132 700 127 700 L103 700 C98 700 95 697 95 692 L95 29 C58 25 34 3 34 -32 C34 -84 54 -96 94 -96 L150 -96 C154 -96 157 -93 157 -89 L157 -73 C157 -68 154 -66 150 -66 L97 -66 C85 -66 62 -62 62 -34 C62 -4 88 0 103 0 L127 0 C132 0 135 3 135 8 L135 692 Z " />
<glyph glyph-name="iogonek" unicode="&#x12f;" horiz-adv-x="230" d="M137 647 C137 652 134 655 129 655 L101 655 C96 655 93 652 93 647 L93 586 C93 581 96 578 101 578 L129 578 C134 578 137 581 137 586 L137 647 Z M135 507 C135 512 132 515 127 515 L103 515 C98 515 95 512 95 507 L95 29 C58 25 34 3 34 -32 C34 -84 54 -96 94 -96 L150 -96 C154 -96 157 -93 157 -89 L157 -73 C157 -68 154 -66 150 -66 L97 -66 C85 -66 62 -62 62 -34 C62 -4 88 0 103 0 L127 0 C132 0 135 3 135 8 L135 507 Z " />
<glyph glyph-name="Idotaccent" unicode="&#x130;" horiz-adv-x="230" d="M135 563 C135 568 132 571 127 571 L103 571 C98 571 95 568 95 563 L95 8 C95 3 98 0 103 0 L127 0 C132 0 135 3 135 8 L135 563 Z M137 703 C137 708 134 711 129 711 L101 711 C96 711 93 708 93 703 L93 642 C93 637 96 634 101 634 L129 634 C134 634 137 637 137 642 L137 703 Z " />
<glyph glyph-name="dotlessi" unicode="&#x131;" horiz-adv-x="230" d="M135 507 C135 512 132 515 127 515 L103 515 C98 515 95 512 95 507 L95 8 C95 3 98 0 103 0 L127 0 C132 0 135 3 135 8 L135 507 Z " />
<glyph glyph-name="Jcircumflex" unicode="&#x134;" horiz-adv-x="383" d="M203 878 C199 878 195 876 192 871 L123 758 C123 754 125 751 130 751 L156 751 C159 751 163 754 165 758 L215 846 L265 758 C267 754 271 751 274 751 L300 751 C305 751 307 754 307 758 L238 871 C235 876 231 878 227 878 L203 878 Z M55 60 C53 61 52 61 49 61 C47 61 44 59 43 58 L27 40 C26 39 25 38 25 35 C25 33 26 31 27 30 C55 11 78 -5 140 -5 C269 -5 308 77 308 160 L308 692 C308 697 305 700 300 700 L276 700 C271 700 268 697 268 692 L268 162 C268 145 268 33 134 33 C105 33 87 41 55 60 L55 60 Z " />
<glyph glyph-name="jcircumflex" unicode="&#x135;" horiz-adv-x="230" d="M14 -181 C59 -160 135 -101 135 1 L135 507 C135 512 132 515 127 515 L103 515 C98 515 95 512 95 507 L95 -1 C95 -1 90 -88 -4 -141 C-6 -143 -7 -145 -7 -149 L4 -178 C5 -181 8 -182 10 -182 C10 -182 12 -182 14 -181 L14 -181 Z M103 695 C99 695 95 693 92 688 L23 575 C23 571 25 568 30 568 L56 568 C59 568 63 571 65 575 L115 663 L165 575 C167 571 171 568 174 568 L200 568 C205 568 207 571 207 575 L138 688 C135 693 131 695 127 695 L103 695 Z " />
<glyph glyph-name="uni0136" unicode="&#x136;" horiz-adv-x="513" d="M282 -61 C282 -56 279 -53 275 -53 L251 -53 C246 -53 243 -56 241 -61 L198 -154 C198 -159 201 -162 205 -162 L229 -162 C234 -162 237 -159 239 -154 L282 -61 Z M317 331 L416 8 C419 3 422 0 427 0 L449 0 C454 0 457 3 457 8 L353 348 L457 692 C457 697 454 700 449 700 L426 700 C421 700 417 697 415 692 L317 366 L135 366 L135 692 C135 697 132 700 127 700 L103 700 C98 700 95 697 95 692 L95 8 C95 3 98 0 103 0 L127 0 C132 0 135 3 135 8 L135 331 L317 331 Z " />
<glyph glyph-name="uni0137" unicode="&#x137;" horiz-adv-x="456" d="M257 -61 C257 -56 254 -53 250 -53 L226 -53 C221 -53 218 -56 216 -61 L173 -154 C173 -159 176 -162 180 -162 L204 -162 C209 -162 212 -159 214 -154 L257 -61 Z M301 255 L368 8 C371 3 374 0 379 0 L403 0 C408 0 411 3 411 8 L337 275 L408 507 C408 512 405 515 400 515 L377 515 C372 515 369 512 366 507 L300 293 L135 293 L135 692 C135 697 132 700 127 700 L103 700 C98 700 95 697 95 692 L95 8 C95 3 98 0 103 0 L127 0 C132 0 135 3 135 8 L135 255 L301 255 Z " />
<glyph glyph-name="kgreenlandic" unicode="&#x138;" horiz-adv-x="456" d="M301 255 L368 8 C371 3 374 0 379 0 L403 0 C408 0 411 3 411 8 L337 275 L408 507 C408 512 405 515 400 515 L377 515 C372 515 369 512 366 507 L300 293 L135 293 L135 507 C135 512 132 515 127 515 L103 515 C98 515 95 512 95 507 L95 8 C95 3 98 0 103 0 L127 0 C132 0 135 3 135 8 L135 255 L301 255 Z " />
<glyph glyph-name="Lacute" unicode="&#x139;" horiz-adv-x="453" d="M183 852 C183 857 180 860 176 860 L152 860 C147 860 144 857 142 852 L99 759 C99 754 102 751 106 751 L130 751 C135 751 138 754 140 759 L183 852 Z M390 0 C395 0 398 3 398 8 L398 30 C398 35 395 38 390 38 L135 38 L135 692 C135 697 132 700 127 700 L103 700 C98 700 95 697 95 692 L95 8 C95 3 98 0 103 0 L390 0 Z " />
<glyph glyph-name="lacute" unicode="&#x13a;" horiz-adv-x="230" d="M178 852 C178 857 175 860 171 860 L147 860 C142 860 139 857 137 852 L94 759 C94 754 97 751 101 751 L125 751 C130 751 133 754 135 759 L178 852 Z M135 692 C135 695 134 697 133 698 C132 699 131 700 127 700 L103 700 C99 700 98 699 97 698 C96 697 95 695 95 692 L95 8 C95 5 96 3 97 2 C98 1 99 0 103 0 L127 0 C131 0 132 1 133 2 C134 3 135 5 135 8 L135 692 Z " />
<glyph glyph-name="uni013B" unicode="&#x13b;" horiz-adv-x="453" d="M269 -61 C269 -56 266 -53 262 -53 L238 -53 C233 -53 230 -56 228 -61 L185 -154 C185 -159 188 -162 192 -162 L216 -162 C221 -162 224 -159 226 -154 L269 -61 Z M390 0 C395 0 398 3 398 8 L398 30 C398 35 395 38 390 38 L135 38 L135 692 C135 697 132 700 127 700 L103 700 C98 700 95 697 95 692 L95 8 C95 3 98 0 103 0 L390 0 Z " />
<glyph glyph-name="uni013C" unicode="&#x13c;" horiz-adv-x="230" d="M133 -61 C133 -56 130 -53 126 -53 L102 -53 C97 -53 94 -56 92 -61 L49 -154 C49 -159 52 -162 56 -162 L80 -162 C85 -162 88 -159 90 -154 L133 -61 Z M135 692 C135 695 134 697 133 698 C132 699 131 700 127 700 L103 700 C99 700 98 699 97 698 C96 697 95 695 95 692 L95 8 C95 5 96 3 97 2 C98 1 99 0 103 0 L127 0 C131 0 132 1 133 2 C134 3 135 5 135 8 L135 692 Z " />
<glyph glyph-name="Lcaron" unicode="&#x13d;" horiz-adv-x="482" d="M427 692 C427 697 424 700 420 700 L396 700 C391 700 388 697 386 692 L342 603 C342 598 345 595 349 595 L373 595 C378 595 381 598 383 603 L427 692 Z M390 0 C395 0 398 3 398 8 L398 30 C398 35 395 38 390 38 L135 38 L135 692 C135 697 132 700 127 700 L103 700 C98 700 95 697 95 692 L95 8 C95 3 98 0 103 0 L390 0 Z " />
<glyph glyph-name="lcaron" unicode="&#x13e;" horiz-adv-x="460" d="M425 692 C425 697 422 700 418 700 L394 700 C389 700 386 697 384 692 L341 599 C341 594 344 591 348 591 L372 591 C377 591 380 594 382 599 L425 692 Z M135 692 C135 695 134 697 133 698 C132 699 131 700 127 700 L103 700 C99 700 98 699 97 698 C96 697 95 695 95 692 L95 8 C95 5 96 3 97 2 C98 1 99 0 103 0 L127 0 C131 0 132 1 133 2 C134 3 135 5 135 8 L135 692 Z " />
<glyph glyph-name="Lslash" unicode="&#x141;" horiz-adv-x="462" d="M246 366 C251 367 254 369 254 374 L254 396 C254 401 251 404 246 404 L164 380 L164 692 C164 697 161 700 156 700 L132 700 C127 700 124 697 124 692 L124 368 L43 345 C38 344 35 342 35 337 L35 315 C35 310 38 307 43 307 L124 330 L124 8 C124 3 127 0 132 0 L419 0 C424 0 427 3 427 8 L427 30 C427 35 424 38 419 38 L164 38 L164 342 L246 366 Z " />
<glyph glyph-name="lslash" unicode="&#x142;" horiz-adv-x="289" d="M246 365 C251 366 254 368 254 373 L254 395 C254 400 251 403 246 403 L164 380 L164 692 C164 697 161 700 156 700 L132 700 C127 700 124 697 124 692 L124 368 L43 345 C38 344 35 342 35 337 L35 315 C35 310 38 307 43 307 L124 330 L124 8 C124 3 127 0 132 0 L156 0 C161 0 164 3 164 8 L164 342 L246 365 Z " />
<glyph glyph-name="Nacute" unicode="&#x143;" horiz-adv-x="609" d="M368 852 C368 857 365 860 361 860 L337 860 C332 860 329 857 327 852 L284 759 C284 754 287 751 291 751 L315 751 C320 751 323 754 325 759 L368 852 Z M440 8 C442 4 446 0 451 0 L506 0 C511 0 514 3 514 8 L514 692 C514 697 511 700 506 700 L482 700 C477 700 474 697 474 692 L474 46 L467 46 L169 692 C167 696 163 700 158 700 L103 700 C98 700 95 697 95 692 L95 8 C95 3 98 0 103 0 L127 0 C132 0 135 3 135 8 L135 658 L142 658 L440 8 Z " />
<glyph glyph-name="nacute" unicode="&#x144;" horiz-adv-x="507" d="M333 672 C333 677 330 680 326 680 L302 680 C297 680 294 677 292 672 L249 579 C249 574 252 571 256 571 L280 571 C285 571 288 574 290 579 L333 672 Z M135 507 C135 512 132 515 127 515 L103 515 C98 515 95 512 95 507 L95 8 C95 3 98 0 103 0 L127 0 C132 0 135 3 135 8 L135 372 C190 482 247 482 286 482 L294 482 C352 482 382 437 382 360 L382 8 C382 3 385 0 390 0 L414 0 C419 0 422 3 422 8 L422 372 C422 460 386 520 295 520 L266 520 C246 520 188 520 140 442 L135 442 L135 507 Z " />
<glyph glyph-name="uni0145" unicode="&#x145;" horiz-adv-x="609" d="M325 -61 C325 -56 322 -53 318 -53 L294 -53 C289 -53 286 -56 284 -61 L241 -154 C241 -159 244 -162 248 -162 L272 -162 C277 -162 280 -159 282 -154 L325 -61 Z M440 8 C442 4 446 0 451 0 L506 0 C511 0 514 3 514 8 L514 692 C514 697 511 700 506 700 L482 700 C477 700 474 697 474 692 L474 46 L467 46 L169 692 C167 696 163 700 158 700 L103 700 C98 700 95 697 95 692 L95 8 C95 3 98 0 103 0 L127 0 C132 0 135 3 135 8 L135 658 L142 658 L440 8 Z " />
<glyph glyph-name="uni0146" unicode="&#x146;" horiz-adv-x="507" d="M279 -61 C279 -56 276 -53 272 -53 L248 -53 C243 -53 240 -56 238 -61 L195 -154 C195 -159 198 -162 202 -162 L226 -162 C231 -162 234 -159 236 -154 L279 -61 Z M135 507 C135 512 132 515 127 515 L103 515 C98 515 95 512 95 507 L95 8 C95 3 98 0 103 0 L127 0 C132 0 135 3 135 8 L135 372 C190 482 247 482 286 482 L294 482 C352 482 382 437 382 360 L382 8 C382 3 385 0 390 0 L414 0 C419 0 422 3 422 8 L422 372 C422 460 386 520 295 520 L266 520 C246 520 188 520 140 442 L135 442 L135 507 Z " />
<glyph glyph-name="Ncaron" unicode="&#x147;" horiz-adv-x="609" d="M316 751 C320 751 324 753 327 758 L396 871 C396 875 394 878 389 878 L363 878 C360 878 356 875 354 871 L304 783 L254 871 C252 875 248 878 245 878 L219 878 C214 878 212 875 212 871 L281 758 C284 753 288 751 292 751 L316 751 Z M440 8 C442 4 446 0 451 0 L506 0 C511 0 514 3 514 8 L514 692 C514 697 511 700 506 700 L482 700 C477 700 474 697 474 692 L474 46 L467 46 L169 692 C167 696 163 700 158 700 L103 700 C98 700 95 697 95 692 L95 8 C95 3 98 0 103 0 L127 0 C132 0 135 3 135 8 L135 658 L142 658 L440 8 Z " />
<glyph glyph-name="ncaron" unicode="&#x148;" horiz-adv-x="507" d="M271 571 C275 571 279 573 282 578 L351 691 C351 695 349 698 344 698 L318 698 C315 698 311 695 309 691 L259 603 L209 691 C207 695 203 698 200 698 L174 698 C169 698 167 695 167 691 L236 578 C239 573 243 571 247 571 L271 571 Z M135 507 C135 512 132 515 127 515 L103 515 C98 515 95 512 95 507 L95 8 C95 3 98 0 103 0 L127 0 C132 0 135 3 135 8 L135 372 C190 482 247 482 286 482 L294 482 C352 482 382 437 382 360 L382 8 C382 3 385 0 390 0 L414 0 C419 0 422 3 422 8 L422 372 C422 460 386 520 295 520 L266 520 C246 520 188 520 140 442 L135 442 L135 507 Z " />
<glyph glyph-name="Eng" unicode="&#x14a;" horiz-adv-x="609" d="M393 -181 C438 -160 514 -101 514 1 L514 507 L514 509 L514 692 C514 697 511 700 506 700 L482 700 C477 700 474 697 474 692 L474 46 L467 46 L169 692 C167 696 163 700 158 700 L103 700 C98 700 95 697 95 692 L95 8 C95 3 98 0 103 0 L127 0 C132 0 135 3 135 8 L135 658 L142 658 L463 -42 C451 -72 427 -111 375 -141 C373 -143 372 -145 372 -149 L383 -178 C384 -181 387 -182 389 -182 C389 -182 391 -182 393 -181 L393 -181 Z " />
<glyph glyph-name="eng" unicode="&#x14b;" horiz-adv-x="507" d="M422 372 C422 460 386 520 295 520 L266 520 C246 520 188 520 140 442 L135 442 L135 507 C135 512 132 515 127 515 L103 515 C98 515 95 512 95 507 L95 8 C95 3 98 0 103 0 L127 0 C132 0 135 3 135 8 L135 372 C190 482 247 482 286 482 L294 482 C352 482 382 437 382 360 L382 -1 C382 -1 377 -88 283 -141 C281 -143 280 -145 280 -149 L291 -178 C292 -181 295 -182 297 -182 C297 -182 299 -182 301 -181 C346 -160 422 -101 422 1 L422 372 Z " />
<glyph glyph-name="Omacron" unicode="&#x14c;" horiz-adv-x="556" d="M367 751 C372 751 375 754 375 759 L375 781 C375 786 372 789 367 789 L190 789 C185 789 182 786 182 781 L182 759 C182 754 185 751 190 751 L367 751 Z M224 705 C142 705 85 640 85 562 L85 138 C85 60 142 -5 224 -5 L332 -5 C414 -5 471 60 471 138 L471 562 C471 640 414 705 332 705 L224 705 Z M318 667 C394 667 431 622 431 547 L431 154 C431 79 394 33 318 33 L238 33 C162 33 125 79 125 154 L125 547 C125 622 162 667 238 667 L318 667 Z " />
<glyph glyph-name="omacron" unicode="&#x14d;" horiz-adv-x="475" d="M326 571 C331 571 334 574 334 579 L334 601 C334 606 331 609 326 609 L149 609 C144 609 141 606 141 601 L141 579 C141 574 144 571 149 571 L326 571 Z M218 33 C151 33 120 79 120 136 L120 379 C120 436 151 482 218 482 L257 482 C324 482 355 436 355 379 L355 136 C355 79 324 33 257 33 L218 33 Z M277 -5 C355 -5 395 62 395 126 L395 389 C395 453 355 520 277 520 L198 520 C120 520 80 453 80 389 L80 126 C80 62 120 -5 198 -5 L277 -5 Z " />
<glyph glyph-name="Ohungarumlaut" unicode="&#x150;" horiz-adv-x="556" d="M298 852 C298 857 295 860 291 860 L267 860 C262 860 259 857 257 852 L212 759 C212 754 215 751 219 751 L243 751 C248 751 251 754 253 759 L298 852 Z M406 852 C406 857 403 860 399 860 L375 860 C370 860 367 857 365 852 L320 759 C320 754 323 751 327 751 L351 751 C356 751 359 754 361 759 L406 852 Z M224 705 C142 705 85 640 85 562 L85 138 C85 60 142 -5 224 -5 L332 -5 C414 -5 471 60 471 138 L471 562 C471 640 414 705 332 705 L224 705 Z M318 667 C394 667 431 622 431 547 L431 154 C431 79 394 33 318 33 L238 33 C162 33 125 79 125 154 L125 547 C125 622 162 667 238 667 L318 667 Z " />
<glyph glyph-name="ohungarumlaut" unicode="&#x151;" horiz-adv-x="475" d="M252 672 C252 677 249 680 245 680 L221 680 C216 680 213 677 211 672 L166 579 C166 574 169 571 173 571 L197 571 C202 571 205 574 207 579 L252 672 Z M360 672 C360 677 357 680 353 680 L329 680 C324 680 321 677 319 672 L274 579 C274 574 277 571 281 571 L305 571 C310 571 313 574 315 579 L360 672 Z M218 33 C151 33 120 79 120 136 L120 379 C120 436 151 482 218 482 L257 482 C324 482 355 436 355 379 L355 136 C355 79 324 33 257 33 L218 33 Z M277 -5 C355 -5 395 62 395 126 L395 389 C395 453 355 520 277 520 L198 520 C120 520 80 453 80 389 L80 126 C80 62 120 -5 198 -5 L277 -5 Z " />
<glyph glyph-name="OE" unicode="&#x152;" horiz-adv-x="819" d="M322 700 L234 700 C152 700 85 635 85 557 L85 143 C85 65 152 0 234 0 L726 0 C731 0 734 3 734 8 L734 30 C734 35 731 38 726 38 L471 38 L471 317 L700 317 C705 317 708 320 708 325 L708 347 C708 352 705 355 700 355 L471 355 L471 662 L726 662 C731 662 734 665 734 670 L734 692 C734 697 731 700 726 700 L322 700 Z M248 38 C172 38 125 84 125 159 L125 542 C125 617 172 662 248 662 L355 662 C401 662 431 635 431 591 L431 109 C431 65 401 38 355 38 L248 38 Z " />
<glyph glyph-name="oe" unicode="&#x153;" horiz-adv-x="745" d="M638 32 C640 34 640 35 640 36 C640 39 639 40 637 42 L622 59 C620 61 619 61 618 61 C615 61 613 59 611 58 C584 44 573 33 537 33 L493 33 C429 33 398 74 395 127 L395 238 L662 238 C667 238 670 241 670 246 L670 389 C670 453 630 520 552 520 L473 520 C427 520 394 497 375 464 C356 497 323 520 277 520 L198 520 C120 520 80 453 80 389 L80 126 C80 62 120 -5 198 -5 L277 -5 C323 -5 356 18 375 50 C394 18 427 -5 473 -5 L537 -5 C537 -5 593 -5 638 32 L638 32 Z M218 33 C151 33 120 79 120 136 L120 379 C120 436 151 482 218 482 L257 482 C320 482 352 440 355 387 L355 127 C352 74 320 33 257 33 L218 33 Z M395 379 C395 436 426 482 493 482 L532 482 C599 482 630 436 630 379 L630 276 L395 276 L395 379 Z " />
<glyph glyph-name="Racute" unicode="&#x154;" horiz-adv-x="538" d="M312 852 C312 857 309 860 305 860 L281 860 C276 860 273 857 271 852 L228 759 C228 754 231 751 235 751 L259 751 C264 751 267 754 269 759 L312 852 Z M473 381 L473 557 C473 635 405 700 322 700 L103 700 C98 700 95 697 95 692 L95 8 C95 3 98 0 103 0 L127 0 C132 0 135 3 135 8 L135 237 L304 237 L409 8 C411 3 413 0 418 0 L444 0 C449 0 452 3 452 8 L345 239 C418 250 473 310 473 381 L473 381 Z M312 275 L135 275 L135 662 L312 662 C390 662 433 608 433 540 L433 397 C433 329 390 275 312 275 L312 275 Z " />
<glyph glyph-name="racute" unicode="&#x155;" horiz-adv-x="349" d="M185 672 C185 677 182 680 178 680 L154 680 C149 680 146 677 144 672 L101 579 C101 574 104 571 108 571 L132 571 C137 571 140 574 142 579 L185 672 Z M295 480 C300 480 303 483 303 488 L304 510 C304 515 301 518 296 518 C283 519 283 520 260 520 C227 520 174 520 140 442 L135 442 L135 507 C135 512 132 515 127 515 L103 515 C98 515 95 512 95 507 L95 8 C95 3 98 0 103 0 L127 0 C132 0 135 3 135 8 L135 358 C173 465 219 482 257 482 C270 482 281 481 295 480 L295 480 Z " />
<glyph glyph-name="uni0156" unicode="&#x156;" horiz-adv-x="538" d="M283 -61 C283 -56 280 -53 276 -53 L252 -53 C247 -53 244 -56 242 -61 L199 -154 C199 -159 202 -162 206 -162 L230 -162 C235 -162 238 -159 240 -154 L283 -61 Z M473 381 L473 557 C473 635 405 700 322 700 L103 700 C98 700 95 697 95 692 L95 8 C95 3 98 0 103 0 L127 0 C132 0 135 3 135 8 L135 237 L304 237 L409 8 C411 3 413 0 418 0 L444 0 C449 0 452 3 452 8 L345 239 C418 250 473 310 473 381 L473 381 Z M312 275 L135 275 L135 662 L312 662 C390 662 433 608 433 540 L433 397 C433 329 390 275 312 275 L312 275 Z " />
<glyph glyph-name="uni0157" unicode="&#x157;" horiz-adv-x="349" d="M182 -61 C182 -56 179 -53 175 -53 L151 -53 C146 -53 143 -56 141 -61 L98 -154 C98 -159 101 -162 105 -162 L129 -162 C134 -162 137 -159 139 -154 L182 -61 Z M295 480 C300 480 303 483 303 488 L304 510 C304 515 301 518 296 518 C283 519 283 520 260 520 C227 520 174 520 140 442 L135 442 L135 507 C135 512 132 515 127 515 L103 515 C98 515 95 512 95 507 L95 8 C95 3 98 0 103 0 L127 0 C132 0 135 3 135 8 L135 358 C173 465 219 482 257 482 C270 482 281 481 295 480 L295 480 Z " />
<glyph glyph-name="Rcaron" unicode="&#x158;" horiz-adv-x="538" d="M246 751 C250 751 254 753 257 758 L326 871 C326 875 324 878 319 878 L293 878 C290 878 286 875 284 871 L234 783 L184 871 C182 875 178 878 175 878 L149 878 C144 878 142 875 142 871 L211 758 C214 753 218 751 222 751 L246 751 Z M473 381 L473 557 C473 635 405 700 322 700 L103 700 C98 700 95 697 95 692 L95 8 C95 3 98 0 103 0 L127 0 C132 0 135 3 135 8 L135 237 L304 237 L409 8 C411 3 413 0 418 0 L444 0 C449 0 452 3 452 8 L345 239 C418 250 473 310 473 381 L473 381 Z M312 275 L135 275 L135 662 L312 662 C390 662 433 608 433 540 L433 397 C433 329 390 275 312 275 L312 275 Z " />
<glyph glyph-name="rcaron" unicode="&#x159;" horiz-adv-x="349" d="M204 571 C208 571 212 573 215 578 L284 691 C284 695 282 698 277 698 L251 698 C248 698 244 695 242 691 L192 603 L142 691 C140 695 136 698 133 698 L107 698 C102 698 100 695 100 691 L169 578 C172 573 176 571 180 571 L204 571 Z M295 480 C300 480 303 483 303 488 L304 510 C304 515 301 518 296 518 C283 519 283 520 260 520 C227 520 174 520 140 442 L135 442 L135 507 C135 512 132 515 127 515 L103 515 C98 515 95 512 95 507 L95 8 C95 3 98 0 103 0 L127 0 C132 0 135 3 135 8 L135 358 C173 465 219 482 257 482 C270 482 281 481 295 480 L295 480 Z " />
<glyph glyph-name="Sacute" unicode="&#x15a;" horiz-adv-x="522" d="M280 759 C278 754 275 751 270 751 L246 751 C242 751 239 754 239 759 L282 852 C284 857 287 860 292 860 L316 860 C320 860 323 857 323 852 L280 759 Z M65 137 C65 59 123 -5 205 -5 L312 -5 C395 -5 452 59 452 137 L452 156 C452 447 105 282 105 524 L105 547 C105 622 141 667 217 667 L287 667 C363 667 399 622 399 547 L399 534 C399 529 402 526 407 526 L431 526 C436 526 439 529 439 534 L439 563 C439 641 381 705 299 705 L204 705 C122 705 65 641 65 563 L65 537 C65 243 412 403 412 169 L412 153 C412 78 375 33 299 33 L217 33 C141 33 105 78 105 153 L105 166 C105 171 102 174 97 174 L73 174 C68 174 65 171 65 166 L65 137 Z " />
<glyph glyph-name="sacute" unicode="&#x15b;" horiz-adv-x="456" d="M298 672 C298 677 295 680 291 680 L267 680 C262 680 259 677 257 672 L214 579 C214 574 217 571 221 571 L245 571 C250 571 253 574 255 579 L298 672 Z M271 -5 C352 -5 391 55 391 120 L391 128 C391 326 112 236 112 384 L112 394 C112 460 149 482 204 482 L246 482 C309 482 344 441 344 379 L344 367 C344 362 347 359 352 359 L376 359 C381 359 384 362 384 367 L384 389 C384 453 335 520 257 520 L191 520 C112 520 72 467 72 402 L72 394 C72 196 349 284 349 136 L349 126 C349 60 305 33 251 33 L208 33 C145 33 110 74 110 136 L110 148 C110 153 107 156 102 156 L78 156 C73 156 70 153 70 148 L70 126 C70 62 119 -5 197 -5 L271 -5 Z " />
<glyph glyph-name="Scircumflex" unicode="&#x15c;" horiz-adv-x="522" d="M266 878 C270 878 274 876 277 871 L346 758 C346 754 344 751 339 751 L313 751 C310 751 306 754 304 758 L254 846 L204 758 C202 754 198 751 195 751 L169 751 C164 751 162 754 162 758 L231 871 C234 876 238 878 242 878 L266 878 Z M65 137 C65 59 123 -5 205 -5 L312 -5 C395 -5 452 59 452 137 L452 156 C452 447 105 282 105 524 L105 547 C105 622 141 667 217 667 L287 667 C363 667 399 622 399 547 L399 534 C399 529 402 526 407 526 L431 526 C436 526 439 529 439 534 L439 563 C439 641 381 705 299 705 L204 705 C122 705 65 641 65 563 L65 537 C65 243 412 403 412 169 L412 153 C412 78 375 33 299 33 L217 33 C141 33 105 78 105 153 L105 166 C105 171 102 174 97 174 L73 174 C68 174 65 171 65 166 L65 137 Z " />
<glyph glyph-name="scircumflex" unicode="&#x15d;" horiz-adv-x="456" d="M214 698 C210 698 206 696 203 691 L134 578 C134 574 136 571 141 571 L167 571 C170 571 174 574 176 578 L226 666 L276 578 C278 574 282 571 285 571 L311 571 C316 571 318 574 318 578 L249 691 C246 696 242 698 238 698 L214 698 Z M271 -5 C352 -5 391 55 391 120 L391 128 C391 326 112 236 112 384 L112 394 C112 460 149 482 204 482 L246 482 C309 482 344 441 344 379 L344 367 C344 362 347 359 352 359 L376 359 C381 359 384 362 384 367 L384 389 C384 453 335 520 257 520 L191 520 C112 520 72 467 72 402 L72 394 C72 196 349 284 349 136 L349 126 C349 60 305 33 251 33 L208 33 C145 33 110 74 110 136 L110 148 C110 153 107 156 102 156 L78 156 C73 156 70 153 70 148 L70 126 C70 62 119 -5 197 -5 L271 -5 Z " />
<glyph glyph-name="Scedilla" unicode="&#x15e;" horiz-adv-x="522" d="M105 524 L105 547 C105 622 141 667 217 667 L287 667 C363 667 399 622 399 547 L399 534 C399 529 402 526 407 526 L431 526 C436 526 439 529 439 534 L439 563 C439 641 381 705 299 705 L204 705 C122 705 65 641 65 563 L65 537 C65 243 412 403 412 169 L412 153 C412 78 375 33 299 33 L217 33 C141 33 105 78 105 153 L105 166 C105 171 102 174 97 174 L73 174 C68 174 65 171 65 166 L65 137 C65 59 123 -5 205 -5 L245 -5 L216 -63 C214 -67 214 -73 214 -73 L214 -92 C214 -96 217 -99 221 -99 L264 -99 C279 -99 305 -103 305 -133 C305 -161 282 -165 270 -165 L217 -165 C213 -165 210 -167 210 -172 L210 -188 C210 -192 213 -195 217 -195 L273 -195 C313 -195 333 -179 333 -127 C333 -88 304 -69 259 -69 L247 -69 L279 -5 L312 -5 C395 -5 452 59 452 137 L452 156 C452 447 105 282 105 524 L105 524 Z " />
<glyph glyph-name="scedilla" unicode="&#x15f;" horiz-adv-x="456" d="M190 -63 C188 -67 188 -73 188 -73 L188 -92 C188 -96 191 -99 195 -99 L238 -99 C253 -99 279 -103 279 -133 C279 -161 256 -165 244 -165 L191 -165 C187 -165 184 -167 184 -172 L184 -188 C184 -192 187 -195 191 -195 L247 -195 C287 -195 307 -179 307 -127 C307 -88 278 -69 233 -69 L221 -69 L252 -5 L271 -5 C352 -5 391 55 391 120 L391 128 C391 326 112 236 112 384 L112 394 C112 460 149 482 204 482 L246 482 C309 482 344 441 344 379 L344 367 C344 362 347 359 352 359 L376 359 C381 359 384 362 384 367 L384 389 C384 453 335 520 257 520 L191 520 C112 520 72 467 72 402 L72 394 C72 196 349 284 349 136 L349 126 C349 60 305 33 251 33 L208 33 C145 33 110 74 110 136 L110 148 C110 153 107 156 102 156 L78 156 C73 156 70 153 70 148 L70 126 C70 62 119 -5 197 -5 L219 -5 L190 -63 Z " />
<glyph glyph-name="Scaron" unicode="&#x160;" horiz-adv-x="522" d="M239 751 C235 751 231 753 228 758 L159 871 C159 875 161 878 166 878 L192 878 C195 878 199 875 201 871 L251 783 L301 871 C303 875 307 878 310 878 L336 878 C341 878 343 875 343 871 L274 758 C271 753 267 751 263 751 L239 751 Z M65 137 C65 59 123 -5 205 -5 L312 -5 C395 -5 452 59 452 137 L452 156 C452 447 105 282 105 524 L105 547 C105 622 141 667 217 667 L287 667 C363 667 399 622 399 547 L399 534 C399 529 402 526 407 526 L431 526 C436 526 439 529 439 534 L439 563 C439 641 381 705 299 705 L204 705 C122 705 65 641 65 563 L65 537 C65 243 412 403 412 169 L412 153 C412 78 375 33 299 33 L217 33 C141 33 105 78 105 153 L105 166 C105 171 102 174 97 174 L73 174 C68 174 65 171 65 166 L65 137 Z " />
<glyph glyph-name="scaron" unicode="&#x161;" horiz-adv-x="456" d="M236 571 C240 571 244 573 247 578 L316 691 C316 695 314 698 309 698 L283 698 C280 698 276 695 274 691 L224 603 L174 691 C172 695 168 698 165 698 L139 698 C134 698 132 695 132 691 L201 578 C204 573 208 571 212 571 L236 571 Z M271 -5 C352 -5 391 55 391 120 L391 128 C391 326 112 236 112 384 L112 394 C112 460 149 482 204 482 L246 482 C309 482 344 441 344 379 L344 367 C344 362 347 359 352 359 L376 359 C381 359 384 362 384 367 L384 389 C384 453 335 520 257 520 L191 520 C112 520 72 467 72 402 L72 394 C72 196 349 284 349 136 L349 126 C349 60 305 33 251 33 L208 33 C145 33 110 74 110 136 L110 148 C110 153 107 156 102 156 L78 156 C73 156 70 153 70 148 L70 126 C70 62 119 -5 197 -5 L271 -5 Z " />
<glyph glyph-name="uni0162" unicode="&#x162;" horiz-adv-x="494" d="M259 0 C274 0 300 -4 300 -34 C300 -62 277 -66 265 -66 L212 -66 C208 -66 205 -68 205 -73 L205 -89 C205 -93 208 -96 212 -96 L268 -96 C308 -96 328 -84 328 -32 C328 3 304 25 267 29 L267 662 L426 662 C431 662 434 665 434 670 L434 692 C434 697 431 700 426 700 L68 700 C63 700 60 697 60 692 L60 670 C60 665 63 662 68 662 L227 662 L227 8 C227 3 230 0 235 0 L259 0 Z " />
<glyph glyph-name="uni0163" unicode="&#x163;" horiz-adv-x="354" d="M157 -56 C155 -60 155 -66 155 -66 L155 -85 C155 -89 158 -92 162 -92 L205 -92 C220 -92 246 -96 246 -126 C246 -154 223 -158 211 -158 L158 -158 C154 -158 151 -160 151 -165 L151 -181 C151 -185 154 -188 158 -188 L214 -188 C254 -188 274 -172 274 -120 C274 -81 245 -62 200 -62 L188 -62 L223 8 C237 2 253 0 270 0 L291 0 C296 0 299 3 299 8 L299 30 C299 35 296 38 291 38 L271 38 C239 38 181 70 181 145 L181 477 L291 477 C296 477 299 480 299 485 L299 507 C299 512 296 515 291 515 L181 515 L181 692 C181 697 178 700 173 700 L149 700 C144 700 141 697 141 692 L141 515 L58 515 C53 515 50 512 50 507 L50 485 C50 480 53 477 58 477 L141 477 L141 139 C141 90 161 46 197 22 L157 -56 Z " />
<glyph glyph-name="Tcaron" unicode="&#x164;" horiz-adv-x="494" d="M258 751 C262 751 266 753 269 758 L338 871 C338 875 336 878 331 878 L305 878 C302 878 298 875 296 871 L246 783 L196 871 C194 875 190 878 187 878 L161 878 C156 878 154 875 154 871 L223 758 C226 753 230 751 234 751 L258 751 Z M68 700 C63 700 60 697 60 692 L60 670 C60 665 63 662 68 662 L227 662 L227 8 C227 3 230 0 235 0 L259 0 C264 0 267 3 267 8 L267 662 L426 662 C431 662 434 665 434 670 L434 692 C434 697 431 700 426 700 L68 700 Z " />
<glyph glyph-name="tcaron" unicode="&#x165;" horiz-adv-x="518" d="M463 692 C463 697 460 700 456 700 L432 700 C427 700 424 697 422 692 L381 599 C381 594 384 591 388 591 L412 591 C417 591 420 594 422 599 L463 692 Z M291 477 C296 477 299 480 299 485 L299 507 C299 512 296 515 291 515 L181 515 L181 692 C181 697 178 700 173 700 L149 700 C144 700 141 697 141 692 L141 515 L58 515 C53 515 50 512 50 507 L50 485 C50 480 53 477 58 477 L141 477 L141 139 C141 62 191 0 270 0 L291 0 C296 0 299 3 299 8 L299 30 C299 35 296 38 291 38 L271 38 C239 38 181 70 181 145 L181 477 L291 477 Z " />
<glyph glyph-name="Tbar" unicode="&#x166;" horiz-adv-x="494" d="M369 317 C374 317 377 320 377 325 L377 347 C377 352 374 355 369 355 L267 355 L267 662 L426 662 C431 662 434 665 434 670 L434 692 C434 697 431 700 426 700 L68 700 C63 700 60 697 60 692 L60 670 C60 665 63 662 68 662 L227 662 L227 355 L125 355 C120 355 117 352 117 347 L117 325 C117 320 120 317 125 317 L227 317 L227 8 C227 3 230 0 235 0 L259 0 C264 0 267 3 267 8 L267 317 L369 317 Z " />
<glyph glyph-name="tbar" unicode="&#x167;" horiz-adv-x="354" d="M291 256 C296 256 299 259 299 264 L299 286 C299 291 296 294 291 294 L181 294 L181 477 L291 477 C296 477 299 480 299 485 L299 507 C299 512 296 515 291 515 L181 515 L181 692 C181 697 178 700 173 700 L149 700 C144 700 141 697 141 692 L141 515 L58 515 C53 515 50 512 50 507 L50 485 C50 480 53 477 58 477 L141 477 L141 294 L58 294 C53 294 50 291 50 286 L50 264 C50 259 53 256 58 256 L141 256 L141 139 C141 62 191 0 270 0 L291 0 C296 0 299 3 299 8 L299 30 C299 35 296 38 291 38 L271 38 C239 38 181 70 181 145 L181 256 L291 256 Z " />
<glyph glyph-name="Utilde" unicode="&#x168;" horiz-adv-x="566" d="M436 154 C436 79 399 33 323 33 L243 33 C167 33 130 79 130 154 L130 692 C130 697 127 700 122 700 L98 700 C93 700 90 697 90 692 L90 138 C90 60 147 -5 229 -5 L337 -5 C419 -5 476 60 476 138 L476 692 C476 697 473 700 468 700 L444 700 C439 700 436 697 436 692 L436 154 Z M333 789 C286 789 295 821 234 821 C227 821 211 817 200 812 C197 811 196 808 196 805 L202 781 C203 778 206 777 208 777 C215 779 231 783 238 783 C284 783 275 751 337 751 C344 751 360 755 371 760 C374 761 375 764 375 767 L369 791 C368 794 365 795 363 795 C356 793 340 789 333 789 L333 789 Z " />
<glyph glyph-name="utilde" unicode="&#x169;" horiz-adv-x="485" d="M400 507 C400 512 397 515 392 515 L368 515 C363 515 360 512 360 507 L360 136 C360 79 329 33 262 33 L223 33 C156 33 125 79 125 136 L125 507 C125 512 122 515 117 515 L93 515 C88 515 85 512 85 507 L85 126 C85 62 125 -5 203 -5 L282 -5 C360 -5 400 62 400 126 L400 507 Z M283 609 C236 609 245 641 184 641 C177 641 161 637 150 632 C147 631 146 628 146 625 L152 601 C153 598 156 597 158 597 C165 599 181 603 188 603 C234 603 225 571 287 571 C294 571 310 575 321 580 C324 581 325 584 325 587 L319 611 C318 614 315 615 313 615 C306 613 290 609 283 609 L283 609 Z " />
<glyph glyph-name="Umacron" unicode="&#x16a;" horiz-adv-x="566" d="M367 751 C372 751 375 754 375 759 L375 781 C375 786 372 789 367 789 L189 789 C184 789 181 786 181 781 L181 759 C181 754 184 751 189 751 L367 751 Z M436 154 C436 79 399 33 323 33 L243 33 C167 33 130 79 130 154 L130 692 C130 697 127 700 122 700 L98 700 C93 700 90 697 90 692 L90 138 C90 60 147 -5 229 -5 L337 -5 C419 -5 476 60 476 138 L476 692 C476 697 473 700 468 700 L444 700 C439 700 436 697 436 692 L436 154 Z " />
<glyph glyph-name="umacron" unicode="&#x16b;" horiz-adv-x="485" d="M331 571 C336 571 339 574 339 579 L339 601 C339 606 336 609 331 609 L154 609 C149 609 146 606 146 601 L146 579 C146 574 149 571 154 571 L331 571 Z M400 507 C400 512 397 515 392 515 L368 515 C363 515 360 512 360 507 L360 136 C360 79 329 33 262 33 L223 33 C156 33 125 79 125 136 L125 507 C125 512 122 515 117 515 L93 515 C88 515 85 512 85 507 L85 126 C85 62 125 -5 203 -5 L282 -5 C360 -5 400 62 400 126 L400 507 Z " />
<glyph glyph-name="Ubreve" unicode="&#x16c;" horiz-adv-x="566" d="M436 154 C436 79 399 33 323 33 L243 33 C167 33 130 79 130 154 L130 692 C130 697 127 700 122 700 L98 700 C93 700 90 697 90 692 L90 138 C90 60 147 -5 229 -5 L337 -5 C419 -5 476 60 476 138 L476 692 C476 697 473 700 468 700 L444 700 C439 700 436 697 436 692 L436 154 Z M282 751 C349 751 372 785 392 849 C392 854 389 857 384 857 L362 857 C357 857 354 854 352 849 C331 796 310 787 282 787 C254 787 233 796 212 849 C210 854 207 857 202 857 L180 857 C175 857 172 854 172 849 C192 785 215 751 282 751 L282 751 Z " />
<glyph glyph-name="ubreve" unicode="&#x16d;" horiz-adv-x="485" d="M400 507 C400 512 397 515 392 515 L368 515 C363 515 360 512 360 507 L360 136 C360 79 329 33 262 33 L223 33 C156 33 125 79 125 136 L125 507 C125 512 122 515 117 515 L93 515 C88 515 85 512 85 507 L85 126 C85 62 125 -5 203 -5 L282 -5 C360 -5 400 62 400 126 L400 507 Z M242 571 C309 571 332 605 352 669 C352 674 349 677 344 677 L322 677 C317 677 314 674 312 669 C291 616 270 607 242 607 C214 607 193 616 172 669 C170 674 167 677 162 677 L140 677 C135 677 132 674 132 669 C152 605 175 571 242 571 L242 571 Z " />
<glyph glyph-name="Uring" unicode="&#x16e;" horiz-adv-x="566" d="M393 829 C393 890 344 939 283 939 C222 939 173 890 173 829 C173 767 222 719 283 719 C344 719 393 767 393 829 L393 829 Z M359 829 C359 785 326 753 283 753 C241 753 208 785 208 829 C208 873 241 904 283 904 C326 904 359 873 359 829 L359 829 Z M436 154 C436 79 399 33 323 33 L243 33 C167 33 130 79 130 154 L130 692 C130 697 127 700 122 700 L98 700 C93 700 90 697 90 692 L90 138 C90 60 147 -5 229 -5 L337 -5 C419 -5 476 60 476 138 L476 692 C476 697 473 700 468 700 L444 700 C439 700 436 697 436 692 L436 154 Z " />
<glyph glyph-name="uring" unicode="&#x16f;" horiz-adv-x="485" d="M352 681 C352 742 303 791 242 791 C181 791 132 742 132 681 C132 619 181 571 242 571 C303 571 352 619 352 681 L352 681 Z M318 681 C318 637 285 605 242 605 C200 605 167 637 167 681 C167 725 200 756 242 756 C285 756 318 725 318 681 L318 681 Z M400 507 C400 512 397 515 392 515 L368 515 C363 515 360 512 360 507 L360 136 C360 79 329 33 262 33 L223 33 C156 33 125 79 125 136 L125 507 C125 512 122 515 117 515 L93 515 C88 515 85 512 85 507 L85 126 C85 62 125 -5 203 -5 L282 -5 C360 -5 400 62 400 126 L400 507 Z " />
<glyph glyph-name="Uhungarumlaut" unicode="&#x170;" horiz-adv-x="566" d="M303 852 C303 857 300 860 296 860 L272 860 C267 860 264 857 262 852 L217 759 C217 754 220 751 224 751 L248 751 C253 751 256 754 258 759 L303 852 Z M411 852 C411 857 408 860 404 860 L380 860 C375 860 372 857 370 852 L325 759 C325 754 328 751 332 751 L356 751 C361 751 364 754 366 759 L411 852 Z M436 154 C436 79 399 33 323 33 L243 33 C167 33 130 79 130 154 L130 692 C130 697 127 700 122 700 L98 700 C93 700 90 697 90 692 L90 138 C90 60 147 -5 229 -5 L337 -5 C419 -5 476 60 476 138 L476 692 C476 697 473 700 468 700 L444 700 C439 700 436 697 436 692 L436 154 Z " />
<glyph glyph-name="uhungarumlaut" unicode="&#x171;" horiz-adv-x="485" d="M257 672 C257 677 254 680 250 680 L226 680 C221 680 218 677 216 672 L171 579 C171 574 174 571 178 571 L202 571 C207 571 210 574 212 579 L257 672 Z M365 672 C365 677 362 680 358 680 L334 680 C329 680 326 677 324 672 L279 579 C279 574 282 571 286 571 L310 571 C315 571 318 574 320 579 L365 672 Z M400 507 C400 512 397 515 392 515 L368 515 C363 515 360 512 360 507 L360 136 C360 79 329 33 262 33 L223 33 C156 33 125 79 125 136 L125 507 C125 512 122 515 117 515 L93 515 C88 515 85 512 85 507 L85 126 C85 62 125 -5 203 -5 L282 -5 C360 -5 400 62 400 126 L400 507 Z " />
<glyph glyph-name="Uogonek" unicode="&#x172;" horiz-adv-x="566" d="M242 -63 C240 -67 240 -73 240 -73 L240 -92 C240 -96 243 -99 247 -99 L290 -99 C305 -99 331 -103 331 -133 C331 -161 308 -165 296 -165 L243 -165 C239 -165 236 -167 236 -172 L236 -188 C236 -192 239 -195 243 -195 L299 -195 C339 -195 359 -179 359 -127 C359 -88 330 -69 285 -69 L273 -69 L305 -5 L337 -5 C419 -5 476 60 476 138 L476 692 C476 697 473 700 468 700 L444 700 C439 700 436 697 436 692 L436 154 C436 79 399 33 323 33 L243 33 C167 33 130 79 130 154 L130 692 C130 697 127 700 122 700 L98 700 C93 700 90 697 90 692 L90 138 C90 60 147 -5 229 -5 L272 -5 L242 -63 Z " />
<glyph glyph-name="uogonek" unicode="&#x173;" horiz-adv-x="485" d="M400 507 C400 512 397 515 392 515 L368 515 C363 515 360 512 360 507 L360 136 C360 79 329 33 262 33 L223 33 C156 33 125 79 125 136 L125 507 C125 512 122 515 117 515 L93 515 C88 515 85 512 85 507 L85 126 C85 62 125 -5 203 -5 L229 -5 L229 -69 L219 -69 C174 -69 145 -88 145 -127 C145 -179 165 -195 205 -195 L261 -195 C265 -195 268 -192 268 -188 L268 -172 C268 -167 265 -165 261 -165 L208 -165 C196 -165 173 -161 173 -133 C173 -103 199 -99 214 -99 L251 -99 C255 -99 258 -96 258 -92 L258 -5 L282 -5 C360 -5 400 62 400 126 L400 507 Z " />
<glyph glyph-name="Ydieresis" unicode="&#x178;" horiz-adv-x="514" d="M219 795 C219 800 216 803 211 803 L178 803 C173 803 170 800 170 795 L170 759 C170 754 173 751 178 751 L211 751 C216 751 219 754 219 759 L219 795 Z M344 795 C344 800 341 803 336 803 L303 803 C298 803 295 800 295 795 L295 759 C295 754 298 751 303 751 L336 751 C341 751 344 754 344 759 L344 795 Z M277 213 L469 692 C469 697 466 700 461 700 L436 700 C431 700 429 697 427 692 L261 273 L253 273 L87 692 C85 697 83 700 78 700 L53 700 C48 700 45 697 45 692 L237 213 L237 8 C237 3 240 0 245 0 L269 0 C274 0 277 3 277 8 L277 213 Z " />
<glyph glyph-name="Zacute" unicode="&#x179;" horiz-adv-x="486" d="M306 852 C306 857 303 860 299 860 L275 860 C270 860 267 857 265 852 L222 759 C222 754 225 751 229 751 L253 751 C258 751 261 754 263 759 L306 852 Z M369 662 L72 36 C71 34 70 31 70 29 L70 8 C70 3 73 0 78 0 L408 0 C413 0 416 3 416 8 L416 30 C416 35 413 38 408 38 L118 38 L414 664 C415 666 416 669 416 671 L416 692 C416 697 413 700 408 700 L78 700 C73 700 70 697 70 692 L70 670 C70 665 73 662 78 662 L369 662 Z " />
<glyph glyph-name="zacute" unicode="&#x17a;" horiz-adv-x="418" d="M277 672 C277 677 274 680 270 680 L246 680 C241 680 238 677 236 672 L193 579 C193 574 196 571 200 571 L224 571 C229 571 232 574 234 579 L277 672 Z M306 477 L67 36 C66 34 65 31 65 29 L65 8 C65 3 68 0 73 0 L345 0 C350 0 353 3 353 8 L353 30 C353 35 350 38 345 38 L115 38 L351 480 C352 482 353 485 353 487 L353 507 C353 512 350 515 345 515 L73 515 C68 515 65 512 65 507 L65 485 C65 480 68 477 73 477 L306 477 Z " />
<glyph glyph-name="Zdotaccent" unicode="&#x17b;" horiz-adv-x="486" d="M268 795 C268 800 265 803 260 803 L227 803 C222 803 219 800 219 795 L219 759 C219 754 222 751 227 751 L260 751 C265 751 268 754 268 759 L268 795 Z M369 662 L72 36 C71 34 70 31 70 29 L70 8 C70 3 73 0 78 0 L408 0 C413 0 416 3 416 8 L416 30 C416 35 413 38 408 38 L118 38 L414 664 C415 666 416 669 416 671 L416 692 C416 697 413 700 408 700 L78 700 C73 700 70 697 70 692 L70 670 C70 665 73 662 78 662 L369 662 Z " />
<glyph glyph-name="zdotaccent" unicode="&#x17c;" horiz-adv-x="418" d="M235 615 C235 620 232 623 227 623 L194 623 C189 623 186 620 186 615 L186 579 C186 574 189 571 194 571 L227 571 C232 571 235 574 235 579 L235 615 Z M306 477 L67 36 C66 34 65 31 65 29 L65 8 C65 3 68 0 73 0 L345 0 C350 0 353 3 353 8 L353 30 C353 35 350 38 345 38 L115 38 L351 480 C352 482 353 485 353 487 L353 507 C353 512 350 515 345 515 L73 515 C68 515 65 512 65 507 L65 485 C65 480 68 477 73 477 L306 477 Z " />
<glyph glyph-name="Zcaron" unicode="&#x17d;" horiz-adv-x="486" d="M255 751 C259 751 263 753 266 758 L335 871 C335 875 333 878 328 878 L302 878 C299 878 295 875 293 871 L243 783 L193 871 C191 875 187 878 184 878 L158 878 C153 878 151 875 151 871 L220 758 C223 753 227 751 231 751 L255 751 Z M369 662 L72 36 C71 34 70 31 70 29 L70 8 C70 3 73 0 78 0 L408 0 C413 0 416 3 416 8 L416 30 C416 35 413 38 408 38 L118 38 L414 664 C415 666 416 669 416 671 L416 692 C416 697 413 700 408 700 L78 700 C73 700 70 697 70 692 L70 670 C70 665 73 662 78 662 L369 662 Z " />
<glyph glyph-name="zcaron" unicode="&#x17e;" horiz-adv-x="418" d="M221 571 C225 571 229 573 232 578 L301 691 C301 695 299 698 294 698 L268 698 C265 698 261 695 259 691 L209 603 L159 691 C157 695 153 698 150 698 L124 698 C119 698 117 695 117 691 L186 578 C189 573 193 571 197 571 L221 571 Z M306 477 L67 36 C66 34 65 31 65 29 L65 8 C65 3 68 0 73 0 L345 0 C350 0 353 3 353 8 L353 30 C353 35 350 38 345 38 L115 38 L351 480 C352 482 353 485 353 487 L353 507 C353 512 350 515 345 515 L73 515 C68 515 65 512 65 507 L65 485 C65 480 68 477 73 477 L306 477 Z " />
<glyph glyph-name="florin" unicode="&#x192;" horiz-adv-x="343" d="M321 662 C326 662 329 665 329 670 L329 692 C329 697 326 700 321 700 L303 700 C230 700 191 623 174 561 L152 479 L66 479 C61 479 58 476 58 471 L58 449 C58 444 61 441 66 441 L142 441 L-19 -173 C-19 -178 -16 -181 -11 -181 L13 -181 C18 -181 20 -178 22 -173 L183 441 L277 441 C282 441 285 444 285 449 L285 471 C285 476 282 479 277 479 L193 479 L213 561 C224 606 262 662 304 662 L321 662 Z " />
<glyph glyph-name="uni0218" unicode="&#x218;" horiz-adv-x="522" d="M281 -61 C281 -56 278 -53 274 -53 L250 -53 C245 -53 242 -56 240 -61 L197 -154 C197 -159 200 -162 204 -162 L228 -162 C233 -162 236 -159 238 -154 L281 -61 Z M65 137 C65 59 123 -5 205 -5 L312 -5 C395 -5 452 59 452 137 L452 156 C452 447 105 282 105 524 L105 547 C105 622 141 667 217 667 L287 667 C363 667 399 622 399 547 L399 534 C399 529 402 526 407 526 L431 526 C436 526 439 529 439 534 L439 563 C439 641 381 705 299 705 L204 705 C122 705 65 641 65 563 L65 537 C65 243 412 403 412 169 L412 153 C412 78 375 33 299 33 L217 33 C141 33 105 78 105 153 L105 166 C105 171 102 174 97 174 L73 174 C68 174 65 171 65 166 L65 137 Z " />
<glyph glyph-name="uni0219" unicode="&#x219;" horiz-adv-x="456" d="M253 -61 C253 -56 250 -53 246 -53 L222 -53 C217 -53 214 -56 212 -61 L169 -154 C169 -159 172 -162 176 -162 L200 -162 C205 -162 208 -159 210 -154 L253 -61 Z M271 -5 C352 -5 391 55 391 120 L391 128 C391 326 112 236 112 384 L112 394 C112 460 149 482 204 482 L246 482 C309 482 344 441 344 379 L344 367 C344 362 347 359 352 359 L376 359 C381 359 384 362 384 367 L384 389 C384 453 335 520 257 520 L191 520 C112 520 72 467 72 402 L72 394 C72 196 349 284 349 136 L349 126 C349 60 305 33 251 33 L208 33 C145 33 110 74 110 136 L110 148 C110 153 107 156 102 156 L78 156 C73 156 70 153 70 148 L70 126 C70 62 119 -5 197 -5 L271 -5 Z " />
<glyph glyph-name="uni021A" unicode="&#x21a;" horiz-adv-x="494" d="M264 -61 C264 -56 261 -53 257 -53 L233 -53 C228 -53 225 -56 223 -61 L180 -154 C180 -159 183 -162 187 -162 L211 -162 C216 -162 219 -159 221 -154 L264 -61 Z M68 700 C63 700 60 697 60 692 L60 670 C60 665 63 662 68 662 L227 662 L227 8 C227 3 230 0 235 0 L259 0 C264 0 267 3 267 8 L267 662 L426 662 C431 662 434 665 434 670 L434 692 C434 697 431 700 426 700 L68 700 Z " />
<glyph glyph-name="uni021B" unicode="&#x21b;" horiz-adv-x="354" d="M265 -61 C265 -56 262 -53 258 -53 L234 -53 C229 -53 226 -56 224 -61 L181 -154 C181 -159 184 -162 188 -162 L212 -162 C217 -162 220 -159 222 -154 L265 -61 Z M291 477 C296 477 299 480 299 485 L299 507 C299 512 296 515 291 515 L181 515 L181 692 C181 697 178 700 173 700 L149 700 C144 700 141 697 141 692 L141 515 L58 515 C53 515 50 512 50 507 L50 485 C50 480 53 477 58 477 L141 477 L141 139 C141 62 191 0 270 0 L291 0 C296 0 299 3 299 8 L299 30 C299 35 296 38 291 38 L271 38 C239 38 181 70 181 145 L181 477 L291 477 Z " />
<glyph glyph-name="circumflex" unicode="&#x2c6;" horiz-adv-x="374" d="M175 700 C171 700 167 698 164 693 L95 580 C95 576 97 573 102 573 L128 573 C131 573 135 576 137 580 L187 668 L237 580 C239 576 243 573 246 573 L272 573 C277 573 279 576 279 580 L210 693 C207 698 203 700 199 700 L175 700 Z " />
<glyph glyph-name="caron" unicode="&#x2c7;" horiz-adv-x="374" d="M199 573 C203 573 207 575 210 580 L279 693 C279 697 277 700 272 700 L246 700 C243 700 239 697 237 693 L187 605 L137 693 C135 697 131 700 128 700 L102 700 C97 700 95 697 95 693 L164 580 C167 575 171 573 175 573 L199 573 Z " />
<glyph glyph-name="breve" unicode="&#x2d8;" horiz-adv-x="410" d="M205 594 C272 594 295 628 315 692 C315 697 312 700 307 700 L285 700 C280 700 277 697 275 692 C254 639 233 630 205 630 C177 630 156 639 135 692 C133 697 130 700 125 700 L103 700 C98 700 95 697 95 692 C115 628 138 594 205 594 L205 594 Z " />
<glyph glyph-name="dotaccent" unicode="&#x2d9;" horiz-adv-x="239" d="M144 692 C144 697 141 700 136 700 L103 700 C98 700 95 697 95 692 L95 656 C95 651 98 648 103 648 L136 648 C141 648 144 651 144 656 L144 692 Z " />
<glyph glyph-name="ring" unicode="&#x2da;" horiz-adv-x="410" d="M315 641 C315 702 266 751 205 751 C144 751 95 702 95 641 C95 579 144 531 205 531 C266 531 315 579 315 641 L315 641 Z M281 641 C281 597 248 565 205 565 C163 565 130 597 130 641 C130 685 163 716 205 716 C248 716 281 685 281 641 L281 641 Z " />
<glyph glyph-name="ogonek" unicode="&#x2db;" horiz-adv-x="313" d="M214 -6 C214 -2 212 0 208 0 L191 0 C187 0 185 -2 185 -6 L185 -69 L169 -69 C124 -69 95 -88 95 -127 C95 -179 115 -195 155 -195 L211 -195 C215 -195 218 -192 218 -188 L218 -172 C218 -167 215 -165 211 -165 L158 -165 C146 -165 123 -161 123 -133 C123 -103 149 -99 164 -99 L207 -99 C211 -99 214 -96 214 -92 L214 -6 Z " />
<glyph glyph-name="tilde" unicode="&#x2dc;" horiz-adv-x="369" d="M232 668 C185 668 194 700 133 700 C126 700 110 696 99 691 C96 690 95 687 95 684 L101 660 C102 657 105 656 107 656 C114 658 130 662 137 662 C183 662 174 630 236 630 C243 630 259 634 270 639 C273 640 274 643 274 646 L268 670 C267 673 264 674 262 674 C255 672 239 668 232 668 L232 668 Z " />
<glyph glyph-name="hungarumlaut" unicode="&#x2dd;" horiz-adv-x="384" d="M181 692 C181 697 178 700 174 700 L150 700 C145 700 142 697 140 692 L95 599 C95 594 98 591 102 591 L126 591 C131 591 134 594 136 599 L181 692 Z M289 692 C289 697 286 700 282 700 L258 700 C253 700 250 697 248 692 L203 599 C203 594 206 591 210 591 L234 591 C239 591 242 594 244 599 L289 692 Z " />
<glyph glyph-name="uni03A9" unicode="&#x3a9;" horiz-adv-x="731" d="M315 705 C230 705 171 640 171 562 L171 153 C171 137 173 68 206 38 L103 38 C98 38 95 35 95 30 L95 8 C95 3 98 0 103 0 L249 0 C254 0 257 3 257 8 L257 30 C257 35 256 38 251 38 C230 38 211 108 211 153 L211 545 C211 611 247 667 323 667 L408 667 C484 667 520 611 520 545 L520 153 C520 108 501 38 480 38 C475 38 474 35 474 30 L474 8 C474 3 477 0 482 0 L628 0 C633 0 636 3 636 8 L636 30 C636 35 633 38 628 38 L525 38 C558 68 560 137 560 153 L560 562 C560 640 501 705 416 705 L315 705 Z " />
<glyph glyph-name="pi" unicode="&#x3c0;" horiz-adv-x="745" d="M103 515 C98 515 95 512 95 507 L95 485 C95 480 98 477 103 477 L238 477 L238 8 C238 3 241 0 246 0 L270 0 C275 0 278 3 278 8 L278 477 L467 477 L467 8 C467 3 470 0 475 0 L499 0 C504 0 507 3 507 8 L507 477 L642 477 C647 477 650 480 650 485 L650 507 C650 512 647 515 642 515 L103 515 Z " />
<glyph glyph-name="ZWSP" unicode="&#x200b;" d="" />
<glyph glyph-name="endash" unicode="&#x2013;" horiz-adv-x="351" d="M248 212 C253 212 256 215 256 220 L256 242 C256 247 253 250 248 250 L103 250 C98 250 95 247 95 242 L95 220 C95 215 98 212 103 212 L248 212 Z " />
<glyph glyph-name="emdash" unicode="&#x2014;" horiz-adv-x="403" d="M300 212 C305 212 308 215 308 220 L308 242 C308 247 305 250 300 250 L103 250 C98 250 95 247 95 242 L95 220 C95 215 98 212 103 212 L300 212 Z " />
<glyph glyph-name="quoteleft" unicode="&#x2018;" horiz-adv-x="265" d="M170 692 C170 697 167 700 163 700 L139 700 C134 700 131 697 129 692 L95 599 C95 594 98 591 102 591 L126 591 C131 591 134 594 136 599 L170 692 Z " />
<glyph glyph-name="quoteright" unicode="&#x2019;" horiz-adv-x="265" d="M95 599 C95 594 98 591 102 591 L126 591 C131 591 134 594 136 599 L170 692 C170 697 167 700 163 700 L139 700 C134 700 131 697 129 692 L95 599 Z " />
<glyph glyph-name="quotesinglbase" unicode="&#x201a;" horiz-adv-x="265" d="M170 68 C170 73 167 76 163 76 L139 76 C134 76 131 73 129 68 L95 -25 C95 -30 98 -33 102 -33 L126 -33 C131 -33 134 -30 136 -25 L170 68 Z " />
<glyph glyph-name="quotedblleft" unicode="&#x201c;" horiz-adv-x="373" d="M170 692 C170 697 167 700 163 700 L139 700 C134 700 131 697 129 692 L95 599 C95 594 98 591 102 591 L126 591 C131 591 134 594 136 599 L170 692 Z M278 692 C278 697 275 700 271 700 L247 700 C242 700 239 697 237 692 L203 599 C203 594 206 591 210 591 L234 591 C239 591 242 594 244 599 L278 692 Z " />
<glyph glyph-name="quotedblright" unicode="&#x201d;" horiz-adv-x="373" d="M203 599 C203 594 206 591 210 591 L234 591 C239 591 242 594 244 599 L278 692 C278 697 275 700 271 700 L247 700 C242 700 239 697 237 692 L203 599 Z M95 599 C95 594 98 591 102 591 L126 591 C131 591 134 594 136 599 L170 692 C170 697 167 700 163 700 L139 700 C134 700 131 697 129 692 L95 599 Z " />
<glyph glyph-name="quotedblbase" unicode="&#x201e;" horiz-adv-x="373" d="M170 68 C170 73 167 76 163 76 L139 76 C134 76 131 73 129 68 L95 -25 C95 -30 98 -33 102 -33 L126 -33 C131 -33 134 -30 136 -25 L170 68 Z M278 68 C278 73 275 76 271 76 L247 76 C242 76 239 73 237 68 L203 -25 C203 -30 206 -33 210 -33 L234 -33 C239 -33 242 -30 244 -25 L278 68 Z " />
<glyph glyph-name="dagger" unicode="&#x2020;" horiz-adv-x="442" d="M241 692 C241 697 238 700 233 700 L209 700 C204 700 201 697 201 692 L201 537 L103 537 C98 537 95 534 95 529 L95 507 C95 502 98 499 103 499 L201 499 L201 -260 C201 -265 204 -268 209 -268 L233 -268 C238 -268 241 -265 241 -260 L241 499 L339 499 C344 499 347 502 347 507 L347 529 C347 534 344 537 339 537 L241 537 L241 692 Z " />
<glyph glyph-name="daggerdbl" unicode="&#x2021;" horiz-adv-x="442" d="M339 -51 C344 -51 347 -48 347 -43 L347 -21 C347 -16 344 -13 339 -13 L241 -13 L241 499 L339 499 C344 499 347 502 347 507 L347 529 C347 534 344 537 339 537 L241 537 L241 692 C241 697 238 700 233 700 L209 700 C204 700 201 697 201 692 L201 537 L103 537 C98 537 95 534 95 529 L95 507 C95 502 98 499 103 499 L201 499 L201 -13 L103 -13 C98 -13 95 -16 95 -21 L95 -43 C95 -48 98 -51 103 -51 L201 -51 L201 -260 C201 -265 204 -268 209 -268 L233 -268 C238 -268 241 -265 241 -260 L241 -51 L339 -51 Z " />
<glyph glyph-name="bullet" unicode="&#x2022;" horiz-adv-x="239" d="M144 234 C144 239 141 242 136 242 L103 242 C98 242 95 239 95 234 L95 198 C95 193 98 190 103 190 L136 190 C141 190 144 193 144 198 L144 234 Z " />
<glyph glyph-name="ellipsis" unicode="&#x2026;" horiz-adv-x="907" d="M144 39 C144 44 141 47 136 47 L103 47 C98 47 95 44 95 39 L95 3 C95 -2 98 -5 103 -5 L136 -5 C141 -5 144 -2 144 3 L144 39 Z M478 39 C478 44 475 47 470 47 L437 47 C432 47 429 44 429 39 L429 3 C429 -2 432 -5 437 -5 L470 -5 C475 -5 478 -2 478 3 L478 39 Z M812 39 C812 44 809 47 804 47 L771 47 C766 47 763 44 763 39 L763 3 C763 -2 766 -5 771 -5 L804 -5 C809 -5 812 -2 812 3 L812 39 Z " />
<glyph glyph-name="perthousand" unicode="&#x2030;" horiz-adv-x="1065" d="M236 8 C236 3 239 0 244 0 L270 0 C275 0 277 3 279 8 L568 692 C568 697 565 700 560 700 L534 700 C529 700 527 697 525 692 L236 8 Z M206 700 C145 700 95 650 95 588 C95 527 145 476 206 476 C268 476 318 527 318 588 C318 650 268 700 206 700 L206 700 Z M206 516 C166 516 134 552 134 588 C134 631 166 661 206 661 C248 661 280 631 280 588 C280 552 248 516 206 516 L206 516 Z M582 224 C521 224 471 174 471 112 C471 51 521 0 582 0 C644 0 694 51 694 112 C694 174 644 224 582 224 L582 224 Z M582 40 C542 40 510 76 510 112 C510 155 542 185 582 185 C624 185 656 155 656 112 C656 76 624 40 582 40 L582 40 Z M858 224 C797 224 747 174 747 112 C747 51 797 0 858 0 C920 0 970 51 970 112 C970 174 920 224 858 224 L858 224 Z M858 40 C818 40 786 76 786 112 C786 155 818 185 858 185 C900 185 932 155 932 112 C932 76 900 40 858 40 L858 40 Z " />
<glyph glyph-name="guilsinglleft" unicode="&#x2039;" horiz-adv-x="393" d="M95 189 C95 184 97 181 103 179 L290 105 C295 105 298 108 298 113 L298 140 C298 145 295 147 290 149 L127 214 L127 220 L290 285 C295 287 298 289 298 294 L298 321 C298 326 295 329 290 329 L103 255 C97 253 95 250 95 245 L95 189 Z " />
<glyph glyph-name="guilsinglright" unicode="&#x203a;" horiz-adv-x="393" d="M298 245 C298 250 296 253 290 255 L103 329 C98 329 95 326 95 321 L95 294 C95 289 98 287 103 285 L266 220 L266 214 L103 149 C98 147 95 145 95 140 L95 113 C95 108 98 105 103 105 L290 179 C296 181 298 184 298 189 L298 245 Z " />
<glyph glyph-name="fraction" unicode="&#x2044;" horiz-adv-x="543" d="M95 -171 C95 -176 98 -179 103 -179 L129 -179 C134 -179 136 -176 138 -171 L448 796 C448 801 445 804 440 804 L414 804 C409 804 407 801 405 796 L95 -171 Z " />
<glyph glyph-name="Euro" unicode="&#x20ac;" horiz-adv-x="661" d="M304 234 C309 234 312 237 312 242 L312 264 C312 269 309 272 304 272 L220 272 L220 422 L304 422 C309 422 312 425 312 430 L312 452 C312 457 309 460 304 460 L220 460 L220 547 C220 622 257 667 333 667 L413 667 C489 667 526 622 526 547 L526 513 C526 508 529 505 534 505 L558 505 C563 505 566 508 566 513 L566 562 C566 640 509 705 427 705 L319 705 C237 705 180 640 180 562 L180 460 L103 460 C98 460 95 457 95 452 L95 430 C95 425 98 422 103 422 L180 422 L180 272 L103 272 C98 272 95 269 95 264 L95 242 C95 237 98 234 103 234 L180 234 L180 138 C180 60 237 -5 319 -5 L427 -5 C509 -5 566 60 566 138 L566 187 C566 192 563 195 558 195 L534 195 C529 195 526 192 526 187 L526 153 C526 78 489 33 413 33 L333 33 C257 33 220 79 220 154 L220 234 L304 234 Z " />
<glyph glyph-name="Numero" unicode="&#x2116;" horiz-adv-x="1028" d="M842 0 C847 0 850 3 850 8 L850 30 C850 35 847 38 842 38 L697 38 C692 38 689 35 689 30 L689 8 C689 3 692 0 697 0 L842 0 Z M440 8 C442 4 446 0 451 0 L506 0 C511 0 514 3 514 8 L514 692 C514 697 511 700 506 700 L482 700 C477 700 474 697 474 692 L474 46 L467 46 L169 692 C167 696 163 700 158 700 L103 700 C98 700 95 697 95 692 L95 8 C95 3 98 0 103 0 L127 0 C132 0 135 3 135 8 L135 658 L142 658 L440 8 Z M756 213 C689 213 658 259 658 316 L658 559 C658 616 689 662 756 662 L795 662 C862 662 893 616 893 559 L893 316 C893 259 862 213 795 213 L756 213 Z M815 175 C893 175 933 242 933 306 L933 569 C933 633 893 700 815 700 L736 700 C658 700 618 633 618 569 L618 306 C618 242 658 175 736 175 L815 175 Z " />
<glyph glyph-name="trademark" unicode="&#x2122;" horiz-adv-x="734" d="M101 700 C98 700 95 697 95 694 L95 674 C95 671 98 668 101 668 L166 668 L166 424 C166 421 169 418 172 418 L192 418 C195 418 198 421 198 424 L198 668 L263 668 C266 668 269 671 269 674 L269 694 C269 697 266 700 263 700 L101 700 Z M500 467 C501 467 502 468 503 470 L607 653 L607 424 C607 421 610 418 613 418 L633 418 C636 418 639 421 639 424 L639 694 C639 697 636 700 633 700 L601 700 C598 700 595 697 593 694 L494 518 L395 694 C393 697 390 700 387 700 L355 700 C352 700 349 697 349 694 L349 424 C349 421 352 418 355 418 L375 418 C378 418 381 421 381 424 L381 653 L485 470 C486 468 487 467 488 467 L500 467 Z " />
<glyph glyph-name="Omega" unicode="&#x2126;" horiz-adv-x="731" d="M315 705 C230 705 171 640 171 562 L171 153 C171 137 173 68 206 38 L103 38 C98 38 95 35 95 30 L95 8 C95 3 98 0 103 0 L249 0 C254 0 257 3 257 8 L257 30 C257 35 256 38 251 38 C230 38 211 108 211 153 L211 545 C211 611 247 667 323 667 L408 667 C484 667 520 611 520 545 L520 153 C520 108 501 38 480 38 C475 38 474 35 474 30 L474 8 C474 3 477 0 482 0 L628 0 C633 0 636 3 636 8 L636 30 C636 35 633 38 628 38 L525 38 C558 68 560 137 560 153 L560 562 C560 640 501 705 416 705 L315 705 Z " />
<glyph glyph-name="partialdiff" unicode="&#x2202;" horiz-adv-x="517" d="M233 33 C166 33 135 79 135 136 L135 294 C135 351 166 397 233 397 L273 397 C338 397 382 341 382 284 L382 146 C382 89 338 33 273 33 L233 33 Z M422 574 C422 638 382 705 304 705 L235 705 C157 705 117 638 117 574 L117 553 C117 548 120 545 125 545 L149 545 C154 545 157 548 157 553 L157 564 C157 621 188 667 255 667 L284 667 C351 667 382 621 382 564 L382 380 L377 380 C350 425 312 435 285 435 L221 435 C143 435 95 378 95 302 L95 128 C95 52 143 -5 221 -5 L285 -5 C312 -5 350 5 377 50 L382 50 L382 8 C382 3 385 0 390 0 L414 0 C419 0 422 3 422 8 L422 574 Z " />
<glyph glyph-name="Delta" unicode="&#x2206;" horiz-adv-x="830" d="M679 38 L151 38 L415 662 L679 38 Z M727 0 C732 0 735 3 735 8 L446 691 C444 696 441 700 436 700 L394 700 C389 700 386 696 384 691 L95 8 C95 3 98 0 103 0 L727 0 Z " />
<glyph glyph-name="product" unicode="&#x220f;" horiz-adv-x="745" d="M103 700 C98 700 95 697 95 692 L95 670 C95 665 98 662 103 662 L238 662 L238 8 C238 3 241 0 246 0 L270 0 C275 0 278 3 278 8 L278 662 L467 662 L467 8 C467 3 470 0 475 0 L499 0 C504 0 507 3 507 8 L507 662 L642 662 C647 662 650 665 650 670 L650 692 C650 697 647 700 642 700 L103 700 Z " />
<glyph glyph-name="summation" unicode="&#x2211;" horiz-adv-x="493" d="M254 345 L95 42 L95 8 C95 3 98 0 103 0 L390 0 C395 0 398 3 398 8 L398 30 C398 35 395 38 390 38 L137 38 C172 96 208 178 302 344 L302 356 C208 522 172 604 137 662 L390 662 C395 662 398 665 398 670 L398 692 C398 697 395 700 390 700 L103 700 C98 700 95 697 95 692 L95 658 L254 355 L254 345 Z " />
<glyph glyph-name="minus" unicode="&#x2212;" horiz-adv-x="351" d="M248 212 C253 212 256 215 256 220 L256 242 C256 247 253 250 248 250 L103 250 C98 250 95 247 95 242 L95 220 C95 215 98 212 103 212 L248 212 Z " />
<glyph glyph-name="radical" unicode="&#x221a;" horiz-adv-x="699" d="M596 662 C601 662 604 665 604 670 L604 692 C604 697 601 700 596 700 L442 700 C437 700 435 697 433 692 L242 53 L234 53 L137 376 C135 381 133 384 128 384 L103 384 C98 384 95 381 95 376 L207 8 C209 3 212 0 218 0 L258 0 C264 0 267 3 269 8 L466 662 L596 662 Z " />
<glyph glyph-name="infinity" unicode="&#x221e;" horiz-adv-x="910" d="M435 222 C435 166 395 121 329 121 L241 121 C173 121 135 163 135 222 L135 296 C135 355 173 397 241 397 L329 397 C395 397 435 352 435 296 L435 222 Z M475 296 C475 352 515 397 581 397 L669 397 C737 397 775 355 775 296 L775 222 C775 163 737 121 669 121 L581 121 C515 121 475 166 475 222 L475 296 Z M455 155 C481 96 540 83 566 83 L694 83 C770 83 815 145 815 207 L815 311 C815 373 770 435 694 435 L566 435 C540 435 481 422 455 363 C429 422 370 435 344 435 L216 435 C140 435 95 373 95 311 L95 207 C95 145 140 83 216 83 L344 83 C370 83 429 96 455 155 L455 155 Z " />
<glyph glyph-name="integral" unicode="&#x222b;" horiz-adv-x="434" d="M318 700 C273 679 197 620 197 518 L197 -1 C197 -1 192 -88 98 -141 C96 -143 95 -145 95 -149 L106 -178 C107 -181 110 -182 112 -182 C112 -182 114 -182 116 -181 C161 -160 237 -101 237 1 L237 520 C237 520 242 607 336 660 C338 662 339 664 339 668 L328 697 C327 700 324 701 322 701 C322 701 320 701 318 700 L318 700 Z " />
<glyph glyph-name="approxequal" unicode="&#x2248;" horiz-adv-x="369" d="M232 149 C185 149 194 181 133 181 C126 181 110 177 99 172 C96 171 95 168 95 165 L101 141 C102 138 105 137 107 137 C114 139 130 143 137 143 C183 143 174 111 236 111 C243 111 259 115 270 120 C273 121 274 124 274 127 L268 151 C267 154 264 155 262 155 C255 153 239 149 232 149 L232 149 Z M232 303 C185 303 194 335 133 335 C126 335 110 331 99 326 C96 325 95 322 95 319 L101 295 C102 292 105 291 107 291 C114 293 130 297 137 297 C183 297 174 265 236 265 C243 265 259 269 270 274 C273 275 274 278 274 281 L268 305 C267 308 264 309 262 309 C255 307 239 303 232 303 L232 303 Z " />
<glyph glyph-name="notequal" unicode="&#x2260;" horiz-adv-x="386" d="M95 8 C95 3 98 0 103 0 L129 0 C134 0 136 3 138 8 L172 114 L273 114 C278 114 281 117 281 122 L281 144 C281 149 278 152 273 152 L184 152 L234 307 L273 307 C278 307 281 310 281 315 L281 337 C281 342 278 345 273 345 L246 345 L291 483 C291 488 288 491 283 491 L257 491 C252 491 250 488 248 483 L203 345 L106 345 C101 345 98 342 98 337 L98 315 C98 310 101 307 106 307 L191 307 L141 152 L106 152 C101 152 98 149 98 144 L98 122 C98 117 101 114 106 114 L129 114 L95 8 Z " />
<glyph glyph-name="lessequal" unicode="&#x2264;" horiz-adv-x="393" d="M290 0 C295 0 298 3 298 8 L298 30 C298 35 295 38 290 38 L103 38 C98 38 95 35 95 30 L95 8 C95 3 98 0 103 0 L290 0 Z M95 199 C95 194 97 191 103 189 L290 115 C295 115 298 118 298 123 L298 150 C298 155 295 157 290 159 L127 224 L127 230 L290 295 C295 297 298 299 298 304 L298 331 C298 336 295 339 290 339 L103 265 C97 263 95 260 95 255 L95 199 Z " />
<glyph glyph-name="greaterequal" unicode="&#x2265;" horiz-adv-x="393" d="M290 0 C295 0 298 3 298 8 L298 30 C298 35 295 38 290 38 L103 38 C98 38 95 35 95 30 L95 8 C95 3 98 0 103 0 L290 0 Z M298 255 C298 260 296 263 290 265 L103 339 C98 339 95 336 95 331 L95 304 C95 299 98 297 103 295 L266 230 L266 224 L103 159 C98 157 95 155 95 150 L95 123 C95 118 98 115 103 115 L290 189 C296 191 298 194 298 199 L298 255 Z " />
<glyph glyph-name="lozenge" unicode="&#x25ca;" horiz-adv-x="614" d="M307 33 L140 349 L307 667 L474 349 L307 33 Z M328 0 C334 0 337 4 339 8 L519 350 L341 692 C339 696 336 700 330 700 L284 700 C278 700 275 696 273 692 L95 350 L275 8 C277 4 280 0 286 0 L328 0 Z " />
<glyph glyph-name="uni25CC" unicode="&#x25cc;" horiz-adv-x="199" d="" />
<glyph glyph-name="fi" unicode="&#xfb01;" horiz-adv-x="590" d="M291 706 C296 706 299 709 299 714 L299 736 C299 741 296 744 291 744 L271 744 C192 744 141 682 141 611 L141 515 L58 515 C53 515 50 512 50 507 L50 485 C50 480 53 477 58 477 L141 477 L141 8 C141 3 144 0 149 0 L173 0 C178 0 181 3 181 8 L181 477 L291 477 C296 477 299 480 299 485 L299 507 C299 512 296 515 291 515 L181 515 L181 602 C181 667 229 706 282 706 L291 706 Z M495 507 C495 512 492 515 487 515 L463 515 C458 515 455 512 455 507 L455 8 C455 3 458 0 463 0 L487 0 C492 0 495 3 495 8 L495 507 Z M497 647 C497 652 494 655 489 655 L461 655 C456 655 453 652 453 647 L453 586 C453 581 456 578 461 578 L489 578 C494 578 497 581 497 586 L497 647 Z " />
<glyph glyph-name="fl" unicode="&#xfb02;" horiz-adv-x="590" d="M291 706 C296 706 299 709 299 714 L299 736 C299 741 296 744 291 744 L271 744 C192 744 141 682 141 611 L141 515 L58 515 C53 515 50 512 50 507 L50 485 C50 480 53 477 58 477 L141 477 L141 8 C141 3 144 0 149 0 L173 0 C178 0 181 3 181 8 L181 477 L291 477 C296 477 299 480 299 485 L299 507 C299 512 296 515 291 515 L181 515 L181 602 C181 667 229 706 282 706 L291 706 Z M495 692 C495 697 492 700 487 700 L463 700 C458 700 455 697 455 692 L455 8 C455 3 458 0 463 0 L487 0 C492 0 495 3 495 8 L495 692 Z " />
</font>
</svg>
