<?xml version="1.0" encoding="UTF-8"?>
<svg xmlns="http://www.w3.org/2000/svg" xmlns:xlink="http://www.w3.org/1999/xlink" version="1.2" >
<font id="Tomkin Black">
<font-face  font-family="Tomkin" units-per-em="1000" ascent="750" descent="-250" font-style="normal" font-weight="900" font-stretch="normal" cap-height="700" x-height="516" underline-position="-91" underline-thickness="35" />
<missing-glyph  horiz-adv-x="569" d="" />
<glyph glyph-name="space" unicode="&#x20;" horiz-adv-x="182" d="" />
<glyph glyph-name="exclam" unicode="&#x21;" horiz-adv-x="284" d="M60 15 C60 3 69 -6 81 -6 L203 -6 C215 -6 224 3 224 15 L224 112 C224 124 215 133 203 133 L81 133 C69 133 60 124 60 112 L60 15 Z M187 163 C199 163 206 173 207 184 L221 303 L221 679 C221 691 212 700 200 700 L84 700 C72 700 63 691 63 679 L63 303 L77 184 C78 173 85 163 97 163 L187 163 Z " />
<glyph glyph-name="quotedbl" unicode="&#x22;" horiz-adv-x="467" d="M75 460 C76 448 84 439 96 439 L174 439 C186 439 194 448 195 460 L209 584 L209 679 C209 691 200 700 188 700 L81 700 C69 700 60 691 60 679 L60 584 L75 460 Z M273 460 C274 448 282 439 294 439 L372 439 C384 439 392 448 393 460 L407 584 L407 679 C407 691 398 700 386 700 L279 700 C267 700 258 691 258 679 L258 584 L273 460 Z " />
<glyph glyph-name="numbersign" unicode="&#x23;" horiz-adv-x="813" d="M384 417 L485 417 L441 282 L340 282 L384 417 Z M696 567 L732 679 C732 691 723 700 711 700 L592 700 C580 700 574 690 569 679 L533 567 L432 567 L468 679 C468 691 459 700 447 700 L328 700 C316 700 310 690 305 679 L269 567 L192 567 C180 567 171 558 171 546 L171 438 C171 426 180 417 192 417 L221 417 L177 282 L81 282 C69 282 60 273 60 261 L60 153 C60 141 69 132 81 132 L129 132 L93 21 C93 9 102 0 114 0 L233 0 C245 0 251 10 256 21 L292 132 L394 132 L357 21 C357 9 366 0 378 0 L497 0 C509 0 515 10 520 21 L556 132 L622 132 C634 132 643 141 643 153 L643 261 C643 273 634 282 622 282 L604 282 L647 417 L732 417 C744 417 753 426 753 438 L753 546 C753 558 744 567 732 567 L696 567 Z " />
<glyph glyph-name="dollar" unicode="&#x24;" horiz-adv-x="617" d="M335 418 C272 432 220 442 220 492 L220 517 C220 538 236 555 256 555 L354 555 C373 555 389 538 389 517 L389 491 C389 479 398 470 410 470 L526 470 C538 470 547 479 547 491 L547 524 C547 617 475 693 384 704 L384 811 C384 823 375 832 363 832 L261 832 C249 832 240 823 240 811 L240 705 C140 701 60 622 60 524 L60 503 C60 332 187 297 286 275 C346 262 398 250 398 206 L398 183 C398 162 381 145 362 145 L253 145 C234 145 218 162 218 183 L218 215 C218 227 209 236 197 236 L81 236 C69 236 60 227 60 215 L60 176 C60 77 141 -2 240 -5 L240 -116 C240 -128 249 -137 261 -137 L363 -137 C375 -137 384 -128 384 -116 L384 -4 C481 3 557 80 557 176 L557 192 C557 369 435 396 335 418 L335 418 Z " />
<glyph glyph-name="percent" unicode="&#x25;" horiz-adv-x="776" d="M201 700 C124 700 60 637 60 558 C60 481 124 417 201 417 C281 417 344 481 344 558 C344 637 281 700 201 700 L201 700 Z M201 517 C179 517 160 536 160 558 C160 581 179 600 201 600 C224 600 243 581 243 558 C243 536 224 517 201 517 L201 517 Z M612 679 C612 691 603 700 591 700 L472 700 C460 700 454 690 449 679 L161 21 C161 9 170 0 182 0 L301 0 C313 0 319 10 324 21 L612 679 Z M573 283 C496 283 432 220 432 141 C432 64 496 0 573 0 C653 0 716 64 716 141 C716 220 653 283 573 283 L573 283 Z M573 100 C551 100 532 119 532 141 C532 164 551 183 573 183 C596 183 615 164 615 141 C615 119 596 100 573 100 L573 100 Z " />
<glyph glyph-name="ampersand" unicode="&#x26;" horiz-adv-x="650" d="M385 278 L385 150 L253 150 C233 150 218 167 218 188 L218 240 C218 261 233 278 253 278 L385 278 Z M594 278 C606 278 615 287 615 299 L615 401 C615 413 606 422 594 422 L278 422 C259 422 243 439 243 460 L243 517 C243 538 259 555 278 555 L350 555 C368 555 385 538 385 517 L385 484 C385 472 394 463 406 463 L522 463 C534 463 543 472 543 484 L543 524 C543 625 462 705 358 705 L272 705 C168 705 85 625 85 524 L85 459 C85 425 101 393 118 367 C86 334 60 290 60 241 L60 181 C60 80 141 0 245 0 L522 0 C534 0 543 9 543 21 L543 278 L594 278 Z " />
<glyph glyph-name="quotesingle" unicode="&#x27;" horiz-adv-x="269" d="M75 460 C76 448 84 439 96 439 L174 439 C186 439 194 448 195 460 L209 584 L209 679 C209 691 200 700 188 700 L81 700 C69 700 60 691 60 679 L60 584 L75 460 Z " />
<glyph glyph-name="parenleft" unicode="&#x28;" horiz-adv-x="329" d="M218 312 C218 460 235 634 269 784 C269 796 260 805 248 805 L131 805 C119 805 110 796 107 784 C74 636 60 462 60 312 C60 162 74 -9 107 -157 C110 -169 119 -178 131 -178 L248 -178 C260 -178 269 -169 269 -157 C235 -7 218 164 218 312 L218 312 Z " />
<glyph glyph-name="parenright" unicode="&#x29;" horiz-adv-x="329" d="M111 312 C111 164 94 -7 60 -157 C60 -169 69 -178 81 -178 L198 -178 C210 -178 219 -169 222 -157 C255 -9 269 162 269 312 C269 462 255 636 222 784 C219 796 210 805 198 805 L81 805 C69 805 60 796 60 784 C94 634 111 460 111 312 L111 312 Z " />
<glyph glyph-name="asterisk" unicode="&#x2a;" horiz-adv-x="500" d="M208 700 C198 700 189 693 189 683 L189 595 L135 630 C132 632 128 634 125 634 C120 634 113 631 109 627 L63 558 C61 554 60 550 60 547 C60 542 62 538 67 534 L152 476 L93 405 C90 402 89 398 89 395 C89 388 94 383 96 381 L159 325 C162 323 166 322 169 322 C175 322 180 324 183 327 L250 405 L317 327 C320 324 325 322 331 322 C334 322 338 323 341 325 L404 381 C406 383 411 388 411 395 C411 398 410 402 407 405 L348 476 L433 534 C438 538 440 542 440 547 C440 550 439 554 437 558 L391 627 C387 631 380 634 375 634 C372 634 368 632 365 630 L311 595 L311 683 C311 693 302 700 292 700 L208 700 Z " />
<glyph glyph-name="plus" unicode="&#x2b;" horiz-adv-x="464" d="M311 326 L311 419 C311 431 302 440 290 440 L174 440 C162 440 153 431 153 419 L153 326 L81 326 C69 326 60 317 60 305 L60 198 C60 186 69 177 81 177 L153 177 L153 84 C153 72 162 63 174 63 L290 63 C302 63 311 72 311 84 L311 177 L383 177 C395 177 404 186 404 198 L404 305 C404 317 395 326 383 326 L311 326 Z " />
<glyph glyph-name="comma" unicode="&#x2c;" horiz-adv-x="333" d="M187 -99 C199 -99 207 -89 212 -79 L273 90 C273 100 265 109 254 109 L146 109 C134 109 126 99 121 90 L60 -79 C60 -90 69 -99 79 -99 L187 -99 Z " />
<glyph glyph-name="hyphen" unicode="&#x2d;" horiz-adv-x="429" d="M348 176 C360 176 369 185 369 197 L369 305 C369 317 360 326 348 326 L81 326 C69 326 60 317 60 305 L60 197 C60 185 69 176 81 176 L348 176 Z " />
<glyph glyph-name="period" unicode="&#x2e;" horiz-adv-x="278" d="M60 16 C60 4 69 -5 81 -5 L197 -5 C209 -5 218 4 218 16 L218 134 C218 146 209 155 197 155 L81 155 C69 155 60 146 60 134 L60 16 Z " />
<glyph glyph-name="slash" unicode="&#x2f;" horiz-adv-x="584" d="M60 -153 C60 -165 69 -174 81 -174 L200 -174 C212 -174 220 -164 224 -153 L524 783 C524 795 515 804 503 804 L384 804 C372 804 364 794 360 783 L60 -153 Z " />
<glyph glyph-name="zero" unicode="0" horiz-adv-x="593" d="M242 145 C224 145 208 162 208 183 L208 517 C208 538 224 555 242 555 L351 555 C370 555 385 538 385 517 L385 183 C385 162 370 145 351 145 L242 145 Z M355 -5 C460 -5 543 75 543 176 L543 524 C543 625 460 705 355 705 L238 705 C133 705 50 625 50 524 L50 176 C50 75 133 -5 238 -5 L355 -5 Z " />
<glyph glyph-name="one" unicode="1" horiz-adv-x="549" d="M379 679 C379 691 370 700 358 700 L236 700 L61 630 C50 626 40 616 40 604 L40 501 C40 489 49 480 61 480 L221 542 L221 150 L89 150 C77 150 68 141 68 129 L68 21 C68 9 77 0 89 0 L513 0 C525 0 534 9 534 21 L534 129 C534 141 525 150 513 150 L379 150 L379 679 Z " />
<glyph glyph-name="two" unicode="2" horiz-adv-x="566" d="M198 150 L198 172 C198 290 526 186 526 476 L526 524 C526 625 442 705 338 705 L226 705 C122 705 41 625 41 524 L41 491 C41 479 50 470 62 470 L178 470 C190 470 199 479 199 491 L199 517 C199 538 215 555 233 555 L333 555 C352 555 368 538 368 517 L368 466 C368 348 40 449 40 164 L40 21 C40 9 49 0 61 0 L505 0 C517 0 526 9 526 21 L526 129 C526 141 517 150 505 150 L198 150 Z " />
<glyph glyph-name="three" unicode="3" horiz-adv-x="575" d="M372 183 C372 162 356 145 337 145 L237 145 C219 145 203 162 203 183 L203 209 C203 221 194 230 182 230 L66 230 C54 230 45 221 45 209 L45 176 C45 75 126 -5 230 -5 L342 -5 C446 -5 530 75 530 176 L530 249 C530 287 510 326 484 355 C512 384 530 420 530 461 L530 524 C530 625 446 705 342 705 L230 705 C126 705 45 625 45 524 L45 491 C45 479 54 470 66 470 L182 470 C194 470 203 479 203 491 L203 517 C203 538 219 555 237 555 L337 555 C356 555 372 538 372 517 L372 468 C372 446 356 430 337 430 L230 430 C218 430 209 421 209 409 L209 301 C209 289 218 280 230 280 L339 280 C356 278 372 262 372 242 L372 183 Z " />
<glyph glyph-name="four" unicode="4" horiz-adv-x="573" d="M394 679 C394 691 385 700 373 700 L243 700 C231 700 225 690 220 679 L20 233 L20 159 C20 147 29 138 41 138 L331 138 L331 21 C331 9 340 0 352 0 L468 0 C480 0 489 9 489 21 L489 138 L525 138 C542 138 553 150 553 166 L553 260 C553 276 542 288 525 288 L489 288 L489 443 C489 455 480 464 468 464 L352 464 C340 464 331 455 331 443 L331 288 L218 288 L394 679 Z " />
<glyph glyph-name="five" unicode="5" horiz-adv-x="586" d="M51 297 C51 285 60 276 72 276 L182 276 C191 276 202 283 206 291 C211 300 222 304 231 304 L353 304 C373 304 388 288 388 266 L388 183 C388 162 373 145 353 145 L242 145 C224 145 208 162 208 183 L208 206 C208 218 199 227 187 227 L71 227 C59 227 50 218 50 206 L50 176 C50 75 133 -5 238 -5 L359 -5 C463 -5 546 75 546 176 L546 273 C546 374 463 454 359 454 L242 454 C234 454 220 452 209 449 L209 550 L481 550 C493 550 502 559 502 571 L502 679 C502 691 493 700 481 700 L72 700 C60 700 51 691 51 679 L51 297 Z " />
<glyph glyph-name="six" unicode="6" horiz-adv-x="583" d="M243 145 C223 145 208 162 208 183 L208 254 C208 276 223 292 243 292 L350 292 C369 292 385 276 385 254 L385 183 C385 162 369 145 350 145 L243 145 Z M533 524 C533 625 451 705 347 705 L238 705 C134 705 50 625 50 524 L50 176 C50 75 134 -5 238 -5 L356 -5 C460 -5 543 75 543 176 L543 261 C543 362 460 442 356 442 L242 442 C232 442 219 439 208 434 L208 517 C208 538 223 555 243 555 L340 555 C358 555 375 541 375 517 L375 499 C375 487 384 478 396 478 L512 478 C524 478 533 487 533 499 L533 524 Z " />
<glyph glyph-name="seven" unicode="7" horiz-adv-x="510" d="M295 21 C321 187 381 405 485 566 L485 679 C485 691 476 700 464 700 L46 700 C34 700 25 691 25 679 L25 571 C25 559 34 550 46 550 L310 550 C208 383 156 192 136 21 C136 9 145 0 157 0 L272 0 C284 0 292 9 295 21 L295 21 Z " />
<glyph glyph-name="eight" unicode="8" horiz-adv-x="587" d="M253 426 C235 426 218 443 218 464 L218 517 C218 538 235 555 253 555 L334 555 C352 555 369 538 369 517 L369 464 C369 443 352 426 334 426 L253 426 Z M350 276 C368 276 384 260 384 238 L384 183 C384 162 368 145 350 145 L237 145 C219 145 203 162 203 183 L203 238 C203 260 219 276 237 276 L350 276 Z M354 -5 C458 -5 542 75 542 176 L542 245 C542 286 520 332 485 362 C510 388 527 424 527 457 L527 524 C527 625 444 705 340 705 L247 705 C143 705 60 625 60 524 L60 457 C60 424 77 388 102 362 C67 332 45 286 45 245 L45 176 C45 75 129 -5 233 -5 L354 -5 Z " />
<glyph glyph-name="nine" unicode="9" horiz-adv-x="573" d="M340 555 C360 555 375 538 375 517 L375 438 C375 416 360 400 340 400 L233 400 C214 400 198 416 198 438 L198 517 C198 538 214 555 233 555 L340 555 Z M50 176 C50 75 132 -5 236 -5 L345 -5 C449 -5 533 75 533 176 L533 524 C533 625 449 705 345 705 L227 705 C123 705 40 625 40 524 L40 431 C40 330 123 250 227 250 L341 250 C351 250 364 253 375 258 L375 183 C375 162 360 145 340 145 L243 145 C225 145 208 159 208 183 L208 201 C208 213 199 222 187 222 L71 222 C59 222 50 213 50 201 L50 176 Z " />
<glyph glyph-name="colon" unicode="&#x3a;" horiz-adv-x="278" d="M60 16 C60 4 69 -5 81 -5 L197 -5 C209 -5 218 4 218 16 L218 134 C218 146 209 155 197 155 L81 155 C69 155 60 146 60 134 L60 16 Z M60 301 C60 289 69 280 81 280 L197 280 C209 280 218 289 218 301 L218 419 C218 431 209 440 197 440 L81 440 C69 440 60 431 60 419 L60 301 Z " />
<glyph glyph-name="semicolon" unicode="&#x3b;" horiz-adv-x="333" d="M114 301 C114 289 123 280 135 280 L251 280 C263 280 272 289 272 301 L272 419 C272 431 263 440 251 440 L135 440 C123 440 114 431 114 419 L114 301 Z M187 -99 C199 -99 207 -89 212 -79 L273 90 C273 100 265 109 254 109 L146 109 C134 109 126 99 121 90 L60 -79 C60 -90 69 -99 79 -99 L187 -99 Z " />
<glyph glyph-name="less" unicode="&#x3c;" horiz-adv-x="420" d="M60 162 C60 152 67 146 79 142 L342 49 C352 49 360 56 360 67 L360 164 C360 175 352 183 342 186 L201 233 L201 246 L342 292 C352 295 360 303 360 314 L360 411 C360 422 352 429 342 429 L79 336 C67 332 60 326 60 316 L60 162 Z " />
<glyph glyph-name="equal" unicode="&#x3d;" horiz-adv-x="425" d="M344 82 C356 82 365 91 365 103 L365 196 C365 208 356 217 344 217 L81 217 C69 217 60 208 60 196 L60 103 C60 91 69 82 81 82 L344 82 Z M344 263 C356 263 365 272 365 284 L365 377 C365 389 356 398 344 398 L81 398 C69 398 60 389 60 377 L60 284 C60 272 69 263 81 263 L344 263 Z " />
<glyph glyph-name="greater" unicode="&#x3e;" horiz-adv-x="420" d="M360 316 C360 326 353 332 341 336 L78 429 C68 429 60 422 60 411 L60 314 C60 303 68 295 78 292 L219 246 L219 233 L78 186 C68 183 60 175 60 164 L60 67 C60 56 68 49 78 49 L341 142 C353 146 360 152 360 162 L360 316 Z " />
<glyph glyph-name="question" unicode="&#x3f;" horiz-adv-x="603" d="M358 210 C358 330 543 233 543 481 L543 524 C543 625 461 705 357 705 L244 705 C140 705 60 625 60 524 L60 471 C60 459 69 450 81 450 L197 450 C209 450 218 459 218 471 L218 517 C218 538 234 555 252 555 L350 555 C370 555 385 538 385 517 L385 485 C385 357 200 456 200 214 L200 188 C200 176 209 167 221 167 L337 167 C349 167 358 176 358 188 L358 210 Z M197 16 C197 4 206 -5 218 -5 L340 -5 C352 -5 361 4 361 16 L361 113 C361 125 352 134 340 134 L218 134 C206 134 197 125 197 113 L197 16 Z " />
<glyph glyph-name="at" unicode="&#x40;" horiz-adv-x="740" d="M417 329 C417 345 432 359 447 359 L500 359 C515 359 530 345 530 329 L530 254 C530 238 515 224 500 224 L447 224 C432 224 417 238 417 254 L417 329 Z M244 29 C226 29 209 46 209 67 L209 518 C209 539 226 556 244 556 L495 556 C515 556 530 539 530 518 L530 470 L514 470 C493 496 448 506 422 506 L407 506 C311 506 260 436 260 344 L260 239 C260 147 311 77 407 77 L422 77 C448 77 493 87 514 113 L530 113 L530 103 C530 91 539 82 551 82 L659 82 C671 82 680 91 680 103 L680 519 C680 620 597 700 493 700 L246 700 C142 700 60 620 60 519 L60 66 C60 -35 142 -115 246 -115 L498 -115 C510 -115 519 -106 519 -94 L519 8 C519 20 510 29 498 29 L244 29 Z " />
<glyph glyph-name="A" unicode="A" horiz-adv-x="616" d="M230 700 C218 700 209 691 206 679 L15 21 C15 9 24 0 36 0 L155 0 C167 0 175 9 178 21 L202 112 L413 112 L438 21 C441 9 449 0 461 0 L580 0 C592 0 601 9 601 21 L410 679 C407 691 398 700 386 700 L230 700 Z M303 486 L313 486 L373 261 L242 261 L303 486 Z " />
<glyph glyph-name="B" unicode="B" horiz-adv-x="577" d="M218 424 L218 551 L325 551 C344 551 360 534 360 513 L360 462 C360 441 344 424 325 424 L218 424 Z M352 275 C372 275 387 258 387 237 L387 187 C387 166 372 149 352 149 L218 149 L218 275 L352 275 Z M81 700 C69 700 60 691 60 679 L60 21 C60 9 69 0 81 0 L359 0 C463 0 547 80 547 181 L547 241 C547 289 519 334 481 367 C503 392 520 424 520 459 L520 519 C520 620 436 700 332 700 L81 700 Z " />
<glyph glyph-name="C" unicode="C" horiz-adv-x="578" d="M543 221 C543 233 534 242 522 242 L406 242 C394 242 385 233 385 221 L385 183 C385 162 370 145 351 145 L242 145 C224 145 208 162 208 183 L208 517 C208 538 224 555 242 555 L351 555 C370 555 385 538 385 517 L385 479 C385 467 394 458 406 458 L522 458 C534 458 543 467 543 479 L543 524 C543 625 460 705 355 705 L238 705 C133 705 50 625 50 524 L50 176 C50 75 133 -5 238 -5 L355 -5 C460 -5 543 75 543 176 L543 221 Z " />
<glyph glyph-name="D" unicode="D" horiz-adv-x="604" d="M60 21 C60 9 69 0 81 0 L366 0 C470 0 554 80 554 181 L554 519 C554 620 470 700 366 700 L81 700 C69 700 60 691 60 679 L60 21 Z M361 551 C380 551 396 534 396 513 L396 187 C396 166 380 149 361 149 L218 149 L218 551 L361 551 Z " />
<glyph glyph-name="E" unicode="E" horiz-adv-x="537" d="M218 150 L218 287 L444 287 C456 287 465 296 465 308 L465 416 C465 428 456 437 444 437 L218 437 L218 550 L466 550 C478 550 487 559 487 571 L487 679 C487 691 478 700 466 700 L81 700 C69 700 60 691 60 679 L60 21 C60 9 69 0 81 0 L466 0 C478 0 487 9 487 21 L487 129 C487 141 478 150 466 150 L218 150 Z " />
<glyph glyph-name="F" unicode="F" horiz-adv-x="507" d="M444 262 C456 262 465 271 465 283 L465 391 C465 403 456 412 444 412 L218 412 L218 550 L466 550 C478 550 487 559 487 571 L487 679 C487 691 478 700 466 700 L81 700 C69 700 60 691 60 679 L60 21 C60 9 69 0 81 0 L197 0 C209 0 218 9 218 21 L218 262 L444 262 Z " />
<glyph glyph-name="G" unicode="G" horiz-adv-x="593" d="M296 406 C284 406 275 397 275 385 L275 283 C275 271 284 262 296 262 L385 262 L385 183 C385 162 370 145 351 145 L242 145 C224 145 208 162 208 183 L208 517 C208 538 224 555 242 555 L351 555 C370 555 385 538 385 517 L385 479 C385 467 394 458 406 458 L522 458 C534 458 543 467 543 479 L543 524 C543 625 460 705 355 705 L238 705 C133 705 50 625 50 524 L50 176 C50 75 133 -5 238 -5 L355 -5 C460 -5 543 75 543 176 L543 385 C543 397 534 406 522 406 L296 406 Z " />
<glyph glyph-name="H" unicode="H" horiz-adv-x="609" d="M391 21 C391 9 400 0 412 0 L528 0 C540 0 549 9 549 21 L549 679 C549 691 540 700 528 700 L412 700 C400 700 391 691 391 679 L391 414 L218 414 L218 679 C218 691 209 700 197 700 L81 700 C69 700 60 691 60 679 L60 21 C60 9 69 0 81 0 L197 0 C209 0 218 9 218 21 L218 265 L391 265 L391 21 Z " />
<glyph glyph-name="I" unicode="I" horiz-adv-x="278" d="M60 21 C60 9 69 0 81 0 L197 0 C209 0 218 9 218 21 L218 679 C218 691 209 700 197 700 L81 700 C69 700 60 691 60 679 L60 21 Z " />
<glyph glyph-name="J" unicode="J" horiz-adv-x="459" d="M-3 76 C21 52 89 -5 186 -5 C329 -5 419 88 419 185 L419 679 C419 691 410 700 398 700 L282 700 C270 700 261 691 261 679 L261 187 C261 183 251 145 180 145 C162 145 124 155 101 174 C97 177 91 178 86 178 C80 178 76 177 70 174 L-2 107 C-8 101 -10 97 -10 90 C-10 86 -8 81 -3 76 L-3 76 Z " />
<glyph glyph-name="K" unicode="K" horiz-adv-x="590" d="M266 425 L218 425 L218 679 C218 691 209 700 197 700 L81 700 C69 700 60 691 60 679 L60 21 C60 9 69 0 81 0 L197 0 C209 0 218 9 218 21 L218 275 L265 275 L395 21 C400 10 410 0 422 0 L548 0 C560 0 569 9 569 21 L403 351 L566 679 C566 691 557 700 545 700 L419 700 C407 700 397 690 392 679 L266 425 Z " />
<glyph glyph-name="L" unicode="L" horiz-adv-x="507" d="M218 150 L218 679 C218 691 209 700 197 700 L81 700 C69 700 60 691 60 679 L60 21 C60 9 69 0 81 0 L466 0 C478 0 487 9 487 21 L487 129 C487 141 478 150 466 150 L218 150 Z " />
<glyph glyph-name="M" unicode="M" horiz-adv-x="758" d="M409 88 C426 88 430 97 436 109 L540 348 L540 21 C540 9 549 0 561 0 L677 0 C689 0 698 9 698 21 L698 679 C698 691 689 700 677 700 L544 700 C532 700 523 690 518 679 L384 368 L374 368 L240 679 C235 690 226 700 214 700 L81 700 C69 700 60 691 60 679 L60 21 C60 9 69 0 81 0 L197 0 C209 0 218 9 218 21 L218 348 L322 109 C328 97 332 88 349 88 L409 88 Z " />
<glyph glyph-name="N" unicode="N" horiz-adv-x="641" d="M414 323 L254 678 C249 689 242 699 230 699 L81 699 C69 699 60 690 60 678 L60 21 C60 9 69 0 81 0 L197 0 C209 0 218 9 218 21 L218 376 L227 376 L387 21 C391 10 399 0 411 0 L560 0 C572 0 581 9 581 21 L581 678 C581 690 572 699 560 699 L444 699 C432 699 423 690 423 678 L423 323 L414 323 Z " />
<glyph glyph-name="O" unicode="O" horiz-adv-x="593" d="M242 145 C224 145 208 162 208 183 L208 517 C208 538 224 555 242 555 L351 555 C370 555 385 538 385 517 L385 183 C385 162 370 145 351 145 L242 145 Z M355 -5 C460 -5 543 75 543 176 L543 524 C543 625 460 705 355 705 L238 705 C133 705 50 625 50 524 L50 176 C50 75 133 -5 238 -5 L355 -5 Z " />
<glyph glyph-name="P" unicode="P" horiz-adv-x="587" d="M218 343 L218 550 L354 550 C374 550 389 533 389 512 L389 381 C389 361 374 343 354 343 L218 343 Z M81 700 C69 700 60 691 60 679 L60 21 C60 9 69 0 81 0 L197 0 C209 0 218 9 218 21 L218 193 L359 193 C463 193 547 273 547 374 L547 519 C547 620 463 700 359 700 L81 700 Z " />
<glyph glyph-name="Q" unicode="Q" horiz-adv-x="593" d="M355 705 L238 705 C133 705 50 625 50 524 L50 176 C50 75 133 -5 238 -5 L281 -99 C286 -109 293 -118 304 -118 L407 -118 C418 -118 426 -110 426 -99 L383 -3 C475 10 543 84 543 176 L543 524 C543 625 460 705 355 705 L355 705 Z M385 183 C385 162 370 145 351 145 L242 145 C224 145 208 162 208 183 L208 517 C208 538 224 555 242 555 L351 555 C370 555 385 538 385 517 L385 183 Z " />
<glyph glyph-name="R" unicode="R" horiz-adv-x="599" d="M472 230 C518 262 547 315 547 374 L547 519 C547 620 463 700 359 700 L81 700 C69 700 60 691 60 679 L60 21 C60 9 69 0 81 0 L197 0 C209 0 218 9 218 21 L218 193 L316 193 L393 21 C398 10 408 0 420 0 L548 0 C560 0 569 9 569 21 L472 230 Z M218 550 L354 550 C374 550 389 533 389 512 L389 381 C389 361 374 343 354 343 L218 343 L218 550 Z " />
<glyph glyph-name="S" unicode="S" horiz-adv-x="562" d="M339 -5 C443 -5 527 75 527 176 L527 192 C527 369 405 396 305 418 C242 432 190 442 190 492 L190 517 C190 538 206 555 226 555 L324 555 C343 555 359 538 359 517 L359 491 C359 479 368 470 380 470 L496 470 C508 470 517 479 517 491 L517 524 C517 625 433 705 331 705 L218 705 C114 705 30 625 30 524 L30 503 C30 332 157 297 256 275 C316 262 368 250 368 206 L368 183 C368 162 351 145 332 145 L223 145 C204 145 188 162 188 183 L188 215 C188 227 179 236 167 236 L51 236 C39 236 30 227 30 215 L30 176 C30 75 114 -5 216 -5 L339 -5 Z " />
<glyph glyph-name="T" unicode="T" horiz-adv-x="532" d="M46 700 C34 700 25 691 25 679 L25 571 C25 559 34 550 46 550 L187 550 L187 21 C187 9 196 0 208 0 L324 0 C336 0 345 9 345 21 L345 550 L486 550 C498 550 507 559 507 571 L507 679 C507 691 498 700 486 700 L46 700 Z " />
<glyph glyph-name="U" unicode="U" horiz-adv-x="603" d="M361 -5 C466 -5 548 75 548 176 L548 679 C548 691 539 700 527 700 L411 700 C399 700 390 691 390 679 L390 183 C390 162 374 145 356 145 L247 145 C229 145 213 162 213 183 L213 679 C213 691 204 700 192 700 L76 700 C64 700 55 691 55 679 L55 176 C55 75 137 -5 242 -5 L361 -5 Z " />
<glyph glyph-name="V" unicode="V" horiz-adv-x="616" d="M386 0 C398 0 407 9 410 21 L601 679 C601 691 592 700 580 700 L461 700 C449 700 441 691 438 679 L313 214 L303 214 L178 679 C175 691 167 700 155 700 L36 700 C24 700 15 691 15 679 L206 21 C209 9 218 0 230 0 L386 0 Z " />
<glyph glyph-name="W" unicode="W" horiz-adv-x="840" d="M371 700 C359 700 351 691 348 679 L256 288 L176 679 C174 691 165 700 153 700 L36 700 C24 700 15 691 15 679 L161 25 C164 11 176 0 192 0 L318 0 C335 0 343 10 347 26 L420 334 L493 26 C497 10 505 0 522 0 L648 0 C664 0 676 11 679 25 L825 679 C825 691 816 700 804 700 L687 700 C675 700 666 691 664 679 L584 288 L492 679 C489 691 481 700 469 700 L371 700 Z " />
<glyph glyph-name="X" unicode="X" horiz-adv-x="593" d="M302 250 L406 21 C411 10 419 0 431 0 L552 0 C564 0 573 9 573 21 C480 229 453 291 426 349 C453 408 480 471 573 679 C573 691 564 700 552 700 L431 700 C419 700 411 690 406 679 L302 449 L291 449 L187 679 C182 690 174 700 162 700 L41 700 C29 700 20 691 20 679 C113 471 140 408 167 349 C140 291 113 229 20 21 C20 9 29 0 41 0 L162 0 C174 0 182 10 187 21 L291 250 L302 250 Z " />
<glyph glyph-name="Y" unicode="Y" horiz-adv-x="602" d="M307 411 L294 411 L173 679 C168 690 162 700 150 700 L31 700 C19 700 10 691 10 679 L222 227 L222 21 C222 9 231 0 243 0 L359 0 C371 0 380 9 380 21 L380 227 L592 679 C592 691 583 700 571 700 L452 700 C440 700 434 690 429 679 L307 411 Z " />
<glyph glyph-name="Z" unicode="Z" horiz-adv-x="534" d="M241 150 L493 597 C495 602 499 612 499 617 L499 679 C499 691 490 700 478 700 L56 700 C44 700 35 691 35 679 L35 571 C35 559 44 550 56 550 L293 550 L41 103 C39 98 35 88 35 83 L35 21 C35 9 44 0 56 0 L478 0 C490 0 499 9 499 21 L499 129 C499 141 490 150 478 150 L241 150 Z " />
<glyph glyph-name="bracketleft" unicode="&#x5b;" horiz-adv-x="383" d="M218 -27 L218 655 L302 655 C314 655 323 664 323 676 L323 784 C323 796 314 805 302 805 L81 805 C69 805 60 796 60 784 L60 -156 C60 -168 69 -177 81 -177 L302 -177 C314 -177 323 -168 323 -156 L323 -48 C323 -36 314 -27 302 -27 L218 -27 Z " />
<glyph glyph-name="backslash" unicode="&#x5c;" horiz-adv-x="584" d="M224 783 C220 794 212 804 200 804 L81 804 C69 804 60 795 60 783 L360 -153 C364 -164 372 -174 384 -174 L503 -174 C515 -174 524 -165 524 -153 L224 783 Z " />
<glyph glyph-name="bracketright" unicode="&#x5d;" horiz-adv-x="383" d="M81 -27 C69 -27 60 -36 60 -48 L60 -156 C60 -168 69 -177 81 -177 L302 -177 C314 -177 323 -168 323 -156 L323 784 C323 796 314 805 302 805 L81 805 C69 805 60 796 60 784 L60 676 C60 664 69 655 81 655 L165 655 L165 -27 L81 -27 Z " />
<glyph glyph-name="asciicircum" unicode="&#x5e;" horiz-adv-x="450" d="M176 700 C159 700 149 691 143 679 L60 512 C60 500 68 492 80 492 L179 492 C191 492 199 501 203 512 L225 555 L247 512 C251 501 259 492 271 492 L370 492 C382 492 390 500 390 512 L307 679 C301 691 291 700 274 700 L176 700 Z " />
<glyph glyph-name="underscore" unicode="&#x5f;" horiz-adv-x="429" d="M348 -133 C360 -133 369 -124 369 -112 L369 -4 C369 8 360 17 348 17 L81 17 C69 17 60 8 60 -4 L60 -112 C60 -124 69 -133 81 -133 L348 -133 Z " />
<glyph glyph-name="grave" unicode="&#x60;" horiz-adv-x="347" d="M268 492 C278 492 287 501 287 512 L212 681 C207 690 199 700 187 700 L79 700 C68 700 60 691 60 681 L135 512 C140 502 148 492 160 492 L268 492 Z " />
<glyph glyph-name="a" unicode="a" horiz-adv-x="500" d="M124 360 C155 369 194 373 229 373 C296 373 297 351 297 322 L209 322 C113 322 40 275 40 182 L40 143 C40 50 101 -5 186 -5 L196 -5 C208 -5 270 -5 289 31 L297 31 L297 21 C297 9 306 0 318 0 L434 0 C446 0 455 9 455 21 L455 324 C455 372 437 520 246 520 C166 520 111 505 91 499 C81 496 74 489 74 479 C74 477 74 466 97 376 C100 363 108 359 114 359 C116 359 120 359 124 360 L124 360 Z M187 174 C187 190 200 201 214 201 L297 201 L297 163 C297 149 283 136 269 136 L214 136 C200 136 187 149 187 163 L187 174 Z " />
<glyph glyph-name="b" unicode="b" horiz-adv-x="529" d="M332 172 C332 156 317 142 302 142 L248 142 C233 142 218 156 218 172 L218 343 C218 359 233 373 248 373 L302 373 C317 373 332 359 332 343 L332 172 Z M489 358 C489 450 448 520 352 520 L292 520 C271 520 247 510 226 484 L218 484 L218 679 C218 691 209 700 197 700 L81 700 C69 700 60 691 60 679 L60 21 C60 9 69 0 81 0 L197 0 C209 0 218 9 218 21 L218 31 L226 31 C247 5 271 -5 292 -5 L352 -5 C448 -5 489 65 489 157 L489 358 Z " />
<glyph glyph-name="c" unicode="c" horiz-adv-x="486" d="M303 332 C303 320 312 311 324 311 L440 311 C452 311 461 320 461 332 L461 358 C461 438 400 520 300 520 L206 520 C108 520 45 438 45 358 L45 156 C45 77 108 -5 206 -5 L300 -5 C400 -5 461 77 461 156 L461 183 C461 195 452 204 440 204 L324 204 C312 204 303 195 303 183 L303 172 C303 156 288 142 273 142 L233 142 C218 142 203 156 203 172 L203 343 C203 359 218 373 233 373 L273 373 C288 373 303 359 303 343 L303 332 Z " />
<glyph glyph-name="d" unicode="d" horiz-adv-x="529" d="M197 343 C197 359 212 373 227 373 L281 373 C296 373 311 359 311 343 L311 172 C311 156 296 142 281 142 L227 142 C212 142 197 156 197 172 L197 343 Z M40 157 C40 65 81 -5 177 -5 L237 -5 C258 -5 282 5 303 31 L311 31 L311 21 C311 9 320 0 332 0 L448 0 C460 0 469 9 469 21 L469 679 C469 691 460 700 448 700 L332 700 C320 700 311 691 311 679 L311 484 L303 484 C282 510 258 520 237 520 L177 520 C81 520 40 450 40 358 L40 157 Z " />
<glyph glyph-name="e" unicode="e" horiz-adv-x="501" d="M203 343 C203 359 218 373 233 373 L274 373 C289 373 304 359 304 343 L304 312 L203 312 L203 343 Z M448 81 C450 85 452 90 452 93 C452 100 450 104 443 109 L370 170 C366 172 361 173 358 173 C350 173 345 169 340 164 C332 155 313 142 292 142 L233 142 C218 142 203 156 203 172 L203 197 L433 197 C450 197 461 208 461 225 L461 358 C461 438 400 520 300 520 L206 520 C108 520 45 438 45 358 L45 156 C45 77 108 -5 206 -5 L292 -5 C292 -5 398 -2 448 81 L448 81 Z " />
<glyph glyph-name="f" unicode="f" horiz-adv-x="400" d="M106 21 C106 9 115 0 127 0 L243 0 C255 0 264 9 264 21 L264 368 L353 368 C365 368 374 377 374 389 L374 494 C374 506 365 515 353 515 L264 515 L264 550 C264 566 279 580 294 580 L354 580 C366 580 375 589 375 601 L375 706 C375 718 366 727 354 727 L267 727 C168 727 111 645 106 565 L106 515 L36 515 C24 515 15 506 15 494 L15 389 C15 377 24 368 36 368 L106 368 L106 21 Z " />
<glyph glyph-name="g" unicode="g" horiz-adv-x="529" d="M197 343 C197 359 212 373 227 373 L281 373 C296 373 311 359 311 343 L311 172 C311 156 296 142 281 142 L227 142 C212 142 197 156 197 172 L197 343 Z M469 494 C469 506 460 515 448 515 L332 515 C320 515 311 506 311 494 L311 484 L303 484 C282 510 258 520 237 520 L177 520 C81 520 40 450 40 358 L40 157 C40 65 81 -5 177 -5 L237 -5 C258 -5 282 5 303 31 L311 31 L311 -22 C311 -38 285 -60 235 -60 C173 -60 162 -56 116 -49 C107 -49 102 -54 99 -66 C79 -146 76 -165 76 -168 C76 -177 82 -181 91 -185 C112 -192 167 -203 249 -203 C440 -203 469 -70 469 -20 L469 494 Z " />
<glyph glyph-name="h" unicode="h" horiz-adv-x="533" d="M295 373 C310 373 325 359 325 343 L325 21 C325 9 334 0 346 0 L462 0 C474 0 483 9 483 21 L483 357 C478 450 423 520 327 520 L317 520 C293 520 251 510 225 470 L218 470 L218 679 C218 691 209 700 197 700 L81 700 C69 700 60 691 60 679 L60 21 C60 9 69 0 81 0 L197 0 C209 0 218 9 218 21 L218 333 C239 372 275 373 287 373 L295 373 Z " />
<glyph glyph-name="i" unicode="i" horiz-adv-x="278" d="M60 21 C60 9 69 0 81 0 L197 0 C209 0 218 9 218 21 L218 494 C218 506 209 515 197 515 L81 515 C69 515 60 506 60 494 L60 21 Z M57 579 C57 567 66 558 78 558 L200 558 C212 558 221 567 221 579 L221 676 C221 688 212 697 200 697 L78 697 C66 697 57 688 57 676 L57 579 Z " />
<glyph glyph-name="j" unicode="j" horiz-adv-x="278" d="M47 -188 C47 -188 218 -142 218 16 L218 494 C218 506 209 515 197 515 L81 515 C69 515 60 506 60 494 L60 21 C60 21 59 -23 -12 -45 C-21 -47 -25 -56 -25 -63 C-25 -65 -24 -69 -23 -71 L20 -177 C23 -186 30 -190 37 -190 C39 -190 45 -189 47 -188 L47 -188 Z M57 579 C57 567 66 558 78 558 L200 558 C212 558 221 567 221 579 L221 676 C221 688 212 697 200 697 L78 697 C66 697 57 688 57 676 L57 579 Z " />
<glyph glyph-name="k" unicode="k" horiz-adv-x="523" d="M244 197 L330 21 C336 9 350 0 362 0 L491 0 C503 0 512 9 512 21 L383 270 L513 494 C513 506 504 515 492 515 L363 515 C351 515 338 505 331 494 L246 342 L218 342 L218 679 C218 691 209 700 197 700 L81 700 C69 700 60 691 60 679 L60 21 C60 9 69 0 81 0 L197 0 C209 0 218 9 218 21 L218 197 L244 197 Z " />
<glyph glyph-name="l" unicode="l" horiz-adv-x="278" d="M60 21 C60 9 69 0 81 0 L197 0 C209 0 218 9 218 21 L218 679 C218 691 209 700 197 700 L81 700 C69 700 60 691 60 679 L60 21 Z " />
<glyph glyph-name="m" unicode="m" horiz-adv-x="742" d="M297 21 C297 9 306 0 318 0 L434 0 C446 0 455 9 455 21 L455 335 C468 366 486 373 505 373 C523 373 534 362 534 342 L534 21 C534 9 543 0 555 0 L671 0 C683 0 692 9 692 21 L692 357 C692 450 629 520 532 520 C512 520 465 516 425 468 L415 468 C392 498 362 520 315 520 C299 520 250 515 225 470 L218 470 L218 494 C218 506 209 515 197 515 L81 515 C69 515 60 506 60 494 L60 21 C60 9 69 0 81 0 L197 0 C209 0 218 9 218 21 L218 335 C231 366 249 373 268 373 C286 373 297 362 297 342 L297 21 Z " />
<glyph glyph-name="n" unicode="n" horiz-adv-x="533" d="M295 373 C310 373 325 359 325 343 L325 21 C325 9 334 0 346 0 L462 0 C474 0 483 9 483 21 L483 357 C478 450 423 520 327 520 L317 520 C293 520 251 510 225 470 L218 470 L218 494 C218 506 209 515 197 515 L81 515 C69 515 60 506 60 494 L60 21 C60 9 69 0 81 0 L197 0 C209 0 218 9 218 21 L218 333 C239 372 275 373 287 373 L295 373 Z " />
<glyph glyph-name="o" unicode="o" horiz-adv-x="506" d="M206 520 C108 520 45 438 45 358 L45 156 C45 77 108 -5 206 -5 L300 -5 C399 -5 461 77 461 156 L461 358 C461 438 399 520 300 520 L206 520 Z M203 343 C203 359 218 373 233 373 L273 373 C288 373 303 359 303 343 L303 172 C303 156 288 142 273 142 L233 142 C218 142 203 156 203 172 L203 343 Z " />
<glyph glyph-name="p" unicode="p" horiz-adv-x="529" d="M332 172 C332 156 317 142 302 142 L248 142 C233 142 218 156 218 172 L218 343 C218 359 233 373 248 373 L302 373 C317 373 332 359 332 343 L332 172 Z M489 358 C489 450 448 520 352 520 L292 520 C271 520 247 510 226 484 L218 484 L218 494 C218 506 209 515 197 515 L81 515 C69 515 60 506 60 494 L60 -153 C60 -165 69 -174 81 -174 L197 -174 C209 -174 218 -165 218 -153 L218 31 L226 31 C247 5 271 -5 292 -5 L352 -5 C448 -5 489 65 489 157 L489 358 Z " />
<glyph glyph-name="q" unicode="q" horiz-adv-x="529" d="M197 343 C197 359 212 373 227 373 L281 373 C296 373 311 359 311 343 L311 172 C311 156 296 142 281 142 L227 142 C212 142 197 156 197 172 L197 343 Z M40 157 C40 65 81 -5 177 -5 L237 -5 C258 -5 282 5 303 31 L311 31 L311 -153 C311 -165 320 -174 332 -174 L448 -174 C460 -174 469 -165 469 -153 L469 494 C469 506 460 515 448 515 L332 515 C320 515 311 506 311 494 L311 484 L303 484 C282 510 258 520 237 520 L177 520 C81 520 40 450 40 358 L40 157 Z " />
<glyph glyph-name="r" unicode="r" horiz-adv-x="410" d="M370 365 C382 365 391 374 391 386 L400 487 C400 500 397 505 383 511 C368 517 328 520 324 520 C295 520 255 515 225 465 L218 465 L218 494 C218 506 209 515 197 515 L81 515 C69 515 60 506 60 494 L60 21 C60 9 69 0 81 0 L197 0 C209 0 218 9 218 21 L218 333 C239 371 286 373 305 373 C329 373 348 368 370 365 L370 365 Z " />
<glyph glyph-name="s" unicode="s" horiz-adv-x="477" d="M291 352 C291 340 300 331 312 331 L421 331 C433 331 442 340 442 352 L442 359 C442 438 379 520 281 520 L196 520 C98 520 40 449 35 369 L35 361 C35 185 293 210 293 167 L293 155 C293 139 278 133 263 133 L216 133 C201 133 186 144 186 160 L186 167 C186 179 177 188 165 188 L56 188 C44 188 35 179 35 167 L35 156 C35 77 98 -5 196 -5 L287 -5 C386 -5 447 65 447 145 L447 159 C447 334 190 306 190 353 L190 364 C190 380 205 386 220 386 L261 386 C276 386 291 375 291 359 L291 352 Z " />
<glyph glyph-name="t" unicode="t" horiz-adv-x="394" d="M264 368 L353 368 C365 368 374 377 374 389 L374 494 C374 506 365 515 353 515 L264 515 L264 679 C264 691 255 700 243 700 L127 700 C115 700 106 691 106 679 L106 515 L36 515 C24 515 15 506 15 494 L15 389 C15 377 24 368 36 368 L106 368 L106 170 C106 70 168 0 267 0 L353 0 C365 0 374 9 374 21 L374 125 C374 137 365 146 353 146 L294 146 C279 146 264 160 264 176 L264 368 Z " />
<glyph glyph-name="u" unicode="u" horiz-adv-x="516" d="M308 172 C308 156 293 142 278 142 L238 142 C223 142 208 156 208 172 L208 494 C208 506 199 515 187 515 L71 515 C59 515 50 506 50 494 L50 156 C50 77 113 -5 211 -5 L305 -5 C403 -5 466 77 466 156 L466 494 C466 506 457 515 445 515 L329 515 C317 515 308 506 308 494 L308 172 Z " />
<glyph glyph-name="v" unicode="v" horiz-adv-x="482" d="M315 0 C327 0 337 9 340 21 L477 495 C477 507 468 516 456 516 L337 516 C325 516 317 507 314 495 L247 186 L235 186 L168 495 C165 507 157 516 145 516 L26 516 C14 516 5 507 5 495 L142 21 C145 9 155 0 167 0 L315 0 Z " />
<glyph glyph-name="w" unicode="w" horiz-adv-x="686" d="M300 515 C288 515 280 506 277 494 L213 268 L164 494 C161 506 153 515 141 515 L26 515 C14 515 5 506 5 494 L131 21 C134 9 142 0 154 0 L249 0 C261 0 268 8 272 21 L343 252 L414 21 C418 8 425 0 437 0 L532 0 C544 0 552 9 555 21 L681 494 C681 506 672 515 660 515 L545 515 C533 515 525 506 522 494 L473 268 L409 494 C406 506 398 515 386 515 L300 515 Z " />
<glyph glyph-name="x" unicode="x" horiz-adv-x="491" d="M252 163 L315 21 C320 10 331 0 343 0 L460 0 C472 0 481 9 481 21 C448 96 404 183 372 258 C404 333 445 419 478 494 C478 506 469 515 457 515 L340 515 C328 515 317 505 312 494 L252 351 L239 351 L179 494 C174 505 163 515 151 515 L34 515 C22 515 13 506 13 494 C46 419 87 333 119 258 C87 183 43 96 10 21 C10 9 19 0 31 0 L148 0 C160 0 171 10 176 21 L239 163 L252 163 Z " />
<glyph glyph-name="y" unicode="y" horiz-adv-x="482" d="M60 -58 C48 -58 39 -67 39 -79 L39 -182 C39 -194 48 -203 60 -203 L147 -203 C172 -203 281 -180 330 -13 L477 495 C477 507 468 516 456 516 L337 516 C325 516 317 507 314 495 L247 186 L235 186 L168 495 C165 507 157 516 145 516 L26 516 C14 516 5 507 5 495 L152 -15 C151 -38 131 -58 108 -58 L60 -58 Z " />
<glyph glyph-name="z" unicode="z" horiz-adv-x="450" d="M237 148 L412 399 C417 406 420 412 420 420 L420 494 C420 506 411 515 399 515 L51 515 C39 515 30 506 30 494 L30 388 C30 376 39 367 51 367 L213 367 L38 116 C33 109 30 103 30 95 L30 21 C30 9 39 0 51 0 L399 0 C411 0 420 9 420 21 L420 127 C420 139 411 148 399 148 L237 148 Z " />
<glyph glyph-name="braceleft" unicode="&#x7b;" horiz-adv-x="449" d="M147 3 C147 -98 229 -178 333 -178 L368 -178 C380 -178 389 -169 389 -157 L389 -49 C389 -37 380 -28 368 -28 L340 -28 C322 -28 306 -11 306 10 L306 204 C306 248 294 283 267 314 C294 344 306 380 306 425 L306 617 C306 638 322 655 340 655 L368 655 C380 655 389 664 389 676 L389 784 C389 796 380 805 368 805 L333 805 C229 805 147 725 147 624 L147 426 C147 404 129 389 111 389 L81 389 C69 389 60 380 60 368 L60 260 C60 248 69 239 81 239 L111 239 C129 239 147 224 147 202 L147 3 Z " />
<glyph glyph-name="bar" unicode="&#x7c;" horiz-adv-x="278" d="M60 -157 C60 -169 69 -178 81 -178 L197 -178 C209 -178 218 -169 218 -157 L218 784 C218 796 209 805 197 805 L81 805 C69 805 60 796 60 784 L60 -157 Z " />
<glyph glyph-name="braceright" unicode="&#x7d;" horiz-adv-x="449" d="M302 202 C302 224 320 239 338 239 L368 239 C380 239 389 248 389 260 L389 368 C389 380 380 389 368 389 L338 389 C320 389 302 404 302 426 L302 624 C302 725 220 805 116 805 L81 805 C69 805 60 796 60 784 L60 676 C60 664 69 655 81 655 L109 655 C127 655 143 638 143 617 L143 425 C143 380 155 344 182 314 C155 283 143 248 143 204 L143 10 C143 -11 127 -28 109 -28 L81 -28 C69 -28 60 -37 60 -49 L60 -157 C60 -169 69 -178 81 -178 L116 -178 C220 -178 302 -98 302 3 L302 202 Z " />
<glyph glyph-name="asciitilde" unicode="&#x7e;" horiz-adv-x="458" d="M296 150 C324 150 360 166 385 182 C394 189 398 199 398 209 L371 295 C369 303 360 310 349 310 C329 310 313 299 296 299 C247 299 210 337 162 337 C134 337 98 321 73 305 C64 298 60 288 60 278 L87 192 C89 184 98 177 109 177 C129 177 145 188 162 188 C210 188 248 150 296 150 L296 150 Z " />
<glyph glyph-name="uni00A0" unicode="&#xa0;" horiz-adv-x="198" d="" />
<glyph glyph-name="exclamdown" unicode="&#xa1;" horiz-adv-x="284" d="M60 582 C60 570 69 561 81 561 L203 561 C215 561 224 570 224 582 L224 679 C224 691 215 700 203 700 L81 700 C69 700 60 691 60 679 L60 582 Z M97 531 C85 531 78 521 77 510 L63 391 L63 15 C63 3 72 -6 84 -6 L200 -6 C212 -6 221 3 221 15 L221 391 L207 510 C206 521 199 531 187 531 L97 531 Z " />
<glyph glyph-name="cent" unicode="&#xa2;" horiz-adv-x="613" d="M416 458 L532 458 C544 458 553 467 553 479 L553 524 C553 620 478 697 381 704 L381 811 C381 823 372 832 360 832 L258 832 C246 832 237 823 237 811 L237 705 C137 699 60 621 60 524 L60 176 C60 79 137 1 237 -5 L237 -116 C237 -128 246 -137 258 -137 L360 -137 C372 -137 381 -128 381 -116 L381 -4 C478 3 553 80 553 176 L553 221 C553 233 544 242 532 242 L416 242 C404 242 395 233 395 221 L395 183 C395 162 380 145 361 145 L252 145 C234 145 218 162 218 183 L218 517 C218 538 234 555 252 555 L361 555 C380 555 395 538 395 517 L395 479 C395 467 404 458 416 458 L416 458 Z " />
<glyph glyph-name="sterling" unicode="&#xa3;" horiz-adv-x="643" d="M156 406 L81 406 C69 406 60 397 60 385 L60 277 C60 265 69 256 81 256 L156 256 L156 150 L81 150 C69 150 60 141 60 129 L60 21 C60 9 69 0 81 0 L562 0 C574 0 583 9 583 21 L583 129 C583 141 574 150 562 150 L314 150 L314 256 L421 256 C433 256 442 265 442 277 L442 385 C442 397 433 406 421 406 L314 406 L314 517 C314 538 330 555 348 555 L386 555 C405 555 420 538 420 517 L420 486 C420 474 429 465 441 465 L557 465 C569 465 578 474 578 486 L578 524 C578 625 495 705 390 705 L344 705 C239 705 156 625 156 524 L156 406 Z " />
<glyph glyph-name="currency" unicode="&#xa4;" horiz-adv-x="488" d="M292 20 C296 9 303 1 314 1 L408 1 C419 1 428 10 428 21 L386 117 C395 134 403 155 403 176 L403 248 C403 269 395 290 386 307 L428 403 C428 414 419 423 408 423 L314 423 C303 423 296 415 292 404 L281 377 L207 377 L196 404 C192 415 185 423 174 423 L80 423 C69 423 60 414 60 403 L102 307 C93 290 85 269 85 248 L85 176 C85 155 93 134 102 117 L60 21 C60 10 69 1 80 1 L174 1 C185 1 192 9 196 20 L207 47 L281 47 L292 20 Z M233 169 C225 169 216 176 216 186 L216 238 C216 248 225 255 233 255 L255 255 C263 255 272 248 272 238 L272 186 C272 176 263 169 255 169 L233 169 Z " />
<glyph glyph-name="yen" unicode="&#xa5;" horiz-adv-x="702" d="M522 381 L503 381 L642 679 C642 691 633 700 621 700 L502 700 C490 700 484 690 479 679 L357 411 L344 411 L223 679 C218 690 212 700 200 700 L81 700 C69 700 60 691 60 679 L200 381 L179 381 C167 381 158 372 158 360 L158 270 C158 258 167 249 179 249 L262 249 L272 227 L272 207 L179 207 C167 207 158 198 158 186 L158 96 C158 84 167 75 179 75 L272 75 L272 21 C272 9 281 0 293 0 L409 0 C421 0 430 9 430 21 L430 75 L522 75 C534 75 543 84 543 96 L543 186 C543 198 534 207 522 207 L430 207 L430 227 L441 249 L522 249 C534 249 543 258 543 270 L543 360 C543 372 534 381 522 381 L522 381 Z " />
<glyph glyph-name="brokenbar" unicode="&#xa6;" horiz-adv-x="278" d="M60 403 C60 391 69 382 81 382 L197 382 C209 382 218 391 218 403 L218 784 C218 796 209 805 197 805 L81 805 C69 805 60 796 60 784 L60 403 Z M60 -157 C60 -169 69 -178 81 -178 L197 -178 C209 -178 218 -169 218 -157 L218 224 C218 236 209 245 197 245 L81 245 C69 245 60 236 60 224 L60 -157 Z " />
<glyph glyph-name="section" unicode="&#xa7;" horiz-adv-x="551" d="M335 532 C335 520 344 511 356 511 L465 511 C477 511 486 520 486 532 L486 539 C486 618 423 700 325 700 L240 700 C142 700 84 629 79 549 L79 541 C79 501 92 471 113 449 C81 421 62 379 60 336 L60 328 C60 152 318 177 318 134 L318 122 C318 106 303 100 288 100 L241 100 C226 100 211 111 211 127 L211 134 C211 146 202 155 190 155 L81 155 C69 155 60 146 60 134 L60 123 C60 44 123 -38 221 -38 L312 -38 C411 -38 472 32 472 112 L472 126 C472 163 460 192 441 213 C473 241 491 282 491 325 L491 339 C491 514 234 486 234 533 L234 544 C234 560 249 566 264 566 L305 566 C320 566 335 555 335 539 L335 532 Z M246 303 C231 303 215 311 215 326 L215 336 C215 351 231 359 246 359 L303 359 C319 359 335 351 335 336 L335 326 C335 311 319 303 303 303 L246 303 Z " />
<glyph glyph-name="dieresis" unicode="&#xa8;" horiz-adv-x="456" d="M60 576 C60 564 69 555 81 555 L181 555 C193 555 202 564 202 576 L202 679 C202 691 193 700 181 700 L81 700 C69 700 60 691 60 679 L60 576 Z M254 576 C254 564 263 555 275 555 L375 555 C387 555 396 564 396 576 L396 679 C396 691 387 700 375 700 L275 700 C263 700 254 691 254 679 L254 576 Z " />
<glyph glyph-name="copyright" unicode="&#xa9;" horiz-adv-x="831" d="M416 699 C220 699 60 541 60 344 C60 148 220 -11 416 -11 C611 -11 771 148 771 344 C771 541 611 699 416 699 L416 699 Z M416 87 C273 87 159 202 159 344 C159 487 273 603 416 603 C560 603 675 487 675 344 C675 202 560 87 416 87 L416 87 Z M462 271 C462 260 451 251 440 251 L391 251 C379 251 369 260 369 271 L369 420 C369 432 379 440 391 440 L440 440 C451 440 462 432 462 420 L462 406 C462 399 467 391 477 391 L563 391 C573 391 578 399 578 406 L578 423 C574 485 530 548 453 548 L377 548 C300 548 253 485 253 423 L253 267 C253 206 300 143 377 143 L453 143 C530 143 574 206 578 267 L578 285 C578 292 573 300 563 300 L477 300 C467 300 462 292 462 285 L462 271 Z " />
<glyph glyph-name="ordfeminine" unicode="&#xaa;" horiz-adv-x="384" d="M165 493 C165 500 172 504 179 504 L220 504 L220 477 C220 470 212 467 204 467 L179 467 C172 467 165 470 165 477 L165 493 Z M104 595 C118 600 156 605 178 605 C207 605 219 595 220 578 L162 578 C103 578 60 550 60 493 L60 470 C60 413 103 380 162 380 L170 380 C180 380 206 386 215 405 L220 405 L220 396 C220 389 226 383 233 383 L311 383 C318 383 324 389 324 396 L324 581 C324 611 301 700 186 700 C140 700 107 690 92 685 C84 683 80 677 80 668 L90 607 C91 600 97 595 104 595 L104 595 Z " />
<glyph glyph-name="guillemotleft" unicode="&#xab;" horiz-adv-x="690" d="M228 269 L228 279 L351 495 C351 507 342 516 330 516 L207 516 C195 516 187 506 181 495 L60 291 L60 259 L181 21 C187 10 195 0 207 0 L330 0 C342 0 351 9 351 21 L228 269 Z M507 269 L507 279 L630 495 C630 507 621 516 609 516 L486 516 C474 516 466 506 460 495 L339 291 L339 259 L460 21 C466 10 474 0 486 0 L609 0 C621 0 630 9 630 21 L507 269 Z " />
<glyph glyph-name="logicalnot" unicode="&#xac;" horiz-adv-x="547" d="M329 190 L329 79 C329 67 338 58 350 58 L466 58 C478 58 487 67 487 79 L487 319 C487 331 478 340 466 340 L81 340 C69 340 60 331 60 319 L60 211 C60 199 69 190 81 190 L329 190 Z " />
<glyph glyph-name="uni00AD" unicode="&#xad;" horiz-adv-x="198" d="" />
<glyph glyph-name="registered" unicode="&#xae;" horiz-adv-x="831" d="M416 699 C220 699 60 541 60 344 C60 148 220 -11 416 -11 C611 -11 771 148 771 344 C771 541 611 699 416 699 L416 699 Z M416 87 C273 87 159 202 159 344 C159 487 273 603 416 603 C560 603 675 487 675 344 C675 202 560 87 416 87 L416 87 Z M387 367 L387 436 L428 436 C440 436 450 426 450 412 L450 390 C450 377 440 367 428 367 L387 367 Z M286 544 C276 544 271 536 271 529 L271 169 C271 162 276 154 286 154 L372 154 C382 154 387 162 387 169 L387 259 L410 259 L455 169 C458 163 463 154 473 154 L559 154 C569 154 574 162 574 169 L519 278 C546 297 565 329 565 364 L565 438 C565 497 517 544 456 544 L286 544 Z " />
<glyph glyph-name="macron" unicode="&#xaf;" horiz-adv-x="429" d="M348 550 C360 550 369 559 369 571 L369 679 C369 691 360 700 348 700 L81 700 C69 700 60 691 60 679 L60 571 C60 559 69 550 81 550 L348 550 Z " />
<glyph glyph-name="degree" unicode="&#xb0;" horiz-adv-x="404" d="M201 751 C124 751 60 688 60 609 C60 532 124 468 201 468 C281 468 344 532 344 609 C344 688 281 751 201 751 L201 751 Z M201 568 C179 568 160 587 160 609 C160 632 179 651 201 651 C224 651 243 632 243 609 C243 587 224 568 201 568 L201 568 Z " />
<glyph glyph-name="plusminus" unicode="&#xb1;" horiz-adv-x="464" d="M311 427 L311 498 C311 510 302 519 290 519 L174 519 C162 519 153 510 153 498 L153 427 L81 427 C69 427 60 418 60 406 L60 299 C60 287 69 278 81 278 L153 278 L153 206 C153 194 162 185 174 185 L290 185 C302 185 311 194 311 206 L311 278 L383 278 C395 278 404 287 404 299 L404 406 C404 418 395 427 383 427 L311 427 Z M81 149 C69 149 60 140 60 128 L60 21 C60 9 69 0 81 0 L383 0 C395 0 404 9 404 21 L404 128 C404 140 395 149 383 149 L81 149 Z " />
<glyph glyph-name="twosuperior" unicode="&#xb2;" horiz-adv-x="359" d="M66 586 C66 579 72 573 79 573 L141 573 C148 573 154 579 154 586 L154 591 C154 600 157 607 163 607 L181 607 C187 607 190 602 190 598 L190 593 C190 536 60 577 60 458 L60 400 C60 390 67 383 77 383 L286 383 C293 383 299 389 299 396 L299 464 C299 471 293 477 286 477 L173 477 C221 509 288 504 288 604 L288 617 C288 664 251 700 203 700 L150 700 C102 700 66 664 66 617 L66 586 Z " />
<glyph glyph-name="threesuperior" unicode="&#xb3;" horiz-adv-x="342" d="M175 506 C181 506 184 501 184 497 L184 486 C184 482 181 477 175 477 L157 477 C151 477 148 480 148 489 L148 494 C148 501 142 507 135 507 L73 507 C66 507 60 501 60 494 L60 467 C60 420 96 384 144 384 L197 384 C245 384 282 420 282 467 L282 480 C282 509 269 530 252 542 C269 554 282 575 282 604 L282 617 C282 664 245 700 197 700 L144 700 C96 700 60 664 60 617 L60 590 C60 583 66 577 73 577 L135 577 C142 577 148 583 148 590 L148 595 C148 604 151 607 157 607 L175 607 C181 607 184 602 184 598 L184 582 C184 578 181 573 175 573 L160 573 C153 573 147 567 147 560 L147 519 C147 512 153 506 160 506 L175 506 Z " />
<glyph glyph-name="acute" unicode="&#xb4;" horiz-adv-x="329" d="M187 528 C199 528 207 538 212 548 L269 681 C269 691 261 700 250 700 L142 700 C130 700 122 690 117 681 L60 548 C60 537 69 528 79 528 L187 528 Z " />
<glyph glyph-name="mu" unicode="&#xb5;" horiz-adv-x="536" d="M60 -153 C60 -165 69 -174 81 -174 L197 -174 C209 -174 218 -165 218 -153 L218 -5 L315 -5 C413 -5 476 77 476 156 L476 494 C476 506 467 515 455 515 L339 515 C327 515 318 506 318 494 L318 172 C318 156 303 142 288 142 L248 142 C234 142 220 154 218 168 L218 494 C218 506 209 515 197 515 L81 515 C69 515 60 506 60 494 L60 -153 Z " />
<glyph glyph-name="paragraph" unicode="&#xb6;" horiz-adv-x="699" d="M639 679 C639 691 630 700 618 700 L248 700 C144 700 60 620 60 519 L60 441 C60 339 144 260 248 260 L277 260 L277 21 C277 9 286 0 298 0 L414 0 C426 0 435 9 435 21 L435 550 L481 550 L481 21 C481 9 490 0 502 0 L618 0 C630 0 639 9 639 21 L639 679 Z " />
<glyph glyph-name="periodcentered" unicode="&#xb7;" horiz-adv-x="278" d="M60 172 C60 160 69 151 81 151 L197 151 C209 151 218 160 218 172 L218 290 C218 302 209 311 197 311 L81 311 C69 311 60 302 60 290 L60 172 Z " />
<glyph glyph-name="cedilla" unicode="&#xb8;" horiz-adv-x="299" d="M137 -92 C137 -92 149 -92 149 -105 C149 -118 137 -118 137 -118 L75 -118 C67 -118 60 -124 60 -133 L60 -180 C60 -188 67 -195 75 -195 L162 -195 C222 -195 239 -168 239 -93 C239 -53 211 -29 178 -23 L196 8 C196 19 188 27 177 27 L122 27 C111 27 106 17 100 8 L77 -32 C74 -37 72 -45 72 -48 L72 -77 C72 -85 79 -92 87 -92 L137 -92 Z " />
<glyph glyph-name="onesuperior" unicode="&#xb9;" horiz-adv-x="352" d="M134 602 L134 477 L83 477 C76 477 70 471 70 464 L70 396 C70 389 76 383 83 383 L279 383 C286 383 292 389 292 396 L292 464 C292 471 286 477 279 477 L238 477 L238 687 C238 694 232 700 225 700 L141 700 L74 672 C66 669 60 660 60 653 L60 591 C60 583 66 577 74 577 L134 602 Z " />
<glyph glyph-name="ordmasculine" unicode="&#xba;" horiz-adv-x="404" d="M201 751 C124 751 60 688 60 609 C60 532 124 468 201 468 C281 468 344 532 344 609 C344 688 281 751 201 751 L201 751 Z M201 568 C179 568 160 587 160 609 C160 632 179 651 201 651 C224 651 243 632 243 609 C243 587 224 568 201 568 L201 568 Z " />
<glyph glyph-name="guillemotright" unicode="&#xbb;" horiz-adv-x="690" d="M339 21 C339 9 348 0 360 0 L483 0 C495 0 503 10 509 21 L630 259 L630 291 L509 495 C503 506 495 516 483 516 L360 516 C348 516 339 507 339 495 L462 279 L462 269 L339 21 Z M60 21 C60 9 69 0 81 0 L204 0 C216 0 224 10 230 21 L351 259 L351 291 L230 495 C224 506 216 516 204 516 L81 516 C69 516 60 507 60 495 L183 279 L183 269 L60 21 Z " />
<glyph glyph-name="onequarter" unicode="&#xbc;" horiz-adv-x="746" d="M134 602 L134 477 L83 477 C76 477 70 471 70 464 L70 396 C70 389 76 383 83 383 L279 383 C286 383 292 389 292 396 L292 464 C292 471 286 477 279 477 L238 477 L238 687 C238 694 232 700 225 700 L141 700 L74 672 C66 669 60 660 60 653 L60 591 C60 583 66 577 74 577 L134 602 Z M159 20 C159 8 167 0 179 0 L254 0 C266 0 273 8 279 20 L615 680 C615 692 607 700 595 700 L520 700 C508 700 501 692 495 680 L159 20 Z M410 55 C410 48 416 42 423 42 L559 42 L559 13 C559 6 565 0 572 0 L650 0 C657 0 663 6 663 13 L663 42 L673 42 C680 42 686 48 686 55 L686 123 C686 130 680 136 673 136 L663 136 L663 189 C663 196 657 202 650 202 L572 202 C565 202 559 196 559 189 L559 136 L524 136 L592 295 C592 307 583 317 572 317 L514 317 C504 317 495 308 492 300 L410 106 L410 55 Z " />
<glyph glyph-name="onehalf" unicode="&#xbd;" horiz-adv-x="745" d="M134 602 L134 477 L83 477 C76 477 70 471 70 464 L70 396 C70 389 76 383 83 383 L279 383 C286 383 292 389 292 396 L292 464 C292 471 286 477 279 477 L238 477 L238 687 C238 694 232 700 225 700 L141 700 L74 672 C66 669 60 660 60 653 L60 591 C60 583 66 577 74 577 L134 602 Z M159 20 C159 8 167 0 179 0 L254 0 C266 0 273 8 279 20 L615 680 C615 692 607 700 595 700 L520 700 C508 700 501 692 495 680 L159 20 Z M452 203 C452 196 458 190 465 190 L527 190 C534 190 540 196 540 203 L540 208 C540 217 543 224 549 224 L567 224 C573 224 576 219 576 215 L576 210 C576 153 446 194 446 75 L446 17 C446 7 453 0 463 0 L672 0 C679 0 685 6 685 13 L685 81 C685 88 679 94 672 94 L559 94 C607 126 674 121 674 221 L674 234 C674 281 637 317 589 317 L536 317 C488 317 452 281 452 234 L452 203 Z " />
<glyph glyph-name="threequarters" unicode="&#xbe;" horiz-adv-x="720" d="M175 506 C181 506 184 501 184 497 L184 486 C184 482 181 477 175 477 L157 477 C151 477 148 480 148 489 L148 494 C148 501 142 507 135 507 L73 507 C66 507 60 501 60 494 L60 467 C60 420 96 384 144 384 L197 384 C245 384 282 420 282 467 L282 480 C282 509 269 530 252 542 C269 554 282 575 282 604 L282 617 C282 664 245 700 197 700 L144 700 C96 700 60 664 60 617 L60 590 C60 583 66 577 73 577 L135 577 C142 577 148 583 148 590 L148 595 C148 604 151 607 157 607 L175 607 C181 607 184 602 184 598 L184 582 C184 578 181 573 175 573 L160 573 C153 573 147 567 147 560 L147 519 C147 512 153 506 160 506 L175 506 Z M131 20 C131 8 139 0 151 0 L226 0 C238 0 245 8 251 20 L587 680 C587 692 579 700 567 700 L492 700 C480 700 473 692 467 680 L131 20 Z M384 55 C384 48 390 42 397 42 L533 42 L533 13 C533 6 539 0 546 0 L624 0 C631 0 637 6 637 13 L637 42 L647 42 C654 42 660 48 660 55 L660 123 C660 130 654 136 647 136 L637 136 L637 189 C637 196 631 202 624 202 L546 202 C539 202 533 196 533 189 L533 136 L498 136 L566 295 C566 307 557 317 546 317 L488 317 C478 317 469 308 466 300 L384 106 L384 55 Z " />
<glyph glyph-name="questiondown" unicode="&#xbf;" horiz-adv-x="603" d="M245 490 C245 370 60 467 60 219 L60 176 C60 75 142 -5 246 -5 L359 -5 C463 -5 543 75 543 176 L543 229 C543 241 534 250 522 250 L406 250 C394 250 385 241 385 229 L385 183 C385 162 369 145 351 145 L253 145 C233 145 218 162 218 183 L218 215 C218 343 403 244 403 486 L403 512 C403 524 394 533 382 533 L266 533 C254 533 245 524 245 512 L245 490 Z M406 587 C406 575 397 566 385 566 L263 566 C251 566 242 575 242 587 L242 684 C242 696 251 705 263 705 L385 705 C397 705 406 696 406 684 L406 587 Z " />
<glyph glyph-name="Agrave" unicode="&#xc0;" horiz-adv-x="616" d="M356 751 C366 751 375 760 375 771 L318 904 C313 913 305 923 293 923 L185 923 C174 923 166 914 166 904 L223 771 C228 761 236 751 248 751 L356 751 Z M230 700 C218 700 209 691 206 679 L15 21 C15 9 24 0 36 0 L155 0 C167 0 175 9 178 21 L202 112 L413 112 L438 21 C441 9 449 0 461 0 L580 0 C592 0 601 9 601 21 L410 679 C407 691 398 700 386 700 L230 700 Z M303 486 L313 486 L373 261 L242 261 L303 486 Z " />
<glyph glyph-name="Aacute" unicode="&#xc1;" horiz-adv-x="616" d="M364 751 C376 751 384 761 389 771 L446 904 C446 914 438 923 427 923 L319 923 C307 923 299 913 294 904 L237 771 C237 760 246 751 256 751 L364 751 Z M230 700 C218 700 209 691 206 679 L15 21 C15 9 24 0 36 0 L155 0 C167 0 175 9 178 21 L202 112 L413 112 L438 21 C441 9 449 0 461 0 L580 0 C592 0 601 9 601 21 L410 679 C407 691 398 700 386 700 L230 700 Z M303 486 L313 486 L373 261 L242 261 L303 486 Z " />
<glyph glyph-name="Acircumflex" unicode="&#xc2;" horiz-adv-x="616" d="M259 959 C242 959 232 950 226 938 L143 771 C143 759 151 751 163 751 L262 751 C274 751 281 761 286 771 L308 814 L330 771 C335 761 342 751 354 751 L453 751 C465 751 473 759 473 771 L390 938 C384 950 374 959 357 959 L259 959 Z M230 700 C218 700 209 691 206 679 L15 21 C15 9 24 0 36 0 L155 0 C167 0 175 9 178 21 L202 112 L413 112 L438 21 C441 9 449 0 461 0 L580 0 C592 0 601 9 601 21 L410 679 C407 691 398 700 386 700 L230 700 Z M303 486 L313 486 L373 261 L242 261 L303 486 Z " />
<glyph glyph-name="Atilde" unicode="&#xc3;" horiz-adv-x="616" d="M230 700 C218 700 209 691 206 679 L15 21 C15 9 24 0 36 0 L155 0 C167 0 175 9 178 21 L202 112 L413 112 L438 21 C441 9 449 0 461 0 L580 0 C592 0 601 9 601 21 L410 679 C407 691 398 700 386 700 L230 700 Z M303 486 L313 486 L373 261 L242 261 L303 486 Z M375 751 C403 751 439 767 464 783 C473 790 477 800 477 810 L450 896 C448 904 439 911 428 911 C408 911 392 900 375 900 C326 900 289 938 241 938 C213 938 177 922 152 906 C143 899 139 889 139 879 L166 793 C168 785 177 778 188 778 C208 778 224 789 241 789 C289 789 327 751 375 751 L375 751 Z " />
<glyph glyph-name="Adieresis" unicode="&#xc4;" horiz-adv-x="616" d="M230 700 C218 700 209 691 206 679 L15 21 C15 9 24 0 36 0 L155 0 C167 0 175 9 178 21 L202 112 L413 112 L438 21 C441 9 449 0 461 0 L580 0 C592 0 601 9 601 21 L410 679 C407 691 398 700 386 700 L230 700 Z M303 486 L313 486 L373 261 L242 261 L303 486 Z M140 772 C140 760 149 751 161 751 L261 751 C273 751 282 760 282 772 L282 875 C282 887 273 896 261 896 L161 896 C149 896 140 887 140 875 L140 772 Z M334 772 C334 760 343 751 355 751 L455 751 C467 751 476 760 476 772 L476 875 C476 887 467 896 455 896 L355 896 C343 896 334 887 334 875 L334 772 Z " />
<glyph glyph-name="Aring" unicode="&#xc5;" horiz-adv-x="616" d="M308 883 C231 883 167 820 167 741 C167 708 179 677 198 653 L15 21 C15 9 24 0 36 0 L155 0 C167 0 175 9 178 21 L202 112 L413 112 L438 21 C441 9 449 0 461 0 L580 0 C592 0 601 9 601 21 L418 651 C438 675 451 707 451 741 C451 820 388 883 308 883 L308 883 Z M303 486 L313 486 L373 261 L242 261 L303 486 Z M308 700 C286 700 267 719 267 741 C267 764 286 783 308 783 C331 783 350 764 350 741 C350 720 333 702 308 700 L308 700 Z " />
<glyph glyph-name="AE" unicode="&#xc6;" horiz-adv-x="916" d="M845 550 C857 550 866 559 866 571 L866 679 C866 691 857 700 845 700 L376 700 C358 700 350 692 342 679 L10 31 C10 13 22 0 38 0 L150 0 C165 0 174 12 181 24 C194 52 210 85 224 112 L439 112 L439 21 C439 9 448 0 460 0 L845 0 C857 0 866 9 866 21 L866 129 C866 141 857 150 845 150 L597 150 L597 287 L823 287 C835 287 844 296 844 308 L844 416 C844 428 835 437 823 437 L597 437 L597 550 L845 550 Z M439 248 L285 248 C338 352 386 446 439 548 L439 248 Z " />
<glyph glyph-name="Ccedilla" unicode="&#xc7;" horiz-adv-x="578" d="M251 -5 L232 -38 C229 -43 227 -51 227 -54 L227 -83 C227 -91 234 -98 242 -98 L292 -98 C292 -98 304 -98 304 -111 C304 -124 292 -124 292 -124 L230 -124 C222 -124 215 -130 215 -139 L215 -186 C215 -194 222 -201 230 -201 L317 -201 C377 -201 394 -174 394 -99 C394 -59 366 -35 333 -29 L347 -5 L355 -5 C460 -5 543 75 543 176 L543 221 C543 233 534 242 522 242 L406 242 C394 242 385 233 385 221 L385 183 C385 162 370 145 351 145 L242 145 C224 145 208 162 208 183 L208 517 C208 538 224 555 242 555 L351 555 C370 555 385 538 385 517 L385 479 C385 467 394 458 406 458 L522 458 C534 458 543 467 543 479 L543 524 C543 625 460 705 355 705 L238 705 C133 705 50 625 50 524 L50 176 C50 75 133 -5 238 -5 L251 -5 Z " />
<glyph glyph-name="Egrave" unicode="&#xc8;" horiz-adv-x="537" d="M218 150 L218 287 L444 287 C456 287 465 296 465 308 L465 416 C465 428 456 437 444 437 L218 437 L218 550 L466 550 C478 550 487 559 487 571 L487 679 C487 691 478 700 466 700 L81 700 C69 700 60 691 60 679 L60 21 C60 9 69 0 81 0 L466 0 C478 0 487 9 487 21 L487 129 C487 141 478 150 466 150 L218 150 Z M331 751 C341 751 350 760 350 771 L293 904 C288 913 280 923 268 923 L160 923 C149 923 141 914 141 904 L198 771 C203 761 211 751 223 751 L331 751 Z " />
<glyph glyph-name="Eacute" unicode="&#xc9;" horiz-adv-x="537" d="M218 150 L218 287 L444 287 C456 287 465 296 465 308 L465 416 C465 428 456 437 444 437 L218 437 L218 550 L466 550 C478 550 487 559 487 571 L487 679 C487 691 478 700 466 700 L81 700 C69 700 60 691 60 679 L60 21 C60 9 69 0 81 0 L466 0 C478 0 487 9 487 21 L487 129 C487 141 478 150 466 150 L218 150 Z M331 751 C343 751 351 761 356 771 L413 904 C413 914 405 923 394 923 L286 923 C274 923 266 913 261 904 L204 771 C204 760 213 751 223 751 L331 751 Z " />
<glyph glyph-name="Ecircumflex" unicode="&#xca;" horiz-adv-x="537" d="M218 150 L218 287 L444 287 C456 287 465 296 465 308 L465 416 C465 428 456 437 444 437 L218 437 L218 550 L466 550 C478 550 487 559 487 571 L487 679 C487 691 478 700 466 700 L81 700 C69 700 60 691 60 679 L60 21 C60 9 69 0 81 0 L466 0 C478 0 487 9 487 21 L487 129 C487 141 478 150 466 150 L218 150 Z M226 959 C209 959 199 950 193 938 L110 771 C110 759 118 751 130 751 L229 751 C241 751 248 761 253 771 L275 814 L297 771 C302 761 309 751 321 751 L420 751 C432 751 440 759 440 771 L357 938 C351 950 341 959 324 959 L226 959 Z " />
<glyph glyph-name="Edieresis" unicode="&#xcb;" horiz-adv-x="537" d="M218 150 L218 287 L444 287 C456 287 465 296 465 308 L465 416 C465 428 456 437 444 437 L218 437 L218 550 L466 550 C478 550 487 559 487 571 L487 679 C487 691 478 700 466 700 L81 700 C69 700 60 691 60 679 L60 21 C60 9 69 0 81 0 L466 0 C478 0 487 9 487 21 L487 129 C487 141 478 150 466 150 L218 150 Z M108 772 C108 760 117 751 129 751 L229 751 C241 751 250 760 250 772 L250 875 C250 887 241 896 229 896 L129 896 C117 896 108 887 108 875 L108 772 Z M302 772 C302 760 311 751 323 751 L423 751 C435 751 444 760 444 772 L444 875 C444 887 435 896 423 896 L323 896 C311 896 302 887 302 875 L302 772 Z " />
<glyph glyph-name="Igrave" unicode="&#xcc;" horiz-adv-x="278" d="M60 21 C60 9 69 0 81 0 L197 0 C209 0 218 9 218 21 L218 679 C218 691 209 700 197 700 L81 700 C69 700 60 691 60 679 L60 21 Z M191 751 C201 751 210 760 210 771 L153 904 C148 913 140 923 128 923 L20 923 C9 923 1 914 1 904 L58 771 C63 761 71 751 83 751 L191 751 Z " />
<glyph glyph-name="Iacute" unicode="&#xcd;" horiz-adv-x="278" d="M60 21 C60 9 69 0 81 0 L197 0 C209 0 218 9 218 21 L218 679 C218 691 209 700 197 700 L81 700 C69 700 60 691 60 679 L60 21 Z M190 751 C202 751 210 761 215 771 L272 904 C272 914 264 923 253 923 L145 923 C133 923 125 913 120 904 L63 771 C63 760 72 751 82 751 L190 751 Z " />
<glyph glyph-name="Icircumflex" unicode="&#xce;" horiz-adv-x="278" d="M60 21 C60 9 69 0 81 0 L197 0 C209 0 218 9 218 21 L218 679 C218 691 209 700 197 700 L81 700 C69 700 60 691 60 679 L60 21 Z M90 959 C73 959 63 950 57 938 L-26 771 C-26 759 -18 751 -6 751 L93 751 C105 751 112 761 117 771 L139 814 L161 771 C166 761 173 751 185 751 L284 751 C296 751 304 759 304 771 L221 938 C215 950 205 959 188 959 L90 959 Z " />
<glyph glyph-name="Idieresis" unicode="&#xcf;" horiz-adv-x="278" d="M60 21 C60 9 69 0 81 0 L197 0 C209 0 218 9 218 21 L218 679 C218 691 209 700 197 700 L81 700 C69 700 60 691 60 679 L60 21 Z M-29 772 C-29 760 -20 751 -8 751 L92 751 C104 751 113 760 113 772 L113 875 C113 887 104 896 92 896 L-8 896 C-20 896 -29 887 -29 875 L-29 772 Z M165 772 C165 760 174 751 186 751 L286 751 C298 751 307 760 307 772 L307 875 C307 887 298 896 286 896 L186 896 C174 896 165 887 165 875 L165 772 Z " />
<glyph glyph-name="Eth" unicode="&#xd0;" horiz-adv-x="608" d="M64 21 C64 9 73 0 85 0 L370 0 C474 0 558 80 558 181 L558 519 C558 620 474 700 370 700 L85 700 C73 700 64 691 64 679 L64 416 L21 416 C9 416 0 407 0 395 L0 303 C0 291 9 282 21 282 L64 282 L64 21 Z M276 282 C288 282 297 291 297 303 L297 395 C297 407 288 416 276 416 L222 416 L222 551 L365 551 C384 551 400 534 400 513 L400 187 C400 166 384 149 365 149 L222 149 L222 282 L276 282 Z " />
<glyph glyph-name="Ntilde" unicode="&#xd1;" horiz-adv-x="641" d="M414 323 L254 678 C249 689 242 699 230 699 L81 699 C69 699 60 690 60 678 L60 21 C60 9 69 0 81 0 L197 0 C209 0 218 9 218 21 L218 376 L227 376 L387 21 C391 10 399 0 411 0 L560 0 C572 0 581 9 581 21 L581 678 C581 690 572 699 560 699 L444 699 C432 699 423 690 423 678 L423 323 L414 323 Z M373 751 C401 751 437 767 462 783 C471 790 475 800 475 810 L448 896 C446 904 437 911 426 911 C406 911 390 900 373 900 C324 900 287 938 239 938 C211 938 175 922 150 906 C141 899 137 889 137 879 L164 793 C166 785 175 778 186 778 C206 778 222 789 239 789 C287 789 325 751 373 751 L373 751 Z " />
<glyph glyph-name="Ograve" unicode="&#xd2;" horiz-adv-x="593" d="M242 145 C224 145 208 162 208 183 L208 517 C208 538 224 555 242 555 L351 555 C370 555 385 538 385 517 L385 183 C385 162 370 145 351 145 L242 145 Z M355 -5 C460 -5 543 75 543 176 L543 524 C543 625 460 705 355 705 L238 705 C133 705 50 625 50 524 L50 176 C50 75 133 -5 238 -5 L355 -5 Z M351 751 C361 751 370 760 370 771 L313 904 C308 913 300 923 288 923 L180 923 C169 923 161 914 161 904 L218 771 C223 761 231 751 243 751 L351 751 Z " />
<glyph glyph-name="Oacute" unicode="&#xd3;" horiz-adv-x="593" d="M242 145 C224 145 208 162 208 183 L208 517 C208 538 224 555 242 555 L351 555 C370 555 385 538 385 517 L385 183 C385 162 370 145 351 145 L242 145 Z M355 -5 C460 -5 543 75 543 176 L543 524 C543 625 460 705 355 705 L238 705 C133 705 50 625 50 524 L50 176 C50 75 133 -5 238 -5 L355 -5 Z M360 751 C372 751 380 761 385 771 L442 904 C442 914 434 923 423 923 L315 923 C303 923 295 913 290 904 L233 771 C233 760 242 751 252 751 L360 751 Z " />
<glyph glyph-name="Ocircumflex" unicode="&#xd4;" horiz-adv-x="593" d="M242 145 C224 145 208 162 208 183 L208 517 C208 538 224 555 242 555 L351 555 C370 555 385 538 385 517 L385 183 C385 162 370 145 351 145 L242 145 Z M355 -5 C460 -5 543 75 543 176 L543 524 C543 625 460 705 355 705 L238 705 C133 705 50 625 50 524 L50 176 C50 75 133 -5 238 -5 L355 -5 Z M247 959 C230 959 220 950 214 938 L131 771 C131 759 139 751 151 751 L250 751 C262 751 269 761 274 771 L296 814 L318 771 C323 761 330 751 342 751 L441 751 C453 751 461 759 461 771 L378 938 C372 950 362 959 345 959 L247 959 Z " />
<glyph glyph-name="Otilde" unicode="&#xd5;" horiz-adv-x="593" d="M242 145 C224 145 208 162 208 183 L208 517 C208 538 224 555 242 555 L351 555 C370 555 385 538 385 517 L385 183 C385 162 370 145 351 145 L242 145 Z M355 -5 C460 -5 543 75 543 176 L543 524 C543 625 460 705 355 705 L238 705 C133 705 50 625 50 524 L50 176 C50 75 133 -5 238 -5 L355 -5 Z M364 751 C392 751 428 767 453 783 C462 790 466 800 466 810 L439 896 C437 904 428 911 417 911 C397 911 381 900 364 900 C315 900 278 938 230 938 C202 938 166 922 141 906 C132 899 128 889 128 879 L155 793 C157 785 166 778 177 778 C197 778 213 789 230 789 C278 789 316 751 364 751 L364 751 Z " />
<glyph glyph-name="Odieresis" unicode="&#xd6;" horiz-adv-x="593" d="M242 145 C224 145 208 162 208 183 L208 517 C208 538 224 555 242 555 L351 555 C370 555 385 538 385 517 L385 183 C385 162 370 145 351 145 L242 145 Z M355 -5 C460 -5 543 75 543 176 L543 524 C543 625 460 705 355 705 L238 705 C133 705 50 625 50 524 L50 176 C50 75 133 -5 238 -5 L355 -5 Z M128 772 C128 760 137 751 149 751 L249 751 C261 751 270 760 270 772 L270 875 C270 887 261 896 249 896 L149 896 C137 896 128 887 128 875 L128 772 Z M322 772 C322 760 331 751 343 751 L443 751 C455 751 464 760 464 772 L464 875 C464 887 455 896 443 896 L343 896 C331 896 322 887 322 875 L322 772 Z " />
<glyph glyph-name="multiply" unicode="&#xd7;" horiz-adv-x="444" d="M222 93 L281 32 C286 28 291 26 296 26 C300 26 305 28 309 32 L378 102 C382 106 384 111 384 115 C384 120 382 126 378 129 L319 189 L378 249 C382 252 384 258 384 263 C384 267 382 272 378 276 L309 346 C305 350 300 352 296 352 C291 352 286 350 281 346 L222 285 L163 346 C158 350 153 352 148 352 C144 352 139 350 135 346 L66 276 C62 272 60 267 60 263 C60 258 62 252 66 249 L125 189 L66 129 C62 126 60 120 60 115 C60 111 62 106 66 102 L135 32 C139 28 144 26 148 26 C153 26 158 28 163 32 L222 93 Z " />
<glyph glyph-name="Oslash" unicode="&#xd8;" horiz-adv-x="593" d="M104 -70 C104 -82 113 -91 125 -91 L209 -91 C221 -91 229 -81 233 -70 L253 -5 L355 -5 C460 -5 543 75 543 176 L543 524 C543 584 513 637 467 670 L499 770 C499 782 490 791 478 791 L394 791 C382 791 374 781 370 770 L349 705 L238 705 C133 705 50 625 50 524 L50 176 C50 112 83 56 134 24 L104 -70 Z M208 517 C208 538 224 555 242 555 L302 555 L208 258 L208 517 Z M351 145 L301 145 L385 410 L385 183 C385 162 370 145 351 145 L351 145 Z " />
<glyph glyph-name="Ugrave" unicode="&#xd9;" horiz-adv-x="603" d="M361 -5 C466 -5 548 75 548 176 L548 679 C548 691 539 700 527 700 L411 700 C399 700 390 691 390 679 L390 183 C390 162 374 145 356 145 L247 145 C229 145 213 162 213 183 L213 679 C213 691 204 700 192 700 L76 700 C64 700 55 691 55 679 L55 176 C55 75 137 -5 242 -5 L361 -5 Z M358 751 C368 751 377 760 377 771 L320 904 C315 913 307 923 295 923 L187 923 C176 923 168 914 168 904 L225 771 C230 761 238 751 250 751 L358 751 Z " />
<glyph glyph-name="Uacute" unicode="&#xda;" horiz-adv-x="603" d="M361 -5 C466 -5 548 75 548 176 L548 679 C548 691 539 700 527 700 L411 700 C399 700 390 691 390 679 L390 183 C390 162 374 145 356 145 L247 145 C229 145 213 162 213 183 L213 679 C213 691 204 700 192 700 L76 700 C64 700 55 691 55 679 L55 176 C55 75 137 -5 242 -5 L361 -5 Z M359 751 C371 751 379 761 384 771 L441 904 C441 914 433 923 422 923 L314 923 C302 923 294 913 289 904 L232 771 C232 760 241 751 251 751 L359 751 Z " />
<glyph glyph-name="Ucircumflex" unicode="&#xdb;" horiz-adv-x="603" d="M361 -5 C466 -5 548 75 548 176 L548 679 C548 691 539 700 527 700 L411 700 C399 700 390 691 390 679 L390 183 C390 162 374 145 356 145 L247 145 C229 145 213 162 213 183 L213 679 C213 691 204 700 192 700 L76 700 C64 700 55 691 55 679 L55 176 C55 75 137 -5 242 -5 L361 -5 Z M252 959 C235 959 225 950 219 938 L136 771 C136 759 144 751 156 751 L255 751 C267 751 274 761 279 771 L301 814 L323 771 C328 761 335 751 347 751 L446 751 C458 751 466 759 466 771 L383 938 C377 950 367 959 350 959 L252 959 Z " />
<glyph glyph-name="Udieresis" unicode="&#xdc;" horiz-adv-x="603" d="M361 -5 C466 -5 548 75 548 176 L548 679 C548 691 539 700 527 700 L411 700 C399 700 390 691 390 679 L390 183 C390 162 374 145 356 145 L247 145 C229 145 213 162 213 183 L213 679 C213 691 204 700 192 700 L76 700 C64 700 55 691 55 679 L55 176 C55 75 137 -5 242 -5 L361 -5 Z M133 772 C133 760 142 751 154 751 L254 751 C266 751 275 760 275 772 L275 875 C275 887 266 896 254 896 L154 896 C142 896 133 887 133 875 L133 772 Z M327 772 C327 760 336 751 348 751 L448 751 C460 751 469 760 469 772 L469 875 C469 887 460 896 448 896 L348 896 C336 896 327 887 327 875 L327 772 Z " />
<glyph glyph-name="Yacute" unicode="&#xdd;" horiz-adv-x="602" d="M307 411 L294 411 L173 679 C168 690 162 700 150 700 L31 700 C19 700 10 691 10 679 L222 227 L222 21 C222 9 231 0 243 0 L359 0 C371 0 380 9 380 21 L380 227 L592 679 C592 691 583 700 571 700 L452 700 C440 700 434 690 429 679 L307 411 Z M364 751 C376 751 384 761 389 771 L446 904 C446 914 438 923 427 923 L319 923 C307 923 299 913 294 904 L237 771 C237 760 246 751 256 751 L364 751 Z " />
<glyph glyph-name="Thorn" unicode="&#xde;" horiz-adv-x="587" d="M218 248 L218 455 L354 455 C374 455 389 438 389 417 L389 286 C389 266 374 248 354 248 L218 248 Z M218 605 L218 681 C218 693 209 702 197 702 L81 702 C69 702 60 693 60 681 L60 21 C60 9 69 0 81 0 L197 0 C209 0 218 9 218 21 L218 98 L359 98 C463 98 547 178 547 279 L547 424 C547 524 464 605 361 605 L218 605 Z " />
<glyph glyph-name="germandbls" unicode="&#xdf;" horiz-adv-x="577" d="M352 275 C372 275 387 258 387 237 L387 187 C387 166 372 149 352 149 L274 149 C262 149 253 140 253 128 L253 21 C253 9 262 0 274 0 L359 0 C463 0 547 80 547 181 L547 241 C547 289 519 334 481 367 C503 392 520 424 520 459 L520 519 C520 620 436 700 332 700 L81 700 C69 700 60 691 60 679 L60 21 C60 9 69 0 81 0 L197 0 C209 0 218 9 218 21 L218 551 L325 551 C344 551 360 534 360 513 L360 462 C360 441 344 424 325 424 L274 424 C262 424 253 415 253 403 L253 296 C253 284 262 275 274 275 L352 275 Z " />
<glyph glyph-name="agrave" unicode="&#xe0;" horiz-adv-x="500" d="M124 360 C155 369 194 373 229 373 C296 373 297 351 297 322 L209 322 C113 322 40 275 40 182 L40 143 C40 50 101 -5 186 -5 L196 -5 C208 -5 270 -5 289 31 L297 31 L297 21 C297 9 306 0 318 0 L434 0 C446 0 455 9 455 21 L455 324 C455 372 437 520 246 520 C166 520 111 505 91 499 C81 496 74 489 74 479 C74 477 74 466 97 376 C100 363 108 359 114 359 C116 359 120 359 124 360 L124 360 Z M187 174 C187 190 200 201 214 201 L297 201 L297 163 C297 149 283 136 269 136 L214 136 C200 136 187 149 187 163 L187 174 Z M326 571 C336 571 345 580 345 591 L288 724 C283 733 275 743 263 743 L155 743 C144 743 136 734 136 724 L193 591 C198 581 206 571 218 571 L326 571 Z " />
<glyph glyph-name="aacute" unicode="&#xe1;" horiz-adv-x="500" d="M124 360 C155 369 194 373 229 373 C296 373 297 351 297 322 L209 322 C113 322 40 275 40 182 L40 143 C40 50 101 -5 186 -5 L196 -5 C208 -5 270 -5 289 31 L297 31 L297 21 C297 9 306 0 318 0 L434 0 C446 0 455 9 455 21 L455 324 C455 372 437 520 246 520 C166 520 111 505 91 499 C81 496 74 489 74 479 C74 477 74 466 97 376 C100 363 108 359 114 359 C116 359 120 359 124 360 L124 360 Z M187 174 C187 190 200 201 214 201 L297 201 L297 163 C297 149 283 136 269 136 L214 136 C200 136 187 149 187 163 L187 174 Z M318 571 C330 571 338 581 343 591 L400 724 C400 734 392 743 381 743 L273 743 C261 743 253 733 248 724 L191 591 C191 580 200 571 210 571 L318 571 Z " />
<glyph glyph-name="acircumflex" unicode="&#xe2;" horiz-adv-x="500" d="M124 360 C155 369 194 373 229 373 C296 373 297 351 297 322 L209 322 C113 322 40 275 40 182 L40 143 C40 50 101 -5 186 -5 L196 -5 C208 -5 270 -5 289 31 L297 31 L297 21 C297 9 306 0 318 0 L434 0 C446 0 455 9 455 21 L455 324 C455 372 437 520 246 520 C166 520 111 505 91 499 C81 496 74 489 74 479 C74 477 74 466 97 376 C100 363 108 359 114 359 C116 359 120 359 124 360 L124 360 Z M187 174 C187 190 200 201 214 201 L297 201 L297 163 C297 149 283 136 269 136 L214 136 C200 136 187 149 187 163 L187 174 Z M216 779 C199 779 189 770 183 758 L100 591 C100 579 108 571 120 571 L219 571 C231 571 238 581 243 591 L265 634 L287 591 C292 581 299 571 311 571 L410 571 C422 571 430 579 430 591 L347 758 C341 770 331 779 314 779 L216 779 Z " />
<glyph glyph-name="atilde" unicode="&#xe3;" horiz-adv-x="500" d="M124 360 C155 369 194 373 229 373 C296 373 297 351 297 322 L209 322 C113 322 40 275 40 182 L40 143 C40 50 101 -5 186 -5 L196 -5 C208 -5 270 -5 289 31 L297 31 L297 21 C297 9 306 0 318 0 L434 0 C446 0 455 9 455 21 L455 324 C455 372 437 520 246 520 C166 520 111 505 91 499 C81 496 74 489 74 479 C74 477 74 466 97 376 C100 363 108 359 114 359 C116 359 120 359 124 360 L124 360 Z M187 174 C187 190 200 201 214 201 L297 201 L297 163 C297 149 283 136 269 136 L214 136 C200 136 187 149 187 163 L187 174 Z M335 571 C363 571 399 587 424 603 C433 610 437 620 437 630 L410 716 C408 724 399 731 388 731 C368 731 352 720 335 720 C286 720 249 758 201 758 C173 758 137 742 112 726 C103 719 99 709 99 699 L126 613 C128 605 137 598 148 598 C168 598 184 609 201 609 C249 609 287 571 335 571 L335 571 Z " />
<glyph glyph-name="adieresis" unicode="&#xe4;" horiz-adv-x="500" d="M124 360 C155 369 194 373 229 373 C296 373 297 351 297 322 L209 322 C113 322 40 275 40 182 L40 143 C40 50 101 -5 186 -5 L196 -5 C208 -5 270 -5 289 31 L297 31 L297 21 C297 9 306 0 318 0 L434 0 C446 0 455 9 455 21 L455 324 C455 372 437 520 246 520 C166 520 111 505 91 499 C81 496 74 489 74 479 C74 477 74 466 97 376 C100 363 108 359 114 359 C116 359 120 359 124 360 L124 360 Z M187 174 C187 190 200 201 214 201 L297 201 L297 163 C297 149 283 136 269 136 L214 136 C200 136 187 149 187 163 L187 174 Z M103 592 C103 580 112 571 124 571 L224 571 C236 571 245 580 245 592 L245 695 C245 707 236 716 224 716 L124 716 C112 716 103 707 103 695 L103 592 Z M282 592 C282 580 291 571 303 571 L403 571 C415 571 424 580 424 592 L424 695 C424 707 415 716 403 716 L303 716 C291 716 282 707 282 695 L282 592 Z " />
<glyph glyph-name="aring" unicode="&#xe5;" horiz-adv-x="500" d="M124 360 C155 369 194 373 229 373 C296 373 297 351 297 322 L209 322 C113 322 40 275 40 182 L40 143 C40 50 101 -5 186 -5 L196 -5 C208 -5 270 -5 289 31 L297 31 L297 21 C297 9 306 0 318 0 L434 0 C446 0 455 9 455 21 L455 324 C455 372 437 520 246 520 C166 520 111 505 91 499 C81 496 74 489 74 479 C74 477 74 466 97 376 C100 363 108 359 114 359 C116 359 120 359 124 360 L124 360 Z M187 174 C187 190 200 201 214 201 L297 201 L297 163 C297 149 283 136 269 136 L214 136 C200 136 187 149 187 163 L187 174 Z M262 854 C185 854 121 791 121 712 C121 635 185 571 262 571 C342 571 405 635 405 712 C405 791 342 854 262 854 L262 854 Z M262 671 C240 671 221 690 221 712 C221 735 240 754 262 754 C285 754 304 735 304 712 C304 690 285 671 262 671 L262 671 Z " />
<glyph glyph-name="ae" unicode="&#xe6;" horiz-adv-x="753" d="M700 81 C702 85 704 90 704 93 C704 100 702 104 695 109 L622 170 C618 172 613 173 610 173 C602 173 597 169 592 164 C584 155 565 142 544 142 L485 142 C470 142 455 156 455 172 L455 197 L685 197 C702 197 713 208 713 225 L713 358 C713 438 652 520 552 520 L458 520 C422 520 391 509 366 492 C337 509 298 520 246 520 C166 520 111 505 91 499 C81 496 74 489 74 479 C74 477 74 466 97 376 C100 363 108 359 114 359 C116 359 120 359 124 360 C155 369 194 373 229 373 C296 373 297 351 297 322 L209 322 C113 322 40 275 40 182 L40 143 C40 25 134 -5 219 -5 L256 -5 C268 -5 343 -2 361 36 L374 36 C389 17 423 -5 476 -5 L544 -5 C544 -5 650 -2 700 81 L700 81 Z M187 174 C187 190 200 201 214 201 L297 201 L297 163 C297 149 283 136 269 136 L214 136 C200 136 187 149 187 163 L187 174 Z M455 343 C455 359 470 373 485 373 L526 373 C541 373 556 359 556 343 L556 312 L455 312 L455 343 Z " />
<glyph glyph-name="ccedilla" unicode="&#xe7;" horiz-adv-x="486" d="M245 -98 C245 -98 257 -98 257 -111 C257 -124 245 -124 245 -124 L183 -124 C175 -124 168 -130 168 -139 L168 -186 C168 -194 175 -201 183 -201 L270 -201 C330 -201 347 -174 347 -99 C347 -59 319 -35 286 -29 L300 -5 C400 -5 461 77 461 156 L461 183 C461 195 452 204 440 204 L324 204 C312 204 303 195 303 183 L303 172 C303 156 288 142 273 142 L233 142 C218 142 203 156 203 172 L203 343 C203 359 218 373 233 373 L273 373 C288 373 303 359 303 343 L303 332 C303 320 312 311 324 311 L440 311 C452 311 461 320 461 332 L461 358 C461 438 400 520 300 520 L206 520 C108 520 45 438 45 358 L45 156 C45 77 107 -4 204 -5 L185 -38 C182 -43 180 -51 180 -54 L180 -83 C180 -91 187 -98 195 -98 L245 -98 Z " />
<glyph glyph-name="egrave" unicode="&#xe8;" horiz-adv-x="501" d="M203 343 C203 359 218 373 233 373 L274 373 C289 373 304 359 304 343 L304 312 L203 312 L203 343 Z M448 81 C450 85 452 90 452 93 C452 100 450 104 443 109 L370 170 C366 172 361 173 358 173 C350 173 345 169 340 164 C332 155 313 142 292 142 L233 142 C218 142 203 156 203 172 L203 197 L433 197 C450 197 461 208 461 225 L461 358 C461 438 400 520 300 520 L206 520 C108 520 45 438 45 358 L45 156 C45 77 108 -5 206 -5 L292 -5 C292 -5 398 -2 448 81 L448 81 Z M311 571 C321 571 330 580 330 591 L273 724 C268 733 260 743 248 743 L140 743 C129 743 121 734 121 724 L178 591 C183 581 191 571 203 571 L311 571 Z " />
<glyph glyph-name="eacute" unicode="&#xe9;" horiz-adv-x="501" d="M203 343 C203 359 218 373 233 373 L274 373 C289 373 304 359 304 343 L304 312 L203 312 L203 343 Z M448 81 C450 85 452 90 452 93 C452 100 450 104 443 109 L370 170 C366 172 361 173 358 173 C350 173 345 169 340 164 C332 155 313 142 292 142 L233 142 C218 142 203 156 203 172 L203 197 L433 197 C450 197 461 208 461 225 L461 358 C461 438 400 520 300 520 L206 520 C108 520 45 438 45 358 L45 156 C45 77 108 -5 206 -5 L292 -5 C292 -5 398 -2 448 81 L448 81 Z M311 571 C323 571 331 581 336 591 L393 724 C393 734 385 743 374 743 L266 743 C254 743 246 733 241 724 L184 591 C184 580 193 571 203 571 L311 571 Z " />
<glyph glyph-name="ecircumflex" unicode="&#xea;" horiz-adv-x="501" d="M203 343 C203 359 218 373 233 373 L274 373 C289 373 304 359 304 343 L304 312 L203 312 L203 343 Z M448 81 C450 85 452 90 452 93 C452 100 450 104 443 109 L370 170 C366 172 361 173 358 173 C350 173 345 169 340 164 C332 155 313 142 292 142 L233 142 C218 142 203 156 203 172 L203 197 L433 197 C450 197 461 208 461 225 L461 358 C461 438 400 520 300 520 L206 520 C108 520 45 438 45 358 L45 156 C45 77 108 -5 206 -5 L292 -5 C292 -5 398 -2 448 81 L448 81 Z M204 779 C187 779 177 770 171 758 L88 591 C88 579 96 571 108 571 L207 571 C219 571 226 581 231 591 L253 634 L275 591 C280 581 287 571 299 571 L398 571 C410 571 418 579 418 591 L335 758 C329 770 319 779 302 779 L204 779 Z " />
<glyph glyph-name="edieresis" unicode="&#xeb;" horiz-adv-x="501" d="M203 343 C203 359 218 373 233 373 L274 373 C289 373 304 359 304 343 L304 312 L203 312 L203 343 Z M448 81 C450 85 452 90 452 93 C452 100 450 104 443 109 L370 170 C366 172 361 173 358 173 C350 173 345 169 340 164 C332 155 313 142 292 142 L233 142 C218 142 203 156 203 172 L203 197 L433 197 C450 197 461 208 461 225 L461 358 C461 438 400 520 300 520 L206 520 C108 520 45 438 45 358 L45 156 C45 77 108 -5 206 -5 L292 -5 C292 -5 398 -2 448 81 L448 81 Z M98 592 C98 580 107 571 119 571 L219 571 C231 571 240 580 240 592 L240 695 C240 707 231 716 219 716 L119 716 C107 716 98 707 98 695 L98 592 Z M280 592 C280 580 289 571 301 571 L401 571 C413 571 422 580 422 592 L422 695 C422 707 413 716 401 716 L301 716 C289 716 280 707 280 695 L280 592 Z " />
<glyph glyph-name="igrave" unicode="&#xec;" horiz-adv-x="278" d="M60 21 C60 9 69 0 81 0 L197 0 C209 0 218 9 218 21 L218 494 C218 506 209 515 197 515 L81 515 C69 515 60 506 60 494 L60 21 Z M191 571 C201 571 210 580 210 591 L153 724 C148 733 140 743 128 743 L20 743 C9 743 1 734 1 724 L58 591 C63 581 71 571 83 571 L191 571 Z " />
<glyph glyph-name="iacute" unicode="&#xed;" horiz-adv-x="278" d="M218 494 C218 506 209 515 197 515 L81 515 C69 515 60 506 60 494 L60 21 C60 9 69 0 81 0 L197 0 C209 0 218 9 218 21 L218 494 Z M195 571 C207 571 215 581 220 591 L277 724 C277 734 269 743 258 743 L150 743 C138 743 130 733 125 724 L68 591 C68 580 77 571 87 571 L195 571 Z " />
<glyph glyph-name="icircumflex" unicode="&#xee;" horiz-adv-x="278" d="M60 21 C60 9 69 0 81 0 L197 0 C209 0 218 9 218 21 L218 494 C218 506 209 515 197 515 L81 515 C69 515 60 506 60 494 L60 21 Z M90 779 C73 779 63 770 57 758 L-26 591 C-26 579 -18 571 -6 571 L93 571 C105 571 112 581 117 591 L139 634 L161 591 C166 581 173 571 185 571 L284 571 C296 571 304 579 304 591 L221 758 C215 770 205 779 188 779 L90 779 Z " />
<glyph glyph-name="idieresis" unicode="&#xef;" horiz-adv-x="278" d="M60 21 C60 9 69 0 81 0 L197 0 C209 0 218 9 218 21 L218 494 C218 506 209 515 197 515 L81 515 C69 515 60 506 60 494 L60 21 Z M-29 592 C-29 580 -20 571 -8 571 L92 571 C104 571 113 580 113 592 L113 695 C113 707 104 716 92 716 L-8 716 C-20 716 -29 707 -29 695 L-29 592 Z M165 592 C165 580 174 571 186 571 L286 571 C298 571 307 580 307 592 L307 695 C307 707 298 716 286 716 L186 716 C174 716 165 707 165 695 L165 592 Z " />
<glyph glyph-name="eth" unicode="&#xf0;" horiz-adv-x="583" d="M243 145 C223 145 208 162 208 183 L208 254 C208 276 223 292 243 292 L350 292 C369 292 385 276 385 254 L385 183 C385 162 369 145 350 145 L243 145 Z M418 679 C418 691 409 700 397 700 L281 700 C269 700 260 689 252 679 L208 622 L89 622 C77 622 68 613 68 601 L68 505 C68 493 77 484 89 484 L109 484 L60 419 C54 406 50 394 50 379 L50 176 C50 75 134 -5 238 -5 L356 -5 C460 -5 543 75 543 176 L543 261 C543 362 460 442 356 442 L259 442 C253 442 246 441 239 439 L275 484 L409 484 C421 484 430 493 430 505 L430 601 C430 613 421 622 409 622 L377 622 L418 679 Z " />
<glyph glyph-name="ntilde" unicode="&#xf1;" horiz-adv-x="533" d="M295 373 C310 373 325 359 325 343 L325 21 C325 9 334 0 346 0 L462 0 C474 0 483 9 483 21 L483 357 C478 450 423 520 327 520 L317 520 C293 520 251 510 225 470 L218 470 L218 494 C218 506 209 515 197 515 L81 515 C69 515 60 506 60 494 L60 21 C60 9 69 0 81 0 L197 0 C209 0 218 9 218 21 L218 333 C239 372 275 373 287 373 L295 373 Z M339 571 C367 571 403 587 428 603 C437 610 441 620 441 630 L414 716 C412 724 403 731 392 731 C372 731 356 720 339 720 C290 720 253 758 205 758 C177 758 141 742 116 726 C107 719 103 709 103 699 L130 613 C132 605 141 598 152 598 C172 598 188 609 205 609 C253 609 291 571 339 571 L339 571 Z " />
<glyph glyph-name="ograve" unicode="&#xf2;" horiz-adv-x="506" d="M206 520 C108 520 45 438 45 358 L45 156 C45 77 108 -5 206 -5 L300 -5 C399 -5 461 77 461 156 L461 358 C461 438 399 520 300 520 L206 520 Z M203 343 C203 359 218 373 233 373 L273 373 C288 373 303 359 303 343 L303 172 C303 156 288 142 273 142 L233 142 C218 142 203 156 203 172 L203 343 Z M306 571 C316 571 325 580 325 591 L268 724 C263 733 255 743 243 743 L135 743 C124 743 116 734 116 724 L173 591 C178 581 186 571 198 571 L306 571 Z " />
<glyph glyph-name="oacute" unicode="&#xf3;" horiz-adv-x="506" d="M206 520 C108 520 45 438 45 358 L45 156 C45 77 108 -5 206 -5 L300 -5 C399 -5 461 77 461 156 L461 358 C461 438 399 520 300 520 L206 520 Z M203 343 C203 359 218 373 233 373 L273 373 C288 373 303 359 303 343 L303 172 C303 156 288 142 273 142 L233 142 C218 142 203 156 203 172 L203 343 Z M307 571 C319 571 327 581 332 591 L389 724 C389 734 381 743 370 743 L262 743 C250 743 242 733 237 724 L180 591 C180 580 189 571 199 571 L307 571 Z " />
<glyph glyph-name="ocircumflex" unicode="&#xf4;" horiz-adv-x="506" d="M206 520 C108 520 45 438 45 358 L45 156 C45 77 108 -5 206 -5 L300 -5 C399 -5 461 77 461 156 L461 358 C461 438 399 520 300 520 L206 520 Z M203 343 C203 359 218 373 233 373 L273 373 C288 373 303 359 303 343 L303 172 C303 156 288 142 273 142 L233 142 C218 142 203 156 203 172 L203 343 Z M204 779 C187 779 177 770 171 758 L88 591 C88 579 96 571 108 571 L207 571 C219 571 226 581 231 591 L253 634 L275 591 C280 581 287 571 299 571 L398 571 C410 571 418 579 418 591 L335 758 C329 770 319 779 302 779 L204 779 Z " />
<glyph glyph-name="otilde" unicode="&#xf5;" horiz-adv-x="506" d="M206 520 C108 520 45 438 45 358 L45 156 C45 77 108 -5 206 -5 L300 -5 C399 -5 461 77 461 156 L461 358 C461 438 399 520 300 520 L206 520 Z M203 343 C203 359 218 373 233 373 L273 373 C288 373 303 359 303 343 L303 172 C303 156 288 142 273 142 L233 142 C218 142 203 156 203 172 L203 343 Z M324 571 C352 571 388 587 413 603 C422 610 426 620 426 630 L399 716 C397 724 388 731 377 731 C357 731 341 720 324 720 C275 720 238 758 190 758 C162 758 126 742 101 726 C92 719 88 709 88 699 L115 613 C117 605 126 598 137 598 C157 598 173 609 190 609 C238 609 276 571 324 571 L324 571 Z " />
<glyph glyph-name="odieresis" unicode="&#xf6;" horiz-adv-x="506" d="M206 520 C108 520 45 438 45 358 L45 156 C45 77 108 -5 206 -5 L300 -5 C399 -5 461 77 461 156 L461 358 C461 438 399 520 300 520 L206 520 Z M203 343 C203 359 218 373 233 373 L273 373 C288 373 303 359 303 343 L303 172 C303 156 288 142 273 142 L233 142 C218 142 203 156 203 172 L203 343 Z M85 592 C85 580 94 571 106 571 L206 571 C218 571 227 580 227 592 L227 695 C227 707 218 716 206 716 L106 716 C94 716 85 707 85 695 L85 592 Z M279 592 C279 580 288 571 300 571 L400 571 C412 571 421 580 421 592 L421 695 C421 707 412 716 400 716 L300 716 C288 716 279 707 279 695 L279 592 Z " />
<glyph glyph-name="divide" unicode="&#xf7;" horiz-adv-x="429" d="M149 326 C149 314 158 305 170 305 L258 305 C270 305 279 314 279 326 L279 408 C279 420 270 429 258 429 L170 429 C158 429 149 420 149 408 L149 326 Z M348 146 C360 146 369 155 369 167 L369 253 C369 265 360 274 348 274 L81 274 C69 274 60 265 60 253 L60 167 C60 155 69 146 81 146 L348 146 Z M149 12 C149 0 158 -9 170 -9 L258 -9 C270 -9 279 0 279 12 L279 94 C279 106 270 115 258 115 L170 115 C158 115 149 106 149 94 L149 12 Z " />
<glyph glyph-name="oslash" unicode="&#xf8;" horiz-adv-x="506" d="M101 -70 C101 -82 110 -91 122 -91 L179 -91 C191 -91 199 -81 203 -70 L223 -5 L300 -5 C399 -5 461 77 461 156 L461 358 C461 412 432 468 382 498 L410 585 C410 597 401 606 389 606 L332 606 C320 606 312 596 308 585 L287 520 L206 520 C108 520 45 438 45 358 L45 156 C45 100 76 44 128 15 L101 -70 Z M203 343 C203 359 218 373 233 373 L241 373 L203 252 L203 343 Z M277 142 L270 142 L303 246 L303 172 C303 156 288 142 273 142 L277 142 Z " />
<glyph glyph-name="ugrave" unicode="&#xf9;" horiz-adv-x="516" d="M308 172 C308 156 293 142 278 142 L238 142 C223 142 208 156 208 172 L208 494 C208 506 199 515 187 515 L71 515 C59 515 50 506 50 494 L50 156 C50 77 113 -5 211 -5 L305 -5 C403 -5 466 77 466 156 L466 494 C466 506 457 515 445 515 L329 515 C317 515 308 506 308 494 L308 172 Z M307 571 C317 571 326 580 326 591 L269 724 C264 733 256 743 244 743 L136 743 C125 743 117 734 117 724 L174 591 C179 581 187 571 199 571 L307 571 Z " />
<glyph glyph-name="uacute" unicode="&#xfa;" horiz-adv-x="516" d="M308 172 C308 156 293 142 278 142 L238 142 C223 142 208 156 208 172 L208 494 C208 506 199 515 187 515 L71 515 C59 515 50 506 50 494 L50 156 C50 77 113 -5 211 -5 L305 -5 C403 -5 466 77 466 156 L466 494 C466 506 457 515 445 515 L329 515 C317 515 308 506 308 494 L308 172 Z M312 571 C324 571 332 581 337 591 L394 724 C394 734 386 743 375 743 L267 743 C255 743 247 733 242 724 L185 591 C185 580 194 571 204 571 L312 571 Z " />
<glyph glyph-name="ucircumflex" unicode="&#xfb;" horiz-adv-x="516" d="M308 172 C308 156 293 142 278 142 L238 142 C223 142 208 156 208 172 L208 494 C208 506 199 515 187 515 L71 515 C59 515 50 506 50 494 L50 156 C50 77 113 -5 211 -5 L305 -5 C403 -5 466 77 466 156 L466 494 C466 506 457 515 445 515 L329 515 C317 515 308 506 308 494 L308 172 Z M210 779 C193 779 183 770 177 758 L94 591 C94 579 102 571 114 571 L213 571 C225 571 232 581 237 591 L259 634 L281 591 C286 581 293 571 305 571 L404 571 C416 571 424 579 424 591 L341 758 C335 770 325 779 308 779 L210 779 Z " />
<glyph glyph-name="udieresis" unicode="&#xfc;" horiz-adv-x="516" d="M308 172 C308 156 293 142 278 142 L238 142 C223 142 208 156 208 172 L208 494 C208 506 199 515 187 515 L71 515 C59 515 50 506 50 494 L50 156 C50 77 113 -5 211 -5 L305 -5 C403 -5 466 77 466 156 L466 494 C466 506 457 515 445 515 L329 515 C317 515 308 506 308 494 L308 172 Z M90 592 C90 580 99 571 111 571 L211 571 C223 571 232 580 232 592 L232 695 C232 707 223 716 211 716 L111 716 C99 716 90 707 90 695 L90 592 Z M284 592 C284 580 293 571 305 571 L405 571 C417 571 426 580 426 592 L426 695 C426 707 417 716 405 716 L305 716 C293 716 284 707 284 695 L284 592 Z " />
<glyph glyph-name="yacute" unicode="&#xfd;" horiz-adv-x="482" d="M60 -58 C48 -58 39 -67 39 -79 L39 -182 C39 -194 48 -203 60 -203 L147 -203 C172 -203 281 -180 330 -13 L477 495 C477 507 468 516 456 516 L337 516 C325 516 317 507 314 495 L247 186 L235 186 L168 495 C165 507 157 516 145 516 L26 516 C14 516 5 507 5 495 L152 -15 C151 -38 131 -58 108 -58 L60 -58 Z M307 571 C319 571 327 581 332 591 L389 724 C389 734 381 743 370 743 L262 743 C250 743 242 733 237 724 L180 591 C180 580 189 571 199 571 L307 571 Z " />
<glyph glyph-name="thorn" unicode="&#xfe;" horiz-adv-x="529" d="M332 172 C332 156 317 142 302 142 L248 142 C233 142 218 156 218 172 L218 343 C218 359 233 373 248 373 L302 373 C317 373 332 359 332 343 L332 172 Z M489 358 C489 450 421 520 325 520 L310 520 C284 520 247 510 226 484 L218 484 L218 679 C218 691 209 700 197 700 L81 700 C69 700 60 691 60 679 L60 -153 C60 -165 69 -174 81 -174 L197 -174 C209 -174 218 -165 218 -153 L218 31 L226 31 C247 5 284 -5 310 -5 L325 -5 C421 -5 489 65 489 157 L489 358 Z " />
<glyph glyph-name="ydieresis" unicode="&#xff;" horiz-adv-x="482" d="M60 -58 C48 -58 39 -67 39 -79 L39 -182 C39 -194 48 -203 60 -203 L147 -203 C172 -203 281 -180 330 -13 L477 495 C477 507 468 516 456 516 L337 516 C325 516 317 507 314 495 L247 186 L235 186 L168 495 C165 507 157 516 145 516 L26 516 C14 516 5 507 5 495 L152 -15 C151 -38 131 -58 108 -58 L60 -58 Z M73 592 C73 580 82 571 94 571 L194 571 C206 571 215 580 215 592 L215 695 C215 707 206 716 194 716 L94 716 C82 716 73 707 73 695 L73 592 Z M267 592 C267 580 276 571 288 571 L388 571 C400 571 409 580 409 592 L409 695 C409 707 400 716 388 716 L288 716 C276 716 267 707 267 695 L267 592 Z " />
<glyph glyph-name="Amacron" unicode="&#x100;" horiz-adv-x="616" d="M230 700 C218 700 209 691 206 679 L15 21 C15 9 24 0 36 0 L155 0 C167 0 175 9 178 21 L202 112 L413 112 L438 21 C441 9 449 0 461 0 L580 0 C592 0 601 9 601 21 L410 679 C407 691 398 700 386 700 L230 700 Z M303 486 L313 486 L373 261 L242 261 L303 486 Z M442 751 C454 751 463 760 463 772 L463 880 C463 892 454 901 442 901 L175 901 C163 901 154 892 154 880 L154 772 C154 760 163 751 175 751 L442 751 Z " />
<glyph glyph-name="amacron" unicode="&#x101;" horiz-adv-x="500" d="M124 360 C155 369 194 373 229 373 C296 373 297 351 297 322 L209 322 C113 322 40 275 40 182 L40 143 C40 50 101 -5 186 -5 L196 -5 C208 -5 270 -5 289 31 L297 31 L297 21 C297 9 306 0 318 0 L434 0 C446 0 455 9 455 21 L455 324 C455 372 437 520 246 520 C166 520 111 505 91 499 C81 496 74 489 74 479 C74 477 74 466 97 376 C100 363 108 359 114 359 C116 359 120 359 124 360 L124 360 Z M187 174 C187 190 200 201 214 201 L297 201 L297 163 C297 149 283 136 269 136 L214 136 C200 136 187 149 187 163 L187 174 Z M392 571 C404 571 413 580 413 592 L413 700 C413 712 404 721 392 721 L125 721 C113 721 104 712 104 700 L104 592 C104 580 113 571 125 571 L392 571 Z " />
<glyph glyph-name="Abreve" unicode="&#x102;" horiz-adv-x="616" d="M230 700 C218 700 209 691 206 679 L15 21 C15 9 24 0 36 0 L155 0 C167 0 175 9 178 21 L202 112 L413 112 L438 21 C441 9 449 0 461 0 L580 0 C592 0 601 9 601 21 L410 679 C407 691 398 700 386 700 L230 700 Z M303 486 L313 486 L373 261 L242 261 L303 486 Z M308 751 C409 751 477 800 490 909 C490 919 483 926 473 926 L381 926 C371 926 363 919 359 909 C352 875 332 870 308 870 C284 870 264 875 257 909 C253 919 245 926 235 926 L143 926 C133 926 126 919 126 909 C139 800 207 751 308 751 L308 751 Z " />
<glyph glyph-name="abreve" unicode="&#x103;" horiz-adv-x="500" d="M124 360 C155 369 194 373 229 373 C296 373 297 351 297 322 L209 322 C113 322 40 275 40 182 L40 143 C40 50 101 -5 186 -5 L196 -5 C208 -5 270 -5 289 31 L297 31 L297 21 C297 9 306 0 318 0 L434 0 C446 0 455 9 455 21 L455 324 C455 372 437 520 246 520 C166 520 111 505 91 499 C81 496 74 489 74 479 C74 477 74 466 97 376 C100 363 108 359 114 359 C116 359 120 359 124 360 L124 360 Z M187 174 C187 190 200 201 214 201 L297 201 L297 163 C297 149 283 136 269 136 L214 136 C200 136 187 149 187 163 L187 174 Z M253 571 C354 571 422 620 435 729 C435 739 428 746 418 746 L326 746 C316 746 308 739 304 729 C297 695 277 690 253 690 C229 690 209 695 202 729 C198 739 190 746 180 746 L88 746 C78 746 71 739 71 729 C84 620 152 571 253 571 L253 571 Z " />
<glyph glyph-name="Aogonek" unicode="&#x104;" horiz-adv-x="616" d="M580 0 C592 0 601 9 601 21 L410 679 C407 691 398 700 386 700 L230 700 C218 700 209 691 206 679 L15 21 C15 9 24 0 36 0 L155 0 C167 0 175 9 178 21 L202 112 L413 112 L426 64 C385 38 382 -19 382 -34 C382 -79 413 -123 472 -123 L543 -123 C551 -123 558 -116 558 -108 L558 -56 C558 -47 551 -41 543 -41 L489 -41 C489 -41 472 -41 472 -20 C472 -10 477 0 489 0 L580 0 Z M303 486 L313 486 L373 261 L242 261 L303 486 Z " />
<glyph glyph-name="aogonek" unicode="&#x105;" horiz-adv-x="500" d="M187 174 C187 190 200 201 214 201 L297 201 L297 163 C297 149 283 136 269 136 L214 136 C200 136 187 149 187 163 L187 174 Z M297 -4 C264 -34 264 -70 264 -82 C264 -127 295 -171 354 -171 L435 -171 C443 -171 450 -164 450 -156 L450 -104 C450 -95 443 -89 435 -89 L371 -89 C371 -89 354 -89 354 -68 C354 -58 359 -48 371 -48 L436 -48 C447 -48 455 -40 455 -29 L455 324 C455 372 437 520 246 520 C166 520 111 505 91 499 C81 496 74 489 74 479 C74 477 74 466 97 376 C100 363 108 359 114 359 C116 359 120 359 124 360 C155 369 194 373 229 373 C296 373 297 351 297 322 L209 322 C113 322 40 275 40 182 L40 143 C40 50 101 -5 186 -5 L196 -5 C208 -5 270 -5 289 31 L297 31 L297 -4 Z " />
<glyph glyph-name="Cacute" unicode="&#x106;" horiz-adv-x="578" d="M543 221 C543 233 534 242 522 242 L406 242 C394 242 385 233 385 221 L385 183 C385 162 370 145 351 145 L242 145 C224 145 208 162 208 183 L208 517 C208 538 224 555 242 555 L351 555 C370 555 385 538 385 517 L385 479 C385 467 394 458 406 458 L522 458 C534 458 543 467 543 479 L543 524 C543 625 460 705 355 705 L238 705 C133 705 50 625 50 524 L50 176 C50 75 133 -5 238 -5 L355 -5 C460 -5 543 75 543 176 L543 221 Z M358 751 C370 751 378 761 383 771 L440 904 C440 914 432 923 421 923 L313 923 C301 923 293 913 288 904 L231 771 C231 760 240 751 250 751 L358 751 Z " />
<glyph glyph-name="cacute" unicode="&#x107;" horiz-adv-x="486" d="M303 332 C303 320 312 311 324 311 L440 311 C452 311 461 320 461 332 L461 358 C461 438 400 520 300 520 L206 520 C108 520 45 438 45 358 L45 156 C45 77 108 -5 206 -5 L300 -5 C400 -5 461 77 461 156 L461 183 C461 195 452 204 440 204 L324 204 C312 204 303 195 303 183 L303 172 C303 156 288 142 273 142 L233 142 C218 142 203 156 203 172 L203 343 C203 359 218 373 233 373 L273 373 C288 373 303 359 303 343 L303 332 Z M314 571 C326 571 334 581 339 591 L396 724 C396 734 388 743 377 743 L269 743 C257 743 249 733 244 724 L187 591 C187 580 196 571 206 571 L314 571 Z " />
<glyph glyph-name="Ccircumflex" unicode="&#x108;" horiz-adv-x="578" d="M543 221 C543 233 534 242 522 242 L406 242 C394 242 385 233 385 221 L385 183 C385 162 370 145 351 145 L242 145 C224 145 208 162 208 183 L208 517 C208 538 224 555 242 555 L351 555 C370 555 385 538 385 517 L385 479 C385 467 394 458 406 458 L522 458 C534 458 543 467 543 479 L543 524 C543 625 460 705 355 705 L238 705 C133 705 50 625 50 524 L50 176 C50 75 133 -5 238 -5 L355 -5 C460 -5 543 75 543 176 L543 221 Z M247 959 C230 959 220 950 214 938 L131 771 C131 759 139 751 151 751 L250 751 C262 751 269 761 274 771 L296 814 L318 771 C323 761 330 751 342 751 L441 751 C453 751 461 759 461 771 L378 938 C372 950 362 959 345 959 L247 959 Z " />
<glyph glyph-name="ccircumflex" unicode="&#x109;" horiz-adv-x="486" d="M303 332 C303 320 312 311 324 311 L440 311 C452 311 461 320 461 332 L461 358 C461 438 400 520 300 520 L206 520 C108 520 45 438 45 358 L45 156 C45 77 108 -5 206 -5 L300 -5 C400 -5 461 77 461 156 L461 183 C461 195 452 204 440 204 L324 204 C312 204 303 195 303 183 L303 172 C303 156 288 142 273 142 L233 142 C218 142 203 156 203 172 L203 343 C203 359 218 373 233 373 L273 373 C288 373 303 359 303 343 L303 332 Z M203 779 C186 779 176 770 170 758 L87 591 C87 579 95 571 107 571 L206 571 C218 571 225 581 230 591 L252 634 L274 591 C279 581 286 571 298 571 L397 571 C409 571 417 579 417 591 L334 758 C328 770 318 779 301 779 L203 779 Z " />
<glyph glyph-name="Cdotaccent" unicode="&#x10a;" horiz-adv-x="578" d="M543 221 C543 233 534 242 522 242 L406 242 C394 242 385 233 385 221 L385 183 C385 162 370 145 351 145 L242 145 C224 145 208 162 208 183 L208 517 C208 538 224 555 242 555 L351 555 C370 555 385 538 385 517 L385 479 C385 467 394 458 406 458 L522 458 C534 458 543 467 543 479 L543 524 C543 625 460 705 355 705 L238 705 C133 705 50 625 50 524 L50 176 C50 75 133 -5 238 -5 L355 -5 C460 -5 543 75 543 176 L543 221 Z M228 772 C228 760 237 751 249 751 L349 751 C361 751 370 760 370 772 L370 875 C370 887 361 896 349 896 L249 896 C237 896 228 887 228 875 L228 772 Z " />
<glyph glyph-name="cdotaccent" unicode="&#x10b;" horiz-adv-x="486" d="M303 332 C303 320 312 311 324 311 L440 311 C452 311 461 320 461 332 L461 358 C461 438 400 520 300 520 L206 520 C108 520 45 438 45 358 L45 156 C45 77 108 -5 206 -5 L300 -5 C400 -5 461 77 461 156 L461 183 C461 195 452 204 440 204 L324 204 C312 204 303 195 303 183 L303 172 C303 156 288 142 273 142 L233 142 C218 142 203 156 203 172 L203 343 C203 359 218 373 233 373 L273 373 C288 373 303 359 303 343 L303 332 Z M179 592 C179 580 188 571 200 571 L300 571 C312 571 321 580 321 592 L321 695 C321 707 312 716 300 716 L200 716 C188 716 179 707 179 695 L179 592 Z " />
<glyph glyph-name="Ccaron" unicode="&#x10c;" horiz-adv-x="578" d="M543 221 C543 233 534 242 522 242 L406 242 C394 242 385 233 385 221 L385 183 C385 162 370 145 351 145 L242 145 C224 145 208 162 208 183 L208 517 C208 538 224 555 242 555 L351 555 C370 555 385 538 385 517 L385 479 C385 467 394 458 406 458 L522 458 C534 458 543 467 543 479 L543 524 C543 625 460 705 355 705 L238 705 C133 705 50 625 50 524 L50 176 C50 75 133 -5 238 -5 L355 -5 C460 -5 543 75 543 176 L543 221 Z M345 751 C362 751 372 760 378 772 L461 939 C461 951 453 959 441 959 L342 959 C330 959 323 949 318 939 L296 896 L274 939 C269 949 262 959 250 959 L151 959 C139 959 131 951 131 939 L214 772 C220 760 230 751 247 751 L345 751 Z " />
<glyph glyph-name="ccaron" unicode="&#x10d;" horiz-adv-x="486" d="M303 332 C303 320 312 311 324 311 L440 311 C452 311 461 320 461 332 L461 358 C461 438 400 520 300 520 L206 520 C108 520 45 438 45 358 L45 156 C45 77 108 -5 206 -5 L300 -5 C400 -5 461 77 461 156 L461 183 C461 195 452 204 440 204 L324 204 C312 204 303 195 303 183 L303 172 C303 156 288 142 273 142 L233 142 C218 142 203 156 203 172 L203 343 C203 359 218 373 233 373 L273 373 C288 373 303 359 303 343 L303 332 Z M303 571 C320 571 330 580 336 592 L419 759 C419 771 411 779 399 779 L300 779 C288 779 281 769 276 759 L254 716 L232 759 C227 769 220 779 208 779 L109 779 C97 779 89 771 89 759 L172 592 C178 580 188 571 205 571 L303 571 Z " />
<glyph glyph-name="Dcaron" unicode="&#x10e;" horiz-adv-x="604" d="M60 21 C60 9 69 0 81 0 L366 0 C470 0 554 80 554 181 L554 519 C554 620 470 700 366 700 L81 700 C69 700 60 691 60 679 L60 21 Z M361 551 C380 551 396 534 396 513 L396 187 C396 166 380 149 361 149 L218 149 L218 551 L361 551 Z M327 751 C344 751 354 760 360 772 L443 939 C443 951 435 959 423 959 L324 959 C312 959 305 949 300 939 L278 896 L256 939 C251 949 244 959 232 959 L133 959 C121 959 113 951 113 939 L196 772 C202 760 212 751 229 751 L327 751 Z " />
<glyph glyph-name="dcaron" unicode="&#x10f;" horiz-adv-x="722" d="M640 528 C652 528 660 538 665 548 L722 681 C722 691 714 700 703 700 L595 700 C583 700 575 690 570 681 L513 548 C513 537 522 528 532 528 L640 528 Z M197 343 C197 359 212 373 227 373 L281 373 C296 373 311 359 311 343 L311 172 C311 156 296 142 281 142 L227 142 C212 142 197 156 197 172 L197 343 Z M40 157 C40 65 81 -5 177 -5 L237 -5 C258 -5 282 5 303 31 L311 31 L311 21 C311 9 320 0 332 0 L448 0 C460 0 469 9 469 21 L469 679 C469 691 460 700 448 700 L332 700 C320 700 311 691 311 679 L311 484 L303 484 C282 510 258 520 237 520 L177 520 C81 520 40 450 40 358 L40 157 Z " />
<glyph glyph-name="Dcroat" unicode="&#x110;" horiz-adv-x="608" d="M64 21 C64 9 73 0 85 0 L370 0 C474 0 558 80 558 181 L558 519 C558 620 474 700 370 700 L85 700 C73 700 64 691 64 679 L64 416 L21 416 C9 416 0 407 0 395 L0 303 C0 291 9 282 21 282 L64 282 L64 21 Z M276 282 C288 282 297 291 297 303 L297 395 C297 407 288 416 276 416 L222 416 L222 551 L365 551 C384 551 400 534 400 513 L400 187 C400 166 384 149 365 149 L222 149 L222 282 L276 282 Z " />
<glyph glyph-name="dcroat" unicode="&#x111;" horiz-adv-x="519" d="M197 343 C197 359 212 373 227 373 L281 373 C296 373 311 359 311 343 L311 172 C311 156 296 142 281 142 L227 142 C212 142 197 156 197 172 L197 343 Z M469 546 L498 546 C510 546 519 555 519 567 L519 636 C519 648 510 657 498 657 L469 657 L469 679 C469 691 460 700 448 700 L332 700 C320 700 311 691 311 679 L311 657 L270 657 C258 657 249 648 249 636 L249 567 C249 555 258 546 270 546 L311 546 L311 484 L303 484 C282 510 258 520 237 520 L177 520 C81 520 40 450 40 358 L40 157 C40 65 81 -5 177 -5 L237 -5 C258 -5 282 5 303 31 L311 31 L311 21 C311 9 320 0 332 0 L448 0 C460 0 469 9 469 21 L469 546 Z " />
<glyph glyph-name="Emacron" unicode="&#x112;" horiz-adv-x="537" d="M218 150 L218 287 L444 287 C456 287 465 296 465 308 L465 416 C465 428 456 437 444 437 L218 437 L218 550 L466 550 C478 550 487 559 487 571 L487 679 C487 691 478 700 466 700 L81 700 C69 700 60 691 60 679 L60 21 C60 9 69 0 81 0 L466 0 C478 0 487 9 487 21 L487 129 C487 141 478 150 466 150 L218 150 Z M409 751 C421 751 430 760 430 772 L430 880 C430 892 421 901 409 901 L142 901 C130 901 121 892 121 880 L121 772 C121 760 130 751 142 751 L409 751 Z " />
<glyph glyph-name="emacron" unicode="&#x113;" horiz-adv-x="501" d="M203 343 C203 359 218 373 233 373 L274 373 C289 373 304 359 304 343 L304 312 L203 312 L203 343 Z M448 81 C450 85 452 90 452 93 C452 100 450 104 443 109 L370 170 C366 172 361 173 358 173 C350 173 345 169 340 164 C332 155 313 142 292 142 L233 142 C218 142 203 156 203 172 L203 197 L433 197 C450 197 461 208 461 225 L461 358 C461 438 400 520 300 520 L206 520 C108 520 45 438 45 358 L45 156 C45 77 108 -5 206 -5 L292 -5 C292 -5 398 -2 448 81 L448 81 Z M387 571 C399 571 408 580 408 592 L408 700 C408 712 399 721 387 721 L120 721 C108 721 99 712 99 700 L99 592 C99 580 108 571 120 571 L387 571 Z " />
<glyph glyph-name="Edotaccent" unicode="&#x116;" horiz-adv-x="537" d="M218 150 L218 287 L444 287 C456 287 465 296 465 308 L465 416 C465 428 456 437 444 437 L218 437 L218 550 L466 550 C478 550 487 559 487 571 L487 679 C487 691 478 700 466 700 L81 700 C69 700 60 691 60 679 L60 21 C60 9 69 0 81 0 L466 0 C478 0 487 9 487 21 L487 129 C487 141 478 150 466 150 L218 150 Z M201 772 C201 760 210 751 222 751 L322 751 C334 751 343 760 343 772 L343 875 C343 887 334 896 322 896 L222 896 C210 896 201 887 201 875 L201 772 Z " />
<glyph glyph-name="edotaccent" unicode="&#x117;" horiz-adv-x="501" d="M203 343 C203 359 218 373 233 373 L274 373 C289 373 304 359 304 343 L304 312 L203 312 L203 343 Z M448 81 C450 85 452 90 452 93 C452 100 450 104 443 109 L370 170 C366 172 361 173 358 173 C350 173 345 169 340 164 C332 155 313 142 292 142 L233 142 C218 142 203 156 203 172 L203 197 L433 197 C450 197 461 208 461 225 L461 358 C461 438 400 520 300 520 L206 520 C108 520 45 438 45 358 L45 156 C45 77 108 -5 206 -5 L292 -5 C292 -5 398 -2 448 81 L448 81 Z M183 592 C183 580 192 571 204 571 L304 571 C316 571 325 580 325 592 L325 695 C325 707 316 716 304 716 L204 716 C192 716 183 707 183 695 L183 592 Z " />
<glyph glyph-name="Eogonek" unicode="&#x118;" horiz-adv-x="537" d="M303 0 C297 -15 296 -28 296 -34 C296 -79 327 -123 386 -123 L457 -123 C465 -123 472 -116 472 -108 L472 -56 C472 -47 465 -41 457 -41 L403 -41 C403 -41 386 -41 386 -20 C386 -10 390 -1 400 0 L466 0 C478 0 487 9 487 21 L487 129 C487 141 478 150 466 150 L218 150 L218 287 L444 287 C456 287 465 296 465 308 L465 416 C465 428 456 437 444 437 L218 437 L218 550 L466 550 C478 550 487 559 487 571 L487 679 C487 691 478 700 466 700 L81 700 C69 700 60 691 60 679 L60 21 C60 9 69 0 81 0 L303 0 Z " />
<glyph glyph-name="eogonek" unicode="&#x119;" horiz-adv-x="501" d="M448 81 C450 85 452 90 452 93 C452 100 450 104 443 109 L370 170 C366 172 361 173 358 173 C350 173 345 169 340 164 C332 155 313 142 292 142 L233 142 C218 142 203 156 203 172 L203 197 L433 197 C450 197 461 208 461 225 L461 358 C461 438 400 520 300 520 L206 520 C108 520 45 438 45 358 L45 156 C45 85 95 12 176 -2 C173 -13 171 -29 171 -40 C171 -84 201 -123 260 -123 L345 -123 C353 -123 360 -116 360 -108 L360 -58 C360 -49 353 -43 345 -43 L276 -43 C276 -43 260 -43 260 -25 C260 -13 269 -6 273 -5 L292 -5 C292 -5 398 -2 448 81 L448 81 Z M203 343 C203 359 218 373 233 373 L274 373 C289 373 304 359 304 343 L304 312 L203 312 L203 343 Z " />
<glyph glyph-name="Ecaron" unicode="&#x11a;" horiz-adv-x="537" d="M218 150 L218 287 L444 287 C456 287 465 296 465 308 L465 416 C465 428 456 437 444 437 L218 437 L218 550 L466 550 C478 550 487 559 487 571 L487 679 C487 691 478 700 466 700 L81 700 C69 700 60 691 60 679 L60 21 C60 9 69 0 81 0 L466 0 C478 0 487 9 487 21 L487 129 C487 141 478 150 466 150 L218 150 Z M327 751 C344 751 354 760 360 772 L443 939 C443 951 435 959 423 959 L324 959 C312 959 305 949 300 939 L278 896 L256 939 C251 949 244 959 232 959 L133 959 C121 959 113 951 113 939 L196 772 C202 760 212 751 229 751 L327 751 Z " />
<glyph glyph-name="ecaron" unicode="&#x11b;" horiz-adv-x="501" d="M203 343 C203 359 218 373 233 373 L274 373 C289 373 304 359 304 343 L304 312 L203 312 L203 343 Z M448 81 C450 85 452 90 452 93 C452 100 450 104 443 109 L370 170 C366 172 361 173 358 173 C350 173 345 169 340 164 C332 155 313 142 292 142 L233 142 C218 142 203 156 203 172 L203 197 L433 197 C450 197 461 208 461 225 L461 358 C461 438 400 520 300 520 L206 520 C108 520 45 438 45 358 L45 156 C45 77 108 -5 206 -5 L292 -5 C292 -5 398 -2 448 81 L448 81 Z M303 571 C320 571 330 580 336 592 L419 759 C419 771 411 779 399 779 L300 779 C288 779 281 769 276 759 L254 716 L232 759 C227 769 220 779 208 779 L109 779 C97 779 89 771 89 759 L172 592 C178 580 188 571 205 571 L303 571 Z " />
<glyph glyph-name="Gcircumflex" unicode="&#x11c;" horiz-adv-x="593" d="M296 406 C284 406 275 397 275 385 L275 283 C275 271 284 262 296 262 L385 262 L385 183 C385 162 370 145 351 145 L242 145 C224 145 208 162 208 183 L208 517 C208 538 224 555 242 555 L351 555 C370 555 385 538 385 517 L385 479 C385 467 394 458 406 458 L522 458 C534 458 543 467 543 479 L543 524 C543 625 460 705 355 705 L238 705 C133 705 50 625 50 524 L50 176 C50 75 133 -5 238 -5 L355 -5 C460 -5 543 75 543 176 L543 385 C543 397 534 406 522 406 L296 406 Z M245 959 C228 959 218 950 212 938 L129 771 C129 759 137 751 149 751 L248 751 C260 751 267 761 272 771 L294 814 L316 771 C321 761 328 751 340 751 L439 751 C451 751 459 759 459 771 L376 938 C370 950 360 959 343 959 L245 959 Z " />
<glyph glyph-name="gcircumflex" unicode="&#x11d;" horiz-adv-x="529" d="M216 779 C199 779 189 770 183 758 L100 591 C100 579 108 571 120 571 L219 571 C231 571 238 581 243 591 L265 634 L287 591 C292 581 299 571 311 571 L410 571 C422 571 430 579 430 591 L347 758 C341 770 331 779 314 779 L216 779 Z M197 343 C197 359 212 373 227 373 L281 373 C296 373 311 359 311 343 L311 172 C311 156 296 142 281 142 L227 142 C212 142 197 156 197 172 L197 343 Z M469 494 C469 506 460 515 448 515 L332 515 C320 515 311 506 311 494 L311 484 L303 484 C282 510 258 520 237 520 L177 520 C81 520 40 450 40 358 L40 157 C40 65 81 -5 177 -5 L237 -5 C258 -5 282 5 303 31 L311 31 L311 -22 C311 -38 285 -60 235 -60 C173 -60 162 -56 116 -49 C107 -49 102 -54 99 -66 C79 -146 76 -165 76 -168 C76 -177 82 -181 91 -185 C112 -192 167 -203 249 -203 C440 -203 469 -70 469 -20 L469 494 Z " />
<glyph glyph-name="Gbreve" unicode="&#x11e;" horiz-adv-x="593" d="M296 406 C284 406 275 397 275 385 L275 283 C275 271 284 262 296 262 L385 262 L385 183 C385 162 370 145 351 145 L242 145 C224 145 208 162 208 183 L208 517 C208 538 224 555 242 555 L351 555 C370 555 385 538 385 517 L385 479 C385 467 394 458 406 458 L522 458 C534 458 543 467 543 479 L543 524 C543 625 460 705 355 705 L238 705 C133 705 50 625 50 524 L50 176 C50 75 133 -5 238 -5 L355 -5 C460 -5 543 75 543 176 L543 385 C543 397 534 406 522 406 L296 406 Z M298 751 C399 751 467 800 480 909 C480 919 473 926 463 926 L371 926 C361 926 353 919 349 909 C342 875 322 870 298 870 C274 870 254 875 247 909 C243 919 235 926 225 926 L133 926 C123 926 116 919 116 909 C129 800 197 751 298 751 L298 751 Z " />
<glyph glyph-name="gbreve" unicode="&#x11f;" horiz-adv-x="529" d="M248 571 C349 571 417 620 430 729 C430 739 423 746 413 746 L321 746 C311 746 303 739 299 729 C292 695 272 690 248 690 C224 690 204 695 197 729 C193 739 185 746 175 746 L83 746 C73 746 66 739 66 729 C79 620 147 571 248 571 L248 571 Z M197 343 C197 359 212 373 227 373 L281 373 C296 373 311 359 311 343 L311 172 C311 156 296 142 281 142 L227 142 C212 142 197 156 197 172 L197 343 Z M469 494 C469 506 460 515 448 515 L332 515 C320 515 311 506 311 494 L311 484 L303 484 C282 510 258 520 237 520 L177 520 C81 520 40 450 40 358 L40 157 C40 65 81 -5 177 -5 L237 -5 C258 -5 282 5 303 31 L311 31 L311 -22 C311 -38 285 -60 235 -60 C173 -60 162 -56 116 -49 C107 -49 102 -54 99 -66 C79 -146 76 -165 76 -168 C76 -177 82 -181 91 -185 C112 -192 167 -203 249 -203 C440 -203 469 -70 469 -20 L469 494 Z " />
<glyph glyph-name="Gdotaccent" unicode="&#x120;" horiz-adv-x="593" d="M296 406 C284 406 275 397 275 385 L275 283 C275 271 284 262 296 262 L385 262 L385 183 C385 162 370 145 351 145 L242 145 C224 145 208 162 208 183 L208 517 C208 538 224 555 242 555 L351 555 C370 555 385 538 385 517 L385 479 C385 467 394 458 406 458 L522 458 C534 458 543 467 543 479 L543 524 C543 625 460 705 355 705 L238 705 C133 705 50 625 50 524 L50 176 C50 75 133 -5 238 -5 L355 -5 C460 -5 543 75 543 176 L543 385 C543 397 534 406 522 406 L296 406 Z M224 772 C224 760 233 751 245 751 L345 751 C357 751 366 760 366 772 L366 875 C366 887 357 896 345 896 L245 896 C233 896 224 887 224 875 L224 772 Z " />
<glyph glyph-name="gdotaccent" unicode="&#x121;" horiz-adv-x="529" d="M184 592 C184 580 193 571 205 571 L305 571 C317 571 326 580 326 592 L326 695 C326 707 317 716 305 716 L205 716 C193 716 184 707 184 695 L184 592 Z M197 343 C197 359 212 373 227 373 L281 373 C296 373 311 359 311 343 L311 172 C311 156 296 142 281 142 L227 142 C212 142 197 156 197 172 L197 343 Z M469 494 C469 506 460 515 448 515 L332 515 C320 515 311 506 311 494 L311 484 L303 484 C282 510 258 520 237 520 L177 520 C81 520 40 450 40 358 L40 157 C40 65 81 -5 177 -5 L237 -5 C258 -5 282 5 303 31 L311 31 L311 -22 C311 -38 285 -60 235 -60 C173 -60 162 -56 116 -49 C107 -49 102 -54 99 -66 C79 -146 76 -165 76 -168 C76 -177 82 -181 91 -185 C112 -192 167 -203 249 -203 C440 -203 469 -70 469 -20 L469 494 Z " />
<glyph glyph-name="uni0122" unicode="&#x122;" horiz-adv-x="593" d="M296 406 C284 406 275 397 275 385 L275 283 C275 271 284 262 296 262 L385 262 L385 183 C385 162 370 145 351 145 L242 145 C224 145 208 162 208 183 L208 517 C208 538 224 555 242 555 L351 555 C370 555 385 538 385 517 L385 479 C385 467 394 458 406 458 L522 458 C534 458 543 467 543 479 L543 524 C543 625 460 705 355 705 L238 705 C133 705 50 625 50 524 L50 176 C50 75 133 -5 238 -5 L355 -5 C460 -5 543 75 543 176 L543 385 C543 397 534 406 522 406 L296 406 Z M303 -223 C315 -223 323 -213 328 -203 L369 -72 C369 -62 361 -53 350 -53 L242 -53 C230 -53 222 -63 217 -72 L176 -203 C176 -214 185 -223 195 -223 L303 -223 Z " />
<glyph glyph-name="uni0123" unicode="&#x123;" horiz-adv-x="529" d="M298 571 C310 571 318 581 323 591 L380 724 C380 734 372 743 361 743 L253 743 C241 743 233 733 228 724 L171 591 C171 580 180 571 190 571 L298 571 Z M197 343 C197 359 212 373 227 373 L281 373 C296 373 311 359 311 343 L311 172 C311 156 296 142 281 142 L227 142 C212 142 197 156 197 172 L197 343 Z M469 494 C469 506 460 515 448 515 L332 515 C320 515 311 506 311 494 L311 484 L303 484 C282 510 258 520 237 520 L177 520 C81 520 40 450 40 358 L40 157 C40 65 81 -5 177 -5 L237 -5 C258 -5 282 5 303 31 L311 31 L311 -22 C311 -38 285 -60 235 -60 C173 -60 162 -56 116 -49 C107 -49 102 -54 99 -66 C79 -146 76 -165 76 -168 C76 -177 82 -181 91 -185 C112 -192 167 -203 249 -203 C440 -203 469 -70 469 -20 L469 494 Z " />
<glyph glyph-name="Hcircumflex" unicode="&#x124;" horiz-adv-x="609" d="M391 21 C391 9 400 0 412 0 L528 0 C540 0 549 9 549 21 L549 679 C549 691 540 700 528 700 L412 700 C400 700 391 691 391 679 L391 414 L218 414 L218 679 C218 691 209 700 197 700 L81 700 C69 700 60 691 60 679 L60 21 C60 9 69 0 81 0 L197 0 C209 0 218 9 218 21 L218 265 L391 265 L391 21 Z M255 959 C238 959 228 950 222 938 L139 771 C139 759 147 751 159 751 L258 751 C270 751 277 761 282 771 L304 814 L326 771 C331 761 338 751 350 751 L449 751 C461 751 469 759 469 771 L386 938 C380 950 370 959 353 959 L255 959 Z " />
<glyph glyph-name="hcircumflex" unicode="&#x125;" horiz-adv-x="533" d="M295 373 C310 373 325 359 325 343 L325 21 C325 9 334 0 346 0 L462 0 C474 0 483 9 483 21 L483 357 C478 450 423 520 327 520 L317 520 C293 520 251 510 225 470 L218 470 L218 679 C218 691 209 700 197 700 L81 700 C69 700 60 691 60 679 L60 21 C60 9 69 0 81 0 L197 0 C209 0 218 9 218 21 L218 333 C239 372 275 373 287 373 L295 373 Z M180 959 C163 959 153 950 147 938 L64 771 C64 759 72 751 84 751 L183 751 C195 751 202 761 207 771 L229 814 L251 771 C256 761 263 751 275 751 L374 751 C386 751 394 759 394 771 L311 938 C305 950 295 959 278 959 L180 959 Z " />
<glyph glyph-name="Hbar" unicode="&#x126;" horiz-adv-x="597" d="M576 422 C588 422 597 431 597 443 L597 536 C597 548 588 557 576 557 L543 557 L543 679 C543 691 534 700 522 700 L406 700 C394 700 385 691 385 679 L385 557 L212 557 L212 679 C212 691 203 700 191 700 L75 700 C63 700 54 691 54 679 L54 557 L21 557 C9 557 0 548 0 536 L0 443 C0 431 9 422 21 422 L54 422 L54 21 C54 9 63 0 75 0 L191 0 C203 0 212 9 212 21 L212 193 L385 193 L385 21 C385 9 394 0 406 0 L522 0 C534 0 543 9 543 21 L543 422 L576 422 Z M212 342 L212 422 L385 422 L385 342 L212 342 Z " />
<glyph glyph-name="hbar" unicode="&#x127;" horiz-adv-x="523" d="M50 546 L50 21 C50 9 59 0 71 0 L187 0 C199 0 208 9 208 21 L208 333 C229 372 265 373 277 373 L285 373 C300 373 315 359 315 343 L315 21 C315 9 324 0 336 0 L452 0 C464 0 473 9 473 21 L473 357 C468 450 413 520 317 520 L307 520 C283 520 241 510 215 470 L208 470 L208 546 L249 546 C261 546 270 555 270 567 L270 636 C270 648 261 657 249 657 L208 657 L208 679 C208 691 199 700 187 700 L71 700 C59 700 50 691 50 679 L50 657 L21 657 C9 657 0 648 0 636 L0 567 C0 555 9 546 21 546 L50 546 Z " />
<glyph glyph-name="Itilde" unicode="&#x128;" horiz-adv-x="278" d="M60 21 C60 9 69 0 81 0 L197 0 C209 0 218 9 218 21 L218 679 C218 691 209 700 197 700 L81 700 C69 700 60 691 60 679 L60 21 Z M203 751 C231 751 267 767 292 783 C301 790 305 800 305 810 L278 896 C276 904 267 911 256 911 C236 911 220 900 203 900 C154 900 125 938 77 938 C49 938 13 922 -12 906 C-21 899 -25 889 -25 879 L2 793 C4 785 13 778 24 778 C44 778 60 789 77 789 C125 789 155 751 203 751 L203 751 Z " />
<glyph glyph-name="itilde" unicode="&#x129;" horiz-adv-x="278" d="M60 21 C60 9 69 0 81 0 L197 0 C209 0 218 9 218 21 L218 494 C218 506 209 515 197 515 L81 515 C69 515 60 506 60 494 L60 21 Z M203 571 C231 571 267 587 292 603 C301 610 305 620 305 630 L278 716 C276 724 267 731 256 731 C236 731 220 720 203 720 C154 720 125 758 77 758 C49 758 13 742 -12 726 C-21 719 -25 709 -25 699 L2 613 C4 605 13 598 24 598 C44 598 60 609 77 609 C125 609 155 571 203 571 L203 571 Z " />
<glyph glyph-name="Imacron" unicode="&#x12a;" horiz-adv-x="278" d="M60 21 C60 9 69 0 81 0 L197 0 C209 0 218 9 218 21 L218 679 C218 691 209 700 197 700 L81 700 C69 700 60 691 60 679 L60 21 Z M261 751 C273 751 282 760 282 772 L282 880 C282 892 273 901 261 901 L18 901 C6 901 -3 892 -3 880 L-3 772 C-3 760 6 751 18 751 L261 751 Z " />
<glyph glyph-name="imacron" unicode="&#x12b;" horiz-adv-x="278" d="M60 21 C60 9 69 0 81 0 L197 0 C209 0 218 9 218 21 L218 494 C218 506 209 515 197 515 L81 515 C69 515 60 506 60 494 L60 21 Z M261 571 C273 571 282 580 282 592 L282 700 C282 712 273 721 261 721 L18 721 C6 721 -3 712 -3 700 L-3 592 C-3 580 6 571 18 571 L261 571 Z " />
<glyph glyph-name="Iogonek" unicode="&#x12e;" horiz-adv-x="278" d="M60 73 C-19 60 -20 -17 -20 -34 C-20 -79 11 -123 70 -123 L141 -123 C149 -123 156 -116 156 -108 L156 -56 C156 -47 149 -41 141 -41 L87 -41 C87 -41 70 -41 70 -20 C70 -10 75 0 87 0 L197 0 C209 0 218 9 218 21 L218 679 C218 691 209 700 197 700 L81 700 C69 700 60 691 60 679 L60 73 Z " />
<glyph glyph-name="iogonek" unicode="&#x12f;" horiz-adv-x="278" d="M57 579 C57 567 66 558 78 558 L200 558 C212 558 221 567 221 579 L221 676 C221 688 212 697 200 697 L78 697 C66 697 57 688 57 676 L57 579 Z M60 73 C-19 60 -20 -17 -20 -34 C-20 -79 11 -123 70 -123 L141 -123 C149 -123 156 -116 156 -108 L156 -56 C156 -47 149 -41 141 -41 L87 -41 C87 -41 70 -41 70 -20 C70 -10 75 0 87 0 L197 0 C209 0 218 9 218 21 L218 494 C218 506 209 515 197 515 L81 515 C69 515 60 506 60 494 L60 73 Z " />
<glyph glyph-name="Idotaccent" unicode="&#x130;" horiz-adv-x="278" d="M60 21 C60 9 69 0 81 0 L197 0 C209 0 218 9 218 21 L218 550 C218 562 209 571 197 571 L81 571 C69 571 60 562 60 550 L60 21 Z M57 642 C57 630 66 621 78 621 L200 621 C212 621 221 630 221 642 L221 739 C221 751 212 760 200 760 L78 760 C66 760 57 751 57 739 L57 642 Z " />
<glyph glyph-name="dotlessi" unicode="&#x131;" horiz-adv-x="278" d="M60 21 C60 9 69 0 81 0 L197 0 C209 0 218 9 218 21 L218 494 C218 506 209 515 197 515 L81 515 C69 515 60 506 60 494 L60 21 Z " />
<glyph glyph-name="Jcircumflex" unicode="&#x134;" horiz-adv-x="459" d="M-3 76 C21 52 89 -5 186 -5 C329 -5 419 88 419 185 L419 679 C419 691 410 700 398 700 L282 700 C270 700 261 691 261 679 L261 187 C261 183 251 145 180 145 C162 145 124 155 101 174 C97 177 91 178 86 178 C80 178 76 177 70 174 L-2 107 C-8 101 -10 97 -10 90 C-10 86 -8 81 -3 76 L-3 76 Z M204 959 C187 959 177 950 171 938 L88 771 C88 759 96 751 108 751 L207 751 C219 751 226 761 231 771 L253 814 L275 771 C280 761 287 751 299 751 L398 751 C410 751 418 759 418 771 L335 938 C329 950 319 959 302 959 L204 959 Z " />
<glyph glyph-name="jcircumflex" unicode="&#x135;" horiz-adv-x="278" d="M47 -188 C47 -188 218 -142 218 16 L218 494 C218 506 209 515 197 515 L81 515 C69 515 60 506 60 494 L60 21 C60 21 59 -23 -12 -45 C-21 -47 -25 -56 -25 -63 C-25 -65 -24 -69 -23 -71 L20 -177 C23 -186 30 -190 37 -190 C39 -190 45 -189 47 -188 L47 -188 Z M90 779 C73 779 63 770 57 758 L-26 591 C-26 579 -18 571 -6 571 L93 571 C105 571 112 581 117 591 L139 634 L161 591 C166 581 173 571 185 571 L284 571 C296 571 304 579 304 591 L221 758 C215 770 205 779 188 779 L90 779 Z " />
<glyph glyph-name="uni0136" unicode="&#x136;" horiz-adv-x="590" d="M266 425 L218 425 L218 679 C218 691 209 700 197 700 L81 700 C69 700 60 691 60 679 L60 21 C60 9 69 0 81 0 L197 0 C209 0 218 9 218 21 L218 275 L265 275 L395 21 C400 10 410 0 422 0 L548 0 C560 0 569 9 569 21 L403 351 L566 679 C566 691 557 700 545 700 L419 700 C407 700 397 690 392 679 L266 425 Z M321 -223 C333 -223 341 -213 346 -203 L387 -72 C387 -62 379 -53 368 -53 L260 -53 C248 -53 240 -63 235 -72 L194 -203 C194 -214 203 -223 213 -223 L321 -223 Z " />
<glyph glyph-name="uni0137" unicode="&#x137;" horiz-adv-x="523" d="M244 197 L330 21 C336 9 350 0 362 0 L491 0 C503 0 512 9 512 21 L383 270 L513 494 C513 506 504 515 492 515 L363 515 C351 515 338 505 331 494 L246 342 L218 342 L218 679 C218 691 209 700 197 700 L81 700 C69 700 60 691 60 679 L60 21 C60 9 69 0 81 0 L197 0 C209 0 218 9 218 21 L218 197 L244 197 Z M295 -223 C307 -223 315 -213 320 -203 L361 -72 C361 -62 353 -53 342 -53 L234 -53 C222 -53 214 -63 209 -72 L168 -203 C168 -214 177 -223 187 -223 L295 -223 Z " />
<glyph glyph-name="kgreenlandic" unicode="&#x138;" horiz-adv-x="523" d="M244 197 L330 21 C336 9 350 0 362 0 L491 0 C503 0 512 9 512 21 L383 270 L513 494 C513 506 504 515 492 515 L363 515 C351 515 338 505 331 494 L246 342 L218 342 L218 494 C218 506 209 515 197 515 L81 515 C69 515 60 506 60 494 L60 21 C60 9 69 0 81 0 L197 0 C209 0 218 9 218 21 L218 197 L244 197 Z " />
<glyph glyph-name="Lacute" unicode="&#x139;" horiz-adv-x="507" d="M218 150 L218 679 C218 691 209 700 197 700 L81 700 C69 700 60 691 60 679 L60 21 C60 9 69 0 81 0 L466 0 C478 0 487 9 487 21 L487 129 C487 141 478 150 466 150 L218 150 Z M199 751 C211 751 219 761 224 771 L281 904 C281 914 273 923 262 923 L154 923 C142 923 134 913 129 904 L72 771 C72 760 81 751 91 751 L199 751 Z " />
<glyph glyph-name="lacute" unicode="&#x13a;" horiz-adv-x="278" d="M60 21 C60 9 69 0 81 0 L197 0 C209 0 218 9 218 21 L218 679 C218 691 209 700 197 700 L81 700 C69 700 60 691 60 679 L60 21 Z M190 751 C202 751 210 761 215 771 L272 904 C272 914 264 923 253 923 L145 923 C133 923 125 913 120 904 L63 771 C63 760 72 751 82 751 L190 751 Z " />
<glyph glyph-name="uni013B" unicode="&#x13b;" horiz-adv-x="507" d="M218 150 L218 679 C218 691 209 700 197 700 L81 700 C69 700 60 691 60 679 L60 21 C60 9 69 0 81 0 L466 0 C478 0 487 9 487 21 L487 129 C487 141 478 150 466 150 L218 150 Z M283 -223 C295 -223 303 -213 308 -203 L349 -72 C349 -62 341 -53 330 -53 L222 -53 C210 -53 202 -63 197 -72 L156 -203 C156 -214 165 -223 175 -223 L283 -223 Z " />
<glyph glyph-name="uni013C" unicode="&#x13c;" horiz-adv-x="278" d="M60 21 C60 9 69 0 81 0 L197 0 C209 0 218 9 218 21 L218 679 C218 691 209 700 197 700 L81 700 C69 700 60 691 60 679 L60 21 Z M144 -223 C156 -223 164 -213 169 -203 L210 -72 C210 -62 202 -53 191 -53 L83 -53 C71 -53 63 -63 58 -72 L17 -203 C17 -214 26 -223 36 -223 L144 -223 Z " />
<glyph glyph-name="Lcaron" unicode="&#x13d;" horiz-adv-x="507" d="M218 150 L218 679 C218 691 209 700 197 700 L81 700 C69 700 60 691 60 679 L60 21 C60 9 69 0 81 0 L466 0 C478 0 487 9 487 21 L487 129 C487 141 478 150 466 150 L218 150 Z M362 700 C350 700 342 690 337 680 L284 534 C284 524 292 515 303 515 L407 515 C419 515 427 525 432 534 L485 680 C485 691 476 700 466 700 L362 700 Z " />
<glyph glyph-name="lcaron" unicode="&#x13e;" horiz-adv-x="471" d="M60 21 C60 9 69 0 81 0 L197 0 C209 0 218 9 218 21 L218 679 C218 691 209 700 197 700 L81 700 C69 700 60 691 60 679 L60 21 Z M389 528 C401 528 409 538 414 548 L471 681 C471 691 463 700 452 700 L344 700 C332 700 324 690 319 681 L262 548 C262 537 271 528 281 528 L389 528 Z " />
<glyph glyph-name="Lslash" unicode="&#x141;" horiz-adv-x="539" d="M250 150 L250 307 L322 328 C334 331 343 337 343 349 L343 457 C343 469 334 478 322 478 L250 457 L250 679 C250 691 241 700 229 700 L113 700 C101 700 92 691 92 679 L92 413 L21 393 C9 390 0 384 0 372 L0 264 C0 252 9 243 21 243 L92 263 L92 21 C92 9 101 0 113 0 L498 0 C510 0 519 9 519 21 L519 129 C519 141 510 150 498 150 L250 150 Z " />
<glyph glyph-name="lslash" unicode="&#x142;" horiz-adv-x="343" d="M322 328 C334 331 343 337 343 349 L343 457 C343 469 334 478 322 478 L250 457 L250 679 C250 691 241 700 229 700 L113 700 C101 700 92 691 92 679 L92 413 L21 393 C9 390 0 384 0 372 L0 264 C0 252 9 243 21 243 L92 263 L92 21 C92 9 101 0 113 0 L229 0 C241 0 250 9 250 21 L250 307 L322 328 Z " />
<glyph glyph-name="Nacute" unicode="&#x143;" horiz-adv-x="641" d="M414 323 L254 678 C249 689 242 699 230 699 L81 699 C69 699 60 690 60 678 L60 21 C60 9 69 0 81 0 L197 0 C209 0 218 9 218 21 L218 376 L227 376 L387 21 C391 10 399 0 411 0 L560 0 C572 0 581 9 581 21 L581 678 C581 690 572 699 560 699 L444 699 C432 699 423 690 423 678 L423 323 L414 323 Z M380 751 C392 751 400 761 405 771 L462 904 C462 914 454 923 443 923 L335 923 C323 923 315 913 310 904 L253 771 C253 760 262 751 272 751 L380 751 Z " />
<glyph glyph-name="nacute" unicode="&#x144;" horiz-adv-x="533" d="M295 373 C310 373 325 359 325 343 L325 21 C325 9 334 0 346 0 L462 0 C474 0 483 9 483 21 L483 357 C478 450 423 520 327 520 L317 520 C293 520 251 510 225 470 L218 470 L218 494 C218 506 209 515 197 515 L81 515 C69 515 60 506 60 494 L60 21 C60 9 69 0 81 0 L197 0 C209 0 218 9 218 21 L218 333 C239 372 275 373 287 373 L295 373 Z M333 571 C345 571 353 581 358 591 L415 724 C415 734 407 743 396 743 L288 743 C276 743 268 733 263 724 L206 591 C206 580 215 571 225 571 L333 571 Z " />
<glyph glyph-name="uni0145" unicode="&#x145;" horiz-adv-x="641" d="M414 323 L254 678 C249 689 242 699 230 699 L81 699 C69 699 60 690 60 678 L60 21 C60 9 69 0 81 0 L197 0 C209 0 218 9 218 21 L218 376 L227 376 L387 21 C391 10 399 0 411 0 L560 0 C572 0 581 9 581 21 L581 678 C581 690 572 699 560 699 L444 699 C432 699 423 690 423 678 L423 323 L414 323 Z M327 -223 C339 -223 347 -213 352 -203 L393 -72 C393 -62 385 -53 374 -53 L266 -53 C254 -53 246 -63 241 -72 L200 -203 C200 -214 209 -223 219 -223 L327 -223 Z " />
<glyph glyph-name="uni0146" unicode="&#x146;" horiz-adv-x="533" d="M295 373 C310 373 325 359 325 343 L325 21 C325 9 334 0 346 0 L462 0 C474 0 483 9 483 21 L483 357 C478 450 423 520 327 520 L317 520 C293 520 251 510 225 470 L218 470 L218 494 C218 506 209 515 197 515 L81 515 C69 515 60 506 60 494 L60 21 C60 9 69 0 81 0 L197 0 C209 0 218 9 218 21 L218 333 C239 372 275 373 287 373 L295 373 Z M284 -223 C296 -223 304 -213 309 -203 L350 -72 C350 -62 342 -53 331 -53 L223 -53 C211 -53 203 -63 198 -72 L157 -203 C157 -214 166 -223 176 -223 L284 -223 Z " />
<glyph glyph-name="Ncaron" unicode="&#x147;" horiz-adv-x="641" d="M414 323 L254 678 C249 689 242 699 230 699 L81 699 C69 699 60 690 60 678 L60 21 C60 9 69 0 81 0 L197 0 C209 0 218 9 218 21 L218 376 L227 376 L387 21 C391 10 399 0 411 0 L560 0 C572 0 581 9 581 21 L581 678 C581 690 572 699 560 699 L444 699 C432 699 423 690 423 678 L423 323 L414 323 Z M383 751 C400 751 410 760 416 772 L499 939 C499 951 491 959 479 959 L380 959 C368 959 361 949 356 939 L334 896 L312 939 C307 949 300 959 288 959 L189 959 C177 959 169 951 169 939 L252 772 C258 760 268 751 285 751 L383 751 Z " />
<glyph glyph-name="ncaron" unicode="&#x148;" horiz-adv-x="533" d="M295 373 C310 373 325 359 325 343 L325 21 C325 9 334 0 346 0 L462 0 C474 0 483 9 483 21 L483 357 C478 450 423 520 327 520 L317 520 C293 520 251 510 225 470 L218 470 L218 494 C218 506 209 515 197 515 L81 515 C69 515 60 506 60 494 L60 21 C60 9 69 0 81 0 L197 0 C209 0 218 9 218 21 L218 333 C239 372 275 373 287 373 L295 373 Z M321 571 C338 571 348 580 354 592 L437 759 C437 771 429 779 417 779 L318 779 C306 779 299 769 294 759 L272 716 L250 759 C245 769 238 779 226 779 L127 779 C115 779 107 771 107 759 L190 592 C196 580 206 571 223 571 L321 571 Z " />
<glyph glyph-name="Eng" unicode="&#x14a;" horiz-adv-x="641" d="M410 -188 C410 -188 581 -142 581 16 L581 678 C581 690 572 699 560 699 L444 699 C432 699 423 690 423 678 L423 323 L414 323 L254 678 C249 689 242 699 230 699 L81 699 C69 699 60 690 60 678 L60 21 C60 9 69 0 81 0 L197 0 C209 0 218 9 218 21 L218 376 L227 376 L403 -16 C393 -26 376 -37 351 -45 C342 -47 338 -56 338 -63 C338 -65 339 -69 340 -71 L383 -177 C386 -186 393 -190 400 -190 C402 -190 408 -189 410 -188 L410 -188 Z " />
<glyph glyph-name="eng" unicode="&#x14b;" horiz-adv-x="533" d="M312 -188 C312 -188 483 -142 483 16 L483 357 C478 450 423 520 327 520 L317 520 C293 520 251 510 225 470 L218 470 L218 494 C218 506 209 515 197 515 L81 515 C69 515 60 506 60 494 L60 21 C60 9 69 0 81 0 L197 0 C209 0 218 9 218 21 L218 333 C239 372 275 373 287 373 L295 373 C310 373 325 359 325 343 L325 21 C325 21 324 -23 253 -45 C244 -47 240 -56 240 -63 C240 -65 241 -69 242 -71 L285 -177 C288 -186 295 -190 302 -190 C304 -190 310 -189 312 -188 L312 -188 Z " />
<glyph glyph-name="Omacron" unicode="&#x14c;" horiz-adv-x="593" d="M242 145 C224 145 208 162 208 183 L208 517 C208 538 224 555 242 555 L351 555 C370 555 385 538 385 517 L385 183 C385 162 370 145 351 145 L242 145 Z M355 -5 C460 -5 543 75 543 176 L543 524 C543 625 460 705 355 705 L238 705 C133 705 50 625 50 524 L50 176 C50 75 133 -5 238 -5 L355 -5 Z M430 751 C442 751 451 760 451 772 L451 880 C451 892 442 901 430 901 L163 901 C151 901 142 892 142 880 L142 772 C142 760 151 751 163 751 L430 751 Z " />
<glyph glyph-name="omacron" unicode="&#x14d;" horiz-adv-x="506" d="M206 520 C108 520 45 438 45 358 L45 156 C45 77 108 -5 206 -5 L300 -5 C399 -5 461 77 461 156 L461 358 C461 438 399 520 300 520 L206 520 Z M203 343 C203 359 218 373 233 373 L273 373 C288 373 303 359 303 343 L303 172 C303 156 288 142 273 142 L233 142 C218 142 203 156 203 172 L203 343 Z M387 571 C399 571 408 580 408 592 L408 700 C408 712 399 721 387 721 L120 721 C108 721 99 712 99 700 L99 592 C99 580 108 571 120 571 L387 571 Z " />
<glyph glyph-name="Ohungarumlaut" unicode="&#x150;" horiz-adv-x="593" d="M242 145 C224 145 208 162 208 183 L208 517 C208 538 224 555 242 555 L351 555 C370 555 385 538 385 517 L385 183 C385 162 370 145 351 145 L242 145 Z M355 -5 C460 -5 543 75 543 176 L543 524 C543 625 460 705 355 705 L238 705 C133 705 50 625 50 524 L50 176 C50 75 133 -5 238 -5 L355 -5 Z M274 751 C286 751 294 761 299 771 L345 902 C345 912 337 921 326 921 L221 921 C209 921 201 911 196 902 L150 771 C150 760 159 751 169 751 L274 751 Z M447 751 C459 751 467 761 472 771 L518 902 C518 912 510 921 499 921 L394 921 C382 921 374 911 369 902 L323 771 C323 760 332 751 342 751 L447 751 Z " />
<glyph glyph-name="ohungarumlaut" unicode="&#x151;" horiz-adv-x="506" d="M206 520 C108 520 45 438 45 358 L45 156 C45 77 108 -5 206 -5 L300 -5 C399 -5 461 77 461 156 L461 358 C461 438 399 520 300 520 L206 520 Z M203 343 C203 359 218 373 233 373 L273 373 C288 373 303 359 303 343 L303 172 C303 156 288 142 273 142 L233 142 C218 142 203 156 203 172 L203 343 Z M211 571 C223 571 231 581 236 591 L282 722 C282 732 274 741 263 741 L158 741 C146 741 138 731 133 722 L87 591 C87 580 96 571 106 571 L211 571 Z M384 571 C396 571 404 581 409 591 L455 722 C455 732 447 741 436 741 L331 741 C319 741 311 731 306 722 L260 591 C260 580 269 571 279 571 L384 571 Z " />
<glyph glyph-name="OE" unicode="&#x152;" horiz-adv-x="862" d="M543 150 L543 287 L769 287 C781 287 790 296 790 308 L790 416 C790 428 781 437 769 437 L543 437 L543 550 L791 550 C803 550 812 559 812 571 L812 679 C812 691 803 700 791 700 L238 700 C133 700 50 620 50 519 L50 181 C50 80 133 0 238 0 L791 0 C803 0 812 9 812 21 L812 129 C812 141 803 150 791 150 L543 150 Z M242 150 C224 150 208 167 208 188 L208 512 C208 533 224 550 242 550 L351 550 C368 550 383 535 385 516 L385 188 C385 167 370 150 351 150 L242 150 Z " />
<glyph glyph-name="oe" unicode="&#x153;" horiz-adv-x="759" d="M706 81 C708 85 710 90 710 93 C710 100 708 104 701 109 L628 170 C624 172 619 173 616 173 C608 173 603 169 598 164 C590 155 571 142 550 142 L491 142 C476 142 461 156 461 172 L461 197 L691 197 C708 197 719 208 719 225 L719 358 C719 438 658 520 558 520 L464 520 C433 520 405 511 382 498 C359 512 331 520 300 520 L206 520 C108 520 45 438 45 358 L45 156 C45 77 108 -5 206 -5 L300 -5 C331 -5 359 3 382 17 C405 3 433 -5 464 -5 L550 -5 C550 -5 656 -2 706 81 L706 81 Z M203 343 C203 359 218 373 233 373 L273 373 C288 373 303 359 303 343 L303 172 C303 156 288 142 273 142 L233 142 C218 142 203 156 203 172 L203 343 Z M491 373 L532 373 C547 373 562 359 562 343 L562 312 L461 312 L461 346 C463 361 477 373 491 373 L491 373 Z " />
<glyph glyph-name="Racute" unicode="&#x154;" horiz-adv-x="599" d="M472 230 C518 262 547 315 547 374 L547 519 C547 620 463 700 359 700 L81 700 C69 700 60 691 60 679 L60 21 C60 9 69 0 81 0 L197 0 C209 0 218 9 218 21 L218 193 L316 193 L393 21 C398 10 408 0 420 0 L548 0 C560 0 569 9 569 21 L472 230 Z M218 550 L354 550 C374 550 389 533 389 512 L389 381 C389 361 374 343 354 343 L218 343 L218 550 Z M330 751 C342 751 350 761 355 771 L412 904 C412 914 404 923 393 923 L285 923 C273 923 265 913 260 904 L203 771 C203 760 212 751 222 751 L330 751 Z " />
<glyph glyph-name="racute" unicode="&#x155;" horiz-adv-x="410" d="M370 365 C382 365 391 374 391 386 L400 487 C400 500 397 505 383 511 C368 517 328 520 324 520 C295 520 255 515 225 465 L218 465 L218 494 C218 506 209 515 197 515 L81 515 C69 515 60 506 60 494 L60 21 C60 9 69 0 81 0 L197 0 C209 0 218 9 218 21 L218 333 C239 371 286 373 305 373 C329 373 348 368 370 365 L370 365 Z M206 571 C218 571 226 581 231 591 L288 724 C288 734 280 743 269 743 L161 743 C149 743 141 733 136 724 L79 591 C79 580 88 571 98 571 L206 571 Z " />
<glyph glyph-name="uni0156" unicode="&#x156;" horiz-adv-x="599" d="M472 230 C518 262 547 315 547 374 L547 519 C547 620 463 700 359 700 L81 700 C69 700 60 691 60 679 L60 21 C60 9 69 0 81 0 L197 0 C209 0 218 9 218 21 L218 193 L316 193 L393 21 C398 10 408 0 420 0 L548 0 C560 0 569 9 569 21 L472 230 Z M218 550 L354 550 C374 550 389 533 389 512 L389 381 C389 361 374 343 354 343 L218 343 L218 550 Z M318 -223 C330 -223 338 -213 343 -203 L384 -72 C384 -62 376 -53 365 -53 L257 -53 C245 -53 237 -63 232 -72 L191 -203 C191 -214 200 -223 210 -223 L318 -223 Z " />
<glyph glyph-name="uni0157" unicode="&#x157;" horiz-adv-x="410" d="M370 365 C382 365 391 374 391 386 L400 487 C400 500 397 505 383 511 C368 517 328 520 324 520 C295 520 255 515 225 465 L218 465 L218 494 C218 506 209 515 197 515 L81 515 C69 515 60 506 60 494 L60 21 C60 9 69 0 81 0 L197 0 C209 0 218 9 218 21 L218 333 C239 371 286 373 305 373 C329 373 348 368 370 365 L370 365 Z M188 -223 C200 -223 208 -213 213 -203 L254 -72 C254 -62 246 -53 235 -53 L127 -53 C115 -53 107 -63 102 -72 L61 -203 C61 -214 70 -223 80 -223 L188 -223 Z " />
<glyph glyph-name="Rcaron" unicode="&#x158;" horiz-adv-x="599" d="M472 230 C518 262 547 315 547 374 L547 519 C547 620 463 700 359 700 L81 700 C69 700 60 691 60 679 L60 21 C60 9 69 0 81 0 L197 0 C209 0 218 9 218 21 L218 193 L316 193 L393 21 C398 10 408 0 420 0 L548 0 C560 0 569 9 569 21 L472 230 Z M218 550 L354 550 C374 550 389 533 389 512 L389 381 C389 361 374 343 354 343 L218 343 L218 550 Z M319 751 C336 751 346 760 352 772 L435 939 C435 951 427 959 415 959 L316 959 C304 959 297 949 292 939 L270 896 L248 939 C243 949 236 959 224 959 L125 959 C113 959 105 951 105 939 L188 772 C194 760 204 751 221 751 L319 751 Z " />
<glyph glyph-name="rcaron" unicode="&#x159;" horiz-adv-x="410" d="M370 365 C382 365 391 374 391 386 L400 487 C400 500 397 505 383 511 C368 517 328 520 324 520 C295 520 255 515 225 465 L218 465 L218 494 C218 506 209 515 197 515 L81 515 C69 515 60 506 60 494 L60 21 C60 9 69 0 81 0 L197 0 C209 0 218 9 218 21 L218 333 C239 371 286 373 305 373 C329 373 348 368 370 365 L370 365 Z M279 571 C296 571 306 580 312 592 L395 759 C395 771 387 779 375 779 L276 779 C264 779 257 769 252 759 L230 716 L208 759 C203 769 196 779 184 779 L85 779 C73 779 65 771 65 759 L148 592 C154 580 164 571 181 571 L279 571 Z " />
<glyph glyph-name="Sacute" unicode="&#x15a;" horiz-adv-x="562" d="M339 -5 C443 -5 527 75 527 176 L527 192 C527 369 405 396 305 418 C242 432 190 442 190 492 L190 517 C190 538 206 555 226 555 L324 555 C343 555 359 538 359 517 L359 491 C359 479 368 470 380 470 L496 470 C508 470 517 479 517 491 L517 524 C517 625 433 705 331 705 L218 705 C114 705 30 625 30 524 L30 503 C30 332 157 297 256 275 C316 262 368 250 368 206 L368 183 C368 162 351 145 332 145 L223 145 C204 145 188 162 188 183 L188 215 C188 227 179 236 167 236 L51 236 C39 236 30 227 30 215 L30 176 C30 75 114 -5 216 -5 L339 -5 Z M222 751 C212 751 203 760 203 771 L260 904 C265 913 273 923 285 923 L393 923 C404 923 412 914 412 904 L355 771 C350 761 342 751 330 751 L222 751 Z " />
<glyph glyph-name="sacute" unicode="&#x15b;" horiz-adv-x="477" d="M291 352 C291 340 300 331 312 331 L421 331 C433 331 442 340 442 352 L442 359 C442 438 379 520 281 520 L196 520 C98 520 40 449 35 369 L35 361 C35 185 293 210 293 167 L293 155 C293 139 278 133 263 133 L216 133 C201 133 186 144 186 160 L186 167 C186 179 177 188 165 188 L56 188 C44 188 35 179 35 167 L35 156 C35 77 98 -5 196 -5 L287 -5 C386 -5 447 65 447 145 L447 159 C447 334 190 306 190 353 L190 364 C190 380 205 386 220 386 L261 386 C276 386 291 375 291 359 L291 352 Z M289 571 C301 571 309 581 314 591 L371 724 C371 734 363 743 352 743 L244 743 C232 743 224 733 219 724 L162 591 C162 580 171 571 181 571 L289 571 Z " />
<glyph glyph-name="Scircumflex" unicode="&#x15c;" horiz-adv-x="562" d="M339 -5 C443 -5 527 75 527 176 L527 192 C527 369 405 396 305 418 C242 432 190 442 190 492 L190 517 C190 538 206 555 226 555 L324 555 C343 555 359 538 359 517 L359 491 C359 479 368 470 380 470 L496 470 C508 470 517 479 517 491 L517 524 C517 625 433 705 331 705 L218 705 C114 705 30 625 30 524 L30 503 C30 332 157 297 256 275 C316 262 368 250 368 206 L368 183 C368 162 351 145 332 145 L223 145 C204 145 188 162 188 183 L188 215 C188 227 179 236 167 236 L51 236 C39 236 30 227 30 215 L30 176 C30 75 114 -5 216 -5 L339 -5 Z M329 959 C346 959 356 950 362 938 L445 771 C445 759 437 751 425 751 L326 751 C314 751 307 761 302 771 L280 814 L258 771 C253 761 246 751 234 751 L135 751 C123 751 115 759 115 771 L198 938 C204 950 214 959 231 959 L329 959 Z " />
<glyph glyph-name="scircumflex" unicode="&#x15d;" horiz-adv-x="477" d="M291 352 C291 340 300 331 312 331 L421 331 C433 331 442 340 442 352 L442 359 C442 438 379 520 281 520 L196 520 C98 520 40 449 35 369 L35 361 C35 185 293 210 293 167 L293 155 C293 139 278 133 263 133 L216 133 C201 133 186 144 186 160 L186 167 C186 179 177 188 165 188 L56 188 C44 188 35 179 35 167 L35 156 C35 77 98 -5 196 -5 L287 -5 C386 -5 447 65 447 145 L447 159 C447 334 190 306 190 353 L190 364 C190 380 205 386 220 386 L261 386 C276 386 291 375 291 359 L291 352 Z M190 779 C173 779 163 770 157 758 L74 591 C74 579 82 571 94 571 L193 571 C205 571 212 581 217 591 L239 634 L261 591 C266 581 273 571 285 571 L384 571 C396 571 404 579 404 591 L321 758 C315 770 305 779 288 779 L190 779 Z " />
<glyph glyph-name="Scedilla" unicode="&#x15e;" horiz-adv-x="562" d="M305 418 C242 432 190 442 190 492 L190 517 C190 538 206 555 226 555 L324 555 C343 555 359 538 359 517 L359 491 C359 479 368 470 380 470 L496 470 C508 470 517 479 517 491 L517 524 C517 625 433 705 331 705 L218 705 C114 705 30 625 30 524 L30 503 C30 332 157 297 256 275 C316 262 368 250 368 206 L368 183 C368 162 351 145 332 145 L223 145 C204 145 188 162 188 183 L188 215 C188 227 179 236 167 236 L51 236 C39 236 30 227 30 215 L30 176 C30 75 114 -5 216 -5 L228 -5 L213 -32 C210 -37 208 -45 208 -48 L208 -77 C208 -85 215 -92 223 -92 L273 -92 C273 -92 285 -92 285 -105 C285 -118 273 -118 273 -118 L211 -118 C203 -118 196 -124 196 -133 L196 -180 C196 -188 203 -195 211 -195 L298 -195 C358 -195 375 -168 375 -93 C375 -53 347 -29 314 -23 L324 -5 L339 -5 C443 -5 527 75 527 176 L527 192 C527 369 405 396 305 418 L305 418 Z " />
<glyph glyph-name="scedilla" unicode="&#x15f;" horiz-adv-x="477" d="M240 -92 C240 -92 252 -92 252 -105 C252 -118 240 -118 240 -118 L178 -118 C170 -118 163 -124 163 -133 L163 -180 C163 -188 170 -195 178 -195 L265 -195 C325 -195 342 -168 342 -93 C342 -53 314 -29 281 -23 L291 -5 C388 -3 447 66 447 145 L447 159 C447 334 190 306 190 353 L190 364 C190 380 205 386 220 386 L261 386 C276 386 291 375 291 359 L291 352 C291 340 300 331 312 331 L421 331 C433 331 442 340 442 352 L442 359 C442 438 379 520 281 520 L196 520 C98 520 40 449 35 369 L35 361 C35 185 293 210 293 167 L293 155 C293 139 278 133 263 133 L216 133 C201 133 186 144 186 160 L186 167 C186 179 177 188 165 188 L56 188 C44 188 35 179 35 167 L35 156 C35 77 98 -4 195 -5 L180 -32 C177 -37 175 -45 175 -48 L175 -77 C175 -85 182 -92 190 -92 L240 -92 Z " />
<glyph glyph-name="Scaron" unicode="&#x160;" horiz-adv-x="562" d="M339 -5 C443 -5 527 75 527 176 L527 192 C527 369 405 396 305 418 C242 432 190 442 190 492 L190 517 C190 538 206 555 226 555 L324 555 C343 555 359 538 359 517 L359 491 C359 479 368 470 380 470 L496 470 C508 470 517 479 517 491 L517 524 C517 625 433 705 331 705 L218 705 C114 705 30 625 30 524 L30 503 C30 332 157 297 256 275 C316 262 368 250 368 206 L368 183 C368 162 351 145 332 145 L223 145 C204 145 188 162 188 183 L188 215 C188 227 179 236 167 236 L51 236 C39 236 30 227 30 215 L30 176 C30 75 114 -5 216 -5 L339 -5 Z M228 751 C211 751 201 760 195 772 L112 939 C112 951 120 959 132 959 L231 959 C243 959 250 949 255 939 L277 896 L299 939 C304 949 311 959 323 959 L422 959 C434 959 442 951 442 939 L359 772 C353 760 343 751 326 751 L228 751 Z " />
<glyph glyph-name="scaron" unicode="&#x161;" horiz-adv-x="477" d="M291 352 C291 340 300 331 312 331 L421 331 C433 331 442 340 442 352 L442 359 C442 438 379 520 281 520 L196 520 C98 520 40 449 35 369 L35 361 C35 185 293 210 293 167 L293 155 C293 139 278 133 263 133 L216 133 C201 133 186 144 186 160 L186 167 C186 179 177 188 165 188 L56 188 C44 188 35 179 35 167 L35 156 C35 77 98 -5 196 -5 L287 -5 C386 -5 447 65 447 145 L447 159 C447 334 190 306 190 353 L190 364 C190 380 205 386 220 386 L261 386 C276 386 291 375 291 359 L291 352 Z M290 571 C307 571 317 580 323 592 L406 759 C406 771 398 779 386 779 L287 779 C275 779 268 769 263 759 L241 716 L219 759 C214 769 207 779 195 779 L96 779 C84 779 76 771 76 759 L159 592 C165 580 175 571 192 571 L290 571 Z " />
<glyph glyph-name="uni0162" unicode="&#x162;" horiz-adv-x="532" d="M220 0 L318 0 C330 0 335 -10 335 -20 C335 -41 318 -41 318 -41 L264 -41 C256 -41 249 -47 249 -56 L249 -108 C249 -116 256 -123 264 -123 L335 -123 C394 -123 425 -79 425 -34 C425 -17 424 60 345 73 L345 550 L486 550 C498 550 507 559 507 571 L507 679 C507 691 498 700 486 700 L46 700 C34 700 25 691 25 679 L25 571 C25 559 34 550 46 550 L187 550 L187 21 C187 9 196 0 208 0 L220 0 Z " />
<glyph glyph-name="uni0163" unicode="&#x163;" horiz-adv-x="394" d="M239 -92 C239 -92 251 -92 251 -105 C251 -118 239 -118 239 -118 L177 -118 C169 -118 162 -124 162 -133 L162 -180 C162 -188 169 -195 177 -195 L264 -195 C324 -195 341 -168 341 -93 C341 -53 313 -29 280 -23 L293 0 L353 0 C365 0 374 9 374 21 L374 125 C374 137 365 146 353 146 L294 146 C279 146 264 160 264 176 L264 368 L353 368 C365 368 374 377 374 389 L374 494 C374 506 365 515 353 515 L264 515 L264 679 C264 691 255 700 243 700 L127 700 C115 700 106 691 106 679 L106 515 L36 515 C24 515 15 506 15 494 L15 389 C15 377 24 368 36 368 L106 368 L106 170 C106 93 142 34 204 11 C203 10 202 9 202 8 L179 -32 C176 -37 174 -45 174 -48 L174 -77 C174 -85 181 -92 189 -92 L239 -92 Z " />
<glyph glyph-name="Tcaron" unicode="&#x164;" horiz-adv-x="532" d="M46 700 C34 700 25 691 25 679 L25 571 C25 559 34 550 46 550 L187 550 L187 21 C187 9 196 0 208 0 L324 0 C336 0 345 9 345 21 L345 550 L486 550 C498 550 507 559 507 571 L507 679 C507 691 498 700 486 700 L46 700 Z M316 751 C333 751 343 760 349 772 L432 939 C432 951 424 959 412 959 L313 959 C301 959 294 949 289 939 L267 896 L245 939 C240 949 233 959 221 959 L122 959 C110 959 102 951 102 939 L185 772 C191 760 201 751 218 751 L316 751 Z " />
<glyph glyph-name="tcaron" unicode="&#x165;" horiz-adv-x="568" d="M264 368 L353 368 C365 368 374 377 374 389 L374 494 C374 506 365 515 353 515 L264 515 L264 679 C264 691 255 700 243 700 L127 700 C115 700 106 691 106 679 L106 515 L36 515 C24 515 15 506 15 494 L15 389 C15 377 24 368 36 368 L106 368 L106 170 C106 70 168 0 267 0 L353 0 C365 0 374 9 374 21 L374 125 C374 137 365 146 353 146 L294 146 C279 146 264 160 264 176 L264 368 Z M485 551 C497 551 505 561 510 571 L558 681 C558 691 550 700 539 700 L431 700 C419 700 411 690 406 681 L358 571 C358 560 367 551 377 551 L485 551 Z " />
<glyph glyph-name="Tbar" unicode="&#x166;" horiz-adv-x="532" d="M432 264 C444 264 453 273 453 285 L453 378 C453 390 444 399 432 399 L345 399 L345 550 L486 550 C498 550 507 559 507 571 L507 679 C507 691 498 700 486 700 L46 700 C34 700 25 691 25 679 L25 571 C25 559 34 550 46 550 L187 550 L187 399 L100 399 C88 399 79 390 79 378 L79 285 C79 273 88 264 100 264 L187 264 L187 21 C187 9 196 0 208 0 L324 0 C336 0 345 9 345 21 L345 264 L432 264 Z " />
<glyph glyph-name="tbar" unicode="&#x167;" horiz-adv-x="394" d="M353 209 C365 209 374 218 374 230 L374 318 C374 330 365 339 353 339 L264 339 L264 385 L353 385 C365 385 374 394 374 406 L374 494 C374 506 365 515 353 515 L264 515 L264 679 C264 691 255 700 243 700 L127 700 C115 700 106 691 106 679 L106 515 L36 515 C24 515 15 506 15 494 L15 406 C15 394 24 385 36 385 L106 385 L106 339 L36 339 C24 339 15 330 15 318 L15 230 C15 218 24 209 36 209 L106 209 L106 170 C106 70 168 0 267 0 L353 0 C365 0 374 9 374 21 L374 125 C374 137 365 146 353 146 L294 146 C279 146 264 160 264 176 L264 209 L353 209 Z " />
<glyph glyph-name="Utilde" unicode="&#x168;" horiz-adv-x="603" d="M361 -5 C466 -5 548 75 548 176 L548 679 C548 691 539 700 527 700 L411 700 C399 700 390 691 390 679 L390 183 C390 162 374 145 356 145 L247 145 C229 145 213 162 213 183 L213 679 C213 691 204 700 192 700 L76 700 C64 700 55 691 55 679 L55 176 C55 75 137 -5 242 -5 L361 -5 Z M370 751 C398 751 434 767 459 783 C468 790 472 800 472 810 L445 896 C443 904 434 911 423 911 C403 911 387 900 370 900 C321 900 284 938 236 938 C208 938 172 922 147 906 C138 899 134 889 134 879 L161 793 C163 785 172 778 183 778 C203 778 219 789 236 789 C284 789 322 751 370 751 L370 751 Z " />
<glyph glyph-name="utilde" unicode="&#x169;" horiz-adv-x="516" d="M308 172 C308 156 293 142 278 142 L238 142 C223 142 208 156 208 172 L208 494 C208 506 199 515 187 515 L71 515 C59 515 50 506 50 494 L50 156 C50 77 113 -5 211 -5 L305 -5 C403 -5 466 77 466 156 L466 494 C466 506 457 515 445 515 L329 515 C317 515 308 506 308 494 L308 172 Z M330 571 C358 571 394 587 419 603 C428 610 432 620 432 630 L405 716 C403 724 394 731 383 731 C363 731 347 720 330 720 C281 720 244 758 196 758 C168 758 132 742 107 726 C98 719 94 709 94 699 L121 613 C123 605 132 598 143 598 C163 598 179 609 196 609 C244 609 282 571 330 571 L330 571 Z " />
<glyph glyph-name="Umacron" unicode="&#x16a;" horiz-adv-x="603" d="M361 -5 C466 -5 548 75 548 176 L548 679 C548 691 539 700 527 700 L411 700 C399 700 390 691 390 679 L390 183 C390 162 374 145 356 145 L247 145 C229 145 213 162 213 183 L213 679 C213 691 204 700 192 700 L76 700 C64 700 55 691 55 679 L55 176 C55 75 137 -5 242 -5 L361 -5 Z M435 751 C447 751 456 760 456 772 L456 880 C456 892 447 901 435 901 L168 901 C156 901 147 892 147 880 L147 772 C147 760 156 751 168 751 L435 751 Z " />
<glyph glyph-name="umacron" unicode="&#x16b;" horiz-adv-x="516" d="M308 172 C308 156 293 142 278 142 L238 142 C223 142 208 156 208 172 L208 494 C208 506 199 515 187 515 L71 515 C59 515 50 506 50 494 L50 156 C50 77 113 -5 211 -5 L305 -5 C403 -5 466 77 466 156 L466 494 C466 506 457 515 445 515 L329 515 C317 515 308 506 308 494 L308 172 Z M392 571 C404 571 413 580 413 592 L413 700 C413 712 404 721 392 721 L125 721 C113 721 104 712 104 700 L104 592 C104 580 113 571 125 571 L392 571 Z " />
<glyph glyph-name="Ubreve" unicode="&#x16c;" horiz-adv-x="603" d="M361 -5 C466 -5 548 75 548 176 L548 679 C548 691 539 700 527 700 L411 700 C399 700 390 691 390 679 L390 183 C390 162 374 145 356 145 L247 145 C229 145 213 162 213 183 L213 679 C213 691 204 700 192 700 L76 700 C64 700 55 691 55 679 L55 176 C55 75 137 -5 242 -5 L361 -5 Z M301 751 C402 751 470 800 483 909 C483 919 476 926 466 926 L374 926 C364 926 356 919 352 909 C345 875 325 870 301 870 C277 870 257 875 250 909 C246 919 238 926 228 926 L136 926 C126 926 119 919 119 909 C132 800 200 751 301 751 L301 751 Z " />
<glyph glyph-name="ubreve" unicode="&#x16d;" horiz-adv-x="516" d="M308 172 C308 156 293 142 278 142 L238 142 C223 142 208 156 208 172 L208 494 C208 506 199 515 187 515 L71 515 C59 515 50 506 50 494 L50 156 C50 77 113 -5 211 -5 L305 -5 C403 -5 466 77 466 156 L466 494 C466 506 457 515 445 515 L329 515 C317 515 308 506 308 494 L308 172 Z M258 571 C359 571 427 620 440 729 C440 739 433 746 423 746 L331 746 C321 746 313 739 309 729 C302 695 282 690 258 690 C234 690 214 695 207 729 C203 739 195 746 185 746 L93 746 C83 746 76 739 76 729 C89 620 157 571 258 571 L258 571 Z " />
<glyph glyph-name="Uring" unicode="&#x16e;" horiz-adv-x="603" d="M361 -5 C466 -5 548 75 548 176 L548 679 C548 691 539 700 527 700 L411 700 C399 700 390 691 390 679 L390 183 C390 162 374 145 356 145 L247 145 C229 145 213 162 213 183 L213 679 C213 691 204 700 192 700 L76 700 C64 700 55 691 55 679 L55 176 C55 75 137 -5 242 -5 L361 -5 Z M301 1002 C224 1002 160 939 160 860 C160 783 224 719 301 719 C381 719 444 783 444 860 C444 939 381 1002 301 1002 L301 1002 Z M301 819 C279 819 260 838 260 860 C260 883 279 902 301 902 C324 902 343 883 343 860 C343 838 324 819 301 819 L301 819 Z " />
<glyph glyph-name="uring" unicode="&#x16f;" horiz-adv-x="516" d="M308 172 C308 156 293 142 278 142 L238 142 C223 142 208 156 208 172 L208 494 C208 506 199 515 187 515 L71 515 C59 515 50 506 50 494 L50 156 C50 77 113 -5 211 -5 L305 -5 C403 -5 466 77 466 156 L466 494 C466 506 457 515 445 515 L329 515 C317 515 308 506 308 494 L308 172 Z M258 854 C181 854 117 791 117 712 C117 635 181 571 258 571 C338 571 401 635 401 712 C401 791 338 854 258 854 L258 854 Z M258 671 C236 671 217 690 217 712 C217 735 236 754 258 754 C281 754 300 735 300 712 C300 690 281 671 258 671 L258 671 Z " />
<glyph glyph-name="Uhungarumlaut" unicode="&#x170;" horiz-adv-x="603" d="M361 -5 C466 -5 548 75 548 176 L548 679 C548 691 539 700 527 700 L411 700 C399 700 390 691 390 679 L390 183 C390 162 374 145 356 145 L247 145 C229 145 213 162 213 183 L213 679 C213 691 204 700 192 700 L76 700 C64 700 55 691 55 679 L55 176 C55 75 137 -5 242 -5 L361 -5 Z M263 751 C275 751 283 761 288 771 L334 902 C334 912 326 921 315 921 L210 921 C198 921 190 911 185 902 L139 771 C139 760 148 751 158 751 L263 751 Z M436 751 C448 751 456 761 461 771 L507 902 C507 912 499 921 488 921 L383 921 C371 921 363 911 358 902 L312 771 C312 760 321 751 331 751 L436 751 Z " />
<glyph glyph-name="uhungarumlaut" unicode="&#x171;" horiz-adv-x="516" d="M308 172 C308 156 293 142 278 142 L238 142 C223 142 208 156 208 172 L208 494 C208 506 199 515 187 515 L71 515 C59 515 50 506 50 494 L50 156 C50 77 113 -5 211 -5 L305 -5 C403 -5 466 77 466 156 L466 494 C466 506 457 515 445 515 L329 515 C317 515 308 506 308 494 L308 172 Z M218 571 C230 571 238 581 243 591 L289 722 C289 732 281 741 270 741 L165 741 C153 741 145 731 140 722 L94 591 C94 580 103 571 113 571 L218 571 Z M391 571 C403 571 411 581 416 591 L462 722 C462 732 454 741 443 741 L338 741 C326 741 318 731 313 722 L267 591 C267 580 276 571 286 571 L391 571 Z " />
<glyph glyph-name="Uogonek" unicode="&#x172;" horiz-adv-x="603" d="M298 -92 C298 -92 310 -92 310 -105 C310 -118 298 -118 298 -118 L236 -118 C228 -118 221 -124 221 -133 L221 -180 C221 -188 228 -195 236 -195 L323 -195 C383 -195 400 -168 400 -93 C400 -53 372 -29 339 -23 L349 -5 L361 -5 C466 -5 548 75 548 176 L548 679 C548 691 539 700 527 700 L411 700 C399 700 390 691 390 679 L390 183 C390 162 374 145 356 145 L247 145 C229 145 213 162 213 183 L213 679 C213 691 204 700 192 700 L76 700 C64 700 55 691 55 679 L55 176 C55 75 137 -5 242 -5 L253 -5 L238 -32 C235 -37 233 -45 233 -48 L233 -77 C233 -85 240 -92 248 -92 L298 -92 Z " />
<glyph glyph-name="uogonek" unicode="&#x173;" horiz-adv-x="516" d="M308 172 C308 156 293 142 278 142 L238 142 C223 142 208 156 208 172 L208 494 C208 506 199 515 187 515 L71 515 C59 515 50 506 50 494 L50 156 C50 77 112 -4 210 -5 L210 -23 C177 -29 149 -53 149 -93 C149 -168 166 -195 226 -195 L301 -195 C309 -195 316 -188 316 -180 L316 -133 C316 -124 309 -118 301 -118 L251 -118 C251 -118 239 -118 239 -105 C239 -92 251 -92 251 -92 L291 -92 C299 -92 306 -85 306 -77 L306 -5 C403 -4 466 77 466 156 L466 494 C466 506 457 515 445 515 L329 515 C317 515 308 506 308 494 L308 172 Z " />
<glyph glyph-name="Ydieresis" unicode="&#x178;" horiz-adv-x="602" d="M307 411 L294 411 L173 679 C168 690 162 700 150 700 L31 700 C19 700 10 691 10 679 L222 227 L222 21 C222 9 231 0 243 0 L359 0 C371 0 380 9 380 21 L380 227 L592 679 C592 691 583 700 571 700 L452 700 C440 700 434 690 429 679 L307 411 Z M134 772 C134 760 143 751 155 751 L255 751 C267 751 276 760 276 772 L276 875 C276 887 267 896 255 896 L155 896 C143 896 134 887 134 875 L134 772 Z M328 772 C328 760 337 751 349 751 L449 751 C461 751 470 760 470 772 L470 875 C470 887 461 896 449 896 L349 896 C337 896 328 887 328 875 L328 772 Z " />
<glyph glyph-name="Zacute" unicode="&#x179;" horiz-adv-x="534" d="M241 150 L493 597 C495 602 499 612 499 617 L499 679 C499 691 490 700 478 700 L56 700 C44 700 35 691 35 679 L35 571 C35 559 44 550 56 550 L293 550 L41 103 C39 98 35 88 35 83 L35 21 C35 9 44 0 56 0 L478 0 C490 0 499 9 499 21 L499 129 C499 141 490 150 478 150 L241 150 Z M329 751 C341 751 349 761 354 771 L411 904 C411 914 403 923 392 923 L284 923 C272 923 264 913 259 904 L202 771 C202 760 211 751 221 751 L329 751 Z " />
<glyph glyph-name="zacute" unicode="&#x17a;" horiz-adv-x="450" d="M237 148 L412 399 C417 406 420 412 420 420 L420 494 C420 506 411 515 399 515 L51 515 C39 515 30 506 30 494 L30 388 C30 376 39 367 51 367 L213 367 L38 116 C33 109 30 103 30 95 L30 21 C30 9 39 0 51 0 L399 0 C411 0 420 9 420 21 L420 127 C420 139 411 148 399 148 L237 148 Z M288 571 C300 571 308 581 313 591 L370 724 C370 734 362 743 351 743 L243 743 C231 743 223 733 218 724 L161 591 C161 580 170 571 180 571 L288 571 Z " />
<glyph glyph-name="Zdotaccent" unicode="&#x17b;" horiz-adv-x="534" d="M241 150 L493 597 C495 602 499 612 499 617 L499 679 C499 691 490 700 478 700 L56 700 C44 700 35 691 35 679 L35 571 C35 559 44 550 56 550 L293 550 L41 103 C39 98 35 88 35 83 L35 21 C35 9 44 0 56 0 L478 0 C490 0 499 9 499 21 L499 129 C499 141 490 150 478 150 L241 150 Z M202 772 C202 760 211 751 223 751 L323 751 C335 751 344 760 344 772 L344 875 C344 887 335 896 323 896 L223 896 C211 896 202 887 202 875 L202 772 Z " />
<glyph glyph-name="zdotaccent" unicode="&#x17c;" horiz-adv-x="450" d="M237 148 L412 399 C417 406 420 412 420 420 L420 494 C420 506 411 515 399 515 L51 515 C39 515 30 506 30 494 L30 388 C30 376 39 367 51 367 L213 367 L38 116 C33 109 30 103 30 95 L30 21 C30 9 39 0 51 0 L399 0 C411 0 420 9 420 21 L420 127 C420 139 411 148 399 148 L237 148 Z M164 592 C164 580 173 571 185 571 L285 571 C297 571 306 580 306 592 L306 695 C306 707 297 716 285 716 L185 716 C173 716 164 707 164 695 L164 592 Z " />
<glyph glyph-name="Zcaron" unicode="&#x17d;" horiz-adv-x="534" d="M241 150 L493 597 C495 602 499 612 499 617 L499 679 C499 691 490 700 478 700 L56 700 C44 700 35 691 35 679 L35 571 C35 559 44 550 56 550 L293 550 L41 103 C39 98 35 88 35 83 L35 21 C35 9 44 0 56 0 L478 0 C490 0 499 9 499 21 L499 129 C499 141 490 150 478 150 L241 150 Z M322 751 C339 751 349 760 355 772 L438 939 C438 951 430 959 418 959 L319 959 C307 959 300 949 295 939 L273 896 L251 939 C246 949 239 959 227 959 L128 959 C116 959 108 951 108 939 L191 772 C197 760 207 751 224 751 L322 751 Z " />
<glyph glyph-name="zcaron" unicode="&#x17e;" horiz-adv-x="450" d="M237 148 L412 399 C417 406 420 412 420 420 L420 494 C420 506 411 515 399 515 L51 515 C39 515 30 506 30 494 L30 388 C30 376 39 367 51 367 L213 367 L38 116 C33 109 30 103 30 95 L30 21 C30 9 39 0 51 0 L399 0 C411 0 420 9 420 21 L420 127 C420 139 411 148 399 148 L237 148 Z M278 571 C295 571 305 580 311 592 L394 759 C394 771 386 779 374 779 L275 779 C263 779 256 769 251 759 L229 716 L207 759 C202 769 195 779 183 779 L84 779 C72 779 64 771 64 759 L147 592 C153 580 163 571 180 571 L278 571 Z " />
<glyph glyph-name="florin" unicode="&#x192;" horiz-adv-x="388" d="M382 554 C394 554 403 563 403 575 L403 679 C403 691 394 700 382 700 L304 700 C206 700 162 618 144 542 L130 483 L43 483 C31 483 22 474 22 462 L22 356 C22 344 31 335 43 335 L92 335 L-35 -153 C-35 -165 -26 -174 -14 -174 L100 -174 C112 -174 118 -164 123 -153 C142 -75 167 17 189 99 L251 335 L345 335 C357 335 366 344 366 356 L366 462 C366 474 357 483 345 483 L289 483 L300 531 C302 541 308 554 320 554 L382 554 Z " />
<glyph glyph-name="uni0218" unicode="&#x218;" horiz-adv-x="562" d="M339 -5 C443 -5 527 75 527 176 L527 192 C527 369 405 396 305 418 C242 432 190 442 190 492 L190 517 C190 538 206 555 226 555 L324 555 C343 555 359 538 359 517 L359 491 C359 479 368 470 380 470 L496 470 C508 470 517 479 517 491 L517 524 C517 625 433 705 331 705 L218 705 C114 705 30 625 30 524 L30 503 C30 332 157 297 256 275 C316 262 368 250 368 206 L368 183 C368 162 351 145 332 145 L223 145 C204 145 188 162 188 183 L188 215 C188 227 179 236 167 236 L51 236 C39 236 30 227 30 215 L30 176 C30 75 114 -5 216 -5 L339 -5 Z M284 -223 C296 -223 304 -213 309 -203 L350 -72 C350 -62 342 -53 331 -53 L223 -53 C211 -53 203 -63 198 -72 L157 -203 C157 -214 166 -223 176 -223 L284 -223 Z " />
<glyph glyph-name="uni0219" unicode="&#x219;" horiz-adv-x="477" d="M291 352 C291 340 300 331 312 331 L421 331 C433 331 442 340 442 352 L442 359 C442 438 379 520 281 520 L196 520 C98 520 40 449 35 369 L35 361 C35 185 293 210 293 167 L293 155 C293 139 278 133 263 133 L216 133 C201 133 186 144 186 160 L186 167 C186 179 177 188 165 188 L56 188 C44 188 35 179 35 167 L35 156 C35 77 98 -5 196 -5 L287 -5 C386 -5 447 65 447 145 L447 159 C447 334 190 306 190 353 L190 364 C190 380 205 386 220 386 L261 386 C276 386 291 375 291 359 L291 352 Z M251 -223 C263 -223 271 -213 276 -203 L317 -72 C317 -62 309 -53 298 -53 L190 -53 C178 -53 170 -63 165 -72 L124 -203 C124 -214 133 -223 143 -223 L251 -223 Z " />
<glyph glyph-name="uni021A" unicode="&#x21a;" horiz-adv-x="532" d="M46 700 C34 700 25 691 25 679 L25 571 C25 559 34 550 46 550 L187 550 L187 21 C187 9 196 0 208 0 L324 0 C336 0 345 9 345 21 L345 550 L486 550 C498 550 507 559 507 571 L507 679 C507 691 498 700 486 700 L46 700 Z M275 -223 C287 -223 295 -213 300 -203 L341 -72 C341 -62 333 -53 322 -53 L214 -53 C202 -53 194 -63 189 -72 L148 -203 C148 -214 157 -223 167 -223 L275 -223 Z " />
<glyph glyph-name="uni021B" unicode="&#x21b;" horiz-adv-x="394" d="M264 368 L353 368 C365 368 374 377 374 389 L374 494 C374 506 365 515 353 515 L264 515 L264 679 C264 691 255 700 243 700 L127 700 C115 700 106 691 106 679 L106 515 L36 515 C24 515 15 506 15 494 L15 389 C15 377 24 368 36 368 L106 368 L106 170 C106 70 168 0 267 0 L353 0 C365 0 374 9 374 21 L374 125 C374 137 365 146 353 146 L294 146 C279 146 264 160 264 176 L264 368 Z M260 -223 C272 -223 280 -213 285 -203 L326 -72 C326 -62 318 -53 307 -53 L199 -53 C187 -53 179 -63 174 -72 L133 -203 C133 -214 142 -223 152 -223 L260 -223 Z " />
<glyph glyph-name="circumflex" unicode="&#x2c6;" horiz-adv-x="450" d="M176 700 C159 700 149 691 143 679 L60 512 C60 500 68 492 80 492 L179 492 C191 492 198 502 203 512 L225 555 L247 512 C252 502 259 492 271 492 L370 492 C382 492 390 500 390 512 L307 679 C301 691 291 700 274 700 L176 700 Z " />
<glyph glyph-name="caron" unicode="&#x2c7;" horiz-adv-x="450" d="M274 492 C291 492 301 501 307 513 L390 680 C390 692 382 700 370 700 L271 700 C259 700 252 690 247 680 L225 637 L203 680 C198 690 191 700 179 700 L80 700 C68 700 60 692 60 680 L143 513 C149 501 159 492 176 492 L274 492 Z " />
<glyph glyph-name="breve" unicode="&#x2d8;" horiz-adv-x="484" d="M242 525 C343 525 411 574 424 683 C424 693 417 700 407 700 L315 700 C305 700 297 693 293 683 C286 649 266 644 242 644 C218 644 198 649 191 683 C187 693 179 700 169 700 L77 700 C67 700 60 693 60 683 C73 574 141 525 242 525 L242 525 Z " />
<glyph glyph-name="dotaccent" unicode="&#x2d9;" horiz-adv-x="278" d="M60 561 C60 549 69 540 81 540 L197 540 C209 540 218 549 218 561 L218 679 C218 691 209 700 197 700 L81 700 C69 700 60 691 60 679 L60 561 Z " />
<glyph glyph-name="ring" unicode="&#x2da;" horiz-adv-x="404" d="M201 751 C124 751 60 688 60 609 C60 532 124 468 201 468 C281 468 344 532 344 609 C344 688 281 751 201 751 L201 751 Z M201 568 C179 568 160 587 160 609 C160 632 179 651 201 651 C224 651 243 632 243 609 C243 587 224 568 201 568 L201 568 Z " />
<glyph glyph-name="ogonek" unicode="&#x2db;" horiz-adv-x="287" d="M140 27 C129 27 121 19 121 8 L121 -23 C88 -29 60 -53 60 -93 C60 -168 77 -195 137 -195 L212 -195 C220 -195 227 -188 227 -180 L227 -133 C227 -124 220 -118 212 -118 L162 -118 C162 -118 150 -118 150 -105 C150 -92 162 -92 162 -92 L202 -92 C210 -92 217 -85 217 -77 L217 8 C217 19 209 27 198 27 L140 27 Z " />
<glyph glyph-name="tilde" unicode="&#x2dc;" horiz-adv-x="458" d="M296 513 C324 513 360 529 385 545 C394 552 398 562 398 572 L371 658 C369 666 360 673 349 673 C329 673 313 662 296 662 C247 662 210 700 162 700 C134 700 98 684 73 668 C64 661 60 651 60 641 L87 555 C89 547 98 540 109 540 C129 540 145 551 162 551 C210 551 248 513 296 513 L296 513 Z " />
<glyph glyph-name="hungarumlaut" unicode="&#x2dd;" horiz-adv-x="488" d="M184 530 C196 530 204 540 209 550 L255 681 C255 691 247 700 236 700 L131 700 C119 700 111 690 106 681 L60 550 C60 539 69 530 79 530 L184 530 Z M357 530 C369 530 377 540 382 550 L428 681 C428 691 420 700 409 700 L304 700 C292 700 284 690 279 681 L233 550 C233 539 242 530 252 530 L357 530 Z " />
<glyph glyph-name="uni03A9" unicode="&#x3a9;" horiz-adv-x="724" d="M421 705 L304 705 C199 705 116 625 116 524 L116 204 C116 193 118 170 124 150 L81 150 C69 150 60 141 60 129 L60 21 C60 9 69 0 81 0 L292 0 C304 0 313 9 313 21 L313 118 C313 129 306 144 294 150 C281 157 275 189 275 203 L275 517 C275 538 291 555 309 555 L415 555 C433 555 449 538 449 517 L449 203 C449 189 443 157 430 150 C418 144 411 129 411 118 L411 21 C411 9 420 0 432 0 L643 0 C655 0 664 9 664 21 L664 129 C664 141 655 150 643 150 L600 150 C606 170 608 193 608 204 L608 524 C608 625 525 705 421 705 L421 705 Z " />
<glyph glyph-name="pi" unicode="&#x3c0;" horiz-adv-x="777" d="M81 515 C69 515 60 506 60 494 L60 386 C60 374 69 365 81 365 L179 365 L179 21 C179 9 188 0 200 0 L316 0 C328 0 337 9 337 21 L337 365 L440 365 L440 21 C440 9 449 0 461 0 L577 0 C589 0 598 9 598 21 L598 365 L696 365 C708 365 717 374 717 386 L717 494 C717 506 708 515 696 515 L81 515 Z " />
<glyph glyph-name="ZWSP" unicode="&#x200b;" d="" />
<glyph glyph-name="endash" unicode="&#x2013;" horiz-adv-x="429" d="M348 176 C360 176 369 185 369 197 L369 305 C369 317 360 326 348 326 L81 326 C69 326 60 317 60 305 L60 197 C60 185 69 176 81 176 L348 176 Z " />
<glyph glyph-name="emdash" unicode="&#x2014;" horiz-adv-x="501" d="M420 176 C432 176 441 185 441 197 L441 305 C441 317 432 326 420 326 L81 326 C69 326 60 317 60 305 L60 197 C60 185 69 176 81 176 L420 176 Z " />
<glyph glyph-name="quoteleft" unicode="&#x2018;" horiz-adv-x="317" d="M183 499 C195 499 203 509 208 519 L257 681 C257 691 249 700 238 700 L134 700 C122 700 114 690 109 681 L60 519 C60 508 69 499 79 499 L183 499 Z " />
<glyph glyph-name="quoteright" unicode="&#x2019;" horiz-adv-x="317" d="M134 700 C122 700 114 690 109 680 L60 518 C60 508 68 499 79 499 L183 499 C195 499 203 509 208 518 L257 680 C257 691 248 700 238 700 L134 700 Z " />
<glyph glyph-name="quotesinglbase" unicode="&#x201a;" horiz-adv-x="317" d="M183 -81 C195 -81 203 -71 208 -61 L257 101 C257 111 249 120 238 120 L134 120 C122 120 114 110 109 101 L60 -61 C60 -72 69 -81 79 -81 L183 -81 Z " />
<glyph glyph-name="quotedblleft" unicode="&#x201c;" horiz-adv-x="509" d="M183 499 C195 499 203 509 208 519 L257 681 C257 691 249 700 238 700 L134 700 C122 700 114 690 109 681 L60 519 C60 508 69 499 79 499 L183 499 Z M375 499 C387 499 395 509 400 519 L449 681 C449 691 441 700 430 700 L326 700 C314 700 306 690 301 681 L252 519 C252 508 261 499 271 499 L375 499 Z " />
<glyph glyph-name="quotedblright" unicode="&#x201d;" horiz-adv-x="509" d="M326 700 C314 700 306 690 301 680 L252 518 C252 508 260 499 271 499 L375 499 C387 499 395 509 400 518 L449 680 C449 691 440 700 430 700 L326 700 Z M134 700 C122 700 114 690 109 680 L60 518 C60 508 68 499 79 499 L183 499 C195 499 203 509 208 518 L257 680 C257 691 248 700 238 700 L134 700 Z " />
<glyph glyph-name="quotedblbase" unicode="&#x201e;" horiz-adv-x="509" d="M326 120 C314 120 306 110 301 100 L252 -62 C252 -72 260 -81 271 -81 L375 -81 C387 -81 395 -71 400 -62 L449 100 C449 111 440 120 430 120 L326 120 Z M134 120 C122 120 114 110 109 100 L60 -62 C60 -72 68 -81 79 -81 L183 -81 C195 -81 203 -71 208 -62 L257 100 C257 111 248 120 238 120 L134 120 Z " />
<glyph glyph-name="dagger" unicode="&#x2020;" horiz-adv-x="496" d="M81 553 C69 553 60 544 60 532 L60 424 C60 412 69 403 81 403 L169 403 L169 -247 C169 -259 178 -268 190 -268 L306 -268 C318 -268 327 -259 327 -247 L327 403 L415 403 C427 403 436 412 436 424 L436 532 C436 544 427 553 415 553 L327 553 L327 679 C327 691 318 700 306 700 L190 700 C178 700 169 691 169 679 L169 553 L81 553 Z " />
<glyph glyph-name="daggerdbl" unicode="&#x2021;" horiz-adv-x="496" d="M81 33 C69 33 60 24 60 12 L60 -96 C60 -108 69 -117 81 -117 L169 -117 L169 -247 C169 -259 178 -268 190 -268 L306 -268 C318 -268 327 -259 327 -247 L327 -117 L415 -117 C427 -117 436 -108 436 -96 L436 12 C436 24 427 33 415 33 L327 33 L327 403 L415 403 C427 403 436 412 436 424 L436 532 C436 544 427 553 415 553 L327 553 L327 679 C327 691 318 700 306 700 L190 700 C178 700 169 691 169 679 L169 553 L81 553 C69 553 60 544 60 532 L60 424 C60 412 69 403 81 403 L169 403 L169 33 L81 33 Z " />
<glyph glyph-name="bullet" unicode="&#x2022;" horiz-adv-x="278" d="M60 172 C60 160 69 151 81 151 L197 151 C209 151 218 160 218 172 L218 290 C218 302 209 311 197 311 L81 311 C69 311 60 302 60 290 L60 172 Z " />
<glyph glyph-name="ellipsis" unicode="&#x2026;" horiz-adv-x="948" d="M60 16 C60 4 69 -5 81 -5 L197 -5 C209 -5 218 4 218 16 L218 134 C218 146 209 155 197 155 L81 155 C69 155 60 146 60 134 L60 16 Z M395 16 C395 4 404 -5 416 -5 L532 -5 C544 -5 553 4 553 16 L553 134 C553 146 544 155 532 155 L416 155 C404 155 395 146 395 134 L395 16 Z M730 16 C730 4 739 -5 751 -5 L867 -5 C879 -5 888 4 888 16 L888 134 C888 146 879 155 867 155 L751 155 C739 155 730 146 730 134 L730 16 Z " />
<glyph glyph-name="perthousand" unicode="&#x2030;" horiz-adv-x="1096" d="M201 700 C124 700 60 637 60 558 C60 481 124 417 201 417 C281 417 344 481 344 558 C344 637 281 700 201 700 L201 700 Z M201 517 C179 517 160 536 160 558 C160 581 179 600 201 600 C224 600 243 581 243 558 C243 536 224 517 201 517 L201 517 Z M612 679 C612 691 603 700 591 700 L472 700 C460 700 454 690 449 679 L161 21 C161 9 170 0 182 0 L301 0 C313 0 319 10 324 21 L612 679 Z M573 283 C496 283 432 220 432 141 C432 64 496 0 573 0 C653 0 716 64 716 141 C716 220 653 283 573 283 L573 283 Z M573 100 C551 100 532 119 532 141 C532 164 551 183 573 183 C596 183 615 164 615 141 C615 119 596 100 573 100 L573 100 Z M893 283 C816 283 752 220 752 141 C752 64 816 0 893 0 C973 0 1036 64 1036 141 C1036 220 973 283 893 283 L893 283 Z M893 100 C871 100 852 119 852 141 C852 164 871 183 893 183 C916 183 935 164 935 141 C935 119 916 100 893 100 L893 100 Z " />
<glyph glyph-name="guilsinglleft" unicode="&#x2039;" horiz-adv-x="420" d="M60 162 C60 152 67 146 79 142 L342 49 C352 49 360 56 360 67 L360 164 C360 175 352 183 342 186 L201 233 L201 246 L342 292 C352 295 360 303 360 314 L360 411 C360 422 352 429 342 429 L79 336 C67 332 60 326 60 316 L60 162 Z " />
<glyph glyph-name="guilsinglright" unicode="&#x203a;" horiz-adv-x="420" d="M360 316 C360 326 353 332 341 336 L78 429 C68 429 60 422 60 411 L60 314 C60 303 68 295 78 292 L219 246 L219 233 L78 186 C68 183 60 175 60 164 L60 67 C60 56 68 49 78 49 L341 142 C353 146 360 152 360 162 L360 316 Z " />
<glyph glyph-name="fraction" unicode="&#x2044;" horiz-adv-x="584" d="M60 -153 C60 -165 69 -174 81 -174 L200 -174 C212 -174 220 -164 224 -153 L524 783 C524 795 515 804 503 804 L384 804 C372 804 364 794 360 783 L60 -153 Z " />
<glyph glyph-name="Euro" unicode="&#x20ac;" horiz-adv-x="670" d="M338 203 C350 203 359 212 359 224 L359 305 C359 317 350 326 338 326 L275 326 L275 373 L338 373 C350 373 359 382 359 394 L359 475 C359 487 350 496 338 496 L275 496 L275 517 C275 538 291 555 309 555 L418 555 C437 555 452 538 452 517 L452 479 C452 467 461 458 473 458 L589 458 C601 458 610 467 610 479 L610 524 C610 625 527 705 422 705 L305 705 C200 705 117 625 117 524 L117 496 L81 496 C69 496 60 487 60 475 L60 394 C60 382 69 373 81 373 L117 373 L117 326 L81 326 C69 326 60 317 60 305 L60 224 C60 212 69 203 81 203 L117 203 L117 176 C117 75 200 -5 305 -5 L422 -5 C527 -5 610 75 610 176 L610 221 C610 233 601 242 589 242 L473 242 C461 242 452 233 452 221 L452 183 C452 162 437 145 418 145 L309 145 C291 145 275 162 275 183 L275 203 L338 203 Z " />
<glyph glyph-name="Numero" unicode="&#x2116;" horiz-adv-x="1131" d="M414 323 L254 678 C249 689 242 699 230 699 L81 699 C69 699 60 690 60 678 L60 21 C60 9 69 0 81 0 L197 0 C209 0 218 9 218 21 L218 376 L227 376 L387 21 C391 10 399 0 411 0 L560 0 C572 0 581 9 581 21 L581 678 C581 690 572 699 560 699 L444 699 C432 699 423 690 423 678 L423 323 L414 323 Z M816 700 C718 700 655 618 655 538 L655 336 C655 257 718 175 816 175 L910 175 C1009 175 1071 257 1071 336 L1071 538 C1071 618 1009 700 910 700 L816 700 Z M813 523 C813 539 828 553 843 553 L883 553 C898 553 913 539 913 523 L913 352 C913 336 898 322 883 322 L843 322 C828 322 813 336 813 352 L813 523 Z M997 0 C1009 0 1018 9 1018 21 L1018 116 C1018 128 1009 137 997 137 L730 137 C718 137 709 128 709 116 L709 21 C709 9 718 0 730 0 L997 0 Z " />
<glyph glyph-name="trademark" unicode="&#x2122;" horiz-adv-x="701" d="M73 700 C66 700 60 694 60 687 L60 619 C60 612 66 606 73 606 L119 606 L119 396 C119 389 125 383 132 383 L210 383 C217 383 223 389 223 396 L223 606 L268 606 C275 606 281 612 281 619 L281 687 C281 694 275 700 268 700 L73 700 Z M487 417 C493 417 497 418 501 426 L537 493 L537 396 C537 389 543 383 550 383 L628 383 C635 383 641 389 641 396 L641 687 C641 694 635 700 628 700 L550 700 C545 700 540 697 538 692 L478 560 L473 560 L413 692 C411 697 406 700 401 700 L323 700 C316 700 310 694 310 687 L310 396 C310 389 316 383 323 383 L401 383 C408 383 414 389 414 396 L414 493 L450 426 C454 418 458 417 464 417 L487 417 Z " />
<glyph glyph-name="Omega" unicode="&#x2126;" horiz-adv-x="724" d="M421 705 L304 705 C199 705 116 625 116 524 L116 204 C116 193 118 170 124 150 L81 150 C69 150 60 141 60 129 L60 21 C60 9 69 0 81 0 L292 0 C304 0 313 9 313 21 L313 118 C313 129 306 144 294 150 C281 157 275 189 275 203 L275 517 C275 538 291 555 309 555 L415 555 C433 555 449 538 449 517 L449 203 C449 189 443 157 430 150 C418 144 411 129 411 118 L411 21 C411 9 420 0 432 0 L643 0 C655 0 664 9 664 21 L664 129 C664 141 655 150 643 150 L600 150 C606 170 608 193 608 204 L608 524 C608 625 525 705 421 705 L421 705 Z " />
<glyph glyph-name="partialdiff" unicode="&#x2202;" horiz-adv-x="549" d="M217 266 C217 282 232 296 247 296 L301 296 C316 296 331 282 331 266 L331 172 C331 156 316 142 301 142 L247 142 C232 142 217 156 217 172 L217 266 Z M331 407 L323 407 C302 433 265 443 239 443 L224 443 C128 443 60 373 60 281 L60 157 C60 65 128 -5 224 -5 L239 -5 C265 -5 302 5 323 31 L331 31 L331 21 C331 9 340 0 352 0 L468 0 C480 0 489 9 489 21 L489 543 C489 623 426 705 328 705 L234 705 C134 705 73 623 73 543 L73 510 C73 498 82 489 94 489 L210 489 C222 489 231 498 231 510 L231 528 C231 544 246 558 261 558 L301 558 C316 558 331 544 331 528 L331 407 Z " />
<glyph glyph-name="Delta" unicode="&#x2206;" horiz-adv-x="832" d="M557 150 L275 150 L416 499 L557 150 Z M751 0 C763 0 772 9 772 21 L507 679 C502 690 492 700 480 700 L352 700 C340 700 330 690 325 679 L60 21 C60 9 69 0 81 0 L751 0 Z " />
<glyph glyph-name="product" unicode="&#x220f;" horiz-adv-x="777" d="M81 700 C69 700 60 691 60 679 L60 571 C60 559 69 550 81 550 L179 550 L179 21 C179 9 188 0 200 0 L316 0 C328 0 337 9 337 21 L337 550 L440 550 L440 21 C440 9 449 0 461 0 L577 0 C589 0 598 9 598 21 L598 550 L696 550 C708 550 717 559 717 571 L717 679 C717 691 708 700 696 700 L81 700 Z " />
<glyph glyph-name="summation" unicode="&#x2211;" horiz-adv-x="547" d="M236 150 L340 329 L340 371 L236 550 L466 550 C478 550 487 559 487 571 L487 679 C487 691 478 700 466 700 L81 700 C69 700 60 691 60 679 L60 564 L182 361 L182 339 L60 136 L60 21 C60 9 69 0 81 0 L466 0 C478 0 487 9 487 21 L487 129 C487 141 478 150 466 150 L236 150 Z " />
<glyph glyph-name="minus" unicode="&#x2212;" horiz-adv-x="429" d="M348 176 C360 176 369 185 369 197 L369 305 C369 317 360 326 348 326 L81 326 C69 326 60 317 60 305 L60 197 C60 185 69 176 81 176 L348 176 Z " />
<glyph glyph-name="radical" unicode="&#x221a;" horiz-adv-x="712" d="M631 561 C643 561 652 570 652 582 L652 679 C652 691 643 700 631 700 L413 700 C401 700 393 691 390 679 L271 186 L259 186 L223 381 C220 393 212 402 200 402 L81 402 C69 402 60 393 60 381 L166 21 C169 9 179 0 191 0 L339 0 C351 0 361 9 364 21 L519 561 L631 561 Z " />
<glyph glyph-name="infinity" unicode="&#x221e;" horiz-adv-x="886" d="M342 322 C353 322 363 313 363 301 L363 233 C363 223 353 214 342 214 L239 214 C228 214 218 223 218 233 L218 301 C218 313 228 322 239 322 L342 322 Z M443 102 C468 75 506 64 536 64 L665 64 C765 64 826 148 826 228 L826 306 C826 388 765 472 665 472 L536 472 C504 472 468 462 443 433 C418 462 382 472 350 472 L221 472 C121 472 60 388 60 306 L60 228 C60 148 121 64 221 64 L350 64 C380 64 418 75 443 102 L443 102 Z M647 322 C658 322 668 313 668 301 L668 233 C668 223 658 214 647 214 L544 214 C533 214 523 223 523 233 L523 301 C523 313 533 322 544 322 L647 322 Z " />
<glyph glyph-name="integral" unicode="&#x222b;" horiz-adv-x="448" d="M316 698 C316 698 145 652 145 494 L145 21 C145 21 144 -23 73 -45 C64 -47 60 -56 60 -63 C60 -65 61 -69 62 -71 L105 -177 C108 -186 115 -190 122 -190 C124 -190 130 -189 132 -188 C132 -188 303 -142 303 16 L303 489 C303 489 304 533 375 555 C384 557 388 566 388 573 C388 575 387 579 386 581 L343 687 C340 696 333 700 326 700 C324 700 318 699 316 698 L316 698 Z " />
<glyph glyph-name="approxequal" unicode="&#x2248;" horiz-adv-x="458" d="M296 52 C324 52 360 68 385 84 C394 91 398 101 398 111 L371 197 C369 205 360 212 349 212 C329 212 313 201 296 201 C247 201 210 239 162 239 C134 239 98 223 73 207 C64 200 60 190 60 180 L87 94 C89 86 98 79 109 79 C129 79 145 90 162 90 C210 90 248 52 296 52 L296 52 Z M296 233 C324 233 360 249 385 265 C394 272 398 282 398 292 L371 378 C369 386 360 393 349 393 C329 393 313 382 296 382 C247 382 210 420 162 420 C134 420 98 404 73 388 C64 381 60 371 60 361 L87 275 C89 267 98 260 109 260 C129 260 145 271 162 271 C210 271 248 233 296 233 L296 233 Z " />
<glyph glyph-name="notequal" unicode="&#x2260;" horiz-adv-x="425" d="M344 263 C356 263 365 272 365 284 L365 377 C365 389 356 398 344 398 L324 398 L347 470 C347 482 338 491 326 491 L271 491 C259 491 251 481 247 470 L224 398 L81 398 C69 398 60 389 60 377 L60 284 C60 272 69 263 81 263 L180 263 L166 217 L81 217 C69 217 60 208 60 196 L60 103 C60 91 69 82 81 82 L122 82 L103 21 C103 9 112 0 124 0 L179 0 C191 0 199 10 203 21 L222 82 L344 82 C356 82 365 91 365 103 L365 196 C365 208 356 217 344 217 L266 217 L280 263 L344 263 Z " />
<glyph glyph-name="lessequal" unicode="&#x2264;" horiz-adv-x="420" d="M60 232 C60 222 67 216 79 212 L342 119 C352 119 360 126 360 137 L360 224 C360 235 352 243 342 246 L201 293 L201 306 L342 352 C352 355 360 363 360 374 L360 461 C360 472 352 479 342 479 L79 386 C67 382 60 376 60 366 L60 232 Z M339 0 C351 0 360 9 360 21 L360 84 C360 96 351 105 339 105 L82 105 C70 105 61 96 61 84 L61 21 C61 9 70 0 82 0 L339 0 Z " />
<glyph glyph-name="greaterequal" unicode="&#x2265;" horiz-adv-x="420" d="M360 366 C360 376 353 382 341 386 L78 479 C68 479 60 472 60 461 L60 374 C60 363 68 355 78 352 L219 306 L219 293 L78 246 C68 243 60 235 60 224 L60 137 C60 126 68 119 78 119 L341 212 C353 216 360 222 360 232 L360 366 Z M338 0 C350 0 359 9 359 21 L359 84 C359 96 350 105 338 105 L81 105 C69 105 60 96 60 84 L60 21 C60 9 69 0 81 0 L338 0 Z " />
<glyph glyph-name="lozenge" unicode="&#x25ca;" horiz-adv-x="606" d="M303 193 L223 348 L303 507 L383 348 L303 193 Z M235 700 C222 700 217 692 212 682 L60 350 C106 247 166 121 212 18 C217 8 222 0 235 0 L367 0 C384 0 389 8 394 18 C440 121 500 247 546 350 L394 682 C389 692 384 700 371 700 L235 700 Z " />
<glyph glyph-name="uni25CC" unicode="&#x25cc;" horiz-adv-x="199" d="" />
<glyph glyph-name="fi" unicode="&#xfb01;" horiz-adv-x="678" d="M106 21 C106 9 115 0 127 0 L243 0 C255 0 264 9 264 21 L264 368 L353 368 C365 368 374 377 374 389 L374 494 C374 506 365 515 353 515 L264 515 L264 550 C264 566 279 580 294 580 L354 580 C366 580 375 589 375 601 L375 706 C375 718 366 727 354 727 L267 727 C168 727 111 645 106 565 L106 515 L36 515 C24 515 15 506 15 494 L15 389 C15 377 24 368 36 368 L106 368 L106 21 Z M460 21 C460 9 469 0 481 0 L597 0 C609 0 618 9 618 21 L618 494 C618 506 609 515 597 515 L481 515 C469 515 460 506 460 494 L460 21 Z M457 579 C457 567 466 558 478 558 L600 558 C612 558 621 567 621 579 L621 676 C621 688 612 697 600 697 L478 697 C466 697 457 688 457 676 L457 579 Z " />
<glyph glyph-name="fl" unicode="&#xfb02;" horiz-adv-x="678" d="M106 21 C106 9 115 0 127 0 L243 0 C255 0 264 9 264 21 L264 368 L353 368 C365 368 374 377 374 389 L374 494 C374 506 365 515 353 515 L264 515 L264 550 C264 566 279 580 294 580 L354 580 C366 580 375 589 375 601 L375 706 C375 718 366 727 354 727 L267 727 C168 727 111 645 106 565 L106 515 L36 515 C24 515 15 506 15 494 L15 389 C15 377 24 368 36 368 L106 368 L106 21 Z M460 21 C460 9 469 0 481 0 L597 0 C609 0 618 9 618 21 L618 679 C618 691 609 700 597 700 L481 700 C469 700 460 691 460 679 L460 21 Z " />
</font>
</svg>
