<?xml version="1.0" encoding="UTF-8" standalone="no"?>
<!-- Created with Inkscape (http://www.inkscape.org/) -->

<svg
   width="2000"
   height="1000"
   viewBox="0 0 529.16665 264.58334"
   version="1.1"
   id="svg24"
   sodipodi:docname="header.svg"
   inkscape:version="1.1.2 (0a00cf5339, 2022-02-04)"
   xmlns:inkscape="http://www.inkscape.org/namespaces/inkscape"
   xmlns:sodipodi="http://sodipodi.sourceforge.net/DTD/sodipodi-0.dtd"
   xmlns="http://www.w3.org/2000/svg"
   xmlns:svg="http://www.w3.org/2000/svg">
  <sodipodi:namedview
     id="namedview112"
     pagecolor="#ffffff"
     bordercolor="#666666"
     borderopacity="1.0"
     inkscape:pageshadow="2"
     inkscape:pageopacity="0.0"
     inkscape:pagecheckerboard="0"
     showgrid="false"
     inkscape:zoom="0.3345"
     inkscape:cx="626.30792"
     inkscape:cy="527.65321"
     inkscape:window-width="1862"
     inkscape:window-height="1016"
     inkscape:window-x="58"
     inkscape:window-y="27"
     inkscape:window-maximized="1"
     inkscape:current-layer="svg24"
     fit-margin-top="0"
     fit-margin-left="0"
     fit-margin-right="0"
     fit-margin-bottom="0"
     inkscape:showpageshadow="false" />
  <defs
     id="defs21">
    <linearGradient
       id="SvgjsLinearGradient13002"
       x1="78.4207"
       y1="78.884697"
       x2="78.4207"
       y2="99.860703"
       gradientUnits="userSpaceOnUse"
       class="svga-on-canvas-glasses-gradient-single-0-null">
      <stop
         id="SvgjsStop13003"
         stop-opacity="1"
         stop-color="#ffffff"
         offset="0.0708" />
      <stop
         id="SvgjsStop13004"
         stop-opacity="0"
         stop-color="#ffffff"
         offset="1" />
    </linearGradient>
    <linearGradient
       id="SvgjsLinearGradient13006"
       x1="35.270699"
       y1="78.884697"
       x2="35.270699"
       y2="99.860703"
       gradientTransform="matrix(-1,0,0,1,156.7,0)"
       gradientUnits="userSpaceOnUse"
       class="svga-on-canvas-glasses-gradient-single-1-null">
      <stop
         id="SvgjsStop13007"
         stop-opacity="1"
         stop-color="#ffffff"
         offset="0.0708" />
      <stop
         id="SvgjsStop13008"
         stop-opacity="0"
         stop-color="#ffffff"
         offset="1" />
    </linearGradient>
    <linearGradient
       id="SvgjsLinearGradient13002-3"
       x1="78.4207"
       y1="78.884697"
       x2="78.4207"
       y2="99.860703"
       gradientUnits="userSpaceOnUse"
       class="svga-on-canvas-glasses-gradient-single-0-null">
      <stop
         id="SvgjsStop13003-6"
         stop-opacity="1"
         stop-color="#ffffff"
         offset="0.0708" />
      <stop
         id="SvgjsStop13004-7"
         stop-opacity="0"
         stop-color="#ffffff"
         offset="1" />
    </linearGradient>
  </defs>
  <g
     id="layer1"
     transform="scale(0.99842767)">
    <rect
       style="fill:#fdf6e3;fill-opacity:1;fill-rule:evenodd;stroke-width:0.265"
       id="rect50"
       width="530"
       height="265"
       x="0"
       y="0" />
    <g
       id="svga-group-hair-back-move"
       transform="matrix(0.9380967,0,0,0.93809629,170.59554,38.829777)">
      <g
         id="svga-group-hair-back" />
    </g>
    <g
       id="svga-group-chinshadow-single"
       transform="matrix(0.9380967,0,0,0.93809629,170.59554,38.829777)" />
    <g
       id="svga-group-humanbody-front"
       transform="matrix(0.9380967,0,0,0.93809629,170.59554,38.829777)" />
    <g
       id="svga-group-facehighlight-single"
       transform="matrix(0.9380967,0,0,0.93809629,170.59554,38.829777)" />
    <g
       id="svga-group-mustache-single-move"
       transform="matrix(0.9380967,0,0,0.93809629,170.59554,38.829777)">
      <g
         id="svga-group-mustache-single"
         transform="scale(0.7999992)" />
    </g>
    <g
       id="svga-group-hair-front"
       transform="matrix(0.9380967,0,0,0.93809629,170.59554,38.829777)" />
    <rect
       id="svga-credit-rect"
       width="158.75"
       height="11.90625"
       x="179.91434"
       y="189.09454"
       fill="#ecf0f1"
       opacity="0.5"
       style="display:none;stroke-width:0.79375" />
    <text
       id="svga-credit-text"
       font-family="'Avenir Next', Roboto, Helvetica, Arial, sans-serif"
       font-size="7.9375px"
       text-anchor="start"
       font-weight="400"
       size="10px"
       anchor="start"
       weight="400"
       fill="#333333"
       x="206.3454"
       y="187.19609"
       style="display:none;stroke-width:0.79375"><tspan
         id="SvgjsTspan12836"
         dy="10.31875"
         x="206.3454"
         style="stroke-width:0.79375">Created on AvatarMaker.com</tspan></text>
  </g>
  <g
     id="layer2"
     style="fill:#cb4b16;fill-opacity:1"
     transform="matrix(0.98570572,0,0,0.98570572,3.3721094,2.1441418)">
    <g
       aria-label="KOLLITSCH.DEV*"
       id="text4150"
       style="font-weight:bold;font-size:106.784px;line-height:1.25;font-family:'Bahn Pro';-inkscape-font-specification:'Bahn Pro Bold';fill:#cb4b16;fill-opacity:1;stroke-width:0.266961">
      <path
         d="m 36.055295,150 -6.40704,12.28016 -7.261311,13.9887 -1.708544,3.31031 V 170.07539 150 H 15.232416 10 v 50.08169 10.57162 19.43469 H 20.6784 V 202.75129 L 26.444735,191.53897 37.016351,230.088 H 48.015103 L 33.706047,177.55027 48.015103,150 Z"
         style="font-weight:normal;-inkscape-font-specification:'Bahn Pro';fill:#cb4b16;fill-opacity:1"
         id="path11027" />
      <path
         d="m 66.168241,150 h -10.6784 v 10.6784 58.7312 10.6784 h 10.6784 10.6784 10.678399 V 219.4096 160.6784 150 H 76.846641 Z m 0,69.4096 v -58.7312 h 10.6784 v 58.7312 z"
         style="font-weight:normal;-inkscape-font-specification:'Bahn Pro';fill:#cb4b16;fill-opacity:1"
         id="path11029" />
      <path
         d="M 105.6782,150 H 94.999802 v 69.4096 10.6784 H 121.6958 v -10.6784 h -16.0176 z"
         style="font-weight:normal;-inkscape-font-specification:'Bahn Pro';fill:#cb4b16;fill-opacity:1"
         id="path11031" />
      <path
         d="m 139.84905,150 h -10.6784 v 69.4096 10.6784 h 26.696 v -10.6784 h -16.0176 z"
         style="font-weight:normal;-inkscape-font-specification:'Bahn Pro';fill:#cb4b16;fill-opacity:1"
         id="path11033" />
      <path
         d="M 195.37669,160.6784 V 150 h -7.58166 -3.09674 -10.6784 -4.48493 -6.19347 v 10.6784 h 6.19347 4.48493 v 58.7312 h -4.05779 -6.62061 v 10.6784 h 6.62061 4.05779 10.6784 6.51382 4.16458 v -10.6784 h -4.16458 -6.51382 v -58.7312 h 3.09674 z"
         style="font-weight:normal;-inkscape-font-specification:'Bahn Pro';fill:#cb4b16;fill-opacity:1"
         id="path11035" />
      <path
         d="m 221.53866,150 h -10.6784 -8.0088 v 10.6784 h 8.0088 v 69.4096 h 10.6784 v -69.4096 h 8.00879 V 150 Z"
         style="font-weight:normal;-inkscape-font-specification:'Bahn Pro';fill:#cb4b16;fill-opacity:1"
         id="path11037" />
      <path
         d="M 269.05751,179.47238 V 150 h -10.6784 -10.6784 -10.6784 v 10.6784 16.33795 1.38819 3.73744 c 0,1.81533 0.74749,3.31031 2.13568,4.27136 l 19.22112,14.20227 v 18.79399 h -10.6784 v -18.79399 l -10.6784,-7.90201 v 7.90201 18.79399 10.6784 h 10.6784 21.3568 v -2.45603 -8.22237 -21.25002 c 0,-1.81533 -0.74749,-3.20352 -2.13568,-4.27136 l -19.22112,-14.41584 v -1.06784 -1.38819 -16.33795 h 10.6784 v 18.79398 z"
         style="font-weight:normal;-inkscape-font-specification:'Bahn Pro';fill:#cb4b16;fill-opacity:1"
         id="path11039" />
      <path
         d="m 276.53226,150 v 10.6784 58.7312 10.6784 h 10.6784 10.6784 10.6784 v -10.6784 -18.79399 h -10.6784 v 18.79399 h -10.6784 v -58.7312 h 10.6784 v 18.79398 h 10.6784 V 160.6784 150 h -10.6784 z"
         style="font-weight:normal;-inkscape-font-specification:'Bahn Pro';fill:#cb4b16;fill-opacity:1"
         id="path11041" />
      <path
         d="m 337.39904,184.7048 h -10.6784 V 150 h -10.6784 v 34.7048 10.6784 34.7048 h 10.6784 v -34.7048 h 10.6784 v 34.7048 h 10.6784 V 195.3832 184.7048 150 h -10.6784 z"
         style="font-weight:normal;-inkscape-font-specification:'Bahn Pro';fill:#cb4b16;fill-opacity:1"
         id="path11043" />
      <path
         d="m 366.23058,219.4096 h -10.67839 v 10.6784 h 10.67839 z"
         style="font-weight:normal;-inkscape-font-specification:'Bahn Pro';fill:#cb4b16;fill-opacity:1"
         id="path11045" />
      <path
         d="m 373.70529,230.088 h 16.0176 c 8.86307,0 16.0176,-7.15453 16.0176,-16.0176 v -48.0528 c 0,-8.86307 -7.15453,-16.0176 -16.0176,-16.0176 h -16.0176 z m 16.0176,-69.4096 c 2.98995,0 5.3392,2.34925 5.3392,5.3392 v 48.0528 c 0,2.98995 -2.34925,5.3392 -5.3392,5.3392 h -5.3392 v -58.7312 z"
         style="font-weight:normal;-inkscape-font-specification:'Bahn Pro';fill:#cb4b16;fill-opacity:1"
         id="path11047" />
      <path
         d="m 439.91124,150 h -16.0176 -10.6784 v 10.6784 18.79398 10.6784 29.25882 10.6784 h 10.6784 16.0176 v -10.6784 h -16.0176 v -29.25882 h 16.0176 v -10.6784 h -16.0176 V 160.6784 h 16.0176 z"
         style="font-weight:normal;-inkscape-font-specification:'Bahn Pro';fill:#cb4b16;fill-opacity:1"
         id="path11049" />
      <path
         d="m 463.40368,150 v 10.6784 h 4.27136 l -5.65955,58.7312 h -3.95101 V 150 h -10.6784 v 69.4096 10.6784 h 10.6784 2.88317 9.2902 1.49498 L 479.42128,150 h -10.78519 z"
         style="font-weight:normal;-inkscape-font-specification:'Bahn Pro';fill:#cb4b16;fill-opacity:1"
         id="path11051" />
      <path
         d="m 514.6599,153.3103 -5.87312,3.41709 V 150 h -10.6784 v 6.72739 l -5.87312,-3.41709 -5.3392,9.29021 5.87312,3.41709 -5.87312,3.3103 5.3392,9.29021 5.87312,-3.41709 v 6.83418 h 10.6784 v -6.83418 l 5.87312,3.41709 5.3392,-9.29021 -5.87312,-3.3103 5.87312,-3.41709 z"
         style="font-weight:normal;-inkscape-font-specification:'Bahn Pro';fill:#cb4b16;fill-opacity:1"
         id="path11053" />
    </g>
  </g>
  <g
     id="layer3"
     transform="matrix(1.0353261,0,0,1.0353261,-14.954709,0.46014492)">
    <g
       id="g1352"
       transform="matrix(1.5805299,0,0,1.3743738,-148.18255,-63.922919)">
      <g
         id="svga-group-humanbody-back"
         transform="matrix(0.9380967,0,0,0.93809629,170.59554,38.829777)"
         style="stroke-width:0.999897;stroke-miterlimit:4;stroke-dasharray:none">
        <path
           id="SvgjsPath12987"
           d="m 77.6,118.3 c 0,19.3 3.4,44.1 -10,51.9 -13.4,7.9 -31.9,11.3 -37.8,22 -5.9,10.7 -4.4,25.3 -4.4,25.3 h 149.3 c 0,0 0.7,-18.9 -5.1,-26.4 -8.1,-10.4 -27.8,-15.5 -37.7,-20.9 -9.9,-5.4 -13.4,-25.1 -13.4,-52.4 z"
           fill="#ffffff"
           stroke-width="none"
           opacity="1"
           style="stroke-width:0.999897;stroke-miterlimit:4;stroke-dasharray:none" />
        <path
           id="SvgjsPath12988"
           d="M 175.8,218.7 H 24.4 l -0.1,-1 c -0.1,-0.6 -1.5,-15.1 4.5,-26 4.1,-7.4 13.5,-11.3 23.5,-15.5 5,-2.1 10.2,-4.3 14.8,-6.9 10.6,-6.2 10.1,-23.9 9.6,-41 -0.1,-3.5 -0.2,-6.8 -0.2,-10 v -1.1 l 43.2,-0.4 v 1.1 c 0,29.9 4.2,46.7 12.8,51.4 2.9,1.6 6.7,3.2 10.8,4.9 10,4.1 21.3,8.8 27.2,16.3 6.1,7.7 5.4,26.4 5.4,27.1 z M 26.5,216.5 h 147.1 c 0,-4.1 -0.2,-18.5 -4.9,-24.6 -5.5,-7 -16.6,-11.6 -26.3,-15.6 -4.1,-1.7 -8,-3.3 -11,-5 -5.1,-2.8 -8.7,-8.9 -10.9,-18.7 -2,-8.4 -2.9,-19.4 -3,-33.5 l -38.6,0.4 c 0,2.8 0.1,5.7 0.2,8.8 0.5,17.8 1,36.1 -10.7,43 -4.7,2.7 -9.9,4.9 -15,7.1 -9.6,4 -18.7,7.8 -22.4,14.5 -5,8.6 -4.7,20.1 -4.5,23.6 z"
           fill="#000000"
           stroke-width="none"
           opacity="1"
           style="stroke-width:0.999897;stroke-miterlimit:4;stroke-dasharray:none" />
        <path
           id="SvgjsPath12989"
           d="m 93.9,153.8 c -0.5,1.8 -0.4,3.4 0.5,5.2 0.8,1.6 2.1,2.7 3.9,2.9 0.4,0 0.7,-0.5 0.5,-0.8 -1.6,-2.2 -3.5,-4.2 -3.7,-7.1 0,-0.7 -1,-0.9 -1.2,-0.2 z m 18.6,33.7 c 8.8,0.5 18.1,-0.7 26.6,-2.9 0.7,-0.2 0.6,-1.4 -0.2,-1.3 -8.8,1.1 -17.7,2 -26.5,3.3 -0.5,0.1 -0.3,0.9 0.1,0.9 z m -49.4,-5 c 3.8,0.9 7.6,1.9 11.5,2.8 3.6,0.8 7.4,2 11.1,2.1 0.7,0 0.8,-0.9 0.2,-1.2 -3.5,-1.4 -7.5,-1.7 -11.2,-2.5 -3.8,-0.7 -7.5,-1.3 -11.3,-2 -0.5,0 -0.7,0.7 -0.3,0.8 z"
           fill="#000000"
           stroke-width="none"
           opacity="1"
           style="stroke-width:0.999897;stroke-miterlimit:4;stroke-dasharray:none" />
      </g>
      <path
         id="SvgjsPath12877"
         d="m 230.0052,199.17858 c 0,0 -11.46354,4.96253 -15.66621,6.49162 -4.20267,1.5291 -11.84816,5.54415 -16.05084,10.50668 -4.20267,4.96253 -4.77491,11.84816 -5.34715,16.81069 -0.57224,4.96253 0.5441,11.00387 0.5441,11.00387 h 142.92841 c 0,0 0.18762,-13.29283 -2.48595,-20.93831 -2.67358,-7.64549 -5.34715,-9.17459 -13.9495,-14.52173 -8.59297,-5.34715 -17.38293,-7.44849 -24.45618,-10.8913 0,0 -2.8612,12.03577 -28.65886,13.37725 -25.77889,1.34148 -31.89528,-6.49163 -36.85782,-11.83877 z"
         fill="#ffffff"
         stroke-width="0.938097"
         opacity="1"
         style="fill:#eee8d5;fill-opacity:1;stroke-width:0.938;stroke-miterlimit:4;stroke-dasharray:none" />
      <path
         id="SvgjsPath12878"
         d="m 334.81875,222.74355 c -2.72048,-7.78619 -5.50663,-9.52167 -13.78064,-14.66244 l -0.56286,-0.3471 c -5.45034,-3.3959 -11.07892,-5.53476 -16.04145,-7.42034 -3.03006,-1.15386 -5.89125,-2.24205 -8.49916,-3.51786 a 0.95685863,0.95685822 0 0 0 -0.81614,0 c -0.25329,0.12195 -0.44091,0.35648 -0.50658,0.62853 -0.0281,0.11257 -2.99252,11.36972 -27.7958,12.65491 -10.33783,0.5441 -17.4486,-0.42214 -22.57999,-2.10133 -0.0375,-0.13133 -0.197,-0.197 -0.29081,-0.0938 -0.43152,-0.1501 -0.85367,-0.29081 -1.25705,-0.45029 0.009,-0.0188 0.009,-0.0375 0.0188,-0.0563 0.0751,-0.23453 -0.28143,-0.32834 -0.36585,-0.10319 0,0.009 0,0.009 -0.009,0.0188 -5.67548,-2.26081 -8.61172,-5.45034 -11.06954,-8.12392 l -0.591,-0.6379 c -0.27205,-0.29081 -0.69419,-0.37524 -1.06005,-0.22514 -0.11257,0.0469 -11.4823,4.97191 -15.60993,6.47286 -3.65857,1.3321 -11.80125,5.29086 -16.44483,10.77873 -4.16515,4.925 -4.92501,11.61363 -5.4691,16.50111 l -0.0938,0.80676 c -0.58162,5.04696 0.50657,11.03202 0.55347,11.27592 0.0844,0.44091 0.46905,0.76924 0.91934,0.76924 h 142.92841 a 0.9380967,0.93809629 0 0 0 0.9381,-0.92872 c 0.0281,-0.52533 0.17824,-13.52734 -2.5141,-21.2385 z m -4.07134,-4.38091 c -0.47843,-0.46904 -0.95686,-0.93809 -1.42591,-1.41652 0.0938,-0.0751 0.17824,-0.1501 0.24391,-0.20638 0.43152,0.51595 0.81614,1.05067 1.182,1.6229 z m -1.773,-1.09757 c 0.91933,0.94748 1.8199,1.95124 2.758,2.88934 0.45029,0.9381 0.88181,1.98876 1.31334,3.20829 l 0.0281,0.10319 c -1.63229,-1.75424 -3.52725,-3.33024 -5.32839,-4.92501 0.47843,-0.55347 0.89119,-0.97562 1.22891,-1.27581 z m -62.0551,-5.30962 c 21.96084,-1.1351 27.75828,-9.91568 29.13728,-13.02078 0.65667,0.30957 1.3321,0.60038 2.01691,0.89119 -0.96624,1.379 -3.61167,4.88748 -7.71115,8.25525 -3.55539,2.91748 -11.94198,5.96629 -22.48618,6.58544 0.0938,-0.61915 0.15009,-1.25705 0.23452,-1.8762 0.0281,-0.17824 -0.26267,-0.17824 -0.28143,0 -0.075,0.61915 -0.18762,1.25705 -0.25328,1.88558 -0.63791,0.0375 -1.2852,0.0563 -1.94186,0.075 0.10319,-0.90057 0.0657,-1.84805 0.075,-2.73924 z m -3.94001,2.80491 c -0.57224,-0.009 -1.14447,-0.0281 -1.71671,-0.0469 0.0657,-0.86305 0.0281,-1.75424 0.0375,-2.61729 0.58162,0 1.17262,0 1.78238,-0.0188 -0.0469,0.87243 -0.13133,1.80114 -0.10319,2.68296 z m 0.46905,-2.68296 c 0.62853,-0.009 1.26643,-0.0281 1.91372,-0.0563 -0.0751,0.8912 -0.18762,1.82929 -0.16886,2.73925 -0.56286,0.009 -1.12571,0.0188 -1.70733,0.009 0.0563,-0.8912 -0.009,-1.81991 -0.0375,-2.69234 z m -2.561,0.0281 c -0.0282,0.85367 -0.0844,1.73548 -0.0563,2.58915 a 61.811192,61.811165 0 0 1 -3.18015,-0.22514 c 0.0375,-0.81615 0.0188,-1.63229 0.009,-2.43905 1.03191,0.0375 2.11072,0.0657 3.22706,0.075 z m -17.21408,-2.3171 c 0.36586,0.12196 0.75048,0.23453 1.1351,0.3471 -0.16886,0.5441 -0.33771,1.10695 -0.45029,1.66043 -0.32833,-0.10319 -0.65666,-0.21576 -0.97562,-0.31895 0.10319,-0.42215 0.10319,-0.88181 0.18762,-1.31334 0.0375,-0.14071 0.0751,-0.25328 0.10319,-0.37524 z m 1.60415,0.47843 c 0.25328,0.0657 0.51595,0.14072 0.77862,0.20639 -0.0938,0.56285 -0.23453,1.16323 -0.29081,1.74485 -0.30019,-0.0844 -0.591,-0.16885 -0.88181,-0.26266 0.16886,-0.5441 0.29081,-1.11634 0.394,-1.68858 z m 1.182,0.30958 c 0.95686,0.23452 1.97938,0.45028 3.0582,0.62852 -0.14072,0.61914 -0.28143,1.26643 -0.33772,1.89495 a 62.37405,62.374022 0 0 1 -2.9081,-0.74109 c 0.11257,-0.58162 0.13133,-1.21015 0.18762,-1.78238 z m 3.55539,0.71295 c 0.54409,0.0844 1.09757,0.16886 1.66981,0.2439 -0.21576,0.66605 -0.36586,1.36962 -0.35648,2.02629 -0.40338,-0.075 -0.81614,-0.15947 -1.21952,-0.2439 l -0.36586,-0.0844 c 0.14071,-0.62853 0.21576,-1.30396 0.27205,-1.94186 z m 2.00752,1.00376 c 0.0469,-0.23452 0.11258,-0.46905 0.17824,-0.70357 0.42215,0.0563 0.86305,0.10319 1.30396,0.14071 -0.10319,0.72234 -0.20638,1.45405 -0.197,2.17639 -0.47843,-0.0751 -0.96624,-0.15948 -1.45405,-0.25329 0.0657,-0.45028 0.075,-0.91933 0.16885,-1.36024 z m 1.89496,-0.51595 c 0.45029,0.0469 0.90995,0.0844 1.379,0.11257 -0.197,0.71295 -0.35648,1.5291 -0.31895,2.27019 -0.43153,-0.0563 -0.86305,-0.12195 -1.29458,-0.18762 0.1501,-0.70357 0.19701,-1.45404 0.23453,-2.19514 z m 1.56662,1.60414 c 0.0469,-0.49719 0.14071,-0.97562 0.26267,-1.45405 l 1.46343,0.0844 c -0.0281,0.79738 -0.0657,1.60415 -0.0563,2.41091 -0.56286,-0.0563 -1.12571,-0.12195 -1.69795,-0.197 0.009,-0.28143 0,-0.56286 0.0281,-0.84429 z m -12.24216,-3.743 c -0.0281,0.0844 -0.0657,0.16886 -0.0844,0.26267 -0.10319,0.42214 -0.24391,0.93809 -0.22514,1.40714 -0.45029,-0.15948 -0.8912,-0.31895 -1.32272,-0.47843 0.197,-0.51595 0.37524,-1.04129 0.53472,-1.576 0.35647,0.13133 0.72233,0.26267 1.09757,0.38462 z m -2.06381,1.01314 c -0.37524,-0.15009 -0.75048,-0.30019 -1.10696,-0.45028 0.20638,-0.52534 0.37524,-1.04129 0.57224,-1.56662 0.33772,0.15009 0.69419,0.30019 1.06005,0.4409 -0.197,0.52534 -0.37524,1.05067 -0.52533,1.576 z m -6.22897,-5.37529 c -0.48781,0.43153 -0.89119,0.95686 -1.21952,1.51972 -0.46905,-0.31896 -0.90057,-0.62853 -1.31334,-0.9381 0.51596,-0.45028 1.05067,-0.90995 1.53848,-1.38838 0.31895,0.26267 0.64729,0.53471 0.99438,0.80676 z m 0.30958,0.23453 c 0.37523,0.28142 0.76923,0.56285 1.182,0.8349 -0.33772,0.30957 -0.63791,0.67543 -0.9381,1.02253 l -0.30957,0.36585 c -0.42214,-0.25328 -0.82553,-0.50657 -1.21015,-0.76923 0.37524,-0.53472 0.80677,-1.00377 1.27582,-1.45405 z m 0.60976,2.08257 c 0.30019,-0.33772 0.61914,-0.67543 0.87243,-1.05067 0.28143,0.17824 0.57224,0.36586 0.87243,0.5441 -0.43153,0.394 -0.80676,0.88181 -1.10696,1.39776 a 28.51814,28.518127 0 0 1 -0.94747,-0.53471 c 0.0938,-0.12196 0.20638,-0.23453 0.30957,-0.35648 z m 2.14824,-0.27205 c 0.67543,0.38462 1.39776,0.75048 2.167,1.10696 -0.25328,0.50657 -0.45966,1.04128 -0.55347,1.58538 -0.99439,-0.44091 -1.9231,-0.89119 -2.77677,-1.34148 0.35648,-0.48781 0.75048,-0.90995 1.16324,-1.35086 z m -4.41844,-3.16138 c -0.51595,0.45966 -1.01314,0.96624 -1.50095,1.45405 -0.62853,-0.48781 -1.182,-0.96624 -1.66981,-1.41653 0.25328,-0.32833 0.52533,-0.62852 0.8349,-0.90057 0.25329,-0.21576 0.52534,-0.394 0.79739,-0.57224 0.47843,0.46905 0.985,0.94748 1.53847,1.43529 z m -1.85743,-1.76362 c -0.61914,0.37523 -1.16324,0.96624 -1.576,1.54786 -0.62852,-0.60039 -1.1351,-1.15386 -1.5291,-1.63229 0.30957,-0.21576 0.60977,-0.44091 0.90996,-0.66605 0.29081,-0.21576 0.591,-0.42214 0.88181,-0.63791 0.41276,0.45967 0.85367,0.91934 1.31333,1.38839 z m -1.97938,-2.10134 0.13133,0.1501 c 0.0657,0.075 0.13134,0.14071 0.197,0.21576 -0.33771,0.2439 -0.66605,0.50657 -0.99438,0.75048 l -0.75986,0.56285 c -0.2439,-0.30957 -0.45028,-0.591 -0.60038,-0.81614 0.86305,-0.35648 1.56662,-0.65667 2.02629,-0.86305 z m -32.7771,20.06588 c 3.09572,2.17638 6.45411,4.26834 10.00011,5.62858 0.394,0.80676 0.788,1.67919 1.16324,2.60791 -3.56477,-2.28896 -7.57982,-4.33401 -11.39787,-6.06011 -0.197,-0.0844 -0.35648,0.16886 -0.16886,0.29081 3.6961,2.35463 7.79558,4.69048 11.83878,6.45411 0.32833,0.85366 0.64729,1.74485 0.94748,2.69233 -4.49349,-2.77676 -9.38097,-5.17829 -14.12774,-7.51415 0.5441,-2.08257 1.3321,-4.12762 2.5141,-5.98505 2.21391,1.46343 4.46534,3.05819 6.85749,4.14638 0.15947,0.0751 0.37524,-0.14071 0.20638,-0.27205 -2.0732,-1.64166 -4.50287,-2.92686 -6.81997,-4.24019 0.22515,-0.32833 0.45967,-0.64729 0.70358,-0.95686 1.30395,0.788 2.63605,1.63229 4.02443,2.21391 1.20077,1.43529 2.57977,3.39591 3.8931,5.94753 -3.18014,-1.7261 -6.38844,-3.33962 -9.45601,-5.29086 -0.197,-0.15948 -0.38462,0.18761 -0.17824,0.33771 z m 2.03567,-3.59291 c 0.15948,-0.18762 0.33771,-0.37524 0.50657,-0.56286 0.40338,0.30019 1.19139,0.94748 2.17639,1.98877 -0.87243,-0.51596 -1.78239,-0.97562 -2.68296,-1.42591 z m -4.73739,26.28546 c -0.0844,-0.56286 -0.20638,-1.40715 -0.30957,-2.41091 0.25329,0.16886 0.49719,0.3471 0.77862,0.45029 0.17824,0.0657 0.30957,-0.18762 0.18762,-0.31895 -0.27205,-0.27205 -0.63791,-0.44091 -0.96624,-0.64729 a 0.19700031,0.19700022 0 0 1 -0.0563,-0.0375 c -0.0563,-0.60039 -0.10319,-1.24767 -0.14071,-1.9231 2.20453,1.85743 4.66234,3.68672 7.32653,4.69048 0.15948,0.0563 0.23453,-0.17824 0.11258,-0.26267 -2.49534,-1.71671 -5.08449,-3.16138 -7.46725,-5.03757 -0.0469,-1.07882 -0.0469,-2.20453 0.0281,-3.29272 4.74677,2.83305 9.4654,5.8631 14.3904,8.35844 0.197,0.10319 0.36586,-0.17824 0.17824,-0.3002 -4.64358,-3.08633 -9.67178,-5.72238 -14.51235,-8.48977 -0.009,-0.009 -0.0188,0 -0.0282,0 0.0188,-0.25328 0.0469,-0.49719 0.0751,-0.74109 l 0.0938,-0.80677 c 0.26267,-2.31709 0.55348,-4.89686 1.19138,-7.44848 4.56853,2.62667 9.27778,5.30962 14.08083,7.47663 0.0938,0.0469 0.18762,0 0.23453,-0.0657 0.49719,1.58538 0.93809,3.3021 1.32271,5.16891 -5.20643,-2.9081 -10.45977,-5.65672 -15.5724,-8.73368 -0.23452,-0.14071 -0.44091,0.21577 -0.21576,0.36586 5.00005,3.36777 10.35658,6.58544 15.9195,8.97758 0.21576,1.11634 0.40338,2.27958 0.57224,3.4991 -5.60982,-3.29272 -11.26654,-6.19143 -16.55741,-10.02825 -0.197,-0.14071 -0.37524,0.17824 -0.18762,0.32834 5.05634,3.8931 10.67554,7.74867 16.7075,9.93444 0.0281,0.009 0.0469,0 0.0657,0 0.0563,0.43152 0.11257,0.86305 0.15948,1.30395 h -17.41108 z m 19.28727,0 c -2.01691,-18.75255 -10.3003,-26.36989 -12.69245,-28.19918 4.21206,-3.92124 10.29092,-7.02634 13.79002,-8.30215 2.54225,-0.92871 7.62673,-3.05819 11.33221,-4.63419 1.40715,2.25143 7.17644,9.68115 23.71509,13.22715 a 68.931346,68.931315 0 0 0 14.44668,1.5291 c 12.79564,0 23.09595,-3.60229 27.41119,-7.14829 4.69048,-3.85558 7.50477,-7.79558 8.29278,-8.97758 1.27581,0.50657 2.57976,1.00376 3.92124,1.51971 5.12201,1.95124 10.42225,3.96815 15.71312,7.26087 l 0.56286,0.34709 c 3.78991,2.35463 6.32277,3.94001 8.21772,5.70363 -0.65666,0.51595 -1.8199,1.58538 -3.14262,3.39591 -0.0938,0.0281 -0.16886,0.11257 -0.15948,0.21576 -2.82367,3.94938 -6.33215,11.2853 -7.35467,24.06217 z m 111.74608,0 c -1.67919,-1.61353 -3.4991,-3.07696 -5.30025,-4.54977 0.13134,-0.91933 0.28143,-1.81052 0.44091,-2.66419 2.37338,2.67357 5.03758,5.24396 8.03949,7.21396 z m -3.33024,0 c -0.6942,-0.68481 -1.51972,-1.25705 -2.3171,-1.81991 0.0844,-0.77862 0.17823,-1.53848 0.28143,-2.27019 1.60414,1.40714 3.21767,2.81429 4.91562,4.0901 z m -2.36401,-1.379 c 0.57224,0.48781 1.16324,0.96624 1.78239,1.379 h -1.91372 c 0.0375,-0.46905 0.0844,-0.92872 0.13133,-1.379 z m 9.7093,1.379 c -3.13324,-2.40153 -6.11639,-4.81243 -8.7712,-7.75806 0.17824,-0.90995 0.37524,-1.78238 0.58162,-2.6079 3.29272,3.78052 7.05449,7.42034 11.30406,10.11267 0.197,0.12196 0.44091,-0.17823 0.25329,-0.32833 -4.01505,-3.24581 -7.90816,-6.42596 -11.4354,-10.21587 -0.009,-0.009 -0.009,0 -0.0188,-0.009 a 45.966738,45.966718 0 0 1 0.90057,-3.09572 c 3.75239,3.03005 7.42973,6.18206 11.33221,9.02449 0.1501,0.11257 0.3471,-0.14072 0.20638,-0.26267 -3.66796,-3.18014 -7.5892,-6.0601 -11.40725,-9.05263 -0.009,-0.009 -0.0188,0 -0.0282,-0.009 0.46905,-1.38838 0.95686,-2.63605 1.46343,-3.75238 3.26458,3.67733 6.85749,7.29839 10.94759,10.03763 0.16886,0.11257 0.36586,-0.14072 0.21576,-0.27205 -3.743,-3.33962 -7.52353,-6.51039 -10.97573,-10.15958 0.36586,-0.79739 0.7411,-1.51972 1.11634,-2.18577 2.89872,2.93624 5.73177,6.09763 8.94006,8.64925 0.16886,0.13133 0.37524,-0.0657 0.23452,-0.23452 -2.64543,-3.18015 -5.91001,-5.95692 -8.94006,-8.80873 0.36586,-0.61914 0.71296,-1.182 1.06005,-1.67919 2.39215,2.47657 4.76553,5.0751 7.43911,7.18582 0.15947,0.12195 0.34709,-0.0657 0.22514,-0.22515 -2.167,-2.66419 -4.84058,-5.00943 -7.38282,-7.36405 0.30019,-0.42215 0.591,-0.79738 0.87243,-1.1351 1.89496,1.82929 3.76177,3.76177 5.8631,5.32839 1.93248,6.29462 2.14825,15.84444 2.15763,18.83697 h -6.15392 z"
         fill="#000000"
         stroke-width="0.938097"
         opacity="1"
         style="stroke-width:0.938;stroke-miterlimit:4;stroke-dasharray:none" />
      <g
         id="svga-group-ears-left-move"
         transform="matrix(0.9380967,0,0,0.93809629,170.59554,38.829777)"
         style="stroke-width:0.999897;stroke-miterlimit:4;stroke-dasharray:none">
        <g
           id="svga-group-ears-left"
           style="stroke-width:0.999897;stroke-miterlimit:4;stroke-dasharray:none">
          <path
             id="SvgjsPath12887"
             d="m 57.9,81.4 c 0,0 -3,-4.7 -6.1,-5.6 -3.1,-0.9 -6.6,2.1 -6.1,7.8 0.6,5.7 8.7,18.9 15.9,19.7 6.2,0.7 -1.1,-18.5 -3.7,-21.9 z"
             fill="#ffffff"
             stroke-width="none"
             opacity="1"
             style="stroke-width:0.999897;stroke-miterlimit:4;stroke-dasharray:none" />
          <path
             id="SvgjsPath12888"
             d="M 61.5,104.2 C 53.8,103.4 45.4,89.7 44.8,83.8 c -0.3,-3.4 0.8,-6.4 3,-7.9 1.3,-0.9 2.9,-1.2 4.4,-0.8 3.3,0.9 6.2,5.3 6.6,5.9 2.1,2.7 8.5,18 5.5,22 -0.5,0.7 -1.4,1.1 -2.3,1.1 -0.3,0.1 -0.4,0.1 -0.5,0.1 z M 48.9,77.1 c -1.7,1.1 -2.5,3.6 -2.3,6.4 0.5,5.4 8.5,18.3 15,18.9 0.4,0 0.7,0 0.9,-0.3 C 64.6,99.2 59.3,84.9 57,81.8 v -0.1 c -0.8,-1.2 -3.3,-4.6 -5.5,-5.2 -0.2,-0.1 -0.5,-0.1 -0.7,-0.1 -0.7,0.2 -1.3,0.4 -1.9,0.7 z"
             fill="#000000"
             stroke-width="none"
             opacity="1"
             style="stroke-width:0.999897;stroke-miterlimit:4;stroke-dasharray:none" />
          <path
             id="SvgjsPath12889"
             d="m 50.5,79.3 c 2.6,1.4 5,5.6 6.2,9.6 V 89 c 0,0.3 -0.2,0.4 -0.3,0.1 -0.4,-1.2 -1,-1.2 -1.7,0 -0.2,0.7 -0.1,1.5 0.1,2.3 0.2,0.7 0.5,1.4 0.8,1.9 0.6,1.2 1.4,2 2.1,3 0.2,0.3 0,0.7 -0.2,0.5 -1.6,-1 -3.9,-4.6 -3.4,-7.6 0.2,-1.4 1.1,-2.2 1.8,-1.7 C 55,85.4 54,83.6 52.7,82.1 52,81.3 50.4,79.4 49.6,79.8 c -1.5,0.6 -0.7,4.6 -0.5,6.4 0,0.3 -0.2,0.4 -0.3,0.1 -1,-2.9 -1.1,-8.5 1.7,-7 z"
             fill="#000000"
             stroke-width="none"
             opacity="1"
             style="stroke-width:0.999897;stroke-miterlimit:4;stroke-dasharray:none" />
          <path
             id="SvgjsPath12890"
             d="m 56.9,97.8 c -2.8,-0.9 -4.8,-4.6 -6,-8.8 -0.7,-2.5 -2.1,-8.3 0.6,-8.2 0.2,0 0.3,0.5 0.1,0.6 -2.5,1.1 0.2,8.9 1,10.7 1.1,2.6 2.5,4.3 4.3,5.2 0.2,0.2 0.2,0.6 0,0.5 z"
             fill="#000000"
             stroke-width="none"
             opacity="1"
             style="stroke-width:0.999897;stroke-miterlimit:4;stroke-dasharray:none" />
        </g>
      </g>
      <g
         id="svga-group-ears-right-move"
         transform="matrix(0.9380967,0,0,0.93809629,170.59554,38.829777)"
         style="stroke-width:0.999897;stroke-miterlimit:4;stroke-dasharray:none">
        <g
           id="svga-group-ears-right"
           style="stroke-width:0.999897;stroke-miterlimit:4;stroke-dasharray:none">
          <path
             id="SvgjsPath12891"
             d="m 142.1,81.4 c 0,0 3,-4.7 6.1,-5.6 3.1,-0.9 6.6,2.1 6.1,7.8 -0.6,5.7 -8.7,18.9 -15.9,19.7 -6.2,0.7 1.1,-18.5 3.7,-21.9 z"
             fill="#ffffff"
             stroke-width="none"
             opacity="1"
             style="stroke-width:0.999897;stroke-miterlimit:4;stroke-dasharray:none" />
          <path
             id="SvgjsPath12892"
             d="m 138.1,104.2 c -1,0 -1.8,-0.4 -2.3,-1.1 -2.9,-4 3.4,-19.3 5.5,-22 0.4,-0.6 3.3,-5.1 6.6,-5.9 1.5,-0.4 3,-0.1 4.4,0.8 2.2,1.5 3.3,4.4 3,7.9 -0.6,5.9 -9,19.6 -16.7,20.4 -0.2,-0.1 -0.3,-0.1 -0.5,-0.1 z m 11.1,-27.6 c -0.2,0 -0.5,0 -0.7,0.1 -2.2,0.6 -4.7,3.9 -5.5,5.2 V 82 c -2.4,3 -7.7,17.4 -5.5,20.3 0.2,0.3 0.4,0.4 0.9,0.3 6.5,-0.7 14.5,-13.6 15,-18.9 0.3,-2.9 -0.6,-5.3 -2.3,-6.4 -0.6,-0.5 -1.2,-0.7 -1.9,-0.7 z"
             fill="#000000"
             stroke-width="none"
             opacity="1"
             style="stroke-width:0.999897;stroke-miterlimit:4;stroke-dasharray:none" />
          <path
             id="SvgjsPath12893"
             d="m 149.5,79.3 c -2.6,1.4 -5,5.6 -6.2,9.6 V 89 c 0,0.3 0.2,0.4 0.3,0.1 0.4,-1.2 1,-1.2 1.7,0 0.2,0.7 0.1,1.5 -0.1,2.3 -0.2,0.7 -0.5,1.4 -0.8,1.9 -0.6,1.2 -1.4,2 -2.1,3 -0.2,0.3 0,0.7 0.2,0.5 1.6,-1 3.9,-4.6 3.4,-7.6 -0.2,-1.4 -1.1,-2.2 -1.8,-1.7 0.9,-2.1 1.9,-3.9 3.2,-5.4 0.7,-0.8 2.3,-2.7 3.1,-2.3 1.5,0.6 0.7,4.6 0.5,6.4 0,0.3 0.2,0.4 0.3,0.1 1,-2.9 1.1,-8.5 -1.7,-7 z"
             fill="#000000"
             stroke-width="none"
             opacity="1"
             style="stroke-width:0.999897;stroke-miterlimit:4;stroke-dasharray:none" />
          <path
             id="SvgjsPath12894"
             d="m 143.1,97.8 c 2.8,-0.9 4.8,-4.6 6,-8.8 0.7,-2.5 2.1,-8.3 -0.6,-8.2 -0.2,0 -0.3,0.5 -0.1,0.6 2.5,1.1 -0.2,8.9 -1,10.7 -1.1,2.6 -2.5,4.3 -4.3,5.2 -0.2,0.2 -0.2,0.6 0,0.5 z"
             fill="#000000"
             stroke-width="none"
             opacity="1"
             style="stroke-width:0.999897;stroke-miterlimit:4;stroke-dasharray:none" />
        </g>
      </g>
      <path
         id="SvgjsPath12971"
         d="m 305.49385,102.52652 c -0.0938,-3.095723 -0.28143,-8.349062 -1.31334,-13.320972 -2.15762,-10.694298 -14.16526,-27.017173 -39.7753,-27.017173 -25.61004,0 -34.14672,12.57049 -37.99292,21.857643 -2.34524,5.816197 -3.00191,14.259064 -3.18953,18.480502 0,0 2.53287,47.7491 7.22335,55.91053 8.16144,14.25907 54.3158,14.91573 65.29153,4.8781 6.94192,-6.28524 9.85002,-42.21433 9.75621,-60.78863 z"
         fill="#ffffff"
         stroke-width="0.938097"
         opacity="1"
         style="stroke-width:0.938;stroke-miterlimit:4;stroke-dasharray:none" />
      <path
         id="SvgjsPath12972"
         d="m 266.37521,171.85183 c -5.72239,0 -11.44478,-0.37524 -16.60431,-1.21952 -8.34906,-1.31334 -16.5105,-5.34715 -20.16908,-11.72621 -4.78429,-8.34905 -7.41096,-54.40958 -7.41096,-56.47339 0.18762,-4.502867 0.84429,-12.945733 3.18953,-18.85574 6.19144,-15.19716 18.85574,-22.514311 38.93101,-22.514311 11.53859,0 21.76384,3.377147 29.36243,9.756201 5.91001,4.878101 10.22525,11.726204 11.44478,18.105259 1.0319,5.159529 1.21952,10.694298 1.31333,13.508591 v 3.84619 c 0.18762,26.2667 -3.84619,51.97053 -10.03763,57.69292 -5.34715,5.06572 -15.94765,7.88001 -30.0191,7.88001 z m -42.02673,-69.32531 c 0,16.88573 3.47096,49.15624 7.12954,55.34768 2.53286,4.40905 7.41096,9.00572 18.66812,10.69429 19.04336,2.9081 38.55577,-0.18762 45.02864,-6.09762 6.00382,-5.53477 9.47478,-38.27433 9.28716,-56.09816 v -3.84619 c 0,-2.814294 -0.28143,-8.161443 -1.31334,-13.133353 -1.21952,-6.003816 -5.25334,-12.289061 -10.78811,-16.885733 -7.22334,-6.097626 -16.88574,-9.287153 -28.04909,-9.287153 -19.04336,0 -31.14481,6.941912 -36.96101,21.200976 -2.15762,5.534768 -2.81429,13.696206 -3.00191,18.105263 z"
         fill="#000000"
         stroke-width="0.938097"
         opacity="1"
         style="stroke-width:0.938;stroke-miterlimit:4;stroke-dasharray:none" />
      <g
         id="svga-group-mouth-single-move"
         transform="matrix(0.9380967,0,0,0.93809629,171.06459,41.644066)"
         style="stroke-width:0.999897;stroke-miterlimit:4;stroke-dasharray:none">
        <g
           id="svga-group-mouth-single"
           transform="matrix(0.8999996,0,0,0.8999996,9.8433053,11.997799)"
           style="stroke-width:1.111;stroke-miterlimit:4;stroke-dasharray:none">
          <path
             id="SvgjsPath12842"
             d="m 117.6,112.37 a 0.3,0.3 0 0 1 -0.04,-0.08 c -0.02,-0.02 -0.03,-0.04 -0.05,-0.05 l -0.02,-0.02 c -0.01,-0.01 -0.03,-0.02 -0.04,-0.03 -0.01,-0.01 -0.03,-0.02 -0.04,-0.03 -0.17,-0.13 -0.41,-0.16 -0.59,-0.02 a 49.858,49.858 0 0 1 -36.79,0.18 0.417,0.417 0 0 0 -0.37,-0.07 c -0.39,0.05 -0.58,0.57 -0.35,0.87 l 0.01,0.01 c 2.75,3.88 5.17,8.27 8.57,11.62 3.08,3.03 6.65,3.26 10.79,3.13 3.71,-0.11 7.51,-0.08 10.24,-2.97 3.34,-3.54 5.98,-7.87 8.61,-11.94 a 0.57,0.57 0 0 0 0.07,-0.6 z m -1.87,1.3 c -1.18,1.78 -2.39,3.53 -3.64,5.26 -3.6,2.43 -8.04,2.66 -12.26,2.51 -4.95,-0.18 -9.86,-0.9 -14.67,-2.1 a 0.569,0.569 0 0 0 -0.29,0 c -1.28,-1.8 -2.48,-3.66 -3.73,-5.49 a 50.934,50.934 0 0 0 34.59,-0.18 z m -5.8,8.18 c -0.05,-0.18 -0.1,-0.35 -0.15,-0.54 0.27,-0.1 0.53,-0.21 0.79,-0.33 -0.21,0.3 -0.42,0.58 -0.64,0.87 z m -1.05,1.35 c -0.23,-0.45 -0.4,-0.93 -0.5,-1.42 0.08,-0.02 0.16,-0.04 0.25,-0.08 0.11,0.44 0.25,0.88 0.41,1.3 -0.05,0.07 -0.11,0.13 -0.16,0.2 z m -0.64,0.72 c -0.23,-0.64 -0.45,-1.29 -0.68,-1.93 0,-0.01 -0.01,-0.01 -0.01,-0.01 0.1,-0.02 0.21,-0.05 0.3,-0.07 0.13,0.61 0.35,1.18 0.65,1.73 -0.08,0.09 -0.17,0.19 -0.26,0.28 z m -0.68,0.68 c -0.29,-0.81 -0.51,-1.63 -0.67,-2.48 l 0.17,-0.03 c 0,0.04 -0.01,0.09 0.01,0.14 0.26,0.71 0.5,1.42 0.76,2.13 z m -0.6,0.49 c -0.27,-0.95 -0.52,-1.9 -0.71,-2.86 0.03,-0.01 0.07,-0.01 0.1,-0.02 0.17,0.94 0.43,1.86 0.77,2.76 -0.05,0.05 -0.1,0.08 -0.16,0.12 z m -0.59,0.4 c -0.25,-1.06 -0.55,-2.11 -0.89,-3.15 l 0.23,-0.03 v 0.01 c 0.21,1.04 0.48,2.07 0.78,3.1 -0.03,0.01 -0.08,0.04 -0.12,0.07 z m -0.69,0.36 -1.14,-3.42 c 0.13,-0.01 0.27,-0.02 0.41,-0.04 0.37,1.11 0.68,2.22 0.94,3.35 -0.08,0.05 -0.14,0.09 -0.21,0.11 z m -0.96,0.36 c -0.41,-1.21 -0.74,-2.45 -0.99,-3.71 0.09,0 0.17,-0.01 0.25,-0.02 0.4,1.19 0.79,2.38 1.19,3.58 -0.14,0.06 -0.3,0.1 -0.45,0.15 z m -2.7,0.44 c -0.35,-1.37 -0.7,-2.74 -1.05,-4.1 0.09,0 0.17,0.01 0.26,0 h 0.25 c 0.14,1.38 0.39,2.74 0.74,4.08 -0.07,0.01 -0.13,0.02 -0.2,0.02 z m -1.11,0.07 c -0.28,-1.4 -0.56,-2.79 -0.85,-4.2 0.12,0 0.24,0 0.36,0.01 0.35,1.39 0.71,2.77 1.06,4.16 z m -0.66,0.03 c -0.28,-1.41 -0.56,-2.82 -0.83,-4.23 0.03,0 0.06,0.01 0.09,0 0.28,1.41 0.57,2.81 0.85,4.23 a 0.205,0.205 0 0 0 -0.11,0 z m -0.95,0.01 c -0.3,-1.42 -0.57,-2.86 -0.82,-4.3 0.12,0.01 0.24,0.01 0.36,0.02 0.28,1.42 0.56,2.84 0.84,4.28 -0.11,-0.01 -0.25,0 -0.38,0 z m -1.36,-4.33 c 0.24,1.45 0.52,2.89 0.81,4.33 -0.48,-1.42 -0.84,-2.87 -1.08,-4.35 0.09,0.01 0.18,0.02 0.27,0.02 z m 4.83,4.15 a 27.81,27.81 0 0 1 -0.73,-4.02 c 0.11,0 0.22,0 0.33,-0.01 0.26,1.33 0.52,2.65 0.77,3.98 -0.14,0.02 -0.25,0.04 -0.37,0.05 z m 0.89,-0.13 -0.75,-3.91 c 0.09,0 0.18,0 0.27,-0.01 0.25,1.29 0.6,2.57 1.01,3.81 -0.18,0.04 -0.35,0.08 -0.53,0.11 z m 5.49,-4.91 c 0.04,-0.02 0.08,-0.03 0.13,-0.05 0.08,0.3 0.17,0.6 0.25,0.89 -0.03,0.04 -0.06,0.08 -0.09,0.11 -0.12,-0.3 -0.21,-0.62 -0.29,-0.95 z m -12.95,0.81 c 0.25,1.5 0.58,2.99 0.95,4.46 -0.16,0.01 -0.31,0 -0.47,0.01 -0.3,-1.5 -0.53,-3.01 -0.69,-4.53 0.07,0.01 0.15,0.01 0.22,0.02 -0.01,0.01 -0.01,0.02 -0.01,0.04 z m -0.16,4.47 -1.05,-4.63 c 0.15,0.01 0.3,0.03 0.45,0.04 0.16,1.54 0.39,3.07 0.7,4.58 -0.04,0 -0.07,0.01 -0.1,0.01 z m -0.84,-0.03 c -0.37,-1.57 -0.73,-3.14 -1.1,-4.71 0.1,0.01 0.21,0.03 0.31,0.04 0.36,1.56 0.7,3.12 1.06,4.68 -0.09,0 -0.18,-0.01 -0.27,-0.01 z m -1.01,-0.08 a 36.26,36.26 0 0 1 -0.99,-4.74 c 0.11,0.01 0.23,0.03 0.34,0.04 l 1.11,4.74 c -0.16,-0.02 -0.31,-0.03 -0.46,-0.04 z m -1.03,-0.18 -0.84,-4.69 c 0.11,0.02 0.22,0.03 0.33,0.05 0.22,1.6 0.54,3.17 0.97,4.73 -0.16,-0.03 -0.31,-0.06 -0.46,-0.09 z m -0.81,-0.2 c -0.4,-1.55 -0.8,-3.11 -1.2,-4.65 0.21,0.03 0.42,0.06 0.62,0.1 -0.01,0.04 -0.02,0.08 0,0.12 l 0.81,4.5 c -0.08,-0.03 -0.15,-0.06 -0.23,-0.07 z m -0.9,-0.35 c -0.49,-1.46 -0.87,-2.95 -1.17,-4.47 0.1,0.02 0.19,0.04 0.29,0.05 0.39,1.51 0.77,3.02 1.17,4.54 -0.09,-0.03 -0.19,-0.08 -0.29,-0.12 z m -0.95,-0.51 c -0.44,-1.36 -0.81,-2.73 -1.11,-4.11 l 0.36,0.06 c -0.01,0.04 -0.02,0.08 -0.01,0.13 0.26,1.38 0.62,2.74 1.04,4.08 -0.09,-0.05 -0.2,-0.1 -0.28,-0.16 z m -1,-0.73 a 48.71,48.71 0 0 1 -0.96,-3.54 c 0.09,0.02 0.18,0.04 0.27,0.05 0.26,1.25 0.57,2.48 0.95,3.7 -0.09,-0.07 -0.18,-0.14 -0.26,-0.21 z m -0.94,-0.84 c -0.32,-0.96 -0.64,-1.93 -0.98,-2.89 0.12,0.02 0.25,0.05 0.36,0.07 0.23,1.01 0.49,2 0.78,2.98 -0.05,-0.05 -0.1,-0.11 -0.16,-0.16 z m -1.57,-3.03 c 0,0.01 0,0.02 0.01,0.02 0.17,0.51 0.34,1.02 0.51,1.51 -0.27,-0.53 -0.52,-1.06 -0.78,-1.6 0.09,0.03 0.18,0.05 0.26,0.07 z m -1.2,-0.29 c 0.09,0.02 0.18,0.05 0.28,0.07 0.11,0.25 0.23,0.49 0.34,0.73 -0.22,-0.26 -0.43,-0.53 -0.62,-0.8 z m 11.91,6.22 c -0.38,-1.47 -0.7,-2.96 -0.95,-4.45 l 0.36,0.03 c 0.24,1.5 0.6,2.97 1.08,4.41 h -0.11 c -0.12,0.01 -0.24,0 -0.38,0.01 z"
             fill="#000000"
             stroke-width="none"
             opacity="1"
             style="stroke-width:1.111;stroke-miterlimit:4;stroke-dasharray:none" />
        </g>
      </g>
      <g
         id="svga-group-eyes-left-move"
         transform="matrix(0.9380967,0,0,0.93809629,170.59554,38.829777)"
         style="stroke-width:0.999897;stroke-miterlimit:4;stroke-dasharray:none">
        <g
           id="svga-group-eyes-left"
           style="stroke-width:0.999897;stroke-miterlimit:4;stroke-dasharray:none">
          <g
             id="svga-group-eyesback-left"
             style="stroke-width:0.999897;stroke-miterlimit:4;stroke-dasharray:none" />
          <g
             id="svga-group-eyesiriswrapper-left"
             style="stroke-width:0.999897;stroke-miterlimit:4;stroke-dasharray:none">
            <g
               id="svga-group-eyesiriscontrol-left"
               style="stroke-width:0.999897;stroke-miterlimit:4;stroke-dasharray:none">
              <g
                 id="svga-group-eyesiris-left"
                 style="stroke-width:0.999897;stroke-miterlimit:4;stroke-dasharray:none">
                <path
                   id="SvgjsPath13063"
                   d="m 83.4,85 c -1.1,-2.1 -3.5,-2.9 -5.7,-2.2 -2.4,0.8 -4.2,3.3 -3.3,5.9 0.5,1.4 1.6,2.6 3.1,2.9 0.5,0.1 1,0.1 1.6,0.1 0.6,0.1 1.2,0 1.8,-0.2 2.5,-0.9 3.8,-4 2.5,-6.5 z"
                   fill="#ffffff"
                   stroke-width="none"
                   opacity="1"
                   style="stroke-width:0.999897;stroke-miterlimit:4;stroke-dasharray:none" />
                <path
                   id="SvgjsPath13064"
                   d="M 79.4,92.1 H 79 c -0.5,0 -1.1,0 -1.6,-0.1 -1.5,-0.3 -2.8,-1.6 -3.3,-3.2 -0.9,-2.8 1.1,-5.4 3.5,-6.3 2.4,-0.8 5,0.1 6.1,2.3 0.7,1.3 0.7,2.8 0.2,4.1 -0.5,1.3 -1.6,2.4 -2.9,2.8 -0.6,0.3 -1.1,0.4 -1.6,0.4 z M 79,91.4 c 0.6,0.1 1.2,0 1.7,-0.2 1.2,-0.4 2.1,-1.3 2.6,-2.5 0.5,-1.2 0.4,-2.5 -0.2,-3.6 -1,-1.9 -3.2,-2.7 -5.3,-2 -2.2,0.8 -4,3.1 -3.1,5.5 0.5,1.4 1.6,2.5 2.8,2.7 0.4,0.1 0.9,0.2 1.5,0.1 z m 2.6,-5.3 c 0,-0.1 0,-0.1 -0.1,-0.2 -0.6,-1.2 -2.2,-1.7 -3.4,-1.1 0.3,0.2 0.5,0.6 0.6,0.8 0.2,0.4 0.6,1.1 0.1,1.3 -0.4,0.2 -1.1,0 -1.4,-0.2 -0.2,-0.1 -0.4,-0.3 -0.5,-0.5 0,0.1 -0.1,0.1 -0.1,0.2 -0.1,0.2 -0.1,0.5 -0.1,0.7 -0.2,0.7 0,1.5 0.6,2.1 0.3,0.2 0.6,0.4 0.9,0.4 0.6,0.3 1.3,0.4 2,0.1 -0.1,-0.1 -0.2,-0.3 -0.2,-0.4 0,-0.3 0.2,-0.6 0.5,-0.7 0.3,-0.1 0.6,0 0.8,0.2 0.3,-0.3 0.5,-0.8 0.6,-1.2 0.1,-0.5 0,-1 -0.3,-1.5 z m -5.2,1.3 c -0.5,-0.1 -0.9,-0.1 -1.4,-0.2 -0.1,0 -0.1,0.1 0,0.1 0.4,0.1 1,0.3 1.4,0.3 0,-0.1 0.1,-0.2 0,-0.2 z m -0.1,0.9 c -0.2,0 -0.4,0.1 -0.7,0.1 -0.2,0.1 -0.5,0.1 -0.8,0.1 -0.1,0 -0.1,0.1 0,0.1 0.5,0 1.1,0 1.5,-0.3 0.1,0 0.1,0 0,0 z m 0.4,0.9 c -0.2,0.1 -0.4,0.3 -0.6,0.4 -0.2,0.1 -0.4,0.2 -0.6,0.4 -0.1,0.1 0,0.2 0.1,0.1 0.4,-0.3 0.9,-0.5 1.1,-0.9 0.1,0 0.1,-0.1 0,0 z m 1,0.7 c -0.3,0.3 -0.5,0.7 -0.7,1 -0.1,0.1 0.1,0.2 0.1,0.1 0.2,-0.3 0.5,-0.7 0.7,-1 0,-0.1 -0.1,-0.2 -0.1,-0.1 z m 0.9,0.4 c -0.1,0.4 -0.2,0.8 -0.2,1.2 0,0.1 0.1,0.1 0.2,0 0,-0.4 0.1,-0.8 0.2,-1.2 -0.1,-0.1 -0.2,-0.1 -0.2,0 z m 1.6,0.5 c -0.1,-0.2 -0.1,-0.3 -0.2,-0.5 0,0 -0.1,0 -0.1,0.1 0,0.2 0.1,0.3 0.2,0.5 0.1,0.2 0.1,0.4 0.2,0.6 0,0.1 0.1,0.1 0.1,0 -0.1,-0.3 -0.2,-0.5 -0.2,-0.7 z m 1.3,-0.2 -0.3,-0.3 c -0.1,-0.1 -0.2,-0.2 -0.3,-0.4 -0.1,-0.1 -0.1,0 -0.1,0.1 0.1,0.1 0.2,0.3 0.3,0.4 0,0.1 0.2,0.2 0.4,0.2 0,0.1 0,0 0,0 z m 1,-0.8 C 82.4,89.7 82.2,89.6 82,89.5 l -0.6,-0.3 c -0.1,0 -0.2,0.1 -0.1,0.1 0.2,0.1 0.4,0.3 0.6,0.4 0.2,0.1 0.4,0.2 0.6,0.2 0,0 0.1,0 0,-0.1 z m 0.6,-1.4 c -0.2,-0.1 -0.3,-0.1 -0.5,-0.1 -0.2,0 -0.4,-0.1 -0.5,-0.2 -0.1,0 -0.1,0.1 -0.1,0.1 0.3,0.1 0.7,0.3 1.1,0.3 z m 0.2,-1.9 c -0.4,0.1 -0.8,0.3 -1.1,0.5 -0.1,0.1 0,0.2 0.1,0.1 0.2,-0.1 0.4,-0.2 0.6,-0.2 0.2,-0.1 0.4,-0.1 0.6,-0.2 0,-0.1 -0.1,-0.3 -0.2,-0.2 z m -0.9,-2.2 -0.1,-0.1 c 0,0 -0.1,0 -0.1,0.1 0,0 -0.4,0.5 -0.5,0.5 -0.2,0.2 -0.3,0.4 -0.4,0.6 -0.1,0.1 0.1,0.1 0.1,0.1 0.3,-0.4 0.6,-0.7 0.9,-1 0.2,-0.1 0.2,-0.1 0.1,-0.2 z m -2.1,-0.8 c -0.1,0.2 -0.1,0.4 -0.2,0.5 -0.1,0.2 -0.1,0.4 -0.2,0.6 0,0.1 0.1,0.1 0.1,0 0.1,-0.2 0.2,-0.4 0.2,-0.6 0.1,-0.2 0.2,-0.4 0.2,-0.6 0.1,0.1 0,0 -0.1,0.1 z m -1.4,0.8 c -0.1,-0.2 -0.1,-0.3 -0.2,-0.5 -0.1,-0.2 -0.1,-0.3 -0.2,-0.5 0,-0.1 -0.1,-0.1 -0.1,0 -0.1,0.3 0.2,0.8 0.3,1.1 0.1,0.1 0.3,0 0.2,-0.1 z m -1.3,0 c -0.1,-0.2 -0.2,-0.3 -0.3,-0.5 0,-0.1 -0.1,0 -0.1,0.1 0.1,0.2 0.2,0.4 0.2,0.6 0.1,0.2 0.2,0.4 0.3,0.4 0.1,0 0.1,0 0.1,-0.1 0,-0.2 -0.1,-0.4 -0.2,-0.5 z m -0.7,1 -0.3,-0.3 c -0.1,-0.1 -0.3,-0.2 -0.4,-0.3 -0.1,-0.1 -0.2,0 -0.1,0.1 0.1,0.1 0.2,0.3 0.4,0.4 0.1,0.1 0.2,0.2 0.4,0.3 0,0 0.1,-0.1 0,-0.2 z m -0.8,0.9 c -0.3,-0.2 -0.7,-0.2 -1,-0.3 -0.1,0 -0.1,0.1 0,0.1 0.3,0.1 0.6,0.3 0.9,0.4 0.1,-0.1 0.1,-0.2 0.1,-0.2 z"
                   fill="#000000"
                   stroke-width="none"
                   opacity="1"
                   style="stroke-width:0.999897;stroke-miterlimit:4;stroke-dasharray:none" />
              </g>
            </g>
          </g>
          <g
             id="svga-group-eyesfront-left"
             style="stroke-width:0.999897;stroke-miterlimit:4;stroke-dasharray:none">
            <path
               id="SvgjsPath12937"
               d="m 79,72.1 c -8.2,0 -14.8,6.6 -14.8,14.8 0,8.2 6.6,14.8 14.8,14.8 8.2,0 14.8,-6.6 14.8,-14.8 0,-8.1 -6.6,-14.8 -14.8,-14.8 z m 7.3,22.1 c -0.7,0 -1.5,-1.6 -1.5,-1.6 -5.4,1.4 -10.9,2 -14.3,-0.8 -3.4,-2.8 -1.8,-6 -1.8,-6 4.8,-2 16.8,-2.5 16.8,-2.5 2.7,2.7 3.1,6.4 3.1,8 0,1.7 -1.5,2.9 -2.3,2.9 z"
               fill="#ffffff"
               stroke-width="none"
               opacity="1"
               style="stroke-width:0.999897;stroke-miterlimit:4;stroke-dasharray:none" />
            <path
               id="SvgjsPath12938"
               d="m 89.5,87.6 -0.6,0.6 c -0.1,-0.5 -0.3,-1 -0.5,-1.4 0.2,-0.1 0.4,-0.3 0.6,-0.4 v 0.2 c -0.1,0.3 0.1,0.6 0.3,0.7 h 0.2 c 0.2,0 0.4,-0.1 0.5,-0.4 0,-0.1 0.9,-2.7 -0.9,-3.8 -1.8,-1.1 -12.2,-0.2 -23,2.5 -0.3,0.1 -0.4,0.4 -0.4,0.6 0.1,0.3 0.4,0.4 0.6,0.4 0.7,-0.2 1.3,-0.3 1.9,-0.5 -0.1,0.5 -0.2,1.1 -0.2,1.6 l -0.6,-0.6 c -0.1,-0.1 -0.2,0 -0.1,0.1 0.2,0.3 0.5,0.6 0.8,0.9 0,0.4 0.1,0.7 0.3,1.1 -0.7,-0.8 -1.4,-1.4 -2.1,-2.1 -0.1,-0.1 -0.3,0.1 -0.2,0.2 1,1.2 2,2.5 3.1,3.5 0.7,1 1.7,1.9 2.8,2.5 0.8,0.7 1.6,1.4 2.5,1.9 0.1,0.1 0.3,-0.1 0.2,-0.2 -0.4,-0.4 -0.8,-0.7 -1.2,-1 0.9,0.3 1.9,0.4 3,0.4 3.2,0 6.8,-1 8.5,-1.4 0.5,1.4 1.3,1.6 1.8,1.6 h 0.4 c 1.3,-0.3 2.4,-2.4 2.1,-5 0,-0.3 -0.1,-0.6 -0.2,-0.9 0.3,-0.2 0.6,-0.5 0.8,-0.8 0.2,-0.1 -0.2,-0.5 -0.4,-0.3 z m -0.6,-3.1 c 0.2,0.3 0.2,0.7 0.2,1 -0.3,0.3 -0.6,0.6 -1,0.9 -0.2,-0.3 -0.4,-0.7 -0.5,-1 0.5,-0.1 0.9,-0.5 1.3,-0.9 z m -1.4,-0.6 c 0.5,0.1 0.8,0.1 1,0.2 L 87.3,85 C 87.1,84.7 87,84.5 86.8,84.3 87.1,84.2 87.3,84 87.5,83.9 Z m -0.7,9.7 c -0.5,0.1 -0.8,-0.5 -1,-0.9 0.2,-0.1 0.3,-0.4 0.2,-0.6 -0.1,-0.3 -0.4,-0.4 -0.7,-0.3 -0.1,0 -8,2.6 -11.8,1.2 -2,-0.7 -3.6,-2.2 -4.2,-3.9 -0.4,-1.1 -0.4,-2.2 0,-3 V 86 c 6.5,-1.4 12.2,-2.1 15.6,-2.2 0.4,0.4 2.7,2.8 3.1,5.9 0.4,2.1 -0.4,3.7 -1.2,3.9 z M 70.1,92.5 c -0.9,-1 -2,-1.9 -3.1,-2.8 -0.1,-0.1 -0.2,0 -0.1,0.1 0.4,0.5 0.9,0.9 1.3,1.4 -0.1,0.1 -0.2,0.2 -0.1,0.4 0.7,0.9 1.7,1.9 2.9,2 0.2,0 0.3,-0.3 0.2,-0.4 -0.4,-0.2 -0.8,-0.4 -1.1,-0.7 z"
               fill="#000000"
               stroke-width="none"
               opacity="1"
               style="stroke-width:0.999897;stroke-miterlimit:4;stroke-dasharray:none" />
          </g>
        </g>
      </g>
      <g
         id="svga-group-eyes-right-move"
         transform="matrix(0.9380967,0,0,0.93809629,170.59554,38.829777)"
         style="stroke-width:0.999897;stroke-miterlimit:4;stroke-dasharray:none">
        <g
           id="svga-group-eyes-right"
           style="stroke-width:0.999897;stroke-miterlimit:4;stroke-dasharray:none">
          <g
             id="svga-group-eyesback-right"
             style="stroke-width:0.999897;stroke-miterlimit:4;stroke-dasharray:none" />
          <g
             id="svga-group-eyesiriswrapper-right"
             style="stroke-width:0.999897;stroke-miterlimit:4;stroke-dasharray:none">
            <g
               id="svga-group-eyesiriscontrol-right"
               style="stroke-width:0.999897;stroke-miterlimit:4;stroke-dasharray:none">
              <g
                 id="svga-group-eyesiris-right"
                 style="stroke-width:0.999897;stroke-miterlimit:4;stroke-dasharray:none">
                <path
                   id="SvgjsPath13065"
                   d="m 125.4,85 c -1.1,-2.1 -3.5,-2.9 -5.7,-2.2 -2.4,0.8 -4.2,3.3 -3.3,5.9 0.5,1.4 1.6,2.6 3.1,2.9 0.5,0.1 1,0.1 1.6,0.1 0.6,0.1 1.2,0 1.8,-0.2 2.6,-0.9 3.8,-4 2.5,-6.5 z"
                   fill="#ffffff"
                   stroke-width="none"
                   opacity="1"
                   style="stroke-width:0.999897;stroke-miterlimit:4;stroke-dasharray:none" />
                <path
                   id="SvgjsPath13066"
                   d="M 121.4,92.1 H 121 c -0.5,0 -1.1,0 -1.6,-0.1 -1.5,-0.3 -2.8,-1.6 -3.3,-3.2 -0.9,-2.8 1.1,-5.4 3.5,-6.3 2.4,-0.8 5,0.1 6.1,2.3 0.7,1.3 0.7,2.8 0.2,4.1 -0.5,1.3 -1.6,2.4 -2.9,2.8 -0.6,0.3 -1.1,0.4 -1.6,0.4 z M 121,91.4 c 0.6,0.1 1.2,0 1.7,-0.2 1.2,-0.4 2.1,-1.3 2.6,-2.5 0.5,-1.2 0.4,-2.5 -0.2,-3.6 -1,-1.9 -3.2,-2.7 -5.3,-2 -2.2,0.8 -4,3.1 -3.1,5.5 0.5,1.4 1.6,2.5 2.8,2.7 0.5,0.1 1,0.2 1.5,0.1 z m 2.6,-5.3 c 0,-0.1 0,-0.1 -0.1,-0.2 -0.6,-1.2 -2.2,-1.7 -3.4,-1.1 0.3,0.2 0.5,0.6 0.6,0.8 0.2,0.4 0.6,1.1 0.1,1.3 -0.4,0.2 -1.1,0 -1.4,-0.2 -0.2,-0.1 -0.4,-0.3 -0.5,-0.5 0,0.1 -0.1,0.1 -0.1,0.2 -0.1,0.2 -0.1,0.5 -0.1,0.7 -0.2,0.7 0,1.5 0.6,2.1 0.3,0.2 0.6,0.4 0.9,0.4 0.6,0.3 1.3,0.4 2,0.1 -0.1,-0.1 -0.2,-0.3 -0.2,-0.4 0,-0.3 0.2,-0.6 0.5,-0.7 0.3,-0.1 0.6,0 0.8,0.2 0.3,-0.3 0.5,-0.8 0.6,-1.2 0.1,-0.5 0,-1 -0.3,-1.5 z m -5.2,1.3 c -0.5,-0.1 -0.9,-0.1 -1.4,-0.2 -0.1,0 -0.1,0.1 0,0.1 0.4,0.1 1,0.3 1.4,0.3 0.1,-0.1 0.1,-0.2 0,-0.2 z m -0.1,0.9 c -0.2,0 -0.4,0.1 -0.7,0.1 -0.2,0.1 -0.5,0.1 -0.8,0.1 -0.1,0 -0.1,0.1 0,0.1 0.6,0 1.2,0 1.5,-0.3 0.1,0 0.1,0 0,0 z m 0.5,0.9 c -0.2,0.1 -0.4,0.3 -0.6,0.4 -0.2,0.1 -0.4,0.2 -0.6,0.4 -0.1,0.1 0,0.2 0.1,0.1 0.4,-0.3 0.9,-0.5 1.1,-0.9 0.1,0 0,-0.1 0,0 z m 0.9,0.7 c -0.3,0.3 -0.5,0.7 -0.7,1 -0.1,0.1 0.1,0.2 0.1,0.1 0.2,-0.3 0.5,-0.7 0.7,-1 0,-0.1 -0.1,-0.2 -0.1,-0.1 z m 0.9,0.4 c -0.1,0.4 -0.2,0.8 -0.2,1.2 0,0.1 0.1,0.1 0.2,0 0,-0.4 0.1,-0.8 0.2,-1.2 0,-0.1 -0.2,-0.1 -0.2,0 z m 1.6,0.5 c -0.1,-0.2 -0.1,-0.3 -0.2,-0.5 0,0 -0.1,0 -0.1,0.1 0,0.2 0.1,0.3 0.2,0.5 0.1,0.2 0.1,0.4 0.2,0.6 0,0.1 0.1,0.1 0.1,0 -0.1,-0.3 -0.2,-0.5 -0.2,-0.7 z m 1.3,-0.2 -0.3,-0.3 c -0.1,-0.1 -0.2,-0.2 -0.3,-0.4 -0.1,-0.1 -0.1,0 -0.1,0.1 0.1,0.1 0.2,0.3 0.3,0.4 0.1,0.1 0.2,0.2 0.4,0.2 0,0.1 0.1,0 0,0 z m 1.1,-0.8 c -0.1,-0.1 -0.3,-0.2 -0.5,-0.3 l -0.6,-0.3 c -0.1,0 -0.2,0.1 -0.1,0.1 0.2,0.1 0.4,0.3 0.6,0.4 0.2,0.1 0.4,0.2 0.6,0.2 z m 0.5,-1.4 c -0.2,-0.1 -0.3,-0.1 -0.5,-0.1 -0.2,0 -0.4,-0.1 -0.5,-0.2 -0.1,0 -0.1,0.1 -0.1,0.1 0.3,0.1 0.7,0.3 1.1,0.3 0.1,0 0.1,-0.1 0,-0.1 z m 0.2,-1.9 c -0.4,0.1 -0.8,0.3 -1.1,0.5 -0.1,0.1 0,0.2 0.1,0.1 0.2,-0.1 0.4,-0.2 0.6,-0.2 0.2,-0.1 0.4,-0.1 0.6,-0.2 0,-0.1 -0.1,-0.3 -0.2,-0.2 z m -0.8,-2.2 -0.1,-0.1 c 0,0 -0.1,0 -0.1,0.1 0,0 -0.4,0.5 -0.5,0.5 -0.2,0.2 -0.3,0.4 -0.4,0.6 -0.1,0.1 0.1,0.1 0.1,0.1 0.3,-0.4 0.6,-0.7 0.9,-1 0.1,-0.1 0.1,-0.1 0.1,-0.2 z m -2.1,-0.8 c -0.1,0.2 -0.1,0.4 -0.2,0.5 -0.1,0.2 -0.1,0.4 -0.2,0.6 0,0.1 0.1,0.1 0.1,0 0.1,-0.2 0.2,-0.4 0.2,-0.6 0.1,-0.2 0.2,-0.4 0.2,-0.6 0,0.1 -0.1,0 -0.1,0.1 z m -1.4,0.8 c -0.1,-0.2 -0.1,-0.3 -0.2,-0.5 -0.1,-0.2 -0.1,-0.3 -0.2,-0.5 0,-0.1 -0.1,-0.1 -0.1,0 -0.1,0.3 0.2,0.8 0.3,1.1 0.1,0.1 0.2,0 0.2,-0.1 z m -1.4,0 c -0.1,-0.2 -0.2,-0.3 -0.3,-0.5 0,-0.1 -0.1,0 -0.1,0.1 0.1,0.2 0.2,0.4 0.2,0.6 0.1,0.2 0.2,0.4 0.3,0.4 0.1,0 0.1,0 0.1,-0.1 0.1,-0.2 -0.1,-0.4 -0.2,-0.5 z m -0.6,1 -0.3,-0.3 c -0.1,-0.1 -0.3,-0.2 -0.4,-0.3 -0.1,-0.1 -0.2,0 -0.1,0.1 0.1,0.1 0.2,0.3 0.4,0.4 0.1,0.1 0.2,0.2 0.4,0.3 z m -0.9,0.9 c -0.3,-0.2 -0.7,-0.2 -1,-0.3 -0.1,0 -0.1,0.1 0,0.1 0.3,0.1 0.6,0.3 0.9,0.4 0.1,-0.1 0.2,-0.2 0.1,-0.2 z"
                   fill="#000000"
                   stroke-width="none"
                   opacity="1"
                   style="stroke-width:0.999897;stroke-miterlimit:4;stroke-dasharray:none" />
              </g>
            </g>
          </g>
          <g
             id="svga-group-eyesfront-right"
             style="stroke-width:0.999897;stroke-miterlimit:4;stroke-dasharray:none">
            <path
               id="SvgjsPath12939"
               d="m 121,72.1 c -8.2,0 -14.8,6.6 -14.8,14.8 0,8.2 6.6,14.8 14.8,14.8 8.2,0 14.8,-6.6 14.8,-14.8 0,-8.1 -6.6,-14.8 -14.8,-14.8 z m 8.3,19.7 c -3.4,2.8 -9,2.2 -14.3,0.8 0,0 -0.8,1.7 -1.5,1.6 -0.7,0 -2.3,-1.2 -2.3,-2.8 0,-1.7 0.4,-5.3 3.1,-8 0,0 11.9,0.5 16.8,2.5 0,-0.1 1.6,3.1 -1.8,5.9 z"
               fill="#ffffff"
               stroke-width="none"
               opacity="1"
               style="stroke-width:0.999897;stroke-miterlimit:4;stroke-dasharray:none" />
            <path
               id="SvgjsPath12942"
               d="m 133.8,85.7 c -10.8,-2.7 -21.2,-3.6 -23,-2.5 -1.8,1.1 -0.9,3.7 -0.9,3.8 0.1,0.2 0.2,0.3 0.3,0.3 0.3,0.2 0.5,0.4 0.8,0.6 -0.2,0.6 -0.3,1.1 -0.4,1.8 -0.3,2.6 0.8,4.7 2.1,5 h 0.4 c 0.5,0 1.3,-0.3 1.8,-1.6 1.6,0.5 5.3,1.4 8.5,1.4 1.2,0 2.3,-0.1 3.2,-0.5 2.3,-0.8 4.1,-2.5 4.9,-4.5 0.4,-1.1 0.5,-2.3 0.2,-3.2 0.6,0.1 1.3,0.3 1.9,0.5 0.3,0.1 0.6,-0.1 0.6,-0.4 0,-0.3 -0.2,-0.6 -0.4,-0.7 z m -22.5,-1.6 c 0,0 0.1,-0.1 0.2,-0.1 0.1,0.3 0.3,0.5 0.6,0.6 0.2,0.1 0.5,-0.1 0.4,-0.4 -0.1,-0.1 -0.2,-0.3 -0.3,-0.4 0.3,0 0.7,-0.1 1.2,-0.1 -0.3,0.4 -0.7,0.8 -1,1.4 -0.1,0 -0.1,-0.1 -0.2,-0.1 -0.4,-0.3 -0.7,-0.5 -1.1,-0.7 0,-0.1 0.1,-0.1 0.2,-0.2 z m -0.5,0.7 c 0.3,0.2 0.6,0.5 0.9,0.7 l 0.3,0.3 c -0.1,0.1 -0.1,0.3 -0.2,0.4 -0.3,-0.3 -0.7,-0.6 -1.1,-0.8 0,-0.2 0,-0.4 0.1,-0.6 z m 0.4,2.6 c -0.1,-0.1 -0.3,-0.2 -0.4,-0.3 0.1,-0.1 0.2,-0.3 0.1,-0.5 0,0 0,-0.2 -0.1,-0.4 0.2,0.2 0.4,0.4 0.7,0.6 z m 19.2,-1.3 c 0.4,0.8 0.4,1.9 0,3 -0.7,1.7 -2.3,3.2 -4.2,3.9 -3.8,1.4 -11.7,-1.2 -11.8,-1.2 -0.3,-0.1 -0.6,0.1 -0.7,0.3 -0.1,0.2 0,0.5 0.2,0.6 -0.2,0.4 -0.5,1 -1,0.9 -0.7,-0.2 -1.6,-1.8 -1.3,-3.9 0.4,-3.1 2.7,-5.5 3.1,-5.9 3.5,0.1 9.1,0.7 15.6,2.2 0.1,0 0.1,0.1 0.1,0.1 z m -1.1,7.4 c -1.3,0.4 -2.9,1.6 -4.3,1.3 -0.3,-0.1 -0.4,0.3 -0.1,0.4 0.8,0.2 1.4,0 2.1,-0.3 0.8,-0.3 1.6,-0.7 2.4,-1.1 0.1,-0.2 0,-0.4 -0.1,-0.3 z"
               fill="#000000"
               stroke-width="none"
               opacity="1"
               style="stroke-width:0.999897;stroke-miterlimit:4;stroke-dasharray:none" />
          </g>
        </g>
      </g>
      <g
         id="svga-group-eyebrows-left-move"
         transform="matrix(0.9380967,0,0,0.93809629,170.59554,38.829777)"
         style="stroke-width:0.999897;stroke-miterlimit:4;stroke-dasharray:none">
        <g
           id="svga-group-eyebrows-left-rotate"
           style="stroke-width:0.999897;stroke-miterlimit:4;stroke-dasharray:none">
          <g
             id="svga-group-eyebrows-left"
             transform="matrix(1.0500002,0,0,1.0500002,-3.8672825,-3.6816725)"
             style="stroke-width:0.952283;stroke-miterlimit:4;stroke-dasharray:none">
            <path
               id="SvgjsPath12863"
               d="m 63.38,74.47 c 0.22,-0.18 5.53,-4.4 8.18,-4.68 2.64,-0.28 18.4,3.81 19.44,5.45 0.47,0.75 0.57,1.33 0.28,1.75 -0.23,0.33 -0.68,0.5 -1.35,0.5 -0.44,0 -0.98,-0.07 -1.61,-0.21 -1.05,-0.23 -3.78,-1.19 -6.94,-2.29 -4.07,-1.43 -8.69,-3.04 -9.81,-3.12 -1.58,-0.1 -6.16,2.28 -7.79,3.21 -0.16,0.09 -0.37,0.04 -0.48,-0.11 a 0.408,0.408 0 0 1 0.08,-0.5 z"
               fill="#000000"
               stroke-width="none"
               opacity="1"
               style="stroke-width:0.952283;stroke-miterlimit:4;stroke-dasharray:none" />
          </g>
        </g>
      </g>
      <g
         id="svga-group-eyebrows-right-move"
         transform="matrix(0.9380967,0,0,0.93809629,170.59554,38.829777)"
         style="stroke-width:0.999897;stroke-miterlimit:4;stroke-dasharray:none">
        <g
           id="svga-group-eyebrows-right-rotate"
           style="stroke-width:0.999897;stroke-miterlimit:4;stroke-dasharray:none">
          <g
             id="svga-group-eyebrows-right"
             transform="matrix(1.0500002,0,0,1.0500002,-6.1327342,-3.6816725)"
             style="stroke-width:0.952283;stroke-miterlimit:4;stroke-dasharray:none">
            <path
               id="SvgjsPath12864"
               d="m 136.62,74.47 c -0.22,-0.18 -5.53,-4.4 -8.18,-4.68 -2.64,-0.28 -18.4,3.81 -19.44,5.45 -0.47,0.75 -0.57,1.33 -0.28,1.75 0.23,0.33 0.68,0.5 1.35,0.5 0.44,0 0.98,-0.07 1.61,-0.21 1.05,-0.23 3.78,-1.19 6.94,-2.29 4.07,-1.43 8.69,-3.04 9.81,-3.12 1.58,-0.1 6.16,2.28 7.79,3.21 0.16,0.09 0.37,0.04 0.48,-0.11 0.09,-0.17 0.06,-0.38 -0.08,-0.5 z"
               fill="#000000"
               stroke-width="none"
               opacity="1"
               style="stroke-width:0.952283;stroke-miterlimit:4;stroke-dasharray:none" />
          </g>
        </g>
      </g>
      <g
         id="svga-group-beardwrap"
         transform="matrix(0.9380967,0,0,0.93809629,170.59554,38.829777)"
         style="stroke-width:0.999897;stroke-miterlimit:4;stroke-dasharray:none">
        <g
           id="svga-group-beard-single-move"
           transform="translate(1,1)"
           style="stroke-width:0.999897;stroke-miterlimit:4;stroke-dasharray:none">
          <g
             id="svga-group-beard-single"
             transform="matrix(0.8499994,0,0,0.8499994,14.949512,19.524454)"
             style="stroke-width:1.17635;stroke-miterlimit:4;stroke-dasharray:none">
            <path
               id="SvgjsPath12853"
               d="m 122.5,112.9 c -1.7,-2.3 -4.1,-2.8 -6.5,-2.2 -0.7,0 -1.4,0.1 -2.2,0.2 -0.6,0 -1.1,0 -1.7,0.1 -3,0.3 -5.9,1.4 -8.9,1.8 -1.5,0.2 -2.9,0.3 -4.3,0.2 -3.8,-0.8 -8.3,-1.7 -12.3,-1.5 -0.7,-0.1 -1.5,-0.1 -2.2,-0.2 -3.2,-0.2 -6.1,0.9 -7.5,4 -0.3,0.6 -0.5,1.2 -0.6,1.8 -0.4,0.9 -0.8,1.8 -1,3 -0.7,3.3 -0.1,7.6 1.5,11.6 0,0.1 0,0.2 0.1,0.3 0.1,5 3.7,9.5 7.5,12.6 1.6,1.3 3.3,2.3 5.2,3.1 0,0.1 0.1,0.3 0.3,0.4 3.2,1.4 7.1,2.2 10.6,1.5 1.6,-0.1 3.3,-0.2 4.9,-0.5 2.7,-0.4 5,-1.3 7,-2.4 6.5,-2.6 10.3,-13 11.1,-18.8 0.6,-4.6 1.9,-10.9 -1,-15 z m -6.1,12 c -0.2,1.1 -0.5,2.1 -0.8,3.1 -1,1.4 -1.8,3 -3,4.3 l -1.8,1.8 c -1.7,0.8 -3.5,1.3 -5.6,1.3 -0.1,0 -0.1,-0.1 -0.2,-0.1 -0.1,-0.4 -0.3,-0.9 -0.4,-1.3 -0.1,-0.8 -0.1,-1.6 0.2,-2.3 0.3,-0.7 -0.7,-1.2 -1.2,-0.8 -0.8,0 -1.6,0.3 -2.4,0.4 h -0.1 c -0.7,-0.2 -1.4,0 -2.1,0 -1,0 -1.9,-0.2 -2.9,-0.3 H 96 c -0.7,-0.3 -1.2,0.5 -1.1,1.1 0,0.1 0.1,0.3 0.2,0.4 v 0.1 c 0,0.9 -0.2,1.8 -0.7,2.6 -0.1,0.1 -0.2,0.1 -0.4,0.1 -0.2,0.1 -0.4,0.1 -0.5,0.1 -2.7,-0.2 -5.2,-1.4 -7.2,-3.2 -0.5,-0.5 -1,-1 -1.4,-1.6 -1.9,-2.5 -3.1,-5.4 -3.4,-8.5 0,-0.1 -0.1,-0.3 -0.1,-0.4 v -3.6 c 0.4,-0.6 0.8,-1.1 1.3,-1.4 0.8,-0.5 1.6,-0.7 2.6,-0.9 0.4,0.1 0.8,0.1 1.1,0.1 1.3,0 2.6,0.1 3.8,0.1 1.3,0.2 2.6,0.4 3.8,0.6 0.7,0.1 1.5,0.1 2.2,0.2 0.3,0 0.7,0.1 1,0.1 3,0.2 5.9,-0.1 8.9,-0.6 1.4,-0.3 2.7,-0.6 4,-0.9 0.8,-0.1 1.5,-0.2 2.2,-0.4 1.8,0.3 3.7,0.5 5.1,1.7 0,0.9 0.1,1.9 0.1,2.8 -0.8,1.6 -0.8,3.6 -1.1,5.4 z"
               fill="#000000"
               stroke-width="none"
               opacity="1"
               style="stroke-width:1.17635;stroke-miterlimit:4;stroke-dasharray:none" />
            <path
               id="SvgjsPath12854"
               d="m 86.5,112.6 c -2.1,0 -4.3,0.7 -5.6,2.4 -0.2,0.2 0.2,0.6 0.4,0.3 1.4,-1.5 3.4,-1.7 5.2,-2.4 0.3,0 0.3,-0.3 0,-0.3 z m 2.4,1 c -2,-0.2 -4,0.4 -5.8,1.2 -0.3,0.2 -0.1,0.6 0.3,0.5 1.8,-0.8 3.7,-1.1 5.6,-1.3 0.2,-0.1 0.1,-0.4 -0.1,-0.4 z m 3.7,-0.1 c -1.3,0.3 -2.5,0.8 -3.8,1.1 -0.3,0.1 -0.2,0.5 0.1,0.5 1.4,-0.2 2.7,-0.4 3.9,-1.2 0.1,-0.2 0,-0.4 -0.2,-0.4 z m 2.1,0.2 c -0.4,0.1 -0.7,0.2 -1,0.4 l -1.1,0.5 c -0.4,0.2 -0.1,0.7 0.3,0.5 0.7,-0.3 1.5,-0.5 2.1,-1 0.1,-0.2 -0.1,-0.5 -0.3,-0.4 z m 1.2,0.3 c -0.6,0.2 -1.1,0.7 -1.6,1.1 -0.2,0.2 0,0.6 0.2,0.4 0.5,-0.3 1.2,-0.7 1.6,-1.1 0.2,-0.3 0,-0.5 -0.2,-0.4 z m 3.2,-0.3 c -0.4,0.2 -0.7,0.6 -1.1,0.8 l -1.2,0.9 c -0.3,0.2 -0.1,0.8 0.3,0.6 0.8,-0.5 1.8,-1.1 2.2,-2 0.2,-0.2 0,-0.4 -0.2,-0.3 z m 0.7,1 c -0.4,0.6 -0.6,1.2 -0.8,1.9 -0.1,0.3 0.4,0.5 0.5,0.2 0.3,-0.7 0.5,-1.2 0.7,-1.9 0,-0.2 -0.3,-0.4 -0.4,-0.2 z m 1.6,-0.6 c 0,-0.3 -0.4,-0.3 -0.5,0 -0.1,0.8 0.1,1.9 0.9,2.4 0.2,0.1 0.4,-0.1 0.3,-0.3 -0.3,-0.7 -0.7,-1.3 -0.7,-2.1 z m 3.9,1.5 c -0.6,-0.2 -1.1,-0.4 -1.5,-1 -0.2,-0.3 -0.6,0 -0.4,0.2 0.4,0.7 1.1,1.2 1.9,1.1 0.2,0 0.1,-0.3 0,-0.3 z m 3.9,-0.5 c -1,-0.1 -2.1,-0.3 -2.7,-1.2 -0.3,-0.4 -0.9,0 -0.7,0.4 0.8,1 2.2,1.8 3.4,1.2 0.2,-0.1 0.1,-0.4 0,-0.4 z m 2.9,-0.8 c -0.5,-0.1 -1,-0.1 -1.5,-0.3 -0.6,-0.2 -1.1,-0.5 -1.6,-0.9 -0.3,-0.2 -0.7,0.2 -0.4,0.4 0.9,0.8 2.3,1.6 3.5,1.2 0.2,0 0.2,-0.3 0,-0.4 z m 4,-0.4 c -1.1,-0.4 -2.3,-0.8 -3.3,-1.4 -0.3,-0.2 -0.5,0.2 -0.2,0.4 1,0.7 2.2,1.4 3.5,1.4 0.2,-0.1 0.2,-0.4 0,-0.4 z m 4,0.2 c -1.6,-0.7 -3.2,-1.2 -4.6,-2.2 -0.2,-0.1 -0.4,0.2 -0.2,0.3 1.2,1.2 3,2.4 4.7,2.4 0.2,0 0.3,-0.4 0.1,-0.5 z m 2,0.2 c -0.6,-0.7 -1.4,-1.2 -2,-2 -0.2,-0.2 -0.6,0.1 -0.4,0.3 0.5,0.7 1.1,1.1 1.7,1.7 0.6,0.7 1,1.4 1.4,2.2 0.1,0.2 0.3,0.1 0.3,-0.1 -0.2,-0.7 -0.5,-1.4 -1,-2.1 z m -2.3,1.1 c -0.3,-0.4 -0.8,0.2 -0.5,0.5 1.5,1.9 2.3,4 2.2,6.4 0,0.1 0.2,0.2 0.3,0.1 1,-2.5 -0.3,-5 -2,-7 z m 0.6,7.7 c 0,-0.2 -0.4,-0.2 -0.4,0.1 0.3,2.5 0.2,4.9 0.3,7.4 0,0.3 0.4,0.4 0.5,0.1 0.4,-2.6 0,-5.2 -0.4,-7.6 z m -0.9,5.3 c -0.1,-0.3 -0.5,-0.2 -0.5,0.1 0.4,2.1 0.3,4 0.2,6.1 0,0.2 0.3,0.2 0.3,0 0.6,-1.9 0.4,-4.1 0,-6.2 z M 119,119 c -0.1,-0.3 -0.5,-0.2 -0.5,0.1 0.2,1.5 0.3,3.1 0.6,4.6 0.1,0.2 0.4,0.2 0.4,-0.1 0.1,-1.5 -0.3,-3.1 -0.5,-4.6 z m -0.4,4.8 c -0.1,-0.3 -0.5,-0.2 -0.4,0.1 0.2,0.9 0.3,1.8 0.5,2.6 0.1,0.2 0.4,0.1 0.4,-0.1 0,-0.7 -0.3,-1.7 -0.5,-2.6 z m 0,10.7 c 0,-0.3 -0.5,-0.3 -0.5,0 0.1,2.4 -0.3,4.7 -0.6,7.2 0,0.3 0.3,0.4 0.4,0.1 0.8,-2.4 0.9,-4.9 0.7,-7.3 z m -1.7,-4.8 c -0.1,-0.3 -0.6,-0.2 -0.6,0.1 0.2,1.3 0.2,2.6 0.4,3.9 0,0.3 0.4,0.4 0.5,0.1 0.3,-1.4 0.1,-2.8 -0.3,-4.1 z m -1.2,2.9 c 0,-0.2 -0.4,-0.2 -0.4,0 0.2,3.4 -0.1,6.8 -0.4,10.2 0,0.2 0.2,0.2 0.3,0 0.9,-3.3 0.9,-6.8 0.5,-10.2 z m -2.6,8.9 c -0.2,2 -0.8,3.7 -1.3,5.6 -0.1,0.2 0.2,0.3 0.3,0.1 0.9,-1.7 1.2,-3.8 1.4,-5.7 0,-0.2 -0.4,-0.2 -0.4,0 z m -2.7,0.8 c -0.2,1.9 -0.8,3.7 -1.2,5.6 -0.1,0.3 0.3,0.4 0.4,0.2 0.8,-1.8 1.2,-3.8 1.3,-5.7 0,-0.3 -0.5,-0.4 -0.5,-0.1 z m -2.4,3.1 c -0.3,0.9 -0.9,1.8 -1.3,2.7 -0.1,0.2 0.2,0.3 0.3,0.2 0.7,-0.7 1.1,-1.8 1.4,-2.8 0.1,-0.3 -0.3,-0.4 -0.4,-0.1 z m 2,-9.3 c 0,-0.2 -0.4,-0.3 -0.4,-0.1 -0.2,1.8 -0.7,3.7 -0.7,5.6 0,0.3 0.4,0.3 0.5,0.1 0.6,-1.8 0.6,-3.8 0.6,-5.6 z m 1.4,-0.5 c -0.1,1.5 -0.4,3 -0.3,4.5 0,0.2 0.3,0.3 0.4,0.1 0.3,-1.5 0.3,-3.1 0.4,-4.5 0,-0.4 -0.5,-0.4 -0.5,-0.1 z m 2.4,-1.9 c -0.1,-0.3 -0.5,-0.2 -0.5,0.1 0.1,1.1 0,2.3 0.1,3.4 0,0.3 0.4,0.3 0.5,0.1 0.3,-1.2 0.1,-2.4 -0.1,-3.6 z M 81,113 c -1,0.4 -1.6,1.4 -2.3,2.2 -0.7,1 -1.5,2 -1.6,3.2 0,0.3 0.4,0.4 0.5,0.1 1,-1.8 2,-3.9 3.7,-5.2 0.2,-0.1 -0.1,-0.4 -0.3,-0.3 z m -2.1,6.4 c -1.6,1.5 -2.2,3.6 -2.2,5.7 0,0.2 0.3,0.2 0.3,0 0.6,-1.9 0.9,-3.9 2.2,-5.5 0.2,-0.1 -0.1,-0.3 -0.3,-0.2 z m 1.5,-2.5 c -0.3,0.6 -0.7,1.2 -0.9,1.8 -0.1,0.1 0.2,0.2 0.2,0.1 0.4,-0.5 0.7,-1.1 1,-1.7 0.1,-0.2 -0.2,-0.4 -0.3,-0.2 z m -2.1,8.1 c -0.7,1.8 -1.1,3.8 -0.9,5.7 0,0.2 0.3,0.1 0.3,0 0.3,-1.9 0.4,-3.7 0.8,-5.6 0.1,-0.2 -0.1,-0.2 -0.2,-0.1 z m -1.9,-4.1 c -0.6,0.8 -1.2,2 -0.8,2.9 0.1,0.2 0.4,0.2 0.5,0 0.1,-0.4 0.1,-0.9 0.2,-1.3 0.1,-0.5 0.3,-0.9 0.6,-1.4 0.1,-0.2 -0.3,-0.4 -0.5,-0.2 z m 3.9,1.1 c -0.2,1.1 -0.4,2.2 -0.6,3.2 0,0.1 0.2,0.2 0.2,0 0.4,-1.1 0.5,-2.2 0.7,-3.3 0,-0.1 -0.3,-0.1 -0.3,0.1 z m -0.2,6.9 c 0,-0.2 -0.4,-0.3 -0.4,-0.1 -0.4,1.9 -0.6,4 -0.2,5.9 0.1,0.2 0.4,0.2 0.4,-0.1 0.2,-1.9 0.1,-3.8 0.2,-5.7 z m 1.6,5.2 c 0,-0.3 -0.5,-0.2 -0.5,0.1 0.1,1.4 0.3,2.8 0.9,4.1 0.1,0.2 0.3,0.1 0.3,-0.1 -0.2,-1.4 -0.6,-2.7 -0.7,-4.1 z m 0.4,-6.8 c 0,-0.3 -0.4,-0.3 -0.5,0 -0.2,1.5 -0.4,3.2 0.1,4.7 0.1,0.2 0.5,0.2 0.5,-0.1 -0.1,-1.5 -0.3,-3 -0.1,-4.6 z m 1.4,4.3 c 0,-0.2 -0.5,-0.2 -0.4,0.1 0.1,1.3 0.1,2.8 0.4,4.1 0.1,0.2 0.4,0.2 0.4,-0.1 0,-1.4 -0.2,-2.8 -0.4,-4.1 z m 2.5,12.3 c -0.7,-1.8 -1.3,-3.4 -1.8,-5.2 -0.1,-0.2 -0.4,-0.2 -0.4,0.1 0.1,1.9 0.7,4 1.9,5.4 0.1,0.2 0.4,-0.1 0.3,-0.3 z m 2.3,1 c -0.8,-2 -1.7,-3.8 -2.2,-5.9 -0.1,-0.3 -0.5,-0.2 -0.4,0.1 0.4,2.1 1.1,4.2 2.3,5.9 0.1,0.3 0.4,0.1 0.3,-0.1 z m -2.1,-11.7 c 0,-0.2 -0.3,-0.3 -0.4,-0.1 -0.5,1.4 -0.6,3 0,4.4 0.1,0.2 0.5,0.1 0.5,-0.1 -0.1,-1.5 -0.2,-2.8 -0.1,-4.2 z M 88,135 c -0.1,-0.2 -0.4,-0.1 -0.4,0.1 0.2,1.4 0.3,3 0.8,4.4 0.1,0.2 0.4,0.2 0.4,-0.1 -0.1,-1.5 -0.5,-3 -0.8,-4.4 z m 4.6,11.8 c -1.5,-1.9 -2.7,-3.6 -3,-6.1 0,-0.2 -0.5,-0.2 -0.4,0.1 0.2,2.4 1.2,4.9 3.2,6.3 0.1,0.1 0.3,-0.2 0.2,-0.3 z m 2.4,1.4 c -0.3,-0.6 -0.8,-1.1 -1.1,-1.6 -0.4,-0.6 -0.7,-1.1 -1,-1.8 -0.1,-0.3 -0.5,0 -0.4,0.2 0.5,1.2 1.2,2.7 2.3,3.4 0.1,0.2 0.3,0 0.2,-0.2 z m 0.8,-2.9 c -0.2,-0.4 -0.8,-0.1 -0.7,0.3 0.5,1.2 1,2.6 2,3.5 0.1,0.1 0.4,0 0.3,-0.2 -0.3,-1.3 -1.1,-2.4 -1.6,-3.6 z m -4.6,-9.2 c 0,-0.3 -0.4,-0.3 -0.4,0 -0.1,2 0.2,4.2 1.3,5.9 0.1,0.2 0.5,0.1 0.4,-0.2 -0.6,-1.9 -1.2,-3.7 -1.3,-5.7 z m 2.8,2.3 c 0,-0.3 -0.6,-0.3 -0.5,0 0.1,1.7 0.5,3.7 1.6,5.1 0.1,0.2 0.4,0 0.4,-0.2 -0.6,-1.7 -1.3,-3.1 -1.5,-4.9 z m 2.5,-5.5 c 0.1,-0.3 -0.4,-0.5 -0.5,-0.1 -0.4,1.9 -0.6,3.9 0,5.8 0.1,0.2 0.4,0.2 0.4,-0.1 -0.1,-1.9 -0.2,-3.7 0.1,-5.6 z m 1.4,4.4 c 0,-0.4 -0.5,-0.4 -0.6,0 -0.1,2.1 0.1,4.4 1.2,6.3 0.2,0.3 0.6,0.1 0.5,-0.2 -0.4,-2.1 -1,-4 -1.1,-6.1 z m 1.3,9.8 c -0.7,-1.5 -1.5,-2.9 -2,-4.5 -0.1,-0.3 -0.5,-0.2 -0.4,0.1 0.5,1.6 1.1,3.3 2.2,4.6 0,0.2 0.3,0 0.2,-0.2 z m 2.1,-1.9 c 0,-0.2 -0.3,-0.2 -0.3,0 -0.3,1.1 -0.3,2.3 -0.4,3.4 0,0.3 0.5,0.3 0.5,0 0.1,-1.2 0.3,-2.3 0.2,-3.4 z m 3.1,-0.7 c 0,-0.3 -0.4,-0.4 -0.5,-0.1 -0.4,1.2 -0.5,2.5 -1,3.7 -0.1,0.4 0.4,0.6 0.6,0.2 0.6,-1.1 1.1,-2.5 0.9,-3.8 z m 1.9,-1.2 c -0.4,1.4 -0.8,2.9 -1.1,4.4 -0.1,0.3 0.4,0.4 0.5,0.1 0.4,-1.5 0.8,-2.9 1.1,-4.4 0,-0.3 -0.4,-0.4 -0.5,-0.1 z m 0.8,-4.5 c -0.1,-0.2 -0.4,-0.1 -0.4,0.1 0,1 0.2,2 -0.1,3 -0.1,0.4 0.5,0.5 0.6,0.2 0.3,-1 0.4,-2.3 -0.1,-3.3 z m -3.3,0.7 c -0.1,-0.2 -0.4,-0.2 -0.5,0 -0.2,1 -0.2,2.2 -0.2,3.3 0,0.4 0.5,0.4 0.6,0.1 0.2,-1.1 0.3,-2.3 0.1,-3.4 z m -2.2,0.5 c 0,-0.2 -0.3,-0.3 -0.4,-0.1 -0.3,0.9 -0.2,2.1 0,3 0.1,0.3 0.5,0.2 0.5,-0.1 -0.1,-0.9 0,-1.9 -0.1,-2.8 z m 3.9,-3.8 c 0,-0.3 -0.5,-0.3 -0.5,0 0,0.8 -0.2,1.8 0,2.6 0.1,0.2 0.4,0.2 0.4,0 0.3,-0.8 0.1,-1.8 0.1,-2.6 z m -2.7,-1.4 c 0,-0.3 -0.5,-0.3 -0.5,0 0,1.1 -0.2,2.1 -0.4,3.1 0,0.2 0.3,0.3 0.4,0.1 0.6,-0.9 0.6,-2.1 0.5,-3.2 z m -3.1,1.1 c -0.2,1.1 -0.5,2.7 -0.2,3.7 0.1,0.2 0.4,0.2 0.4,0 0.2,-0.5 0.2,-1.1 0.2,-1.7 0,-0.6 0.1,-1.3 0.2,-1.9 0.1,-0.3 -0.5,-0.4 -0.6,-0.1 z m -1.1,-3.6 c 0,-0.3 -0.4,-0.3 -0.5,0 -0.1,1.1 -0.2,2.3 0.1,3.4 0.1,0.2 0.4,0.2 0.4,-0.1 0.2,-1.1 0,-2.2 0,-3.3 z m 1.5,0.2 c 0,-0.3 -0.4,-0.3 -0.5,0 -0.1,0.7 -0.1,1.5 0.3,2.2 0.1,0.1 0.3,0.1 0.3,-0.1 0,-0.7 -0.1,-1.4 -0.1,-2.1 z m 1.4,0.7 c 0,0.3 -0.1,0.6 -0.1,0.9 0,0.1 0.2,0.1 0.2,0 0.1,-0.3 0.1,-0.6 0.1,-0.9 0.1,-0.2 -0.2,-0.2 -0.2,0 z m 1.9,-0.2 v 0.8 c 0,0.1 0.1,0.1 0.1,0 V 133 c 0.1,-0.1 -0.1,-0.1 -0.1,0 z"
               fill="#ffffff"
               stroke-width="none"
               opacity="1"
               style="stroke-width:1.17635;stroke-miterlimit:4;stroke-dasharray:none" />
          </g>
        </g>
      </g>
      <g
         id="svga-group-nose-single-move"
         transform="matrix(0.9380967,0,0,0.93809629,170.59554,38.829777)"
         style="stroke-width:0.999897;stroke-miterlimit:4;stroke-dasharray:none">
        <g
           id="svga-group-nose-single"
           style="stroke-width:0.999897;stroke-miterlimit:4;stroke-dasharray:none">
          <path
             id="SvgjsPath13108"
             d="m 103.29,107.27 c -1.43,1.14 -6.6,0.84 -8.09,-1.16 -1.49,-2.01 -1.23,-5.37 -0.71,-8.74 0.52,-3.36 3.24,-17.34 3.75,-18.38 0.52,-1.04 1.75,-1.16 2.39,0 0.64,1.16 3.43,16.63 3.75,20.45 0.32,3.82 0.86,6.28 -1.09,7.83 z"
             fill="#ffffff"
             stroke-width="none"
             opacity="1"
             style="stroke-width:0.999897;stroke-miterlimit:4;stroke-dasharray:none" />
          <path
             id="SvgjsPath13109"
             d="m 95.15,107.24 c 2.35,1.15 5.1,2.37 7.68,1.14 2.66,-1.27 2.67,-4.06 2.36,-6.63 -0.96,-7.77 -2.31,-15.48 -3.95,-23.13 -0.2,-0.94 -1.65,-0.54 -1.44,0.4 1.2,5.6 2.24,11.23 3.09,16.89 0.41,2.72 1.34,5.93 0.94,8.68 -0.62,4.25 -5.38,2.6 -7.91,1.36 -0.88,-0.42 -1.64,0.87 -0.77,1.29 z"
             fill="#000000"
             stroke-width="none"
             opacity="1"
             style="stroke-width:0.999897;stroke-miterlimit:4;stroke-dasharray:none" />
        </g>
      </g>
      <g
         id="svga-group-glasses-single-move"
         transform="matrix(0.9380967,0,0,0.93809629,170.59554,38.829777)"
         style="stroke-width:0.999897;stroke-miterlimit:4;stroke-dasharray:none">
        <g
           id="svga-group-glasses-single"
           style="stroke-width:0.999897;stroke-miterlimit:4;stroke-dasharray:none">
          <path
             id="SvgjsPath13001"
             d="m 62.3,79.75 c -1.59,0.87 -1.64,3.97 -0.75,10.07 0.89,6.1 1.99,7.74 3.7,8.43 1.71,0.69 9.94,2.19 17.34,1.37 7.4,-0.82 7.74,-2.06 8.7,-3.08 0.96,-1.03 4.59,-8.36 4.59,-12.54 0,-4.18 -13.98,-4.8 -17.13,-4.93 -3.16,-0.15 -14.19,-0.56 -16.45,0.68 z"
             fill="url(#SvgjsLinearGradient13002)"
             opacity="1"
             style="fill:url(#SvgjsLinearGradient13002-3);stroke-width:0.999897;stroke-miterlimit:4;stroke-dasharray:none" />
          <path
             id="SvgjsPath13005"
             d="m 137.55,79.75 c 1.59,0.87 1.64,3.97 0.75,10.07 -0.89,6.1 -1.99,7.74 -3.7,8.43 -1.71,0.69 -9.94,2.19 -17.34,1.37 -7.4,-0.82 -7.74,-2.06 -8.7,-3.08 -0.96,-1.03 -4.59,-8.36 -4.59,-12.54 0,-4.18 13.98,-4.8 17.13,-4.93 3.16,-0.15 14.19,-0.56 16.45,0.68 z"
             fill="url(#SvgjsLinearGradient13006)"
             opacity="1"
             style="fill:url(#SvgjsLinearGradient13006);stroke-width:0.999897;stroke-miterlimit:4;stroke-dasharray:none" />
          <path
             id="SvgjsPath13009"
             d="m 121.18,100.34 c -2.08,0 -3.85,-0.1 -5.26,-0.28 -4.66,-0.62 -6.59,-1.09 -8.39,-3.54 -1.56,-2.13 -3.04,-6.67 -3.75,-8.85 -0.14,-0.42 -0.25,-0.76 -0.33,-1.01 -0.63,-1.82 -2.41,-2.11 -2.49,-2.13 h -2.01 c -0.13,0.02 -1.92,0.31 -2.55,2.13 -0.09,0.25 -0.2,0.59 -0.33,1 -0.71,2.18 -2.19,6.73 -3.75,8.86 -1.8,2.46 -3.73,2.92 -8.39,3.54 -1.42,0.19 -3.19,0.28 -5.26,0.28 -4.19,0 -8.63,-0.39 -11.16,-0.78 -3.78,-0.58 -5.07,-2.49 -5.83,-5.18 -0.5,-1.74 -0.83,-4.4 -1.07,-6.34 -0.12,-0.97 -0.22,-1.74 -0.3,-2.15 -0.16,-0.78 -0.55,-1.01 -0.86,-1.2 -0.25,-0.15 -0.47,-0.28 -0.66,-0.74 -0.56,-1.34 -0.95,-4.37 -0.34,-4.73 0.54,-0.32 5.31,-0.79 12.51,-0.79 1.87,0 3.75,0.03 5.57,0.1 8.57,0.3 15.6,1.63 18.22,2.18 2.06,0.44 4.15,0.65 4.17,0.66 h 1.99 c 0.06,0 2.15,-0.22 4.21,-0.66 2.62,-0.56 9.65,-1.88 18.22,-2.18 1.83,-0.06 3.7,-0.1 5.57,-0.1 7.2,0 11.97,0.47 12.51,0.79 0.61,0.36 0.22,3.4 -0.34,4.73 -0.19,0.46 -0.41,0.59 -0.66,0.74 -0.31,0.19 -0.7,0.43 -0.86,1.2 -0.08,0.41 -0.18,1.17 -0.3,2.15 -0.24,1.94 -0.57,4.61 -1.07,6.34 -0.77,2.69 -2.06,4.6 -5.83,5.18 -2.55,0.39 -6.99,0.78 -11.18,0.78 0.01,0 0.01,0 0,0 z m 9.58,-21.03 c -1.6,0 -3.43,0.06 -5.36,0.13 -1.34,0.04 -2.74,0.09 -4.19,0.12 -8.5,0.18 -15.36,1.7 -16.32,3.62 -0.4,0.81 -0.75,2.37 0.85,6.62 1.77,4.69 3.31,7.32 4.71,8.02 1.59,0.8 6.48,1.92 12.36,1.92 0.93,0 1.86,-0.03 2.76,-0.09 7.09,-0.45 9.93,-1.52 11.22,-4.24 1.32,-2.77 2.58,-11.51 1.43,-14.07 -0.74,-1.69 -3.52,-2.03 -7.46,-2.03 z m -61.67,0 c -3.94,0 -6.72,0.34 -7.47,2.02 -1.15,2.56 0.11,11.3 1.43,14.07 1.3,2.72 4.13,3.79 11.22,4.24 0.9,0.06 1.83,0.09 2.76,0.09 5.88,0 10.77,-1.12 12.36,-1.92 1.4,-0.7 2.94,-3.32 4.71,-8.02 1.6,-4.26 1.25,-5.82 0.85,-6.62 -0.96,-1.91 -7.82,-3.43 -16.32,-3.62 -1.45,-0.03 -2.85,-0.08 -4.19,-0.12 -1.92,-0.06 -3.75,-0.12 -5.35,-0.12 z"
             fill="#ffffff"
             stroke-width="none"
             opacity="1"
             style="stroke-width:0.999897;stroke-miterlimit:4;stroke-dasharray:none" />
          <path
             id="SvgjsPath13010"
             d="m 141.61,78.89 c -0.74,-0.44 -6.09,-0.85 -12.7,-0.85 -1.79,0 -3.68,0.03 -5.59,0.1 -8.96,0.31 -16.22,1.75 -18.29,2.19 -2.07,0.44 -4.13,0.65 -4.13,0.65 h -1.96 c 0,0 -2.07,-0.21 -4.13,-0.65 -2.07,-0.44 -9.33,-1.88 -18.29,-2.19 -1.91,-0.07 -3.79,-0.1 -5.59,-0.1 -6.61,0 -11.96,0.4 -12.7,0.85 -0.94,0.56 -0.31,4.01 0.19,5.2 0.5,1.19 1.25,0.69 1.5,1.88 0.25,1.19 0.63,5.89 1.38,8.52 0.75,2.63 2.07,4.82 6.14,5.45 2.75,0.42 7.18,0.79 11.22,0.79 1.94,0 3.79,-0.08 5.31,-0.29 4.7,-0.63 6.76,-1.13 8.64,-3.7 1.88,-2.57 3.57,-8.33 4.13,-9.96 0.56,-1.63 2.19,-1.88 2.19,-1.88 h 1.96 c 0,0 1.63,0.25 2.19,1.88 0.56,1.63 2.25,7.39 4.13,9.96 1.88,2.57 3.95,3.07 8.64,3.7 1.52,0.2 3.37,0.29 5.31,0.29 4.04,0 8.47,-0.37 11.22,-0.79 4.07,-0.63 5.39,-2.82 6.14,-5.45 0.75,-2.63 1.13,-7.33 1.38,-8.52 0.25,-1.19 1,-0.69 1.5,-1.88 0.52,-1.19 1.15,-4.64 0.21,-5.2 z M 141,82.96 c -0.87,-0.75 -1.75,-1.55 -2.7,-2.2 -0.11,-0.16 -0.25,-0.3 -0.4,-0.44 a 6.12,6.12 0 0 0 -1.18,-1.31 c 0.25,0.02 0.5,0.03 0.73,0.05 1.18,1.19 2.43,2.31 3.66,3.45 -0.04,0.14 -0.07,0.3 -0.11,0.45 z m -4.36,13.91 c -0.06,-0.08 -0.1,-0.16 -0.15,-0.25 0.08,-0.1 0.16,-0.2 0.23,-0.31 0.04,0.08 0.09,0.15 0.14,0.23 -0.07,0.1 -0.14,0.22 -0.22,0.33 z m -0.56,0.65 c -0.06,-0.08 -0.11,-0.17 -0.17,-0.25 0.13,-0.12 0.25,-0.24 0.36,-0.37 0.04,0.09 0.08,0.17 0.14,0.24 -0.11,0.13 -0.21,0.26 -0.33,0.38 z m -0.7,0.57 a 2,2 0 0 0 -0.19,-0.22 c 0.17,-0.12 0.33,-0.24 0.48,-0.37 0.04,0.09 0.1,0.16 0.16,0.23 -0.14,0.12 -0.28,0.25 -0.45,0.36 z m -0.78,0.43 c -0.05,-0.07 -0.11,-0.14 -0.16,-0.21 0.17,-0.09 0.32,-0.18 0.48,-0.28 0.06,0.07 0.12,0.14 0.19,0.21 -0.17,0.1 -0.32,0.2 -0.51,0.28 z m -2.21,0.56 c 0.19,-0.05 0.37,-0.11 0.55,-0.17 0.02,0.04 0.05,0.08 0.07,0.12 -0.19,0.04 -0.37,0.09 -0.57,0.12 -0.02,-0.02 -0.03,-0.05 -0.05,-0.07 z m 0.83,-0.26 c 0.12,-0.04 0.25,-0.08 0.36,-0.12 l 0.09,0.18 c -0.12,0.04 -0.26,0.07 -0.39,0.1 -0.02,-0.06 -0.03,-0.11 -0.06,-0.16 z m 0.63,-0.24 c 0.1,-0.04 0.21,-0.09 0.31,-0.14 0.03,0.07 0.07,0.15 0.1,0.22 -0.1,0.04 -0.2,0.08 -0.31,0.11 a 1.14,1.14 0 0 0 -0.1,-0.19 z m 3.07,-2.61 c 0.08,-0.13 0.15,-0.26 0.22,-0.4 0.05,-0.1 0.1,-0.23 0.15,-0.36 0.04,0.06 0.11,0.1 0.17,0.14 -0.11,0.29 -0.24,0.56 -0.38,0.83 -0.05,-0.08 -0.11,-0.15 -0.16,-0.21 z m 1.95,-7.88 c -0.03,0.23 -0.06,0.47 -0.09,0.72 -0.01,0 -0.01,-0.01 -0.02,-0.01 l 0.09,-0.72 c 0,0 0.01,0 0.02,0.01 z m -1.42,6.7 c 0.06,-0.17 0.12,-0.34 0.18,-0.53 0.05,0.05 0.1,0.1 0.15,0.14 -0.05,0.19 -0.12,0.36 -0.18,0.54 -0.04,-0.05 -0.09,-0.1 -0.15,-0.15 z m 0.32,-1.03 c 0.03,-0.11 0.06,-0.21 0.09,-0.33 0.04,0.05 0.09,0.09 0.14,0.13 l -0.09,0.35 c -0.04,-0.04 -0.09,-0.1 -0.14,-0.15 z m 0.33,-0.66 c -0.04,-0.05 -0.08,-0.11 -0.11,-0.16 0.03,-0.14 0.07,-0.27 0.1,-0.41 0.03,0.05 0.06,0.1 0.1,0.14 -0.03,0.15 -0.06,0.29 -0.09,0.43 z m 0.11,-1.14 c 0.03,-0.16 0.07,-0.31 0.1,-0.47 l 0.07,0.07 c -0.03,0.19 -0.06,0.37 -0.09,0.55 -0.02,-0.05 -0.06,-0.09 -0.08,-0.15 z m 0.19,-0.95 0.12,-0.66 c 0.01,0.01 0.03,0.02 0.04,0.02 -0.03,0.23 -0.07,0.47 -0.1,0.7 a 0.17,0.17 0 0 1 -0.06,-0.06 z m 0.24,-1.19 -0.03,-0.03 c 0.03,-0.18 0.05,-0.36 0.08,-0.54 l 0.02,0.02 c -0.02,0.18 -0.04,0.36 -0.07,0.55 z m 0.26,-2.21 c 0.04,-0.35 0.07,-0.7 0.09,-1.04 l 0.06,0.06 c -0.04,0.29 -0.08,0.63 -0.13,1.01 -0.01,-0.01 -0.01,-0.02 -0.02,-0.03 z m 0.23,-1.49 c -0.03,-0.04 -0.07,-0.08 -0.1,-0.12 0.01,-0.24 0.03,-0.49 0.03,-0.73 0.07,0.08 0.14,0.15 0.21,0.21 -0.03,0.1 -0.06,0.2 -0.09,0.32 -0.01,0.1 -0.03,0.21 -0.05,0.32 z m -0.07,-1.31 V 84.2 c 0.18,0.22 0.37,0.43 0.59,0.62 -0.1,0.11 -0.19,0.24 -0.27,0.4 -0.11,-0.13 -0.21,-0.27 -0.32,-0.41 z M 115.32,99.6 c -0.39,-0.05 -0.76,-0.11 -1.11,-0.16 0.04,-0.03 0.08,-0.08 0.12,-0.12 0.35,0.07 0.71,0.13 1.09,0.19 -0.03,0.03 -0.06,0.05 -0.1,0.09 0,-0.01 0,0 0,0 z m -1.63,-0.27 c -0.01,0.01 0,0.01 -0.01,0.02 -0.24,-0.04 -0.47,-0.08 -0.69,-0.13 0.06,-0.04 0.12,-0.1 0.17,-0.16 0.21,0.05 0.44,0.1 0.67,0.15 -0.05,0.04 -0.1,0.07 -0.14,0.12 z m -1.25,-0.24 c -0.01,0 -0.01,0.01 -0.01,0.02 -0.35,-0.08 -0.67,-0.16 -0.97,-0.26 0.1,-0.04 0.2,-0.1 0.29,-0.16 0.28,0.08 0.59,0.17 0.92,0.25 -0.08,0.05 -0.15,0.09 -0.23,0.15 z m -1.41,-0.49 c -0.03,0.02 -0.04,0.06 -0.06,0.09 -0.27,-0.1 -0.52,-0.21 -0.76,-0.33 0.08,-0.04 0.16,-0.09 0.24,-0.14 0.21,0.09 0.45,0.19 0.74,0.29 -0.05,0.03 -0.11,0.05 -0.16,0.09 z m -1.21,-0.45 c -0.13,-0.08 -0.26,-0.16 -0.38,-0.24 0.09,-0.04 0.17,-0.1 0.26,-0.15 0.12,0.1 0.24,0.17 0.36,0.24 -0.08,0.04 -0.16,0.1 -0.24,0.15 z m -0.78,-0.55 c -0.12,-0.1 -0.25,-0.21 -0.36,-0.33 0.14,-0.02 0.28,-0.05 0.41,-0.11 0.1,0.12 0.21,0.21 0.31,0.31 -0.13,0.03 -0.25,0.07 -0.36,0.13 z m -0.66,-0.64 c -0.12,-0.13 -0.23,-0.27 -0.35,-0.41 0.17,-0.01 0.34,-0.04 0.49,-0.1 0.09,0.13 0.19,0.24 0.28,0.36 -0.14,0.03 -0.28,0.09 -0.42,0.15 z m -0.62,-0.78 c -0.08,-0.12 -0.17,-0.26 -0.25,-0.39 0.2,0.04 0.4,0.06 0.61,0.03 0.05,0.08 0.1,0.15 0.15,0.23 -0.18,0.02 -0.35,0.07 -0.51,0.13 z m -0.5,-0.78 c -0.1,-0.17 -0.19,-0.36 -0.28,-0.54 0.22,0.11 0.45,0.18 0.7,0.2 0.08,0.14 0.16,0.3 0.24,0.43 -0.23,-0.02 -0.44,-0.06 -0.66,-0.09 z m -0.5,-0.96 c -0.1,-0.21 -0.21,-0.44 -0.31,-0.66 0.24,0.15 0.5,0.3 0.76,0.4 0.08,0.15 0.15,0.31 0.23,0.45 -0.21,-0.08 -0.45,-0.14 -0.68,-0.19 z m -0.51,-1.1 c -0.07,-0.16 -0.13,-0.31 -0.2,-0.47 0.21,0.12 0.42,0.22 0.66,0.28 0.08,0.18 0.16,0.34 0.25,0.51 -0.23,-0.11 -0.48,-0.22 -0.71,-0.32 z m -0.39,-0.94 c -0.07,-0.19 -0.15,-0.37 -0.22,-0.55 0.21,0.15 0.44,0.29 0.68,0.38 0.07,0.16 0.14,0.32 0.2,0.47 a 4.93,4.93 0 0 0 -0.66,-0.3 z m -0.43,-1.11 c -0.08,-0.21 -0.16,-0.42 -0.23,-0.62 0.22,0.19 0.44,0.36 0.68,0.51 0.07,0.17 0.14,0.36 0.21,0.52 -0.21,-0.15 -0.43,-0.28 -0.66,-0.41 z m -0.38,-1.06 c -0.09,-0.26 -0.18,-0.52 -0.27,-0.77 0.19,0.14 0.38,0.27 0.59,0.39 0.01,0.03 0.02,0.05 0.03,0.07 0.11,0.28 0.21,0.53 0.31,0.8 -0.22,-0.17 -0.44,-0.33 -0.66,-0.49 z m -0.47,-1.34 c -0.08,-0.23 -0.15,-0.45 -0.22,-0.66 0.19,0.2 0.39,0.39 0.62,0.53 0.06,0.19 0.13,0.39 0.2,0.59 -0.19,-0.16 -0.38,-0.31 -0.6,-0.46 z m -0.39,-1.18 a 0.983,0.983 0 0 1 -0.05,-0.16 c -0.07,-0.22 -0.14,-0.42 -0.2,-0.6 0.2,0.25 0.42,0.47 0.68,0.62 0.05,0.18 0.11,0.38 0.17,0.58 -0.2,-0.16 -0.41,-0.3 -0.6,-0.44 z m -2.61,-6.06 c 0.46,0.63 0.94,1.25 1.41,1.87 0.38,0.5 0.76,1.05 1.19,1.51 0.01,0.29 0.04,0.61 0.09,0.98 -1.06,-1.44 -2.08,-2.92 -3.21,-4.29 0.11,-0.02 0.28,-0.04 0.52,-0.07 z m 0.86,-0.11 c 0.44,0.89 1.14,1.72 1.74,2.49 0.01,0.02 0.04,0.02 0.05,0.03 -0.02,0.16 -0.04,0.33 -0.05,0.53 -0.3,-0.43 -0.65,-0.83 -0.97,-1.23 -0.45,-0.58 -0.89,-1.16 -1.35,-1.73 0.18,-0.04 0.37,-0.06 0.58,-0.09 z m 1,-0.06 c 0.3,0.48 0.66,1.08 1.16,1.37 0.02,0.01 0.04,0.01 0.06,0.01 -0.03,0.05 -0.08,0.1 -0.1,0.15 -0.09,0.19 -0.19,0.42 -0.25,0.7 -0.46,-0.75 -0.94,-1.56 -1.52,-2.22 0.21,-0.03 0.43,-0.07 0.66,-0.1 -0.02,0.02 -0.03,0.05 -0.01,0.09 z m 1.31,1.25 c 0,-0.01 0,-0.02 -0.01,-0.03 -0.32,-0.48 -0.78,-0.86 -1.12,-1.34 0,-0.01 -0.01,-0.01 -0.02,-0.01 0.13,-0.02 0.27,-0.05 0.41,-0.07 0.25,0.37 0.57,0.9 0.96,1.18 -0.08,0.09 -0.16,0.18 -0.22,0.27 z m 0.44,-0.46 c -0.17,-0.39 -0.53,-0.74 -0.83,-1.04 0.18,-0.03 0.37,-0.07 0.55,-0.11 0.22,0.29 0.45,0.59 0.71,0.85 -0.15,0.09 -0.3,0.19 -0.43,0.3 z m 0.66,-0.45 c -0.18,-0.27 -0.43,-0.52 -0.66,-0.76 0.27,-0.06 0.59,-0.12 0.95,-0.19 0.16,0.19 0.32,0.38 0.5,0.55 -0.29,0.13 -0.55,0.26 -0.79,0.4 z m 1.02,-0.49 c -0.13,-0.19 -0.29,-0.35 -0.45,-0.52 0.19,-0.04 0.4,-0.08 0.61,-0.12 0.08,0.16 0.18,0.32 0.28,0.46 -0.15,0.07 -0.3,0.12 -0.44,0.18 z m 0.67,-0.26 a 3.55,3.55 0 0 0 -0.23,-0.43 c 0.08,-0.02 0.17,-0.03 0.25,-0.05 0.08,0.13 0.18,0.26 0.27,0.38 -0.09,0.04 -0.19,0.07 -0.29,0.1 z m 0.64,-0.2 c -0.07,-0.12 -0.15,-0.23 -0.23,-0.34 l 0.33,-0.06 c 0.07,0.1 0.15,0.2 0.22,0.3 -0.11,0.03 -0.21,0.06 -0.32,0.1 z m 0.63,-0.18 c -0.06,-0.09 -0.12,-0.19 -0.19,-0.28 0.26,-0.04 0.52,-0.09 0.8,-0.13 0.07,0.07 0.14,0.14 0.21,0.2 -0.28,0.06 -0.55,0.13 -0.82,0.21 z m 1.05,-0.27 c -0.04,-0.07 -0.09,-0.13 -0.14,-0.2 0.21,-0.03 0.43,-0.07 0.64,-0.1 0.05,0.06 0.12,0.1 0.18,0.14 -0.23,0.06 -0.46,0.11 -0.68,0.16 z m 1.04,-0.22 c -0.04,-0.05 -0.08,-0.09 -0.12,-0.14 0.12,-0.02 0.25,-0.04 0.38,-0.06 0.04,0.04 0.08,0.08 0.13,0.12 -0.13,0.03 -0.26,0.06 -0.39,0.08 z m 0.66,-0.12 c -0.02,-0.04 -0.05,-0.08 -0.08,-0.12 0.12,-0.02 0.24,-0.04 0.37,-0.05 l 0.1,0.1 c -0.13,0.02 -0.26,0.04 -0.39,0.07 z m 0.69,-0.12 c -0.03,-0.03 -0.05,-0.07 -0.08,-0.1 0.29,-0.04 0.59,-0.08 0.9,-0.12 0.03,0.02 0.05,0.05 0.08,0.08 -0.31,0.04 -0.6,0.09 -0.9,0.14 z m 1.25,-0.19 c -0.02,-0.03 -0.04,-0.05 -0.06,-0.08 0.22,-0.03 0.46,-0.06 0.69,-0.08 0.03,0.02 0.06,0.05 0.09,0.07 z m 0.99,-0.13 c 0,-0.01 0,-0.03 -0.01,-0.04 l -0.03,-0.03 c 0.16,-0.02 0.32,-0.04 0.48,-0.05 0.02,0.02 0.04,0.05 0.06,0.07 -0.16,0.02 -0.33,0.03 -0.5,0.05 z m 0.83,-0.09 c -0.02,-0.02 -0.03,-0.05 -0.05,-0.07 0.23,-0.03 0.46,-0.05 0.7,-0.08 0.02,0.03 0.03,0.06 0.05,0.08 -0.24,0.02 -0.47,0.05 -0.7,0.07 z m 1.07,-0.1 a 0.555,0.555 0 0 0 -0.06,-0.08 l 0.92,-0.09 0.09,0.09 c -0.32,0.02 -0.63,0.05 -0.95,0.08 z m 1.36,-0.11 c -0.02,-0.03 -0.03,-0.07 -0.06,-0.1 0.15,-0.01 0.3,-0.03 0.45,-0.04 0.02,0.04 0.03,0.08 0.06,0.11 z m 0.85,-0.05 c -0.02,-0.04 -0.05,-0.08 -0.07,-0.12 0.21,-0.02 0.42,-0.03 0.63,-0.05 0.03,0.04 0.07,0.09 0.11,0.13 -0.22,0.01 -0.45,0.02 -0.67,0.04 z m 1.09,-0.06 c -0.04,-0.05 -0.07,-0.1 -0.11,-0.14 0.2,-0.01 0.39,-0.03 0.58,-0.04 0.04,0.06 0.1,0.11 0.15,0.16 -0.2,0.01 -0.41,0.01 -0.62,0.02 z m 0.93,-0.03 c 0,-0.01 0,-0.03 -0.01,-0.04 -0.03,-0.05 -0.05,-0.09 -0.08,-0.14 l 0.48,-0.03 c 0.04,0.07 0.08,0.13 0.13,0.19 -0.17,0.01 -0.35,0.01 -0.52,0.02 z m 0.96,-0.03 c -0.06,-0.07 -0.12,-0.13 -0.17,-0.2 l 0.58,-0.03 c 0.05,0.07 0.1,0.15 0.16,0.21 -0.19,0.01 -0.38,0.02 -0.57,0.02 z m 0.98,-0.02 c -0.04,-0.08 -0.08,-0.15 -0.13,-0.22 0.31,-0.01 0.61,-0.03 0.92,-0.04 h 0.02 c 0.07,0.09 0.15,0.16 0.22,0.23 z m 1.4,-0.05 c -0.04,-0.08 -0.09,-0.16 -0.14,-0.23 0.18,-0.01 0.36,-0.01 0.54,-0.01 0.06,0.1 0.13,0.17 0.24,0.23 -0.22,0 -0.43,0.01 -0.64,0.01 z m 0.74,-0.25 c 0.15,0 0.29,-0.01 0.44,-0.01 0.06,0.08 0.14,0.15 0.22,0.22 -0.18,0.01 -0.38,0.01 -0.56,0.02 0.01,-0.02 0.02,-0.04 0.01,-0.07 -0.04,-0.04 -0.07,-0.1 -0.11,-0.16 z m 0.93,0.2 c -0.03,-0.08 -0.08,-0.15 -0.12,-0.22 0.24,-0.01 0.47,-0.01 0.71,-0.02 0.03,0.07 0.07,0.14 0.11,0.22 -0.23,0.01 -0.47,0.01 -0.7,0.02 z m 0.92,-0.03 c -0.02,-0.07 -0.05,-0.14 -0.08,-0.21 0.33,-0.01 0.67,-0.01 1,-0.01 0.02,0.06 0.04,0.13 0.06,0.19 z m 1.24,-0.04 -0.06,-0.18 c 0.26,0 0.53,-0.01 0.79,-0.01 0.06,0.06 0.12,0.11 0.18,0.17 -0.3,0.01 -0.6,0.01 -0.91,0.02 z m 1.28,-0.03 a 1.07,1.07 0 0 0 -0.14,-0.16 h 0.62 c 0.05,0.05 0.09,0.1 0.14,0.15 -0.21,0 -0.42,0.01 -0.62,0.01 z m 0.96,-0.01 c -0.04,-0.05 -0.08,-0.1 -0.13,-0.15 h 0.29 c 0.04,0.05 0.09,0.1 0.13,0.14 -0.1,0.01 -0.2,0.01 -0.29,0.01 z m 0.73,-0.01 h -0.09 c -0.04,-0.04 -0.07,-0.09 -0.11,-0.13 0.14,0 0.29,0 0.43,0.01 0.05,0.05 0.11,0.09 0.17,0.13 -0.13,0 -0.26,-0.01 -0.4,-0.01 z m 0.77,0.01 c 0,-0.01 0,-0.02 -0.01,-0.02 -0.04,-0.04 -0.09,-0.07 -0.13,-0.11 0.23,0 0.45,0.01 0.67,0.01 0.05,0.05 0.1,0.09 0.16,0.13 -0.22,0 -0.46,0 -0.69,-0.01 z m 1.19,-0.07 c -0.02,-0.01 -0.03,-0.02 -0.05,-0.04 0.27,0.01 0.53,0.01 0.78,0.02 0.1,0.07 0.2,0.12 0.3,0.18 -0.31,-0.03 -0.64,-0.04 -0.98,-0.06 0.01,-0.03 0,-0.07 -0.05,-0.1 z m 1.42,0.21 c -0.08,-0.07 -0.17,-0.14 -0.26,-0.21 l 0.76,0.03 c 0.12,0.1 0.25,0.2 0.38,0.29 -0.28,-0.04 -0.58,-0.08 -0.88,-0.11 z m 1.91,0.33 a 6.87,6.87 0 0 0 -0.68,-0.48 c 0.3,0.01 0.58,0.03 0.86,0.04 0.25,0.25 0.5,0.5 0.74,0.75 -0.28,-0.12 -0.59,-0.22 -0.92,-0.31 z m 1.82,-0.33 c 0.28,0.02 0.55,0.04 0.8,0.07 0.73,0.93 1.61,1.8 2.58,2.5 -0.02,0.13 -0.03,0.27 -0.06,0.4 -1.09,-1 -2.18,-2.01 -3.32,-2.97 z m 2.07,0.2 c 0.45,0.51 0.88,1.06 1.4,1.49 -0.01,0.14 -0.02,0.29 -0.04,0.44 -0.76,-0.67 -1.52,-1.34 -2.27,-2.03 0.33,0.03 0.64,0.07 0.91,0.1 z m 0.77,0.12 c 0.2,0.28 0.41,0.58 0.64,0.84 v 0.25 c -0.31,-0.41 -0.68,-0.79 -1.05,-1.16 0.15,0.02 0.29,0.04 0.41,0.07 z m 0.5,0.13 c 0,0 -0.01,-0.01 0,0 -0.01,-0.01 0,-0.01 0,0 0,-0.01 0,0 0,0 z m -42.32,4.62 -0.06,0.01 h -0.01 c -0.67,-0.99 -1.55,-1.9 -2.38,-2.77 0.46,0.08 0.89,0.14 1.25,0.19 0.21,0.44 0.45,0.85 0.72,1.26 0.3,0.45 0.61,0.96 1.03,1.31 z m -0.87,0.27 c -0.53,-0.6 -1.17,-1.14 -1.72,-1.72 -0.48,-0.51 -0.92,-1.05 -1.37,-1.58 0.39,0.08 0.78,0.15 1.15,0.22 0.76,0.98 1.53,2.04 2.43,2.9 -0.13,0.03 -0.3,0.09 -0.49,0.18 z m -0.84,0.51 C 96.86,84.54 96.47,84.2 96.12,83.85 95.86,83.6 95.6,83.34 95.34,83.09 95.33,83.06 95.31,83.03 95.3,83.01 c -0.17,-0.34 -0.49,-0.65 -0.91,-0.94 0.02,-0.03 0.02,-0.06 0.01,-0.09 -0.18,-0.41 -0.45,-0.76 -0.72,-1.11 0.31,0.06 0.58,0.12 0.82,0.17 0.48,0.67 1,1.31 1.55,1.92 0.5,0.55 1.03,1.16 1.62,1.64 -0.16,0.08 -0.33,0.2 -0.49,0.33 z m -0.45,0.42 c -0.35,-0.19 -0.71,-0.38 -1.06,-0.56 0,-0.42 -0.04,-0.76 -0.11,-1.04 0.14,0.13 0.27,0.26 0.4,0.39 0.33,0.32 0.66,0.67 1.03,0.96 -0.09,0.08 -0.17,0.16 -0.26,0.25 z m -0.5,0.78 c -0.19,-0.14 -0.4,-0.24 -0.61,-0.35 h -0.03 c 0.03,-0.21 0.05,-0.41 0.06,-0.6 0.25,0.21 0.56,0.37 0.87,0.45 -0.1,0.15 -0.2,0.31 -0.29,0.5 z m -0.61,1.71 c -0.09,-0.14 -0.21,-0.26 -0.36,-0.38 0.05,-0.21 0.1,-0.4 0.14,-0.59 0.13,0.11 0.27,0.21 0.43,0.3 -0.04,0.12 -0.08,0.24 -0.12,0.37 -0.03,0.09 -0.06,0.2 -0.09,0.3 z m -0.31,0.93 c -0.11,-0.1 -0.22,-0.2 -0.35,-0.28 0.07,-0.22 0.13,-0.42 0.19,-0.62 0.11,0.1 0.24,0.17 0.39,0.22 -0.08,0.21 -0.15,0.43 -0.23,0.68 z m -0.8,2.26 c -0.13,-0.08 -0.27,-0.16 -0.4,-0.23 0.05,-0.14 0.11,-0.27 0.16,-0.42 0.13,0.09 0.26,0.16 0.4,0.22 -0.05,0.14 -0.1,0.29 -0.16,0.43 z m -0.32,0.86 c -0.12,-0.11 -0.25,-0.2 -0.4,-0.28 0.06,-0.14 0.12,-0.3 0.17,-0.44 0.12,0.1 0.26,0.17 0.42,0.19 -0.05,0.17 -0.12,0.35 -0.19,0.53 z m -0.25,0.62 c -0.13,-0.09 -0.28,-0.16 -0.44,-0.21 0.06,-0.13 0.11,-0.26 0.17,-0.4 0.13,0.09 0.27,0.17 0.43,0.22 -0.05,0.13 -0.11,0.26 -0.16,0.39 z m -0.69,1.59 c -0.15,-0.09 -0.3,-0.17 -0.46,-0.23 0.07,-0.14 0.13,-0.27 0.2,-0.42 0.16,0.05 0.32,0.08 0.49,0.09 0.01,0 0.02,-0.01 0.03,-0.01 -0.09,0.19 -0.17,0.39 -0.26,0.57 z m -0.33,0.66 c -0.15,-0.08 -0.29,-0.17 -0.42,-0.3 0.05,-0.09 0.09,-0.2 0.14,-0.29 0.15,0.08 0.31,0.15 0.48,0.21 -0.06,0.13 -0.13,0.25 -0.2,0.38 z m -0.41,0.77 c -0.14,-0.11 -0.27,-0.23 -0.37,-0.4 l 0.18,-0.33 c 0.12,0.13 0.27,0.23 0.44,0.28 -0.09,0.15 -0.17,0.3 -0.25,0.45 z m -0.49,0.76 -0.03,0.03 c -0.12,-0.11 -0.25,-0.21 -0.39,-0.31 0.11,-0.17 0.22,-0.33 0.33,-0.52 0.09,0.15 0.22,0.28 0.37,0.35 -0.1,0.16 -0.19,0.32 -0.28,0.45 z m -0.71,0.84 c -0.1,-0.1 -0.2,-0.19 -0.31,-0.27 0.14,-0.18 0.29,-0.37 0.44,-0.59 0.12,0.1 0.25,0.19 0.38,0.28 -0.17,0.21 -0.33,0.4 -0.51,0.58 z m -0.77,0.68 c -0.09,-0.05 -0.17,-0.11 -0.25,-0.19 0.17,-0.15 0.34,-0.32 0.52,-0.52 0.09,0.09 0.19,0.17 0.28,0.25 -0.17,0.17 -0.36,0.32 -0.55,0.46 z m -0.92,0.56 c -0.05,-0.06 -0.11,-0.12 -0.16,-0.18 0.03,-0.01 0.08,-0.03 0.1,-0.05 0.16,-0.08 0.33,-0.2 0.49,-0.32 0.06,0.07 0.13,0.13 0.2,0.19 -0.2,0.13 -0.41,0.25 -0.63,0.36 z m -1.03,0.42 c -0.05,-0.07 -0.09,-0.14 -0.13,-0.21 0.25,-0.08 0.47,-0.16 0.66,-0.24 0.07,0.06 0.15,0.11 0.23,0.16 -0.24,0.1 -0.49,0.2 -0.76,0.29 z m -2.96,0.65 c -0.02,-0.04 -0.03,-0.09 -0.05,-0.13 0.34,-0.07 0.66,-0.13 0.97,-0.2 0.02,0.06 0.05,0.11 0.08,0.17 -0.31,0.04 -0.64,0.1 -1,0.16 z m -0.37,-0.07 c 0.01,0.04 0.02,0.08 0.04,0.12 -0.22,0.03 -0.43,0.06 -0.66,0.1 -0.01,-0.03 -0.02,-0.07 -0.04,-0.1 0.22,-0.05 0.44,-0.08 0.66,-0.12 z m 1.54,-0.33 c 0.2,-0.05 0.41,-0.1 0.59,-0.14 0.04,0.07 0.08,0.13 0.12,0.19 -0.21,0.05 -0.42,0.09 -0.64,0.14 -0.02,-0.07 -0.04,-0.13 -0.07,-0.19 z m 0.9,-0.23 c 0.14,-0.04 0.27,-0.08 0.39,-0.11 0.03,0.08 0.07,0.15 0.12,0.21 -0.13,0.04 -0.26,0.07 -0.4,0.11 -0.03,-0.08 -0.07,-0.15 -0.11,-0.21 z m 5.84,-5.49 c -0.14,-0.07 -0.28,-0.11 -0.42,-0.14 0.09,-0.19 0.17,-0.4 0.26,-0.6 0.15,0.08 0.3,0.14 0.46,0.18 -0.09,0.21 -0.17,0.41 -0.26,0.61 -0.01,-0.02 -0.02,-0.04 -0.04,-0.05 z m 0.86,-3.24 c 0.02,-0.06 0.04,-0.1 0.06,-0.16 0.04,-0.12 0.08,-0.22 0.12,-0.33 0.12,0.08 0.24,0.16 0.37,0.23 -0.05,0.15 -0.11,0.31 -0.16,0.46 -0.13,-0.07 -0.26,-0.14 -0.39,-0.2 z m 0.63,-0.49 c -0.12,-0.09 -0.23,-0.17 -0.36,-0.25 0.06,-0.18 0.12,-0.35 0.18,-0.52 0.11,0.1 0.23,0.17 0.36,0.25 -0.06,0.18 -0.12,0.34 -0.18,0.52 z m -22.7,-10.6 c -0.05,-0.07 -0.1,-0.13 -0.16,-0.19 0.27,0 0.53,0 0.8,0.01 0.06,0.07 0.14,0.14 0.21,0.21 z m 1.16,0.04 c -0.05,-0.08 -0.1,-0.15 -0.15,-0.22 0.31,0 0.61,0.01 0.91,0.02 0.06,0.08 0.12,0.16 0.19,0.23 z m 1.24,0.04 c -0.06,-0.08 -0.13,-0.16 -0.2,-0.23 0.25,0.01 0.49,0.01 0.74,0.02 l 0.18,0.24 c -0.24,-0.02 -0.48,-0.02 -0.72,-0.03 z m 0.98,0.03 c -0.05,-0.08 -0.11,-0.16 -0.17,-0.24 0.22,0.01 0.44,0.01 0.65,0.02 0.09,0.09 0.18,0.17 0.28,0.25 z m 1.19,0.04 c -0.07,-0.09 -0.15,-0.17 -0.24,-0.24 0.34,0.01 0.68,0.03 1.02,0.04 0.06,0.08 0.13,0.15 0.2,0.23 -0.33,-0.02 -0.66,-0.03 -0.98,-0.03 z m 1.31,0.03 c -0.04,-0.08 -0.09,-0.15 -0.14,-0.22 0.31,0.02 0.61,0.03 0.92,0.05 0.06,0.07 0.11,0.13 0.17,0.19 -0.17,0 -0.34,-0.01 -0.51,-0.02 -0.15,0.01 -0.29,0 -0.44,0 z m 1.23,0.04 c -0.05,-0.06 -0.09,-0.12 -0.14,-0.18 0.33,0.02 0.65,0.04 0.98,0.07 0.02,0.05 0.04,0.11 0.06,0.15 -0.31,-0.02 -0.61,-0.03 -0.9,-0.04 z m 1.18,0.04 -0.06,-0.15 c 0.2,0.01 0.4,0.03 0.6,0.04 0.05,0.05 0.1,0.09 0.15,0.14 -0.23,-0.01 -0.46,-0.01 -0.69,-0.03 z m 1.22,0.07 c -0.04,-0.05 -0.07,-0.08 -0.11,-0.12 0.21,0.02 0.41,0.03 0.62,0.05 0.04,0.04 0.07,0.08 0.1,0.11 -0.2,-0.01 -0.4,-0.02 -0.61,-0.04 z m 1.11,0.08 c -0.01,-0.01 0,-0.03 -0.01,-0.04 -0.02,-0.02 -0.05,-0.04 -0.07,-0.07 0.35,0.03 0.7,0.07 1.04,0.1 L 84,79.48 C 83.65,79.46 83.3,79.43 82.95,79.4 Z m 1.35,0.13 a 0.405,0.405 0 0 1 -0.05,-0.09 c 0.32,0.03 0.63,0.07 0.94,0.1 l 0.09,0.09 C 84.96,79.6 84.63,79.56 84.3,79.53 Z m 1.24,0.14 c -0.03,-0.03 -0.06,-0.06 -0.08,-0.09 0.32,0.04 0.63,0.08 0.93,0.11 0.02,0.03 0.03,0.06 0.05,0.09 -0.3,-0.04 -0.59,-0.08 -0.9,-0.11 z m 1.31,0.17 a 0.467,0.467 0 0 0 -0.05,-0.1 c 0.32,0.04 0.63,0.08 0.94,0.13 0.02,0.04 0.05,0.09 0.08,0.12 -0.32,-0.05 -0.64,-0.1 -0.97,-0.15 z m 1.36,0.22 c 0,-0.05 -0.02,-0.09 -0.03,-0.13 0.25,0.04 0.51,0.07 0.75,0.11 0.06,0.07 0.13,0.13 0.19,0.19 -0.29,-0.06 -0.6,-0.11 -0.91,-0.17 z m 1.3,0.26 c 0,-0.01 0,-0.02 -0.01,-0.03 -0.05,-0.06 -0.1,-0.12 -0.16,-0.18 0.26,0.04 0.52,0.08 0.77,0.12 0.06,0.09 0.13,0.18 0.2,0.27 -0.25,-0.07 -0.52,-0.13 -0.8,-0.18 z m 1.1,0.25 v -0.03 c -0.04,-0.09 -0.09,-0.17 -0.14,-0.26 0.24,0.04 0.48,0.08 0.71,0.12 0.18,0.19 0.37,0.36 0.6,0.5 0.06,0.04 0.14,-0.04 0.1,-0.1 -0.07,-0.11 -0.15,-0.21 -0.23,-0.32 0.25,0.04 0.48,0.08 0.7,0.13 0.13,0.21 0.26,0.42 0.4,0.63 -0.64,-0.25 -1.35,-0.47 -2.14,-0.67 z m 2.5,0.81 c -0.13,-0.25 -0.29,-0.48 -0.45,-0.72 0.24,0.05 0.47,0.09 0.69,0.13 0.21,0.37 0.44,0.73 0.71,1.06 -0.29,-0.16 -0.6,-0.32 -0.95,-0.47 z m 6.52,2.7 c -0.26,-0.5 -0.66,-0.92 -0.98,-1.39 -0.24,-0.35 -0.46,-0.72 -0.69,-1.08 0.53,0.07 0.87,0.1 0.91,0.11 h 0.03 c 0.41,0.84 0.87,1.67 1.43,2.42 h -0.68 c 0,-0.01 -0.01,-0.03 -0.02,-0.06 z M 71.59,78.79 c 0.05,0.06 0.1,0.12 0.16,0.18 C 71.51,78.96 71.28,78.96 71.04,78.95 71,78.89 70.95,78.84 70.91,78.78 h 0.03 c 0.22,0.01 0.43,0.01 0.65,0.01 z m -5,20.01 c -0.04,0.05 -0.08,0.11 -0.1,0.15 -0.26,-0.07 -0.49,-0.15 -0.72,-0.24 0.05,-0.05 0.1,-0.11 0.16,-0.18 0.21,0.1 0.43,0.19 0.66,0.27 z m -1.12,-0.19 c -0.26,-0.11 -0.5,-0.24 -0.73,-0.37 0.07,-0.06 0.13,-0.13 0.19,-0.21 0.23,0.14 0.47,0.27 0.73,0.4 -0.08,0.04 -0.14,0.11 -0.19,0.18 z m -1.01,-0.53 c -0.15,-0.1 -0.27,-0.21 -0.4,-0.32 0.05,-0.08 0.1,-0.16 0.14,-0.25 0.16,0.13 0.32,0.26 0.5,0.38 -0.09,0.06 -0.17,0.12 -0.24,0.19 z m -0.6,-0.48 c -0.15,-0.14 -0.29,-0.3 -0.42,-0.45 0.06,-0.06 0.12,-0.13 0.18,-0.2 0.14,0.15 0.28,0.3 0.43,0.45 -0.07,0.06 -0.13,0.12 -0.19,0.2 z m -0.59,-0.65 c -0.15,-0.2 -0.28,-0.41 -0.41,-0.63 0.06,-0.04 0.12,-0.09 0.19,-0.14 0.13,0.21 0.27,0.4 0.42,0.59 -0.07,0.06 -0.13,0.12 -0.2,0.18 z M 62.73,96.09 A 7.89,7.89 0 0 1 62.5,95.58 c 0.06,-0.03 0.12,-0.07 0.18,-0.1 0.01,0.03 0.02,0.06 0.03,0.08 0.07,0.14 0.14,0.26 0.22,0.4 -0.07,0.04 -0.14,0.08 -0.2,0.13 z m -0.34,-0.76 c -0.05,-0.13 -0.1,-0.27 -0.15,-0.4 a 0.99,0.99 0 0 0 0.17,-0.11 c 0.05,0.15 0.11,0.28 0.16,0.41 -0.06,0.03 -0.12,0.07 -0.18,0.1 z m -0.23,-0.65 c -0.04,-0.13 -0.09,-0.26 -0.13,-0.4 L 62,94.18 c 0.05,-0.02 0.11,-0.05 0.17,-0.07 0.05,0.17 0.1,0.33 0.15,0.48 -0.05,0.03 -0.11,0.05 -0.16,0.09 z m -0.23,-0.79 c -0.04,-0.16 -0.08,-0.32 -0.12,-0.49 0.05,-0.01 0.1,-0.04 0.15,-0.06 0.05,0.18 0.09,0.35 0.14,0.51 -0.06,0.01 -0.12,0.02 -0.17,0.04 z M 59.85,83.34 c -0.36,-0.29 -0.72,-0.59 -1.11,-0.86 -0.04,-0.21 -0.08,-0.42 -0.11,-0.63 0.68,0.77 1.46,1.48 2.16,2.21 v 0.04 c -0.31,-0.26 -0.63,-0.51 -0.94,-0.76 z m -1.03,-3.87 c 0.64,0.84 1.42,1.58 2.23,2.24 0.01,0.01 0.02,0 0.04,0.01 -0.05,0.17 -0.09,0.36 -0.12,0.56 a 39.95,39.95 0 0 1 -2.42,-2.45 c 0.02,-0.13 0.05,-0.24 0.1,-0.3 0.04,-0.02 0.1,-0.04 0.17,-0.06 z m 2.07,3.27 c -0.03,0.19 -0.05,0.39 -0.07,0.6 -0.74,-0.79 -1.47,-1.62 -2.29,-2.31 -0.02,-0.31 -0.04,-0.61 -0.02,-0.85 0.68,0.94 1.47,1.83 2.38,2.56 z m -0.06,3.47 c -0.04,-0.03 -0.08,-0.07 -0.12,-0.1 -0.02,-0.11 -0.04,-0.22 -0.05,-0.3 -0.03,-0.14 -0.07,-0.26 -0.11,-0.38 0.08,0.05 0.17,0.1 0.25,0.15 z m 0.03,0.42 c 0.06,0.84 0.16,1.7 0.28,2.55 l -0.02,-0.02 c -0.05,-0.41 -0.1,-0.8 -0.15,-1.17 l -0.18,-1.42 c 0.02,0.02 0.05,0.04 0.07,0.06 z m 0.42,3.75 -0.09,-0.68 c 0.01,0.01 0.02,0.01 0.03,0.02 0.04,0.23 0.07,0.46 0.11,0.68 -0.01,0 -0.02,-0.01 -0.05,-0.02 0.01,0 0.01,0 0,0 z m 0.36,2.16 h 0.13 c 0.05,0.2 0.09,0.38 0.14,0.57 -0.05,0.01 -0.1,0.01 -0.15,0.02 -0.05,-0.2 -0.09,-0.39 -0.12,-0.59 z m -0.04,-0.2 c -0.05,-0.25 -0.09,-0.51 -0.13,-0.77 0.03,0 0.06,0.01 0.09,0.01 0.05,0.26 0.11,0.52 0.17,0.77 -0.05,0 -0.09,-0.01 -0.13,-0.01 z m -0.18,-1.07 c -0.02,-0.14 -0.04,-0.29 -0.07,-0.43 0.02,0.01 0.05,0.01 0.07,0.02 0.03,0.14 0.05,0.28 0.08,0.42 -0.03,-0.01 -0.06,-0.01 -0.08,-0.01 z m -0.14,-10.1 c -0.01,0.03 -0.02,0.08 -0.04,0.11 -0.7,-0.59 -1.32,-1.24 -1.93,-1.92 0.16,-0.03 0.33,-0.05 0.54,-0.08 0.07,0.3 0.46,0.58 0.65,0.77 0.3,0.3 0.62,0.59 0.96,0.84 -0.07,0.1 -0.14,0.18 -0.18,0.28 z m 0.39,-0.6 c -0.32,-0.28 -0.65,-0.55 -0.95,-0.86 -0.13,-0.13 -0.26,-0.33 -0.42,-0.48 0.22,-0.02 0.45,-0.05 0.7,-0.07 0.32,0.37 0.67,0.75 1.05,1.07 -0.14,0.11 -0.28,0.22 -0.38,0.34 z m 0.65,-0.55 C 62.06,79.7 61.75,79.41 61.44,79.13 l 0.75,-0.06 c 0.19,0.24 0.39,0.51 0.62,0.7 -0.17,0.07 -0.34,0.15 -0.49,0.25 z m 0.77,-0.39 c -0.13,-0.22 -0.32,-0.41 -0.52,-0.59 0.23,-0.02 0.46,-0.03 0.71,-0.04 0.12,0.16 0.24,0.31 0.36,0.46 -0.19,0.05 -0.38,0.1 -0.55,0.17 z m 0.8,-0.25 c -0.1,-0.14 -0.19,-0.27 -0.29,-0.4 0.14,-0.01 0.29,-0.02 0.44,-0.02 0.09,0.12 0.2,0.23 0.31,0.33 -0.16,0.03 -0.32,0.05 -0.46,0.09 z m 0.9,-0.18 c -0.07,-0.1 -0.14,-0.19 -0.23,-0.27 l 0.66,-0.03 c 0.07,0.07 0.13,0.14 0.2,0.21 -0.21,0.03 -0.43,0.06 -0.63,0.09 z m 1.02,-0.13 c -0.05,-0.06 -0.1,-0.13 -0.16,-0.19 l 1.02,-0.03 c 0.05,0.05 0.09,0.1 0.14,0.14 -0.34,0.02 -0.68,0.05 -1,0.08 z m 1.34,-0.09 c -0.04,-0.05 -0.07,-0.09 -0.12,-0.14 0.25,-0.01 0.51,-0.01 0.78,-0.02 0.04,0.04 0.07,0.09 0.12,0.13 -0.27,0 -0.53,0.01 -0.78,0.03 z m 1.23,-0.04 c -0.03,-0.04 -0.07,-0.09 -0.11,-0.13 0.38,-0.01 0.77,-0.01 1.17,-0.02 l 0.14,0.14 h -0.49 c -0.25,0 -0.48,0.01 -0.71,0.01 z m 1.49,0 c -0.04,-0.05 -0.1,-0.1 -0.14,-0.14 h 0.86 c 0.05,0.06 0.1,0.11 0.15,0.16 -0.3,-0.01 -0.58,-0.02 -0.87,-0.02 z m -10.97,4.21 0.78,0.63 c 0.37,0.3 0.73,0.6 1.1,0.88 v 0.43 c -0.32,-0.23 -0.67,-0.44 -1.01,-0.63 -0.05,-0.03 -0.11,-0.07 -0.15,-0.1 -0.23,-0.14 -0.36,-0.22 -0.51,-0.57 -0.07,-0.18 -0.14,-0.41 -0.21,-0.64 z m 7.94,15.88 c 0.01,-0.03 0.02,-0.07 0.04,-0.14 0.26,0.08 0.54,0.16 0.83,0.24 -0.01,0.02 -0.01,0.05 -0.02,0.07 -0.04,-0.01 -0.09,-0.01 -0.13,-0.02 -0.26,-0.03 -0.48,-0.09 -0.72,-0.15 z m 1.07,0.21 c 0,-0.02 0,-0.03 0.01,-0.05 0.15,0.04 0.29,0.08 0.45,0.11 -0.17,-0.02 -0.31,-0.04 -0.46,-0.06 z m 9.12,0.11 c -0.9,0 -1.81,-0.03 -2.74,-0.09 -6.88,-0.43 -9.67,-1.43 -10.91,-4.03 -1.24,-2.6 -2.54,-11.28 -1.43,-13.76 0.65,-1.45 3.31,-1.8 7.13,-1.8 2.7,0 5.98,0.17 9.54,0.25 8.62,0.19 15.16,1.75 15.99,3.41 0.31,0.62 0.74,2.05 -0.87,6.32 -1.61,4.28 -3.14,7.12 -4.53,7.81 -1.55,0.8 -6.43,1.89 -12.18,1.89 z m 6.18,0.34 c 0.01,0.02 0.01,0.05 0.02,0.07 -0.23,0.02 -0.45,0.05 -0.69,0.07 -0.01,-0.02 -0.01,-0.03 -0.02,-0.05 0.24,-0.03 0.47,-0.06 0.69,-0.09 z m -0.97,0.12 c 0,0.01 0.01,0.03 0.01,0.04 -0.3,0.02 -0.61,0.05 -0.93,0.06 0.31,-0.03 0.61,-0.07 0.92,-0.1 z m 1.64,-0.12 c -0.12,0.02 -0.26,0.03 -0.38,0.04 -0.01,-0.03 -0.02,-0.05 -0.02,-0.08 0.26,-0.04 0.53,-0.07 0.78,-0.11 0.01,0.03 0.02,0.06 0.04,0.09 z M 95.91,86.94 c -0.13,-0.16 -0.27,-0.29 -0.43,-0.42 0.04,-0.18 0.07,-0.35 0.09,-0.51 0.19,0.12 0.37,0.23 0.58,0.3 -0.03,0.07 -0.07,0.14 -0.1,0.21 -0.04,0.13 -0.09,0.27 -0.14,0.42 z m 5.05,-2.79 h -0.32 c -0.51,-0.8 -1.01,-1.59 -1.46,-2.42 h 0.49 c 0.28,0.58 0.73,1.09 1.11,1.6 0.25,0.34 0.52,0.66 0.78,0.99 -0.3,-0.11 -0.52,-0.15 -0.55,-0.15 z m 1.23,0.44 c -0.38,-0.58 -0.8,-1.12 -1.21,-1.67 -0.31,-0.4 -0.6,-0.84 -0.95,-1.2 h 0.74 c 0.99,1.75 2.32,3.36 3.61,4.89 0.01,0.01 0.02,0.01 0.03,0.01 0.02,0.1 0.05,0.21 0.07,0.32 -0.23,-0.32 -0.52,-0.62 -0.76,-0.88 -0.04,-0.04 -0.09,-0.05 -0.13,-0.04 a 3.84,3.84 0 0 0 -1.4,-1.43 z m 13.78,15.1 c -0.05,-0.01 -0.09,-0.01 -0.14,-0.02 0.02,-0.02 0.04,-0.06 0.06,-0.08 0.82,0.13 1.71,0.24 2.64,0.32 -0.95,-0.05 -1.81,-0.12 -2.56,-0.22 z m 6.85,-0.34 c -5.74,0 -10.62,-1.09 -12.19,-1.88 -1.39,-0.7 -2.92,-3.54 -4.53,-7.81 -1.61,-4.28 -1.18,-5.7 -0.87,-6.32 0.83,-1.66 7.38,-3.22 15.99,-3.41 3.57,-0.08 6.85,-0.25 9.54,-0.25 3.82,0 6.48,0.35 7.13,1.8 1.12,2.48 -0.19,11.16 -1.43,13.76 -1.24,2.6 -4.03,3.59 -10.91,4.03 -0.92,0.06 -1.84,0.08 -2.73,0.08 z m 9.4,-0.23 c 0.02,0.02 0.04,0.05 0.06,0.07 -0.25,0.04 -0.51,0.08 -0.79,0.11 0.26,-0.05 0.49,-0.12 0.73,-0.18 z m 7.69,-14.55 c -0.25,-0.31 -0.58,-0.58 -0.87,-0.81 -0.02,-0.36 -0.05,-0.71 -0.09,-1.03 0.16,0.17 0.31,0.34 0.47,0.5 0.32,0.33 0.63,0.7 1.02,0.95 0.01,0.01 0.02,0 0.03,0.01 -0.07,0.07 -0.15,0.12 -0.26,0.18 -0.08,0.05 -0.19,0.12 -0.3,0.2 z m 0.67,-0.51 v -0.02 c -0.24,-0.39 -0.61,-0.71 -0.93,-1.03 -0.25,-0.25 -0.51,-0.5 -0.76,-0.74 -0.05,-0.28 -0.11,-0.52 -0.19,-0.75 0.71,0.63 1.48,1.21 2.2,1.8 -0.05,0.17 -0.11,0.33 -0.17,0.47 -0.05,0.12 -0.1,0.2 -0.15,0.27 z"
             fill="#000000"
             stroke-width="none"
             opacity="1"
             style="stroke-width:0.999897;stroke-miterlimit:4;stroke-dasharray:none" />
        </g>
      </g>
    </g>
  </g>
</svg>
