<?xml version="1.0" encoding="UTF-8" standalone="no"?>
<!-- Created with Inkscape (http://www.inkscape.org/) -->

<svg
   width="2000"
   height="1000"
   viewBox="0 0 529.16665 264.58334"
   version="1.1"
   id="svg24"
   inkscape:version="1.1.2 (0a00cf5339, 2022-02-04)"
   sodipodi:docname="header-logo.svg"
   xmlns:inkscape="http://www.inkscape.org/namespaces/inkscape"
   xmlns:sodipodi="http://sodipodi.sourceforge.net/DTD/sodipodi-0.dtd"
   xmlns="http://www.w3.org/2000/svg"
   xmlns:svg="http://www.w3.org/2000/svg">
  <sodipodi:namedview
     id="namedview26"
     pagecolor="#505050"
     bordercolor="#ffffff"
     borderopacity="1"
     inkscape:pageshadow="0"
     inkscape:pageopacity="0"
     inkscape:pagecheckerboard="1"
     inkscape:document-units="mm"
     showgrid="false"
     units="px"
     inkscape:showpageshadow="false"
     inkscape:zoom="0.26582969"
     inkscape:cx="566.15196"
     inkscape:cy="829.47845"
     inkscape:window-width="1862"
     inkscape:window-height="1016"
     inkscape:window-x="58"
     inkscape:window-y="27"
     inkscape:window-maximized="1"
     inkscape:current-layer="layer1" />
  <defs
     id="defs21">
    <linearGradient
       id="SvgjsLinearGradient13002"
       x1="78.4207"
       y1="78.8847"
       x2="78.4207"
       y2="99.8607"
       gradientUnits="userSpaceOnUse"
       class="svga-on-canvas-glasses-gradient-single-0-null">
      <stop
         id="SvgjsStop13003"
         stop-opacity="1"
         stop-color="#ffffff"
         offset="0.0708" />
      <stop
         id="SvgjsStop13004"
         stop-opacity="0"
         stop-color="#ffffff"
         offset="1" />
    </linearGradient>
    <linearGradient
       id="SvgjsLinearGradient13006"
       x1="35.2707"
       y1="78.8847"
       x2="35.2707"
       y2="99.8607"
       gradientTransform="matrix(-1,0,0,1,156.7,0)"
       gradientUnits="userSpaceOnUse"
       class="svga-on-canvas-glasses-gradient-single-1-null">
      <stop
         id="SvgjsStop13007"
         stop-opacity="1"
         stop-color="#ffffff"
         offset="0.0708" />
      <stop
         id="SvgjsStop13008"
         stop-opacity="0"
         stop-color="#ffffff"
         offset="1" />
    </linearGradient>
  </defs>
  <g
     inkscape:label="Layer 1"
     inkscape:groupmode="layer"
     id="layer1">
    <rect
       style="fill:#343a40;fill-opacity:1;fill-rule:evenodd;stroke-width:0.264583"
       id="rect50"
       width="529.16669"
       height="264.58334"
       x="0"
       y="0" />
    <ellipse
       style="fill:#ff2a2a;fill-opacity:1;stroke-width:0.434056"
       id="path1634"
       cx="264.58334"
       cy="124.35415"
       rx="105.83334"
       ry="105.83334" />
    <g
       id="svga-group-humanwrap-move"
       transform="matrix(0.9380967,0,0,0.93809629,170.59554,38.829777)">
      <g
         id="svga-group-humanwrap">
        <g
           id="svga-group-hair-back-move">
          <g
             id="svga-group-hair-back" />
        </g>
        <g
           id="svga-group-humanbody-back">
          <path
             id="SvgjsPath12987"
             d="m 77.6,118.3 c 0,19.3 3.4,44.1 -10,51.9 -13.4,7.9 -31.9,11.3 -37.8,22 -5.9,10.7 -4.4,25.3 -4.4,25.3 h 149.3 c 0,0 0.7,-18.9 -5.1,-26.4 -8.1,-10.4 -27.8,-15.5 -37.7,-20.9 -9.9,-5.4 -13.4,-25.1 -13.4,-52.4 z"
             fill="#ffffff"
             stroke-width="none"
             opacity="1" />
          <path
             id="SvgjsPath12988"
             d="M 175.8,218.7 H 24.4 l -0.1,-1 c -0.1,-0.6 -1.5,-15.1 4.5,-26 4.1,-7.4 13.5,-11.3 23.5,-15.5 5,-2.1 10.2,-4.3 14.8,-6.9 10.6,-6.2 10.1,-23.9 9.6,-41 -0.1,-3.5 -0.2,-6.8 -0.2,-10 v -1.1 l 43.2,-0.4 v 1.1 c 0,29.9 4.2,46.7 12.8,51.4 2.9,1.6 6.7,3.2 10.8,4.9 10,4.1 21.3,8.8 27.2,16.3 6.1,7.7 5.4,26.4 5.4,27.1 z M 26.5,216.5 h 147.1 c 0,-4.1 -0.2,-18.5 -4.9,-24.6 -5.5,-7 -16.6,-11.6 -26.3,-15.6 -4.1,-1.7 -8,-3.3 -11,-5 -5.1,-2.8 -8.7,-8.9 -10.9,-18.7 -2,-8.4 -2.9,-19.4 -3,-33.5 l -38.6,0.4 c 0,2.8 0.1,5.7 0.2,8.8 0.5,17.8 1,36.1 -10.7,43 -4.7,2.7 -9.9,4.9 -15,7.1 -9.6,4 -18.7,7.8 -22.4,14.5 -5,8.6 -4.7,20.1 -4.5,23.6 z"
             fill="#000000"
             stroke-width="none"
             opacity="1" />
          <path
             id="SvgjsPath12989"
             d="m 93.9,153.8 c -0.5,1.8 -0.4,3.4 0.5,5.2 0.8,1.6 2.1,2.7 3.9,2.9 0.4,0 0.7,-0.5 0.5,-0.8 -1.6,-2.2 -3.5,-4.2 -3.7,-7.1 0,-0.7 -1,-0.9 -1.2,-0.2 z m 18.6,33.7 c 8.8,0.5 18.1,-0.7 26.6,-2.9 0.7,-0.2 0.6,-1.4 -0.2,-1.3 -8.8,1.1 -17.7,2 -26.5,3.3 -0.5,0.1 -0.3,0.9 0.1,0.9 z m -49.4,-5 c 3.8,0.9 7.6,1.9 11.5,2.8 3.6,0.8 7.4,2 11.1,2.1 0.7,0 0.8,-0.9 0.2,-1.2 -3.5,-1.4 -7.5,-1.7 -11.2,-2.5 -3.8,-0.7 -7.5,-1.3 -11.3,-2 -0.5,0 -0.7,0.7 -0.3,0.8 z"
             fill="#000000"
             stroke-width="none"
             opacity="1" />
        </g>
        <g
           id="svga-group-chinshadow-single" />
        <g
           id="svga-group-humanbody-front" />
        <g
           id="svga-group-clothes-single">
          <path
             id="SvgjsPath12877"
             d="m 63.33,170.93 c 0,0 -12.22,5.29 -16.7,6.92 -4.48,1.63 -12.63,5.91 -17.11,11.2 -4.48,5.29 -5.09,12.63 -5.7,17.92 -0.61,5.29 0.58,11.73 0.58,11.73 h 152.36 c 0,0 0.2,-14.17 -2.65,-22.32 -2.85,-8.15 -5.7,-9.78 -14.87,-15.48 -9.16,-5.7 -18.53,-7.94 -26.07,-11.61 0,0 -3.05,12.83 -30.55,14.26 -27.48,1.43 -34,-6.92 -39.29,-12.62 z"
             fill="#ffffff"
             stroke-width="none"
             opacity="1" />
          <path
             id="SvgjsPath12878"
             d="m 175.06,196.05 c -2.9,-8.3 -5.87,-10.15 -14.69,-15.63 l -0.6,-0.37 c -5.81,-3.62 -11.81,-5.9 -17.1,-7.91 -3.23,-1.23 -6.28,-2.39 -9.06,-3.75 a 1.02,1.02 0 0 0 -0.87,0 c -0.27,0.13 -0.47,0.38 -0.54,0.67 -0.03,0.12 -3.19,12.12 -29.63,13.49 -11.02,0.58 -18.6,-0.45 -24.07,-2.24 -0.04,-0.14 -0.21,-0.21 -0.31,-0.1 -0.46,-0.16 -0.91,-0.31 -1.34,-0.48 0.01,-0.02 0.01,-0.04 0.02,-0.06 0.08,-0.25 -0.3,-0.35 -0.39,-0.11 0,0.01 0,0.01 -0.01,0.02 -6.05,-2.41 -9.18,-5.81 -11.8,-8.66 l -0.63,-0.68 c -0.29,-0.31 -0.74,-0.4 -1.13,-0.24 -0.12,0.05 -12.24,5.3 -16.64,6.9 -3.9,1.42 -12.58,5.64 -17.53,11.49 -4.44,5.25 -5.25,12.38 -5.83,17.59 l -0.1,0.86 c -0.62,5.38 0.54,11.76 0.59,12.02 0.09,0.47 0.5,0.82 0.98,0.82 h 152.36 a 1,1 0 0 0 1,-0.99 c 0.03,-0.56 0.19,-14.42 -2.68,-22.64 z m -4.34,-4.67 c -0.51,-0.5 -1.02,-1 -1.52,-1.51 0.1,-0.08 0.19,-0.16 0.26,-0.22 0.46,0.55 0.87,1.12 1.26,1.73 z m -1.89,-1.17 c 0.98,1.01 1.94,2.08 2.94,3.08 0.48,1 0.94,2.12 1.4,3.42 l 0.03,0.11 c -1.74,-1.87 -3.76,-3.55 -5.68,-5.25 0.51,-0.59 0.95,-1.04 1.31,-1.36 z m -66.15,-5.66 c 23.41,-1.21 29.59,-10.57 31.06,-13.88 0.7,0.33 1.42,0.64 2.15,0.95 -1.03,1.47 -3.85,5.21 -8.22,8.8 -3.79,3.11 -12.73,6.36 -23.97,7.02 0.1,-0.66 0.16,-1.34 0.25,-2 0.03,-0.19 -0.28,-0.19 -0.3,0 -0.08,0.66 -0.2,1.34 -0.27,2.01 -0.68,0.04 -1.37,0.06 -2.07,0.08 0.11,-0.96 0.07,-1.97 0.08,-2.92 z m -4.2,2.99 c -0.61,-0.01 -1.22,-0.03 -1.83,-0.05 0.07,-0.92 0.03,-1.87 0.04,-2.79 0.62,0 1.25,0 1.9,-0.02 -0.05,0.93 -0.14,1.92 -0.11,2.86 z m 0.5,-2.86 c 0.67,-0.01 1.35,-0.03 2.04,-0.06 -0.08,0.95 -0.2,1.95 -0.18,2.92 -0.6,0.01 -1.2,0.02 -1.82,0.01 0.06,-0.95 -0.01,-1.94 -0.04,-2.87 z m -2.73,0.03 c -0.03,0.91 -0.09,1.85 -0.06,2.76 a 65.89,65.89 0 0 1 -3.39,-0.24 c 0.04,-0.87 0.02,-1.74 0.01,-2.6 1.1,0.04 2.25,0.07 3.44,0.08 z M 77.9,182.24 c 0.39,0.13 0.8,0.25 1.21,0.37 -0.18,0.58 -0.36,1.18 -0.48,1.77 -0.35,-0.11 -0.7,-0.23 -1.04,-0.34 0.11,-0.45 0.11,-0.94 0.2,-1.4 0.04,-0.15 0.08,-0.27 0.11,-0.4 z m 1.71,0.51 c 0.27,0.07 0.55,0.15 0.83,0.22 -0.1,0.6 -0.25,1.24 -0.31,1.86 -0.32,-0.09 -0.63,-0.18 -0.94,-0.28 0.18,-0.58 0.31,-1.19 0.42,-1.8 z m 1.26,0.33 c 1.02,0.25 2.11,0.48 3.26,0.67 -0.15,0.66 -0.3,1.35 -0.36,2.02 a 66.49,66.49 0 0 1 -3.1,-0.79 c 0.12,-0.62 0.14,-1.29 0.2,-1.9 z m 3.79,0.76 c 0.58,0.09 1.17,0.18 1.78,0.26 -0.23,0.71 -0.39,1.46 -0.38,2.16 -0.43,-0.08 -0.87,-0.17 -1.3,-0.26 l -0.39,-0.09 c 0.15,-0.67 0.23,-1.39 0.29,-2.07 z m 2.14,1.07 c 0.05,-0.25 0.12,-0.5 0.19,-0.75 0.45,0.06 0.92,0.11 1.39,0.15 -0.11,0.77 -0.22,1.55 -0.21,2.32 -0.51,-0.08 -1.03,-0.17 -1.55,-0.27 0.07,-0.48 0.08,-0.98 0.18,-1.45 z m 2.02,-0.55 c 0.48,0.05 0.97,0.09 1.47,0.12 -0.21,0.76 -0.38,1.63 -0.34,2.42 -0.46,-0.06 -0.92,-0.13 -1.38,-0.2 0.16,-0.75 0.21,-1.55 0.25,-2.34 z m 1.67,1.71 c 0.05,-0.53 0.15,-1.04 0.28,-1.55 l 1.56,0.09 c -0.03,0.85 -0.07,1.71 -0.06,2.57 -0.6,-0.06 -1.2,-0.13 -1.81,-0.21 0.01,-0.3 0,-0.6 0.03,-0.9 z m -13.05,-3.99 c -0.03,0.09 -0.07,0.18 -0.09,0.28 -0.11,0.45 -0.26,1 -0.24,1.5 -0.48,-0.17 -0.95,-0.34 -1.41,-0.51 0.21,-0.55 0.4,-1.11 0.57,-1.68 0.38,0.14 0.77,0.28 1.17,0.41 z m -2.2,1.08 c -0.4,-0.16 -0.8,-0.32 -1.18,-0.48 0.22,-0.56 0.4,-1.11 0.61,-1.67 0.36,0.16 0.74,0.32 1.13,0.47 -0.21,0.56 -0.4,1.12 -0.56,1.68 z m -6.64,-5.73 c -0.52,0.46 -0.95,1.02 -1.3,1.62 -0.5,-0.34 -0.96,-0.67 -1.4,-1 0.55,-0.48 1.12,-0.97 1.64,-1.48 0.34,0.28 0.69,0.57 1.06,0.86 z m 0.33,0.25 c 0.4,0.3 0.82,0.6 1.26,0.89 -0.36,0.33 -0.68,0.72 -1,1.09 l -0.33,0.39 c -0.45,-0.27 -0.88,-0.54 -1.29,-0.82 0.4,-0.57 0.86,-1.07 1.36,-1.55 z m 0.65,2.22 c 0.32,-0.36 0.66,-0.72 0.93,-1.12 0.3,0.19 0.61,0.39 0.93,0.58 -0.46,0.42 -0.86,0.94 -1.18,1.49 a 30.4,30.4 0 0 1 -1.01,-0.57 c 0.1,-0.13 0.22,-0.25 0.33,-0.38 z m 2.29,-0.29 c 0.72,0.41 1.49,0.8 2.31,1.18 -0.27,0.54 -0.49,1.11 -0.59,1.69 -1.06,-0.47 -2.05,-0.95 -2.96,-1.43 0.38,-0.52 0.8,-0.97 1.24,-1.44 z m -4.71,-3.37 c -0.55,0.49 -1.08,1.03 -1.6,1.55 -0.67,-0.52 -1.26,-1.03 -1.78,-1.51 0.27,-0.35 0.56,-0.67 0.89,-0.96 0.27,-0.23 0.56,-0.42 0.85,-0.61 0.51,0.5 1.05,1.01 1.64,1.53 z m -1.98,-1.88 c -0.66,0.4 -1.24,1.03 -1.68,1.65 -0.67,-0.64 -1.21,-1.23 -1.63,-1.74 0.33,-0.23 0.65,-0.47 0.97,-0.71 0.31,-0.23 0.63,-0.45 0.94,-0.68 0.44,0.49 0.91,0.98 1.4,1.48 z m -2.11,-2.24 0.14,0.16 c 0.07,0.08 0.14,0.15 0.21,0.23 -0.36,0.26 -0.71,0.54 -1.06,0.8 l -0.81,0.6 c -0.26,-0.33 -0.48,-0.63 -0.64,-0.87 0.92,-0.38 1.67,-0.7 2.16,-0.92 z m -34.94,21.39 c 3.3,2.32 6.88,4.55 10.66,6 0.42,0.86 0.84,1.79 1.24,2.78 -3.8,-2.44 -8.08,-4.62 -12.15,-6.46 -0.21,-0.09 -0.38,0.18 -0.18,0.31 3.94,2.51 8.31,5 12.62,6.88 0.35,0.91 0.69,1.86 1.01,2.87 -4.79,-2.96 -10,-5.52 -15.06,-8.01 0.58,-2.22 1.42,-4.4 2.68,-6.38 2.36,1.56 4.76,3.26 7.31,4.42 0.17,0.08 0.4,-0.15 0.22,-0.29 -2.21,-1.75 -4.8,-3.12 -7.27,-4.52 0.24,-0.35 0.49,-0.69 0.75,-1.02 1.39,0.84 2.81,1.74 4.29,2.36 1.28,1.53 2.75,3.62 4.15,6.34 -3.39,-1.84 -6.81,-3.56 -10.08,-5.64 -0.21,-0.17 -0.41,0.2 -0.19,0.36 z m 2.17,-3.83 c 0.17,-0.2 0.36,-0.4 0.54,-0.6 0.43,0.32 1.27,1.01 2.32,2.12 -0.93,-0.55 -1.9,-1.04 -2.86,-1.52 z m -5.05,28.02 c -0.09,-0.6 -0.22,-1.5 -0.33,-2.57 0.27,0.18 0.53,0.37 0.83,0.48 0.19,0.07 0.33,-0.2 0.2,-0.34 -0.29,-0.29 -0.68,-0.47 -1.03,-0.69 a 0.21,0.21 0 0 1 -0.06,-0.04 c -0.06,-0.64 -0.11,-1.33 -0.15,-2.05 2.35,1.98 4.97,3.93 7.81,5 0.17,0.06 0.25,-0.19 0.12,-0.28 -2.66,-1.83 -5.42,-3.37 -7.96,-5.37 -0.05,-1.15 -0.05,-2.35 0.03,-3.51 5.06,3.02 10.09,6.25 15.34,8.91 0.21,0.11 0.39,-0.19 0.19,-0.32 -4.95,-3.29 -10.31,-6.1 -15.47,-9.05 -0.01,-0.01 -0.02,0 -0.03,0 0.02,-0.27 0.05,-0.53 0.08,-0.79 l 0.1,-0.86 c 0.28,-2.47 0.59,-5.22 1.27,-7.94 4.87,2.8 9.89,5.66 15.01,7.97 0.1,0.05 0.2,0 0.25,-0.07 0.53,1.69 1,3.52 1.41,5.51 -5.55,-3.1 -11.15,-6.03 -16.6,-9.31 -0.25,-0.15 -0.47,0.23 -0.23,0.39 5.33,3.59 11.04,7.02 16.97,9.57 0.23,1.19 0.43,2.43 0.61,3.73 -5.98,-3.51 -12.01,-6.6 -17.65,-10.69 -0.21,-0.15 -0.4,0.19 -0.2,0.35 5.39,4.15 11.38,8.26 17.81,10.59 0.03,0.01 0.05,0 0.07,0 0.06,0.46 0.12,0.92 0.17,1.39 H 25.25 Z m 20.56,0 c -2.15,-19.99 -10.98,-28.11 -13.53,-30.06 4.49,-4.18 10.97,-7.49 14.7,-8.85 2.71,-0.99 8.13,-3.26 12.08,-4.94 1.5,2.4 7.65,10.32 25.28,14.1 a 73.48,73.48 0 0 0 15.4,1.63 c 13.64,0 24.62,-3.84 29.22,-7.62 5,-4.11 8,-8.31 8.84,-9.57 1.36,0.54 2.75,1.07 4.18,1.62 5.46,2.08 11.11,4.23 16.75,7.74 l 0.6,0.37 c 4.04,2.51 6.74,4.2 8.76,6.08 -0.7,0.55 -1.94,1.69 -3.35,3.62 -0.1,0.03 -0.18,0.12 -0.17,0.23 -3.01,4.21 -6.75,12.03 -7.84,25.65 z m 119.12,0 c -1.79,-1.72 -3.73,-3.28 -5.65,-4.85 0.14,-0.98 0.3,-1.93 0.47,-2.84 2.53,2.85 5.37,5.59 8.57,7.69 z m -3.55,0 c -0.74,-0.73 -1.62,-1.34 -2.47,-1.94 0.09,-0.83 0.19,-1.64 0.3,-2.42 1.71,1.5 3.43,3 5.24,4.36 z m -2.52,-1.47 c 0.61,0.52 1.24,1.03 1.9,1.47 h -2.04 c 0.04,-0.5 0.09,-0.99 0.14,-1.47 z m 10.35,1.47 c -3.34,-2.56 -6.52,-5.13 -9.35,-8.27 0.19,-0.97 0.4,-1.9 0.62,-2.78 3.51,4.03 7.52,7.91 12.05,10.78 0.21,0.13 0.47,-0.19 0.27,-0.35 -4.28,-3.46 -8.43,-6.85 -12.19,-10.89 -0.01,-0.01 -0.01,0 -0.02,-0.01 a 49,49 0 0 1 0.96,-3.3 c 4,3.23 7.92,6.59 12.08,9.62 0.16,0.12 0.37,-0.15 0.22,-0.28 -3.91,-3.39 -8.09,-6.46 -12.16,-9.65 -0.01,-0.01 -0.02,0 -0.03,-0.01 0.5,-1.48 1.02,-2.81 1.56,-4 3.48,3.92 7.31,7.78 11.67,10.7 0.18,0.12 0.39,-0.15 0.23,-0.29 -3.99,-3.56 -8.02,-6.94 -11.7,-10.83 0.39,-0.85 0.79,-1.62 1.19,-2.33 3.09,3.13 6.11,6.5 9.53,9.22 0.18,0.14 0.4,-0.07 0.25,-0.25 -2.82,-3.39 -6.3,-6.35 -9.53,-9.39 0.39,-0.66 0.76,-1.26 1.13,-1.79 2.55,2.64 5.08,5.41 7.93,7.66 0.17,0.13 0.37,-0.07 0.24,-0.24 -2.31,-2.84 -5.16,-5.34 -7.87,-7.85 0.32,-0.45 0.63,-0.85 0.93,-1.21 2.02,1.95 4.01,4.01 6.25,5.68 2.06,6.71 2.29,16.89 2.3,20.08 h -6.56 z"
             fill="#000000"
             stroke-width="none"
             opacity="1" />
        </g>
        <g
           id="svga-group-head">
          <g
             id="svga-group-ears-left-move">
            <g
               id="svga-group-ears-left">
              <path
                 id="SvgjsPath12887"
                 d="m 57.9,81.4 c 0,0 -3,-4.7 -6.1,-5.6 -3.1,-0.9 -6.6,2.1 -6.1,7.8 0.6,5.7 8.7,18.9 15.9,19.7 6.2,0.7 -1.1,-18.5 -3.7,-21.9 z"
                 fill="#ffffff"
                 stroke-width="none"
                 opacity="1" />
              <path
                 id="SvgjsPath12888"
                 d="M 61.5,104.2 C 53.8,103.4 45.4,89.7 44.8,83.8 c -0.3,-3.4 0.8,-6.4 3,-7.9 1.3,-0.9 2.9,-1.2 4.4,-0.8 3.3,0.9 6.2,5.3 6.6,5.9 2.1,2.7 8.5,18 5.5,22 -0.5,0.7 -1.4,1.1 -2.3,1.1 -0.3,0.1 -0.4,0.1 -0.5,0.1 z M 48.9,77.1 c -1.7,1.1 -2.5,3.6 -2.3,6.4 0.5,5.4 8.5,18.3 15,18.9 0.4,0 0.7,0 0.9,-0.3 C 64.6,99.2 59.3,84.9 57,81.8 v -0.1 c -0.8,-1.2 -3.3,-4.6 -5.5,-5.2 -0.2,-0.1 -0.5,-0.1 -0.7,-0.1 -0.7,0.2 -1.3,0.4 -1.9,0.7 z"
                 fill="#000000"
                 stroke-width="none"
                 opacity="1" />
              <path
                 id="SvgjsPath12889"
                 d="m 50.5,79.3 c 2.6,1.4 5,5.6 6.2,9.6 V 89 c 0,0.3 -0.2,0.4 -0.3,0.1 -0.4,-1.2 -1,-1.2 -1.7,0 -0.2,0.7 -0.1,1.5 0.1,2.3 0.2,0.7 0.5,1.4 0.8,1.9 0.6,1.2 1.4,2 2.1,3 0.2,0.3 0,0.7 -0.2,0.5 -1.6,-1 -3.9,-4.6 -3.4,-7.6 0.2,-1.4 1.1,-2.2 1.8,-1.7 C 55,85.4 54,83.6 52.7,82.1 52,81.3 50.4,79.4 49.6,79.8 c -1.5,0.6 -0.7,4.6 -0.5,6.4 0,0.3 -0.2,0.4 -0.3,0.1 -1,-2.9 -1.1,-8.5 1.7,-7 z"
                 fill="#000000"
                 stroke-width="none"
                 opacity="1" />
              <path
                 id="SvgjsPath12890"
                 d="m 56.9,97.8 c -2.8,-0.9 -4.8,-4.6 -6,-8.8 -0.7,-2.5 -2.1,-8.3 0.6,-8.2 0.2,0 0.3,0.5 0.1,0.6 -2.5,1.1 0.2,8.9 1,10.7 1.1,2.6 2.5,4.3 4.3,5.2 0.2,0.2 0.2,0.6 0,0.5 z"
                 fill="#000000"
                 stroke-width="none"
                 opacity="1" />
            </g>
          </g>
          <g
             id="svga-group-ears-right-move">
            <g
               id="svga-group-ears-right">
              <path
                 id="SvgjsPath12891"
                 d="m 142.1,81.4 c 0,0 3,-4.7 6.1,-5.6 3.1,-0.9 6.6,2.1 6.1,7.8 -0.6,5.7 -8.7,18.9 -15.9,19.7 -6.2,0.7 1.1,-18.5 3.7,-21.9 z"
                 fill="#ffffff"
                 stroke-width="none"
                 opacity="1" />
              <path
                 id="SvgjsPath12892"
                 d="m 138.1,104.2 c -1,0 -1.8,-0.4 -2.3,-1.1 -2.9,-4 3.4,-19.3 5.5,-22 0.4,-0.6 3.3,-5.1 6.6,-5.9 1.5,-0.4 3,-0.1 4.4,0.8 2.2,1.5 3.3,4.4 3,7.9 -0.6,5.9 -9,19.6 -16.7,20.4 -0.2,-0.1 -0.3,-0.1 -0.5,-0.1 z m 11.1,-27.6 c -0.2,0 -0.5,0 -0.7,0.1 -2.2,0.6 -4.7,3.9 -5.5,5.2 V 82 c -2.4,3 -7.7,17.4 -5.5,20.3 0.2,0.3 0.4,0.4 0.9,0.3 6.5,-0.7 14.5,-13.6 15,-18.9 0.3,-2.9 -0.6,-5.3 -2.3,-6.4 -0.6,-0.5 -1.2,-0.7 -1.9,-0.7 z"
                 fill="#000000"
                 stroke-width="none"
                 opacity="1" />
              <path
                 id="SvgjsPath12893"
                 d="m 149.5,79.3 c -2.6,1.4 -5,5.6 -6.2,9.6 V 89 c 0,0.3 0.2,0.4 0.3,0.1 0.4,-1.2 1,-1.2 1.7,0 0.2,0.7 0.1,1.5 -0.1,2.3 -0.2,0.7 -0.5,1.4 -0.8,1.9 -0.6,1.2 -1.4,2 -2.1,3 -0.2,0.3 0,0.7 0.2,0.5 1.6,-1 3.9,-4.6 3.4,-7.6 -0.2,-1.4 -1.1,-2.2 -1.8,-1.7 0.9,-2.1 1.9,-3.9 3.2,-5.4 0.7,-0.8 2.3,-2.7 3.1,-2.3 1.5,0.6 0.7,4.6 0.5,6.4 0,0.3 0.2,0.4 0.3,0.1 1,-2.9 1.1,-8.5 -1.7,-7 z"
                 fill="#000000"
                 stroke-width="none"
                 opacity="1" />
              <path
                 id="SvgjsPath12894"
                 d="m 143.1,97.8 c 2.8,-0.9 4.8,-4.6 6,-8.8 0.7,-2.5 2.1,-8.3 -0.6,-8.2 -0.2,0 -0.3,0.5 -0.1,0.6 2.5,1.1 -0.2,8.9 -1,10.7 -1.1,2.6 -2.5,4.3 -4.3,5.2 -0.2,0.2 -0.2,0.6 0,0.5 z"
                 fill="#000000"
                 stroke-width="none"
                 opacity="1" />
            </g>
          </g>
          <g
             id="svga-group-faceshape-wrap">
            <g
               id="svga-group-faceshape-single">
              <path
                 id="SvgjsPath12971"
                 d="M 143.8,67.9 C 143.7,64.6 143.5,59 142.4,53.7 140.1,42.3 127.3,24.9 100,24.9 72.7,24.9 63.6,38.3 59.5,48.2 57,54.4 56.3,63.4 56.1,67.9 c 0,0 2.7,50.9 7.7,59.6 8.7,15.2 57.9,15.9 69.6,5.2 7.4,-6.7 10.5,-45 10.4,-64.8 z"
                 fill="#ffffff"
                 stroke-width="none"
                 opacity="1" />
              <path
                 id="SvgjsPath12972"
                 d="M 102.1,141.8 C 96,141.8 89.9,141.4 84.4,140.5 75.5,139.1 66.8,134.8 62.9,128 57.8,119.1 55,70 55,67.8 55.2,63 55.9,54 58.4,47.7 c 6.6,-16.2 20.1,-24 41.5,-24 12.3,0 23.2,3.6 31.3,10.4 6.3,5.2 10.9,12.5 12.2,19.3 1.1,5.5 1.3,11.4 1.4,14.4 v 4.1 c 0.2,28 -4.1,55.4 -10.7,61.5 -5.7,5.4 -17,8.4 -32,8.4 z M 57.3,67.9 c 0,18 3.7,52.4 7.6,59 2.7,4.7 7.9,9.6 19.9,11.4 20.3,3.1 41.1,-0.2 48,-6.5 6.4,-5.9 10.1,-40.8 9.9,-59.8 v -4.1 c 0,-3 -0.3,-8.7 -1.4,-14 -1.3,-6.4 -5.6,-13.1 -11.5,-18 -7.7,-6.5 -18,-9.9 -29.9,-9.9 -20.3,0 -33.2,7.4 -39.4,22.6 -2.3,5.9 -3,14.6 -3.2,19.3 z"
                 fill="#000000"
                 stroke-width="none"
                 opacity="1" />
            </g>
          </g>
          <g
             id="svga-group-mouth-single-move"
             transform="translate(0.5,3)">
            <g
               id="svga-group-mouth-single"
               transform="matrix(0.8999996,0,0,0.8999996,9.8433053,11.997799)">
              <path
                 id="SvgjsPath12842"
                 d="m 117.6,112.37 a 0.3,0.3 0 0 1 -0.04,-0.08 c -0.02,-0.02 -0.03,-0.04 -0.05,-0.05 l -0.02,-0.02 c -0.01,-0.01 -0.03,-0.02 -0.04,-0.03 -0.01,-0.01 -0.03,-0.02 -0.04,-0.03 -0.17,-0.13 -0.41,-0.16 -0.59,-0.02 a 49.858,49.858 0 0 1 -36.79,0.18 0.417,0.417 0 0 0 -0.37,-0.07 c -0.39,0.05 -0.58,0.57 -0.35,0.87 l 0.01,0.01 c 2.75,3.88 5.17,8.27 8.57,11.62 3.08,3.03 6.65,3.26 10.79,3.13 3.71,-0.11 7.51,-0.08 10.24,-2.97 3.34,-3.54 5.98,-7.87 8.61,-11.94 a 0.57,0.57 0 0 0 0.07,-0.6 z m -1.87,1.3 c -1.18,1.78 -2.39,3.53 -3.64,5.26 -3.6,2.43 -8.04,2.66 -12.26,2.51 -4.95,-0.18 -9.86,-0.9 -14.67,-2.1 a 0.569,0.569 0 0 0 -0.29,0 c -1.28,-1.8 -2.48,-3.66 -3.73,-5.49 a 50.934,50.934 0 0 0 34.59,-0.18 z m -5.8,8.18 c -0.05,-0.18 -0.1,-0.35 -0.15,-0.54 0.27,-0.1 0.53,-0.21 0.79,-0.33 -0.21,0.3 -0.42,0.58 -0.64,0.87 z m -1.05,1.35 c -0.23,-0.45 -0.4,-0.93 -0.5,-1.42 0.08,-0.02 0.16,-0.04 0.25,-0.08 0.11,0.44 0.25,0.88 0.41,1.3 -0.05,0.07 -0.11,0.13 -0.16,0.2 z m -0.64,0.72 c -0.23,-0.64 -0.45,-1.29 -0.68,-1.93 0,-0.01 -0.01,-0.01 -0.01,-0.01 0.1,-0.02 0.21,-0.05 0.3,-0.07 0.13,0.61 0.35,1.18 0.65,1.73 -0.08,0.09 -0.17,0.19 -0.26,0.28 z m -0.68,0.68 c -0.29,-0.81 -0.51,-1.63 -0.67,-2.48 l 0.17,-0.03 c 0,0.04 -0.01,0.09 0.01,0.14 0.26,0.71 0.5,1.42 0.76,2.13 z m -0.6,0.49 c -0.27,-0.95 -0.52,-1.9 -0.71,-2.86 0.03,-0.01 0.07,-0.01 0.1,-0.02 0.17,0.94 0.43,1.86 0.77,2.76 -0.05,0.05 -0.1,0.08 -0.16,0.12 z m -0.59,0.4 c -0.25,-1.06 -0.55,-2.11 -0.89,-3.15 l 0.23,-0.03 v 0.01 c 0.21,1.04 0.48,2.07 0.78,3.1 -0.03,0.01 -0.08,0.04 -0.12,0.07 z m -0.69,0.36 -1.14,-3.42 c 0.13,-0.01 0.27,-0.02 0.41,-0.04 0.37,1.11 0.68,2.22 0.94,3.35 -0.08,0.05 -0.14,0.09 -0.21,0.11 z m -0.96,0.36 c -0.41,-1.21 -0.74,-2.45 -0.99,-3.71 0.09,0 0.17,-0.01 0.25,-0.02 0.4,1.19 0.79,2.38 1.19,3.58 -0.14,0.06 -0.3,0.1 -0.45,0.15 z m -2.7,0.44 c -0.35,-1.37 -0.7,-2.74 -1.05,-4.1 0.09,0 0.17,0.01 0.26,0 h 0.25 c 0.14,1.38 0.39,2.74 0.74,4.08 -0.07,0.01 -0.13,0.02 -0.2,0.02 z m -1.11,0.07 c -0.28,-1.4 -0.56,-2.79 -0.85,-4.2 0.12,0 0.24,0 0.36,0.01 0.35,1.39 0.71,2.77 1.06,4.16 z m -0.66,0.03 c -0.28,-1.41 -0.56,-2.82 -0.83,-4.23 0.03,0 0.06,0.01 0.09,0 0.28,1.41 0.57,2.81 0.85,4.23 a 0.205,0.205 0 0 0 -0.11,0 z m -0.95,0.01 c -0.3,-1.42 -0.57,-2.86 -0.82,-4.3 0.12,0.01 0.24,0.01 0.36,0.02 0.28,1.42 0.56,2.84 0.84,4.28 -0.11,-0.01 -0.25,0 -0.38,0 z m -1.36,-4.33 c 0.24,1.45 0.52,2.89 0.81,4.33 -0.48,-1.42 -0.84,-2.87 -1.08,-4.35 0.09,0.01 0.18,0.02 0.27,0.02 z m 4.83,4.15 a 27.81,27.81 0 0 1 -0.73,-4.02 c 0.11,0 0.22,0 0.33,-0.01 0.26,1.33 0.52,2.65 0.77,3.98 -0.14,0.02 -0.25,0.04 -0.37,0.05 z m 0.89,-0.13 -0.75,-3.91 c 0.09,0 0.18,0 0.27,-0.01 0.25,1.29 0.6,2.57 1.01,3.81 -0.18,0.04 -0.35,0.08 -0.53,0.11 z m 5.49,-4.91 c 0.04,-0.02 0.08,-0.03 0.13,-0.05 0.08,0.3 0.17,0.6 0.25,0.89 -0.03,0.04 -0.06,0.08 -0.09,0.11 -0.12,-0.3 -0.21,-0.62 -0.29,-0.95 z m -12.95,0.81 c 0.25,1.5 0.58,2.99 0.95,4.46 -0.16,0.01 -0.31,0 -0.47,0.01 -0.3,-1.5 -0.53,-3.01 -0.69,-4.53 0.07,0.01 0.15,0.01 0.22,0.02 -0.01,0.01 -0.01,0.02 -0.01,0.04 z m -0.16,4.47 -1.05,-4.63 c 0.15,0.01 0.3,0.03 0.45,0.04 0.16,1.54 0.39,3.07 0.7,4.58 -0.04,0 -0.07,0.01 -0.1,0.01 z m -0.84,-0.03 c -0.37,-1.57 -0.73,-3.14 -1.1,-4.71 0.1,0.01 0.21,0.03 0.31,0.04 0.36,1.56 0.7,3.12 1.06,4.68 -0.09,0 -0.18,-0.01 -0.27,-0.01 z m -1.01,-0.08 a 36.26,36.26 0 0 1 -0.99,-4.74 c 0.11,0.01 0.23,0.03 0.34,0.04 l 1.11,4.74 c -0.16,-0.02 -0.31,-0.03 -0.46,-0.04 z m -1.03,-0.18 -0.84,-4.69 c 0.11,0.02 0.22,0.03 0.33,0.05 0.22,1.6 0.54,3.17 0.97,4.73 -0.16,-0.03 -0.31,-0.06 -0.46,-0.09 z m -0.81,-0.2 c -0.4,-1.55 -0.8,-3.11 -1.2,-4.65 0.21,0.03 0.42,0.06 0.62,0.1 -0.01,0.04 -0.02,0.08 0,0.12 l 0.81,4.5 c -0.08,-0.03 -0.15,-0.06 -0.23,-0.07 z m -0.9,-0.35 c -0.49,-1.46 -0.87,-2.95 -1.17,-4.47 0.1,0.02 0.19,0.04 0.29,0.05 0.39,1.51 0.77,3.02 1.17,4.54 -0.09,-0.03 -0.19,-0.08 -0.29,-0.12 z m -0.95,-0.51 c -0.44,-1.36 -0.81,-2.73 -1.11,-4.11 l 0.36,0.06 c -0.01,0.04 -0.02,0.08 -0.01,0.13 0.26,1.38 0.62,2.74 1.04,4.08 -0.09,-0.05 -0.2,-0.1 -0.28,-0.16 z m -1,-0.73 a 48.71,48.71 0 0 1 -0.96,-3.54 c 0.09,0.02 0.18,0.04 0.27,0.05 0.26,1.25 0.57,2.48 0.95,3.7 -0.09,-0.07 -0.18,-0.14 -0.26,-0.21 z m -0.94,-0.84 c -0.32,-0.96 -0.64,-1.93 -0.98,-2.89 0.12,0.02 0.25,0.05 0.36,0.07 0.23,1.01 0.49,2 0.78,2.98 -0.05,-0.05 -0.1,-0.11 -0.16,-0.16 z m -1.57,-3.03 c 0,0.01 0,0.02 0.01,0.02 0.17,0.51 0.34,1.02 0.51,1.51 -0.27,-0.53 -0.52,-1.06 -0.78,-1.6 0.09,0.03 0.18,0.05 0.26,0.07 z m -1.2,-0.29 c 0.09,0.02 0.18,0.05 0.28,0.07 0.11,0.25 0.23,0.49 0.34,0.73 -0.22,-0.26 -0.43,-0.53 -0.62,-0.8 z m 11.91,6.22 c -0.38,-1.47 -0.7,-2.96 -0.95,-4.45 l 0.36,0.03 c 0.24,1.5 0.6,2.97 1.08,4.41 h -0.11 c -0.12,0.01 -0.24,0 -0.38,0.01 z"
                 fill="#000000"
                 stroke-width="none"
                 opacity="1" />
            </g>
          </g>
          <g
             id="svga-group-eyes-left-move">
            <g
               id="svga-group-eyes-left">
              <g
                 id="svga-group-eyesback-left" />
              <g
                 id="svga-group-eyesiriswrapper-left">
                <g
                   id="svga-group-eyesiriscontrol-left">
                  <g
                     id="svga-group-eyesiris-left">
                    <path
                       id="SvgjsPath13063"
                       d="m 83.4,85 c -1.1,-2.1 -3.5,-2.9 -5.7,-2.2 -2.4,0.8 -4.2,3.3 -3.3,5.9 0.5,1.4 1.6,2.6 3.1,2.9 0.5,0.1 1,0.1 1.6,0.1 0.6,0.1 1.2,0 1.8,-0.2 2.5,-0.9 3.8,-4 2.5,-6.5 z"
                       fill="#ffffff"
                       stroke-width="none"
                       opacity="1" />
                    <path
                       id="SvgjsPath13064"
                       d="M 79.4,92.1 H 79 c -0.5,0 -1.1,0 -1.6,-0.1 -1.5,-0.3 -2.8,-1.6 -3.3,-3.2 -0.9,-2.8 1.1,-5.4 3.5,-6.3 2.4,-0.8 5,0.1 6.1,2.3 0.7,1.3 0.7,2.8 0.2,4.1 -0.5,1.3 -1.6,2.4 -2.9,2.8 -0.6,0.3 -1.1,0.4 -1.6,0.4 z M 79,91.4 c 0.6,0.1 1.2,0 1.7,-0.2 1.2,-0.4 2.1,-1.3 2.6,-2.5 0.5,-1.2 0.4,-2.5 -0.2,-3.6 -1,-1.9 -3.2,-2.7 -5.3,-2 -2.2,0.8 -4,3.1 -3.1,5.5 0.5,1.4 1.6,2.5 2.8,2.7 0.4,0.1 0.9,0.2 1.5,0.1 z m 2.6,-5.3 c 0,-0.1 0,-0.1 -0.1,-0.2 -0.6,-1.2 -2.2,-1.7 -3.4,-1.1 0.3,0.2 0.5,0.6 0.6,0.8 0.2,0.4 0.6,1.1 0.1,1.3 -0.4,0.2 -1.1,0 -1.4,-0.2 -0.2,-0.1 -0.4,-0.3 -0.5,-0.5 0,0.1 -0.1,0.1 -0.1,0.2 -0.1,0.2 -0.1,0.5 -0.1,0.7 -0.2,0.7 0,1.5 0.6,2.1 0.3,0.2 0.6,0.4 0.9,0.4 0.6,0.3 1.3,0.4 2,0.1 -0.1,-0.1 -0.2,-0.3 -0.2,-0.4 0,-0.3 0.2,-0.6 0.5,-0.7 0.3,-0.1 0.6,0 0.8,0.2 0.3,-0.3 0.5,-0.8 0.6,-1.2 0.1,-0.5 0,-1 -0.3,-1.5 z m -5.2,1.3 c -0.5,-0.1 -0.9,-0.1 -1.4,-0.2 -0.1,0 -0.1,0.1 0,0.1 0.4,0.1 1,0.3 1.4,0.3 0,-0.1 0.1,-0.2 0,-0.2 z m -0.1,0.9 c -0.2,0 -0.4,0.1 -0.7,0.1 -0.2,0.1 -0.5,0.1 -0.8,0.1 -0.1,0 -0.1,0.1 0,0.1 0.5,0 1.1,0 1.5,-0.3 0.1,0 0.1,0 0,0 z m 0.4,0.9 c -0.2,0.1 -0.4,0.3 -0.6,0.4 -0.2,0.1 -0.4,0.2 -0.6,0.4 -0.1,0.1 0,0.2 0.1,0.1 0.4,-0.3 0.9,-0.5 1.1,-0.9 0.1,0 0.1,-0.1 0,0 z m 1,0.7 c -0.3,0.3 -0.5,0.7 -0.7,1 -0.1,0.1 0.1,0.2 0.1,0.1 0.2,-0.3 0.5,-0.7 0.7,-1 0,-0.1 -0.1,-0.2 -0.1,-0.1 z m 0.9,0.4 c -0.1,0.4 -0.2,0.8 -0.2,1.2 0,0.1 0.1,0.1 0.2,0 0,-0.4 0.1,-0.8 0.2,-1.2 -0.1,-0.1 -0.2,-0.1 -0.2,0 z m 1.6,0.5 c -0.1,-0.2 -0.1,-0.3 -0.2,-0.5 0,0 -0.1,0 -0.1,0.1 0,0.2 0.1,0.3 0.2,0.5 0.1,0.2 0.1,0.4 0.2,0.6 0,0.1 0.1,0.1 0.1,0 -0.1,-0.3 -0.2,-0.5 -0.2,-0.7 z m 1.3,-0.2 -0.3,-0.3 c -0.1,-0.1 -0.2,-0.2 -0.3,-0.4 -0.1,-0.1 -0.1,0 -0.1,0.1 0.1,0.1 0.2,0.3 0.3,0.4 0,0.1 0.2,0.2 0.4,0.2 0,0.1 0,0 0,0 z m 1,-0.8 C 82.4,89.7 82.2,89.6 82,89.5 l -0.6,-0.3 c -0.1,0 -0.2,0.1 -0.1,0.1 0.2,0.1 0.4,0.3 0.6,0.4 0.2,0.1 0.4,0.2 0.6,0.2 0,0 0.1,0 0,-0.1 z m 0.6,-1.4 c -0.2,-0.1 -0.3,-0.1 -0.5,-0.1 -0.2,0 -0.4,-0.1 -0.5,-0.2 -0.1,0 -0.1,0.1 -0.1,0.1 0.3,0.1 0.7,0.3 1.1,0.3 z m 0.2,-1.9 c -0.4,0.1 -0.8,0.3 -1.1,0.5 -0.1,0.1 0,0.2 0.1,0.1 0.2,-0.1 0.4,-0.2 0.6,-0.2 0.2,-0.1 0.4,-0.1 0.6,-0.2 0,-0.1 -0.1,-0.3 -0.2,-0.2 z m -0.9,-2.2 -0.1,-0.1 c 0,0 -0.1,0 -0.1,0.1 0,0 -0.4,0.5 -0.5,0.5 -0.2,0.2 -0.3,0.4 -0.4,0.6 -0.1,0.1 0.1,0.1 0.1,0.1 0.3,-0.4 0.6,-0.7 0.9,-1 0.2,-0.1 0.2,-0.1 0.1,-0.2 z m -2.1,-0.8 c -0.1,0.2 -0.1,0.4 -0.2,0.5 -0.1,0.2 -0.1,0.4 -0.2,0.6 0,0.1 0.1,0.1 0.1,0 0.1,-0.2 0.2,-0.4 0.2,-0.6 0.1,-0.2 0.2,-0.4 0.2,-0.6 0.1,0.1 0,0 -0.1,0.1 z m -1.4,0.8 c -0.1,-0.2 -0.1,-0.3 -0.2,-0.5 -0.1,-0.2 -0.1,-0.3 -0.2,-0.5 0,-0.1 -0.1,-0.1 -0.1,0 -0.1,0.3 0.2,0.8 0.3,1.1 0.1,0.1 0.3,0 0.2,-0.1 z m -1.3,0 c -0.1,-0.2 -0.2,-0.3 -0.3,-0.5 0,-0.1 -0.1,0 -0.1,0.1 0.1,0.2 0.2,0.4 0.2,0.6 0.1,0.2 0.2,0.4 0.3,0.4 0.1,0 0.1,0 0.1,-0.1 0,-0.2 -0.1,-0.4 -0.2,-0.5 z m -0.7,1 -0.3,-0.3 c -0.1,-0.1 -0.3,-0.2 -0.4,-0.3 -0.1,-0.1 -0.2,0 -0.1,0.1 0.1,0.1 0.2,0.3 0.4,0.4 0.1,0.1 0.2,0.2 0.4,0.3 0,0 0.1,-0.1 0,-0.2 z m -0.8,0.9 c -0.3,-0.2 -0.7,-0.2 -1,-0.3 -0.1,0 -0.1,0.1 0,0.1 0.3,0.1 0.6,0.3 0.9,0.4 0.1,-0.1 0.1,-0.2 0.1,-0.2 z"
                       fill="#000000"
                       stroke-width="none"
                       opacity="1" />
                  </g>
                </g>
              </g>
              <g
                 id="svga-group-eyesfront-left">
                <path
                   id="SvgjsPath12937"
                   d="m 79,72.1 c -8.2,0 -14.8,6.6 -14.8,14.8 0,8.2 6.6,14.8 14.8,14.8 8.2,0 14.8,-6.6 14.8,-14.8 0,-8.1 -6.6,-14.8 -14.8,-14.8 z m 7.3,22.1 c -0.7,0 -1.5,-1.6 -1.5,-1.6 -5.4,1.4 -10.9,2 -14.3,-0.8 -3.4,-2.8 -1.8,-6 -1.8,-6 4.8,-2 16.8,-2.5 16.8,-2.5 2.7,2.7 3.1,6.4 3.1,8 0,1.7 -1.5,2.9 -2.3,2.9 z"
                   fill="#ffffff"
                   stroke-width="none"
                   opacity="1" />
                <path
                   id="SvgjsPath12938"
                   d="m 89.5,87.6 -0.6,0.6 c -0.1,-0.5 -0.3,-1 -0.5,-1.4 0.2,-0.1 0.4,-0.3 0.6,-0.4 v 0.2 c -0.1,0.3 0.1,0.6 0.3,0.7 h 0.2 c 0.2,0 0.4,-0.1 0.5,-0.4 0,-0.1 0.9,-2.7 -0.9,-3.8 -1.8,-1.1 -12.2,-0.2 -23,2.5 -0.3,0.1 -0.4,0.4 -0.4,0.6 0.1,0.3 0.4,0.4 0.6,0.4 0.7,-0.2 1.3,-0.3 1.9,-0.5 -0.1,0.5 -0.2,1.1 -0.2,1.6 l -0.6,-0.6 c -0.1,-0.1 -0.2,0 -0.1,0.1 0.2,0.3 0.5,0.6 0.8,0.9 0,0.4 0.1,0.7 0.3,1.1 -0.7,-0.8 -1.4,-1.4 -2.1,-2.1 -0.1,-0.1 -0.3,0.1 -0.2,0.2 1,1.2 2,2.5 3.1,3.5 0.7,1 1.7,1.9 2.8,2.5 0.8,0.7 1.6,1.4 2.5,1.9 0.1,0.1 0.3,-0.1 0.2,-0.2 -0.4,-0.4 -0.8,-0.7 -1.2,-1 0.9,0.3 1.9,0.4 3,0.4 3.2,0 6.8,-1 8.5,-1.4 0.5,1.4 1.3,1.6 1.8,1.6 h 0.4 c 1.3,-0.3 2.4,-2.4 2.1,-5 0,-0.3 -0.1,-0.6 -0.2,-0.9 0.3,-0.2 0.6,-0.5 0.8,-0.8 0.2,-0.1 -0.2,-0.5 -0.4,-0.3 z m -0.6,-3.1 c 0.2,0.3 0.2,0.7 0.2,1 -0.3,0.3 -0.6,0.6 -1,0.9 -0.2,-0.3 -0.4,-0.7 -0.5,-1 0.5,-0.1 0.9,-0.5 1.3,-0.9 z m -1.4,-0.6 c 0.5,0.1 0.8,0.1 1,0.2 L 87.3,85 C 87.1,84.7 87,84.5 86.8,84.3 87.1,84.2 87.3,84 87.5,83.9 Z m -0.7,9.7 c -0.5,0.1 -0.8,-0.5 -1,-0.9 0.2,-0.1 0.3,-0.4 0.2,-0.6 -0.1,-0.3 -0.4,-0.4 -0.7,-0.3 -0.1,0 -8,2.6 -11.8,1.2 -2,-0.7 -3.6,-2.2 -4.2,-3.9 -0.4,-1.1 -0.4,-2.2 0,-3 V 86 c 6.5,-1.4 12.2,-2.1 15.6,-2.2 0.4,0.4 2.7,2.8 3.1,5.9 0.4,2.1 -0.4,3.7 -1.2,3.9 z M 70.1,92.5 c -0.9,-1 -2,-1.9 -3.1,-2.8 -0.1,-0.1 -0.2,0 -0.1,0.1 0.4,0.5 0.9,0.9 1.3,1.4 -0.1,0.1 -0.2,0.2 -0.1,0.4 0.7,0.9 1.7,1.9 2.9,2 0.2,0 0.3,-0.3 0.2,-0.4 -0.4,-0.2 -0.8,-0.4 -1.1,-0.7 z"
                   fill="#000000"
                   stroke-width="none"
                   opacity="1" />
              </g>
            </g>
          </g>
          <g
             id="svga-group-eyes-right-move">
            <g
               id="svga-group-eyes-right">
              <g
                 id="svga-group-eyesback-right" />
              <g
                 id="svga-group-eyesiriswrapper-right">
                <g
                   id="svga-group-eyesiriscontrol-right">
                  <g
                     id="svga-group-eyesiris-right">
                    <path
                       id="SvgjsPath13065"
                       d="m 125.4,85 c -1.1,-2.1 -3.5,-2.9 -5.7,-2.2 -2.4,0.8 -4.2,3.3 -3.3,5.9 0.5,1.4 1.6,2.6 3.1,2.9 0.5,0.1 1,0.1 1.6,0.1 0.6,0.1 1.2,0 1.8,-0.2 2.6,-0.9 3.8,-4 2.5,-6.5 z"
                       fill="#ffffff"
                       stroke-width="none"
                       opacity="1" />
                    <path
                       id="SvgjsPath13066"
                       d="M 121.4,92.1 H 121 c -0.5,0 -1.1,0 -1.6,-0.1 -1.5,-0.3 -2.8,-1.6 -3.3,-3.2 -0.9,-2.8 1.1,-5.4 3.5,-6.3 2.4,-0.8 5,0.1 6.1,2.3 0.7,1.3 0.7,2.8 0.2,4.1 -0.5,1.3 -1.6,2.4 -2.9,2.8 -0.6,0.3 -1.1,0.4 -1.6,0.4 z M 121,91.4 c 0.6,0.1 1.2,0 1.7,-0.2 1.2,-0.4 2.1,-1.3 2.6,-2.5 0.5,-1.2 0.4,-2.5 -0.2,-3.6 -1,-1.9 -3.2,-2.7 -5.3,-2 -2.2,0.8 -4,3.1 -3.1,5.5 0.5,1.4 1.6,2.5 2.8,2.7 0.5,0.1 1,0.2 1.5,0.1 z m 2.6,-5.3 c 0,-0.1 0,-0.1 -0.1,-0.2 -0.6,-1.2 -2.2,-1.7 -3.4,-1.1 0.3,0.2 0.5,0.6 0.6,0.8 0.2,0.4 0.6,1.1 0.1,1.3 -0.4,0.2 -1.1,0 -1.4,-0.2 -0.2,-0.1 -0.4,-0.3 -0.5,-0.5 0,0.1 -0.1,0.1 -0.1,0.2 -0.1,0.2 -0.1,0.5 -0.1,0.7 -0.2,0.7 0,1.5 0.6,2.1 0.3,0.2 0.6,0.4 0.9,0.4 0.6,0.3 1.3,0.4 2,0.1 -0.1,-0.1 -0.2,-0.3 -0.2,-0.4 0,-0.3 0.2,-0.6 0.5,-0.7 0.3,-0.1 0.6,0 0.8,0.2 0.3,-0.3 0.5,-0.8 0.6,-1.2 0.1,-0.5 0,-1 -0.3,-1.5 z m -5.2,1.3 c -0.5,-0.1 -0.9,-0.1 -1.4,-0.2 -0.1,0 -0.1,0.1 0,0.1 0.4,0.1 1,0.3 1.4,0.3 0.1,-0.1 0.1,-0.2 0,-0.2 z m -0.1,0.9 c -0.2,0 -0.4,0.1 -0.7,0.1 -0.2,0.1 -0.5,0.1 -0.8,0.1 -0.1,0 -0.1,0.1 0,0.1 0.6,0 1.2,0 1.5,-0.3 0.1,0 0.1,0 0,0 z m 0.5,0.9 c -0.2,0.1 -0.4,0.3 -0.6,0.4 -0.2,0.1 -0.4,0.2 -0.6,0.4 -0.1,0.1 0,0.2 0.1,0.1 0.4,-0.3 0.9,-0.5 1.1,-0.9 0.1,0 0,-0.1 0,0 z m 0.9,0.7 c -0.3,0.3 -0.5,0.7 -0.7,1 -0.1,0.1 0.1,0.2 0.1,0.1 0.2,-0.3 0.5,-0.7 0.7,-1 0,-0.1 -0.1,-0.2 -0.1,-0.1 z m 0.9,0.4 c -0.1,0.4 -0.2,0.8 -0.2,1.2 0,0.1 0.1,0.1 0.2,0 0,-0.4 0.1,-0.8 0.2,-1.2 0,-0.1 -0.2,-0.1 -0.2,0 z m 1.6,0.5 c -0.1,-0.2 -0.1,-0.3 -0.2,-0.5 0,0 -0.1,0 -0.1,0.1 0,0.2 0.1,0.3 0.2,0.5 0.1,0.2 0.1,0.4 0.2,0.6 0,0.1 0.1,0.1 0.1,0 -0.1,-0.3 -0.2,-0.5 -0.2,-0.7 z m 1.3,-0.2 -0.3,-0.3 c -0.1,-0.1 -0.2,-0.2 -0.3,-0.4 -0.1,-0.1 -0.1,0 -0.1,0.1 0.1,0.1 0.2,0.3 0.3,0.4 0.1,0.1 0.2,0.2 0.4,0.2 0,0.1 0.1,0 0,0 z m 1.1,-0.8 c -0.1,-0.1 -0.3,-0.2 -0.5,-0.3 l -0.6,-0.3 c -0.1,0 -0.2,0.1 -0.1,0.1 0.2,0.1 0.4,0.3 0.6,0.4 0.2,0.1 0.4,0.2 0.6,0.2 z m 0.5,-1.4 c -0.2,-0.1 -0.3,-0.1 -0.5,-0.1 -0.2,0 -0.4,-0.1 -0.5,-0.2 -0.1,0 -0.1,0.1 -0.1,0.1 0.3,0.1 0.7,0.3 1.1,0.3 0.1,0 0.1,-0.1 0,-0.1 z m 0.2,-1.9 c -0.4,0.1 -0.8,0.3 -1.1,0.5 -0.1,0.1 0,0.2 0.1,0.1 0.2,-0.1 0.4,-0.2 0.6,-0.2 0.2,-0.1 0.4,-0.1 0.6,-0.2 0,-0.1 -0.1,-0.3 -0.2,-0.2 z m -0.8,-2.2 -0.1,-0.1 c 0,0 -0.1,0 -0.1,0.1 0,0 -0.4,0.5 -0.5,0.5 -0.2,0.2 -0.3,0.4 -0.4,0.6 -0.1,0.1 0.1,0.1 0.1,0.1 0.3,-0.4 0.6,-0.7 0.9,-1 0.1,-0.1 0.1,-0.1 0.1,-0.2 z m -2.1,-0.8 c -0.1,0.2 -0.1,0.4 -0.2,0.5 -0.1,0.2 -0.1,0.4 -0.2,0.6 0,0.1 0.1,0.1 0.1,0 0.1,-0.2 0.2,-0.4 0.2,-0.6 0.1,-0.2 0.2,-0.4 0.2,-0.6 0,0.1 -0.1,0 -0.1,0.1 z m -1.4,0.8 c -0.1,-0.2 -0.1,-0.3 -0.2,-0.5 -0.1,-0.2 -0.1,-0.3 -0.2,-0.5 0,-0.1 -0.1,-0.1 -0.1,0 -0.1,0.3 0.2,0.8 0.3,1.1 0.1,0.1 0.2,0 0.2,-0.1 z m -1.4,0 c -0.1,-0.2 -0.2,-0.3 -0.3,-0.5 0,-0.1 -0.1,0 -0.1,0.1 0.1,0.2 0.2,0.4 0.2,0.6 0.1,0.2 0.2,0.4 0.3,0.4 0.1,0 0.1,0 0.1,-0.1 0.1,-0.2 -0.1,-0.4 -0.2,-0.5 z m -0.6,1 -0.3,-0.3 c -0.1,-0.1 -0.3,-0.2 -0.4,-0.3 -0.1,-0.1 -0.2,0 -0.1,0.1 0.1,0.1 0.2,0.3 0.4,0.4 0.1,0.1 0.2,0.2 0.4,0.3 z m -0.9,0.9 c -0.3,-0.2 -0.7,-0.2 -1,-0.3 -0.1,0 -0.1,0.1 0,0.1 0.3,0.1 0.6,0.3 0.9,0.4 0.1,-0.1 0.2,-0.2 0.1,-0.2 z"
                       fill="#000000"
                       stroke-width="none"
                       opacity="1" />
                  </g>
                </g>
              </g>
              <g
                 id="svga-group-eyesfront-right">
                <path
                   id="SvgjsPath12939"
                   d="m 121,72.1 c -8.2,0 -14.8,6.6 -14.8,14.8 0,8.2 6.6,14.8 14.8,14.8 8.2,0 14.8,-6.6 14.8,-14.8 0,-8.1 -6.6,-14.8 -14.8,-14.8 z m 8.3,19.7 c -3.4,2.8 -9,2.2 -14.3,0.8 0,0 -0.8,1.7 -1.5,1.6 -0.7,0 -2.3,-1.2 -2.3,-2.8 0,-1.7 0.4,-5.3 3.1,-8 0,0 11.9,0.5 16.8,2.5 0,-0.1 1.6,3.1 -1.8,5.9 z"
                   fill="#ffffff"
                   stroke-width="none"
                   opacity="1" />
                <path
                   id="SvgjsPath12942"
                   d="m 133.8,85.7 c -10.8,-2.7 -21.2,-3.6 -23,-2.5 -1.8,1.1 -0.9,3.7 -0.9,3.8 0.1,0.2 0.2,0.3 0.3,0.3 0.3,0.2 0.5,0.4 0.8,0.6 -0.2,0.6 -0.3,1.1 -0.4,1.8 -0.3,2.6 0.8,4.7 2.1,5 h 0.4 c 0.5,0 1.3,-0.3 1.8,-1.6 1.6,0.5 5.3,1.4 8.5,1.4 1.2,0 2.3,-0.1 3.2,-0.5 2.3,-0.8 4.1,-2.5 4.9,-4.5 0.4,-1.1 0.5,-2.3 0.2,-3.2 0.6,0.1 1.3,0.3 1.9,0.5 0.3,0.1 0.6,-0.1 0.6,-0.4 0,-0.3 -0.2,-0.6 -0.4,-0.7 z m -22.5,-1.6 c 0,0 0.1,-0.1 0.2,-0.1 0.1,0.3 0.3,0.5 0.6,0.6 0.2,0.1 0.5,-0.1 0.4,-0.4 -0.1,-0.1 -0.2,-0.3 -0.3,-0.4 0.3,0 0.7,-0.1 1.2,-0.1 -0.3,0.4 -0.7,0.8 -1,1.4 -0.1,0 -0.1,-0.1 -0.2,-0.1 -0.4,-0.3 -0.7,-0.5 -1.1,-0.7 0,-0.1 0.1,-0.1 0.2,-0.2 z m -0.5,0.7 c 0.3,0.2 0.6,0.5 0.9,0.7 l 0.3,0.3 c -0.1,0.1 -0.1,0.3 -0.2,0.4 -0.3,-0.3 -0.7,-0.6 -1.1,-0.8 0,-0.2 0,-0.4 0.1,-0.6 z m 0.4,2.6 c -0.1,-0.1 -0.3,-0.2 -0.4,-0.3 0.1,-0.1 0.2,-0.3 0.1,-0.5 0,0 0,-0.2 -0.1,-0.4 0.2,0.2 0.4,0.4 0.7,0.6 z m 19.2,-1.3 c 0.4,0.8 0.4,1.9 0,3 -0.7,1.7 -2.3,3.2 -4.2,3.9 -3.8,1.4 -11.7,-1.2 -11.8,-1.2 -0.3,-0.1 -0.6,0.1 -0.7,0.3 -0.1,0.2 0,0.5 0.2,0.6 -0.2,0.4 -0.5,1 -1,0.9 -0.7,-0.2 -1.6,-1.8 -1.3,-3.9 0.4,-3.1 2.7,-5.5 3.1,-5.9 3.5,0.1 9.1,0.7 15.6,2.2 0.1,0 0.1,0.1 0.1,0.1 z m -1.1,7.4 c -1.3,0.4 -2.9,1.6 -4.3,1.3 -0.3,-0.1 -0.4,0.3 -0.1,0.4 0.8,0.2 1.4,0 2.1,-0.3 0.8,-0.3 1.6,-0.7 2.4,-1.1 0.1,-0.2 0,-0.4 -0.1,-0.3 z"
                   fill="#000000"
                   stroke-width="none"
                   opacity="1" />
              </g>
            </g>
          </g>
          <g
             id="svga-group-facehighlight-single" />
          <g
             id="svga-group-eyebrows-left-move">
            <g
               id="svga-group-eyebrows-left-rotate">
              <g
                 id="svga-group-eyebrows-left"
                 transform="matrix(1.0500002,0,0,1.0500002,-3.8672825,-3.6816725)">
                <path
                   id="SvgjsPath12863"
                   d="m 63.38,74.47 c 0.22,-0.18 5.53,-4.4 8.18,-4.68 2.64,-0.28 18.4,3.81 19.44,5.45 0.47,0.75 0.57,1.33 0.28,1.75 -0.23,0.33 -0.68,0.5 -1.35,0.5 -0.44,0 -0.98,-0.07 -1.61,-0.21 -1.05,-0.23 -3.78,-1.19 -6.94,-2.29 -4.07,-1.43 -8.69,-3.04 -9.81,-3.12 -1.58,-0.1 -6.16,2.28 -7.79,3.21 -0.16,0.09 -0.37,0.04 -0.48,-0.11 a 0.408,0.408 0 0 1 0.08,-0.5 z"
                   fill="#000000"
                   stroke-width="none"
                   opacity="1" />
              </g>
            </g>
          </g>
          <g
             id="svga-group-eyebrows-right-move">
            <g
               id="svga-group-eyebrows-right-rotate">
              <g
                 id="svga-group-eyebrows-right"
                 transform="matrix(1.0500002,0,0,1.0500002,-6.1327342,-3.6816725)">
                <path
                   id="SvgjsPath12864"
                   d="m 136.62,74.47 c -0.22,-0.18 -5.53,-4.4 -8.18,-4.68 -2.64,-0.28 -18.4,3.81 -19.44,5.45 -0.47,0.75 -0.57,1.33 -0.28,1.75 0.23,0.33 0.68,0.5 1.35,0.5 0.44,0 0.98,-0.07 1.61,-0.21 1.05,-0.23 3.78,-1.19 6.94,-2.29 4.07,-1.43 8.69,-3.04 9.81,-3.12 1.58,-0.1 6.16,2.28 7.79,3.21 0.16,0.09 0.37,0.04 0.48,-0.11 0.09,-0.17 0.06,-0.38 -0.08,-0.5 z"
                   fill="#000000"
                   stroke-width="none"
                   opacity="1" />
              </g>
            </g>
          </g>
          <g
             id="svga-group-beardwrap">
            <g
               id="svga-group-beard-single-move"
               transform="translate(1,1)">
              <g
                 id="svga-group-beard-single"
                 transform="matrix(0.8499994,0,0,0.8499994,14.949512,19.524454)">
                <path
                   id="SvgjsPath12853"
                   d="m 122.5,112.9 c -1.7,-2.3 -4.1,-2.8 -6.5,-2.2 -0.7,0 -1.4,0.1 -2.2,0.2 -0.6,0 -1.1,0 -1.7,0.1 -3,0.3 -5.9,1.4 -8.9,1.8 -1.5,0.2 -2.9,0.3 -4.3,0.2 -3.8,-0.8 -8.3,-1.7 -12.3,-1.5 -0.7,-0.1 -1.5,-0.1 -2.2,-0.2 -3.2,-0.2 -6.1,0.9 -7.5,4 -0.3,0.6 -0.5,1.2 -0.6,1.8 -0.4,0.9 -0.8,1.8 -1,3 -0.7,3.3 -0.1,7.6 1.5,11.6 0,0.1 0,0.2 0.1,0.3 0.1,5 3.7,9.5 7.5,12.6 1.6,1.3 3.3,2.3 5.2,3.1 0,0.1 0.1,0.3 0.3,0.4 3.2,1.4 7.1,2.2 10.6,1.5 1.6,-0.1 3.3,-0.2 4.9,-0.5 2.7,-0.4 5,-1.3 7,-2.4 6.5,-2.6 10.3,-13 11.1,-18.8 0.6,-4.6 1.9,-10.9 -1,-15 z m -6.1,12 c -0.2,1.1 -0.5,2.1 -0.8,3.1 -1,1.4 -1.8,3 -3,4.3 l -1.8,1.8 c -1.7,0.8 -3.5,1.3 -5.6,1.3 -0.1,0 -0.1,-0.1 -0.2,-0.1 -0.1,-0.4 -0.3,-0.9 -0.4,-1.3 -0.1,-0.8 -0.1,-1.6 0.2,-2.3 0.3,-0.7 -0.7,-1.2 -1.2,-0.8 -0.8,0 -1.6,0.3 -2.4,0.4 h -0.1 c -0.7,-0.2 -1.4,0 -2.1,0 -1,0 -1.9,-0.2 -2.9,-0.3 H 96 c -0.7,-0.3 -1.2,0.5 -1.1,1.1 0,0.1 0.1,0.3 0.2,0.4 v 0.1 c 0,0.9 -0.2,1.8 -0.7,2.6 -0.1,0.1 -0.2,0.1 -0.4,0.1 -0.2,0.1 -0.4,0.1 -0.5,0.1 -2.7,-0.2 -5.2,-1.4 -7.2,-3.2 -0.5,-0.5 -1,-1 -1.4,-1.6 -1.9,-2.5 -3.1,-5.4 -3.4,-8.5 0,-0.1 -0.1,-0.3 -0.1,-0.4 v -3.6 c 0.4,-0.6 0.8,-1.1 1.3,-1.4 0.8,-0.5 1.6,-0.7 2.6,-0.9 0.4,0.1 0.8,0.1 1.1,0.1 1.3,0 2.6,0.1 3.8,0.1 1.3,0.2 2.6,0.4 3.8,0.6 0.7,0.1 1.5,0.1 2.2,0.2 0.3,0 0.7,0.1 1,0.1 3,0.2 5.9,-0.1 8.9,-0.6 1.4,-0.3 2.7,-0.6 4,-0.9 0.8,-0.1 1.5,-0.2 2.2,-0.4 1.8,0.3 3.7,0.5 5.1,1.7 0,0.9 0.1,1.9 0.1,2.8 -0.8,1.6 -0.8,3.6 -1.1,5.4 z"
                   fill="#000000"
                   stroke-width="none"
                   opacity="1" />
                <path
                   id="SvgjsPath12854"
                   d="m 86.5,112.6 c -2.1,0 -4.3,0.7 -5.6,2.4 -0.2,0.2 0.2,0.6 0.4,0.3 1.4,-1.5 3.4,-1.7 5.2,-2.4 0.3,0 0.3,-0.3 0,-0.3 z m 2.4,1 c -2,-0.2 -4,0.4 -5.8,1.2 -0.3,0.2 -0.1,0.6 0.3,0.5 1.8,-0.8 3.7,-1.1 5.6,-1.3 0.2,-0.1 0.1,-0.4 -0.1,-0.4 z m 3.7,-0.1 c -1.3,0.3 -2.5,0.8 -3.8,1.1 -0.3,0.1 -0.2,0.5 0.1,0.5 1.4,-0.2 2.7,-0.4 3.9,-1.2 0.1,-0.2 0,-0.4 -0.2,-0.4 z m 2.1,0.2 c -0.4,0.1 -0.7,0.2 -1,0.4 l -1.1,0.5 c -0.4,0.2 -0.1,0.7 0.3,0.5 0.7,-0.3 1.5,-0.5 2.1,-1 0.1,-0.2 -0.1,-0.5 -0.3,-0.4 z m 1.2,0.3 c -0.6,0.2 -1.1,0.7 -1.6,1.1 -0.2,0.2 0,0.6 0.2,0.4 0.5,-0.3 1.2,-0.7 1.6,-1.1 0.2,-0.3 0,-0.5 -0.2,-0.4 z m 3.2,-0.3 c -0.4,0.2 -0.7,0.6 -1.1,0.8 l -1.2,0.9 c -0.3,0.2 -0.1,0.8 0.3,0.6 0.8,-0.5 1.8,-1.1 2.2,-2 0.2,-0.2 0,-0.4 -0.2,-0.3 z m 0.7,1 c -0.4,0.6 -0.6,1.2 -0.8,1.9 -0.1,0.3 0.4,0.5 0.5,0.2 0.3,-0.7 0.5,-1.2 0.7,-1.9 0,-0.2 -0.3,-0.4 -0.4,-0.2 z m 1.6,-0.6 c 0,-0.3 -0.4,-0.3 -0.5,0 -0.1,0.8 0.1,1.9 0.9,2.4 0.2,0.1 0.4,-0.1 0.3,-0.3 -0.3,-0.7 -0.7,-1.3 -0.7,-2.1 z m 3.9,1.5 c -0.6,-0.2 -1.1,-0.4 -1.5,-1 -0.2,-0.3 -0.6,0 -0.4,0.2 0.4,0.7 1.1,1.2 1.9,1.1 0.2,0 0.1,-0.3 0,-0.3 z m 3.9,-0.5 c -1,-0.1 -2.1,-0.3 -2.7,-1.2 -0.3,-0.4 -0.9,0 -0.7,0.4 0.8,1 2.2,1.8 3.4,1.2 0.2,-0.1 0.1,-0.4 0,-0.4 z m 2.9,-0.8 c -0.5,-0.1 -1,-0.1 -1.5,-0.3 -0.6,-0.2 -1.1,-0.5 -1.6,-0.9 -0.3,-0.2 -0.7,0.2 -0.4,0.4 0.9,0.8 2.3,1.6 3.5,1.2 0.2,0 0.2,-0.3 0,-0.4 z m 4,-0.4 c -1.1,-0.4 -2.3,-0.8 -3.3,-1.4 -0.3,-0.2 -0.5,0.2 -0.2,0.4 1,0.7 2.2,1.4 3.5,1.4 0.2,-0.1 0.2,-0.4 0,-0.4 z m 4,0.2 c -1.6,-0.7 -3.2,-1.2 -4.6,-2.2 -0.2,-0.1 -0.4,0.2 -0.2,0.3 1.2,1.2 3,2.4 4.7,2.4 0.2,0 0.3,-0.4 0.1,-0.5 z m 2,0.2 c -0.6,-0.7 -1.4,-1.2 -2,-2 -0.2,-0.2 -0.6,0.1 -0.4,0.3 0.5,0.7 1.1,1.1 1.7,1.7 0.6,0.7 1,1.4 1.4,2.2 0.1,0.2 0.3,0.1 0.3,-0.1 -0.2,-0.7 -0.5,-1.4 -1,-2.1 z m -2.3,1.1 c -0.3,-0.4 -0.8,0.2 -0.5,0.5 1.5,1.9 2.3,4 2.2,6.4 0,0.1 0.2,0.2 0.3,0.1 1,-2.5 -0.3,-5 -2,-7 z m 0.6,7.7 c 0,-0.2 -0.4,-0.2 -0.4,0.1 0.3,2.5 0.2,4.9 0.3,7.4 0,0.3 0.4,0.4 0.5,0.1 0.4,-2.6 0,-5.2 -0.4,-7.6 z m -0.9,5.3 c -0.1,-0.3 -0.5,-0.2 -0.5,0.1 0.4,2.1 0.3,4 0.2,6.1 0,0.2 0.3,0.2 0.3,0 0.6,-1.9 0.4,-4.1 0,-6.2 z M 119,119 c -0.1,-0.3 -0.5,-0.2 -0.5,0.1 0.2,1.5 0.3,3.1 0.6,4.6 0.1,0.2 0.4,0.2 0.4,-0.1 0.1,-1.5 -0.3,-3.1 -0.5,-4.6 z m -0.4,4.8 c -0.1,-0.3 -0.5,-0.2 -0.4,0.1 0.2,0.9 0.3,1.8 0.5,2.6 0.1,0.2 0.4,0.1 0.4,-0.1 0,-0.7 -0.3,-1.7 -0.5,-2.6 z m 0,10.7 c 0,-0.3 -0.5,-0.3 -0.5,0 0.1,2.4 -0.3,4.7 -0.6,7.2 0,0.3 0.3,0.4 0.4,0.1 0.8,-2.4 0.9,-4.9 0.7,-7.3 z m -1.7,-4.8 c -0.1,-0.3 -0.6,-0.2 -0.6,0.1 0.2,1.3 0.2,2.6 0.4,3.9 0,0.3 0.4,0.4 0.5,0.1 0.3,-1.4 0.1,-2.8 -0.3,-4.1 z m -1.2,2.9 c 0,-0.2 -0.4,-0.2 -0.4,0 0.2,3.4 -0.1,6.8 -0.4,10.2 0,0.2 0.2,0.2 0.3,0 0.9,-3.3 0.9,-6.8 0.5,-10.2 z m -2.6,8.9 c -0.2,2 -0.8,3.7 -1.3,5.6 -0.1,0.2 0.2,0.3 0.3,0.1 0.9,-1.7 1.2,-3.8 1.4,-5.7 0,-0.2 -0.4,-0.2 -0.4,0 z m -2.7,0.8 c -0.2,1.9 -0.8,3.7 -1.2,5.6 -0.1,0.3 0.3,0.4 0.4,0.2 0.8,-1.8 1.2,-3.8 1.3,-5.7 0,-0.3 -0.5,-0.4 -0.5,-0.1 z m -2.4,3.1 c -0.3,0.9 -0.9,1.8 -1.3,2.7 -0.1,0.2 0.2,0.3 0.3,0.2 0.7,-0.7 1.1,-1.8 1.4,-2.8 0.1,-0.3 -0.3,-0.4 -0.4,-0.1 z m 2,-9.3 c 0,-0.2 -0.4,-0.3 -0.4,-0.1 -0.2,1.8 -0.7,3.7 -0.7,5.6 0,0.3 0.4,0.3 0.5,0.1 0.6,-1.8 0.6,-3.8 0.6,-5.6 z m 1.4,-0.5 c -0.1,1.5 -0.4,3 -0.3,4.5 0,0.2 0.3,0.3 0.4,0.1 0.3,-1.5 0.3,-3.1 0.4,-4.5 0,-0.4 -0.5,-0.4 -0.5,-0.1 z m 2.4,-1.9 c -0.1,-0.3 -0.5,-0.2 -0.5,0.1 0.1,1.1 0,2.3 0.1,3.4 0,0.3 0.4,0.3 0.5,0.1 0.3,-1.2 0.1,-2.4 -0.1,-3.6 z M 81,113 c -1,0.4 -1.6,1.4 -2.3,2.2 -0.7,1 -1.5,2 -1.6,3.2 0,0.3 0.4,0.4 0.5,0.1 1,-1.8 2,-3.9 3.7,-5.2 0.2,-0.1 -0.1,-0.4 -0.3,-0.3 z m -2.1,6.4 c -1.6,1.5 -2.2,3.6 -2.2,5.7 0,0.2 0.3,0.2 0.3,0 0.6,-1.9 0.9,-3.9 2.2,-5.5 0.2,-0.1 -0.1,-0.3 -0.3,-0.2 z m 1.5,-2.5 c -0.3,0.6 -0.7,1.2 -0.9,1.8 -0.1,0.1 0.2,0.2 0.2,0.1 0.4,-0.5 0.7,-1.1 1,-1.7 0.1,-0.2 -0.2,-0.4 -0.3,-0.2 z m -2.1,8.1 c -0.7,1.8 -1.1,3.8 -0.9,5.7 0,0.2 0.3,0.1 0.3,0 0.3,-1.9 0.4,-3.7 0.8,-5.6 0.1,-0.2 -0.1,-0.2 -0.2,-0.1 z m -1.9,-4.1 c -0.6,0.8 -1.2,2 -0.8,2.9 0.1,0.2 0.4,0.2 0.5,0 0.1,-0.4 0.1,-0.9 0.2,-1.3 0.1,-0.5 0.3,-0.9 0.6,-1.4 0.1,-0.2 -0.3,-0.4 -0.5,-0.2 z m 3.9,1.1 c -0.2,1.1 -0.4,2.2 -0.6,3.2 0,0.1 0.2,0.2 0.2,0 0.4,-1.1 0.5,-2.2 0.7,-3.3 0,-0.1 -0.3,-0.1 -0.3,0.1 z m -0.2,6.9 c 0,-0.2 -0.4,-0.3 -0.4,-0.1 -0.4,1.9 -0.6,4 -0.2,5.9 0.1,0.2 0.4,0.2 0.4,-0.1 0.2,-1.9 0.1,-3.8 0.2,-5.7 z m 1.6,5.2 c 0,-0.3 -0.5,-0.2 -0.5,0.1 0.1,1.4 0.3,2.8 0.9,4.1 0.1,0.2 0.3,0.1 0.3,-0.1 -0.2,-1.4 -0.6,-2.7 -0.7,-4.1 z m 0.4,-6.8 c 0,-0.3 -0.4,-0.3 -0.5,0 -0.2,1.5 -0.4,3.2 0.1,4.7 0.1,0.2 0.5,0.2 0.5,-0.1 -0.1,-1.5 -0.3,-3 -0.1,-4.6 z m 1.4,4.3 c 0,-0.2 -0.5,-0.2 -0.4,0.1 0.1,1.3 0.1,2.8 0.4,4.1 0.1,0.2 0.4,0.2 0.4,-0.1 0,-1.4 -0.2,-2.8 -0.4,-4.1 z m 2.5,12.3 c -0.7,-1.8 -1.3,-3.4 -1.8,-5.2 -0.1,-0.2 -0.4,-0.2 -0.4,0.1 0.1,1.9 0.7,4 1.9,5.4 0.1,0.2 0.4,-0.1 0.3,-0.3 z m 2.3,1 c -0.8,-2 -1.7,-3.8 -2.2,-5.9 -0.1,-0.3 -0.5,-0.2 -0.4,0.1 0.4,2.1 1.1,4.2 2.3,5.9 0.1,0.3 0.4,0.1 0.3,-0.1 z m -2.1,-11.7 c 0,-0.2 -0.3,-0.3 -0.4,-0.1 -0.5,1.4 -0.6,3 0,4.4 0.1,0.2 0.5,0.1 0.5,-0.1 -0.1,-1.5 -0.2,-2.8 -0.1,-4.2 z M 88,135 c -0.1,-0.2 -0.4,-0.1 -0.4,0.1 0.2,1.4 0.3,3 0.8,4.4 0.1,0.2 0.4,0.2 0.4,-0.1 -0.1,-1.5 -0.5,-3 -0.8,-4.4 z m 4.6,11.8 c -1.5,-1.9 -2.7,-3.6 -3,-6.1 0,-0.2 -0.5,-0.2 -0.4,0.1 0.2,2.4 1.2,4.9 3.2,6.3 0.1,0.1 0.3,-0.2 0.2,-0.3 z m 2.4,1.4 c -0.3,-0.6 -0.8,-1.1 -1.1,-1.6 -0.4,-0.6 -0.7,-1.1 -1,-1.8 -0.1,-0.3 -0.5,0 -0.4,0.2 0.5,1.2 1.2,2.7 2.3,3.4 0.1,0.2 0.3,0 0.2,-0.2 z m 0.8,-2.9 c -0.2,-0.4 -0.8,-0.1 -0.7,0.3 0.5,1.2 1,2.6 2,3.5 0.1,0.1 0.4,0 0.3,-0.2 -0.3,-1.3 -1.1,-2.4 -1.6,-3.6 z m -4.6,-9.2 c 0,-0.3 -0.4,-0.3 -0.4,0 -0.1,2 0.2,4.2 1.3,5.9 0.1,0.2 0.5,0.1 0.4,-0.2 -0.6,-1.9 -1.2,-3.7 -1.3,-5.7 z m 2.8,2.3 c 0,-0.3 -0.6,-0.3 -0.5,0 0.1,1.7 0.5,3.7 1.6,5.1 0.1,0.2 0.4,0 0.4,-0.2 -0.6,-1.7 -1.3,-3.1 -1.5,-4.9 z m 2.5,-5.5 c 0.1,-0.3 -0.4,-0.5 -0.5,-0.1 -0.4,1.9 -0.6,3.9 0,5.8 0.1,0.2 0.4,0.2 0.4,-0.1 -0.1,-1.9 -0.2,-3.7 0.1,-5.6 z m 1.4,4.4 c 0,-0.4 -0.5,-0.4 -0.6,0 -0.1,2.1 0.1,4.4 1.2,6.3 0.2,0.3 0.6,0.1 0.5,-0.2 -0.4,-2.1 -1,-4 -1.1,-6.1 z m 1.3,9.8 c -0.7,-1.5 -1.5,-2.9 -2,-4.5 -0.1,-0.3 -0.5,-0.2 -0.4,0.1 0.5,1.6 1.1,3.3 2.2,4.6 0,0.2 0.3,0 0.2,-0.2 z m 2.1,-1.9 c 0,-0.2 -0.3,-0.2 -0.3,0 -0.3,1.1 -0.3,2.3 -0.4,3.4 0,0.3 0.5,0.3 0.5,0 0.1,-1.2 0.3,-2.3 0.2,-3.4 z m 3.1,-0.7 c 0,-0.3 -0.4,-0.4 -0.5,-0.1 -0.4,1.2 -0.5,2.5 -1,3.7 -0.1,0.4 0.4,0.6 0.6,0.2 0.6,-1.1 1.1,-2.5 0.9,-3.8 z m 1.9,-1.2 c -0.4,1.4 -0.8,2.9 -1.1,4.4 -0.1,0.3 0.4,0.4 0.5,0.1 0.4,-1.5 0.8,-2.9 1.1,-4.4 0,-0.3 -0.4,-0.4 -0.5,-0.1 z m 0.8,-4.5 c -0.1,-0.2 -0.4,-0.1 -0.4,0.1 0,1 0.2,2 -0.1,3 -0.1,0.4 0.5,0.5 0.6,0.2 0.3,-1 0.4,-2.3 -0.1,-3.3 z m -3.3,0.7 c -0.1,-0.2 -0.4,-0.2 -0.5,0 -0.2,1 -0.2,2.2 -0.2,3.3 0,0.4 0.5,0.4 0.6,0.1 0.2,-1.1 0.3,-2.3 0.1,-3.4 z m -2.2,0.5 c 0,-0.2 -0.3,-0.3 -0.4,-0.1 -0.3,0.9 -0.2,2.1 0,3 0.1,0.3 0.5,0.2 0.5,-0.1 -0.1,-0.9 0,-1.9 -0.1,-2.8 z m 3.9,-3.8 c 0,-0.3 -0.5,-0.3 -0.5,0 0,0.8 -0.2,1.8 0,2.6 0.1,0.2 0.4,0.2 0.4,0 0.3,-0.8 0.1,-1.8 0.1,-2.6 z m -2.7,-1.4 c 0,-0.3 -0.5,-0.3 -0.5,0 0,1.1 -0.2,2.1 -0.4,3.1 0,0.2 0.3,0.3 0.4,0.1 0.6,-0.9 0.6,-2.1 0.5,-3.2 z m -3.1,1.1 c -0.2,1.1 -0.5,2.7 -0.2,3.7 0.1,0.2 0.4,0.2 0.4,0 0.2,-0.5 0.2,-1.1 0.2,-1.7 0,-0.6 0.1,-1.3 0.2,-1.9 0.1,-0.3 -0.5,-0.4 -0.6,-0.1 z m -1.1,-3.6 c 0,-0.3 -0.4,-0.3 -0.5,0 -0.1,1.1 -0.2,2.3 0.1,3.4 0.1,0.2 0.4,0.2 0.4,-0.1 0.2,-1.1 0,-2.2 0,-3.3 z m 1.5,0.2 c 0,-0.3 -0.4,-0.3 -0.5,0 -0.1,0.7 -0.1,1.5 0.3,2.2 0.1,0.1 0.3,0.1 0.3,-0.1 0,-0.7 -0.1,-1.4 -0.1,-2.1 z m 1.4,0.7 c 0,0.3 -0.1,0.6 -0.1,0.9 0,0.1 0.2,0.1 0.2,0 0.1,-0.3 0.1,-0.6 0.1,-0.9 0.1,-0.2 -0.2,-0.2 -0.2,0 z m 1.9,-0.2 v 0.8 c 0,0.1 0.1,0.1 0.1,0 V 133 c 0.1,-0.1 -0.1,-0.1 -0.1,0 z"
                   fill="#ffffff"
                   stroke-width="none"
                   opacity="1" />
              </g>
            </g>
          </g>
          <g
             id="svga-group-mustache-single-move">
            <g
               id="svga-group-mustache-single"
               transform="scale(0.7999992)" />
          </g>
          <g
             id="svga-group-nose-single-move">
            <g
               id="svga-group-nose-single">
              <path
                 id="SvgjsPath13108"
                 d="m 103.29,107.27 c -1.43,1.14 -6.6,0.84 -8.09,-1.16 -1.49,-2.01 -1.23,-5.37 -0.71,-8.74 0.52,-3.36 3.24,-17.34 3.75,-18.38 0.52,-1.04 1.75,-1.16 2.39,0 0.64,1.16 3.43,16.63 3.75,20.45 0.32,3.82 0.86,6.28 -1.09,7.83 z"
                 fill="#ffffff"
                 stroke-width="none"
                 opacity="1" />
              <path
                 id="SvgjsPath13109"
                 d="m 95.15,107.24 c 2.35,1.15 5.1,2.37 7.68,1.14 2.66,-1.27 2.67,-4.06 2.36,-6.63 -0.96,-7.77 -2.31,-15.48 -3.95,-23.13 -0.2,-0.94 -1.65,-0.54 -1.44,0.4 1.2,5.6 2.24,11.23 3.09,16.89 0.41,2.72 1.34,5.93 0.94,8.68 -0.62,4.25 -5.38,2.6 -7.91,1.36 -0.88,-0.42 -1.64,0.87 -0.77,1.29 z"
                 fill="#000000"
                 stroke-width="none"
                 opacity="1" />
            </g>
          </g>
          <g
             id="svga-group-hair-front" />
          <g
             id="svga-group-glasses-single-move">
            <g
               id="svga-group-glasses-single">
              <path
                 id="SvgjsPath13001"
                 d="m 62.3,79.75 c -1.59,0.87 -1.64,3.97 -0.75,10.07 0.89,6.1 1.99,7.74 3.7,8.43 1.71,0.69 9.94,2.19 17.34,1.37 7.4,-0.82 7.74,-2.06 8.7,-3.08 0.96,-1.03 4.59,-8.36 4.59,-12.54 0,-4.18 -13.98,-4.8 -17.13,-4.93 -3.16,-0.15 -14.19,-0.56 -16.45,0.68 z"
                 fill="url(#SvgjsLinearGradient13002)"
                 opacity="1"
                 style="fill:url(#SvgjsLinearGradient13002)" />
              <path
                 id="SvgjsPath13005"
                 d="m 137.55,79.75 c 1.59,0.87 1.64,3.97 0.75,10.07 -0.89,6.1 -1.99,7.74 -3.7,8.43 -1.71,0.69 -9.94,2.19 -17.34,1.37 -7.4,-0.82 -7.74,-2.06 -8.7,-3.08 -0.96,-1.03 -4.59,-8.36 -4.59,-12.54 0,-4.18 13.98,-4.8 17.13,-4.93 3.16,-0.15 14.19,-0.56 16.45,0.68 z"
                 fill="url(#SvgjsLinearGradient13006)"
                 opacity="1"
                 style="fill:url(#SvgjsLinearGradient13006)" />
              <path
                 id="SvgjsPath13009"
                 d="m 121.18,100.34 c -2.08,0 -3.85,-0.1 -5.26,-0.28 -4.66,-0.62 -6.59,-1.09 -8.39,-3.54 -1.56,-2.13 -3.04,-6.67 -3.75,-8.85 -0.14,-0.42 -0.25,-0.76 -0.33,-1.01 -0.63,-1.82 -2.41,-2.11 -2.49,-2.13 h -2.01 c -0.13,0.02 -1.92,0.31 -2.55,2.13 -0.09,0.25 -0.2,0.59 -0.33,1 -0.71,2.18 -2.19,6.73 -3.75,8.86 -1.8,2.46 -3.73,2.92 -8.39,3.54 -1.42,0.19 -3.19,0.28 -5.26,0.28 -4.19,0 -8.63,-0.39 -11.16,-0.78 -3.78,-0.58 -5.07,-2.49 -5.83,-5.18 -0.5,-1.74 -0.83,-4.4 -1.07,-6.34 -0.12,-0.97 -0.22,-1.74 -0.3,-2.15 -0.16,-0.78 -0.55,-1.01 -0.86,-1.2 -0.25,-0.15 -0.47,-0.28 -0.66,-0.74 -0.56,-1.34 -0.95,-4.37 -0.34,-4.73 0.54,-0.32 5.31,-0.79 12.51,-0.79 1.87,0 3.75,0.03 5.57,0.1 8.57,0.3 15.6,1.63 18.22,2.18 2.06,0.44 4.15,0.65 4.17,0.66 h 1.99 c 0.06,0 2.15,-0.22 4.21,-0.66 2.62,-0.56 9.65,-1.88 18.22,-2.18 1.83,-0.06 3.7,-0.1 5.57,-0.1 7.2,0 11.97,0.47 12.51,0.79 0.61,0.36 0.22,3.4 -0.34,4.73 -0.19,0.46 -0.41,0.59 -0.66,0.74 -0.31,0.19 -0.7,0.43 -0.86,1.2 -0.08,0.41 -0.18,1.17 -0.3,2.15 -0.24,1.94 -0.57,4.61 -1.07,6.34 -0.77,2.69 -2.06,4.6 -5.83,5.18 -2.55,0.39 -6.99,0.78 -11.18,0.78 0.01,0 0.01,0 0,0 z m 9.58,-21.03 c -1.6,0 -3.43,0.06 -5.36,0.13 -1.34,0.04 -2.74,0.09 -4.19,0.12 -8.5,0.18 -15.36,1.7 -16.32,3.62 -0.4,0.81 -0.75,2.37 0.85,6.62 1.77,4.69 3.31,7.32 4.71,8.02 1.59,0.8 6.48,1.92 12.36,1.92 0.93,0 1.86,-0.03 2.76,-0.09 7.09,-0.45 9.93,-1.52 11.22,-4.24 1.32,-2.77 2.58,-11.51 1.43,-14.07 -0.74,-1.69 -3.52,-2.03 -7.46,-2.03 z m -61.67,0 c -3.94,0 -6.72,0.34 -7.47,2.02 -1.15,2.56 0.11,11.3 1.43,14.07 1.3,2.72 4.13,3.79 11.22,4.24 0.9,0.06 1.83,0.09 2.76,0.09 5.88,0 10.77,-1.12 12.36,-1.92 1.4,-0.7 2.94,-3.32 4.71,-8.02 1.6,-4.26 1.25,-5.82 0.85,-6.62 -0.96,-1.91 -7.82,-3.43 -16.32,-3.62 -1.45,-0.03 -2.85,-0.08 -4.19,-0.12 -1.92,-0.06 -3.75,-0.12 -5.35,-0.12 z"
                 fill="#ffffff"
                 stroke-width="none"
                 opacity="1" />
              <path
                 id="SvgjsPath13010"
                 d="m 141.61,78.89 c -0.74,-0.44 -6.09,-0.85 -12.7,-0.85 -1.79,0 -3.68,0.03 -5.59,0.1 -8.96,0.31 -16.22,1.75 -18.29,2.19 -2.07,0.44 -4.13,0.65 -4.13,0.65 h -1.96 c 0,0 -2.07,-0.21 -4.13,-0.65 -2.07,-0.44 -9.33,-1.88 -18.29,-2.19 -1.91,-0.07 -3.79,-0.1 -5.59,-0.1 -6.61,0 -11.96,0.4 -12.7,0.85 -0.94,0.56 -0.31,4.01 0.19,5.2 0.5,1.19 1.25,0.69 1.5,1.88 0.25,1.19 0.63,5.89 1.38,8.52 0.75,2.63 2.07,4.82 6.14,5.45 2.75,0.42 7.18,0.79 11.22,0.79 1.94,0 3.79,-0.08 5.31,-0.29 4.7,-0.63 6.76,-1.13 8.64,-3.7 1.88,-2.57 3.57,-8.33 4.13,-9.96 0.56,-1.63 2.19,-1.88 2.19,-1.88 h 1.96 c 0,0 1.63,0.25 2.19,1.88 0.56,1.63 2.25,7.39 4.13,9.96 1.88,2.57 3.95,3.07 8.64,3.7 1.52,0.2 3.37,0.29 5.31,0.29 4.04,0 8.47,-0.37 11.22,-0.79 4.07,-0.63 5.39,-2.82 6.14,-5.45 0.75,-2.63 1.13,-7.33 1.38,-8.52 0.25,-1.19 1,-0.69 1.5,-1.88 0.52,-1.19 1.15,-4.64 0.21,-5.2 z M 141,82.96 c -0.87,-0.75 -1.75,-1.55 -2.7,-2.2 -0.11,-0.16 -0.25,-0.3 -0.4,-0.44 a 6.12,6.12 0 0 0 -1.18,-1.31 c 0.25,0.02 0.5,0.03 0.73,0.05 1.18,1.19 2.43,2.31 3.66,3.45 -0.04,0.14 -0.07,0.3 -0.11,0.45 z m -4.36,13.91 c -0.06,-0.08 -0.1,-0.16 -0.15,-0.25 0.08,-0.1 0.16,-0.2 0.23,-0.31 0.04,0.08 0.09,0.15 0.14,0.23 -0.07,0.1 -0.14,0.22 -0.22,0.33 z m -0.56,0.65 c -0.06,-0.08 -0.11,-0.17 -0.17,-0.25 0.13,-0.12 0.25,-0.24 0.36,-0.37 0.04,0.09 0.08,0.17 0.14,0.24 -0.11,0.13 -0.21,0.26 -0.33,0.38 z m -0.7,0.57 a 2,2 0 0 0 -0.19,-0.22 c 0.17,-0.12 0.33,-0.24 0.48,-0.37 0.04,0.09 0.1,0.16 0.16,0.23 -0.14,0.12 -0.28,0.25 -0.45,0.36 z m -0.78,0.43 c -0.05,-0.07 -0.11,-0.14 -0.16,-0.21 0.17,-0.09 0.32,-0.18 0.48,-0.28 0.06,0.07 0.12,0.14 0.19,0.21 -0.17,0.1 -0.32,0.2 -0.51,0.28 z m -2.21,0.56 c 0.19,-0.05 0.37,-0.11 0.55,-0.17 0.02,0.04 0.05,0.08 0.07,0.12 -0.19,0.04 -0.37,0.09 -0.57,0.12 -0.02,-0.02 -0.03,-0.05 -0.05,-0.07 z m 0.83,-0.26 c 0.12,-0.04 0.25,-0.08 0.36,-0.12 l 0.09,0.18 c -0.12,0.04 -0.26,0.07 -0.39,0.1 -0.02,-0.06 -0.03,-0.11 -0.06,-0.16 z m 0.63,-0.24 c 0.1,-0.04 0.21,-0.09 0.31,-0.14 0.03,0.07 0.07,0.15 0.1,0.22 -0.1,0.04 -0.2,0.08 -0.31,0.11 a 1.14,1.14 0 0 0 -0.1,-0.19 z m 3.07,-2.61 c 0.08,-0.13 0.15,-0.26 0.22,-0.4 0.05,-0.1 0.1,-0.23 0.15,-0.36 0.04,0.06 0.11,0.1 0.17,0.14 -0.11,0.29 -0.24,0.56 -0.38,0.83 -0.05,-0.08 -0.11,-0.15 -0.16,-0.21 z m 1.95,-7.88 c -0.03,0.23 -0.06,0.47 -0.09,0.72 -0.01,0 -0.01,-0.01 -0.02,-0.01 l 0.09,-0.72 c 0,0 0.01,0 0.02,0.01 z m -1.42,6.7 c 0.06,-0.17 0.12,-0.34 0.18,-0.53 0.05,0.05 0.1,0.1 0.15,0.14 -0.05,0.19 -0.12,0.36 -0.18,0.54 -0.04,-0.05 -0.09,-0.1 -0.15,-0.15 z m 0.32,-1.03 c 0.03,-0.11 0.06,-0.21 0.09,-0.33 0.04,0.05 0.09,0.09 0.14,0.13 l -0.09,0.35 c -0.04,-0.04 -0.09,-0.1 -0.14,-0.15 z m 0.33,-0.66 c -0.04,-0.05 -0.08,-0.11 -0.11,-0.16 0.03,-0.14 0.07,-0.27 0.1,-0.41 0.03,0.05 0.06,0.1 0.1,0.14 -0.03,0.15 -0.06,0.29 -0.09,0.43 z m 0.11,-1.14 c 0.03,-0.16 0.07,-0.31 0.1,-0.47 l 0.07,0.07 c -0.03,0.19 -0.06,0.37 -0.09,0.55 -0.02,-0.05 -0.06,-0.09 -0.08,-0.15 z m 0.19,-0.95 0.12,-0.66 c 0.01,0.01 0.03,0.02 0.04,0.02 -0.03,0.23 -0.07,0.47 -0.1,0.7 a 0.17,0.17 0 0 1 -0.06,-0.06 z m 0.24,-1.19 -0.03,-0.03 c 0.03,-0.18 0.05,-0.36 0.08,-0.54 l 0.02,0.02 c -0.02,0.18 -0.04,0.36 -0.07,0.55 z m 0.26,-2.21 c 0.04,-0.35 0.07,-0.7 0.09,-1.04 l 0.06,0.06 c -0.04,0.29 -0.08,0.63 -0.13,1.01 -0.01,-0.01 -0.01,-0.02 -0.02,-0.03 z m 0.23,-1.49 c -0.03,-0.04 -0.07,-0.08 -0.1,-0.12 0.01,-0.24 0.03,-0.49 0.03,-0.73 0.07,0.08 0.14,0.15 0.21,0.21 -0.03,0.1 -0.06,0.2 -0.09,0.32 -0.01,0.1 -0.03,0.21 -0.05,0.32 z m -0.07,-1.31 V 84.2 c 0.18,0.22 0.37,0.43 0.59,0.62 -0.1,0.11 -0.19,0.24 -0.27,0.4 -0.11,-0.13 -0.21,-0.27 -0.32,-0.41 z M 115.32,99.6 c -0.39,-0.05 -0.76,-0.11 -1.11,-0.16 0.04,-0.03 0.08,-0.08 0.12,-0.12 0.35,0.07 0.71,0.13 1.09,0.19 -0.03,0.03 -0.06,0.05 -0.1,0.09 0,-0.01 0,0 0,0 z m -1.63,-0.27 c -0.01,0.01 0,0.01 -0.01,0.02 -0.24,-0.04 -0.47,-0.08 -0.69,-0.13 0.06,-0.04 0.12,-0.1 0.17,-0.16 0.21,0.05 0.44,0.1 0.67,0.15 -0.05,0.04 -0.1,0.07 -0.14,0.12 z m -1.25,-0.24 c -0.01,0 -0.01,0.01 -0.01,0.02 -0.35,-0.08 -0.67,-0.16 -0.97,-0.26 0.1,-0.04 0.2,-0.1 0.29,-0.16 0.28,0.08 0.59,0.17 0.92,0.25 -0.08,0.05 -0.15,0.09 -0.23,0.15 z m -1.41,-0.49 c -0.03,0.02 -0.04,0.06 -0.06,0.09 -0.27,-0.1 -0.52,-0.21 -0.76,-0.33 0.08,-0.04 0.16,-0.09 0.24,-0.14 0.21,0.09 0.45,0.19 0.74,0.29 -0.05,0.03 -0.11,0.05 -0.16,0.09 z m -1.21,-0.45 c -0.13,-0.08 -0.26,-0.16 -0.38,-0.24 0.09,-0.04 0.17,-0.1 0.26,-0.15 0.12,0.1 0.24,0.17 0.36,0.24 -0.08,0.04 -0.16,0.1 -0.24,0.15 z m -0.78,-0.55 c -0.12,-0.1 -0.25,-0.21 -0.36,-0.33 0.14,-0.02 0.28,-0.05 0.41,-0.11 0.1,0.12 0.21,0.21 0.31,0.31 -0.13,0.03 -0.25,0.07 -0.36,0.13 z m -0.66,-0.64 c -0.12,-0.13 -0.23,-0.27 -0.35,-0.41 0.17,-0.01 0.34,-0.04 0.49,-0.1 0.09,0.13 0.19,0.24 0.28,0.36 -0.14,0.03 -0.28,0.09 -0.42,0.15 z m -0.62,-0.78 c -0.08,-0.12 -0.17,-0.26 -0.25,-0.39 0.2,0.04 0.4,0.06 0.61,0.03 0.05,0.08 0.1,0.15 0.15,0.23 -0.18,0.02 -0.35,0.07 -0.51,0.13 z m -0.5,-0.78 c -0.1,-0.17 -0.19,-0.36 -0.28,-0.54 0.22,0.11 0.45,0.18 0.7,0.2 0.08,0.14 0.16,0.3 0.24,0.43 -0.23,-0.02 -0.44,-0.06 -0.66,-0.09 z m -0.5,-0.96 c -0.1,-0.21 -0.21,-0.44 -0.31,-0.66 0.24,0.15 0.5,0.3 0.76,0.4 0.08,0.15 0.15,0.31 0.23,0.45 -0.21,-0.08 -0.45,-0.14 -0.68,-0.19 z m -0.51,-1.1 c -0.07,-0.16 -0.13,-0.31 -0.2,-0.47 0.21,0.12 0.42,0.22 0.66,0.28 0.08,0.18 0.16,0.34 0.25,0.51 -0.23,-0.11 -0.48,-0.22 -0.71,-0.32 z m -0.39,-0.94 c -0.07,-0.19 -0.15,-0.37 -0.22,-0.55 0.21,0.15 0.44,0.29 0.68,0.38 0.07,0.16 0.14,0.32 0.2,0.47 a 4.93,4.93 0 0 0 -0.66,-0.3 z m -0.43,-1.11 c -0.08,-0.21 -0.16,-0.42 -0.23,-0.62 0.22,0.19 0.44,0.36 0.68,0.51 0.07,0.17 0.14,0.36 0.21,0.52 -0.21,-0.15 -0.43,-0.28 -0.66,-0.41 z m -0.38,-1.06 c -0.09,-0.26 -0.18,-0.52 -0.27,-0.77 0.19,0.14 0.38,0.27 0.59,0.39 0.01,0.03 0.02,0.05 0.03,0.07 0.11,0.28 0.21,0.53 0.31,0.8 -0.22,-0.17 -0.44,-0.33 -0.66,-0.49 z m -0.47,-1.34 c -0.08,-0.23 -0.15,-0.45 -0.22,-0.66 0.19,0.2 0.39,0.39 0.62,0.53 0.06,0.19 0.13,0.39 0.2,0.59 -0.19,-0.16 -0.38,-0.31 -0.6,-0.46 z m -0.39,-1.18 a 0.983,0.983 0 0 1 -0.05,-0.16 c -0.07,-0.22 -0.14,-0.42 -0.2,-0.6 0.2,0.25 0.42,0.47 0.68,0.62 0.05,0.18 0.11,0.38 0.17,0.58 -0.2,-0.16 -0.41,-0.3 -0.6,-0.44 z m -2.61,-6.06 c 0.46,0.63 0.94,1.25 1.41,1.87 0.38,0.5 0.76,1.05 1.19,1.51 0.01,0.29 0.04,0.61 0.09,0.98 -1.06,-1.44 -2.08,-2.92 -3.21,-4.29 0.11,-0.02 0.28,-0.04 0.52,-0.07 z m 0.86,-0.11 c 0.44,0.89 1.14,1.72 1.74,2.49 0.01,0.02 0.04,0.02 0.05,0.03 -0.02,0.16 -0.04,0.33 -0.05,0.53 -0.3,-0.43 -0.65,-0.83 -0.97,-1.23 -0.45,-0.58 -0.89,-1.16 -1.35,-1.73 0.18,-0.04 0.37,-0.06 0.58,-0.09 z m 1,-0.06 c 0.3,0.48 0.66,1.08 1.16,1.37 0.02,0.01 0.04,0.01 0.06,0.01 -0.03,0.05 -0.08,0.1 -0.1,0.15 -0.09,0.19 -0.19,0.42 -0.25,0.7 -0.46,-0.75 -0.94,-1.56 -1.52,-2.22 0.21,-0.03 0.43,-0.07 0.66,-0.1 -0.02,0.02 -0.03,0.05 -0.01,0.09 z m 1.31,1.25 c 0,-0.01 0,-0.02 -0.01,-0.03 -0.32,-0.48 -0.78,-0.86 -1.12,-1.34 0,-0.01 -0.01,-0.01 -0.02,-0.01 0.13,-0.02 0.27,-0.05 0.41,-0.07 0.25,0.37 0.57,0.9 0.96,1.18 -0.08,0.09 -0.16,0.18 -0.22,0.27 z m 0.44,-0.46 c -0.17,-0.39 -0.53,-0.74 -0.83,-1.04 0.18,-0.03 0.37,-0.07 0.55,-0.11 0.22,0.29 0.45,0.59 0.71,0.85 -0.15,0.09 -0.3,0.19 -0.43,0.3 z m 0.66,-0.45 c -0.18,-0.27 -0.43,-0.52 -0.66,-0.76 0.27,-0.06 0.59,-0.12 0.95,-0.19 0.16,0.19 0.32,0.38 0.5,0.55 -0.29,0.13 -0.55,0.26 -0.79,0.4 z m 1.02,-0.49 c -0.13,-0.19 -0.29,-0.35 -0.45,-0.52 0.19,-0.04 0.4,-0.08 0.61,-0.12 0.08,0.16 0.18,0.32 0.28,0.46 -0.15,0.07 -0.3,0.12 -0.44,0.18 z m 0.67,-0.26 a 3.55,3.55 0 0 0 -0.23,-0.43 c 0.08,-0.02 0.17,-0.03 0.25,-0.05 0.08,0.13 0.18,0.26 0.27,0.38 -0.09,0.04 -0.19,0.07 -0.29,0.1 z m 0.64,-0.2 c -0.07,-0.12 -0.15,-0.23 -0.23,-0.34 l 0.33,-0.06 c 0.07,0.1 0.15,0.2 0.22,0.3 -0.11,0.03 -0.21,0.06 -0.32,0.1 z m 0.63,-0.18 c -0.06,-0.09 -0.12,-0.19 -0.19,-0.28 0.26,-0.04 0.52,-0.09 0.8,-0.13 0.07,0.07 0.14,0.14 0.21,0.2 -0.28,0.06 -0.55,0.13 -0.82,0.21 z m 1.05,-0.27 c -0.04,-0.07 -0.09,-0.13 -0.14,-0.2 0.21,-0.03 0.43,-0.07 0.64,-0.1 0.05,0.06 0.12,0.1 0.18,0.14 -0.23,0.06 -0.46,0.11 -0.68,0.16 z m 1.04,-0.22 c -0.04,-0.05 -0.08,-0.09 -0.12,-0.14 0.12,-0.02 0.25,-0.04 0.38,-0.06 0.04,0.04 0.08,0.08 0.13,0.12 -0.13,0.03 -0.26,0.06 -0.39,0.08 z m 0.66,-0.12 c -0.02,-0.04 -0.05,-0.08 -0.08,-0.12 0.12,-0.02 0.24,-0.04 0.37,-0.05 l 0.1,0.1 c -0.13,0.02 -0.26,0.04 -0.39,0.07 z m 0.69,-0.12 c -0.03,-0.03 -0.05,-0.07 -0.08,-0.1 0.29,-0.04 0.59,-0.08 0.9,-0.12 0.03,0.02 0.05,0.05 0.08,0.08 -0.31,0.04 -0.6,0.09 -0.9,0.14 z m 1.25,-0.19 c -0.02,-0.03 -0.04,-0.05 -0.06,-0.08 0.22,-0.03 0.46,-0.06 0.69,-0.08 0.03,0.02 0.06,0.05 0.09,0.07 z m 0.99,-0.13 c 0,-0.01 0,-0.03 -0.01,-0.04 l -0.03,-0.03 c 0.16,-0.02 0.32,-0.04 0.48,-0.05 0.02,0.02 0.04,0.05 0.06,0.07 -0.16,0.02 -0.33,0.03 -0.5,0.05 z m 0.83,-0.09 c -0.02,-0.02 -0.03,-0.05 -0.05,-0.07 0.23,-0.03 0.46,-0.05 0.7,-0.08 0.02,0.03 0.03,0.06 0.05,0.08 -0.24,0.02 -0.47,0.05 -0.7,0.07 z m 1.07,-0.1 a 0.555,0.555 0 0 0 -0.06,-0.08 l 0.92,-0.09 0.09,0.09 c -0.32,0.02 -0.63,0.05 -0.95,0.08 z m 1.36,-0.11 c -0.02,-0.03 -0.03,-0.07 -0.06,-0.1 0.15,-0.01 0.3,-0.03 0.45,-0.04 0.02,0.04 0.03,0.08 0.06,0.11 z m 0.85,-0.05 c -0.02,-0.04 -0.05,-0.08 -0.07,-0.12 0.21,-0.02 0.42,-0.03 0.63,-0.05 0.03,0.04 0.07,0.09 0.11,0.13 -0.22,0.01 -0.45,0.02 -0.67,0.04 z m 1.09,-0.06 c -0.04,-0.05 -0.07,-0.1 -0.11,-0.14 0.2,-0.01 0.39,-0.03 0.58,-0.04 0.04,0.06 0.1,0.11 0.15,0.16 -0.2,0.01 -0.41,0.01 -0.62,0.02 z m 0.93,-0.03 c 0,-0.01 0,-0.03 -0.01,-0.04 -0.03,-0.05 -0.05,-0.09 -0.08,-0.14 l 0.48,-0.03 c 0.04,0.07 0.08,0.13 0.13,0.19 -0.17,0.01 -0.35,0.01 -0.52,0.02 z m 0.96,-0.03 c -0.06,-0.07 -0.12,-0.13 -0.17,-0.2 l 0.58,-0.03 c 0.05,0.07 0.1,0.15 0.16,0.21 -0.19,0.01 -0.38,0.02 -0.57,0.02 z m 0.98,-0.02 c -0.04,-0.08 -0.08,-0.15 -0.13,-0.22 0.31,-0.01 0.61,-0.03 0.92,-0.04 h 0.02 c 0.07,0.09 0.15,0.16 0.22,0.23 z m 1.4,-0.05 c -0.04,-0.08 -0.09,-0.16 -0.14,-0.23 0.18,-0.01 0.36,-0.01 0.54,-0.01 0.06,0.1 0.13,0.17 0.24,0.23 -0.22,0 -0.43,0.01 -0.64,0.01 z m 0.74,-0.25 c 0.15,0 0.29,-0.01 0.44,-0.01 0.06,0.08 0.14,0.15 0.22,0.22 -0.18,0.01 -0.38,0.01 -0.56,0.02 0.01,-0.02 0.02,-0.04 0.01,-0.07 -0.04,-0.04 -0.07,-0.1 -0.11,-0.16 z m 0.93,0.2 c -0.03,-0.08 -0.08,-0.15 -0.12,-0.22 0.24,-0.01 0.47,-0.01 0.71,-0.02 0.03,0.07 0.07,0.14 0.11,0.22 -0.23,0.01 -0.47,0.01 -0.7,0.02 z m 0.92,-0.03 c -0.02,-0.07 -0.05,-0.14 -0.08,-0.21 0.33,-0.01 0.67,-0.01 1,-0.01 0.02,0.06 0.04,0.13 0.06,0.19 z m 1.24,-0.04 -0.06,-0.18 c 0.26,0 0.53,-0.01 0.79,-0.01 0.06,0.06 0.12,0.11 0.18,0.17 -0.3,0.01 -0.6,0.01 -0.91,0.02 z m 1.28,-0.03 a 1.07,1.07 0 0 0 -0.14,-0.16 h 0.62 c 0.05,0.05 0.09,0.1 0.14,0.15 -0.21,0 -0.42,0.01 -0.62,0.01 z m 0.96,-0.01 c -0.04,-0.05 -0.08,-0.1 -0.13,-0.15 h 0.29 c 0.04,0.05 0.09,0.1 0.13,0.14 -0.1,0.01 -0.2,0.01 -0.29,0.01 z m 0.73,-0.01 h -0.09 c -0.04,-0.04 -0.07,-0.09 -0.11,-0.13 0.14,0 0.29,0 0.43,0.01 0.05,0.05 0.11,0.09 0.17,0.13 -0.13,0 -0.26,-0.01 -0.4,-0.01 z m 0.77,0.01 c 0,-0.01 0,-0.02 -0.01,-0.02 -0.04,-0.04 -0.09,-0.07 -0.13,-0.11 0.23,0 0.45,0.01 0.67,0.01 0.05,0.05 0.1,0.09 0.16,0.13 -0.22,0 -0.46,0 -0.69,-0.01 z m 1.19,-0.07 c -0.02,-0.01 -0.03,-0.02 -0.05,-0.04 0.27,0.01 0.53,0.01 0.78,0.02 0.1,0.07 0.2,0.12 0.3,0.18 -0.31,-0.03 -0.64,-0.04 -0.98,-0.06 0.01,-0.03 0,-0.07 -0.05,-0.1 z m 1.42,0.21 c -0.08,-0.07 -0.17,-0.14 -0.26,-0.21 l 0.76,0.03 c 0.12,0.1 0.25,0.2 0.38,0.29 -0.28,-0.04 -0.58,-0.08 -0.88,-0.11 z m 1.91,0.33 a 6.87,6.87 0 0 0 -0.68,-0.48 c 0.3,0.01 0.58,0.03 0.86,0.04 0.25,0.25 0.5,0.5 0.74,0.75 -0.28,-0.12 -0.59,-0.22 -0.92,-0.31 z m 1.82,-0.33 c 0.28,0.02 0.55,0.04 0.8,0.07 0.73,0.93 1.61,1.8 2.58,2.5 -0.02,0.13 -0.03,0.27 -0.06,0.4 -1.09,-1 -2.18,-2.01 -3.32,-2.97 z m 2.07,0.2 c 0.45,0.51 0.88,1.06 1.4,1.49 -0.01,0.14 -0.02,0.29 -0.04,0.44 -0.76,-0.67 -1.52,-1.34 -2.27,-2.03 0.33,0.03 0.64,0.07 0.91,0.1 z m 0.77,0.12 c 0.2,0.28 0.41,0.58 0.64,0.84 v 0.25 c -0.31,-0.41 -0.68,-0.79 -1.05,-1.16 0.15,0.02 0.29,0.04 0.41,0.07 z m 0.5,0.13 c 0,0 -0.01,-0.01 0,0 -0.01,-0.01 0,-0.01 0,0 0,-0.01 0,0 0,0 z m -42.32,4.62 -0.06,0.01 h -0.01 c -0.67,-0.99 -1.55,-1.9 -2.38,-2.77 0.46,0.08 0.89,0.14 1.25,0.19 0.21,0.44 0.45,0.85 0.72,1.26 0.3,0.45 0.61,0.96 1.03,1.31 z m -0.87,0.27 c -0.53,-0.6 -1.17,-1.14 -1.72,-1.72 -0.48,-0.51 -0.92,-1.05 -1.37,-1.58 0.39,0.08 0.78,0.15 1.15,0.22 0.76,0.98 1.53,2.04 2.43,2.9 -0.13,0.03 -0.3,0.09 -0.49,0.18 z m -0.84,0.51 C 96.86,84.54 96.47,84.2 96.12,83.85 95.86,83.6 95.6,83.34 95.34,83.09 95.33,83.06 95.31,83.03 95.3,83.01 c -0.17,-0.34 -0.49,-0.65 -0.91,-0.94 0.02,-0.03 0.02,-0.06 0.01,-0.09 -0.18,-0.41 -0.45,-0.76 -0.72,-1.11 0.31,0.06 0.58,0.12 0.82,0.17 0.48,0.67 1,1.31 1.55,1.92 0.5,0.55 1.03,1.16 1.62,1.64 -0.16,0.08 -0.33,0.2 -0.49,0.33 z m -0.45,0.42 c -0.35,-0.19 -0.71,-0.38 -1.06,-0.56 0,-0.42 -0.04,-0.76 -0.11,-1.04 0.14,0.13 0.27,0.26 0.4,0.39 0.33,0.32 0.66,0.67 1.03,0.96 -0.09,0.08 -0.17,0.16 -0.26,0.25 z m -0.5,0.78 c -0.19,-0.14 -0.4,-0.24 -0.61,-0.35 h -0.03 c 0.03,-0.21 0.05,-0.41 0.06,-0.6 0.25,0.21 0.56,0.37 0.87,0.45 -0.1,0.15 -0.2,0.31 -0.29,0.5 z m -0.61,1.71 c -0.09,-0.14 -0.21,-0.26 -0.36,-0.38 0.05,-0.21 0.1,-0.4 0.14,-0.59 0.13,0.11 0.27,0.21 0.43,0.3 -0.04,0.12 -0.08,0.24 -0.12,0.37 -0.03,0.09 -0.06,0.2 -0.09,0.3 z m -0.31,0.93 c -0.11,-0.1 -0.22,-0.2 -0.35,-0.28 0.07,-0.22 0.13,-0.42 0.19,-0.62 0.11,0.1 0.24,0.17 0.39,0.22 -0.08,0.21 -0.15,0.43 -0.23,0.68 z m -0.8,2.26 c -0.13,-0.08 -0.27,-0.16 -0.4,-0.23 0.05,-0.14 0.11,-0.27 0.16,-0.42 0.13,0.09 0.26,0.16 0.4,0.22 -0.05,0.14 -0.1,0.29 -0.16,0.43 z m -0.32,0.86 c -0.12,-0.11 -0.25,-0.2 -0.4,-0.28 0.06,-0.14 0.12,-0.3 0.17,-0.44 0.12,0.1 0.26,0.17 0.42,0.19 -0.05,0.17 -0.12,0.35 -0.19,0.53 z m -0.25,0.62 c -0.13,-0.09 -0.28,-0.16 -0.44,-0.21 0.06,-0.13 0.11,-0.26 0.17,-0.4 0.13,0.09 0.27,0.17 0.43,0.22 -0.05,0.13 -0.11,0.26 -0.16,0.39 z m -0.69,1.59 c -0.15,-0.09 -0.3,-0.17 -0.46,-0.23 0.07,-0.14 0.13,-0.27 0.2,-0.42 0.16,0.05 0.32,0.08 0.49,0.09 0.01,0 0.02,-0.01 0.03,-0.01 -0.09,0.19 -0.17,0.39 -0.26,0.57 z m -0.33,0.66 c -0.15,-0.08 -0.29,-0.17 -0.42,-0.3 0.05,-0.09 0.09,-0.2 0.14,-0.29 0.15,0.08 0.31,0.15 0.48,0.21 -0.06,0.13 -0.13,0.25 -0.2,0.38 z m -0.41,0.77 c -0.14,-0.11 -0.27,-0.23 -0.37,-0.4 l 0.18,-0.33 c 0.12,0.13 0.27,0.23 0.44,0.28 -0.09,0.15 -0.17,0.3 -0.25,0.45 z m -0.49,0.76 -0.03,0.03 c -0.12,-0.11 -0.25,-0.21 -0.39,-0.31 0.11,-0.17 0.22,-0.33 0.33,-0.52 0.09,0.15 0.22,0.28 0.37,0.35 -0.1,0.16 -0.19,0.32 -0.28,0.45 z m -0.71,0.84 c -0.1,-0.1 -0.2,-0.19 -0.31,-0.27 0.14,-0.18 0.29,-0.37 0.44,-0.59 0.12,0.1 0.25,0.19 0.38,0.28 -0.17,0.21 -0.33,0.4 -0.51,0.58 z m -0.77,0.68 c -0.09,-0.05 -0.17,-0.11 -0.25,-0.19 0.17,-0.15 0.34,-0.32 0.52,-0.52 0.09,0.09 0.19,0.17 0.28,0.25 -0.17,0.17 -0.36,0.32 -0.55,0.46 z m -0.92,0.56 c -0.05,-0.06 -0.11,-0.12 -0.16,-0.18 0.03,-0.01 0.08,-0.03 0.1,-0.05 0.16,-0.08 0.33,-0.2 0.49,-0.32 0.06,0.07 0.13,0.13 0.2,0.19 -0.2,0.13 -0.41,0.25 -0.63,0.36 z m -1.03,0.42 c -0.05,-0.07 -0.09,-0.14 -0.13,-0.21 0.25,-0.08 0.47,-0.16 0.66,-0.24 0.07,0.06 0.15,0.11 0.23,0.16 -0.24,0.1 -0.49,0.2 -0.76,0.29 z m -2.96,0.65 c -0.02,-0.04 -0.03,-0.09 -0.05,-0.13 0.34,-0.07 0.66,-0.13 0.97,-0.2 0.02,0.06 0.05,0.11 0.08,0.17 -0.31,0.04 -0.64,0.1 -1,0.16 z m -0.37,-0.07 c 0.01,0.04 0.02,0.08 0.04,0.12 -0.22,0.03 -0.43,0.06 -0.66,0.1 -0.01,-0.03 -0.02,-0.07 -0.04,-0.1 0.22,-0.05 0.44,-0.08 0.66,-0.12 z m 1.54,-0.33 c 0.2,-0.05 0.41,-0.1 0.59,-0.14 0.04,0.07 0.08,0.13 0.12,0.19 -0.21,0.05 -0.42,0.09 -0.64,0.14 -0.02,-0.07 -0.04,-0.13 -0.07,-0.19 z m 0.9,-0.23 c 0.14,-0.04 0.27,-0.08 0.39,-0.11 0.03,0.08 0.07,0.15 0.12,0.21 -0.13,0.04 -0.26,0.07 -0.4,0.11 -0.03,-0.08 -0.07,-0.15 -0.11,-0.21 z m 5.84,-5.49 c -0.14,-0.07 -0.28,-0.11 -0.42,-0.14 0.09,-0.19 0.17,-0.4 0.26,-0.6 0.15,0.08 0.3,0.14 0.46,0.18 -0.09,0.21 -0.17,0.41 -0.26,0.61 -0.01,-0.02 -0.02,-0.04 -0.04,-0.05 z m 0.86,-3.24 c 0.02,-0.06 0.04,-0.1 0.06,-0.16 0.04,-0.12 0.08,-0.22 0.12,-0.33 0.12,0.08 0.24,0.16 0.37,0.23 -0.05,0.15 -0.11,0.31 -0.16,0.46 -0.13,-0.07 -0.26,-0.14 -0.39,-0.2 z m 0.63,-0.49 c -0.12,-0.09 -0.23,-0.17 -0.36,-0.25 0.06,-0.18 0.12,-0.35 0.18,-0.52 0.11,0.1 0.23,0.17 0.36,0.25 -0.06,0.18 -0.12,0.34 -0.18,0.52 z m -22.7,-10.6 c -0.05,-0.07 -0.1,-0.13 -0.16,-0.19 0.27,0 0.53,0 0.8,0.01 0.06,0.07 0.14,0.14 0.21,0.21 z m 1.16,0.04 c -0.05,-0.08 -0.1,-0.15 -0.15,-0.22 0.31,0 0.61,0.01 0.91,0.02 0.06,0.08 0.12,0.16 0.19,0.23 z m 1.24,0.04 c -0.06,-0.08 -0.13,-0.16 -0.2,-0.23 0.25,0.01 0.49,0.01 0.74,0.02 l 0.18,0.24 c -0.24,-0.02 -0.48,-0.02 -0.72,-0.03 z m 0.98,0.03 c -0.05,-0.08 -0.11,-0.16 -0.17,-0.24 0.22,0.01 0.44,0.01 0.65,0.02 0.09,0.09 0.18,0.17 0.28,0.25 z m 1.19,0.04 c -0.07,-0.09 -0.15,-0.17 -0.24,-0.24 0.34,0.01 0.68,0.03 1.02,0.04 0.06,0.08 0.13,0.15 0.2,0.23 -0.33,-0.02 -0.66,-0.03 -0.98,-0.03 z m 1.31,0.03 c -0.04,-0.08 -0.09,-0.15 -0.14,-0.22 0.31,0.02 0.61,0.03 0.92,0.05 0.06,0.07 0.11,0.13 0.17,0.19 -0.17,0 -0.34,-0.01 -0.51,-0.02 -0.15,0.01 -0.29,0 -0.44,0 z m 1.23,0.04 c -0.05,-0.06 -0.09,-0.12 -0.14,-0.18 0.33,0.02 0.65,0.04 0.98,0.07 0.02,0.05 0.04,0.11 0.06,0.15 -0.31,-0.02 -0.61,-0.03 -0.9,-0.04 z m 1.18,0.04 -0.06,-0.15 c 0.2,0.01 0.4,0.03 0.6,0.04 0.05,0.05 0.1,0.09 0.15,0.14 -0.23,-0.01 -0.46,-0.01 -0.69,-0.03 z m 1.22,0.07 c -0.04,-0.05 -0.07,-0.08 -0.11,-0.12 0.21,0.02 0.41,0.03 0.62,0.05 0.04,0.04 0.07,0.08 0.1,0.11 -0.2,-0.01 -0.4,-0.02 -0.61,-0.04 z m 1.11,0.08 c -0.01,-0.01 0,-0.03 -0.01,-0.04 -0.02,-0.02 -0.05,-0.04 -0.07,-0.07 0.35,0.03 0.7,0.07 1.04,0.1 L 84,79.48 C 83.65,79.46 83.3,79.43 82.95,79.4 Z m 1.35,0.13 a 0.405,0.405 0 0 1 -0.05,-0.09 c 0.32,0.03 0.63,0.07 0.94,0.1 l 0.09,0.09 C 84.96,79.6 84.63,79.56 84.3,79.53 Z m 1.24,0.14 c -0.03,-0.03 -0.06,-0.06 -0.08,-0.09 0.32,0.04 0.63,0.08 0.93,0.11 0.02,0.03 0.03,0.06 0.05,0.09 -0.3,-0.04 -0.59,-0.08 -0.9,-0.11 z m 1.31,0.17 a 0.467,0.467 0 0 0 -0.05,-0.1 c 0.32,0.04 0.63,0.08 0.94,0.13 0.02,0.04 0.05,0.09 0.08,0.12 -0.32,-0.05 -0.64,-0.1 -0.97,-0.15 z m 1.36,0.22 c 0,-0.05 -0.02,-0.09 -0.03,-0.13 0.25,0.04 0.51,0.07 0.75,0.11 0.06,0.07 0.13,0.13 0.19,0.19 -0.29,-0.06 -0.6,-0.11 -0.91,-0.17 z m 1.3,0.26 c 0,-0.01 0,-0.02 -0.01,-0.03 -0.05,-0.06 -0.1,-0.12 -0.16,-0.18 0.26,0.04 0.52,0.08 0.77,0.12 0.06,0.09 0.13,0.18 0.2,0.27 -0.25,-0.07 -0.52,-0.13 -0.8,-0.18 z m 1.1,0.25 v -0.03 c -0.04,-0.09 -0.09,-0.17 -0.14,-0.26 0.24,0.04 0.48,0.08 0.71,0.12 0.18,0.19 0.37,0.36 0.6,0.5 0.06,0.04 0.14,-0.04 0.1,-0.1 -0.07,-0.11 -0.15,-0.21 -0.23,-0.32 0.25,0.04 0.48,0.08 0.7,0.13 0.13,0.21 0.26,0.42 0.4,0.63 -0.64,-0.25 -1.35,-0.47 -2.14,-0.67 z m 2.5,0.81 c -0.13,-0.25 -0.29,-0.48 -0.45,-0.72 0.24,0.05 0.47,0.09 0.69,0.13 0.21,0.37 0.44,0.73 0.71,1.06 -0.29,-0.16 -0.6,-0.32 -0.95,-0.47 z m 6.52,2.7 c -0.26,-0.5 -0.66,-0.92 -0.98,-1.39 -0.24,-0.35 -0.46,-0.72 -0.69,-1.08 0.53,0.07 0.87,0.1 0.91,0.11 h 0.03 c 0.41,0.84 0.87,1.67 1.43,2.42 h -0.68 c 0,-0.01 -0.01,-0.03 -0.02,-0.06 z M 71.59,78.79 c 0.05,0.06 0.1,0.12 0.16,0.18 C 71.51,78.96 71.28,78.96 71.04,78.95 71,78.89 70.95,78.84 70.91,78.78 h 0.03 c 0.22,0.01 0.43,0.01 0.65,0.01 z m -5,20.01 c -0.04,0.05 -0.08,0.11 -0.1,0.15 -0.26,-0.07 -0.49,-0.15 -0.72,-0.24 0.05,-0.05 0.1,-0.11 0.16,-0.18 0.21,0.1 0.43,0.19 0.66,0.27 z m -1.12,-0.19 c -0.26,-0.11 -0.5,-0.24 -0.73,-0.37 0.07,-0.06 0.13,-0.13 0.19,-0.21 0.23,0.14 0.47,0.27 0.73,0.4 -0.08,0.04 -0.14,0.11 -0.19,0.18 z m -1.01,-0.53 c -0.15,-0.1 -0.27,-0.21 -0.4,-0.32 0.05,-0.08 0.1,-0.16 0.14,-0.25 0.16,0.13 0.32,0.26 0.5,0.38 -0.09,0.06 -0.17,0.12 -0.24,0.19 z m -0.6,-0.48 c -0.15,-0.14 -0.29,-0.3 -0.42,-0.45 0.06,-0.06 0.12,-0.13 0.18,-0.2 0.14,0.15 0.28,0.3 0.43,0.45 -0.07,0.06 -0.13,0.12 -0.19,0.2 z m -0.59,-0.65 c -0.15,-0.2 -0.28,-0.41 -0.41,-0.63 0.06,-0.04 0.12,-0.09 0.19,-0.14 0.13,0.21 0.27,0.4 0.42,0.59 -0.07,0.06 -0.13,0.12 -0.2,0.18 z M 62.73,96.09 A 7.89,7.89 0 0 1 62.5,95.58 c 0.06,-0.03 0.12,-0.07 0.18,-0.1 0.01,0.03 0.02,0.06 0.03,0.08 0.07,0.14 0.14,0.26 0.22,0.4 -0.07,0.04 -0.14,0.08 -0.2,0.13 z m -0.34,-0.76 c -0.05,-0.13 -0.1,-0.27 -0.15,-0.4 a 0.99,0.99 0 0 0 0.17,-0.11 c 0.05,0.15 0.11,0.28 0.16,0.41 -0.06,0.03 -0.12,0.07 -0.18,0.1 z m -0.23,-0.65 c -0.04,-0.13 -0.09,-0.26 -0.13,-0.4 L 62,94.18 c 0.05,-0.02 0.11,-0.05 0.17,-0.07 0.05,0.17 0.1,0.33 0.15,0.48 -0.05,0.03 -0.11,0.05 -0.16,0.09 z m -0.23,-0.79 c -0.04,-0.16 -0.08,-0.32 -0.12,-0.49 0.05,-0.01 0.1,-0.04 0.15,-0.06 0.05,0.18 0.09,0.35 0.14,0.51 -0.06,0.01 -0.12,0.02 -0.17,0.04 z M 59.85,83.34 c -0.36,-0.29 -0.72,-0.59 -1.11,-0.86 -0.04,-0.21 -0.08,-0.42 -0.11,-0.63 0.68,0.77 1.46,1.48 2.16,2.21 v 0.04 c -0.31,-0.26 -0.63,-0.51 -0.94,-0.76 z m -1.03,-3.87 c 0.64,0.84 1.42,1.58 2.23,2.24 0.01,0.01 0.02,0 0.04,0.01 -0.05,0.17 -0.09,0.36 -0.12,0.56 a 39.95,39.95 0 0 1 -2.42,-2.45 c 0.02,-0.13 0.05,-0.24 0.1,-0.3 0.04,-0.02 0.1,-0.04 0.17,-0.06 z m 2.07,3.27 c -0.03,0.19 -0.05,0.39 -0.07,0.6 -0.74,-0.79 -1.47,-1.62 -2.29,-2.31 -0.02,-0.31 -0.04,-0.61 -0.02,-0.85 0.68,0.94 1.47,1.83 2.38,2.56 z m -0.06,3.47 c -0.04,-0.03 -0.08,-0.07 -0.12,-0.1 -0.02,-0.11 -0.04,-0.22 -0.05,-0.3 -0.03,-0.14 -0.07,-0.26 -0.11,-0.38 0.08,0.05 0.17,0.1 0.25,0.15 z m 0.03,0.42 c 0.06,0.84 0.16,1.7 0.28,2.55 l -0.02,-0.02 c -0.05,-0.41 -0.1,-0.8 -0.15,-1.17 l -0.18,-1.42 c 0.02,0.02 0.05,0.04 0.07,0.06 z m 0.42,3.75 -0.09,-0.68 c 0.01,0.01 0.02,0.01 0.03,0.02 0.04,0.23 0.07,0.46 0.11,0.68 -0.01,0 -0.02,-0.01 -0.05,-0.02 0.01,0 0.01,0 0,0 z m 0.36,2.16 h 0.13 c 0.05,0.2 0.09,0.38 0.14,0.57 -0.05,0.01 -0.1,0.01 -0.15,0.02 -0.05,-0.2 -0.09,-0.39 -0.12,-0.59 z m -0.04,-0.2 c -0.05,-0.25 -0.09,-0.51 -0.13,-0.77 0.03,0 0.06,0.01 0.09,0.01 0.05,0.26 0.11,0.52 0.17,0.77 -0.05,0 -0.09,-0.01 -0.13,-0.01 z m -0.18,-1.07 c -0.02,-0.14 -0.04,-0.29 -0.07,-0.43 0.02,0.01 0.05,0.01 0.07,0.02 0.03,0.14 0.05,0.28 0.08,0.42 -0.03,-0.01 -0.06,-0.01 -0.08,-0.01 z m -0.14,-10.1 c -0.01,0.03 -0.02,0.08 -0.04,0.11 -0.7,-0.59 -1.32,-1.24 -1.93,-1.92 0.16,-0.03 0.33,-0.05 0.54,-0.08 0.07,0.3 0.46,0.58 0.65,0.77 0.3,0.3 0.62,0.59 0.96,0.84 -0.07,0.1 -0.14,0.18 -0.18,0.28 z m 0.39,-0.6 c -0.32,-0.28 -0.65,-0.55 -0.95,-0.86 -0.13,-0.13 -0.26,-0.33 -0.42,-0.48 0.22,-0.02 0.45,-0.05 0.7,-0.07 0.32,0.37 0.67,0.75 1.05,1.07 -0.14,0.11 -0.28,0.22 -0.38,0.34 z m 0.65,-0.55 C 62.06,79.7 61.75,79.41 61.44,79.13 l 0.75,-0.06 c 0.19,0.24 0.39,0.51 0.62,0.7 -0.17,0.07 -0.34,0.15 -0.49,0.25 z m 0.77,-0.39 c -0.13,-0.22 -0.32,-0.41 -0.52,-0.59 0.23,-0.02 0.46,-0.03 0.71,-0.04 0.12,0.16 0.24,0.31 0.36,0.46 -0.19,0.05 -0.38,0.1 -0.55,0.17 z m 0.8,-0.25 c -0.1,-0.14 -0.19,-0.27 -0.29,-0.4 0.14,-0.01 0.29,-0.02 0.44,-0.02 0.09,0.12 0.2,0.23 0.31,0.33 -0.16,0.03 -0.32,0.05 -0.46,0.09 z m 0.9,-0.18 c -0.07,-0.1 -0.14,-0.19 -0.23,-0.27 l 0.66,-0.03 c 0.07,0.07 0.13,0.14 0.2,0.21 -0.21,0.03 -0.43,0.06 -0.63,0.09 z m 1.02,-0.13 c -0.05,-0.06 -0.1,-0.13 -0.16,-0.19 l 1.02,-0.03 c 0.05,0.05 0.09,0.1 0.14,0.14 -0.34,0.02 -0.68,0.05 -1,0.08 z m 1.34,-0.09 c -0.04,-0.05 -0.07,-0.09 -0.12,-0.14 0.25,-0.01 0.51,-0.01 0.78,-0.02 0.04,0.04 0.07,0.09 0.12,0.13 -0.27,0 -0.53,0.01 -0.78,0.03 z m 1.23,-0.04 c -0.03,-0.04 -0.07,-0.09 -0.11,-0.13 0.38,-0.01 0.77,-0.01 1.17,-0.02 l 0.14,0.14 h -0.49 c -0.25,0 -0.48,0.01 -0.71,0.01 z m 1.49,0 c -0.04,-0.05 -0.1,-0.1 -0.14,-0.14 h 0.86 c 0.05,0.06 0.1,0.11 0.15,0.16 -0.3,-0.01 -0.58,-0.02 -0.87,-0.02 z m -10.97,4.21 0.78,0.63 c 0.37,0.3 0.73,0.6 1.1,0.88 v 0.43 c -0.32,-0.23 -0.67,-0.44 -1.01,-0.63 -0.05,-0.03 -0.11,-0.07 -0.15,-0.1 -0.23,-0.14 -0.36,-0.22 -0.51,-0.57 -0.07,-0.18 -0.14,-0.41 -0.21,-0.64 z m 7.94,15.88 c 0.01,-0.03 0.02,-0.07 0.04,-0.14 0.26,0.08 0.54,0.16 0.83,0.24 -0.01,0.02 -0.01,0.05 -0.02,0.07 -0.04,-0.01 -0.09,-0.01 -0.13,-0.02 -0.26,-0.03 -0.48,-0.09 -0.72,-0.15 z m 1.07,0.21 c 0,-0.02 0,-0.03 0.01,-0.05 0.15,0.04 0.29,0.08 0.45,0.11 -0.17,-0.02 -0.31,-0.04 -0.46,-0.06 z m 9.12,0.11 c -0.9,0 -1.81,-0.03 -2.74,-0.09 -6.88,-0.43 -9.67,-1.43 -10.91,-4.03 -1.24,-2.6 -2.54,-11.28 -1.43,-13.76 0.65,-1.45 3.31,-1.8 7.13,-1.8 2.7,0 5.98,0.17 9.54,0.25 8.62,0.19 15.16,1.75 15.99,3.41 0.31,0.62 0.74,2.05 -0.87,6.32 -1.61,4.28 -3.14,7.12 -4.53,7.81 -1.55,0.8 -6.43,1.89 -12.18,1.89 z m 6.18,0.34 c 0.01,0.02 0.01,0.05 0.02,0.07 -0.23,0.02 -0.45,0.05 -0.69,0.07 -0.01,-0.02 -0.01,-0.03 -0.02,-0.05 0.24,-0.03 0.47,-0.06 0.69,-0.09 z m -0.97,0.12 c 0,0.01 0.01,0.03 0.01,0.04 -0.3,0.02 -0.61,0.05 -0.93,0.06 0.31,-0.03 0.61,-0.07 0.92,-0.1 z m 1.64,-0.12 c -0.12,0.02 -0.26,0.03 -0.38,0.04 -0.01,-0.03 -0.02,-0.05 -0.02,-0.08 0.26,-0.04 0.53,-0.07 0.78,-0.11 0.01,0.03 0.02,0.06 0.04,0.09 z M 95.91,86.94 c -0.13,-0.16 -0.27,-0.29 -0.43,-0.42 0.04,-0.18 0.07,-0.35 0.09,-0.51 0.19,0.12 0.37,0.23 0.58,0.3 -0.03,0.07 -0.07,0.14 -0.1,0.21 -0.04,0.13 -0.09,0.27 -0.14,0.42 z m 5.05,-2.79 h -0.32 c -0.51,-0.8 -1.01,-1.59 -1.46,-2.42 h 0.49 c 0.28,0.58 0.73,1.09 1.11,1.6 0.25,0.34 0.52,0.66 0.78,0.99 -0.3,-0.11 -0.52,-0.15 -0.55,-0.15 z m 1.23,0.44 c -0.38,-0.58 -0.8,-1.12 -1.21,-1.67 -0.31,-0.4 -0.6,-0.84 -0.95,-1.2 h 0.74 c 0.99,1.75 2.32,3.36 3.61,4.89 0.01,0.01 0.02,0.01 0.03,0.01 0.02,0.1 0.05,0.21 0.07,0.32 -0.23,-0.32 -0.52,-0.62 -0.76,-0.88 -0.04,-0.04 -0.09,-0.05 -0.13,-0.04 a 3.84,3.84 0 0 0 -1.4,-1.43 z m 13.78,15.1 c -0.05,-0.01 -0.09,-0.01 -0.14,-0.02 0.02,-0.02 0.04,-0.06 0.06,-0.08 0.82,0.13 1.71,0.24 2.64,0.32 -0.95,-0.05 -1.81,-0.12 -2.56,-0.22 z m 6.85,-0.34 c -5.74,0 -10.62,-1.09 -12.19,-1.88 -1.39,-0.7 -2.92,-3.54 -4.53,-7.81 -1.61,-4.28 -1.18,-5.7 -0.87,-6.32 0.83,-1.66 7.38,-3.22 15.99,-3.41 3.57,-0.08 6.85,-0.25 9.54,-0.25 3.82,0 6.48,0.35 7.13,1.8 1.12,2.48 -0.19,11.16 -1.43,13.76 -1.24,2.6 -4.03,3.59 -10.91,4.03 -0.92,0.06 -1.84,0.08 -2.73,0.08 z m 9.4,-0.23 c 0.02,0.02 0.04,0.05 0.06,0.07 -0.25,0.04 -0.51,0.08 -0.79,0.11 0.26,-0.05 0.49,-0.12 0.73,-0.18 z m 7.69,-14.55 c -0.25,-0.31 -0.58,-0.58 -0.87,-0.81 -0.02,-0.36 -0.05,-0.71 -0.09,-1.03 0.16,0.17 0.31,0.34 0.47,0.5 0.32,0.33 0.63,0.7 1.02,0.95 0.01,0.01 0.02,0 0.03,0.01 -0.07,0.07 -0.15,0.12 -0.26,0.18 -0.08,0.05 -0.19,0.12 -0.3,0.2 z m 0.67,-0.51 v -0.02 c -0.24,-0.39 -0.61,-0.71 -0.93,-1.03 -0.25,-0.25 -0.51,-0.5 -0.76,-0.74 -0.05,-0.28 -0.11,-0.52 -0.19,-0.75 0.71,0.63 1.48,1.21 2.2,1.8 -0.05,0.17 -0.11,0.33 -0.17,0.47 -0.05,0.12 -0.1,0.2 -0.15,0.27 z"
                 fill="#000000"
                 stroke-width="none"
                 opacity="1" />
            </g>
          </g>
        </g>
      </g>
    </g>
    <rect
       id="svga-credit-rect"
       width="158.75"
       height="11.90625"
       x="179.91434"
       y="189.09454"
       fill="#ecf0f1"
       opacity="0.5"
       style="display:none;stroke-width:0.79375" />
    <text
       id="svga-credit-text"
       font-family="'Avenir Next', Roboto, Helvetica, Arial, sans-serif"
       font-size="7.9375px"
       text-anchor="start"
       font-weight="400"
       size="10px"
       anchor="start"
       weight="400"
       fill="#333333"
       x="206.3454"
       y="187.19609"
       style="display:none;stroke-width:0.79375"><tspan
         id="SvgjsTspan12836"
         dy="10.31875"
         x="206.3454"
         style="stroke-width:0.79375">Created on AvatarMaker.com</tspan></text>
  </g>
</svg>
