<svg xmlns="http://www.w3.org/2000/svg" width="256" height="256" viewBox="0 0 100 100"><rect width="100" height="100" rx="20" fill="#ff5500"></rect><path fill="#fff" d="M57.88 18.82L66.69 18.82Q64.72 21.88 62.24 25.57Q59.77 29.26 57.16 33.17Q54.55 37.09 51.89 40.87Q49.23 44.65 46.81 47.89L46.81 47.89Q49.51 50.59 52.66 54.68Q55.81 58.78 58.87 63.32Q61.93 67.87 64.63 72.55Q67.33 77.23 68.94 81.19L68.94 81.19L59.86 81.19Q57.97 77.05 55.49 72.73Q53.02 68.41 50.27 64.40Q47.53 60.40 44.69 56.98Q41.86 53.56 39.16 51.22L39.16 51.22L39.16 81.19L31.06 81.19L31.06 18.82L39.16 18.82L39.16 46.36Q41.50 43.39 44.11 39.61Q46.72 35.83 49.28 32.05Q51.84 28.27 54.09 24.80Q56.35 21.34 57.88 18.82L57.88 18.82Z"></path></svg>