<?xml version="1.0" encoding="UTF-8"?>
<svg xmlns="http://www.w3.org/2000/svg" xmlns:xlink="http://www.w3.org/1999/xlink" version="1.2" >
<font id="Tomkin Italic">
<font-face  font-family="Tomkin" units-per-em="1000" ascent="750" descent="-250" font-style="italic" font-weight="400" font-stretch="normal" cap-height="700" x-height="515" underline-position="-91" underline-thickness="35" />
<missing-glyph  horiz-adv-x="569" d="" />
<glyph glyph-name="space" unicode="&#x20;" horiz-adv-x="182" d="" />
<glyph glyph-name="exclam" unicode="&#x21;" horiz-adv-x="261" d="M122 189 C122 181 125 176 133 176 L176 176 C184 176 189 181 191 189 L220 301 L274 687 C275 695 271 700 263 700 L194 700 C186 700 180 695 179 687 L125 301 L122 189 Z M81 13 C80 5 85 0 93 0 L168 0 C176 0 181 5 182 13 L194 93 C195 101 190 106 182 106 L107 106 C99 106 94 101 93 93 L81 13 Z " />
<glyph glyph-name="quotedbl" unicode="&#x22;" horiz-adv-x="429" d="M157 487 C156 479 160 474 168 474 L212 474 C220 474 226 479 227 487 L252 598 L264 687 C265 695 261 700 253 700 L191 700 C183 700 177 695 176 687 L164 598 L157 487 Z M338 487 C337 479 341 474 349 474 L393 474 C401 474 407 479 408 487 L433 598 L445 687 C446 695 442 700 434 700 L372 700 C364 700 358 695 357 687 L345 598 L338 487 Z " />
<glyph glyph-name="numbersign" unicode="&#x23;" horiz-adv-x="861" d="M419 13 C418 5 423 0 431 0 L504 0 C512 0 515 5 519 13 L580 147 L668 147 C676 147 682 152 683 160 L691 219 C692 227 688 232 680 232 L619 232 L725 463 L833 463 C841 463 846 468 847 476 L856 535 C857 543 853 548 845 548 L764 548 L827 687 C828 695 824 700 816 700 L743 700 C735 700 731 695 727 687 L664 548 L480 548 L543 687 C544 695 540 700 532 700 L459 700 C451 700 447 695 443 687 L380 548 L290 548 C282 548 276 543 275 535 L266 476 C265 468 270 463 278 463 L341 463 L235 232 L125 232 C117 232 111 227 110 219 L102 160 C101 152 105 147 113 147 L196 147 L135 13 C134 5 139 0 147 0 L220 0 C228 0 231 5 235 13 L296 147 L480 147 L419 13 Z M441 463 L625 463 L519 232 L335 232 L441 463 Z " />
<glyph glyph-name="dollar" unicode="&#x24;" horiz-adv-x="632" d="M246 509 L250 535 C256 581 300 620 342 620 L454 620 C496 620 528 581 522 535 L519 518 C518 510 522 505 530 505 L599 505 C607 505 613 510 614 518 L618 545 C630 633 564 705 473 705 L457 705 L473 819 C474 827 469 832 461 832 L392 832 C384 832 379 827 378 819 L362 705 L346 705 C255 705 168 633 156 545 L153 522 C112 228 510 381 482 184 L480 165 C473 117 428 80 386 80 L266 80 C224 80 191 119 198 165 L200 182 C201 190 197 195 189 195 L120 195 C112 195 106 190 105 182 L101 155 C89 67 156 -5 247 -5 L262 -5 L245 -124 C244 -132 248 -137 256 -137 L325 -137 C333 -137 339 -132 340 -124 L357 -5 L383 -5 C476 -5 561 67 573 155 L576 172 C617 466 219 316 246 509 L246 509 Z " />
<glyph glyph-name="percent" unicode="&#x25;" horiz-adv-x="786" d="M205 13 C204 5 209 0 217 0 L289 0 C297 0 301 5 305 13 L685 687 C686 695 682 700 674 700 L602 700 C594 700 589 695 585 687 L205 13 Z M299 700 C232 700 170 645 161 579 C151 512 198 457 265 457 C332 457 395 512 405 579 C414 645 366 700 299 700 L299 700 Z M275 528 C246 528 227 553 231 579 C235 608 260 630 289 630 C315 630 337 608 333 579 C329 553 301 528 275 528 L275 528 Z M617 243 C550 243 488 188 479 122 C469 55 516 0 583 0 C650 0 713 55 723 122 C732 188 684 243 617 243 L617 243 Z M592 71 C563 71 545 96 549 122 C553 151 578 173 607 173 C633 173 655 151 651 122 C647 96 618 71 592 71 L592 71 Z " />
<glyph glyph-name="ampersand" unicode="&#x26;" horiz-adv-x="677" d="M490 308 L458 85 L267 85 C225 85 192 122 198 170 L206 223 C212 269 257 308 299 308 L490 308 Z M342 393 C300 393 266 430 273 478 L281 536 C287 582 332 621 374 621 L454 621 C497 621 529 582 523 536 L521 525 C520 517 524 512 532 512 L601 512 C609 512 615 517 616 525 L619 545 C631 633 565 705 474 705 L378 705 C285 705 199 633 187 545 L177 471 C172 437 184 391 222 363 C150 323 118 276 112 229 L102 161 C90 72 157 0 248 0 L530 0 C538 0 543 5 544 13 L586 308 L652 308 C660 308 665 313 667 321 L675 380 C676 388 672 393 664 393 L342 393 Z " />
<glyph glyph-name="quotesingle" unicode="&#x27;" horiz-adv-x="248" d="M157 487 C156 479 160 474 168 474 L212 474 C220 474 226 479 227 487 L252 598 L264 687 C265 695 261 700 253 700 L191 700 C183 700 177 695 176 687 L164 598 L157 487 Z " />
<glyph glyph-name="parenleft" unicode="&#x28;" horiz-adv-x="304" d="M218 311 C240 465 282 638 335 792 C336 800 332 805 324 805 L255 805 C247 805 243 800 240 792 C183 633 145 468 123 311 C101 154 94 -6 105 -165 C106 -173 108 -178 116 -178 L185 -178 C193 -178 199 -173 200 -165 C191 -11 197 157 218 311 L218 311 Z " />
<glyph glyph-name="parenright" unicode="&#x29;" horiz-adv-x="304" d="M172 311 C151 157 109 -11 56 -165 C55 -173 59 -178 67 -178 L136 -178 C144 -178 148 -173 151 -165 C208 -6 245 154 267 311 C289 468 297 633 286 792 C285 800 283 805 275 805 L206 805 C198 805 192 800 191 792 C200 638 194 465 172 311 L172 311 Z " />
<glyph glyph-name="asterisk" unicode="&#x2a;" horiz-adv-x="484" d="M369 594 L382 687 C383 694 379 700 371 700 L310 700 C302 700 296 694 295 687 L282 594 L223 636 C220 638 218 638 215 638 C212 638 207 637 204 633 L164 583 C162 580 161 577 160 575 C160 571 160 568 164 565 L242 507 L164 430 C162 427 159 425 159 422 C158 417 162 414 163 412 L204 372 C206 370 209 369 211 369 C215 369 220 371 222 373 L306 457 L366 373 C368 371 371 369 375 369 C377 369 382 370 384 372 L435 412 C438 414 442 417 443 422 C443 425 442 427 440 430 L384 507 L478 565 C482 568 484 571 484 575 C485 577 484 580 482 583 L456 633 C455 637 450 638 447 638 C444 638 442 638 439 636 L369 594 Z " />
<glyph glyph-name="plus" unicode="&#x2b;" horiz-adv-x="464" d="M196 84 C195 76 199 71 207 71 L276 71 C284 71 290 76 291 84 L307 197 L398 197 C406 197 412 202 413 210 L421 269 C422 277 418 282 410 282 L319 282 L335 396 C336 404 332 409 324 409 L255 409 C247 409 241 404 240 396 L224 282 L132 282 C124 282 118 277 117 269 L109 210 C108 202 112 197 120 197 L212 197 L196 84 Z " />
<glyph glyph-name="comma" unicode="&#x2c;" horiz-adv-x="308" d="M145 -94 C154 -94 160 -88 165 -80 L236 63 C238 72 232 77 224 77 L159 77 C150 77 144 71 139 63 L68 -80 C67 -89 71 -94 80 -94 L145 -94 Z " />
<glyph glyph-name="hyphen" unicode="&#x2d;" horiz-adv-x="418" d="M132 282 C124 282 118 277 117 269 L109 210 C108 202 112 197 120 197 L352 197 C360 197 366 202 367 210 L375 269 C376 277 372 282 364 282 L132 282 Z " />
<glyph glyph-name="period" unicode="&#x2e;" horiz-adv-x="261" d="M81 10 C80 1 85 -5 94 -5 L165 -5 C174 -5 181 1 182 10 L193 87 C194 96 189 102 180 102 L109 102 C100 102 93 96 92 87 L81 10 Z " />
<glyph glyph-name="slash" unicode="&#x2f;" horiz-adv-x="567" d="M56 -166 C55 -174 59 -179 67 -179 L140 -179 C148 -179 152 -174 156 -166 L598 791 C599 799 594 804 586 804 L513 804 C505 804 502 799 498 791 L56 -166 Z " />
<glyph glyph-name="zero" unicode="0" horiz-adv-x="611" d="M337 705 C244 705 158 633 146 545 L91 155 C79 67 144 -5 237 -5 L372 -5 C465 -5 550 67 562 155 L617 545 C629 633 565 705 472 705 L337 705 Z M258 80 C216 80 181 117 188 165 L240 535 C246 581 292 620 334 620 L451 620 C493 620 527 581 521 535 L469 165 C462 117 417 80 375 80 L258 80 Z " />
<glyph glyph-name="one" unicode="1" horiz-adv-x="564" d="M156 631 C151 629 147 625 146 619 L137 554 C136 546 141 541 149 541 L348 615 L273 85 L116 85 C108 85 103 80 102 72 L93 13 C92 5 97 0 105 0 L516 0 C524 0 529 5 530 13 L539 72 C540 80 535 85 527 85 L368 85 L453 687 C454 695 450 700 442 700 L341 700 L156 631 Z " />
<glyph glyph-name="two" unicode="2" horiz-adv-x="583" d="M133 518 C132 510 136 505 144 505 L213 505 C221 505 227 510 228 518 L231 535 C237 581 283 620 325 620 L434 620 C476 620 509 581 503 535 L495 480 C468 285 121 437 79 142 L61 13 C60 5 65 0 73 0 L509 0 C517 0 522 5 523 13 L532 72 C533 80 528 85 520 85 L166 85 L176 153 C204 349 550 197 592 492 L599 545 C611 633 546 705 453 705 L326 705 C235 705 149 633 137 545 L133 518 Z " />
<glyph glyph-name="three" unicode="3" horiz-adv-x="591" d="M393 309 C435 309 469 273 462 224 L454 165 C447 119 403 80 361 80 L253 80 C211 80 176 119 183 165 L185 183 C186 191 182 196 174 196 L105 196 C97 196 91 191 90 183 L86 155 C74 67 140 -5 233 -5 L358 -5 C451 -5 535 67 547 155 L558 231 C563 270 540 324 506 350 C547 376 586 430 591 469 L602 545 C614 633 551 705 458 705 L333 705 C240 705 153 633 141 545 L137 517 C136 509 140 504 148 504 L217 504 C225 504 231 509 232 517 L235 535 C241 581 287 620 329 620 L437 620 C479 620 512 581 506 535 L498 479 C491 430 447 394 405 394 L305 394 C297 394 291 389 290 381 L282 322 C281 314 285 309 293 309 L393 309 Z " />
<glyph glyph-name="four" unicode="4" horiz-adv-x="594" d="M69 211 L63 166 C62 158 66 153 74 153 L411 153 L391 13 C390 5 395 0 403 0 L472 0 C480 0 485 5 486 13 L506 153 L562 153 C570 153 576 158 577 166 L585 225 C586 233 582 238 574 238 L518 238 L545 430 C546 438 542 443 534 443 L465 443 C457 443 451 438 450 430 L423 238 L189 238 L450 687 C451 695 447 700 439 700 L367 700 C359 700 353 695 349 687 L69 211 Z " />
<glyph glyph-name="five" unicode="5" horiz-adv-x="601" d="M91 155 C79 67 144 -5 237 -5 L372 -5 C465 -5 550 67 562 155 L578 264 C590 351 525 423 432 423 L305 423 C290 423 255 423 220 397 L251 615 L565 615 C573 615 579 620 580 628 L588 687 C589 695 585 700 577 700 L181 700 C173 700 167 695 166 687 L114 315 C113 307 117 302 125 302 L198 302 C206 302 210 308 216 315 C232 333 259 340 277 340 L411 340 C453 340 487 301 480 255 L468 165 C461 117 417 80 375 80 L258 80 C216 80 181 117 188 165 L189 177 C191 185 186 190 178 190 L109 190 C101 190 96 185 94 177 L91 155 Z " />
<glyph glyph-name="six" unicode="6" horiz-adv-x="602" d="M257 80 C215 80 181 118 188 164 L200 251 C207 299 251 336 293 336 L412 336 C455 336 489 299 482 251 L470 164 C463 118 419 80 376 80 L257 80 Z M509 526 C508 518 513 513 521 513 L590 513 C598 513 603 518 604 526 L607 545 C619 633 554 705 461 705 L337 705 C244 705 158 633 146 545 L91 155 C79 67 144 -5 237 -5 L374 -5 C465 -5 551 67 563 155 L578 262 C591 349 525 421 434 421 L304 421 C291 421 263 421 220 392 L240 536 C247 584 291 620 333 620 L441 620 C483 620 518 584 511 536 L509 526 Z " />
<glyph glyph-name="seven" unicode="7" horiz-adv-x="520" d="M173 13 C172 5 177 0 185 0 L254 0 C262 0 267 5 268 13 C323 207 411 412 559 600 L571 687 C572 695 568 700 560 700 L156 700 C148 700 142 695 141 687 L133 628 C132 620 136 615 144 615 L473 615 C314 417 227 197 173 13 L173 13 Z " />
<glyph glyph-name="eight" unicode="8" horiz-adv-x="603" d="M454 705 L348 705 C255 705 169 633 157 545 L146 466 C141 432 155 390 193 357 C128 320 103 273 97 230 L86 155 C74 67 139 -5 230 -5 L371 -5 C462 -5 547 67 559 155 L570 230 C576 273 563 320 510 357 C556 390 582 432 587 466 L598 545 C610 633 546 705 454 705 L454 705 Z M253 80 C210 80 176 117 183 165 L190 220 C197 268 241 305 284 305 L402 305 C446 305 480 268 473 220 L466 165 C459 117 415 80 372 80 L253 80 Z M433 620 C475 620 508 582 502 536 L493 475 C487 427 442 390 400 390 L311 390 C269 390 236 427 242 475 L251 536 C257 582 302 620 344 620 L433 620 Z " />
<glyph glyph-name="nine" unicode="9" horiz-adv-x="602" d="M443 620 C485 620 518 582 512 536 L498 440 C492 392 447 355 405 355 L286 355 C243 355 210 392 216 440 L230 536 C236 582 281 620 324 620 L443 620 Z M190 174 C191 182 187 187 179 187 L110 187 C102 187 96 182 95 174 L92 155 C80 67 146 -5 239 -5 L363 -5 C456 -5 541 67 553 155 L608 545 C620 633 556 705 463 705 L326 705 C235 705 148 633 136 545 L120 429 C108 342 173 270 264 270 L394 270 C407 270 435 270 479 299 L460 164 C453 116 409 80 367 80 L259 80 C217 80 182 116 189 164 L190 174 Z " />
<glyph glyph-name="colon" unicode="&#x3a;" horiz-adv-x="261" d="M81 10 C80 1 85 -5 94 -5 L165 -5 C174 -5 181 1 182 10 L193 87 C194 96 189 102 180 102 L109 102 C100 102 93 96 92 87 L81 10 Z M125 327 C124 318 129 312 138 312 L209 312 C218 312 225 318 226 327 L237 404 C239 413 233 419 224 419 L153 419 C144 419 138 413 136 404 L125 327 Z " />
<glyph glyph-name="semicolon" unicode="&#x3b;" horiz-adv-x="309" d="M173 327 C172 318 177 312 186 312 L257 312 C266 312 273 318 274 327 L285 404 C287 413 281 419 272 419 L201 419 C192 419 186 413 184 404 L173 327 Z M145 -94 C154 -94 160 -88 165 -80 L236 63 C238 72 232 77 224 77 L159 77 C150 77 144 71 139 63 L68 -80 C67 -89 71 -94 80 -94 L145 -94 Z " />
<glyph glyph-name="less" unicode="&#x3c;" horiz-adv-x="418" d="M104 175 C103 166 108 160 116 158 L336 73 C342 73 348 77 349 85 L358 147 C359 156 354 160 348 163 L189 225 L190 232 L367 294 C373 297 380 301 381 310 L390 372 C391 380 385 384 379 384 L136 299 C127 297 120 291 119 282 L104 175 Z " />
<glyph glyph-name="equal" unicode="&#x3d;" horiz-adv-x="418" d="M145 376 C137 376 132 371 131 363 L122 304 C121 296 125 291 133 291 L365 291 C373 291 379 296 380 304 L389 363 C390 371 385 376 377 376 L145 376 Z M119 186 C111 186 105 181 104 173 L96 114 C94 106 99 101 107 101 L339 101 C347 101 352 106 354 114 L362 173 C363 181 359 186 351 186 L119 186 Z " />
<glyph glyph-name="greater" unicode="&#x3e;" horiz-adv-x="418" d="M377 282 C378 291 373 297 366 299 L145 384 C139 384 133 380 132 372 L123 310 C122 301 127 297 133 294 L292 232 L291 225 L114 163 C108 160 101 156 100 147 L91 85 C90 77 96 73 102 73 L346 158 C354 160 361 166 362 175 L377 282 Z " />
<glyph glyph-name="question" unicode="&#x3f;" horiz-adv-x="622" d="M267 186 C266 178 270 173 278 173 L347 173 C355 173 361 178 362 186 L363 194 C375 281 422 296 473 313 C529 331 591 352 611 497 L618 545 C630 633 565 705 472 705 L345 705 C254 705 168 633 156 545 L149 492 C148 484 152 479 160 479 L229 479 C237 479 243 484 244 492 L250 535 C256 581 302 620 344 620 L453 620 C495 620 528 581 522 535 L517 501 C505 414 457 398 406 381 C349 362 288 341 268 198 L267 186 Z M239 13 C238 5 243 0 251 0 L326 0 C334 0 339 5 340 13 L352 93 C353 101 348 106 340 106 L265 106 C257 106 252 101 251 93 L239 13 Z " />
<glyph glyph-name="at" unicode="&#x40;" horiz-adv-x="776" d="M771 539 C784 628 719 700 627 700 L348 700 C255 700 168 628 155 539 L85 41 C73 -47 139 -118 231 -118 L481 -118 C489 -118 495 -113 496 -105 L504 -46 C505 -38 501 -33 493 -33 L251 -33 C209 -33 175 4 182 52 L249 530 C255 575 302 615 344 615 L605 615 C648 615 681 575 675 530 L665 458 L657 458 C639 489 600 495 580 495 L505 495 C418 495 346 432 334 347 L315 213 C303 128 358 65 445 65 L520 65 C540 65 580 71 607 102 L615 102 L612 83 C611 75 615 70 623 70 L692 70 C700 70 706 75 707 83 L771 539 Z M631 216 C626 181 588 150 555 150 L469 150 C435 150 406 181 411 216 L429 344 C434 379 471 410 505 410 L591 410 C624 410 654 379 649 344 L631 216 Z " />
<glyph glyph-name="A" unicode="A" horiz-adv-x="620" d="M362 700 C354 700 350 695 347 687 L36 13 C35 5 40 0 48 0 L121 0 C129 0 132 5 136 13 L186 125 L467 125 L486 13 C488 5 491 0 499 0 L572 0 C580 0 585 5 586 13 L465 687 C464 695 462 700 454 700 L362 700 Z M384 567 L394 567 L453 210 L224 210 L384 567 Z " />
<glyph glyph-name="B" unicode="B" horiz-adv-x="592" d="M374 0 C467 0 552 72 564 161 L574 229 C580 277 567 325 514 364 C546 388 572 439 577 471 L586 539 C599 628 534 700 441 700 L191 700 C183 700 177 695 176 687 L81 13 C80 5 85 0 93 0 L374 0 Z M230 393 L261 616 L420 616 C462 616 496 576 490 531 L483 478 C476 430 431 393 389 393 L230 393 Z M409 308 C451 308 484 269 478 223 L470 169 C464 121 419 84 377 84 L186 84 L218 308 L409 308 Z " />
<glyph glyph-name="C" unicode="C" horiz-adv-x="596" d="M469 165 C462 117 417 80 375 80 L258 80 C216 80 181 117 188 165 L240 535 C246 581 292 620 334 620 L451 620 C493 620 527 581 521 535 L516 502 C515 494 519 489 527 489 L596 489 C604 489 610 494 611 502 L617 545 C629 633 565 705 472 705 L337 705 C244 705 158 633 146 545 L91 155 C79 67 144 -5 237 -5 L372 -5 C465 -5 550 67 562 155 L568 193 C569 201 564 206 556 206 L487 206 C479 206 474 201 473 193 L469 165 Z " />
<glyph glyph-name="D" unicode="D" horiz-adv-x="621" d="M460 615 C503 615 536 575 530 530 L479 170 C473 122 428 85 385 85 L186 85 L261 615 L460 615 Z M384 0 C476 0 561 72 573 161 L626 539 C639 628 574 700 482 700 L191 700 C183 700 177 695 176 687 L81 13 C80 5 85 0 93 0 L384 0 Z " />
<glyph glyph-name="E" unicode="E" horiz-adv-x="545" d="M81 13 C80 5 85 0 93 0 L462 0 C470 0 475 5 476 13 L485 72 C486 80 481 85 473 85 L186 85 L216 293 L479 293 C487 293 492 298 494 306 L502 365 C503 373 499 378 491 378 L228 378 L261 615 L548 615 C556 615 562 620 563 628 L571 687 C572 695 568 700 560 700 L191 700 C183 700 177 695 176 687 L81 13 Z " />
<glyph glyph-name="F" unicode="F" horiz-adv-x="515" d="M560 700 L191 700 C183 700 177 695 176 687 L81 13 C80 5 85 0 93 0 L162 0 C170 0 175 5 176 13 L216 293 L479 293 C487 293 492 298 494 306 L502 365 C503 373 499 378 491 378 L228 378 L261 615 L548 615 C556 615 562 620 563 628 L571 687 C572 695 568 700 560 700 L560 700 Z " />
<glyph glyph-name="G" unicode="G" horiz-adv-x="611" d="M488 299 L469 165 C462 117 417 80 375 80 L258 80 C216 80 181 117 188 165 L240 535 C246 581 292 620 334 620 L451 620 C493 620 527 581 521 535 L516 502 C515 494 519 489 527 489 L596 489 C604 489 610 494 611 502 L617 545 C629 633 565 705 472 705 L337 705 C244 705 158 633 146 545 L91 155 C79 67 144 -5 237 -5 L372 -5 C465 -5 550 67 562 155 L593 371 C594 379 589 384 581 384 L374 384 C366 384 361 379 360 371 L351 312 C350 304 355 299 363 299 L488 299 Z " />
<glyph glyph-name="H" unicode="H" horiz-adv-x="624" d="M450 13 C449 5 454 0 462 0 L531 0 C539 0 544 5 545 13 L640 687 C641 695 637 700 629 700 L560 700 C552 700 546 695 545 687 L502 381 L228 381 L271 687 C272 695 268 700 260 700 L191 700 C183 700 177 695 176 687 L81 13 C80 5 85 0 93 0 L162 0 C170 0 175 5 176 13 L216 296 L490 296 L450 13 Z " />
<glyph glyph-name="I" unicode="I" horiz-adv-x="255" d="M81 13 C80 5 85 0 93 0 L162 0 C170 0 175 5 176 13 L271 687 C272 695 268 700 260 700 L191 700 C183 700 177 695 176 687 L81 13 Z " />
<glyph glyph-name="J" unicode="J" horiz-adv-x="458" d="M92 109 C89 111 86 112 83 112 C79 112 77 111 73 109 L23 68 C20 65 18 62 18 58 C17 55 18 53 21 50 C44 27 94 -5 175 -5 C310 -5 408 78 421 165 L494 687 C495 695 491 700 483 700 L414 700 C406 700 400 695 399 687 L326 168 C325 157 295 80 181 80 C156 80 120 91 92 109 L92 109 Z " />
<glyph glyph-name="K" unicode="K" horiz-adv-x="584" d="M443 13 C445 6 449 0 457 0 L530 0 C538 0 543 5 544 13 L425 348 L639 687 C640 695 636 700 628 700 L555 700 C547 700 542 694 538 687 L351 392 L230 392 L271 687 C272 695 268 700 260 700 L191 700 C183 700 177 695 176 687 L81 13 C80 5 85 0 93 0 L162 0 C170 0 175 5 176 13 L218 307 L339 307 L443 13 Z " />
<glyph glyph-name="L" unicode="L" horiz-adv-x="515" d="M462 0 C470 0 475 5 476 13 L485 72 C486 80 481 85 473 85 L186 85 L271 687 C272 695 268 700 260 700 L191 700 C183 700 177 695 176 687 L81 13 C80 5 85 0 93 0 L462 0 Z " />
<glyph glyph-name="M" unicode="M" horiz-adv-x="790" d="M435 103 C442 103 448 107 450 113 L671 498 L684 498 L616 13 C615 5 620 0 628 0 L697 0 C705 0 710 5 711 13 L806 687 C807 695 803 700 795 700 L695 700 C687 700 680 694 676 687 L437 272 L429 272 L306 687 C304 694 299 700 291 700 L191 700 C183 700 177 695 176 687 L81 13 C80 5 85 0 93 0 L162 0 C170 0 175 5 176 13 L244 498 L257 498 L370 113 C372 107 376 103 383 103 L435 103 Z " />
<glyph glyph-name="N" unicode="N" horiz-adv-x="661" d="M444 13 C447 6 453 0 461 0 L568 0 C576 0 581 5 582 13 L677 687 C678 695 674 700 666 700 L597 700 C589 700 583 695 582 687 L508 162 L498 162 L314 687 C311 694 306 700 298 700 L191 700 C183 700 177 695 176 687 L81 13 C80 5 85 0 93 0 L162 0 C170 0 175 5 176 13 L250 538 L261 538 L444 13 Z " />
<glyph glyph-name="O" unicode="O" horiz-adv-x="611" d="M337 705 C244 705 158 633 146 545 L91 155 C79 67 144 -5 237 -5 L372 -5 C465 -5 550 67 562 155 L617 545 C629 633 565 705 472 705 L337 705 Z M258 80 C216 80 181 117 188 165 L240 535 C246 581 292 620 334 620 L451 620 C493 620 527 581 521 535 L469 165 C462 117 417 80 375 80 L258 80 Z " />
<glyph glyph-name="P" unicode="P" horiz-adv-x="603" d="M217 302 L261 615 L453 615 C495 615 528 575 522 530 L502 386 C495 339 451 302 409 302 L217 302 Z M191 700 C183 700 177 695 176 687 L81 13 C80 5 85 0 93 0 L162 0 C170 0 175 5 176 13 L205 217 L405 217 C498 217 583 289 596 378 L618 539 C631 628 566 700 473 700 L191 700 Z " />
<glyph glyph-name="Q" unicode="Q" horiz-adv-x="611" d="M472 705 L337 705 C244 705 158 633 146 545 L91 155 C79 67 144 -5 237 -5 L254 -5 L284 -104 C286 -111 291 -118 299 -118 L360 -118 C368 -118 375 -112 376 -104 L347 -5 L372 -5 C465 -5 550 67 562 155 L617 545 C629 633 565 705 472 705 L472 705 Z M469 165 C462 117 417 80 375 80 L258 80 C216 80 181 117 188 165 L240 535 C246 581 292 620 334 620 L451 620 C493 620 527 581 521 535 L469 165 Z " />
<glyph glyph-name="R" unicode="R" horiz-adv-x="593" d="M596 378 L618 539 C631 628 566 700 473 700 L191 700 C183 700 177 695 176 687 L81 13 C80 5 85 0 93 0 L162 0 C170 0 175 5 176 13 L205 217 L372 217 L437 13 C439 6 443 0 451 0 L527 0 C535 0 540 5 541 13 L470 229 C535 253 586 311 596 378 L596 378 Z M502 386 C495 339 451 302 409 302 L217 302 L261 615 L453 615 C495 615 528 575 522 530 L502 386 Z " />
<glyph glyph-name="S" unicode="S" horiz-adv-x="577" d="M236 80 C194 80 161 119 168 165 L170 182 C171 190 167 195 159 195 L90 195 C82 195 76 190 75 182 L71 155 C59 67 126 -5 217 -5 L353 -5 C446 -5 531 67 543 155 L546 172 C587 466 189 316 216 509 L220 535 C226 581 270 620 312 620 L424 620 C466 620 498 581 492 535 L489 518 C488 510 492 505 500 505 L569 505 C577 505 583 510 584 518 L588 545 C600 633 534 705 443 705 L316 705 C225 705 138 633 126 545 L123 522 C82 228 480 381 452 184 L450 165 C443 117 398 80 356 80 L236 80 Z " />
<glyph glyph-name="T" unicode="T" horiz-adv-x="551" d="M156 700 C148 700 142 695 141 687 L133 628 C132 620 136 615 144 615 L314 615 L229 13 C228 5 233 0 241 0 L310 0 C318 0 323 5 324 13 L409 615 L579 615 C587 615 593 620 594 628 L602 687 C603 695 599 700 591 700 L156 700 Z " />
<glyph glyph-name="U" unicode="U" horiz-adv-x="621" d="M474 165 C467 117 422 80 380 80 L263 80 C221 80 186 117 193 165 L266 687 C267 695 263 700 255 700 L186 700 C178 700 172 695 171 687 L96 155 C84 67 149 -5 242 -5 L377 -5 C470 -5 555 67 567 155 L642 687 C643 695 639 700 631 700 L562 700 C554 700 548 695 547 687 L474 165 Z " />
<glyph glyph-name="V" unicode="V" horiz-adv-x="620" d="M356 0 C364 0 367 5 370 13 L681 687 C682 695 678 700 670 700 L597 700 C589 700 585 695 581 687 L333 133 L323 133 L231 687 C229 695 227 700 219 700 L146 700 C138 700 132 695 131 687 L252 13 C253 5 256 0 264 0 L356 0 Z " />
<glyph glyph-name="W" unicode="W" horiz-adv-x="876" d="M502 700 C494 700 489 695 486 687 L273 144 L230 687 C229 695 226 700 218 700 L146 700 C138 700 132 695 131 687 L188 14 C189 5 193 0 202 0 L304 0 C312 0 317 5 320 14 L509 507 L558 14 C559 5 564 0 572 0 L674 0 C683 0 687 5 690 14 L937 687 C938 695 934 700 926 700 L854 700 C846 700 841 695 838 687 L643 144 L582 687 C581 695 578 700 570 700 L502 700 Z " />
<glyph glyph-name="X" unicode="X" horiz-adv-x="582" d="M443 13 C446 4 450 0 458 0 L529 0 C537 0 542 5 543 13 L440 350 L638 687 C639 695 635 700 627 700 L556 700 C548 700 543 696 538 687 L360 392 L332 392 L236 687 C233 696 230 700 222 700 L151 700 C143 700 137 695 136 687 L240 350 L41 13 C40 5 45 0 53 0 L124 0 C132 0 136 4 141 13 L320 307 L348 307 L443 13 Z " />
<glyph glyph-name="Y" unicode="Y" horiz-adv-x="593" d="M339 340 L227 689 C224 697 222 700 214 700 L141 700 C133 700 127 695 126 687 L279 220 L250 13 C249 5 254 0 262 0 L331 0 C339 0 344 5 345 13 L374 220 L659 687 C660 695 656 700 648 700 L575 700 C567 700 563 697 558 689 L348 340 L339 340 Z " />
<glyph glyph-name="Z" unicode="Z" horiz-adv-x="544" d="M186 85 L573 627 C575 631 578 634 578 639 L585 687 C586 695 582 700 574 700 L166 700 C158 700 152 695 151 687 L143 628 C142 620 146 615 154 615 L455 615 L69 73 C66 69 64 66 63 61 L56 13 C55 5 60 0 68 0 L476 0 C484 0 489 5 490 13 L499 72 C500 80 495 85 487 85 L186 85 Z " />
<glyph glyph-name="bracketleft" unicode="&#x5b;" horiz-adv-x="381" d="M206 805 C198 805 192 800 191 792 L56 -164 C55 -172 60 -177 68 -177 L263 -177 C271 -177 276 -172 277 -164 L286 -105 C287 -97 283 -92 275 -92 L162 -92 L276 720 L389 720 C397 720 402 725 404 733 L412 792 C413 800 409 805 401 805 L206 805 Z " />
<glyph glyph-name="backslash" unicode="&#x5c;" horiz-adv-x="567" d="M291 791 C289 799 286 804 278 804 L205 804 C197 804 192 799 191 791 L363 -166 C365 -174 367 -179 375 -179 L448 -179 C456 -179 462 -174 463 -166 L291 791 Z " />
<glyph glyph-name="bracketright" unicode="&#x5d;" horiz-adv-x="381" d="M206 805 C198 805 192 800 191 792 L183 733 C181 725 186 720 194 720 L307 720 L193 -92 L80 -92 C72 -92 66 -97 65 -105 L56 -164 C55 -172 60 -177 68 -177 L263 -177 C271 -177 276 -172 277 -164 L412 792 C413 800 409 805 401 805 L206 805 Z " />
<glyph glyph-name="asciicircum" unicode="&#x5e;" horiz-adv-x="416" d="M269 700 C261 700 254 695 249 686 L155 538 C154 531 158 526 166 526 L229 526 C235 526 241 532 245 538 L294 615 L321 538 C323 532 327 526 333 526 L396 526 C404 526 410 531 411 538 L359 686 C356 695 351 700 343 700 L269 700 Z " />
<glyph glyph-name="underscore" unicode="&#x5f;" horiz-adv-x="420" d="M306 -144 C314 -144 320 -139 321 -131 L329 -72 C331 -64 326 -59 318 -59 L84 -59 C76 -59 71 -64 69 -72 L61 -131 C60 -139 64 -144 72 -144 L306 -144 Z " />
<glyph glyph-name="grave" unicode="&#x60;" horiz-adv-x="307" d="M290 550 C299 550 305 555 306 564 L269 686 C266 694 262 700 253 700 L192 700 C184 700 177 695 176 686 L213 564 C216 556 220 550 229 550 L290 550 Z " />
<glyph glyph-name="a" unicode="a" horiz-adv-x="522" d="M226 80 C191 80 170 111 175 146 L177 161 C182 196 211 225 246 225 L393 225 L382 146 C377 111 346 80 312 80 L226 80 Z M176 500 C169 497 166 494 165 488 C165 486 164 482 171 429 C172 420 178 420 185 420 C239 429 277 435 310 435 C416 435 413 368 409 335 L405 310 L254 310 C168 310 96 260 85 178 L77 124 C65 42 124 -5 210 -5 L260 -5 C300 -5 335 7 358 32 L366 32 L363 13 C362 5 367 0 375 0 L444 0 C452 0 457 5 458 13 L504 336 C510 382 515 520 332 520 C255 520 203 510 176 500 L176 500 Z " />
<glyph glyph-name="b" unicode="b" horiz-adv-x="550" d="M226 369 C231 404 270 435 303 435 L389 435 C423 435 451 404 446 369 L415 146 C410 111 373 80 339 80 L253 80 C220 80 190 111 195 146 L226 369 Z M271 687 C272 695 268 700 260 700 L191 700 C183 700 177 695 176 687 L81 13 C80 5 85 0 93 0 L162 0 C170 0 175 5 176 13 L179 32 L187 32 C205 1 244 -5 264 -5 L339 -5 C426 -5 498 58 510 143 L542 372 C554 457 500 520 413 520 L338 520 C318 520 277 514 250 483 L242 483 L271 687 Z " />
<glyph glyph-name="c" unicode="c" horiz-adv-x="506" d="M483 157 C484 165 479 170 471 170 L402 170 C394 170 389 165 388 157 L386 146 C381 111 344 80 311 80 L238 80 C205 80 175 111 180 146 L211 369 C216 404 255 435 288 435 L361 435 C394 435 422 404 417 369 L416 358 C415 350 419 345 427 345 L496 345 C504 345 510 350 511 358 L513 374 C523 446 478 520 389 520 L282 520 C195 520 127 446 117 374 L84 141 C74 69 121 -5 208 -5 L315 -5 C404 -5 470 69 480 141 L483 157 Z " />
<glyph glyph-name="d" unicode="d" horiz-adv-x="550" d="M395 146 C390 111 352 80 319 80 L233 80 C199 80 170 111 175 146 L206 369 C211 404 249 435 283 435 L369 435 C402 435 431 404 426 369 L395 146 Z M442 483 L434 483 C417 514 378 520 358 520 L283 520 C196 520 124 457 112 372 L80 143 C68 58 122 -5 209 -5 L284 -5 C304 -5 345 1 371 32 L379 32 L376 13 C375 5 380 0 388 0 L457 0 C465 0 470 5 471 13 L566 687 C567 695 563 700 555 700 L486 700 C478 700 472 695 471 687 L442 483 Z " />
<glyph glyph-name="e" unicode="e" horiz-adv-x="521" d="M392 105 C376 93 352 80 319 80 L238 80 C205 80 175 111 180 146 L190 216 L478 216 C486 216 492 221 493 229 L513 374 C523 446 478 520 389 520 L282 520 C195 520 127 446 117 374 L84 141 C74 69 121 -5 208 -5 L307 -5 C307 -5 393 -5 450 56 C453 59 454 61 454 64 C455 67 452 71 451 73 L412 108 C409 110 407 111 404 111 C400 111 396 107 392 105 L392 105 Z M211 369 C216 404 255 435 288 435 L361 435 C394 435 422 404 417 369 L408 301 L202 301 L211 369 Z " />
<glyph glyph-name="f" unicode="f" horiz-adv-x="414" d="M296 430 L416 430 C424 430 430 435 431 443 L439 502 C440 510 436 515 428 515 L308 515 L319 593 C324 628 363 659 396 659 L448 659 C456 659 462 664 463 672 L471 731 C472 739 468 744 460 744 L389 744 C302 744 240 670 224 597 L213 515 L120 515 C112 515 106 510 105 502 L97 443 C96 435 100 430 108 430 L201 430 L142 13 C141 5 146 0 154 0 L223 0 C231 0 236 5 237 13 L296 430 Z " />
<glyph glyph-name="g" unicode="g" horiz-adv-x="550" d="M395 146 C390 111 352 80 319 80 L233 80 C199 80 170 111 175 146 L206 369 C211 404 249 435 283 435 L369 435 C402 435 431 404 426 369 L395 146 Z M88 -185 C115 -194 159 -203 229 -203 C412 -203 459 -76 465 -32 L540 502 C541 510 537 515 529 515 L460 515 C452 515 446 510 445 502 L442 483 L434 483 C417 514 378 520 358 520 L283 520 C196 520 124 457 112 372 L80 143 C68 58 122 -5 209 -5 L284 -5 C304 -5 345 1 371 32 L379 32 L370 -30 C365 -67 330 -118 245 -118 C188 -118 143 -113 115 -108 C109 -108 104 -108 101 -116 L81 -174 C80 -180 83 -183 88 -185 L88 -185 Z " />
<glyph glyph-name="h" unicode="h" horiz-adv-x="556" d="M392 13 C391 5 396 0 404 0 L473 0 C481 0 486 5 487 13 L538 371 C549 454 492 520 406 520 L375 520 C355 520 286 519 247 459 L239 459 L271 687 C272 695 268 700 260 700 L191 700 C183 700 177 695 176 687 L81 13 C80 5 85 0 93 0 L162 0 C170 0 175 5 176 13 L225 359 C272 434 340 435 368 435 L376 435 C413 435 447 405 440 353 L392 13 Z " />
<glyph glyph-name="i" unicode="i" horiz-adv-x="255" d="M81 13 C80 5 85 0 93 0 L162 0 C170 0 175 5 176 13 L245 502 C246 510 242 515 234 515 L165 515 C157 515 151 510 150 502 L81 13 Z M160 591 C158 583 163 578 171 578 L246 578 C254 578 259 583 261 591 L272 671 C273 679 269 684 261 684 L186 684 C178 684 172 679 171 671 L160 591 Z " />
<glyph glyph-name="j" unicode="j" horiz-adv-x="255" d="M7 -182 C47 -167 158 -116 175 7 L245 502 C246 510 242 515 234 515 L165 515 C157 515 151 510 150 502 L81 12 C81 12 70 -58 -18 -94 C-23 -96 -26 -101 -26 -106 C-27 -107 -26 -110 -25 -112 L-8 -176 C-7 -181 -2 -183 1 -183 C2 -183 5 -183 7 -182 L7 -182 Z M160 591 C158 583 163 578 171 578 L246 578 C254 578 259 583 261 591 L272 671 C273 679 269 684 261 684 L186 684 C178 684 172 679 171 671 L160 591 Z " />
<glyph glyph-name="k" unicode="k" horiz-adv-x="524" d="M305 229 L385 13 C388 6 394 0 402 0 L481 0 C489 0 494 5 495 13 L398 272 L564 502 C565 510 561 515 553 515 L474 515 C466 515 459 509 454 502 L318 314 L219 314 L271 687 C272 695 268 700 260 700 L191 700 C183 700 177 695 176 687 L81 13 C80 5 85 0 93 0 L162 0 C170 0 175 5 176 13 L207 229 L305 229 Z " />
<glyph glyph-name="l" unicode="l" horiz-adv-x="255" d="M81 13 C80 5 85 0 93 0 L162 0 C170 0 175 5 176 13 L271 687 C272 695 268 700 260 700 L191 700 C183 700 177 695 176 687 L81 13 Z " />
<glyph glyph-name="m" unicode="m" horiz-adv-x="795" d="M777 371 C789 457 733 520 647 520 C626 520 557 520 505 459 L495 459 C475 496 427 520 378 520 C358 520 299 520 247 459 L239 459 L245 502 C246 510 242 515 234 515 L165 515 C157 515 151 510 150 502 L81 13 C80 5 85 0 93 0 L162 0 C170 0 175 5 176 13 L225 359 C267 423 298 435 338 435 C387 435 412 406 405 356 L356 13 C355 5 360 0 368 0 L437 0 C445 0 450 5 451 13 L500 359 C542 423 573 435 613 435 C662 435 687 406 680 356 L631 13 C630 5 635 0 643 0 L712 0 C720 0 725 5 726 13 L777 371 Z " />
<glyph glyph-name="n" unicode="n" horiz-adv-x="558" d="M540 371 C541 378 541 385 541 392 C541 465 486 520 408 520 L377 520 C357 520 288 519 249 459 L241 459 L247 502 C247 505 247 507 246 509 C244 513 241 515 236 515 L167 515 C162 515 159 514 156 511 C154 509 152 505 152 502 L83 13 C83 9 83 8 85 4 C87 1 91 0 95 0 L164 0 C168 0 172 2 174 4 C176 6 177 8 178 13 L227 359 C274 434 342 435 370 435 L378 435 C412 435 443 410 443 366 C443 362 443 358 442 353 L394 13 C394 9 394 8 396 4 C398 1 402 0 406 0 L475 0 C479 0 483 2 485 4 C487 6 488 8 489 13 L540 371 Z " />
<glyph glyph-name="o" unicode="o" horiz-adv-x="526" d="M282 520 C195 520 127 446 117 374 L84 141 C74 69 121 -5 208 -5 L315 -5 C403 -5 470 69 480 141 L513 374 C523 446 477 520 390 520 L282 520 Z M238 80 C205 80 175 111 180 146 L211 369 C216 404 255 435 288 435 L360 435 C393 435 422 404 417 369 L386 146 C381 111 343 80 310 80 L238 80 Z " />
<glyph glyph-name="p" unicode="p" horiz-adv-x="550" d="M226 369 C231 404 270 435 303 435 L389 435 C423 435 451 404 446 369 L415 146 C410 111 373 80 339 80 L253 80 C220 80 190 111 195 146 L226 369 Z M245 502 C246 510 242 515 234 515 L165 515 C157 515 151 510 150 502 L57 -161 C56 -169 60 -174 68 -174 L137 -174 C145 -174 151 -169 152 -161 L179 32 L187 32 C205 1 244 -5 264 -5 L339 -5 C426 -5 498 58 510 143 L542 372 C554 457 500 520 413 520 L338 520 C318 520 277 514 250 483 L242 483 L245 502 Z " />
<glyph glyph-name="q" unicode="q" horiz-adv-x="550" d="M395 146 C390 111 352 80 319 80 L233 80 C199 80 170 111 175 146 L206 369 C211 404 249 435 283 435 L369 435 C402 435 431 404 426 369 L395 146 Z M442 483 L434 483 C417 514 378 520 358 520 L283 520 C196 520 124 457 112 372 L80 143 C68 58 122 -5 209 -5 L284 -5 C304 -5 345 1 371 32 L379 32 L352 -161 C351 -169 355 -174 363 -174 L432 -174 C440 -174 446 -169 447 -161 L540 502 C541 510 537 515 529 515 L460 515 C452 515 446 510 445 502 L442 483 Z " />
<glyph glyph-name="r" unicode="r" horiz-adv-x="414" d="M426 431 C434 431 440 436 441 444 L454 503 C455 509 453 513 447 515 C433 520 411 520 400 520 C380 520 287 519 247 459 L239 459 L245 502 C246 510 242 515 234 515 L165 515 C157 515 151 510 150 502 L81 13 C80 5 85 0 93 0 L162 0 C170 0 175 5 176 13 L225 359 C272 434 353 435 381 435 C397 435 412 433 426 431 L426 431 Z " />
<glyph glyph-name="s" unicode="s" horiz-adv-x="504" d="M347 435 C381 435 409 404 404 369 L403 357 C402 349 406 344 414 344 L483 344 C491 344 497 349 498 357 L500 374 C510 446 463 520 376 520 L273 520 C185 520 120 458 110 386 L109 379 C81 180 394 254 380 150 L378 136 C372 98 337 80 303 80 L228 80 C194 80 165 111 170 146 L172 158 C173 166 169 171 161 171 L92 171 C84 171 78 166 77 158 L74 141 C64 69 112 -5 199 -5 L309 -5 C398 -5 462 57 472 129 L474 143 C502 343 188 269 202 369 L204 379 C209 417 245 435 279 435 L347 435 Z " />
<glyph glyph-name="t" unicode="t" horiz-adv-x="409" d="M356 0 C364 0 369 5 370 13 L379 72 C380 80 375 85 367 85 L315 85 C282 85 252 117 257 151 L296 430 L416 430 C424 430 430 435 431 443 L439 502 C440 510 436 515 428 515 L308 515 L332 687 C333 695 329 700 321 700 L252 700 C244 700 238 695 237 687 L213 515 L120 515 C112 515 106 510 105 502 L97 443 C96 435 100 430 108 430 L201 430 L161 148 C156 74 198 0 285 0 L356 0 Z " />
<glyph glyph-name="u" unicode="u" horiz-adv-x="536" d="M391 146 C386 111 348 80 315 80 L243 80 C210 80 180 111 185 146 L235 502 C236 510 232 515 224 515 L155 515 C147 515 141 510 140 502 L89 141 C79 69 126 -5 213 -5 L320 -5 C408 -5 475 69 485 141 L536 502 C537 510 533 515 525 515 L456 515 C448 515 442 510 441 502 L391 146 Z " />
<glyph glyph-name="v" unicode="v" horiz-adv-x="498" d="M311 0 C319 0 324 5 327 13 L543 502 C544 510 540 515 532 515 L459 515 C451 515 447 510 443 502 L266 86 L256 86 L195 502 C193 510 191 515 183 515 L110 515 C102 515 96 510 95 502 L173 13 C174 5 179 0 187 0 L311 0 Z " />
<glyph glyph-name="w" unicode="w" horiz-adv-x="734" d="M403 515 C395 515 389 510 386 502 L234 151 L194 502 C193 510 190 515 182 515 L110 515 C102 515 96 510 95 502 L157 12 C158 4 161 0 169 0 L249 0 C257 0 259 4 263 12 L418 369 L473 12 C475 4 477 0 485 0 L565 0 C573 0 576 4 579 12 L779 502 C780 510 776 515 768 515 L696 515 C688 515 683 510 680 502 L542 151 L488 502 C487 510 483 515 475 515 L403 515 Z " />
<glyph glyph-name="x" unicode="x" horiz-adv-x="481" d="M353 13 C356 4 360 0 368 0 L438 0 C446 0 451 5 452 13 L377 258 L521 502 C522 510 518 515 510 515 L440 515 C432 515 427 511 422 502 L302 301 L263 301 L199 502 C196 511 193 515 185 515 L115 515 C107 515 101 510 100 502 L176 258 L31 13 C30 5 35 0 43 0 L113 0 C121 0 125 4 130 13 L251 216 L290 216 L353 13 Z " />
<glyph glyph-name="y" unicode="y" horiz-adv-x="498" d="M58 -118 C50 -118 44 -123 43 -131 L35 -190 C34 -198 38 -203 46 -203 L108 -203 C151 -203 243 -180 317 -11 L543 502 C544 510 540 515 532 515 L459 515 C451 515 447 510 443 502 L266 86 L256 86 L195 502 C193 510 191 515 183 515 L110 515 C102 515 96 510 95 502 L184 -48 C175 -82 145 -118 92 -118 L58 -118 Z " />
<glyph glyph-name="z" unicode="z" horiz-adv-x="469" d="M477 442 C479 446 482 449 482 454 L489 502 C490 510 486 515 478 515 L135 515 C127 515 121 510 120 502 L112 443 C111 435 115 430 123 430 L360 430 L64 73 C60 69 59 66 58 61 L51 13 C50 5 55 0 63 0 L406 0 C414 0 419 5 420 13 L429 72 C430 80 425 85 417 85 L180 85 L477 442 Z " />
<glyph glyph-name="braceleft" unicode="&#x7b;" horiz-adv-x="463" d="M283 644 L254 441 C248 393 203 355 161 355 L142 355 C134 355 129 350 128 342 L119 283 C118 275 122 270 130 270 L149 270 C191 270 225 232 218 184 L190 -18 C178 -106 240 -178 332 -178 L344 -178 C352 -178 358 -173 359 -165 L368 -106 C369 -98 364 -93 356 -93 L352 -93 C310 -93 280 -55 286 -9 L314 191 C320 234 305 275 273 312 C316 349 342 391 348 433 L377 636 C383 682 425 720 467 720 L471 720 C479 720 484 725 486 733 L494 792 C495 800 491 805 483 805 L471 805 C379 805 296 733 283 644 L283 644 Z " />
<glyph glyph-name="bar" unicode="&#x7c;" horiz-adv-x="255" d="M56 -165 C55 -173 59 -178 67 -178 L136 -178 C144 -178 150 -173 151 -165 L286 792 C287 800 283 805 275 805 L206 805 C198 805 192 800 191 792 L56 -165 Z " />
<glyph glyph-name="braceright" unicode="&#x7d;" horiz-adv-x="463" d="M360 644 C373 733 310 805 218 805 L206 805 C198 805 192 800 191 792 L183 733 C181 725 186 720 194 720 L198 720 C240 720 270 682 264 636 L235 433 C229 391 245 349 276 312 C234 275 207 234 201 191 L173 -9 C167 -55 125 -93 83 -93 L79 -93 C71 -93 66 -98 65 -106 L56 -165 C55 -173 59 -178 67 -178 L79 -178 C171 -178 255 -106 267 -18 L295 184 C302 232 346 270 388 270 L407 270 C415 270 421 275 422 283 L431 342 C432 350 427 355 419 355 L400 355 C358 355 325 393 331 441 L360 644 Z " />
<glyph glyph-name="asciitilde" unicode="&#x7e;" horiz-adv-x="450" d="M323 168 C342 168 366 176 388 188 C393 191 397 196 398 202 L390 254 C389 260 384 262 379 262 C377 262 375 262 372 261 C359 257 342 253 335 253 C280 253 243 295 191 295 C172 295 148 287 126 275 C121 272 117 267 116 261 L124 209 C125 203 130 201 135 201 C137 201 139 201 142 202 C155 206 172 210 179 210 C234 210 270 168 323 168 L323 168 Z " />
<glyph glyph-name="uni00A0" unicode="&#xa0;" horiz-adv-x="198" d="" />
<glyph glyph-name="exclamdown" unicode="&#xa1;" horiz-adv-x="261" d="M139 399 L84 13 C83 5 88 0 96 0 L165 0 C173 0 178 5 179 13 L234 399 L236 511 C236 519 233 524 225 524 L182 524 C174 524 169 519 167 511 L139 399 Z M165 607 C164 599 168 594 176 594 L251 594 C259 594 265 599 266 607 L277 687 C278 695 274 700 266 700 L191 700 C183 700 177 695 176 687 L165 607 Z " />
<glyph glyph-name="cent" unicode="&#xa2;" horiz-adv-x="631" d="M254 -124 C253 -132 257 -137 265 -137 L334 -137 C342 -137 348 -132 349 -124 L366 -5 L382 -5 C475 -5 560 67 572 155 L578 193 C579 201 574 206 566 206 L497 206 C489 206 484 201 483 193 L479 165 C472 117 427 80 385 80 L268 80 C226 80 191 117 198 165 L250 535 C256 581 302 620 344 620 L461 620 C503 620 537 581 531 535 L526 502 C525 494 529 489 537 489 L606 489 C614 489 620 494 621 502 L627 545 C639 633 575 705 482 705 L466 705 L482 819 C483 827 478 832 470 832 L401 832 C393 832 388 827 387 819 L371 705 L347 705 C254 705 168 633 156 545 L101 155 C89 67 154 -5 247 -5 L271 -5 L254 -124 Z " />
<glyph glyph-name="sterling" unicode="&#xa3;" horiz-adv-x="670" d="M366 549 C371 584 409 615 442 615 L515 615 C548 615 577 584 572 549 L569 531 C568 523 572 518 580 518 L649 518 C657 518 663 523 664 531 L667 554 C677 626 632 700 543 700 L436 700 C349 700 281 626 271 554 L246 375 L145 375 C137 375 132 370 130 362 L122 303 C121 295 125 290 133 290 L234 290 L205 85 L104 85 C96 85 91 80 90 72 L81 13 C80 5 85 0 93 0 L576 0 C584 0 589 5 590 13 L599 72 C600 80 595 85 587 85 L300 85 L329 290 L447 290 C455 290 461 295 462 303 L470 362 C472 370 467 375 459 375 L341 375 L366 549 Z " />
<glyph glyph-name="currency" unicode="&#xa4;" horiz-adv-x="491" d="M254 349 C247 349 237 347 228 346 L216 387 C214 395 211 399 203 399 L150 399 C142 399 135 393 134 385 L159 301 C144 281 132 258 129 239 L118 161 C115 141 121 118 130 98 L81 14 C80 6 86 0 94 0 L147 0 C155 0 159 4 163 12 L187 53 C196 52 205 50 212 50 L292 50 C300 50 309 52 318 53 L330 12 C332 4 336 0 344 0 L397 0 C405 0 411 6 412 14 L387 98 C402 118 414 141 417 161 L428 239 C431 258 425 281 416 301 L465 385 C466 393 461 399 453 399 L400 399 C392 399 387 395 383 387 L359 346 C350 347 342 349 335 349 L254 349 Z M237 121 C215 121 196 142 200 164 L210 235 C213 257 237 278 259 278 L310 278 C332 278 350 257 347 235 L337 164 C333 142 310 121 288 121 L237 121 Z " />
<glyph glyph-name="yen" unicode="&#xa5;" horiz-adv-x="693" d="M244 353 C236 353 230 348 229 340 L221 281 C220 273 224 268 232 268 L313 268 L329 220 L322 168 L218 168 C210 168 204 163 203 155 L195 96 C194 88 198 83 206 83 L310 83 L300 13 C299 5 304 0 312 0 L381 0 C389 0 394 5 395 13 L405 83 L509 83 C517 83 523 88 524 96 L532 155 C533 163 529 168 521 168 L417 168 L424 220 L453 268 L535 268 C543 268 549 273 550 281 L558 340 C559 348 555 353 547 353 L505 353 L709 687 C710 695 706 700 698 700 L625 700 C617 700 613 697 608 689 L398 340 L389 340 L277 689 C274 697 272 700 264 700 L191 700 C183 700 177 695 176 687 L285 353 L244 353 Z " />
<glyph glyph-name="brokenbar" unicode="&#xa6;" horiz-adv-x="255" d="M136 405 C135 397 140 392 148 392 L217 392 C225 392 230 397 231 405 L286 792 C287 800 283 805 275 805 L206 805 C198 805 192 800 191 792 L136 405 Z M56 -165 C55 -173 59 -178 67 -178 L136 -178 C144 -178 150 -173 151 -165 L206 222 C207 230 203 235 195 235 L126 235 C118 235 112 230 111 222 L56 -165 Z " />
<glyph glyph-name="section" unicode="&#xa7;" horiz-adv-x="566" d="M529 309 L531 323 C559 523 246 449 260 549 L261 559 C266 597 302 615 336 615 L404 615 C438 615 467 584 462 549 L460 537 C459 529 463 524 471 524 L540 524 C548 524 554 529 555 537 L557 554 C567 626 520 700 433 700 L330 700 C242 700 177 638 167 566 L166 559 C159 511 172 479 195 457 C159 432 136 394 130 353 L129 346 C101 147 415 221 400 117 L398 103 C393 65 357 47 323 47 L248 47 C214 47 185 78 190 113 L192 125 C193 133 189 138 181 138 L112 138 C104 138 98 133 97 125 L95 108 C85 36 132 -38 219 -38 L329 -38 C418 -38 482 24 492 96 L494 110 C500 155 490 186 469 208 C501 233 523 270 529 309 L529 309 Z M435 316 C430 281 403 262 372 262 C368 262 365 262 361 263 C266 277 217 295 223 336 L224 346 C229 384 265 402 299 402 C353 402 444 379 437 334 L435 316 Z " />
<glyph glyph-name="dieresis" unicode="&#xa8;" horiz-adv-x="424" d="M165 608 C164 599 169 593 178 593 L249 593 C258 593 265 599 266 608 L277 685 C278 694 273 700 264 700 L193 700 C184 700 177 694 176 685 L165 608 Z M328 608 C327 599 332 593 341 593 L412 593 C421 593 428 599 429 608 L440 685 C441 694 436 700 427 700 L356 700 C347 700 340 694 339 685 L328 608 Z " />
<glyph glyph-name="copyright" unicode="&#xa9;" horiz-adv-x="871" d="M534 699 C339 699 155 539 128 344 C100 148 239 -11 434 -11 C630 -11 811 148 839 344 C866 539 730 699 534 699 L534 699 Z M443 51 C280 51 169 181 192 344 C215 507 362 638 525 638 C690 638 802 507 779 344 C756 181 608 51 443 51 L443 51 Z M438 222 C416 222 397 242 400 265 L423 428 C426 451 451 470 473 470 L525 470 C548 470 566 451 563 428 L561 413 C560 406 563 402 570 402 L630 402 C637 402 642 406 643 413 L645 430 C653 487 618 544 549 544 L469 544 C400 544 350 487 342 430 L318 261 C310 205 344 148 413 148 L493 148 C562 148 613 205 621 262 L624 279 C625 286 621 290 614 290 L554 290 C547 290 543 286 542 279 L540 264 C536 241 513 222 490 222 L438 222 Z " />
<glyph glyph-name="ordfeminine" unicode="&#xaa;" horiz-adv-x="398" d="M218 494 C221 514 233 521 250 521 L322 521 L317 489 C314 469 295 457 276 457 L248 457 C231 457 214 469 217 489 L218 494 Z M207 632 C233 637 252 640 273 640 C323 640 335 614 332 595 L329 576 L248 576 C198 576 156 547 149 498 L147 480 C140 432 174 402 224 402 L253 402 C264 402 287 408 303 425 L308 425 L307 415 C306 410 310 406 315 406 L366 406 C371 406 375 410 376 415 L401 595 C405 621 397 700 292 700 C249 700 219 694 203 689 C200 688 198 686 197 682 C197 681 196 671 199 637 C199 632 203 632 207 632 L207 632 Z " />
<glyph glyph-name="guillemotleft" unicode="&#xab;" horiz-adv-x="691" d="M116 259 L212 13 C215 6 219 0 227 0 L297 0 C305 0 310 5 311 13 L215 261 L217 271 L379 491 C380 499 375 504 367 504 L297 504 C289 504 284 498 280 491 L118 271 L116 259 Z M417 259 L513 13 C516 6 520 0 528 0 L598 0 C606 0 611 5 612 13 L516 261 L518 271 L680 491 C681 499 676 504 668 504 L598 504 C590 504 585 498 581 491 L419 271 L417 259 Z " />
<glyph glyph-name="logicalnot" unicode="&#xac;" horiz-adv-x="555" d="M133 288 C125 288 119 283 118 275 L110 216 C109 208 113 203 121 203 L408 203 L390 78 C389 70 394 65 402 65 L471 65 C479 65 484 70 485 78 L513 275 C514 283 510 288 502 288 L133 288 Z " />
<glyph glyph-name="uni00AD" unicode="&#xad;" horiz-adv-x="198" d="" />
<glyph glyph-name="registered" unicode="&#xae;" horiz-adv-x="871" d="M423 347 L441 472 L521 472 C544 472 561 451 557 426 L553 392 C549 366 526 347 503 347 L423 347 Z M534 699 C339 699 155 539 128 344 C100 148 239 -11 434 -11 C630 -11 811 148 839 344 C866 539 730 699 534 699 L534 699 Z M443 51 C280 51 169 181 192 344 C215 507 362 638 525 638 C690 638 802 507 779 344 C756 181 608 51 443 51 L443 51 Z M565 280 C599 300 625 330 630 364 L642 454 C649 504 612 546 560 546 L381 546 C374 546 370 542 369 535 L316 163 C315 156 319 152 326 152 L385 152 C392 152 396 156 397 163 L413 274 L487 274 L522 163 C525 157 529 152 536 152 L592 152 C599 152 603 156 604 163 L565 280 Z " />
<glyph glyph-name="macron" unicode="&#xaf;" horiz-adv-x="418" d="M191 700 C183 700 177 695 176 687 L168 628 C167 620 171 615 179 615 L411 615 C419 615 425 620 426 628 L434 687 C435 695 431 700 423 700 L191 700 Z " />
<glyph glyph-name="degree" unicode="&#xb0;" horiz-adv-x="418" d="M314 752 C243 752 177 695 167 623 C157 552 207 494 278 494 C349 494 415 552 425 623 C435 695 385 752 314 752 L314 752 Z M288 566 C256 566 235 594 239 623 C244 656 272 680 304 680 C336 680 358 656 353 623 C349 594 320 566 288 566 L288 566 Z " />
<glyph glyph-name="plusminus" unicode="&#xb1;" horiz-adv-x="464" d="M209 177 C208 169 213 164 221 164 L290 164 C298 164 303 169 304 177 L320 290 L411 290 C419 290 425 295 426 303 L434 362 C436 370 431 375 423 375 L332 375 L348 489 C349 497 345 502 337 502 L268 502 C260 502 254 497 253 489 L237 375 L145 375 C137 375 132 370 130 362 L122 303 C121 295 125 290 133 290 L225 290 L209 177 Z M104 85 C96 85 91 80 90 72 L81 13 C80 5 85 0 93 0 L371 0 C379 0 384 5 385 13 L394 72 C395 80 390 85 382 85 L104 85 Z " />
<glyph glyph-name="twosuperior" unicode="&#xb2;" horiz-adv-x="364" d="M240 607 C243 628 249 640 269 640 L276 640 C296 640 298 627 296 613 L295 608 C285 536 162 584 145 465 L138 414 C137 410 141 406 145 406 L333 406 C337 406 341 410 342 414 L349 463 C349 467 346 471 342 471 L219 471 C227 528 347 485 364 605 L365 619 C371 657 347 700 308 700 L252 700 C214 700 180 671 174 633 L171 607 C170 602 174 598 179 598 L230 598 C235 598 239 602 240 607 L240 607 Z " />
<glyph glyph-name="threesuperior" unicode="&#xb3;" horiz-adv-x="353" d="M237 582 C232 582 229 579 228 574 L222 531 C221 526 224 523 229 523 L248 523 C268 523 276 514 274 499 L273 493 C271 479 266 466 246 466 L239 466 C219 466 216 478 219 499 C219 504 216 508 211 508 L160 508 C155 508 150 504 150 499 L146 473 C141 435 167 406 205 406 L261 406 C300 406 336 449 341 487 L342 496 C346 526 340 543 321 552 C342 561 354 578 358 608 L359 619 C365 657 341 700 302 700 L246 700 C208 700 174 671 168 633 L165 607 C164 602 168 598 173 598 L224 598 C229 598 233 602 234 607 C237 628 243 640 263 640 L270 640 C290 640 292 627 290 613 L289 605 C286 590 276 582 256 582 L237 582 Z " />
<glyph glyph-name="acute" unicode="&#xb4;" horiz-adv-x="308" d="M232 554 C240 554 246 560 251 568 L324 686 C325 695 320 700 312 700 L251 700 C243 700 237 694 232 686 L159 568 C158 559 162 554 171 554 L232 554 Z " />
<glyph glyph-name="mu" unicode="&#xb5;" horiz-adv-x="556" d="M57 -161 C56 -169 60 -174 68 -174 L137 -174 C145 -174 151 -169 152 -161 L175 3 C189 -2 205 -5 223 -5 L330 -5 C418 -5 485 69 495 141 L546 502 C547 510 543 515 535 515 L466 515 C458 515 452 510 451 502 L401 146 C396 111 358 80 325 80 L253 80 C220 80 190 111 195 146 L245 502 C246 510 242 515 234 515 L165 515 C157 515 151 510 150 502 L57 -161 Z " />
<glyph glyph-name="paragraph" unicode="&#xb6;" horiz-adv-x="728" d="M346 700 C253 700 168 628 155 539 L139 423 C127 335 191 262 284 262 L362 262 L327 13 C326 5 331 0 339 0 L408 0 C416 0 421 5 422 13 L507 615 L639 615 L554 13 C553 5 558 0 566 0 L635 0 C643 0 648 5 649 13 L744 687 C745 695 741 700 733 700 L346 700 Z " />
<glyph glyph-name="periodcentered" unicode="&#xb7;" horiz-adv-x="261" d="M106 187 C105 178 110 172 119 172 L190 172 C199 172 206 178 207 187 L218 264 C219 273 214 279 205 279 L134 279 C125 279 118 273 117 264 L106 187 Z " />
<glyph glyph-name="cedilla" unicode="&#xb8;" horiz-adv-x="308" d="M80 -52 C78 -55 76 -58 76 -60 L71 -93 C71 -98 74 -102 79 -102 L134 -102 C134 -102 158 -102 155 -125 C152 -146 128 -146 128 -146 L68 -146 C63 -146 58 -150 58 -155 L53 -186 C53 -191 56 -195 61 -195 L138 -195 C185 -195 202 -178 211 -119 C218 -71 182 -53 143 -53 L172 -8 C174 0 171 1 166 1 L126 1 C120 1 115 -1 112 -5 L80 -52 Z " />
<glyph glyph-name="onesuperior" unicode="&#xb9;" horiz-adv-x="365" d="M183 676 C178 675 174 670 173 666 L166 616 C166 612 169 608 173 608 L247 635 L224 471 L165 471 C161 471 156 467 156 463 L149 414 C148 410 152 406 156 406 L334 406 C338 406 342 410 343 414 L350 463 C350 467 347 471 343 471 L293 471 L324 692 C324 696 321 700 317 700 L246 700 L183 676 Z " />
<glyph glyph-name="ordmasculine" unicode="&#xba;" horiz-adv-x="418" d="M314 752 C243 752 177 695 167 623 C157 552 207 494 278 494 C349 494 415 552 425 623 C435 695 385 752 314 752 L314 752 Z M288 566 C256 566 235 594 239 623 C244 656 272 680 304 680 C336 680 358 656 353 623 C349 594 320 566 288 566 L288 566 Z " />
<glyph glyph-name="guillemotright" unicode="&#xbb;" horiz-adv-x="691" d="M649 271 L549 491 C545 498 542 504 534 504 L464 504 C456 504 451 499 450 491 L550 271 L548 261 L382 13 C381 5 386 0 394 0 L464 0 C472 0 476 6 481 13 L647 259 L649 271 Z M348 271 L248 491 C244 498 241 504 233 504 L163 504 C155 504 150 499 149 491 L249 271 L247 261 L81 13 C80 5 85 0 93 0 L163 0 C171 0 175 6 180 13 L346 259 L348 271 Z " />
<glyph glyph-name="onequarter" unicode="&#xbc;" horiz-adv-x="774" d="M709 685 C710 694 705 700 696 700 L643 700 C634 700 627 695 622 686 L186 15 C184 6 190 0 199 0 L252 0 C261 0 267 5 272 14 L709 685 Z M183 676 C178 675 174 670 173 666 L166 616 C166 612 169 608 173 608 L247 635 L224 471 L165 471 C161 471 156 467 156 463 L149 414 C148 410 152 406 156 406 L334 406 C338 406 342 410 343 414 L350 463 C350 467 347 471 343 471 L293 471 L324 692 C324 696 321 700 317 700 L246 700 L183 676 Z M633 286 C633 290 630 294 626 294 L580 294 C576 294 570 290 568 286 L455 87 L450 52 C449 48 453 44 457 44 L603 44 L598 8 C597 4 601 0 605 0 L654 0 C658 0 662 4 663 8 L668 44 L692 44 C696 44 700 48 701 52 L707 95 C707 99 704 103 700 103 L676 103 L686 177 C687 181 684 185 680 185 L631 185 C627 185 622 181 621 177 L611 103 L529 103 L633 286 Z " />
<glyph glyph-name="onehalf" unicode="&#xbd;" horiz-adv-x="747" d="M709 685 C710 694 705 700 696 700 L643 700 C634 700 627 695 622 686 L186 15 C184 6 190 0 199 0 L252 0 C261 0 267 5 272 14 L709 685 Z M183 676 C178 675 174 670 173 666 L166 616 C166 612 169 608 173 608 L247 635 L224 471 L165 471 C161 471 156 467 156 463 L149 414 C148 410 152 406 156 406 L334 406 C338 406 342 410 343 414 L350 463 C350 467 347 471 343 471 L293 471 L324 692 C324 696 321 700 317 700 L246 700 L183 676 Z M566 201 C569 222 575 234 595 234 L602 234 C622 234 624 221 622 207 L621 202 C611 130 488 178 471 59 L464 8 C463 4 467 0 471 0 L659 0 C663 0 667 4 668 8 L675 57 C675 61 672 65 668 65 L545 65 C553 122 673 79 689 199 L691 213 C697 251 673 294 634 294 L578 294 C540 294 506 265 500 227 L497 201 C496 196 499 192 504 192 L555 192 C560 192 565 196 566 201 L566 201 Z " />
<glyph glyph-name="threequarters" unicode="&#xbe;" horiz-adv-x="726" d="M669 685 C670 694 665 700 656 700 L603 700 C594 700 587 695 582 686 L146 15 C144 6 150 0 159 0 L212 0 C221 0 227 5 232 14 L669 685 Z M585 286 C585 290 582 294 578 294 L532 294 C528 294 522 290 520 286 L407 87 L402 52 C401 48 405 44 409 44 L555 44 L550 8 C549 4 553 0 557 0 L606 0 C610 0 614 4 615 8 L620 44 L644 44 C648 44 652 48 653 52 L659 95 C659 99 656 103 652 103 L628 103 L638 177 C639 181 636 185 632 185 L583 185 C579 185 574 181 573 177 L563 103 L481 103 L585 286 Z M237 582 C232 582 229 579 228 574 L222 531 C221 526 224 523 229 523 L248 523 C268 523 276 514 274 499 L273 493 C271 479 266 466 246 466 L239 466 C219 466 216 478 219 499 C219 504 216 508 211 508 L160 508 C155 508 150 504 150 499 L146 473 C141 435 167 406 205 406 L261 406 C300 406 336 449 341 487 L342 496 C346 526 340 543 321 552 C342 561 354 578 358 608 L359 619 C365 657 341 700 302 700 L246 700 C208 700 174 671 168 633 L165 607 C164 602 168 598 173 598 L224 598 C229 598 233 602 234 607 C237 628 243 640 263 640 L270 640 C290 640 292 627 290 613 L289 605 C286 590 276 582 256 582 L237 582 Z " />
<glyph glyph-name="questiondown" unicode="&#xbf;" horiz-adv-x="622" d="M453 519 C455 527 450 532 442 532 L373 532 C365 532 360 527 358 519 L357 511 C345 424 298 409 247 392 C191 374 129 353 109 208 L102 160 C90 72 156 0 249 0 L376 0 C467 0 552 72 564 160 L571 213 C573 221 568 226 560 226 L491 226 C483 226 478 221 476 213 L470 170 C464 124 418 85 376 85 L267 85 C225 85 192 124 198 170 L203 204 C215 291 263 307 314 324 C371 343 432 364 452 507 L453 519 Z M470 612 C468 604 463 599 455 599 L380 599 C372 599 367 604 369 612 L380 692 C381 700 387 705 395 705 L470 705 C478 705 482 700 481 692 L470 612 Z " />
<glyph glyph-name="Agrave" unicode="&#xc0;" horiz-adv-x="620" d="M362 700 C354 700 350 695 347 687 L36 13 C35 5 40 0 48 0 L121 0 C129 0 132 5 136 13 L186 125 L467 125 L486 13 C488 5 491 0 499 0 L572 0 C580 0 585 5 586 13 L465 687 C464 695 462 700 454 700 L362 700 Z M384 567 L394 567 L453 210 L224 210 L384 567 Z M443 751 C452 751 458 756 459 765 L420 883 C417 891 413 897 405 897 L344 897 C336 897 329 892 328 883 L367 765 C370 757 374 751 382 751 L443 751 Z " />
<glyph glyph-name="Aacute" unicode="&#xc1;" horiz-adv-x="620" d="M362 700 C354 700 350 695 347 687 L36 13 C35 5 40 0 48 0 L121 0 C129 0 132 5 136 13 L186 125 L467 125 L486 13 C488 5 491 0 499 0 L572 0 C580 0 585 5 586 13 L465 687 C464 695 462 700 454 700 L362 700 Z M384 567 L394 567 L453 210 L224 210 L384 567 Z M452 751 C460 751 466 757 471 765 L544 883 C545 892 540 897 532 897 L471 897 C463 897 457 891 452 883 L379 765 C378 756 382 751 391 751 L452 751 Z " />
<glyph glyph-name="Acircumflex" unicode="&#xc2;" horiz-adv-x="620" d="M362 700 C354 700 350 695 347 687 L36 13 C35 5 40 0 48 0 L121 0 C129 0 132 5 136 13 L186 125 L467 125 L486 13 C488 5 491 0 499 0 L572 0 C580 0 585 5 586 13 L465 687 C464 695 462 700 454 700 L362 700 Z M384 567 L394 567 L453 210 L224 210 L384 567 Z M403 925 C395 925 388 920 383 911 L289 763 C288 756 292 751 300 751 L363 751 C369 751 375 757 379 763 L428 840 L455 763 C457 757 461 751 467 751 L530 751 C538 751 544 756 545 763 L493 911 C490 920 485 925 477 925 L403 925 Z " />
<glyph glyph-name="Atilde" unicode="&#xc3;" horiz-adv-x="620" d="M490 751 C509 751 533 759 555 771 C560 774 564 779 565 785 L557 837 C556 843 551 845 546 845 C544 845 542 845 539 844 C526 840 509 836 502 836 C447 836 410 878 358 878 C339 878 315 870 293 858 C288 855 284 850 283 844 L291 792 C292 786 297 784 302 784 C304 784 306 784 309 785 C322 789 339 793 346 793 C401 793 437 751 490 751 L490 751 Z M362 700 C354 700 350 695 347 687 L36 13 C35 5 40 0 48 0 L121 0 C129 0 132 5 136 13 L186 125 L467 125 L486 13 C488 5 491 0 499 0 L572 0 C580 0 585 5 586 13 L465 687 C464 695 462 700 454 700 L362 700 Z M384 567 L394 567 L453 210 L224 210 L384 567 Z " />
<glyph glyph-name="Adieresis" unicode="&#xc4;" horiz-adv-x="620" d="M362 700 C354 700 350 695 347 687 L36 13 C35 5 40 0 48 0 L121 0 C129 0 132 5 136 13 L186 125 L467 125 L486 13 C488 5 491 0 499 0 L572 0 C580 0 585 5 586 13 L465 687 C464 695 462 700 454 700 L362 700 Z M384 567 L394 567 L453 210 L224 210 L384 567 Z M285 766 C284 757 289 751 298 751 L369 751 C378 751 385 757 386 766 L397 843 C398 852 393 858 384 858 L313 858 C304 858 297 852 296 843 L285 766 Z M448 766 C447 757 452 751 461 751 L532 751 C541 751 548 757 549 766 L560 843 C561 852 556 858 547 858 L476 858 C467 858 460 852 459 843 L448 766 Z " />
<glyph glyph-name="Aring" unicode="&#xc5;" horiz-adv-x="620" d="M434 886 C363 886 297 829 287 757 C281 712 298 672 330 649 L36 13 C35 5 40 0 48 0 L121 0 C129 0 132 5 136 13 L186 125 L467 125 L486 13 C488 5 491 0 499 0 L572 0 C580 0 585 5 586 13 L472 649 C510 672 539 712 545 757 C555 829 505 886 434 886 L434 886 Z M384 567 L394 567 L453 210 L224 210 L384 567 Z M408 700 C376 700 355 728 359 757 C364 790 392 814 424 814 C456 814 478 790 473 757 C469 728 440 700 408 700 L408 700 Z " />
<glyph glyph-name="AE" unicode="&#xc6;" horiz-adv-x="944" d="M508 210 L268 210 L536 617 L565 617 L508 210 Z M31 13 C30 5 35 0 43 0 L118 0 C126 0 134 6 138 13 L213 125 L496 125 L480 13 C479 5 484 0 492 0 L861 0 C869 0 874 5 875 13 L884 72 C885 80 880 85 872 85 L585 85 L615 293 L878 293 C886 293 891 298 893 306 L901 365 C902 373 898 378 890 378 L627 378 L660 615 L947 615 C955 615 961 620 962 628 L970 687 C971 695 967 700 959 700 L498 700 C489 700 480 692 475 684 L31 13 Z " />
<glyph glyph-name="Ccedilla" unicode="&#xc7;" horiz-adv-x="596" d="M229 -93 C229 -98 232 -102 237 -102 L292 -102 C292 -102 316 -102 313 -125 C310 -146 286 -146 286 -146 L226 -146 C221 -146 216 -150 216 -155 L211 -186 C211 -191 214 -195 219 -195 L296 -195 C343 -195 360 -178 369 -119 C376 -71 340 -53 301 -53 L332 -5 L372 -5 C465 -5 550 67 562 155 L568 193 C569 201 564 206 556 206 L487 206 C479 206 474 201 473 193 L469 165 C462 117 417 80 375 80 L258 80 C216 80 181 117 188 165 L240 535 C246 581 292 620 334 620 L451 620 C493 620 527 581 521 535 L516 502 C515 494 519 489 527 489 L596 489 C604 489 610 494 611 502 L617 545 C629 633 565 705 472 705 L337 705 C244 705 158 633 146 545 L91 155 C79 67 144 -5 237 -5 L270 -5 L238 -52 C236 -55 234 -58 234 -60 L229 -93 Z " />
<glyph glyph-name="Egrave" unicode="&#xc8;" horiz-adv-x="545" d="M81 13 C80 5 85 0 93 0 L462 0 C470 0 475 5 476 13 L485 72 C486 80 481 85 473 85 L186 85 L216 293 L479 293 C487 293 492 298 494 306 L502 365 C503 373 499 378 491 378 L228 378 L261 615 L548 615 C556 615 562 620 563 628 L571 687 C572 695 568 700 560 700 L191 700 C183 700 177 695 176 687 L81 13 Z M417 751 C426 751 432 756 433 765 L394 883 C391 891 387 897 379 897 L318 897 C310 897 303 892 302 883 L341 765 C344 757 348 751 356 751 L417 751 Z " />
<glyph glyph-name="Eacute" unicode="&#xc9;" horiz-adv-x="545" d="M81 13 C80 5 85 0 93 0 L462 0 C470 0 475 5 476 13 L485 72 C486 80 481 85 473 85 L186 85 L216 293 L479 293 C487 293 492 298 494 306 L502 365 C503 373 499 378 491 378 L228 378 L261 615 L548 615 C556 615 562 620 563 628 L571 687 C572 695 568 700 560 700 L191 700 C183 700 177 695 176 687 L81 13 Z M419 751 C427 751 433 757 438 765 L511 883 C512 892 507 897 499 897 L438 897 C430 897 424 891 419 883 L346 765 C345 756 349 751 358 751 L419 751 Z " />
<glyph glyph-name="Ecircumflex" unicode="&#xca;" horiz-adv-x="545" d="M81 13 C80 5 85 0 93 0 L462 0 C470 0 475 5 476 13 L485 72 C486 80 481 85 473 85 L186 85 L216 293 L479 293 C487 293 492 298 494 306 L502 365 C503 373 499 378 491 378 L228 378 L261 615 L548 615 C556 615 562 620 563 628 L571 687 C572 695 568 700 560 700 L191 700 C183 700 177 695 176 687 L81 13 Z M371 925 C363 925 356 920 351 911 L257 763 C256 756 260 751 268 751 L331 751 C337 751 343 757 347 763 L396 840 L423 763 C425 757 429 751 435 751 L498 751 C506 751 512 756 513 763 L461 911 C458 920 453 925 445 925 L371 925 Z " />
<glyph glyph-name="Edieresis" unicode="&#xcb;" horiz-adv-x="545" d="M81 13 C80 5 85 0 93 0 L462 0 C470 0 475 5 476 13 L485 72 C486 80 481 85 473 85 L186 85 L216 293 L479 293 C487 293 492 298 494 306 L502 365 C503 373 499 378 491 378 L228 378 L261 615 L548 615 C556 615 562 620 563 628 L571 687 C572 695 568 700 560 700 L191 700 C183 700 177 695 176 687 L81 13 Z M251 766 C250 757 255 751 264 751 L335 751 C344 751 351 757 352 766 L363 843 C364 852 359 858 350 858 L279 858 C270 858 263 852 262 843 L251 766 Z M414 766 C413 757 418 751 427 751 L498 751 C507 751 514 757 515 766 L526 843 C527 852 522 858 513 858 L442 858 C433 858 426 852 425 843 L414 766 Z " />
<glyph glyph-name="Igrave" unicode="&#xcc;" horiz-adv-x="255" d="M81 13 C80 5 85 0 93 0 L162 0 C170 0 175 5 176 13 L271 687 C272 695 268 700 260 700 L191 700 C183 700 177 695 176 687 L81 13 Z M260 751 C269 751 275 756 276 765 L237 883 C234 891 230 897 222 897 L161 897 C153 897 146 892 145 883 L184 765 C187 757 191 751 199 751 L260 751 Z " />
<glyph glyph-name="Iacute" unicode="&#xcd;" horiz-adv-x="255" d="M81 13 C80 5 85 0 93 0 L162 0 C170 0 175 5 176 13 L271 687 C272 695 268 700 260 700 L191 700 C183 700 177 695 176 687 L81 13 Z M265 751 C273 751 279 757 284 765 L357 883 C358 892 353 897 345 897 L284 897 C276 897 270 891 265 883 L192 765 C191 756 195 751 204 751 L265 751 Z " />
<glyph glyph-name="Icircumflex" unicode="&#xce;" horiz-adv-x="255" d="M81 13 C80 5 85 0 93 0 L162 0 C170 0 175 5 176 13 L271 687 C272 695 268 700 260 700 L191 700 C183 700 177 695 176 687 L81 13 Z M222 943 C214 943 207 938 202 929 L108 781 C107 774 112 769 120 769 L183 769 C189 769 194 775 198 781 L247 858 L274 781 C276 775 281 769 287 769 L350 769 C358 769 363 774 364 781 L312 929 C309 938 304 943 296 943 L222 943 Z " />
<glyph glyph-name="Idieresis" unicode="&#xcf;" horiz-adv-x="255" d="M81 13 C80 5 85 0 93 0 L162 0 C170 0 175 5 176 13 L271 687 C272 695 268 700 260 700 L191 700 C183 700 177 695 176 687 L81 13 Z M102 766 C101 757 106 751 115 751 L186 751 C195 751 202 757 203 766 L214 843 C215 852 210 858 201 858 L130 858 C121 858 114 852 113 843 L102 766 Z M265 766 C264 757 269 751 278 751 L349 751 C358 751 365 757 366 766 L377 843 C378 852 373 858 364 858 L293 858 C284 858 277 852 276 843 L265 766 Z " />
<glyph glyph-name="Eth" unicode="&#xd0;" horiz-adv-x="637" d="M88 393 C80 393 74 388 73 380 L65 321 C63 313 68 308 76 308 L139 308 L97 13 C96 5 101 0 109 0 L400 0 C492 0 577 72 589 161 L642 539 C655 628 590 700 498 700 L207 700 C199 700 193 695 192 687 L151 393 L88 393 Z M476 615 C519 615 552 575 546 530 L495 170 C489 122 444 85 401 85 L202 85 L234 308 L308 308 C316 308 321 313 323 321 L331 380 C332 388 328 393 320 393 L246 393 L277 615 L476 615 Z " />
<glyph glyph-name="Ntilde" unicode="&#xd1;" horiz-adv-x="661" d="M444 13 C447 6 453 0 461 0 L568 0 C576 0 581 5 582 13 L677 687 C678 695 674 700 666 700 L597 700 C589 700 583 695 582 687 L508 162 L498 162 L314 687 C311 694 306 700 298 700 L191 700 C183 700 177 695 176 687 L81 13 C80 5 85 0 93 0 L162 0 C170 0 175 5 176 13 L250 538 L261 538 L444 13 Z M506 751 C525 751 549 759 571 771 C576 774 580 779 581 785 L573 837 C572 843 567 845 562 845 C560 845 558 845 555 844 C542 840 525 836 518 836 C463 836 426 878 374 878 C355 878 331 870 309 858 C304 855 300 850 299 844 L307 792 C308 786 313 784 318 784 C320 784 322 784 325 785 C338 789 355 793 362 793 C417 793 453 751 506 751 L506 751 Z " />
<glyph glyph-name="Ograve" unicode="&#xd2;" horiz-adv-x="611" d="M337 705 C244 705 158 633 146 545 L91 155 C79 67 144 -5 237 -5 L372 -5 C465 -5 550 67 562 155 L617 545 C629 633 565 705 472 705 L337 705 Z M258 80 C216 80 181 117 188 165 L240 535 C246 581 292 620 334 620 L451 620 C493 620 527 581 521 535 L469 165 C462 117 417 80 375 80 L258 80 Z M437 751 C446 751 452 756 453 765 L414 883 C411 891 407 897 399 897 L338 897 C330 897 323 892 322 883 L361 765 C364 757 368 751 376 751 L437 751 Z " />
<glyph glyph-name="Oacute" unicode="&#xd3;" horiz-adv-x="611" d="M337 705 C244 705 158 633 146 545 L91 155 C79 67 144 -5 237 -5 L372 -5 C465 -5 550 67 562 155 L617 545 C629 633 565 705 472 705 L337 705 Z M258 80 C216 80 181 117 188 165 L240 535 C246 581 292 620 334 620 L451 620 C493 620 527 581 521 535 L469 165 C462 117 417 80 375 80 L258 80 Z M448 751 C456 751 462 757 467 765 L540 883 C541 892 536 897 528 897 L467 897 C459 897 453 891 448 883 L375 765 C374 756 378 751 387 751 L448 751 Z " />
<glyph glyph-name="Ocircumflex" unicode="&#xd4;" horiz-adv-x="611" d="M337 705 C244 705 158 633 146 545 L91 155 C79 67 144 -5 237 -5 L372 -5 C465 -5 550 67 562 155 L617 545 C629 633 565 705 472 705 L337 705 Z M258 80 C216 80 181 117 188 165 L240 535 C246 581 292 620 334 620 L451 620 C493 620 527 581 521 535 L469 165 C462 117 417 80 375 80 L258 80 Z M398 925 C390 925 383 920 378 911 L284 763 C283 756 287 751 295 751 L358 751 C364 751 370 757 374 763 L423 840 L450 763 C452 757 456 751 462 751 L525 751 C533 751 539 756 540 763 L488 911 C485 920 480 925 472 925 L398 925 Z " />
<glyph glyph-name="Otilde" unicode="&#xd5;" horiz-adv-x="611" d="M337 705 C244 705 158 633 146 545 L91 155 C79 67 144 -5 237 -5 L372 -5 C465 -5 550 67 562 155 L617 545 C629 633 565 705 472 705 L337 705 Z M258 80 C216 80 181 117 188 165 L240 535 C246 581 292 620 334 620 L451 620 C493 620 527 581 521 535 L469 165 C462 117 417 80 375 80 L258 80 Z M486 751 C505 751 529 759 551 771 C556 774 560 779 561 785 L553 837 C552 843 547 845 542 845 C540 845 538 845 535 844 C522 840 505 836 498 836 C443 836 406 878 354 878 C335 878 311 870 289 858 C284 855 280 850 279 844 L287 792 C288 786 293 784 298 784 C300 784 302 784 305 785 C318 789 335 793 342 793 C397 793 433 751 486 751 L486 751 Z " />
<glyph glyph-name="Odieresis" unicode="&#xd6;" horiz-adv-x="611" d="M337 705 C244 705 158 633 146 545 L91 155 C79 67 144 -5 237 -5 L372 -5 C465 -5 550 67 562 155 L617 545 C629 633 565 705 472 705 L337 705 Z M258 80 C216 80 181 117 188 165 L240 535 C246 581 292 620 334 620 L451 620 C493 620 527 581 521 535 L469 165 C462 117 417 80 375 80 L258 80 Z M280 766 C279 757 284 751 293 751 L364 751 C373 751 380 757 381 766 L392 843 C393 852 388 858 379 858 L308 858 C299 858 292 852 291 843 L280 766 Z M443 766 C442 757 447 751 456 751 L527 751 C536 751 543 757 544 766 L555 843 C556 852 551 858 542 858 L471 858 C462 858 455 852 454 843 L443 766 Z " />
<glyph glyph-name="multiply" unicode="&#xd7;" horiz-adv-x="412" d="M223 124 L280 56 C283 53 286 53 288 53 C291 53 294 54 296 56 L342 96 C344 99 346 101 346 105 C347 107 346 110 344 113 L288 179 L363 245 C365 248 367 251 367 253 C368 257 367 259 365 262 L331 302 C329 304 326 305 323 305 C321 305 318 305 315 302 L238 234 L181 302 C178 305 175 305 173 305 C170 305 167 304 165 302 L119 262 C117 259 116 257 115 253 C115 251 115 248 117 245 L174 179 L98 113 C96 110 95 107 94 105 C94 101 94 99 96 96 L130 56 C132 54 135 53 138 53 C140 53 143 53 146 56 L223 124 Z " />
<glyph glyph-name="Oslash" unicode="&#xd8;" horiz-adv-x="611" d="M107 -78 C105 -86 110 -91 118 -91 L191 -91 C199 -91 202 -86 207 -78 L240 -5 L372 -5 C465 -5 550 67 562 155 L617 545 C625 602 600 652 557 681 L602 778 C603 786 599 791 591 791 L518 791 C510 791 506 786 502 778 L468 705 L337 705 C244 705 158 633 146 545 L91 155 C83 98 107 47 151 19 L107 -78 Z M188 165 L240 535 C246 581 292 620 334 620 L429 620 L196 116 C189 130 185 146 188 165 L188 165 Z M521 535 L469 165 C462 117 417 80 375 80 L280 80 L511 583 C519 569 523 552 521 535 L521 535 Z " />
<glyph glyph-name="Ugrave" unicode="&#xd9;" horiz-adv-x="621" d="M474 165 C467 117 422 80 380 80 L263 80 C221 80 186 117 193 165 L266 687 C267 695 263 700 255 700 L186 700 C178 700 172 695 171 687 L96 155 C84 67 149 -5 242 -5 L377 -5 C470 -5 555 67 567 155 L642 687 C643 695 639 700 631 700 L562 700 C554 700 548 695 547 687 L474 165 Z M442 751 C451 751 457 756 458 765 L419 883 C416 891 412 897 404 897 L343 897 C335 897 328 892 327 883 L366 765 C369 757 373 751 381 751 L442 751 Z " />
<glyph glyph-name="Uacute" unicode="&#xda;" horiz-adv-x="621" d="M266 687 C267 695 263 700 255 700 L186 700 C178 700 172 695 171 687 L96 155 C84 67 149 -5 242 -5 L377 -5 C470 -5 555 67 567 155 L642 687 C643 695 639 700 631 700 L562 700 C554 700 548 695 547 687 L474 165 C467 117 422 80 380 80 L263 80 C221 80 186 117 193 165 L266 687 Z M450 751 C458 751 464 757 469 765 L542 883 C543 892 538 897 530 897 L469 897 C461 897 455 891 450 883 L377 765 C376 756 380 751 389 751 L450 751 Z " />
<glyph glyph-name="Ucircumflex" unicode="&#xdb;" horiz-adv-x="621" d="M474 165 C467 117 422 80 380 80 L263 80 C221 80 186 117 193 165 L266 687 C267 695 263 700 255 700 L186 700 C178 700 172 695 171 687 L96 155 C84 67 149 -5 242 -5 L377 -5 C470 -5 555 67 567 155 L642 687 C643 695 639 700 631 700 L562 700 C554 700 548 695 547 687 L474 165 Z M403 925 C395 925 388 920 383 911 L289 763 C288 756 292 751 300 751 L363 751 C369 751 375 757 379 763 L428 840 L455 763 C457 757 461 751 467 751 L530 751 C538 751 544 756 545 763 L493 911 C490 920 485 925 477 925 L403 925 Z " />
<glyph glyph-name="Udieresis" unicode="&#xdc;" horiz-adv-x="621" d="M474 165 C467 117 422 80 380 80 L263 80 C221 80 186 117 193 165 L266 687 C267 695 263 700 255 700 L186 700 C178 700 172 695 171 687 L96 155 C84 67 149 -5 242 -5 L377 -5 C470 -5 555 67 567 155 L642 687 C643 695 639 700 631 700 L562 700 C554 700 548 695 547 687 L474 165 Z M285 766 C284 757 289 751 298 751 L369 751 C378 751 385 757 386 766 L397 843 C398 852 393 858 384 858 L313 858 C304 858 297 852 296 843 L285 766 Z M448 766 C447 757 452 751 461 751 L532 751 C541 751 548 757 549 766 L560 843 C561 852 556 858 547 858 L476 858 C467 858 460 852 459 843 L448 766 Z " />
<glyph glyph-name="Yacute" unicode="&#xdd;" horiz-adv-x="593" d="M339 340 L227 689 C224 697 222 700 214 700 L141 700 C133 700 127 695 126 687 L279 220 L250 13 C249 5 254 0 262 0 L331 0 C339 0 344 5 345 13 L374 220 L659 687 C660 695 656 700 648 700 L575 700 C567 700 563 697 558 689 L348 340 L339 340 Z M437 751 C445 751 451 757 456 765 L529 883 C530 892 525 897 517 897 L456 897 C448 897 442 891 437 883 L364 765 C363 756 367 751 376 751 L437 751 Z " />
<glyph glyph-name="Thorn" unicode="&#xde;" horiz-adv-x="603" d="M202 193 L246 506 L438 506 C480 506 513 466 507 421 L486 277 C480 230 436 193 394 193 L202 193 Z M258 591 L271 687 C272 695 268 700 260 700 L191 700 C183 700 177 695 176 687 L81 13 C80 5 85 0 93 0 L162 0 C170 0 175 5 176 13 L190 108 L390 108 C483 108 568 180 580 269 L603 430 C615 519 551 591 458 591 L258 591 Z " />
<glyph glyph-name="germandbls" unicode="&#xdf;" horiz-adv-x="592" d="M374 0 C467 0 552 72 564 161 L574 229 C580 277 567 325 514 364 C546 388 572 439 577 471 L586 539 C599 628 534 700 441 700 L191 700 C183 700 177 695 176 687 L81 13 C80 5 85 0 93 0 L162 0 C170 0 175 5 176 13 L261 616 L420 616 C462 616 496 576 490 531 L483 478 C476 430 431 393 389 393 L324 393 C316 393 310 388 309 380 L301 321 C299 313 304 308 312 308 L409 308 C451 308 484 269 478 223 L470 170 C464 122 419 85 377 85 L300 85 C292 85 287 80 286 72 L277 13 C276 5 281 0 289 0 L374 0 Z " />
<glyph glyph-name="agrave" unicode="&#xe0;" horiz-adv-x="522" d="M226 80 C191 80 170 111 175 146 L177 161 C182 196 211 225 246 225 L393 225 L382 146 C377 111 346 80 312 80 L226 80 Z M176 500 C169 497 166 494 165 488 C165 486 164 482 171 429 C172 420 178 420 185 420 C239 429 277 435 310 435 C416 435 413 368 409 335 L405 310 L254 310 C168 310 96 260 85 178 L77 124 C65 42 124 -5 210 -5 L260 -5 C300 -5 335 7 358 32 L366 32 L363 13 C362 5 367 0 375 0 L444 0 C452 0 457 5 458 13 L504 336 C510 382 515 520 332 520 C255 520 203 510 176 500 L176 500 Z M387 571 C396 571 401 576 403 585 L363 703 C360 711 356 717 348 717 L287 717 C279 717 273 712 271 703 L311 585 C314 577 318 571 326 571 L387 571 Z " />
<glyph glyph-name="aacute" unicode="&#xe1;" horiz-adv-x="522" d="M226 80 C191 80 170 111 175 146 L177 161 C182 196 211 225 246 225 L393 225 L382 146 C377 111 346 80 312 80 L226 80 Z M176 500 C169 497 166 494 165 488 C165 486 164 482 171 429 C172 420 178 420 185 420 C239 429 277 435 310 435 C416 435 413 368 409 335 L405 310 L254 310 C168 310 96 260 85 178 L77 124 C65 42 124 -5 210 -5 L260 -5 C300 -5 335 7 358 32 L366 32 L363 13 C362 5 367 0 375 0 L444 0 C452 0 457 5 458 13 L504 336 C510 382 515 520 332 520 C255 520 203 510 176 500 L176 500 Z M392 571 C400 571 406 577 411 585 L483 703 C485 712 479 717 471 717 L410 717 C402 717 396 711 391 703 L319 585 C317 576 322 571 331 571 L392 571 Z " />
<glyph glyph-name="acircumflex" unicode="&#xe2;" horiz-adv-x="522" d="M226 80 C191 80 170 111 175 146 L177 161 C182 196 211 225 246 225 L393 225 L382 146 C377 111 346 80 312 80 L226 80 Z M176 500 C169 497 166 494 165 488 C165 486 164 482 171 429 C172 420 178 420 185 420 C239 429 277 435 310 435 C416 435 413 368 409 335 L405 310 L254 310 C168 310 96 260 85 178 L77 124 C65 42 124 -5 210 -5 L260 -5 C300 -5 335 7 358 32 L366 32 L363 13 C362 5 367 0 375 0 L444 0 C452 0 457 5 458 13 L504 336 C510 382 515 520 332 520 C255 520 203 510 176 500 L176 500 Z M352 745 C344 745 338 740 332 731 L238 583 C237 576 242 571 250 571 L313 571 C319 571 325 577 328 583 L377 660 L404 583 C407 577 411 571 417 571 L480 571 C488 571 493 576 494 583 L442 731 C440 740 434 745 426 745 L352 745 Z " />
<glyph glyph-name="atilde" unicode="&#xe3;" horiz-adv-x="522" d="M226 80 C191 80 170 111 175 146 L177 161 C182 196 211 225 246 225 L393 225 L382 146 C377 111 346 80 312 80 L226 80 Z M176 500 C169 497 166 494 165 488 C165 486 164 482 171 429 C172 420 178 420 185 420 C239 429 277 435 310 435 C416 435 413 368 409 335 L405 310 L254 310 C168 310 96 260 85 178 L77 124 C65 42 124 -5 210 -5 L260 -5 C300 -5 335 7 358 32 L366 32 L363 13 C362 5 367 0 375 0 L444 0 C452 0 457 5 458 13 L504 336 C510 382 515 520 332 520 C255 520 203 510 176 500 L176 500 Z M431 571 C450 571 474 579 496 591 C501 594 505 599 506 605 L498 657 C497 663 492 665 487 665 C485 665 483 665 480 664 C466 660 450 656 443 656 C388 656 351 698 299 698 C280 698 255 690 234 678 C228 675 225 670 224 664 L232 612 C233 606 237 604 242 604 C244 604 246 604 250 605 C263 609 280 613 287 613 C342 613 378 571 431 571 L431 571 Z " />
<glyph glyph-name="adieresis" unicode="&#xe4;" horiz-adv-x="522" d="M226 80 C191 80 170 111 175 146 L177 161 C182 196 211 225 246 225 L393 225 L382 146 C377 111 346 80 312 80 L226 80 Z M176 500 C169 497 166 494 165 488 C165 486 164 482 171 429 C172 420 178 420 185 420 C239 429 277 435 310 435 C416 435 413 368 409 335 L405 310 L254 310 C168 310 96 260 85 178 L77 124 C65 42 124 -5 210 -5 L260 -5 C300 -5 335 7 358 32 L366 32 L363 13 C362 5 367 0 375 0 L444 0 C452 0 457 5 458 13 L504 336 C510 382 515 520 332 520 C255 520 203 510 176 500 L176 500 Z M235 586 C234 577 239 571 248 571 L319 571 C328 571 335 577 336 586 L347 663 C348 672 343 678 334 678 L263 678 C254 678 247 672 246 663 L235 586 Z M398 586 C397 577 402 571 411 571 L482 571 C491 571 498 577 499 586 L510 663 C511 672 506 678 497 678 L426 678 C417 678 410 672 409 663 L398 586 Z " />
<glyph glyph-name="aring" unicode="&#xe5;" horiz-adv-x="522" d="M226 80 C191 80 170 111 175 146 L177 161 C182 196 211 225 246 225 L393 225 L382 146 C377 111 346 80 312 80 L226 80 Z M176 500 C169 497 166 494 165 488 C165 486 164 482 171 429 C172 420 178 420 185 420 C239 429 277 435 310 435 C416 435 413 368 409 335 L405 310 L254 310 C168 310 96 260 85 178 L77 124 C65 42 124 -5 210 -5 L260 -5 C300 -5 335 7 358 32 L366 32 L363 13 C362 5 367 0 375 0 L444 0 C452 0 457 5 458 13 L504 336 C510 382 515 520 332 520 C255 520 203 510 176 500 L176 500 Z M395 829 C324 829 258 772 248 700 C238 629 288 571 359 571 C430 571 496 629 506 700 C516 772 466 829 395 829 L395 829 Z M369 643 C337 643 316 671 320 700 C325 733 353 757 385 757 C417 757 439 733 434 700 C430 671 401 643 369 643 L369 643 Z " />
<glyph glyph-name="ae" unicode="&#xe6;" horiz-adv-x="818" d="M689 105 C673 93 649 80 616 80 L535 80 C503 80 472 109 477 143 L487 216 L775 216 C783 216 789 221 790 229 L810 374 C820 446 775 520 686 520 L579 520 C535 520 496 502 467 474 C442 501 400 520 332 520 C255 520 203 510 176 500 C169 497 166 494 165 488 C165 486 164 482 171 429 C172 420 178 420 185 420 C239 429 277 435 310 435 C416 435 413 368 409 335 L405 310 L254 310 C168 310 96 260 85 178 L77 124 C65 42 124 -5 210 -5 L305 -5 C345 -5 380 7 403 32 L414 32 C435 9 466 -5 505 -5 L604 -5 C604 -5 690 -5 747 56 C750 59 751 61 751 64 C752 67 749 71 748 73 L709 108 C706 110 704 111 701 111 C697 111 693 107 689 105 L689 105 Z M226 80 C191 80 170 111 175 146 L177 161 C182 196 211 225 246 225 L393 225 L381 141 C374 108 344 80 312 80 L226 80 Z M508 369 C513 404 552 435 585 435 L658 435 C691 435 719 404 714 369 L705 301 L499 301 L508 369 Z " />
<glyph glyph-name="ccedilla" unicode="&#xe7;" horiz-adv-x="506" d="M200 -52 C198 -55 196 -58 196 -60 L191 -93 C191 -98 194 -102 199 -102 L254 -102 C254 -102 278 -102 275 -125 C272 -146 248 -146 248 -146 L188 -146 C183 -146 178 -150 178 -155 L173 -186 C173 -191 176 -195 181 -195 L258 -195 C305 -195 322 -178 331 -119 C338 -71 302 -53 263 -53 L293 -5 L315 -5 C404 -5 470 69 480 141 L483 157 C484 165 479 170 471 170 L402 170 C394 170 389 165 388 157 L386 146 C381 111 344 80 311 80 L238 80 C205 80 175 111 180 146 L211 369 C216 404 255 435 288 435 L361 435 C394 435 422 404 417 369 L416 358 C415 350 419 345 427 345 L496 345 C504 345 510 350 511 358 L513 374 C523 446 478 520 389 520 L282 520 C195 520 127 446 117 374 L84 141 C74 69 121 -5 208 -5 L231 -5 L200 -52 Z " />
<glyph glyph-name="egrave" unicode="&#xe8;" horiz-adv-x="521" d="M392 105 C376 93 352 80 319 80 L238 80 C205 80 175 111 180 146 L190 216 L478 216 C486 216 492 221 493 229 L513 374 C523 446 478 520 389 520 L282 520 C195 520 127 446 117 374 L84 141 C74 69 121 -5 208 -5 L307 -5 C307 -5 393 -5 450 56 C453 59 454 61 454 64 C455 67 452 71 451 73 L412 108 C409 110 407 111 404 111 C400 111 396 107 392 105 L392 105 Z M211 369 C216 404 255 435 288 435 L361 435 C394 435 422 404 417 369 L408 301 L202 301 L211 369 Z M370 571 C379 571 384 576 386 585 L346 703 C343 711 339 717 331 717 L270 717 C262 717 256 712 254 703 L294 585 C297 577 301 571 309 571 L370 571 Z " />
<glyph glyph-name="eacute" unicode="&#xe9;" horiz-adv-x="521" d="M392 105 C376 93 352 80 319 80 L238 80 C205 80 175 111 180 146 L190 216 L478 216 C486 216 492 221 493 229 L513 374 C523 446 478 520 389 520 L282 520 C195 520 127 446 117 374 L84 141 C74 69 121 -5 208 -5 L307 -5 C307 -5 393 -5 450 56 C453 59 454 61 454 64 C455 67 452 71 451 73 L412 108 C409 110 407 111 404 111 C400 111 396 107 392 105 L392 105 Z M211 369 C216 404 255 435 288 435 L361 435 C394 435 422 404 417 369 L408 301 L202 301 L211 369 Z M377 571 C385 571 391 577 396 585 L468 703 C470 712 464 717 456 717 L395 717 C387 717 381 711 376 703 L304 585 C302 576 307 571 316 571 L377 571 Z " />
<glyph glyph-name="ecircumflex" unicode="&#xea;" horiz-adv-x="521" d="M392 105 C376 93 352 80 319 80 L238 80 C205 80 175 111 180 146 L190 216 L478 216 C486 216 492 221 493 229 L513 374 C523 446 478 520 389 520 L282 520 C195 520 127 446 117 374 L84 141 C74 69 121 -5 208 -5 L307 -5 C307 -5 393 -5 450 56 C453 59 454 61 454 64 C455 67 452 71 451 73 L412 108 C409 110 407 111 404 111 C400 111 396 107 392 105 L392 105 Z M211 369 C216 404 255 435 288 435 L361 435 C394 435 422 404 417 369 L408 301 L202 301 L211 369 Z M329 745 C321 745 315 740 309 731 L215 583 C214 576 219 571 227 571 L290 571 C296 571 302 577 305 583 L354 660 L381 583 C384 577 388 571 394 571 L457 571 C465 571 470 576 471 583 L419 731 C417 740 411 745 403 745 L329 745 Z " />
<glyph glyph-name="edieresis" unicode="&#xeb;" horiz-adv-x="521" d="M392 105 C376 93 352 80 319 80 L238 80 C205 80 175 111 180 146 L190 216 L478 216 C486 216 492 221 493 229 L513 374 C523 446 478 520 389 520 L282 520 C195 520 127 446 117 374 L84 141 C74 69 121 -5 208 -5 L307 -5 C307 -5 393 -5 450 56 C453 59 454 61 454 64 C455 67 452 71 451 73 L412 108 C409 110 407 111 404 111 C400 111 396 107 392 105 L392 105 Z M211 369 C216 404 255 435 288 435 L361 435 C394 435 422 404 417 369 L408 301 L202 301 L211 369 Z M215 586 C214 577 219 571 228 571 L299 571 C308 571 315 577 316 586 L327 663 C328 672 323 678 314 678 L243 678 C234 678 227 672 226 663 L215 586 Z M378 586 C377 577 382 571 391 571 L462 571 C471 571 478 577 479 586 L490 663 C491 672 486 678 477 678 L406 678 C397 678 390 672 389 663 L378 586 Z " />
<glyph glyph-name="igrave" unicode="&#xec;" horiz-adv-x="255" d="M81 13 C80 5 85 0 93 0 L162 0 C170 0 175 5 176 13 L245 502 C246 510 242 515 234 515 L165 515 C157 515 151 510 150 502 L81 13 Z M235 571 C244 571 249 576 251 585 L211 703 C208 711 204 717 196 717 L135 717 C127 717 121 712 119 703 L159 585 C162 577 166 571 174 571 L235 571 Z " />
<glyph glyph-name="iacute" unicode="&#xed;" horiz-adv-x="255" d="M245 502 C246 510 242 515 234 515 L165 515 C157 515 151 510 150 502 L81 13 C80 5 85 0 93 0 L162 0 C170 0 175 5 176 13 L245 502 Z M241 571 C249 571 255 577 260 585 L332 703 C334 712 328 717 320 717 L259 717 C251 717 245 711 240 703 L168 585 C166 576 171 571 180 571 L241 571 Z " />
<glyph glyph-name="icircumflex" unicode="&#xee;" horiz-adv-x="255" d="M81 13 C80 5 85 0 93 0 L162 0 C170 0 175 5 176 13 L245 502 C246 510 242 515 234 515 L165 515 C157 515 151 510 150 502 L81 13 Z M194 742 C186 742 179 737 174 728 L80 580 C79 573 83 568 91 568 L154 568 C160 568 166 574 170 580 L219 657 L246 580 C248 574 252 568 258 568 L321 568 C329 568 335 573 336 580 L284 728 C281 737 276 742 268 742 L194 742 Z " />
<glyph glyph-name="idieresis" unicode="&#xef;" horiz-adv-x="255" d="M81 13 C80 5 85 0 93 0 L162 0 C170 0 175 5 176 13 L245 502 C246 510 242 515 234 515 L165 515 C157 515 151 510 150 502 L81 13 Z M77 586 C76 577 81 571 90 571 L161 571 C170 571 177 577 178 586 L189 663 C190 672 185 678 176 678 L105 678 C96 678 89 672 88 663 L77 586 Z M240 586 C239 577 244 571 253 571 L324 571 C333 571 340 577 341 586 L352 663 C353 672 348 678 339 678 L268 678 C259 678 252 672 251 663 L240 586 Z " />
<glyph glyph-name="eth" unicode="&#xf0;" horiz-adv-x="602" d="M256 558 L132 407 C128 400 125 394 124 385 L91 155 C79 67 144 -5 237 -5 L374 -5 C465 -5 551 67 563 155 L578 262 C591 349 525 421 434 421 L304 421 C293 421 271 421 237 403 L228 403 L356 558 L489 558 C496 558 500 562 501 569 L509 621 C510 628 506 632 499 632 L418 632 L463 687 C464 695 462 700 454 700 L385 700 C378 700 369 694 364 687 L317 632 L201 632 C194 632 190 628 189 621 L181 569 C180 562 184 558 191 558 L256 558 Z M257 80 C215 80 181 118 188 164 L200 251 C207 299 251 336 293 336 L412 336 C455 336 489 299 482 251 L470 164 C463 118 419 80 376 80 L257 80 Z " />
<glyph glyph-name="ntilde" unicode="&#xf1;" horiz-adv-x="556" d="M437 571 C456 571 480 579 502 591 C507 594 511 599 512 605 L504 657 C503 663 498 665 493 665 C491 665 489 665 486 664 C472 660 456 656 449 656 C394 656 357 698 305 698 C286 698 261 690 240 678 C234 675 231 670 230 664 L238 612 C239 606 243 604 248 604 C250 604 252 604 256 605 C269 609 286 613 293 613 C348 613 384 571 437 571 L437 571 Z M538 371 C539 378 539 385 539 392 C539 465 484 520 406 520 L375 520 C355 520 286 519 247 459 L239 459 L245 502 C245 505 245 507 244 509 C242 513 239 515 234 515 L165 515 C160 515 157 514 154 511 C152 509 150 505 150 502 L81 13 C81 9 81 8 83 4 C85 1 89 0 93 0 L162 0 C166 0 170 2 172 4 C174 6 175 8 176 13 L225 359 C272 434 340 435 368 435 L376 435 C410 435 441 410 441 366 C441 362 441 358 440 353 L392 13 C392 9 392 8 394 4 C396 1 400 0 404 0 L473 0 C477 0 481 2 483 4 C485 6 486 8 487 13 L538 371 Z " />
<glyph glyph-name="ograve" unicode="&#xf2;" horiz-adv-x="526" d="M282 520 C195 520 127 446 117 374 L84 141 C74 69 121 -5 208 -5 L315 -5 C403 -5 470 69 480 141 L513 374 C523 446 477 520 390 520 L282 520 Z M238 80 C205 80 175 111 180 146 L211 369 C216 404 255 435 288 435 L360 435 C393 435 422 404 417 369 L386 146 C381 111 343 80 310 80 L238 80 Z M369 571 C378 571 383 576 385 585 L345 703 C342 711 338 717 330 717 L269 717 C261 717 255 712 253 703 L293 585 C296 577 300 571 308 571 L369 571 Z " />
<glyph glyph-name="oacute" unicode="&#xf3;" horiz-adv-x="526" d="M282 520 C195 520 127 446 117 374 L84 141 C74 69 121 -5 208 -5 L315 -5 C403 -5 470 69 480 141 L513 374 C523 446 477 520 390 520 L282 520 Z M238 80 C205 80 175 111 180 146 L211 369 C216 404 255 435 288 435 L360 435 C393 435 422 404 417 369 L386 146 C381 111 343 80 310 80 L238 80 Z M377 571 C385 571 391 577 396 585 L468 703 C470 712 464 717 456 717 L395 717 C387 717 381 711 376 703 L304 585 C302 576 307 571 316 571 L377 571 Z " />
<glyph glyph-name="ocircumflex" unicode="&#xf4;" horiz-adv-x="526" d="M282 520 C195 520 127 446 117 374 L84 141 C74 69 121 -5 208 -5 L315 -5 C403 -5 470 69 480 141 L513 374 C523 446 477 520 390 520 L282 520 Z M238 80 C205 80 175 111 180 146 L211 369 C216 404 255 435 288 435 L360 435 C393 435 422 404 417 369 L386 146 C381 111 343 80 310 80 L238 80 Z M330 745 C322 745 316 740 310 731 L216 583 C215 576 220 571 228 571 L291 571 C297 571 303 577 306 583 L355 660 L382 583 C385 577 389 571 395 571 L458 571 C466 571 471 576 472 583 L420 731 C418 740 412 745 404 745 L330 745 Z " />
<glyph glyph-name="otilde" unicode="&#xf5;" horiz-adv-x="526" d="M282 520 C195 520 127 446 117 374 L84 141 C74 69 121 -5 208 -5 L315 -5 C403 -5 470 69 480 141 L513 374 C523 446 477 520 390 520 L282 520 Z M238 80 C205 80 175 111 180 146 L211 369 C216 404 255 435 288 435 L360 435 C393 435 422 404 417 369 L386 146 C381 111 343 80 310 80 L238 80 Z M415 571 C434 571 458 579 480 591 C485 594 489 599 490 605 L482 657 C481 663 476 665 471 665 C469 665 467 665 464 664 C450 660 434 656 427 656 C372 656 335 698 283 698 C264 698 239 690 218 678 C212 675 209 670 208 664 L216 612 C217 606 221 604 226 604 C228 604 230 604 234 605 C247 609 264 613 271 613 C326 613 362 571 415 571 L415 571 Z " />
<glyph glyph-name="odieresis" unicode="&#xf6;" horiz-adv-x="526" d="M282 520 C195 520 127 446 117 374 L84 141 C74 69 121 -5 208 -5 L315 -5 C403 -5 470 69 480 141 L513 374 C523 446 477 520 390 520 L282 520 Z M238 80 C205 80 175 111 180 146 L211 369 C216 404 255 435 288 435 L360 435 C393 435 422 404 417 369 L386 146 C381 111 343 80 310 80 L238 80 Z M213 586 C212 577 217 571 226 571 L297 571 C306 571 313 577 314 586 L325 663 C326 672 321 678 312 678 L241 678 C232 678 225 672 224 663 L213 586 Z M376 586 C375 577 380 571 389 571 L460 571 C469 571 476 577 477 586 L488 663 C489 672 484 678 475 678 L404 678 C395 678 388 672 387 663 L376 586 Z " />
<glyph glyph-name="divide" unicode="&#xf7;" horiz-adv-x="433" d="M124 226 C116 226 111 221 109 213 L102 163 C101 155 106 150 114 150 L361 150 C369 150 374 155 375 163 L382 213 C384 221 379 226 371 226 L124 226 Z M211 301 C210 294 213 289 221 289 L292 289 C299 289 305 294 306 301 L315 369 C316 376 312 381 305 381 L234 381 C226 381 221 376 220 369 L211 301 Z M169 7 C169 0 172 -5 180 -5 L251 -5 C258 -5 264 0 264 7 L274 75 C275 82 271 87 264 87 L193 87 C185 87 180 82 179 75 L169 7 Z " />
<glyph glyph-name="oslash" unicode="&#xf8;" horiz-adv-x="526" d="M84 -78 C82 -86 87 -91 95 -91 L168 -91 C176 -91 179 -86 184 -78 L217 -5 L315 -5 C403 -5 470 69 480 141 L513 374 C520 425 498 478 453 504 L495 593 C496 601 492 606 484 606 L411 606 C403 606 399 601 395 593 L361 520 L282 520 C195 520 127 446 117 374 L84 141 C78 95 94 49 129 21 L84 -78 Z M417 369 L386 146 C381 111 343 80 310 80 L257 80 L409 407 C415 396 419 383 417 369 L417 369 Z M180 146 L211 369 C216 404 255 435 288 435 L322 435 L180 130 C178 135 179 140 180 146 L180 146 Z " />
<glyph glyph-name="ugrave" unicode="&#xf9;" horiz-adv-x="536" d="M391 146 C386 111 348 80 315 80 L243 80 C210 80 180 111 185 146 L235 502 C236 510 232 515 224 515 L155 515 C147 515 141 510 140 502 L89 141 C79 69 126 -5 213 -5 L320 -5 C408 -5 475 69 485 141 L536 502 C537 510 533 515 525 515 L456 515 C448 515 442 510 441 502 L391 146 Z M374 571 C383 571 388 576 390 585 L350 703 C347 711 343 717 335 717 L274 717 C266 717 260 712 258 703 L298 585 C301 577 305 571 313 571 L374 571 Z " />
<glyph glyph-name="uacute" unicode="&#xfa;" horiz-adv-x="536" d="M391 146 C386 111 348 80 315 80 L243 80 C210 80 180 111 185 146 L235 502 C236 510 232 515 224 515 L155 515 C147 515 141 510 140 502 L89 141 C79 69 126 -5 213 -5 L320 -5 C408 -5 475 69 485 141 L536 502 C537 510 533 515 525 515 L456 515 C448 515 442 510 441 502 L391 146 Z M382 571 C390 571 396 577 401 585 L473 703 C475 712 469 717 461 717 L400 717 C392 717 386 711 381 703 L309 585 C307 576 312 571 321 571 L382 571 Z " />
<glyph glyph-name="ucircumflex" unicode="&#xfb;" horiz-adv-x="536" d="M391 146 C386 111 348 80 315 80 L243 80 C210 80 180 111 185 146 L235 502 C236 510 232 515 224 515 L155 515 C147 515 141 510 140 502 L89 141 C79 69 126 -5 213 -5 L320 -5 C408 -5 475 69 485 141 L536 502 C537 510 533 515 525 515 L456 515 C448 515 442 510 441 502 L391 146 Z M335 745 C327 745 321 740 315 731 L221 583 C220 576 225 571 233 571 L296 571 C302 571 308 577 311 583 L360 660 L387 583 C390 577 394 571 400 571 L463 571 C471 571 476 576 477 583 L425 731 C423 740 417 745 409 745 L335 745 Z " />
<glyph glyph-name="udieresis" unicode="&#xfc;" horiz-adv-x="536" d="M391 146 C386 111 348 80 315 80 L243 80 C210 80 180 111 185 146 L235 502 C236 510 232 515 224 515 L155 515 C147 515 141 510 140 502 L89 141 C79 69 126 -5 213 -5 L320 -5 C408 -5 475 69 485 141 L536 502 C537 510 533 515 525 515 L456 515 C448 515 442 510 441 502 L391 146 Z M218 586 C217 577 222 571 231 571 L302 571 C311 571 318 577 319 586 L330 663 C331 672 326 678 317 678 L246 678 C237 678 230 672 229 663 L218 586 Z M381 586 C380 577 385 571 394 571 L465 571 C474 571 481 577 482 586 L493 663 C494 672 489 678 480 678 L409 678 C400 678 393 672 392 663 L381 586 Z " />
<glyph glyph-name="yacute" unicode="&#xfd;" horiz-adv-x="498" d="M58 -118 C50 -118 44 -123 43 -131 L35 -190 C34 -198 38 -203 46 -203 L108 -203 C151 -203 243 -180 317 -11 L543 502 C544 510 540 515 532 515 L459 515 C451 515 447 510 443 502 L266 86 L256 86 L195 502 C193 510 191 515 183 515 L110 515 C102 515 96 510 95 502 L184 -48 C175 -82 145 -118 92 -118 L58 -118 Z M376 571 C384 571 390 577 395 585 L467 703 C469 712 463 717 455 717 L394 717 C386 717 380 711 375 703 L303 585 C301 576 306 571 315 571 L376 571 Z " />
<glyph glyph-name="thorn" unicode="&#xfe;" horiz-adv-x="550" d="M226 369 C231 404 270 435 303 435 L389 435 C423 435 451 404 446 369 L415 146 C410 111 373 80 339 80 L253 80 C220 80 190 111 195 146 L226 369 Z M271 687 C272 695 268 700 260 700 L191 700 C183 700 177 695 176 687 L57 -161 C56 -169 60 -174 68 -174 L137 -174 C145 -174 151 -169 152 -161 L179 32 L187 32 C205 1 244 -5 264 -5 L339 -5 C426 -5 498 58 510 143 L542 372 C554 457 500 520 413 520 L338 520 C318 520 277 514 250 483 L242 483 L271 687 Z " />
<glyph glyph-name="ydieresis" unicode="&#xff;" horiz-adv-x="498" d="M58 -118 C50 -118 44 -123 43 -131 L35 -190 C34 -198 38 -203 46 -203 L108 -203 C151 -203 243 -180 317 -11 L543 502 C544 510 540 515 532 515 L459 515 C451 515 447 510 443 502 L266 86 L256 86 L195 502 C193 510 191 515 183 515 L110 515 C102 515 96 510 95 502 L184 -48 C175 -82 145 -118 92 -118 L58 -118 Z M199 586 C198 577 203 571 212 571 L283 571 C292 571 299 577 300 586 L311 663 C312 672 307 678 298 678 L227 678 C218 678 211 672 210 663 L199 586 Z M362 586 C361 577 366 571 375 571 L446 571 C455 571 462 577 463 586 L474 663 C475 672 470 678 461 678 L390 678 C381 678 374 672 373 663 L362 586 Z " />
<glyph glyph-name="Amacron" unicode="&#x100;" horiz-adv-x="620" d="M362 700 C354 700 350 695 347 687 L36 13 C35 5 40 0 48 0 L121 0 C129 0 132 5 136 13 L186 125 L467 125 L486 13 C488 5 491 0 499 0 L572 0 C580 0 585 5 586 13 L465 687 C464 695 462 700 454 700 L362 700 Z M384 567 L394 567 L453 210 L224 210 L384 567 Z M311 836 C303 836 297 831 296 823 L288 764 C287 756 291 751 299 751 L531 751 C539 751 545 756 546 764 L554 823 C555 831 551 836 543 836 L311 836 Z " />
<glyph glyph-name="amacron" unicode="&#x101;" horiz-adv-x="522" d="M226 80 C191 80 170 111 175 146 L177 161 C182 196 211 225 246 225 L393 225 L382 146 C377 111 346 80 312 80 L226 80 Z M176 500 C169 497 166 494 165 488 C165 486 164 482 171 429 C172 420 178 420 185 420 C239 429 277 435 310 435 C416 435 413 368 409 335 L405 310 L254 310 C168 310 96 260 85 178 L77 124 C65 42 124 -5 210 -5 L260 -5 C300 -5 335 7 358 32 L366 32 L363 13 C362 5 367 0 375 0 L444 0 C452 0 457 5 458 13 L504 336 C510 382 515 520 332 520 C255 520 203 510 176 500 L176 500 Z M260 656 C252 656 246 651 245 643 L237 584 C235 576 240 571 248 571 L480 571 C488 571 493 576 495 584 L503 643 C504 651 500 656 492 656 L260 656 Z " />
<glyph glyph-name="Abreve" unicode="&#x102;" horiz-adv-x="620" d="M362 700 C354 700 350 695 347 687 L36 13 C35 5 40 0 48 0 L121 0 C129 0 132 5 136 13 L186 125 L467 125 L486 13 C488 5 491 0 499 0 L572 0 C580 0 585 5 586 13 L465 687 C464 695 462 700 454 700 L362 700 Z M384 567 L394 567 L453 210 L224 210 L384 567 Z M415 751 C503 751 571 798 599 886 C600 895 595 901 586 901 L531 901 C523 901 516 895 512 886 C493 843 457 832 426 832 C396 832 364 843 357 886 C355 895 350 901 342 901 L287 901 C278 901 271 895 270 886 C274 798 328 751 415 751 L415 751 Z " />
<glyph glyph-name="abreve" unicode="&#x103;" horiz-adv-x="522" d="M226 80 C191 80 170 111 175 146 L177 161 C182 196 211 225 246 225 L393 225 L382 146 C377 111 346 80 312 80 L226 80 Z M176 500 C169 497 166 494 165 488 C165 486 164 482 171 429 C172 420 178 420 185 420 C239 429 277 435 310 435 C416 435 413 368 409 335 L405 310 L254 310 C168 310 96 260 85 178 L77 124 C65 42 124 -5 210 -5 L260 -5 C300 -5 335 7 358 32 L366 32 L363 13 C362 5 367 0 375 0 L444 0 C452 0 457 5 458 13 L504 336 C510 382 515 520 332 520 C255 520 203 510 176 500 L176 500 Z M355 571 C443 571 510 618 539 706 C540 715 535 721 526 721 L471 721 C463 721 456 715 452 706 C433 663 397 652 366 652 C336 652 304 663 297 706 C295 715 290 721 282 721 L227 721 C218 721 211 715 210 706 C213 618 268 571 355 571 L355 571 Z " />
<glyph glyph-name="Aogonek" unicode="&#x104;" horiz-adv-x="620" d="M362 700 C354 700 350 695 347 687 L36 13 C35 5 40 0 48 0 L121 0 C129 0 132 5 136 13 L186 125 L467 125 L481 44 C407 28 400 -13 395 -44 C390 -82 412 -118 461 -118 L538 -118 C543 -118 547 -114 548 -109 L553 -78 C553 -73 550 -69 545 -69 L485 -69 C485 -69 447 -69 452 -34 C454 -17 466 0 499 0 L572 0 C580 0 585 5 586 13 L465 687 C464 695 462 700 454 700 L362 700 Z M384 567 L394 567 L453 210 L224 210 L384 567 Z " />
<glyph glyph-name="aogonek" unicode="&#x105;" horiz-adv-x="522" d="M226 80 C191 80 170 111 175 146 L177 161 C182 196 211 225 246 225 L393 225 L382 146 C377 111 346 80 312 80 L226 80 Z M359 -20 C316 -26 297 -56 293 -85 C284 -144 307 -155 354 -155 L416 -155 C421 -155 425 -151 426 -146 L430 -115 C431 -110 428 -106 423 -106 L378 -106 C378 -106 350 -106 353 -85 C356 -62 384 -62 384 -62 L435 -62 C443 -62 448 -57 450 -49 L504 336 C510 382 515 520 332 520 C255 520 203 510 176 500 C169 497 166 494 165 488 C165 486 164 482 171 429 C172 420 178 420 185 420 C239 429 277 435 310 435 C416 435 413 368 409 335 L405 310 L254 310 C168 310 96 260 85 178 L77 124 C65 42 124 -5 210 -5 L260 -5 C300 -5 335 7 358 32 L366 32 L359 -20 Z " />
<glyph glyph-name="Cacute" unicode="&#x106;" horiz-adv-x="596" d="M469 165 C462 117 417 80 375 80 L258 80 C216 80 181 117 188 165 L240 535 C246 581 292 620 334 620 L451 620 C493 620 527 581 521 535 L516 502 C515 494 519 489 527 489 L596 489 C604 489 610 494 611 502 L617 545 C629 633 565 705 472 705 L337 705 C244 705 158 633 146 545 L91 155 C79 67 144 -5 237 -5 L372 -5 C465 -5 550 67 562 155 L568 193 C569 201 564 206 556 206 L487 206 C479 206 474 201 473 193 L469 165 Z M446 751 C454 751 460 757 465 765 L538 883 C539 892 534 897 526 897 L465 897 C457 897 451 891 446 883 L373 765 C372 756 376 751 385 751 L446 751 Z " />
<glyph glyph-name="cacute" unicode="&#x107;" horiz-adv-x="506" d="M483 157 C484 165 479 170 471 170 L402 170 C394 170 389 165 388 157 L386 146 C381 111 344 80 311 80 L238 80 C205 80 175 111 180 146 L211 369 C216 404 255 435 288 435 L361 435 C394 435 422 404 417 369 L416 358 C415 350 419 345 427 345 L496 345 C504 345 510 350 511 358 L513 374 C523 446 478 520 389 520 L282 520 C195 520 127 446 117 374 L84 141 C74 69 121 -5 208 -5 L315 -5 C404 -5 470 69 480 141 L483 157 Z M377 571 C385 571 391 577 396 585 L468 703 C470 712 464 717 456 717 L395 717 C387 717 381 711 376 703 L304 585 C302 576 307 571 316 571 L377 571 Z " />
<glyph glyph-name="Ccircumflex" unicode="&#x108;" horiz-adv-x="596" d="M469 165 C462 117 417 80 375 80 L258 80 C216 80 181 117 188 165 L240 535 C246 581 292 620 334 620 L451 620 C493 620 527 581 521 535 L516 502 C515 494 519 489 527 489 L596 489 C604 489 610 494 611 502 L617 545 C629 633 565 705 472 705 L337 705 C244 705 158 633 146 545 L91 155 C79 67 144 -5 237 -5 L372 -5 C465 -5 550 67 562 155 L568 193 C569 201 564 206 556 206 L487 206 C479 206 474 201 473 193 L469 165 Z M396 925 C388 925 381 920 376 911 L282 763 C281 756 285 751 293 751 L356 751 C362 751 368 757 372 763 L421 840 L448 763 C450 757 454 751 460 751 L523 751 C531 751 537 756 538 763 L486 911 C483 920 478 925 470 925 L396 925 Z " />
<glyph glyph-name="ccircumflex" unicode="&#x109;" horiz-adv-x="506" d="M483 157 C484 165 479 170 471 170 L402 170 C394 170 389 165 388 157 L386 146 C381 111 344 80 311 80 L238 80 C205 80 175 111 180 146 L211 369 C216 404 255 435 288 435 L361 435 C394 435 422 404 417 369 L416 358 C415 350 419 345 427 345 L496 345 C504 345 510 350 511 358 L513 374 C523 446 478 520 389 520 L282 520 C195 520 127 446 117 374 L84 141 C74 69 121 -5 208 -5 L315 -5 C404 -5 470 69 480 141 L483 157 Z M328 745 C320 745 314 740 308 731 L214 583 C213 576 218 571 226 571 L289 571 C295 571 301 577 304 583 L353 660 L380 583 C383 577 387 571 393 571 L456 571 C464 571 469 576 470 583 L418 731 C416 740 410 745 402 745 L328 745 Z " />
<glyph glyph-name="Cdotaccent" unicode="&#x10a;" horiz-adv-x="596" d="M469 165 C462 117 417 80 375 80 L258 80 C216 80 181 117 188 165 L240 535 C246 581 292 620 334 620 L451 620 C493 620 527 581 521 535 L516 502 C515 494 519 489 527 489 L596 489 C604 489 610 494 611 502 L617 545 C629 633 565 705 472 705 L337 705 C244 705 158 633 146 545 L91 155 C79 67 144 -5 237 -5 L372 -5 C465 -5 550 67 562 155 L568 193 C569 201 564 206 556 206 L487 206 C479 206 474 201 473 193 L469 165 Z M363 766 C362 757 367 751 376 751 L447 751 C456 751 463 757 464 766 L475 843 C476 852 471 858 462 858 L391 858 C382 858 375 852 374 843 L363 766 Z " />
<glyph glyph-name="cdotaccent" unicode="&#x10b;" horiz-adv-x="506" d="M483 157 C484 165 479 170 471 170 L402 170 C394 170 389 165 388 157 L386 146 C381 111 344 80 311 80 L238 80 C205 80 175 111 180 146 L211 369 C216 404 255 435 288 435 L361 435 C394 435 422 404 417 369 L416 358 C415 350 419 345 427 345 L496 345 C504 345 510 350 511 358 L513 374 C523 446 478 520 389 520 L282 520 C195 520 127 446 117 374 L84 141 C74 69 121 -5 208 -5 L315 -5 C404 -5 470 69 480 141 L483 157 Z M294 586 C293 577 298 571 307 571 L378 571 C387 571 394 577 395 586 L406 663 C407 672 402 678 393 678 L322 678 C313 678 306 672 305 663 L294 586 Z " />
<glyph glyph-name="Ccaron" unicode="&#x10c;" horiz-adv-x="596" d="M469 165 C462 117 417 80 375 80 L258 80 C216 80 181 117 188 165 L240 535 C246 581 292 620 334 620 L451 620 C493 620 527 581 521 535 L516 502 C515 494 519 489 527 489 L596 489 C604 489 610 494 611 502 L617 545 C629 633 565 705 472 705 L337 705 C244 705 158 633 146 545 L91 155 C79 67 144 -5 237 -5 L372 -5 C465 -5 550 67 562 155 L568 193 C569 201 564 206 556 206 L487 206 C479 206 474 201 473 193 L469 165 Z M448 751 C456 751 463 756 468 765 L562 913 C563 920 559 925 551 925 L488 925 C482 925 476 919 472 913 L423 836 L396 913 C394 919 390 925 384 925 L321 925 C313 925 307 920 306 913 L358 765 C361 756 366 751 374 751 L448 751 Z " />
<glyph glyph-name="ccaron" unicode="&#x10d;" horiz-adv-x="506" d="M483 157 C484 165 479 170 471 170 L402 170 C394 170 389 165 388 157 L386 146 C381 111 344 80 311 80 L238 80 C205 80 175 111 180 146 L211 369 C216 404 255 435 288 435 L361 435 C394 435 422 404 417 369 L416 358 C415 350 419 345 427 345 L496 345 C504 345 510 350 511 358 L513 374 C523 446 478 520 389 520 L282 520 C195 520 127 446 117 374 L84 141 C74 69 121 -5 208 -5 L315 -5 C404 -5 470 69 480 141 L483 157 Z M381 571 C389 571 395 576 401 585 L495 733 C496 740 491 745 483 745 L420 745 C414 745 408 739 405 733 L356 656 L329 733 C326 739 322 745 316 745 L253 745 C245 745 240 740 239 733 L291 585 C293 576 299 571 307 571 L381 571 Z " />
<glyph glyph-name="Dcaron" unicode="&#x10e;" horiz-adv-x="621" d="M460 615 C503 615 536 575 530 530 L479 170 C473 122 428 85 385 85 L186 85 L261 615 L460 615 Z M384 0 C476 0 561 72 573 161 L626 539 C639 628 574 700 482 700 L191 700 C183 700 177 695 176 687 L81 13 C80 5 85 0 93 0 L384 0 Z M420 751 C428 751 435 756 440 765 L534 913 C535 920 531 925 523 925 L460 925 C454 925 448 919 444 913 L395 836 L368 913 C366 919 362 925 356 925 L293 925 C285 925 279 920 278 913 L330 765 C333 756 338 751 346 751 L420 751 Z " />
<glyph glyph-name="dcaron" unicode="&#x10f;" horiz-adv-x="760" d="M395 146 C390 111 352 80 319 80 L233 80 C199 80 170 111 175 146 L206 369 C211 404 249 435 283 435 L369 435 C402 435 431 404 426 369 L395 146 Z M442 483 L434 483 C417 514 378 520 358 520 L283 520 C196 520 124 457 112 372 L80 143 C68 58 122 -5 209 -5 L284 -5 C304 -5 345 1 371 32 L379 32 L376 13 C375 5 380 0 388 0 L457 0 C465 0 470 5 471 13 L566 687 C567 695 563 700 555 700 L486 700 C478 700 472 695 471 687 L442 483 Z M742 550 C751 550 757 556 762 564 L836 686 C837 695 832 700 824 700 L763 700 C754 700 748 694 743 686 L669 564 C668 555 672 550 681 550 L742 550 Z " />
<glyph glyph-name="Dcroat" unicode="&#x110;" horiz-adv-x="637" d="M88 393 C80 393 74 388 73 380 L65 321 C63 313 68 308 76 308 L139 308 L97 13 C96 5 101 0 109 0 L400 0 C492 0 577 72 589 161 L642 539 C655 628 590 700 498 700 L207 700 C199 700 193 695 192 687 L151 393 L88 393 Z M476 615 C519 615 552 575 546 530 L495 170 C489 122 444 85 401 85 L202 85 L234 308 L308 308 C316 308 321 313 323 321 L331 380 C332 388 328 393 320 393 L246 393 L277 615 L476 615 Z " />
<glyph glyph-name="dcroat" unicode="&#x111;" horiz-adv-x="550" d="M375 644 C367 644 361 639 360 631 L352 572 C351 564 355 559 363 559 L453 559 L442 483 L434 483 C417 514 378 520 358 520 L283 520 C196 520 124 457 112 372 L80 143 C68 58 122 -5 209 -5 L284 -5 C304 -5 345 1 371 32 L379 32 L376 13 C375 5 380 0 388 0 L457 0 C465 0 470 5 471 13 L548 559 L595 559 C603 559 609 564 610 572 L618 631 C619 639 615 644 607 644 L560 644 L566 687 C567 695 563 700 555 700 L486 700 C478 700 472 695 471 687 L465 644 L375 644 Z M395 146 C390 111 352 80 319 80 L233 80 C199 80 170 111 175 146 L206 369 C211 404 249 435 283 435 L369 435 C402 435 431 404 426 369 L395 146 Z " />
<glyph glyph-name="Emacron" unicode="&#x112;" horiz-adv-x="545" d="M81 13 C80 5 85 0 93 0 L462 0 C470 0 475 5 476 13 L485 72 C486 80 481 85 473 85 L186 85 L216 293 L479 293 C487 293 492 298 494 306 L502 365 C503 373 499 378 491 378 L228 378 L261 615 L548 615 C556 615 562 620 563 628 L571 687 C572 695 568 700 560 700 L191 700 C183 700 177 695 176 687 L81 13 Z M279 836 C271 836 265 831 264 823 L256 764 C255 756 259 751 267 751 L499 751 C507 751 513 756 514 764 L522 823 C523 831 519 836 511 836 L279 836 Z " />
<glyph glyph-name="emacron" unicode="&#x113;" horiz-adv-x="521" d="M392 105 C376 93 352 80 319 80 L238 80 C205 80 175 111 180 146 L190 216 L478 216 C486 216 492 221 493 229 L513 374 C523 446 478 520 389 520 L282 520 C195 520 127 446 117 374 L84 141 C74 69 121 -5 208 -5 L307 -5 C307 -5 393 -5 450 56 C453 59 454 61 454 64 C455 67 452 71 451 73 L412 108 C409 110 407 111 404 111 C400 111 396 107 392 105 L392 105 Z M211 369 C216 404 255 435 288 435 L361 435 C394 435 422 404 417 369 L408 301 L202 301 L211 369 Z M238 656 C230 656 224 651 223 643 L215 584 C213 576 218 571 226 571 L458 571 C466 571 471 576 473 584 L481 643 C482 651 478 656 470 656 L238 656 Z " />
<glyph glyph-name="Edotaccent" unicode="&#x116;" horiz-adv-x="545" d="M81 13 C80 5 85 0 93 0 L462 0 C470 0 475 5 476 13 L485 72 C486 80 481 85 473 85 L186 85 L216 293 L479 293 C487 293 492 298 494 306 L502 365 C503 373 499 378 491 378 L228 378 L261 615 L548 615 C556 615 562 620 563 628 L571 687 C572 695 568 700 560 700 L191 700 C183 700 177 695 176 687 L81 13 Z M334 766 C333 757 338 751 347 751 L418 751 C427 751 434 757 435 766 L446 843 C447 852 442 858 433 858 L362 858 C353 858 346 852 345 843 L334 766 Z " />
<glyph glyph-name="edotaccent" unicode="&#x117;" horiz-adv-x="521" d="M392 105 C376 93 352 80 319 80 L238 80 C205 80 175 111 180 146 L190 216 L478 216 C486 216 492 221 493 229 L513 374 C523 446 478 520 389 520 L282 520 C195 520 127 446 117 374 L84 141 C74 69 121 -5 208 -5 L307 -5 C307 -5 393 -5 450 56 C453 59 454 61 454 64 C455 67 452 71 451 73 L412 108 C409 110 407 111 404 111 C400 111 396 107 392 105 L392 105 Z M211 369 C216 404 255 435 288 435 L361 435 C394 435 422 404 417 369 L408 301 L202 301 L211 369 Z M295 586 C294 577 299 571 308 571 L379 571 C388 571 395 577 396 586 L407 663 C408 672 403 678 394 678 L323 678 C314 678 307 672 306 663 L295 586 Z " />
<glyph glyph-name="Eogonek" unicode="&#x118;" horiz-adv-x="545" d="M81 13 C80 5 85 0 93 0 L310 0 C296 -15 293 -35 291 -49 C285 -87 308 -118 357 -118 L434 -118 C439 -118 443 -114 444 -109 L449 -78 C449 -73 446 -69 441 -69 L381 -69 C381 -69 343 -69 348 -34 C350 -18 361 -6 371 0 L462 0 C470 0 475 5 476 13 L485 72 C486 80 481 85 473 85 L186 85 L216 293 L479 293 C487 293 492 298 494 306 L502 365 C503 373 499 378 491 378 L228 378 L261 615 L548 615 C556 615 562 620 563 628 L571 687 C572 695 568 700 560 700 L191 700 C183 700 177 695 176 687 L81 13 Z " />
<glyph glyph-name="eogonek" unicode="&#x119;" horiz-adv-x="521" d="M392 105 C376 93 352 80 319 80 L238 80 C205 80 175 111 180 146 L190 216 L478 216 C486 216 492 221 493 229 L513 374 C523 446 478 520 389 520 L282 520 C195 520 127 446 117 374 L84 141 C75 73 116 3 194 -4 C184 -19 180 -36 179 -49 C173 -87 196 -118 245 -118 L322 -118 C327 -118 331 -114 332 -109 L337 -78 C337 -73 334 -69 329 -69 L269 -69 C269 -69 231 -69 236 -34 C238 -21 244 -11 252 -5 L307 -5 C307 -5 393 -5 450 56 C453 59 454 61 454 64 C455 67 452 71 451 73 L412 108 C409 110 407 111 404 111 C400 111 396 107 392 105 L392 105 Z M211 369 C216 404 255 435 288 435 L361 435 C394 435 422 404 417 369 L408 301 L202 301 L211 369 Z " />
<glyph glyph-name="Ecaron" unicode="&#x11a;" horiz-adv-x="545" d="M81 13 C80 5 85 0 93 0 L462 0 C470 0 475 5 476 13 L485 72 C486 80 481 85 473 85 L186 85 L216 293 L479 293 C487 293 492 298 494 306 L502 365 C503 373 499 378 491 378 L228 378 L261 615 L548 615 C556 615 562 620 563 628 L571 687 C572 695 568 700 560 700 L191 700 C183 700 177 695 176 687 L81 13 Z M425 751 C433 751 440 756 445 765 L539 913 C540 920 536 925 528 925 L465 925 C459 925 453 919 449 913 L400 836 L373 913 C371 919 367 925 361 925 L298 925 C290 925 284 920 283 913 L335 765 C338 756 343 751 351 751 L425 751 Z " />
<glyph glyph-name="ecaron" unicode="&#x11b;" horiz-adv-x="521" d="M392 105 C376 93 352 80 319 80 L238 80 C205 80 175 111 180 146 L190 216 L478 216 C486 216 492 221 493 229 L513 374 C523 446 478 520 389 520 L282 520 C195 520 127 446 117 374 L84 141 C74 69 121 -5 208 -5 L307 -5 C307 -5 393 -5 450 56 C453 59 454 61 454 64 C455 67 452 71 451 73 L412 108 C409 110 407 111 404 111 C400 111 396 107 392 105 L392 105 Z M211 369 C216 404 255 435 288 435 L361 435 C394 435 422 404 417 369 L408 301 L202 301 L211 369 Z M380 571 C388 571 394 576 400 585 L494 733 C495 740 490 745 482 745 L419 745 C413 745 407 739 404 733 L355 656 L328 733 C325 739 321 745 315 745 L252 745 C244 745 239 740 238 733 L290 585 C292 576 298 571 306 571 L380 571 Z " />
<glyph glyph-name="Gcircumflex" unicode="&#x11c;" horiz-adv-x="611" d="M488 299 L469 165 C462 117 417 80 375 80 L258 80 C216 80 181 117 188 165 L240 535 C246 581 292 620 334 620 L451 620 C493 620 527 581 521 535 L516 502 C515 494 519 489 527 489 L596 489 C604 489 610 494 611 502 L617 545 C629 633 565 705 472 705 L337 705 C244 705 158 633 146 545 L91 155 C79 67 144 -5 237 -5 L372 -5 C465 -5 550 67 562 155 L593 371 C594 379 589 384 581 384 L374 384 C366 384 361 379 360 371 L351 312 C350 304 355 299 363 299 L488 299 Z M396 925 C388 925 381 920 376 911 L282 763 C281 756 285 751 293 751 L356 751 C362 751 368 757 372 763 L421 840 L448 763 C450 757 454 751 460 751 L523 751 C531 751 537 756 538 763 L486 911 C483 920 478 925 470 925 L396 925 Z " />
<glyph glyph-name="gcircumflex" unicode="&#x11d;" horiz-adv-x="550" d="M395 146 C390 111 352 80 319 80 L233 80 C199 80 170 111 175 146 L206 369 C211 404 249 435 283 435 L369 435 C402 435 431 404 426 369 L395 146 Z M88 -185 C115 -194 159 -203 229 -203 C412 -203 459 -76 465 -32 L540 502 C541 510 537 515 529 515 L460 515 C452 515 446 510 445 502 L442 483 L434 483 C417 514 378 520 358 520 L283 520 C196 520 124 457 112 372 L80 143 C68 58 122 -5 209 -5 L284 -5 C304 -5 345 1 371 32 L379 32 L370 -30 C365 -67 330 -118 245 -118 C188 -118 143 -113 115 -108 C109 -108 104 -108 101 -116 L81 -174 C80 -180 83 -183 88 -185 L88 -185 Z M333 745 C325 745 319 740 313 731 L219 583 C218 576 223 571 231 571 L294 571 C300 571 306 577 309 583 L358 660 L385 583 C388 577 392 571 398 571 L461 571 C469 571 474 576 475 583 L423 731 C421 740 415 745 407 745 L333 745 Z " />
<glyph glyph-name="Gbreve" unicode="&#x11e;" horiz-adv-x="611" d="M488 299 L469 165 C462 117 417 80 375 80 L258 80 C216 80 181 117 188 165 L240 535 C246 581 292 620 334 620 L451 620 C493 620 527 581 521 535 L516 502 C515 494 519 489 527 489 L596 489 C604 489 610 494 611 502 L617 545 C629 633 565 705 472 705 L337 705 C244 705 158 633 146 545 L91 155 C79 67 144 -5 237 -5 L372 -5 C465 -5 550 67 562 155 L593 371 C594 379 589 384 581 384 L374 384 C366 384 361 379 360 371 L351 312 C350 304 355 299 363 299 L488 299 Z M408 751 C496 751 564 798 592 886 C593 895 588 901 579 901 L524 901 C516 901 509 895 505 886 C486 843 450 832 419 832 C389 832 357 843 350 886 C348 895 343 901 335 901 L280 901 C271 901 264 895 263 886 C267 798 321 751 408 751 L408 751 Z " />
<glyph glyph-name="gbreve" unicode="&#x11f;" horiz-adv-x="550" d="M395 146 C390 111 352 80 319 80 L233 80 C199 80 170 111 175 146 L206 369 C211 404 249 435 283 435 L369 435 C402 435 431 404 426 369 L395 146 Z M88 -185 C115 -194 159 -203 229 -203 C412 -203 459 -76 465 -32 L540 502 C541 510 537 515 529 515 L460 515 C452 515 446 510 445 502 L442 483 L434 483 C417 514 378 520 358 520 L283 520 C196 520 124 457 112 372 L80 143 C68 58 122 -5 209 -5 L284 -5 C304 -5 345 1 371 32 L379 32 L370 -30 C365 -67 330 -118 245 -118 C188 -118 143 -113 115 -108 C109 -108 104 -108 101 -116 L81 -174 C80 -180 83 -183 88 -185 L88 -185 Z M353 571 C441 571 508 618 537 706 C538 715 533 721 524 721 L469 721 C461 721 454 715 450 706 C431 663 395 652 364 652 C334 652 302 663 295 706 C293 715 288 721 280 721 L225 721 C216 721 209 715 208 706 C211 618 266 571 353 571 L353 571 Z " />
<glyph glyph-name="Gdotaccent" unicode="&#x120;" horiz-adv-x="611" d="M488 299 L469 165 C462 117 417 80 375 80 L258 80 C216 80 181 117 188 165 L240 535 C246 581 292 620 334 620 L451 620 C493 620 527 581 521 535 L516 502 C515 494 519 489 527 489 L596 489 C604 489 610 494 611 502 L617 545 C629 633 565 705 472 705 L337 705 C244 705 158 633 146 545 L91 155 C79 67 144 -5 237 -5 L372 -5 C465 -5 550 67 562 155 L593 371 C594 379 589 384 581 384 L374 384 C366 384 361 379 360 371 L351 312 C350 304 355 299 363 299 L488 299 Z M364 766 C363 757 368 751 377 751 L448 751 C457 751 464 757 465 766 L476 843 C477 852 472 858 463 858 L392 858 C383 858 376 852 375 843 L364 766 Z " />
<glyph glyph-name="gdotaccent" unicode="&#x121;" horiz-adv-x="550" d="M395 146 C390 111 352 80 319 80 L233 80 C199 80 170 111 175 146 L206 369 C211 404 249 435 283 435 L369 435 C402 435 431 404 426 369 L395 146 Z M88 -185 C115 -194 159 -203 229 -203 C412 -203 459 -76 465 -32 L540 502 C541 510 537 515 529 515 L460 515 C452 515 446 510 445 502 L442 483 L434 483 C417 514 378 520 358 520 L283 520 C196 520 124 457 112 372 L80 143 C68 58 122 -5 209 -5 L284 -5 C304 -5 345 1 371 32 L379 32 L370 -30 C365 -67 330 -118 245 -118 C188 -118 143 -113 115 -108 C109 -108 104 -108 101 -116 L81 -174 C80 -180 83 -183 88 -185 L88 -185 Z M292 586 C291 577 296 571 305 571 L376 571 C385 571 392 577 393 586 L404 663 C405 672 400 678 391 678 L320 678 C311 678 304 672 303 663 L292 586 Z " />
<glyph glyph-name="uni0122" unicode="&#x122;" horiz-adv-x="611" d="M488 299 L469 165 C462 117 417 80 375 80 L258 80 C216 80 181 117 188 165 L240 535 C246 581 292 620 334 620 L451 620 C493 620 527 581 521 535 L516 502 C515 494 519 489 527 489 L596 489 C604 489 610 494 611 502 L617 545 C629 633 565 705 472 705 L337 705 C244 705 158 633 146 545 L91 155 C79 67 144 -5 237 -5 L372 -5 C465 -5 550 67 562 155 L593 371 C594 379 589 384 581 384 L374 384 C366 384 361 379 360 371 L351 312 C350 304 355 299 363 299 L488 299 Z M262 -53 C253 -53 247 -59 242 -67 L183 -179 C182 -188 187 -193 195 -193 L256 -193 C265 -193 271 -187 276 -179 L335 -67 C336 -58 332 -53 323 -53 L262 -53 Z " />
<glyph glyph-name="uni0123" unicode="&#x123;" horiz-adv-x="550" d="M395 146 C390 111 352 80 319 80 L233 80 C199 80 170 111 175 146 L206 369 C211 404 249 435 283 435 L369 435 C402 435 431 404 426 369 L395 146 Z M88 -185 C115 -194 159 -203 229 -203 C412 -203 459 -76 465 -32 L540 502 C541 510 537 515 529 515 L460 515 C452 515 446 510 445 502 L442 483 L434 483 C417 514 378 520 358 520 L283 520 C196 520 124 457 112 372 L80 143 C68 58 122 -5 209 -5 L284 -5 C304 -5 345 1 371 32 L379 32 L370 -30 C365 -67 330 -118 245 -118 C188 -118 143 -113 115 -108 C109 -108 104 -108 101 -116 L81 -174 C80 -180 83 -183 88 -185 L88 -185 Z M378 571 C386 571 392 577 397 585 L469 703 C471 712 465 717 457 717 L396 717 C388 717 382 711 377 703 L305 585 C303 576 308 571 317 571 L378 571 Z " />
<glyph glyph-name="Hcircumflex" unicode="&#x124;" horiz-adv-x="624" d="M450 13 C449 5 454 0 462 0 L531 0 C539 0 544 5 545 13 L640 687 C641 695 637 700 629 700 L560 700 C552 700 546 695 545 687 L502 381 L228 381 L271 687 C272 695 268 700 260 700 L191 700 C183 700 177 695 176 687 L81 13 C80 5 85 0 93 0 L162 0 C170 0 175 5 176 13 L216 296 L490 296 L450 13 Z M405 925 C397 925 390 920 385 911 L291 763 C290 756 294 751 302 751 L365 751 C371 751 377 757 381 763 L430 840 L457 763 C459 757 463 751 469 751 L532 751 C540 751 546 756 547 763 L495 911 C492 920 487 925 479 925 L405 925 Z " />
<glyph glyph-name="hcircumflex" unicode="&#x125;" horiz-adv-x="556" d="M392 13 C391 5 396 0 404 0 L473 0 C481 0 486 5 487 13 L538 371 C549 454 492 520 406 520 L375 520 C355 520 286 519 247 459 L239 459 L271 687 C272 695 268 700 260 700 L191 700 C183 700 177 695 176 687 L81 13 C80 5 85 0 93 0 L162 0 C170 0 175 5 176 13 L225 359 C272 434 340 435 368 435 L376 435 C413 435 447 405 440 353 L392 13 Z M304 925 C296 925 289 920 284 911 L190 763 C189 756 193 751 201 751 L264 751 C270 751 276 757 280 763 L329 840 L356 763 C358 757 362 751 368 751 L431 751 C439 751 445 756 446 763 L394 911 C391 920 386 925 378 925 L304 925 Z " />
<glyph glyph-name="Hbar" unicode="&#x126;" horiz-adv-x="630" d="M109 544 C101 544 95 539 94 531 L86 472 C85 464 89 459 97 459 L147 459 L84 13 C83 5 88 0 96 0 L165 0 C173 0 178 5 179 13 L219 296 L493 296 L453 13 C452 5 457 0 465 0 L534 0 C542 0 547 5 548 13 L611 459 L661 459 C669 459 675 464 676 472 L684 531 C685 539 681 544 673 544 L623 544 L643 687 C644 695 640 700 632 700 L563 700 C555 700 549 695 548 687 L528 544 L254 544 L274 687 C275 695 271 700 263 700 L194 700 C186 700 180 695 179 687 L159 544 L109 544 Z M231 381 L242 459 L516 459 L505 381 L231 381 Z " />
<glyph glyph-name="hbar" unicode="&#x127;" horiz-adv-x="556" d="M158 559 L81 13 C80 5 85 0 93 0 L162 0 C170 0 175 5 176 13 L225 359 C272 434 340 435 368 435 L376 435 C413 435 447 405 440 353 L392 13 C391 5 396 0 404 0 L473 0 C481 0 486 5 487 13 L538 371 C549 454 492 520 406 520 L375 520 C355 520 286 519 247 459 L239 459 L253 559 L343 559 C351 559 357 564 358 572 L366 631 C367 639 363 644 355 644 L265 644 L271 687 C272 695 268 700 260 700 L191 700 C183 700 177 695 176 687 L170 644 L123 644 C115 644 109 639 108 631 L100 572 C99 564 103 559 111 559 L158 559 Z " />
<glyph glyph-name="Itilde" unicode="&#x128;" horiz-adv-x="255" d="M81 13 C80 5 85 0 93 0 L162 0 C170 0 175 5 176 13 L271 687 C272 695 268 700 260 700 L191 700 C183 700 177 695 176 687 L81 13 Z M307 751 C326 751 350 759 372 771 C377 774 381 779 382 785 L374 837 C373 843 368 845 363 845 C361 845 359 845 356 844 C343 840 326 836 319 836 C264 836 227 878 175 878 C156 878 132 870 110 858 C105 855 101 850 100 844 L108 792 C109 786 114 784 119 784 C121 784 123 784 126 785 C139 789 156 793 163 793 C218 793 254 751 307 751 L307 751 Z " />
<glyph glyph-name="itilde" unicode="&#x129;" horiz-adv-x="255" d="M81 13 C80 5 85 0 93 0 L162 0 C170 0 175 5 176 13 L245 502 C246 510 242 515 234 515 L165 515 C157 515 151 510 150 502 L81 13 Z M282 571 C301 571 325 579 347 591 C352 594 356 599 357 605 L349 657 C348 663 343 665 338 665 C336 665 334 665 331 664 C317 660 301 656 294 656 C239 656 202 698 150 698 C131 698 106 690 85 678 C79 675 76 670 75 664 L83 612 C84 606 88 604 93 604 C95 604 97 604 101 605 C114 609 131 613 138 613 C193 613 229 571 282 571 L282 571 Z " />
<glyph glyph-name="Imacron" unicode="&#x12a;" horiz-adv-x="255" d="M81 13 C80 5 85 0 93 0 L162 0 C170 0 175 5 176 13 L271 687 C272 695 268 700 260 700 L191 700 C183 700 177 695 176 687 L81 13 Z M128 836 C120 836 114 831 113 823 L105 764 C104 756 108 751 116 751 L348 751 C356 751 362 756 363 764 L371 823 C372 831 368 836 360 836 L128 836 Z " />
<glyph glyph-name="imacron" unicode="&#x12b;" horiz-adv-x="255" d="M81 13 C80 5 85 0 93 0 L162 0 C170 0 175 5 176 13 L245 502 C246 510 242 515 234 515 L165 515 C157 515 151 510 150 502 L81 13 Z M103 656 C95 656 89 651 88 643 L80 584 C78 576 83 571 91 571 L323 571 C331 571 336 576 338 584 L346 643 C347 651 343 656 335 656 L103 656 Z " />
<glyph glyph-name="Iogonek" unicode="&#x12e;" horiz-adv-x="255" d="M86 46 C43 46 10 25 3 -24 C-1 -62 20 -93 69 -93 L146 -93 C151 -93 156 -89 157 -84 L161 -53 C162 -48 158 -44 153 -44 L89 -44 C89 -44 61 -44 64 -22 C67 -4 83 0 93 0 L162 0 C170 0 175 5 176 13 L271 687 C272 695 268 700 260 700 L191 700 C183 700 177 695 176 687 L86 46 Z " />
<glyph glyph-name="iogonek" unicode="&#x12f;" horiz-adv-x="255" d="M160 591 C158 583 163 578 171 578 L246 578 C254 578 259 583 261 591 L272 671 C273 679 269 684 261 684 L186 684 C178 684 172 679 171 671 L160 591 Z M86 46 C43 46 10 25 3 -24 C-1 -62 20 -93 69 -93 L146 -93 C151 -93 156 -89 157 -84 L161 -53 C162 -48 158 -44 153 -44 L89 -44 C89 -44 61 -44 64 -22 C67 -4 83 0 93 0 L162 0 C170 0 175 5 176 13 L245 502 C246 510 242 515 234 515 L165 515 C157 515 151 510 150 502 L86 46 Z " />
<glyph glyph-name="Idotaccent" unicode="&#x130;" horiz-adv-x="255" d="M81 13 C80 5 85 0 93 0 L162 0 C170 0 175 5 176 13 L253 558 C254 566 250 571 242 571 L173 571 C165 571 159 566 158 558 L81 13 Z M167 647 C166 639 171 634 179 634 L254 634 C262 634 267 639 268 647 L280 727 C281 735 277 740 269 740 L194 740 C186 740 180 735 179 727 L167 647 Z " />
<glyph glyph-name="dotlessi" unicode="&#x131;" horiz-adv-x="255" d="M81 13 C80 5 85 0 93 0 L162 0 C170 0 175 5 176 13 L245 502 C246 510 242 515 234 515 L165 515 C157 515 151 510 150 502 L81 13 Z " />
<glyph glyph-name="Jcircumflex" unicode="&#x134;" horiz-adv-x="458" d="M92 109 C89 111 86 112 83 112 C79 112 77 111 73 109 L23 68 C20 65 18 62 18 58 C17 55 18 53 21 50 C44 27 94 -5 175 -5 C310 -5 408 78 421 165 L494 687 C495 695 491 700 483 700 L414 700 C406 700 400 695 399 687 L326 168 C325 157 295 80 181 80 C156 80 120 91 92 109 L92 109 Z M362 925 C354 925 347 920 342 911 L248 763 C247 756 251 751 259 751 L322 751 C328 751 334 757 338 763 L387 840 L414 763 C416 757 420 751 426 751 L489 751 C497 751 503 756 504 763 L452 911 C449 920 444 925 436 925 L362 925 Z " />
<glyph glyph-name="jcircumflex" unicode="&#x135;" horiz-adv-x="255" d="M7 -182 C47 -167 158 -116 175 7 L245 502 C246 510 242 515 234 515 L165 515 C157 515 151 510 150 502 L81 12 C81 12 70 -58 -18 -94 C-23 -96 -26 -101 -26 -106 C-27 -107 -26 -110 -25 -112 L-8 -176 C-7 -181 -2 -183 1 -183 C2 -183 5 -183 7 -182 L7 -182 Z M194 742 C186 742 179 737 174 728 L80 580 C79 573 83 568 91 568 L154 568 C160 568 166 574 170 580 L219 657 L246 580 C248 574 252 568 258 568 L321 568 C329 568 335 573 336 580 L284 728 C281 737 276 742 268 742 L194 742 Z " />
<glyph glyph-name="uni0136" unicode="&#x136;" horiz-adv-x="584" d="M443 13 C445 6 449 0 457 0 L530 0 C538 0 543 5 544 13 L425 348 L639 687 C640 695 636 700 628 700 L555 700 C547 700 542 694 538 687 L351 392 L230 392 L271 687 C272 695 268 700 260 700 L191 700 C183 700 177 695 176 687 L81 13 C80 5 85 0 93 0 L162 0 C170 0 175 5 176 13 L218 307 L339 307 L443 13 Z M266 -53 C257 -53 251 -59 246 -67 L187 -179 C186 -188 191 -193 199 -193 L260 -193 C269 -193 275 -187 280 -179 L339 -67 C340 -58 336 -53 327 -53 L266 -53 Z " />
<glyph glyph-name="uni0137" unicode="&#x137;" horiz-adv-x="524" d="M305 229 L385 13 C388 6 394 0 402 0 L481 0 C489 0 494 5 495 13 L398 272 L564 502 C565 510 561 515 553 515 L474 515 C466 515 459 509 454 502 L318 314 L219 314 L271 687 C272 695 268 700 260 700 L191 700 C183 700 177 695 176 687 L81 13 C80 5 85 0 93 0 L162 0 C170 0 175 5 176 13 L207 229 L305 229 Z M243 -53 C234 -53 228 -59 223 -67 L164 -179 C163 -188 168 -193 176 -193 L237 -193 C246 -193 252 -187 257 -179 L316 -67 C317 -58 313 -53 304 -53 L243 -53 Z " />
<glyph glyph-name="kgreenlandic" unicode="&#x138;" horiz-adv-x="524" d="M305 229 L385 13 C388 6 394 0 402 0 L481 0 C489 0 494 5 495 13 L398 272 L564 502 C565 510 561 515 553 515 L474 515 C466 515 459 509 454 502 L318 314 L219 314 L245 502 C246 510 242 515 234 515 L165 515 C157 515 151 510 150 502 L81 13 C80 5 85 0 93 0 L162 0 C170 0 175 5 176 13 L207 229 L305 229 Z " />
<glyph glyph-name="Lacute" unicode="&#x139;" horiz-adv-x="515" d="M462 0 C470 0 475 5 476 13 L485 72 C486 80 481 85 473 85 L186 85 L271 687 C272 695 268 700 260 700 L191 700 C183 700 177 695 176 687 L81 13 C80 5 85 0 93 0 L462 0 Z M265 751 C273 751 279 757 284 765 L357 883 C358 892 353 897 345 897 L284 897 C276 897 270 891 265 883 L192 765 C191 756 195 751 204 751 L265 751 Z " />
<glyph glyph-name="lacute" unicode="&#x13a;" horiz-adv-x="255" d="M81 13 C80 5 85 0 93 0 L162 0 C170 0 175 5 176 13 L271 687 C272 695 268 700 260 700 L191 700 C183 700 177 695 176 687 L81 13 Z M265 751 C273 751 279 757 284 765 L357 883 C358 892 353 897 345 897 L284 897 C276 897 270 891 265 883 L192 765 C191 756 195 751 204 751 L265 751 Z " />
<glyph glyph-name="uni013B" unicode="&#x13b;" horiz-adv-x="515" d="M462 0 C470 0 475 5 476 13 L485 72 C486 80 481 85 473 85 L186 85 L271 687 C272 695 268 700 260 700 L191 700 C183 700 177 695 176 687 L81 13 C80 5 85 0 93 0 L462 0 Z M250 -53 C241 -53 235 -59 230 -67 L171 -179 C170 -188 175 -193 183 -193 L244 -193 C253 -193 259 -187 264 -179 L323 -67 C324 -58 320 -53 311 -53 L250 -53 Z " />
<glyph glyph-name="uni013C" unicode="&#x13c;" horiz-adv-x="255" d="M81 13 C80 5 85 0 93 0 L162 0 C170 0 175 5 176 13 L271 687 C272 695 268 700 260 700 L191 700 C183 700 177 695 176 687 L81 13 Z M89 -53 C80 -53 74 -59 69 -67 L10 -179 C9 -188 14 -193 22 -193 L83 -193 C92 -193 98 -187 103 -179 L162 -67 C163 -58 159 -53 150 -53 L89 -53 Z " />
<glyph glyph-name="Lcaron" unicode="&#x13d;" horiz-adv-x="515" d="M462 0 C470 0 475 5 476 13 L485 72 C486 80 481 85 473 85 L186 85 L271 687 C272 695 268 700 260 700 L191 700 C183 700 177 695 176 687 L81 13 C80 5 85 0 93 0 L462 0 Z M465 538 C474 538 480 544 485 552 L565 686 C566 695 561 700 553 700 L488 700 C479 700 473 694 468 686 L388 552 C387 543 391 538 400 538 L465 538 Z " />
<glyph glyph-name="lcaron" unicode="&#x13e;" horiz-adv-x="465" d="M81 13 C80 5 85 0 93 0 L162 0 C170 0 175 5 176 13 L271 687 C272 695 268 700 260 700 L191 700 C183 700 177 695 176 687 L81 13 Z M447 550 C456 550 462 556 467 564 L541 686 C542 695 537 700 529 700 L468 700 C459 700 453 694 448 686 L374 564 C373 555 377 550 386 550 L447 550 Z " />
<glyph glyph-name="Lslash" unicode="&#x141;" horiz-adv-x="541" d="M81 359 C75 357 69 352 68 345 L60 290 C59 284 64 279 70 279 L168 305 L127 13 C126 5 131 0 139 0 L508 0 C516 0 521 5 522 13 L531 72 C532 80 527 85 519 85 L232 85 L267 331 L365 357 C371 359 377 364 378 371 L385 426 C386 432 382 437 376 437 L278 411 L317 687 C318 695 314 700 306 700 L237 700 C229 700 223 695 222 687 L180 385 L81 359 Z " />
<glyph glyph-name="lslash" unicode="&#x142;" horiz-adv-x="346" d="M81 359 C75 357 69 352 68 345 L60 290 C59 284 64 279 70 279 L168 305 L127 13 C126 5 131 0 139 0 L208 0 C216 0 221 5 222 13 L267 331 L365 357 C371 359 377 364 378 371 L385 426 C386 432 382 437 376 437 L278 411 L317 687 C318 695 314 700 306 700 L237 700 C229 700 223 695 222 687 L180 385 L81 359 Z " />
<glyph glyph-name="Nacute" unicode="&#x143;" horiz-adv-x="661" d="M444 13 C447 6 453 0 461 0 L568 0 C576 0 581 5 582 13 L677 687 C678 695 674 700 666 700 L597 700 C589 700 583 695 582 687 L508 162 L498 162 L314 687 C311 694 306 700 298 700 L191 700 C183 700 177 695 176 687 L81 13 C80 5 85 0 93 0 L162 0 C170 0 175 5 176 13 L250 538 L261 538 L444 13 Z M468 751 C476 751 482 757 487 765 L560 883 C561 892 556 897 548 897 L487 897 C479 897 473 891 468 883 L395 765 C394 756 398 751 407 751 L468 751 Z " />
<glyph glyph-name="nacute" unicode="&#x144;" horiz-adv-x="556" d="M418 571 C426 571 432 577 437 585 L509 703 C511 712 505 717 497 717 L436 717 C428 717 422 711 417 703 L345 585 C343 576 348 571 357 571 L418 571 Z M538 371 C539 378 539 385 539 392 C539 465 484 520 406 520 L375 520 C355 520 286 519 247 459 L239 459 L245 502 C245 505 245 507 244 509 C242 513 239 515 234 515 L165 515 C160 515 157 514 154 511 C152 509 150 505 150 502 L81 13 C81 9 81 8 83 4 C85 1 89 0 93 0 L162 0 C166 0 170 2 172 4 C174 6 175 8 176 13 L225 359 C272 434 340 435 368 435 L376 435 C410 435 441 410 441 366 C441 362 441 358 440 353 L392 13 C392 9 392 8 394 4 C396 1 400 0 404 0 L473 0 C477 0 481 2 483 4 C485 6 486 8 487 13 L538 371 Z " />
<glyph glyph-name="uni0145" unicode="&#x145;" horiz-adv-x="661" d="M444 13 C447 6 453 0 461 0 L568 0 C576 0 581 5 582 13 L677 687 C678 695 674 700 666 700 L597 700 C589 700 583 695 582 687 L508 162 L498 162 L314 687 C311 694 306 700 298 700 L191 700 C183 700 177 695 176 687 L81 13 C80 5 85 0 93 0 L162 0 C170 0 175 5 176 13 L250 538 L261 538 L444 13 Z M292 -53 C283 -53 277 -59 272 -67 L213 -179 C212 -188 217 -193 225 -193 L286 -193 C295 -193 301 -187 306 -179 L365 -67 C366 -58 362 -53 353 -53 L292 -53 Z " />
<glyph glyph-name="uni0146" unicode="&#x146;" horiz-adv-x="556" d="M247 -53 C238 -53 232 -59 227 -67 L168 -179 C167 -188 172 -193 180 -193 L241 -193 C250 -193 256 -187 261 -179 L320 -67 C321 -58 317 -53 308 -53 L247 -53 Z M538 371 C539 378 539 385 539 392 C539 465 484 520 406 520 L375 520 C355 520 286 519 247 459 L239 459 L245 502 C245 505 245 507 244 509 C242 513 239 515 234 515 L165 515 C160 515 157 514 154 511 C152 509 150 505 150 502 L81 13 C81 9 81 8 83 4 C85 1 89 0 93 0 L162 0 C166 0 170 2 172 4 C174 6 175 8 176 13 L225 359 C272 434 340 435 368 435 L376 435 C410 435 441 410 441 366 C441 362 441 358 440 353 L392 13 C392 9 392 8 394 4 C396 1 400 0 404 0 L473 0 C477 0 481 2 483 4 C485 6 486 8 487 13 L538 371 Z " />
<glyph glyph-name="Ncaron" unicode="&#x147;" horiz-adv-x="661" d="M444 13 C447 6 453 0 461 0 L568 0 C576 0 581 5 582 13 L677 687 C678 695 674 700 666 700 L597 700 C589 700 583 695 582 687 L508 162 L498 162 L314 687 C311 694 306 700 298 700 L191 700 C183 700 177 695 176 687 L81 13 C80 5 85 0 93 0 L162 0 C170 0 175 5 176 13 L250 538 L261 538 L444 13 Z M472 751 C480 751 487 756 492 765 L586 913 C587 920 583 925 575 925 L512 925 C506 925 500 919 496 913 L447 836 L420 913 C418 919 414 925 408 925 L345 925 C337 925 331 920 330 913 L382 765 C385 756 390 751 398 751 L472 751 Z " />
<glyph glyph-name="ncaron" unicode="&#x148;" horiz-adv-x="556" d="M401 571 C409 571 415 576 421 585 L515 733 C516 740 511 745 503 745 L440 745 C434 745 428 739 425 733 L376 656 L349 733 C346 739 342 745 336 745 L273 745 C265 745 260 740 259 733 L311 585 C313 576 319 571 327 571 L401 571 Z M538 371 C539 378 539 385 539 392 C539 465 484 520 406 520 L375 520 C355 520 286 519 247 459 L239 459 L245 502 C245 505 245 507 244 509 C242 513 239 515 234 515 L165 515 C160 515 157 514 154 511 C152 509 150 505 150 502 L81 13 C81 9 81 8 83 4 C85 1 89 0 93 0 L162 0 C166 0 170 2 172 4 C174 6 175 8 176 13 L225 359 C272 434 340 435 368 435 L376 435 C410 435 441 410 441 366 C441 362 441 358 440 353 L392 13 C392 9 392 8 394 4 C396 1 400 0 404 0 L473 0 C477 0 481 2 483 4 C485 6 486 8 487 13 L538 371 Z " />
<glyph glyph-name="Eng" unicode="&#x14a;" horiz-adv-x="661" d="M413 -182 C453 -167 564 -116 581 7 L677 687 C678 695 674 700 666 700 L597 700 C589 700 583 695 582 687 L508 162 L498 162 L314 687 C311 694 306 700 298 700 L191 700 C183 700 177 695 176 687 L81 13 C80 5 85 0 93 0 L162 0 C170 0 175 5 176 13 L250 538 L261 538 L463 -38 C448 -57 424 -79 387 -94 C382 -96 379 -101 379 -106 C378 -107 379 -110 380 -112 L397 -176 C398 -181 403 -183 407 -183 C408 -183 411 -183 413 -182 L413 -182 Z " />
<glyph glyph-name="eng" unicode="&#x14b;" horiz-adv-x="556" d="M318 -182 C358 -167 469 -116 487 13 L538 371 C549 454 492 520 406 520 L375 520 C355 520 286 519 247 459 L239 459 L245 502 C246 510 242 515 234 515 L165 515 C157 515 151 510 150 502 L81 13 C80 5 85 0 93 0 L162 0 C170 0 175 5 176 13 L225 359 C272 434 340 435 368 435 L376 435 C413 435 447 405 440 353 L392 12 C392 12 381 -58 292 -94 C287 -96 284 -101 284 -106 C283 -107 284 -110 285 -112 L302 -176 C303 -181 308 -183 312 -183 C313 -183 316 -183 318 -182 L318 -182 Z " />
<glyph glyph-name="Omacron" unicode="&#x14c;" horiz-adv-x="611" d="M337 705 C244 705 158 633 146 545 L91 155 C79 67 144 -5 237 -5 L372 -5 C465 -5 550 67 562 155 L617 545 C629 633 565 705 472 705 L337 705 Z M258 80 C216 80 181 117 188 165 L240 535 C246 581 292 620 334 620 L451 620 C493 620 527 581 521 535 L469 165 C462 117 417 80 375 80 L258 80 Z M306 836 C298 836 292 831 291 823 L283 764 C282 756 286 751 294 751 L526 751 C534 751 540 756 541 764 L549 823 C550 831 546 836 538 836 L306 836 Z " />
<glyph glyph-name="omacron" unicode="&#x14d;" horiz-adv-x="526" d="M282 520 C195 520 127 446 117 374 L84 141 C74 69 121 -5 208 -5 L315 -5 C403 -5 470 69 480 141 L513 374 C523 446 477 520 390 520 L282 520 Z M238 80 C205 80 175 111 180 146 L211 369 C216 404 255 435 288 435 L360 435 C393 435 422 404 417 369 L386 146 C381 111 343 80 310 80 L238 80 Z M239 656 C231 656 225 651 224 643 L216 584 C214 576 219 571 227 571 L459 571 C467 571 472 576 474 584 L482 643 C483 651 479 656 471 656 L239 656 Z " />
<glyph glyph-name="Ohungarumlaut" unicode="&#x150;" horiz-adv-x="611" d="M337 705 C244 705 158 633 146 545 L91 155 C79 67 144 -5 237 -5 L372 -5 C465 -5 550 67 562 155 L617 545 C629 633 565 705 472 705 L337 705 Z M258 80 C216 80 181 117 188 165 L240 535 C246 581 292 620 334 620 L451 620 C493 620 527 581 521 535 L469 165 C462 117 417 80 375 80 L258 80 Z M361 751 C370 751 376 757 381 765 L448 875 C450 884 444 889 436 889 L375 889 C366 889 361 883 355 875 L288 765 C287 756 291 751 300 751 L361 751 Z M521 751 C530 751 536 757 541 765 L608 875 C610 884 604 889 596 889 L535 889 C526 889 521 883 515 875 L448 765 C447 756 451 751 460 751 L521 751 Z " />
<glyph glyph-name="ohungarumlaut" unicode="&#x151;" horiz-adv-x="526" d="M282 520 C195 520 127 446 117 374 L84 141 C74 69 121 -5 208 -5 L315 -5 C403 -5 470 69 480 141 L513 374 C523 446 477 520 390 520 L282 520 Z M238 80 C205 80 175 111 180 146 L211 369 C216 404 255 435 288 435 L360 435 C393 435 422 404 417 369 L386 146 C381 111 343 80 310 80 L238 80 Z M292 571 C301 571 307 577 312 585 L379 695 C380 704 375 709 367 709 L306 709 C297 709 291 703 286 695 L219 585 C217 576 222 571 231 571 L292 571 Z M452 571 C461 571 467 577 472 585 L539 695 C540 704 535 709 527 709 L466 709 C457 709 451 703 446 695 L379 585 C377 576 382 571 391 571 L452 571 Z " />
<glyph glyph-name="OE" unicode="&#x152;" horiz-adv-x="911" d="M471 700 L336 700 C243 700 158 628 145 540 L92 160 C80 72 145 0 238 0 L828 0 C836 0 841 5 842 13 L851 72 C852 80 847 85 839 85 L552 85 L582 293 L845 293 C853 293 858 298 860 306 L868 365 C869 373 865 378 857 378 L594 378 L627 615 L914 615 C922 615 928 620 929 628 L937 687 C938 695 934 700 926 700 L471 700 Z M469 166 C460 120 416 85 375 85 L258 85 C216 85 182 122 188 170 L239 530 C245 576 291 615 333 615 L450 615 C491 615 527 578 520 533 L469 166 Z " />
<glyph glyph-name="oe" unicode="&#x153;" horiz-adv-x="822" d="M693 105 C677 93 653 80 620 80 L539 80 C506 80 476 111 481 146 L491 216 L779 216 C787 216 793 221 794 229 L814 374 C824 446 779 520 690 520 L583 520 C544 520 508 505 480 482 C459 505 429 520 390 520 L282 520 C195 520 127 446 117 374 L84 141 C74 69 121 -5 208 -5 L315 -5 C354 -5 390 10 417 33 C439 10 470 -5 509 -5 L608 -5 C608 -5 694 -5 751 56 C754 59 755 61 755 64 C756 67 753 71 752 73 L713 108 C710 110 708 111 705 111 C701 111 697 107 693 105 L693 105 Z M238 80 C205 80 175 111 180 146 L211 369 C216 404 255 435 288 435 L360 435 C392 435 420 405 418 371 L386 143 C379 109 342 80 310 80 L238 80 Z M513 371 C518 405 557 435 589 435 L662 435 C695 435 723 404 718 369 L709 301 L503 301 L513 371 Z " />
<glyph glyph-name="Racute" unicode="&#x154;" horiz-adv-x="593" d="M596 378 L618 539 C631 628 566 700 473 700 L191 700 C183 700 177 695 176 687 L81 13 C80 5 85 0 93 0 L162 0 C170 0 175 5 176 13 L205 217 L372 217 L437 13 C439 6 443 0 451 0 L527 0 C535 0 540 5 541 13 L470 229 C535 253 586 311 596 378 L596 378 Z M502 386 C495 339 451 302 409 302 L217 302 L261 615 L453 615 C495 615 528 575 522 530 L502 386 Z M414 751 C422 751 428 757 433 765 L506 883 C507 892 502 897 494 897 L433 897 C425 897 419 891 414 883 L341 765 C340 756 344 751 353 751 L414 751 Z " />
<glyph glyph-name="racute" unicode="&#x155;" horiz-adv-x="414" d="M426 431 C434 431 440 436 441 444 L454 503 C455 509 453 513 447 515 C433 520 411 520 400 520 C380 520 287 519 247 459 L239 459 L245 502 C246 510 242 515 234 515 L165 515 C157 515 151 510 150 502 L81 13 C80 5 85 0 93 0 L162 0 C170 0 175 5 176 13 L225 359 C272 434 353 435 381 435 C397 435 412 433 426 431 L426 431 Z M244 571 C252 571 258 577 263 585 L335 703 C337 712 331 717 323 717 L262 717 C254 717 248 711 243 703 L171 585 C169 576 174 571 183 571 L244 571 Z " />
<glyph glyph-name="uni0156" unicode="&#x156;" horiz-adv-x="593" d="M596 378 L618 539 C631 628 566 700 473 700 L191 700 C183 700 177 695 176 687 L81 13 C80 5 85 0 93 0 L162 0 C170 0 175 5 176 13 L205 217 L372 217 L437 13 C439 6 443 0 451 0 L527 0 C535 0 540 5 541 13 L470 229 C535 253 586 311 596 378 L596 378 Z M502 386 C495 339 451 302 409 302 L217 302 L261 615 L453 615 C495 615 528 575 522 530 L502 386 Z M266 -53 C257 -53 251 -59 246 -67 L187 -179 C186 -188 191 -193 199 -193 L260 -193 C269 -193 275 -187 280 -179 L339 -67 C340 -58 336 -53 327 -53 L266 -53 Z " />
<glyph glyph-name="uni0157" unicode="&#x157;" horiz-adv-x="414" d="M426 431 C434 431 440 436 441 444 L454 503 C455 509 453 513 447 515 C433 520 411 520 400 520 C380 520 287 519 247 459 L239 459 L245 502 C246 510 242 515 234 515 L165 515 C157 515 151 510 150 502 L81 13 C80 5 85 0 93 0 L162 0 C170 0 175 5 176 13 L225 359 C272 434 353 435 381 435 C397 435 412 433 426 431 L426 431 Z M135 -53 C126 -53 120 -59 115 -67 L56 -179 C55 -188 60 -193 68 -193 L129 -193 C138 -193 144 -187 149 -179 L208 -67 C209 -58 205 -53 196 -53 L135 -53 Z " />
<glyph glyph-name="Rcaron" unicode="&#x158;" horiz-adv-x="593" d="M596 378 L618 539 C631 628 566 700 473 700 L191 700 C183 700 177 695 176 687 L81 13 C80 5 85 0 93 0 L162 0 C170 0 175 5 176 13 L205 217 L372 217 L437 13 C439 6 443 0 451 0 L527 0 C535 0 540 5 541 13 L470 229 C535 253 586 311 596 378 L596 378 Z M502 386 C495 339 451 302 409 302 L217 302 L261 615 L453 615 C495 615 528 575 522 530 L502 386 Z M408 751 C416 751 423 756 428 765 L522 913 C523 920 519 925 511 925 L448 925 C442 925 436 919 432 913 L383 836 L356 913 C354 919 350 925 344 925 L281 925 C273 925 267 920 266 913 L318 765 C321 756 326 751 334 751 L408 751 Z " />
<glyph glyph-name="rcaron" unicode="&#x159;" horiz-adv-x="414" d="M426 431 C434 431 440 436 441 444 L454 503 C455 509 453 513 447 515 C433 520 411 520 400 520 C380 520 287 519 247 459 L239 459 L245 502 C246 510 242 515 234 515 L165 515 C157 515 151 510 150 502 L81 13 C80 5 85 0 93 0 L162 0 C170 0 175 5 176 13 L225 359 C272 434 353 435 381 435 C397 435 412 433 426 431 L426 431 Z M335 571 C343 571 349 576 355 585 L449 733 C450 740 445 745 437 745 L374 745 C368 745 362 739 359 733 L310 656 L283 733 C280 739 276 745 270 745 L207 745 C199 745 194 740 193 733 L245 585 C247 576 253 571 261 571 L335 571 Z " />
<glyph glyph-name="Sacute" unicode="&#x15a;" horiz-adv-x="577" d="M236 80 C194 80 161 119 168 165 L170 182 C171 190 167 195 159 195 L90 195 C82 195 76 190 75 182 L71 155 C59 67 126 -5 217 -5 L353 -5 C446 -5 531 67 543 155 L546 172 C587 466 189 316 216 509 L220 535 C226 581 270 620 312 620 L424 620 C466 620 498 581 492 535 L489 518 C488 510 492 505 500 505 L569 505 C577 505 583 510 584 518 L588 545 C600 633 534 705 443 705 L316 705 C225 705 138 633 126 545 L123 522 C82 228 480 381 452 184 L450 165 C443 117 398 80 356 80 L236 80 Z M359 751 C350 751 346 756 347 765 L420 883 C425 891 431 897 439 897 L500 897 C508 897 513 892 512 883 L439 765 C434 757 428 751 420 751 L359 751 Z " />
<glyph glyph-name="sacute" unicode="&#x15b;" horiz-adv-x="504" d="M347 435 C381 435 409 404 404 369 L403 357 C402 349 406 344 414 344 L483 344 C491 344 497 349 498 357 L500 374 C510 446 463 520 376 520 L273 520 C185 520 120 458 110 386 L109 379 C81 180 394 254 380 150 L378 136 C372 98 337 80 303 80 L228 80 C194 80 165 111 170 146 L172 158 C173 166 169 171 161 171 L92 171 C84 171 78 166 77 158 L74 141 C64 69 112 -5 199 -5 L309 -5 C398 -5 462 57 472 129 L474 143 C502 343 188 269 202 369 L204 379 C209 417 245 435 279 435 L347 435 Z M363 571 C371 571 377 577 382 585 L454 703 C456 712 450 717 442 717 L381 717 C373 717 367 711 362 703 L290 585 C288 576 293 571 302 571 L363 571 Z " />
<glyph glyph-name="Scircumflex" unicode="&#x15c;" horiz-adv-x="577" d="M236 80 C194 80 161 119 168 165 L170 182 C171 190 167 195 159 195 L90 195 C82 195 76 190 75 182 L71 155 C59 67 126 -5 217 -5 L353 -5 C446 -5 531 67 543 155 L546 172 C587 466 189 316 216 509 L220 535 C226 581 270 620 312 620 L424 620 C466 620 498 581 492 535 L489 518 C488 510 492 505 500 505 L569 505 C577 505 583 510 584 518 L588 545 C600 633 534 705 443 705 L316 705 C225 705 138 633 126 545 L123 522 C82 228 480 381 452 184 L450 165 C443 117 398 80 356 80 L236 80 Z M445 925 C453 925 458 920 461 911 L513 763 C512 756 506 751 498 751 L435 751 C429 751 425 757 423 763 L396 840 L347 763 C343 757 337 751 331 751 L268 751 C260 751 256 756 257 763 L351 911 C356 920 363 925 371 925 L445 925 Z " />
<glyph glyph-name="scircumflex" unicode="&#x15d;" horiz-adv-x="504" d="M347 435 C381 435 409 404 404 369 L403 357 C402 349 406 344 414 344 L483 344 C491 344 497 349 498 357 L500 374 C510 446 463 520 376 520 L273 520 C185 520 120 458 110 386 L109 379 C81 180 394 254 380 150 L378 136 C372 98 337 80 303 80 L228 80 C194 80 165 111 170 146 L172 158 C173 166 169 171 161 171 L92 171 C84 171 78 166 77 158 L74 141 C64 69 112 -5 199 -5 L309 -5 C398 -5 462 57 472 129 L474 143 C502 343 188 269 202 369 L204 379 C209 417 245 435 279 435 L347 435 Z M319 745 C311 745 305 740 299 731 L205 583 C204 576 209 571 217 571 L280 571 C286 571 292 577 295 583 L344 660 L371 583 C374 577 378 571 384 571 L447 571 C455 571 460 576 461 583 L409 731 C407 740 401 745 393 745 L319 745 Z " />
<glyph glyph-name="Scedilla" unicode="&#x15e;" horiz-adv-x="577" d="M216 509 L220 535 C226 581 270 620 312 620 L424 620 C466 620 498 581 492 535 L489 518 C488 510 492 505 500 505 L569 505 C577 505 583 510 584 518 L588 545 C600 633 534 705 443 705 L316 705 C225 705 138 633 126 545 L123 522 C82 228 480 381 452 184 L450 165 C443 117 398 80 356 80 L236 80 C194 80 161 119 168 165 L170 182 C171 190 167 195 159 195 L90 195 C82 195 76 190 75 182 L71 155 C59 67 126 -5 217 -5 L255 -5 L222 -52 C220 -55 218 -58 218 -60 L213 -93 C213 -98 216 -102 221 -102 L276 -102 C276 -102 300 -102 297 -125 C294 -146 270 -146 270 -146 L210 -146 C205 -146 200 -150 200 -155 L195 -186 C195 -191 198 -195 203 -195 L280 -195 C327 -195 344 -178 353 -119 C360 -71 324 -53 285 -53 L318 -5 L353 -5 C446 -5 531 67 543 155 L546 172 C587 466 189 316 216 509 L216 509 Z " />
<glyph glyph-name="scedilla" unicode="&#x15f;" horiz-adv-x="504" d="M191 -52 C189 -55 187 -58 187 -60 L182 -93 C182 -98 185 -102 190 -102 L245 -102 C245 -102 269 -102 266 -125 C263 -146 239 -146 239 -146 L179 -146 C174 -146 169 -150 169 -155 L164 -186 C164 -191 167 -195 172 -195 L249 -195 C296 -195 313 -178 322 -119 C329 -71 293 -53 254 -53 L286 -5 L309 -5 C398 -5 462 57 472 129 L474 143 C502 343 188 269 202 369 L204 379 C209 417 245 435 279 435 L347 435 C381 435 409 404 404 369 L403 357 C402 349 406 344 414 344 L483 344 C491 344 497 349 498 357 L500 374 C510 446 463 520 376 520 L273 520 C185 520 120 458 110 386 L109 379 C81 180 394 254 380 150 L378 136 C372 98 337 80 303 80 L228 80 C194 80 165 111 170 146 L172 158 C173 166 169 171 161 171 L92 171 C84 171 78 166 77 158 L74 141 C64 69 112 -5 199 -5 L223 -5 L191 -52 Z " />
<glyph glyph-name="Scaron" unicode="&#x160;" horiz-adv-x="577" d="M236 80 C194 80 161 119 168 165 L170 182 C171 190 167 195 159 195 L90 195 C82 195 76 190 75 182 L71 155 C59 67 126 -5 217 -5 L353 -5 C446 -5 531 67 543 155 L546 172 C587 466 189 316 216 509 L220 535 C226 581 270 620 312 620 L424 620 C466 620 498 581 492 535 L489 518 C488 510 492 505 500 505 L569 505 C577 505 583 510 584 518 L588 545 C600 633 534 705 443 705 L316 705 C225 705 138 633 126 545 L123 522 C82 228 480 381 452 184 L450 165 C443 117 398 80 356 80 L236 80 Z M351 769 C343 769 337 774 335 783 L282 931 C283 938 289 943 297 943 L360 943 C366 943 370 937 372 931 L400 854 L448 931 C452 937 458 943 464 943 L527 943 C535 943 539 938 538 931 L445 783 C439 774 433 769 425 769 L351 769 Z " />
<glyph glyph-name="scaron" unicode="&#x161;" horiz-adv-x="504" d="M347 435 C381 435 409 404 404 369 L403 357 C402 349 406 344 414 344 L483 344 C491 344 497 349 498 357 L500 374 C510 446 463 520 376 520 L273 520 C185 520 120 458 110 386 L109 379 C81 180 394 254 380 150 L378 136 C372 98 337 80 303 80 L228 80 C194 80 165 111 170 146 L172 158 C173 166 169 171 161 171 L92 171 C84 171 78 166 77 158 L74 141 C64 69 112 -5 199 -5 L309 -5 C398 -5 462 57 472 129 L474 143 C502 343 188 269 202 369 L204 379 C209 417 245 435 279 435 L347 435 Z M372 571 C380 571 386 576 392 585 L486 733 C487 740 482 745 474 745 L411 745 C405 745 399 739 396 733 L347 656 L320 733 C317 739 313 745 307 745 L244 745 C236 745 231 740 230 733 L282 585 C284 576 290 571 298 571 L372 571 Z " />
<glyph glyph-name="uni0162" unicode="&#x162;" horiz-adv-x="551" d="M329 46 L409 615 L579 615 C587 615 593 620 594 628 L602 687 C603 695 599 700 591 700 L156 700 C148 700 142 695 141 687 L133 628 C132 620 136 615 144 615 L314 615 L229 13 C228 5 233 0 241 0 L310 0 C320 0 334 -4 331 -22 C328 -44 300 -44 300 -44 L236 -44 C231 -44 227 -48 226 -53 L222 -84 C221 -89 224 -93 229 -93 L306 -93 C355 -93 387 -62 392 -24 C399 25 372 46 329 46 L329 46 Z " />
<glyph glyph-name="uni0163" unicode="&#x163;" horiz-adv-x="409" d="M183 -45 C181 -48 179 -51 179 -53 L174 -86 C174 -91 177 -95 182 -95 L237 -95 C237 -95 261 -95 258 -118 C255 -139 231 -139 231 -139 L171 -139 C166 -139 161 -143 161 -148 L156 -179 C156 -184 159 -188 164 -188 L241 -188 C288 -188 305 -171 314 -112 C321 -64 285 -46 246 -46 L275 0 L356 0 C364 0 369 5 370 13 L379 72 C380 80 375 85 367 85 L315 85 C282 85 252 117 257 151 L296 430 L416 430 C424 430 430 435 431 443 L439 502 C440 510 436 515 428 515 L308 515 L332 687 C333 695 329 700 321 700 L252 700 C244 700 238 695 237 687 L213 515 L120 515 C112 515 106 510 105 502 L97 443 C96 435 100 430 108 430 L201 430 L161 148 C157 95 177 42 222 16 L183 -45 Z " />
<glyph glyph-name="Tcaron" unicode="&#x164;" horiz-adv-x="551" d="M156 700 C148 700 142 695 141 687 L133 628 C132 620 136 615 144 615 L314 615 L229 13 C228 5 233 0 241 0 L310 0 C318 0 323 5 324 13 L409 615 L579 615 C587 615 593 620 594 628 L602 687 C603 695 599 700 591 700 L156 700 Z M417 751 C425 751 432 756 437 765 L531 913 C532 920 528 925 520 925 L457 925 C451 925 445 919 441 913 L392 836 L365 913 C363 919 359 925 353 925 L290 925 C282 925 276 920 275 913 L327 765 C330 756 335 751 343 751 L417 751 Z " />
<glyph glyph-name="tcaron" unicode="&#x165;" horiz-adv-x="566" d="M356 0 C364 0 369 5 370 13 L379 72 C380 80 375 85 367 85 L315 85 C282 85 252 117 257 151 L296 430 L416 430 C424 430 430 435 431 443 L439 502 C440 510 436 515 428 515 L308 515 L332 687 C333 695 329 700 321 700 L252 700 C244 700 238 695 237 687 L213 515 L120 515 C112 515 106 510 105 502 L97 443 C96 435 100 430 108 430 L201 430 L161 148 C156 74 198 0 285 0 L356 0 Z M552 570 C560 570 565 576 571 584 L632 686 C633 695 628 700 620 700 L559 700 C551 700 545 694 540 686 L479 584 C477 575 482 570 491 570 L552 570 Z " />
<glyph glyph-name="Tbar" unicode="&#x166;" horiz-adv-x="551" d="M167 373 C159 373 153 368 152 360 L144 301 C143 293 147 288 155 288 L268 288 L229 13 C228 5 233 0 241 0 L310 0 C318 0 323 5 324 13 L363 288 L476 288 C484 288 490 293 491 301 L499 360 C500 368 496 373 488 373 L375 373 L409 615 L579 615 C587 615 593 620 594 628 L602 687 C603 695 599 700 591 700 L156 700 C148 700 142 695 141 687 L133 628 C132 620 136 615 144 615 L314 615 L280 373 L167 373 Z " />
<glyph glyph-name="tbar" unicode="&#x167;" horiz-adv-x="409" d="M92 319 C84 319 79 314 78 306 L69 247 C68 239 72 234 80 234 L173 234 L161 148 C156 74 198 0 285 0 L356 0 C364 0 369 5 370 13 L379 72 C380 80 375 85 367 85 L315 85 C282 85 252 117 257 151 L268 234 L388 234 C396 234 402 239 403 247 L412 306 C413 314 408 319 400 319 L280 319 L296 430 L416 430 C424 430 430 435 431 443 L439 502 C440 510 436 515 428 515 L308 515 L332 687 C333 695 329 700 321 700 L252 700 C244 700 238 695 237 687 L213 515 L120 515 C112 515 106 510 105 502 L97 443 C96 435 100 430 108 430 L201 430 L185 319 L92 319 Z " />
<glyph glyph-name="Utilde" unicode="&#x168;" horiz-adv-x="621" d="M474 165 C467 117 422 80 380 80 L263 80 C221 80 186 117 193 165 L266 687 C267 695 263 700 255 700 L186 700 C178 700 172 695 171 687 L96 155 C84 67 149 -5 242 -5 L377 -5 C470 -5 555 67 567 155 L642 687 C643 695 639 700 631 700 L562 700 C554 700 548 695 547 687 L474 165 Z M490 751 C509 751 533 759 555 771 C560 774 564 779 565 785 L557 837 C556 843 551 845 546 845 C544 845 542 845 539 844 C526 840 509 836 502 836 C447 836 410 878 358 878 C339 878 315 870 293 858 C288 855 284 850 283 844 L291 792 C292 786 297 784 302 784 C304 784 306 784 309 785 C322 789 339 793 346 793 C401 793 437 751 490 751 L490 751 Z " />
<glyph glyph-name="utilde" unicode="&#x169;" horiz-adv-x="536" d="M391 146 C386 111 348 80 315 80 L243 80 C210 80 180 111 185 146 L235 502 C236 510 232 515 224 515 L155 515 C147 515 141 510 140 502 L89 141 C79 69 126 -5 213 -5 L320 -5 C408 -5 475 69 485 141 L536 502 C537 510 533 515 525 515 L456 515 C448 515 442 510 441 502 L391 146 Z M419 571 C438 571 462 579 484 591 C489 594 493 599 494 605 L486 657 C485 663 480 665 475 665 C473 665 471 665 468 664 C454 660 438 656 431 656 C376 656 339 698 287 698 C268 698 243 690 222 678 C216 675 213 670 212 664 L220 612 C221 606 225 604 230 604 C232 604 234 604 238 605 C251 609 268 613 275 613 C330 613 366 571 419 571 L419 571 Z " />
<glyph glyph-name="Umacron" unicode="&#x16a;" horiz-adv-x="621" d="M474 165 C467 117 422 80 380 80 L263 80 C221 80 186 117 193 165 L266 687 C267 695 263 700 255 700 L186 700 C178 700 172 695 171 687 L96 155 C84 67 149 -5 242 -5 L377 -5 C470 -5 555 67 567 155 L642 687 C643 695 639 700 631 700 L562 700 C554 700 548 695 547 687 L474 165 Z M311 836 C303 836 297 831 296 823 L288 764 C287 756 291 751 299 751 L531 751 C539 751 545 756 546 764 L554 823 C555 831 551 836 543 836 L311 836 Z " />
<glyph glyph-name="umacron" unicode="&#x16b;" horiz-adv-x="536" d="M391 146 C386 111 348 80 315 80 L243 80 C210 80 180 111 185 146 L235 502 C236 510 232 515 224 515 L155 515 C147 515 141 510 140 502 L89 141 C79 69 126 -5 213 -5 L320 -5 C408 -5 475 69 485 141 L536 502 C537 510 533 515 525 515 L456 515 C448 515 442 510 441 502 L391 146 Z M244 656 C236 656 230 651 229 643 L221 584 C219 576 224 571 232 571 L464 571 C472 571 477 576 479 584 L487 643 C488 651 484 656 476 656 L244 656 Z " />
<glyph glyph-name="Ubreve" unicode="&#x16c;" horiz-adv-x="621" d="M474 165 C467 117 422 80 380 80 L263 80 C221 80 186 117 193 165 L266 687 C267 695 263 700 255 700 L186 700 C178 700 172 695 171 687 L96 155 C84 67 149 -5 242 -5 L377 -5 C470 -5 555 67 567 155 L642 687 C643 695 639 700 631 700 L562 700 C554 700 548 695 547 687 L474 165 Z M415 751 C503 751 571 798 599 886 C600 895 595 901 586 901 L531 901 C523 901 516 895 512 886 C493 843 457 832 426 832 C396 832 364 843 357 886 C355 895 350 901 342 901 L287 901 C278 901 271 895 270 886 C274 798 328 751 415 751 L415 751 Z " />
<glyph glyph-name="ubreve" unicode="&#x16d;" horiz-adv-x="536" d="M391 146 C386 111 348 80 315 80 L243 80 C210 80 180 111 185 146 L235 502 C236 510 232 515 224 515 L155 515 C147 515 141 510 140 502 L89 141 C79 69 126 -5 213 -5 L320 -5 C408 -5 475 69 485 141 L536 502 C537 510 533 515 525 515 L456 515 C448 515 442 510 441 502 L391 146 Z M348 571 C436 571 503 618 532 706 C533 715 528 721 519 721 L464 721 C456 721 449 715 445 706 C426 663 390 652 359 652 C329 652 297 663 290 706 C288 715 283 721 275 721 L220 721 C211 721 204 715 203 706 C206 618 261 571 348 571 L348 571 Z " />
<glyph glyph-name="Uring" unicode="&#x16e;" horiz-adv-x="621" d="M474 165 C467 117 422 80 380 80 L263 80 C221 80 186 117 193 165 L266 687 C267 695 263 700 255 700 L186 700 C178 700 172 695 171 687 L96 155 C84 67 149 -5 242 -5 L377 -5 C470 -5 555 67 567 155 L642 687 C643 695 639 700 631 700 L562 700 C554 700 548 695 547 687 L474 165 Z M448 977 C377 977 311 920 301 848 C291 777 341 719 412 719 C483 719 549 777 559 848 C569 920 519 977 448 977 L448 977 Z M422 791 C390 791 369 819 373 848 C377 881 406 905 438 905 C470 905 491 881 487 848 C483 819 454 791 422 791 L422 791 Z " />
<glyph glyph-name="uring" unicode="&#x16f;" horiz-adv-x="536" d="M391 146 C386 111 348 80 315 80 L243 80 C210 80 180 111 185 146 L235 502 C236 510 232 515 224 515 L155 515 C147 515 141 510 140 502 L89 141 C79 69 126 -5 213 -5 L320 -5 C408 -5 475 69 485 141 L536 502 C537 510 533 515 525 515 L456 515 C448 515 442 510 441 502 L391 146 Z M384 829 C313 829 247 772 237 700 C227 629 277 571 348 571 C419 571 485 629 495 700 C505 772 455 829 384 829 L384 829 Z M358 643 C326 643 305 671 309 700 C314 733 342 757 374 757 C406 757 428 733 423 700 C419 671 390 643 358 643 L358 643 Z " />
<glyph glyph-name="Uhungarumlaut" unicode="&#x170;" horiz-adv-x="621" d="M474 165 C467 117 422 80 380 80 L263 80 C221 80 186 117 193 165 L266 687 C267 695 263 700 255 700 L186 700 C178 700 172 695 171 687 L96 155 C84 67 149 -5 242 -5 L377 -5 C470 -5 555 67 567 155 L642 687 C643 695 639 700 631 700 L562 700 C554 700 548 695 547 687 L474 165 Z M366 751 C375 751 381 757 386 765 L453 875 C455 884 449 889 441 889 L380 889 C371 889 366 883 360 875 L293 765 C292 756 296 751 305 751 L366 751 Z M526 751 C535 751 541 757 546 765 L613 875 C615 884 609 889 601 889 L540 889 C531 889 526 883 520 875 L453 765 C452 756 456 751 465 751 L526 751 Z " />
<glyph glyph-name="uhungarumlaut" unicode="&#x171;" horiz-adv-x="536" d="M391 146 C386 111 348 80 315 80 L243 80 C210 80 180 111 185 146 L235 502 C236 510 232 515 224 515 L155 515 C147 515 141 510 140 502 L89 141 C79 69 126 -5 213 -5 L320 -5 C408 -5 475 69 485 141 L536 502 C537 510 533 515 525 515 L456 515 C448 515 442 510 441 502 L391 146 Z M297 571 C306 571 312 577 317 585 L384 695 C385 704 380 709 372 709 L311 709 C302 709 296 703 291 695 L224 585 C222 576 227 571 236 571 L297 571 Z M457 571 C466 571 472 577 477 585 L544 695 C545 704 540 709 532 709 L471 709 C462 709 456 703 451 695 L384 585 C382 576 387 571 396 571 L457 571 Z " />
<glyph glyph-name="Uogonek" unicode="&#x172;" horiz-adv-x="621" d="M244 -52 C242 -55 240 -58 240 -60 L235 -93 C235 -98 238 -102 243 -102 L298 -102 C298 -102 322 -102 319 -125 C316 -146 292 -146 292 -146 L232 -146 C227 -146 222 -150 222 -155 L217 -186 C217 -191 220 -195 225 -195 L302 -195 C349 -195 366 -178 375 -119 C382 -71 346 -53 307 -53 L338 -5 L377 -5 C470 -5 555 67 567 155 L642 687 C643 695 639 700 631 700 L562 700 C554 700 548 695 547 687 L474 165 C467 117 422 80 380 80 L263 80 C221 80 186 117 193 165 L266 687 C267 695 263 700 255 700 L186 700 C178 700 172 695 171 687 L96 155 C84 67 149 -5 242 -5 L275 -5 L244 -52 Z " />
<glyph glyph-name="uogonek" unicode="&#x173;" horiz-adv-x="536" d="M525 515 L456 515 C448 515 442 510 441 502 L391 146 C386 111 348 80 315 80 L243 80 C210 80 180 111 185 146 L235 502 C236 510 232 515 224 515 L155 515 C147 515 141 510 140 502 L89 141 C79 69 126 -5 213 -5 L237 -5 L230 -53 C191 -53 151 -71 144 -119 C135 -178 148 -195 195 -195 L272 -195 C277 -195 282 -191 282 -186 L287 -155 C287 -150 284 -146 279 -146 L219 -146 C219 -146 195 -146 198 -125 C201 -102 225 -102 225 -102 L275 -102 C280 -102 285 -98 285 -93 L298 -5 L320 -5 C408 -5 475 69 485 141 L536 502 C537 510 533 515 525 515 L525 515 Z " />
<glyph glyph-name="Ydieresis" unicode="&#x178;" horiz-adv-x="593" d="M339 340 L227 689 C224 697 222 700 214 700 L141 700 C133 700 127 695 126 687 L279 220 L250 13 C249 5 254 0 262 0 L331 0 C339 0 344 5 345 13 L374 220 L659 687 C660 695 656 700 648 700 L575 700 C567 700 563 697 558 689 L348 340 L339 340 Z M271 766 C270 757 275 751 284 751 L355 751 C364 751 371 757 372 766 L383 843 C384 852 379 858 370 858 L299 858 C290 858 283 852 282 843 L271 766 Z M434 766 C433 757 438 751 447 751 L518 751 C527 751 534 757 535 766 L546 843 C547 852 542 858 533 858 L462 858 C453 858 446 852 445 843 L434 766 Z " />
<glyph glyph-name="Zacute" unicode="&#x179;" horiz-adv-x="544" d="M186 85 L573 627 C575 631 578 634 578 639 L585 687 C586 695 582 700 574 700 L166 700 C158 700 152 695 151 687 L143 628 C142 620 146 615 154 615 L455 615 L69 73 C66 69 64 66 63 61 L56 13 C55 5 60 0 68 0 L476 0 C484 0 489 5 490 13 L499 72 C500 80 495 85 487 85 L186 85 Z M414 751 C422 751 428 757 433 765 L506 883 C507 892 502 897 494 897 L433 897 C425 897 419 891 414 883 L341 765 C340 756 344 751 353 751 L414 751 Z " />
<glyph glyph-name="zacute" unicode="&#x17a;" horiz-adv-x="469" d="M477 442 C479 446 482 449 482 454 L489 502 C490 510 486 515 478 515 L135 515 C127 515 121 510 120 502 L112 443 C111 435 115 430 123 430 L360 430 L64 73 C60 69 59 66 58 61 L51 13 C50 5 55 0 63 0 L406 0 C414 0 419 5 420 13 L429 72 C430 80 425 85 417 85 L180 85 L477 442 Z M357 571 C365 571 371 577 376 585 L448 703 C450 712 444 717 436 717 L375 717 C367 717 361 711 356 703 L284 585 C282 576 287 571 296 571 L357 571 Z " />
<glyph glyph-name="Zdotaccent" unicode="&#x17b;" horiz-adv-x="544" d="M186 85 L573 627 C575 631 578 634 578 639 L585 687 C586 695 582 700 574 700 L166 700 C158 700 152 695 151 687 L143 628 C142 620 146 615 154 615 L455 615 L69 73 C66 69 64 66 63 61 L56 13 C55 5 60 0 68 0 L476 0 C484 0 489 5 490 13 L499 72 C500 80 495 85 487 85 L186 85 Z M329 766 C328 757 333 751 342 751 L413 751 C422 751 429 757 430 766 L441 843 C442 852 437 858 428 858 L357 858 C348 858 341 852 340 843 L329 766 Z " />
<glyph glyph-name="zdotaccent" unicode="&#x17c;" horiz-adv-x="469" d="M477 442 C479 446 482 449 482 454 L489 502 C490 510 486 515 478 515 L135 515 C127 515 121 510 120 502 L112 443 C111 435 115 430 123 430 L360 430 L64 73 C60 69 59 66 58 61 L51 13 C50 5 55 0 63 0 L406 0 C414 0 419 5 420 13 L429 72 C430 80 425 85 417 85 L180 85 L477 442 Z M266 586 C265 577 270 571 279 571 L350 571 C359 571 366 577 367 586 L378 663 C379 672 374 678 365 678 L294 678 C285 678 278 672 277 663 L266 586 Z " />
<glyph glyph-name="Zcaron" unicode="&#x17d;" horiz-adv-x="544" d="M186 85 L573 627 C575 631 578 634 578 639 L585 687 C586 695 582 700 574 700 L166 700 C158 700 152 695 151 687 L143 628 C142 620 146 615 154 615 L455 615 L69 73 C66 69 64 66 63 61 L56 13 C55 5 60 0 68 0 L476 0 C484 0 489 5 490 13 L499 72 C500 80 495 85 487 85 L186 85 Z M417 769 C425 769 431 774 437 783 L530 931 C531 938 527 943 519 943 L456 943 C450 943 444 937 440 931 L392 854 L364 931 C362 937 358 943 352 943 L289 943 C281 943 275 938 274 931 L327 783 C329 774 335 769 343 769 L417 769 Z " />
<glyph glyph-name="zcaron" unicode="&#x17e;" horiz-adv-x="469" d="M477 442 C479 446 482 449 482 454 L489 502 C490 510 486 515 478 515 L135 515 C127 515 121 510 120 502 L112 443 C111 435 115 430 123 430 L360 430 L64 73 C60 69 59 66 58 61 L51 13 C50 5 55 0 63 0 L406 0 C414 0 419 5 420 13 L429 72 C430 80 425 85 417 85 L180 85 L477 442 Z M351 571 C359 571 365 576 371 585 L465 733 C466 740 461 745 453 745 L390 745 C384 745 378 739 375 733 L326 656 L299 733 C296 739 292 745 286 745 L223 745 C215 745 210 740 209 733 L261 585 C263 576 269 571 277 571 L351 571 Z " />
<glyph glyph-name="florin" unicode="&#x192;" horiz-adv-x="401" d="M421 700 C334 700 280 621 255 552 L230 480 L123 480 C115 480 109 475 108 467 L100 408 C99 400 103 395 111 395 L194 395 L-31 -168 C-32 -180 -27 -181 -19 -181 L47 -181 C55 -181 61 -176 64 -168 L289 395 L400 395 C408 395 414 400 415 408 L423 467 C424 475 420 480 412 480 L326 480 L353 556 C363 585 394 615 428 615 L469 615 C477 615 483 620 484 628 L492 687 C493 695 489 700 481 700 L421 700 Z " />
<glyph glyph-name="uni0218" unicode="&#x218;" horiz-adv-x="577" d="M236 80 C194 80 161 119 168 165 L170 182 C171 190 167 195 159 195 L90 195 C82 195 76 190 75 182 L71 155 C59 67 126 -5 217 -5 L353 -5 C446 -5 531 67 543 155 L546 172 C587 466 189 316 216 509 L220 535 C226 581 270 620 312 620 L424 620 C466 620 498 581 492 535 L489 518 C488 510 492 505 500 505 L569 505 C577 505 583 510 584 518 L588 545 C600 633 534 705 443 705 L316 705 C225 705 138 633 126 545 L123 522 C82 228 480 381 452 184 L450 165 C443 117 398 80 356 80 L236 80 Z M254 -53 C245 -53 239 -59 234 -67 L175 -179 C174 -188 179 -193 187 -193 L248 -193 C257 -193 263 -187 268 -179 L327 -67 C328 -58 324 -53 315 -53 L254 -53 Z " />
<glyph glyph-name="uni0219" unicode="&#x219;" horiz-adv-x="504" d="M347 435 C381 435 409 404 404 369 L403 357 C402 349 406 344 414 344 L483 344 C491 344 497 349 498 357 L500 374 C510 446 463 520 376 520 L273 520 C185 520 120 458 110 386 L109 379 C81 180 394 254 380 150 L378 136 C372 98 337 80 303 80 L228 80 C194 80 165 111 170 146 L172 158 C173 166 169 171 161 171 L92 171 C84 171 78 166 77 158 L74 141 C64 69 112 -5 199 -5 L309 -5 C398 -5 462 57 472 129 L474 143 C502 343 188 269 202 369 L204 379 C209 417 245 435 279 435 L347 435 Z M217 -53 C208 -53 202 -59 197 -67 L138 -179 C137 -188 142 -193 150 -193 L211 -193 C220 -193 226 -187 231 -179 L290 -67 C291 -58 287 -53 278 -53 L217 -53 Z " />
<glyph glyph-name="uni021A" unicode="&#x21a;" horiz-adv-x="551" d="M156 700 C148 700 142 695 141 687 L133 628 C132 620 136 615 144 615 L314 615 L229 13 C228 5 233 0 241 0 L310 0 C318 0 323 5 324 13 L409 615 L579 615 C587 615 593 620 594 628 L602 687 C603 695 599 700 591 700 L156 700 Z M237 -53 C228 -53 222 -59 217 -67 L158 -179 C157 -188 162 -193 170 -193 L231 -193 C240 -193 246 -187 251 -179 L310 -67 C311 -58 307 -53 298 -53 L237 -53 Z " />
<glyph glyph-name="uni021B" unicode="&#x21b;" horiz-adv-x="409" d="M356 0 C364 0 369 5 370 13 L379 72 C380 80 375 85 367 85 L315 85 C282 85 252 117 257 151 L296 430 L416 430 C424 430 430 435 431 443 L439 502 C440 510 436 515 428 515 L308 515 L332 687 C333 695 329 700 321 700 L252 700 C244 700 238 695 237 687 L213 515 L120 515 C112 515 106 510 105 502 L97 443 C96 435 100 430 108 430 L201 430 L161 148 C156 74 198 0 285 0 L356 0 Z M236 -53 C227 -53 221 -59 216 -67 L157 -179 C156 -188 161 -193 169 -193 L230 -193 C239 -193 245 -187 250 -179 L309 -67 C310 -58 306 -53 297 -53 L236 -53 Z " />
<glyph glyph-name="circumflex" unicode="&#x2c6;" horiz-adv-x="416" d="M269 700 C261 700 254 695 249 686 L155 538 C154 531 158 526 166 526 L229 526 C235 526 241 532 245 538 L294 615 L321 538 C323 532 327 526 333 526 L396 526 C404 526 410 531 411 538 L359 686 C356 695 351 700 343 700 L269 700 Z " />
<glyph glyph-name="caron" unicode="&#x2c7;" horiz-adv-x="416" d="M318 526 C326 526 333 531 338 540 L432 688 C433 695 429 700 421 700 L358 700 C352 700 346 694 342 688 L293 611 L266 688 C264 694 260 700 254 700 L191 700 C183 700 177 695 176 688 L228 540 C231 531 236 526 244 526 L318 526 Z " />
<glyph glyph-name="breve" unicode="&#x2d8;" horiz-adv-x="489" d="M321 550 C409 550 476 597 505 685 C506 694 501 700 492 700 L437 700 C429 700 422 694 418 685 C399 642 363 631 332 631 C302 631 270 642 263 685 C261 694 256 700 248 700 L193 700 C184 700 177 694 176 685 C179 597 234 550 321 550 L321 550 Z " />
<glyph glyph-name="dotaccent" unicode="&#x2d9;" horiz-adv-x="261" d="M165 608 C164 599 169 593 178 593 L249 593 C258 593 265 599 266 608 L277 685 C278 694 273 700 264 700 L193 700 C184 700 177 694 176 685 L165 608 Z " />
<glyph glyph-name="ring" unicode="&#x2da;" horiz-adv-x="418" d="M314 752 C243 752 177 695 167 623 C157 552 207 494 278 494 C349 494 415 552 425 623 C435 695 385 752 314 752 L314 752 Z M288 566 C256 566 235 594 239 623 C244 656 272 680 304 680 C336 680 358 656 353 623 C349 594 320 566 288 566 L288 566 Z " />
<glyph glyph-name="ogonek" unicode="&#x2db;" horiz-adv-x="308" d="M166 1 C161 1 156 -3 155 -8 L149 -53 C110 -53 70 -71 63 -119 C54 -178 67 -195 114 -195 L191 -195 C196 -195 201 -191 201 -186 L206 -155 C206 -150 203 -146 198 -146 L138 -146 C138 -146 114 -146 117 -125 C120 -102 144 -102 144 -102 L194 -102 C199 -102 204 -98 204 -93 L216 -8 C217 -3 214 1 209 1 L166 1 Z " />
<glyph glyph-name="tilde" unicode="&#x2dc;" horiz-adv-x="450" d="M380 573 C399 573 423 581 445 593 C450 596 454 601 455 607 L447 659 C446 665 441 667 436 667 C434 667 432 667 429 666 C416 662 399 658 392 658 C337 658 300 700 248 700 C229 700 205 692 183 680 C178 677 174 672 173 666 L181 614 C182 608 187 606 192 606 C194 606 196 606 199 607 C212 611 229 615 236 615 C291 615 327 573 380 573 L380 573 Z " />
<glyph glyph-name="hungarumlaut" unicode="&#x2dd;" horiz-adv-x="465" d="M233 562 C242 562 248 568 253 576 L321 686 C322 695 317 700 309 700 L248 700 C239 700 233 694 228 686 L160 576 C159 567 163 562 172 562 L233 562 Z M393 562 C402 562 408 568 413 576 L481 686 C482 695 477 700 469 700 L408 700 C399 700 393 694 388 686 L320 576 C319 567 323 562 332 562 L393 562 Z " />
<glyph glyph-name="uni03A9" unicode="&#x3a9;" horiz-adv-x="759" d="M410 700 C317 700 231 628 218 539 L167 172 C165 157 160 110 188 85 L104 85 C96 85 91 80 90 72 L81 13 C80 5 85 0 93 0 L267 0 C275 0 280 5 281 13 L289 70 C290 78 286 83 278 86 C252 98 259 155 262 175 L312 530 C318 575 364 615 406 615 L525 615 C567 615 601 575 595 530 L545 175 C542 155 533 98 505 86 C495 83 489 78 488 70 L480 13 C479 5 484 0 492 0 L666 0 C674 0 679 5 680 13 L689 72 C690 80 685 85 677 85 L593 85 C629 110 638 157 640 172 L691 539 C704 628 638 700 545 700 L410 700 Z " />
<glyph glyph-name="pi" unicode="&#x3c0;" horiz-adv-x="795" d="M165 515 C157 515 151 510 150 502 L142 443 C141 435 145 430 153 430 L271 430 L212 13 C211 5 216 0 224 0 L293 0 C301 0 306 5 307 13 L366 430 L549 430 L490 13 C489 5 494 0 502 0 L571 0 C579 0 584 5 585 13 L644 430 L762 430 C770 430 776 435 777 443 L785 502 C786 510 782 515 774 515 L165 515 Z " />
<glyph glyph-name="ZWSP" unicode="&#x200b;" d="" />
<glyph glyph-name="endash" unicode="&#x2013;" horiz-adv-x="418" d="M132 282 C124 282 118 277 117 269 L109 210 C108 202 112 197 120 197 L352 197 C360 197 366 202 367 210 L375 269 C376 277 372 282 364 282 L132 282 Z " />
<glyph glyph-name="emdash" unicode="&#x2014;" horiz-adv-x="478" d="M132 282 C124 282 118 277 117 269 L109 210 C108 202 112 197 120 197 L412 197 C420 197 426 202 427 210 L435 269 C436 277 432 282 424 282 L132 282 Z " />
<glyph glyph-name="quoteleft" unicode="&#x2018;" horiz-adv-x="294" d="M232 550 C241 550 247 556 252 564 L310 686 C311 695 306 700 298 700 L237 700 C228 700 222 694 217 686 L159 564 C158 555 162 550 171 550 L232 550 Z " />
<glyph glyph-name="quoteright" unicode="&#x2019;" horiz-adv-x="294" d="M237 700 C228 700 222 694 217 686 L159 564 C158 555 163 550 171 550 L232 550 C241 550 247 556 252 564 L310 686 C311 695 307 700 298 700 L237 700 Z " />
<glyph glyph-name="quotesinglbase" unicode="&#x201a;" horiz-adv-x="294" d="M150 82 C141 82 135 76 130 68 L72 -54 C71 -63 76 -68 84 -68 L145 -68 C154 -68 160 -62 165 -54 L223 68 C224 77 220 82 211 82 L150 82 Z " />
<glyph glyph-name="quotedblleft" unicode="&#x201c;" horiz-adv-x="456" d="M232 550 C241 550 247 556 252 564 L310 686 C311 695 306 700 298 700 L237 700 C228 700 222 694 217 686 L159 564 C158 555 162 550 171 550 L232 550 Z M394 550 C403 550 409 556 414 564 L472 686 C473 695 468 700 460 700 L399 700 C390 700 384 694 379 686 L321 564 C320 555 324 550 333 550 L394 550 Z " />
<glyph glyph-name="quotedblright" unicode="&#x201d;" horiz-adv-x="456" d="M399 700 C390 700 384 694 379 686 L321 564 C320 555 325 550 333 550 L394 550 C403 550 409 556 414 564 L472 686 C473 695 469 700 460 700 L399 700 Z M237 700 C228 700 222 694 217 686 L159 564 C158 555 163 550 171 550 L232 550 C241 550 247 556 252 564 L310 686 C311 695 307 700 298 700 L237 700 Z " />
<glyph glyph-name="quotedblbase" unicode="&#x201e;" horiz-adv-x="456" d="M312 82 C303 82 297 76 292 68 L234 -54 C233 -63 238 -68 246 -68 L307 -68 C316 -68 322 -62 327 -54 L385 68 C386 77 382 82 373 82 L312 82 Z M150 82 C141 82 135 76 130 68 L72 -54 C71 -63 76 -68 84 -68 L145 -68 C154 -68 160 -62 165 -54 L223 68 C224 77 220 82 211 82 L150 82 Z " />
<glyph glyph-name="dagger" unicode="&#x2020;" horiz-adv-x="503" d="M362 455 L473 455 C481 455 487 460 488 468 L497 527 C498 535 493 540 485 540 L374 540 L395 687 C396 695 392 700 384 700 L315 700 C307 700 301 695 300 687 L279 540 L168 540 C160 540 155 535 154 527 L145 468 C144 460 148 455 156 455 L267 455 L168 -255 C167 -263 171 -268 179 -268 L248 -268 C256 -268 262 -263 263 -255 L362 455 Z " />
<glyph glyph-name="daggerdbl" unicode="&#x2021;" horiz-adv-x="503" d="M93 0 C85 0 79 -5 78 -13 L69 -72 C68 -80 73 -85 81 -85 L192 -85 L168 -255 C167 -263 171 -268 179 -268 L248 -268 C256 -268 262 -263 263 -255 L287 -85 L398 -85 C406 -85 411 -80 412 -72 L421 -13 C422 -5 418 0 410 0 L299 0 L362 455 L473 455 C481 455 487 460 488 468 L497 527 C498 535 493 540 485 540 L374 540 L395 687 C396 695 392 700 384 700 L315 700 C307 700 301 695 300 687 L279 540 L168 540 C160 540 155 535 154 527 L145 468 C144 460 148 455 156 455 L267 455 L204 0 L93 0 Z " />
<glyph glyph-name="bullet" unicode="&#x2022;" horiz-adv-x="261" d="M106 187 C105 178 110 172 119 172 L190 172 C199 172 206 178 207 187 L218 264 C219 273 214 279 205 279 L134 279 C125 279 118 273 117 264 L106 187 Z " />
<glyph glyph-name="ellipsis" unicode="&#x2026;" horiz-adv-x="963" d="M81 10 C80 1 85 -5 94 -5 L165 -5 C174 -5 181 1 182 10 L193 87 C194 96 189 102 180 102 L109 102 C100 102 93 96 92 87 L81 10 Z M432 10 C431 1 436 -5 445 -5 L516 -5 C525 -5 532 1 533 10 L544 87 C545 96 540 102 531 102 L460 102 C451 102 444 96 443 87 L432 10 Z M783 10 C782 1 787 -5 796 -5 L867 -5 C876 -5 883 1 884 10 L895 87 C896 96 891 102 882 102 L811 102 C802 102 795 96 794 87 L783 10 Z " />
<glyph glyph-name="perthousand" unicode="&#x2030;" horiz-adv-x="1071" d="M205 13 C204 5 209 0 217 0 L289 0 C297 0 301 5 305 13 L685 687 C686 695 682 700 674 700 L602 700 C594 700 589 695 585 687 L205 13 Z M299 700 C232 700 170 645 161 579 C151 512 198 457 265 457 C332 457 395 512 405 579 C414 645 366 700 299 700 L299 700 Z M275 528 C246 528 227 553 231 579 C235 608 260 630 289 630 C315 630 337 608 333 579 C329 553 301 528 275 528 L275 528 Z M617 243 C550 243 488 188 479 122 C469 55 516 0 583 0 C650 0 713 55 723 122 C732 188 684 243 617 243 L617 243 Z M592 71 C563 71 545 96 549 122 C553 151 578 173 607 173 C633 173 655 151 651 122 C647 96 618 71 592 71 L592 71 Z M902 243 C835 243 773 188 764 122 C754 55 801 0 868 0 C935 0 998 55 1008 122 C1017 188 969 243 902 243 L902 243 Z M877 71 C848 71 830 96 834 122 C838 151 863 173 892 173 C918 173 940 151 936 122 C932 96 903 71 877 71 L877 71 Z " />
<glyph glyph-name="guilsinglleft" unicode="&#x2039;" horiz-adv-x="418" d="M104 175 C103 166 108 160 116 158 L336 73 C342 73 348 77 349 85 L358 147 C359 156 354 160 348 163 L189 225 L190 232 L367 294 C373 297 380 301 381 310 L390 372 C391 380 385 384 379 384 L136 299 C127 297 120 291 119 282 L104 175 Z " />
<glyph glyph-name="guilsinglright" unicode="&#x203a;" horiz-adv-x="418" d="M377 282 C378 291 373 297 366 299 L145 384 C139 384 133 380 132 372 L123 310 C122 301 127 297 133 294 L292 232 L291 225 L114 163 C108 160 101 156 100 147 L91 85 C90 77 96 73 102 73 L346 158 C354 160 361 166 362 175 L377 282 Z " />
<glyph glyph-name="fraction" unicode="&#x2044;" horiz-adv-x="567" d="M56 -166 C55 -174 59 -179 67 -179 L140 -179 C148 -179 152 -174 156 -166 L598 791 C599 799 594 804 586 804 L513 804 C505 804 502 799 498 791 L56 -166 Z " />
<glyph glyph-name="Euro" unicode="&#x20ac;" horiz-adv-x="710" d="M159 474 C151 474 145 469 144 461 L138 417 C137 409 141 404 149 404 L215 404 L200 295 L134 295 C126 295 120 290 119 282 L113 238 C112 230 116 225 124 225 L190 225 L180 155 C168 67 233 -5 326 -5 L461 -5 C554 -5 639 67 651 155 L657 193 C658 201 653 206 645 206 L576 206 C568 206 563 201 562 193 L558 165 C551 117 506 80 464 80 L347 80 C305 80 270 117 277 165 L285 225 L356 225 C364 225 370 230 371 238 L377 282 C378 290 374 295 366 295 L295 295 L310 404 L381 404 C389 404 395 409 396 417 L402 461 C403 469 399 474 391 474 L320 474 L329 535 C335 581 381 620 423 620 L540 620 C582 620 616 581 610 535 L605 502 C604 494 608 489 616 489 L685 489 C693 489 699 494 700 502 L706 545 C718 633 654 705 561 705 L426 705 C333 705 247 633 235 545 L225 474 L159 474 Z " />
<glyph glyph-name="Numero" unicode="&#x2116;" horiz-adv-x="1173" d="M444 13 C447 6 453 0 461 0 L568 0 C576 0 581 5 582 13 L677 687 C678 695 674 700 666 700 L597 700 C589 700 583 695 582 687 L508 162 L498 162 L314 687 C311 694 306 700 298 700 L191 700 C183 700 177 695 176 687 L81 13 C80 5 85 0 93 0 L162 0 C170 0 175 5 176 13 L250 538 L261 538 L444 13 Z M939 700 C852 700 784 626 774 554 L742 321 C731 249 778 175 865 175 L972 175 C1060 175 1127 249 1138 321 L1170 554 C1180 626 1134 700 1047 700 L939 700 Z M895 260 C862 260 832 291 837 326 L869 549 C874 584 912 615 945 615 L1017 615 C1050 615 1080 584 1075 549 L1043 326 C1038 291 1000 260 967 260 L895 260 Z M789 85 C781 85 776 80 775 72 L766 13 C765 5 770 0 778 0 L1010 0 C1018 0 1023 5 1024 13 L1033 72 C1034 80 1029 85 1021 85 L789 85 Z " />
<glyph glyph-name="trademark" unicode="&#x2122;" horiz-adv-x="718" d="M203 403 C202 398 206 394 211 394 L262 394 C267 394 271 398 272 403 L305 635 L364 635 C368 635 372 639 373 643 L380 692 C380 696 377 700 373 700 L186 700 C182 700 177 696 177 692 L170 643 C169 639 173 635 177 635 L236 635 L203 403 Z M553 436 C556 436 558 438 559 441 L650 581 L625 403 C624 398 628 394 633 394 L684 394 C689 394 693 398 694 403 L735 691 C735 696 732 700 727 700 L671 700 C665 700 660 695 656 689 L562 552 L557 552 L501 689 C499 695 496 700 490 700 L434 700 C429 700 424 696 424 691 L383 403 C382 398 386 394 391 394 L442 394 C447 394 451 398 452 403 L477 581 L528 441 C529 438 531 436 534 436 L553 436 Z " />
<glyph glyph-name="Omega" unicode="&#x2126;" horiz-adv-x="759" d="M410 700 C317 700 231 628 218 539 L167 172 C165 157 160 110 188 85 L104 85 C96 85 91 80 90 72 L81 13 C80 5 85 0 93 0 L267 0 C275 0 280 5 281 13 L289 70 C290 78 286 83 278 86 C252 98 259 155 262 175 L312 530 C318 575 364 615 406 615 L525 615 C567 615 601 575 595 530 L545 175 C542 155 533 98 505 86 C495 83 489 78 488 70 L480 13 C479 5 484 0 492 0 L666 0 C674 0 679 5 680 13 L689 72 C690 80 685 85 677 85 L593 85 C629 110 638 157 640 172 L691 539 C704 628 638 700 545 700 L410 700 Z " />
<glyph glyph-name="partialdiff" unicode="&#x2202;" horiz-adv-x="570" d="M415 146 C410 111 372 80 339 80 L253 80 C219 80 190 111 195 146 L214 284 C219 319 257 350 291 350 L377 350 C410 350 439 319 434 284 L415 146 Z M450 398 L442 398 C425 429 386 435 366 435 L291 435 C204 435 132 372 120 287 L100 143 C88 58 142 -5 229 -5 L304 -5 C324 -5 365 1 391 32 L399 32 L396 13 C395 5 400 0 408 0 L477 0 C485 0 490 5 491 13 L568 559 C578 631 532 705 445 705 L338 705 C249 705 182 631 172 559 L170 543 C169 535 173 530 181 530 L250 530 C258 530 264 535 265 543 L266 554 C271 589 309 620 342 620 L415 620 C448 620 477 589 472 554 L450 398 Z " />
<glyph glyph-name="Delta" unicode="&#x2206;" horiz-adv-x="844" d="M642 85 L224 85 L506 601 L642 85 Z M467 700 C458 700 452 694 448 686 L81 10 C80 4 84 0 90 0 L754 0 C760 0 764 4 765 10 L588 686 C586 694 582 700 573 700 L467 700 Z " />
<glyph glyph-name="product" unicode="&#x220f;" horiz-adv-x="795" d="M191 700 C183 700 177 695 176 687 L168 628 C167 620 171 615 179 615 L297 615 L212 13 C211 5 216 0 224 0 L293 0 C301 0 306 5 307 13 L392 615 L575 615 L490 13 C489 5 494 0 502 0 L571 0 C579 0 584 5 585 13 L670 615 L788 615 C796 615 802 620 803 628 L811 687 C812 695 808 700 800 700 L191 700 Z " />
<glyph glyph-name="summation" unicode="&#x2211;" horiz-adv-x="555" d="M261 333 L93 98 L81 13 C80 5 85 0 93 0 L462 0 C470 0 475 5 476 13 L485 72 C486 80 481 85 473 85 L171 85 L358 347 L359 353 L246 615 L548 615 C556 615 562 620 563 628 L571 687 C572 695 568 700 560 700 L191 700 C183 700 177 695 176 687 L164 602 L266 367 L261 333 Z " />
<glyph glyph-name="minus" unicode="&#x2212;" horiz-adv-x="418" d="M132 282 C124 282 118 277 117 269 L109 210 C108 202 112 197 120 197 L352 197 C360 197 366 202 367 210 L375 269 C376 277 372 282 364 282 L132 282 Z " />
<glyph glyph-name="radical" unicode="&#x221a;" horiz-adv-x="743" d="M554 700 C546 700 542 695 538 687 L282 86 L272 86 L232 371 C230 379 227 384 219 384 L146 384 C138 384 133 379 132 371 L189 13 C190 5 195 0 203 0 L327 0 C335 0 340 5 343 13 L606 615 L736 615 C744 615 750 620 751 628 L759 687 C760 695 756 700 748 700 L554 700 Z " />
<glyph glyph-name="infinity" unicode="&#x221e;" horiz-adv-x="938" d="M262 157 C230 157 201 188 206 221 L216 295 C221 329 258 360 290 360 L407 360 C437 360 465 332 463 301 L452 221 C447 188 411 157 379 157 L262 157 Z M603 157 C571 157 543 188 548 221 L559 301 C565 332 601 360 631 360 L748 360 C780 360 809 329 804 295 L794 221 C789 188 752 157 720 157 L603 157 Z M488 142 C507 81 551 72 582 72 L727 72 C814 72 878 144 888 215 L900 302 C910 373 866 445 779 445 L634 445 C603 445 557 436 521 375 C503 436 459 445 428 445 L283 445 C196 445 132 373 122 302 L110 215 C100 144 144 72 231 72 L376 72 C407 72 453 81 488 142 L488 142 Z " />
<glyph glyph-name="integral" unicode="&#x222b;" horiz-adv-x="439" d="M412 700 C372 685 261 634 243 511 L173 12 C173 12 162 -58 73 -94 C68 -96 65 -101 65 -106 C64 -107 65 -110 66 -112 L83 -176 C84 -181 89 -183 93 -183 C94 -183 97 -183 99 -182 C139 -167 250 -116 267 7 L338 506 C338 506 348 576 438 612 C443 614 445 619 446 624 C446 625 446 628 445 630 L428 694 C427 699 422 701 418 701 C417 701 414 701 412 700 L412 700 Z " />
<glyph glyph-name="approxequal" unicode="&#x2248;" horiz-adv-x="450" d="M307 53 C326 53 350 61 372 73 C377 76 381 81 382 87 L374 139 C373 145 368 147 363 147 C361 147 359 147 356 146 C342 142 326 138 319 138 C264 138 227 180 175 180 C156 180 132 172 110 160 C105 157 101 152 100 146 L108 94 C109 88 114 86 119 86 C121 86 123 86 126 87 C139 91 156 95 163 95 C218 95 254 53 307 53 L307 53 Z M333 238 C352 238 376 246 398 258 C403 261 407 266 408 272 L400 324 C399 330 394 332 389 332 C387 332 385 332 382 331 C368 327 352 323 345 323 C290 323 253 365 201 365 C182 365 158 357 136 345 C131 342 127 337 126 331 L134 279 C135 273 140 271 145 271 C147 271 149 271 152 272 C165 276 182 280 189 280 C244 280 280 238 333 238 L333 238 Z " />
<glyph glyph-name="notequal" unicode="&#x2260;" horiz-adv-x="418" d="M119 186 C111 186 105 181 104 173 L96 114 C94 106 99 101 107 101 L132 101 L91 13 C90 5 95 0 103 0 L169 0 C177 0 180 5 184 13 L225 101 L339 101 C347 101 352 106 354 114 L362 173 C363 181 359 186 351 186 L264 186 L311 291 L365 291 C373 291 379 296 380 304 L389 363 C390 371 385 376 377 376 L350 376 L398 478 C399 486 395 491 387 491 L321 491 C313 491 309 486 305 478 L257 376 L145 376 C137 376 132 371 131 363 L122 304 C121 296 125 291 133 291 L218 291 L171 186 L119 186 Z " />
<glyph glyph-name="lessequal" unicode="&#x2264;" horiz-adv-x="418" d="M112 228 C110 219 115 213 123 211 L343 126 C349 126 356 130 357 138 L366 200 C367 209 361 213 356 216 L197 278 L198 285 L374 347 C381 350 387 354 389 363 L397 425 C398 433 393 437 387 437 L143 352 C135 350 128 344 127 335 L112 228 Z M104 85 C96 85 91 80 90 72 L81 13 C80 5 85 0 93 0 L325 0 C333 0 338 5 339 13 L348 72 C349 80 344 85 336 85 L104 85 Z " />
<glyph glyph-name="greaterequal" unicode="&#x2265;" horiz-adv-x="418" d="M385 335 C386 344 381 350 373 352 L153 437 C147 437 140 433 139 425 L131 363 C129 354 135 350 140 347 L300 285 L299 278 L122 216 C115 213 109 209 108 200 L99 138 C98 130 103 126 109 126 L353 211 C361 213 368 219 370 228 L385 335 Z M104 85 C96 85 91 80 90 72 L81 13 C80 5 85 0 93 0 L325 0 C333 0 338 5 339 13 L348 72 C349 80 344 85 336 85 L104 85 Z " />
<glyph glyph-name="lozenge" unicode="&#x25ca;" horiz-adv-x="622" d="M479 689 C477 695 473 700 467 700 L352 700 C345 700 339 695 335 689 L129 350 L240 11 C242 5 247 0 253 0 L369 0 C375 0 380 5 384 11 L591 350 L479 689 Z M322 80 L235 349 L397 617 L485 349 L322 80 Z " />
<glyph glyph-name="uni25CC" unicode="&#x25cc;" horiz-adv-x="199" d="" />
<glyph glyph-name="fi" unicode="&#xfb01;" horiz-adv-x="668" d="M296 430 L416 430 C424 430 430 435 431 443 L439 502 C440 510 436 515 428 515 L308 515 L319 593 C324 628 363 659 396 659 L448 659 C456 659 462 664 463 672 L471 731 C472 739 468 744 460 744 L389 744 C302 744 240 670 224 597 L213 515 L120 515 C112 515 106 510 105 502 L97 443 C96 435 100 430 108 430 L201 430 L142 13 C141 5 146 0 154 0 L223 0 C231 0 236 5 237 13 L296 430 Z M495 13 C494 5 499 0 507 0 L576 0 C584 0 589 5 590 13 L659 502 C660 510 656 515 648 515 L579 515 C571 515 565 510 564 502 L495 13 Z M574 591 C572 583 577 578 585 578 L660 578 C668 578 673 583 675 591 L686 671 C687 679 683 684 675 684 L600 684 C592 684 586 679 585 671 L574 591 Z " />
<glyph glyph-name="fl" unicode="&#xfb02;" horiz-adv-x="669" d="M296 430 L416 430 C424 430 430 435 431 443 L439 502 C440 510 436 515 428 515 L308 515 L319 593 C324 628 363 659 396 659 L448 659 C456 659 462 664 463 672 L471 731 C472 739 468 744 460 744 L389 744 C302 744 240 670 224 597 L213 515 L120 515 C112 515 106 510 105 502 L97 443 C96 435 100 430 108 430 L201 430 L142 13 C141 5 146 0 154 0 L223 0 C231 0 236 5 237 13 L296 430 Z M495 13 C494 5 499 0 507 0 L576 0 C584 0 589 5 590 13 L685 687 C686 695 682 700 674 700 L605 700 C597 700 591 695 590 687 L495 13 Z " />
</font>
</svg>
