<?xml version="1.0" encoding="UTF-8"?>
<svg xmlns="http://www.w3.org/2000/svg" xmlns:xlink="http://www.w3.org/1999/xlink" version="1.2" >
<font id="Tomkin Condense Medium Italic">
<font-face  font-family="Tomkin Condense" units-per-em="1000" ascent="750" descent="-250" font-style="italic" font-weight="500" font-stretch="normal" cap-height="700" x-height="515" underline-position="-91" underline-thickness="35" />
<missing-glyph  horiz-adv-x="569" d="" />
<glyph glyph-name="space" unicode="&#x20;" horiz-adv-x="182" d="" />
<glyph glyph-name="exclam" unicode="&#x21;" horiz-adv-x="263" d="M230 301 L284 685 C285 694 280 700 271 700 L188 700 C179 700 172 694 171 685 L117 301 L114 186 C113 177 118 171 127 171 L184 171 C193 171 198 177 201 186 L230 301 Z M74 -1 C73 -10 78 -16 87 -16 L170 -16 C179 -16 186 -10 187 -1 L200 86 C201 95 196 101 187 101 L104 101 C95 101 88 95 87 86 L74 -1 Z " />
<glyph glyph-name="quotedbl" unicode="&#x22;" horiz-adv-x="453" d="M259 590 L273 685 C274 694 269 700 260 700 L188 700 C179 700 172 694 171 685 L157 590 L154 474 C154 466 158 460 166 460 L215 460 C223 460 229 466 231 474 L259 590 Z M460 590 L474 685 C475 694 470 700 461 700 L389 700 C380 700 373 694 372 685 L358 590 L355 474 C355 466 359 460 367 460 L416 460 C424 460 430 466 432 474 L460 590 Z " />
<glyph glyph-name="numbersign" unicode="&#x23;" horiz-adv-x="792" d="M436 455 L549 455 L453 245 L340 245 L436 455 Z M518 145 L601 145 C610 145 617 151 618 160 L628 230 C629 239 624 245 615 245 L563 245 L659 455 L765 455 C774 455 781 461 783 470 L792 540 C794 549 789 555 780 555 L706 555 L765 686 C766 694 761 700 753 700 L675 700 C667 700 660 694 656 686 L595 555 L483 555 L542 686 C543 694 538 700 530 700 L452 700 C444 700 437 694 433 686 L372 555 L289 555 C280 555 273 549 271 540 L262 470 C260 461 265 455 274 455 L326 455 L230 245 L124 245 C115 245 108 239 107 230 L97 160 C96 151 101 145 110 145 L184 145 L124 14 C123 6 129 0 137 0 L215 0 C223 0 229 6 233 14 L295 145 L407 145 L347 14 C346 6 352 0 360 0 L438 0 C446 0 452 6 456 14 L518 145 Z " />
<glyph glyph-name="dollar" unicode="&#x24;" horiz-adv-x="565" d="M258 504 L262 531 C268 570 304 603 340 603 L383 603 C419 603 447 570 441 531 L438 512 C437 503 442 497 451 497 L534 497 C543 497 550 503 551 512 L555 539 C567 622 512 690 432 703 L448 817 C450 826 444 832 435 832 L352 832 C343 832 337 826 335 817 L319 703 C235 690 162 622 150 539 L147 517 C106 223 429 373 403 189 L400 169 C395 129 357 97 321 97 L269 97 C233 97 206 129 211 169 L215 194 C216 203 211 209 202 209 L119 209 C110 209 103 203 102 194 L97 161 C85 78 140 10 220 -3 L203 -122 C202 -131 207 -137 216 -137 L299 -137 C308 -137 315 -131 316 -122 L333 -4 C421 4 500 75 512 161 L514 177 C556 472 233 323 258 504 L258 504 Z " />
<glyph glyph-name="percent" unicode="&#x25;" horiz-adv-x="776" d="M294 700 C227 700 165 645 156 579 C146 512 193 457 260 457 C327 457 390 512 400 579 C409 645 361 700 294 700 L294 700 Z M270 528 C241 528 222 553 226 579 C230 608 255 630 284 630 C310 630 332 608 328 579 C324 553 296 528 270 528 L270 528 Z M195 14 C194 6 200 0 208 0 L286 0 C294 0 300 6 304 14 L684 686 C685 694 680 700 672 700 L594 700 C586 700 579 694 575 686 L195 14 Z M612 243 C545 243 483 188 474 122 C464 55 511 0 578 0 C645 0 708 55 718 122 C727 188 679 243 612 243 L612 243 Z M587 71 C558 71 540 96 544 122 C548 151 573 173 602 173 C628 173 650 151 646 122 C642 96 613 71 587 71 L587 71 Z " />
<glyph glyph-name="ampersand" unicode="&#x26;" horiz-adv-x="608" d="M556 539 C569 631 511 705 417 705 L368 705 C273 705 193 631 180 539 L170 468 C165 433 175 387 207 363 C143 327 114 281 107 232 L98 166 C85 74 145 0 239 0 L466 0 C475 0 481 6 483 15 L523 299 L585 299 C594 299 600 305 602 314 L612 386 C613 395 608 401 599 401 L333 401 C297 401 278 433 284 473 L292 531 C298 570 325 603 361 603 L393 603 C430 603 448 570 442 531 L440 513 C438 504 443 498 452 498 L535 498 C544 498 551 504 553 513 L556 539 Z M410 299 L382 102 L261 102 C225 102 206 134 212 174 L219 227 C225 266 253 299 289 299 L410 299 Z " />
<glyph glyph-name="quotesingle" unicode="&#x27;" horiz-adv-x="252" d="M259 590 L273 685 C274 694 269 700 260 700 L188 700 C179 700 172 694 171 685 L157 590 L154 474 C154 466 158 460 166 460 L215 460 C223 460 229 466 231 474 L259 590 Z " />
<glyph glyph-name="parenleft" unicode="&#x28;" horiz-adv-x="312" d="M118 312 C96 153 87 -3 101 -163 C102 -172 105 -178 114 -178 L196 -178 C205 -178 212 -172 214 -163 C202 -6 208 154 230 312 C253 470 291 633 348 790 C349 799 344 805 335 805 L253 805 C244 805 239 799 235 790 C176 630 141 471 118 312 L118 312 Z " />
<glyph glyph-name="parenright" unicode="&#x29;" horiz-adv-x="312" d="M280 312 C303 471 312 630 299 790 C297 799 294 805 285 805 L203 805 C194 805 187 799 186 790 C197 633 191 470 168 312 C146 154 108 -6 52 -163 C50 -172 55 -178 64 -178 L146 -178 C155 -178 160 -172 165 -163 C223 -3 258 153 280 312 L280 312 Z " />
<glyph glyph-name="asterisk" unicode="&#x2a;" horiz-adv-x="493" d="M308 439 L364 359 C366 357 369 355 375 355 C377 355 382 356 384 358 L441 402 C443 404 448 408 449 414 C449 417 449 420 446 423 L395 494 L489 552 C494 556 496 559 497 563 C497 565 496 569 495 572 L466 627 C463 630 459 633 455 633 C452 633 449 632 446 630 L377 590 L391 686 C392 694 387 700 378 700 L311 700 C302 700 295 694 294 686 L280 590 L223 630 C220 632 217 633 214 633 C210 633 206 630 203 627 L158 572 C155 569 154 565 154 563 C153 559 155 556 158 552 L236 494 L165 423 C162 420 160 417 160 414 C159 408 162 404 164 402 L209 358 C211 356 214 355 216 355 C222 355 227 357 229 359 L308 439 Z " />
<glyph glyph-name="plus" unicode="&#x2b;" horiz-adv-x="401" d="M155 84 C154 75 159 69 168 69 L251 69 C260 69 267 75 268 84 L283 191 L337 191 C346 191 353 197 354 206 L365 278 C366 287 361 293 352 293 L298 293 L313 402 C314 411 309 417 300 417 L217 417 C208 417 201 411 200 402 L185 293 L131 293 C122 293 115 287 114 278 L103 206 C102 197 107 191 116 191 L170 191 L155 84 Z " />
<glyph glyph-name="comma" unicode="&#x2c;" horiz-adv-x="320" d="M155 -109 C164 -109 172 -102 175 -94 L253 63 C255 72 250 78 240 78 L159 78 C151 78 144 71 139 63 L61 -94 C60 -103 66 -109 74 -109 L155 -109 Z " />
<glyph glyph-name="hyphen" unicode="&#x2d;" horiz-adv-x="358" d="M294 191 C303 191 310 197 311 206 L322 278 C323 287 318 293 309 293 L131 293 C122 293 115 287 114 278 L103 206 C102 197 107 191 116 191 L294 191 Z " />
<glyph glyph-name="period" unicode="&#x2e;" horiz-adv-x="269" d="M76 10 C75 1 80 -5 89 -5 L178 -5 C187 -5 194 1 195 10 L208 102 C209 111 204 117 195 117 L106 117 C97 117 90 111 89 102 L76 10 Z " />
<glyph glyph-name="slash" unicode="&#x2f;" horiz-adv-x="569" d="M51 -164 C50 -173 55 -179 64 -179 L147 -179 C154 -179 160 -176 162 -171 L604 789 C606 798 600 804 591 804 L508 804 C501 804 496 801 493 796 C356 495 191 139 51 -164 L51 -164 Z " />
<glyph glyph-name="zero" unicode="0" horiz-adv-x="544" d="M331 705 C236 705 153 631 140 539 L87 161 C74 69 136 -5 231 -5 L311 -5 C406 -5 488 69 501 161 L554 539 C567 631 506 705 411 705 L331 705 Z M387 603 C423 603 446 570 440 531 L389 169 C384 129 352 97 316 97 L254 97 C218 97 196 129 201 169 L252 531 C258 570 289 603 325 603 L387 603 Z " />
<glyph glyph-name="one" unicode="1" horiz-adv-x="497" d="M303 593 L234 102 L115 102 C106 102 99 96 98 87 L88 15 C86 6 92 0 101 0 L452 0 C461 0 467 6 469 15 L479 87 C480 96 475 102 466 102 L346 102 L428 685 C429 694 424 700 415 700 L308 700 L154 642 C148 640 144 635 143 628 L132 550 C131 541 136 535 145 535 L303 593 Z " />
<glyph glyph-name="two" unicode="2" horiz-adv-x="516" d="M127 512 C126 503 131 497 140 497 L223 497 C232 497 239 503 240 512 L243 531 C249 570 276 603 312 603 L373 603 C409 603 428 570 422 531 L414 476 C389 294 117 443 75 148 L57 15 C55 6 61 0 70 0 L445 0 C454 0 460 6 462 15 L472 87 C473 96 468 102 459 102 L182 102 L190 159 C215 341 488 194 529 488 L536 539 C549 631 491 705 396 705 L317 705 C223 705 144 631 131 539 L127 512 Z " />
<glyph glyph-name="three" unicode="3" horiz-adv-x="525" d="M260 312 C259 303 264 297 273 297 L334 297 C370 297 389 266 383 225 L375 169 C370 130 342 97 306 97 L245 97 C209 97 191 130 196 169 L199 188 C200 197 195 203 186 203 L103 203 C94 203 87 197 86 188 L82 161 C69 69 128 -5 223 -5 L301 -5 C396 -5 474 69 487 161 L497 234 C503 275 480 317 450 350 C489 383 524 425 530 466 L540 539 C553 631 496 705 401 705 L323 705 C228 705 148 631 135 539 L131 512 C130 503 135 497 144 497 L227 497 C236 497 243 503 244 512 L247 531 C253 570 280 603 316 603 L377 603 C413 603 432 570 426 531 L418 475 C412 434 385 403 349 403 L288 403 C279 403 272 397 271 388 L260 312 Z " />
<glyph glyph-name="four" unicode="4" horiz-adv-x="525" d="M461 685 C462 694 457 700 448 700 L358 700 C350 700 344 693 340 685 L65 217 L58 164 C56 155 61 149 70 149 L330 149 L312 15 C310 6 316 0 325 0 L408 0 C417 0 423 6 425 15 L443 149 L495 149 C504 149 511 155 513 164 L523 236 C524 245 519 251 510 251 L458 251 L484 435 C485 444 480 450 471 450 L388 450 C379 450 372 444 371 435 L345 251 L208 251 L461 685 Z " />
<glyph glyph-name="five" unicode="5" horiz-adv-x="534" d="M203 184 C205 193 199 199 190 199 L107 199 C98 199 92 193 90 184 L87 161 C74 69 142 -5 237 -5 L305 -5 C400 -5 488 69 501 161 L516 266 C529 357 461 431 366 431 L306 431 C290 431 260 429 235 410 L262 598 L500 598 C509 598 515 604 517 613 L527 685 C528 694 523 700 514 700 L178 700 C169 700 162 694 161 685 L108 308 C107 299 112 293 121 293 L198 293 C207 293 213 295 222 306 C235 324 260 330 277 330 L343 330 C379 330 407 297 402 258 L389 169 C384 129 346 97 310 97 L260 97 C224 97 196 129 201 169 L203 184 Z " />
<glyph glyph-name="six" unicode="6" horiz-adv-x="536" d="M545 539 C558 631 490 705 395 705 L338 705 C243 705 153 631 140 539 L87 161 C74 69 143 -5 238 -5 L307 -5 C401 -5 490 69 503 161 L518 264 C530 355 462 429 368 429 L306 429 C291 429 266 428 234 400 L252 532 C258 572 295 603 331 603 L372 603 C408 603 437 572 431 532 L429 515 C428 506 433 500 442 500 L525 500 C534 500 541 506 542 515 L545 539 Z M260 97 C224 97 196 130 201 169 L213 255 C219 295 256 327 292 327 L344 327 C380 327 409 295 403 255 L391 169 C386 130 348 97 312 97 L260 97 Z " />
<glyph glyph-name="seven" unicode="7" horiz-adv-x="454" d="M117 15 C115 6 121 0 130 0 L212 0 C221 0 227 6 229 15 C281 207 351 405 497 591 L510 685 C511 694 506 700 497 700 L153 700 C144 700 137 694 136 685 L126 613 C124 604 130 598 139 598 L394 598 C246 413 169 198 117 15 L117 15 Z " />
<glyph glyph-name="eight" unicode="8" horiz-adv-x="537" d="M454 357 C495 386 521 427 526 463 L536 539 C549 631 492 705 397 705 L338 705 C243 705 164 631 151 539 L141 463 C136 427 150 386 183 357 C126 324 99 278 92 233 L82 161 C69 69 127 -5 221 -5 L314 -5 C408 -5 486 69 499 161 L509 233 C516 278 501 324 454 357 L454 357 Z M263 532 C269 571 296 603 332 603 L373 603 C409 603 428 571 422 532 L414 470 C408 430 380 398 344 398 L303 398 C267 398 249 430 255 470 L263 532 Z M387 169 C382 129 354 97 318 97 L245 97 C209 97 191 129 196 169 L204 225 C210 265 237 297 273 297 L344 297 C382 297 401 265 395 225 L387 169 Z " />
<glyph glyph-name="nine" unicode="9" horiz-adv-x="536" d="M88 161 C75 69 144 -5 239 -5 L296 -5 C391 -5 480 69 493 161 L546 539 C559 631 491 705 396 705 L327 705 C233 705 143 631 130 539 L116 436 C103 345 172 271 266 271 L328 271 C343 271 368 272 400 300 L381 168 C375 128 338 97 302 97 L261 97 C225 97 196 128 202 168 L205 185 C206 194 201 200 192 200 L109 200 C100 200 93 194 92 185 L88 161 Z M373 603 C409 603 438 570 432 531 L420 445 C414 405 377 373 341 373 L289 373 C253 373 224 405 230 445 L242 531 C248 570 285 603 321 603 L373 603 Z " />
<glyph glyph-name="colon" unicode="&#x3a;" horiz-adv-x="269" d="M76 10 C75 1 80 -5 89 -5 L178 -5 C187 -5 194 1 195 10 L208 102 C209 111 204 117 195 117 L106 117 C97 117 90 111 89 102 L76 10 Z M119 320 C118 311 123 305 132 305 L221 305 C230 305 237 311 238 320 L251 412 C253 421 248 427 239 427 L150 427 C141 427 134 421 132 412 L119 320 Z " />
<glyph glyph-name="semicolon" unicode="&#x3b;" horiz-adv-x="320" d="M155 -109 C164 -109 172 -102 175 -94 L253 63 C255 72 250 78 240 78 L159 78 C151 78 144 71 139 63 L61 -94 C60 -103 66 -109 74 -109 L155 -109 Z M168 320 C167 311 172 305 181 305 L270 305 C279 305 286 311 287 320 L300 412 C302 421 297 427 288 427 L199 427 C190 427 183 421 181 412 L168 320 Z " />
<glyph glyph-name="less" unicode="&#x3c;" horiz-adv-x="355" d="M98 169 C97 161 102 154 110 152 L278 89 C286 89 293 95 294 104 L305 178 C306 187 301 193 293 196 L201 227 L203 236 L303 267 C311 270 318 276 320 285 L330 359 C331 367 326 373 318 373 L132 310 C124 308 117 302 116 293 L98 169 Z " />
<glyph glyph-name="equal" unicode="&#x3d;" horiz-adv-x="353" d="M302 283 C311 283 318 289 319 298 L330 370 C331 379 326 385 317 385 L144 385 C135 385 128 379 127 370 L116 298 C115 289 120 283 129 283 L302 283 Z M275 91 C284 91 291 97 292 106 L303 178 C304 187 299 193 290 193 L117 193 C108 193 101 187 100 178 L89 106 C88 97 93 91 102 91 L275 91 Z " />
<glyph glyph-name="greater" unicode="&#x3e;" horiz-adv-x="355" d="M321 293 C322 302 317 308 309 310 L141 373 C133 373 126 367 125 359 L115 285 C113 276 118 270 126 267 L218 236 L216 227 L116 196 C108 193 101 187 100 178 L89 104 C88 95 93 89 101 89 L287 152 C295 154 302 161 303 169 L321 293 Z " />
<glyph glyph-name="question" unicode="&#x3f;" horiz-adv-x="554" d="M207 188 C206 179 211 173 220 173 L303 173 C312 173 319 179 320 188 L321 198 C346 372 510 225 548 493 L554 539 C567 631 509 705 414 705 L336 705 C242 705 163 631 150 539 L143 488 C142 479 147 473 156 473 L239 473 C248 473 255 479 256 488 L262 531 C268 570 295 603 331 603 L391 603 C427 603 446 570 440 531 L435 497 C411 323 246 467 209 202 L207 188 Z M179 10 C178 1 183 -5 192 -5 L281 -5 C290 -5 297 1 298 10 L310 97 C311 106 306 112 297 112 L208 112 C199 112 192 106 191 97 L179 10 Z " />
<glyph glyph-name="at" unicode="&#x40;" horiz-adv-x="706" d="M706 534 C718 626 651 700 556 700 L349 700 C254 700 162 626 150 534 L81 47 C68 -45 138 -118 232 -118 L418 -118 C427 -118 434 -112 435 -103 L445 -31 C446 -22 441 -16 432 -16 L254 -16 C218 -16 190 16 196 57 L261 526 C267 565 307 598 343 598 L533 598 C569 598 597 565 591 526 L583 465 L575 465 C558 495 526 504 505 504 L469 504 C379 504 339 439 327 352 L308 217 C296 130 318 65 408 65 L444 65 C465 65 499 74 524 104 L532 104 L529 85 C528 76 533 70 542 70 L625 70 C634 70 641 76 642 85 L706 534 Z M548 220 C544 192 524 167 497 167 L458 167 C431 167 417 192 421 220 L440 349 C443 377 464 402 491 402 L530 402 C557 402 570 377 567 349 L548 220 Z " />
<glyph glyph-name="A" unicode="A" horiz-adv-x="559" d="M317 700 C308 700 303 693 299 684 L32 15 C30 6 36 0 45 0 L126 0 C135 0 141 6 145 15 L186 121 L407 121 L418 15 C418 6 424 0 433 0 L514 0 C523 0 529 6 531 15 L452 684 C450 693 447 700 438 700 L317 700 Z M349 542 L362 542 L395 223 L225 223 L349 542 Z " />
<glyph glyph-name="B" unicode="B" horiz-adv-x="525" d="M307 0 C402 0 490 74 503 166 L512 232 C519 282 493 331 458 365 C483 392 510 433 515 468 L525 534 C537 626 470 700 375 700 L188 700 C179 700 172 694 171 685 L77 15 C75 6 81 0 90 0 L307 0 Z M244 399 L272 598 L352 598 C388 598 416 565 410 526 L403 471 C397 431 360 399 324 399 L244 399 Z M340 301 C376 301 404 268 399 229 L391 174 C385 134 348 102 312 102 L202 102 L230 301 L340 301 Z " />
<glyph glyph-name="C" unicode="C" horiz-adv-x="529" d="M507 201 C508 210 503 216 494 216 L411 216 C402 216 395 210 394 201 L389 169 C384 129 352 97 316 97 L254 97 C218 97 196 129 201 169 L252 531 C258 570 289 603 325 603 L387 603 C423 603 446 570 440 531 L435 494 C434 485 439 479 448 479 L531 479 C540 479 547 485 548 494 L554 539 C566 625 510 705 415 705 L327 705 C232 705 152 625 140 539 L87 161 C75 75 132 -5 227 -5 L315 -5 C410 -5 489 75 501 161 L507 201 Z " />
<glyph glyph-name="D" unicode="D" horiz-adv-x="554" d="M392 598 C428 598 456 565 450 526 L401 174 C395 134 358 102 322 102 L202 102 L272 598 L392 598 Z M188 700 C179 700 172 694 171 685 L77 15 C75 6 81 0 90 0 L316 0 C411 0 499 74 512 166 L564 534 C576 626 509 700 414 700 L188 700 Z " />
<glyph glyph-name="E" unicode="E" horiz-adv-x="479" d="M202 102 L231 312 L418 312 C427 312 434 318 435 327 L446 399 C447 408 442 414 433 414 L246 414 L272 598 L483 598 C492 598 498 604 500 613 L510 685 C511 694 506 700 497 700 L188 700 C179 700 172 694 171 685 L77 15 C75 6 81 0 90 0 L399 0 C408 0 414 6 416 15 L426 87 C427 96 422 102 413 102 L202 102 Z " />
<glyph glyph-name="F" unicode="F" horiz-adv-x="449" d="M497 700 L188 700 C179 700 172 694 171 685 L77 15 C75 6 81 0 90 0 L173 0 C182 0 188 6 190 15 L228 285 L415 285 C424 285 430 291 432 300 L442 372 C443 381 438 387 429 387 L242 387 L272 598 L483 598 C492 598 498 604 500 613 L510 685 C511 694 506 700 497 700 L497 700 Z " />
<glyph glyph-name="G" unicode="G" horiz-adv-x="544" d="M389 169 C384 129 352 97 316 97 L254 97 C218 97 196 129 201 169 L252 531 C258 570 289 603 325 603 L387 603 C423 603 446 570 440 531 L435 494 C434 485 439 479 448 479 L531 479 C540 479 547 485 548 494 L554 539 C566 625 510 705 415 705 L327 705 C232 705 152 625 140 539 L87 161 C75 75 132 -5 227 -5 L315 -5 C410 -5 489 75 501 161 L531 375 C532 384 527 390 518 390 L325 390 C316 390 309 384 308 375 L298 303 C297 294 302 288 311 288 L406 288 L389 169 Z " />
<glyph glyph-name="H" unicode="H" horiz-adv-x="558" d="M372 15 C370 6 376 0 385 0 L468 0 C477 0 483 6 485 15 L579 685 C580 694 575 700 566 700 L483 700 C474 700 467 694 466 685 L424 390 L242 390 L284 685 C285 694 280 700 271 700 L188 700 C179 700 172 694 171 685 L77 15 C75 6 81 0 90 0 L173 0 C182 0 188 6 190 15 L228 288 L410 288 L372 15 Z " />
<glyph glyph-name="I" unicode="I" horiz-adv-x="263" d="M77 15 C75 6 81 0 90 0 L173 0 C182 0 188 6 190 15 L284 685 C285 694 280 700 271 700 L188 700 C179 700 172 694 171 685 L77 15 Z " />
<glyph glyph-name="J" unicode="J" horiz-adv-x="396" d="M17 56 C38 31 65 -5 147 -5 C284 -5 352 81 364 170 L437 685 C438 694 433 700 424 700 L341 700 C332 700 325 694 324 685 L252 172 C250 163 241 97 165 97 C133 97 125 102 102 126 C99 128 96 129 92 129 C88 129 84 128 80 126 L20 77 C17 73 14 70 14 66 C13 62 15 59 17 56 L17 56 Z " />
<glyph glyph-name="K" unicode="K" horiz-adv-x="523" d="M434 348 L583 685 C584 694 579 700 570 700 L490 700 C481 700 475 693 470 685 L343 398 L243 398 L284 685 C285 694 280 700 271 700 L188 700 C179 700 172 694 171 685 L77 15 C75 6 81 0 90 0 L173 0 C182 0 188 6 190 15 L230 301 L331 301 L377 15 C379 7 384 0 393 0 L472 0 C481 0 487 6 489 15 L434 348 Z " />
<glyph glyph-name="L" unicode="L" horiz-adv-x="448" d="M398 0 C407 0 413 6 415 15 L425 87 C426 96 421 102 412 102 L202 102 L284 685 C285 694 280 700 271 700 L188 700 C179 700 172 694 171 685 L77 15 C75 6 81 0 90 0 L398 0 Z " />
<glyph glyph-name="M" unicode="M" horiz-adv-x="719" d="M406 100 C413 100 418 104 421 110 L578 405 L587 405 L533 15 C531 6 537 0 546 0 L629 0 C638 0 644 6 646 15 L740 685 C741 694 736 700 727 700 L626 700 C617 700 610 693 605 685 L407 308 L398 308 L306 685 C303 693 298 700 289 700 L188 700 C179 700 172 694 171 685 L77 15 C75 6 81 0 90 0 L173 0 C182 0 188 6 190 15 L244 405 L253 405 L328 110 C329 104 334 100 341 100 L406 100 Z " />
<glyph glyph-name="N" unicode="N" horiz-adv-x="594" d="M374 15 C377 6 383 0 392 0 L504 0 C513 0 519 6 521 15 L615 685 C616 694 611 700 602 700 L519 700 C510 700 503 694 502 685 L441 253 L432 253 L318 685 C314 694 309 700 300 700 L188 700 C179 700 172 694 171 685 L77 15 C75 6 81 0 90 0 L173 0 C182 0 188 6 190 15 L251 449 L260 449 L374 15 Z " />
<glyph glyph-name="O" unicode="O" horiz-adv-x="544" d="M331 705 C236 705 153 631 140 539 L87 161 C74 69 136 -5 231 -5 L311 -5 C406 -5 488 69 501 161 L554 539 C567 631 506 705 411 705 L331 705 Z M387 603 C423 603 446 570 440 531 L389 169 C384 129 352 97 316 97 L254 97 C218 97 196 129 201 169 L252 531 C258 570 289 603 325 603 L387 603 Z " />
<glyph glyph-name="P" unicode="P" horiz-adv-x="536" d="M231 313 L272 598 L383 598 C419 598 447 565 441 526 L422 385 C416 345 378 313 342 313 L231 313 Z M188 700 C179 700 172 694 171 685 L77 15 C75 6 81 0 90 0 L173 0 C182 0 188 6 190 15 L217 211 L337 211 C432 211 521 285 533 377 L556 534 C568 626 501 700 406 700 L188 700 Z " />
<glyph glyph-name="Q" unicode="Q" horiz-adv-x="544" d="M411 705 L331 705 C236 705 153 631 140 539 L87 161 C75 76 128 6 212 -4 L242 -101 C244 -110 251 -118 261 -118 L335 -118 C344 -118 352 -111 353 -101 L326 -4 C415 3 489 74 501 161 L554 539 C567 631 506 705 411 705 L411 705 Z M389 169 C384 129 352 97 316 97 L254 97 C218 97 196 129 201 169 L252 531 C258 570 289 603 325 603 L387 603 C423 603 446 570 440 531 L389 169 Z " />
<glyph glyph-name="R" unicode="R" horiz-adv-x="536" d="M421 230 C480 258 524 313 533 377 L556 534 C568 626 501 700 406 700 L188 700 C179 700 172 694 171 685 L77 15 C75 6 81 0 90 0 L173 0 C182 0 188 6 190 15 L217 211 L307 211 L370 15 C372 6 376 0 385 0 L476 0 C485 0 491 6 493 15 L421 230 Z M272 598 L383 598 C419 598 447 565 441 526 L422 385 C416 345 378 313 342 313 L231 313 L272 598 Z " />
<glyph glyph-name="S" unicode="S" horiz-adv-x="510" d="M67 161 C54 69 123 -5 217 -5 L286 -5 C381 -5 469 69 482 161 L484 177 C526 472 203 323 228 504 L232 531 C238 570 274 603 310 603 L353 603 C389 603 417 570 411 531 L408 512 C407 503 412 497 421 497 L504 497 C513 497 520 503 521 512 L525 539 C538 631 470 705 376 705 L317 705 C223 705 133 631 120 539 L117 517 C76 223 399 373 373 189 L370 169 C365 129 327 97 291 97 L239 97 C203 97 176 129 181 169 L185 194 C186 203 181 209 172 209 L89 209 C80 209 73 203 72 194 L67 161 Z " />
<glyph glyph-name="T" unicode="T" horiz-adv-x="483" d="M269 598 L187 15 C185 6 191 0 200 0 L283 0 C292 0 298 6 300 15 L382 598 L512 598 C521 598 527 604 529 613 L539 685 C540 694 535 700 526 700 L153 700 C144 700 137 694 136 685 L126 613 C124 604 130 598 139 598 L269 598 Z " />
<glyph glyph-name="U" unicode="U" horiz-adv-x="554" d="M394 169 C389 129 361 97 325 97 L255 97 C219 97 201 129 206 169 L279 685 C280 694 275 700 266 700 L183 700 C174 700 167 694 166 685 L92 161 C79 69 137 -5 232 -5 L320 -5 C415 -5 493 69 506 161 L580 685 C581 694 576 700 567 700 L484 700 C475 700 468 694 467 685 L394 169 Z " />
<glyph glyph-name="V" unicode="V" horiz-adv-x="559" d="M340 0 C349 0 353 7 358 16 L625 685 C626 694 621 700 612 700 L531 700 C522 700 515 694 512 685 L308 158 L295 158 L239 685 C238 694 233 700 224 700 L143 700 C134 700 127 694 126 685 L205 16 C206 7 210 0 219 0 L340 0 Z " />
<glyph glyph-name="W" unicode="W" horiz-adv-x="740" d="M434 700 C425 700 418 694 415 685 L249 192 L239 685 C239 694 233 700 224 700 L143 700 C134 700 127 694 126 685 L149 15 C149 6 154 0 163 0 L275 0 C284 0 290 6 294 15 L430 427 L450 15 C450 6 456 0 465 0 L577 0 C586 0 591 6 595 15 L806 685 C807 694 802 700 793 700 L712 700 C703 700 695 694 693 685 L543 192 L517 685 C516 694 511 700 502 700 L434 700 Z " />
<glyph glyph-name="X" unicode="X" horiz-adv-x="524" d="M310 401 L246 685 C243 693 236 700 227 700 L148 700 C139 700 132 694 131 685 L203 350 L37 15 C35 6 41 0 50 0 L131 0 C140 0 148 7 154 15 L297 299 L311 299 L374 15 C376 7 384 0 393 0 L474 0 C483 0 489 6 491 15 L419 350 L585 685 C586 694 581 700 572 700 L493 700 C484 700 475 693 470 685 L326 401 L310 401 Z " />
<glyph glyph-name="Y" unicode="Y" horiz-adv-x="533" d="M354 222 L604 685 C605 694 600 700 591 700 L512 700 C503 700 495 693 490 685 L324 370 L313 370 L235 685 C232 693 226 700 217 700 L138 700 C129 700 122 694 121 685 L241 222 L212 15 C210 6 216 0 225 0 L308 0 C317 0 323 6 325 15 L354 222 Z " />
<glyph glyph-name="Z" unicode="Z" horiz-adv-x="478" d="M510 615 C512 619 515 624 516 629 L524 685 C525 694 520 700 511 700 L163 700 C154 700 147 694 146 685 L136 613 C134 604 140 598 149 598 L378 598 L65 85 C63 81 60 76 59 71 L52 15 C50 6 56 0 65 0 L413 0 C422 0 428 6 430 15 L440 87 C441 96 436 102 427 102 L199 102 L510 615 Z " />
<glyph glyph-name="bracketleft" unicode="&#x5b;" horiz-adv-x="390" d="M203 805 C194 805 187 799 186 790 L52 -162 C50 -171 56 -177 65 -177 L275 -177 C284 -177 290 -171 292 -162 L302 -90 C303 -81 298 -75 289 -75 L177 -75 L286 703 L398 703 C407 703 414 709 415 718 L426 790 C427 799 422 805 413 805 L203 805 Z " />
<glyph glyph-name="backslash" unicode="&#x5c;" horiz-adv-x="569" d="M470 -164 C416 139 351 495 298 796 C297 801 292 804 285 804 L202 804 C193 804 187 798 185 789 L357 -171 C359 -176 363 -179 370 -179 L453 -179 C462 -179 469 -173 470 -164 L470 -164 Z " />
<glyph glyph-name="bracketright" unicode="&#x5d;" horiz-adv-x="390" d="M203 805 C194 805 187 799 186 790 L175 718 C174 709 179 703 188 703 L300 703 L191 -75 L79 -75 C70 -75 63 -81 62 -90 L52 -162 C50 -171 56 -177 65 -177 L275 -177 C284 -177 290 -171 292 -162 L426 790 C427 799 422 805 413 805 L203 805 Z " />
<glyph glyph-name="asciicircum" unicode="&#x5e;" horiz-adv-x="428" d="M270 700 C261 700 255 694 250 685 L148 524 C147 516 151 511 160 511 L228 511 C235 511 242 517 246 524 L299 608 L328 524 C330 517 335 511 342 511 L410 511 C419 511 425 516 426 524 L370 685 C367 694 363 700 354 700 L270 700 Z " />
<glyph glyph-name="underscore" unicode="&#x5f;" horiz-adv-x="358" d="M247 -144 C256 -144 263 -138 264 -129 L274 -57 C276 -48 271 -42 262 -42 L84 -42 C75 -42 68 -48 66 -57 L56 -129 C55 -138 60 -144 69 -144 L247 -144 Z " />
<glyph glyph-name="grave" unicode="&#x60;" horiz-adv-x="320" d="M304 534 C314 534 320 540 322 550 L281 684 C278 693 273 700 264 700 L189 700 C180 700 172 694 171 684 L212 550 C215 541 220 534 229 534 L304 534 Z " />
<glyph glyph-name="a" unicode="a" horiz-adv-x="453" d="M218 97 C191 97 185 122 189 150 L191 165 C195 193 208 218 235 218 L310 218 L301 150 C297 122 283 97 256 97 L218 97 Z M170 498 C163 495 159 491 158 484 C157 482 156 476 164 413 C165 403 172 403 180 403 C217 413 236 418 275 418 C332 418 330 361 326 332 L324 315 L241 315 C152 315 92 266 80 181 L73 129 C61 44 89 -5 178 -5 L196 -5 C238 -5 255 8 276 32 L284 32 L282 15 C280 6 286 0 295 0 L378 0 C387 0 393 6 395 15 L439 333 C446 380 465 520 306 520 C226 520 196 508 170 498 L170 498 Z " />
<glyph glyph-name="b" unicode="b" horiz-adv-x="483" d="M239 365 C243 393 263 418 290 418 L329 418 C356 418 370 393 366 365 L336 150 C332 122 311 97 284 97 L245 97 C218 97 205 122 209 150 L239 365 Z M77 15 C75 6 81 0 90 0 L173 0 C182 0 188 6 190 15 L192 34 L200 34 C217 4 249 -5 270 -5 L306 -5 C396 -5 436 60 448 147 L479 368 C491 455 470 520 380 520 L344 520 C323 520 288 511 263 481 L255 481 L284 685 C285 694 280 700 271 700 L188 700 C179 700 172 694 171 685 L77 15 Z " />
<glyph glyph-name="c" unicode="c" horiz-adv-x="439" d="M307 150 C303 122 282 97 255 97 L230 97 C203 97 190 122 194 150 L224 365 C228 393 248 418 275 418 L300 418 C327 418 341 393 337 365 L335 351 C334 342 339 336 348 336 L431 336 C440 336 447 342 448 351 L450 369 C461 444 424 520 333 520 L272 520 C182 520 122 444 111 369 L80 146 C69 71 108 -5 198 -5 L259 -5 C350 -5 408 71 419 146 L422 164 C423 173 418 179 409 179 L326 179 C317 179 310 173 309 164 L307 150 Z " />
<glyph glyph-name="d" unicode="d" horiz-adv-x="483" d="M316 150 C312 122 291 97 264 97 L225 97 C198 97 185 122 189 150 L219 365 C223 393 243 418 270 418 L309 418 C336 418 350 393 346 365 L316 150 Z M504 685 C505 694 500 700 491 700 L408 700 C399 700 392 694 391 685 L362 481 L354 481 C337 511 306 520 285 520 L249 520 C159 520 118 455 106 368 L75 147 C63 60 85 -5 175 -5 L211 -5 C232 -5 266 4 291 34 L299 34 L297 15 C295 6 301 0 310 0 L393 0 C402 0 408 6 410 15 L504 685 Z " />
<glyph glyph-name="e" unicode="e" horiz-adv-x="454" d="M224 365 C228 393 248 418 275 418 L300 418 C327 418 341 393 337 365 L328 302 L215 302 L224 365 Z M390 64 C393 67 394 70 395 73 C395 77 393 81 390 84 L344 126 C341 128 339 129 336 129 C331 129 327 126 323 123 C308 111 296 97 263 97 L230 97 C203 97 190 122 194 150 L202 208 L413 208 C422 208 429 214 430 223 L450 369 C461 444 425 520 334 520 L271 520 C181 520 122 444 111 369 L80 146 C69 71 107 -5 197 -5 L249 -5 C249 -5 333 -5 390 64 L390 64 Z " />
<glyph glyph-name="f" unicode="f" horiz-adv-x="347" d="M382 642 C391 642 398 648 399 657 L409 729 C410 738 405 744 396 744 L353 744 C263 744 199 668 183 593 L172 515 L117 515 C108 515 101 509 100 500 L90 428 C88 419 94 413 103 413 L158 413 L102 15 C100 6 106 0 115 0 L198 0 C207 0 213 6 215 15 L271 413 L350 413 C359 413 365 419 367 428 L377 500 C378 509 373 515 364 515 L285 515 L295 589 C299 617 330 642 357 642 L382 642 Z " />
<glyph glyph-name="g" unicode="g" horiz-adv-x="483" d="M291 -27 C286 -58 279 -101 194 -101 C156 -101 145 -96 120 -90 C113 -90 106 -90 100 -100 C77 -162 76 -169 75 -171 C74 -178 78 -181 85 -184 C109 -193 121 -203 197 -203 C373 -203 397 -74 404 -28 L478 500 C479 509 474 515 465 515 L382 515 C373 515 366 509 365 500 L362 481 L354 481 C337 511 306 520 285 520 L249 520 C159 520 118 455 106 368 L75 147 C63 60 85 -5 175 -5 L211 -5 C232 -5 266 4 291 34 L299 34 L291 -27 Z M316 150 C312 122 291 97 264 97 L225 97 C198 97 185 122 189 150 L219 365 C223 393 243 418 270 418 L309 418 C336 418 350 393 346 365 L316 150 Z " />
<glyph glyph-name="h" unicode="h" horiz-adv-x="486" d="M320 418 C351 418 364 402 358 358 L310 15 C308 6 314 0 323 0 L406 0 C415 0 421 6 423 15 L472 368 C484 455 475 520 390 520 L367 520 C346 520 298 519 260 461 L252 461 L284 685 C285 694 280 700 271 700 L188 700 C179 700 172 694 171 685 L77 15 C75 6 81 0 90 0 L173 0 C182 0 188 6 190 15 L237 352 C262 405 297 418 314 418 L320 418 Z " />
<glyph glyph-name="i" unicode="i" horiz-adv-x="263" d="M77 15 C75 6 81 0 90 0 L173 0 C182 0 188 6 190 15 L258 500 C259 509 254 515 245 515 L162 515 C153 515 146 509 145 500 L77 15 Z M155 593 C154 584 159 578 168 578 L257 578 C266 578 273 584 274 593 L287 685 C288 694 283 700 274 700 L185 700 C176 700 169 694 168 685 L155 593 Z " />
<glyph glyph-name="j" unicode="j" horiz-adv-x="263" d="M12 -184 C42 -173 170 -124 189 10 L258 500 C259 509 254 515 245 515 L162 515 C153 515 146 509 145 500 L77 15 C77 15 67 -50 -16 -81 C-22 -83 -26 -89 -27 -94 C-27 -96 -26 -98 -26 -100 L-5 -177 C-3 -183 0 -185 4 -185 C6 -185 9 -185 12 -184 L12 -184 Z M155 593 C154 584 159 578 168 578 L257 578 C266 578 273 584 274 593 L287 685 C288 694 283 700 274 700 L185 700 C176 700 169 694 168 685 L155 593 Z " />
<glyph glyph-name="k" unicode="k" horiz-adv-x="461" d="M405 271 L506 500 C507 509 502 515 493 515 L413 515 C404 515 394 509 390 500 L312 322 L233 322 L284 685 C285 694 280 700 271 700 L188 700 C179 700 172 694 171 685 L77 15 C75 6 81 0 90 0 L173 0 C182 0 188 6 190 15 L218 220 L296 220 L322 15 C322 6 332 0 341 0 L421 0 C430 0 436 6 438 15 L405 271 Z " />
<glyph glyph-name="l" unicode="l" horiz-adv-x="263" d="M77 15 C75 6 81 0 90 0 L173 0 C182 0 188 6 190 15 L284 685 C285 694 280 700 271 700 L188 700 C179 700 172 694 171 685 L77 15 Z " />
<glyph glyph-name="m" unicode="m" horiz-adv-x="693" d="M457 352 C480 398 503 418 527 418 C564 418 570 394 564 352 L517 15 C515 6 521 0 530 0 L613 0 C622 0 628 6 630 15 L679 368 C691 455 665 520 576 520 C555 520 506 520 456 461 L447 461 C428 497 416 520 364 520 C342 520 309 520 259 461 L252 461 L258 500 C259 509 254 515 245 515 L162 515 C153 515 146 509 145 500 L77 15 C75 6 81 0 90 0 L173 0 C182 0 188 6 190 15 L237 352 C260 398 283 418 307 418 C344 418 350 394 344 352 L297 15 C295 6 301 0 310 0 L393 0 C402 0 408 6 410 15 L457 352 Z " />
<glyph glyph-name="n" unicode="n" horiz-adv-x="486" d="M320 418 C351 418 364 402 358 358 L310 15 C308 6 314 0 323 0 L406 0 C415 0 421 6 423 15 L472 368 C484 455 475 520 390 520 L367 520 C346 520 298 519 260 461 L252 461 L258 500 C259 509 254 515 245 515 L162 515 C153 515 146 509 145 500 L77 15 C75 6 81 0 90 0 L173 0 C182 0 188 6 190 15 L237 352 C262 405 297 418 314 418 L320 418 Z " />
<glyph glyph-name="o" unicode="o" horiz-adv-x="459" d="M273 520 C183 520 122 444 111 369 L80 146 C69 71 109 -5 199 -5 L258 -5 C348 -5 408 71 419 146 L450 369 C461 444 422 520 332 520 L273 520 Z M300 418 C327 418 341 393 337 365 L307 150 C303 122 282 97 255 97 L230 97 C203 97 190 122 194 150 L224 365 C228 393 248 418 275 418 L300 418 Z " />
<glyph glyph-name="p" unicode="p" horiz-adv-x="483" d="M239 365 C243 393 263 418 290 418 L329 418 C356 418 370 393 366 365 L336 150 C332 122 311 97 284 97 L245 97 C218 97 205 122 209 150 L239 365 Z M52 -159 C51 -168 56 -174 65 -174 L148 -174 C157 -174 164 -168 165 -159 L192 34 L200 34 C217 4 249 -5 270 -5 L306 -5 C396 -5 436 60 448 147 L479 368 C491 455 470 520 380 520 L344 520 C323 520 288 511 263 481 L255 481 L258 500 C259 509 254 515 245 515 L162 515 C153 515 146 509 145 500 L52 -159 Z " />
<glyph glyph-name="q" unicode="q" horiz-adv-x="483" d="M316 150 C312 122 291 97 264 97 L225 97 C198 97 185 122 189 150 L219 365 C223 393 243 418 270 418 L309 418 C336 418 350 393 346 365 L316 150 Z M478 500 C479 509 474 515 465 515 L382 515 C373 515 366 509 365 500 L362 481 L354 481 C337 511 306 520 285 520 L249 520 C159 520 118 455 106 368 L75 147 C63 60 85 -5 175 -5 L211 -5 C232 -5 266 4 291 34 L299 34 L272 -159 C271 -168 276 -174 285 -174 L368 -174 C377 -174 384 -168 385 -159 L478 500 Z " />
<glyph glyph-name="r" unicode="r" horiz-adv-x="350" d="M386 515 C370 519 366 520 353 520 C332 520 298 519 260 461 L252 461 L258 500 C259 509 254 515 245 515 L162 515 C153 515 146 509 145 500 L77 15 C75 6 81 0 90 0 L173 0 C182 0 188 6 190 15 L237 352 C279 417 308 418 325 418 C342 418 350 415 362 414 C371 414 378 420 379 429 L395 499 C396 507 394 513 386 515 L386 515 Z " />
<glyph glyph-name="s" unicode="s" horiz-adv-x="433" d="M220 94 C193 94 179 119 183 147 L184 156 C186 165 181 171 172 171 L89 171 C80 171 73 165 71 156 L70 146 C59 71 98 -5 188 -5 L249 -5 C340 -5 396 60 406 134 L408 147 C437 350 201 270 215 365 L216 377 C221 407 240 421 267 421 L284 421 C311 421 324 396 320 368 L319 359 C318 350 323 344 332 344 L415 344 C424 344 431 350 432 359 L433 369 C444 444 406 520 316 520 L262 520 C171 520 114 455 104 381 L103 374 C75 176 309 248 296 154 L294 138 C290 108 271 94 244 94 L220 94 Z " />
<glyph glyph-name="t" unicode="t" horiz-adv-x="342" d="M281 102 C254 102 230 127 234 155 L271 413 L350 413 C359 413 365 419 367 428 L377 500 C378 509 373 515 364 515 L285 515 L309 685 C310 694 305 700 296 700 L213 700 C204 700 197 694 196 685 L172 515 L117 515 C108 515 101 509 100 500 L90 428 C88 419 94 413 103 413 L158 413 L121 151 C116 76 159 0 249 0 L292 0 C301 0 307 6 309 15 L319 87 C320 96 315 102 306 102 L281 102 Z " />
<glyph glyph-name="u" unicode="u" horiz-adv-x="469" d="M312 150 C308 122 287 97 260 97 L235 97 C208 97 195 122 199 150 L248 500 C249 509 244 515 235 515 L152 515 C143 515 136 509 135 500 L85 146 C74 71 114 -5 204 -5 L263 -5 C353 -5 413 71 424 146 L474 500 C475 509 470 515 461 515 L378 515 C369 515 362 509 361 500 L312 150 Z " />
<glyph glyph-name="v" unicode="v" horiz-adv-x="431" d="M284 0 C293 0 298 6 303 15 L481 500 C482 509 477 515 468 515 L388 515 C379 515 372 509 369 500 L237 124 L228 124 L202 500 C201 509 196 515 187 515 L107 515 C98 515 91 509 90 500 L132 15 C133 6 138 0 147 0 L284 0 Z " />
<glyph glyph-name="w" unicode="w" horiz-adv-x="606" d="M344 515 C335 515 328 509 325 500 L222 217 L203 500 C202 509 197 515 188 515 L107 515 C98 515 91 509 90 500 L127 13 C128 4 132 0 141 0 L229 0 C238 0 241 4 245 13 L340 269 L363 13 C365 4 368 0 377 0 L465 0 C474 0 478 4 481 13 L656 500 C657 509 652 515 643 515 L562 515 C553 515 546 509 543 500 L444 217 L421 500 C420 509 415 515 406 515 L344 515 Z " />
<glyph glyph-name="x" unicode="x" horiz-adv-x="419" d="M285 15 C287 7 293 0 302 0 L379 0 C388 0 394 6 396 15 L353 258 L464 500 C465 509 460 515 451 515 L375 515 C366 515 359 508 354 500 L265 309 L240 309 L205 500 C202 508 197 515 188 515 L112 515 C103 515 96 509 95 500 L138 258 L27 15 C25 6 31 0 40 0 L117 0 C126 0 132 7 138 15 L226 207 L251 207 L285 15 Z " />
<glyph glyph-name="y" unicode="y" horiz-adv-x="431" d="M137 -48 C125 -75 103 -101 59 -101 L26 -101 C17 -101 10 -107 9 -116 L0 -188 C-1 -197 3 -203 12 -203 L90 -203 C117 -203 230 -181 293 -10 L481 500 C482 509 477 515 468 515 L388 515 C379 515 372 509 369 500 L237 124 L228 124 L202 500 C201 509 196 515 187 515 L107 515 C98 515 91 509 90 500 L137 -48 Z " />
<glyph glyph-name="z" unicode="z" horiz-adv-x="400" d="M60 85 C58 81 55 75 54 68 L47 15 C45 6 51 0 60 0 L340 0 C349 0 355 6 357 15 L367 87 C368 96 363 102 354 102 L191 102 L411 430 C413 434 416 440 417 447 L425 500 C426 509 421 515 412 515 L132 515 C123 515 116 509 115 500 L105 428 C103 419 109 413 118 413 L281 413 L60 85 Z " />
<glyph glyph-name="braceleft" unicode="&#x7b;" horiz-adv-x="465" d="M113 276 C112 267 117 261 126 261 L152 261 C188 261 217 229 211 189 L183 -12 C170 -104 235 -178 330 -178 L349 -178 C358 -178 365 -172 367 -163 L377 -91 C378 -82 373 -76 364 -76 L353 -76 C317 -76 291 -43 297 -4 L325 196 C331 240 318 280 289 313 C327 346 352 387 358 431 L386 631 C392 670 426 703 462 703 L473 703 C482 703 489 709 490 718 L501 790 C502 799 497 805 488 805 L469 805 C374 805 287 731 274 639 L246 438 C240 398 203 366 167 366 L141 366 C132 366 125 360 124 351 L113 276 Z " />
<glyph glyph-name="bar" unicode="&#x7c;" horiz-adv-x="263" d="M52 -163 C50 -172 55 -178 64 -178 L147 -178 C156 -178 163 -172 165 -163 L299 790 C300 799 295 805 286 805 L203 805 C194 805 187 799 186 790 L52 -163 Z " />
<glyph glyph-name="braceright" unicode="&#x7d;" horiz-adv-x="465" d="M439 351 C440 360 435 366 426 366 L400 366 C364 366 335 398 341 438 L369 639 C382 731 317 805 222 805 L203 805 C194 805 187 799 186 790 L175 718 C174 709 179 703 188 703 L199 703 C235 703 261 670 255 631 L227 431 C221 387 234 346 262 313 C225 280 200 240 194 196 L166 -4 C160 -43 126 -76 90 -76 L79 -76 C70 -76 63 -82 62 -91 L52 -163 C50 -172 55 -178 64 -178 L83 -178 C178 -178 265 -104 278 -12 L306 189 C312 229 349 261 385 261 L411 261 C420 261 427 267 428 276 L439 351 Z " />
<glyph glyph-name="asciitilde" unicode="&#x7e;" horiz-adv-x="392" d="M266 164 C288 164 308 174 333 188 C339 192 344 198 345 205 L336 267 C335 271 331 277 322 277 C320 277 318 277 315 276 C302 271 288 266 280 266 C227 266 241 301 191 301 C169 301 148 291 123 277 C117 273 112 267 111 260 L120 198 C122 194 125 188 134 188 C136 188 138 188 141 189 C155 194 168 199 176 199 C229 199 215 164 266 164 L266 164 Z " />
<glyph glyph-name="uni00A0" unicode="&#xa0;" horiz-adv-x="198" d="" />
<glyph glyph-name="exclamdown" unicode="&#xa1;" horiz-adv-x="263" d="M244 498 C245 507 241 513 232 513 L175 513 C166 513 160 507 157 498 L128 383 L74 -1 C73 -10 78 -16 87 -16 L170 -16 C179 -16 186 -10 187 -1 L241 383 L244 498 Z M159 598 C157 589 162 583 171 583 L254 583 C263 583 270 589 272 598 L284 685 C285 694 280 700 271 700 L188 700 C179 700 172 694 171 685 L159 598 Z " />
<glyph glyph-name="cent" unicode="&#xa2;" horiz-adv-x="564" d="M205 -122 C204 -131 209 -137 218 -137 L301 -137 C310 -137 317 -131 318 -122 L335 -5 C425 0 499 78 511 161 L517 201 C518 210 513 216 504 216 L421 216 C412 216 405 210 404 201 L399 169 C394 129 362 97 326 97 L264 97 C228 97 206 129 211 169 L262 531 C268 570 299 603 335 603 L397 603 C433 603 456 570 450 531 L445 494 C444 485 449 479 458 479 L541 479 C550 479 557 485 558 494 L564 539 C576 622 523 699 435 705 L450 817 C452 826 446 832 437 832 L354 832 C345 832 339 826 337 817 L321 704 C233 696 162 620 150 539 L97 161 C86 79 136 3 222 -4 L205 -122 Z " />
<glyph glyph-name="sterling" unicode="&#xa3;" horiz-adv-x="566" d="M206 380 L143 380 C134 380 127 374 126 365 L116 293 C114 284 120 278 129 278 L192 278 L167 102 L104 102 C95 102 88 96 87 87 L77 15 C75 6 81 0 90 0 L476 0 C485 0 491 6 493 15 L503 87 C504 96 499 102 490 102 L280 102 L305 278 L380 278 C389 278 395 284 397 293 L407 365 C408 374 403 380 394 380 L319 380 L342 545 C346 573 367 598 394 598 L418 598 C445 598 458 573 454 545 L452 531 C451 522 456 516 465 516 L548 516 C557 516 564 522 565 531 L568 549 C578 624 541 700 450 700 L390 700 C300 700 240 624 230 549 L206 380 Z " />
<glyph glyph-name="currency" unicode="&#xa4;" horiz-adv-x="481" d="M249 349 C242 349 232 347 223 346 L211 387 C209 395 206 399 198 399 L145 399 C137 399 130 393 129 385 L154 301 C139 281 127 258 124 239 L113 161 C110 141 116 118 125 98 L76 14 C75 6 81 0 89 0 L142 0 C150 0 154 4 158 12 L182 53 C191 52 200 50 207 50 L287 50 C295 50 304 52 313 53 L325 12 C327 4 331 0 339 0 L392 0 C400 0 406 6 407 14 L382 98 C397 118 409 141 412 161 L423 239 C426 258 420 281 411 301 L460 385 C461 393 456 399 448 399 L395 399 C387 399 382 395 378 387 L354 346 C345 347 337 349 330 349 L249 349 Z M232 121 C210 121 191 142 195 164 L205 235 C208 257 232 278 254 278 L305 278 C327 278 345 257 342 235 L332 164 C328 142 305 121 283 121 L232 121 Z " />
<glyph glyph-name="yen" unicode="&#xa5;" horiz-adv-x="633" d="M482 82 C491 82 498 88 499 97 L508 159 C509 168 504 174 495 174 L397 174 L404 222 L428 267 L508 267 C517 267 524 273 525 282 L534 344 C535 353 530 359 521 359 L478 359 L654 685 C655 694 650 700 641 700 L562 700 C553 700 545 693 540 685 L374 370 L363 370 L285 685 C282 693 276 700 267 700 L188 700 C179 700 172 694 171 685 L255 359 L212 359 C203 359 196 353 195 344 L186 282 C185 273 190 267 199 267 L279 267 L291 222 L284 174 L186 174 C177 174 170 168 169 159 L160 97 C159 88 164 82 173 82 L271 82 L262 15 C260 6 266 0 275 0 L358 0 C367 0 373 6 375 15 L384 82 L482 82 Z " />
<glyph glyph-name="brokenbar" unicode="&#xa6;" horiz-adv-x="263" d="M130 397 C129 388 134 382 143 382 L226 382 C235 382 242 388 243 397 L299 790 C300 799 295 805 286 805 L203 805 C194 805 187 799 186 790 L130 397 Z M52 -163 C50 -172 55 -178 64 -178 L147 -178 C156 -178 163 -172 165 -163 L220 230 C221 239 216 245 207 245 L124 245 C115 245 108 239 107 230 L52 -163 Z " />
<glyph glyph-name="section" unicode="&#xa7;" horiz-adv-x="494" d="M406 220 C434 245 452 279 457 314 L458 327 C488 534 251 454 264 545 L266 557 C270 587 289 601 316 601 L334 601 C361 601 374 576 371 548 L369 539 C368 530 373 524 382 524 L465 524 C474 524 481 530 482 539 L484 549 C494 624 456 700 366 700 L311 700 C220 700 164 635 153 561 L152 554 C145 503 159 469 183 446 C154 420 135 385 129 348 L128 341 C100 139 335 211 323 121 L320 105 C316 75 297 61 270 61 L245 61 C218 61 205 86 209 114 L210 123 C211 132 206 138 197 138 L114 138 C105 138 98 132 97 123 L95 113 C85 38 123 -38 213 -38 L275 -38 C366 -38 422 27 433 101 L435 114 C442 164 429 197 406 220 L406 220 Z M240 332 L242 344 C246 374 265 388 292 388 C351 377 351 366 346 334 L344 318 C340 288 321 274 294 274 C244 287 235 296 240 332 L240 332 Z " />
<glyph glyph-name="dieresis" unicode="&#xa8;" horiz-adv-x="419" d="M159 598 C157 590 163 584 171 584 L256 584 C264 584 270 590 272 598 L284 686 C285 694 280 700 272 700 L187 700 C179 700 172 694 171 686 L159 598 Z M315 598 C313 590 319 584 327 584 L412 584 C420 584 426 590 428 598 L440 686 C441 694 436 700 428 700 L343 700 C335 700 328 694 327 686 L315 598 Z " />
<glyph glyph-name="copyright" unicode="&#xa9;" horiz-adv-x="861" d="M529 699 C334 699 150 539 123 344 C95 148 234 -11 429 -11 C625 -11 806 148 834 344 C861 539 725 699 529 699 L529 699 Z M438 51 C275 51 164 181 187 344 C210 507 357 638 520 638 C685 638 797 507 774 344 C751 181 603 51 438 51 L438 51 Z M433 222 C411 222 392 242 395 265 L418 428 C421 451 446 470 468 470 L520 470 C543 470 561 451 558 428 L556 413 C555 406 558 402 565 402 L625 402 C632 402 637 406 638 413 L640 430 C648 487 613 544 544 544 L464 544 C395 544 345 487 337 430 L313 261 C305 205 339 148 408 148 L488 148 C557 148 608 205 616 262 L619 279 C620 286 616 290 609 290 L549 290 C542 290 538 286 537 279 L535 264 C531 241 508 222 485 222 L433 222 Z " />
<glyph glyph-name="ordfeminine" unicode="&#xaa;" horiz-adv-x="388" d="M213 494 C216 514 228 521 245 521 L317 521 L312 489 C309 469 290 457 271 457 L243 457 C226 457 209 469 212 489 L213 494 Z M202 632 C228 637 247 640 268 640 C318 640 330 614 327 595 L324 576 L243 576 C193 576 151 547 144 498 L142 480 C135 432 169 402 219 402 L248 402 C259 402 282 408 298 425 L303 425 L302 415 C301 410 305 406 310 406 L361 406 C366 406 370 410 371 415 L396 595 C400 621 392 700 287 700 C244 700 214 694 198 689 C195 688 193 686 192 682 C192 681 191 671 194 637 C194 632 198 632 202 632 L202 632 Z " />
<glyph glyph-name="guillemotleft" unicode="&#xab;" horiz-adv-x="698" d="M111 259 L206 14 C209 7 219 0 228 0 L311 0 C319 0 325 6 326 14 L235 253 L239 282 L394 496 C395 504 390 510 382 510 L299 510 C290 510 279 503 274 496 L113 276 L111 259 Z M409 259 L504 14 C507 7 517 0 526 0 L609 0 C617 0 623 6 624 14 L533 253 L537 282 L692 496 C693 504 688 510 680 510 L597 510 C588 510 577 503 572 496 L411 276 L409 259 Z " />
<glyph glyph-name="logicalnot" unicode="&#xac;" horiz-adv-x="489" d="M132 301 C123 301 116 295 115 286 L105 214 C103 205 108 199 117 199 L328 199 L311 73 C309 64 315 58 324 58 L407 58 C416 58 422 64 424 73 L454 286 C455 295 450 301 441 301 L132 301 Z " />
<glyph glyph-name="uni00AD" unicode="&#xad;" horiz-adv-x="198" d="" />
<glyph glyph-name="registered" unicode="&#xae;" horiz-adv-x="861" d="M418 347 L436 472 L516 472 C539 472 556 451 552 426 L548 392 C544 366 521 347 498 347 L418 347 Z M529 699 C334 699 150 539 123 344 C95 148 234 -11 429 -11 C625 -11 806 148 834 344 C861 539 725 699 529 699 L529 699 Z M438 51 C275 51 164 181 187 344 C210 507 357 638 520 638 C685 638 797 507 774 344 C751 181 603 51 438 51 L438 51 Z M560 280 C594 300 620 330 625 364 L637 454 C644 504 607 546 555 546 L376 546 C369 546 365 542 364 535 L311 163 C310 156 314 152 321 152 L380 152 C387 152 391 156 392 163 L408 274 L482 274 L517 163 C520 157 524 152 531 152 L587 152 C594 152 598 156 599 163 L560 280 Z " />
<glyph glyph-name="macron" unicode="&#xaf;" horiz-adv-x="358" d="M352 598 C361 598 367 604 369 613 L379 685 C380 694 375 700 366 700 L188 700 C179 700 172 694 171 685 L161 613 C159 604 165 598 174 598 L352 598 Z " />
<glyph glyph-name="degree" unicode="&#xb0;" horiz-adv-x="408" d="M309 752 C238 752 172 695 162 623 C152 552 202 494 273 494 C344 494 410 552 420 623 C430 695 380 752 309 752 L309 752 Z M283 566 C251 566 230 594 234 623 C239 656 267 680 299 680 C331 680 353 656 348 623 C344 594 315 566 283 566 L283 566 Z " />
<glyph glyph-name="plusminus" unicode="&#xb1;" horiz-adv-x="401" d="M167 169 C166 160 171 154 180 154 L263 154 C272 154 279 160 280 169 L295 276 L349 276 C358 276 365 282 366 291 L377 363 C378 372 373 378 364 378 L310 378 L325 487 C326 496 321 502 312 502 L229 502 C220 502 213 496 212 487 L197 378 L143 378 C134 378 127 372 126 363 L115 291 C114 282 119 276 128 276 L182 276 L167 169 Z M104 102 C95 102 88 96 87 87 L77 15 C75 6 81 0 90 0 L311 0 C320 0 326 6 328 15 L338 87 C339 96 334 102 325 102 L104 102 Z " />
<glyph glyph-name="twosuperior" unicode="&#xb2;" horiz-adv-x="354" d="M235 607 C238 628 244 640 264 640 L271 640 C291 640 293 627 291 613 L290 608 C280 536 157 584 140 465 L133 414 C132 410 136 406 140 406 L328 406 C332 406 336 410 337 414 L344 463 C344 467 341 471 337 471 L214 471 C222 528 342 485 359 605 L360 619 C366 657 342 700 303 700 L247 700 C209 700 175 671 169 633 L166 607 C165 602 169 598 174 598 L225 598 C230 598 234 602 235 607 L235 607 Z " />
<glyph glyph-name="threesuperior" unicode="&#xb3;" horiz-adv-x="343" d="M232 582 C227 582 224 579 223 574 L217 531 C216 526 219 523 224 523 L243 523 C263 523 271 514 269 499 L268 493 C266 479 261 466 241 466 L234 466 C214 466 211 478 214 499 C214 504 211 508 206 508 L155 508 C150 508 145 504 145 499 L141 473 C136 435 162 406 200 406 L256 406 C295 406 331 449 336 487 L337 496 C341 526 335 543 316 552 C337 561 349 578 353 608 L354 619 C360 657 336 700 297 700 L241 700 C203 700 169 671 163 633 L160 607 C159 602 163 598 168 598 L219 598 C224 598 228 602 229 607 C232 628 238 640 258 640 L265 640 C285 640 287 627 285 613 L284 605 C281 590 271 582 251 582 L232 582 Z " />
<glyph glyph-name="acute" unicode="&#xb4;" horiz-adv-x="322" d="M241 538 C250 538 257 545 262 554 L343 684 C344 694 338 700 329 700 L254 700 C245 700 238 693 233 684 L152 554 C151 544 156 538 166 538 L241 538 Z " />
<glyph glyph-name="mu" unicode="&#xb5;" horiz-adv-x="489" d="M258 500 C259 509 254 515 245 515 L162 515 C153 515 146 509 145 500 L52 -159 C51 -168 56 -174 65 -174 L148 -174 C157 -174 164 -168 165 -159 L187 -2 C195 -4 204 -5 214 -5 L273 -5 C363 -5 423 71 434 146 L484 500 C485 509 480 515 471 515 L388 515 C379 515 372 509 371 500 L322 150 C318 122 297 97 270 97 L245 97 C219 97 204 119 208 146 L258 500 Z " />
<glyph glyph-name="paragraph" unicode="&#xb6;" horiz-adv-x="690" d="M346 700 C251 700 162 626 150 534 L134 421 C121 329 188 255 283 255 L349 255 L316 15 C314 6 320 0 329 0 L412 0 C421 0 427 6 429 15 L511 599 L586 599 L504 15 C502 6 508 0 517 0 L600 0 C609 0 615 6 617 15 L711 685 C712 694 707 700 698 700 L346 700 Z " />
<glyph glyph-name="periodcentered" unicode="&#xb7;" horiz-adv-x="263" d="M101 185 C99 176 104 170 113 170 L196 170 C205 170 212 176 214 185 L225 270 C227 279 222 285 213 285 L130 285 C121 285 114 279 112 270 L101 185 Z " />
<glyph glyph-name="cedilla" unicode="&#xb8;" horiz-adv-x="314" d="M83 -44 C81 -47 79 -51 79 -54 L74 -90 C73 -97 77 -102 84 -102 L137 -102 C137 -102 151 -102 149 -117 C147 -131 133 -131 133 -131 L68 -131 C61 -131 55 -136 54 -143 L49 -183 C48 -190 52 -195 59 -195 L141 -195 C195 -195 214 -171 224 -100 C230 -59 198 -38 163 -38 L186 -7 C187 3 181 10 171 10 L133 10 C126 10 119 5 116 0 L83 -44 Z " />
<glyph glyph-name="onesuperior" unicode="&#xb9;" horiz-adv-x="355" d="M178 676 C173 675 169 670 168 666 L161 616 C161 612 164 608 168 608 L242 635 L219 471 L160 471 C156 471 151 467 151 463 L144 414 C143 410 147 406 151 406 L329 406 C333 406 337 410 338 414 L345 463 C345 467 342 471 338 471 L288 471 L319 692 C319 696 316 700 312 700 L241 700 L178 676 Z " />
<glyph glyph-name="ordmasculine" unicode="&#xba;" horiz-adv-x="408" d="M309 752 C238 752 172 695 162 623 C152 552 202 494 273 494 C344 494 410 552 420 623 C430 695 380 752 309 752 L309 752 Z M283 566 C251 566 230 594 234 623 C239 656 267 680 299 680 C331 680 353 656 348 623 C344 594 315 566 283 566 L283 566 Z " />
<glyph glyph-name="guillemotright" unicode="&#xbb;" horiz-adv-x="698" d="M661 276 L562 496 C559 503 550 510 541 510 L458 510 C450 510 443 504 442 496 L537 282 L533 253 L374 14 C373 6 379 0 387 0 L470 0 C479 0 489 7 494 14 L659 259 L661 276 Z M363 276 L264 496 C261 503 252 510 243 510 L160 510 C152 510 145 504 144 496 L239 282 L235 253 L76 14 C75 6 81 0 89 0 L172 0 C181 0 191 7 196 14 L361 259 L363 276 Z " />
<glyph glyph-name="onequarter" unicode="&#xbc;" horiz-adv-x="764" d="M704 685 C705 694 700 700 691 700 L638 700 C629 700 622 695 617 686 L181 15 C179 6 185 0 194 0 L247 0 C256 0 262 5 267 14 L704 685 Z M178 676 C173 675 169 670 168 666 L161 616 C161 612 164 608 168 608 L242 635 L219 471 L160 471 C156 471 151 467 151 463 L144 414 C143 410 147 406 151 406 L329 406 C333 406 337 410 338 414 L345 463 C345 467 342 471 338 471 L288 471 L319 692 C319 696 316 700 312 700 L241 700 L178 676 Z M628 286 C628 290 625 294 621 294 L575 294 C571 294 565 290 563 286 L450 87 L445 52 C444 48 448 44 452 44 L598 44 L593 8 C592 4 596 0 600 0 L649 0 C653 0 657 4 658 8 L663 44 L687 44 C691 44 695 48 696 52 L702 95 C702 99 699 103 695 103 L671 103 L681 177 C682 181 679 185 675 185 L626 185 C622 185 617 181 616 177 L606 103 L524 103 L628 286 Z " />
<glyph glyph-name="onehalf" unicode="&#xbd;" horiz-adv-x="737" d="M704 685 C705 694 700 700 691 700 L638 700 C629 700 622 695 617 686 L181 15 C179 6 185 0 194 0 L247 0 C256 0 262 5 267 14 L704 685 Z M178 676 C173 675 169 670 168 666 L161 616 C161 612 164 608 168 608 L242 635 L219 471 L160 471 C156 471 151 467 151 463 L144 414 C143 410 147 406 151 406 L329 406 C333 406 337 410 338 414 L345 463 C345 467 342 471 338 471 L288 471 L319 692 C319 696 316 700 312 700 L241 700 L178 676 Z M561 201 C564 222 570 234 590 234 L597 234 C617 234 619 221 617 207 L616 202 C606 130 483 178 466 59 L459 8 C458 4 462 0 466 0 L654 0 C658 0 662 4 663 8 L670 57 C670 61 667 65 663 65 L540 65 C548 122 668 79 684 199 L686 213 C692 251 668 294 629 294 L573 294 C535 294 501 265 495 227 L492 201 C491 196 494 192 499 192 L550 192 C555 192 560 196 561 201 L561 201 Z " />
<glyph glyph-name="threequarters" unicode="&#xbe;" horiz-adv-x="716" d="M664 685 C665 694 660 700 651 700 L598 700 C589 700 582 695 577 686 L141 15 C139 6 145 0 154 0 L207 0 C216 0 222 5 227 14 L664 685 Z M580 286 C580 290 577 294 573 294 L527 294 C523 294 517 290 515 286 L402 87 L397 52 C396 48 400 44 404 44 L550 44 L545 8 C544 4 548 0 552 0 L601 0 C605 0 609 4 610 8 L615 44 L639 44 C643 44 647 48 648 52 L654 95 C654 99 651 103 647 103 L623 103 L633 177 C634 181 631 185 627 185 L578 185 C574 185 569 181 568 177 L558 103 L476 103 L580 286 Z M232 582 C227 582 224 579 223 574 L217 531 C216 526 219 523 224 523 L243 523 C263 523 271 514 269 499 L268 493 C266 479 261 466 241 466 L234 466 C214 466 211 478 214 499 C214 504 211 508 206 508 L155 508 C150 508 145 504 145 499 L141 473 C136 435 162 406 200 406 L256 406 C295 406 331 449 336 487 L337 496 C341 526 335 543 316 552 C337 561 349 578 353 608 L354 619 C360 657 336 700 297 700 L241 700 C203 700 169 671 163 633 L160 607 C159 602 163 598 168 598 L219 598 C224 598 228 602 229 607 C232 628 238 640 258 640 L265 640 C285 640 287 627 285 613 L284 605 C281 590 271 582 251 582 L232 582 Z " />
<glyph glyph-name="questiondown" unicode="&#xbf;" horiz-adv-x="554" d="M444 512 C446 521 441 527 432 527 L349 527 C340 527 333 521 331 512 L330 502 C306 328 141 475 104 207 L97 161 C84 69 143 -5 238 -5 L316 -5 C410 -5 488 69 501 161 L508 212 C510 221 504 227 495 227 L412 227 C403 227 397 221 395 212 L389 169 C384 130 356 97 320 97 L260 97 C224 97 206 130 211 169 L216 203 C240 377 405 233 442 498 L444 512 Z M460 603 C459 594 452 588 443 588 L354 588 C345 588 340 594 341 603 L353 690 C355 699 362 705 371 705 L460 705 C469 705 474 699 472 690 L460 603 Z " />
<glyph glyph-name="Agrave" unicode="&#xc0;" horiz-adv-x="559" d="M420 751 C430 751 437 757 438 767 L395 897 C392 906 387 913 378 913 L303 913 C294 913 286 907 285 897 L328 767 C331 758 336 751 345 751 L420 751 Z M317 700 C308 700 303 693 299 684 L32 15 C30 6 36 0 45 0 L126 0 C135 0 141 6 145 15 L186 121 L407 121 L418 15 C418 6 424 0 433 0 L514 0 C523 0 529 6 531 15 L452 684 C450 693 447 700 438 700 L317 700 Z M349 542 L362 542 L395 223 L225 223 L349 542 Z " />
<glyph glyph-name="Aacute" unicode="&#xc1;" horiz-adv-x="559" d="M426 751 C435 751 442 758 447 767 L528 897 C529 907 523 913 514 913 L439 913 C430 913 423 906 418 897 L337 767 C336 757 341 751 351 751 L426 751 Z M317 700 C308 700 303 693 299 684 L32 15 C30 6 36 0 45 0 L126 0 C135 0 141 6 145 15 L186 121 L407 121 L418 15 C418 6 424 0 433 0 L514 0 C523 0 529 6 531 15 L452 684 C450 693 447 700 438 700 L317 700 Z M349 542 L362 542 L395 223 L225 223 L349 542 Z " />
<glyph glyph-name="Acircumflex" unicode="&#xc2;" horiz-adv-x="559" d="M370 940 C361 940 355 934 350 925 L248 764 C247 756 251 751 260 751 L328 751 C335 751 342 757 346 764 L399 848 L428 764 C430 757 435 751 442 751 L510 751 C519 751 525 756 526 764 L470 925 C467 934 463 940 454 940 L370 940 Z M317 700 C308 700 303 693 299 684 L32 15 C30 6 36 0 45 0 L126 0 C135 0 141 6 145 15 L186 121 L407 121 L418 15 C418 6 424 0 433 0 L514 0 C523 0 529 6 531 15 L452 684 C450 693 447 700 438 700 L317 700 Z M349 542 L362 542 L395 223 L225 223 L349 542 Z " />
<glyph glyph-name="Atilde" unicode="&#xc3;" horiz-adv-x="559" d="M317 700 C308 700 303 693 299 684 L32 15 C30 6 36 0 45 0 L126 0 C135 0 141 6 145 15 L186 121 L407 121 L418 15 C418 6 424 0 433 0 L514 0 C523 0 529 6 531 15 L452 684 C450 693 447 700 438 700 L317 700 Z M349 542 L362 542 L395 223 L225 223 L349 542 Z M432 751 C454 751 474 761 499 775 C506 779 511 785 512 792 L503 854 C501 858 498 864 489 864 C487 864 485 864 482 863 C468 858 454 853 446 853 C393 853 407 888 357 888 C335 888 315 878 290 864 C283 860 279 854 278 847 L287 785 C288 781 291 775 300 775 C302 775 304 775 308 776 C321 781 335 786 343 786 C396 786 381 751 432 751 L432 751 Z " />
<glyph glyph-name="Adieresis" unicode="&#xc4;" horiz-adv-x="559" d="M252 765 C251 757 256 751 264 751 L349 751 C357 751 364 757 365 765 L377 853 C379 861 373 867 365 867 L280 867 C272 867 266 861 264 853 L252 765 Z M408 765 C407 757 412 751 420 751 L505 751 C513 751 520 757 521 765 L533 853 C535 861 529 867 521 867 L436 867 C428 867 422 861 420 853 L408 765 Z M317 700 C308 700 303 693 299 684 L32 15 C30 6 36 0 45 0 L126 0 C135 0 141 6 145 15 L186 121 L407 121 L418 15 C418 6 424 0 433 0 L514 0 C523 0 529 6 531 15 L452 684 C450 693 447 700 438 700 L317 700 Z M349 542 L362 542 L395 223 L225 223 L349 542 Z " />
<glyph glyph-name="Aring" unicode="&#xc5;" horiz-adv-x="559" d="M403 886 C332 886 266 829 256 757 C250 717 263 681 288 658 L32 15 C30 6 36 0 45 0 L126 0 C135 0 141 6 145 15 L186 121 L407 121 L418 15 C418 6 424 0 433 0 L514 0 C523 0 529 6 531 15 L454 658 C485 682 508 717 514 757 C524 829 474 886 403 886 L403 886 Z M349 542 L362 542 L395 223 L225 223 L349 542 Z M377 700 C345 700 324 728 328 757 C333 790 361 814 393 814 C425 814 447 790 442 757 C438 728 409 700 377 700 L377 700 Z " />
<glyph glyph-name="AE" unicode="&#xc6;" horiz-adv-x="838" d="M433 221 L267 221 L468 587 L484 587 L433 221 Z M404 15 C402 6 408 0 417 0 L758 0 C767 0 773 6 775 15 L785 87 C786 96 781 102 772 102 L529 102 L558 312 L777 312 C786 312 793 318 794 327 L805 399 C806 408 801 414 792 414 L573 414 L599 598 L842 598 C851 598 857 604 859 613 L869 685 C870 694 865 700 856 700 L426 700 C417 700 407 693 403 684 L27 15 C25 6 31 0 40 0 L125 0 C134 0 143 7 149 15 L209 121 L419 121 L404 15 Z " />
<glyph glyph-name="Ccedilla" unicode="&#xc7;" horiz-adv-x="529" d="M206 -44 C204 -47 202 -51 202 -54 L197 -90 C196 -97 200 -102 207 -102 L260 -102 C260 -102 274 -102 272 -117 C270 -131 256 -131 256 -131 L191 -131 C184 -131 178 -136 177 -143 L172 -183 C171 -190 175 -195 182 -195 L264 -195 C318 -195 337 -171 347 -100 C353 -59 321 -38 286 -38 L310 -5 L315 -5 C410 -5 489 75 501 161 L507 201 C508 210 503 216 494 216 L411 216 C402 216 395 210 394 201 L389 169 C384 129 352 97 316 97 L254 97 C218 97 196 129 201 169 L252 531 C258 570 289 603 325 603 L387 603 C423 603 446 570 440 531 L435 494 C434 485 439 479 448 479 L531 479 C540 479 547 485 548 494 L554 539 C566 625 510 705 415 705 L327 705 C232 705 152 625 140 539 L87 161 C75 75 132 -5 227 -5 L235 -5 L206 -44 Z " />
<glyph glyph-name="Egrave" unicode="&#xc8;" horiz-adv-x="479" d="M397 751 C407 751 414 757 415 767 L372 897 C369 906 364 913 355 913 L280 913 C271 913 263 907 262 897 L305 767 C308 758 313 751 322 751 L397 751 Z M202 102 L231 312 L418 312 C427 312 434 318 435 327 L446 399 C447 408 442 414 433 414 L246 414 L272 598 L483 598 C492 598 498 604 500 613 L510 685 C511 694 506 700 497 700 L188 700 C179 700 172 694 171 685 L77 15 C75 6 81 0 90 0 L399 0 C408 0 414 6 416 15 L426 87 C427 96 422 102 413 102 L202 102 Z " />
<glyph glyph-name="Eacute" unicode="&#xc9;" horiz-adv-x="479" d="M388 751 C397 751 404 758 409 767 L490 897 C491 907 485 913 476 913 L401 913 C392 913 385 906 380 897 L299 767 C298 757 303 751 313 751 L388 751 Z M202 102 L231 312 L418 312 C427 312 434 318 435 327 L446 399 C447 408 442 414 433 414 L246 414 L272 598 L483 598 C492 598 498 604 500 613 L510 685 C511 694 506 700 497 700 L188 700 C179 700 172 694 171 685 L77 15 C75 6 81 0 90 0 L399 0 C408 0 414 6 416 15 L426 87 C427 96 422 102 413 102 L202 102 Z " />
<glyph glyph-name="Ecircumflex" unicode="&#xca;" horiz-adv-x="479" d="M336 940 C327 940 321 934 316 925 L214 764 C213 756 217 751 226 751 L294 751 C301 751 308 757 312 764 L365 848 L394 764 C396 757 401 751 408 751 L476 751 C485 751 491 756 492 764 L436 925 C433 934 429 940 420 940 L336 940 Z M202 102 L231 312 L418 312 C427 312 434 318 435 327 L446 399 C447 408 442 414 433 414 L246 414 L272 598 L483 598 C492 598 498 604 500 613 L510 685 C511 694 506 700 497 700 L188 700 C179 700 172 694 171 685 L77 15 C75 6 81 0 90 0 L399 0 C408 0 414 6 416 15 L426 87 C427 96 422 102 413 102 L202 102 Z " />
<glyph glyph-name="Edieresis" unicode="&#xcb;" horiz-adv-x="479" d="M219 765 C218 757 223 751 231 751 L316 751 C324 751 331 757 332 765 L344 853 C346 861 340 867 332 867 L247 867 C239 867 233 861 231 853 L219 765 Z M375 765 C374 757 379 751 387 751 L472 751 C480 751 487 757 488 765 L500 853 C502 861 496 867 488 867 L403 867 C395 867 389 861 387 853 L375 765 Z M202 102 L231 312 L418 312 C427 312 434 318 435 327 L446 399 C447 408 442 414 433 414 L246 414 L272 598 L483 598 C492 598 498 604 500 613 L510 685 C511 694 506 700 497 700 L188 700 C179 700 172 694 171 685 L77 15 C75 6 81 0 90 0 L399 0 C408 0 414 6 416 15 L426 87 C427 96 422 102 413 102 L202 102 Z " />
<glyph glyph-name="Igrave" unicode="&#xcc;" horiz-adv-x="263" d="M77 15 C75 6 81 0 90 0 L173 0 C182 0 188 6 190 15 L284 685 C285 694 280 700 271 700 L188 700 C179 700 172 694 171 685 L77 15 Z M270 751 C280 751 287 757 288 767 L245 897 C242 906 237 913 228 913 L153 913 C144 913 136 907 135 897 L178 767 C181 758 186 751 195 751 L270 751 Z " />
<glyph glyph-name="Iacute" unicode="&#xcd;" horiz-adv-x="263" d="M284 685 C285 694 280 700 271 700 L188 700 C179 700 172 694 171 685 L77 15 C75 6 81 0 90 0 L173 0 C182 0 188 6 190 15 L284 685 Z M278 751 C287 751 294 758 299 767 L380 897 C381 907 375 913 366 913 L291 913 C282 913 275 906 270 897 L189 767 C188 757 193 751 203 751 L278 751 Z " />
<glyph glyph-name="Icircumflex" unicode="&#xce;" horiz-adv-x="263" d="M284 685 C285 694 280 700 271 700 L188 700 C179 700 172 694 171 685 L77 15 C75 6 81 0 90 0 L173 0 C182 0 188 6 190 15 L284 685 Z M221 940 C212 940 206 934 201 925 L99 764 C98 756 102 751 111 751 L179 751 C186 751 193 757 197 764 L250 848 L279 764 C281 757 286 751 293 751 L361 751 C370 751 376 756 377 764 L321 925 C318 934 314 940 305 940 L221 940 Z " />
<glyph glyph-name="Idieresis" unicode="&#xcf;" horiz-adv-x="263" d="M77 15 C75 6 81 0 90 0 L173 0 C182 0 188 6 190 15 L284 685 C285 694 280 700 271 700 L188 700 C179 700 172 694 171 685 L77 15 Z M94 765 C93 757 98 751 106 751 L191 751 C199 751 206 757 207 765 L219 853 C221 861 215 867 207 867 L122 867 C114 867 108 861 106 853 L94 765 Z M269 765 C268 757 273 751 281 751 L366 751 C374 751 381 757 382 765 L394 853 C396 861 390 867 382 867 L297 867 C289 867 283 861 281 853 L269 765 Z " />
<glyph glyph-name="Eth" unicode="&#xd0;" horiz-adv-x="567" d="M201 700 C192 700 185 694 184 685 L144 401 L86 401 C77 401 70 395 69 386 L59 314 C57 305 63 299 72 299 L130 299 L90 15 C88 6 94 0 103 0 L329 0 C424 0 512 74 525 166 L577 534 C589 626 522 700 427 700 L201 700 Z M314 299 C323 299 329 305 331 314 L341 386 C342 395 337 401 328 401 L257 401 L285 598 L405 598 C441 598 469 565 463 526 L414 174 C408 134 371 102 335 102 L215 102 L243 299 L314 299 Z " />
<glyph glyph-name="Ntilde" unicode="&#xd1;" horiz-adv-x="594" d="M374 15 C377 6 383 0 392 0 L504 0 C513 0 519 6 521 15 L615 685 C616 694 611 700 602 700 L519 700 C510 700 503 694 502 685 L441 253 L432 253 L318 685 C314 694 309 700 300 700 L188 700 C179 700 172 694 171 685 L77 15 C75 6 81 0 90 0 L173 0 C182 0 188 6 190 15 L251 449 L260 449 L374 15 Z M439 751 C461 751 481 761 506 775 C513 779 518 785 519 792 L510 854 C508 858 505 864 496 864 C494 864 492 864 489 863 C475 858 461 853 453 853 C400 853 414 888 364 888 C342 888 322 878 297 864 C290 860 286 854 285 847 L294 785 C295 781 298 775 307 775 C309 775 311 775 315 776 C328 781 342 786 350 786 C403 786 388 751 439 751 L439 751 Z " />
<glyph glyph-name="Ograve" unicode="&#xd2;" horiz-adv-x="544" d="M409 751 C419 751 426 757 427 767 L384 897 C381 906 376 913 367 913 L292 913 C283 913 275 907 274 897 L317 767 C320 758 325 751 334 751 L409 751 Z M331 705 C236 705 153 631 140 539 L87 161 C74 69 136 -5 231 -5 L311 -5 C406 -5 488 69 501 161 L554 539 C567 631 506 705 411 705 L331 705 Z M387 603 C423 603 446 570 440 531 L389 169 C384 129 352 97 316 97 L254 97 C218 97 196 129 201 169 L252 531 C258 570 289 603 325 603 L387 603 Z " />
<glyph glyph-name="Oacute" unicode="&#xd3;" horiz-adv-x="544" d="M417 751 C426 751 433 758 438 767 L519 897 C520 907 514 913 505 913 L430 913 C421 913 414 906 409 897 L328 767 C327 757 332 751 342 751 L417 751 Z M331 705 C236 705 153 631 140 539 L87 161 C74 69 136 -5 231 -5 L311 -5 C406 -5 488 69 501 161 L554 539 C567 631 506 705 411 705 L331 705 Z M387 603 C423 603 446 570 440 531 L389 169 C384 129 352 97 316 97 L254 97 C218 97 196 129 201 169 L252 531 C258 570 289 603 325 603 L387 603 Z " />
<glyph glyph-name="Ocircumflex" unicode="&#xd4;" horiz-adv-x="544" d="M362 940 C353 940 347 934 342 925 L240 764 C239 756 243 751 252 751 L320 751 C327 751 334 757 338 764 L391 848 L420 764 C422 757 427 751 434 751 L502 751 C511 751 517 756 518 764 L462 925 C459 934 455 940 446 940 L362 940 Z M331 705 C236 705 153 631 140 539 L87 161 C74 69 136 -5 231 -5 L311 -5 C406 -5 488 69 501 161 L554 539 C567 631 506 705 411 705 L331 705 Z M387 603 C423 603 446 570 440 531 L389 169 C384 129 352 97 316 97 L254 97 C218 97 196 129 201 169 L252 531 C258 570 289 603 325 603 L387 603 Z " />
<glyph glyph-name="Otilde" unicode="&#xd5;" horiz-adv-x="544" d="M331 705 C236 705 153 631 140 539 L87 161 C74 69 136 -5 231 -5 L311 -5 C406 -5 488 69 501 161 L554 539 C567 631 506 705 411 705 L331 705 Z M387 603 C423 603 446 570 440 531 L389 169 C384 129 352 97 316 97 L254 97 C218 97 196 129 201 169 L252 531 C258 570 289 603 325 603 L387 603 Z M424 751 C446 751 466 761 491 775 C498 779 503 785 504 792 L495 854 C493 858 490 864 481 864 C479 864 477 864 474 863 C460 858 446 853 438 853 C385 853 399 888 349 888 C327 888 307 878 282 864 C275 860 271 854 270 847 L279 785 C280 781 283 775 292 775 C294 775 296 775 300 776 C313 781 327 786 335 786 C388 786 373 751 424 751 L424 751 Z " />
<glyph glyph-name="Odieresis" unicode="&#xd6;" horiz-adv-x="544" d="M235 765 C234 757 239 751 247 751 L332 751 C340 751 347 757 348 765 L360 853 C362 861 356 867 348 867 L263 867 C255 867 249 861 247 853 L235 765 Z M410 765 C409 757 414 751 422 751 L507 751 C515 751 522 757 523 765 L535 853 C537 861 531 867 523 867 L438 867 C430 867 424 861 422 853 L410 765 Z M331 705 C236 705 153 631 140 539 L87 161 C74 69 136 -5 231 -5 L311 -5 C406 -5 488 69 501 161 L554 539 C567 631 506 705 411 705 L331 705 Z M387 603 C423 603 446 570 440 531 L389 169 C384 129 352 97 316 97 L254 97 C218 97 196 129 201 169 L252 531 C258 570 289 603 325 603 L387 603 Z " />
<glyph glyph-name="multiply" unicode="&#xd7;" horiz-adv-x="420" d="M225 107 L279 43 C281 41 285 39 288 39 C292 39 295 41 299 43 L353 92 C356 95 358 98 359 102 C359 105 358 109 356 112 L303 175 L374 238 C376 241 379 245 379 248 C380 252 378 255 377 258 L336 307 C333 309 330 311 326 311 C323 311 319 309 316 307 L244 243 L190 307 C187 309 183 311 180 311 C176 311 173 309 170 307 L115 258 C112 255 110 252 109 248 C109 245 110 241 112 238 L165 175 L94 112 C92 109 89 105 89 102 C88 98 90 95 91 92 L133 43 C135 41 138 39 142 39 C145 39 149 41 153 43 L225 107 Z " />
<glyph glyph-name="Oslash" unicode="&#xd8;" horiz-adv-x="544" d="M68 -76 C67 -85 72 -91 81 -91 L164 -91 C171 -91 176 -88 179 -83 L215 -4 C220 -5 225 -5 231 -5 L311 -5 C406 -5 488 69 501 161 L554 539 C561 586 547 629 520 659 L574 776 C575 785 570 791 561 791 L478 791 C471 791 465 788 463 783 L426 704 C422 705 416 705 411 705 L331 705 C236 705 153 631 140 539 L87 161 C80 113 93 70 121 40 C104 2 85 -36 68 -76 L68 -76 Z M252 531 C258 570 289 603 325 603 L380 603 L210 232 L252 531 Z M316 97 L261 97 L431 465 L389 169 C384 129 352 97 316 97 L316 97 Z " />
<glyph glyph-name="Ugrave" unicode="&#xd9;" horiz-adv-x="554" d="M414 751 C424 751 431 757 432 767 L389 897 C386 906 381 913 372 913 L297 913 C288 913 280 907 279 897 L322 767 C325 758 330 751 339 751 L414 751 Z M394 169 C389 129 361 97 325 97 L255 97 C219 97 201 129 206 169 L279 685 C280 694 275 700 266 700 L183 700 C174 700 167 694 166 685 L92 161 C79 69 137 -5 232 -5 L320 -5 C415 -5 493 69 506 161 L580 685 C581 694 576 700 567 700 L484 700 C475 700 468 694 467 685 L394 169 Z " />
<glyph glyph-name="Uacute" unicode="&#xda;" horiz-adv-x="554" d="M422 751 C431 751 438 758 443 767 L524 897 C525 907 519 913 510 913 L435 913 C426 913 419 906 414 897 L333 767 C332 757 337 751 347 751 L422 751 Z M394 169 C389 129 361 97 325 97 L255 97 C219 97 201 129 206 169 L279 685 C280 694 275 700 266 700 L183 700 C174 700 167 694 166 685 L92 161 C79 69 137 -5 232 -5 L320 -5 C415 -5 493 69 506 161 L580 685 C581 694 576 700 567 700 L484 700 C475 700 468 694 467 685 L394 169 Z " />
<glyph glyph-name="Ucircumflex" unicode="&#xdb;" horiz-adv-x="554" d="M367 940 C358 940 352 934 347 925 L245 764 C244 756 248 751 257 751 L325 751 C332 751 339 757 343 764 L396 848 L425 764 C427 757 432 751 439 751 L507 751 C516 751 522 756 523 764 L467 925 C464 934 460 940 451 940 L367 940 Z M394 169 C389 129 361 97 325 97 L255 97 C219 97 201 129 206 169 L279 685 C280 694 275 700 266 700 L183 700 C174 700 167 694 166 685 L92 161 C79 69 137 -5 232 -5 L320 -5 C415 -5 493 69 506 161 L580 685 C581 694 576 700 567 700 L484 700 C475 700 468 694 467 685 L394 169 Z " />
<glyph glyph-name="Udieresis" unicode="&#xdc;" horiz-adv-x="554" d="M240 765 C239 757 244 751 252 751 L337 751 C345 751 352 757 353 765 L365 853 C367 861 361 867 353 867 L268 867 C260 867 254 861 252 853 L240 765 Z M415 765 C414 757 419 751 427 751 L512 751 C520 751 527 757 528 765 L540 853 C542 861 536 867 528 867 L443 867 C435 867 429 861 427 853 L415 765 Z M394 169 C389 129 361 97 325 97 L255 97 C219 97 201 129 206 169 L279 685 C280 694 275 700 266 700 L183 700 C174 700 167 694 166 685 L92 161 C79 69 137 -5 232 -5 L320 -5 C415 -5 493 69 506 161 L580 685 C581 694 576 700 567 700 L484 700 C475 700 468 694 467 685 L394 169 Z " />
<glyph glyph-name="Yacute" unicode="&#xdd;" horiz-adv-x="533" d="M413 751 C422 751 429 758 434 767 L515 897 C516 907 510 913 501 913 L426 913 C417 913 410 906 405 897 L324 767 C323 757 328 751 338 751 L413 751 Z M354 222 L604 685 C605 694 600 700 591 700 L512 700 C503 700 495 693 490 685 L324 370 L313 370 L235 685 C232 693 226 700 217 700 L138 700 C129 700 122 694 121 685 L241 222 L212 15 C210 6 216 0 225 0 L308 0 C317 0 323 6 325 15 L354 222 Z " />
<glyph glyph-name="Thorn" unicode="&#xde;" horiz-adv-x="536" d="M217 208 L257 493 L368 493 C404 493 432 460 427 421 L407 280 C401 240 364 208 328 208 L217 208 Z M271 595 L284 685 C285 694 280 700 271 700 L188 700 C179 700 172 694 171 685 L77 15 C75 6 81 0 90 0 L173 0 C182 0 188 6 190 15 L202 106 L322 106 C417 106 506 180 519 272 L541 429 C554 521 486 595 391 595 L271 595 Z " />
<glyph glyph-name="germandbls" unicode="&#xdf;" horiz-adv-x="525" d="M262 102 C253 102 246 96 245 87 L235 15 C233 6 239 0 248 0 L307 0 C402 0 490 74 503 166 L512 232 C519 282 493 331 458 365 C483 392 510 433 515 468 L525 534 C537 626 470 700 375 700 L188 700 C179 700 172 694 171 685 L77 15 C75 6 81 0 90 0 L173 0 C182 0 188 6 190 15 L272 598 L352 598 C388 598 416 565 410 526 L403 471 C397 431 360 399 324 399 L294 399 C285 399 278 393 276 384 L267 316 C266 307 271 301 280 301 L340 301 C376 301 404 268 399 229 L391 174 C385 134 348 102 312 102 L262 102 Z " />
<glyph glyph-name="agrave" unicode="&#xe0;" horiz-adv-x="453" d="M364 571 C374 571 381 577 382 587 L338 717 C336 726 331 733 322 733 L247 733 C238 733 230 727 228 717 L272 587 C275 578 280 571 289 571 L364 571 Z M218 97 C191 97 185 122 189 150 L191 165 C195 193 208 218 235 218 L310 218 L301 150 C297 122 283 97 256 97 L218 97 Z M170 498 C163 495 159 491 158 484 C157 482 156 476 164 413 C165 403 172 403 180 403 C217 413 236 418 275 418 C332 418 330 361 326 332 L324 315 L241 315 C152 315 92 266 80 181 L73 129 C61 44 89 -5 178 -5 L196 -5 C238 -5 255 8 276 32 L284 32 L282 15 C280 6 286 0 295 0 L378 0 C387 0 393 6 395 15 L439 333 C446 380 465 520 306 520 C226 520 196 508 170 498 L170 498 Z " />
<glyph glyph-name="aacute" unicode="&#xe1;" horiz-adv-x="453" d="M361 571 C370 571 377 578 382 587 L462 717 C464 727 458 733 449 733 L374 733 C365 733 358 726 352 717 L272 587 C271 577 276 571 286 571 L361 571 Z M218 97 C191 97 185 122 189 150 L191 165 C195 193 208 218 235 218 L310 218 L301 150 C297 122 283 97 256 97 L218 97 Z M170 498 C163 495 159 491 158 484 C157 482 156 476 164 413 C165 403 172 403 180 403 C217 413 236 418 275 418 C332 418 330 361 326 332 L324 315 L241 315 C152 315 92 266 80 181 L73 129 C61 44 89 -5 178 -5 L196 -5 C238 -5 255 8 276 32 L284 32 L282 15 C280 6 286 0 295 0 L378 0 C387 0 393 6 395 15 L439 333 C446 380 465 520 306 520 C226 520 196 508 170 498 L170 498 Z " />
<glyph glyph-name="acircumflex" unicode="&#xe2;" horiz-adv-x="453" d="M310 760 C301 760 295 754 290 745 L189 584 C187 576 192 571 201 571 L269 571 C276 571 283 577 287 584 L339 668 L369 584 C371 577 376 571 383 571 L451 571 C460 571 465 576 467 584 L410 745 C407 754 403 760 394 760 L310 760 Z M218 97 C191 97 185 122 189 150 L191 165 C195 193 208 218 235 218 L310 218 L301 150 C297 122 283 97 256 97 L218 97 Z M170 498 C163 495 159 491 158 484 C157 482 156 476 164 413 C165 403 172 403 180 403 C217 413 236 418 275 418 C332 418 330 361 326 332 L324 315 L241 315 C152 315 92 266 80 181 L73 129 C61 44 89 -5 178 -5 L196 -5 C238 -5 255 8 276 32 L284 32 L282 15 C280 6 286 0 295 0 L378 0 C387 0 393 6 395 15 L439 333 C446 380 465 520 306 520 C226 520 196 508 170 498 L170 498 Z " />
<glyph glyph-name="atilde" unicode="&#xe3;" horiz-adv-x="453" d="M218 97 C191 97 185 122 189 150 L191 165 C195 193 208 218 235 218 L310 218 L301 150 C297 122 283 97 256 97 L218 97 Z M170 498 C163 495 159 491 158 484 C157 482 156 476 164 413 C165 403 172 403 180 403 C217 413 236 418 275 418 C332 418 330 361 326 332 L324 315 L241 315 C152 315 92 266 80 181 L73 129 C61 44 89 -5 178 -5 L196 -5 C238 -5 255 8 276 32 L284 32 L282 15 C280 6 286 0 295 0 L378 0 C387 0 393 6 395 15 L439 333 C446 380 465 520 306 520 C226 520 196 508 170 498 L170 498 Z M366 572 C388 572 408 582 433 596 C440 600 445 606 446 613 L436 675 C435 679 432 685 423 685 C421 685 419 685 416 684 C402 679 388 674 380 674 C327 674 341 709 291 709 C269 709 249 699 224 685 C217 681 212 675 211 668 L221 606 C222 602 225 596 234 596 C236 596 238 596 241 597 C255 602 269 607 277 607 C330 607 315 572 366 572 L366 572 Z " />
<glyph glyph-name="adieresis" unicode="&#xe4;" horiz-adv-x="453" d="M196 585 C195 577 200 571 208 571 L293 571 C301 571 308 577 309 585 L321 673 C322 681 317 687 309 687 L224 687 C216 687 209 681 208 673 L196 585 Z M352 585 C351 577 356 571 364 571 L449 571 C457 571 464 577 465 585 L477 673 C478 681 473 687 465 687 L380 687 C372 687 365 681 364 673 L352 585 Z M218 97 C191 97 185 122 189 150 L191 165 C195 193 208 218 235 218 L310 218 L301 150 C297 122 283 97 256 97 L218 97 Z M170 498 C163 495 159 491 158 484 C157 482 156 476 164 413 C165 403 172 403 180 403 C217 413 236 418 275 418 C332 418 330 361 326 332 L324 315 L241 315 C152 315 92 266 80 181 L73 129 C61 44 89 -5 178 -5 L196 -5 C238 -5 255 8 276 32 L284 32 L282 15 C280 6 286 0 295 0 L378 0 C387 0 393 6 395 15 L439 333 C446 380 465 520 306 520 C226 520 196 508 170 498 L170 498 Z " />
<glyph glyph-name="aring" unicode="&#xe5;" horiz-adv-x="485" d="M365 829 C294 829 228 772 218 700 C208 629 258 571 329 571 C400 571 466 629 476 700 C486 772 436 829 365 829 L365 829 Z M340 654 C314 654 298 677 301 700 C305 728 327 747 353 747 C380 747 398 728 394 700 C391 677 367 654 340 654 L340 654 Z M228 97 C201 97 185 122 189 150 L191 165 C195 193 218 218 245 218 L342 218 L333 150 C329 122 305 97 278 97 L228 97 Z M170 498 C163 495 159 491 158 484 C157 482 156 476 164 413 C165 403 172 403 180 403 C220 409 247 418 286 418 C365 418 362 361 358 332 L356 315 L255 315 C166 315 92 266 80 181 L73 129 C61 44 103 -5 192 -5 L222 -5 C264 -5 287 8 308 32 L316 32 L314 15 C312 6 318 0 327 0 L410 0 C419 0 425 6 427 15 L471 333 C478 380 498 520 317 520 C237 520 196 508 170 498 L170 498 Z " />
<glyph glyph-name="ae" unicode="&#xe6;" horiz-adv-x="674" d="M610 64 C613 67 614 70 615 73 C615 77 613 81 610 84 L564 126 C561 128 559 129 556 129 C551 129 547 126 543 123 C528 111 516 97 483 97 L450 97 C423 97 410 122 414 150 L422 208 L633 208 C642 208 649 214 650 223 L670 369 C681 444 645 520 554 520 L491 520 C457 520 427 509 403 491 C381 508 351 520 306 520 C226 520 196 508 170 498 C163 495 159 491 158 484 C157 482 156 476 164 413 C165 403 172 403 180 403 C217 413 236 418 275 418 C326 418 330 372 327 341 L324 315 L241 315 C152 315 92 266 80 181 L73 129 C61 44 89 -5 178 -5 L224 -5 C266 -5 298 10 319 34 L326 34 C346 10 376 -5 417 -5 L469 -5 C469 -5 553 -5 610 64 L610 64 Z M218 97 C191 97 185 122 189 150 L191 165 C195 193 208 218 235 218 L310 218 L300 146 C294 118 281 97 256 97 L218 97 Z M444 365 C448 393 468 418 495 418 L520 418 C547 418 561 393 557 365 L548 302 L435 302 L444 365 Z " />
<glyph glyph-name="ccedilla" unicode="&#xe7;" horiz-adv-x="439" d="M160 -44 C158 -47 156 -51 156 -54 L151 -90 C150 -97 154 -102 161 -102 L214 -102 C214 -102 228 -102 226 -117 C224 -131 210 -131 210 -131 L145 -131 C138 -131 132 -136 131 -143 L126 -183 C125 -190 129 -195 136 -195 L218 -195 C272 -195 291 -171 301 -100 C307 -59 275 -38 240 -38 L264 -5 C351 -2 409 72 419 146 L422 164 C423 173 418 179 409 179 L326 179 C317 179 310 173 309 164 L307 150 C303 122 282 97 255 97 L230 97 C203 97 190 122 194 150 L224 365 C228 393 248 418 275 418 L300 418 C327 418 341 393 337 365 L335 351 C334 342 339 336 348 336 L431 336 C440 336 447 342 448 351 L450 369 C461 444 424 520 333 520 L272 520 C182 520 122 444 111 369 L80 146 C70 73 106 0 189 -5 L160 -44 Z " />
<glyph glyph-name="egrave" unicode="&#xe8;" horiz-adv-x="454" d="M344 571 C354 571 361 577 362 587 L318 717 C316 726 311 733 302 733 L227 733 C218 733 210 727 208 717 L252 587 C255 578 260 571 269 571 L344 571 Z M224 365 C228 393 248 418 275 418 L300 418 C327 418 341 393 337 365 L328 302 L215 302 L224 365 Z M390 64 C393 67 394 70 395 73 C395 77 393 81 390 84 L344 126 C341 128 339 129 336 129 C331 129 327 126 323 123 C308 111 296 97 263 97 L230 97 C203 97 190 122 194 150 L202 208 L413 208 C422 208 429 214 430 223 L450 369 C461 444 425 520 334 520 L271 520 C181 520 122 444 111 369 L80 146 C69 71 107 -5 197 -5 L249 -5 C249 -5 333 -5 390 64 L390 64 Z " />
<glyph glyph-name="eacute" unicode="&#xe9;" horiz-adv-x="454" d="M355 571 C364 571 371 578 376 587 L456 717 C458 727 452 733 443 733 L368 733 C359 733 352 726 346 717 L266 587 C265 577 270 571 280 571 L355 571 Z M224 365 C228 393 248 418 275 418 L300 418 C327 418 341 393 337 365 L328 302 L215 302 L224 365 Z M390 64 C393 67 394 70 395 73 C395 77 393 81 390 84 L344 126 C341 128 339 129 336 129 C331 129 327 126 323 123 C308 111 296 97 263 97 L230 97 C203 97 190 122 194 150 L202 208 L413 208 C422 208 429 214 430 223 L450 369 C461 444 425 520 334 520 L271 520 C181 520 122 444 111 369 L80 146 C69 71 107 -5 197 -5 L249 -5 C249 -5 333 -5 390 64 L390 64 Z " />
<glyph glyph-name="ecircumflex" unicode="&#xea;" horiz-adv-x="454" d="M293 760 C284 760 278 754 273 745 L172 584 C170 576 175 571 184 571 L252 571 C259 571 266 577 270 584 L322 668 L352 584 C354 577 359 571 366 571 L434 571 C443 571 448 576 450 584 L393 745 C390 754 386 760 377 760 L293 760 Z M224 365 C228 393 248 418 275 418 L300 418 C327 418 341 393 337 365 L328 302 L215 302 L224 365 Z M390 64 C393 67 394 70 395 73 C395 77 393 81 390 84 L344 126 C341 128 339 129 336 129 C331 129 327 126 323 123 C308 111 296 97 263 97 L230 97 C203 97 190 122 194 150 L202 208 L413 208 C422 208 429 214 430 223 L450 369 C461 444 425 520 334 520 L271 520 C181 520 122 444 111 369 L80 146 C69 71 107 -5 197 -5 L249 -5 C249 -5 333 -5 390 64 L390 64 Z " />
<glyph glyph-name="edieresis" unicode="&#xeb;" horiz-adv-x="454" d="M178 585 C177 577 182 571 190 571 L275 571 C283 571 290 577 291 585 L303 673 C304 681 299 687 291 687 L206 687 C198 687 191 681 190 673 L178 585 Z M334 585 C333 577 338 571 346 571 L431 571 C439 571 446 577 447 585 L459 673 C460 681 455 687 447 687 L362 687 C354 687 347 681 346 673 L334 585 Z M224 365 C228 393 248 418 275 418 L300 418 C327 418 341 393 337 365 L328 302 L215 302 L224 365 Z M390 64 C393 67 394 70 395 73 C395 77 393 81 390 84 L344 126 C341 128 339 129 336 129 C331 129 327 126 323 123 C308 111 296 97 263 97 L230 97 C203 97 190 122 194 150 L202 208 L413 208 C422 208 429 214 430 223 L450 369 C461 444 425 520 334 520 L271 520 C181 520 122 444 111 369 L80 146 C69 71 107 -5 197 -5 L249 -5 C249 -5 333 -5 390 64 L390 64 Z " />
<glyph glyph-name="igrave" unicode="&#xec;" horiz-adv-x="263" d="M77 15 C75 6 81 0 90 0 L173 0 C182 0 188 6 190 15 L258 500 C259 509 254 515 245 515 L162 515 C153 515 146 509 145 500 L77 15 Z M245 571 C255 571 262 577 263 587 L219 717 C217 726 212 733 203 733 L128 733 C119 733 111 727 109 717 L153 587 C156 578 161 571 170 571 L245 571 Z " />
<glyph glyph-name="iacute" unicode="&#xed;" horiz-adv-x="263" d="M258 500 C259 509 254 515 245 515 L162 515 C153 515 146 509 145 500 L77 15 C75 6 81 0 90 0 L173 0 C182 0 188 6 190 15 L258 500 Z M253 571 C262 571 269 578 274 587 L354 717 C356 727 350 733 341 733 L266 733 C257 733 250 726 244 717 L164 587 C163 577 168 571 178 571 L253 571 Z " />
<glyph glyph-name="icircumflex" unicode="&#xee;" horiz-adv-x="263" d="M258 500 C259 509 254 515 245 515 L162 515 C153 515 146 509 145 500 L77 15 C75 6 81 0 90 0 L173 0 C182 0 188 6 190 15 L258 500 Z M195 757 C186 757 180 751 175 742 L73 581 C72 573 76 568 85 568 L153 568 C160 568 167 574 171 581 L224 665 L253 581 C255 574 260 568 267 568 L335 568 C344 568 350 573 351 581 L295 742 C292 751 288 757 279 757 L195 757 Z " />
<glyph glyph-name="idieresis" unicode="&#xef;" horiz-adv-x="263" d="M77 15 C75 6 81 0 90 0 L173 0 C182 0 188 6 190 15 L258 500 C259 509 254 515 245 515 L162 515 C153 515 146 509 145 500 L77 15 Z M69 585 C68 577 73 571 81 571 L166 571 C174 571 181 577 182 585 L194 673 C195 681 190 687 182 687 L97 687 C89 687 82 681 81 673 L69 585 Z M244 585 C243 577 248 571 256 571 L341 571 C349 571 356 577 357 585 L369 673 C370 681 365 687 357 687 L272 687 C264 687 257 681 256 673 L244 585 Z " />
<glyph glyph-name="eth" unicode="&#xf0;" horiz-adv-x="536" d="M348 536 L483 536 C492 536 499 542 500 551 L509 612 C510 621 505 627 496 627 L426 627 L476 685 C477 694 474 700 465 700 L383 700 C374 700 364 693 358 685 L309 627 L199 627 C190 627 183 621 182 612 L173 551 C172 542 177 536 186 536 L230 536 L131 422 C126 414 121 405 120 394 L87 161 C74 69 143 -5 238 -5 L307 -5 C401 -5 490 69 503 161 L518 264 C530 355 462 429 368 429 L306 429 C295 429 279 429 258 418 L247 418 L348 536 Z M260 97 C224 97 196 130 201 169 L213 255 C219 295 256 327 292 327 L344 327 C380 327 409 295 403 255 L391 169 C386 130 348 97 312 97 L260 97 Z " />
<glyph glyph-name="ntilde" unicode="&#xf1;" horiz-adv-x="486" d="M320 418 C351 418 364 402 358 358 L310 15 C308 6 314 0 323 0 L406 0 C415 0 421 6 423 15 L472 368 C484 455 475 520 390 520 L367 520 C346 520 298 519 260 461 L252 461 L258 500 C259 509 254 515 245 515 L162 515 C153 515 146 509 145 500 L77 15 C75 6 81 0 90 0 L173 0 C182 0 188 6 190 15 L237 352 C262 405 297 418 314 418 L320 418 Z M372 571 C394 571 414 581 439 595 C446 599 451 605 452 612 L442 674 C441 678 438 684 429 684 C427 684 425 684 421 683 C408 678 394 673 386 673 C333 673 347 708 297 708 C275 708 255 698 230 684 C223 680 218 674 217 667 L227 605 C228 601 231 595 240 595 C242 595 244 595 247 596 C261 601 275 606 283 606 C336 606 321 571 372 571 L372 571 Z " />
<glyph glyph-name="ograve" unicode="&#xf2;" horiz-adv-x="459" d="M342 571 C352 571 359 577 360 587 L316 717 C314 726 309 733 300 733 L225 733 C216 733 208 727 206 717 L250 587 C253 578 258 571 267 571 L342 571 Z M273 520 C183 520 122 444 111 369 L80 146 C69 71 109 -5 199 -5 L258 -5 C348 -5 408 71 419 146 L450 369 C461 444 422 520 332 520 L273 520 Z M300 418 C327 418 341 393 337 365 L307 150 C303 122 282 97 255 97 L230 97 C203 97 190 122 194 150 L224 365 C228 393 248 418 275 418 L300 418 Z " />
<glyph glyph-name="oacute" unicode="&#xf3;" horiz-adv-x="459" d="M349 571 C358 571 365 578 370 587 L450 717 C452 727 446 733 437 733 L362 733 C353 733 346 726 340 717 L260 587 C259 577 264 571 274 571 L349 571 Z M273 520 C183 520 122 444 111 369 L80 146 C69 71 109 -5 199 -5 L258 -5 C348 -5 408 71 419 146 L450 369 C461 444 422 520 332 520 L273 520 Z M300 418 C327 418 341 393 337 365 L307 150 C303 122 282 97 255 97 L230 97 C203 97 190 122 194 150 L224 365 C228 393 248 418 275 418 L300 418 Z " />
<glyph glyph-name="ocircumflex" unicode="&#xf4;" horiz-adv-x="459" d="M293 760 C284 760 278 754 273 745 L172 584 C170 576 175 571 184 571 L252 571 C259 571 266 577 270 584 L322 668 L352 584 C354 577 359 571 366 571 L434 571 C443 571 448 576 450 584 L393 745 C390 754 386 760 377 760 L293 760 Z M273 520 C183 520 122 444 111 369 L80 146 C69 71 109 -5 199 -5 L258 -5 C348 -5 408 71 419 146 L450 369 C461 444 422 520 332 520 L273 520 Z M300 418 C327 418 341 393 337 365 L307 150 C303 122 282 97 255 97 L230 97 C203 97 190 122 194 150 L224 365 C228 393 248 418 275 418 L300 418 Z " />
<glyph glyph-name="otilde" unicode="&#xf5;" horiz-adv-x="459" d="M273 520 C183 520 122 444 111 369 L80 146 C69 71 109 -5 199 -5 L258 -5 C348 -5 408 71 419 146 L450 369 C461 444 422 520 332 520 L273 520 Z M300 418 C327 418 341 393 337 365 L307 150 C303 122 282 97 255 97 L230 97 C203 97 190 122 194 150 L224 365 C228 393 248 418 275 418 L300 418 Z M357 571 C379 571 399 581 424 595 C431 599 436 605 437 612 L427 674 C426 678 423 684 414 684 C412 684 410 684 406 683 C393 678 379 673 371 673 C318 673 332 708 282 708 C260 708 240 698 215 684 C208 680 203 674 202 667 L212 605 C213 601 216 595 225 595 C227 595 229 595 232 596 C246 601 260 606 268 606 C321 606 306 571 357 571 L357 571 Z " />
<glyph glyph-name="odieresis" unicode="&#xf6;" horiz-adv-x="459" d="M167 585 C166 577 171 571 179 571 L264 571 C272 571 279 577 280 585 L292 673 C293 681 288 687 280 687 L195 687 C187 687 180 681 179 673 L167 585 Z M342 585 C341 577 346 571 354 571 L439 571 C447 571 454 577 455 585 L467 673 C468 681 463 687 455 687 L370 687 C362 687 355 681 354 673 L342 585 Z M273 520 C183 520 122 444 111 369 L80 146 C69 71 109 -5 199 -5 L258 -5 C348 -5 408 71 419 146 L450 369 C461 444 422 520 332 520 L273 520 Z M300 418 C327 418 341 393 337 365 L307 150 C303 122 282 97 255 97 L230 97 C203 97 190 122 194 150 L224 365 C228 393 248 418 275 418 L300 418 Z " />
<glyph glyph-name="divide" unicode="&#xf7;" horiz-adv-x="435" d="M366 155 C375 155 382 161 383 170 L392 232 C393 241 388 247 379 247 L124 247 C115 247 108 241 107 232 L98 170 C97 161 102 155 111 155 L366 155 Z M204 314 C203 306 207 300 216 300 L300 300 C308 300 315 306 316 314 L327 394 C328 402 323 408 315 408 L231 408 C222 408 216 402 215 394 L204 314 Z M161 9 C160 1 164 -5 173 -5 L257 -5 C265 -5 272 1 273 9 L284 89 C285 97 280 103 272 103 L188 103 C179 103 173 97 172 89 L161 9 Z " />
<glyph glyph-name="oslash" unicode="&#xf8;" horiz-adv-x="491" d="M66 -76 C65 -85 70 -91 79 -91 L162 -91 C169 -91 174 -88 177 -83 L213 -5 L280 -5 C370 -5 440 71 451 146 L482 369 C489 414 473 460 440 489 L488 591 C489 600 484 606 475 606 L392 606 C385 606 379 603 377 598 L341 520 L283 520 C193 520 122 444 111 369 L80 146 C74 104 87 61 115 32 L66 -76 Z M277 97 L259 97 L362 320 L339 150 C335 122 304 97 277 97 L277 97 Z M224 365 C228 393 258 418 285 418 L294 418 L204 222 L224 365 Z " />
<glyph glyph-name="ugrave" unicode="&#xf9;" horiz-adv-x="469" d="M347 571 C357 571 364 577 365 587 L321 717 C319 726 314 733 305 733 L230 733 C221 733 213 727 211 717 L255 587 C258 578 263 571 272 571 L347 571 Z M312 150 C308 122 287 97 260 97 L235 97 C208 97 195 122 199 150 L248 500 C249 509 244 515 235 515 L152 515 C143 515 136 509 135 500 L85 146 C74 71 114 -5 204 -5 L263 -5 C353 -5 413 71 424 146 L474 500 C475 509 470 515 461 515 L378 515 C369 515 362 509 361 500 L312 150 Z " />
<glyph glyph-name="uacute" unicode="&#xfa;" horiz-adv-x="469" d="M354 571 C363 571 370 578 375 587 L455 717 C457 727 451 733 442 733 L367 733 C358 733 351 726 345 717 L265 587 C264 577 269 571 279 571 L354 571 Z M312 150 C308 122 287 97 260 97 L235 97 C208 97 195 122 199 150 L248 500 C249 509 244 515 235 515 L152 515 C143 515 136 509 135 500 L85 146 C74 71 114 -5 204 -5 L263 -5 C353 -5 413 71 424 146 L474 500 C475 509 470 515 461 515 L378 515 C369 515 362 509 361 500 L312 150 Z " />
<glyph glyph-name="ucircumflex" unicode="&#xfb;" horiz-adv-x="469" d="M298 760 C289 760 283 754 278 745 L177 584 C175 576 180 571 189 571 L257 571 C264 571 271 577 275 584 L327 668 L357 584 C359 577 364 571 371 571 L439 571 C448 571 453 576 455 584 L398 745 C395 754 391 760 382 760 L298 760 Z M312 150 C308 122 287 97 260 97 L235 97 C208 97 195 122 199 150 L248 500 C249 509 244 515 235 515 L152 515 C143 515 136 509 135 500 L85 146 C74 71 114 -5 204 -5 L263 -5 C353 -5 413 71 424 146 L474 500 C475 509 470 515 461 515 L378 515 C369 515 362 509 361 500 L312 150 Z " />
<glyph glyph-name="udieresis" unicode="&#xfc;" horiz-adv-x="469" d="M172 585 C171 577 176 571 184 571 L269 571 C277 571 284 577 285 585 L297 673 C298 681 293 687 285 687 L200 687 C192 687 185 681 184 673 L172 585 Z M347 585 C346 577 351 571 359 571 L444 571 C452 571 459 577 460 585 L472 673 C473 681 468 687 460 687 L375 687 C367 687 360 681 359 673 L347 585 Z M312 150 C308 122 287 97 260 97 L235 97 C208 97 195 122 199 150 L248 500 C249 509 244 515 235 515 L152 515 C143 515 136 509 135 500 L85 146 C74 71 114 -5 204 -5 L263 -5 C353 -5 413 71 424 146 L474 500 C475 509 470 515 461 515 L378 515 C369 515 362 509 361 500 L312 150 Z " />
<glyph glyph-name="yacute" unicode="&#xfd;" horiz-adv-x="431" d="M338 571 C347 571 354 578 359 587 L439 717 C441 727 435 733 426 733 L351 733 C342 733 335 726 329 717 L249 587 C248 577 253 571 263 571 L338 571 Z M137 -48 C125 -75 103 -101 59 -101 L26 -101 C17 -101 10 -107 9 -116 L0 -188 C-1 -197 3 -203 12 -203 L90 -203 C117 -203 230 -181 293 -10 L481 500 C482 509 477 515 468 515 L388 515 C379 515 372 509 369 500 L237 124 L228 124 L202 500 C201 509 196 515 187 515 L107 515 C98 515 91 509 90 500 L137 -48 Z " />
<glyph glyph-name="thorn" unicode="&#xfe;" horiz-adv-x="483" d="M239 365 C243 393 263 418 290 418 L329 418 C356 418 370 393 366 365 L336 150 C332 122 311 97 284 97 L245 97 C218 97 205 122 209 150 L239 365 Z M52 -159 C51 -168 56 -174 65 -174 L148 -174 C157 -174 164 -168 165 -159 L192 34 L200 34 C217 4 249 -5 270 -5 L306 -5 C396 -5 436 60 448 147 L479 368 C491 455 470 520 380 520 L344 520 C323 520 288 511 263 481 L255 481 L284 685 C285 694 280 700 271 700 L188 700 C179 700 172 694 171 685 L52 -159 Z " />
<glyph glyph-name="ydieresis" unicode="&#xff;" horiz-adv-x="431" d="M153 585 C152 577 157 571 165 571 L250 571 C258 571 265 577 266 585 L278 673 C279 681 274 687 266 687 L181 687 C173 687 166 681 165 673 L153 585 Z M328 585 C327 577 332 571 340 571 L425 571 C433 571 440 577 441 585 L453 673 C454 681 449 687 441 687 L356 687 C348 687 341 681 340 673 L328 585 Z M137 -48 C125 -75 103 -101 59 -101 L26 -101 C17 -101 10 -107 9 -116 L0 -188 C-1 -197 3 -203 12 -203 L90 -203 C117 -203 230 -181 293 -10 L481 500 C482 509 477 515 468 515 L388 515 C379 515 372 509 369 500 L237 124 L228 124 L202 500 C201 509 196 515 187 515 L107 515 C98 515 91 509 90 500 L137 -48 Z " />
<glyph glyph-name="Amacron" unicode="&#x100;" horiz-adv-x="559" d="M473 751 C482 751 489 757 490 766 L500 838 C502 847 496 853 487 853 L309 853 C300 853 294 847 292 838 L282 766 C281 757 286 751 295 751 L473 751 Z M317 700 C308 700 303 693 299 684 L32 15 C30 6 36 0 45 0 L126 0 C135 0 141 6 145 15 L186 121 L407 121 L418 15 C418 6 424 0 433 0 L514 0 C523 0 529 6 531 15 L452 684 C450 693 447 700 438 700 L317 700 Z M349 542 L362 542 L395 223 L225 223 L349 542 Z " />
<glyph glyph-name="amacron" unicode="&#x101;" horiz-adv-x="453" d="M414 571 C423 571 430 577 431 586 L441 658 C442 667 437 673 428 673 L250 673 C241 673 234 667 233 658 L223 586 C222 577 227 571 236 571 L414 571 Z M218 97 C191 97 185 122 189 150 L191 165 C195 193 208 218 235 218 L310 218 L301 150 C297 122 283 97 256 97 L218 97 Z M170 498 C163 495 159 491 158 484 C157 482 156 476 164 413 C165 403 172 403 180 403 C217 413 236 418 275 418 C332 418 330 361 326 332 L324 315 L241 315 C152 315 92 266 80 181 L73 129 C61 44 89 -5 178 -5 L196 -5 C238 -5 255 8 276 32 L284 32 L282 15 C280 6 286 0 295 0 L378 0 C387 0 393 6 395 15 L439 333 C446 380 465 520 306 520 C226 520 196 508 170 498 L170 498 Z " />
<glyph glyph-name="Abreve" unicode="&#x102;" horiz-adv-x="559" d="M317 700 C308 700 303 693 299 684 L32 15 C30 6 36 0 45 0 L126 0 C135 0 141 6 145 15 L186 121 L407 121 L418 15 C418 6 424 0 433 0 L514 0 C523 0 529 6 531 15 L452 684 C450 693 447 700 438 700 L317 700 Z M349 542 L362 542 L395 223 L225 223 L349 542 Z M384 751 C474 751 517 792 542 891 C543 900 538 906 529 906 L472 906 C463 906 455 900 452 891 C437 843 428 835 396 835 C364 835 357 843 356 891 C355 900 349 906 340 906 L283 906 C274 906 267 900 266 891 C263 792 294 751 384 751 L384 751 Z " />
<glyph glyph-name="abreve" unicode="&#x103;" horiz-adv-x="453" d="M218 97 C191 97 185 122 189 150 L191 165 C195 193 208 218 235 218 L310 218 L301 150 C297 122 283 97 256 97 L218 97 Z M170 498 C163 495 159 491 158 484 C157 482 156 476 164 413 C165 403 172 403 180 403 C217 413 236 418 275 418 C332 418 330 361 326 332 L324 315 L241 315 C152 315 92 266 80 181 L73 129 C61 44 89 -5 178 -5 L196 -5 C238 -5 255 8 276 32 L284 32 L282 15 C280 6 286 0 295 0 L378 0 C387 0 393 6 395 15 L439 333 C446 380 465 520 306 520 C226 520 196 508 170 498 L170 498 Z M329 571 C419 571 462 612 486 711 C488 720 483 726 474 726 L417 726 C408 726 400 720 396 711 C382 663 373 655 341 655 C309 655 302 663 300 711 C300 720 294 726 285 726 L228 726 C219 726 212 720 210 711 C208 612 239 571 329 571 L329 571 Z " />
<glyph glyph-name="Aogonek" unicode="&#x104;" horiz-adv-x="559" d="M349 542 L362 542 L395 223 L225 223 L349 542 Z M415 57 C348 39 335 -25 333 -41 C327 -82 351 -118 405 -118 L471 -118 C478 -118 484 -113 485 -106 L490 -66 C491 -59 487 -54 480 -54 L431 -54 C431 -54 404 -54 408 -26 C411 -7 424 -1 433 0 L514 0 C523 0 529 6 531 15 L452 684 C450 693 447 700 438 700 L317 700 C308 700 303 693 299 684 L32 15 C30 6 36 0 45 0 L126 0 C135 0 141 6 145 15 L186 121 L407 121 L415 57 Z " />
<glyph glyph-name="aogonek" unicode="&#x105;" horiz-adv-x="453" d="M218 97 C191 97 185 122 189 150 L191 165 C195 193 208 218 235 218 L310 218 L301 150 C297 122 283 97 256 97 L218 97 Z M439 333 C446 380 465 520 306 520 C226 520 196 508 170 498 C163 495 159 491 158 484 C157 482 156 476 164 413 C165 403 172 403 180 403 C217 413 236 418 275 418 C332 418 330 361 326 332 L324 315 L241 315 C152 315 92 266 80 181 L73 129 C61 44 89 -5 178 -5 L196 -5 C238 -5 255 8 276 32 L284 32 L278 -14 C243 -14 195 -35 187 -90 C180 -142 191 -171 245 -171 L327 -171 C334 -171 340 -166 341 -159 L347 -119 C348 -112 343 -107 336 -107 L271 -107 C271 -107 257 -107 259 -93 C262 -78 276 -78 276 -78 L367 -78 C376 -78 382 -72 384 -63 L439 333 Z " />
<glyph glyph-name="Cacute" unicode="&#x106;" horiz-adv-x="529" d="M415 751 C424 751 431 758 436 767 L517 897 C518 907 512 913 503 913 L428 913 C419 913 412 906 407 897 L326 767 C325 757 330 751 340 751 L415 751 Z M507 201 C508 210 503 216 494 216 L411 216 C402 216 395 210 394 201 L389 169 C384 129 352 97 316 97 L254 97 C218 97 196 129 201 169 L252 531 C258 570 289 603 325 603 L387 603 C423 603 446 570 440 531 L435 494 C434 485 439 479 448 479 L531 479 C540 479 547 485 548 494 L554 539 C566 625 510 705 415 705 L327 705 C232 705 152 625 140 539 L87 161 C75 75 132 -5 227 -5 L315 -5 C410 -5 489 75 501 161 L507 201 Z " />
<glyph glyph-name="cacute" unicode="&#x107;" horiz-adv-x="439" d="M351 571 C360 571 367 578 372 587 L452 717 C454 727 448 733 439 733 L364 733 C355 733 348 726 342 717 L262 587 C261 577 266 571 276 571 L351 571 Z M307 150 C303 122 282 97 255 97 L230 97 C203 97 190 122 194 150 L224 365 C228 393 248 418 275 418 L300 418 C327 418 341 393 337 365 L335 351 C334 342 339 336 348 336 L431 336 C440 336 447 342 448 351 L450 369 C461 444 424 520 333 520 L272 520 C182 520 122 444 111 369 L80 146 C69 71 108 -5 198 -5 L259 -5 C350 -5 408 71 419 146 L422 164 C423 173 418 179 409 179 L326 179 C317 179 310 173 309 164 L307 150 Z " />
<glyph glyph-name="Ccircumflex" unicode="&#x108;" horiz-adv-x="529" d="M360 940 C351 940 345 934 340 925 L238 764 C237 756 241 751 250 751 L318 751 C325 751 332 757 336 764 L389 848 L418 764 C420 757 425 751 432 751 L500 751 C509 751 515 756 516 764 L460 925 C457 934 453 940 444 940 L360 940 Z M507 201 C508 210 503 216 494 216 L411 216 C402 216 395 210 394 201 L389 169 C384 129 352 97 316 97 L254 97 C218 97 196 129 201 169 L252 531 C258 570 289 603 325 603 L387 603 C423 603 446 570 440 531 L435 494 C434 485 439 479 448 479 L531 479 C540 479 547 485 548 494 L554 539 C566 625 510 705 415 705 L327 705 C232 705 152 625 140 539 L87 161 C75 75 132 -5 227 -5 L315 -5 C410 -5 489 75 501 161 L507 201 Z " />
<glyph glyph-name="ccircumflex" unicode="&#x109;" horiz-adv-x="439" d="M294 760 C285 760 279 754 274 745 L173 584 C171 576 176 571 185 571 L253 571 C260 571 267 577 271 584 L323 668 L353 584 C355 577 360 571 367 571 L435 571 C444 571 449 576 451 584 L394 745 C391 754 387 760 378 760 L294 760 Z M307 150 C303 122 282 97 255 97 L230 97 C203 97 190 122 194 150 L224 365 C228 393 248 418 275 418 L300 418 C327 418 341 393 337 365 L335 351 C334 342 339 336 348 336 L431 336 C440 336 447 342 448 351 L450 369 C461 444 424 520 333 520 L272 520 C182 520 122 444 111 369 L80 146 C69 71 108 -5 198 -5 L259 -5 C350 -5 408 71 419 146 L422 164 C423 173 418 179 409 179 L326 179 C317 179 310 173 309 164 L307 150 Z " />
<glyph glyph-name="Cdotaccent" unicode="&#x10a;" horiz-adv-x="529" d="M321 765 C320 757 325 751 333 751 L418 751 C426 751 433 757 434 765 L446 853 C448 861 442 867 434 867 L349 867 C341 867 335 861 333 853 L321 765 Z M507 201 C508 210 503 216 494 216 L411 216 C402 216 395 210 394 201 L389 169 C384 129 352 97 316 97 L254 97 C218 97 196 129 201 169 L252 531 C258 570 289 603 325 603 L387 603 C423 603 446 570 440 531 L435 494 C434 485 439 479 448 479 L531 479 C540 479 547 485 548 494 L554 539 C566 625 510 705 415 705 L327 705 C232 705 152 625 140 539 L87 161 C75 75 132 -5 227 -5 L315 -5 C410 -5 489 75 501 161 L507 201 Z " />
<glyph glyph-name="cdotaccent" unicode="&#x10b;" horiz-adv-x="439" d="M253 585 C252 577 257 571 265 571 L350 571 C358 571 365 577 366 585 L378 673 C379 681 374 687 366 687 L281 687 C273 687 266 681 265 673 L253 585 Z M307 150 C303 122 282 97 255 97 L230 97 C203 97 190 122 194 150 L224 365 C228 393 248 418 275 418 L300 418 C327 418 341 393 337 365 L335 351 C334 342 339 336 348 336 L431 336 C440 336 447 342 448 351 L450 369 C461 444 424 520 333 520 L272 520 C182 520 122 444 111 369 L80 146 C69 71 108 -5 198 -5 L259 -5 C350 -5 408 71 419 146 L422 164 C423 173 418 179 409 179 L326 179 C317 179 310 173 309 164 L307 150 Z " />
<glyph glyph-name="Ccaron" unicode="&#x10c;" horiz-adv-x="529" d="M421 751 C430 751 436 757 441 766 L543 927 C544 935 540 940 531 940 L463 940 C456 940 449 934 445 927 L392 843 L363 927 C361 934 356 940 349 940 L281 940 C272 940 266 935 265 927 L321 766 C324 757 328 751 337 751 L421 751 Z M507 201 C508 210 503 216 494 216 L411 216 C402 216 395 210 394 201 L389 169 C384 129 352 97 316 97 L254 97 C218 97 196 129 201 169 L252 531 C258 570 289 603 325 603 L387 603 C423 603 446 570 440 531 L435 494 C434 485 439 479 448 479 L531 479 C540 479 547 485 548 494 L554 539 C566 625 510 705 415 705 L327 705 C232 705 152 625 140 539 L87 161 C75 75 132 -5 227 -5 L315 -5 C410 -5 489 75 501 161 L507 201 Z " />
<glyph glyph-name="ccaron" unicode="&#x10d;" horiz-adv-x="439" d="M352 571 C361 571 367 577 372 586 L473 747 C475 755 470 760 461 760 L393 760 C386 760 379 754 375 747 L323 663 L293 747 C291 754 286 760 279 760 L211 760 C202 760 197 755 195 747 L252 586 C255 577 259 571 268 571 L352 571 Z M307 150 C303 122 282 97 255 97 L230 97 C203 97 190 122 194 150 L224 365 C228 393 248 418 275 418 L300 418 C327 418 341 393 337 365 L335 351 C334 342 339 336 348 336 L431 336 C440 336 447 342 448 351 L450 369 C461 444 424 520 333 520 L272 520 C182 520 122 444 111 369 L80 146 C69 71 108 -5 198 -5 L259 -5 C350 -5 408 71 419 146 L422 164 C423 173 418 179 409 179 L326 179 C317 179 310 173 309 164 L307 150 Z " />
<glyph glyph-name="Dcaron" unicode="&#x10e;" horiz-adv-x="554" d="M388 751 C397 751 403 757 408 766 L510 927 C511 935 507 940 498 940 L430 940 C423 940 416 934 412 927 L359 843 L330 927 C328 934 323 940 316 940 L248 940 C239 940 233 935 232 927 L288 766 C291 757 295 751 304 751 L388 751 Z M392 598 C428 598 456 565 450 526 L401 174 C395 134 358 102 322 102 L202 102 L272 598 L392 598 Z M188 700 C179 700 172 694 171 685 L77 15 C75 6 81 0 90 0 L316 0 C411 0 499 74 512 166 L564 534 C576 626 509 700 414 700 L188 700 Z " />
<glyph glyph-name="dcaron" unicode="&#x10f;" horiz-adv-x="692" d="M671 538 C680 538 687 545 692 554 L773 684 C774 694 768 700 759 700 L684 700 C675 700 668 693 663 684 L582 554 C581 544 586 538 596 538 L671 538 Z M316 150 C312 122 291 97 264 97 L225 97 C198 97 185 122 189 150 L219 365 C223 393 243 418 270 418 L309 418 C336 418 350 393 346 365 L316 150 Z M504 685 C505 694 500 700 491 700 L408 700 C399 700 392 694 391 685 L362 481 L354 481 C337 511 306 520 285 520 L249 520 C159 520 118 455 106 368 L75 147 C63 60 85 -5 175 -5 L211 -5 C232 -5 266 4 291 34 L299 34 L297 15 C295 6 301 0 310 0 L393 0 C402 0 408 6 410 15 L504 685 Z " />
<glyph glyph-name="Dcroat" unicode="&#x110;" horiz-adv-x="567" d="M201 700 C192 700 185 694 184 685 L144 401 L86 401 C77 401 70 395 69 386 L59 314 C57 305 63 299 72 299 L130 299 L90 15 C88 6 94 0 103 0 L329 0 C424 0 512 74 525 166 L577 534 C589 626 522 700 427 700 L201 700 Z M314 299 C323 299 329 305 331 314 L341 386 C342 395 337 401 328 401 L257 401 L285 598 L405 598 C441 598 469 565 463 526 L414 174 C408 134 371 102 335 102 L215 102 L243 299 L314 299 Z " />
<glyph glyph-name="dcroat" unicode="&#x111;" horiz-adv-x="483" d="M316 150 C312 122 291 97 264 97 L225 97 C198 97 185 122 189 150 L219 365 C223 393 243 418 270 418 L309 418 C336 418 350 393 346 365 L316 150 Z M373 558 L362 481 L354 481 C337 511 306 520 285 520 L249 520 C159 520 118 455 106 368 L75 147 C63 60 85 -5 175 -5 L211 -5 C232 -5 266 4 291 34 L299 34 L297 15 C295 6 301 0 310 0 L393 0 C402 0 408 6 410 15 L486 558 L531 558 C540 558 547 564 548 573 L557 640 C559 649 554 655 545 655 L500 655 L504 685 C505 694 500 700 491 700 L408 700 C399 700 392 694 391 685 L387 655 L315 655 C306 655 299 649 297 640 L288 573 C287 564 292 558 301 558 L373 558 Z " />
<glyph glyph-name="Emacron" unicode="&#x112;" horiz-adv-x="479" d="M449 751 C458 751 465 757 466 766 L476 838 C478 847 472 853 463 853 L253 853 C244 853 238 847 236 838 L226 766 C225 757 230 751 239 751 L449 751 Z M202 102 L231 312 L418 312 C427 312 434 318 435 327 L446 399 C447 408 442 414 433 414 L246 414 L272 598 L483 598 C492 598 498 604 500 613 L510 685 C511 694 506 700 497 700 L188 700 C179 700 172 694 171 685 L77 15 C75 6 81 0 90 0 L399 0 C408 0 414 6 416 15 L426 87 C427 96 422 102 413 102 L202 102 Z " />
<glyph glyph-name="emacron" unicode="&#x113;" horiz-adv-x="454" d="M397 571 C406 571 413 577 414 586 L424 658 C425 667 420 673 411 673 L235 673 C226 673 219 667 218 658 L208 586 C207 577 212 571 221 571 L397 571 Z M224 365 C228 393 248 418 275 418 L300 418 C327 418 341 393 337 365 L328 302 L215 302 L224 365 Z M390 64 C393 67 394 70 395 73 C395 77 393 81 390 84 L344 126 C341 128 339 129 336 129 C331 129 327 126 323 123 C308 111 296 97 263 97 L230 97 C203 97 190 122 194 150 L202 208 L413 208 C422 208 429 214 430 223 L450 369 C461 444 425 520 334 520 L271 520 C181 520 122 444 111 369 L80 146 C69 71 107 -5 197 -5 L249 -5 C249 -5 333 -5 390 64 L390 64 Z " />
<glyph glyph-name="Edotaccent" unicode="&#x116;" horiz-adv-x="479" d="M296 765 C295 757 300 751 308 751 L393 751 C401 751 408 757 409 765 L421 853 C423 861 417 867 409 867 L324 867 C316 867 310 861 308 853 L296 765 Z M202 102 L231 312 L418 312 C427 312 434 318 435 327 L446 399 C447 408 442 414 433 414 L246 414 L272 598 L483 598 C492 598 498 604 500 613 L510 685 C511 694 506 700 497 700 L188 700 C179 700 172 694 171 685 L77 15 C75 6 81 0 90 0 L399 0 C408 0 414 6 416 15 L426 87 C427 96 422 102 413 102 L202 102 Z " />
<glyph glyph-name="edotaccent" unicode="&#x117;" horiz-adv-x="454" d="M256 585 C255 577 260 571 268 571 L353 571 C361 571 368 577 369 585 L381 673 C382 681 377 687 369 687 L284 687 C276 687 269 681 268 673 L256 585 Z M224 365 C228 393 248 418 275 418 L300 418 C327 418 341 393 337 365 L328 302 L215 302 L224 365 Z M390 64 C393 67 394 70 395 73 C395 77 393 81 390 84 L344 126 C341 128 339 129 336 129 C331 129 327 126 323 123 C308 111 296 97 263 97 L230 97 C203 97 190 122 194 150 L202 208 L413 208 C422 208 429 214 430 223 L450 369 C461 444 425 520 334 520 L271 520 C181 520 122 444 111 369 L80 146 C69 71 107 -5 197 -5 L249 -5 C249 -5 333 -5 390 64 L390 64 Z " />
<glyph glyph-name="Eogonek" unicode="&#x118;" horiz-adv-x="479" d="M231 0 C223 -12 218 -25 216 -41 C210 -82 234 -118 288 -118 L370 -118 C377 -118 383 -113 384 -106 L389 -66 C390 -59 386 -54 379 -54 L314 -54 C314 -54 287 -54 291 -26 C294 -7 307 -1 316 0 L399 0 C408 0 414 6 416 15 L426 87 C427 96 422 102 413 102 L202 102 L231 312 L418 312 C427 312 434 318 435 327 L446 399 C447 408 442 414 433 414 L246 414 L272 598 L483 598 C492 598 498 604 500 613 L510 685 C511 694 506 700 497 700 L188 700 C179 700 172 694 171 685 L77 15 C75 6 81 0 90 0 L231 0 Z " />
<glyph glyph-name="eogonek" unicode="&#x119;" horiz-adv-x="454" d="M390 64 C393 67 394 70 395 73 C395 77 393 81 390 84 L344 126 C341 128 339 129 336 129 C331 129 327 126 323 123 C308 111 296 97 263 97 L230 97 C203 97 190 122 194 150 L202 208 L413 208 C422 208 429 214 430 223 L450 369 C461 444 425 520 334 520 L271 520 C181 520 122 444 111 369 L80 146 C71 84 95 22 153 2 C146 -11 137 -33 135 -46 C129 -87 153 -123 207 -123 L289 -123 C296 -123 302 -118 303 -111 L309 -71 C310 -64 305 -59 298 -59 L233 -59 C233 -59 206 -59 210 -31 C213 -13 225 -6 233 -5 L249 -5 C249 -5 333 -5 390 64 L390 64 Z M224 365 C228 393 248 418 275 418 L300 418 C327 418 341 393 337 365 L328 302 L215 302 L224 365 Z " />
<glyph glyph-name="Ecaron" unicode="&#x11a;" horiz-adv-x="479" d="M388 751 C397 751 403 757 408 766 L510 927 C511 935 507 940 498 940 L430 940 C423 940 416 934 412 927 L359 843 L330 927 C328 934 323 940 316 940 L248 940 C239 940 233 935 232 927 L288 766 C291 757 295 751 304 751 L388 751 Z M202 102 L231 312 L418 312 C427 312 434 318 435 327 L446 399 C447 408 442 414 433 414 L246 414 L272 598 L483 598 C492 598 498 604 500 613 L510 685 C511 694 506 700 497 700 L188 700 C179 700 172 694 171 685 L77 15 C75 6 81 0 90 0 L399 0 C408 0 414 6 416 15 L426 87 C427 96 422 102 413 102 L202 102 Z " />
<glyph glyph-name="ecaron" unicode="&#x11b;" horiz-adv-x="454" d="M350 571 C359 571 365 577 370 586 L471 747 C473 755 468 760 459 760 L391 760 C384 760 377 754 373 747 L321 663 L291 747 C289 754 284 760 277 760 L209 760 C200 760 195 755 193 747 L250 586 C253 577 257 571 266 571 L350 571 Z M224 365 C228 393 248 418 275 418 L300 418 C327 418 341 393 337 365 L328 302 L215 302 L224 365 Z M390 64 C393 67 394 70 395 73 C395 77 393 81 390 84 L344 126 C341 128 339 129 336 129 C331 129 327 126 323 123 C308 111 296 97 263 97 L230 97 C203 97 190 122 194 150 L202 208 L413 208 C422 208 429 214 430 223 L450 369 C461 444 425 520 334 520 L271 520 C181 520 122 444 111 369 L80 146 C69 71 107 -5 197 -5 L249 -5 C249 -5 333 -5 390 64 L390 64 Z " />
<glyph glyph-name="Gcircumflex" unicode="&#x11c;" horiz-adv-x="544" d="M356 940 C347 940 341 934 336 925 L234 764 C233 756 237 751 246 751 L314 751 C321 751 328 757 332 764 L385 848 L414 764 C416 757 421 751 428 751 L496 751 C505 751 511 756 512 764 L456 925 C453 934 449 940 440 940 L356 940 Z M389 169 C384 129 352 97 316 97 L254 97 C218 97 196 129 201 169 L252 531 C258 570 289 603 325 603 L387 603 C423 603 446 570 440 531 L435 494 C434 485 439 479 448 479 L531 479 C540 479 547 485 548 494 L554 539 C566 625 510 705 415 705 L327 705 C232 705 152 625 140 539 L87 161 C75 75 132 -5 227 -5 L315 -5 C410 -5 489 75 501 161 L531 375 C532 384 527 390 518 390 L325 390 C316 390 309 384 308 375 L298 303 C297 294 302 288 311 288 L406 288 L389 169 Z " />
<glyph glyph-name="gcircumflex" unicode="&#x11d;" horiz-adv-x="483" d="M289 760 C280 760 274 754 269 745 L168 584 C166 576 171 571 180 571 L248 571 C255 571 262 577 266 584 L318 668 L348 584 C350 577 355 571 362 571 L430 571 C439 571 444 576 446 584 L389 745 C386 754 382 760 373 760 L289 760 Z M291 -27 C286 -58 279 -101 194 -101 C156 -101 145 -96 120 -90 C113 -90 106 -90 100 -100 C77 -162 76 -169 75 -171 C74 -178 78 -181 85 -184 C109 -193 121 -203 197 -203 C373 -203 397 -74 404 -28 L478 500 C479 509 474 515 465 515 L382 515 C373 515 366 509 365 500 L362 481 L354 481 C337 511 306 520 285 520 L249 520 C159 520 118 455 106 368 L75 147 C63 60 85 -5 175 -5 L211 -5 C232 -5 266 4 291 34 L299 34 L291 -27 Z M316 150 C312 122 291 97 264 97 L225 97 C198 97 185 122 189 150 L219 365 C223 393 243 418 270 418 L309 418 C336 418 350 393 346 365 L316 150 Z " />
<glyph glyph-name="Gbreve" unicode="&#x11e;" horiz-adv-x="544" d="M389 169 C384 129 352 97 316 97 L254 97 C218 97 196 129 201 169 L252 531 C258 570 289 603 325 603 L387 603 C423 603 446 570 440 531 L435 494 C434 485 439 479 448 479 L531 479 C540 479 547 485 548 494 L554 539 C566 625 510 705 415 705 L327 705 C232 705 152 625 140 539 L87 161 C75 75 132 -5 227 -5 L315 -5 C410 -5 489 75 501 161 L531 375 C532 384 527 390 518 390 L325 390 C316 390 309 384 308 375 L298 303 C297 294 302 288 311 288 L406 288 L389 169 Z M376 751 C466 751 509 792 534 891 C535 900 530 906 521 906 L464 906 C455 906 447 900 444 891 C429 843 420 835 388 835 C356 835 349 843 348 891 C347 900 341 906 332 906 L275 906 C266 906 259 900 258 891 C255 792 286 751 376 751 L376 751 Z " />
<glyph glyph-name="gbreve" unicode="&#x11f;" horiz-adv-x="483" d="M291 -27 C286 -58 279 -101 194 -101 C156 -101 145 -96 120 -90 C113 -90 106 -90 100 -100 C77 -162 76 -169 75 -171 C74 -178 78 -181 85 -184 C109 -193 121 -203 197 -203 C373 -203 397 -74 404 -28 L478 500 C479 509 474 515 465 515 L382 515 C373 515 366 509 365 500 L362 481 L354 481 C337 511 306 520 285 520 L249 520 C159 520 118 455 106 368 L75 147 C63 60 85 -5 175 -5 L211 -5 C232 -5 266 4 291 34 L299 34 L291 -27 Z M316 150 C312 122 291 97 264 97 L225 97 C198 97 185 122 189 150 L219 365 C223 393 243 418 270 418 L309 418 C336 418 350 393 346 365 L316 150 Z M316 571 C406 571 449 612 473 711 C475 720 470 726 461 726 L404 726 C395 726 387 720 383 711 C369 663 360 655 328 655 C296 655 289 663 287 711 C287 720 281 726 272 726 L215 726 C206 726 199 720 197 711 C195 612 226 571 316 571 L316 571 Z " />
<glyph glyph-name="Gdotaccent" unicode="&#x120;" horiz-adv-x="544" d="M320 765 C319 757 324 751 332 751 L417 751 C425 751 432 757 433 765 L445 853 C447 861 441 867 433 867 L348 867 C340 867 334 861 332 853 L320 765 Z M389 169 C384 129 352 97 316 97 L254 97 C218 97 196 129 201 169 L252 531 C258 570 289 603 325 603 L387 603 C423 603 446 570 440 531 L435 494 C434 485 439 479 448 479 L531 479 C540 479 547 485 548 494 L554 539 C566 625 510 705 415 705 L327 705 C232 705 152 625 140 539 L87 161 C75 75 132 -5 227 -5 L315 -5 C410 -5 489 75 501 161 L531 375 C532 384 527 390 518 390 L325 390 C316 390 309 384 308 375 L298 303 C297 294 302 288 311 288 L406 288 L389 169 Z " />
<glyph glyph-name="gdotaccent" unicode="&#x121;" horiz-adv-x="483" d="M250 585 C249 577 254 571 262 571 L347 571 C355 571 362 577 363 585 L375 673 C376 681 371 687 363 687 L278 687 C270 687 263 681 262 673 L250 585 Z M291 -27 C286 -58 279 -101 194 -101 C156 -101 145 -96 120 -90 C113 -90 106 -90 100 -100 C77 -162 76 -169 75 -171 C74 -178 78 -181 85 -184 C109 -193 121 -203 197 -203 C373 -203 397 -74 404 -28 L478 500 C479 509 474 515 465 515 L382 515 C373 515 366 509 365 500 L362 481 L354 481 C337 511 306 520 285 520 L249 520 C159 520 118 455 106 368 L75 147 C63 60 85 -5 175 -5 L211 -5 C232 -5 266 4 291 34 L299 34 L291 -27 Z M316 150 C312 122 291 97 264 97 L225 97 C198 97 185 122 189 150 L219 365 C223 393 243 418 270 418 L309 418 C336 418 350 393 346 365 L316 150 Z " />
<glyph glyph-name="uni0122" unicode="&#x122;" horiz-adv-x="544" d="M243 -193 C252 -193 259 -186 265 -177 L318 -69 C319 -59 313 -53 304 -53 L229 -53 C220 -53 213 -60 208 -69 L155 -177 C153 -187 158 -193 168 -193 L243 -193 Z M389 169 C384 129 352 97 316 97 L254 97 C218 97 196 129 201 169 L252 531 C258 570 289 603 325 603 L387 603 C423 603 446 570 440 531 L435 494 C434 485 439 479 448 479 L531 479 C540 479 547 485 548 494 L554 539 C566 625 510 705 415 705 L327 705 C232 705 152 625 140 539 L87 161 C75 75 132 -5 227 -5 L315 -5 C410 -5 489 75 501 161 L531 375 C532 384 527 390 518 390 L325 390 C316 390 309 384 308 375 L298 303 C297 294 302 288 311 288 L406 288 L389 169 Z " />
<glyph glyph-name="uni0123" unicode="&#x123;" horiz-adv-x="483" d="M356 571 C365 571 372 578 377 587 L457 717 C459 727 453 733 444 733 L369 733 C360 733 353 726 347 717 L267 587 C266 577 271 571 281 571 L356 571 Z M291 -27 C286 -58 279 -101 194 -101 C156 -101 145 -96 120 -90 C113 -90 106 -90 100 -100 C77 -162 76 -169 75 -171 C74 -178 78 -181 85 -184 C109 -193 121 -203 197 -203 C373 -203 397 -74 404 -28 L478 500 C479 509 474 515 465 515 L382 515 C373 515 366 509 365 500 L362 481 L354 481 C337 511 306 520 285 520 L249 520 C159 520 118 455 106 368 L75 147 C63 60 85 -5 175 -5 L211 -5 C232 -5 266 4 291 34 L299 34 L291 -27 Z M316 150 C312 122 291 97 264 97 L225 97 C198 97 185 122 189 150 L219 365 C223 393 243 418 270 418 L309 418 C336 418 350 393 346 365 L316 150 Z " />
<glyph glyph-name="Hcircumflex" unicode="&#x124;" horiz-adv-x="558" d="M369 940 C360 940 354 934 349 925 L247 764 C246 756 250 751 259 751 L327 751 C334 751 341 757 345 764 L398 848 L427 764 C429 757 434 751 441 751 L509 751 C518 751 524 756 525 764 L469 925 C466 934 462 940 453 940 L369 940 Z M372 15 C370 6 376 0 385 0 L468 0 C477 0 483 6 485 15 L579 685 C580 694 575 700 566 700 L483 700 C474 700 467 694 466 685 L424 390 L242 390 L284 685 C285 694 280 700 271 700 L188 700 C179 700 172 694 171 685 L77 15 C75 6 81 0 90 0 L173 0 C182 0 188 6 190 15 L228 288 L410 288 L372 15 Z " />
<glyph glyph-name="hcircumflex" unicode="&#x125;" horiz-adv-x="486" d="M306 940 C297 940 291 934 286 925 L184 764 C183 756 187 751 196 751 L264 751 C271 751 278 757 282 764 L335 848 L364 764 C366 757 371 751 378 751 L446 751 C455 751 461 756 462 764 L406 925 C403 934 399 940 390 940 L306 940 Z M320 418 C351 418 364 402 358 358 L310 15 C308 6 314 0 323 0 L406 0 C415 0 421 6 423 15 L472 368 C484 455 475 520 390 520 L367 520 C346 520 298 519 260 461 L252 461 L284 685 C285 694 280 700 271 700 L188 700 C179 700 172 694 171 685 L77 15 C75 6 81 0 90 0 L173 0 C182 0 188 6 190 15 L237 352 C262 405 297 418 314 418 L320 418 Z " />
<glyph glyph-name="Hbar" unicode="&#x126;" horiz-adv-x="542" d="M574 445 C583 445 590 451 591 460 L601 532 C603 541 597 547 588 547 L551 547 L571 685 C572 694 567 700 558 700 L475 700 C466 700 459 694 458 685 L438 547 L256 547 L276 685 C277 694 272 700 263 700 L180 700 C171 700 164 694 163 685 L143 547 L106 547 C97 547 91 541 89 532 L79 460 C78 451 83 445 92 445 L129 445 L69 15 C67 6 73 0 82 0 L165 0 C174 0 180 6 182 15 L209 211 L391 211 L364 15 C362 6 368 0 377 0 L460 0 C469 0 475 6 477 15 L537 445 L574 445 Z M242 445 L424 445 L405 313 L223 313 L242 445 Z " />
<glyph glyph-name="hbar" unicode="&#x127;" horiz-adv-x="486" d="M153 558 L77 15 C75 6 81 0 90 0 L173 0 C182 0 188 6 190 15 L237 352 C262 405 297 418 314 418 L320 418 C351 418 364 402 358 358 L310 15 C308 6 314 0 323 0 L406 0 C415 0 421 6 423 15 L472 368 C484 455 475 520 390 520 L367 520 C346 520 298 519 260 461 L252 461 L266 558 L338 558 C347 558 354 564 355 573 L364 640 C366 649 361 655 352 655 L280 655 L284 685 C285 694 280 700 271 700 L188 700 C179 700 172 694 171 685 L167 655 L122 655 C113 655 106 649 104 640 L95 573 C94 564 99 558 108 558 L153 558 Z " />
<glyph glyph-name="Itilde" unicode="&#x128;" horiz-adv-x="263" d="M284 685 C285 694 280 700 271 700 L188 700 C179 700 172 694 171 685 L77 15 C75 6 81 0 90 0 L173 0 C182 0 188 6 190 15 L284 685 Z M285 751 C307 751 327 761 352 775 C359 779 364 785 365 792 L356 854 C354 858 351 864 342 864 C340 864 338 864 335 863 C321 858 307 853 299 853 C246 853 260 888 210 888 C188 888 168 878 143 864 C136 860 132 854 131 847 L140 785 C141 781 144 775 153 775 C155 775 157 775 161 776 C174 781 188 786 196 786 C249 786 234 751 285 751 L285 751 Z " />
<glyph glyph-name="itilde" unicode="&#x129;" horiz-adv-x="263" d="M258 500 C259 509 254 515 245 515 L162 515 C153 515 146 509 145 500 L77 15 C75 6 81 0 90 0 L173 0 C182 0 188 6 190 15 L258 500 Z M260 572 C282 572 302 582 327 596 C334 600 339 606 340 613 L330 675 C329 679 326 685 317 685 C315 685 313 685 310 684 C296 679 282 674 274 674 C221 674 235 709 185 709 C163 709 143 699 118 685 C111 681 106 675 105 668 L115 606 C116 602 119 596 128 596 C130 596 132 596 135 597 C149 602 163 607 171 607 C224 607 209 572 260 572 L260 572 Z " />
<glyph glyph-name="Imacron" unicode="&#x12a;" horiz-adv-x="263" d="M284 685 C285 694 280 700 271 700 L188 700 C179 700 172 694 171 685 L77 15 C75 6 81 0 90 0 L173 0 C182 0 188 6 190 15 L284 685 Z M341 751 C350 751 357 757 358 766 L368 838 C370 847 364 853 355 853 L145 853 C136 853 130 847 128 838 L118 766 C117 757 122 751 131 751 L341 751 Z " />
<glyph glyph-name="imacron" unicode="&#x12b;" horiz-adv-x="263" d="M258 500 C259 509 254 515 245 515 L162 515 C153 515 146 509 145 500 L77 15 C75 6 81 0 90 0 L173 0 C182 0 188 6 190 15 L258 500 Z M300 571 C309 571 316 577 317 586 L327 658 C328 667 323 673 314 673 L136 673 C127 673 120 667 119 658 L109 586 C108 577 113 571 122 571 L300 571 Z " />
<glyph glyph-name="Iogonek" unicode="&#x12e;" horiz-adv-x="263" d="M284 685 C285 694 280 700 271 700 L188 700 C179 700 172 694 171 685 L83 64 C48 64 11 43 5 2 C-4 -69 7 -93 61 -93 L143 -93 C150 -93 156 -88 157 -81 L163 -41 C164 -34 159 -29 152 -29 L87 -29 C87 -29 73 -29 75 -15 C77 -3 86 0 92 0 L173 0 C182 0 188 6 190 15 L284 685 Z " />
<glyph glyph-name="iogonek" unicode="&#x12f;" horiz-adv-x="263" d="M258 500 C259 509 254 515 245 515 L162 515 C153 515 146 509 145 500 L83 64 C48 64 11 43 5 2 C-4 -69 7 -93 61 -93 L143 -93 C150 -93 156 -88 157 -81 L163 -41 C164 -34 159 -29 152 -29 L87 -29 C87 -29 73 -29 75 -15 C77 -3 86 0 92 0 L173 0 C182 0 188 6 190 15 L258 500 Z M155 593 C154 584 159 578 168 578 L257 578 C266 578 273 584 274 593 L287 685 C288 694 283 700 274 700 L185 700 C176 700 169 694 168 685 L155 593 Z " />
<glyph glyph-name="Idotaccent" unicode="&#x130;" horiz-adv-x="263" d="M77 15 C75 6 81 0 90 0 L173 0 C182 0 188 6 190 15 L266 556 C267 565 262 571 253 571 L170 571 C161 571 154 565 153 556 L77 15 Z M163 649 C161 640 167 634 176 634 L265 634 C274 634 280 640 282 649 L295 741 C296 750 291 756 282 756 L193 756 C184 756 177 750 176 741 L163 649 Z " />
<glyph glyph-name="dotlessi" unicode="&#x131;" horiz-adv-x="263" d="M77 15 C75 6 81 0 90 0 L173 0 C182 0 188 6 190 15 L258 500 C259 509 254 515 245 515 L162 515 C153 515 146 509 145 500 L77 15 Z " />
<glyph glyph-name="Jcircumflex" unicode="&#x134;" horiz-adv-x="396" d="M290 940 C281 940 275 934 270 925 L168 764 C167 756 171 751 180 751 L248 751 C255 751 262 757 266 764 L319 848 L348 764 C350 757 355 751 362 751 L430 751 C439 751 445 756 446 764 L390 925 C387 934 383 940 374 940 L290 940 Z M17 56 C38 31 65 -5 147 -5 C284 -5 352 81 364 170 L437 685 C438 694 433 700 424 700 L341 700 C332 700 325 694 324 685 L252 172 C250 163 241 97 165 97 C133 97 125 102 102 126 C99 128 96 129 92 129 C88 129 84 128 80 126 L20 77 C17 73 14 70 14 66 C13 62 15 59 17 56 L17 56 Z " />
<glyph glyph-name="jcircumflex" unicode="&#x135;" horiz-adv-x="263" d="M12 -184 C42 -173 170 -124 189 10 L258 500 C259 509 254 515 245 515 L162 515 C153 515 146 509 145 500 L77 15 C77 15 67 -50 -16 -81 C-22 -83 -26 -89 -27 -94 C-27 -96 -26 -98 -26 -100 L-5 -177 C-3 -183 0 -185 4 -185 C6 -185 9 -185 12 -184 L12 -184 Z M195 757 C186 757 180 751 175 742 L73 581 C72 573 76 568 85 568 L153 568 C160 568 167 574 171 581 L224 665 L253 581 C255 574 260 568 267 568 L335 568 C344 568 350 573 351 581 L295 742 C292 751 288 757 279 757 L195 757 Z " />
<glyph glyph-name="uni0136" unicode="&#x136;" horiz-adv-x="523" d="M258 -193 C267 -193 274 -186 280 -177 L333 -69 C334 -59 328 -53 319 -53 L244 -53 C235 -53 228 -60 223 -69 L170 -177 C168 -187 173 -193 183 -193 L258 -193 Z M434 348 L583 685 C584 694 579 700 570 700 L490 700 C481 700 475 693 470 685 L343 398 L243 398 L284 685 C285 694 280 700 271 700 L188 700 C179 700 172 694 171 685 L77 15 C75 6 81 0 90 0 L173 0 C182 0 188 6 190 15 L230 301 L331 301 L377 15 C379 7 384 0 393 0 L472 0 C481 0 487 6 489 15 L434 348 Z " />
<glyph glyph-name="uni0137" unicode="&#x137;" horiz-adv-x="461" d="M225 -193 C234 -193 241 -186 247 -177 L300 -69 C301 -59 295 -53 286 -53 L211 -53 C202 -53 195 -60 190 -69 L137 -177 C135 -187 140 -193 150 -193 L225 -193 Z M405 271 L506 500 C507 509 502 515 493 515 L413 515 C404 515 394 509 390 500 L312 322 L233 322 L284 685 C285 694 280 700 271 700 L188 700 C179 700 172 694 171 685 L77 15 C75 6 81 0 90 0 L173 0 C182 0 188 6 190 15 L218 220 L296 220 L322 15 C322 6 332 0 341 0 L421 0 C430 0 436 6 438 15 L405 271 Z " />
<glyph glyph-name="kgreenlandic" unicode="&#x138;" horiz-adv-x="461" d="M405 271 L506 500 C507 509 502 515 493 515 L413 515 C404 515 394 509 390 500 L312 322 L233 322 L258 500 C259 509 254 515 245 515 L162 515 C153 515 146 509 145 500 L77 15 C75 6 81 0 90 0 L173 0 C182 0 188 6 190 15 L218 220 L296 220 L322 15 C322 6 332 0 341 0 L421 0 C430 0 436 6 438 15 L405 271 Z " />
<glyph glyph-name="Lacute" unicode="&#x139;" horiz-adv-x="448" d="M278 751 C287 751 294 758 299 767 L380 897 C381 907 375 913 366 913 L291 913 C282 913 275 906 270 897 L189 767 C188 757 193 751 203 751 L278 751 Z M398 0 C407 0 413 6 415 15 L425 87 C426 96 421 102 412 102 L202 102 L284 685 C285 694 280 700 271 700 L188 700 C179 700 172 694 171 685 L77 15 C75 6 81 0 90 0 L398 0 Z " />
<glyph glyph-name="lacute" unicode="&#x13a;" horiz-adv-x="263" d="M284 685 C285 694 280 700 271 700 L188 700 C179 700 172 694 171 685 L77 15 C75 6 81 0 90 0 L173 0 C182 0 188 6 190 15 L284 685 Z M278 751 C287 751 294 758 299 767 L380 897 C381 907 375 913 366 913 L291 913 C282 913 275 906 270 897 L189 767 C188 757 193 751 203 751 L278 751 Z " />
<glyph glyph-name="uni013B" unicode="&#x13b;" horiz-adv-x="448" d="M220 -193 C229 -193 236 -186 242 -177 L295 -69 C296 -59 290 -53 281 -53 L206 -53 C197 -53 190 -60 185 -69 L132 -177 C130 -187 135 -193 145 -193 L220 -193 Z M398 0 C407 0 413 6 415 15 L425 87 C426 96 421 102 412 102 L202 102 L284 685 C285 694 280 700 271 700 L188 700 C179 700 172 694 171 685 L77 15 C75 6 81 0 90 0 L398 0 Z " />
<glyph glyph-name="uni013C" unicode="&#x13c;" horiz-adv-x="263" d="M77 15 C75 6 81 0 90 0 L173 0 C182 0 188 6 190 15 L284 685 C285 694 280 700 271 700 L188 700 C179 700 172 694 171 685 L77 15 Z M99 -193 C108 -193 115 -186 121 -177 L174 -69 C175 -59 169 -53 160 -53 L85 -53 C76 -53 69 -60 64 -69 L11 -177 C9 -187 14 -193 24 -193 L99 -193 Z " />
<glyph glyph-name="Lcaron" unicode="&#x13d;" horiz-adv-x="477" d="M436 538 C445 538 452 545 457 554 L538 684 C539 694 533 700 524 700 L449 700 C440 700 433 693 428 684 L347 554 C346 544 351 538 361 538 L436 538 Z M398 0 C407 0 413 6 415 15 L425 87 C426 96 421 102 412 102 L202 102 L284 685 C285 694 280 700 271 700 L188 700 C179 700 172 694 171 685 L77 15 C75 6 81 0 90 0 L398 0 Z " />
<glyph glyph-name="lcaron" unicode="&#x13e;" horiz-adv-x="472" d="M77 15 C75 6 81 0 90 0 L173 0 C182 0 188 6 190 15 L284 685 C285 694 280 700 271 700 L188 700 C179 700 172 694 171 685 L77 15 Z M451 538 C460 538 467 545 472 554 L553 684 C554 694 548 700 539 700 L464 700 C455 700 448 693 443 684 L362 554 C361 544 366 538 376 538 L451 538 Z " />
<glyph glyph-name="Lslash" unicode="&#x141;" horiz-adv-x="458" d="M81 375 C73 372 66 366 65 358 L55 291 C54 283 59 277 67 277 L126 293 L87 15 C85 6 91 0 100 0 L408 0 C417 0 423 6 425 15 L435 87 C436 96 431 102 422 102 L212 102 L243 324 L301 340 C310 343 317 349 318 357 L327 424 C328 432 323 438 315 438 L257 422 L294 685 C295 694 290 700 281 700 L198 700 C189 700 182 694 181 685 L139 391 L81 375 Z " />
<glyph glyph-name="lslash" unicode="&#x142;" horiz-adv-x="283" d="M81 375 C73 372 66 366 65 358 L55 291 C54 283 59 277 67 277 L126 293 L87 15 C85 6 91 0 100 0 L183 0 C192 0 198 6 200 15 L243 324 L301 340 C310 343 317 349 318 357 L327 424 C328 432 323 438 315 438 L257 422 L294 685 C295 694 290 700 281 700 L198 700 C189 700 182 694 181 685 L139 391 L81 375 Z " />
<glyph glyph-name="Nacute" unicode="&#x143;" horiz-adv-x="594" d="M455 751 C464 751 471 758 476 767 L557 897 C558 907 552 913 543 913 L468 913 C459 913 452 906 447 897 L366 767 C365 757 370 751 380 751 L455 751 Z M374 15 C377 6 383 0 392 0 L504 0 C513 0 519 6 521 15 L615 685 C616 694 611 700 602 700 L519 700 C510 700 503 694 502 685 L441 253 L432 253 L318 685 C314 694 309 700 300 700 L188 700 C179 700 172 694 171 685 L77 15 C75 6 81 0 90 0 L173 0 C182 0 188 6 190 15 L251 449 L260 449 L374 15 Z " />
<glyph glyph-name="nacute" unicode="&#x144;" horiz-adv-x="486" d="M380 571 C389 571 396 578 401 587 L481 717 C483 727 477 733 468 733 L393 733 C384 733 377 726 371 717 L291 587 C290 577 295 571 305 571 L380 571 Z M320 418 C351 418 364 402 358 358 L310 15 C308 6 314 0 323 0 L406 0 C415 0 421 6 423 15 L472 368 C484 455 475 520 390 520 L367 520 C346 520 298 519 260 461 L252 461 L258 500 C259 509 254 515 245 515 L162 515 C153 515 146 509 145 500 L77 15 C75 6 81 0 90 0 L173 0 C182 0 188 6 190 15 L237 352 C262 405 297 418 314 418 L320 418 Z " />
<glyph glyph-name="uni0145" unicode="&#x145;" horiz-adv-x="594" d="M283 -193 C292 -193 299 -186 305 -177 L358 -69 C359 -59 353 -53 344 -53 L269 -53 C260 -53 253 -60 248 -69 L195 -177 C193 -187 198 -193 208 -193 L283 -193 Z M374 15 C377 6 383 0 392 0 L504 0 C513 0 519 6 521 15 L615 685 C616 694 611 700 602 700 L519 700 C510 700 503 694 502 685 L441 253 L432 253 L318 685 C314 694 309 700 300 700 L188 700 C179 700 172 694 171 685 L77 15 C75 6 81 0 90 0 L173 0 C182 0 188 6 190 15 L251 449 L260 449 L374 15 Z " />
<glyph glyph-name="uni0146" unicode="&#x146;" horiz-adv-x="486" d="M216 -193 C225 -193 232 -186 238 -177 L291 -69 C292 -59 286 -53 277 -53 L202 -53 C193 -53 186 -60 181 -69 L128 -177 C126 -187 131 -193 141 -193 L216 -193 Z M320 418 C351 418 364 402 358 358 L310 15 C308 6 314 0 323 0 L406 0 C415 0 421 6 423 15 L472 368 C484 455 475 520 390 520 L367 520 C346 520 298 519 260 461 L252 461 L258 500 C259 509 254 515 245 515 L162 515 C153 515 146 509 145 500 L77 15 C75 6 81 0 90 0 L173 0 C182 0 188 6 190 15 L237 352 C262 405 297 418 314 418 L320 418 Z " />
<glyph glyph-name="Ncaron" unicode="&#x147;" horiz-adv-x="594" d="M445 751 C454 751 460 757 465 766 L567 927 C568 935 564 940 555 940 L487 940 C480 940 473 934 469 927 L416 843 L387 927 C385 934 380 940 373 940 L305 940 C296 940 290 935 289 927 L345 766 C348 757 352 751 361 751 L445 751 Z M374 15 C377 6 383 0 392 0 L504 0 C513 0 519 6 521 15 L615 685 C616 694 611 700 602 700 L519 700 C510 700 503 694 502 685 L441 253 L432 253 L318 685 C314 694 309 700 300 700 L188 700 C179 700 172 694 171 685 L77 15 C75 6 81 0 90 0 L173 0 C182 0 188 6 190 15 L251 449 L260 449 L374 15 Z " />
<glyph glyph-name="ncaron" unicode="&#x148;" horiz-adv-x="486" d="M373 571 C382 571 388 577 393 586 L494 747 C496 755 491 760 482 760 L414 760 C407 760 400 754 396 747 L344 663 L314 747 C312 754 307 760 300 760 L232 760 C223 760 218 755 216 747 L273 586 C276 577 280 571 289 571 L373 571 Z M320 418 C351 418 364 402 358 358 L310 15 C308 6 314 0 323 0 L406 0 C415 0 421 6 423 15 L472 368 C484 455 475 520 390 520 L367 520 C346 520 298 519 260 461 L252 461 L258 500 C259 509 254 515 245 515 L162 515 C153 515 146 509 145 500 L77 15 C75 6 81 0 90 0 L173 0 C182 0 188 6 190 15 L237 352 C262 405 297 418 314 418 L320 418 Z " />
<glyph glyph-name="Eng" unicode="&#x14a;" horiz-adv-x="594" d="M343 -184 C373 -173 501 -124 520 10 L615 685 C616 694 611 700 602 700 L519 700 C510 700 503 694 502 685 L441 253 L432 253 L318 685 C314 694 309 700 300 700 L188 700 C179 700 172 694 171 685 L77 15 C75 6 81 0 90 0 L173 0 C182 0 188 6 190 15 L251 449 L260 449 L384 -32 C370 -50 348 -68 314 -81 C308 -83 304 -89 303 -94 C303 -96 304 -98 304 -100 L325 -177 C327 -183 330 -185 335 -185 C337 -185 340 -185 343 -184 L343 -184 Z " />
<glyph glyph-name="eng" unicode="&#x14b;" horiz-adv-x="486" d="M310 15 C310 15 300 -50 216 -81 C210 -83 206 -89 205 -94 C205 -96 206 -98 206 -100 L227 -177 C229 -183 232 -185 237 -185 C239 -185 242 -185 245 -184 C275 -173 403 -124 422 10 L472 368 C484 455 475 520 390 520 L367 520 C346 520 298 519 260 461 L252 461 L258 500 C259 509 254 515 245 515 L162 515 C153 515 146 509 145 500 L77 15 C75 6 81 0 90 0 L173 0 C182 0 188 6 190 15 L237 352 C262 405 297 418 314 418 L320 418 C351 418 364 402 358 358 L310 15 Z " />
<glyph glyph-name="Omacron" unicode="&#x14c;" horiz-adv-x="544" d="M498 751 C507 751 514 757 515 766 L525 838 C527 847 521 853 512 853 L270 853 C261 853 255 847 253 838 L243 766 C242 757 247 751 256 751 L498 751 Z M331 705 C236 705 153 631 140 539 L87 161 C74 69 136 -5 231 -5 L311 -5 C406 -5 488 69 501 161 L554 539 C567 631 506 705 411 705 L331 705 Z M387 603 C423 603 446 570 440 531 L389 169 C384 129 352 97 316 97 L254 97 C218 97 196 129 201 169 L252 531 C258 570 289 603 325 603 L387 603 Z " />
<glyph glyph-name="omacron" unicode="&#x14d;" horiz-adv-x="459" d="M415 571 C424 571 431 577 432 586 L442 658 C443 667 438 673 429 673 L219 673 C210 673 203 667 202 658 L192 586 C191 577 196 571 205 571 L415 571 Z M273 520 C183 520 122 444 111 369 L80 146 C69 71 109 -5 199 -5 L258 -5 C348 -5 408 71 419 146 L450 369 C461 444 422 520 332 520 L273 520 Z M300 418 C327 418 341 393 337 365 L307 150 C303 122 282 97 255 97 L230 97 C203 97 190 122 194 150 L224 365 C228 393 248 418 275 418 L300 418 Z " />
<glyph glyph-name="Ohungarumlaut" unicode="&#x150;" horiz-adv-x="544" d="M338 751 C347 751 354 758 359 767 L432 885 C433 895 427 901 418 901 L343 901 C334 901 327 894 322 885 L249 767 C248 757 253 751 263 751 L338 751 Z M498 751 C507 751 514 758 519 767 L592 885 C593 895 587 901 578 901 L503 901 C494 901 487 894 482 885 L409 767 C408 757 413 751 423 751 L498 751 Z M331 705 C236 705 153 631 140 539 L87 161 C74 69 136 -5 231 -5 L311 -5 C406 -5 488 69 501 161 L554 539 C567 631 506 705 411 705 L331 705 Z M387 603 C423 603 446 570 440 531 L389 169 C384 129 352 97 316 97 L254 97 C218 97 196 129 201 169 L252 531 C258 570 289 603 325 603 L387 603 Z " />
<glyph glyph-name="ohungarumlaut" unicode="&#x151;" horiz-adv-x="459" d="M255 571 C263 571 270 578 275 586 L344 699 C345 708 340 714 331 714 L260 714 C251 714 244 707 239 699 L170 586 C169 577 174 571 183 571 L255 571 Z M407 571 C416 571 423 578 428 586 L497 699 C498 708 492 714 484 714 L412 714 C404 714 397 707 392 699 L323 586 C322 577 326 571 336 571 L407 571 Z M273 520 C183 520 122 444 111 369 L80 146 C69 71 109 -5 199 -5 L258 -5 C348 -5 408 71 419 146 L450 369 C461 444 422 520 332 520 L273 520 Z M300 418 C327 418 341 393 337 365 L307 150 C303 122 282 97 255 97 L230 97 C203 97 190 122 194 150 L224 365 C228 393 248 418 275 418 L300 418 Z " />
<glyph glyph-name="OE" unicode="&#x152;" horiz-adv-x="770" d="M690 0 C699 0 705 6 707 15 L717 87 C718 96 713 102 704 102 L493 102 L522 312 L709 312 C718 312 725 318 726 327 L737 399 C738 408 733 414 724 414 L537 414 L563 598 L774 598 C783 598 789 604 791 613 L801 685 C802 694 797 700 788 700 L336 700 C241 700 152 626 140 534 L88 166 C75 74 143 0 238 0 L690 0 Z M390 174 C384 135 347 102 311 102 L261 102 C225 102 196 134 202 174 L251 526 C257 565 295 598 331 598 L381 598 C417 598 445 565 439 526 L390 174 Z " />
<glyph glyph-name="oe" unicode="&#x153;" horiz-adv-x="680" d="M616 64 C619 67 620 70 621 73 C621 77 619 81 616 84 L570 126 C567 128 565 129 562 129 C557 129 553 126 549 123 C534 111 522 97 489 97 L456 97 C429 97 416 122 420 150 L428 208 L639 208 C648 208 655 214 656 223 L676 369 C687 444 651 520 560 520 L497 520 C464 520 434 509 411 493 C391 510 365 520 332 520 L273 520 C183 520 122 444 111 369 L80 146 C69 71 109 -5 199 -5 L258 -5 C291 -5 320 5 345 22 C363 5 390 -5 423 -5 L475 -5 C475 -5 559 -5 616 64 L616 64 Z M300 418 C325 418 339 395 337 369 L306 146 C300 119 280 97 255 97 L230 97 C203 97 190 122 194 150 L224 365 C228 393 248 418 275 418 L300 418 Z M450 369 C455 395 475 418 501 418 L526 418 C553 418 567 393 563 365 L554 302 L441 302 L450 369 Z " />
<glyph glyph-name="Racute" unicode="&#x154;" horiz-adv-x="536" d="M389 751 C398 751 405 758 410 767 L491 897 C492 907 486 913 477 913 L402 913 C393 913 386 906 381 897 L300 767 C299 757 304 751 314 751 L389 751 Z M421 230 C480 258 524 313 533 377 L556 534 C568 626 501 700 406 700 L188 700 C179 700 172 694 171 685 L77 15 C75 6 81 0 90 0 L173 0 C182 0 188 6 190 15 L217 211 L307 211 L370 15 C372 6 376 0 385 0 L476 0 C485 0 491 6 493 15 L421 230 Z M272 598 L383 598 C419 598 447 565 441 526 L422 385 C416 345 378 313 342 313 L231 313 L272 598 Z " />
<glyph glyph-name="racute" unicode="&#x155;" horiz-adv-x="350" d="M254 571 C263 571 270 578 275 587 L355 717 C357 727 351 733 342 733 L267 733 C258 733 251 726 245 717 L165 587 C164 577 169 571 179 571 L254 571 Z M386 515 C370 519 366 520 353 520 C332 520 298 519 260 461 L252 461 L258 500 C259 509 254 515 245 515 L162 515 C153 515 146 509 145 500 L77 15 C75 6 81 0 90 0 L173 0 C182 0 188 6 190 15 L237 352 C279 417 308 418 325 418 C342 418 350 415 362 414 C371 414 378 420 379 429 L395 499 C396 507 394 513 386 515 L386 515 Z " />
<glyph glyph-name="uni0156" unicode="&#x156;" horiz-adv-x="536" d="M254 -193 C263 -193 270 -186 276 -177 L329 -69 C330 -59 324 -53 315 -53 L240 -53 C231 -53 224 -60 219 -69 L166 -177 C164 -187 169 -193 179 -193 L254 -193 Z M421 230 C480 258 524 313 533 377 L556 534 C568 626 501 700 406 700 L188 700 C179 700 172 694 171 685 L77 15 C75 6 81 0 90 0 L173 0 C182 0 188 6 190 15 L217 211 L307 211 L370 15 C372 6 376 0 385 0 L476 0 C485 0 491 6 493 15 L421 230 Z M272 598 L383 598 C419 598 447 565 441 526 L422 385 C416 345 378 313 342 313 L231 313 L272 598 Z " />
<glyph glyph-name="uni0157" unicode="&#x157;" horiz-adv-x="350" d="M144 -193 C153 -193 160 -186 166 -177 L219 -69 C220 -59 214 -53 205 -53 L130 -53 C121 -53 114 -60 109 -69 L56 -177 C54 -187 59 -193 69 -193 L144 -193 Z M386 515 C370 519 366 520 353 520 C332 520 298 519 260 461 L252 461 L258 500 C259 509 254 515 245 515 L162 515 C153 515 146 509 145 500 L77 15 C75 6 81 0 90 0 L173 0 C182 0 188 6 190 15 L237 352 C279 417 308 418 325 418 C342 418 350 415 362 414 C371 414 378 420 379 429 L395 499 C396 507 394 513 386 515 L386 515 Z " />
<glyph glyph-name="Rcaron" unicode="&#x158;" horiz-adv-x="536" d="M374 751 C383 751 389 757 394 766 L496 927 C497 935 493 940 484 940 L416 940 C409 940 402 934 398 927 L345 843 L316 927 C314 934 309 940 302 940 L234 940 C225 940 219 935 218 927 L274 766 C277 757 281 751 290 751 L374 751 Z M421 230 C480 258 524 313 533 377 L556 534 C568 626 501 700 406 700 L188 700 C179 700 172 694 171 685 L77 15 C75 6 81 0 90 0 L173 0 C182 0 188 6 190 15 L217 211 L307 211 L370 15 C372 6 376 0 385 0 L476 0 C485 0 491 6 493 15 L421 230 Z M272 598 L383 598 C419 598 447 565 441 526 L422 385 C416 345 378 313 342 313 L231 313 L272 598 Z " />
<glyph glyph-name="rcaron" unicode="&#x159;" horiz-adv-x="354" d="M323 571 C331 571 336 576 341 584 L431 726 C432 733 428 737 419 737 L360 737 C353 737 347 732 344 726 L297 652 L273 726 C270 732 266 737 259 737 L200 737 C191 737 187 733 186 726 L236 584 C237 576 242 571 250 571 L323 571 Z M386 515 C370 519 366 520 353 520 C332 520 298 519 260 461 L252 461 L258 500 C259 509 254 515 245 515 L162 515 C153 515 146 509 145 500 L77 15 C75 6 81 0 90 0 L173 0 C182 0 188 6 190 15 L237 352 C279 417 308 418 325 418 C342 418 350 415 362 414 C371 414 378 420 379 429 L395 499 C396 507 394 513 386 515 L386 515 Z " />
<glyph glyph-name="Sacute" unicode="&#x15a;" horiz-adv-x="510" d="M322 751 C312 751 307 757 308 767 L389 897 C394 906 401 913 410 913 L485 913 C494 913 500 907 499 897 L418 767 C413 758 406 751 397 751 L322 751 Z M67 161 C54 69 123 -5 217 -5 L286 -5 C381 -5 469 69 482 161 L484 177 C526 472 203 323 228 504 L232 531 C238 570 274 603 310 603 L353 603 C389 603 417 570 411 531 L408 512 C407 503 412 497 421 497 L504 497 C513 497 520 503 521 512 L525 539 C538 631 470 705 376 705 L317 705 C223 705 133 631 120 539 L117 517 C76 223 399 373 373 189 L370 169 C365 129 327 97 291 97 L239 97 C203 97 176 129 181 169 L185 194 C186 203 181 209 172 209 L89 209 C80 209 73 203 72 194 L67 161 Z " />
<glyph glyph-name="sacute" unicode="&#x15b;" horiz-adv-x="433" d="M335 571 C344 571 351 578 356 587 L436 717 C438 727 432 733 423 733 L348 733 C339 733 332 726 326 717 L246 587 C245 577 250 571 260 571 L335 571 Z M220 94 C193 94 179 119 183 147 L184 156 C186 165 181 171 172 171 L89 171 C80 171 73 165 71 156 L70 146 C59 71 98 -5 188 -5 L249 -5 C340 -5 396 60 406 134 L408 147 C437 350 201 270 215 365 L216 377 C221 407 240 421 267 421 L284 421 C311 421 324 396 320 368 L319 359 C318 350 323 344 332 344 L415 344 C424 344 431 350 432 359 L433 369 C444 444 406 520 316 520 L262 520 C171 520 114 455 104 381 L103 374 C75 176 309 248 296 154 L294 138 C290 108 271 94 244 94 L220 94 Z " />
<glyph glyph-name="Scircumflex" unicode="&#x15c;" horiz-adv-x="510" d="M419 940 C428 940 432 934 435 925 L491 764 C490 756 484 751 475 751 L407 751 C400 751 395 757 393 764 L364 848 L311 764 C307 757 300 751 293 751 L225 751 C216 751 212 756 213 764 L315 925 C320 934 326 940 335 940 L419 940 Z M67 161 C54 69 123 -5 217 -5 L286 -5 C381 -5 469 69 482 161 L484 177 C526 472 203 323 228 504 L232 531 C238 570 274 603 310 603 L353 603 C389 603 417 570 411 531 L408 512 C407 503 412 497 421 497 L504 497 C513 497 520 503 521 512 L525 539 C538 631 470 705 376 705 L317 705 C223 705 133 631 120 539 L117 517 C76 223 399 373 373 189 L370 169 C365 129 327 97 291 97 L239 97 C203 97 176 129 181 169 L185 194 C186 203 181 209 172 209 L89 209 C80 209 73 203 72 194 L67 161 Z " />
<glyph glyph-name="scircumflex" unicode="&#x15d;" horiz-adv-x="433" d="M279 760 C270 760 264 754 259 745 L158 584 C156 576 161 571 170 571 L238 571 C245 571 252 577 256 584 L308 668 L338 584 C340 577 345 571 352 571 L420 571 C429 571 434 576 436 584 L379 745 C376 754 372 760 363 760 L279 760 Z M220 94 C193 94 179 119 183 147 L184 156 C186 165 181 171 172 171 L89 171 C80 171 73 165 71 156 L70 146 C59 71 98 -5 188 -5 L249 -5 C340 -5 396 60 406 134 L408 147 C437 350 201 270 215 365 L216 377 C221 407 240 421 267 421 L284 421 C311 421 324 396 320 368 L319 359 C318 350 323 344 332 344 L415 344 C424 344 431 350 432 359 L433 369 C444 444 406 520 316 520 L262 520 C171 520 114 455 104 381 L103 374 C75 176 309 248 296 154 L294 138 C290 108 271 94 244 94 L220 94 Z " />
<glyph glyph-name="Scedilla" unicode="&#x15e;" horiz-adv-x="510" d="M228 504 L232 531 C238 570 274 603 310 603 L353 603 C389 603 417 570 411 531 L408 512 C407 503 412 497 421 497 L504 497 C513 497 520 503 521 512 L525 539 C538 631 470 705 376 705 L317 705 C223 705 133 631 120 539 L117 517 C76 223 399 373 373 189 L370 169 C365 129 327 97 291 97 L239 97 C203 97 176 129 181 169 L185 194 C186 203 181 209 172 209 L89 209 C80 209 73 203 72 194 L67 161 C54 69 123 -5 217 -5 L218 -5 L189 -44 C187 -47 185 -51 185 -54 L180 -90 C179 -97 183 -102 190 -102 L243 -102 C243 -102 257 -102 255 -117 C253 -131 239 -131 239 -131 L174 -131 C167 -131 161 -136 160 -143 L155 -183 C154 -190 158 -195 165 -195 L247 -195 C301 -195 320 -171 330 -100 C336 -59 304 -38 269 -38 L294 -4 C385 -1 470 72 482 161 L484 177 C526 472 203 323 228 504 L228 504 Z " />
<glyph glyph-name="scedilla" unicode="&#x15f;" horiz-adv-x="433" d="M153 -44 C151 -47 149 -51 149 -54 L144 -90 C143 -97 147 -102 154 -102 L207 -102 C207 -102 221 -102 219 -117 C217 -131 203 -131 203 -131 L138 -131 C131 -131 125 -136 124 -143 L119 -183 C118 -190 122 -195 129 -195 L211 -195 C265 -195 284 -171 294 -100 C300 -59 268 -38 233 -38 L257 -5 C343 -1 396 62 406 134 L408 147 C437 350 201 270 215 365 L216 377 C221 407 240 421 267 421 L284 421 C311 421 324 396 320 368 L319 359 C318 350 323 344 332 344 L415 344 C424 344 431 350 432 359 L433 369 C444 444 406 520 316 520 L262 520 C171 520 114 455 104 381 L103 374 C75 176 309 248 296 154 L294 138 C290 108 271 94 244 94 L220 94 C193 94 179 119 183 147 L184 156 C186 165 181 171 172 171 L89 171 C80 171 73 165 71 156 L70 146 C60 72 96 -1 182 -5 L153 -44 Z " />
<glyph glyph-name="Scaron" unicode="&#x160;" horiz-adv-x="510" d="M309 751 C300 751 296 757 293 766 L237 927 C238 935 244 940 253 940 L321 940 C328 940 333 934 335 927 L364 843 L417 927 C421 934 428 940 435 940 L503 940 C512 940 516 935 515 927 L413 766 C408 757 402 751 393 751 L309 751 Z M67 161 C54 69 123 -5 217 -5 L286 -5 C381 -5 469 69 482 161 L484 177 C526 472 203 323 228 504 L232 531 C238 570 274 603 310 603 L353 603 C389 603 417 570 411 531 L408 512 C407 503 412 497 421 497 L504 497 C513 497 520 503 521 512 L525 539 C538 631 470 705 376 705 L317 705 C223 705 133 631 120 539 L117 517 C76 223 399 373 373 189 L370 169 C365 129 327 97 291 97 L239 97 C203 97 176 129 181 169 L185 194 C186 203 181 209 172 209 L89 209 C80 209 73 203 72 194 L67 161 Z " />
<glyph glyph-name="scaron" unicode="&#x161;" horiz-adv-x="433" d="M338 571 C347 571 353 577 358 586 L459 747 C461 755 456 760 447 760 L379 760 C372 760 365 754 361 747 L309 663 L279 747 C277 754 272 760 265 760 L197 760 C188 760 183 755 181 747 L238 586 C241 577 245 571 254 571 L338 571 Z M220 94 C193 94 179 119 183 147 L184 156 C186 165 181 171 172 171 L89 171 C80 171 73 165 71 156 L70 146 C59 71 98 -5 188 -5 L249 -5 C340 -5 396 60 406 134 L408 147 C437 350 201 270 215 365 L216 377 C221 407 240 421 267 421 L284 421 C311 421 324 396 320 368 L319 359 C318 350 323 344 332 344 L415 344 C424 344 431 350 432 359 L433 369 C444 444 406 520 316 520 L262 520 C171 520 114 455 104 381 L103 374 C75 176 309 248 296 154 L294 138 C290 108 271 94 244 94 L220 94 Z " />
<glyph glyph-name="uni0162" unicode="&#x162;" horiz-adv-x="483" d="M382 598 L512 598 C521 598 527 604 529 613 L539 685 C540 694 535 700 526 700 L153 700 C144 700 137 694 136 685 L126 613 C124 604 130 598 139 598 L269 598 L187 15 C185 6 191 0 200 0 L281 0 C287 0 294 -3 292 -15 C290 -29 276 -29 276 -29 L211 -29 C204 -29 199 -34 198 -41 L192 -81 C191 -88 195 -93 202 -93 L284 -93 C338 -93 358 -69 368 2 C374 43 341 64 306 64 L382 598 Z " />
<glyph glyph-name="uni0163" unicode="&#x163;" horiz-adv-x="342" d="M152 -37 C150 -40 148 -44 148 -47 L143 -83 C142 -90 146 -95 153 -95 L206 -95 C206 -95 220 -95 218 -110 C216 -124 202 -124 202 -124 L137 -124 C130 -124 124 -129 123 -136 L118 -176 C117 -183 121 -188 128 -188 L210 -188 C264 -188 283 -164 293 -93 C299 -52 267 -31 232 -31 L255 0 L292 0 C301 0 307 6 309 15 L319 87 C320 96 315 102 306 102 L281 102 C254 102 230 127 234 155 L271 413 L350 413 C359 413 365 419 367 428 L377 500 C378 509 373 515 364 515 L285 515 L309 685 C310 694 305 700 296 700 L213 700 C204 700 197 694 196 685 L172 515 L117 515 C108 515 101 509 100 500 L90 428 C88 419 94 413 103 413 L158 413 L121 151 C117 95 140 38 188 13 L152 -37 Z " />
<glyph glyph-name="Tcaron" unicode="&#x164;" horiz-adv-x="483" d="M388 751 C397 751 403 757 408 766 L510 927 C511 935 507 940 498 940 L430 940 C423 940 416 934 412 927 L359 843 L330 927 C328 934 323 940 316 940 L248 940 C239 940 233 935 232 927 L288 766 C291 757 295 751 304 751 L388 751 Z M269 598 L187 15 C185 6 191 0 200 0 L283 0 C292 0 298 6 300 15 L382 598 L512 598 C521 598 527 604 529 613 L539 685 C540 694 535 700 526 700 L153 700 C144 700 137 694 136 685 L126 613 C124 604 130 598 139 598 L269 598 Z " />
<glyph glyph-name="tcaron" unicode="&#x165;" horiz-adv-x="499" d="M490 570 C499 570 506 577 511 586 L570 684 C571 694 565 700 556 700 L481 700 C472 700 465 693 460 684 L401 586 C399 576 405 570 415 570 L490 570 Z M281 102 C254 102 230 127 234 155 L271 413 L350 413 C359 413 365 419 367 428 L377 500 C378 509 373 515 364 515 L285 515 L309 685 C310 694 305 700 296 700 L213 700 C204 700 197 694 196 685 L172 515 L117 515 C108 515 101 509 100 500 L90 428 C88 419 94 413 103 413 L158 413 L121 151 C116 76 159 0 249 0 L292 0 C301 0 307 6 309 15 L319 87 C320 96 315 102 306 102 L281 102 Z " />
<glyph glyph-name="Tbar" unicode="&#x166;" horiz-adv-x="483" d="M411 278 C420 278 426 284 428 293 L438 365 C439 374 434 380 425 380 L351 380 L382 598 L512 598 C521 598 527 604 529 613 L539 685 C540 694 535 700 526 700 L153 700 C144 700 137 694 136 685 L126 613 C124 604 130 598 139 598 L269 598 L238 380 L164 380 C155 380 148 374 147 365 L137 293 C135 284 141 278 150 278 L224 278 L187 15 C185 6 191 0 200 0 L283 0 C292 0 298 6 300 15 L337 278 L411 278 Z " />
<glyph glyph-name="tbar" unicode="&#x167;" horiz-adv-x="342" d="M91 329 C82 329 75 323 74 314 L64 242 C62 233 67 227 76 227 L131 227 L121 151 C116 76 159 0 249 0 L292 0 C301 0 307 6 309 15 L319 87 C320 96 315 102 306 102 L281 102 C254 102 230 127 234 155 L244 227 L307 227 C316 227 323 233 325 242 L335 314 C336 323 331 329 322 329 L259 329 L271 413 L334 413 C343 413 349 419 351 428 L361 500 C362 509 357 515 348 515 L285 515 L309 685 C310 694 305 700 296 700 L213 700 C204 700 197 694 196 685 L172 515 L117 515 C108 515 101 509 100 500 L90 428 C88 419 94 413 103 413 L158 413 L146 329 L91 329 Z " />
<glyph glyph-name="Utilde" unicode="&#x168;" horiz-adv-x="554" d="M394 169 C389 129 361 97 325 97 L255 97 C219 97 201 129 206 169 L279 685 C280 694 275 700 266 700 L183 700 C174 700 167 694 166 685 L92 161 C79 69 137 -5 232 -5 L320 -5 C415 -5 493 69 506 161 L580 685 C581 694 576 700 567 700 L484 700 C475 700 468 694 467 685 L394 169 Z M432 751 C454 751 474 761 499 775 C506 779 511 785 512 792 L503 854 C501 858 498 864 489 864 C487 864 485 864 482 863 C468 858 454 853 446 853 C393 853 407 888 357 888 C335 888 315 878 290 864 C283 860 279 854 278 847 L287 785 C288 781 291 775 300 775 C302 775 304 775 308 776 C321 781 335 786 343 786 C396 786 381 751 432 751 L432 751 Z " />
<glyph glyph-name="utilde" unicode="&#x169;" horiz-adv-x="469" d="M312 150 C308 122 287 97 260 97 L235 97 C208 97 195 122 199 150 L248 500 C249 509 244 515 235 515 L152 515 C143 515 136 509 135 500 L85 146 C74 71 114 -5 204 -5 L263 -5 C353 -5 413 71 424 146 L474 500 C475 509 470 515 461 515 L378 515 C369 515 362 509 361 500 L312 150 Z M361 572 C383 572 403 582 428 596 C435 600 440 606 441 613 L431 675 C430 679 427 685 418 685 C416 685 414 685 411 684 C397 679 383 674 375 674 C322 674 336 709 286 709 C264 709 244 699 219 685 C212 681 207 675 206 668 L216 606 C217 602 220 596 229 596 C231 596 233 596 236 597 C250 602 264 607 272 607 C325 607 310 572 361 572 L361 572 Z " />
<glyph glyph-name="Umacron" unicode="&#x16a;" horiz-adv-x="554" d="M488 751 C497 751 504 757 505 766 L515 838 C517 847 511 853 502 853 L292 853 C283 853 277 847 275 838 L265 766 C264 757 269 751 278 751 L488 751 Z M394 169 C389 129 361 97 325 97 L255 97 C219 97 201 129 206 169 L279 685 C280 694 275 700 266 700 L183 700 C174 700 167 694 166 685 L92 161 C79 69 137 -5 232 -5 L320 -5 C415 -5 493 69 506 161 L580 685 C581 694 576 700 567 700 L484 700 C475 700 468 694 467 685 L394 169 Z " />
<glyph glyph-name="umacron" unicode="&#x16b;" horiz-adv-x="469" d="M435 571 C444 571 451 577 452 586 L462 658 C463 667 458 673 449 673 L207 673 C198 673 191 667 190 658 L180 586 C179 577 184 571 193 571 L435 571 Z M312 150 C308 122 287 97 260 97 L235 97 C208 97 195 122 199 150 L248 500 C249 509 244 515 235 515 L152 515 C143 515 136 509 135 500 L85 146 C74 71 114 -5 204 -5 L263 -5 C353 -5 413 71 424 146 L474 500 C475 509 470 515 461 515 L378 515 C369 515 362 509 361 500 L312 150 Z " />
<glyph glyph-name="Ubreve" unicode="&#x16c;" horiz-adv-x="554" d="M394 169 C389 129 361 97 325 97 L255 97 C219 97 201 129 206 169 L279 685 C280 694 275 700 266 700 L183 700 C174 700 167 694 166 685 L92 161 C79 69 137 -5 232 -5 L320 -5 C415 -5 493 69 506 161 L580 685 C581 694 576 700 567 700 L484 700 C475 700 468 694 467 685 L394 169 Z M384 751 C474 751 517 792 542 891 C543 900 538 906 529 906 L472 906 C463 906 455 900 452 891 C437 843 428 835 396 835 C364 835 357 843 356 891 C355 900 349 906 340 906 L283 906 C274 906 267 900 266 891 C263 792 294 751 384 751 L384 751 Z " />
<glyph glyph-name="ubreve" unicode="&#x16d;" horiz-adv-x="469" d="M312 150 C308 122 287 97 260 97 L235 97 C208 97 195 122 199 150 L248 500 C249 509 244 515 235 515 L152 515 C143 515 136 509 135 500 L85 146 C74 71 114 -5 204 -5 L263 -5 C353 -5 413 71 424 146 L474 500 C475 509 470 515 461 515 L378 515 C369 515 362 509 361 500 L312 150 Z M314 571 C404 571 447 612 471 711 C473 720 468 726 459 726 L402 726 C393 726 385 720 381 711 C367 663 358 655 326 655 C294 655 287 663 285 711 C285 720 279 726 270 726 L213 726 C204 726 197 720 195 711 C193 612 224 571 314 571 L314 571 Z " />
<glyph glyph-name="Uring" unicode="&#x16e;" horiz-adv-x="554" d="M414 977 C343 977 277 920 267 848 C257 777 307 719 378 719 C449 719 515 777 525 848 C535 920 485 977 414 977 L414 977 Z M389 802 C363 802 346 825 350 848 C354 876 376 895 402 895 C429 895 447 876 443 848 C439 825 416 802 389 802 L389 802 Z M394 169 C389 129 361 97 325 97 L255 97 C219 97 201 129 206 169 L279 685 C280 694 275 700 266 700 L183 700 C174 700 167 694 166 685 L92 161 C79 69 137 -5 232 -5 L320 -5 C415 -5 493 69 506 161 L580 685 C581 694 576 700 567 700 L484 700 C475 700 468 694 467 685 L394 169 Z " />
<glyph glyph-name="uring" unicode="&#x16f;" horiz-adv-x="469" d="M351 829 C280 829 214 772 204 700 C194 629 244 571 315 571 C386 571 452 629 462 700 C472 772 422 829 351 829 L351 829 Z M326 654 C300 654 284 677 287 700 C291 728 313 747 339 747 C366 747 384 728 380 700 C377 677 353 654 326 654 L326 654 Z M312 150 C308 122 287 97 260 97 L235 97 C208 97 195 122 199 150 L248 500 C249 509 244 515 235 515 L152 515 C143 515 136 509 135 500 L85 146 C74 71 114 -5 204 -5 L263 -5 C353 -5 413 71 424 146 L474 500 C475 509 470 515 461 515 L378 515 C369 515 362 509 361 500 L312 150 Z " />
<glyph glyph-name="Uhungarumlaut" unicode="&#x170;" horiz-adv-x="554" d="M344 751 C353 751 360 758 365 767 L438 885 C439 895 433 901 424 901 L349 901 C340 901 333 894 328 885 L255 767 C254 757 259 751 269 751 L344 751 Z M504 751 C513 751 520 758 525 767 L598 885 C599 895 593 901 584 901 L509 901 C500 901 493 894 488 885 L415 767 C414 757 419 751 429 751 L504 751 Z M394 169 C389 129 361 97 325 97 L255 97 C219 97 201 129 206 169 L279 685 C280 694 275 700 266 700 L183 700 C174 700 167 694 166 685 L92 161 C79 69 137 -5 232 -5 L320 -5 C415 -5 493 69 506 161 L580 685 C581 694 576 700 567 700 L484 700 C475 700 468 694 467 685 L394 169 Z " />
<glyph glyph-name="uhungarumlaut" unicode="&#x171;" horiz-adv-x="469" d="M253 571 C262 571 269 578 274 587 L345 703 C347 712 340 718 331 718 L258 718 C249 718 242 711 237 703 L166 587 C165 577 170 571 180 571 L253 571 Z M410 571 C419 571 426 578 431 587 L502 703 C504 712 497 718 488 718 L415 718 C406 718 399 711 394 703 L323 587 C322 577 327 571 337 571 L410 571 Z M312 150 C308 122 287 97 260 97 L235 97 C208 97 195 122 199 150 L248 500 C249 509 244 515 235 515 L152 515 C143 515 136 509 135 500 L85 146 C74 71 114 -5 204 -5 L263 -5 C353 -5 413 71 424 146 L474 500 C475 509 470 515 461 515 L378 515 C369 515 362 509 361 500 L312 150 Z " />
<glyph glyph-name="Uogonek" unicode="&#x172;" horiz-adv-x="554" d="M211 -44 C209 -47 207 -51 207 -54 L202 -90 C201 -97 205 -102 212 -102 L265 -102 C265 -102 279 -102 277 -117 C275 -131 261 -131 261 -131 L196 -131 C189 -131 183 -136 182 -143 L177 -183 C176 -190 180 -195 187 -195 L269 -195 C323 -195 342 -171 352 -100 C358 -59 326 -38 291 -38 L315 -5 L320 -5 C415 -5 493 69 506 161 L580 685 C581 694 576 700 567 700 L484 700 C475 700 468 694 467 685 L394 169 C389 129 361 97 325 97 L255 97 C219 97 201 129 206 169 L279 685 C280 694 275 700 266 700 L183 700 C174 700 167 694 166 685 L92 161 C79 69 137 -5 232 -5 L240 -5 L211 -44 Z " />
<glyph glyph-name="uogonek" unicode="&#x173;" horiz-adv-x="469" d="M312 150 C308 122 287 97 260 97 L235 97 C208 97 195 122 199 150 L248 500 C249 509 244 515 235 515 L152 515 C143 515 136 509 135 500 L85 146 C75 72 112 -1 198 -5 L193 -38 C158 -38 110 -59 102 -114 C95 -166 107 -195 161 -195 L243 -195 C250 -195 256 -190 257 -183 L262 -143 C263 -136 259 -131 252 -131 L187 -131 C187 -131 173 -131 175 -117 C177 -102 191 -102 191 -102 L244 -102 C251 -102 257 -97 258 -90 L270 -5 C355 -1 414 73 424 146 L474 500 C475 509 470 515 461 515 L378 515 C369 515 362 509 361 500 L312 150 Z " />
<glyph glyph-name="Ydieresis" unicode="&#x178;" horiz-adv-x="533" d="M239 765 C238 757 243 751 251 751 L336 751 C344 751 351 757 352 765 L364 853 C366 861 360 867 352 867 L267 867 C259 867 253 861 251 853 L239 765 Z M395 765 C394 757 399 751 407 751 L492 751 C500 751 507 757 508 765 L520 853 C522 861 516 867 508 867 L423 867 C415 867 409 861 407 853 L395 765 Z M354 222 L604 685 C605 694 600 700 591 700 L512 700 C503 700 495 693 490 685 L324 370 L313 370 L235 685 C232 693 226 700 217 700 L138 700 C129 700 122 694 121 685 L241 222 L212 15 C210 6 216 0 225 0 L308 0 C317 0 323 6 325 15 L354 222 Z " />
<glyph glyph-name="Zacute" unicode="&#x179;" horiz-adv-x="478" d="M390 751 C399 751 406 758 411 767 L492 897 C493 907 487 913 478 913 L403 913 C394 913 387 906 382 897 L301 767 C300 757 305 751 315 751 L390 751 Z M510 615 C512 619 515 624 516 629 L524 685 C525 694 520 700 511 700 L163 700 C154 700 147 694 146 685 L136 613 C134 604 140 598 149 598 L378 598 L65 85 C63 81 60 76 59 71 L52 15 C50 6 56 0 65 0 L413 0 C422 0 428 6 430 15 L440 87 C441 96 436 102 427 102 L199 102 L510 615 Z " />
<glyph glyph-name="zacute" unicode="&#x17a;" horiz-adv-x="400" d="M331 571 C340 571 347 578 352 587 L432 717 C434 727 428 733 419 733 L344 733 C335 733 328 726 322 717 L242 587 C241 577 246 571 256 571 L331 571 Z M60 85 C58 81 55 75 54 68 L47 15 C45 6 51 0 60 0 L340 0 C349 0 355 6 357 15 L367 87 C368 96 363 102 354 102 L191 102 L411 430 C413 434 416 440 417 447 L425 500 C426 509 421 515 412 515 L132 515 C123 515 116 509 115 500 L105 428 C103 419 109 413 118 413 L281 413 L60 85 Z " />
<glyph glyph-name="Zdotaccent" unicode="&#x17b;" horiz-adv-x="478" d="M290 765 C289 757 294 751 302 751 L387 751 C395 751 402 757 403 765 L415 853 C417 861 411 867 403 867 L318 867 C310 867 304 861 302 853 L290 765 Z M510 615 C512 619 515 624 516 629 L524 685 C525 694 520 700 511 700 L163 700 C154 700 147 694 146 685 L136 613 C134 604 140 598 149 598 L378 598 L65 85 C63 81 60 76 59 71 L52 15 C50 6 56 0 65 0 L413 0 C422 0 428 6 430 15 L440 87 C441 96 436 102 427 102 L199 102 L510 615 Z " />
<glyph glyph-name="zdotaccent" unicode="&#x17c;" horiz-adv-x="400" d="M225 585 C224 577 229 571 237 571 L322 571 C330 571 337 577 338 585 L350 673 C351 681 346 687 338 687 L253 687 C245 687 238 681 237 673 L225 585 Z M60 85 C58 81 55 75 54 68 L47 15 C45 6 51 0 60 0 L340 0 C349 0 355 6 357 15 L367 87 C368 96 363 102 354 102 L191 102 L411 430 C413 434 416 440 417 447 L425 500 C426 509 421 515 412 515 L132 515 C123 515 116 509 115 500 L105 428 C103 419 109 413 118 413 L281 413 L60 85 Z " />
<glyph glyph-name="Zcaron" unicode="&#x17d;" horiz-adv-x="478" d="M387 751 C396 751 402 757 407 766 L509 927 C510 935 506 940 497 940 L429 940 C422 940 415 934 411 927 L358 843 L329 927 C327 934 322 940 315 940 L247 940 C238 940 232 935 231 927 L287 766 C290 757 294 751 303 751 L387 751 Z M510 615 C512 619 515 624 516 629 L524 685 C525 694 520 700 511 700 L163 700 C154 700 147 694 146 685 L136 613 C134 604 140 598 149 598 L378 598 L65 85 C63 81 60 76 59 71 L52 15 C50 6 56 0 65 0 L413 0 C422 0 428 6 430 15 L440 87 C441 96 436 102 427 102 L199 102 L510 615 Z " />
<glyph glyph-name="zcaron" unicode="&#x17e;" horiz-adv-x="400" d="M321 571 C330 571 336 577 341 586 L442 747 C444 755 439 760 430 760 L362 760 C355 760 348 754 344 747 L292 663 L262 747 C260 754 255 760 248 760 L180 760 C171 760 166 755 164 747 L221 586 C224 577 228 571 237 571 L321 571 Z M60 85 C58 81 55 75 54 68 L47 15 C45 6 51 0 60 0 L340 0 C349 0 355 6 357 15 L367 87 C368 96 363 102 354 102 L191 102 L411 430 C413 434 416 440 417 447 L425 500 C426 509 421 515 412 515 L132 515 C123 515 116 509 115 500 L105 428 C103 419 109 413 118 413 L281 413 L60 85 Z " />
<glyph glyph-name="florin" unicode="&#x192;" horiz-adv-x="335" d="M-70 -166 C-71 -175 -66 -181 -57 -181 L25 -181 C34 -181 39 -175 42 -166 L260 378 L335 378 C344 378 350 384 352 393 L362 465 C363 474 358 480 349 480 L303 480 L326 546 C337 572 362 598 389 598 L404 598 C413 598 419 604 421 613 L431 685 C432 694 427 700 418 700 L385 700 C295 700 240 620 215 549 L190 480 L120 480 C111 480 104 474 103 465 L93 393 C91 384 97 378 106 378 L147 378 L-70 -166 Z " />
<glyph glyph-name="uni0218" unicode="&#x218;" horiz-adv-x="510" d="M224 -193 C233 -193 240 -186 246 -177 L299 -69 C300 -59 294 -53 285 -53 L210 -53 C201 -53 194 -60 189 -69 L136 -177 C134 -187 139 -193 149 -193 L224 -193 Z M67 161 C54 69 123 -5 217 -5 L286 -5 C381 -5 469 69 482 161 L484 177 C526 472 203 323 228 504 L232 531 C238 570 274 603 310 603 L353 603 C389 603 417 570 411 531 L408 512 C407 503 412 497 421 497 L504 497 C513 497 520 503 521 512 L525 539 C538 631 470 705 376 705 L317 705 C223 705 133 631 120 539 L117 517 C76 223 399 373 373 189 L370 169 C365 129 327 97 291 97 L239 97 C203 97 176 129 181 169 L185 194 C186 203 181 209 172 209 L89 209 C80 209 73 203 72 194 L67 161 Z " />
<glyph glyph-name="uni0219" unicode="&#x219;" horiz-adv-x="433" d="M185 -193 C194 -193 201 -186 207 -177 L260 -69 C261 -59 255 -53 246 -53 L171 -53 C162 -53 155 -60 150 -69 L97 -177 C95 -187 100 -193 110 -193 L185 -193 Z M220 94 C193 94 179 119 183 147 L184 156 C186 165 181 171 172 171 L89 171 C80 171 73 165 71 156 L70 146 C59 71 98 -5 188 -5 L249 -5 C340 -5 396 60 406 134 L408 147 C437 350 201 270 215 365 L216 377 C221 407 240 421 267 421 L284 421 C311 421 324 396 320 368 L319 359 C318 350 323 344 332 344 L415 344 C424 344 431 350 432 359 L433 369 C444 444 406 520 316 520 L262 520 C171 520 114 455 104 381 L103 374 C75 176 309 248 296 154 L294 138 C290 108 271 94 244 94 L220 94 Z " />
<glyph glyph-name="uni021A" unicode="&#x21a;" horiz-adv-x="483" d="M206 -193 C215 -193 222 -186 228 -177 L281 -69 C282 -59 276 -53 267 -53 L192 -53 C183 -53 176 -60 171 -69 L118 -177 C116 -187 121 -193 131 -193 L206 -193 Z M269 598 L187 15 C185 6 191 0 200 0 L283 0 C292 0 298 6 300 15 L382 598 L512 598 C521 598 527 604 529 613 L539 685 C540 694 535 700 526 700 L153 700 C144 700 137 694 136 685 L126 613 C124 604 130 598 139 598 L269 598 Z " />
<glyph glyph-name="uni021B" unicode="&#x21b;" horiz-adv-x="342" d="M209 -193 C218 -193 225 -186 231 -177 L284 -69 C285 -59 279 -53 270 -53 L195 -53 C186 -53 179 -60 174 -69 L121 -177 C119 -187 124 -193 134 -193 L209 -193 Z M281 102 C254 102 230 127 234 155 L271 413 L350 413 C359 413 365 419 367 428 L377 500 C378 509 373 515 364 515 L285 515 L309 685 C310 694 305 700 296 700 L213 700 C204 700 197 694 196 685 L172 515 L117 515 C108 515 101 509 100 500 L90 428 C88 419 94 413 103 413 L158 413 L121 151 C116 76 159 0 249 0 L292 0 C301 0 307 6 309 15 L319 87 C320 96 315 102 306 102 L281 102 Z " />
<glyph glyph-name="circumflex" unicode="&#x2c6;" horiz-adv-x="428" d="M270 700 C261 700 255 694 250 685 L148 524 C147 516 151 511 160 511 L228 511 C235 511 242 517 246 524 L299 608 L328 524 C330 517 335 511 342 511 L410 511 C419 511 425 516 426 524 L370 685 C367 694 363 700 354 700 L270 700 Z " />
<glyph glyph-name="caron" unicode="&#x2c7;" horiz-adv-x="428" d="M327 511 C336 511 342 517 347 526 L449 687 C450 695 446 700 437 700 L369 700 C362 700 355 694 351 687 L298 603 L269 687 C267 694 262 700 255 700 L187 700 C178 700 172 695 171 687 L227 526 C230 517 234 511 243 511 L327 511 Z " />
<glyph glyph-name="breve" unicode="&#x2d8;" horiz-adv-x="426" d="M289 545 C379 545 422 586 447 685 C448 694 443 700 434 700 L377 700 C368 700 360 694 357 685 C342 637 333 629 301 629 C269 629 262 637 261 685 C260 694 254 700 245 700 L188 700 C179 700 172 694 171 685 C168 586 199 545 289 545 L289 545 Z " />
<glyph glyph-name="dotaccent" unicode="&#x2d9;" horiz-adv-x="269" d="M158 593 C157 584 162 578 171 578 L260 578 C269 578 276 584 277 593 L290 685 C291 694 286 700 277 700 L188 700 C179 700 172 694 171 685 L158 593 Z " />
<glyph glyph-name="ring" unicode="&#x2da;" horiz-adv-x="408" d="M309 752 C238 752 172 695 162 623 C152 552 202 494 273 494 C344 494 410 552 420 623 C430 695 380 752 309 752 L309 752 Z M283 566 C251 566 230 594 234 623 C239 656 267 680 299 680 C331 680 353 656 348 623 C344 594 315 566 283 566 L283 566 Z " />
<glyph glyph-name="ogonek" unicode="&#x2db;" horiz-adv-x="314" d="M227 0 C224 5 219 10 212 10 L173 10 C163 10 155 3 154 -7 L149 -38 C114 -38 66 -59 58 -114 C51 -166 63 -195 117 -195 L199 -195 C206 -195 212 -190 213 -183 L218 -143 C219 -136 215 -131 208 -131 L143 -131 C143 -131 129 -131 131 -117 C133 -102 147 -102 147 -102 L200 -102 C207 -102 213 -97 214 -90 L227 0 Z " />
<glyph glyph-name="tilde" unicode="&#x2dc;" horiz-adv-x="392" d="M322 563 C344 563 364 573 389 587 C396 591 400 597 401 604 L392 666 C391 670 388 676 379 676 C377 676 375 676 371 675 C358 670 344 665 336 665 C283 665 297 700 247 700 C225 700 204 690 180 676 C173 672 168 666 167 659 L176 597 C178 593 181 587 190 587 C192 587 194 587 197 588 C211 593 225 598 233 598 C286 598 271 563 322 563 L322 563 Z " />
<glyph glyph-name="hungarumlaut" unicode="&#x2dd;" horiz-adv-x="476" d="M243 550 C252 550 259 557 264 566 L337 684 C338 694 332 700 323 700 L248 700 C239 700 232 693 227 684 L154 566 C153 556 158 550 168 550 L243 550 Z M403 550 C412 550 419 557 424 566 L497 684 C498 694 492 700 483 700 L408 700 C399 700 392 693 387 684 L314 566 C313 556 318 550 328 550 L403 550 Z " />
<glyph glyph-name="uni03A9" unicode="&#x3a9;" horiz-adv-x="688" d="M408 700 C313 700 224 626 212 534 L161 176 C159 161 157 114 174 102 L104 102 C95 102 88 96 87 87 L77 15 C75 6 81 0 90 0 L274 0 C283 0 289 6 291 15 L301 87 C302 96 299 102 290 102 C264 102 271 161 274 180 L322 526 C328 565 366 598 402 598 L454 598 C490 598 518 565 512 526 L464 180 C461 161 452 102 426 102 C417 102 412 96 411 87 L401 15 C399 6 405 0 414 0 L598 0 C607 0 613 6 615 15 L625 87 C626 96 621 102 612 102 L542 102 C563 114 573 161 575 176 L626 534 C638 626 571 700 476 700 L408 700 Z " />
<glyph glyph-name="pi" unicode="&#x3c0;" horiz-adv-x="725" d="M693 413 C702 413 708 419 710 428 L720 500 C721 509 716 515 707 515 L162 515 C153 515 146 509 145 500 L135 428 C133 419 139 413 148 413 L257 413 L201 15 C199 6 205 0 214 0 L297 0 C306 0 312 6 314 15 L370 413 L471 413 L415 15 C413 6 419 0 428 0 L511 0 C520 0 526 6 528 15 L584 413 L693 413 Z " />
<glyph glyph-name="ZWSP" unicode="&#x200b;" d="" />
<glyph glyph-name="endash" unicode="&#x2013;" horiz-adv-x="358" d="M294 191 C303 191 310 197 311 206 L322 278 C323 287 318 293 309 293 L131 293 C122 293 115 287 114 278 L103 206 C102 197 107 191 116 191 L294 191 Z " />
<glyph glyph-name="emdash" unicode="&#x2014;" horiz-adv-x="422" d="M358 191 C367 191 374 197 375 206 L386 278 C387 287 382 293 373 293 L131 293 C122 293 115 287 114 278 L103 206 C102 197 107 191 116 191 L358 191 Z " />
<glyph glyph-name="quoteleft" unicode="&#x2018;" horiz-adv-x="303" d="M240 533 C249 533 256 540 262 549 L324 684 C325 694 319 700 310 700 L235 700 C226 700 219 693 214 684 L152 549 C150 539 155 533 165 533 L240 533 Z " />
<glyph glyph-name="quoteright" unicode="&#x2019;" horiz-adv-x="303" d="M235 700 C226 700 219 693 214 684 L152 549 C150 539 156 533 165 533 L240 533 C249 533 256 540 262 549 L324 684 C325 694 320 700 310 700 L235 700 Z " />
<glyph glyph-name="quotesinglbase" unicode="&#x201a;" horiz-adv-x="303" d="M150 94 C141 94 134 87 128 78 L66 -57 C65 -67 71 -73 80 -73 L155 -73 C164 -73 171 -66 176 -57 L238 78 C240 88 235 94 225 94 L150 94 Z " />
<glyph glyph-name="quotedblleft" unicode="&#x201c;" horiz-adv-x="478" d="M240 533 C249 533 256 540 262 549 L324 684 C325 694 319 700 310 700 L235 700 C226 700 219 693 214 684 L152 549 C150 539 155 533 165 533 L240 533 Z M415 533 C424 533 431 540 437 549 L499 684 C500 694 494 700 485 700 L410 700 C401 700 394 693 389 684 L327 549 C325 539 330 533 340 533 L415 533 Z " />
<glyph glyph-name="quotedblright" unicode="&#x201d;" horiz-adv-x="478" d="M410 700 C401 700 394 693 389 684 L327 549 C325 539 331 533 340 533 L415 533 C424 533 431 540 437 549 L499 684 C500 694 495 700 485 700 L410 700 Z M235 700 C226 700 219 693 214 684 L152 549 C150 539 156 533 165 533 L240 533 C249 533 256 540 262 549 L324 684 C325 694 320 700 310 700 L235 700 Z " />
<glyph glyph-name="quotedblbase" unicode="&#x201e;" horiz-adv-x="478" d="M325 94 C316 94 309 87 303 78 L241 -57 C240 -67 246 -73 255 -73 L330 -73 C339 -73 346 -66 351 -57 L413 78 C415 88 410 94 400 94 L325 94 Z M150 94 C141 94 134 87 128 78 L66 -57 C65 -67 71 -73 80 -73 L155 -73 C164 -73 171 -66 176 -57 L238 78 C240 88 235 94 225 94 L150 94 Z " />
<glyph glyph-name="dagger" unicode="&#x2020;" horiz-adv-x="441" d="M413 443 C422 443 429 449 430 458 L440 530 C441 539 436 545 427 545 L353 545 L373 685 C374 694 369 700 360 700 L277 700 C268 700 261 694 260 685 L240 545 L166 545 C157 545 150 539 149 530 L139 458 C138 449 143 443 152 443 L226 443 L128 -253 C127 -262 132 -268 141 -268 L224 -268 C233 -268 240 -262 241 -253 L339 443 L413 443 Z " />
<glyph glyph-name="daggerdbl" unicode="&#x2021;" horiz-adv-x="441" d="M90 0 C81 0 74 -6 72 -15 L62 -87 C61 -96 66 -102 75 -102 L149 -102 L128 -253 C127 -262 132 -268 141 -268 L224 -268 C233 -268 240 -262 241 -253 L262 -102 L336 -102 C345 -102 352 -96 353 -87 L363 -15 C365 -6 360 0 351 0 L277 0 L339 443 L413 443 C422 443 429 449 430 458 L440 530 C441 539 436 545 427 545 L353 545 L373 685 C374 694 369 700 360 700 L277 700 C268 700 261 694 260 685 L240 545 L166 545 C157 545 150 539 149 530 L139 458 C138 449 143 443 152 443 L226 443 L164 0 L90 0 Z " />
<glyph glyph-name="bullet" unicode="&#x2022;" horiz-adv-x="263" d="M101 185 C99 176 104 170 113 170 L196 170 C205 170 212 176 214 185 L225 270 C227 279 222 285 213 285 L130 285 C121 285 114 279 112 270 L101 185 Z " />
<glyph glyph-name="ellipsis" unicode="&#x2026;" horiz-adv-x="981" d="M76 10 C75 1 80 -5 89 -5 L178 -5 C187 -5 194 1 195 10 L208 102 C209 111 204 117 195 117 L106 117 C97 117 90 111 89 102 L76 10 Z M432 10 C431 1 436 -5 445 -5 L534 -5 C543 -5 550 1 551 10 L564 102 C565 111 560 117 551 117 L462 117 C453 117 446 111 445 102 L432 10 Z M788 10 C787 1 792 -5 801 -5 L890 -5 C899 -5 906 1 907 10 L920 102 C921 111 916 117 907 117 L818 117 C809 117 802 111 801 102 L788 10 Z " />
<glyph glyph-name="perthousand" unicode="&#x2030;" horiz-adv-x="1063" d="M294 700 C227 700 165 645 156 579 C146 512 193 457 260 457 C327 457 390 512 400 579 C409 645 361 700 294 700 L294 700 Z M270 528 C241 528 222 553 226 579 C230 608 255 630 284 630 C310 630 332 608 328 579 C324 553 296 528 270 528 L270 528 Z M195 14 C194 6 200 0 208 0 L286 0 C294 0 300 6 304 14 L684 686 C685 694 680 700 672 700 L594 700 C586 700 579 694 575 686 L195 14 Z M612 243 C545 243 483 188 474 122 C464 55 511 0 578 0 C645 0 708 55 718 122 C727 188 679 243 612 243 L612 243 Z M587 71 C558 71 540 96 544 122 C548 151 573 173 602 173 C628 173 650 151 646 122 C642 96 613 71 587 71 L587 71 Z M899 243 C832 243 770 188 761 122 C751 55 798 0 865 0 C932 0 995 55 1005 122 C1014 188 966 243 899 243 L899 243 Z M874 71 C845 71 827 96 831 122 C835 151 860 173 889 173 C915 173 937 151 933 122 C929 96 900 71 874 71 L874 71 Z " />
<glyph glyph-name="guilsinglleft" unicode="&#x2039;" horiz-adv-x="355" d="M98 169 C97 161 102 154 110 152 L278 89 C286 89 293 95 294 104 L305 178 C306 187 301 193 293 196 L201 227 L203 236 L303 267 C311 270 318 276 320 285 L330 359 C331 367 326 373 318 373 L132 310 C124 308 117 302 116 293 L98 169 Z " />
<glyph glyph-name="guilsinglright" unicode="&#x203a;" horiz-adv-x="355" d="M321 293 C322 302 317 308 309 310 L141 373 C133 373 126 367 125 359 L115 285 C113 276 118 270 126 267 L218 236 L216 227 L116 196 C108 193 101 187 100 178 L89 104 C88 95 93 89 101 89 L287 152 C295 154 302 161 303 169 L321 293 Z " />
<glyph glyph-name="fraction" unicode="&#x2044;" horiz-adv-x="569" d="M51 -164 C50 -173 55 -179 64 -179 L147 -179 C154 -179 160 -176 162 -171 L604 789 C606 798 600 804 591 804 L508 804 C501 804 496 801 493 796 C356 495 191 139 51 -164 L51 -164 Z " />
<glyph glyph-name="Euro" unicode="&#x20ac;" horiz-adv-x="637" d="M362 219 C371 219 378 225 379 234 L388 292 C389 301 384 307 375 307 L304 307 L316 393 L387 393 C396 393 403 399 404 408 L412 466 C413 475 408 481 399 481 L328 481 L335 531 C341 570 372 603 408 603 L470 603 C506 603 529 570 523 531 L518 494 C517 485 522 479 531 479 L614 479 C623 479 630 485 631 494 L637 539 C649 625 593 705 498 705 L410 705 C315 705 235 625 223 539 L215 481 L157 481 C148 481 141 475 140 466 L132 408 C131 399 136 393 145 393 L203 393 L191 307 L133 307 C124 307 117 301 116 292 L107 234 C106 225 111 219 120 219 L178 219 L170 161 C158 75 215 -5 310 -5 L398 -5 C493 -5 572 75 584 161 L590 201 C591 210 586 216 577 216 L494 216 C485 216 478 210 477 201 L472 169 C467 129 435 97 399 97 L337 97 C301 97 279 129 284 169 L291 219 L362 219 Z " />
<glyph glyph-name="Numero" unicode="&#x2116;" horiz-adv-x="1024" d="M868 0 C877 0 883 6 885 15 L895 87 C896 96 891 102 882 102 L704 102 C695 102 688 96 687 87 L677 15 C675 6 681 0 690 0 L868 0 Z M374 15 C377 6 383 0 392 0 L504 0 C513 0 519 6 521 15 L615 685 C616 694 611 700 602 700 L519 700 C510 700 503 694 502 685 L441 253 L432 253 L318 685 C314 694 309 700 300 700 L188 700 C179 700 172 694 171 685 L77 15 C75 6 81 0 90 0 L173 0 C182 0 188 6 190 15 L251 449 L260 449 L374 15 Z M848 700 C758 700 697 624 687 549 L655 326 C645 251 684 175 774 175 L833 175 C923 175 984 251 994 326 L1026 549 C1036 624 997 700 907 700 L848 700 Z M876 598 C903 598 916 573 912 545 L882 330 C878 302 857 277 830 277 L805 277 C778 277 765 302 769 330 L799 545 C803 573 824 598 851 598 L876 598 Z " />
<glyph glyph-name="trademark" unicode="&#x2122;" horiz-adv-x="708" d="M198 403 C197 398 201 394 206 394 L257 394 C262 394 266 398 267 403 L300 635 L359 635 C363 635 367 639 368 643 L375 692 C375 696 372 700 368 700 L181 700 C177 700 172 696 172 692 L165 643 C164 639 168 635 172 635 L231 635 L198 403 Z M548 436 C551 436 553 438 554 441 L645 581 L620 403 C619 398 623 394 628 394 L679 394 C684 394 688 398 689 403 L730 691 C730 696 727 700 722 700 L666 700 C660 700 655 695 651 689 L557 552 L552 552 L496 689 C494 695 491 700 485 700 L429 700 C424 700 419 696 419 691 L378 403 C377 398 381 394 386 394 L437 394 C442 394 446 398 447 403 L472 581 L523 441 C524 438 526 436 529 436 L548 436 Z " />
<glyph glyph-name="Omega" unicode="&#x2126;" horiz-adv-x="688" d="M408 700 C313 700 224 626 212 534 L161 176 C159 161 157 114 174 102 L104 102 C95 102 88 96 87 87 L77 15 C75 6 81 0 90 0 L274 0 C283 0 289 6 291 15 L301 87 C302 96 299 102 290 102 C264 102 271 161 274 180 L322 526 C328 565 366 598 402 598 L454 598 C490 598 518 565 512 526 L464 180 C461 161 452 102 426 102 C417 102 412 96 411 87 L401 15 C399 6 405 0 414 0 L598 0 C607 0 613 6 615 15 L625 87 C626 96 621 102 612 102 L542 102 C563 114 573 161 575 176 L626 534 C638 626 571 700 476 700 L408 700 Z " />
<glyph glyph-name="partialdiff" unicode="&#x2202;" horiz-adv-x="503" d="M336 150 C332 122 311 97 284 97 L245 97 C218 97 205 122 209 150 L227 280 C231 308 251 333 278 333 L317 333 C344 333 358 308 354 280 L336 150 Z M370 396 L362 396 C345 426 314 435 293 435 L257 435 C167 435 127 370 114 283 L95 147 C83 60 105 -5 195 -5 L231 -5 C252 -5 286 4 311 34 L319 34 L317 15 C315 6 321 0 330 0 L413 0 C422 0 428 6 430 15 L505 554 C516 629 478 705 388 705 L327 705 C236 705 177 629 166 554 L161 515 C160 506 165 500 174 500 L257 500 C266 500 273 506 274 515 L279 550 C283 578 303 603 330 603 L355 603 C382 603 396 578 392 550 L370 396 Z " />
<glyph glyph-name="Delta" unicode="&#x2206;" horiz-adv-x="838" d="M633 101 L233 101 L502 595 L633 101 Z M748 0 C757 0 763 6 765 15 L590 685 C588 694 583 700 574 700 L460 700 C451 700 444 694 440 685 L77 15 C75 6 81 0 90 0 L748 0 Z " />
<glyph glyph-name="product" unicode="&#x220f;" horiz-adv-x="725" d="M719 598 C728 598 734 604 736 613 L746 685 C747 694 742 700 733 700 L188 700 C179 700 172 694 171 685 L161 613 C159 604 165 598 174 598 L283 598 L201 15 C199 6 205 0 214 0 L297 0 C306 0 312 6 314 15 L396 598 L497 598 L415 15 C413 6 419 0 428 0 L511 0 C520 0 526 6 528 15 L610 598 L719 598 Z " />
<glyph glyph-name="summation" unicode="&#x2211;" horiz-adv-x="489" d="M366 344 L368 356 L263 598 L483 598 C492 598 498 604 500 613 L510 685 C511 694 506 700 497 700 L188 700 C179 700 172 694 171 685 L158 592 L257 363 L253 337 L90 108 L77 15 C75 6 81 0 90 0 L399 0 C408 0 414 6 416 15 L426 87 C427 96 422 102 413 102 L193 102 L366 344 Z " />
<glyph glyph-name="minus" unicode="&#x2212;" horiz-adv-x="358" d="M294 191 C303 191 310 197 311 206 L322 278 C323 287 318 293 309 293 L131 293 C122 293 115 287 114 278 L103 206 C102 197 107 191 116 191 L294 191 Z " />
<glyph glyph-name="radical" unicode="&#x221a;" horiz-adv-x="669" d="M663 598 C672 598 678 604 680 613 L690 685 C691 694 686 700 677 700 L482 700 C473 700 466 694 463 685 L263 124 L254 124 L240 378 C239 387 234 393 225 393 L145 393 C136 393 129 387 128 378 L158 15 C159 6 164 0 173 0 L310 0 C319 0 324 6 329 15 L543 598 L663 598 Z " />
<glyph glyph-name="infinity" unicode="&#x221e;" horiz-adv-x="862" d="M265 172 C239 172 215 197 219 224 L229 297 C233 325 264 350 290 350 L371 350 C396 350 419 328 417 302 L406 224 C402 197 372 172 346 172 L265 172 Z M487 399 C477 435 427 452 394 452 L285 452 C195 452 127 377 117 303 L105 219 C95 145 141 70 231 70 L340 70 C373 70 422 94 451 144 C466 94 507 70 540 70 L649 70 C739 70 807 145 817 219 L829 303 C839 377 793 452 703 452 L594 452 C561 452 507 435 487 399 L487 399 Z M564 172 C538 172 514 197 518 224 L529 302 C535 328 564 350 589 350 L670 350 C696 350 719 325 715 297 L705 224 C701 197 671 172 645 172 L564 172 Z " />
<glyph glyph-name="integral" unicode="&#x222b;" horiz-adv-x="441" d="M412 699 C381 688 253 639 234 505 L165 12 C165 12 156 -53 72 -84 C65 -86 62 -92 61 -97 C61 -99 61 -101 62 -103 L82 -180 C84 -186 88 -188 93 -188 C95 -188 98 -188 100 -187 C131 -176 259 -127 277 7 L347 500 C347 500 356 565 440 596 C447 598 450 604 451 609 C451 611 451 613 450 615 L430 692 C428 698 424 700 419 700 C417 700 414 700 412 699 L412 699 Z " />
<glyph glyph-name="approxequal" unicode="&#x2248;" horiz-adv-x="392" d="M250 53 C272 53 292 63 317 77 C324 81 329 87 330 94 L320 156 C319 160 316 166 307 166 C305 166 303 166 300 165 C286 160 272 155 264 155 C211 155 225 190 175 190 C153 190 133 180 108 166 C101 162 96 156 95 149 L105 87 C106 83 109 77 118 77 C120 77 122 77 125 78 C139 83 153 88 161 88 C214 88 199 53 250 53 L250 53 Z M276 235 C298 235 318 245 343 259 C349 263 354 269 355 276 L346 338 C345 342 341 348 332 348 C330 348 328 348 325 347 C312 342 298 337 290 337 C237 337 251 372 201 372 C179 372 158 362 133 348 C127 344 122 338 121 331 L130 269 C132 265 135 259 144 259 C146 259 148 259 151 260 C165 265 178 270 186 270 C239 270 225 235 276 235 L276 235 Z " />
<glyph glyph-name="notequal" unicode="&#x2260;" horiz-adv-x="400" d="M85 15 C83 6 89 0 98 0 L162 0 C169 0 174 3 177 8 L214 91 L320 91 C329 91 336 97 337 106 L348 178 C349 187 344 193 335 193 L262 193 L302 283 L347 283 C356 283 363 289 364 298 L375 370 C376 379 371 385 362 385 L350 385 L391 476 C393 485 388 491 379 491 L315 491 C308 491 302 488 299 483 L254 385 L144 385 C135 385 128 379 127 370 L116 298 C115 289 120 283 129 283 L207 283 L166 193 L117 193 C108 193 101 187 100 178 L89 106 C88 97 93 91 102 91 L119 91 L85 15 Z " />
<glyph glyph-name="lessequal" unicode="&#x2264;" horiz-adv-x="355" d="M265 0 C274 0 280 6 282 15 L290 78 C292 87 287 93 278 93 L103 93 C94 93 87 87 85 78 L77 15 C75 6 81 0 90 0 L265 0 Z M106 226 C105 218 110 211 118 209 L286 146 C294 146 301 152 302 161 L313 235 C314 244 309 250 301 253 L209 284 L211 293 L311 324 C319 327 326 333 328 342 L338 416 C339 424 334 430 326 430 L140 367 C132 365 125 359 124 350 L106 226 Z " />
<glyph glyph-name="greaterequal" unicode="&#x2265;" horiz-adv-x="355" d="M265 0 C274 0 280 6 282 15 L290 78 C292 87 287 93 278 93 L103 93 C94 93 87 87 85 78 L77 15 C75 6 81 0 90 0 L265 0 Z M329 350 C330 359 325 365 317 367 L149 430 C141 430 134 424 133 416 L123 342 C121 333 126 327 134 324 L226 293 L224 284 L124 253 C116 250 109 244 108 235 L97 161 C96 152 101 146 109 146 L295 209 C303 211 310 218 311 226 L329 350 Z " />
<glyph glyph-name="lozenge" unicode="&#x25ca;" horiz-adv-x="620" d="M352 700 C342 700 335 692 329 683 L124 350 L237 17 C241 8 245 0 255 0 L365 0 C375 0 381 8 387 17 L594 350 L481 683 C479 692 474 700 464 700 L352 700 Z M326 117 L245 349 L392 584 L473 349 L326 117 Z " />
<glyph glyph-name="uni25CC" unicode="&#x25cc;" horiz-adv-x="199" d="" />
<glyph glyph-name="fi" unicode="&#xfb01;" horiz-adv-x="610" d="M382 642 C391 642 398 648 399 657 L409 729 C410 738 405 744 396 744 L353 744 C263 744 199 668 183 593 L172 515 L117 515 C108 515 101 509 100 500 L90 428 C88 419 94 413 103 413 L158 413 L102 15 C100 6 106 0 115 0 L198 0 C207 0 213 6 215 15 L271 413 L350 413 C359 413 365 419 367 428 L377 500 C378 509 373 515 364 515 L285 515 L295 589 C299 617 330 642 357 642 L382 642 Z M424 15 C422 6 428 0 437 0 L520 0 C529 0 535 6 537 15 L605 500 C606 509 601 515 592 515 L509 515 C500 515 493 509 492 500 L424 15 Z M502 593 C501 584 506 578 515 578 L604 578 C613 578 620 584 621 593 L634 685 C635 694 630 700 621 700 L532 700 C523 700 516 694 515 685 L502 593 Z " />
<glyph glyph-name="fl" unicode="&#xfb02;" horiz-adv-x="610" d="M382 642 C391 642 398 648 399 657 L409 729 C410 738 405 744 396 744 L353 744 C263 744 199 668 183 593 L172 515 L117 515 C108 515 101 509 100 500 L90 428 C88 419 94 413 103 413 L158 413 L102 15 C100 6 106 0 115 0 L198 0 C207 0 213 6 215 15 L271 413 L350 413 C359 413 365 419 367 428 L377 500 C378 509 373 515 364 515 L285 515 L295 589 C299 617 330 642 357 642 L382 642 Z M424 15 C422 6 428 0 437 0 L520 0 C529 0 535 6 537 15 L631 685 C632 694 627 700 618 700 L535 700 C526 700 519 694 518 685 L424 15 Z " />
</font>
</svg>
