<svg xmlns="http://www.w3.org/2000/svg" class="icon icon-tabler icon-tabler-world-pin" width="24" height="24" viewBox="0 0 24 24" stroke-width="2" stroke="currentColor" fill="none" stroke-linecap="round" stroke-linejoin="round"><path d="M0 0h24v24H0z" stroke="none"/><path d="M20.972 11.291a9 9 0 1 0-8.322 9.686M3.6 9h16.8M3.6 15h8.9"/><path d="M11.5 3a17 17 0 0 0 0 18m1-18a16.986 16.986 0 0 1 2.578 9.018m6.043 8.103a3 3 0 1 0-4.242 0c.418.419 1.125 1.045 2.121 1.879 1.051-.89 1.759-1.516 2.121-1.879zM19 18v.01"/></svg>