<svg xmlns="http://www.w3.org/2000/svg" class="icon icon-tabler icon-tabler-yin-yang-filled" width="24" height="24" viewBox="0 0 24 24" stroke-width="2" stroke="currentColor" fill="none" stroke-linecap="round" stroke-linejoin="round"><path d="M0 0h24v24H0z" stroke="none"/><path d="M17 3.34a10 10 0 1 1-14.995 8.984L2 12l.005-.324A10 10 0 0 1 17 3.34zM8 5.072A8 8 0 0 0 12 20l.2-.005a4 4 0 0 0 0-7.99L12 12a4 4 0 0 1-.2-7.995L12 4a7.995 7.995 0 0 0-4 1.072zM12 6.5a1.5 1.5 0 1 0 0 3 1.5 1.5 0 0 0 0-3z" fill="currentColor" stroke="none"/><path d="M12 14.5a1.5 1.5 0 1 1 0 3 1.5 1.5 0 0 1 0-3z" fill="currentColor" stroke="none"/></svg>