<?xml version="1.0" encoding="UTF-8"?>
<svg xmlns="http://www.w3.org/2000/svg" xmlns:xlink="http://www.w3.org/1999/xlink" version="1.2" >
<font id="Tomkin Narrow Light">
<font-face  font-family="Tomkin Narrow" units-per-em="1000" ascent="750" descent="-250" font-style="normal" font-weight="300" font-stretch="normal" cap-height="700" x-height="515" underline-position="-91" underline-thickness="35" />
<missing-glyph  horiz-adv-x="569" d="" />
<glyph glyph-name="space" unicode="&#x20;" horiz-adv-x="182" d="" />
<glyph glyph-name="exclam" unicode="&#x21;" horiz-adv-x="239" d="M90 267 L95 172 C95 165 99 161 106 161 L133 161 C140 161 144 165 144 172 L149 267 L149 689 C149 696 145 700 138 700 L101 700 C94 700 90 696 90 689 L90 267 Z M90 11 C90 4 94 0 101 0 L138 0 C145 0 149 4 149 11 L149 71 C149 78 145 82 138 82 L101 82 C94 82 90 78 90 71 L90 11 Z " />
<glyph glyph-name="quotedbl" unicode="&#x22;" horiz-adv-x="388" d="M90 615 L95 520 C95 513 99 509 106 509 L126 509 C133 509 137 513 137 520 L142 615 L142 689 C142 696 138 700 131 700 L101 700 C94 700 90 696 90 689 L90 615 Z M246 615 L251 520 C251 513 255 509 262 509 L282 509 C289 509 293 513 293 520 L298 615 L298 689 C298 696 294 700 287 700 L257 700 C250 700 246 696 246 689 L246 615 Z " />
<glyph glyph-name="numbersign" unicode="&#x23;" horiz-adv-x="835" d="M417 9 C417 3 420 0 426 0 L466 0 C472 0 475 3 477 9 L524 156 L620 156 C627 156 631 160 631 167 L631 199 C631 206 627 210 620 210 L541 210 L628 483 L734 483 C741 483 745 487 745 494 L745 526 C745 533 741 537 734 537 L646 537 L695 691 C695 697 692 700 686 700 L646 700 C640 700 637 697 635 691 L586 537 L372 537 L421 691 C421 697 418 700 412 700 L372 700 C366 700 363 697 361 691 L312 537 L215 537 C208 537 204 533 204 526 L204 494 C204 487 208 483 215 483 L294 483 L207 210 L101 210 C94 210 90 206 90 199 L90 167 C90 160 94 156 101 156 L190 156 L143 9 C143 3 146 0 152 0 L192 0 C198 0 201 3 203 9 L250 156 L464 156 L417 9 Z M354 483 L568 483 L481 210 L267 210 L354 483 Z " />
<glyph glyph-name="dollar" unicode="&#x24;" horiz-adv-x="605" d="M149 518 L149 540 C149 608 189 651 257 651 L336 651 C404 651 444 608 444 540 L444 529 C444 521 449 518 455 518 L492 518 C500 518 504 521 504 529 L504 557 C504 637 433 705 348 705 L333 705 L333 821 C333 827 328 832 322 832 L285 832 C277 832 274 827 274 821 L274 705 L245 705 C160 705 90 637 90 557 L90 532 C90 234 456 393 456 174 L456 158 C456 92 416 48 348 48 L257 48 C189 48 149 92 149 158 L149 171 C149 178 144 181 138 181 L101 181 C93 181 90 178 90 171 L90 143 C90 61 161 -6 246 -6 L274 -6 L274 -126 C274 -134 277 -137 285 -137 L322 -137 C328 -137 333 -134 333 -126 L333 -6 L360 -6 C445 -6 515 61 515 143 L515 161 C515 450 149 294 149 518 L149 518 Z " />
<glyph glyph-name="percent" unicode="&#x25;" horiz-adv-x="794" d="M205 700 C141 700 90 649 90 585 C90 521 141 469 205 469 C269 469 320 521 320 585 C320 649 269 700 205 700 L205 700 Z M205 519 C168 519 139 552 139 585 C139 624 168 652 205 652 C243 652 272 624 272 585 C272 552 243 519 205 519 L205 519 Z M223 9 C223 3 226 0 232 0 L272 0 C278 0 281 3 283 9 L571 691 C571 697 568 700 562 700 L522 700 C516 700 513 697 511 691 L223 9 Z M589 231 C525 231 474 180 474 116 C474 52 525 0 589 0 C653 0 704 52 704 116 C704 180 653 231 589 231 L589 231 Z M589 50 C552 50 523 83 523 116 C523 155 552 183 589 183 C627 183 656 155 656 116 C656 83 627 50 589 50 L589 50 Z " />
<glyph glyph-name="ampersand" unicode="&#x26;" horiz-adv-x="656" d="M447 323 L447 49 L255 49 C201 49 149 97 149 161 L149 212 C149 272 201 323 255 323 L447 323 Z M446 530 C446 523 450 519 457 519 L494 519 C501 519 505 523 505 530 L505 557 C505 638 435 705 350 705 L280 705 C194 705 123 638 123 557 L123 479 C123 449 128 386 195 354 C117 340 90 253 90 209 L90 149 C90 67 162 0 247 0 L494 0 C501 0 505 4 505 11 L505 323 L580 323 C587 323 591 327 591 334 L591 366 C591 373 587 377 580 377 L288 377 C234 377 182 424 182 488 L182 541 C182 604 234 651 288 651 L341 651 C396 651 446 601 446 541 L446 530 Z " />
<glyph glyph-name="quotesingle" unicode="&#x27;" horiz-adv-x="232" d="M90 615 L95 520 C95 513 99 509 106 509 L126 509 C133 509 137 513 137 520 L142 615 L142 689 C142 696 138 700 131 700 L101 700 C94 700 90 696 90 689 L90 615 Z " />
<glyph glyph-name="parenleft" unicode="&#x28;" horiz-adv-x="287" d="M90 308 C90 150 105 1 138 -167 C139 -174 142 -178 149 -178 L186 -178 C193 -178 197 -174 197 -167 C168 -15 149 159 149 308 C149 457 168 642 197 794 C197 801 193 805 186 805 L149 805 C142 805 139 801 138 794 C105 626 90 466 90 308 L90 308 Z " />
<glyph glyph-name="parenright" unicode="&#x29;" horiz-adv-x="287" d="M197 308 C197 466 182 626 149 794 C148 801 145 805 138 805 L101 805 C94 805 90 801 90 794 C119 642 138 457 138 308 C138 159 119 -15 90 -167 C90 -174 94 -178 101 -178 L138 -178 C145 -178 148 -174 149 -167 C182 1 197 150 197 308 L197 308 Z " />
<glyph glyph-name="asterisk" unicode="&#x2a;" horiz-adv-x="430" d="M237 584 L237 693 C237 696 234 700 231 700 L200 700 C195 700 193 696 193 693 L193 584 L118 634 C116 635 114 635 114 635 C111 635 109 634 108 632 L91 605 C90 603 90 602 90 601 C90 600 91 597 93 596 L177 538 L110 462 C108 460 108 458 108 456 C108 454 109 452 111 450 L133 431 C134 430 136 430 137 430 C140 430 141 431 142 432 L215 516 L288 432 C289 431 290 430 293 430 C294 430 296 430 297 431 L319 450 C321 452 322 454 322 456 C322 458 322 460 320 462 L253 538 L337 596 C339 597 340 600 340 601 C340 602 340 603 339 605 L322 632 C321 634 319 635 316 635 C316 635 314 635 312 634 L237 584 Z " />
<glyph glyph-name="plus" unicode="&#x2b;" horiz-adv-x="427" d="M326 206 C333 206 337 210 337 217 L337 249 C337 256 333 260 326 260 L243 260 L243 380 C243 387 239 391 232 391 L195 391 C188 391 184 387 184 380 L184 260 L101 260 C94 260 90 256 90 249 L90 217 C90 210 94 206 101 206 L184 206 L184 83 C184 76 188 72 195 72 L232 72 C239 72 243 76 243 83 L243 206 L326 206 Z " />
<glyph glyph-name="comma" unicode="&#x2c;" horiz-adv-x="288" d="M138 -91 C145 -91 148 -87 152 -79 L198 23 C198 31 194 35 187 35 L150 35 C143 35 140 31 136 23 L90 -79 C90 -87 94 -91 102 -91 L138 -91 Z " />
<glyph glyph-name="hyphen" unicode="&#x2d;" horiz-adv-x="376" d="M275 209 C282 209 286 213 286 220 L286 252 C286 259 282 263 275 263 L101 263 C94 263 90 259 90 252 L90 220 C90 213 94 209 101 209 L275 209 Z " />
<glyph glyph-name="period" unicode="&#x2e;" horiz-adv-x="248" d="M90 6 C90 -1 94 -5 101 -5 L147 -5 C154 -5 158 -1 158 6 L158 55 C158 62 154 66 147 66 L101 66 C94 66 90 62 90 55 L90 6 Z " />
<glyph glyph-name="slash" unicode="&#x2f;" horiz-adv-x="549" d="M90 -170 C90 -176 93 -179 99 -179 L139 -179 C145 -179 148 -176 150 -170 L459 795 C459 801 456 804 450 804 L410 804 C404 804 401 801 399 795 L90 -170 Z " />
<glyph glyph-name="zero" unicode="0" horiz-adv-x="585" d="M350 705 L235 705 C150 705 80 638 80 556 L80 144 C80 62 150 -5 235 -5 L350 -5 C435 -5 505 62 505 144 L505 556 C505 638 435 705 350 705 L350 705 Z M446 160 C446 93 405 49 337 49 L248 49 C180 49 139 93 139 160 L139 541 C139 608 180 651 248 651 L337 651 C405 651 446 608 446 541 L446 160 Z " />
<glyph glyph-name="one" unicode="1" horiz-adv-x="538" d="M76 637 C72 635 70 631 70 627 L70 588 C70 582 72 579 79 579 L268 643 L268 54 L115 54 C108 54 104 50 104 43 L104 11 C104 4 108 0 115 0 L482 0 C489 0 493 4 493 11 L493 43 C493 50 489 54 482 54 L327 54 L327 689 C327 696 323 700 316 700 L262 700 L76 637 Z " />
<glyph glyph-name="two" unicode="2" horiz-adv-x="557" d="M70 11 C70 4 74 0 81 0 L474 0 C481 0 485 4 485 11 L485 43 C485 50 481 54 474 54 L129 54 L129 141 C129 363 487 208 487 500 L487 557 C487 638 417 705 332 705 L229 705 C144 705 73 638 73 557 L73 529 C73 522 77 518 84 518 L121 518 C128 518 132 522 132 529 L132 541 C132 608 173 651 241 651 L319 651 C387 651 428 608 428 541 L428 488 C428 269 70 422 70 130 L70 11 Z " />
<glyph glyph-name="three" unicode="3" horiz-adv-x="564" d="M399 350 C454 369 489 441 489 476 L489 557 C489 638 419 705 334 705 L231 705 C146 705 75 638 75 557 L75 529 C75 522 79 518 86 518 L123 518 C130 518 134 522 134 529 L134 541 C134 608 175 651 243 651 L321 651 C389 651 430 608 430 541 L430 487 C430 422 378 379 323 379 L253 379 C246 379 242 375 242 368 L242 332 C242 325 246 321 253 321 L323 321 C378 321 430 278 430 213 L430 159 C430 92 389 49 321 49 L243 49 C175 49 134 92 134 159 L134 171 C134 178 130 182 123 182 L86 182 C79 182 75 178 75 171 L75 143 C75 62 146 -5 231 -5 L334 -5 C419 -5 489 62 489 143 L489 224 C489 259 454 331 399 350 L399 350 Z " />
<glyph glyph-name="four" unicode="4" horiz-adv-x="569" d="M50 199 L50 167 C50 160 54 156 61 156 L388 156 L388 11 C388 4 392 0 399 0 L436 0 C443 0 447 4 447 11 L447 156 L508 156 C515 156 519 160 519 167 L519 199 C519 206 515 210 508 210 L447 210 L447 421 C447 428 443 432 436 432 L399 432 C392 432 388 428 388 421 L388 210 L121 210 L336 693 C336 697 333 700 329 700 L282 700 C276 700 274 697 272 693 L50 199 Z " />
<glyph glyph-name="five" unicode="5" horiz-adv-x="575" d="M80 143 C80 62 151 -5 237 -5 L348 -5 C434 -5 505 62 505 143 L505 266 C505 347 438 414 352 414 L238 414 C223 414 179 414 139 386 L139 646 L443 646 C450 646 454 650 454 657 L454 689 C454 696 450 700 443 700 L91 700 C84 700 80 696 80 689 L80 331 C80 324 84 320 91 320 L133 320 C140 320 142 324 147 331 C164 356 211 360 231 360 L339 360 C403 360 446 320 446 249 L446 161 C446 92 406 49 339 49 L247 49 C185 49 139 87 139 161 L139 165 C139 172 135 176 128 176 L91 176 C84 176 80 172 80 165 L80 143 Z " />
<glyph glyph-name="six" unicode="6" horiz-adv-x="576" d="M447 159 C447 92 406 49 338 49 L248 49 C180 49 139 92 139 159 L139 250 C139 317 180 360 248 360 L338 360 C406 360 447 317 447 250 L447 159 Z M327 651 C395 651 436 608 436 541 L436 532 C436 525 440 521 447 521 L484 521 C491 521 495 525 495 532 L495 557 C495 638 424 705 336 705 L238 705 C151 705 80 638 80 557 L80 143 C80 62 151 -5 238 -5 L351 -5 C436 -5 506 62 506 143 L506 267 C506 348 436 414 351 414 L245 414 C233 414 182 413 139 378 L139 541 C139 608 180 651 248 651 L327 651 Z " />
<glyph glyph-name="seven" unicode="7" horiz-adv-x="492" d="M159 11 C159 4 163 0 170 0 L207 0 C214 0 217 4 218 11 C248 211 311 443 437 640 L437 689 C437 696 433 700 426 700 L66 700 C59 700 55 696 55 689 L55 657 C55 650 59 646 66 646 L381 646 C234 426 188 195 159 11 L159 11 Z " />
<glyph glyph-name="eight" unicode="8" horiz-adv-x="577" d="M243 49 C175 49 134 93 134 160 L134 210 C134 277 175 321 243 321 L334 321 C402 321 443 277 443 210 L443 160 C443 93 402 49 334 49 L243 49 Z M249 705 C162 705 91 638 91 557 L91 472 C91 442 104 371 170 354 C94 327 75 262 75 222 L75 143 C75 62 144 -5 229 -5 L348 -5 C433 -5 502 62 502 143 L502 222 C502 262 483 327 407 354 C473 371 486 442 486 472 L486 557 C486 638 415 705 328 705 L249 705 Z M318 651 C386 651 427 608 427 541 L427 485 C427 418 386 375 318 375 L259 375 C191 375 150 418 150 485 L150 541 C150 608 191 651 259 651 L318 651 Z " />
<glyph glyph-name="nine" unicode="9" horiz-adv-x="576" d="M129 541 C129 608 170 651 238 651 L328 651 C396 651 437 608 437 541 L437 450 C437 383 396 340 328 340 L238 340 C170 340 129 383 129 450 L129 541 Z M249 49 C181 49 140 92 140 159 L140 168 C140 175 136 179 129 179 L92 179 C85 179 81 175 81 168 L81 143 C81 62 152 -5 240 -5 L338 -5 C425 -5 496 62 496 143 L496 557 C496 638 425 705 338 705 L225 705 C140 705 70 638 70 557 L70 433 C70 352 140 286 225 286 L331 286 C343 286 394 287 437 322 L437 159 C437 92 396 49 328 49 L249 49 Z " />
<glyph glyph-name="colon" unicode="&#x3a;" horiz-adv-x="248" d="M90 6 C90 -1 94 -5 101 -5 L147 -5 C154 -5 158 -1 158 6 L158 55 C158 62 154 66 147 66 L101 66 C94 66 90 62 90 55 L90 6 Z M90 345 C90 338 94 334 101 334 L147 334 C154 334 158 338 158 345 L158 394 C158 401 154 405 147 405 L101 405 C94 405 90 401 90 394 L90 345 Z " />
<glyph glyph-name="semicolon" unicode="&#x3b;" horiz-adv-x="289" d="M131 345 C131 338 135 334 142 334 L188 334 C195 334 199 338 199 345 L199 394 C199 401 195 405 188 405 L142 405 C135 405 131 401 131 394 L131 345 Z M138 -91 C145 -91 148 -87 152 -79 L198 23 C198 31 194 35 187 35 L150 35 C143 35 140 31 136 23 L90 -79 C90 -87 94 -91 102 -91 L138 -91 Z " />
<glyph glyph-name="less" unicode="&#x3c;" horiz-adv-x="418" d="M90 185 C90 178 92 175 100 172 L319 86 C323 86 328 89 328 95 L328 138 C328 145 323 148 319 150 L147 218 L147 224 L319 292 C323 294 328 297 328 304 L328 347 C328 353 323 356 319 356 L100 270 C92 267 90 264 90 257 L90 185 Z " />
<glyph glyph-name="equal" unicode="&#x3d;" horiz-adv-x="376" d="M275 109 C282 109 286 113 286 120 L286 152 C286 159 282 163 275 163 L101 163 C94 163 90 159 90 152 L90 120 C90 113 94 109 101 109 L275 109 Z M275 301 C282 301 286 305 286 312 L286 344 C286 351 282 355 275 355 L101 355 C94 355 90 351 90 344 L90 312 C90 305 94 301 101 301 L275 301 Z " />
<glyph glyph-name="greater" unicode="&#x3e;" horiz-adv-x="418" d="M328 257 C328 264 326 267 318 270 L99 356 C95 356 90 353 90 347 L90 304 C90 297 95 294 99 292 L271 224 L271 218 L99 150 C95 148 90 145 90 138 L90 95 C90 89 95 86 99 86 L318 172 C326 175 328 178 328 185 L328 257 Z " />
<glyph glyph-name="question" unicode="&#x3f;" horiz-adv-x="594" d="M243 172 C243 165 247 161 254 161 L291 161 C298 161 302 165 302 172 L302 184 C302 404 504 243 504 510 L504 557 C504 638 434 705 349 705 L246 705 C161 705 90 638 90 557 L90 509 C90 502 94 498 101 498 L138 498 C145 498 149 502 149 509 L149 541 C149 608 190 651 258 651 L336 651 C404 651 445 608 445 541 L445 510 C445 284 243 451 243 189 L243 172 Z M243 11 C243 4 247 0 254 0 L291 0 C298 0 302 4 302 11 L302 71 C302 78 298 82 291 82 L254 82 C247 82 243 78 243 71 L243 11 Z " />
<glyph glyph-name="at" unicode="&#x40;" horiz-adv-x="754" d="M509 705 L245 705 C160 705 90 638 90 556 L90 32 C90 -50 160 -117 245 -117 L440 -117 C447 -117 451 -113 451 -106 L451 -74 C451 -67 447 -63 440 -63 L258 -63 C190 -63 149 -19 149 48 L149 541 C149 608 190 651 258 651 L496 651 C564 651 605 608 605 541 L605 455 L598 455 C574 488 537 494 520 494 L438 494 C357 494 297 435 297 356 L297 190 C297 111 357 52 438 52 L520 52 C537 52 574 58 598 91 L605 91 L605 68 C605 61 609 57 616 57 L653 57 C660 57 664 61 664 68 L664 556 C664 638 594 705 509 705 L509 705 Z M603 198 C603 148 568 106 510 106 L449 106 C391 106 356 148 356 198 L356 348 C356 398 391 440 449 440 L510 440 C568 440 603 398 603 348 L603 198 Z " />
<glyph glyph-name="A" unicode="A" horiz-adv-x="584" d="M341 692 C339 697 336 700 330 700 L254 700 C248 700 245 697 243 692 L45 11 C45 4 49 0 56 0 L94 0 C101 0 104 4 106 11 L143 138 L441 138 L478 11 C480 4 483 0 490 0 L528 0 C535 0 539 4 539 11 L341 692 Z M287 631 L297 631 L425 191 L158 191 L287 631 Z " />
<glyph glyph-name="B" unicode="B" horiz-adv-x="566" d="M348 0 C435 0 506 67 506 149 L506 221 C506 267 485 319 411 359 C453 383 473 449 473 479 L473 551 C473 633 403 700 317 700 L101 700 C94 700 90 696 90 689 L90 11 C90 4 94 0 101 0 L348 0 Z M149 377 L149 646 L306 646 C362 646 414 594 414 535 L414 488 C414 424 362 377 306 377 L149 377 Z M340 323 C396 323 447 272 447 212 L447 165 C447 101 396 54 340 54 L149 54 L149 323 L340 323 Z " />
<glyph glyph-name="C" unicode="C" horiz-adv-x="570" d="M446 160 C446 93 405 49 337 49 L248 49 C180 49 139 93 139 160 L139 541 C139 608 180 651 248 651 L337 651 C405 651 446 608 446 541 L446 504 C446 497 450 493 457 493 L494 493 C501 493 505 497 505 504 L505 556 C505 638 435 705 350 705 L235 705 C150 705 80 638 80 556 L80 144 C80 62 150 -5 235 -5 L350 -5 C435 -5 505 62 505 144 L505 196 C505 203 501 207 494 207 L457 207 C450 207 446 203 446 196 L446 160 Z " />
<glyph glyph-name="D" unicode="D" horiz-adv-x="595" d="M149 54 L149 646 L348 646 C416 646 457 602 457 535 L457 165 C457 98 416 54 348 54 L149 54 Z M101 700 C94 700 90 696 90 689 L90 11 C90 4 94 0 101 0 L360 0 C445 0 515 67 515 149 L515 551 C515 633 445 700 360 700 L101 700 Z " />
<glyph glyph-name="E" unicode="E" horiz-adv-x="515" d="M90 11 C90 4 94 0 101 0 L424 0 C431 0 435 4 435 11 L435 43 C435 50 431 54 424 54 L149 54 L149 310 L398 310 C405 310 409 314 409 321 L409 353 C409 360 405 364 398 364 L149 364 L149 646 L424 646 C431 646 435 650 435 657 L435 689 C435 696 431 700 424 700 L101 700 C94 700 90 696 90 689 L90 11 Z " />
<glyph glyph-name="F" unicode="F" horiz-adv-x="485" d="M90 11 C90 4 94 0 101 0 L138 0 C145 0 149 4 149 11 L149 310 L398 310 C405 310 409 314 409 321 L409 353 C409 360 405 364 398 364 L149 364 L149 646 L424 646 C431 646 435 650 435 657 L435 689 C435 696 431 700 424 700 L101 700 C94 700 90 696 90 689 L90 11 Z " />
<glyph glyph-name="G" unicode="G" horiz-adv-x="585" d="M309 370 C302 370 298 366 298 359 L298 327 C298 320 302 316 309 316 L446 316 L446 160 C446 93 405 49 337 49 L248 49 C180 49 139 93 139 160 L139 541 C139 608 180 651 248 651 L337 651 C405 651 446 608 446 541 L446 504 C446 497 450 493 457 493 L494 493 C501 493 505 497 505 504 L505 556 C505 638 435 705 350 705 L235 705 C150 705 80 638 80 556 L80 144 C80 62 150 -5 235 -5 L350 -5 C435 -5 505 62 505 144 L505 359 C505 366 501 370 494 370 L309 370 Z " />
<glyph glyph-name="H" unicode="H" horiz-adv-x="598" d="M449 11 C449 4 453 0 460 0 L497 0 C504 0 508 4 508 11 L508 689 C508 696 504 700 497 700 L460 700 C453 700 449 696 449 689 L449 363 L149 363 L149 689 C149 696 145 700 138 700 L101 700 C94 700 90 696 90 689 L90 11 C90 4 94 0 101 0 L138 0 C145 0 149 4 149 11 L149 309 L449 309 L449 11 Z " />
<glyph glyph-name="I" unicode="I" horiz-adv-x="239" d="M149 689 C149 692 148 695 146 697 C144 699 142 700 138 700 L101 700 C97 700 95 699 93 697 C91 695 90 692 90 689 L90 11 C90 8 91 5 93 3 C95 1 97 0 101 0 L138 0 C142 0 144 1 146 3 C148 5 149 8 149 11 L149 689 Z " />
<glyph glyph-name="J" unicode="J" horiz-adv-x="418" d="M22 36 C51 17 93 -5 160 -5 C291 -5 348 72 348 154 L348 689 C348 696 344 700 337 700 L300 700 C293 700 289 696 289 689 L289 164 C289 149 288 49 154 49 C126 49 97 55 62 76 C58 78 57 79 54 79 C52 79 49 78 47 76 L23 50 C21 48 20 45 20 42 C20 39 20 38 22 36 L22 36 Z " />
<glyph glyph-name="K" unicode="K" horiz-adv-x="549" d="M434 8 C436 4 438 0 444 0 L490 0 C495 0 498 3 498 8 L362 348 L498 692 C498 697 495 700 490 700 L445 700 C439 700 437 696 435 692 L310 376 L149 376 L149 689 C149 696 145 700 138 700 L101 700 C94 700 90 696 90 689 L90 11 C90 4 94 0 101 0 L138 0 C145 0 149 4 149 11 L149 322 L306 322 L434 8 Z " />
<glyph glyph-name="L" unicode="L" horiz-adv-x="485" d="M90 11 C90 4 94 0 101 0 L424 0 C431 0 435 4 435 11 L435 43 C435 50 431 54 424 54 L149 54 L149 689 C149 696 145 700 138 700 L101 700 C94 700 90 696 90 689 L90 11 Z " />
<glyph glyph-name="M" unicode="M" horiz-adv-x="761" d="M409 109 C415 109 418 113 421 119 L604 567 L612 567 L612 11 C612 4 616 0 623 0 L660 0 C667 0 671 4 671 11 L671 691 C671 697 668 700 662 700 L605 700 C599 700 595 696 593 691 L384 183 L377 183 L168 691 C166 696 162 700 156 700 L99 700 C93 700 90 697 90 691 L90 11 C90 4 94 0 101 0 L138 0 C145 0 149 4 149 11 L149 567 L157 567 L340 119 C343 113 346 109 352 109 L409 109 Z " />
<glyph glyph-name="N" unicode="N" horiz-adv-x="637" d="M480 93 L181 689 C178 695 173 700 166 700 L101 700 C94 700 90 696 90 689 L90 11 C90 4 94 0 101 0 L138 0 C145 0 149 4 149 11 L149 606 L157 606 L457 11 C460 5 465 0 472 0 L536 0 C543 0 547 4 547 11 L547 689 C547 696 543 700 536 700 L499 700 C492 700 488 696 488 689 L488 93 L480 93 Z " />
<glyph glyph-name="O" unicode="O" horiz-adv-x="585" d="M350 705 L235 705 C150 705 80 638 80 556 L80 144 C80 62 150 -5 235 -5 L350 -5 C435 -5 505 62 505 144 L505 556 C505 638 435 705 350 705 L350 705 Z M446 160 C446 93 405 49 337 49 L248 49 C180 49 139 93 139 160 L139 541 C139 608 180 651 248 651 L337 651 C405 651 446 608 446 541 L446 160 Z " />
<glyph glyph-name="P" unicode="P" horiz-adv-x="577" d="M149 284 L149 646 L341 646 C397 646 448 594 448 535 L448 394 C448 331 397 284 341 284 L149 284 Z M101 700 C94 700 90 696 90 689 L90 11 C90 4 94 0 101 0 L138 0 C145 0 149 4 149 11 L149 230 L350 230 C436 230 507 297 507 380 L507 551 C507 633 436 700 350 700 L101 700 Z " />
<glyph glyph-name="Q" unicode="Q" horiz-adv-x="585" d="M350 705 L235 705 C150 705 80 638 80 556 L80 144 C80 62 150 -5 235 -5 L257 -5 L301 -103 C303 -108 308 -113 314 -113 L359 -113 C366 -113 368 -108 368 -103 L325 -5 L350 -5 C435 -5 505 62 505 144 L505 556 C505 638 435 705 350 705 L350 705 Z M446 161 C446 94 405 49 337 49 L248 49 C180 49 139 94 139 161 L139 541 C139 608 180 651 248 651 L337 651 C405 651 446 608 446 541 L446 161 Z " />
<glyph glyph-name="R" unicode="R" horiz-adv-x="567" d="M507 380 L507 551 C507 633 436 700 350 700 L101 700 C94 700 90 696 90 689 L90 11 C90 4 94 0 101 0 L138 0 C145 0 149 4 149 11 L149 230 L326 230 L427 11 C430 4 433 0 440 0 L481 0 C488 0 492 4 492 11 L387 235 C455 251 507 310 507 380 L507 380 Z M448 394 C448 331 397 284 341 284 L149 284 L149 646 L341 646 C397 646 448 594 448 535 L448 394 Z " />
<glyph glyph-name="S" unicode="S" horiz-adv-x="551" d="M427 159 C427 92 386 49 318 49 L228 49 C160 49 119 92 119 159 L119 171 C119 178 115 182 108 182 L71 182 C64 182 60 178 60 171 L60 143 C60 62 131 -5 216 -5 L331 -5 C416 -5 486 62 486 143 L486 162 C486 451 119 295 119 519 L119 541 C119 608 160 651 228 651 L306 651 C374 651 415 608 415 541 L415 529 C415 522 419 518 426 518 L463 518 C470 518 474 522 474 529 L474 557 C474 638 403 705 318 705 L215 705 C130 705 60 638 60 557 L60 532 C60 235 427 394 427 174 L427 159 Z " />
<glyph glyph-name="T" unicode="T" horiz-adv-x="525" d="M66 700 C59 700 55 696 55 689 L55 657 C55 650 59 646 66 646 L233 646 L233 11 C233 4 237 0 244 0 L281 0 C288 0 292 4 292 11 L292 646 L459 646 C466 646 470 650 470 657 L470 689 C470 696 466 700 459 700 L66 700 Z " />
<glyph glyph-name="U" unicode="U" horiz-adv-x="595" d="M510 689 C510 696 506 700 499 700 L462 700 C455 700 451 696 451 689 L451 160 C451 93 410 49 342 49 L253 49 C185 49 144 93 144 160 L144 689 C144 696 140 700 133 700 L96 700 C89 700 85 696 85 689 L85 144 C85 62 155 -5 240 -5 L355 -5 C440 -5 510 62 510 144 L510 689 Z " />
<glyph glyph-name="V" unicode="V" horiz-adv-x="584" d="M539 689 C539 696 535 700 528 700 L490 700 C483 700 480 696 478 689 L297 69 L287 69 L106 689 C104 696 101 700 94 700 L56 700 C49 700 45 696 45 689 L243 8 C245 3 248 0 254 0 L330 0 C336 0 339 3 341 8 L539 689 Z " />
<glyph glyph-name="W" unicode="W" horiz-adv-x="808" d="M382 700 C376 700 373 696 371 690 L229 56 L106 689 C104 696 101 700 94 700 L56 700 C49 700 45 696 45 689 L177 11 C179 4 182 0 190 0 L268 0 C275 0 278 4 280 11 L404 570 L528 11 C530 4 533 0 540 0 L618 0 C626 0 629 4 631 11 L763 689 C763 696 759 700 752 700 L714 700 C707 700 704 696 702 689 L579 56 L437 690 C435 696 432 700 426 700 L382 700 Z " />
<glyph glyph-name="X" unicode="X" horiz-adv-x="547" d="M302 323 L432 11 C435 4 438 0 445 0 L486 0 C493 0 497 4 497 11 L356 350 L497 689 C497 696 493 700 486 700 L445 700 C438 700 435 696 432 689 L302 377 L245 377 L115 689 C112 696 109 700 102 700 L61 700 C54 700 50 696 50 689 L191 350 L50 11 C50 4 54 0 61 0 L102 0 C109 0 112 4 115 11 L245 323 L302 323 Z " />
<glyph glyph-name="Y" unicode="Y" horiz-adv-x="549" d="M277 303 L272 303 L105 689 C102 696 100 700 93 700 L51 700 C44 700 40 696 40 689 L245 216 L245 11 C245 4 249 0 256 0 L293 0 C300 0 304 4 304 11 L304 216 L509 689 C509 696 505 700 498 700 L456 700 C449 700 447 696 444 689 L277 303 Z " />
<glyph glyph-name="Z" unicode="Z" horiz-adv-x="516" d="M137 54 L449 652 C450 654 451 657 451 659 L451 689 C451 696 447 700 440 700 L76 700 C69 700 65 696 65 689 L65 657 C65 650 69 646 76 646 L380 646 L67 48 C66 46 65 43 65 41 L65 11 C65 4 69 0 76 0 L440 0 C447 0 451 4 451 11 L451 43 C451 50 447 54 440 54 L137 54 Z " />
<glyph glyph-name="bracketleft" unicode="&#x5b;" horiz-adv-x="363" d="M90 -166 C90 -173 94 -177 101 -177 L262 -177 C269 -177 273 -173 273 -166 L273 -134 C273 -127 269 -123 262 -123 L149 -123 L149 751 L262 751 C269 751 273 755 273 762 L273 794 C273 801 269 805 262 805 L101 805 C94 805 90 801 90 794 L90 -166 Z " />
<glyph glyph-name="backslash" unicode="&#x5c;" horiz-adv-x="549" d="M150 795 C148 801 145 804 139 804 L99 804 C93 804 90 801 90 795 L399 -170 C401 -176 404 -179 410 -179 L450 -179 C456 -179 459 -176 459 -170 L150 795 Z " />
<glyph glyph-name="bracketright" unicode="&#x5d;" horiz-adv-x="363" d="M273 794 C273 801 269 805 262 805 L101 805 C94 805 90 801 90 794 L90 762 C90 755 94 751 101 751 L214 751 L214 -123 L101 -123 C94 -123 90 -127 90 -134 L90 -166 C90 -173 94 -177 101 -177 L262 -177 C269 -177 273 -173 273 -166 L273 794 Z " />
<glyph glyph-name="asciicircum" unicode="&#x5e;" horiz-adv-x="384" d="M164 700 C158 700 154 696 151 689 L90 565 C90 560 93 557 98 557 L136 557 C139 557 142 561 144 565 L192 660 L240 565 C242 561 245 557 248 557 L286 557 C291 557 294 560 294 565 L233 689 C230 696 226 700 220 700 L164 700 Z " />
<glyph glyph-name="underscore" unicode="&#x5f;" horiz-adv-x="376" d="M275 -113 C282 -113 286 -109 286 -102 L286 -70 C286 -63 282 -59 275 -59 L101 -59 C94 -59 90 -63 90 -70 L90 -102 C90 -109 94 -113 101 -113 L275 -113 Z " />
<glyph glyph-name="grave" unicode="&#x60;" horiz-adv-x="288" d="M186 574 C194 574 198 578 198 586 L152 688 C148 696 145 700 138 700 L101 700 C94 700 90 696 90 688 L136 586 C140 578 143 574 150 574 L186 574 Z " />
<glyph glyph-name="a" unicode="a" horiz-adv-x="498" d="M214 49 C164 49 129 84 129 133 L129 165 C129 215 164 248 214 248 L364 248 L364 133 C364 84 322 49 273 49 L214 49 Z M131 451 C177 461 204 466 236 466 C362 466 364 379 364 336 L364 302 L211 302 C131 302 70 252 70 166 L70 123 C70 38 131 -5 211 -5 L259 -5 C298 -5 335 7 356 34 L364 34 L364 11 C364 4 368 0 375 0 L412 0 C419 0 423 4 423 11 L423 342 C423 387 418 520 246 520 C176 520 148 512 118 504 C114 502 112 500 112 495 C112 495 111 493 120 457 C122 451 126 451 131 451 L131 451 Z " />
<glyph glyph-name="b" unicode="b" horiz-adv-x="527" d="M149 38 L156 38 C180 5 217 -5 245 -5 L316 -5 C397 -5 457 54 457 133 L457 382 C457 461 397 520 316 520 L245 520 C217 520 180 510 156 477 L149 477 L149 689 C149 696 145 700 138 700 L101 700 C94 700 90 696 90 689 L90 11 C90 4 94 0 101 0 L138 0 C145 0 149 4 149 11 L149 38 Z M257 49 C199 49 151 98 151 148 L151 367 C151 417 199 466 257 466 L305 466 C363 466 398 424 398 374 L398 141 C398 91 363 49 305 49 L257 49 Z " />
<glyph glyph-name="c" unicode="c" horiz-adv-x="482" d="M427 156 C427 163 423 167 416 167 L379 167 C372 167 368 163 368 156 L368 141 C368 94 321 49 274 49 L228 49 C181 49 134 94 134 141 L134 374 C134 424 169 466 227 466 L275 466 C333 466 368 424 368 374 L368 359 C368 352 372 348 379 348 L416 348 C423 348 427 352 427 359 L427 384 C427 450 375 520 294 520 L208 520 C127 520 75 450 75 384 L75 131 C75 65 127 -5 208 -5 L294 -5 C375 -5 427 65 427 131 L427 156 Z " />
<glyph glyph-name="d" unicode="d" horiz-adv-x="527" d="M378 11 C378 4 382 0 389 0 L426 0 C433 0 437 4 437 11 L437 689 C437 696 433 700 426 700 L389 700 C382 700 378 696 378 689 L378 477 L371 477 C347 510 310 520 282 520 L211 520 C130 520 70 461 70 382 L70 133 C70 54 130 -5 211 -5 L282 -5 C310 -5 347 5 371 38 L378 38 L378 11 Z M222 49 C164 49 129 91 129 141 L129 374 C129 424 164 466 222 466 L270 466 C328 466 376 417 376 367 L376 148 C376 98 328 49 270 49 L222 49 Z " />
<glyph glyph-name="e" unicode="e" horiz-adv-x="497" d="M360 73 C343 60 318 49 282 49 L228 49 C181 49 134 94 134 141 L134 229 L416 229 C423 229 427 233 427 240 L427 384 C427 450 375 520 294 520 L208 520 C127 520 75 450 75 384 L75 131 C75 65 127 -5 208 -5 L282 -5 C282 -5 353 -6 400 39 C402 42 403 43 403 45 C403 48 402 49 399 52 L377 76 C374 79 372 79 371 79 C367 79 362 74 360 73 L360 73 Z M134 374 C134 424 169 466 227 466 L275 466 C333 466 368 424 368 374 L368 283 L134 283 L134 374 Z " />
<glyph glyph-name="f" unicode="f" horiz-adv-x="390" d="M282 744 C200 744 147 679 147 606 L147 515 L56 515 C49 515 45 511 45 504 L45 472 C45 465 49 461 56 461 L147 461 L147 11 C147 4 151 0 158 0 L195 0 C202 0 206 4 206 11 L206 461 L323 461 C330 461 334 465 334 472 L334 504 C334 511 330 515 323 515 L207 515 L207 597 C207 645 247 690 293 690 L324 690 C331 690 335 694 335 701 L335 733 C335 740 331 744 324 744 L282 744 Z " />
<glyph glyph-name="g" unicode="g" horiz-adv-x="527" d="M222 49 C164 49 129 91 129 141 L129 374 C129 424 164 466 222 466 L270 466 C328 466 376 417 376 367 L376 148 C376 98 328 49 270 49 L222 49 Z M378 -33 C378 -80 358 -149 249 -149 C195 -149 165 -145 135 -140 C132 -140 128 -140 127 -147 L121 -181 C121 -186 123 -188 128 -190 C159 -198 186 -203 245 -203 C424 -203 437 -80 437 -40 L437 504 C437 511 433 515 426 515 L389 515 C382 515 378 511 378 504 L378 477 L371 477 C347 510 310 520 282 520 L211 520 C130 520 70 461 70 382 L70 133 C70 54 130 -5 211 -5 L282 -5 C310 -5 347 5 371 38 L378 38 L378 -33 Z " />
<glyph glyph-name="h" unicode="h" horiz-adv-x="534" d="M90 11 C90 4 94 0 101 0 L138 0 C145 0 149 4 149 11 L149 366 C198 465 257 466 292 466 L300 466 C351 466 395 424 395 356 L395 11 C395 4 399 0 406 0 L443 0 C450 0 454 4 454 11 L454 368 C454 458 394 520 301 520 L273 520 C253 520 190 519 156 455 L149 455 L149 689 C149 696 145 700 138 700 L101 700 C94 700 90 696 90 689 L90 11 Z " />
<glyph glyph-name="i" unicode="i" horiz-adv-x="257" d="M101 11 C101 4 105 0 112 0 L149 0 C156 0 160 4 160 11 L160 504 C160 511 156 515 149 515 L112 515 C105 515 101 511 101 504 L101 11 Z M98 589 C98 582 102 578 109 578 L152 578 C159 578 163 582 163 589 L163 657 C163 664 159 668 152 668 L109 668 C102 668 98 664 98 657 L98 589 Z " />
<glyph glyph-name="j" unicode="j" horiz-adv-x="257" d="M100 589 C100 582 104 578 111 578 L154 578 C161 578 165 582 165 589 L165 657 C165 664 161 668 154 668 L111 668 C104 668 100 664 100 657 L100 589 Z M11 -124 C7 -126 6 -129 6 -136 L22 -176 C24 -180 28 -182 31 -182 C32 -182 34 -182 36 -181 C81 -161 162 -107 162 -2 L162 504 C162 511 158 515 151 515 L114 515 C107 515 103 511 103 504 L103 3 C103 3 99 -76 11 -124 L11 -124 Z " />
<glyph glyph-name="k" unicode="k" horiz-adv-x="491" d="M386 8 C388 4 392 0 397 0 L443 0 C448 0 451 3 451 8 L345 274 L449 507 C449 512 446 515 441 515 L396 515 C391 515 387 511 385 507 L291 300 L149 300 L149 689 C149 696 145 700 138 700 L101 700 C94 700 90 696 90 689 L90 11 C90 4 94 0 101 0 L138 0 C145 0 149 4 149 11 L149 246 L292 246 L386 8 Z " />
<glyph glyph-name="l" unicode="l" horiz-adv-x="239" d="M149 689 C149 692 148 695 146 697 C144 699 142 700 138 700 L101 700 C97 700 95 699 93 697 C91 695 90 692 90 689 L90 11 C90 8 91 5 93 3 C95 1 97 0 101 0 L138 0 C142 0 144 1 146 3 C148 5 149 8 149 11 L149 689 Z " />
<glyph glyph-name="m" unicode="m" horiz-adv-x="741" d="M602 11 C602 4 606 0 613 0 L650 0 C657 0 661 4 661 11 L661 381 C661 461 614 520 518 520 C497 520 436 520 392 442 L385 442 C355 499 318 520 272 520 C237 520 194 520 156 455 L149 455 L149 504 C149 511 145 515 138 515 L101 515 C94 515 90 511 90 504 L90 11 C90 4 94 0 101 0 L138 0 C145 0 149 4 149 11 L149 359 C176 424 214 466 259 466 C325 466 346 426 346 359 L346 11 C346 4 350 0 357 0 L394 0 C401 0 405 4 405 11 L405 359 C432 424 470 466 515 466 C581 466 602 426 602 359 L602 11 Z " />
<glyph glyph-name="n" unicode="n" horiz-adv-x="534" d="M90 11 C90 4 94 0 101 0 L138 0 C145 0 149 4 149 11 L149 366 C198 465 257 466 292 466 L300 466 C351 466 395 424 395 356 L395 11 C395 4 399 0 406 0 L443 0 C450 0 454 4 454 11 L454 368 C454 458 394 520 301 520 L273 520 C253 520 190 519 156 455 L149 455 L149 504 C149 511 145 515 138 515 L101 515 C94 515 90 511 90 504 L90 11 Z " />
<glyph glyph-name="o" unicode="o" horiz-adv-x="502" d="M208 520 C127 520 75 450 75 384 L75 131 C75 65 127 -5 208 -5 L294 -5 C375 -5 427 65 427 131 L427 384 C427 450 375 520 294 520 L208 520 Z M227 49 C169 49 134 91 134 141 L134 374 C134 424 169 466 227 466 L275 466 C333 466 368 424 368 374 L368 141 C368 91 333 49 275 49 L227 49 Z " />
<glyph glyph-name="p" unicode="p" horiz-adv-x="527" d="M149 38 L156 38 C180 5 217 -5 245 -5 L316 -5 C397 -5 457 54 457 133 L457 382 C457 461 397 520 316 520 L245 520 C217 520 180 510 156 477 L149 477 L149 504 C149 511 145 515 138 515 L101 515 C94 515 90 511 90 504 L90 -163 C90 -170 94 -174 101 -174 L138 -174 C145 -174 149 -170 149 -163 L149 38 Z M257 49 C199 49 151 98 151 148 L151 367 C151 417 199 466 257 466 L305 466 C363 466 398 424 398 374 L398 141 C398 91 363 49 305 49 L257 49 Z " />
<glyph glyph-name="q" unicode="q" horiz-adv-x="527" d="M378 -163 C378 -170 382 -174 389 -174 L426 -174 C433 -174 437 -170 437 -163 L437 504 C437 511 433 515 426 515 L389 515 C382 515 378 511 378 504 L378 477 L371 477 C347 510 310 520 282 520 L211 520 C130 520 70 461 70 382 L70 133 C70 54 130 -5 211 -5 L282 -5 C310 -5 347 5 371 38 L378 38 L378 -163 Z M222 49 C164 49 129 91 129 141 L129 374 C129 424 164 466 222 466 L270 466 C328 466 376 417 376 367 L376 148 C376 98 328 49 270 49 L222 49 Z " />
<glyph glyph-name="r" unicode="r" horiz-adv-x="379" d="M328 517 C313 518 305 520 277 520 C254 520 190 512 156 448 L149 448 L149 504 C149 511 145 515 138 515 L101 515 C94 515 90 511 90 504 L90 11 C90 4 94 0 101 0 L138 0 C145 0 149 4 149 11 L149 359 C198 458 260 466 285 466 C302 466 315 464 326 463 C333 463 337 467 337 474 L339 506 C339 513 335 517 328 517 L328 517 Z " />
<glyph glyph-name="s" unicode="s" horiz-adv-x="483" d="M201 520 C119 520 67 464 67 396 L67 389 C67 191 363 270 363 141 L363 131 C363 75 316 49 269 49 L218 49 C170 49 124 94 124 141 L124 154 C124 161 120 165 113 165 L76 165 C69 165 65 161 65 154 L65 131 C65 65 120 -5 201 -5 L288 -5 C372 -5 423 51 423 119 L423 133 C423 334 126 250 126 379 L126 389 C126 445 173 466 221 466 L264 466 C312 466 358 421 358 374 L358 361 C358 354 362 350 369 350 L406 350 C413 350 417 354 417 361 L417 384 C417 450 362 520 281 520 L201 520 Z " />
<glyph glyph-name="t" unicode="t" horiz-adv-x="384" d="M323 0 C330 0 334 4 334 11 L334 43 C334 50 330 54 323 54 L301 54 C256 54 206 96 206 144 L206 461 L323 461 C330 461 334 465 334 472 L334 504 C334 511 330 515 323 515 L206 515 L206 689 C206 696 202 700 195 700 L158 700 C151 700 147 696 147 689 L147 515 L56 515 C49 515 45 511 45 504 L45 472 C45 465 49 461 56 461 L147 461 L147 144 C147 71 199 0 281 0 L323 0 Z " />
<glyph glyph-name="u" unicode="u" horiz-adv-x="512" d="M432 504 C432 511 428 515 421 515 L384 515 C377 515 373 511 373 504 L373 141 C373 94 326 49 279 49 L233 49 C186 49 139 94 139 141 L139 504 C139 511 135 515 128 515 L91 515 C84 515 80 511 80 504 L80 131 C80 65 132 -5 213 -5 L299 -5 C380 -5 432 65 432 131 L432 504 Z " />
<glyph glyph-name="v" unicode="v" horiz-adv-x="469" d="M275 0 C282 0 285 3 287 9 L434 504 C434 511 430 515 423 515 L385 515 C378 515 375 511 373 504 L240 58 L229 58 L96 504 C94 511 91 515 84 515 L46 515 C39 515 35 511 35 504 L182 9 C184 3 187 0 194 0 L275 0 Z " />
<glyph glyph-name="w" unicode="w" horiz-adv-x="678" d="M336 431 L445 10 C447 4 449 0 456 0 L516 0 C523 0 525 4 527 10 L643 504 C643 511 639 515 632 515 L594 515 C587 515 584 511 582 504 L486 90 L385 505 C384 511 380 515 374 515 L304 515 C298 515 294 511 293 505 L192 90 L96 504 C94 511 91 515 84 515 L46 515 C39 515 35 511 35 504 L151 10 C153 4 155 0 162 0 L222 0 C229 0 231 4 233 10 L336 431 Z " />
<glyph glyph-name="x" unicode="x" horiz-adv-x="449" d="M346 11 C349 4 352 0 359 0 L398 0 C405 0 409 4 409 11 L311 258 L407 504 C407 511 403 515 396 515 L358 515 C351 515 348 511 345 504 L259 286 L190 286 L104 504 C101 511 98 515 91 515 L53 515 C46 515 42 511 42 504 L138 258 L40 11 C40 4 44 0 51 0 L90 0 C97 0 100 4 103 11 L189 232 L260 232 L346 11 Z " />
<glyph glyph-name="y" unicode="y" horiz-adv-x="469" d="M197 -40 C189 -95 157 -149 88 -149 L65 -149 C58 -149 54 -153 54 -160 L54 -192 C54 -199 58 -203 65 -203 L105 -203 C146 -203 224 -199 280 -11 L434 504 C434 511 430 515 423 515 L385 515 C378 515 375 511 373 504 L240 58 L229 58 L96 504 C94 511 91 515 84 515 L46 515 C39 515 35 511 35 504 L197 -40 Z " />
<glyph glyph-name="z" unicode="z" horiz-adv-x="445" d="M132 54 L383 460 C384 462 385 465 385 467 L385 504 C385 511 381 515 374 515 L71 515 C64 515 60 511 60 504 L60 472 C60 465 64 461 71 461 L314 461 L62 54 C61 52 60 49 60 47 L60 11 C60 4 64 0 71 0 L374 0 C381 0 385 4 385 11 L385 43 C385 50 381 54 374 54 L132 54 Z " />
<glyph glyph-name="braceleft" unicode="&#x7b;" horiz-adv-x="482" d="M216 313 C255 353 282 402 282 440 L282 640 C282 698 328 748 381 751 C388 751 392 755 392 762 L392 794 C392 801 388 805 381 805 L376 805 C292 805 223 738 223 656 L223 449 C223 385 170 340 116 340 L101 340 C94 340 90 336 90 329 L90 298 C90 291 94 287 101 287 L116 287 C170 287 223 242 223 178 L223 -29 C223 -111 292 -178 376 -178 L381 -178 C388 -178 392 -174 392 -167 L392 -135 C392 -128 388 -124 381 -124 C328 -121 282 -71 282 -13 L282 187 C282 225 255 273 216 313 L216 313 Z " />
<glyph glyph-name="bar" unicode="&#x7c;" horiz-adv-x="239" d="M90 -167 C90 -174 94 -178 101 -178 L138 -178 C145 -178 149 -174 149 -167 L149 794 C149 801 145 805 138 805 L101 805 C94 805 90 801 90 794 L90 -167 Z " />
<glyph glyph-name="braceright" unicode="&#x7d;" horiz-adv-x="482" d="M266 313 C227 273 200 225 200 187 L200 -13 C200 -71 154 -121 101 -124 C94 -124 90 -128 90 -135 L90 -167 C90 -174 94 -178 101 -178 L106 -178 C190 -178 259 -111 259 -29 L259 178 C259 242 312 287 366 287 L381 287 C388 287 392 291 392 298 L392 329 C392 336 388 340 381 340 L366 340 C312 340 259 385 259 449 L259 656 C259 738 190 805 106 805 L101 805 C94 805 90 801 90 794 L90 762 C90 755 94 751 101 751 C154 748 200 698 200 640 L200 440 C200 402 227 353 266 313 L266 313 Z " />
<glyph glyph-name="asciitilde" unicode="&#x7e;" horiz-adv-x="408" d="M270 178 C280 178 296 184 312 191 C316 193 318 197 318 201 L309 232 C308 236 305 238 301 238 C290 238 281 232 266 232 C207 232 194 272 138 272 C128 272 112 266 96 259 C92 257 90 253 90 249 L99 218 C100 214 103 212 107 212 C118 212 127 218 142 218 C199 218 214 178 270 178 L270 178 Z " />
<glyph glyph-name="uni00A0" unicode="&#xa0;" horiz-adv-x="198" d="" />
<glyph glyph-name="exclamdown" unicode="&#xa1;" horiz-adv-x="239" d="M90 11 C90 4 94 0 101 0 L138 0 C145 0 149 4 149 11 L149 433 L144 528 C144 535 140 539 133 539 L106 539 C99 539 95 535 95 528 L90 433 L90 11 Z M90 629 C90 622 94 618 101 618 L138 618 C145 618 149 622 149 629 L149 689 C149 696 145 700 138 700 L101 700 C94 700 90 696 90 689 L90 629 Z " />
<glyph glyph-name="cent" unicode="&#xa2;" horiz-adv-x="605" d="M267 -126 C267 -133 271 -137 278 -137 L315 -137 C322 -137 326 -133 326 -126 L326 -5 L360 -5 C445 -5 515 62 515 144 L515 196 C515 203 511 207 504 207 L467 207 C460 207 456 203 456 196 L456 160 C456 93 415 49 347 49 L258 49 C190 49 149 93 149 160 L149 541 C149 608 190 651 258 651 L347 651 C415 651 456 608 456 541 L456 504 C456 497 460 493 467 493 L504 493 C511 493 515 497 515 504 L515 556 C515 638 445 705 360 705 L326 705 L326 821 C326 828 322 832 315 832 L278 832 C271 832 267 828 267 821 L267 705 L245 705 C160 705 90 638 90 556 L90 144 C90 62 160 -5 245 -5 L267 -5 L267 -126 Z " />
<glyph glyph-name="sterling" unicode="&#xa3;" horiz-adv-x="623" d="M240 554 C240 604 275 646 333 646 L381 646 C439 646 474 604 474 554 L474 539 C474 532 478 528 485 528 L522 528 C529 528 533 532 533 539 L533 564 C533 630 481 700 400 700 L314 700 C233 700 181 630 181 564 L181 364 L101 364 C94 364 90 360 90 353 L90 321 C90 314 94 310 101 310 L181 310 L181 54 L101 54 C94 54 90 50 90 43 L90 11 C90 4 94 0 101 0 L515 0 C522 0 526 4 526 11 L526 43 C526 50 522 54 515 54 L240 54 L240 310 L339 310 C346 310 350 314 350 321 L350 353 C350 360 346 364 339 364 L240 364 L240 554 Z " />
<glyph glyph-name="currency" unicode="&#xa4;" horiz-adv-x="490" d="M383 154 L383 235 C383 252 377 276 364 298 L400 378 C400 384 395 389 389 389 L349 389 C342 389 340 386 337 380 L315 333 C306 337 296 337 285 338 L205 338 C194 337 184 337 175 333 L153 380 C150 386 148 389 141 389 L101 389 C95 389 90 384 90 378 L126 298 C113 276 107 252 107 235 L107 154 C107 137 113 113 126 91 L90 11 C90 5 95 0 101 0 L141 0 C148 0 150 3 153 9 L175 56 C184 52 194 52 205 51 L285 51 C296 52 306 52 315 56 L337 9 C340 3 342 0 349 0 L389 0 C395 0 400 5 400 11 L364 91 C377 113 383 137 383 154 L383 154 Z M166 231 C166 268 181 285 221 285 L269 285 C309 285 324 268 324 231 L324 158 C324 121 309 104 269 104 L221 104 C181 104 166 121 166 158 L166 231 Z " />
<glyph glyph-name="yen" unicode="&#xa5;" horiz-adv-x="649" d="M465 86 C472 86 476 90 476 97 L476 129 C476 136 472 140 465 140 L354 140 L354 216 L381 280 L465 280 C472 280 476 284 476 291 L476 323 C476 330 472 334 465 334 L405 334 L559 689 C559 696 555 700 548 700 L506 700 C499 700 497 696 494 689 L327 303 L322 303 L155 689 C152 696 150 700 143 700 L101 700 C94 700 90 696 90 689 L244 334 L184 334 C177 334 173 330 173 323 L173 291 C173 284 177 280 184 280 L267 280 L295 216 L295 140 L184 140 C177 140 173 136 173 129 L173 97 C173 90 177 86 184 86 L295 86 L295 11 C295 4 299 0 306 0 L343 0 C350 0 354 4 354 11 L354 86 L465 86 Z " />
<glyph glyph-name="brokenbar" unicode="&#xa6;" horiz-adv-x="239" d="M90 403 C90 396 94 392 101 392 L138 392 C145 392 149 396 149 403 L149 794 C149 801 145 805 138 805 L101 805 C94 805 90 801 90 794 L90 403 Z M90 -167 C90 -174 94 -178 101 -178 L138 -178 C145 -178 149 -174 149 -167 L149 224 C149 231 145 235 138 235 L101 235 C94 235 90 231 90 224 L90 -167 Z " />
<glyph glyph-name="section" unicode="&#xa7;" horiz-adv-x="538" d="M448 299 L448 313 C448 514 151 430 151 559 L151 569 C151 625 198 646 246 646 L289 646 C337 646 383 601 383 554 L383 541 C383 534 387 530 394 530 L431 530 C438 530 442 534 442 541 L442 564 C442 630 387 700 306 700 L226 700 C144 700 92 644 92 576 L92 569 C92 519 113 487 143 465 C111 442 92 406 92 365 L92 358 C92 160 388 239 388 110 L388 100 C388 44 341 18 294 18 L243 18 C195 18 149 63 149 110 L149 123 C149 130 145 134 138 134 L101 134 C94 134 90 130 90 123 L90 100 C90 34 145 -36 226 -36 L313 -36 C397 -36 448 20 448 88 L448 102 C448 149 430 181 402 203 C432 226 448 261 448 299 L448 299 Z M388 311 C388 283 377 262 359 249 C353 245 341 241 331 241 C326 241 322 242 318 243 C226 270 151 274 151 348 L151 358 C151 389 166 409 187 421 C193 425 205 428 215 428 C220 428 224 427 228 426 C319 400 388 393 388 321 L388 311 Z " />
<glyph glyph-name="dieresis" unicode="&#xa8;" horiz-adv-x="382" d="M90 640 C90 633 94 629 101 629 L147 629 C154 629 158 633 158 640 L158 689 C158 696 154 700 147 700 L101 700 C94 700 90 696 90 689 L90 640 Z M224 640 C224 633 228 629 235 629 L281 629 C288 629 292 633 292 640 L292 689 C292 696 288 700 281 700 L235 700 C228 700 224 696 224 689 L224 640 Z " />
<glyph glyph-name="copyright" unicode="&#xa9;" horiz-adv-x="892" d="M533 256 C533 228 506 203 477 203 L411 203 C383 203 355 229 355 257 L355 436 C355 465 383 490 411 490 L477 490 C506 490 533 465 533 436 L533 415 C533 409 536 406 542 406 L581 406 C587 406 590 409 590 415 L590 434 C590 488 549 541 485 541 L402 541 C337 541 298 488 298 434 L298 258 C298 206 337 152 402 152 L485 152 C549 152 590 206 590 259 L590 278 C590 284 587 287 581 287 L542 287 C536 287 533 284 533 278 L533 256 Z M446 699 C251 699 90 539 90 344 C90 148 251 -11 446 -11 C641 -11 802 148 802 344 C802 539 641 699 446 699 L446 699 Z M446 651 C617 651 750 515 750 344 C750 173 617 38 446 38 C275 38 142 173 142 344 C142 515 275 651 446 651 L446 651 Z " />
<glyph glyph-name="ordfeminine" unicode="&#xaa;" horiz-adv-x="404" d="M140 498 C140 526 156 536 179 536 L264 536 L264 493 C264 466 240 460 215 460 L186 460 C164 460 140 466 140 493 L140 498 Z M126 647 C147 651 165 654 186 654 C246 654 264 626 264 602 L264 582 L170 582 C125 582 90 554 90 509 L90 487 C90 444 125 414 170 414 L215 414 C224 414 244 420 258 437 L263 437 L263 424 C263 421 266 418 269 418 L308 418 C311 418 314 421 314 424 L314 602 C314 627 297 700 197 700 C159 700 133 696 117 692 C115 691 113 690 113 687 L119 651 C120 647 123 647 126 647 L126 647 Z " />
<glyph glyph-name="guillemotleft" unicode="&#xab;" horiz-adv-x="681" d="M163 248 L163 267 L288 479 C288 485 284 489 278 489 L233 489 C227 489 223 484 220 479 L90 261 L90 254 L220 10 C223 5 227 0 233 0 L278 0 C284 0 288 4 288 10 L163 248 Z M466 248 L466 267 L591 479 C591 485 587 489 581 489 L536 489 C530 489 526 484 523 479 L393 261 L393 254 L523 10 C526 5 530 0 536 0 L581 0 C587 0 591 4 591 10 L466 248 Z " />
<glyph glyph-name="logicalnot" unicode="&#xac;" horiz-adv-x="525" d="M435 264 C435 271 431 275 424 275 L101 275 C94 275 90 271 90 264 L90 232 C90 225 94 221 101 221 L376 221 L376 78 C376 71 380 67 387 67 L424 67 C431 67 435 71 435 78 L435 264 Z " />
<glyph glyph-name="uni00AD" unicode="&#xad;" horiz-adv-x="198" d="" />
<glyph glyph-name="registered" unicode="&#xae;" horiz-adv-x="892" d="M446 699 C251 699 90 539 90 344 C90 148 251 -11 446 -11 C641 -11 802 148 802 344 C802 539 641 699 446 699 L446 699 Z M446 651 C617 651 750 515 750 344 C750 173 617 38 446 38 C275 38 142 173 142 344 C142 515 275 651 446 651 L446 651 Z M371 335 L371 486 L472 486 C501 486 527 458 527 427 L527 392 C527 358 498 335 469 335 L371 335 Z M524 290 C559 307 584 346 584 387 L584 428 C584 490 547 541 472 541 L323 541 C317 541 314 538 314 532 L314 161 C314 155 317 152 323 152 L362 152 C368 152 371 155 371 161 L371 279 L472 279 L528 161 C531 156 534 152 540 152 L576 152 C582 152 585 155 585 161 L524 290 Z " />
<glyph glyph-name="macron" unicode="&#xaf;" horiz-adv-x="376" d="M275 646 C282 646 286 650 286 657 L286 689 C286 696 282 700 275 700 L101 700 C94 700 90 696 90 689 L90 657 C90 650 94 646 101 646 L275 646 Z " />
<glyph glyph-name="degree" unicode="&#xb0;" horiz-adv-x="410" d="M320 636 C320 700 269 751 205 751 C141 751 90 700 90 636 C90 572 141 521 205 521 C269 521 320 572 320 636 L320 636 Z M272 636 C272 597 243 569 205 569 C168 569 139 597 139 636 C139 675 168 703 205 703 C243 703 272 675 272 636 L272 636 Z " />
<glyph glyph-name="plusminus" unicode="&#xb1;" horiz-adv-x="427" d="M326 305 C333 305 337 309 337 316 L337 348 C337 355 333 359 326 359 L243 359 L243 479 C243 486 239 490 232 490 L195 490 C188 490 184 486 184 479 L184 359 L101 359 C94 359 90 355 90 348 L90 316 C90 309 94 305 101 305 L184 305 L184 182 C184 175 188 171 195 171 L232 171 C239 171 243 175 243 182 L243 305 L326 305 Z M101 54 C94 54 90 50 90 43 L90 11 C90 4 94 0 101 0 L326 0 C333 0 337 4 337 11 L337 43 C337 50 333 54 326 54 L101 54 Z " />
<glyph glyph-name="twosuperior" unicode="&#xb2;" horiz-adv-x="370" d="M96 616 C96 613 99 610 102 610 L141 610 C144 610 147 613 147 616 C147 642 154 654 183 654 L190 654 C220 654 224 640 224 621 L224 615 C224 534 90 590 90 467 L90 423 C90 420 93 417 96 417 L274 417 C277 417 280 420 280 423 L280 457 C280 460 277 463 274 463 L145 463 C145 548 275 492 275 612 L275 627 C275 661 248 700 214 700 L156 700 C123 700 96 674 96 641 L96 616 Z " />
<glyph glyph-name="threesuperior" unicode="&#xb3;" horiz-adv-x="359" d="M218 497 C218 478 214 464 184 464 L177 464 C148 464 141 476 141 502 C141 505 138 508 135 508 L96 508 C93 508 90 505 90 502 L90 477 C90 444 117 418 150 418 L208 418 C242 418 269 457 269 491 L269 502 C269 529 264 545 233 558 C262 576 269 589 269 616 L269 627 C269 661 242 700 208 700 L150 700 C117 700 90 674 90 641 L90 616 C90 613 93 610 96 610 L135 610 C138 610 141 613 141 616 C141 642 148 654 177 654 L184 654 C214 654 218 640 218 621 L218 612 C218 590 206 581 178 581 L164 581 C161 581 158 578 158 575 L158 541 C158 538 161 535 164 535 L178 535 C206 535 218 525 218 503 L218 497 Z " />
<glyph glyph-name="acute" unicode="&#xb4;" horiz-adv-x="288" d="M138 574 C145 574 148 578 152 586 L198 688 C198 696 194 700 187 700 L150 700 C143 700 140 696 136 688 L90 586 C90 578 94 574 102 574 L138 574 Z " />
<glyph glyph-name="mu" unicode="&#xb5;" horiz-adv-x="532" d="M90 -163 C90 -170 94 -174 101 -174 L138 -174 C145 -174 149 -170 149 -163 L149 23 C169 9 194 -5 223 -5 L309 -5 C390 -5 442 65 442 131 L442 504 C442 511 438 515 431 515 L394 515 C387 515 383 511 383 504 L383 141 C383 94 336 49 289 49 L243 49 C196 49 149 94 149 141 L149 504 C149 511 145 515 138 515 L101 515 C94 515 90 511 90 504 L90 -163 Z " />
<glyph glyph-name="paragraph" unicode="&#xb6;" horiz-adv-x="709" d="M248 700 C161 700 90 633 90 551 L90 427 C90 345 161 278 248 278 L352 278 L352 11 C352 4 356 0 363 0 L400 0 C407 0 411 4 411 11 L411 646 L560 646 L560 11 C560 4 564 0 571 0 L608 0 C615 0 619 4 619 11 L619 689 C619 696 615 700 608 700 L248 700 Z " />
<glyph glyph-name="periodcentered" unicode="&#xb7;" horiz-adv-x="248" d="M90 194 C90 187 94 183 101 183 L147 183 C154 183 158 187 158 194 L158 243 C158 250 154 254 147 254 L101 254 C94 254 90 250 90 243 L90 194 Z " />
<glyph glyph-name="cedilla" unicode="&#xb8;" horiz-adv-x="312" d="M97 -63 C95 -67 95 -73 95 -73 L95 -96 C95 -100 98 -103 102 -103 L151 -103 C151 -103 186 -103 186 -133 C186 -161 151 -161 151 -161 L97 -161 C93 -161 90 -163 90 -168 L90 -188 C90 -192 93 -195 97 -195 L162 -195 C202 -195 222 -179 222 -127 C222 -88 188 -69 148 -69 L136 -69 L167 -6 C167 0 165 1 161 1 L136 1 C132 1 130 -1 128 -4 L97 -63 Z " />
<glyph glyph-name="onesuperior" unicode="&#xb9;" horiz-adv-x="370" d="M221 694 C221 697 218 700 215 700 L166 700 L96 678 C93 677 90 674 90 671 L90 635 C90 632 93 629 96 629 L170 652 L170 464 L107 464 C104 464 101 461 101 458 L101 424 C101 421 104 418 107 418 L274 418 C277 418 280 421 280 424 L280 458 C280 461 277 464 274 464 L221 464 L221 694 Z " />
<glyph glyph-name="ordmasculine" unicode="&#xba;" horiz-adv-x="410" d="M320 636 C320 700 269 751 205 751 C141 751 90 700 90 636 C90 572 141 521 205 521 C269 521 320 572 320 636 L320 636 Z M272 636 C272 597 243 569 205 569 C168 569 139 597 139 636 C139 675 168 703 205 703 C243 703 272 675 272 636 L272 636 Z " />
<glyph glyph-name="guillemotright" unicode="&#xbb;" horiz-adv-x="681" d="M393 10 C393 4 397 0 403 0 L448 0 C454 0 458 5 461 10 L591 254 L591 261 L461 479 C458 484 454 489 448 489 L403 489 C397 489 393 485 393 479 L518 267 L518 248 L393 10 Z M90 10 C90 4 94 0 100 0 L145 0 C151 0 155 5 158 10 L288 254 L288 261 L158 479 C155 484 151 489 145 489 L100 489 C94 489 90 485 90 479 L215 267 L215 248 L90 10 Z " />
<glyph glyph-name="onequarter" unicode="&#xbc;" horiz-adv-x="771" d="M603 698 C602 699 600 700 598 700 L549 700 C545 700 542 697 539 691 L188 2 C189 1 191 0 193 0 L242 0 C246 0 249 3 252 8 L603 698 Z M221 694 C221 697 218 700 215 700 L166 700 L96 678 C93 677 90 674 90 671 L90 635 C90 632 93 629 96 629 L170 652 L170 464 L107 464 C104 464 101 461 101 458 L101 424 C101 421 104 418 107 418 L274 418 C277 418 280 421 280 424 L280 458 C280 461 277 464 274 464 L221 464 L221 694 Z M444 77 L444 45 C444 42 447 39 450 39 L598 39 L598 6 C598 3 601 0 604 0 L643 0 C646 0 649 3 649 6 L649 39 L675 39 C678 39 681 42 681 45 L681 79 C681 82 678 85 675 85 L649 85 L649 164 C649 167 646 170 643 170 L604 170 C601 170 598 167 598 164 L598 85 L502 85 L583 276 C583 280 580 283 576 283 L538 283 C535 283 531 280 529 276 L444 77 Z " />
<glyph glyph-name="onehalf" unicode="&#xbd;" horiz-adv-x="746" d="M600 698 C599 699 597 700 595 700 L546 700 C542 700 539 697 536 691 L185 2 C186 1 188 0 190 0 L239 0 C243 0 246 3 249 8 L600 698 Z M221 694 C221 697 218 700 215 700 L166 700 L96 678 C93 677 90 674 90 671 L90 635 C90 632 93 629 96 629 L170 652 L170 464 L107 464 C104 464 101 461 101 458 L101 424 C101 421 104 418 107 418 L274 418 C277 418 280 421 280 424 L280 458 C280 461 277 464 274 464 L221 464 L221 694 Z M472 199 C472 196 475 193 478 193 L517 193 C520 193 523 196 523 199 C523 225 530 237 559 237 L566 237 C596 237 600 223 600 204 L600 198 C600 117 466 173 466 50 L466 6 C466 3 469 0 472 0 L650 0 C653 0 656 3 656 6 L656 40 C656 43 653 46 650 46 L521 46 C521 131 651 75 651 195 L651 210 C651 244 624 283 590 283 L532 283 C499 283 472 257 472 224 L472 199 Z " />
<glyph glyph-name="threequarters" unicode="&#xbe;" horiz-adv-x="734" d="M573 698 C572 699 570 700 568 700 L519 700 C515 700 512 697 509 691 L158 2 C159 1 161 0 163 0 L212 0 C216 0 219 3 222 8 L573 698 Z M407 77 L407 45 C407 42 410 39 413 39 L561 39 L561 6 C561 3 564 0 567 0 L606 0 C609 0 612 3 612 6 L612 39 L638 39 C641 39 644 42 644 45 L644 79 C644 82 641 85 638 85 L612 85 L612 164 C612 167 609 170 606 170 L567 170 C564 170 561 167 561 164 L561 85 L465 85 L546 276 C546 280 543 283 539 283 L501 283 C498 283 494 280 492 276 L407 77 Z M218 497 C218 478 214 464 184 464 L177 464 C148 464 141 476 141 502 C141 505 138 508 135 508 L96 508 C93 508 90 505 90 502 L90 477 C90 444 117 418 150 418 L208 418 C242 418 269 457 269 491 L269 502 C269 529 264 545 233 558 C262 576 269 589 269 616 L269 627 C269 661 242 700 208 700 L150 700 C117 700 90 674 90 641 L90 616 C90 613 93 610 96 610 L135 610 C138 610 141 613 141 616 C141 642 148 654 177 654 L184 654 C214 654 218 640 218 621 L218 612 C218 590 206 581 178 581 L164 581 C161 581 158 578 158 575 L158 541 C158 538 161 535 164 535 L178 535 C206 535 218 525 218 503 L218 497 Z " />
<glyph glyph-name="questiondown" unicode="&#xbf;" horiz-adv-x="594" d="M351 533 C351 540 347 544 340 544 L303 544 C296 544 292 540 292 533 L292 521 C292 301 90 462 90 195 L90 148 C90 67 160 0 245 0 L348 0 C433 0 504 67 504 148 L504 196 C504 203 500 207 493 207 L456 207 C449 207 445 203 445 196 L445 164 C445 97 404 54 336 54 L258 54 C190 54 149 97 149 164 L149 195 C149 421 351 254 351 516 L351 533 Z M351 694 C351 701 347 705 340 705 L303 705 C296 705 292 701 292 694 L292 634 C292 627 296 623 303 623 L340 623 C347 623 351 627 351 634 L351 694 Z " />
<glyph glyph-name="Agrave" unicode="&#xc0;" horiz-adv-x="584" d="M305 751 C313 751 317 755 317 763 L271 865 C267 873 264 877 257 877 L220 877 C213 877 209 873 209 865 L255 763 C259 755 262 751 269 751 L305 751 Z M341 692 C339 697 336 700 330 700 L254 700 C248 700 245 697 243 692 L45 11 C45 4 49 0 56 0 L94 0 C101 0 104 4 106 11 L143 138 L441 138 L478 11 C480 4 483 0 490 0 L528 0 C535 0 539 4 539 11 L341 692 Z M287 631 L297 631 L425 191 L158 191 L287 631 Z " />
<glyph glyph-name="Aacute" unicode="&#xc1;" horiz-adv-x="584" d="M313 751 C320 751 323 755 327 763 L373 865 C373 873 369 877 362 877 L325 877 C318 877 315 873 311 865 L265 763 C265 755 269 751 277 751 L313 751 Z M341 692 C339 697 336 700 330 700 L254 700 C248 700 245 697 243 692 L45 11 C45 4 49 0 56 0 L94 0 C101 0 104 4 106 11 L143 138 L441 138 L478 11 C480 4 483 0 490 0 L528 0 C535 0 539 4 539 11 L341 692 Z M287 631 L297 631 L425 191 L158 191 L287 631 Z " />
<glyph glyph-name="Acircumflex" unicode="&#xc2;" horiz-adv-x="584" d="M263 894 C257 894 253 890 250 883 L189 759 C189 754 192 751 197 751 L235 751 C238 751 241 755 243 759 L291 854 L339 759 C341 755 344 751 347 751 L385 751 C390 751 393 754 393 759 L332 883 C329 890 325 894 319 894 L263 894 Z M341 692 C339 697 336 700 330 700 L254 700 C248 700 245 697 243 692 L45 11 C45 4 49 0 56 0 L94 0 C101 0 104 4 106 11 L143 138 L441 138 L478 11 C480 4 483 0 490 0 L528 0 C535 0 539 4 539 11 L341 692 Z M287 631 L297 631 L425 191 L158 191 L287 631 Z " />
<glyph glyph-name="Atilde" unicode="&#xc3;" horiz-adv-x="584" d="M341 692 C339 697 336 700 330 700 L254 700 C248 700 245 697 243 692 L45 11 C45 4 49 0 56 0 L94 0 C101 0 104 4 106 11 L143 138 L441 138 L478 11 C480 4 483 0 490 0 L528 0 C535 0 539 4 539 11 L341 692 Z M287 631 L297 631 L425 191 L158 191 L287 631 Z M357 751 C367 751 383 757 399 764 C403 766 405 770 405 774 L396 805 C395 809 392 811 388 811 C377 811 368 805 353 805 C294 805 281 845 225 845 C215 845 199 839 183 832 C179 830 177 826 177 822 L186 791 C187 787 190 785 194 785 C205 785 214 791 229 791 C286 791 301 751 357 751 L357 751 Z " />
<glyph glyph-name="Adieresis" unicode="&#xc4;" horiz-adv-x="584" d="M190 762 C190 755 194 751 201 751 L247 751 C254 751 258 755 258 762 L258 811 C258 818 254 822 247 822 L201 822 C194 822 190 818 190 811 L190 762 Z M324 762 C324 755 328 751 335 751 L381 751 C388 751 392 755 392 762 L392 811 C392 818 388 822 381 822 L335 822 C328 822 324 818 324 811 L324 762 Z M341 692 C339 697 336 700 330 700 L254 700 C248 700 245 697 243 692 L45 11 C45 4 49 0 56 0 L94 0 C101 0 104 4 106 11 L143 138 L441 138 L478 11 C480 4 483 0 490 0 L528 0 C535 0 539 4 539 11 L341 692 Z M287 631 L297 631 L425 191 L158 191 L287 631 Z " />
<glyph glyph-name="Aring" unicode="&#xc5;" horiz-adv-x="584" d="M407 767 C407 831 356 882 292 882 C228 882 177 831 177 767 C177 723 200 686 235 666 L45 11 C45 4 49 0 56 0 L94 0 C101 0 104 4 106 11 L143 138 L441 138 L478 11 C480 4 483 0 490 0 L528 0 C535 0 539 4 539 11 L348 666 C383 686 407 723 407 767 L407 767 Z M287 631 L297 631 L425 191 L158 191 L287 631 Z M359 767 C359 728 330 700 292 700 C255 700 226 728 226 767 C226 806 255 834 292 834 C330 834 359 806 359 767 L359 767 Z " />
<glyph glyph-name="AE" unicode="&#xc6;" horiz-adv-x="893" d="M468 187 L187 187 L402 646 L468 646 L468 187 Z M40 11 C40 4 44 0 51 0 L92 0 C99 0 102 5 105 11 L162 133 L468 133 L468 11 C468 4 472 0 479 0 L802 0 C809 0 813 4 813 11 L813 43 C813 50 809 54 802 54 L527 54 L527 310 L776 310 C783 310 787 314 787 321 L787 353 C787 360 783 364 776 364 L527 364 L527 646 L802 646 C809 646 813 650 813 657 L813 689 C813 696 809 700 802 700 L371 700 C365 700 360 695 358 691 L40 11 Z " />
<glyph glyph-name="Ccedilla" unicode="&#xc7;" horiz-adv-x="570" d="M246 -63 C244 -67 244 -73 244 -73 L244 -96 C244 -100 247 -103 251 -103 L300 -103 C300 -103 335 -103 335 -133 C335 -161 300 -161 300 -161 L246 -161 C242 -161 239 -163 239 -168 L239 -188 C239 -192 242 -195 246 -195 L311 -195 C351 -195 371 -179 371 -127 C371 -88 337 -69 297 -69 L285 -69 L316 -5 L350 -5 C435 -5 505 62 505 144 L505 196 C505 203 501 207 494 207 L457 207 C450 207 446 203 446 196 L446 160 C446 93 405 49 337 49 L248 49 C180 49 139 93 139 160 L139 541 C139 608 180 651 248 651 L337 651 C405 651 446 608 446 541 L446 504 C446 497 450 493 457 493 L494 493 C501 493 505 497 505 504 L505 556 C505 638 435 705 350 705 L235 705 C150 705 80 638 80 556 L80 144 C80 62 150 -5 235 -5 L276 -5 L246 -63 Z " />
<glyph glyph-name="Egrave" unicode="&#xc8;" horiz-adv-x="515" d="M286 751 C294 751 298 755 298 763 L252 865 C248 873 245 877 238 877 L201 877 C194 877 190 873 190 865 L236 763 C240 755 243 751 250 751 L286 751 Z M90 11 C90 4 94 0 101 0 L424 0 C431 0 435 4 435 11 L435 43 C435 50 431 54 424 54 L149 54 L149 310 L398 310 C405 310 409 314 409 321 L409 353 C409 360 405 364 398 364 L149 364 L149 646 L424 646 C431 646 435 650 435 657 L435 689 C435 696 431 700 424 700 L101 700 C94 700 90 696 90 689 L90 11 Z " />
<glyph glyph-name="Eacute" unicode="&#xc9;" horiz-adv-x="515" d="M280 751 C287 751 290 755 294 763 L340 865 C340 873 336 877 329 877 L292 877 C285 877 282 873 278 865 L232 763 C232 755 236 751 244 751 L280 751 Z M90 11 C90 4 94 0 101 0 L424 0 C431 0 435 4 435 11 L435 43 C435 50 431 54 424 54 L149 54 L149 310 L398 310 C405 310 409 314 409 321 L409 353 C409 360 405 364 398 364 L149 364 L149 646 L424 646 C431 646 435 650 435 657 L435 689 C435 696 431 700 424 700 L101 700 C94 700 90 696 90 689 L90 11 Z " />
<glyph glyph-name="Ecircumflex" unicode="&#xca;" horiz-adv-x="515" d="M236 894 C230 894 226 890 223 883 L162 759 C162 754 165 751 170 751 L208 751 C211 751 214 755 216 759 L264 854 L312 759 C314 755 317 751 320 751 L358 751 C363 751 366 754 366 759 L305 883 C302 890 298 894 292 894 L236 894 Z M90 11 C90 4 94 0 101 0 L424 0 C431 0 435 4 435 11 L435 43 C435 50 431 54 424 54 L149 54 L149 310 L398 310 C405 310 409 314 409 321 L409 353 C409 360 405 364 398 364 L149 364 L149 646 L424 646 C431 646 435 650 435 657 L435 689 C435 696 431 700 424 700 L101 700 C94 700 90 696 90 689 L90 11 Z " />
<glyph glyph-name="Edieresis" unicode="&#xcb;" horiz-adv-x="515" d="M159 762 C159 755 163 751 170 751 L216 751 C223 751 227 755 227 762 L227 811 C227 818 223 822 216 822 L170 822 C163 822 159 818 159 811 L159 762 Z M293 762 C293 755 297 751 304 751 L350 751 C357 751 361 755 361 762 L361 811 C361 818 357 822 350 822 L304 822 C297 822 293 818 293 811 L293 762 Z M90 11 C90 4 94 0 101 0 L424 0 C431 0 435 4 435 11 L435 43 C435 50 431 54 424 54 L149 54 L149 310 L398 310 C405 310 409 314 409 321 L409 353 C409 360 405 364 398 364 L149 364 L149 646 L424 646 C431 646 435 650 435 657 L435 689 C435 696 431 700 424 700 L101 700 C94 700 90 696 90 689 L90 11 Z " />
<glyph glyph-name="Igrave" unicode="&#xcc;" horiz-adv-x="239" d="M137 751 C145 751 149 755 149 763 L103 865 C99 873 96 877 89 877 L52 877 C45 877 41 873 41 865 L87 763 C91 755 94 751 101 751 L137 751 Z M149 689 C149 692 148 695 146 697 C144 699 142 700 138 700 L101 700 C97 700 95 699 93 697 C91 695 90 692 90 689 L90 11 C90 8 91 5 93 3 C95 1 97 0 101 0 L138 0 C142 0 144 1 146 3 C148 5 149 8 149 11 L149 689 Z " />
<glyph glyph-name="Iacute" unicode="&#xcd;" horiz-adv-x="239" d="M143 751 C150 751 153 755 157 763 L203 865 C203 873 199 877 192 877 L155 877 C148 877 145 873 141 865 L95 763 C95 755 99 751 107 751 L143 751 Z M149 689 C149 692 148 695 146 697 C144 699 142 700 138 700 L101 700 C97 700 95 699 93 697 C91 695 90 692 90 689 L90 11 C90 8 91 5 93 3 C95 1 97 0 101 0 L138 0 C142 0 144 1 146 3 C148 5 149 8 149 11 L149 689 Z " />
<glyph glyph-name="Icircumflex" unicode="&#xce;" horiz-adv-x="239" d="M91 894 C85 894 81 890 78 883 L17 759 C17 754 20 751 25 751 L63 751 C66 751 69 755 71 759 L119 854 L167 759 C169 755 172 751 175 751 L213 751 C218 751 221 754 221 759 L160 883 C157 890 153 894 147 894 L91 894 Z M149 689 C149 692 148 695 146 697 C144 699 142 700 138 700 L101 700 C97 700 95 699 93 697 C91 695 90 692 90 689 L90 11 C90 8 91 5 93 3 C95 1 97 0 101 0 L138 0 C142 0 144 1 146 3 C148 5 149 8 149 11 L149 689 Z " />
<glyph glyph-name="Idieresis" unicode="&#xcf;" horiz-adv-x="239" d="M33 762 C33 755 37 751 44 751 L90 751 C97 751 101 755 101 762 L101 811 C101 818 97 822 90 822 L44 822 C37 822 33 818 33 811 L33 762 Z M138 762 C138 755 142 751 149 751 L195 751 C202 751 206 755 206 762 L206 811 C206 818 202 822 195 822 L149 822 C142 822 138 818 138 811 L138 762 Z M149 689 C149 692 148 695 146 697 C144 699 142 700 138 700 L101 700 C97 700 95 699 93 697 C91 695 90 692 90 689 L90 11 C90 8 91 5 93 3 C95 1 97 0 101 0 L138 0 C142 0 144 1 146 3 C148 5 149 8 149 11 L149 689 Z " />
<glyph glyph-name="Eth" unicode="&#xd0;" horiz-adv-x="616" d="M122 700 C115 700 111 696 111 689 L111 378 L41 378 C34 378 30 374 30 367 L30 335 C30 328 34 324 41 324 L111 324 L111 11 C111 4 115 0 122 0 L381 0 C466 0 536 67 536 149 L536 551 C536 633 466 700 381 700 L122 700 Z M170 54 L170 324 L247 324 C254 324 258 328 258 335 L258 367 C258 374 254 378 247 378 L170 378 L170 646 L369 646 C437 646 478 602 478 535 L478 165 C478 98 437 54 369 54 L170 54 Z " />
<glyph glyph-name="Ntilde" unicode="&#xd1;" horiz-adv-x="637" d="M480 93 L181 689 C178 695 173 700 166 700 L101 700 C94 700 90 696 90 689 L90 11 C90 4 94 0 101 0 L138 0 C145 0 149 4 149 11 L149 606 L157 606 L457 11 C460 5 465 0 472 0 L536 0 C543 0 547 4 547 11 L547 689 C547 696 543 700 536 700 L499 700 C492 700 488 696 488 689 L488 93 L480 93 Z M385 751 C395 751 411 757 427 764 C431 766 433 770 433 774 L424 805 C423 809 420 811 416 811 C405 811 396 805 381 805 C322 805 309 845 253 845 C243 845 227 839 211 832 C207 830 205 826 205 822 L214 791 C215 787 218 785 222 785 C233 785 242 791 257 791 C314 791 329 751 385 751 L385 751 Z " />
<glyph glyph-name="Ograve" unicode="&#xd2;" horiz-adv-x="585" d="M306 751 C314 751 318 755 318 763 L272 865 C268 873 265 877 258 877 L221 877 C214 877 210 873 210 865 L256 763 C260 755 263 751 270 751 L306 751 Z M350 705 L235 705 C150 705 80 638 80 556 L80 144 C80 62 150 -5 235 -5 L350 -5 C435 -5 505 62 505 144 L505 556 C505 638 435 705 350 705 L350 705 Z M446 160 C446 93 405 49 337 49 L248 49 C180 49 139 93 139 160 L139 541 C139 608 180 651 248 651 L337 651 C405 651 446 608 446 541 L446 160 Z " />
<glyph glyph-name="Oacute" unicode="&#xd3;" horiz-adv-x="585" d="M318 751 C325 751 328 755 332 763 L378 865 C378 873 374 877 367 877 L330 877 C323 877 320 873 316 865 L270 763 C270 755 274 751 282 751 L318 751 Z M350 705 L235 705 C150 705 80 638 80 556 L80 144 C80 62 150 -5 235 -5 L350 -5 C435 -5 505 62 505 144 L505 556 C505 638 435 705 350 705 L350 705 Z M446 160 C446 93 405 49 337 49 L248 49 C180 49 139 93 139 160 L139 541 C139 608 180 651 248 651 L337 651 C405 651 446 608 446 541 L446 160 Z " />
<glyph glyph-name="Ocircumflex" unicode="&#xd4;" horiz-adv-x="585" d="M264 894 C258 894 254 890 251 883 L190 759 C190 754 193 751 198 751 L236 751 C239 751 242 755 244 759 L292 854 L340 759 C342 755 345 751 348 751 L386 751 C391 751 394 754 394 759 L333 883 C330 890 326 894 320 894 L264 894 Z M350 705 L235 705 C150 705 80 638 80 556 L80 144 C80 62 150 -5 235 -5 L350 -5 C435 -5 505 62 505 144 L505 556 C505 638 435 705 350 705 L350 705 Z M446 160 C446 93 405 49 337 49 L248 49 C180 49 139 93 139 160 L139 541 C139 608 180 651 248 651 L337 651 C405 651 446 608 446 541 L446 160 Z " />
<glyph glyph-name="Otilde" unicode="&#xd5;" horiz-adv-x="585" d="M350 705 L235 705 C150 705 80 638 80 556 L80 144 C80 62 150 -5 235 -5 L350 -5 C435 -5 505 62 505 144 L505 556 C505 638 435 705 350 705 L350 705 Z M446 160 C446 93 405 49 337 49 L248 49 C180 49 139 93 139 160 L139 541 C139 608 180 651 248 651 L337 651 C405 651 446 608 446 541 L446 160 Z M362 751 C372 751 388 757 404 764 C408 766 410 770 410 774 L401 805 C400 809 397 811 393 811 C382 811 373 805 358 805 C299 805 286 845 230 845 C220 845 204 839 188 832 C184 830 182 826 182 822 L191 791 C192 787 195 785 199 785 C210 785 219 791 234 791 C291 791 306 751 362 751 L362 751 Z " />
<glyph glyph-name="Odieresis" unicode="&#xd6;" horiz-adv-x="585" d="M191 762 C191 755 195 751 202 751 L248 751 C255 751 259 755 259 762 L259 811 C259 818 255 822 248 822 L202 822 C195 822 191 818 191 811 L191 762 Z M325 762 C325 755 329 751 336 751 L382 751 C389 751 393 755 393 762 L393 811 C393 818 389 822 382 822 L336 822 C329 822 325 818 325 811 L325 762 Z M350 705 L235 705 C150 705 80 638 80 556 L80 144 C80 62 150 -5 235 -5 L350 -5 C435 -5 505 62 505 144 L505 556 C505 638 435 705 350 705 L350 705 Z M446 160 C446 93 405 49 337 49 L248 49 C180 49 139 93 139 160 L139 541 C139 608 180 651 248 651 L337 651 C405 651 446 608 446 541 L446 160 Z " />
<glyph glyph-name="multiply" unicode="&#xd7;" horiz-adv-x="400" d="M200 143 L274 68 C277 65 279 65 280 65 C282 65 284 66 286 68 L307 89 C309 91 310 93 310 95 C310 97 309 99 307 101 L233 174 L307 247 C309 249 310 251 310 253 C310 255 309 257 307 259 L286 280 C284 282 282 283 280 283 C279 283 277 283 274 280 L200 205 L126 280 C123 283 121 283 120 283 C118 283 116 282 114 280 L93 259 C91 257 90 255 90 253 C90 251 91 249 93 247 L167 174 L93 101 C91 99 90 97 90 95 C90 93 91 91 93 89 L114 68 C116 66 118 65 120 65 C121 65 123 65 126 68 L200 143 Z " />
<glyph glyph-name="Oslash" unicode="&#xd8;" horiz-adv-x="585" d="M124 -82 C124 -88 127 -91 133 -91 L173 -91 C179 -91 182 -88 184 -82 L209 -3 C219 -4 227 -5 235 -5 L350 -5 C435 -5 505 62 505 144 L505 556 C505 610 474 657 429 683 L461 782 C461 788 458 791 452 791 L412 791 C406 791 403 788 401 782 L375 703 C367 704 358 705 350 705 L235 705 C150 705 80 638 80 556 L80 144 C80 90 110 42 155 16 L124 -82 Z M446 160 C446 93 405 49 337 49 L248 49 C240 49 233 49 226 50 L411 626 C433 607 446 578 446 541 L446 160 Z M139 160 L139 541 C139 608 180 651 248 651 L337 651 C344 651 351 650 358 649 L174 74 C151 93 139 123 139 160 L139 160 Z " />
<glyph glyph-name="Ugrave" unicode="&#xd9;" horiz-adv-x="595" d="M311 751 C319 751 323 755 323 763 L277 865 C273 873 270 877 263 877 L226 877 C219 877 215 873 215 865 L261 763 C265 755 268 751 275 751 L311 751 Z M510 689 C510 696 506 700 499 700 L462 700 C455 700 451 696 451 689 L451 160 C451 93 410 49 342 49 L253 49 C185 49 144 93 144 160 L144 689 C144 696 140 700 133 700 L96 700 C89 700 85 696 85 689 L85 144 C85 62 155 -5 240 -5 L355 -5 C440 -5 510 62 510 144 L510 689 Z " />
<glyph glyph-name="Uacute" unicode="&#xda;" horiz-adv-x="595" d="M320 751 C327 751 330 755 334 763 L380 865 C380 873 376 877 369 877 L332 877 C325 877 322 873 318 865 L272 763 C272 755 276 751 284 751 L320 751 Z M510 689 C510 696 506 700 499 700 L462 700 C455 700 451 696 451 689 L451 160 C451 93 410 49 342 49 L253 49 C185 49 144 93 144 160 L144 689 C144 696 140 700 133 700 L96 700 C89 700 85 696 85 689 L85 144 C85 62 155 -5 240 -5 L355 -5 C440 -5 510 62 510 144 L510 689 Z " />
<glyph glyph-name="Ucircumflex" unicode="&#xdb;" horiz-adv-x="595" d="M269 894 C263 894 259 890 256 883 L195 759 C195 754 198 751 203 751 L241 751 C244 751 247 755 249 759 L297 854 L345 759 C347 755 350 751 353 751 L391 751 C396 751 399 754 399 759 L338 883 C335 890 331 894 325 894 L269 894 Z M510 689 C510 696 506 700 499 700 L462 700 C455 700 451 696 451 689 L451 160 C451 93 410 49 342 49 L253 49 C185 49 144 93 144 160 L144 689 C144 696 140 700 133 700 L96 700 C89 700 85 696 85 689 L85 144 C85 62 155 -5 240 -5 L355 -5 C440 -5 510 62 510 144 L510 689 Z " />
<glyph glyph-name="Udieresis" unicode="&#xdc;" horiz-adv-x="595" d="M196 762 C196 755 200 751 207 751 L253 751 C260 751 264 755 264 762 L264 811 C264 818 260 822 253 822 L207 822 C200 822 196 818 196 811 L196 762 Z M330 762 C330 755 334 751 341 751 L387 751 C394 751 398 755 398 762 L398 811 C398 818 394 822 387 822 L341 822 C334 822 330 818 330 811 L330 762 Z M510 689 C510 696 506 700 499 700 L462 700 C455 700 451 696 451 689 L451 160 C451 93 410 49 342 49 L253 49 C185 49 144 93 144 160 L144 689 C144 696 140 700 133 700 L96 700 C89 700 85 696 85 689 L85 144 C85 62 155 -5 240 -5 L355 -5 C440 -5 510 62 510 144 L510 689 Z " />
<glyph glyph-name="Yacute" unicode="&#xdd;" horiz-adv-x="549" d="M294 751 C301 751 304 755 308 763 L354 865 C354 873 350 877 343 877 L306 877 C299 877 296 873 292 865 L246 763 C246 755 250 751 258 751 L294 751 Z M277 303 L272 303 L105 689 C102 696 100 700 93 700 L51 700 C44 700 40 696 40 689 L245 216 L245 11 C245 4 249 0 256 0 L293 0 C300 0 304 4 304 11 L304 216 L509 689 C509 696 505 700 498 700 L456 700 C449 700 447 696 444 689 L277 303 Z " />
<glyph glyph-name="Thorn" unicode="&#xde;" horiz-adv-x="577" d="M149 165 L149 534 L341 534 C397 534 448 482 448 423 L448 275 C448 212 397 165 341 165 L149 165 Z M90 11 C90 4 94 0 101 0 L138 0 C145 0 149 4 149 11 L149 111 L350 111 C436 111 507 178 507 261 L507 439 C507 521 436 588 350 588 L149 588 L149 689 C149 696 145 700 138 700 L101 700 C94 700 90 696 90 689 L90 11 Z " />
<glyph glyph-name="germandbls" unicode="&#xdf;" horiz-adv-x="566" d="M346 0 C434 0 506 69 506 153 L506 227 C506 272 480 325 409 362 C454 390 473 458 473 489 L473 548 C473 632 401 700 313 700 L101 700 C94 700 90 696 90 689 L90 11 C90 4 94 0 101 0 L138 0 C145 0 149 4 149 11 L149 646 L303 646 C359 646 414 592 414 533 L414 494 C414 430 359 381 303 381 L239 381 C232 381 228 377 228 370 L228 338 C228 331 232 327 239 327 L339 327 C394 327 447 275 447 214 L447 166 C447 102 394 54 339 54 L269 54 C262 54 258 50 258 43 L258 11 C258 4 262 0 269 0 L346 0 Z " />
<glyph glyph-name="agrave" unicode="&#xe0;" horiz-adv-x="498" d="M280 571 C288 571 292 575 292 583 L246 685 C242 693 239 697 232 697 L195 697 C188 697 184 693 184 685 L230 583 C234 575 237 571 244 571 L280 571 Z M214 49 C164 49 129 84 129 133 L129 165 C129 215 164 248 214 248 L364 248 L364 133 C364 84 322 49 273 49 L214 49 Z M131 451 C177 461 204 466 236 466 C362 466 364 379 364 336 L364 302 L211 302 C131 302 70 252 70 166 L70 123 C70 38 131 -5 211 -5 L259 -5 C298 -5 335 7 356 34 L364 34 L364 11 C364 4 368 0 375 0 L412 0 C419 0 423 4 423 11 L423 342 C423 387 418 520 246 520 C176 520 148 512 118 504 C114 502 112 500 112 495 C112 495 111 493 120 457 C122 451 126 451 131 451 L131 451 Z " />
<glyph glyph-name="aacute" unicode="&#xe1;" horiz-adv-x="498" d="M290 571 C297 571 300 575 304 583 L350 685 C350 693 346 697 339 697 L302 697 C295 697 292 693 288 685 L242 583 C242 575 246 571 254 571 L290 571 Z M214 49 C164 49 129 84 129 133 L129 165 C129 215 164 248 214 248 L364 248 L364 133 C364 84 322 49 273 49 L214 49 Z M131 451 C177 461 204 466 236 466 C362 466 364 379 364 336 L364 302 L211 302 C131 302 70 252 70 166 L70 123 C70 38 131 -5 211 -5 L259 -5 C298 -5 335 7 356 34 L364 34 L364 11 C364 4 368 0 375 0 L412 0 C419 0 423 4 423 11 L423 342 C423 387 418 520 246 520 C176 520 148 512 118 504 C114 502 112 500 112 495 C112 495 111 493 120 457 C122 451 126 451 131 451 L131 451 Z " />
<glyph glyph-name="acircumflex" unicode="&#xe2;" horiz-adv-x="498" d="M244 714 C238 714 234 710 231 703 L170 579 C170 574 173 571 178 571 L216 571 C219 571 222 575 224 579 L272 674 L320 579 C322 575 325 571 328 571 L366 571 C371 571 374 574 374 579 L313 703 C310 710 306 714 300 714 L244 714 Z M214 49 C164 49 129 84 129 133 L129 165 C129 215 164 248 214 248 L364 248 L364 133 C364 84 322 49 273 49 L214 49 Z M131 451 C177 461 204 466 236 466 C362 466 364 379 364 336 L364 302 L211 302 C131 302 70 252 70 166 L70 123 C70 38 131 -5 211 -5 L259 -5 C298 -5 335 7 356 34 L364 34 L364 11 C364 4 368 0 375 0 L412 0 C419 0 423 4 423 11 L423 342 C423 387 418 520 246 520 C176 520 148 512 118 504 C114 502 112 500 112 495 C112 495 111 493 120 457 C122 451 126 451 131 451 L131 451 Z " />
<glyph glyph-name="atilde" unicode="&#xe3;" horiz-adv-x="498" d="M214 49 C164 49 129 84 129 133 L129 165 C129 215 164 248 214 248 L364 248 L364 133 C364 84 322 49 273 49 L214 49 Z M131 451 C177 461 204 466 236 466 C362 466 364 379 364 336 L364 302 L211 302 C131 302 70 252 70 166 L70 123 C70 38 131 -5 211 -5 L259 -5 C298 -5 335 7 356 34 L364 34 L364 11 C364 4 368 0 375 0 L412 0 C419 0 423 4 423 11 L423 342 C423 387 418 520 246 520 C176 520 148 512 118 504 C114 502 112 500 112 495 C112 495 111 493 120 457 C122 451 126 451 131 451 L131 451 Z M337 571 C347 571 363 577 379 584 C383 586 385 590 385 594 L376 625 C375 629 372 631 368 631 C357 631 348 625 333 625 C274 625 261 665 205 665 C195 665 179 659 163 652 C159 650 157 646 157 642 L166 611 C167 607 170 605 174 605 C185 605 194 611 209 611 C266 611 281 571 337 571 L337 571 Z " />
<glyph glyph-name="adieresis" unicode="&#xe4;" horiz-adv-x="498" d="M172 582 C172 575 176 571 183 571 L229 571 C236 571 240 575 240 582 L240 631 C240 638 236 642 229 642 L183 642 C176 642 172 638 172 631 L172 582 Z M306 582 C306 575 310 571 317 571 L363 571 C370 571 374 575 374 582 L374 631 C374 638 370 642 363 642 L317 642 C310 642 306 638 306 631 L306 582 Z M214 49 C164 49 129 84 129 133 L129 165 C129 215 164 248 214 248 L364 248 L364 133 C364 84 322 49 273 49 L214 49 Z M131 451 C177 461 204 466 236 466 C362 466 364 379 364 336 L364 302 L211 302 C131 302 70 252 70 166 L70 123 C70 38 131 -5 211 -5 L259 -5 C298 -5 335 7 356 34 L364 34 L364 11 C364 4 368 0 375 0 L412 0 C419 0 423 4 423 11 L423 342 C423 387 418 520 246 520 C176 520 148 512 118 504 C114 502 112 500 112 495 C112 495 111 493 120 457 C122 451 126 451 131 451 L131 451 Z " />
<glyph glyph-name="aring" unicode="&#xe5;" horiz-adv-x="498" d="M391 686 C391 750 340 801 276 801 C212 801 161 750 161 686 C161 622 212 571 276 571 C340 571 391 622 391 686 L391 686 Z M343 686 C343 647 314 619 276 619 C239 619 210 647 210 686 C210 725 239 753 276 753 C314 753 343 725 343 686 L343 686 Z M214 49 C164 49 129 84 129 133 L129 165 C129 215 164 248 214 248 L364 248 L364 133 C364 84 322 49 273 49 L214 49 Z M131 451 C177 461 204 466 236 466 C362 466 364 379 364 336 L364 302 L211 302 C131 302 70 252 70 166 L70 123 C70 38 131 -5 211 -5 L259 -5 C298 -5 335 7 356 34 L364 34 L364 11 C364 4 368 0 375 0 L412 0 C419 0 423 4 423 11 L423 342 C423 387 418 520 246 520 C176 520 148 512 118 504 C114 502 112 500 112 495 C112 495 111 493 120 457 C122 451 126 451 131 451 L131 451 Z " />
<glyph glyph-name="ae" unicode="&#xe6;" horiz-adv-x="786" d="M649 73 C632 60 607 49 571 49 L517 49 C470 49 423 94 423 141 L423 229 L705 229 C712 229 716 233 716 240 L716 384 C716 450 664 520 583 520 L497 520 C449 520 412 496 389 462 C364 495 321 520 246 520 C176 520 148 512 118 504 C114 502 112 500 112 495 C112 495 111 493 120 457 C122 451 126 451 131 451 C177 461 204 466 236 466 C362 466 364 379 364 336 L364 302 L211 302 C131 302 70 252 70 166 L70 123 C70 38 131 -5 211 -5 L283 -5 C322 -5 369 13 390 40 L398 40 C421 13 455 -5 497 -5 L571 -5 C571 -5 642 -6 689 39 C691 42 692 43 692 45 C692 48 691 49 688 52 L666 76 C663 79 661 79 660 79 C656 79 651 74 649 73 L649 73 Z M214 49 C164 49 129 84 129 133 L129 165 C129 215 164 248 214 248 L364 248 L364 133 C364 84 322 49 273 49 L214 49 Z M423 374 C423 424 458 466 516 466 L564 466 C622 466 657 424 657 374 L657 283 L423 283 L423 374 Z " />
<glyph glyph-name="ccedilla" unicode="&#xe7;" horiz-adv-x="482" d="M202 -63 C200 -67 200 -73 200 -73 L200 -96 C200 -100 203 -103 207 -103 L256 -103 C256 -103 291 -103 291 -133 C291 -161 256 -161 256 -161 L202 -161 C198 -161 195 -163 195 -168 L195 -188 C195 -192 198 -195 202 -195 L267 -195 C307 -195 327 -179 327 -127 C327 -88 293 -69 253 -69 L241 -69 L272 -5 L294 -5 C375 -5 427 65 427 131 L427 156 C427 163 423 167 416 167 L379 167 C372 167 368 163 368 156 L368 141 C368 94 321 49 274 49 L228 49 C181 49 134 94 134 141 L134 374 C134 424 169 466 227 466 L275 466 C333 466 368 424 368 374 L368 359 C368 352 372 348 379 348 L416 348 C423 348 427 352 427 359 L427 384 C427 450 375 520 294 520 L208 520 C127 520 75 450 75 384 L75 131 C75 65 127 -5 208 -5 L232 -5 L202 -63 Z " />
<glyph glyph-name="egrave" unicode="&#xe8;" horiz-adv-x="497" d="M268 571 C276 571 280 575 280 583 L234 685 C230 693 227 697 220 697 L183 697 C176 697 172 693 172 685 L218 583 C222 575 225 571 232 571 L268 571 Z M360 73 C343 60 318 49 282 49 L228 49 C181 49 134 94 134 141 L134 229 L416 229 C423 229 427 233 427 240 L427 384 C427 450 375 520 294 520 L208 520 C127 520 75 450 75 384 L75 131 C75 65 127 -5 208 -5 L282 -5 C282 -5 353 -6 400 39 C402 42 403 43 403 45 C403 48 402 49 399 52 L377 76 C374 79 372 79 371 79 C367 79 362 74 360 73 L360 73 Z M134 374 C134 424 169 466 227 466 L275 466 C333 466 368 424 368 374 L368 283 L134 283 L134 374 Z " />
<glyph glyph-name="eacute" unicode="&#xe9;" horiz-adv-x="497" d="M269 571 C276 571 279 575 283 583 L329 685 C329 693 325 697 318 697 L281 697 C274 697 271 693 267 685 L221 583 C221 575 225 571 233 571 L269 571 Z M360 73 C343 60 318 49 282 49 L228 49 C181 49 134 94 134 141 L134 229 L416 229 C423 229 427 233 427 240 L427 384 C427 450 375 520 294 520 L208 520 C127 520 75 450 75 384 L75 131 C75 65 127 -5 208 -5 L282 -5 C282 -5 353 -6 400 39 C402 42 403 43 403 45 C403 48 402 49 399 52 L377 76 C374 79 372 79 371 79 C367 79 362 74 360 73 L360 73 Z M134 374 C134 424 169 466 227 466 L275 466 C333 466 368 424 368 374 L368 283 L134 283 L134 374 Z " />
<glyph glyph-name="ecircumflex" unicode="&#xea;" horiz-adv-x="497" d="M223 714 C217 714 213 710 210 703 L149 579 C149 574 152 571 157 571 L195 571 C198 571 201 575 203 579 L251 674 L299 579 C301 575 304 571 307 571 L345 571 C350 571 353 574 353 579 L292 703 C289 710 285 714 279 714 L223 714 Z M360 73 C343 60 318 49 282 49 L228 49 C181 49 134 94 134 141 L134 229 L416 229 C423 229 427 233 427 240 L427 384 C427 450 375 520 294 520 L208 520 C127 520 75 450 75 384 L75 131 C75 65 127 -5 208 -5 L282 -5 C282 -5 353 -6 400 39 C402 42 403 43 403 45 C403 48 402 49 399 52 L377 76 C374 79 372 79 371 79 C367 79 362 74 360 73 L360 73 Z M134 374 C134 424 169 466 227 466 L275 466 C333 466 368 424 368 374 L368 283 L134 283 L134 374 Z " />
<glyph glyph-name="edieresis" unicode="&#xeb;" horiz-adv-x="497" d="M153 582 C153 575 157 571 164 571 L210 571 C217 571 221 575 221 582 L221 631 C221 638 217 642 210 642 L164 642 C157 642 153 638 153 631 L153 582 Z M287 582 C287 575 291 571 298 571 L344 571 C351 571 355 575 355 582 L355 631 C355 638 351 642 344 642 L298 642 C291 642 287 638 287 631 L287 582 Z M360 73 C343 60 318 49 282 49 L228 49 C181 49 134 94 134 141 L134 229 L416 229 C423 229 427 233 427 240 L427 384 C427 450 375 520 294 520 L208 520 C127 520 75 450 75 384 L75 131 C75 65 127 -5 208 -5 L282 -5 C282 -5 353 -6 400 39 C402 42 403 43 403 45 C403 48 402 49 399 52 L377 76 C374 79 372 79 371 79 C367 79 362 74 360 73 L360 73 Z M134 374 C134 424 169 466 227 466 L275 466 C333 466 368 424 368 374 L368 283 L134 283 L134 374 Z " />
<glyph glyph-name="igrave" unicode="&#xec;" horiz-adv-x="239" d="M90 11 C90 4 94 0 101 0 L138 0 C145 0 149 4 149 11 L149 504 C149 511 145 515 138 515 L101 515 C94 515 90 511 90 504 L90 11 Z M137 571 C145 571 149 575 149 583 L103 685 C99 693 96 697 89 697 L52 697 C45 697 41 693 41 685 L87 583 C91 575 94 571 101 571 L137 571 Z " />
<glyph glyph-name="iacute" unicode="&#xed;" horiz-adv-x="239" d="M149 504 C149 511 145 515 138 515 L101 515 C94 515 90 511 90 504 L90 11 C90 4 94 0 101 0 L138 0 C145 0 149 4 149 11 L149 504 Z M138 571 C145 571 148 575 152 583 L198 685 C198 693 194 697 187 697 L150 697 C143 697 140 693 136 685 L90 583 C90 575 94 571 102 571 L138 571 Z " />
<glyph glyph-name="icircumflex" unicode="&#xee;" horiz-adv-x="239" d="M90 11 C90 4 94 0 101 0 L138 0 C145 0 149 4 149 11 L149 504 C149 511 145 515 138 515 L101 515 C94 515 90 511 90 504 L90 11 Z M91 711 C85 711 81 707 78 700 L17 576 C17 571 20 568 25 568 L63 568 C66 568 69 572 71 576 L119 671 L167 576 C169 572 172 568 175 568 L213 568 C218 568 221 571 221 576 L160 700 C157 707 153 711 147 711 L91 711 Z " />
<glyph glyph-name="idieresis" unicode="&#xef;" horiz-adv-x="239" d="M90 11 C90 4 94 0 101 0 L138 0 C145 0 149 4 149 11 L149 504 C149 511 145 515 138 515 L101 515 C94 515 90 511 90 504 L90 11 Z M33 582 C33 575 37 571 44 571 L90 571 C97 571 101 575 101 582 L101 631 C101 638 97 642 90 642 L44 642 C37 642 33 638 33 631 L33 582 Z M138 582 C138 575 142 571 149 571 L195 571 C202 571 206 575 206 582 L206 631 C206 638 202 642 195 642 L149 642 C142 642 138 638 138 631 L138 582 Z " />
<glyph glyph-name="eth" unicode="&#xf0;" horiz-adv-x="576" d="M387 566 C394 566 398 570 398 577 L398 609 C398 616 394 620 387 620 L308 620 L355 690 C355 696 352 700 346 700 L298 700 C293 700 286 695 283 690 L236 620 L122 620 C115 620 111 616 111 609 L111 577 C111 570 115 566 122 566 L199 566 L84 394 C81 388 80 378 80 374 L80 143 C80 62 151 -5 238 -5 L351 -5 C436 -5 506 62 506 143 L506 267 C506 348 436 414 351 414 L245 414 C234 414 200 413 163 391 L153 391 L271 566 L387 566 Z M447 159 C447 92 406 49 338 49 L248 49 C180 49 139 92 139 159 L139 250 C139 317 180 360 248 360 L338 360 C406 360 447 317 447 250 L447 159 Z " />
<glyph glyph-name="ntilde" unicode="&#xf1;" horiz-adv-x="534" d="M90 11 C90 4 94 0 101 0 L138 0 C145 0 149 4 149 11 L149 366 C198 465 257 466 292 466 L300 466 C351 466 395 424 395 356 L395 11 C395 4 399 0 406 0 L443 0 C450 0 454 4 454 11 L454 368 C454 458 394 520 301 520 L273 520 C253 520 190 519 156 455 L149 455 L149 504 C149 511 145 515 138 515 L101 515 C94 515 90 511 90 504 L90 11 Z M341 571 C351 571 367 577 383 584 C387 586 389 590 389 594 L380 625 C379 629 376 631 372 631 C361 631 352 625 337 625 C278 625 265 665 209 665 C199 665 183 659 167 652 C163 650 161 646 161 642 L170 611 C171 607 174 605 178 605 C189 605 198 611 213 611 C270 611 285 571 341 571 L341 571 Z " />
<glyph glyph-name="ograve" unicode="&#xf2;" horiz-adv-x="502" d="M268 571 C276 571 280 575 280 583 L234 685 C230 693 227 697 220 697 L183 697 C176 697 172 693 172 685 L218 583 C222 575 225 571 232 571 L268 571 Z M208 520 C127 520 75 450 75 384 L75 131 C75 65 127 -5 208 -5 L294 -5 C375 -5 427 65 427 131 L427 384 C427 450 375 520 294 520 L208 520 Z M227 49 C169 49 134 91 134 141 L134 374 C134 424 169 466 227 466 L275 466 C333 466 368 424 368 374 L368 141 C368 91 333 49 275 49 L227 49 Z " />
<glyph glyph-name="oacute" unicode="&#xf3;" horiz-adv-x="502" d="M270 571 C277 571 280 575 284 583 L330 685 C330 693 326 697 319 697 L282 697 C275 697 272 693 268 685 L222 583 C222 575 226 571 234 571 L270 571 Z M208 520 C127 520 75 450 75 384 L75 131 C75 65 127 -5 208 -5 L294 -5 C375 -5 427 65 427 131 L427 384 C427 450 375 520 294 520 L208 520 Z M227 49 C169 49 134 91 134 141 L134 374 C134 424 169 466 227 466 L275 466 C333 466 368 424 368 374 L368 141 C368 91 333 49 275 49 L227 49 Z " />
<glyph glyph-name="ocircumflex" unicode="&#xf4;" horiz-adv-x="502" d="M223 714 C217 714 213 710 210 703 L149 579 C149 574 152 571 157 571 L195 571 C198 571 201 575 203 579 L251 674 L299 579 C301 575 304 571 307 571 L345 571 C350 571 353 574 353 579 L292 703 C289 710 285 714 279 714 L223 714 Z M208 520 C127 520 75 450 75 384 L75 131 C75 65 127 -5 208 -5 L294 -5 C375 -5 427 65 427 131 L427 384 C427 450 375 520 294 520 L208 520 Z M227 49 C169 49 134 91 134 141 L134 374 C134 424 169 466 227 466 L275 466 C333 466 368 424 368 374 L368 141 C368 91 333 49 275 49 L227 49 Z " />
<glyph glyph-name="otilde" unicode="&#xf5;" horiz-adv-x="502" d="M208 520 C127 520 75 450 75 384 L75 131 C75 65 127 -5 208 -5 L294 -5 C375 -5 427 65 427 131 L427 384 C427 450 375 520 294 520 L208 520 Z M227 49 C169 49 134 91 134 141 L134 374 C134 424 169 466 227 466 L275 466 C333 466 368 424 368 374 L368 141 C368 91 333 49 275 49 L227 49 Z M309 571 C319 571 335 577 351 584 C355 586 357 590 357 594 L348 625 C347 629 344 631 340 631 C329 631 320 625 305 625 C246 625 233 665 177 665 C167 665 151 659 135 652 C131 650 129 646 129 642 L138 611 C139 607 142 605 146 605 C157 605 166 611 181 611 C238 611 253 571 309 571 L309 571 Z " />
<glyph glyph-name="odieresis" unicode="&#xf6;" horiz-adv-x="502" d="M149 582 C149 575 153 571 160 571 L206 571 C213 571 217 575 217 582 L217 631 C217 638 213 642 206 642 L160 642 C153 642 149 638 149 631 L149 582 Z M283 582 C283 575 287 571 294 571 L340 571 C347 571 351 575 351 582 L351 631 C351 638 347 642 340 642 L294 642 C287 642 283 638 283 631 L283 582 Z M208 520 C127 520 75 450 75 384 L75 131 C75 65 127 -5 208 -5 L294 -5 C375 -5 427 65 427 131 L427 384 C427 450 375 520 294 520 L208 520 Z M227 49 C169 49 134 91 134 141 L134 374 C134 424 169 466 227 466 L275 466 C333 466 368 424 368 374 L368 141 C368 91 333 49 275 49 L227 49 Z " />
<glyph glyph-name="divide" unicode="&#xf7;" horiz-adv-x="431" d="M330 146 C337 146 341 150 341 157 L341 189 C341 196 337 200 330 200 L101 200 C94 200 90 196 90 189 L90 157 C90 150 94 146 101 146 L330 146 Z M185 13 C185 6 189 2 196 2 L236 2 C243 2 247 6 247 13 L247 56 C247 63 243 67 236 67 L196 67 C189 67 185 63 185 56 L185 13 Z M185 284 C185 277 189 273 196 273 L235 273 C242 273 246 277 246 284 L246 327 C246 334 242 338 235 338 L196 338 C189 338 185 334 185 327 L185 284 Z " />
<glyph glyph-name="oslash" unicode="&#xf8;" horiz-adv-x="502" d="M114 -82 C114 -88 117 -91 123 -91 L163 -91 C169 -91 172 -88 174 -82 L199 -4 C202 -4 205 -5 208 -5 L294 -5 C375 -5 427 65 427 131 L427 384 C427 429 403 476 361 501 L392 597 C392 603 389 606 383 606 L343 606 C337 606 334 603 332 597 L307 519 C303 520 298 520 294 520 L208 520 C127 520 75 450 75 384 L75 131 C75 84 100 36 144 11 L114 -82 Z M134 141 L134 374 C134 424 169 466 227 466 L275 466 C280 466 285 465 289 465 L163 72 C144 89 134 113 134 141 L134 141 Z M227 49 L216 49 L342 440 C359 423 368 399 368 374 L368 141 C368 91 333 49 275 49 L227 49 Z " />
<glyph glyph-name="ugrave" unicode="&#xf9;" horiz-adv-x="512" d="M273 571 C281 571 285 575 285 583 L239 685 C235 693 232 697 225 697 L188 697 C181 697 177 693 177 685 L223 583 C227 575 230 571 237 571 L273 571 Z M432 504 C432 511 428 515 421 515 L384 515 C377 515 373 511 373 504 L373 141 C373 94 326 49 279 49 L233 49 C186 49 139 94 139 141 L139 504 C139 511 135 515 128 515 L91 515 C84 515 80 511 80 504 L80 131 C80 65 132 -5 213 -5 L299 -5 C380 -5 432 65 432 131 L432 504 Z " />
<glyph glyph-name="uacute" unicode="&#xfa;" horiz-adv-x="512" d="M275 571 C282 571 285 575 289 583 L335 685 C335 693 331 697 324 697 L287 697 C280 697 277 693 273 685 L227 583 C227 575 231 571 239 571 L275 571 Z M432 504 C432 511 428 515 421 515 L384 515 C377 515 373 511 373 504 L373 141 C373 94 326 49 279 49 L233 49 C186 49 139 94 139 141 L139 504 C139 511 135 515 128 515 L91 515 C84 515 80 511 80 504 L80 131 C80 65 132 -5 213 -5 L299 -5 C380 -5 432 65 432 131 L432 504 Z " />
<glyph glyph-name="ucircumflex" unicode="&#xfb;" horiz-adv-x="512" d="M228 714 C222 714 218 710 215 703 L154 579 C154 574 157 571 162 571 L200 571 C203 571 206 575 208 579 L256 674 L304 579 C306 575 309 571 312 571 L350 571 C355 571 358 574 358 579 L297 703 C294 710 290 714 284 714 L228 714 Z M432 504 C432 511 428 515 421 515 L384 515 C377 515 373 511 373 504 L373 141 C373 94 326 49 279 49 L233 49 C186 49 139 94 139 141 L139 504 C139 511 135 515 128 515 L91 515 C84 515 80 511 80 504 L80 131 C80 65 132 -5 213 -5 L299 -5 C380 -5 432 65 432 131 L432 504 Z " />
<glyph glyph-name="udieresis" unicode="&#xfc;" horiz-adv-x="512" d="M154 582 C154 575 158 571 165 571 L211 571 C218 571 222 575 222 582 L222 631 C222 638 218 642 211 642 L165 642 C158 642 154 638 154 631 L154 582 Z M288 582 C288 575 292 571 299 571 L345 571 C352 571 356 575 356 582 L356 631 C356 638 352 642 345 642 L299 642 C292 642 288 638 288 631 L288 582 Z M432 504 C432 511 428 515 421 515 L384 515 C377 515 373 511 373 504 L373 141 C373 94 326 49 279 49 L233 49 C186 49 139 94 139 141 L139 504 C139 511 135 515 128 515 L91 515 C84 515 80 511 80 504 L80 131 C80 65 132 -5 213 -5 L299 -5 C380 -5 432 65 432 131 L432 504 Z " />
<glyph glyph-name="yacute" unicode="&#xfd;" horiz-adv-x="469" d="M259 571 C266 571 269 575 273 583 L319 685 C319 693 315 697 308 697 L271 697 C264 697 261 693 257 685 L211 583 C211 575 215 571 223 571 L259 571 Z M197 -40 C189 -95 157 -149 88 -149 L65 -149 C58 -149 54 -153 54 -160 L54 -192 C54 -199 58 -203 65 -203 L105 -203 C146 -203 224 -199 280 -11 L434 504 C434 511 430 515 423 515 L385 515 C378 515 375 511 373 504 L240 58 L229 58 L96 504 C94 511 91 515 84 515 L46 515 C39 515 35 511 35 504 L197 -40 Z " />
<glyph glyph-name="thorn" unicode="&#xfe;" horiz-adv-x="532" d="M149 38 L156 38 C180 5 217 -5 245 -5 L316 -5 C397 -5 457 54 457 133 L457 382 C457 461 397 520 316 520 L245 520 C217 520 180 510 156 477 L149 477 L149 689 C149 696 145 700 138 700 L101 700 C94 700 90 696 90 689 L90 -163 C90 -170 94 -174 101 -174 L138 -174 C145 -174 149 -170 149 -163 L149 38 Z M257 49 C199 49 151 98 151 148 L151 367 C151 417 199 466 257 466 L305 466 C363 466 398 424 398 374 L398 141 C398 91 363 49 305 49 L257 49 Z " />
<glyph glyph-name="ydieresis" unicode="&#xff;" horiz-adv-x="469" d="M133 582 C133 575 137 571 144 571 L190 571 C197 571 201 575 201 582 L201 631 C201 638 197 642 190 642 L144 642 C137 642 133 638 133 631 L133 582 Z M267 582 C267 575 271 571 278 571 L324 571 C331 571 335 575 335 582 L335 631 C335 638 331 642 324 642 L278 642 C271 642 267 638 267 631 L267 582 Z M197 -40 C189 -95 157 -149 88 -149 L65 -149 C58 -149 54 -153 54 -160 L54 -192 C54 -199 58 -203 65 -203 L105 -203 C146 -203 224 -199 280 -11 L434 504 C434 511 430 515 423 515 L385 515 C378 515 375 511 373 504 L240 58 L229 58 L96 504 C94 511 91 515 84 515 L46 515 C39 515 35 511 35 504 L197 -40 Z " />
<glyph glyph-name="Amacron" unicode="&#x100;" horiz-adv-x="584" d="M378 751 C385 751 389 755 389 762 L389 794 C389 801 385 805 378 805 L204 805 C197 805 193 801 193 794 L193 762 C193 755 197 751 204 751 L378 751 Z M341 692 C339 697 336 700 330 700 L254 700 C248 700 245 697 243 692 L45 11 C45 4 49 0 56 0 L94 0 C101 0 104 4 106 11 L143 138 L441 138 L478 11 C480 4 483 0 490 0 L528 0 C535 0 539 4 539 11 L341 692 Z M287 631 L297 631 L425 191 L158 191 L287 631 Z " />
<glyph glyph-name="amacron" unicode="&#x101;" horiz-adv-x="498" d="M358 571 C365 571 369 575 369 582 L369 614 C369 621 365 625 358 625 L184 625 C177 625 173 621 173 614 L173 582 C173 575 177 571 184 571 L358 571 Z M214 49 C164 49 129 84 129 133 L129 165 C129 215 164 248 214 248 L364 248 L364 133 C364 84 322 49 273 49 L214 49 Z M131 451 C177 461 204 466 236 466 C362 466 364 379 364 336 L364 302 L211 302 C131 302 70 252 70 166 L70 123 C70 38 131 -5 211 -5 L259 -5 C298 -5 335 7 356 34 L364 34 L364 11 C364 4 368 0 375 0 L412 0 C419 0 423 4 423 11 L423 342 C423 387 418 520 246 520 C176 520 148 512 118 504 C114 502 112 500 112 495 C112 495 111 493 120 457 C122 451 126 451 131 451 L131 451 Z " />
<glyph glyph-name="Abreve" unicode="&#x102;" horiz-adv-x="584" d="M341 692 C339 697 336 700 330 700 L254 700 C248 700 245 697 243 692 L45 11 C45 4 49 0 56 0 L94 0 C101 0 104 4 106 11 L143 138 L441 138 L478 11 C480 4 483 0 490 0 L528 0 C535 0 539 4 539 11 L341 692 Z M287 631 L297 631 L425 191 L158 191 L287 631 Z M292 751 C368 751 407 788 427 858 C427 863 423 867 418 867 L376 867 C371 867 368 863 366 858 C348 808 331 799 292 799 C253 799 236 808 218 858 C216 863 213 867 208 867 L166 867 C161 867 157 863 157 858 C177 788 216 751 292 751 L292 751 Z " />
<glyph glyph-name="abreve" unicode="&#x103;" horiz-adv-x="498" d="M214 49 C164 49 129 84 129 133 L129 165 C129 215 164 248 214 248 L364 248 L364 133 C364 84 322 49 273 49 L214 49 Z M131 451 C177 461 204 466 236 466 C362 466 364 379 364 336 L364 302 L211 302 C131 302 70 252 70 166 L70 123 C70 38 131 -5 211 -5 L259 -5 C298 -5 335 7 356 34 L364 34 L364 11 C364 4 368 0 375 0 L412 0 C419 0 423 4 423 11 L423 342 C423 387 418 520 246 520 C176 520 148 512 118 504 C114 502 112 500 112 495 C112 495 111 493 120 457 C122 451 126 451 131 451 L131 451 Z M268 571 C344 571 383 608 403 678 C403 683 399 687 394 687 L352 687 C347 687 344 683 342 678 C324 628 307 619 268 619 C229 619 212 628 194 678 C192 683 189 687 184 687 L142 687 C137 687 133 683 133 678 C153 608 192 571 268 571 L268 571 Z " />
<glyph glyph-name="Aogonek" unicode="&#x104;" horiz-adv-x="584" d="M287 631 L297 631 L425 191 L158 191 L287 631 Z M471 34 L459 34 C419 34 393 -3 393 -37 C393 -89 423 -109 469 -109 L517 -109 C521 -109 524 -106 524 -102 L524 -82 C524 -77 521 -75 517 -75 L463 -75 C463 -75 428 -75 428 -38 C428 0 463 0 463 0 L528 0 C535 0 539 4 539 11 L341 692 C339 697 336 700 330 700 L254 700 C248 700 245 697 243 692 L45 11 C45 4 49 0 56 0 L94 0 C101 0 104 4 106 11 L143 138 L441 138 L471 34 Z " />
<glyph glyph-name="aogonek" unicode="&#x105;" horiz-adv-x="498" d="M214 49 C164 49 129 84 129 133 L129 165 C129 215 164 248 214 248 L364 248 L364 133 C364 84 322 49 273 49 L214 49 Z M423 342 C423 387 418 520 246 520 C176 520 148 512 118 504 C114 502 112 500 112 495 C112 495 111 493 120 457 C122 451 126 451 131 451 C177 461 204 466 236 466 C362 466 364 379 364 336 L364 302 L211 302 C131 302 70 252 70 166 L70 123 C70 38 131 -5 211 -5 L259 -5 C298 -5 335 7 356 34 L364 34 L364 -19 C331 -24 306 -47 306 -80 C306 -132 336 -144 377 -144 L414 -144 C418 -144 421 -141 421 -137 L421 -117 C421 -112 418 -110 414 -110 L377 -110 C377 -110 342 -110 342 -82 C342 -52 377 -52 377 -52 L416 -52 C420 -52 423 -49 423 -45 L423 342 Z " />
<glyph glyph-name="Cacute" unicode="&#x106;" horiz-adv-x="570" d="M318 751 C325 751 328 755 332 763 L378 865 C378 873 374 877 367 877 L330 877 C323 877 320 873 316 865 L270 763 C270 755 274 751 282 751 L318 751 Z M446 160 C446 93 405 49 337 49 L248 49 C180 49 139 93 139 160 L139 541 C139 608 180 651 248 651 L337 651 C405 651 446 608 446 541 L446 504 C446 497 450 493 457 493 L494 493 C501 493 505 497 505 504 L505 556 C505 638 435 705 350 705 L235 705 C150 705 80 638 80 556 L80 144 C80 62 150 -5 235 -5 L350 -5 C435 -5 505 62 505 144 L505 196 C505 203 501 207 494 207 L457 207 C450 207 446 203 446 196 L446 160 Z " />
<glyph glyph-name="cacute" unicode="&#x107;" horiz-adv-x="482" d="M278 571 C285 571 288 575 292 583 L338 685 C338 693 334 697 327 697 L290 697 C283 697 280 693 276 685 L230 583 C230 575 234 571 242 571 L278 571 Z M427 156 C427 163 423 167 416 167 L379 167 C372 167 368 163 368 156 L368 141 C368 94 321 49 274 49 L228 49 C181 49 134 94 134 141 L134 374 C134 424 169 466 227 466 L275 466 C333 466 368 424 368 374 L368 359 C368 352 372 348 379 348 L416 348 C423 348 427 352 427 359 L427 384 C427 450 375 520 294 520 L208 520 C127 520 75 450 75 384 L75 131 C75 65 127 -5 208 -5 L294 -5 C375 -5 427 65 427 131 L427 156 Z " />
<glyph glyph-name="Ccircumflex" unicode="&#x108;" horiz-adv-x="570" d="M266 894 C260 894 256 890 253 883 L192 759 C192 754 195 751 200 751 L238 751 C241 751 244 755 246 759 L294 854 L342 759 C344 755 347 751 350 751 L388 751 C393 751 396 754 396 759 L335 883 C332 890 328 894 322 894 L266 894 Z M446 160 C446 93 405 49 337 49 L248 49 C180 49 139 93 139 160 L139 541 C139 608 180 651 248 651 L337 651 C405 651 446 608 446 541 L446 504 C446 497 450 493 457 493 L494 493 C501 493 505 497 505 504 L505 556 C505 638 435 705 350 705 L235 705 C150 705 80 638 80 556 L80 144 C80 62 150 -5 235 -5 L350 -5 C435 -5 505 62 505 144 L505 196 C505 203 501 207 494 207 L457 207 C450 207 446 203 446 196 L446 160 Z " />
<glyph glyph-name="ccircumflex" unicode="&#x109;" horiz-adv-x="482" d="M221 714 C215 714 211 710 208 703 L147 579 C147 574 150 571 155 571 L193 571 C196 571 199 575 201 579 L249 674 L297 579 C299 575 302 571 305 571 L343 571 C348 571 351 574 351 579 L290 703 C287 710 283 714 277 714 L221 714 Z M427 156 C427 163 423 167 416 167 L379 167 C372 167 368 163 368 156 L368 141 C368 94 321 49 274 49 L228 49 C181 49 134 94 134 141 L134 374 C134 424 169 466 227 466 L275 466 C333 466 368 424 368 374 L368 359 C368 352 372 348 379 348 L416 348 C423 348 427 352 427 359 L427 384 C427 450 375 520 294 520 L208 520 C127 520 75 450 75 384 L75 131 C75 65 127 -5 208 -5 L294 -5 C375 -5 427 65 427 131 L427 156 Z " />
<glyph glyph-name="Cdotaccent" unicode="&#x10a;" horiz-adv-x="570" d="M264 762 C264 755 268 751 275 751 L321 751 C328 751 332 755 332 762 L332 811 C332 818 328 822 321 822 L275 822 C268 822 264 818 264 811 L264 762 Z M446 160 C446 93 405 49 337 49 L248 49 C180 49 139 93 139 160 L139 541 C139 608 180 651 248 651 L337 651 C405 651 446 608 446 541 L446 504 C446 497 450 493 457 493 L494 493 C501 493 505 497 505 504 L505 556 C505 638 435 705 350 705 L235 705 C150 705 80 638 80 556 L80 144 C80 62 150 -5 235 -5 L350 -5 C435 -5 505 62 505 144 L505 196 C505 203 501 207 494 207 L457 207 C450 207 446 203 446 196 L446 160 Z " />
<glyph glyph-name="cdotaccent" unicode="&#x10b;" horiz-adv-x="482" d="M221 582 C221 575 225 571 232 571 L278 571 C285 571 289 575 289 582 L289 631 C289 638 285 642 278 642 L232 642 C225 642 221 638 221 631 L221 582 Z M427 156 C427 163 423 167 416 167 L379 167 C372 167 368 163 368 156 L368 141 C368 94 321 49 274 49 L228 49 C181 49 134 94 134 141 L134 374 C134 424 169 466 227 466 L275 466 C333 466 368 424 368 374 L368 359 C368 352 372 348 379 348 L416 348 C423 348 427 352 427 359 L427 384 C427 450 375 520 294 520 L208 520 C127 520 75 450 75 384 L75 131 C75 65 127 -5 208 -5 L294 -5 C375 -5 427 65 427 131 L427 156 Z " />
<glyph glyph-name="Ccaron" unicode="&#x10c;" horiz-adv-x="570" d="M317 751 C323 751 327 755 330 762 L391 886 C391 891 388 894 383 894 L345 894 C342 894 339 890 337 886 L289 791 L241 886 C239 890 236 894 233 894 L195 894 C190 894 187 891 187 886 L248 762 C251 755 255 751 261 751 L317 751 Z M446 160 C446 93 405 49 337 49 L248 49 C180 49 139 93 139 160 L139 541 C139 608 180 651 248 651 L337 651 C405 651 446 608 446 541 L446 504 C446 497 450 493 457 493 L494 493 C501 493 505 497 505 504 L505 556 C505 638 435 705 350 705 L235 705 C150 705 80 638 80 556 L80 144 C80 62 150 -5 235 -5 L350 -5 C435 -5 505 62 505 144 L505 196 C505 203 501 207 494 207 L457 207 C450 207 446 203 446 196 L446 160 Z " />
<glyph glyph-name="ccaron" unicode="&#x10d;" horiz-adv-x="482" d="M278 571 C284 571 288 575 291 582 L352 706 C352 711 349 714 344 714 L306 714 C303 714 300 710 298 706 L250 611 L202 706 C200 710 197 714 194 714 L156 714 C151 714 148 711 148 706 L209 582 C212 575 216 571 222 571 L278 571 Z M427 156 C427 163 423 167 416 167 L379 167 C372 167 368 163 368 156 L368 141 C368 94 321 49 274 49 L228 49 C181 49 134 94 134 141 L134 374 C134 424 169 466 227 466 L275 466 C333 466 368 424 368 374 L368 359 C368 352 372 348 379 348 L416 348 C423 348 427 352 427 359 L427 384 C427 450 375 520 294 520 L208 520 C127 520 75 450 75 384 L75 131 C75 65 127 -5 208 -5 L294 -5 C375 -5 427 65 427 131 L427 156 Z " />
<glyph glyph-name="Dcaron" unicode="&#x10e;" horiz-adv-x="595" d="M291 751 C297 751 301 755 304 762 L365 886 C365 891 362 894 357 894 L319 894 C316 894 313 890 311 886 L263 791 L215 886 C213 890 210 894 207 894 L169 894 C164 894 161 891 161 886 L222 762 C225 755 229 751 235 751 L291 751 Z M149 54 L149 646 L348 646 C416 646 457 602 457 535 L457 165 C457 98 416 54 348 54 L149 54 Z M101 700 C94 700 90 696 90 689 L90 11 C90 4 94 0 101 0 L360 0 C445 0 515 67 515 149 L515 551 C515 633 445 700 360 700 L101 700 Z " />
<glyph glyph-name="dcaron" unicode="&#x10f;" horiz-adv-x="749" d="M659 574 C666 574 669 578 673 586 L719 688 C719 696 715 700 708 700 L671 700 C664 700 661 696 657 688 L611 586 C611 578 615 574 623 574 L659 574 Z M378 11 C378 4 382 0 389 0 L426 0 C433 0 437 4 437 11 L437 689 C437 696 433 700 426 700 L389 700 C382 700 378 696 378 689 L378 477 L371 477 C347 510 310 520 282 520 L211 520 C130 520 70 461 70 382 L70 133 C70 54 130 -5 211 -5 L282 -5 C310 -5 347 5 371 38 L378 38 L378 11 Z M222 49 C164 49 129 91 129 141 L129 374 C129 424 164 466 222 466 L270 466 C328 466 376 417 376 367 L376 148 C376 98 328 49 270 49 L222 49 Z " />
<glyph glyph-name="Dcroat" unicode="&#x110;" horiz-adv-x="616" d="M122 700 C115 700 111 696 111 689 L111 378 L41 378 C34 378 30 374 30 367 L30 335 C30 328 34 324 41 324 L111 324 L111 11 C111 4 115 0 122 0 L381 0 C466 0 536 67 536 149 L536 551 C536 633 466 700 381 700 L122 700 Z M170 54 L170 324 L247 324 C254 324 258 328 258 335 L258 367 C258 374 254 378 247 378 L170 378 L170 646 L369 646 C437 646 478 602 478 535 L478 165 C478 98 437 54 369 54 L170 54 Z " />
<glyph glyph-name="dcroat" unicode="&#x111;" horiz-adv-x="525" d="M378 577 L378 477 L371 477 C347 510 310 520 282 520 L211 520 C130 520 70 461 70 382 L70 133 C70 54 130 -5 211 -5 L282 -5 C310 -5 347 5 371 38 L378 38 L378 11 C378 4 382 0 389 0 L426 0 C433 0 437 4 437 11 L437 577 L484 577 C491 577 495 581 495 588 L495 620 C495 627 491 631 484 631 L437 631 L437 689 C437 696 433 700 426 700 L389 700 C382 700 378 696 378 689 L378 631 L286 631 C279 631 275 627 275 620 L275 588 C275 581 279 577 286 577 L378 577 Z M222 49 C164 49 129 91 129 141 L129 374 C129 424 164 466 222 466 L270 466 C328 466 376 417 376 367 L376 148 C376 98 328 49 270 49 L222 49 Z " />
<glyph glyph-name="Emacron" unicode="&#x112;" horiz-adv-x="515" d="M358 751 C365 751 369 755 369 762 L369 794 C369 801 365 805 358 805 L152 805 C145 805 141 801 141 794 L141 762 C141 755 145 751 152 751 L358 751 Z M90 11 C90 4 94 0 101 0 L424 0 C431 0 435 4 435 11 L435 43 C435 50 431 54 424 54 L149 54 L149 310 L398 310 C405 310 409 314 409 321 L409 353 C409 360 405 364 398 364 L149 364 L149 646 L424 646 C431 646 435 650 435 657 L435 689 C435 696 431 700 424 700 L101 700 C94 700 90 696 90 689 L90 11 Z " />
<glyph glyph-name="emacron" unicode="&#x113;" horiz-adv-x="497" d="M352 571 C359 571 363 575 363 582 L363 614 C363 621 359 625 352 625 L146 625 C139 625 135 621 135 614 L135 582 C135 575 139 571 146 571 L352 571 Z M360 73 C343 60 318 49 282 49 L228 49 C181 49 134 94 134 141 L134 229 L416 229 C423 229 427 233 427 240 L427 384 C427 450 375 520 294 520 L208 520 C127 520 75 450 75 384 L75 131 C75 65 127 -5 208 -5 L282 -5 C282 -5 353 -6 400 39 C402 42 403 43 403 45 C403 48 402 49 399 52 L377 76 C374 79 372 79 371 79 C367 79 362 74 360 73 L360 73 Z M134 374 C134 424 169 466 227 466 L275 466 C333 466 368 424 368 374 L368 283 L134 283 L134 374 Z " />
<glyph glyph-name="Edotaccent" unicode="&#x116;" horiz-adv-x="515" d="M228 762 C228 755 232 751 239 751 L285 751 C292 751 296 755 296 762 L296 811 C296 818 292 822 285 822 L239 822 C232 822 228 818 228 811 L228 762 Z M90 11 C90 4 94 0 101 0 L424 0 C431 0 435 4 435 11 L435 43 C435 50 431 54 424 54 L149 54 L149 310 L398 310 C405 310 409 314 409 321 L409 353 C409 360 405 364 398 364 L149 364 L149 646 L424 646 C431 646 435 650 435 657 L435 689 C435 696 431 700 424 700 L101 700 C94 700 90 696 90 689 L90 11 Z " />
<glyph glyph-name="edotaccent" unicode="&#x117;" horiz-adv-x="497" d="M217 582 C217 575 221 571 228 571 L274 571 C281 571 285 575 285 582 L285 631 C285 638 281 642 274 642 L228 642 C221 642 217 638 217 631 L217 582 Z M360 73 C343 60 318 49 282 49 L228 49 C181 49 134 94 134 141 L134 229 L416 229 C423 229 427 233 427 240 L427 384 C427 450 375 520 294 520 L208 520 C127 520 75 450 75 384 L75 131 C75 65 127 -5 208 -5 L282 -5 C282 -5 353 -6 400 39 C402 42 403 43 403 45 C403 48 402 49 399 52 L377 76 C374 79 372 79 371 79 C367 79 362 74 360 73 L360 73 Z M134 374 C134 424 169 466 227 466 L275 466 C333 466 368 424 368 374 L368 283 L134 283 L134 374 Z " />
<glyph glyph-name="Eogonek" unicode="&#x118;" horiz-adv-x="515" d="M290 0 C284 -13 279 -34 279 -51 C279 -97 299 -118 339 -118 L404 -118 C408 -118 411 -115 411 -111 L411 -91 C411 -86 408 -84 404 -84 L350 -84 C350 -84 315 -84 315 -51 C315 -27 323 -10 331 0 L424 0 C431 0 435 4 435 11 L435 43 C435 50 431 54 424 54 L149 54 L149 310 L398 310 C405 310 409 314 409 321 L409 353 C409 360 405 364 398 364 L149 364 L149 646 L424 646 C431 646 435 650 435 657 L435 689 C435 696 431 700 424 700 L101 700 C94 700 90 696 90 689 L90 11 C90 4 94 0 101 0 L290 0 Z " />
<glyph glyph-name="eogonek" unicode="&#x119;" horiz-adv-x="497" d="M360 73 C343 60 318 49 282 49 L228 49 C181 49 134 94 134 141 L134 229 L416 229 C423 229 427 233 427 240 L427 384 C427 450 375 520 294 520 L208 520 C127 520 75 450 75 384 L75 131 C75 69 120 4 192 -4 C187 -17 181 -35 181 -51 C181 -97 201 -118 241 -118 L306 -118 C310 -118 313 -115 313 -111 L313 -91 C313 -86 310 -84 306 -84 L252 -84 C252 -84 217 -84 217 -51 C217 -27 225 -15 233 -5 L282 -5 C282 -5 353 -6 400 39 C402 42 403 43 403 45 C403 48 402 49 399 52 L377 76 C374 79 372 79 371 79 C367 79 362 74 360 73 L360 73 Z M134 374 C134 424 169 466 227 466 L275 466 C333 466 368 424 368 374 L368 283 L134 283 L134 374 Z " />
<glyph glyph-name="Ecaron" unicode="&#x11a;" horiz-adv-x="515" d="M290 751 C296 751 300 755 303 762 L364 886 C364 891 361 894 356 894 L318 894 C315 894 312 890 310 886 L262 791 L214 886 C212 890 209 894 206 894 L168 894 C163 894 160 891 160 886 L221 762 C224 755 228 751 234 751 L290 751 Z M90 11 C90 4 94 0 101 0 L424 0 C431 0 435 4 435 11 L435 43 C435 50 431 54 424 54 L149 54 L149 310 L398 310 C405 310 409 314 409 321 L409 353 C409 360 405 364 398 364 L149 364 L149 646 L424 646 C431 646 435 650 435 657 L435 689 C435 696 431 700 424 700 L101 700 C94 700 90 696 90 689 L90 11 Z " />
<glyph glyph-name="ecaron" unicode="&#x11b;" horiz-adv-x="497" d="M281 571 C287 571 291 575 294 582 L355 706 C355 711 352 714 347 714 L309 714 C306 714 303 710 301 706 L253 611 L205 706 C203 710 200 714 197 714 L159 714 C154 714 151 711 151 706 L212 582 C215 575 219 571 225 571 L281 571 Z M360 73 C343 60 318 49 282 49 L228 49 C181 49 134 94 134 141 L134 229 L416 229 C423 229 427 233 427 240 L427 384 C427 450 375 520 294 520 L208 520 C127 520 75 450 75 384 L75 131 C75 65 127 -5 208 -5 L282 -5 C282 -5 353 -6 400 39 C402 42 403 43 403 45 C403 48 402 49 399 52 L377 76 C374 79 372 79 371 79 C367 79 362 74 360 73 L360 73 Z M134 374 C134 424 169 466 227 466 L275 466 C333 466 368 424 368 374 L368 283 L134 283 L134 374 Z " />
<glyph glyph-name="Gcircumflex" unicode="&#x11c;" horiz-adv-x="585" d="M264 894 C258 894 254 890 251 883 L190 759 C190 754 193 751 198 751 L236 751 C239 751 242 755 244 759 L292 854 L340 759 C342 755 345 751 348 751 L386 751 C391 751 394 754 394 759 L333 883 C330 890 326 894 320 894 L264 894 Z M309 370 C302 370 298 366 298 359 L298 327 C298 320 302 316 309 316 L446 316 L446 160 C446 93 405 49 337 49 L248 49 C180 49 139 93 139 160 L139 541 C139 608 180 651 248 651 L337 651 C405 651 446 608 446 541 L446 504 C446 497 450 493 457 493 L494 493 C501 493 505 497 505 504 L505 556 C505 638 435 705 350 705 L235 705 C150 705 80 638 80 556 L80 144 C80 62 150 -5 235 -5 L350 -5 C435 -5 505 62 505 144 L505 359 C505 366 501 370 494 370 L309 370 Z " />
<glyph glyph-name="gcircumflex" unicode="&#x11d;" horiz-adv-x="527" d="M218 714 C212 714 208 710 205 703 L144 579 C144 574 147 571 152 571 L190 571 C193 571 196 575 198 579 L246 674 L294 579 C296 575 299 571 302 571 L340 571 C345 571 348 574 348 579 L287 703 C284 710 280 714 274 714 L218 714 Z M222 49 C164 49 129 91 129 141 L129 374 C129 424 164 466 222 466 L270 466 C328 466 376 417 376 367 L376 148 C376 98 328 49 270 49 L222 49 Z M378 -33 C378 -80 358 -149 249 -149 C195 -149 165 -145 135 -140 C132 -140 128 -140 127 -147 L121 -181 C121 -186 123 -188 128 -190 C159 -198 186 -203 245 -203 C424 -203 437 -80 437 -40 L437 504 C437 511 433 515 426 515 L389 515 C382 515 378 511 378 504 L378 477 L371 477 C347 510 310 520 282 520 L211 520 C130 520 70 461 70 382 L70 133 C70 54 130 -5 211 -5 L282 -5 C310 -5 347 5 371 38 L378 38 L378 -33 Z " />
<glyph glyph-name="Gbreve" unicode="&#x11e;" horiz-adv-x="585" d="M309 370 C302 370 298 366 298 359 L298 327 C298 320 302 316 309 316 L446 316 L446 160 C446 93 405 49 337 49 L248 49 C180 49 139 93 139 160 L139 541 C139 608 180 651 248 651 L337 651 C405 651 446 608 446 541 L446 504 C446 497 450 493 457 493 L494 493 C501 493 505 497 505 504 L505 556 C505 638 435 705 350 705 L235 705 C150 705 80 638 80 556 L80 144 C80 62 150 -5 235 -5 L350 -5 C435 -5 505 62 505 144 L505 359 C505 366 501 370 494 370 L309 370 Z M293 751 C369 751 408 788 428 858 C428 863 424 867 419 867 L377 867 C372 867 369 863 367 858 C349 808 332 799 293 799 C254 799 237 808 219 858 C217 863 214 867 209 867 L167 867 C162 867 158 863 158 858 C178 788 217 751 293 751 L293 751 Z " />
<glyph glyph-name="gbreve" unicode="&#x11f;" horiz-adv-x="527" d="M222 49 C164 49 129 91 129 141 L129 374 C129 424 164 466 222 466 L270 466 C328 466 376 417 376 367 L376 148 C376 98 328 49 270 49 L222 49 Z M378 -33 C378 -80 358 -149 249 -149 C195 -149 165 -145 135 -140 C132 -140 128 -140 127 -147 L121 -181 C121 -186 123 -188 128 -190 C159 -198 186 -203 245 -203 C424 -203 437 -80 437 -40 L437 504 C437 511 433 515 426 515 L389 515 C382 515 378 511 378 504 L378 477 L371 477 C347 510 310 520 282 520 L211 520 C130 520 70 461 70 382 L70 133 C70 54 130 -5 211 -5 L282 -5 C310 -5 347 5 371 38 L378 38 L378 -33 Z M248 571 C324 571 363 608 383 678 C383 683 379 687 374 687 L332 687 C327 687 324 683 322 678 C304 628 287 619 248 619 C209 619 192 628 174 678 C172 683 169 687 164 687 L122 687 C117 687 113 683 113 678 C133 608 172 571 248 571 L248 571 Z " />
<glyph glyph-name="Gdotaccent" unicode="&#x120;" horiz-adv-x="585" d="M258 762 C258 755 262 751 269 751 L315 751 C322 751 326 755 326 762 L326 811 C326 818 322 822 315 822 L269 822 C262 822 258 818 258 811 L258 762 Z M309 370 C302 370 298 366 298 359 L298 327 C298 320 302 316 309 316 L446 316 L446 160 C446 93 405 49 337 49 L248 49 C180 49 139 93 139 160 L139 541 C139 608 180 651 248 651 L337 651 C405 651 446 608 446 541 L446 504 C446 497 450 493 457 493 L494 493 C501 493 505 497 505 504 L505 556 C505 638 435 705 350 705 L235 705 C150 705 80 638 80 556 L80 144 C80 62 150 -5 235 -5 L350 -5 C435 -5 505 62 505 144 L505 359 C505 366 501 370 494 370 L309 370 Z " />
<glyph glyph-name="gdotaccent" unicode="&#x121;" horiz-adv-x="527" d="M217 582 C217 575 221 571 228 571 L274 571 C281 571 285 575 285 582 L285 631 C285 638 281 642 274 642 L228 642 C221 642 217 638 217 631 L217 582 Z M222 49 C164 49 129 91 129 141 L129 374 C129 424 164 466 222 466 L270 466 C328 466 376 417 376 367 L376 148 C376 98 328 49 270 49 L222 49 Z M378 -33 C378 -80 358 -149 249 -149 C195 -149 165 -145 135 -140 C132 -140 128 -140 127 -147 L121 -181 C121 -186 123 -188 128 -190 C159 -198 186 -203 245 -203 C424 -203 437 -80 437 -40 L437 504 C437 511 433 515 426 515 L389 515 C382 515 378 511 378 504 L378 477 L371 477 C347 510 310 520 282 520 L211 520 C130 520 70 461 70 382 L70 133 C70 54 130 -5 211 -5 L282 -5 C310 -5 347 5 371 38 L378 38 L378 -33 Z " />
<glyph glyph-name="uni0122" unicode="&#x122;" horiz-adv-x="585" d="M273 -179 C280 -179 283 -175 287 -167 L333 -65 C333 -57 329 -53 322 -53 L285 -53 C278 -53 275 -57 271 -65 L225 -167 C225 -175 229 -179 237 -179 L273 -179 Z M309 370 C302 370 298 366 298 359 L298 327 C298 320 302 316 309 316 L446 316 L446 160 C446 93 405 49 337 49 L248 49 C180 49 139 93 139 160 L139 541 C139 608 180 651 248 651 L337 651 C405 651 446 608 446 541 L446 504 C446 497 450 493 457 493 L494 493 C501 493 505 497 505 504 L505 556 C505 638 435 705 350 705 L235 705 C150 705 80 638 80 556 L80 144 C80 62 150 -5 235 -5 L350 -5 C435 -5 505 62 505 144 L505 359 C505 366 501 370 494 370 L309 370 Z " />
<glyph glyph-name="uni0123" unicode="&#x123;" horiz-adv-x="527" d="M272 571 C279 571 282 575 286 583 L332 685 C332 693 328 697 321 697 L284 697 C277 697 274 693 270 685 L224 583 C224 575 228 571 236 571 L272 571 Z M222 49 C164 49 129 91 129 141 L129 374 C129 424 164 466 222 466 L270 466 C328 466 376 417 376 367 L376 148 C376 98 328 49 270 49 L222 49 Z M378 -33 C378 -80 358 -149 249 -149 C195 -149 165 -145 135 -140 C132 -140 128 -140 127 -147 L121 -181 C121 -186 123 -188 128 -190 C159 -198 186 -203 245 -203 C424 -203 437 -80 437 -40 L437 504 C437 511 433 515 426 515 L389 515 C382 515 378 511 378 504 L378 477 L371 477 C347 510 310 520 282 520 L211 520 C130 520 70 461 70 382 L70 133 C70 54 130 -5 211 -5 L282 -5 C310 -5 347 5 371 38 L378 38 L378 -33 Z " />
<glyph glyph-name="Hcircumflex" unicode="&#x124;" horiz-adv-x="598" d="M271 894 C265 894 261 890 258 883 L197 759 C197 754 200 751 205 751 L243 751 C246 751 249 755 251 759 L299 854 L347 759 C349 755 352 751 355 751 L393 751 C398 751 401 754 401 759 L340 883 C337 890 333 894 327 894 L271 894 Z M449 11 C449 4 453 0 460 0 L497 0 C504 0 508 4 508 11 L508 689 C508 696 504 700 497 700 L460 700 C453 700 449 696 449 689 L449 363 L149 363 L149 689 C149 696 145 700 138 700 L101 700 C94 700 90 696 90 689 L90 11 C90 4 94 0 101 0 L138 0 C145 0 149 4 149 11 L149 309 L449 309 L449 11 Z " />
<glyph glyph-name="hcircumflex" unicode="&#x125;" horiz-adv-x="534" d="M167 894 C161 894 157 890 154 883 L93 759 C93 754 96 751 101 751 L139 751 C142 751 145 755 147 759 L195 854 L243 759 C245 755 248 751 251 751 L289 751 C294 751 297 754 297 759 L236 883 C233 890 229 894 223 894 L167 894 Z M90 11 C90 4 94 0 101 0 L138 0 C145 0 149 4 149 11 L149 366 C198 465 257 466 292 466 L300 466 C351 466 395 424 395 356 L395 11 C395 4 399 0 406 0 L443 0 C450 0 454 4 454 11 L454 368 C454 458 394 520 301 520 L273 520 C253 520 190 519 156 455 L149 455 L149 689 C149 696 145 700 138 700 L101 700 C94 700 90 696 90 689 L90 11 Z " />
<glyph glyph-name="Hbar" unicode="&#x126;" horiz-adv-x="598" d="M557 490 C564 490 568 494 568 501 L568 533 C568 540 564 544 557 544 L508 544 L508 689 C508 696 504 700 497 700 L460 700 C453 700 449 696 449 689 L449 544 L149 544 L149 689 C149 696 145 700 138 700 L101 700 C94 700 90 696 90 689 L90 544 L41 544 C34 544 30 540 30 533 L30 501 C30 494 34 490 41 490 L90 490 L90 11 C90 4 94 0 101 0 L138 0 C145 0 149 4 149 11 L149 309 L449 309 L449 11 C449 4 453 0 460 0 L497 0 C504 0 508 4 508 11 L508 490 L557 490 Z M149 363 L149 490 L449 490 L449 363 L149 363 Z " />
<glyph glyph-name="hbar" unicode="&#x127;" horiz-adv-x="532" d="M147 577 L239 577 C246 577 250 581 250 588 L250 620 C250 627 246 631 239 631 L147 631 L147 689 C147 696 143 700 136 700 L99 700 C92 700 88 696 88 689 L88 631 L41 631 C34 631 30 627 30 620 L30 588 C30 581 34 577 41 577 L88 577 L88 11 C88 4 92 0 99 0 L136 0 C143 0 147 4 147 11 L147 366 C196 465 255 466 290 466 L298 466 C349 466 393 424 393 356 L393 11 C393 4 397 0 404 0 L441 0 C448 0 452 4 452 11 L452 368 C452 458 392 520 299 520 L271 520 C251 520 188 519 154 455 L147 455 L147 577 Z " />
<glyph glyph-name="Itilde" unicode="&#x128;" horiz-adv-x="239" d="M185 751 C195 751 211 757 227 764 C231 766 233 770 233 774 L224 805 C223 809 220 811 216 811 C205 811 196 805 181 805 C122 805 109 845 53 845 C43 845 27 839 11 832 C7 830 5 826 5 822 L14 791 C15 787 18 785 22 785 C33 785 42 791 57 791 C114 791 129 751 185 751 L185 751 Z M149 689 C149 692 148 695 146 697 C144 699 142 700 138 700 L101 700 C97 700 95 699 93 697 C91 695 90 692 90 689 L90 11 C90 8 91 5 93 3 C95 1 97 0 101 0 L138 0 C142 0 144 1 146 3 C148 5 149 8 149 11 L149 689 Z " />
<glyph glyph-name="itilde" unicode="&#x129;" horiz-adv-x="239" d="M90 11 C90 4 94 0 101 0 L138 0 C145 0 149 4 149 11 L149 504 C149 511 145 515 138 515 L101 515 C94 515 90 511 90 504 L90 11 Z M185 571 C195 571 211 577 227 584 C231 586 233 590 233 594 L224 625 C223 629 220 631 216 631 C205 631 196 625 181 625 C122 625 109 665 53 665 C43 665 27 659 11 652 C7 650 5 646 5 642 L14 611 C15 607 18 605 22 605 C33 605 42 611 57 611 C114 611 129 571 185 571 L185 571 Z " />
<glyph glyph-name="Imacron" unicode="&#x12a;" horiz-adv-x="239" d="M222 751 C229 751 233 755 233 762 L233 794 C233 801 229 805 222 805 L16 805 C9 805 5 801 5 794 L5 762 C5 755 9 751 16 751 L222 751 Z M149 689 C149 692 148 695 146 697 C144 699 142 700 138 700 L101 700 C97 700 95 699 93 697 C91 695 90 692 90 689 L90 11 C90 8 91 5 93 3 C95 1 97 0 101 0 L138 0 C142 0 144 1 146 3 C148 5 149 8 149 11 L149 689 Z " />
<glyph glyph-name="imacron" unicode="&#x12b;" horiz-adv-x="239" d="M90 11 C90 4 94 0 101 0 L138 0 C145 0 149 4 149 11 L149 504 C149 511 145 515 138 515 L101 515 C94 515 90 511 90 504 L90 11 Z M206 571 C213 571 217 575 217 582 L217 614 C217 621 213 625 206 625 L32 625 C25 625 21 621 21 614 L21 582 C21 575 25 571 32 571 L206 571 Z " />
<glyph glyph-name="Iogonek" unicode="&#x12e;" horiz-adv-x="239" d="M149 689 C149 696 145 700 138 700 L101 700 C94 700 90 696 90 689 L90 34 C55 30 33 0 33 -31 C33 -83 63 -93 109 -93 L157 -93 C161 -93 164 -90 164 -86 L164 -66 C164 -61 161 -59 157 -59 L103 -59 C103 -59 68 -59 68 -32 C68 1 102 0 102 0 L138 0 C145 0 149 4 149 11 L149 689 Z " />
<glyph glyph-name="iogonek" unicode="&#x12f;" horiz-adv-x="239" d="M87 589 C87 582 91 578 98 578 L141 578 C148 578 152 582 152 589 L152 657 C152 664 148 668 141 668 L98 668 C91 668 87 664 87 657 L87 589 Z M90 34 C55 30 33 0 33 -31 C33 -83 63 -93 109 -93 L157 -93 C161 -93 164 -90 164 -86 L164 -66 C164 -61 161 -59 157 -59 L103 -59 C103 -59 68 -59 68 -32 C68 1 102 0 102 0 L138 0 C145 0 149 4 149 11 L149 504 C149 511 145 515 138 515 L101 515 C94 515 90 511 90 504 L90 34 Z " />
<glyph glyph-name="Idotaccent" unicode="&#x130;" horiz-adv-x="239" d="M90 11 C90 4 94 0 101 0 L138 0 C145 0 149 4 149 11 L149 560 C149 567 145 571 138 571 L101 571 C94 571 90 567 90 560 L90 11 Z M87 645 C87 638 91 634 98 634 L141 634 C148 634 152 638 152 645 L152 713 C152 720 148 724 141 724 L98 724 C91 724 87 720 87 713 L87 645 Z " />
<glyph glyph-name="dotlessi" unicode="&#x131;" horiz-adv-x="239" d="M90 11 C90 4 94 0 101 0 L138 0 C145 0 149 4 149 11 L149 504 C149 511 145 515 138 515 L101 515 C94 515 90 511 90 504 L90 11 Z " />
<glyph glyph-name="Jcircumflex" unicode="&#x134;" horiz-adv-x="418" d="M218 894 C212 894 208 890 205 883 L144 759 C144 754 147 751 152 751 L190 751 C193 751 196 755 198 759 L246 854 L294 759 C296 755 299 751 302 751 L340 751 C345 751 348 754 348 759 L287 883 C284 890 280 894 274 894 L218 894 Z M22 36 C51 17 93 -5 160 -5 C291 -5 348 72 348 154 L348 689 C348 696 344 700 337 700 L300 700 C293 700 289 696 289 689 L289 164 C289 149 288 49 154 49 C126 49 97 55 62 76 C58 78 57 79 54 79 C52 79 49 78 47 76 L23 50 C21 48 20 45 20 42 C20 39 20 38 22 36 L22 36 Z " />
<glyph glyph-name="jcircumflex" unicode="&#x135;" horiz-adv-x="239" d="M-2 -124 C-6 -126 -7 -129 -7 -136 L9 -176 C11 -180 15 -182 18 -182 C19 -182 21 -182 23 -181 C68 -161 149 -107 149 -2 L149 504 C149 511 145 515 138 515 L101 515 C94 515 90 511 90 504 L90 3 C90 3 86 -76 -2 -124 L-2 -124 Z M91 711 C85 711 81 707 78 700 L17 576 C17 571 20 568 25 568 L63 568 C66 568 69 572 71 576 L119 671 L167 576 C169 572 172 568 175 568 L213 568 C218 568 221 571 221 576 L160 700 C157 707 153 711 147 711 L91 711 Z " />
<glyph glyph-name="uni0136" unicode="&#x136;" horiz-adv-x="549" d="M267 -179 C274 -179 277 -175 281 -167 L327 -65 C327 -57 323 -53 316 -53 L279 -53 C272 -53 269 -57 265 -65 L219 -167 C219 -175 223 -179 231 -179 L267 -179 Z M434 8 C436 4 438 0 444 0 L490 0 C495 0 498 3 498 8 L362 348 L498 692 C498 697 495 700 490 700 L445 700 C439 700 437 696 435 692 L310 376 L149 376 L149 689 C149 696 145 700 138 700 L101 700 C94 700 90 696 90 689 L90 11 C90 4 94 0 101 0 L138 0 C145 0 149 4 149 11 L149 322 L306 322 L434 8 Z " />
<glyph glyph-name="uni0137" unicode="&#x137;" horiz-adv-x="491" d="M228 -179 C235 -179 238 -175 242 -167 L288 -65 C288 -57 284 -53 277 -53 L240 -53 C233 -53 230 -57 226 -65 L180 -167 C180 -175 184 -179 192 -179 L228 -179 Z M386 8 C388 4 392 0 397 0 L443 0 C448 0 451 3 451 8 L345 274 L449 507 C449 512 446 515 441 515 L396 515 C391 515 387 511 385 507 L291 300 L149 300 L149 689 C149 696 145 700 138 700 L101 700 C94 700 90 696 90 689 L90 11 C90 4 94 0 101 0 L138 0 C145 0 149 4 149 11 L149 246 L292 246 L386 8 Z " />
<glyph glyph-name="kgreenlandic" unicode="&#x138;" horiz-adv-x="491" d="M386 8 C388 4 392 0 397 0 L443 0 C448 0 451 3 451 8 L345 274 L449 507 C449 512 446 515 441 515 L396 515 C391 515 387 511 385 507 L291 300 L149 300 L149 504 C149 511 145 515 138 515 L101 515 C94 515 90 511 90 504 L90 11 C90 4 94 0 101 0 L138 0 C145 0 149 4 149 11 L149 246 L292 246 L386 8 Z " />
<glyph glyph-name="Lacute" unicode="&#x139;" horiz-adv-x="485" d="M144 751 C151 751 154 755 158 763 L204 865 C204 873 200 877 193 877 L156 877 C149 877 146 873 142 865 L96 763 C96 755 100 751 108 751 L144 751 Z M90 11 C90 4 94 0 101 0 L424 0 C431 0 435 4 435 11 L435 43 C435 50 431 54 424 54 L149 54 L149 689 C149 696 145 700 138 700 L101 700 C94 700 90 696 90 689 L90 11 Z " />
<glyph glyph-name="lacute" unicode="&#x13a;" horiz-adv-x="239" d="M143 751 C150 751 153 755 157 763 L203 865 C203 873 199 877 192 877 L155 877 C148 877 145 873 141 865 L95 763 C95 755 99 751 107 751 L143 751 Z M149 689 C149 692 148 695 146 697 C144 699 142 700 138 700 L101 700 C97 700 95 699 93 697 C91 695 90 692 90 689 L90 11 C90 8 91 5 93 3 C95 1 97 0 101 0 L138 0 C142 0 144 1 146 3 C148 5 149 8 149 11 L149 689 Z " />
<glyph glyph-name="uni013B" unicode="&#x13b;" horiz-adv-x="485" d="M229 -179 C236 -179 239 -175 243 -167 L289 -65 C289 -57 285 -53 278 -53 L241 -53 C234 -53 231 -57 227 -65 L181 -167 C181 -175 185 -179 193 -179 L229 -179 Z M90 11 C90 4 94 0 101 0 L424 0 C431 0 435 4 435 11 L435 43 C435 50 431 54 424 54 L149 54 L149 689 C149 696 145 700 138 700 L101 700 C94 700 90 696 90 689 L90 11 Z " />
<glyph glyph-name="uni013C" unicode="&#x13c;" horiz-adv-x="239" d="M90 -179 C97 -179 100 -175 104 -167 L150 -65 C150 -57 146 -53 139 -53 L102 -53 C95 -53 92 -57 88 -65 L42 -167 C42 -175 46 -179 54 -179 L90 -179 Z M149 689 C149 692 148 695 146 697 C144 699 142 700 138 700 L101 700 C97 700 95 699 93 697 C91 695 90 692 90 689 L90 11 C90 8 91 5 93 3 C95 1 97 0 101 0 L138 0 C142 0 144 1 146 3 C148 5 149 8 149 11 L149 689 Z " />
<glyph glyph-name="Lcaron" unicode="&#x13d;" horiz-adv-x="519" d="M409 583 C416 583 419 587 423 595 L469 688 C469 696 465 700 458 700 L427 700 C420 700 417 696 413 688 L367 595 C367 587 371 583 379 583 L409 583 Z M90 11 C90 4 94 0 101 0 L424 0 C431 0 435 4 435 11 L435 43 C435 50 431 54 424 54 L149 54 L149 689 C149 696 145 700 138 700 L101 700 C94 700 90 696 90 689 L90 11 Z " />
<glyph glyph-name="lcaron" unicode="&#x13e;" horiz-adv-x="461" d="M371 574 C378 574 381 578 385 586 L431 688 C431 696 427 700 420 700 L383 700 C376 700 373 696 369 688 L323 586 C323 578 327 574 335 574 L371 574 Z M149 689 C149 692 148 695 146 697 C144 699 142 700 138 700 L101 700 C97 700 95 699 93 697 C91 695 90 692 90 689 L90 11 C90 8 91 5 93 3 C95 1 97 0 101 0 L138 0 C142 0 144 1 146 3 C148 5 149 8 149 11 L149 689 Z " />
<glyph glyph-name="Lslash" unicode="&#x141;" horiz-adv-x="507" d="M39 349 C34 347 30 344 30 338 L30 302 C30 297 34 293 39 293 L132 319 L132 11 C132 4 136 0 143 0 L466 0 C473 0 477 4 477 11 L477 43 C477 50 473 54 466 54 L191 54 L191 335 L284 360 C289 362 293 365 293 371 L293 407 C293 412 289 416 284 416 L191 391 L191 689 C191 696 187 700 180 700 L143 700 C136 700 132 696 132 689 L132 375 L39 349 Z " />
<glyph glyph-name="lslash" unicode="&#x142;" horiz-adv-x="323" d="M39 349 C34 347 30 344 30 338 L30 302 C30 297 34 293 39 293 L132 319 L132 11 C132 4 136 0 143 0 L180 0 C187 0 191 4 191 11 L191 335 L284 361 C289 363 293 366 293 372 L293 408 C293 413 289 417 284 417 L191 391 L191 689 C191 696 187 700 180 700 L143 700 C136 700 132 696 132 689 L132 375 L39 349 Z " />
<glyph glyph-name="Nacute" unicode="&#x143;" horiz-adv-x="637" d="M347 751 C354 751 357 755 361 763 L407 865 C407 873 403 877 396 877 L359 877 C352 877 349 873 345 865 L299 763 C299 755 303 751 311 751 L347 751 Z M480 93 L181 689 C178 695 173 700 166 700 L101 700 C94 700 90 696 90 689 L90 11 C90 4 94 0 101 0 L138 0 C145 0 149 4 149 11 L149 606 L157 606 L457 11 C460 5 465 0 472 0 L536 0 C543 0 547 4 547 11 L547 689 C547 696 543 700 536 700 L499 700 C492 700 488 696 488 689 L488 93 L480 93 Z " />
<glyph glyph-name="nacute" unicode="&#x144;" horiz-adv-x="534" d="M308 571 C315 571 318 575 322 583 L368 685 C368 693 364 697 357 697 L320 697 C313 697 310 693 306 685 L260 583 C260 575 264 571 272 571 L308 571 Z M90 11 C90 4 94 0 101 0 L138 0 C145 0 149 4 149 11 L149 366 C198 465 257 466 292 466 L300 466 C351 466 395 424 395 356 L395 11 C395 4 399 0 406 0 L443 0 C450 0 454 4 454 11 L454 368 C454 458 394 520 301 520 L273 520 C253 520 190 519 156 455 L149 455 L149 504 C149 511 145 515 138 515 L101 515 C94 515 90 511 90 504 L90 11 Z " />
<glyph glyph-name="uni0145" unicode="&#x145;" horiz-adv-x="637" d="M296 -179 C303 -179 306 -175 310 -167 L356 -65 C356 -57 352 -53 345 -53 L308 -53 C301 -53 298 -57 294 -65 L248 -167 C248 -175 252 -179 260 -179 L296 -179 Z M480 93 L181 689 C178 695 173 700 166 700 L101 700 C94 700 90 696 90 689 L90 11 C90 4 94 0 101 0 L138 0 C145 0 149 4 149 11 L149 606 L157 606 L457 11 C460 5 465 0 472 0 L536 0 C543 0 547 4 547 11 L547 689 C547 696 543 700 536 700 L499 700 C492 700 488 696 488 689 L488 93 L480 93 Z " />
<glyph glyph-name="uni0146" unicode="&#x146;" horiz-adv-x="534" d="M249 -179 C256 -179 259 -175 263 -167 L309 -65 C309 -57 305 -53 298 -53 L261 -53 C254 -53 251 -57 247 -65 L201 -167 C201 -175 205 -179 213 -179 L249 -179 Z M90 11 C90 4 94 0 101 0 L138 0 C145 0 149 4 149 11 L149 366 C198 465 257 466 292 466 L300 466 C351 466 395 424 395 356 L395 11 C395 4 399 0 406 0 L443 0 C450 0 454 4 454 11 L454 368 C454 458 394 520 301 520 L273 520 C253 520 190 519 156 455 L149 455 L149 504 C149 511 145 515 138 515 L101 515 C94 515 90 511 90 504 L90 11 Z " />
<glyph glyph-name="Ncaron" unicode="&#x147;" horiz-adv-x="637" d="M347 751 C353 751 357 755 360 762 L421 886 C421 891 418 894 413 894 L375 894 C372 894 369 890 367 886 L319 791 L271 886 C269 890 266 894 263 894 L225 894 C220 894 217 891 217 886 L278 762 C281 755 285 751 291 751 L347 751 Z M480 93 L181 689 C178 695 173 700 166 700 L101 700 C94 700 90 696 90 689 L90 11 C90 4 94 0 101 0 L138 0 C145 0 149 4 149 11 L149 606 L157 606 L457 11 C460 5 465 0 472 0 L536 0 C543 0 547 4 547 11 L547 689 C547 696 543 700 536 700 L499 700 C492 700 488 696 488 689 L488 93 L480 93 Z " />
<glyph glyph-name="ncaron" unicode="&#x148;" horiz-adv-x="534" d="M307 571 C313 571 317 575 320 582 L381 706 C381 711 378 714 373 714 L335 714 C332 714 329 710 327 706 L279 611 L231 706 C229 710 226 714 223 714 L185 714 C180 714 177 711 177 706 L238 582 C241 575 245 571 251 571 L307 571 Z M90 11 C90 4 94 0 101 0 L138 0 C145 0 149 4 149 11 L149 366 C198 465 257 466 292 466 L300 466 C351 466 395 424 395 356 L395 11 C395 4 399 0 406 0 L443 0 C450 0 454 4 454 11 L454 368 C454 458 394 520 301 520 L273 520 C253 520 190 519 156 455 L149 455 L149 504 C149 511 145 515 138 515 L101 515 C94 515 90 511 90 504 L90 11 Z " />
<glyph glyph-name="Eng" unicode="&#x14a;" horiz-adv-x="637" d="M547 689 C547 696 543 700 536 700 L499 700 C492 700 488 696 488 689 L488 93 L480 93 L181 689 C178 695 173 700 166 700 L101 700 C94 700 90 696 90 689 L90 11 C90 4 94 0 101 0 L138 0 C145 0 149 4 149 11 L149 606 L157 606 L479 -33 C469 -61 448 -95 396 -124 C392 -126 391 -129 391 -136 L407 -176 C409 -180 413 -182 416 -182 C417 -182 419 -182 421 -181 C466 -161 547 -107 547 -2 L547 689 Z " />
<glyph glyph-name="eng" unicode="&#x14b;" horiz-adv-x="534" d="M395 3 C395 3 391 -76 303 -124 C299 -126 298 -129 298 -136 L314 -176 C316 -180 320 -182 323 -182 C324 -182 326 -182 328 -181 C373 -161 454 -107 454 -2 L454 368 C454 458 394 520 301 520 L273 520 C253 520 190 519 156 455 L149 455 L149 504 C149 511 145 515 138 515 L101 515 C94 515 90 511 90 504 L90 11 C90 4 94 0 101 0 L138 0 C145 0 149 4 149 11 L149 366 C198 465 257 466 292 466 L300 466 C351 466 395 424 395 356 L395 3 Z " />
<glyph glyph-name="Omacron" unicode="&#x14c;" horiz-adv-x="585" d="M395 751 C402 751 406 755 406 762 L406 794 C406 801 402 805 395 805 L189 805 C182 805 178 801 178 794 L178 762 C178 755 182 751 189 751 L395 751 Z M350 705 L235 705 C150 705 80 638 80 556 L80 144 C80 62 150 -5 235 -5 L350 -5 C435 -5 505 62 505 144 L505 556 C505 638 435 705 350 705 L350 705 Z M446 160 C446 93 405 49 337 49 L248 49 C180 49 139 93 139 160 L139 541 C139 608 180 651 248 651 L337 651 C405 651 446 608 446 541 L446 160 Z " />
<glyph glyph-name="omacron" unicode="&#x14d;" horiz-adv-x="502" d="M354 571 C361 571 365 575 365 582 L365 614 C365 621 361 625 354 625 L148 625 C141 625 137 621 137 614 L137 582 C137 575 141 571 148 571 L354 571 Z M208 520 C127 520 75 450 75 384 L75 131 C75 65 127 -5 208 -5 L294 -5 C375 -5 427 65 427 131 L427 384 C427 450 375 520 294 520 L208 520 Z M227 49 C169 49 134 91 134 141 L134 374 C134 424 169 466 227 466 L275 466 C333 466 368 424 368 374 L368 141 C368 91 333 49 275 49 L227 49 Z " />
<glyph glyph-name="Ohungarumlaut" unicode="&#x150;" horiz-adv-x="585" d="M247 751 C254 751 257 755 261 763 L306 856 C306 864 302 868 295 868 L264 868 C257 868 254 864 250 856 L205 763 C205 755 209 751 217 751 L247 751 Z M378 751 C385 751 388 755 392 763 L437 856 C437 864 433 868 426 868 L395 868 C388 868 385 864 381 856 L336 763 C336 755 340 751 348 751 L378 751 Z M350 705 L235 705 C150 705 80 638 80 556 L80 144 C80 62 150 -5 235 -5 L350 -5 C435 -5 505 62 505 144 L505 556 C505 638 435 705 350 705 L350 705 Z M446 160 C446 93 405 49 337 49 L248 49 C180 49 139 93 139 160 L139 541 C139 608 180 651 248 651 L337 651 C405 651 446 608 446 541 L446 160 Z " />
<glyph glyph-name="ohungarumlaut" unicode="&#x151;" horiz-adv-x="502" d="M213 571 C220 571 223 575 227 583 L272 676 C272 684 268 688 261 688 L230 688 C223 688 220 684 216 676 L171 583 C171 575 175 571 183 571 L213 571 Z M344 571 C351 571 354 575 358 583 L403 676 C403 684 399 688 392 688 L361 688 C354 688 351 684 347 676 L302 583 C302 575 306 571 314 571 L344 571 Z M208 520 C127 520 75 450 75 384 L75 131 C75 65 127 -5 208 -5 L294 -5 C375 -5 427 65 427 131 L427 384 C427 450 375 520 294 520 L208 520 Z M227 49 C169 49 134 91 134 141 L134 374 C134 424 169 466 227 466 L275 466 C333 466 368 424 368 374 L368 141 C368 91 333 49 275 49 L227 49 Z " />
<glyph glyph-name="OE" unicode="&#x152;" horiz-adv-x="871" d="M235 0 L780 0 C787 0 791 4 791 11 L791 43 C791 50 787 54 780 54 L505 54 L505 310 L754 310 C761 310 765 314 765 321 L765 353 C765 360 761 364 754 364 L505 364 L505 646 L780 646 C787 646 791 650 791 657 L791 689 C791 696 787 700 780 700 L235 700 C150 700 80 633 80 551 L80 149 C80 67 150 0 235 0 L235 0 Z M370 646 C416 646 446 619 446 575 L446 125 C446 81 416 54 370 54 L248 54 C180 54 139 98 139 165 L139 536 C139 603 180 646 248 646 L370 646 Z " />
<glyph glyph-name="oe" unicode="&#x153;" horiz-adv-x="790" d="M653 73 C636 60 611 49 575 49 L521 49 C474 49 427 94 427 141 L427 229 L709 229 C716 229 720 233 720 240 L720 384 C720 450 668 520 587 520 L501 520 C456 520 420 499 397 469 C374 499 338 520 294 520 L208 520 C127 520 75 450 75 384 L75 131 C75 65 127 -5 208 -5 L294 -5 C338 -5 374 16 397 46 C420 16 456 -5 501 -5 L575 -5 C575 -5 646 -6 693 39 C695 42 696 43 696 45 C696 48 695 49 692 52 L670 76 C667 79 665 79 664 79 C660 79 655 74 653 73 L653 73 Z M275 466 C333 466 368 424 368 374 L368 137 C364 75 319 49 274 49 L228 49 C173 49 134 86 134 141 L134 374 C134 424 169 466 227 466 L275 466 Z M427 374 C427 424 462 466 520 466 L568 466 C626 466 661 424 661 374 L661 283 L427 283 L427 374 Z " />
<glyph glyph-name="Racute" unicode="&#x154;" horiz-adv-x="567" d="M289 751 C296 751 299 755 303 763 L349 865 C349 873 345 877 338 877 L301 877 C294 877 291 873 287 865 L241 763 C241 755 245 751 253 751 L289 751 Z M507 380 L507 551 C507 633 436 700 350 700 L101 700 C94 700 90 696 90 689 L90 11 C90 4 94 0 101 0 L138 0 C145 0 149 4 149 11 L149 230 L326 230 L427 11 C430 4 433 0 440 0 L481 0 C488 0 492 4 492 11 L387 235 C455 251 507 310 507 380 L507 380 Z M448 394 C448 331 397 284 341 284 L149 284 L149 646 L341 646 C397 646 448 594 448 535 L448 394 Z " />
<glyph glyph-name="racute" unicode="&#x155;" horiz-adv-x="379" d="M140 571 C147 571 150 575 154 583 L200 685 C200 693 196 697 189 697 L152 697 C145 697 142 693 138 685 L92 583 C92 575 96 571 104 571 L140 571 Z M328 517 C313 518 305 520 277 520 C254 520 190 512 156 448 L149 448 L149 504 C149 511 145 515 138 515 L101 515 C94 515 90 511 90 504 L90 11 C90 4 94 0 101 0 L138 0 C145 0 149 4 149 11 L149 359 C198 458 260 466 285 466 C302 466 315 464 326 463 C333 463 337 467 337 474 L339 506 C339 513 335 517 328 517 L328 517 Z " />
<glyph glyph-name="uni0156" unicode="&#x156;" horiz-adv-x="567" d="M259 -179 C266 -179 269 -175 273 -167 L319 -65 C319 -57 315 -53 308 -53 L271 -53 C264 -53 261 -57 257 -65 L211 -167 C211 -175 215 -179 223 -179 L259 -179 Z M507 380 L507 551 C507 633 436 700 350 700 L101 700 C94 700 90 696 90 689 L90 11 C90 4 94 0 101 0 L138 0 C145 0 149 4 149 11 L149 230 L326 230 L427 11 C430 4 433 0 440 0 L481 0 C488 0 492 4 492 11 L387 235 C455 251 507 310 507 380 L507 380 Z M448 394 C448 331 397 284 341 284 L149 284 L149 646 L341 646 C397 646 448 594 448 535 L448 394 Z " />
<glyph glyph-name="uni0157" unicode="&#x157;" horiz-adv-x="379" d="M139 -179 C146 -179 149 -175 153 -167 L199 -65 C199 -57 195 -53 188 -53 L151 -53 C144 -53 141 -57 137 -65 L91 -167 C91 -175 95 -179 103 -179 L139 -179 Z M328 517 C313 518 305 520 277 520 C254 520 190 512 156 448 L149 448 L149 504 C149 511 145 515 138 515 L101 515 C94 515 90 511 90 504 L90 11 C90 4 94 0 101 0 L138 0 C145 0 149 4 149 11 L149 359 C198 458 260 466 285 466 C302 466 315 464 326 463 C333 463 337 467 337 474 L339 506 C339 513 335 517 328 517 L328 517 Z " />
<glyph glyph-name="Rcaron" unicode="&#x158;" horiz-adv-x="567" d="M283 751 C289 751 293 755 296 762 L357 886 C357 891 354 894 349 894 L311 894 C308 894 305 890 303 886 L255 791 L207 886 C205 890 202 894 199 894 L161 894 C156 894 153 891 153 886 L214 762 C217 755 221 751 227 751 L283 751 Z M507 380 L507 551 C507 633 436 700 350 700 L101 700 C94 700 90 696 90 689 L90 11 C90 4 94 0 101 0 L138 0 C145 0 149 4 149 11 L149 230 L326 230 L427 11 C430 4 433 0 440 0 L481 0 C488 0 492 4 492 11 L387 235 C455 251 507 310 507 380 L507 380 Z M448 394 C448 331 397 284 341 284 L149 284 L149 646 L341 646 C397 646 448 594 448 535 L448 394 Z " />
<glyph glyph-name="rcaron" unicode="&#x159;" horiz-adv-x="379" d="M228 571 C234 571 238 575 241 582 L302 706 C302 711 299 714 294 714 L256 714 C253 714 250 710 248 706 L200 611 L152 706 C150 710 147 714 144 714 L106 714 C101 714 98 711 98 706 L159 582 C162 575 166 571 172 571 L228 571 Z M328 517 C313 518 305 520 277 520 C254 520 190 512 156 448 L149 448 L149 504 C149 511 145 515 138 515 L101 515 C94 515 90 511 90 504 L90 11 C90 4 94 0 101 0 L138 0 C145 0 149 4 149 11 L149 359 C198 458 260 466 285 466 C302 466 315 464 326 463 C333 463 337 467 337 474 L339 506 C339 513 335 517 328 517 L328 517 Z " />
<glyph glyph-name="Sacute" unicode="&#x15a;" horiz-adv-x="551" d="M253 751 C245 751 241 755 241 763 L287 865 C291 873 294 877 301 877 L338 877 C345 877 349 873 349 865 L303 763 C299 755 296 751 289 751 L253 751 Z M427 159 C427 92 386 49 318 49 L228 49 C160 49 119 92 119 159 L119 171 C119 178 115 182 108 182 L71 182 C64 182 60 178 60 171 L60 143 C60 62 131 -5 216 -5 L331 -5 C416 -5 486 62 486 143 L486 162 C486 451 119 295 119 519 L119 541 C119 608 160 651 228 651 L306 651 C374 651 415 608 415 541 L415 529 C415 522 419 518 426 518 L463 518 C470 518 474 522 474 529 L474 557 C474 638 403 705 318 705 L215 705 C130 705 60 638 60 557 L60 532 C60 235 427 394 427 174 L427 159 Z " />
<glyph glyph-name="sacute" unicode="&#x15b;" horiz-adv-x="483" d="M264 571 C271 571 274 575 278 583 L324 685 C324 693 320 697 313 697 L276 697 C269 697 266 693 262 685 L216 583 C216 575 220 571 228 571 L264 571 Z M201 520 C119 520 67 464 67 396 L67 389 C67 191 363 270 363 141 L363 131 C363 75 316 49 269 49 L218 49 C170 49 124 94 124 141 L124 154 C124 161 120 165 113 165 L76 165 C69 165 65 161 65 154 L65 131 C65 65 120 -5 201 -5 L288 -5 C372 -5 423 51 423 119 L423 133 C423 334 126 250 126 379 L126 389 C126 445 173 466 221 466 L264 466 C312 466 358 421 358 374 L358 361 C358 354 362 350 369 350 L406 350 C413 350 417 354 417 361 L417 384 C417 450 362 520 281 520 L201 520 Z " />
<glyph glyph-name="Scircumflex" unicode="&#x15c;" horiz-adv-x="551" d="M294 894 C300 894 304 890 307 883 L368 759 C368 754 365 751 360 751 L322 751 C319 751 316 755 314 759 L266 854 L218 759 C216 755 213 751 210 751 L172 751 C167 751 164 754 164 759 L225 883 C228 890 232 894 238 894 L294 894 Z M427 159 C427 92 386 49 318 49 L228 49 C160 49 119 92 119 159 L119 171 C119 178 115 182 108 182 L71 182 C64 182 60 178 60 171 L60 143 C60 62 131 -5 216 -5 L331 -5 C416 -5 486 62 486 143 L486 162 C486 451 119 295 119 519 L119 541 C119 608 160 651 228 651 L306 651 C374 651 415 608 415 541 L415 529 C415 522 419 518 426 518 L463 518 C470 518 474 522 474 529 L474 557 C474 638 403 705 318 705 L215 705 C130 705 60 638 60 557 L60 532 C60 235 427 394 427 174 L427 159 Z " />
<glyph glyph-name="scircumflex" unicode="&#x15d;" horiz-adv-x="483" d="M216 714 C210 714 206 710 203 703 L142 579 C142 574 145 571 150 571 L188 571 C191 571 194 575 196 579 L244 674 L292 579 C294 575 297 571 300 571 L338 571 C343 571 346 574 346 579 L285 703 C282 710 278 714 272 714 L216 714 Z M201 520 C119 520 67 464 67 396 L67 389 C67 191 363 270 363 141 L363 131 C363 75 316 49 269 49 L218 49 C170 49 124 94 124 141 L124 154 C124 161 120 165 113 165 L76 165 C69 165 65 161 65 154 L65 131 C65 65 120 -5 201 -5 L288 -5 C372 -5 423 51 423 119 L423 133 C423 334 126 250 126 379 L126 389 C126 445 173 466 221 466 L264 466 C312 466 358 421 358 374 L358 361 C358 354 362 350 369 350 L406 350 C413 350 417 354 417 361 L417 384 C417 450 362 520 281 520 L201 520 Z " />
<glyph glyph-name="Scedilla" unicode="&#x15e;" horiz-adv-x="551" d="M119 519 L119 541 C119 608 160 651 228 651 L306 651 C374 651 415 608 415 541 L415 529 C415 522 419 518 426 518 L463 518 C470 518 474 522 474 529 L474 557 C474 638 403 705 318 705 L215 705 C130 705 60 638 60 557 L60 532 C60 235 427 394 427 174 L427 159 C427 92 386 49 318 49 L228 49 C160 49 119 92 119 159 L119 171 C119 178 115 182 108 182 L71 182 C64 182 60 178 60 171 L60 143 C60 62 131 -5 216 -5 L255 -5 L223 -63 C221 -67 221 -73 221 -73 L221 -96 C221 -100 224 -103 228 -103 L277 -103 C277 -103 312 -103 312 -133 C312 -161 277 -161 277 -161 L223 -161 C219 -161 216 -163 216 -168 L216 -188 C216 -192 219 -195 223 -195 L288 -195 C328 -195 348 -179 348 -127 C348 -88 314 -69 274 -69 L262 -69 L295 -5 L331 -5 C416 -5 486 62 486 143 L486 162 C486 451 119 295 119 519 L119 519 Z " />
<glyph glyph-name="scedilla" unicode="&#x15f;" horiz-adv-x="483" d="M197 -63 C195 -67 195 -73 195 -73 L195 -96 C195 -100 198 -103 202 -103 L251 -103 C251 -103 286 -103 286 -133 C286 -161 251 -161 251 -161 L197 -161 C193 -161 190 -163 190 -168 L190 -188 C190 -192 193 -195 197 -195 L262 -195 C302 -195 322 -179 322 -127 C322 -88 288 -69 248 -69 L236 -69 L267 -5 L288 -5 C372 -5 423 51 423 119 L423 133 C423 334 126 250 126 379 L126 389 C126 445 173 466 221 466 L264 466 C312 466 358 421 358 374 L358 361 C358 354 362 350 369 350 L406 350 C413 350 417 354 417 361 L417 384 C417 450 362 520 281 520 L201 520 C119 520 67 464 67 396 L67 389 C67 191 363 270 363 141 L363 131 C363 75 316 49 269 49 L218 49 C170 49 124 94 124 141 L124 154 C124 161 120 165 113 165 L76 165 C69 165 65 161 65 154 L65 131 C65 65 120 -5 201 -5 L227 -5 L197 -63 Z " />
<glyph glyph-name="Scaron" unicode="&#x160;" horiz-adv-x="551" d="M236 751 C230 751 226 755 223 762 L162 886 C162 891 165 894 170 894 L208 894 C211 894 214 890 216 886 L264 791 L312 886 C314 890 317 894 320 894 L358 894 C363 894 366 891 366 886 L305 762 C302 755 298 751 292 751 L236 751 Z M427 159 C427 92 386 49 318 49 L228 49 C160 49 119 92 119 159 L119 171 C119 178 115 182 108 182 L71 182 C64 182 60 178 60 171 L60 143 C60 62 131 -5 216 -5 L331 -5 C416 -5 486 62 486 143 L486 162 C486 451 119 295 119 519 L119 541 C119 608 160 651 228 651 L306 651 C374 651 415 608 415 541 L415 529 C415 522 419 518 426 518 L463 518 C470 518 474 522 474 529 L474 557 C474 638 403 705 318 705 L215 705 C130 705 60 638 60 557 L60 532 C60 235 427 394 427 174 L427 159 Z " />
<glyph glyph-name="scaron" unicode="&#x161;" horiz-adv-x="483" d="M271 571 C277 571 281 575 284 582 L345 706 C345 711 342 714 337 714 L299 714 C296 714 293 710 291 706 L243 611 L195 706 C193 710 190 714 187 714 L149 714 C144 714 141 711 141 706 L202 582 C205 575 209 571 215 571 L271 571 Z M201 520 C119 520 67 464 67 396 L67 389 C67 191 363 270 363 141 L363 131 C363 75 316 49 269 49 L218 49 C170 49 124 94 124 141 L124 154 C124 161 120 165 113 165 L76 165 C69 165 65 161 65 154 L65 131 C65 65 120 -5 201 -5 L288 -5 C372 -5 423 51 423 119 L423 133 C423 334 126 250 126 379 L126 389 C126 445 173 466 221 466 L264 466 C312 466 358 421 358 374 L358 361 C358 354 362 350 369 350 L406 350 C413 350 417 354 417 361 L417 384 C417 450 362 520 281 520 L201 520 Z " />
<glyph glyph-name="uni0162" unicode="&#x162;" horiz-adv-x="525" d="M280 0 C280 0 314 1 314 -32 C314 -59 279 -59 279 -59 L225 -59 C221 -59 218 -61 218 -66 L218 -86 C218 -90 221 -93 225 -93 L273 -93 C319 -93 349 -83 349 -31 C349 0 327 30 292 34 L292 646 L459 646 C466 646 470 650 470 657 L470 689 C470 696 466 700 459 700 L66 700 C59 700 55 696 55 689 L55 657 C55 650 59 646 66 646 L233 646 L233 11 C233 4 237 0 244 0 L280 0 Z " />
<glyph glyph-name="uni0163" unicode="&#x163;" horiz-adv-x="384" d="M174 -89 C174 -93 177 -96 181 -96 L230 -96 C230 -96 265 -96 265 -126 C265 -154 230 -154 230 -154 L176 -154 C172 -154 169 -156 169 -161 L169 -181 C169 -185 172 -188 176 -188 L241 -188 C281 -188 301 -172 301 -120 C301 -81 267 -62 227 -62 L215 -62 L247 4 C258 1 269 0 281 0 L323 0 C330 0 334 4 334 11 L334 43 C334 50 330 54 323 54 L301 54 C256 54 206 96 206 144 L206 461 L323 461 C330 461 334 465 334 472 L334 504 C334 511 330 515 323 515 L206 515 L206 689 C206 696 202 700 195 700 L158 700 C151 700 147 696 147 689 L147 515 L56 515 C49 515 45 511 45 504 L45 472 C45 465 49 461 56 461 L147 461 L147 144 C147 94 171 44 213 18 L176 -56 C174 -60 174 -66 174 -66 L174 -89 Z " />
<glyph glyph-name="Tcaron" unicode="&#x164;" horiz-adv-x="525" d="M290 751 C296 751 300 755 303 762 L364 886 C364 891 361 894 356 894 L318 894 C315 894 312 890 310 886 L262 791 L214 886 C212 890 209 894 206 894 L168 894 C163 894 160 891 160 886 L221 762 C224 755 228 751 234 751 L290 751 Z M66 700 C59 700 55 696 55 689 L55 657 C55 650 59 646 66 646 L233 646 L233 11 C233 4 237 0 244 0 L281 0 C288 0 292 4 292 11 L292 646 L459 646 C466 646 470 650 470 657 L470 689 C470 696 466 700 459 700 L66 700 Z " />
<glyph glyph-name="tcaron" unicode="&#x165;" horiz-adv-x="553" d="M453 574 C460 574 463 578 467 586 L513 688 C513 696 509 700 502 700 L465 700 C458 700 455 696 451 688 L405 586 C405 578 409 574 417 574 L453 574 Z M323 0 C330 0 334 4 334 11 L334 43 C334 50 330 54 323 54 L301 54 C256 54 206 96 206 144 L206 461 L323 461 C330 461 334 465 334 472 L334 504 C334 511 330 515 323 515 L206 515 L206 689 C206 696 202 700 195 700 L158 700 C151 700 147 696 147 689 L147 515 L56 515 C49 515 45 511 45 504 L45 472 C45 465 49 461 56 461 L147 461 L147 144 C147 71 199 0 281 0 L323 0 Z " />
<glyph glyph-name="Tbar" unicode="&#x166;" horiz-adv-x="525" d="M399 301 C406 301 410 305 410 312 L410 344 C410 351 406 355 399 355 L292 355 L292 646 L459 646 C466 646 470 650 470 657 L470 689 C470 696 466 700 459 700 L66 700 C59 700 55 696 55 689 L55 657 C55 650 59 646 66 646 L233 646 L233 355 L126 355 C119 355 115 351 115 344 L115 312 C115 305 119 301 126 301 L233 301 L233 11 C233 4 237 0 244 0 L281 0 C288 0 292 4 292 11 L292 301 L399 301 Z " />
<glyph glyph-name="tbar" unicode="&#x167;" horiz-adv-x="384" d="M56 301 C49 301 45 297 45 290 L45 258 C45 251 49 247 56 247 L147 247 L147 144 C147 71 199 0 281 0 L323 0 C330 0 334 4 334 11 L334 43 C334 50 330 54 323 54 L301 54 C256 54 206 96 206 144 L206 247 L323 247 C330 247 334 251 334 258 L334 290 C334 297 330 301 323 301 L206 301 L206 461 L323 461 C330 461 334 465 334 472 L334 504 C334 511 330 515 323 515 L206 515 L206 689 C206 696 202 700 195 700 L158 700 C151 700 147 696 147 689 L147 515 L56 515 C49 515 45 511 45 504 L45 472 C45 465 49 461 56 461 L147 461 L147 301 L56 301 Z " />
<glyph glyph-name="Utilde" unicode="&#x168;" horiz-adv-x="595" d="M510 689 C510 696 506 700 499 700 L462 700 C455 700 451 696 451 689 L451 160 C451 93 410 49 342 49 L253 49 C185 49 144 93 144 160 L144 689 C144 696 140 700 133 700 L96 700 C89 700 85 696 85 689 L85 144 C85 62 155 -5 240 -5 L355 -5 C440 -5 510 62 510 144 L510 689 Z M358 751 C368 751 384 757 400 764 C404 766 406 770 406 774 L397 805 C396 809 393 811 389 811 C378 811 369 805 354 805 C295 805 282 845 226 845 C216 845 200 839 184 832 C180 830 178 826 178 822 L187 791 C188 787 191 785 195 785 C206 785 215 791 230 791 C287 791 302 751 358 751 L358 751 Z " />
<glyph glyph-name="utilde" unicode="&#x169;" horiz-adv-x="512" d="M432 504 C432 511 428 515 421 515 L384 515 C377 515 373 511 373 504 L373 141 C373 94 326 49 279 49 L233 49 C186 49 139 94 139 141 L139 504 C139 511 135 515 128 515 L91 515 C84 515 80 511 80 504 L80 131 C80 65 132 -5 213 -5 L299 -5 C380 -5 432 65 432 131 L432 504 Z M315 571 C325 571 341 577 357 584 C361 586 363 590 363 594 L354 625 C353 629 350 631 346 631 C335 631 326 625 311 625 C252 625 239 665 183 665 C173 665 157 659 141 652 C137 650 135 646 135 642 L144 611 C145 607 148 605 152 605 C163 605 172 611 187 611 C244 611 259 571 315 571 L315 571 Z " />
<glyph glyph-name="Umacron" unicode="&#x16a;" horiz-adv-x="595" d="M400 751 C407 751 411 755 411 762 L411 794 C411 801 407 805 400 805 L194 805 C187 805 183 801 183 794 L183 762 C183 755 187 751 194 751 L400 751 Z M510 689 C510 696 506 700 499 700 L462 700 C455 700 451 696 451 689 L451 160 C451 93 410 49 342 49 L253 49 C185 49 144 93 144 160 L144 689 C144 696 140 700 133 700 L96 700 C89 700 85 696 85 689 L85 144 C85 62 155 -5 240 -5 L355 -5 C440 -5 510 62 510 144 L510 689 Z " />
<glyph glyph-name="umacron" unicode="&#x16b;" horiz-adv-x="512" d="M343 571 C350 571 354 575 354 582 L354 614 C354 621 350 625 343 625 L169 625 C162 625 158 621 158 614 L158 582 C158 575 162 571 169 571 L343 571 Z M432 504 C432 511 428 515 421 515 L384 515 C377 515 373 511 373 504 L373 141 C373 94 326 49 279 49 L233 49 C186 49 139 94 139 141 L139 504 C139 511 135 515 128 515 L91 515 C84 515 80 511 80 504 L80 131 C80 65 132 -5 213 -5 L299 -5 C380 -5 432 65 432 131 L432 504 Z " />
<glyph glyph-name="Ubreve" unicode="&#x16c;" horiz-adv-x="595" d="M298 751 C374 751 429 788 449 858 C449 863 445 867 440 867 L398 867 C393 867 390 863 388 858 C370 808 337 799 298 799 C259 799 226 808 208 858 C206 863 203 867 198 867 L156 867 C151 867 147 863 147 858 C167 788 222 751 298 751 L298 751 Z M510 689 C510 696 506 700 499 700 L462 700 C455 700 451 696 451 689 L451 160 C451 93 410 49 342 49 L253 49 C185 49 144 93 144 160 L144 689 C144 696 140 700 133 700 L96 700 C89 700 85 696 85 689 L85 144 C85 62 155 -5 240 -5 L355 -5 C440 -5 510 62 510 144 L510 689 Z " />
<glyph glyph-name="ubreve" unicode="&#x16d;" horiz-adv-x="512" d="M432 504 C432 511 428 515 421 515 L384 515 C377 515 373 511 373 504 L373 141 C373 94 326 49 279 49 L233 49 C186 49 139 94 139 141 L139 504 C139 511 135 515 128 515 L91 515 C84 515 80 511 80 504 L80 131 C80 65 132 -5 213 -5 L299 -5 C380 -5 432 65 432 131 L432 504 Z M256 571 C332 571 371 608 391 678 C391 683 387 687 382 687 L340 687 C335 687 332 683 330 678 C312 628 295 619 256 619 C217 619 200 628 182 678 C180 683 177 687 172 687 L130 687 C125 687 121 683 121 678 C141 608 180 571 256 571 L256 571 Z " />
<glyph glyph-name="Uring" unicode="&#x16e;" horiz-adv-x="595" d="M412 834 C412 898 361 949 297 949 C233 949 182 898 182 834 C182 770 233 719 297 719 C361 719 412 770 412 834 L412 834 Z M364 834 C364 795 335 767 297 767 C260 767 231 795 231 834 C231 873 260 901 297 901 C335 901 364 873 364 834 L364 834 Z M510 689 C510 696 506 700 499 700 L462 700 C455 700 451 696 451 689 L451 160 C451 93 410 49 342 49 L253 49 C185 49 144 93 144 160 L144 689 C144 696 140 700 133 700 L96 700 C89 700 85 696 85 689 L85 144 C85 62 155 -5 240 -5 L355 -5 C440 -5 510 62 510 144 L510 689 Z " />
<glyph glyph-name="uring" unicode="&#x16f;" horiz-adv-x="512" d="M371 686 C371 750 320 801 256 801 C192 801 141 750 141 686 C141 622 192 571 256 571 C320 571 371 622 371 686 L371 686 Z M323 686 C323 647 294 619 256 619 C219 619 190 647 190 686 C190 725 219 753 256 753 C294 753 323 725 323 686 L323 686 Z M432 504 C432 511 428 515 421 515 L384 515 C377 515 373 511 373 504 L373 141 C373 94 326 49 279 49 L233 49 C186 49 139 94 139 141 L139 504 C139 511 135 515 128 515 L91 515 C84 515 80 511 80 504 L80 131 C80 65 132 -5 213 -5 L299 -5 C380 -5 432 65 432 131 L432 504 Z " />
<glyph glyph-name="Uhungarumlaut" unicode="&#x170;" horiz-adv-x="595" d="M245 751 C252 751 255 755 259 763 L304 856 C304 864 300 868 293 868 L262 868 C255 868 252 864 248 856 L203 763 C203 755 207 751 215 751 L245 751 Z M376 751 C383 751 386 755 390 763 L435 856 C435 864 431 868 424 868 L393 868 C386 868 383 864 379 856 L334 763 C334 755 338 751 346 751 L376 751 Z M510 689 C510 696 506 700 499 700 L462 700 C455 700 451 696 451 689 L451 160 C451 93 410 49 342 49 L253 49 C185 49 144 93 144 160 L144 689 C144 696 140 700 133 700 L96 700 C89 700 85 696 85 689 L85 144 C85 62 155 -5 240 -5 L355 -5 C440 -5 510 62 510 144 L510 689 Z " />
<glyph glyph-name="uhungarumlaut" unicode="&#x171;" horiz-adv-x="512" d="M218 571 C225 571 228 575 232 583 L277 676 C277 684 273 688 266 688 L235 688 C228 688 225 684 221 676 L176 583 C176 575 180 571 188 571 L218 571 Z M349 571 C356 571 359 575 363 583 L408 676 C408 684 404 688 397 688 L366 688 C359 688 356 684 352 676 L307 583 C307 575 311 571 319 571 L349 571 Z M432 504 C432 511 428 515 421 515 L384 515 C377 515 373 511 373 504 L373 141 C373 94 326 49 279 49 L233 49 C186 49 139 94 139 141 L139 504 C139 511 135 515 128 515 L91 515 C84 515 80 511 80 504 L80 131 C80 65 132 -5 213 -5 L299 -5 C380 -5 432 65 432 131 L432 504 Z " />
<glyph glyph-name="Uogonek" unicode="&#x172;" horiz-adv-x="595" d="M248 -96 C248 -100 251 -103 255 -103 L304 -103 C304 -103 339 -103 339 -133 C339 -161 304 -161 304 -161 L250 -161 C246 -161 243 -163 243 -168 L243 -188 C243 -192 246 -195 250 -195 L315 -195 C355 -195 375 -179 375 -127 C375 -88 341 -69 301 -69 L289 -69 L321 -5 L355 -5 C440 -5 510 62 510 144 L510 689 C510 696 506 700 499 700 L462 700 C455 700 451 696 451 689 L451 160 C451 93 410 49 342 49 L253 49 C185 49 144 93 144 160 L144 689 C144 696 140 700 133 700 L96 700 C89 700 85 696 85 689 L85 144 C85 62 155 -5 240 -5 L280 -5 L250 -63 C248 -67 248 -73 248 -73 L248 -96 Z " />
<glyph glyph-name="uogonek" unicode="&#x173;" horiz-adv-x="512" d="M276 -96 L276 -5 L299 -5 C380 -5 432 65 432 131 L432 504 C432 511 428 515 421 515 L384 515 C377 515 373 511 373 504 L373 141 C373 94 326 49 279 49 L233 49 C186 49 139 94 139 141 L139 504 C139 511 135 515 128 515 L91 515 C84 515 80 511 80 504 L80 131 C80 65 132 -5 213 -5 L235 -5 L235 -69 L223 -69 C183 -69 149 -88 149 -127 C149 -179 169 -195 209 -195 L274 -195 C278 -195 281 -192 281 -188 L281 -168 C281 -163 278 -161 274 -161 L220 -161 C220 -161 185 -161 185 -133 C185 -103 220 -103 220 -103 L269 -103 C273 -103 276 -100 276 -96 L276 -96 Z " />
<glyph glyph-name="Ydieresis" unicode="&#x178;" horiz-adv-x="549" d="M173 762 C173 755 177 751 184 751 L230 751 C237 751 241 755 241 762 L241 811 C241 818 237 822 230 822 L184 822 C177 822 173 818 173 811 L173 762 Z M307 762 C307 755 311 751 318 751 L364 751 C371 751 375 755 375 762 L375 811 C375 818 371 822 364 822 L318 822 C311 822 307 818 307 811 L307 762 Z M277 303 L272 303 L105 689 C102 696 100 700 93 700 L51 700 C44 700 40 696 40 689 L245 216 L245 11 C245 4 249 0 256 0 L293 0 C300 0 304 4 304 11 L304 216 L509 689 C509 696 505 700 498 700 L456 700 C449 700 447 696 444 689 L277 303 Z " />
<glyph glyph-name="Zacute" unicode="&#x179;" horiz-adv-x="516" d="M283 751 C290 751 293 755 297 763 L343 865 C343 873 339 877 332 877 L295 877 C288 877 285 873 281 865 L235 763 C235 755 239 751 247 751 L283 751 Z M137 54 L449 652 C450 654 451 657 451 659 L451 689 C451 696 447 700 440 700 L76 700 C69 700 65 696 65 689 L65 657 C65 650 69 646 76 646 L380 646 L67 48 C66 46 65 43 65 41 L65 11 C65 4 69 0 76 0 L440 0 C447 0 451 4 451 11 L451 43 C451 50 447 54 440 54 L137 54 Z " />
<glyph glyph-name="zacute" unicode="&#x17a;" horiz-adv-x="445" d="M242 571 C249 571 252 575 256 583 L302 685 C302 693 298 697 291 697 L254 697 C247 697 244 693 240 685 L194 583 C194 575 198 571 206 571 L242 571 Z M132 54 L383 460 C384 462 385 465 385 467 L385 504 C385 511 381 515 374 515 L71 515 C64 515 60 511 60 504 L60 472 C60 465 64 461 71 461 L314 461 L62 54 C61 52 60 49 60 47 L60 11 C60 4 64 0 71 0 L374 0 C381 0 385 4 385 11 L385 43 C385 50 381 54 374 54 L132 54 Z " />
<glyph glyph-name="Zdotaccent" unicode="&#x17b;" horiz-adv-x="516" d="M224 762 C224 755 228 751 235 751 L281 751 C288 751 292 755 292 762 L292 811 C292 818 288 822 281 822 L235 822 C228 822 224 818 224 811 L224 762 Z M137 54 L449 652 C450 654 451 657 451 659 L451 689 C451 696 447 700 440 700 L76 700 C69 700 65 696 65 689 L65 657 C65 650 69 646 76 646 L380 646 L67 48 C66 46 65 43 65 41 L65 11 C65 4 69 0 76 0 L440 0 C447 0 451 4 451 11 L451 43 C451 50 447 54 440 54 L137 54 Z " />
<glyph glyph-name="zdotaccent" unicode="&#x17c;" horiz-adv-x="450" d="M188 582 C188 575 192 571 199 571 L245 571 C252 571 256 575 256 582 L256 631 C256 638 252 642 245 642 L199 642 C192 642 188 638 188 631 L188 582 Z M132 54 L383 460 C384 462 385 465 385 467 L385 504 C385 511 381 515 374 515 L71 515 C64 515 60 511 60 504 L60 472 C60 465 64 461 71 461 L314 461 L62 54 C61 52 60 49 60 47 L60 11 C60 4 64 0 71 0 L374 0 C381 0 385 4 385 11 L385 43 C385 50 381 54 374 54 L132 54 Z " />
<glyph glyph-name="Zcaron" unicode="&#x17d;" horiz-adv-x="516" d="M289 751 C295 751 299 755 302 762 L363 886 C363 891 360 894 355 894 L317 894 C314 894 311 890 309 886 L261 791 L213 886 C211 890 208 894 205 894 L167 894 C162 894 159 891 159 886 L220 762 C223 755 227 751 233 751 L289 751 Z M137 54 L449 652 C450 654 451 657 451 659 L451 689 C451 696 447 700 440 700 L76 700 C69 700 65 696 65 689 L65 657 C65 650 69 646 76 646 L380 646 L67 48 C66 46 65 43 65 41 L65 11 C65 4 69 0 76 0 L440 0 C447 0 451 4 451 11 L451 43 C451 50 447 54 440 54 L137 54 Z " />
<glyph glyph-name="zcaron" unicode="&#x17e;" horiz-adv-x="445" d="M250 571 C256 571 260 575 263 582 L324 706 C324 711 321 714 316 714 L278 714 C275 714 272 710 270 706 L222 611 L174 706 C172 710 169 714 166 714 L128 714 C123 714 120 711 120 706 L181 582 C184 575 188 571 194 571 L250 571 Z M132 54 L383 460 C384 462 385 465 385 467 L385 504 C385 511 381 515 374 515 L71 515 C64 515 60 511 60 504 L60 472 C60 465 64 461 71 461 L314 461 L62 54 C61 52 60 49 60 47 L60 11 C60 4 64 0 71 0 L374 0 C381 0 385 4 385 11 L385 43 C385 50 381 54 374 54 L132 54 Z " />
<glyph glyph-name="florin" unicode="&#x192;" horiz-adv-x="374" d="M347 646 C354 646 358 650 358 657 L358 689 C358 696 354 700 347 700 L316 700 C238 700 196 622 181 558 L163 480 L64 480 C57 480 53 476 53 469 L53 437 C53 430 57 426 64 426 L148 426 L-9 -170 C-9 -177 -5 -181 2 -181 L40 -181 C47 -181 50 -177 52 -170 L206 426 L310 426 C317 426 321 430 321 437 L321 469 C321 476 317 480 310 480 L225 480 L242 565 C250 605 288 646 336 646 L347 646 Z " />
<glyph glyph-name="uni0218" unicode="&#x218;" horiz-adv-x="551" d="M244 -179 C251 -179 254 -175 258 -167 L304 -65 C304 -57 300 -53 293 -53 L256 -53 C249 -53 246 -57 242 -65 L196 -167 C196 -175 200 -179 208 -179 L244 -179 Z M427 159 C427 92 386 49 318 49 L228 49 C160 49 119 92 119 159 L119 171 C119 178 115 182 108 182 L71 182 C64 182 60 178 60 171 L60 143 C60 62 131 -5 216 -5 L331 -5 C416 -5 486 62 486 143 L486 162 C486 451 119 295 119 519 L119 541 C119 608 160 651 228 651 L306 651 C374 651 415 608 415 541 L415 529 C415 522 419 518 426 518 L463 518 C470 518 474 522 474 529 L474 557 C474 638 403 705 318 705 L215 705 C130 705 60 638 60 557 L60 532 C60 235 427 394 427 174 L427 159 Z " />
<glyph glyph-name="uni0219" unicode="&#x219;" horiz-adv-x="483" d="M220 -179 C227 -179 230 -175 234 -167 L280 -65 C280 -57 276 -53 269 -53 L232 -53 C225 -53 222 -57 218 -65 L172 -167 C172 -175 176 -179 184 -179 L220 -179 Z M201 520 C119 520 67 464 67 396 L67 389 C67 191 363 270 363 141 L363 131 C363 75 316 49 269 49 L218 49 C170 49 124 94 124 141 L124 154 C124 161 120 165 113 165 L76 165 C69 165 65 161 65 154 L65 131 C65 65 120 -5 201 -5 L288 -5 C372 -5 423 51 423 119 L423 133 C423 334 126 250 126 379 L126 389 C126 445 173 466 221 466 L264 466 C312 466 358 421 358 374 L358 361 C358 354 362 350 369 350 L406 350 C413 350 417 354 417 361 L417 384 C417 450 362 520 281 520 L201 520 Z " />
<glyph glyph-name="uni021A" unicode="&#x21a;" horiz-adv-x="525" d="M229 -179 C236 -179 239 -175 243 -167 L289 -65 C289 -57 285 -53 278 -53 L241 -53 C234 -53 231 -57 227 -65 L181 -167 C181 -175 185 -179 193 -179 L229 -179 Z M66 700 C59 700 55 696 55 689 L55 657 C55 650 59 646 66 646 L233 646 L233 11 C233 4 237 0 244 0 L281 0 C288 0 292 4 292 11 L292 646 L459 646 C466 646 470 650 470 657 L470 689 C470 696 466 700 459 700 L66 700 Z " />
<glyph glyph-name="uni021B" unicode="&#x21b;" horiz-adv-x="384" d="M232 -179 C239 -179 242 -175 246 -167 L292 -65 C292 -57 288 -53 281 -53 L244 -53 C237 -53 234 -57 230 -65 L184 -167 C184 -175 188 -179 196 -179 L232 -179 Z M323 0 C330 0 334 4 334 11 L334 43 C334 50 330 54 323 54 L301 54 C256 54 206 96 206 144 L206 461 L323 461 C330 461 334 465 334 472 L334 504 C334 511 330 515 323 515 L206 515 L206 689 C206 696 202 700 195 700 L158 700 C151 700 147 696 147 689 L147 515 L56 515 C49 515 45 511 45 504 L45 472 C45 465 49 461 56 461 L147 461 L147 144 C147 71 199 0 281 0 L323 0 Z " />
<glyph glyph-name="circumflex" unicode="&#x2c6;" horiz-adv-x="384" d="M164 700 C158 700 154 696 151 689 L90 565 C90 560 93 557 98 557 L136 557 C139 557 142 561 144 565 L192 660 L240 565 C242 561 245 557 248 557 L286 557 C291 557 294 560 294 565 L233 689 C230 696 226 700 220 700 L164 700 Z " />
<glyph glyph-name="caron" unicode="&#x2c7;" horiz-adv-x="384" d="M220 557 C226 557 230 561 233 568 L294 692 C294 697 291 700 286 700 L248 700 C245 700 242 696 240 692 L192 597 L144 692 C142 696 139 700 136 700 L98 700 C93 700 90 697 90 692 L151 568 C154 561 158 557 164 557 L220 557 Z " />
<glyph glyph-name="breve" unicode="&#x2d8;" horiz-adv-x="450" d="M225 584 C301 584 340 621 360 691 C360 696 356 700 351 700 L309 700 C304 700 301 696 299 691 C281 641 264 632 225 632 C186 632 169 641 151 691 C149 696 146 700 141 700 L99 700 C94 700 90 696 90 691 C110 621 149 584 225 584 L225 584 Z " />
<glyph glyph-name="dotaccent" unicode="&#x2d9;" horiz-adv-x="248" d="M90 640 C90 633 94 629 101 629 L147 629 C154 629 158 633 158 640 L158 689 C158 696 154 700 147 700 L101 700 C94 700 90 696 90 689 L90 640 Z " />
<glyph glyph-name="ring" unicode="&#x2da;" horiz-adv-x="410" d="M320 636 C320 700 269 751 205 751 C141 751 90 700 90 636 C90 572 141 521 205 521 C269 521 320 572 320 636 L320 636 Z M272 636 C272 597 243 569 205 569 C168 569 139 597 139 636 C139 675 168 703 205 703 C243 703 272 675 272 636 L272 636 Z " />
<glyph glyph-name="ogonek" unicode="&#x2db;" horiz-adv-x="312" d="M183 1 C179 1 176 0 176 -6 L176 -69 L164 -69 C124 -69 90 -88 90 -127 C90 -179 110 -195 150 -195 L215 -195 C219 -195 222 -192 222 -188 L222 -168 C222 -163 219 -161 215 -161 L161 -161 C161 -161 126 -161 126 -133 C126 -103 161 -103 161 -103 L210 -103 C214 -103 217 -100 217 -96 L217 -6 C217 0 214 1 210 1 L183 1 Z " />
<glyph glyph-name="tilde" unicode="&#x2dc;" horiz-adv-x="408" d="M270 606 C280 606 296 612 312 619 C316 621 318 625 318 629 L309 660 C308 664 305 666 301 666 C290 666 281 660 266 660 C207 660 194 700 138 700 C128 700 112 694 96 687 C92 685 90 681 90 677 L99 646 C100 642 103 640 107 640 C118 640 127 646 142 646 C199 646 214 606 270 606 L270 606 Z " />
<glyph glyph-name="hungarumlaut" unicode="&#x2dd;" horiz-adv-x="412" d="M132 583 C139 583 142 587 146 595 L191 688 C191 696 187 700 180 700 L149 700 C142 700 139 696 135 688 L90 595 C90 587 94 583 102 583 L132 583 Z M263 583 C270 583 273 587 277 595 L322 688 C322 696 318 700 311 700 L280 700 C273 700 270 696 266 688 L221 595 C221 587 225 583 233 583 L263 583 Z " />
<glyph glyph-name="uni03A9" unicode="&#x3a9;" horiz-adv-x="741" d="M316 700 C228 700 157 633 157 551 L157 167 C157 152 160 99 189 54 L101 54 C94 54 90 50 90 43 L90 11 C90 4 94 0 101 0 L249 0 C256 0 260 4 260 11 L260 59 C260 60 260 65 256 67 C218 84 216 144 216 170 L216 535 C216 594 268 646 324 646 L417 646 C473 646 525 594 525 535 L525 170 C525 144 523 84 485 67 C481 65 481 60 481 59 L481 11 C481 4 485 0 492 0 L640 0 C647 0 651 4 651 11 L651 43 C651 50 647 54 640 54 L552 54 C581 99 584 152 584 167 L584 551 C584 633 513 700 425 700 L316 700 Z " />
<glyph glyph-name="pi" unicode="&#x3c0;" horiz-adv-x="774" d="M101 515 C94 515 90 511 90 504 L90 472 C90 465 94 461 101 461 L229 461 L229 11 C229 4 233 0 240 0 L277 0 C284 0 288 4 288 11 L288 461 L486 461 L486 11 C486 4 490 0 497 0 L534 0 C541 0 545 4 545 11 L545 461 L673 461 C680 461 684 465 684 472 L684 504 C684 511 680 515 673 515 L101 515 Z " />
<glyph glyph-name="ZWSP" unicode="&#x200b;" d="" />
<glyph glyph-name="endash" unicode="&#x2013;" horiz-adv-x="376" d="M275 209 C282 209 286 213 286 220 L286 252 C286 259 282 263 275 263 L101 263 C94 263 90 259 90 252 L90 220 C90 213 94 209 101 209 L275 209 Z " />
<glyph glyph-name="emdash" unicode="&#x2014;" horiz-adv-x="436" d="M335 209 C342 209 346 213 346 220 L346 252 C346 259 342 263 335 263 L101 263 C94 263 90 259 90 252 L90 220 C90 213 94 209 101 209 L335 209 Z " />
<glyph glyph-name="quoteleft" unicode="&#x2018;" horiz-adv-x="267" d="M132 583 C139 583 142 587 146 595 L177 688 C177 696 173 700 166 700 L135 700 C128 700 125 696 121 688 L90 595 C90 587 94 583 102 583 L132 583 Z " />
<glyph glyph-name="quoteright" unicode="&#x2019;" horiz-adv-x="267" d="M135 700 C128 700 125 696 121 688 L90 595 C90 587 94 583 101 583 L132 583 C139 583 142 587 146 595 L177 688 C177 696 173 700 165 700 L135 700 Z " />
<glyph glyph-name="quotesinglbase" unicode="&#x201a;" horiz-adv-x="267" d="M135 82 C128 82 125 78 121 70 L90 -23 C90 -31 94 -35 101 -35 L132 -35 C139 -35 142 -31 146 -23 L177 70 C177 78 173 82 165 82 L135 82 Z " />
<glyph glyph-name="quotedblleft" unicode="&#x201c;" horiz-adv-x="383" d="M132 583 C139 583 142 587 146 595 L177 688 C177 696 173 700 166 700 L135 700 C128 700 125 696 121 688 L90 595 C90 587 94 583 102 583 L132 583 Z M248 583 C255 583 258 587 262 595 L293 688 C293 696 289 700 282 700 L251 700 C244 700 241 696 237 688 L206 595 C206 587 210 583 218 583 L248 583 Z " />
<glyph glyph-name="quotedblright" unicode="&#x201d;" horiz-adv-x="383" d="M251 700 C244 700 241 696 237 688 L206 595 C206 587 210 583 217 583 L248 583 C255 583 258 587 262 595 L293 688 C293 696 289 700 281 700 L251 700 Z M135 700 C128 700 125 696 121 688 L90 595 C90 587 94 583 101 583 L132 583 C139 583 142 587 146 595 L177 688 C177 696 173 700 165 700 L135 700 Z " />
<glyph glyph-name="quotedblbase" unicode="&#x201e;" horiz-adv-x="383" d="M251 82 C244 82 241 78 237 70 L206 -23 C206 -31 210 -35 217 -35 L248 -35 C255 -35 258 -31 262 -23 L293 70 C293 78 289 82 281 82 L251 82 Z M135 82 C128 82 125 78 121 70 L90 -23 C90 -31 94 -35 101 -35 L132 -35 C139 -35 142 -31 146 -23 L177 70 C177 78 173 82 165 82 L135 82 Z " />
<glyph glyph-name="dagger" unicode="&#x2020;" horiz-adv-x="471" d="M101 540 C94 540 90 536 90 529 L90 497 C90 490 94 486 101 486 L206 486 L206 -257 C206 -264 210 -268 217 -268 L254 -268 C261 -268 265 -264 265 -257 L265 486 L370 486 C377 486 381 490 381 497 L381 529 C381 536 377 540 370 540 L265 540 L265 689 C265 696 261 700 254 700 L217 700 C210 700 206 696 206 689 L206 540 L101 540 Z " />
<glyph glyph-name="daggerdbl" unicode="&#x2021;" horiz-adv-x="471" d="M101 -13 C94 -13 90 -17 90 -24 L90 -56 C90 -63 94 -67 101 -67 L206 -67 L206 -257 C206 -264 210 -268 217 -268 L254 -268 C261 -268 265 -264 265 -257 L265 -67 L370 -67 C377 -67 381 -63 381 -56 L381 -24 C381 -17 377 -13 370 -13 L265 -13 L265 486 L370 486 C377 486 381 490 381 497 L381 529 C381 536 377 540 370 540 L265 540 L265 689 C265 696 261 700 254 700 L217 700 C210 700 206 696 206 689 L206 540 L101 540 C94 540 90 536 90 529 L90 497 C90 490 94 486 101 486 L206 486 L206 -13 L101 -13 Z " />
<glyph glyph-name="bullet" unicode="&#x2022;" horiz-adv-x="248" d="M90 194 C90 187 94 183 101 183 L147 183 C154 183 158 187 158 194 L158 243 C158 250 154 254 147 254 L101 254 C94 254 90 250 90 243 L90 194 Z " />
<glyph glyph-name="ellipsis" unicode="&#x2026;" horiz-adv-x="898" d="M90 6 C90 -1 94 -5 101 -5 L147 -5 C154 -5 158 -1 158 6 L158 55 C158 62 154 66 147 66 L101 66 C94 66 90 62 90 55 L90 6 Z M415 6 C415 -1 419 -5 426 -5 L472 -5 C479 -5 483 -1 483 6 L483 55 C483 62 479 66 472 66 L426 66 C419 66 415 62 415 55 L415 6 Z M740 6 C740 -1 744 -5 751 -5 L797 -5 C804 -5 808 -1 808 6 L808 55 C808 62 804 66 797 66 L751 66 C744 66 740 62 740 55 L740 6 Z " />
<glyph glyph-name="perthousand" unicode="&#x2030;" horiz-adv-x="1067" d="M205 700 C141 700 90 649 90 585 C90 521 141 469 205 469 C269 469 320 521 320 585 C320 649 269 700 205 700 L205 700 Z M205 519 C168 519 139 552 139 585 C139 624 168 652 205 652 C243 652 272 624 272 585 C272 552 243 519 205 519 L205 519 Z M223 9 C223 3 226 0 232 0 L272 0 C278 0 281 3 283 9 L571 691 C571 697 568 700 562 700 L522 700 C516 700 513 697 511 691 L223 9 Z M589 231 C525 231 474 180 474 116 C474 52 525 0 589 0 C653 0 704 52 704 116 C704 180 653 231 589 231 L589 231 Z M589 50 C552 50 523 83 523 116 C523 155 552 183 589 183 C627 183 656 155 656 116 C656 83 627 50 589 50 L589 50 Z M862 231 C798 231 747 180 747 116 C747 52 798 0 862 0 C926 0 977 52 977 116 C977 180 926 231 862 231 L862 231 Z M862 50 C825 50 796 83 796 116 C796 155 825 183 862 183 C900 183 929 155 929 116 C929 83 900 50 862 50 L862 50 Z " />
<glyph glyph-name="guilsinglleft" unicode="&#x2039;" horiz-adv-x="418" d="M90 185 C90 178 92 175 100 172 L319 86 C323 86 328 89 328 95 L328 138 C328 145 323 148 319 150 L147 218 L147 224 L319 292 C323 294 328 297 328 304 L328 347 C328 353 323 356 319 356 L100 270 C92 267 90 264 90 257 L90 185 Z " />
<glyph glyph-name="guilsinglright" unicode="&#x203a;" horiz-adv-x="418" d="M328 257 C328 264 326 267 318 270 L99 356 C95 356 90 353 90 347 L90 304 C90 297 95 294 99 292 L271 224 L271 218 L99 150 C95 148 90 145 90 138 L90 95 C90 89 95 86 99 86 L318 172 C326 175 328 178 328 185 L328 257 Z " />
<glyph glyph-name="fraction" unicode="&#x2044;" horiz-adv-x="549" d="M90 -170 C90 -176 93 -179 99 -179 L139 -179 C145 -179 148 -176 150 -170 L459 795 C459 801 456 804 450 804 L410 804 C404 804 401 801 399 795 L90 -170 Z " />
<glyph glyph-name="Euro" unicode="&#x20ac;" horiz-adv-x="685" d="M307 229 C314 229 318 233 318 240 L318 272 C318 279 314 283 307 283 L229 283 L229 413 L307 413 C314 413 318 417 318 424 L318 456 C318 463 314 467 307 467 L229 467 L229 541 C229 608 270 651 338 651 L427 651 C495 651 536 608 536 541 L536 504 C536 497 540 493 547 493 L584 493 C591 493 595 497 595 504 L595 556 C595 638 525 705 440 705 L325 705 C240 705 170 638 170 556 L170 467 L101 467 C94 467 90 463 90 456 L90 424 C90 417 94 413 101 413 L170 413 L170 283 L101 283 C94 283 90 279 90 272 L90 240 C90 233 94 229 101 229 L170 229 L170 144 C170 62 240 -5 325 -5 L440 -5 C525 -5 595 62 595 144 L595 196 C595 203 591 207 584 207 L547 207 C540 207 536 203 536 196 L536 160 C536 93 495 49 427 49 L338 49 C270 49 229 93 229 160 L229 229 L307 229 Z " />
<glyph glyph-name="Numero" unicode="&#x2116;" horiz-adv-x="1095" d="M872 175 C953 175 1005 245 1005 311 L1005 564 C1005 630 953 700 872 700 L786 700 C705 700 653 630 653 564 L653 311 C653 245 705 175 786 175 L872 175 Z M853 646 C911 646 946 604 946 554 L946 321 C946 274 899 229 852 229 L806 229 C759 229 712 274 712 321 L712 554 C712 604 747 646 805 646 L853 646 Z M915 0 C922 0 926 4 926 11 L926 43 C926 50 922 54 915 54 L741 54 C734 54 730 50 730 43 L730 11 C730 4 734 0 741 0 L915 0 Z M480 93 L181 689 C178 695 173 700 166 700 L101 700 C94 700 90 696 90 689 L90 11 C90 4 94 0 101 0 L138 0 C145 0 149 4 149 11 L149 606 L157 606 L457 11 C460 5 465 0 472 0 L536 0 C543 0 547 4 547 11 L547 689 C547 696 543 700 536 700 L499 700 C492 700 488 696 488 689 L488 93 L480 93 Z " />
<glyph glyph-name="trademark" unicode="&#x2122;" horiz-adv-x="729" d="M159 424 C159 421 162 418 165 418 L204 418 C207 418 210 421 210 424 L210 654 L273 654 C276 654 279 657 279 660 L279 694 C279 697 276 700 273 700 L96 700 C93 700 90 697 90 694 L90 660 C90 657 93 654 96 654 L159 654 L159 424 Z M495 454 C497 454 498 455 500 458 L588 615 L588 424 C588 421 591 418 594 418 L633 418 C636 418 639 421 639 424 L639 694 C639 697 636 700 633 700 L586 700 C583 700 580 697 578 694 L490 537 L486 537 L398 694 C396 697 393 700 390 700 L343 700 C340 700 337 697 337 694 L337 424 C337 421 340 418 343 418 L382 418 C385 418 388 421 388 424 L388 615 L476 458 C478 455 479 454 481 454 L495 454 Z " />
<glyph glyph-name="Omega" unicode="&#x2126;" horiz-adv-x="741" d="M316 700 C228 700 157 633 157 551 L157 167 C157 152 160 99 189 54 L101 54 C94 54 90 50 90 43 L90 11 C90 4 94 0 101 0 L249 0 C256 0 260 4 260 11 L260 59 C260 60 260 65 256 67 C218 84 216 144 216 170 L216 535 C216 594 268 646 324 646 L417 646 C473 646 525 594 525 535 L525 170 C525 144 523 84 485 67 C481 65 481 60 481 59 L481 11 C481 4 485 0 492 0 L640 0 C647 0 651 4 651 11 L651 43 C651 50 647 54 640 54 L552 54 C581 99 584 152 584 167 L584 551 C584 633 513 700 425 700 L316 700 Z " />
<glyph glyph-name="partialdiff" unicode="&#x2202;" horiz-adv-x="547" d="M398 396 L391 396 C367 429 330 435 313 435 L231 435 C150 435 90 376 90 297 L90 133 C90 54 150 -5 231 -5 L313 -5 C330 -5 367 1 391 34 L398 34 L398 11 C398 4 402 0 409 0 L446 0 C453 0 457 4 457 11 L457 569 C457 635 405 705 324 705 L238 705 C157 705 105 635 105 569 L105 544 C105 537 109 533 116 533 L153 533 C160 533 164 537 164 544 L164 559 C164 609 199 651 257 651 L305 651 C363 651 398 609 398 559 L398 396 Z M303 381 C361 381 396 339 396 289 L396 141 C396 91 361 49 303 49 L242 49 C184 49 149 91 149 141 L149 289 C149 339 184 381 242 381 L303 381 Z " />
<glyph glyph-name="Delta" unicode="&#x2206;" horiz-adv-x="842" d="M669 54 L173 54 L421 641 L669 54 Z M740 0 C747 0 750 3 752 9 L465 690 C463 695 458 700 451 700 L391 700 C384 700 379 695 377 690 L90 9 C92 3 95 0 102 0 L740 0 Z " />
<glyph glyph-name="product" unicode="&#x220f;" horiz-adv-x="774" d="M101 700 C94 700 90 696 90 689 L90 657 C90 650 94 646 101 646 L229 646 L229 11 C229 4 233 0 240 0 L277 0 C284 0 288 4 288 11 L288 646 L486 646 L486 11 C486 4 490 0 497 0 L534 0 C541 0 545 4 545 11 L545 646 L673 646 C680 646 684 650 684 657 L684 689 C684 696 680 700 673 700 L101 700 Z " />
<glyph glyph-name="summation" unicode="&#x2211;" horiz-adv-x="525" d="M243 344 L90 77 L90 11 C90 4 94 0 101 0 L424 0 C431 0 435 4 435 11 L435 43 C435 50 431 54 424 54 L143 54 C177 110 222 186 314 348 L314 352 C222 514 177 590 143 646 L424 646 C431 646 435 650 435 657 L435 689 C435 696 431 700 424 700 L101 700 C94 700 90 696 90 689 L90 623 L243 356 L243 344 Z " />
<glyph glyph-name="minus" unicode="&#x2212;" horiz-adv-x="376" d="M275 209 C282 209 286 213 286 220 L286 252 C286 259 282 263 275 263 L101 263 C94 263 90 259 90 252 L90 220 C90 213 94 209 101 209 L275 209 Z " />
<glyph glyph-name="radical" unicode="&#x221a;" horiz-adv-x="698" d="M597 646 C604 646 608 650 608 657 L608 689 C608 696 604 700 597 700 L456 700 C449 700 446 696 444 689 L255 58 L244 58 L151 373 C149 380 146 384 139 384 L101 384 C94 384 90 380 90 373 L197 9 C199 3 202 0 209 0 L290 0 C297 0 300 3 302 9 L492 646 L597 646 Z " />
<glyph glyph-name="infinity" unicode="&#x221e;" horiz-adv-x="930" d="M435 226 C435 176 400 134 342 134 L242 134 C184 134 149 176 149 226 L149 298 C149 348 184 390 242 390 L342 390 C400 390 435 348 435 298 L435 226 Z M465 144 C494 86 547 81 574 81 L712 81 C792 81 840 146 840 211 L840 313 C840 378 792 443 712 443 L574 443 C547 443 494 438 465 380 C436 438 383 443 356 443 L218 443 C138 443 90 378 90 313 L90 211 C90 146 138 81 218 81 L356 81 C383 81 436 86 465 144 L465 144 Z M495 298 C495 348 530 390 588 390 L688 390 C746 390 781 348 781 298 L781 226 C781 176 746 134 688 134 L588 134 C530 134 495 176 495 226 L495 298 Z " />
<glyph glyph-name="integral" unicode="&#x222b;" horiz-adv-x="433" d="M338 643 C342 645 343 648 343 655 L327 695 C325 699 321 701 318 701 C317 701 315 701 313 700 C268 680 187 626 187 521 L187 3 C187 3 183 -76 95 -124 C91 -126 90 -129 90 -136 L106 -176 C108 -180 112 -182 115 -182 C116 -182 118 -182 120 -181 C165 -161 246 -107 246 -2 L246 516 C246 516 250 595 338 643 L338 643 Z " />
<glyph glyph-name="approxequal" unicode="&#x2248;" horiz-adv-x="408" d="M270 106 C280 106 296 112 312 119 C316 121 318 125 318 129 L309 160 C308 164 305 166 301 166 C290 166 281 160 266 160 C207 160 194 200 138 200 C128 200 112 194 96 187 C92 185 90 181 90 177 L99 146 C100 142 103 140 107 140 C118 140 127 146 142 146 C199 146 214 106 270 106 L270 106 Z M270 260 C280 260 296 266 312 273 C316 275 318 279 318 283 L309 314 C308 318 305 320 301 320 C290 320 281 314 266 314 C207 314 194 354 138 354 C128 354 112 348 96 341 C92 339 90 335 90 331 L99 300 C100 296 103 294 107 294 C118 294 127 300 142 300 C199 300 214 260 270 260 L270 260 Z " />
<glyph glyph-name="notequal" unicode="&#x2260;" horiz-adv-x="391" d="M278 304 C285 304 289 308 289 315 L289 347 C289 354 285 358 278 358 L261 358 L301 482 C301 488 298 491 292 491 L252 491 C246 491 243 488 241 482 L201 358 L104 358 C97 358 93 354 93 347 L93 315 C93 308 97 304 104 304 L184 304 L138 160 L104 160 C97 160 93 156 93 149 L93 117 C93 110 97 106 104 106 L121 106 L90 9 C90 3 93 0 99 0 L139 0 C145 0 148 3 150 9 L181 106 L278 106 C285 106 289 110 289 117 L289 149 C289 156 285 160 278 160 L198 160 L244 304 L278 304 Z " />
<glyph glyph-name="lessequal" unicode="&#x2264;" horiz-adv-x="418" d="M317 0 C324 0 328 4 328 11 L328 43 C328 50 324 54 317 54 L101 54 C94 54 90 50 90 43 L90 11 C90 4 94 0 101 0 L317 0 Z M90 214 C90 207 92 204 100 201 L319 115 C323 115 328 118 328 124 L328 167 C328 174 323 177 319 179 L147 247 L147 253 L319 321 C323 323 328 326 328 333 L328 376 C328 382 323 385 319 385 L100 299 C92 296 90 293 90 286 L90 214 Z " />
<glyph glyph-name="greaterequal" unicode="&#x2265;" horiz-adv-x="418" d="M317 0 C324 0 328 4 328 11 L328 43 C328 50 324 54 317 54 L101 54 C94 54 90 50 90 43 L90 11 C90 4 94 0 101 0 L317 0 Z M328 286 C328 293 326 296 318 299 L99 385 C95 385 90 382 90 376 L90 333 C90 326 95 323 99 321 L271 253 L271 247 L99 179 C95 177 90 174 90 167 L90 124 C90 118 95 115 99 115 L318 201 C326 204 328 207 328 214 L328 286 Z " />
<glyph glyph-name="lozenge" unicode="&#x25ca;" horiz-adv-x="626" d="M313 49 L157 349 L313 651 L469 349 L313 49 Z M348 0 C354 0 358 4 360 9 L536 350 L358 691 C356 696 352 700 346 700 L280 700 C274 700 270 696 268 691 L90 350 L266 9 C268 4 272 0 278 0 L348 0 Z " />
<glyph glyph-name="uni25CC" unicode="&#x25cc;" horiz-adv-x="199" d="" />
<glyph glyph-name="fi" unicode="&#xfb01;" horiz-adv-x="647" d="M282 744 C200 744 147 679 147 606 L147 515 L56 515 C49 515 45 511 45 504 L45 472 C45 465 49 461 56 461 L147 461 L147 11 C147 4 151 0 158 0 L195 0 C202 0 206 4 206 11 L206 461 L323 461 C330 461 334 465 334 472 L334 504 C334 511 330 515 323 515 L207 515 L207 597 C207 645 247 690 293 690 L324 690 C331 690 335 694 335 701 L335 733 C335 740 331 744 324 744 L282 744 Z M491 11 C491 4 495 0 502 0 L539 0 C546 0 550 4 550 11 L550 504 C550 511 546 515 539 515 L502 515 C495 515 491 511 491 504 L491 11 Z M488 589 C488 582 492 578 499 578 L542 578 C549 578 553 582 553 589 L553 657 C553 664 549 668 542 668 L499 668 C492 668 488 664 488 657 L488 589 Z " />
<glyph glyph-name="fl" unicode="&#xfb02;" horiz-adv-x="629" d="M282 744 C200 744 147 679 147 606 L147 515 L56 515 C49 515 45 511 45 504 L45 472 C45 465 49 461 56 461 L147 461 L147 11 C147 4 151 0 158 0 L195 0 C202 0 206 4 206 11 L206 461 L323 461 C330 461 334 465 334 472 L334 504 C334 511 330 515 323 515 L207 515 L207 597 C207 645 247 690 293 690 L324 690 C331 690 335 694 335 701 L335 733 C335 740 331 744 324 744 L282 744 Z M480 11 C480 4 484 0 491 0 L528 0 C535 0 539 4 539 11 L539 689 C539 696 535 700 528 700 L491 700 C484 700 480 696 480 689 L480 11 Z " />
</font>
</svg>
