<?xml version="1.0" encoding="UTF-8"?>
<svg xmlns="http://www.w3.org/2000/svg" xmlns:xlink="http://www.w3.org/1999/xlink" version="1.2" >
<font id="Tomkin Narrow Bold Italic">
<font-face  font-family="Tomkin Narrow" units-per-em="1000" ascent="750" descent="-250" font-style="italic" font-weight="700" font-stretch="normal" cap-height="700" x-height="515" underline-position="-91" underline-thickness="35" />
<missing-glyph  horiz-adv-x="569" d="" />
<glyph glyph-name="space" unicode="&#x20;" horiz-adv-x="182" d="" />
<glyph glyph-name="exclam" unicode="&#x21;" horiz-adv-x="269" d="M241 301 L294 683 C296 693 290 700 280 700 L185 700 C175 700 167 693 165 683 L112 301 L108 183 C108 173 113 166 123 166 L192 166 C202 166 209 173 211 183 L241 301 Z M179 -16 C189 -16 197 -9 199 1 L211 92 C213 102 207 109 197 109 L102 109 C92 109 84 102 82 92 L70 1 C68 -9 74 -16 84 -16 L179 -16 Z " />
<glyph glyph-name="quotedbl" unicode="&#x22;" horiz-adv-x="464" d="M270 582 L284 683 C286 693 280 700 270 700 L185 700 C175 700 167 693 165 683 L151 582 L148 464 C147 454 152 447 162 447 L221 447 C231 447 238 454 241 464 L270 582 Z M475 582 L489 683 C491 693 485 700 475 700 L390 700 C380 700 372 693 370 683 L356 582 L353 464 C352 454 357 447 367 447 L426 447 C436 447 443 454 446 464 L475 582 Z " />
<glyph glyph-name="numbersign" unicode="&#x23;" horiz-adv-x="799" d="M471 0 C481 0 485 7 490 17 L546 141 L614 141 C624 141 632 148 634 158 L645 241 C647 251 641 258 631 258 L600 258 L685 442 L774 442 C784 442 792 449 793 459 L805 542 C806 552 800 559 790 559 L738 559 L795 683 C797 693 791 700 781 700 L686 700 C676 700 671 693 666 683 L609 559 L492 559 L549 683 C551 693 545 700 535 700 L440 700 C430 700 425 693 420 683 L363 559 L282 559 C272 559 264 552 263 542 L251 459 C250 449 256 442 266 442 L310 442 L225 258 L123 258 C113 258 105 251 103 241 L92 158 C90 148 96 141 106 141 L171 141 L115 17 C113 7 120 0 130 0 L225 0 C235 0 239 7 244 17 L300 141 L417 141 L361 17 C359 7 366 0 376 0 L471 0 Z M439 442 L556 442 L471 258 L354 258 L439 442 Z " />
<glyph glyph-name="dollar" unicode="&#x24;" horiz-adv-x="593" d="M269 500 L273 527 C277 560 308 587 338 587 L409 587 C439 587 462 560 458 527 L456 514 C454 504 460 497 470 497 L565 497 C575 497 583 504 585 514 L588 534 C600 620 544 691 460 703 L476 815 C477 825 471 832 461 832 L366 832 C356 832 348 825 347 815 L332 705 C239 697 157 624 145 534 L141 512 C100 214 444 359 421 194 L418 173 C413 140 382 113 352 113 L271 113 C241 113 218 140 223 173 L225 192 C227 202 221 209 211 209 L116 209 C106 209 98 202 96 192 L93 166 C80 76 142 3 232 -4 L216 -120 C214 -130 220 -137 230 -137 L325 -137 C335 -137 343 -130 345 -120 L361 -4 C452 4 533 77 546 166 L548 182 C590 480 246 335 269 500 L269 500 Z " />
<glyph glyph-name="percent" unicode="&#x25;" horiz-adv-x="773" d="M296 700 C226 700 160 643 150 572 C140 502 190 444 260 444 C331 444 397 502 407 572 C417 643 367 700 296 700 L296 700 Z M272 529 C248 529 232 550 235 572 C238 596 260 615 284 615 C306 615 324 596 321 572 C318 550 294 529 272 529 L272 529 Z M610 256 C539 256 473 199 463 128 C454 58 504 0 575 0 C645 0 711 58 720 128 C730 199 680 256 610 256 L610 256 Z M586 85 C564 85 546 106 549 128 C553 152 577 171 599 171 C623 171 639 152 635 128 C632 106 610 85 586 85 L586 85 Z M292 0 C302 0 305 7 311 17 L687 683 C689 693 683 700 673 700 L578 700 C568 700 564 693 558 683 L182 17 C180 7 187 0 197 0 L292 0 Z " />
<glyph glyph-name="ampersand" unicode="&#x26;" horiz-adv-x="633" d="M342 406 C312 406 288 433 293 466 L302 527 C306 560 337 587 367 587 L409 587 C439 587 462 560 458 527 L454 501 C453 491 459 484 469 484 L564 484 C574 484 582 491 583 501 L588 534 C601 629 532 705 434 705 L376 705 C278 705 187 629 174 534 L164 465 C159 428 177 393 194 365 C151 334 110 287 103 235 L94 171 C80 76 150 0 248 0 L496 0 C506 0 513 7 515 17 L554 294 L612 294 C622 294 630 301 631 311 L642 389 C644 399 638 406 628 406 L342 406 Z M425 294 L400 117 L272 117 C242 117 219 144 223 177 L231 234 C236 267 267 294 297 294 L425 294 Z " />
<glyph glyph-name="quotesingle" unicode="&#x27;" horiz-adv-x="259" d="M270 582 L284 683 C286 693 280 700 270 700 L185 700 C175 700 167 693 165 683 L151 582 L148 464 C147 454 152 447 162 447 L221 447 C231 447 238 454 241 464 L270 582 Z " />
<glyph glyph-name="parenleft" unicode="&#x28;" horiz-adv-x="319" d="M226 -161 C211 -3 220 155 242 313 C265 471 301 630 359 788 C361 798 355 805 345 805 L250 805 C240 805 232 798 230 788 C172 630 136 471 113 313 C91 155 82 -3 97 -161 C95 -171 101 -178 111 -178 L206 -178 C215 -178 224 -172 226 -161 L226 -161 Z " />
<glyph glyph-name="parenright" unicode="&#x29;" horiz-adv-x="319" d="M47 -161 C45 -172 52 -178 61 -178 L156 -178 C166 -178 174 -171 176 -161 C235 -3 270 155 292 313 C315 471 323 630 309 788 C311 798 305 805 295 805 L200 805 C190 805 182 798 180 788 C194 630 186 471 163 313 C141 155 106 -3 47 -161 L47 -161 Z " />
<glyph glyph-name="asterisk" unicode="&#x2a;" horiz-adv-x="500" d="M308 700 C298 700 290 693 288 683 L277 601 L230 634 C227 636 223 638 220 638 C215 638 210 635 205 631 L152 566 C149 562 148 558 148 555 C147 550 148 546 153 542 L226 488 L160 421 C156 418 155 414 154 411 C153 404 158 399 159 397 L211 345 C214 343 218 342 221 342 C227 342 232 344 235 347 L309 421 L361 347 C364 344 369 342 375 342 C378 342 382 343 385 345 L451 397 C454 399 459 404 460 411 C461 414 460 418 458 421 L410 488 L499 542 C504 546 507 550 508 555 C508 558 507 562 506 566 L471 631 C468 635 463 638 458 638 C455 638 451 636 448 634 L391 601 L402 683 C404 693 398 700 388 700 L308 700 Z " />
<glyph glyph-name="plus" unicode="&#x2b;" horiz-adv-x="435" d="M274 67 C284 67 292 74 293 84 L308 187 L374 187 C384 187 392 194 393 204 L405 287 C406 297 400 304 390 304 L324 304 L339 408 C340 418 334 425 324 425 L229 425 C219 425 211 418 210 408 L195 304 L129 304 C119 304 111 297 110 287 L98 204 C97 194 103 187 113 187 L179 187 L164 84 C163 74 169 67 179 67 L274 67 Z " />
<glyph glyph-name="comma" unicode="&#x2c;" horiz-adv-x="326" d="M162 -109 C172 -109 180 -101 186 -92 L265 71 C267 81 261 88 251 88 L160 88 C150 88 142 80 136 71 L57 -92 C55 -102 61 -109 71 -109 L162 -109 Z " />
<glyph glyph-name="hyphen" unicode="&#x2d;" horiz-adv-x="392" d="M331 187 C341 187 349 194 350 204 L362 287 C363 297 357 304 347 304 L129 304 C119 304 111 297 110 287 L98 204 C97 194 103 187 113 187 L331 187 Z " />
<glyph glyph-name="period" unicode="&#x2e;" horiz-adv-x="274" d="M186 -5 C196 -5 204 2 205 12 L219 113 C221 123 215 130 205 130 L105 130 C95 130 87 123 85 113 L71 12 C70 2 76 -5 86 -5 L186 -5 Z " />
<glyph glyph-name="slash" unicode="&#x2f;" horiz-adv-x="571" d="M156 -179 C166 -179 171 -172 176 -162 L611 787 C613 797 606 804 596 804 L501 804 C491 804 487 797 482 787 L47 -162 C45 -172 51 -179 61 -179 L156 -179 Z " />
<glyph glyph-name="zero" unicode="0" horiz-adv-x="573" d="M237 -5 L334 -5 C432 -5 522 71 536 166 L588 534 C601 629 532 705 434 705 L337 705 C239 705 148 629 135 534 L83 166 C69 71 139 -5 237 -5 L237 -5 Z M409 587 C439 587 462 560 458 527 L408 173 C403 140 372 113 342 113 L261 113 C231 113 208 140 213 173 L263 527 C267 560 298 587 328 587 L409 587 Z " />
<glyph glyph-name="one" unicode="1" horiz-adv-x="525" d="M82 17 C80 7 87 0 97 0 L483 0 C493 0 500 7 502 17 L514 100 C515 110 509 117 499 117 L370 117 L449 683 C451 693 445 700 435 700 L322 700 L156 639 C147 635 138 630 137 620 L125 538 C124 528 130 521 140 521 L306 582 L241 117 L113 117 C103 117 95 110 94 100 L82 17 Z " />
<glyph glyph-name="two" unicode="2" horiz-adv-x="544" d="M202 166 C225 332 520 187 562 484 L569 534 C582 629 513 705 415 705 L328 705 C230 705 139 629 126 534 L123 514 C121 504 127 497 137 497 L232 497 C242 497 250 504 252 514 L254 527 C258 560 289 587 319 587 L390 587 C420 587 443 560 439 527 L431 472 C408 306 113 451 71 154 L52 17 C50 7 57 0 67 0 L477 0 C487 0 494 7 496 17 L508 101 C509 111 503 118 493 118 L195 118 L202 166 Z " />
<glyph glyph-name="three" unicode="3" horiz-adv-x="553" d="M303 412 C293 412 285 405 284 395 L272 311 C271 301 277 294 287 294 L357 294 C384 291 406 265 401 234 L393 173 C388 140 357 113 327 113 L256 113 C226 113 203 140 208 173 L210 186 C211 196 205 203 195 203 L100 203 C90 203 82 196 81 186 L78 166 C64 71 134 -5 232 -5 L319 -5 C417 -5 507 71 521 166 L531 241 C537 284 517 323 489 353 C525 383 557 422 563 465 L573 534 C586 629 517 705 419 705 L332 705 C234 705 143 629 130 534 L127 514 C125 504 131 497 141 497 L236 497 C246 497 254 504 256 514 L258 527 C262 560 293 587 323 587 L394 587 C424 587 447 560 443 527 L435 472 C430 439 399 412 369 412 L303 412 Z " />
<glyph glyph-name="four" unicode="4" horiz-adv-x="557" d="M444 0 C454 0 461 7 463 17 L481 146 L530 146 C540 146 548 153 549 163 L561 247 C563 257 557 264 547 264 L498 264 L522 440 C524 450 518 457 508 457 L413 457 C403 457 395 450 393 440 L369 264 L220 264 L444 683 C446 693 440 700 430 700 L326 700 C316 700 310 692 304 683 L61 223 L52 163 C51 153 57 146 67 146 L352 146 L334 17 C332 7 339 0 349 0 L444 0 Z " />
<glyph glyph-name="five" unicode="5" horiz-adv-x="563" d="M231 301 C241 315 260 321 276 321 L372 321 C402 321 425 294 420 261 L408 173 C403 140 372 113 342 113 L261 113 C231 113 208 140 213 173 L214 182 C215 192 209 199 199 199 L104 199 C94 199 86 192 85 182 L83 166 C69 71 139 -5 237 -5 L334 -5 C432 -5 522 71 536 166 L550 268 C564 363 494 439 396 439 L306 439 C289 439 266 435 247 419 L270 582 L530 582 C540 582 548 589 550 599 L561 683 C563 693 557 700 547 700 L175 700 C165 700 157 693 155 683 L102 302 C101 292 107 285 117 285 L208 285 C218 285 225 292 231 301 L231 301 Z " />
<glyph glyph-name="six" unicode="6" horiz-adv-x="563" d="M307 444 C290 444 266 440 248 424 L263 527 C267 560 298 587 328 587 L398 587 C428 587 451 560 447 527 L445 517 C444 507 450 500 460 500 L555 500 C565 500 573 507 574 517 L577 534 C590 629 521 705 423 705 L337 705 C239 705 148 629 135 534 L83 166 C69 71 139 -5 237 -5 L334 -5 C432 -5 522 71 536 166 L551 273 C564 368 495 444 397 444 L307 444 Z M261 113 C231 113 208 140 213 173 L226 266 C231 299 261 326 291 326 L372 326 C402 326 426 299 421 266 L408 173 C403 140 372 113 342 113 L261 113 Z " />
<glyph glyph-name="seven" unicode="7" horiz-adv-x="484" d="M543 683 C545 693 539 700 529 700 L150 700 C140 700 132 693 130 683 L119 599 C117 589 123 582 133 582 L400 582 C255 399 181 208 130 17 C128 7 135 0 145 0 L240 0 C250 0 257 7 259 17 C310 208 385 399 530 582 L543 683 Z " />
<glyph glyph-name="eight" unicode="8" horiz-adv-x="563" d="M415 705 L348 705 C250 705 159 629 146 534 L135 460 C130 421 141 381 169 357 C120 328 94 283 88 236 L78 166 C64 71 134 -5 232 -5 L329 -5 C427 -5 517 71 531 166 L541 236 C547 283 535 328 494 357 C528 381 551 421 556 460 L567 534 C580 629 511 705 415 705 L415 705 Z M256 113 C226 113 203 140 208 173 L216 229 C220 262 251 289 281 289 L362 289 C392 289 415 262 411 229 L403 173 C398 140 367 113 337 113 L256 113 Z M365 407 L314 407 C284 407 260 434 265 467 L274 527 C278 560 309 587 339 587 L390 587 C418 587 441 560 437 527 L428 467 C423 434 393 407 365 407 L365 407 Z " />
<glyph glyph-name="nine" unicode="9" horiz-adv-x="563" d="M263 256 L353 256 C370 256 394 260 412 276 L398 173 C393 140 362 113 332 113 L262 113 C232 113 209 140 214 173 L215 183 C217 193 211 200 201 200 L106 200 C96 200 88 193 86 183 L84 166 C70 71 140 -5 238 -5 L324 -5 C422 -5 512 71 526 166 L578 534 C591 629 522 705 424 705 L327 705 C229 705 138 629 125 534 L110 427 C96 332 165 256 263 256 L263 256 Z M399 587 C429 587 452 560 448 527 L434 434 C430 401 399 374 369 374 L288 374 C258 374 235 401 239 434 L253 527 C257 560 288 587 318 587 L399 587 Z " />
<glyph glyph-name="colon" unicode="&#x3a;" horiz-adv-x="274" d="M186 -5 C196 -5 204 2 205 12 L219 113 C221 123 215 130 205 130 L105 130 C95 130 87 123 85 113 L71 12 C70 2 76 -5 86 -5 L186 -5 Z M229 300 C239 300 247 307 248 317 L262 418 C264 428 258 435 248 435 L148 435 C138 435 130 428 128 418 L114 317 C113 307 119 300 129 300 L229 300 Z " />
<glyph glyph-name="semicolon" unicode="&#x3b;" horiz-adv-x="326" d="M281 300 C291 300 299 307 300 317 L314 418 C316 428 310 435 300 435 L200 435 C190 435 182 428 180 418 L166 317 C165 307 171 300 181 300 L281 300 Z M162 -109 C172 -109 180 -101 186 -92 L265 71 C267 81 261 88 251 88 L160 88 C150 88 142 80 136 71 L57 -92 C55 -102 61 -109 71 -109 L162 -109 Z " />
<glyph glyph-name="less" unicode="&#x3c;" horiz-adv-x="390" d="M92 162 C91 152 97 146 107 143 L312 66 C322 66 330 73 331 83 L344 175 C346 185 339 192 330 195 L235 228 L236 240 L341 273 C351 276 359 283 361 293 L374 385 C375 395 369 402 359 402 L132 325 C122 322 114 316 113 306 L92 162 Z " />
<glyph glyph-name="equal" unicode="&#x3d;" horiz-adv-x="392" d="M317 86 C327 86 335 93 336 103 L348 186 C349 196 343 203 333 203 L115 203 C105 203 97 196 96 186 L84 103 C83 93 89 86 99 86 L317 86 Z M343 277 C353 277 361 284 363 294 L374 377 C376 387 370 394 360 394 L142 394 C132 394 124 387 122 377 L111 294 C109 284 115 277 125 277 L343 277 Z " />
<glyph glyph-name="greater" unicode="&#x3e;" horiz-adv-x="390" d="M363 306 C364 316 358 322 348 325 L143 402 C133 402 125 395 124 385 L111 293 C109 283 115 276 125 273 L220 240 L219 228 L114 195 C103 192 96 185 94 175 L81 83 C80 73 86 66 96 66 L323 143 C333 146 341 152 342 162 L363 306 Z " />
<glyph glyph-name="question" unicode="&#x3f;" horiz-adv-x="583" d="M362 208 C385 372 543 217 581 489 L587 529 C600 624 531 700 433 700 L346 700 C248 700 157 624 144 529 L137 480 C136 470 142 463 152 463 L247 463 C257 463 265 470 266 480 L272 522 C277 555 307 582 337 582 L408 582 C438 582 462 555 457 522 L453 493 C430 332 278 482 232 206 L230 190 C229 180 235 173 245 173 L340 173 C350 173 358 180 359 190 L362 208 Z M237 135 C227 135 219 128 218 118 L204 17 C202 7 209 0 219 0 L319 0 C329 0 336 7 338 17 L352 118 C353 128 347 135 337 135 L237 135 Z " />
<glyph glyph-name="at" unicode="&#x40;" horiz-adv-x="726" d="M730 529 C743 624 674 700 576 700 L346 700 C248 700 157 624 144 529 L77 56 C64 -39 133 -115 231 -115 L448 -115 C458 -115 466 -108 468 -98 L480 -14 C481 -4 475 3 465 3 L256 3 C226 3 203 30 207 63 L272 522 C277 555 307 582 337 582 L551 582 C581 582 605 555 600 522 L593 473 L585 473 C569 502 539 511 517 511 L478 511 C377 511 328 444 316 356 L296 218 C284 130 314 63 415 63 L454 63 C476 63 509 72 533 101 L541 101 L538 85 C537 75 543 68 553 68 L648 68 C658 68 666 75 667 85 L730 529 Z M558 222 C555 200 531 181 510 181 L462 181 C441 181 423 200 426 222 L444 352 C447 374 471 393 492 393 L540 393 C561 393 579 374 576 352 L558 222 Z " />
<glyph glyph-name="A" unicode="A" horiz-adv-x="584" d="M318 700 C308 700 301 693 296 683 L27 17 C25 7 32 0 42 0 L134 0 C144 0 151 7 156 17 L196 118 L420 118 L432 17 C433 7 440 0 450 0 L542 0 C552 0 559 7 561 17 L478 683 C477 693 472 700 462 700 L318 700 Z M360 533 L372 533 L407 235 L243 235 L360 533 Z " />
<glyph glyph-name="B" unicode="B" horiz-adv-x="553" d="M491 365 C516 393 544 428 549 465 L558 529 C571 624 502 700 404 700 L185 700 C175 700 167 693 165 683 L72 17 C70 7 77 0 87 0 L335 0 C433 0 523 76 537 171 L546 235 C553 287 524 334 491 365 L491 365 Z M256 406 L280 582 L379 582 C409 582 433 555 428 522 L420 466 C415 433 385 406 355 406 L256 406 Z M368 294 C398 294 421 267 416 234 L408 177 C404 144 373 117 343 117 L215 117 L240 294 L368 294 Z " />
<glyph glyph-name="C" unicode="C" horiz-adv-x="558" d="M408 173 C403 140 372 113 342 113 L261 113 C231 113 208 140 213 173 L263 527 C267 560 298 587 328 587 L409 587 C439 587 462 560 458 527 L454 501 C453 491 459 484 469 484 L564 484 C574 484 582 491 583 501 L588 534 C601 629 532 705 434 705 L337 705 C239 705 148 629 135 534 L83 166 C69 71 139 -5 237 -5 L334 -5 C432 -5 522 71 536 166 L540 199 C542 209 536 216 526 216 L431 216 C421 216 413 209 411 199 L408 173 Z " />
<glyph glyph-name="D" unicode="D" horiz-adv-x="583" d="M345 0 C443 0 533 76 547 171 L597 529 C610 624 541 700 443 700 L185 700 C175 700 167 693 165 683 L72 17 C70 7 77 0 87 0 L345 0 Z M418 582 C448 582 472 555 467 522 L418 177 C414 144 383 117 353 117 L215 117 L280 582 L418 582 Z " />
<glyph glyph-name="E" unicode="E" horiz-adv-x="509" d="M432 0 C442 0 449 7 451 17 L463 100 C464 110 458 117 448 117 L215 117 L241 304 L451 304 C461 304 469 311 471 321 L482 405 C484 415 478 422 468 422 L258 422 L280 582 L513 582 C523 582 531 589 533 599 L544 683 C546 693 540 700 530 700 L185 700 C175 700 167 693 165 683 L72 17 C70 7 77 0 87 0 L432 0 Z " />
<glyph glyph-name="F" unicode="F" horiz-adv-x="479" d="M238 278 L448 278 C458 278 466 285 467 295 L479 379 C480 389 474 396 464 396 L254 396 L280 582 L513 582 C523 582 531 589 533 599 L544 683 C546 693 540 700 530 700 L185 700 C175 700 167 693 165 683 L72 17 C70 7 77 0 87 0 L182 0 C192 0 199 7 201 17 L238 278 Z " />
<glyph glyph-name="G" unicode="G" horiz-adv-x="573" d="M331 295 C330 285 336 278 346 278 L423 278 L408 173 C403 140 372 113 342 113 L261 113 C231 113 208 140 213 173 L263 527 C267 560 298 587 328 587 L409 587 C439 587 462 560 458 527 L454 501 C453 491 459 484 469 484 L564 484 C574 484 582 491 583 501 L588 534 C601 629 532 705 434 705 L337 705 C239 705 148 629 135 534 L83 166 C69 71 139 -5 237 -5 L334 -5 C432 -5 522 71 536 166 L566 378 C567 388 561 395 551 395 L362 395 C352 395 344 388 343 378 L331 295 Z " />
<glyph glyph-name="H" unicode="H" horiz-adv-x="585" d="M294 683 C296 693 290 700 280 700 L185 700 C175 700 167 693 165 683 L72 17 C70 7 77 0 87 0 L182 0 C192 0 199 7 201 17 L238 281 L425 281 L388 17 C386 7 393 0 403 0 L498 0 C508 0 515 7 517 17 L610 683 C612 693 606 700 596 700 L501 700 C491 700 483 693 481 683 L442 399 L255 399 L294 683 Z " />
<glyph glyph-name="I" unicode="I" horiz-adv-x="269" d="M182 0 C192 0 199 7 201 17 L294 683 C296 693 290 700 280 700 L185 700 C175 700 167 693 165 683 L72 17 C70 7 77 0 87 0 L182 0 Z " />
<glyph glyph-name="J" unicode="J" horiz-adv-x="428" d="M110 142 C107 145 103 146 98 146 C94 146 90 145 85 142 L18 87 C13 83 11 79 10 74 C9 70 11 66 13 63 C30 41 68 -5 166 -5 C305 -5 389 84 402 175 L473 683 C475 693 469 700 459 700 L364 700 C354 700 346 693 344 683 L274 178 C274 178 264 113 176 113 C154 113 136 122 110 142 L110 142 Z " />
<glyph glyph-name="K" unicode="K" horiz-adv-x="559" d="M441 349 L621 683 C623 693 617 700 607 700 L510 700 C500 700 493 692 486 683 L338 407 L256 407 L294 683 C296 693 290 700 280 700 L185 700 C175 700 167 693 165 683 L72 17 C70 7 77 0 87 0 L182 0 C192 0 199 7 201 17 L240 292 L322 292 L393 17 C397 8 402 0 412 0 L511 0 C521 0 528 7 530 17 L441 349 Z " />
<glyph glyph-name="L" unicode="L" horiz-adv-x="479" d="M294 683 C296 693 290 700 280 700 L185 700 C175 700 167 693 165 683 L72 17 C70 7 77 0 87 0 L432 0 C442 0 449 7 451 17 L463 101 C464 111 458 118 448 118 L215 118 L294 683 Z " />
<glyph glyph-name="M" unicode="M" horiz-adv-x="744" d="M412 97 C422 97 427 104 433 114 L600 426 L604 426 L547 17 C545 7 552 0 562 0 L657 0 C667 0 674 7 676 17 L769 683 C771 693 765 700 755 700 L636 700 C626 700 618 692 613 683 L423 333 L413 333 L321 683 C320 692 314 700 304 700 L185 700 C175 700 167 693 165 683 L72 17 C70 7 77 0 87 0 L182 0 C192 0 199 7 201 17 L258 426 L262 426 L343 114 C345 104 348 97 358 97 L412 97 Z " />
<glyph glyph-name="N" unicode="N" horiz-adv-x="621" d="M311 700 L185 700 C175 700 167 693 165 683 L72 17 C70 7 77 0 87 0 L182 0 C192 0 199 7 201 17 L260 439 L265 439 L390 17 C393 8 398 0 408 0 L534 0 C544 0 551 7 553 17 L646 683 C648 693 642 700 632 700 L537 700 C527 700 519 693 517 683 L458 261 L453 261 L328 683 C326 692 321 700 311 700 L311 700 Z " />
<glyph glyph-name="O" unicode="O" horiz-adv-x="573" d="M237 -5 L334 -5 C432 -5 522 71 536 166 L588 534 C601 629 532 705 434 705 L337 705 C239 705 148 629 135 534 L83 166 C69 71 139 -5 237 -5 L237 -5 Z M409 587 C439 587 462 560 458 527 L408 173 C403 140 372 113 342 113 L261 113 C231 113 208 140 213 173 L263 527 C267 560 298 587 328 587 L409 587 Z " />
<glyph glyph-name="P" unicode="P" horiz-adv-x="563" d="M244 324 L280 582 L408 582 C438 582 462 555 457 522 L437 384 C433 351 402 324 372 324 L244 324 Z M185 700 C175 700 167 693 165 683 L72 17 C70 7 77 0 87 0 L182 0 C192 0 199 7 201 17 L227 205 L363 205 C461 205 552 281 565 376 L587 529 C600 624 531 700 433 700 L185 700 Z " />
<glyph glyph-name="Q" unicode="Q" horiz-adv-x="573" d="M434 705 L337 705 C239 705 148 629 135 534 L83 166 C70 74 135 -1 230 -4 L259 -101 C262 -110 268 -118 278 -118 L369 -118 C379 -118 387 -111 388 -101 L358 -3 C447 8 524 79 536 166 L588 534 C601 629 532 705 434 705 L434 705 Z M408 173 C403 140 372 113 342 113 L261 113 C231 113 208 140 213 173 L263 527 C267 560 298 587 328 587 L409 587 C439 587 462 560 458 527 L408 173 Z " />
<glyph glyph-name="R" unicode="R" horiz-adv-x="567" d="M185 700 C175 700 167 693 165 683 L72 17 C70 7 77 0 87 0 L182 0 C192 0 199 7 201 17 L227 205 L328 205 L388 17 C389 7 396 0 406 0 L510 0 C520 0 527 7 529 17 L458 229 C513 259 555 313 564 376 L586 529 C599 624 530 700 432 700 L185 700 Z M244 324 L280 582 L407 582 C437 582 461 555 456 522 L436 384 C432 351 401 324 371 324 L244 324 Z " />
<glyph glyph-name="S" unicode="S" horiz-adv-x="538" d="M518 182 C560 480 216 335 239 500 L243 527 C247 560 278 587 308 587 L379 587 C409 587 432 560 428 527 L426 514 C424 504 430 497 440 497 L535 497 C545 497 553 504 555 514 L558 534 C571 629 502 705 404 705 L317 705 C219 705 128 629 115 534 L111 512 C70 214 414 359 391 194 L388 173 C383 140 352 113 322 113 L241 113 C211 113 188 140 193 173 L195 192 C197 202 191 209 181 209 L86 209 C76 209 68 202 66 192 L63 166 C49 71 119 -5 217 -5 L314 -5 C412 -5 502 71 516 166 L518 182 Z " />
<glyph glyph-name="T" unicode="T" horiz-adv-x="509" d="M119 600 C117 590 123 583 133 583 L271 583 L192 17 C190 7 197 0 207 0 L302 0 C312 0 319 7 321 17 L400 583 L538 583 C548 583 556 590 558 600 L569 683 C571 693 565 700 555 700 L150 700 C140 700 132 693 130 683 L119 600 Z " />
<glyph glyph-name="U" unicode="U" horiz-adv-x="583" d="M289 683 C291 693 285 700 275 700 L180 700 C170 700 162 693 160 683 L88 166 C74 71 144 -5 242 -5 L339 -5 C437 -5 527 71 541 166 L613 683 C615 693 609 700 599 700 L504 700 C494 700 486 693 484 683 L413 173 C408 140 377 113 347 113 L266 113 C236 113 213 140 218 173 L289 683 Z " />
<glyph glyph-name="V" unicode="V" horiz-adv-x="584" d="M364 0 C374 0 380 7 385 17 L654 683 C656 693 650 700 640 700 L548 700 C538 700 530 693 525 683 L321 167 L309 167 L249 683 C248 693 242 700 232 700 L140 700 C130 700 122 693 120 683 L203 17 C204 7 210 0 220 0 L364 0 Z " />
<glyph glyph-name="W" unicode="W" horiz-adv-x="782" d="M451 700 C441 700 431 693 427 683 L267 235 L249 683 C246 692 241 700 231 700 L140 700 C130 700 122 693 120 683 L151 17 C151 7 156 0 166 0 L287 0 C297 0 304 8 310 17 L447 403 L476 17 C480 8 485 0 495 0 L616 0 C626 0 631 7 635 17 L852 683 C854 693 848 700 838 700 L747 700 C737 700 730 692 723 683 L581 235 L545 683 C545 693 537 700 527 700 L451 700 Z " />
<glyph glyph-name="X" unicode="X" horiz-adv-x="564" d="M402 17 C406 8 411 0 421 0 L517 0 C527 0 534 7 536 17 L446 349 L627 683 C629 693 623 700 613 700 L519 700 C509 700 502 692 495 683 L345 407 L333 407 L259 683 C256 692 251 700 241 700 L147 700 C137 700 129 693 127 683 L216 349 L32 17 C30 7 37 0 47 0 L143 0 C153 0 160 8 166 17 L317 292 L329 292 L402 17 Z " />
<glyph glyph-name="Y" unicode="Y" horiz-adv-x="569" d="M344 379 L331 379 L244 683 C242 692 237 700 227 700 L135 700 C125 700 117 693 115 683 L251 224 L222 17 C220 7 227 0 237 0 L332 0 C342 0 349 7 351 17 L380 224 L644 683 C646 693 640 700 630 700 L538 700 C528 700 521 692 515 683 L344 379 Z " />
<glyph glyph-name="Z" unicode="Z" horiz-adv-x="508" d="M546 620 C548 624 551 628 551 633 L558 683 C560 693 554 700 544 700 L160 700 C150 700 142 693 140 683 L129 600 C127 590 133 583 143 583 L389 583 L60 80 C57 76 55 72 54 67 L47 17 C45 7 52 0 62 0 L446 0 C456 0 463 7 465 17 L477 100 C478 110 472 117 462 117 L218 117 L546 620 Z " />
<glyph glyph-name="bracketleft" unicode="&#x5b;" horiz-adv-x="397" d="M285 -177 C295 -177 303 -170 304 -160 L316 -77 C317 -67 311 -60 301 -60 L190 -60 L295 688 L406 688 C416 688 424 695 426 705 L437 788 C439 798 433 805 423 805 L200 805 C190 805 182 798 180 788 L47 -160 C46 -170 52 -177 62 -177 L285 -177 Z " />
<glyph glyph-name="backslash" unicode="&#x5c;" horiz-adv-x="571" d="M458 -179 C468 -179 476 -172 478 -162 L309 787 C308 797 304 804 294 804 L199 804 C189 804 182 797 180 787 L349 -162 C350 -172 353 -179 363 -179 L458 -179 Z " />
<glyph glyph-name="bracketright" unicode="&#x5d;" horiz-adv-x="397" d="M285 -177 C295 -177 303 -170 304 -160 L437 788 C439 798 433 805 423 805 L200 805 C190 805 182 798 180 788 L169 705 C167 695 173 688 183 688 L294 688 L189 -60 L78 -60 C68 -60 60 -67 59 -77 L47 -160 C46 -170 52 -177 62 -177 L285 -177 Z " />
<glyph glyph-name="asciicircum" unicode="&#x5e;" horiz-adv-x="454" d="M272 700 C262 700 255 692 248 683 L142 516 C141 506 147 499 157 499 L241 499 C251 499 259 507 264 516 L309 586 L334 516 C337 507 343 499 353 499 L437 499 C447 499 455 506 456 516 L396 683 C393 692 388 700 378 700 L272 700 Z " />
<glyph glyph-name="underscore" unicode="&#x5f;" horiz-adv-x="390" d="M283 -140 C293 -140 301 -133 302 -123 L314 -40 C315 -30 309 -23 299 -23 L83 -23 C73 -23 65 -30 64 -40 L52 -123 C51 -133 57 -140 67 -140 L283 -140 Z " />
<glyph glyph-name="grave" unicode="&#x60;" horiz-adv-x="334" d="M320 520 C330 520 338 527 339 537 L294 683 C292 692 286 700 276 700 L185 700 C175 700 167 693 165 683 L210 537 C213 528 219 520 229 520 L320 520 Z " />
<glyph glyph-name="a" unicode="a" horiz-adv-x="475" d="M202 168 C205 190 229 209 250 209 L325 209 L317 154 C314 132 290 113 269 113 L236 113 C215 113 197 132 200 154 L202 168 Z M166 496 C158 493 152 488 151 480 C151 478 150 470 157 398 C160 386 168 386 177 386 C200 391 237 402 278 402 C346 402 345 354 342 329 L340 315 L247 315 C155 315 87 264 74 176 L68 134 C56 46 95 -5 187 -5 L211 -5 C233 -5 268 4 292 33 L300 33 L298 17 C296 7 303 0 313 0 L408 0 C418 0 425 7 427 17 L471 330 C477 377 498 520 311 520 C227 520 189 505 166 496 L166 496 Z " />
<glyph glyph-name="b" unicode="b" horiz-adv-x="510" d="M249 361 C252 383 276 402 297 402 L345 402 C366 402 384 383 381 361 L352 154 C349 132 325 113 304 113 L256 113 C235 113 217 132 220 154 L249 361 Z M294 682 C296 693 293 700 282 700 L186 700 C175 700 167 693 165 682 L72 17 C70 7 77 0 87 0 L182 0 C192 0 199 7 201 17 L203 33 L211 33 C227 4 257 -5 279 -5 L318 -5 C419 -5 468 62 481 150 L511 365 C523 453 493 520 392 520 L353 520 C331 520 298 511 274 482 L266 482 L294 682 Z " />
<glyph glyph-name="c" unicode="c" horiz-adv-x="466" d="M75 149 C70 73 113 -5 207 -5 L277 -5 C371 -5 436 73 451 149 L453 162 C455 172 449 179 439 179 L344 179 C334 179 326 172 324 162 L323 154 C320 132 296 113 275 113 L241 113 C220 113 202 132 205 154 L234 361 C237 383 261 402 282 402 L316 402 C337 402 355 383 352 361 L351 353 C350 343 356 336 366 336 L461 336 C471 336 479 343 480 353 L482 366 C488 442 445 520 351 520 L281 520 C187 520 122 442 106 366 L75 149 Z " />
<glyph glyph-name="d" unicode="d" horiz-adv-x="510" d="M332 154 C329 132 305 113 284 113 L236 113 C215 113 197 132 200 154 L229 361 C232 383 256 402 277 402 L325 402 C346 402 364 383 361 361 L332 154 Z M378 482 L370 482 C354 511 325 520 303 520 L264 520 C163 520 113 453 101 365 L71 150 C58 62 89 -5 190 -5 L229 -5 C251 -5 283 4 307 33 L315 33 L313 17 C311 7 318 0 328 0 L423 0 C433 0 440 7 442 17 L535 682 C537 693 531 700 520 700 L424 700 C413 700 408 693 406 682 L378 482 Z " />
<glyph glyph-name="e" unicode="e" horiz-adv-x="481" d="M426 72 C428 75 430 79 430 82 C431 87 429 92 425 95 L373 143 C370 145 366 146 363 146 C357 146 353 143 348 139 C335 128 315 113 283 113 L241 113 C220 113 202 132 205 154 L212 203 L442 203 C452 203 460 210 461 220 L482 366 C488 442 445 520 351 520 L281 520 C187 520 122 442 106 366 L75 149 C70 73 113 -5 207 -5 L267 -5 C267 -5 367 -5 426 72 L426 72 Z M234 361 C237 383 261 402 282 402 L316 402 C337 402 355 383 352 361 L345 307 L227 307 L234 361 Z " />
<glyph glyph-name="f" unicode="f" horiz-adv-x="375" d="M83 414 C81 404 87 397 97 397 L162 397 L109 17 C107 7 114 0 124 0 L219 0 C229 0 236 7 238 17 L291 397 L378 397 C388 397 396 404 398 414 L409 498 C411 508 405 515 395 515 L308 515 L317 577 C320 599 343 618 364 618 L409 618 C419 618 427 625 429 635 L440 718 C442 728 436 735 426 735 L363 735 C269 735 204 657 188 581 L179 515 L114 515 C104 515 96 508 94 498 L83 414 Z " />
<glyph glyph-name="g" unicode="g" horiz-adv-x="510" d="M332 154 C329 132 305 113 284 113 L236 113 C215 113 197 132 200 154 L229 361 C232 383 256 402 277 402 L325 402 C346 402 364 383 361 361 L332 154 Z M307 -24 C304 -49 280 -85 212 -85 C171 -85 142 -79 120 -74 C111 -74 103 -74 97 -86 C69 -158 68 -167 68 -169 C67 -177 71 -181 79 -184 C101 -191 127 -203 211 -203 C398 -203 429 -72 436 -25 L509 497 C511 508 505 515 494 515 L398 515 C387 515 382 508 380 497 L378 482 L370 482 C354 511 325 520 303 520 L264 520 C163 520 113 453 101 365 L71 150 C58 62 89 -5 190 -5 L229 -5 C251 -5 283 4 307 33 L315 33 L307 -24 Z " />
<glyph glyph-name="h" unicode="h" horiz-adv-x="512" d="M247 345 C273 392 302 402 324 402 L337 402 C358 402 376 383 373 361 L325 17 C323 7 330 0 340 0 L435 0 C445 0 452 7 454 17 L503 365 C510 453 490 520 398 520 L383 520 C361 520 308 519 272 463 L264 463 L294 682 C296 693 293 700 282 700 L186 700 C175 700 167 693 165 682 L72 17 C70 7 77 0 87 0 L182 0 C192 0 199 7 201 17 L247 345 Z " />
<glyph glyph-name="i" unicode="i" horiz-adv-x="269" d="M182 0 C192 0 199 7 201 17 L268 498 C270 508 264 515 254 515 L159 515 C149 515 141 508 139 498 L72 17 C70 7 77 0 87 0 L182 0 Z M264 565 C274 565 282 572 283 582 L297 683 C299 693 293 700 283 700 L183 700 C173 700 165 693 163 683 L149 582 C148 572 154 565 164 565 L264 565 Z " />
<glyph glyph-name="j" unicode="j" horiz-adv-x="269" d="M14 -186 C14 -186 179 -142 200 12 L268 498 C270 508 264 515 254 515 L159 515 C149 515 141 508 139 498 L72 17 C72 17 64 -41 -17 -67 C-24 -69 -29 -76 -30 -82 C-30 -84 -30 -87 -29 -89 L-5 -177 C-3 -184 1 -188 7 -188 C9 -188 12 -187 14 -186 L14 -186 Z M264 565 C274 565 282 572 283 582 L297 683 C299 693 293 700 283 700 L183 700 C173 700 165 693 163 683 L149 582 C148 572 154 565 164 565 L264 565 Z " />
<glyph glyph-name="k" unicode="k" horiz-adv-x="494" d="M412 270 L543 498 C545 508 539 515 529 515 L434 515 C424 515 412 507 405 498 L306 328 L245 328 L294 683 C296 693 290 700 280 700 L185 700 C175 700 167 693 165 683 L72 17 C70 7 77 0 87 0 L182 0 C192 0 199 7 201 17 L228 213 L288 213 L337 17 C341 8 346 0 356 0 L456 0 C466 0 473 7 475 17 L412 270 Z " />
<glyph glyph-name="l" unicode="l" horiz-adv-x="269" d="M182 0 C192 0 199 7 201 17 L294 683 C296 693 290 700 280 700 L185 700 C175 700 167 693 165 683 L72 17 C70 7 77 0 87 0 L182 0 Z " />
<glyph glyph-name="m" unicode="m" horiz-adv-x="723" d="M536 17 C534 7 541 0 551 0 L646 0 C656 0 663 7 665 17 L714 365 C721 453 690 520 598 520 C577 520 531 520 484 463 L467 463 C448 498 430 520 378 520 C355 520 320 520 272 463 L264 463 L268 497 C270 508 267 515 256 515 L160 515 C149 515 141 508 139 497 L72 17 C70 7 77 0 87 0 L182 0 C192 0 199 7 201 17 L247 345 C264 387 283 402 312 402 C345 402 355 383 350 348 L304 17 C302 7 309 0 319 0 L414 0 C424 0 431 7 433 17 L479 345 C496 387 515 402 544 402 C577 402 587 383 582 348 L536 17 Z " />
<glyph glyph-name="n" unicode="n" horiz-adv-x="512" d="M247 345 C273 392 302 402 324 402 L337 402 C358 402 376 383 373 361 L325 17 C323 7 330 0 340 0 L435 0 C445 0 452 7 454 17 L503 365 C510 453 490 520 398 520 L383 520 C361 520 308 519 272 463 L264 463 L268 497 C270 508 267 515 256 515 L160 515 C149 515 141 508 139 497 L72 17 C70 7 77 0 87 0 L182 0 C192 0 199 7 201 17 L247 345 Z " />
<glyph glyph-name="o" unicode="o" horiz-adv-x="486" d="M241 113 C220 113 202 132 205 154 L234 361 C237 383 261 402 282 402 L316 402 C337 402 355 383 352 361 L323 154 C320 132 296 113 275 113 L241 113 Z M277 -5 C371 -5 436 73 451 149 L482 366 C488 442 445 520 351 520 L281 520 C187 520 122 442 106 366 L75 149 C70 73 113 -5 207 -5 L277 -5 Z " />
<glyph glyph-name="p" unicode="p" horiz-adv-x="510" d="M249 361 C252 383 276 402 297 402 L345 402 C366 402 384 383 381 361 L352 154 C349 132 325 113 304 113 L256 113 C235 113 217 132 220 154 L249 361 Z M268 497 C270 508 267 515 256 515 L160 515 C149 515 141 508 139 497 L47 -157 C46 -167 52 -174 62 -174 L157 -174 C167 -174 175 -167 176 -157 L203 33 L211 33 C227 4 257 -5 279 -5 L318 -5 C419 -5 468 62 481 150 L511 365 C523 453 493 520 392 520 L353 520 C331 520 298 511 274 482 L266 482 L268 497 Z " />
<glyph glyph-name="q" unicode="q" horiz-adv-x="510" d="M332 154 C329 132 305 113 284 113 L236 113 C215 113 197 132 200 154 L229 361 C232 383 256 402 277 402 L325 402 C346 402 364 383 361 361 L332 154 Z M378 482 L370 482 C354 511 325 520 303 520 L264 520 C163 520 113 453 101 365 L71 150 C58 62 89 -5 190 -5 L229 -5 C251 -5 283 4 307 33 L315 33 L288 -157 C287 -167 293 -174 303 -174 L398 -174 C408 -174 416 -167 417 -157 L509 497 C511 508 505 515 494 515 L398 515 C387 515 382 508 380 497 L378 482 Z " />
<glyph glyph-name="r" unicode="r" horiz-adv-x="381" d="M392 396 C402 396 410 403 412 413 L430 495 C431 505 429 510 420 514 C407 517 389 520 373 520 C351 520 308 519 272 463 L264 463 L268 497 C270 508 267 515 256 515 L160 515 C149 515 141 508 139 497 L72 17 C70 7 77 0 87 0 L182 0 C192 0 199 7 201 17 L247 345 C284 401 326 402 348 402 C365 402 379 399 392 396 L392 396 Z " />
<glyph glyph-name="s" unicode="s" horiz-adv-x="461" d="M96 369 C68 169 320 233 314 158 L311 141 C308 119 286 108 265 108 L231 108 C210 108 191 127 194 149 L195 154 C197 164 191 171 181 171 L86 171 C76 171 68 164 66 154 L65 149 C60 73 103 -5 197 -5 L267 -5 C361 -5 424 62 440 138 L442 151 C470 350 218 286 224 362 L226 374 C229 396 252 407 273 407 L300 407 C321 407 339 388 336 366 L335 361 C334 351 340 344 350 344 L445 344 C455 344 463 351 464 361 L465 366 C471 442 428 520 334 520 L271 520 C177 520 113 453 97 377 L96 369 Z " />
<glyph glyph-name="t" unicode="t" horiz-adv-x="369" d="M83 414 C81 404 87 397 97 397 L162 397 L128 154 C122 78 166 0 260 0 L322 0 C332 0 339 7 341 17 L353 100 C354 110 348 117 338 117 L294 117 C273 117 255 136 258 158 L291 397 L377 397 C387 397 395 404 397 414 L408 498 C410 508 404 515 394 515 L308 515 L331 683 C333 693 327 700 317 700 L222 700 C212 700 204 693 202 683 L179 515 L114 515 C104 515 96 508 94 498 L83 414 Z " />
<glyph glyph-name="u" unicode="u" horiz-adv-x="496" d="M505 498 C507 508 501 515 491 515 L396 515 C386 515 378 508 376 498 L328 154 C325 132 301 113 280 113 L246 113 C225 113 207 132 210 154 L258 498 C260 508 254 515 244 515 L149 515 C139 515 131 508 129 498 L80 149 C75 73 118 -5 212 -5 L282 -5 C376 -5 441 73 456 149 L505 498 Z " />
<glyph glyph-name="v" unicode="v" horiz-adv-x="458" d="M301 0 C311 0 317 7 322 17 L512 498 C514 508 508 515 498 515 L406 515 C396 515 388 508 383 498 L258 168 L246 168 L213 498 C212 508 206 515 196 515 L104 515 C94 515 86 508 84 498 L140 17 C141 7 147 0 157 0 L301 0 Z " />
<glyph glyph-name="w" unicode="w" horiz-adv-x="632" d="M354 515 C344 515 336 508 331 498 L228 236 L214 498 C213 508 207 515 197 515 L104 515 C94 515 86 508 84 498 L129 17 C130 7 137 0 147 0 L231 0 C241 0 246 7 251 17 L354 276 L385 17 C386 7 391 0 401 0 L485 0 C495 0 502 7 507 17 L686 498 C688 508 682 515 672 515 L579 515 C569 515 561 508 556 498 L470 236 L439 498 C438 508 432 515 422 515 L354 515 Z " />
<glyph glyph-name="x" unicode="x" horiz-adv-x="460" d="M309 17 C313 8 318 0 328 0 L423 0 C433 0 440 7 442 17 L381 258 L506 498 C508 508 502 515 492 515 L398 515 C388 515 381 507 374 498 L280 319 L268 319 L224 498 C221 507 216 515 206 515 L112 515 C102 515 94 508 92 498 L151 258 L22 17 C20 7 27 0 37 0 L132 0 C142 0 149 8 155 17 L252 201 L264 201 L309 17 Z " />
<glyph glyph-name="y" unicode="y" horiz-adv-x="458" d="M146 -32 C139 -54 122 -86 79 -86 L43 -86 C33 -86 25 -93 24 -103 L12 -186 C11 -196 17 -203 27 -203 L106 -203 C129 -203 242 -181 310 -11 L512 498 C514 508 508 515 498 515 L406 515 C396 515 388 508 383 498 L258 168 L246 168 L213 498 C212 508 206 515 196 515 L104 515 C94 515 86 508 84 498 L146 -32 Z " />
<glyph glyph-name="z" unicode="z" horiz-adv-x="428" d="M214 117 L445 436 C447 440 450 443 450 448 L457 498 C459 508 453 515 443 515 L129 515 C119 515 111 508 109 498 L98 415 C96 405 102 398 112 398 L285 398 L55 79 C52 75 50 72 49 67 L42 17 C40 7 47 0 57 0 L371 0 C381 0 388 7 390 17 L402 100 C403 110 397 117 387 117 L214 117 Z " />
<glyph glyph-name="braceleft" unicode="&#x7b;" horiz-adv-x="462" d="M164 -7 C150 -102 219 -178 317 -178 L341 -178 C351 -178 359 -171 361 -161 L373 -78 C374 -68 368 -61 358 -61 L342 -61 C312 -61 289 -34 293 -1 L322 204 C328 245 318 282 297 312 C332 342 355 383 362 429 L390 628 C394 661 425 688 455 688 L471 688 C481 688 489 695 491 705 L502 788 C504 798 498 805 488 805 L464 805 C366 805 275 729 262 634 L234 435 C229 402 198 375 168 375 L139 375 C129 375 121 368 120 358 L108 275 C107 265 113 258 123 258 L148 258 C175 255 197 229 192 198 L164 -7 Z " />
<glyph glyph-name="bar" unicode="&#x7c;" horiz-adv-x="269" d="M156 -178 C166 -178 174 -171 176 -161 L309 788 C311 798 305 805 295 805 L200 805 C190 805 182 798 180 788 L47 -161 C45 -171 51 -178 61 -178 L156 -178 Z " />
<glyph glyph-name="braceright" unicode="&#x7d;" horiz-adv-x="462" d="M324 198 C329 229 357 255 386 258 L411 258 C421 258 429 265 430 275 L442 358 C443 368 437 375 427 375 L398 375 C368 375 345 402 350 435 L378 634 C391 729 322 805 224 805 L200 805 C190 805 182 798 180 788 L169 705 C167 695 173 688 183 688 L199 688 C229 688 252 661 248 628 L220 429 C213 383 226 342 251 312 C222 282 202 245 196 204 L167 -1 C163 -34 132 -61 102 -61 L86 -61 C76 -61 68 -68 67 -78 L55 -161 C53 -171 59 -178 69 -178 L93 -178 C191 -178 282 -102 296 -7 L324 198 Z " />
<glyph glyph-name="asciitilde" unicode="&#x7e;" horiz-adv-x="428" d="M292 159 C319 159 345 172 373 188 C380 193 386 200 387 208 C387 209 387 211 377 277 C376 283 371 289 361 289 C359 289 356 289 354 288 C341 282 318 276 308 276 C267 276 245 315 204 315 C178 315 149 302 122 286 C114 281 108 274 107 266 L118 197 C119 191 126 186 135 186 C137 186 141 186 143 187 C154 192 178 198 187 198 C229 198 251 159 292 159 L292 159 Z " />
<glyph glyph-name="uni00A0" unicode="&#xa0;" horiz-adv-x="198" d="" />
<glyph glyph-name="exclamdown" unicode="&#xa1;" horiz-adv-x="269" d="M256 501 C256 511 251 518 241 518 L172 518 C162 518 155 511 153 501 L123 383 L70 1 C68 -9 74 -16 84 -16 L179 -16 C189 -16 197 -9 199 1 L252 383 L256 501 Z M185 700 C175 700 167 693 165 683 L153 592 C151 582 157 575 167 575 L262 575 C272 575 280 582 282 592 L294 683 C296 693 290 700 280 700 L185 700 Z " />
<glyph glyph-name="cent" unicode="&#xa2;" horiz-adv-x="593" d="M325 -137 C335 -137 343 -130 345 -120 L361 -4 C452 4 533 76 546 166 L550 199 C552 209 546 216 536 216 L441 216 C431 216 423 209 421 199 L418 173 C413 140 382 113 352 113 L271 113 C241 113 218 140 223 173 L273 527 C277 560 308 587 338 587 L419 587 C449 587 472 560 468 527 L464 501 C463 491 469 484 479 484 L574 484 C584 484 592 491 593 501 L598 534 C610 623 549 696 460 704 L476 815 C477 825 471 832 461 832 L366 832 C356 832 348 825 347 815 L331 704 C239 697 157 624 145 534 L93 166 C80 76 142 3 232 -4 L216 -120 C214 -130 220 -137 230 -137 L325 -137 Z " />
<glyph glyph-name="sterling" unicode="&#xa3;" horiz-adv-x="605" d="M518 0 C528 0 535 7 537 17 L549 101 C550 111 544 118 534 118 L301 118 L323 271 L404 271 C414 271 422 278 423 288 L435 372 C436 382 430 389 420 389 L339 389 L361 541 C364 563 387 582 408 582 L442 582 C463 582 482 563 479 541 L477 533 C476 523 482 516 492 516 L587 516 C597 516 605 523 606 533 L608 546 C614 622 571 700 477 700 L407 700 C313 700 248 622 232 546 L210 389 L141 389 C131 389 123 382 122 372 L110 288 C109 278 115 271 125 271 L194 271 L172 118 L103 118 C93 118 85 111 84 101 L72 17 C70 7 77 0 87 0 L518 0 Z " />
<glyph glyph-name="currency" unicode="&#xa4;" horiz-adv-x="490" d="M256 359 C249 359 243 358 237 357 L226 391 C225 401 222 408 212 408 L144 408 C134 408 126 401 124 391 L151 303 C138 285 126 263 124 242 L113 166 C110 144 115 123 123 104 L72 17 C70 7 77 0 87 0 L155 0 C165 0 169 7 174 17 L194 50 C199 49 205 49 212 49 L289 49 C297 49 303 49 310 50 L320 17 C321 7 325 0 335 0 L403 0 C413 0 420 7 422 17 L395 104 C409 123 420 144 423 166 L434 242 C436 263 432 285 423 303 L474 391 C476 401 470 408 460 408 L392 408 C382 408 377 401 372 391 L353 357 C347 358 341 359 334 359 L256 359 Z M307 270 C323 270 337 255 335 238 L325 170 C323 153 305 138 289 138 L239 138 C223 138 209 153 211 170 L221 238 C223 255 241 270 257 270 L307 270 Z " />
<glyph glyph-name="yen" unicode="&#xa5;" horiz-adv-x="669" d="M502 78 C512 78 520 85 522 95 L534 178 C535 188 529 195 519 195 L426 195 L430 224 L447 255 L527 255 C537 255 545 262 547 272 L558 355 C560 365 554 372 544 372 L515 372 L694 683 C696 693 690 700 680 700 L588 700 C578 700 571 692 565 683 L394 379 L381 379 L294 683 C292 692 287 700 277 700 L185 700 C175 700 167 693 165 683 L257 372 L229 372 C219 372 211 365 209 355 L198 272 C196 262 202 255 212 255 L291 255 L301 224 L297 195 L204 195 C194 195 186 188 185 178 L173 95 C171 85 177 78 187 78 L280 78 L272 17 C270 7 277 0 287 0 L382 0 C392 0 399 7 401 17 L409 78 L502 78 Z " />
<glyph glyph-name="brokenbar" unicode="&#xa6;" horiz-adv-x="269" d="M235 382 C245 382 253 389 255 399 L309 788 C311 798 305 805 295 805 L200 805 C190 805 182 798 180 788 L126 399 C124 389 130 382 140 382 L235 382 Z M156 -178 C166 -178 174 -171 176 -161 L231 228 C232 238 226 245 216 245 L121 245 C111 245 103 238 102 228 L47 -161 C45 -171 51 -178 61 -178 L156 -178 Z " />
<glyph glyph-name="section" unicode="&#xa7;" horiz-adv-x="516" d="M147 549 C139 498 152 463 175 440 C147 415 127 381 118 344 L116 331 C105 252 141 213 189 192 L200 187 C274 158 336 162 333 120 L332 108 C329 86 306 75 285 75 L251 75 C230 75 212 94 215 116 L216 121 C217 131 211 138 201 138 L106 138 C96 138 88 131 87 121 L86 116 C80 40 123 -38 217 -38 L287 -38 C381 -38 445 29 460 105 L461 113 C469 164 455 198 432 221 C462 248 482 284 491 323 L492 331 C520 532 268 468 275 542 L276 554 C279 576 302 587 323 587 L350 587 C371 587 389 568 386 546 L386 541 C384 531 390 524 400 524 L495 524 C505 524 513 531 515 541 L515 546 C521 622 478 700 384 700 L321 700 C227 700 163 633 148 557 L147 549 Z M282 293 C261 293 241 304 244 326 L246 336 C249 358 271 369 292 369 L319 369 C340 369 360 358 357 336 L355 326 C352 304 330 293 309 293 L282 293 Z " />
<glyph glyph-name="dieresis" unicode="&#xa8;" horiz-adv-x="435" d="M259 574 C268 574 276 581 277 590 L291 684 C292 693 286 700 277 700 L184 700 C174 700 167 693 166 684 L152 590 C151 581 156 574 166 574 L259 574 Z M429 574 C438 574 446 581 447 590 L461 684 C462 693 456 700 447 700 L354 700 C344 700 337 693 336 684 L322 590 C321 581 326 574 336 574 L429 574 Z " />
<glyph glyph-name="copyright" unicode="&#xa9;" horiz-adv-x="851" d="M524 699 C328 699 145 540 118 344 C90 148 228 -11 424 -11 C619 -11 801 148 829 344 C856 540 719 699 524 699 L524 699 Z M435 70 C282 70 178 192 200 344 C221 497 360 620 513 620 C667 620 771 497 750 344 C728 192 589 70 435 70 L435 70 Z M302 263 C298 204 331 144 404 144 L482 144 C555 144 604 204 616 263 L618 273 C619 280 615 286 607 286 L534 286 C526 286 520 280 519 273 L518 266 C515 249 498 235 481 235 L431 235 C414 235 399 249 402 266 L424 426 C427 443 445 457 462 457 L512 457 C529 457 543 443 540 426 L539 419 C538 412 543 406 551 406 L624 406 C632 406 637 412 638 419 L640 429 C644 488 612 548 539 548 L461 548 C388 548 338 488 326 429 L302 263 Z " />
<glyph glyph-name="ordfeminine" unicode="&#xaa;" horiz-adv-x="391" d="M227 493 C229 506 242 514 254 514 L306 514 L302 485 C300 472 286 464 273 464 L247 464 C235 464 224 472 226 485 L227 493 Z M193 686 C189 685 185 682 185 677 C185 676 183 663 187 620 C188 613 193 613 198 613 C213 616 244 622 268 622 C308 622 318 602 316 588 L315 580 L246 580 C191 580 147 550 139 497 L136 473 C129 421 164 391 219 391 L233 391 C245 391 271 396 287 413 L292 413 L290 404 C289 398 293 394 299 394 L366 394 C372 394 376 398 377 404 L403 588 C407 616 398 700 288 700 C239 700 207 691 193 686 L193 686 Z " />
<glyph glyph-name="guillemotleft" unicode="&#xab;" horiz-adv-x="705" d="M258 281 L414 498 C416 508 410 515 400 515 L295 515 C285 515 273 507 266 498 L109 281 L106 259 L201 17 C205 8 210 0 220 0 L327 0 C337 0 344 7 346 17 L255 259 L258 281 Z M548 281 L704 498 C706 508 700 515 690 515 L585 515 C575 515 563 507 556 498 L399 281 L396 259 L491 17 C495 8 500 0 510 0 L617 0 C627 0 634 7 636 17 L545 259 L548 281 Z " />
<glyph glyph-name="logicalnot" unicode="&#xac;" horiz-adv-x="519" d="M330 75 C329 65 335 58 345 58 L440 58 C450 58 458 65 459 75 L490 296 C492 306 485 313 475 313 L130 313 C120 313 113 306 111 296 L99 212 C98 202 104 195 114 195 L347 195 L330 75 Z " />
<glyph glyph-name="uni00AD" unicode="&#xad;" horiz-adv-x="198" d="" />
<glyph glyph-name="registered" unicode="&#xae;" horiz-adv-x="851" d="M524 699 C328 699 145 540 118 344 C90 148 228 -11 424 -11 C619 -11 801 148 829 344 C856 540 719 699 524 699 L524 699 Z M435 70 C282 70 178 192 200 344 C221 497 360 620 513 620 C667 620 771 497 750 344 C728 192 589 70 435 70 L435 70 Z M434 357 L448 459 L515 459 C532 459 545 443 542 424 L537 391 C535 372 518 357 501 357 L434 357 Z M307 161 C306 154 310 148 318 148 L391 148 C399 148 405 154 406 161 L421 266 L476 266 L510 158 C511 152 514 148 520 148 L600 148 C606 148 611 152 612 158 L571 279 C602 297 627 328 632 364 L644 451 C652 506 613 550 556 550 L375 550 C367 550 361 544 360 537 L307 161 Z " />
<glyph glyph-name="macron" unicode="&#xaf;" horiz-adv-x="392" d="M386 583 C396 583 404 590 406 600 L417 683 C419 693 413 700 403 700 L185 700 C175 700 167 693 165 683 L154 600 C152 590 158 583 168 583 L386 583 Z " />
<glyph glyph-name="degree" unicode="&#xb0;" horiz-adv-x="412" d="M310 751 C236 751 167 691 156 615 C146 541 198 480 272 480 C348 480 418 541 428 615 C439 691 386 751 310 751 L310 751 Z M285 570 C260 570 243 592 246 615 C250 641 272 661 297 661 C321 661 341 641 337 615 C334 592 309 570 285 570 L285 570 Z " />
<glyph glyph-name="plusminus" unicode="&#xb1;" horiz-adv-x="435" d="M287 162 C297 162 305 169 307 179 L320 272 L386 272 C396 272 404 279 405 289 L417 372 C418 382 412 389 402 389 L336 389 L349 483 C351 493 345 500 335 500 L240 500 C230 500 222 493 220 483 L207 389 L141 389 C131 389 123 382 122 372 L110 289 C109 279 115 272 125 272 L191 272 L178 179 C176 169 182 162 192 162 L287 162 Z M348 0 C358 0 365 7 367 17 L379 100 C380 110 374 117 364 117 L103 117 C93 117 85 110 84 100 L72 17 C70 7 77 0 87 0 L348 0 Z " />
<glyph glyph-name="twosuperior" unicode="&#xb2;" horiz-adv-x="356" d="M227 471 C234 522 349 468 369 611 L371 625 C377 667 348 700 305 700 L250 700 C207 700 169 667 163 625 L159 593 C158 588 161 585 166 585 L224 585 C229 585 232 588 233 593 L234 598 C236 613 244 624 257 624 L267 624 C280 624 285 614 284 605 L283 600 C273 531 153 592 134 461 L126 401 C125 397 128 394 132 394 L334 394 C338 394 341 397 342 401 L351 463 C351 468 349 471 345 471 L227 471 Z " />
<glyph glyph-name="threesuperior" unicode="&#xb3;" horiz-adv-x="348" d="M314 547 C338 557 359 578 363 611 L365 625 C371 667 342 700 299 700 L244 700 C201 700 163 667 157 625 L153 593 C152 588 155 585 160 585 L218 585 C223 585 226 588 227 593 L228 598 C230 613 238 624 251 624 L261 624 C274 624 279 614 278 605 L277 599 C275 590 268 580 255 580 L238 580 C234 580 231 577 230 572 L223 522 C222 517 225 514 229 514 L246 514 C259 514 263 504 262 495 L261 489 C260 480 253 470 240 470 L230 470 C217 470 211 481 213 496 L214 501 C215 506 212 509 207 509 L149 509 C144 509 141 506 140 501 L135 469 C130 427 158 394 201 394 L256 394 C299 394 338 427 343 469 L345 483 C350 516 335 537 314 547 L314 547 Z " />
<glyph glyph-name="acute" unicode="&#xb4;" horiz-adv-x="330" d="M253 538 C263 538 271 546 277 555 L355 683 C357 693 351 700 341 700 L250 700 C240 700 232 692 226 683 L148 555 C146 545 152 538 162 538 L253 538 Z " />
<glyph glyph-name="mu" unicode="&#xb5;" horiz-adv-x="516" d="M501 515 L406 515 C396 515 388 508 386 498 L338 154 C335 132 311 113 290 113 L256 113 C235 113 217 132 220 154 L268 498 C270 508 264 515 254 515 L159 515 C149 515 141 508 139 498 L47 -157 C46 -167 51 -174 61 -174 L156 -174 C166 -174 174 -167 175 -157 L197 -3 C205 -4 213 -5 222 -5 L292 -5 C386 -5 451 73 466 149 L515 498 C517 508 511 515 501 515 L501 515 Z " />
<glyph glyph-name="paragraph" unicode="&#xb6;" horiz-adv-x="685" d="M488 17 C486 7 493 0 503 0 L598 0 C608 0 615 7 617 17 L710 683 C712 693 706 700 696 700 L346 700 C248 700 157 624 144 529 L128 419 C115 324 184 248 282 248 L336 248 L304 17 C302 7 309 0 319 0 L414 0 C424 0 431 7 433 17 L512 582 L567 582 L488 17 Z " />
<glyph glyph-name="periodcentered" unicode="&#xb7;" horiz-adv-x="274" d="M209 162 C219 162 227 169 229 179 L243 280 C244 290 238 297 228 297 L128 297 C118 297 110 290 109 280 L95 179 C93 169 99 162 109 162 L209 162 Z " />
<glyph glyph-name="cedilla" unicode="&#xb8;" horiz-adv-x="304" d="M78 -44 C76 -47 74 -51 74 -54 L69 -90 C68 -97 72 -102 79 -102 L132 -102 C132 -102 146 -102 144 -117 C142 -131 128 -131 128 -131 L63 -131 C56 -131 50 -136 49 -143 L44 -183 C43 -190 47 -195 54 -195 L136 -195 C190 -195 209 -171 219 -100 C225 -59 193 -38 158 -38 L181 -7 C182 3 176 10 166 10 L128 10 C121 10 114 5 111 0 L78 -44 Z " />
<glyph glyph-name="onesuperior" unicode="&#xb9;" horiz-adv-x="359" d="M233 623 L212 471 L158 471 C152 471 146 466 145 460 L137 405 C137 399 141 394 147 394 L333 394 C339 394 345 399 345 405 L353 460 C354 466 350 471 344 471 L299 471 L329 689 C330 695 326 700 320 700 L243 700 L175 674 C169 672 163 666 162 660 L155 608 C154 602 158 597 164 597 L233 623 Z " />
<glyph glyph-name="ordmasculine" unicode="&#xba;" horiz-adv-x="412" d="M310 751 C236 751 167 691 156 615 C146 541 198 480 272 480 C348 480 418 541 428 615 C439 691 386 751 310 751 L310 751 Z M285 570 C260 570 243 592 246 615 C250 641 272 661 297 661 C321 661 341 641 337 615 C334 592 309 570 285 570 L285 570 Z " />
<glyph glyph-name="guillemotright" unicode="&#xbb;" horiz-adv-x="705" d="M522 259 L363 17 C361 7 368 0 378 0 L485 0 C495 0 502 8 508 17 L671 259 L674 281 L577 498 C574 507 564 515 554 515 L449 515 C439 515 431 508 429 498 L525 281 L522 259 Z M232 259 L73 17 C71 7 78 0 88 0 L195 0 C205 0 212 8 218 17 L381 259 L384 281 L287 498 C284 507 274 515 264 515 L159 515 C149 515 141 508 139 498 L235 281 L232 259 Z " />
<glyph glyph-name="onequarter" unicode="&#xbc;" horiz-adv-x="764" d="M256 0 C266 0 273 7 279 17 L711 683 C713 693 707 700 697 700 L633 700 C623 700 615 693 609 683 L177 17 C175 7 182 0 192 0 L256 0 Z M233 623 L212 471 L158 471 C152 471 146 466 145 460 L137 405 C137 399 141 394 147 394 L333 394 C339 394 345 399 345 405 L353 460 C354 466 350 471 344 471 L299 471 L329 689 C330 695 326 700 320 700 L243 700 L175 674 C169 672 163 666 162 660 L155 608 C154 602 158 597 164 597 L233 623 Z M639 295 C640 301 636 306 630 306 L570 306 C564 306 558 300 555 295 L443 97 L437 54 C436 48 441 43 447 43 L590 43 L585 11 C584 5 589 0 595 0 L660 0 C666 0 671 5 672 11 L677 43 L689 43 C695 43 700 48 701 54 L709 109 C710 115 705 120 699 120 L687 120 L697 189 C698 195 694 200 688 200 L623 200 C617 200 611 195 610 189 L600 120 L540 120 L639 295 Z " />
<glyph glyph-name="onehalf" unicode="&#xbd;" horiz-adv-x="763" d="M256 0 C266 0 273 7 279 17 L711 683 C713 693 707 700 697 700 L633 700 C623 700 615 693 609 683 L177 17 C175 7 182 0 192 0 L256 0 Z M233 623 L212 471 L158 471 C152 471 146 466 145 460 L137 405 C137 399 141 394 147 394 L333 394 C339 394 345 399 345 405 L353 460 C354 466 350 471 344 471 L299 471 L329 689 C330 695 326 700 320 700 L243 700 L175 674 C169 672 163 666 162 660 L155 608 C154 602 158 597 164 597 L233 623 Z M578 77 C585 128 701 74 721 217 L723 231 C729 273 700 306 657 306 L602 306 C559 306 521 273 515 231 L510 199 C510 194 512 191 517 191 L575 191 C580 191 584 194 584 199 L585 204 C587 219 596 230 609 230 L619 230 C632 230 636 220 635 211 L634 206 C625 137 504 198 486 67 L477 7 C477 3 480 0 484 0 L686 0 C690 0 693 3 693 7 L702 69 C703 74 700 77 696 77 L578 77 Z " />
<glyph glyph-name="threequarters" unicode="&#xbe;" horiz-adv-x="731" d="M223 0 C233 0 240 7 246 17 L678 683 C680 693 674 700 664 700 L600 700 C590 700 582 693 576 683 L144 17 C142 7 149 0 159 0 L223 0 Z M664 189 C665 195 661 200 655 200 L590 200 C584 200 578 195 577 189 L567 120 L517 120 L603 299 C603 303 601 306 597 306 L528 306 C524 306 521 303 519 299 L423 97 L417 54 C416 48 421 43 427 43 L557 43 L552 11 C551 5 556 0 562 0 L627 0 C633 0 638 5 639 11 L644 43 L656 43 C662 43 667 48 668 54 L676 109 C677 115 672 120 666 120 L654 120 L664 189 Z M314 547 C338 557 359 578 363 611 L365 625 C371 667 342 700 299 700 L244 700 C201 700 163 667 157 625 L153 593 C152 588 155 585 160 585 L218 585 C223 585 226 588 227 593 L228 598 C230 613 238 624 251 624 L261 624 C274 624 279 614 278 605 L277 599 C275 590 268 580 255 580 L238 580 C234 580 231 577 230 572 L223 522 C222 517 225 514 229 514 L246 514 C259 514 263 504 262 495 L261 489 C260 480 253 470 240 470 L230 470 C217 470 211 481 213 496 L214 501 C215 506 212 509 207 509 L149 509 C144 509 141 506 140 501 L135 469 C130 427 158 394 201 394 L256 394 C299 394 338 427 343 469 L345 483 C350 516 335 537 314 547 L314 547 Z " />
<glyph glyph-name="questiondown" unicode="&#xbf;" horiz-adv-x="583" d="M319 492 C296 328 137 483 99 211 L94 171 C80 76 150 0 248 0 L335 0 C433 0 523 76 537 171 L543 220 C545 230 539 237 529 237 L434 237 C424 237 416 230 414 220 L409 178 C404 145 373 118 343 118 L272 118 C242 118 219 145 224 178 L228 207 C250 368 402 218 448 494 L450 510 C452 520 446 527 436 527 L341 527 C331 527 323 520 321 510 L319 492 Z M343 565 C333 565 327 572 328 582 L342 683 C344 693 352 700 362 700 L462 700 C472 700 478 693 476 683 L462 582 C461 572 453 565 443 565 L343 565 Z " />
<glyph glyph-name="Agrave" unicode="&#xc0;" horiz-adv-x="584" d="M437 751 C447 751 455 758 456 768 L413 896 C411 905 405 913 395 913 L304 913 C294 913 286 906 284 896 L327 768 C330 759 336 751 346 751 L437 751 Z M318 700 C308 700 301 693 296 683 L27 17 C25 7 32 0 42 0 L134 0 C144 0 151 7 156 17 L196 118 L420 118 L432 17 C433 7 440 0 450 0 L542 0 C552 0 559 7 561 17 L478 683 C477 693 472 700 462 700 L318 700 Z M360 533 L372 533 L407 235 L243 235 L360 533 Z " />
<glyph glyph-name="Aacute" unicode="&#xc1;" horiz-adv-x="584" d="M448 751 C458 751 466 759 471 768 L550 896 C552 906 546 913 536 913 L445 913 C435 913 427 905 421 896 L342 768 C341 758 347 751 357 751 L448 751 Z M318 700 C308 700 301 693 296 683 L27 17 C25 7 32 0 42 0 L134 0 C144 0 151 7 156 17 L196 118 L420 118 L432 17 C433 7 440 0 450 0 L542 0 C552 0 559 7 561 17 L478 683 C477 693 472 700 462 700 L318 700 Z M360 533 L372 533 L407 235 L243 235 L360 533 Z " />
<glyph glyph-name="Acircumflex" unicode="&#xc2;" horiz-adv-x="584" d="M373 939 C364 939 357 932 352 923 L252 767 C251 758 257 751 266 751 L345 751 C354 751 361 758 366 767 L408 832 L432 767 C435 758 440 751 449 751 L528 751 C537 751 545 758 546 767 L490 923 C487 932 482 939 473 939 L373 939 Z M318 700 C308 700 301 693 296 683 L27 17 C25 7 32 0 42 0 L134 0 C144 0 151 7 156 17 L196 118 L420 118 L432 17 C433 7 440 0 450 0 L542 0 C552 0 559 7 561 17 L478 683 C477 693 472 700 462 700 L318 700 Z M360 533 L372 533 L407 235 L243 235 L360 533 Z " />
<glyph glyph-name="Atilde" unicode="&#xc3;" horiz-adv-x="584" d="M318 700 C308 700 301 693 296 683 L27 17 C25 7 32 0 42 0 L134 0 C144 0 151 7 156 17 L196 118 L420 118 L432 17 C433 7 440 0 450 0 L542 0 C552 0 559 7 561 17 L478 683 C477 693 472 700 462 700 L318 700 Z M360 533 L372 533 L407 235 L243 235 L360 533 Z M452 751 C479 751 505 764 533 780 C540 785 546 792 547 800 C547 801 547 803 538 869 C536 875 531 881 521 881 C519 881 516 881 514 880 C501 874 478 868 468 868 C427 868 405 907 364 907 C338 907 309 894 282 878 C274 873 268 866 267 858 L278 789 C280 783 286 778 295 778 C297 778 301 778 303 779 C315 784 339 790 348 790 C390 790 411 751 452 751 L452 751 Z " />
<glyph glyph-name="Adieresis" unicode="&#xc4;" horiz-adv-x="584" d="M359 751 C368 751 376 758 377 767 L391 861 C392 870 386 877 377 877 L284 877 C274 877 267 870 266 861 L252 767 C251 758 256 751 266 751 L359 751 Z M529 751 C538 751 546 758 547 767 L561 861 C562 870 556 877 547 877 L454 877 C444 877 437 870 436 861 L422 767 C421 758 426 751 436 751 L529 751 Z M318 700 C308 700 301 693 296 683 L27 17 C25 7 32 0 42 0 L134 0 C144 0 151 7 156 17 L196 118 L420 118 L432 17 C433 7 440 0 450 0 L542 0 C552 0 559 7 561 17 L478 683 C477 693 472 700 462 700 L318 700 Z M360 533 L372 533 L407 235 L243 235 L360 533 Z " />
<glyph glyph-name="Aring" unicode="&#xc5;" horiz-adv-x="584" d="M415 881 C341 881 272 821 261 745 C256 710 265 677 284 653 L27 17 C25 7 32 0 42 0 L134 0 C144 0 151 7 156 17 L196 118 L420 118 L432 17 C433 7 440 0 450 0 L542 0 C552 0 559 7 561 17 L482 652 C509 676 528 709 533 745 C544 821 491 881 415 881 L415 881 Z M360 533 L372 533 L407 235 L243 235 L360 533 Z M390 700 C365 700 348 722 351 745 C355 771 378 791 403 791 C427 791 446 771 442 745 C439 722 414 700 390 700 L390 700 Z " />
<glyph glyph-name="AE" unicode="&#xc6;" horiz-adv-x="860" d="M438 0 L783 0 C793 0 800 7 802 17 L814 100 C815 110 809 117 799 117 L566 117 L592 304 L802 304 C812 304 820 311 822 321 L833 405 C835 415 829 422 819 422 L609 422 L631 582 L864 582 C874 582 882 589 884 599 L895 683 C897 693 891 700 881 700 L450 700 C440 700 433 692 426 683 L22 17 C20 7 27 0 37 0 L134 0 C144 0 150 8 156 17 L221 118 L437 118 L423 17 C421 7 428 0 438 0 L438 0 Z M502 582 L454 235 L288 235 L494 582 L502 582 Z " />
<glyph glyph-name="Ccedilla" unicode="&#xc7;" horiz-adv-x="558" d="M219 -44 C217 -47 215 -51 215 -54 L210 -90 C209 -97 213 -102 220 -102 L273 -102 C273 -102 287 -102 285 -117 C283 -131 269 -131 269 -131 L204 -131 C197 -131 191 -136 190 -143 L185 -183 C184 -190 188 -195 195 -195 L277 -195 C331 -195 350 -171 360 -100 C366 -59 334 -38 299 -38 L323 -5 L334 -5 C432 -5 522 71 536 166 L540 199 C542 209 536 216 526 216 L431 216 C421 216 413 209 411 199 L408 173 C403 140 372 113 342 113 L261 113 C231 113 208 140 213 173 L263 527 C267 560 298 587 328 587 L409 587 C439 587 462 560 458 527 L454 501 C453 491 459 484 469 484 L564 484 C574 484 582 491 583 501 L588 534 C601 629 532 705 434 705 L337 705 C239 705 148 629 135 534 L83 166 C69 71 139 -5 237 -5 L248 -5 L219 -44 Z " />
<glyph glyph-name="Egrave" unicode="&#xc8;" horiz-adv-x="509" d="M419 751 C429 751 437 758 438 768 L395 896 C393 905 387 913 377 913 L286 913 C276 913 268 906 266 896 L309 768 C312 759 318 751 328 751 L419 751 Z M432 0 C442 0 449 7 451 17 L463 100 C464 110 458 117 448 117 L215 117 L241 304 L451 304 C461 304 469 311 471 321 L482 405 C484 415 478 422 468 422 L258 422 L280 582 L513 582 C523 582 531 589 533 599 L544 683 C546 693 540 700 530 700 L185 700 C175 700 167 693 165 683 L72 17 C70 7 77 0 87 0 L432 0 Z " />
<glyph glyph-name="Eacute" unicode="&#xc9;" horiz-adv-x="509" d="M420 751 C430 751 438 759 443 768 L522 896 C524 906 518 913 508 913 L417 913 C407 913 399 905 393 896 L314 768 C313 758 319 751 329 751 L420 751 Z M432 0 C442 0 449 7 451 17 L463 100 C464 110 458 117 448 117 L215 117 L241 304 L451 304 C461 304 469 311 471 321 L482 405 C484 415 478 422 468 422 L258 422 L280 582 L513 582 C523 582 531 589 533 599 L544 683 C546 693 540 700 530 700 L185 700 C175 700 167 693 165 683 L72 17 C70 7 77 0 87 0 L432 0 Z " />
<glyph glyph-name="Ecircumflex" unicode="&#xca;" horiz-adv-x="509" d="M349 939 C340 939 333 932 328 923 L228 767 C227 758 233 751 242 751 L321 751 C330 751 337 758 342 767 L384 832 L408 767 C411 758 416 751 425 751 L504 751 C513 751 521 758 522 767 L466 923 C463 932 458 939 449 939 L349 939 Z M432 0 C442 0 449 7 451 17 L463 100 C464 110 458 117 448 117 L215 117 L241 304 L451 304 C461 304 469 311 471 321 L482 405 C484 415 478 422 468 422 L258 422 L280 582 L513 582 C523 582 531 589 533 599 L544 683 C546 693 540 700 530 700 L185 700 C175 700 167 693 165 683 L72 17 C70 7 77 0 87 0 L432 0 Z " />
<glyph glyph-name="Edieresis" unicode="&#xcb;" horiz-adv-x="509" d="M327 751 C336 751 344 758 345 767 L359 861 C360 870 354 877 345 877 L252 877 C242 877 235 870 234 861 L220 767 C219 758 224 751 234 751 L327 751 Z M497 751 C506 751 514 758 515 767 L529 861 C530 870 524 877 515 877 L422 877 C412 877 405 870 404 861 L390 767 C389 758 394 751 404 751 L497 751 Z M432 0 C442 0 449 7 451 17 L463 100 C464 110 458 117 448 117 L215 117 L241 304 L451 304 C461 304 469 311 471 321 L482 405 C484 415 478 422 468 422 L258 422 L280 582 L513 582 C523 582 531 589 533 599 L544 683 C546 693 540 700 530 700 L185 700 C175 700 167 693 165 683 L72 17 C70 7 77 0 87 0 L432 0 Z " />
<glyph glyph-name="Igrave" unicode="&#xcc;" horiz-adv-x="269" d="M182 0 C192 0 199 7 201 17 L294 683 C296 693 290 700 280 700 L185 700 C175 700 167 693 165 683 L72 17 C70 7 77 0 87 0 L182 0 Z M287 751 C297 751 305 758 306 768 L263 896 C261 905 255 913 245 913 L154 913 C144 913 136 906 134 896 L177 768 C180 759 186 751 196 751 L287 751 Z " />
<glyph glyph-name="Iacute" unicode="&#xcd;" horiz-adv-x="269" d="M182 0 C192 0 199 7 201 17 L294 683 C296 693 290 700 280 700 L185 700 C175 700 167 693 165 683 L72 17 C70 7 77 0 87 0 L182 0 Z M283 751 C293 751 301 759 306 768 L385 896 C387 906 381 913 371 913 L280 913 C270 913 262 905 256 896 L177 768 C176 758 182 751 192 751 L283 751 Z " />
<glyph glyph-name="Icircumflex" unicode="&#xce;" horiz-adv-x="269" d="M182 0 C192 0 199 7 201 17 L294 683 C296 693 290 700 280 700 L185 700 C175 700 167 693 165 683 L72 17 C70 7 77 0 87 0 L182 0 Z M215 939 C206 939 199 932 194 923 L94 767 C93 758 99 751 108 751 L187 751 C196 751 203 758 208 767 L250 832 L274 767 C277 758 282 751 291 751 L370 751 C379 751 387 758 388 767 L332 923 C329 932 324 939 315 939 L215 939 Z " />
<glyph glyph-name="Idieresis" unicode="&#xcf;" horiz-adv-x="269" d="M182 0 C192 0 199 7 201 17 L294 683 C296 693 290 700 280 700 L185 700 C175 700 167 693 165 683 L72 17 C70 7 77 0 87 0 L182 0 Z M191 751 C200 751 208 758 209 767 L223 861 C224 870 218 877 209 877 L116 877 C106 877 99 870 98 861 L84 767 C83 758 88 751 98 751 L191 751 Z M381 751 C390 751 398 758 399 767 L413 861 C414 870 408 877 399 877 L306 877 C296 877 289 870 288 861 L274 767 C273 758 278 751 288 751 L381 751 Z " />
<glyph glyph-name="Eth" unicode="&#xd0;" horiz-adv-x="593" d="M355 0 C453 0 543 76 557 171 L607 529 C620 624 551 700 453 700 L195 700 C185 700 177 693 175 683 L137 408 L84 408 C74 408 66 401 64 391 L53 308 C51 298 57 291 67 291 L120 291 L82 17 C80 7 87 0 97 0 L355 0 Z M317 291 C327 291 335 298 337 308 L348 391 C350 401 344 408 334 408 L266 408 L290 582 L428 582 C458 582 482 555 477 522 L428 177 C424 144 393 117 363 117 L225 117 L249 291 L317 291 Z " />
<glyph glyph-name="Ntilde" unicode="&#xd1;" horiz-adv-x="621" d="M311 700 L185 700 C175 700 167 693 165 683 L72 17 C70 7 77 0 87 0 L182 0 C192 0 199 7 201 17 L260 439 L265 439 L390 17 C393 8 398 0 408 0 L534 0 C544 0 551 7 553 17 L646 683 C648 693 642 700 632 700 L537 700 C527 700 519 693 517 683 L458 261 L453 261 L328 683 C326 692 321 700 311 700 L311 700 Z M468 751 C495 751 521 764 549 780 C556 785 562 792 563 800 C563 801 563 803 554 869 C552 875 547 881 537 881 C535 881 532 881 530 880 C517 874 494 868 484 868 C443 868 421 907 380 907 C354 907 325 894 298 878 C290 873 284 866 283 858 L294 789 C296 783 302 778 311 778 C313 778 317 778 319 779 C331 784 355 790 364 790 C406 790 427 751 468 751 L468 751 Z " />
<glyph glyph-name="Ograve" unicode="&#xd2;" horiz-adv-x="573" d="M433 751 C443 751 451 758 452 768 L409 896 C407 905 401 913 391 913 L300 913 C290 913 282 906 280 896 L323 768 C326 759 332 751 342 751 L433 751 Z M237 -5 L334 -5 C432 -5 522 71 536 166 L588 534 C601 629 532 705 434 705 L337 705 C239 705 148 629 135 534 L83 166 C69 71 139 -5 237 -5 L237 -5 Z M409 587 C439 587 462 560 458 527 L408 173 C403 140 372 113 342 113 L261 113 C231 113 208 140 213 173 L263 527 C267 560 298 587 328 587 L409 587 Z " />
<glyph glyph-name="Oacute" unicode="&#xd3;" horiz-adv-x="573" d="M441 751 C451 751 459 759 464 768 L543 896 C545 906 539 913 529 913 L438 913 C428 913 420 905 414 896 L335 768 C334 758 340 751 350 751 L441 751 Z M237 -5 L334 -5 C432 -5 522 71 536 166 L588 534 C601 629 532 705 434 705 L337 705 C239 705 148 629 135 534 L83 166 C69 71 139 -5 237 -5 L237 -5 Z M409 587 C439 587 462 560 458 527 L408 173 C403 140 372 113 342 113 L261 113 C231 113 208 140 213 173 L263 527 C267 560 298 587 328 587 L409 587 Z " />
<glyph glyph-name="Ocircumflex" unicode="&#xd4;" horiz-adv-x="573" d="M367 939 C358 939 351 932 346 923 L246 767 C245 758 251 751 260 751 L339 751 C348 751 355 758 360 767 L402 832 L426 767 C429 758 434 751 443 751 L522 751 C531 751 539 758 540 767 L484 923 C481 932 476 939 467 939 L367 939 Z M237 -5 L334 -5 C432 -5 522 71 536 166 L588 534 C601 629 532 705 434 705 L337 705 C239 705 148 629 135 534 L83 166 C69 71 139 -5 237 -5 L237 -5 Z M409 587 C439 587 462 560 458 527 L408 173 C403 140 372 113 342 113 L261 113 C231 113 208 140 213 173 L263 527 C267 560 298 587 328 587 L409 587 Z " />
<glyph glyph-name="Otilde" unicode="&#xd5;" horiz-adv-x="573" d="M237 -5 L334 -5 C432 -5 522 71 536 166 L588 534 C601 629 532 705 434 705 L337 705 C239 705 148 629 135 534 L83 166 C69 71 139 -5 237 -5 L237 -5 Z M409 587 C439 587 462 560 458 527 L408 173 C403 140 372 113 342 113 L261 113 C231 113 208 140 213 173 L263 527 C267 560 298 587 328 587 L409 587 Z M449 751 C476 751 502 764 530 780 C537 785 543 792 544 800 C544 801 544 803 535 869 C533 875 528 881 518 881 C516 881 513 881 511 880 C498 874 475 868 465 868 C424 868 402 907 361 907 C335 907 306 894 279 878 C271 873 265 866 264 858 L275 789 C277 783 283 778 292 778 C294 778 298 778 300 779 C312 784 336 790 345 790 C387 790 408 751 449 751 L449 751 Z " />
<glyph glyph-name="Odieresis" unicode="&#xd6;" horiz-adv-x="573" d="M343 751 C352 751 360 758 361 767 L375 861 C376 870 370 877 361 877 L268 877 C258 877 251 870 250 861 L236 767 C235 758 240 751 250 751 L343 751 Z M533 751 C542 751 550 758 551 767 L565 861 C566 870 560 877 551 877 L458 877 C448 877 441 870 440 861 L426 767 C425 758 430 751 440 751 L533 751 Z M237 -5 L334 -5 C432 -5 522 71 536 166 L588 534 C601 629 532 705 434 705 L337 705 C239 705 148 629 135 534 L83 166 C69 71 139 -5 237 -5 L237 -5 Z M409 587 C439 587 462 560 458 527 L408 173 C403 140 372 113 342 113 L261 113 C231 113 208 140 213 173 L263 527 C267 560 298 587 328 587 L409 587 Z " />
<glyph glyph-name="multiply" unicode="&#xd7;" horiz-adv-x="428" d="M227 98 L277 40 C281 36 284 35 288 35 C292 35 298 36 301 40 L366 97 C371 100 372 105 373 109 C373 113 373 117 370 121 L320 180 L386 239 C390 242 392 247 393 251 C393 255 392 259 389 263 L341 320 C338 323 334 325 330 325 C326 325 321 323 317 320 L250 260 L199 320 C197 323 192 325 188 325 C184 325 180 323 175 320 L111 263 C108 259 105 255 105 251 C104 247 106 242 108 239 L158 180 L92 121 C87 117 85 113 85 109 C84 105 85 100 88 97 L137 40 C140 36 144 35 148 35 C152 35 157 36 161 40 L227 98 Z " />
<glyph glyph-name="Oslash" unicode="&#xd8;" horiz-adv-x="573" d="M239 -5 L334 -5 C432 -5 522 71 536 166 L588 534 C595 586 577 632 544 663 L594 774 C596 784 590 791 580 791 L485 791 C475 791 470 784 465 774 L434 705 L337 705 C239 705 148 629 135 534 L83 166 C75 113 94 66 127 35 L78 -74 C77 -84 83 -91 93 -91 L188 -91 C198 -91 203 -84 207 -74 L239 -5 Z M263 527 C267 560 298 587 328 587 L380 587 L223 242 L263 527 Z M342 113 L292 113 L447 450 L408 173 C403 140 372 113 342 113 L342 113 Z " />
<glyph glyph-name="Ugrave" unicode="&#xd9;" horiz-adv-x="583" d="M442 751 C452 751 460 758 461 768 L418 896 C416 905 410 913 400 913 L309 913 C299 913 291 906 289 896 L332 768 C335 759 341 751 351 751 L442 751 Z M289 683 C291 693 285 700 275 700 L180 700 C170 700 162 693 160 683 L88 166 C74 71 144 -5 242 -5 L339 -5 C437 -5 527 71 541 166 L613 683 C615 693 609 700 599 700 L504 700 C494 700 486 693 484 683 L413 173 C408 140 377 113 347 113 L266 113 C236 113 213 140 218 173 L289 683 Z " />
<glyph glyph-name="Uacute" unicode="&#xda;" horiz-adv-x="583" d="M442 751 C452 751 460 759 465 768 L544 896 C546 906 540 913 530 913 L439 913 C429 913 421 905 415 896 L336 768 C335 758 341 751 351 751 L442 751 Z M289 683 C291 693 285 700 275 700 L180 700 C170 700 162 693 160 683 L88 166 C74 71 144 -5 242 -5 L339 -5 C437 -5 527 71 541 166 L613 683 C615 693 609 700 599 700 L504 700 C494 700 486 693 484 683 L413 173 C408 140 377 113 347 113 L266 113 C236 113 213 140 218 173 L289 683 Z " />
<glyph glyph-name="Ucircumflex" unicode="&#xdb;" horiz-adv-x="583" d="M372 939 C363 939 356 932 351 923 L251 767 C250 758 256 751 265 751 L344 751 C353 751 360 758 365 767 L407 832 L431 767 C434 758 439 751 448 751 L527 751 C536 751 544 758 545 767 L489 923 C486 932 481 939 472 939 L372 939 Z M289 683 C291 693 285 700 275 700 L180 700 C170 700 162 693 160 683 L88 166 C74 71 144 -5 242 -5 L339 -5 C437 -5 527 71 541 166 L613 683 C615 693 609 700 599 700 L504 700 C494 700 486 693 484 683 L413 173 C408 140 377 113 347 113 L266 113 C236 113 213 140 218 173 L289 683 Z " />
<glyph glyph-name="Udieresis" unicode="&#xdc;" horiz-adv-x="583" d="M348 751 C357 751 365 758 366 767 L380 861 C381 870 375 877 366 877 L273 877 C263 877 256 870 255 861 L241 767 C240 758 245 751 255 751 L348 751 Z M538 751 C547 751 555 758 556 767 L570 861 C571 870 565 877 556 877 L463 877 C453 877 446 870 445 861 L431 767 C430 758 435 751 445 751 L538 751 Z M289 683 C291 693 285 700 275 700 L180 700 C170 700 162 693 160 683 L88 166 C74 71 144 -5 242 -5 L339 -5 C437 -5 527 71 541 166 L613 683 C615 693 609 700 599 700 L504 700 C494 700 486 693 484 683 L413 173 C408 140 377 113 347 113 L266 113 C236 113 213 140 218 173 L289 683 Z " />
<glyph glyph-name="Yacute" unicode="&#xdd;" horiz-adv-x="569" d="M441 751 C451 751 459 759 464 768 L543 896 C545 906 539 913 529 913 L438 913 C428 913 420 905 414 896 L335 768 C334 758 340 751 350 751 L441 751 Z M344 379 L331 379 L244 683 C242 692 237 700 227 700 L135 700 C125 700 117 693 115 683 L251 224 L222 17 C220 7 227 0 237 0 L332 0 C342 0 349 7 351 17 L380 224 L644 683 C646 693 640 700 630 700 L538 700 C528 700 521 692 515 683 L344 379 Z " />
<glyph glyph-name="Thorn" unicode="&#xde;" horiz-adv-x="563" d="M230 223 L266 480 L394 480 C424 480 447 453 443 420 L423 283 C419 250 388 223 358 223 L230 223 Z M283 598 L295 685 C296 695 290 702 280 702 L185 702 C175 702 167 695 166 685 L72 17 C70 7 77 0 87 0 L182 0 C192 0 199 7 201 17 L213 104 L349 104 C447 104 538 180 551 275 L573 427 C586 522 517 598 419 598 L283 598 Z " />
<glyph glyph-name="germandbls" unicode="&#xdf;" horiz-adv-x="553" d="M280 582 L379 582 C409 582 433 555 428 522 L420 466 C415 433 385 406 355 406 L315 406 C305 406 297 399 295 389 L284 311 C283 301 289 294 299 294 L368 294 C398 294 421 267 416 234 L408 177 C404 144 373 117 343 117 L284 117 C274 117 266 110 265 100 L253 17 C251 7 258 0 268 0 L335 0 C433 0 523 76 537 171 L546 235 C553 287 524 334 491 365 C516 393 544 428 549 465 L558 529 C571 624 502 700 404 700 L185 700 C175 700 167 693 165 683 L72 17 C70 7 77 0 87 0 L182 0 C192 0 199 7 201 17 L280 582 Z " />
<glyph glyph-name="agrave" unicode="&#xe0;" horiz-adv-x="480" d="M390 571 C400 571 408 578 409 588 L366 716 C363 725 358 733 348 733 L257 733 C247 733 239 726 237 716 L280 588 C283 579 289 571 299 571 L390 571 Z M202 168 C205 190 229 209 250 209 L325 209 L317 154 C314 132 290 113 269 113 L236 113 C215 113 197 132 200 154 L202 168 Z M166 496 C158 493 152 488 151 480 C151 478 150 470 157 398 C160 386 168 386 177 386 C200 391 237 402 278 402 C346 402 345 354 342 329 L340 315 L247 315 C155 315 87 264 74 176 L68 134 C56 46 95 -5 187 -5 L211 -5 C233 -5 268 4 292 33 L300 33 L298 17 C296 7 303 0 313 0 L408 0 C418 0 425 7 427 17 L471 330 C477 377 498 520 311 520 C227 520 189 505 166 496 L166 496 Z " />
<glyph glyph-name="aacute" unicode="&#xe1;" horiz-adv-x="480" d="M376 571 C386 571 394 579 399 588 L478 716 C480 726 474 733 464 733 L373 733 C363 733 354 725 349 716 L270 588 C269 578 275 571 285 571 L376 571 Z M202 168 C205 190 229 209 250 209 L325 209 L317 154 C314 132 290 113 269 113 L236 113 C215 113 197 132 200 154 L202 168 Z M166 496 C158 493 152 488 151 480 C151 478 150 470 157 398 C160 386 168 386 177 386 C200 391 237 402 278 402 C346 402 345 354 342 329 L340 315 L247 315 C155 315 87 264 74 176 L68 134 C56 46 95 -5 187 -5 L211 -5 C233 -5 268 4 292 33 L300 33 L298 17 C296 7 303 0 313 0 L408 0 C418 0 425 7 427 17 L471 330 C477 377 498 520 311 520 C227 520 189 505 166 496 L166 496 Z " />
<glyph glyph-name="acircumflex" unicode="&#xe2;" horiz-adv-x="480" d="M314 759 C305 759 298 752 293 743 L193 587 C192 578 198 571 207 571 L286 571 C295 571 302 578 307 587 L349 652 L373 587 C376 578 381 571 390 571 L469 571 C478 571 486 578 487 587 L431 743 C428 752 423 759 414 759 L314 759 Z M202 168 C205 190 229 209 250 209 L325 209 L317 154 C314 132 290 113 269 113 L236 113 C215 113 197 132 200 154 L202 168 Z M166 496 C158 493 152 488 151 480 C151 478 150 470 157 398 C160 386 168 386 177 386 C200 391 237 402 278 402 C346 402 345 354 342 329 L340 315 L247 315 C155 315 87 264 74 176 L68 134 C56 46 95 -5 187 -5 L211 -5 C233 -5 268 4 292 33 L300 33 L298 17 C296 7 303 0 313 0 L408 0 C418 0 425 7 427 17 L471 330 C477 377 498 520 311 520 C227 520 189 505 166 496 L166 496 Z " />
<glyph glyph-name="atilde" unicode="&#xe3;" horiz-adv-x="480" d="M202 168 C205 190 229 209 250 209 L325 209 L317 154 C314 132 290 113 269 113 L236 113 C215 113 197 132 200 154 L202 168 Z M166 496 C158 493 152 488 151 480 C151 478 150 470 157 398 C160 386 168 386 177 386 C200 391 237 402 278 402 C346 402 345 354 342 329 L340 315 L247 315 C155 315 87 264 74 176 L68 134 C56 46 95 -5 187 -5 L211 -5 C233 -5 268 4 292 33 L300 33 L298 17 C296 7 303 0 313 0 L408 0 C418 0 425 7 427 17 L471 330 C477 377 498 520 311 520 C227 520 189 505 166 496 L166 496 Z M391 571 C418 571 444 584 472 600 C479 605 485 612 486 620 C486 621 486 623 476 689 C475 695 470 701 460 701 C458 701 455 701 453 700 C440 694 417 688 407 688 C366 688 344 727 303 727 C277 727 248 714 221 698 C213 693 207 686 206 678 L217 609 C218 603 225 598 234 598 C236 598 240 598 242 599 C253 604 277 610 286 610 C328 610 350 571 391 571 L391 571 Z " />
<glyph glyph-name="adieresis" unicode="&#xe4;" horiz-adv-x="480" d="M298 571 C307 571 315 578 316 587 L329 681 C330 690 324 697 315 697 L222 697 C212 697 205 690 204 681 L191 587 C190 578 195 571 205 571 L298 571 Z M468 571 C477 571 485 578 486 587 L499 681 C500 690 494 697 485 697 L392 697 C382 697 375 690 374 681 L361 587 C360 578 365 571 375 571 L468 571 Z M202 168 C205 190 229 209 250 209 L325 209 L317 154 C314 132 290 113 269 113 L236 113 C215 113 197 132 200 154 L202 168 Z M166 496 C158 493 152 488 151 480 C151 478 150 470 157 398 C160 386 168 386 177 386 C200 391 237 402 278 402 C346 402 345 354 342 329 L340 315 L247 315 C155 315 87 264 74 176 L68 134 C56 46 95 -5 187 -5 L211 -5 C233 -5 268 4 292 33 L300 33 L298 17 C296 7 303 0 313 0 L408 0 C418 0 425 7 427 17 L471 330 C477 377 498 520 311 520 C227 520 189 505 166 496 L166 496 Z " />
<glyph glyph-name="aring" unicode="&#xe5;" horiz-adv-x="480" d="M370 842 C296 842 226 782 216 706 C205 632 258 571 332 571 C408 571 477 632 488 706 C498 782 446 842 370 842 L370 842 Z M344 661 C319 661 302 683 306 706 C309 732 332 752 357 752 C381 752 400 732 397 706 C393 683 368 661 344 661 L344 661 Z M202 168 C205 190 229 209 250 209 L325 209 L317 154 C314 132 290 113 269 113 L236 113 C215 113 197 132 200 154 L202 168 Z M166 496 C158 493 152 488 151 480 C151 478 150 470 157 398 C160 386 168 386 177 386 C200 391 237 402 278 402 C346 402 345 354 342 329 L340 315 L247 315 C155 315 87 264 74 176 L68 134 C56 46 95 -5 187 -5 L211 -5 C233 -5 268 4 292 33 L300 33 L298 17 C296 7 303 0 313 0 L408 0 C418 0 425 7 427 17 L471 330 C477 377 498 520 311 520 C227 520 189 505 166 496 L166 496 Z " />
<glyph glyph-name="ae" unicode="&#xe6;" horiz-adv-x="722" d="M667 72 C669 75 671 79 671 82 C672 87 670 92 666 95 L614 143 C611 145 607 146 604 146 C598 146 594 143 589 139 C576 128 556 113 524 113 L482 113 C462 113 445 130 446 150 L453 203 L683 203 C693 203 701 210 702 220 L723 366 C729 442 686 520 592 520 L522 520 C485 520 453 508 426 489 C402 508 365 520 311 520 C227 520 189 505 166 496 C158 493 152 488 151 480 C151 478 150 470 157 398 C160 386 168 386 177 386 C200 391 237 402 278 402 C346 402 345 354 342 329 L340 315 L247 315 C155 315 87 264 74 176 L68 134 C56 46 95 -5 187 -5 L264 -5 C286 -5 321 4 345 33 L353 33 C375 10 407 -5 448 -5 L508 -5 C508 -5 608 -5 667 72 L667 72 Z M475 361 C478 383 502 402 523 402 L557 402 C578 402 596 383 593 361 L586 307 L468 307 L471 330 L473 346 L475 361 Z M202 168 C205 190 229 209 250 209 L325 209 L317 154 C314 132 290 113 269 113 L236 113 C215 113 197 132 200 154 L202 168 Z " />
<glyph glyph-name="ccedilla" unicode="&#xe7;" horiz-adv-x="466" d="M176 -44 C174 -47 172 -51 172 -54 L167 -90 C166 -97 170 -102 177 -102 L230 -102 C230 -102 244 -102 242 -117 C240 -131 226 -131 226 -131 L161 -131 C154 -131 148 -136 147 -143 L142 -183 C141 -190 145 -195 152 -195 L234 -195 C288 -195 307 -171 317 -100 C323 -59 291 -38 256 -38 L280 -5 C372 -3 436 74 451 149 L453 162 C455 172 449 179 439 179 L344 179 C334 179 326 172 324 162 L323 154 C320 132 296 113 275 113 L241 113 C220 113 202 132 205 154 L234 361 C237 383 261 402 282 402 L316 402 C337 402 355 383 352 361 L351 353 C350 343 356 336 366 336 L461 336 C471 336 479 343 480 353 L482 366 C488 442 445 520 351 520 L281 520 C187 520 122 442 106 366 L75 149 C70 73 112 -4 205 -5 L176 -44 Z " />
<glyph glyph-name="egrave" unicode="&#xe8;" horiz-adv-x="481" d="M367 571 C377 571 385 578 386 588 L343 716 C340 725 335 733 325 733 L234 733 C224 733 216 726 214 716 L257 588 C260 579 266 571 276 571 L367 571 Z M426 72 C428 75 430 79 430 82 C431 87 429 92 425 95 L373 143 C370 145 366 146 363 146 C357 146 353 143 348 139 C335 128 315 113 283 113 L241 113 C220 113 202 132 205 154 L212 203 L442 203 C452 203 460 210 461 220 L482 366 C488 442 445 520 351 520 L281 520 C187 520 122 442 106 366 L75 149 C70 73 113 -5 207 -5 L267 -5 C267 -5 367 -5 426 72 L426 72 Z M234 361 C237 383 261 402 282 402 L316 402 C337 402 355 383 352 361 L345 307 L227 307 L234 361 Z " />
<glyph glyph-name="eacute" unicode="&#xe9;" horiz-adv-x="481" d="M377 571 C387 571 395 579 400 588 L479 716 C481 726 475 733 465 733 L374 733 C364 733 355 725 350 716 L271 588 C270 578 276 571 286 571 L377 571 Z M426 72 C428 75 430 79 430 82 C431 87 429 92 425 95 L373 143 C370 145 366 146 363 146 C357 146 353 143 348 139 C335 128 315 113 283 113 L241 113 C220 113 202 132 205 154 L212 203 L442 203 C452 203 460 210 461 220 L482 366 C488 442 445 520 351 520 L281 520 C187 520 122 442 106 366 L75 149 C70 73 113 -5 207 -5 L267 -5 C267 -5 367 -5 426 72 L426 72 Z M234 361 C237 383 261 402 282 402 L316 402 C337 402 355 383 352 361 L345 307 L227 307 L234 361 Z " />
<glyph glyph-name="ecircumflex" unicode="&#xea;" horiz-adv-x="481" d="M298 759 C289 759 282 752 277 743 L177 587 C176 578 182 571 191 571 L270 571 C279 571 286 578 291 587 L333 652 L357 587 C360 578 365 571 374 571 L453 571 C462 571 470 578 471 587 L415 743 C412 752 407 759 398 759 L298 759 Z M426 72 C428 75 430 79 430 82 C431 87 429 92 425 95 L373 143 C370 145 366 146 363 146 C357 146 353 143 348 139 C335 128 315 113 283 113 L241 113 C220 113 202 132 205 154 L212 203 L442 203 C452 203 460 210 461 220 L482 366 C488 442 445 520 351 520 L281 520 C187 520 122 442 106 366 L75 149 C70 73 113 -5 207 -5 L267 -5 C267 -5 367 -5 426 72 L426 72 Z M234 361 C237 383 261 402 282 402 L316 402 C337 402 355 383 352 361 L345 307 L227 307 L234 361 Z " />
<glyph glyph-name="edieresis" unicode="&#xeb;" horiz-adv-x="481" d="M283 571 C292 571 300 578 301 587 L314 681 C315 690 309 697 300 697 L207 697 C197 697 190 690 189 681 L176 587 C175 578 180 571 190 571 L283 571 Z M453 571 C462 571 470 578 471 587 L484 681 C485 690 479 697 470 697 L377 697 C367 697 360 690 359 681 L346 587 C345 578 350 571 360 571 L453 571 Z M426 72 C428 75 430 79 430 82 C431 87 429 92 425 95 L373 143 C370 145 366 146 363 146 C357 146 353 143 348 139 C335 128 315 113 283 113 L241 113 C220 113 202 132 205 154 L212 203 L442 203 C452 203 460 210 461 220 L482 366 C488 442 445 520 351 520 L281 520 C187 520 122 442 106 366 L75 149 C70 73 113 -5 207 -5 L267 -5 C267 -5 367 -5 426 72 L426 72 Z M234 361 C237 383 261 402 282 402 L316 402 C337 402 355 383 352 361 L345 307 L227 307 L234 361 Z " />
<glyph glyph-name="igrave" unicode="&#xec;" horiz-adv-x="269" d="M182 0 C192 0 199 7 201 17 L268 498 C270 508 264 515 254 515 L159 515 C149 515 141 508 139 498 L72 17 C70 7 77 0 87 0 L182 0 Z M262 571 C272 571 280 578 281 588 L238 716 C235 725 230 733 220 733 L129 733 C119 733 111 726 109 716 L152 588 C155 579 161 571 171 571 L262 571 Z " />
<glyph glyph-name="iacute" unicode="&#xed;" horiz-adv-x="269" d="M182 0 C192 0 199 7 201 17 L268 498 C270 508 264 515 254 515 L159 515 C149 515 141 508 139 498 L72 17 C70 7 77 0 87 0 L182 0 Z M258 571 C268 571 276 579 281 588 L360 716 C362 726 356 733 346 733 L255 733 C245 733 236 725 231 716 L152 588 C151 578 157 571 167 571 L258 571 Z " />
<glyph glyph-name="icircumflex" unicode="&#xee;" horiz-adv-x="269" d="M182 0 C192 0 199 7 201 17 L268 498 C270 508 264 515 254 515 L159 515 C149 515 141 508 139 498 L72 17 C70 7 77 0 87 0 L182 0 Z M190 759 C181 759 174 752 169 743 L69 587 C68 578 74 571 83 571 L162 571 C171 571 178 578 183 587 L225 652 L249 587 C252 578 257 571 266 571 L345 571 C354 571 362 578 363 587 L307 743 C304 752 299 759 290 759 L190 759 Z " />
<glyph glyph-name="idieresis" unicode="&#xef;" horiz-adv-x="269" d="M182 0 C192 0 199 7 201 17 L268 498 C270 508 264 515 254 515 L159 515 C149 515 141 508 139 498 L72 17 C70 7 77 0 87 0 L182 0 Z M166 571 C175 571 183 578 184 587 L197 681 C198 690 192 697 183 697 L90 697 C80 697 73 690 72 681 L59 587 C58 578 63 571 73 571 L166 571 Z M356 571 C365 571 373 578 374 587 L387 681 C388 690 382 697 373 697 L280 697 C270 697 263 690 262 681 L249 587 C248 578 253 571 263 571 L356 571 Z " />
<glyph glyph-name="eth" unicode="&#xf0;" horiz-adv-x="562" d="M479 515 C489 515 497 522 498 532 L509 606 C510 616 504 623 494 623 L433 623 L486 683 C488 693 482 700 472 700 L380 700 C370 700 362 693 355 684 L302 623 L194 623 C184 623 176 616 175 606 L164 532 C163 522 169 515 179 515 L208 515 L128 422 C120 412 116 401 114 389 L83 166 C69 71 139 -5 237 -5 L333 -5 C431 -5 521 71 535 166 L548 258 C561 353 492 429 394 429 L305 429 C294 429 281 427 267 422 L257 422 L339 515 L479 515 Z M261 113 C231 113 208 140 213 173 L224 251 C228 284 259 311 289 311 L369 311 C399 311 422 284 418 251 L407 173 C402 140 371 113 341 113 L261 113 Z " />
<glyph glyph-name="ntilde" unicode="&#xf1;" horiz-adv-x="512" d="M247 345 C273 392 302 402 324 402 L337 402 C358 402 376 383 373 361 L325 17 C323 7 330 0 340 0 L435 0 C445 0 452 7 454 17 L503 365 C510 453 490 520 398 520 L383 520 C361 520 308 519 272 463 L264 463 L268 497 C270 508 267 515 256 515 L160 515 C149 515 141 508 139 497 L72 17 C70 7 77 0 87 0 L182 0 C192 0 199 7 201 17 L247 345 Z M395 571 C422 571 448 584 476 600 C483 605 489 612 490 620 C490 621 490 623 480 689 C479 695 474 701 464 701 C462 701 459 701 457 700 C444 694 421 688 411 688 C370 688 348 727 307 727 C281 727 252 714 225 698 C217 693 211 686 210 678 L221 609 C222 603 229 598 238 598 C240 598 244 598 246 599 C257 604 281 610 290 610 C332 610 354 571 395 571 L395 571 Z " />
<glyph glyph-name="ograve" unicode="&#xf2;" horiz-adv-x="486" d="M365 571 C375 571 383 578 384 588 L341 716 C338 725 333 733 323 733 L232 733 C222 733 214 726 212 716 L255 588 C258 579 264 571 274 571 L365 571 Z M241 113 C220 113 202 132 205 154 L234 361 C237 383 261 402 282 402 L316 402 C337 402 355 383 352 361 L323 154 C320 132 296 113 275 113 L241 113 Z M277 -5 C371 -5 436 73 451 149 L482 366 C488 442 445 520 351 520 L281 520 C187 520 122 442 106 366 L75 149 C70 73 113 -5 207 -5 L277 -5 Z " />
<glyph glyph-name="oacute" unicode="&#xf3;" horiz-adv-x="486" d="M371 571 C381 571 389 579 394 588 L473 716 C475 726 469 733 459 733 L368 733 C358 733 349 725 344 716 L265 588 C264 578 270 571 280 571 L371 571 Z M241 113 C220 113 202 132 205 154 L234 361 C237 383 261 402 282 402 L316 402 C337 402 355 383 352 361 L323 154 C320 132 296 113 275 113 L241 113 Z M277 -5 C371 -5 436 73 451 149 L482 366 C488 442 445 520 351 520 L281 520 C187 520 122 442 106 366 L75 149 C70 73 113 -5 207 -5 L277 -5 Z " />
<glyph glyph-name="ocircumflex" unicode="&#xf4;" horiz-adv-x="486" d="M299 759 C290 759 283 752 278 743 L178 587 C177 578 183 571 192 571 L271 571 C280 571 287 578 292 587 L334 652 L358 587 C361 578 366 571 375 571 L454 571 C463 571 471 578 472 587 L416 743 C413 752 408 759 399 759 L299 759 Z M241 113 C220 113 202 132 205 154 L234 361 C237 383 261 402 282 402 L316 402 C337 402 355 383 352 361 L323 154 C320 132 296 113 275 113 L241 113 Z M277 -5 C371 -5 436 73 451 149 L482 366 C488 442 445 520 351 520 L281 520 C187 520 122 442 106 366 L75 149 C70 73 113 -5 207 -5 L277 -5 Z " />
<glyph glyph-name="otilde" unicode="&#xf5;" horiz-adv-x="486" d="M241 113 C220 113 202 132 205 154 L234 361 C237 383 261 402 282 402 L316 402 C337 402 355 383 352 361 L323 154 C320 132 296 113 275 113 L241 113 Z M277 -5 C371 -5 436 73 451 149 L482 366 C488 442 445 520 351 520 L281 520 C187 520 122 442 106 366 L75 149 C70 73 113 -5 207 -5 L277 -5 Z M377 571 C404 571 430 584 458 600 C465 605 471 612 472 620 C472 621 472 623 462 689 C461 695 456 701 446 701 C444 701 441 701 439 700 C426 694 403 688 393 688 C352 688 330 727 289 727 C263 727 234 714 207 698 C199 693 193 686 192 678 L203 609 C204 603 211 598 220 598 C222 598 226 598 228 599 C239 604 263 610 272 610 C314 610 336 571 377 571 L377 571 Z " />
<glyph glyph-name="odieresis" unicode="&#xf6;" horiz-adv-x="486" d="M275 571 C284 571 292 578 293 587 L306 681 C307 690 301 697 292 697 L199 697 C189 697 182 690 181 681 L168 587 C167 578 172 571 182 571 L275 571 Z M465 571 C474 571 482 578 483 587 L496 681 C497 690 491 697 482 697 L389 697 C379 697 372 690 371 681 L358 587 C357 578 362 571 372 571 L465 571 Z M241 113 C220 113 202 132 205 154 L234 361 C237 383 261 402 282 402 L316 402 C337 402 355 383 352 361 L323 154 C320 132 296 113 275 113 L241 113 Z M277 -5 C371 -5 436 73 451 149 L482 366 C488 442 445 520 351 520 L281 520 C187 520 122 442 106 366 L75 149 C70 73 113 -5 207 -5 L277 -5 Z " />
<glyph glyph-name="divide" unicode="&#xf7;" horiz-adv-x="437" d="M371 151 C381 151 389 158 390 168 L400 240 C402 250 396 257 386 257 L123 257 C113 257 105 250 103 240 L93 168 C92 158 98 151 108 151 L371 151 Z M258 -5 C268 -5 276 2 277 12 L288 88 C289 98 283 105 273 105 L195 105 C185 105 177 98 176 88 L165 12 C164 2 170 -5 180 -5 L258 -5 Z M239 413 C229 413 221 406 219 396 L208 320 C207 310 213 303 223 303 L301 303 C311 303 319 310 320 320 L331 396 C333 406 327 413 317 413 L239 413 Z " />
<glyph glyph-name="oslash" unicode="&#xf8;" horiz-adv-x="486" d="M277 -5 C371 -5 436 73 451 149 L482 366 C485 408 473 451 446 481 L495 589 C497 599 491 606 481 606 L386 606 C376 606 371 599 366 589 L335 520 L281 520 C187 520 122 442 106 366 L75 149 C72 106 84 63 112 33 L63 -74 C62 -84 68 -91 78 -91 L173 -91 C183 -91 188 -84 192 -74 L224 -5 L277 -5 Z M234 361 C237 382 260 401 280 402 L222 273 L234 361 Z M277 113 L335 238 L323 154 C320 133 298 114 277 113 L277 113 Z " />
<glyph glyph-name="ugrave" unicode="&#xf9;" horiz-adv-x="496" d="M373 571 C383 571 391 578 392 588 L349 716 C346 725 341 733 331 733 L240 733 C230 733 222 726 220 716 L263 588 C266 579 272 571 282 571 L373 571 Z M505 498 C507 508 501 515 491 515 L396 515 C386 515 378 508 376 498 L328 154 C325 132 301 113 280 113 L246 113 C225 113 207 132 210 154 L258 498 C260 508 254 515 244 515 L149 515 C139 515 131 508 129 498 L80 149 C75 73 118 -5 212 -5 L282 -5 C376 -5 441 73 456 149 L505 498 Z " />
<glyph glyph-name="uacute" unicode="&#xfa;" horiz-adv-x="496" d="M374 571 C384 571 392 579 397 588 L476 716 C478 726 472 733 462 733 L371 733 C361 733 352 725 347 716 L268 588 C267 578 273 571 283 571 L374 571 Z M505 498 C507 508 501 515 491 515 L396 515 C386 515 378 508 376 498 L328 154 C325 132 301 113 280 113 L246 113 C225 113 207 132 210 154 L258 498 C260 508 254 515 244 515 L149 515 C139 515 131 508 129 498 L80 149 C75 73 118 -5 212 -5 L282 -5 C376 -5 441 73 456 149 L505 498 Z " />
<glyph glyph-name="ucircumflex" unicode="&#xfb;" horiz-adv-x="496" d="M304 759 C295 759 288 752 283 743 L183 587 C182 578 188 571 197 571 L276 571 C285 571 292 578 297 587 L339 652 L363 587 C366 578 371 571 380 571 L459 571 C468 571 476 578 477 587 L421 743 C418 752 413 759 404 759 L304 759 Z M505 498 C507 508 501 515 491 515 L396 515 C386 515 378 508 376 498 L328 154 C325 132 301 113 280 113 L246 113 C225 113 207 132 210 154 L258 498 C260 508 254 515 244 515 L149 515 C139 515 131 508 129 498 L80 149 C75 73 118 -5 212 -5 L282 -5 C376 -5 441 73 456 149 L505 498 Z " />
<glyph glyph-name="udieresis" unicode="&#xfc;" horiz-adv-x="496" d="M280 571 C289 571 297 578 298 587 L311 681 C312 690 306 697 297 697 L204 697 C194 697 187 690 186 681 L173 587 C172 578 177 571 187 571 L280 571 Z M470 571 C479 571 487 578 488 587 L501 681 C502 690 496 697 487 697 L394 697 C384 697 377 690 376 681 L363 587 C362 578 367 571 377 571 L470 571 Z M505 498 C507 508 501 515 491 515 L396 515 C386 515 378 508 376 498 L328 154 C325 132 301 113 280 113 L246 113 C225 113 207 132 210 154 L258 498 C260 508 254 515 244 515 L149 515 C139 515 131 508 129 498 L80 149 C75 73 118 -5 212 -5 L282 -5 C376 -5 441 73 456 149 L505 498 Z " />
<glyph glyph-name="yacute" unicode="&#xfd;" horiz-adv-x="458" d="M358 571 C368 571 376 579 381 588 L460 716 C462 726 456 733 446 733 L355 733 C345 733 336 725 331 716 L252 588 C251 578 257 571 267 571 L358 571 Z M146 -32 C139 -54 122 -86 79 -86 L43 -86 C33 -86 25 -93 24 -103 L12 -186 C11 -196 17 -203 27 -203 L106 -203 C129 -203 242 -181 310 -11 L512 498 C514 508 508 515 498 515 L406 515 C396 515 388 508 383 498 L258 168 L246 168 L213 498 C212 508 206 515 196 515 L104 515 C94 515 86 508 84 498 L146 -32 Z " />
<glyph glyph-name="thorn" unicode="&#xfe;" horiz-adv-x="510" d="M249 361 C252 383 276 402 297 402 L345 402 C366 402 384 383 381 361 L352 154 C349 132 325 113 304 113 L256 113 C235 113 217 132 220 154 L249 361 Z M294 682 C296 693 293 700 282 700 L186 700 C175 700 167 693 165 682 L47 -157 C46 -167 52 -174 62 -174 L157 -174 C167 -174 175 -167 176 -157 L203 33 L211 33 C227 4 257 -5 279 -5 L318 -5 C419 -5 468 62 481 150 L511 365 C523 453 493 520 392 520 L353 520 C331 520 298 511 274 482 L266 482 L294 682 Z " />
<glyph glyph-name="ydieresis" unicode="&#xff;" horiz-adv-x="458" d="M261 571 C270 571 278 578 279 587 L292 681 C293 690 287 697 278 697 L185 697 C175 697 168 690 167 681 L154 587 C153 578 158 571 168 571 L261 571 Z M451 571 C460 571 468 578 469 587 L482 681 C483 690 477 697 468 697 L375 697 C365 697 358 690 357 681 L344 587 C343 578 348 571 358 571 L451 571 Z M146 -32 C139 -54 122 -86 79 -86 L43 -86 C33 -86 25 -93 24 -103 L12 -186 C11 -196 17 -203 27 -203 L106 -203 C129 -203 242 -181 310 -11 L512 498 C514 508 508 515 498 515 L406 515 C396 515 388 508 383 498 L258 168 L246 168 L213 498 C212 508 206 515 196 515 L104 515 C94 515 86 508 84 498 L146 -32 Z " />
<glyph glyph-name="Amacron" unicode="&#x100;" horiz-adv-x="584" d="M506 751 C516 751 524 758 525 768 L537 851 C539 861 532 868 522 868 L304 868 C294 868 287 861 285 851 L273 768 C272 758 278 751 288 751 L506 751 Z M318 700 C308 700 301 693 296 683 L27 17 C25 7 32 0 42 0 L134 0 C144 0 151 7 156 17 L196 118 L420 118 L432 17 C433 7 440 0 450 0 L542 0 C552 0 559 7 561 17 L478 683 C477 693 472 700 462 700 L318 700 Z M360 533 L372 533 L407 235 L243 235 L360 533 Z " />
<glyph glyph-name="amacron" unicode="&#x101;" horiz-adv-x="480" d="M465 571 C475 571 483 578 484 588 L496 671 C497 681 491 688 481 688 L221 688 C211 688 203 681 202 671 L190 588 C189 578 195 571 205 571 L465 571 Z M202 168 C205 190 229 209 250 209 L325 209 L317 154 C314 132 290 113 269 113 L236 113 C215 113 197 132 200 154 L202 168 Z M166 496 C158 493 152 488 151 480 C151 478 150 470 157 398 C160 386 168 386 177 386 C200 391 237 402 278 402 C346 402 345 354 342 329 L340 315 L247 315 C155 315 87 264 74 176 L68 134 C56 46 95 -5 187 -5 L211 -5 C233 -5 268 4 292 33 L300 33 L298 17 C296 7 303 0 313 0 L408 0 C418 0 425 7 427 17 L471 330 C477 377 498 520 311 520 C227 520 189 505 166 496 L166 496 Z " />
<glyph glyph-name="Abreve" unicode="&#x102;" horiz-adv-x="584" d="M318 700 C308 700 301 693 296 683 L27 17 C25 7 32 0 42 0 L134 0 C144 0 151 7 156 17 L196 118 L420 118 L432 17 C433 7 440 0 450 0 L542 0 C552 0 559 7 561 17 L478 683 C477 693 472 700 462 700 L318 700 Z M360 533 L372 533 L407 235 L243 235 L360 533 Z M397 751 C495 751 551 795 579 901 C581 911 575 918 565 918 L495 918 C485 918 476 911 470 901 C455 858 439 853 411 853 C383 853 369 858 366 901 C364 911 357 918 347 918 L277 918 C267 918 259 911 257 901 C255 795 299 751 397 751 L397 751 Z " />
<glyph glyph-name="abreve" unicode="&#x103;" horiz-adv-x="480" d="M202 168 C205 190 229 209 250 209 L325 209 L317 154 C314 132 290 113 269 113 L236 113 C215 113 197 132 200 154 L202 168 Z M166 496 C158 493 152 488 151 480 C151 478 150 470 157 398 C160 386 168 386 177 386 C200 391 237 402 278 402 C346 402 345 354 342 329 L340 315 L247 315 C155 315 87 264 74 176 L68 134 C56 46 95 -5 187 -5 L211 -5 C233 -5 268 4 292 33 L300 33 L298 17 C296 7 303 0 313 0 L408 0 C418 0 425 7 427 17 L471 330 C477 377 498 520 311 520 C227 520 189 505 166 496 L166 496 Z M321 571 C419 571 475 615 503 721 C504 731 498 738 488 738 L418 738 C408 738 399 731 394 721 C379 678 363 673 335 673 C307 673 293 678 290 721 C287 731 280 738 270 738 L200 738 C190 738 182 731 181 721 C179 615 223 571 321 571 L321 571 Z " />
<glyph glyph-name="Aogonek" unicode="&#x104;" horiz-adv-x="584" d="M360 533 L372 533 L407 235 L243 235 L360 533 Z M426 56 C360 38 351 -25 349 -41 C343 -82 367 -118 421 -118 L487 -118 C494 -118 500 -113 501 -106 L506 -66 C507 -59 503 -54 496 -54 L447 -54 C447 -54 420 -54 424 -26 C427 -7 440 -1 449 0 L542 0 C552 0 559 7 561 17 L478 683 C477 693 472 700 462 700 L318 700 C308 700 301 693 296 683 L27 17 C25 7 32 0 42 0 L134 0 C144 0 151 7 156 17 L196 118 L420 118 L426 56 Z " />
<glyph glyph-name="aogonek" unicode="&#x105;" horiz-adv-x="480" d="M202 168 C205 190 229 209 250 209 L325 209 L317 154 C314 132 290 113 269 113 L236 113 C215 113 197 132 200 154 L202 168 Z M294 -14 C259 -14 211 -35 203 -90 C196 -142 207 -171 261 -171 L343 -171 C350 -171 356 -166 357 -159 L363 -119 C364 -112 359 -107 352 -107 L287 -107 C287 -107 273 -107 275 -93 C278 -78 292 -78 292 -78 L402 -78 C409 -78 414 -73 415 -66 L471 330 C477 377 498 520 311 520 C227 520 189 505 166 496 C158 493 152 488 151 480 C151 478 150 470 157 398 C160 386 168 386 177 386 C200 391 237 402 278 402 C346 402 345 354 342 329 L340 315 L247 315 C155 315 87 264 74 176 L68 134 C56 46 95 -5 187 -5 L211 -5 C233 -5 268 4 292 33 L300 33 L294 -14 Z " />
<glyph glyph-name="Cacute" unicode="&#x106;" horiz-adv-x="558" d="M445 751 C455 751 463 759 468 768 L547 896 C549 906 543 913 533 913 L442 913 C432 913 424 905 418 896 L339 768 C338 758 344 751 354 751 L445 751 Z M408 173 C403 140 372 113 342 113 L261 113 C231 113 208 140 213 173 L263 527 C267 560 298 587 328 587 L409 587 C439 587 462 560 458 527 L454 501 C453 491 459 484 469 484 L564 484 C574 484 582 491 583 501 L588 534 C601 629 532 705 434 705 L337 705 C239 705 148 629 135 534 L83 166 C69 71 139 -5 237 -5 L334 -5 C432 -5 522 71 536 166 L540 199 C542 209 536 216 526 216 L431 216 C421 216 413 209 411 199 L408 173 Z " />
<glyph glyph-name="cacute" unicode="&#x107;" horiz-adv-x="466" d="M367 571 C377 571 385 579 390 588 L469 716 C471 726 465 733 455 733 L364 733 C354 733 345 725 340 716 L261 588 C260 578 266 571 276 571 L367 571 Z M75 149 C70 73 113 -5 207 -5 L277 -5 C371 -5 436 73 451 149 L453 162 C455 172 449 179 439 179 L344 179 C334 179 326 172 324 162 L323 154 C320 132 296 113 275 113 L241 113 C220 113 202 132 205 154 L234 361 C237 383 261 402 282 402 L316 402 C337 402 355 383 352 361 L351 353 C350 343 356 336 366 336 L461 336 C471 336 479 343 480 353 L482 366 C488 442 445 520 351 520 L281 520 C187 520 122 442 106 366 L75 149 Z " />
<glyph glyph-name="Ccircumflex" unicode="&#x108;" horiz-adv-x="558" d="M367 939 C358 939 351 932 346 923 L246 767 C245 758 251 751 260 751 L339 751 C348 751 355 758 360 767 L402 832 L426 767 C429 758 434 751 443 751 L522 751 C531 751 539 758 540 767 L484 923 C481 932 476 939 467 939 L367 939 Z M408 173 C403 140 372 113 342 113 L261 113 C231 113 208 140 213 173 L263 527 C267 560 298 587 328 587 L409 587 C439 587 462 560 458 527 L454 501 C453 491 459 484 469 484 L564 484 C574 484 582 491 583 501 L588 534 C601 629 532 705 434 705 L337 705 C239 705 148 629 135 534 L83 166 C69 71 139 -5 237 -5 L334 -5 C432 -5 522 71 536 166 L540 199 C542 209 536 216 526 216 L431 216 C421 216 413 209 411 199 L408 173 Z " />
<glyph glyph-name="ccircumflex" unicode="&#x109;" horiz-adv-x="466" d="M299 759 C290 759 283 752 278 743 L178 587 C177 578 183 571 192 571 L271 571 C280 571 287 578 292 587 L334 652 L358 587 C361 578 366 571 375 571 L454 571 C463 571 471 578 472 587 L416 743 C413 752 408 759 399 759 L299 759 Z M75 149 C70 73 113 -5 207 -5 L277 -5 C371 -5 436 73 451 149 L453 162 C455 172 449 179 439 179 L344 179 C334 179 326 172 324 162 L323 154 C320 132 296 113 275 113 L241 113 C220 113 202 132 205 154 L234 361 C237 383 261 402 282 402 L316 402 C337 402 355 383 352 361 L351 353 C350 343 356 336 366 336 L461 336 C471 336 479 343 480 353 L482 366 C488 442 445 520 351 520 L281 520 C187 520 122 442 106 366 L75 149 Z " />
<glyph glyph-name="Cdotaccent" unicode="&#x10a;" horiz-adv-x="558" d="M436 751 C445 751 453 758 454 767 L468 861 C469 870 463 877 454 877 L361 877 C351 877 344 870 343 861 L329 767 C328 758 333 751 343 751 L436 751 Z M408 173 C403 140 372 113 342 113 L261 113 C231 113 208 140 213 173 L263 527 C267 560 298 587 328 587 L409 587 C439 587 462 560 458 527 L454 501 C453 491 459 484 469 484 L564 484 C574 484 582 491 583 501 L588 534 C601 629 532 705 434 705 L337 705 C239 705 148 629 135 534 L83 166 C69 71 139 -5 237 -5 L334 -5 C432 -5 522 71 536 166 L540 199 C542 209 536 216 526 216 L431 216 C421 216 413 209 411 199 L408 173 Z " />
<glyph glyph-name="cdotaccent" unicode="&#x10b;" horiz-adv-x="466" d="M370 571 C379 571 387 578 388 587 L401 681 C402 690 396 697 387 697 L294 697 C284 697 277 690 276 681 L263 587 C262 578 267 571 277 571 L370 571 Z M75 149 C70 73 113 -5 207 -5 L277 -5 C371 -5 436 73 451 149 L453 162 C455 172 449 179 439 179 L344 179 C334 179 326 172 324 162 L323 154 C320 132 296 113 275 113 L241 113 C220 113 202 132 205 154 L234 361 C237 383 261 402 282 402 L316 402 C337 402 355 383 352 361 L351 353 C350 343 356 336 366 336 L461 336 C471 336 479 343 480 353 L482 366 C488 442 445 520 351 520 L281 520 C187 520 122 442 106 366 L75 149 Z " />
<glyph glyph-name="Ccaron" unicode="&#x10c;" horiz-adv-x="558" d="M442 751 C451 751 458 758 463 767 L563 923 C564 932 558 939 549 939 L470 939 C461 939 454 932 449 923 L407 858 L383 923 C380 932 375 939 366 939 L287 939 C278 939 270 932 269 923 L325 767 C328 758 333 751 342 751 L442 751 Z M408 173 C403 140 372 113 342 113 L261 113 C231 113 208 140 213 173 L263 527 C267 560 298 587 328 587 L409 587 C439 587 462 560 458 527 L454 501 C453 491 459 484 469 484 L564 484 C574 484 582 491 583 501 L588 534 C601 629 532 705 434 705 L337 705 C239 705 148 629 135 534 L83 166 C69 71 139 -5 237 -5 L334 -5 C432 -5 522 71 536 166 L540 199 C542 209 536 216 526 216 L431 216 C421 216 413 209 411 199 L408 173 Z " />
<glyph glyph-name="ccaron" unicode="&#x10d;" horiz-adv-x="466" d="M374 571 C383 571 390 578 395 587 L495 743 C496 752 490 759 481 759 L402 759 C393 759 386 752 381 743 L339 678 L315 743 C312 752 307 759 298 759 L219 759 C210 759 202 752 201 743 L257 587 C260 578 265 571 274 571 L374 571 Z M75 149 C70 73 113 -5 207 -5 L277 -5 C371 -5 436 73 451 149 L453 162 C455 172 449 179 439 179 L344 179 C334 179 326 172 324 162 L323 154 C320 132 296 113 275 113 L241 113 C220 113 202 132 205 154 L234 361 C237 383 261 402 282 402 L316 402 C337 402 355 383 352 361 L351 353 C350 343 356 336 366 336 L461 336 C471 336 479 343 480 353 L482 366 C488 442 445 520 351 520 L281 520 C187 520 122 442 106 366 L75 149 Z " />
<glyph glyph-name="Dcaron" unicode="&#x10e;" horiz-adv-x="583" d="M415 751 C424 751 431 758 436 767 L536 923 C537 932 531 939 522 939 L443 939 C434 939 427 932 422 923 L380 858 L356 923 C353 932 348 939 339 939 L260 939 C251 939 243 932 242 923 L298 767 C301 758 306 751 315 751 L415 751 Z M345 0 C443 0 533 76 547 171 L597 529 C610 624 541 700 443 700 L185 700 C175 700 167 693 165 683 L72 17 C70 7 77 0 87 0 L345 0 Z M418 582 C448 582 472 555 467 522 L418 177 C414 144 383 117 353 117 L215 117 L280 582 L418 582 Z " />
<glyph glyph-name="dcaron" unicode="&#x10f;" horiz-adv-x="715" d="M698 538 C708 538 716 546 722 555 L800 683 C802 693 796 700 786 700 L695 700 C685 700 677 692 671 683 L593 555 C591 545 597 538 607 538 L698 538 Z M332 154 C329 132 305 113 284 113 L236 113 C215 113 197 132 200 154 L229 361 C232 383 256 402 277 402 L325 402 C346 402 364 383 361 361 L332 154 Z M378 482 L370 482 C354 511 325 520 303 520 L264 520 C163 520 113 453 101 365 L71 150 C58 62 89 -5 190 -5 L229 -5 C251 -5 283 4 307 33 L315 33 L313 17 C311 7 318 0 328 0 L423 0 C433 0 440 7 442 17 L535 682 C537 693 531 700 520 700 L424 700 C413 700 408 693 406 682 L378 482 Z " />
<glyph glyph-name="Dcroat" unicode="&#x110;" horiz-adv-x="593" d="M355 0 C453 0 543 76 557 171 L607 529 C620 624 551 700 453 700 L195 700 C185 700 177 693 175 683 L137 408 L84 408 C74 408 66 401 64 391 L53 308 C51 298 57 291 67 291 L120 291 L82 17 C80 7 87 0 97 0 L355 0 Z M317 291 C327 291 335 298 337 308 L348 391 C350 401 344 408 334 408 L266 408 L290 582 L428 582 C458 582 482 555 477 522 L428 177 C424 144 393 117 363 117 L225 117 L249 291 L317 291 Z " />
<glyph glyph-name="dcroat" unicode="&#x111;" horiz-adv-x="508" d="M315 33 L313 17 C311 7 318 0 328 0 L423 0 C433 0 440 7 442 17 L517 549 L558 549 C568 549 576 556 577 566 L587 637 C588 647 582 654 572 654 L531 654 L535 682 C537 693 531 700 520 700 L424 700 C413 700 408 693 406 682 L402 654 L342 654 C332 654 324 647 323 637 L313 566 C312 556 318 549 328 549 L388 549 L378 482 L370 482 C354 511 325 520 303 520 L264 520 C163 520 113 453 101 365 L71 150 C58 62 89 -5 190 -5 L229 -5 C251 -5 283 4 307 33 L315 33 Z M332 154 C329 132 305 113 284 113 L236 113 C215 113 197 132 200 154 L229 361 C232 383 256 402 277 402 L325 402 C346 402 364 383 361 361 L332 154 Z " />
<glyph glyph-name="Emacron" unicode="&#x112;" horiz-adv-x="509" d="M493 751 C503 751 511 758 512 768 L524 851 C526 861 519 868 509 868 L248 868 C238 868 231 861 229 851 L217 768 C216 758 222 751 232 751 L493 751 Z M432 0 C442 0 449 7 451 17 L463 100 C464 110 458 117 448 117 L215 117 L241 304 L451 304 C461 304 469 311 471 321 L482 405 C484 415 478 422 468 422 L258 422 L280 582 L513 582 C523 582 531 589 533 599 L544 683 C546 693 540 700 530 700 L185 700 C175 700 167 693 165 683 L72 17 C70 7 77 0 87 0 L432 0 Z " />
<glyph glyph-name="emacron" unicode="&#x113;" horiz-adv-x="481" d="M432 571 C442 571 450 578 451 588 L463 671 C464 681 458 688 448 688 L230 688 C220 688 212 681 211 671 L199 588 C198 578 204 571 214 571 L432 571 Z M426 72 C428 75 430 79 430 82 C431 87 429 92 425 95 L373 143 C370 145 366 146 363 146 C357 146 353 143 348 139 C335 128 315 113 283 113 L241 113 C220 113 202 132 205 154 L212 203 L442 203 C452 203 460 210 461 220 L482 366 C488 442 445 520 351 520 L281 520 C187 520 122 442 106 366 L75 149 C70 73 113 -5 207 -5 L267 -5 C267 -5 367 -5 426 72 L426 72 Z M234 361 C237 383 261 402 282 402 L316 402 C337 402 355 383 352 361 L345 307 L227 307 L234 361 Z " />
<glyph glyph-name="Edotaccent" unicode="&#x116;" horiz-adv-x="509" d="M419 751 C428 751 436 758 437 767 L451 861 C452 870 446 877 437 877 L344 877 C334 877 327 870 326 861 L312 767 C311 758 316 751 326 751 L419 751 Z M432 0 C442 0 449 7 451 17 L463 100 C464 110 458 117 448 117 L215 117 L241 304 L451 304 C461 304 469 311 471 321 L482 405 C484 415 478 422 468 422 L258 422 L280 582 L513 582 C523 582 531 589 533 599 L544 683 C546 693 540 700 530 700 L185 700 C175 700 167 693 165 683 L72 17 C70 7 77 0 87 0 L432 0 Z " />
<glyph glyph-name="edotaccent" unicode="&#x117;" horiz-adv-x="481" d="M369 571 C378 571 386 578 387 587 L400 681 C401 690 395 697 386 697 L293 697 C283 697 276 690 275 681 L262 587 C261 578 266 571 276 571 L369 571 Z M426 72 C428 75 430 79 430 82 C431 87 429 92 425 95 L373 143 C370 145 366 146 363 146 C357 146 353 143 348 139 C335 128 315 113 283 113 L241 113 C220 113 202 132 205 154 L212 203 L442 203 C452 203 460 210 461 220 L482 366 C488 442 445 520 351 520 L281 520 C187 520 122 442 106 366 L75 149 C70 73 113 -5 207 -5 L267 -5 C267 -5 367 -5 426 72 L426 72 Z M234 361 C237 383 261 402 282 402 L316 402 C337 402 355 383 352 361 L345 307 L227 307 L234 361 Z " />
<glyph glyph-name="Eogonek" unicode="&#x118;" horiz-adv-x="509" d="M432 0 C442 0 449 7 451 17 L463 100 C464 110 458 117 448 117 L215 117 L241 304 L451 304 C461 304 469 311 471 321 L482 405 C484 415 478 422 468 422 L258 422 L280 582 L513 582 C523 582 531 589 533 599 L544 683 C546 693 540 700 530 700 L185 700 C175 700 167 693 165 683 L72 17 C70 7 77 0 87 0 L266 0 C258 -12 253 -25 251 -41 C245 -82 269 -118 323 -118 L405 -118 C412 -118 418 -113 419 -106 L424 -66 C425 -59 421 -54 414 -54 L349 -54 C349 -54 322 -54 326 -26 C329 -4 348 0 354 0 L432 0 Z " />
<glyph glyph-name="eogonek" unicode="&#x119;" horiz-adv-x="481" d="M426 72 C428 75 430 79 430 82 C431 87 429 92 425 95 L373 143 C370 145 366 146 363 146 C357 146 353 143 348 139 C335 128 315 113 283 113 L241 113 C220 113 202 132 205 154 L212 203 L442 203 C452 203 460 210 461 220 L482 366 C488 442 445 520 351 520 L281 520 C187 520 122 442 106 366 L75 149 C70 83 102 16 170 -1 C163 -14 156 -30 154 -46 C148 -87 172 -123 226 -123 L308 -123 C315 -123 321 -118 322 -111 L328 -71 C329 -64 324 -59 317 -59 L252 -59 C252 -59 225 -59 229 -31 C232 -9 251 -5 257 -5 L267 -5 C267 -5 367 -5 426 72 L426 72 Z M234 361 C237 383 261 402 282 402 L316 402 C337 402 355 383 352 361 L345 307 L227 307 L234 361 Z " />
<glyph glyph-name="Ecaron" unicode="&#x11a;" horiz-adv-x="509" d="M415 751 C424 751 431 758 436 767 L536 923 C537 932 531 939 522 939 L443 939 C434 939 427 932 422 923 L380 858 L356 923 C353 932 348 939 339 939 L260 939 C251 939 243 932 242 923 L298 767 C301 758 306 751 315 751 L415 751 Z M432 0 C442 0 449 7 451 17 L463 100 C464 110 458 117 448 117 L215 117 L241 304 L451 304 C461 304 469 311 471 321 L482 405 C484 415 478 422 468 422 L258 422 L280 582 L513 582 C523 582 531 589 533 599 L544 683 C546 693 540 700 530 700 L185 700 C175 700 167 693 165 683 L72 17 C70 7 77 0 87 0 L432 0 Z " />
<glyph glyph-name="ecaron" unicode="&#x11b;" horiz-adv-x="481" d="M374 571 C383 571 390 578 395 587 L495 743 C496 752 490 759 481 759 L402 759 C393 759 386 752 381 743 L339 678 L315 743 C312 752 307 759 298 759 L219 759 C210 759 202 752 201 743 L257 587 C260 578 265 571 274 571 L374 571 Z M426 72 C428 75 430 79 430 82 C431 87 429 92 425 95 L373 143 C370 145 366 146 363 146 C357 146 353 143 348 139 C335 128 315 113 283 113 L241 113 C220 113 202 132 205 154 L212 203 L442 203 C452 203 460 210 461 220 L482 366 C488 442 445 520 351 520 L281 520 C187 520 122 442 106 366 L75 149 C70 73 113 -5 207 -5 L267 -5 C267 -5 367 -5 426 72 L426 72 Z M234 361 C237 383 261 402 282 402 L316 402 C337 402 355 383 352 361 L345 307 L227 307 L234 361 Z " />
<glyph glyph-name="Gcircumflex" unicode="&#x11c;" horiz-adv-x="573" d="M366 939 C357 939 350 932 345 923 L245 767 C244 758 250 751 259 751 L338 751 C347 751 354 758 359 767 L401 832 L425 767 C428 758 433 751 442 751 L521 751 C530 751 538 758 539 767 L483 923 C480 932 475 939 466 939 L366 939 Z M331 295 C330 285 336 278 346 278 L423 278 L408 173 C403 140 372 113 342 113 L261 113 C231 113 208 140 213 173 L263 527 C267 560 298 587 328 587 L409 587 C439 587 462 560 458 527 L454 501 C453 491 459 484 469 484 L564 484 C574 484 582 491 583 501 L588 534 C601 629 532 705 434 705 L337 705 C239 705 148 629 135 534 L83 166 C69 71 139 -5 237 -5 L334 -5 C432 -5 522 71 536 166 L566 378 C567 388 561 395 551 395 L362 395 C352 395 344 388 343 378 L331 295 Z " />
<glyph glyph-name="gcircumflex" unicode="&#x11d;" horiz-adv-x="510" d="M297 759 C288 759 281 752 276 743 L176 587 C175 578 181 571 190 571 L269 571 C278 571 285 578 290 587 L332 652 L356 587 C359 578 364 571 373 571 L452 571 C461 571 469 578 470 587 L414 743 C411 752 406 759 397 759 L297 759 Z M332 154 C329 132 305 113 284 113 L236 113 C215 113 197 132 200 154 L229 361 C232 383 256 402 277 402 L325 402 C346 402 364 383 361 361 L332 154 Z M307 -24 C304 -49 280 -85 212 -85 C171 -85 142 -79 120 -74 C111 -74 103 -74 97 -86 C69 -158 68 -167 68 -169 C67 -177 71 -181 79 -184 C101 -191 127 -203 211 -203 C398 -203 429 -72 436 -25 L509 497 C511 508 505 515 494 515 L398 515 C387 515 382 508 380 497 L378 482 L370 482 C354 511 325 520 303 520 L264 520 C163 520 113 453 101 365 L71 150 C58 62 89 -5 190 -5 L229 -5 C251 -5 283 4 307 33 L315 33 L307 -24 Z " />
<glyph glyph-name="Gbreve" unicode="&#x11e;" horiz-adv-x="573" d="M331 295 C330 285 336 278 346 278 L423 278 L408 173 C403 140 372 113 342 113 L261 113 C231 113 208 140 213 173 L263 527 C267 560 298 587 328 587 L409 587 C439 587 462 560 458 527 L454 501 C453 491 459 484 469 484 L564 484 C574 484 582 491 583 501 L588 534 C601 629 532 705 434 705 L337 705 C239 705 148 629 135 534 L83 166 C69 71 139 -5 237 -5 L334 -5 C432 -5 522 71 536 166 L566 378 C567 388 561 395 551 395 L362 395 C352 395 344 388 343 378 L331 295 Z M398 751 C496 751 552 795 580 901 C582 911 576 918 566 918 L496 918 C486 918 477 911 471 901 C456 858 440 853 412 853 C384 853 370 858 367 901 C365 911 358 918 348 918 L278 918 C268 918 260 911 258 901 C256 795 300 751 398 751 L398 751 Z " />
<glyph glyph-name="gbreve" unicode="&#x11f;" horiz-adv-x="510" d="M332 154 C329 132 305 113 284 113 L236 113 C215 113 197 132 200 154 L229 361 C232 383 256 402 277 402 L325 402 C346 402 364 383 361 361 L332 154 Z M307 -24 C304 -49 280 -85 212 -85 C171 -85 142 -79 120 -74 C111 -74 103 -74 97 -86 C69 -158 68 -167 68 -169 C67 -177 71 -181 79 -184 C101 -191 127 -203 211 -203 C398 -203 429 -72 436 -25 L509 497 C511 508 505 515 494 515 L398 515 C387 515 382 508 380 497 L378 482 L370 482 C354 511 325 520 303 520 L264 520 C163 520 113 453 101 365 L71 150 C58 62 89 -5 190 -5 L229 -5 C251 -5 283 4 307 33 L315 33 L307 -24 Z M329 571 C427 571 483 615 511 721 C512 731 506 738 496 738 L426 738 C416 738 407 731 402 721 C387 678 371 673 343 673 C315 673 301 678 298 721 C295 731 288 738 278 738 L208 738 C198 738 190 731 189 721 C187 615 231 571 329 571 L329 571 Z " />
<glyph glyph-name="Gdotaccent" unicode="&#x120;" horiz-adv-x="573" d="M438 751 C447 751 455 758 456 767 L470 861 C471 870 465 877 456 877 L363 877 C353 877 346 870 345 861 L331 767 C330 758 335 751 345 751 L438 751 Z M331 295 C330 285 336 278 346 278 L423 278 L408 173 C403 140 372 113 342 113 L261 113 C231 113 208 140 213 173 L263 527 C267 560 298 587 328 587 L409 587 C439 587 462 560 458 527 L454 501 C453 491 459 484 469 484 L564 484 C574 484 582 491 583 501 L588 534 C601 629 532 705 434 705 L337 705 C239 705 148 629 135 534 L83 166 C69 71 139 -5 237 -5 L334 -5 C432 -5 522 71 536 166 L566 378 C567 388 561 395 551 395 L362 395 C352 395 344 388 343 378 L331 295 Z " />
<glyph glyph-name="gdotaccent" unicode="&#x121;" horiz-adv-x="510" d="M374 571 C383 571 391 578 392 587 L405 681 C406 690 400 697 391 697 L298 697 C288 697 281 690 280 681 L267 587 C266 578 271 571 281 571 L374 571 Z M332 154 C329 132 305 113 284 113 L236 113 C215 113 197 132 200 154 L229 361 C232 383 256 402 277 402 L325 402 C346 402 364 383 361 361 L332 154 Z M307 -24 C304 -49 280 -85 212 -85 C171 -85 142 -79 120 -74 C111 -74 103 -74 97 -86 C69 -158 68 -167 68 -169 C67 -177 71 -181 79 -184 C101 -191 127 -203 211 -203 C398 -203 429 -72 436 -25 L509 497 C511 508 505 515 494 515 L398 515 C387 515 382 508 380 497 L378 482 L370 482 C354 511 325 520 303 520 L264 520 C163 520 113 453 101 365 L71 150 C58 62 89 -5 190 -5 L229 -5 C251 -5 283 4 307 33 L315 33 L307 -24 Z " />
<glyph glyph-name="uni0122" unicode="&#x122;" horiz-adv-x="573" d="M255 -201 C265 -201 273 -193 279 -184 L336 -70 C337 -60 331 -53 321 -53 L230 -53 C220 -53 212 -61 207 -70 L150 -184 C148 -194 154 -201 164 -201 L255 -201 Z M331 295 C330 285 336 278 346 278 L423 278 L408 173 C403 140 372 113 342 113 L261 113 C231 113 208 140 213 173 L263 527 C267 560 298 587 328 587 L409 587 C439 587 462 560 458 527 L454 501 C453 491 459 484 469 484 L564 484 C574 484 582 491 583 501 L588 534 C601 629 532 705 434 705 L337 705 C239 705 148 629 135 534 L83 166 C69 71 139 -5 237 -5 L334 -5 C432 -5 522 71 536 166 L566 378 C567 388 561 395 551 395 L362 395 C352 395 344 388 343 378 L331 295 Z " />
<glyph glyph-name="uni0123" unicode="&#x123;" horiz-adv-x="510" d="M376 571 C386 571 394 579 399 588 L478 716 C480 726 474 733 464 733 L373 733 C363 733 354 725 349 716 L270 588 C269 578 275 571 285 571 L376 571 Z M332 154 C329 132 305 113 284 113 L236 113 C215 113 197 132 200 154 L229 361 C232 383 256 402 277 402 L325 402 C346 402 364 383 361 361 L332 154 Z M307 -24 C304 -49 280 -85 212 -85 C171 -85 142 -79 120 -74 C111 -74 103 -74 97 -86 C69 -158 68 -167 68 -169 C67 -177 71 -181 79 -184 C101 -191 127 -203 211 -203 C398 -203 429 -72 436 -25 L509 497 C511 508 505 515 494 515 L398 515 C387 515 382 508 380 497 L378 482 L370 482 C354 511 325 520 303 520 L264 520 C163 520 113 453 101 365 L71 150 C58 62 89 -5 190 -5 L229 -5 C251 -5 283 4 307 33 L315 33 L307 -24 Z " />
<glyph glyph-name="Hcircumflex" unicode="&#x124;" horiz-adv-x="585" d="M373 939 C364 939 357 932 352 923 L252 767 C251 758 257 751 266 751 L345 751 C354 751 361 758 366 767 L408 832 L432 767 C435 758 440 751 449 751 L528 751 C537 751 545 758 546 767 L490 923 C487 932 482 939 473 939 L373 939 Z M294 683 C296 693 290 700 280 700 L185 700 C175 700 167 693 165 683 L72 17 C70 7 77 0 87 0 L182 0 C192 0 199 7 201 17 L238 281 L425 281 L388 17 C386 7 393 0 403 0 L498 0 C508 0 515 7 517 17 L610 683 C612 693 606 700 596 700 L501 700 C491 700 483 693 481 683 L442 399 L255 399 L294 683 Z " />
<glyph glyph-name="hcircumflex" unicode="&#x125;" horiz-adv-x="512" d="M304 939 C295 939 288 932 283 923 L183 767 C182 758 188 751 197 751 L276 751 C285 751 292 758 297 767 L339 832 L363 767 C366 758 371 751 380 751 L459 751 C468 751 476 758 477 767 L421 923 C418 932 413 939 404 939 L304 939 Z M247 345 C273 392 302 402 324 402 L337 402 C358 402 376 383 373 361 L325 17 C323 7 330 0 340 0 L435 0 C445 0 452 7 454 17 L503 365 C510 453 490 520 398 520 L383 520 C361 520 308 519 272 463 L264 463 L294 682 C296 693 293 700 282 700 L186 700 C175 700 167 693 165 682 L72 17 C70 7 77 0 87 0 L182 0 C192 0 199 7 201 17 L247 345 Z " />
<glyph glyph-name="Hbar" unicode="&#x126;" horiz-adv-x="567" d="M600 434 C610 434 618 441 620 451 L632 534 C633 544 627 551 617 551 L583 551 L601 683 C603 693 597 700 587 700 L492 700 C482 700 474 693 472 683 L454 551 L267 551 L285 683 C287 693 281 700 271 700 L176 700 C166 700 158 693 156 683 L138 551 L104 551 C94 551 86 544 85 534 L73 451 C71 441 77 434 87 434 L121 434 L63 17 C61 7 68 0 78 0 L173 0 C183 0 190 7 192 17 L218 205 L405 205 L379 17 C377 7 384 0 394 0 L489 0 C499 0 506 7 508 17 L566 434 L600 434 Z M250 434 L437 434 L422 323 L235 323 L250 434 Z " />
<glyph glyph-name="hbar" unicode="&#x127;" horiz-adv-x="510" d="M333 547 C343 547 351 554 353 564 L363 635 C364 645 358 652 348 652 L288 652 L292 682 C294 693 291 700 280 700 L184 700 C173 700 165 693 163 682 L159 652 L118 652 C108 652 100 645 99 635 L89 564 C87 554 93 547 103 547 L144 547 L70 17 C68 7 75 0 85 0 L180 0 C190 0 197 7 199 17 L245 345 C271 392 300 402 322 402 L335 402 C356 402 374 383 371 361 L323 17 C321 7 328 0 338 0 L433 0 C443 0 450 7 452 17 L501 365 C508 453 488 520 396 520 L381 520 C359 520 306 519 270 463 L262 463 L273 547 L333 547 Z " />
<glyph glyph-name="Itilde" unicode="&#x128;" horiz-adv-x="269" d="M182 0 C192 0 199 7 201 17 L294 683 C296 693 290 700 280 700 L185 700 C175 700 167 693 165 683 L72 17 C70 7 77 0 87 0 L182 0 Z M296 751 C323 751 349 764 377 780 C384 785 390 792 391 800 C391 801 391 803 382 869 C380 875 375 881 365 881 C363 881 360 881 358 880 C345 874 322 868 312 868 C271 868 249 907 208 907 C182 907 153 894 126 878 C118 873 112 866 111 858 L122 789 C124 783 130 778 139 778 C141 778 145 778 147 779 C159 784 183 790 192 790 C234 790 255 751 296 751 L296 751 Z " />
<glyph glyph-name="itilde" unicode="&#x129;" horiz-adv-x="269" d="M182 0 C192 0 199 7 201 17 L268 498 C270 508 264 515 254 515 L159 515 C149 515 141 508 139 498 L72 17 C70 7 77 0 87 0 L182 0 Z M270 571 C297 571 323 584 351 600 C358 605 364 612 365 620 C365 621 365 623 355 689 C354 695 349 701 339 701 C337 701 334 701 332 700 C319 694 296 688 286 688 C245 688 223 727 182 727 C156 727 127 714 100 698 C92 693 86 686 85 678 L96 609 C97 603 104 598 113 598 C115 598 119 598 121 599 C132 604 156 610 165 610 C207 610 229 571 270 571 L270 571 Z " />
<glyph glyph-name="Imacron" unicode="&#x12a;" horiz-adv-x="269" d="M182 0 C192 0 199 7 201 17 L294 683 C296 693 290 700 280 700 L185 700 C175 700 167 693 165 683 L72 17 C70 7 77 0 87 0 L182 0 Z M347 751 C357 751 365 758 366 768 L378 851 C380 861 373 868 363 868 L146 868 C136 868 129 861 127 851 L115 768 C114 758 120 751 130 751 L347 751 Z " />
<glyph glyph-name="imacron" unicode="&#x12b;" horiz-adv-x="269" d="M182 0 C192 0 199 7 201 17 L268 498 C270 508 264 515 254 515 L159 515 C149 515 141 508 139 498 L72 17 C70 7 77 0 87 0 L182 0 Z M322 571 C332 571 340 578 341 588 L353 671 C354 681 348 688 338 688 L121 688 C111 688 103 681 102 671 L90 588 C89 578 95 571 105 571 L322 571 Z " />
<glyph glyph-name="Iogonek" unicode="&#x12e;" horiz-adv-x="269" d="M78 64 C43 64 6 43 0 2 C-9 -69 2 -93 56 -93 L138 -93 C145 -93 151 -88 152 -81 L158 -41 C159 -34 154 -29 147 -29 L82 -29 C82 -29 68 -29 70 -15 C72 -3 81 0 87 0 L182 0 C192 0 199 7 201 17 L294 683 C296 693 290 700 280 700 L185 700 C175 700 167 693 165 683 L78 64 Z " />
<glyph glyph-name="iogonek" unicode="&#x12f;" horiz-adv-x="269" d="M78 64 C43 64 6 43 0 2 C-9 -69 2 -93 56 -93 L138 -93 C145 -93 151 -88 152 -81 L158 -41 C159 -34 154 -29 147 -29 L82 -29 C82 -29 68 -29 70 -15 C72 -3 81 0 87 0 L182 0 C192 0 199 7 201 17 L268 498 C270 508 264 515 254 515 L159 515 C149 515 141 508 139 498 L78 64 Z M264 565 C274 565 282 572 283 582 L297 683 C299 693 293 700 283 700 L183 700 C173 700 165 693 163 683 L149 582 C148 572 154 565 164 565 L264 565 Z " />
<glyph glyph-name="Idotaccent" unicode="&#x130;" horiz-adv-x="269" d="M182 0 C192 0 199 7 201 17 L276 554 C278 564 272 571 262 571 L167 571 C157 571 149 564 147 554 L72 17 C70 7 77 0 87 0 L182 0 Z M272 621 C282 621 290 628 291 638 L305 739 C307 749 301 756 291 756 L191 756 C181 756 173 749 171 739 L157 638 C156 628 162 621 172 621 L272 621 Z " />
<glyph glyph-name="dotlessi" unicode="&#x131;" horiz-adv-x="269" d="M182 0 C192 0 199 7 201 17 L268 498 C270 508 264 515 254 515 L159 515 C149 515 141 508 139 498 L72 17 C70 7 77 0 87 0 L182 0 Z " />
<glyph glyph-name="Jcircumflex" unicode="&#x134;" horiz-adv-x="428" d="M311 939 C302 939 295 932 290 923 L190 767 C189 758 195 751 204 751 L283 751 C292 751 299 758 304 767 L346 832 L370 767 C373 758 378 751 387 751 L466 751 C475 751 483 758 484 767 L428 923 C425 932 420 939 411 939 L311 939 Z M110 142 C107 145 103 146 98 146 C94 146 90 145 85 142 L18 87 C13 83 11 79 10 74 C9 70 11 66 13 63 C30 41 68 -5 166 -5 C305 -5 389 84 402 175 L473 683 C475 693 469 700 459 700 L364 700 C354 700 346 693 344 683 L274 178 C274 178 264 113 176 113 C154 113 136 122 110 142 L110 142 Z " />
<glyph glyph-name="jcircumflex" unicode="&#x135;" horiz-adv-x="269" d="M14 -186 C14 -186 179 -142 200 12 L268 498 C270 508 264 515 254 515 L159 515 C149 515 141 508 139 498 L72 17 C72 17 64 -41 -17 -67 C-24 -69 -29 -76 -30 -82 C-30 -84 -30 -87 -29 -89 L-5 -177 C-3 -184 1 -188 7 -188 C9 -188 12 -187 14 -186 L14 -186 Z M190 759 C181 759 174 752 169 743 L69 587 C68 578 74 571 83 571 L162 571 C171 571 178 578 183 587 L225 652 L249 587 C252 578 257 571 266 571 L345 571 C354 571 362 578 363 587 L307 743 C304 752 299 759 290 759 L190 759 Z " />
<glyph glyph-name="uni0136" unicode="&#x136;" horiz-adv-x="559" d="M275 -201 C285 -201 293 -193 299 -184 L356 -70 C357 -60 351 -53 341 -53 L250 -53 C240 -53 232 -61 227 -70 L170 -184 C168 -194 174 -201 184 -201 L275 -201 Z M441 349 L621 683 C623 693 617 700 607 700 L510 700 C500 700 493 692 486 683 L338 407 L256 407 L294 683 C296 693 290 700 280 700 L185 700 C175 700 167 693 165 683 L72 17 C70 7 77 0 87 0 L182 0 C192 0 199 7 201 17 L240 292 L322 292 L393 17 C397 8 402 0 412 0 L511 0 C521 0 528 7 530 17 L441 349 Z " />
<glyph glyph-name="uni0137" unicode="&#x137;" horiz-adv-x="494" d="M239 -201 C249 -201 257 -193 263 -184 L320 -70 C321 -60 315 -53 305 -53 L214 -53 C204 -53 196 -61 191 -70 L134 -184 C132 -194 138 -201 148 -201 L239 -201 Z M412 270 L543 498 C545 508 539 515 529 515 L434 515 C424 515 412 507 405 498 L306 328 L245 328 L294 683 C296 693 290 700 280 700 L185 700 C175 700 167 693 165 683 L72 17 C70 7 77 0 87 0 L182 0 C192 0 199 7 201 17 L228 213 L288 213 L337 17 C341 8 346 0 356 0 L456 0 C466 0 473 7 475 17 L412 270 Z " />
<glyph glyph-name="kgreenlandic" unicode="&#x138;" horiz-adv-x="494" d="M412 270 L543 498 C545 508 539 515 529 515 L434 515 C424 515 412 507 405 498 L306 328 L245 328 L268 498 C270 508 264 515 254 515 L159 515 C149 515 141 508 139 498 L72 17 C70 7 77 0 87 0 L182 0 C192 0 199 7 201 17 L228 213 L288 213 L337 17 C341 8 346 0 356 0 L456 0 C466 0 473 7 475 17 L412 270 Z " />
<glyph glyph-name="Lacute" unicode="&#x139;" horiz-adv-x="479" d="M287 751 C297 751 305 759 310 768 L389 896 C391 906 385 913 375 913 L284 913 C274 913 266 905 260 896 L181 768 C180 758 186 751 196 751 L287 751 Z M294 683 C296 693 290 700 280 700 L185 700 C175 700 167 693 165 683 L72 17 C70 7 77 0 87 0 L432 0 C442 0 449 7 451 17 L463 101 C464 111 458 118 448 118 L215 118 L294 683 Z " />
<glyph glyph-name="lacute" unicode="&#x13a;" horiz-adv-x="269" d="M182 0 C192 0 199 7 201 17 L294 683 C296 693 290 700 280 700 L185 700 C175 700 167 693 165 683 L72 17 C70 7 77 0 87 0 L182 0 Z M283 751 C293 751 301 759 306 768 L385 896 C387 906 381 913 371 913 L280 913 C270 913 262 905 256 896 L177 768 C176 758 182 751 192 751 L283 751 Z " />
<glyph glyph-name="uni013B" unicode="&#x13b;" horiz-adv-x="479" d="M237 -201 C247 -201 255 -193 261 -184 L318 -70 C319 -60 313 -53 303 -53 L212 -53 C202 -53 194 -61 189 -70 L132 -184 C130 -194 136 -201 146 -201 L237 -201 Z M294 683 C296 693 290 700 280 700 L185 700 C175 700 167 693 165 683 L72 17 C70 7 77 0 87 0 L432 0 C442 0 449 7 451 17 L463 101 C464 111 458 118 448 118 L215 118 L294 683 Z " />
<glyph glyph-name="uni013C" unicode="&#x13c;" horiz-adv-x="269" d="M182 0 C192 0 199 7 201 17 L294 683 C296 693 290 700 280 700 L185 700 C175 700 167 693 165 683 L72 17 C70 7 77 0 87 0 L182 0 Z M108 -201 C118 -201 126 -193 132 -184 L189 -70 C190 -60 184 -53 174 -53 L83 -53 C73 -53 65 -61 60 -70 L3 -184 C1 -194 7 -201 17 -201 L108 -201 Z " />
<glyph glyph-name="Lcaron" unicode="&#x13d;" horiz-adv-x="511" d="M474 538 C484 538 492 546 498 555 L576 683 C578 693 572 700 562 700 L471 700 C461 700 453 692 447 683 L369 555 C367 545 373 538 383 538 L474 538 Z M294 683 C296 693 290 700 280 700 L185 700 C175 700 167 693 165 683 L72 17 C70 7 77 0 87 0 L432 0 C442 0 449 7 451 17 L463 101 C464 111 458 118 448 118 L215 118 L294 683 Z " />
<glyph glyph-name="lcaron" unicode="&#x13e;" horiz-adv-x="474" d="M182 0 C192 0 199 7 201 17 L294 683 C296 693 290 700 280 700 L185 700 C175 700 167 693 165 683 L72 17 C70 7 77 0 87 0 L182 0 Z M457 538 C467 538 475 546 481 555 L559 683 C561 693 555 700 545 700 L454 700 C444 700 436 692 430 683 L352 555 C350 545 356 538 366 538 L457 538 Z " />
<glyph glyph-name="Lslash" unicode="&#x141;" horiz-adv-x="502" d="M335 336 C345 339 353 343 354 353 L366 436 C367 446 361 453 351 453 L283 435 L317 683 C319 693 313 700 303 700 L208 700 C198 700 190 693 188 683 L149 399 L80 380 C69 377 62 373 61 363 L49 280 C47 270 53 263 63 263 L132 282 L95 17 C93 7 100 0 110 0 L455 0 C465 0 472 7 474 17 L486 101 C487 111 481 118 471 118 L238 118 L266 318 L335 336 Z " />
<glyph glyph-name="lslash" unicode="&#x142;" horiz-adv-x="315" d="M335 336 C345 339 353 343 354 353 L366 436 C367 446 361 453 351 453 L283 435 L317 683 C319 693 313 700 303 700 L208 700 C198 700 190 693 188 683 L149 399 L80 380 C69 377 62 373 61 363 L49 280 C47 270 53 263 63 263 L132 282 L95 17 C93 7 100 0 110 0 L205 0 C215 0 222 7 224 17 L266 318 L335 336 Z " />
<glyph glyph-name="Nacute" unicode="&#x143;" horiz-adv-x="621" d="M476 751 C486 751 494 759 499 768 L578 896 C580 906 574 913 564 913 L473 913 C463 913 455 905 449 896 L370 768 C369 758 375 751 385 751 L476 751 Z M311 700 L185 700 C175 700 167 693 165 683 L72 17 C70 7 77 0 87 0 L182 0 C192 0 199 7 201 17 L260 439 L265 439 L390 17 C393 8 398 0 408 0 L534 0 C544 0 551 7 553 17 L646 683 C648 693 642 700 632 700 L537 700 C527 700 519 693 517 683 L458 261 L453 261 L328 683 C326 692 321 700 311 700 L311 700 Z " />
<glyph glyph-name="nacute" unicode="&#x144;" horiz-adv-x="512" d="M397 571 C407 571 415 579 420 588 L499 716 C501 726 495 733 485 733 L394 733 C384 733 375 725 370 716 L291 588 C290 578 296 571 306 571 L397 571 Z M247 345 C273 392 302 402 324 402 L337 402 C358 402 376 383 373 361 L325 17 C323 7 330 0 340 0 L435 0 C445 0 452 7 454 17 L503 365 C510 453 490 520 398 520 L383 520 C361 520 308 519 272 463 L264 463 L268 497 C270 508 267 515 256 515 L160 515 C149 515 141 508 139 497 L72 17 C70 7 77 0 87 0 L182 0 C192 0 199 7 201 17 L247 345 Z " />
<glyph glyph-name="uni0145" unicode="&#x145;" horiz-adv-x="621" d="M304 -201 C314 -201 322 -193 328 -184 L385 -70 C386 -60 380 -53 370 -53 L279 -53 C269 -53 261 -61 256 -70 L199 -184 C197 -194 203 -201 213 -201 L304 -201 Z M311 700 L185 700 C175 700 167 693 165 683 L72 17 C70 7 77 0 87 0 L182 0 C192 0 199 7 201 17 L260 439 L265 439 L390 17 C393 8 398 0 408 0 L534 0 C544 0 551 7 553 17 L646 683 C648 693 642 700 632 700 L537 700 C527 700 519 693 517 683 L458 261 L453 261 L328 683 C326 692 321 700 311 700 L311 700 Z " />
<glyph glyph-name="uni0146" unicode="&#x146;" horiz-adv-x="512" d="M230 -201 C240 -201 248 -193 254 -184 L311 -70 C312 -60 306 -53 296 -53 L205 -53 C195 -53 187 -61 182 -70 L125 -184 C123 -194 129 -201 139 -201 L230 -201 Z M247 345 C273 392 302 402 324 402 L337 402 C358 402 376 383 373 361 L325 17 C323 7 330 0 340 0 L435 0 C445 0 452 7 454 17 L503 365 C510 453 490 520 398 520 L383 520 C361 520 308 519 272 463 L264 463 L268 497 C270 508 267 515 256 515 L160 515 C149 515 141 508 139 497 L72 17 C70 7 77 0 87 0 L182 0 C192 0 199 7 201 17 L247 345 Z " />
<glyph glyph-name="Ncaron" unicode="&#x147;" horiz-adv-x="621" d="M465 751 C474 751 481 758 486 767 L586 923 C587 932 581 939 572 939 L493 939 C484 939 477 932 472 923 L430 858 L406 923 C403 932 398 939 389 939 L310 939 C301 939 293 932 292 923 L348 767 C351 758 356 751 365 751 L465 751 Z M311 700 L185 700 C175 700 167 693 165 683 L72 17 C70 7 77 0 87 0 L182 0 C192 0 199 7 201 17 L260 439 L265 439 L390 17 C393 8 398 0 408 0 L534 0 C544 0 551 7 553 17 L646 683 C648 693 642 700 632 700 L537 700 C527 700 519 693 517 683 L458 261 L453 261 L328 683 C326 692 321 700 311 700 L311 700 Z " />
<glyph glyph-name="ncaron" unicode="&#x148;" horiz-adv-x="512" d="M395 571 C404 571 411 578 416 587 L516 743 C517 752 511 759 502 759 L423 759 C414 759 407 752 402 743 L360 678 L336 743 C333 752 328 759 319 759 L240 759 C231 759 223 752 222 743 L278 587 C281 578 286 571 295 571 L395 571 Z M247 345 C273 392 302 402 324 402 L337 402 C358 402 376 383 373 361 L325 17 C323 7 330 0 340 0 L435 0 C445 0 452 7 454 17 L503 365 C510 453 490 520 398 520 L383 520 C361 520 308 519 272 463 L264 463 L268 497 C270 508 267 515 256 515 L160 515 C149 515 141 508 139 497 L72 17 C70 7 77 0 87 0 L182 0 C192 0 199 7 201 17 L247 345 Z " />
<glyph glyph-name="Eng" unicode="&#x14a;" horiz-adv-x="621" d="M402 -24 C389 -38 363 -57 334 -67 C327 -69 322 -76 321 -82 C321 -84 321 -87 322 -89 L346 -177 C348 -184 353 -188 359 -188 C361 -188 364 -187 366 -186 C366 -186 531 -142 552 12 L646 683 C648 693 642 700 632 700 L537 700 C527 700 519 693 517 683 L458 261 L453 261 L328 683 C326 692 321 700 311 700 L185 700 C175 700 167 693 165 683 L72 17 C70 7 77 0 87 0 L182 0 C192 0 199 7 201 17 L260 439 L265 439 L402 -24 Z " />
<glyph glyph-name="eng" unicode="&#x14b;" horiz-adv-x="512" d="M267 -186 C267 -186 432 -142 453 12 L503 365 C510 453 490 520 398 520 L383 520 C361 520 308 519 272 463 L264 463 L268 497 C270 508 267 515 256 515 L160 515 C149 515 141 508 139 497 L72 17 C70 7 77 0 87 0 L182 0 C192 0 199 7 201 17 L247 345 C273 392 302 402 324 402 L337 402 C358 402 376 383 373 361 L325 17 C322 3 306 -44 235 -67 C228 -69 223 -76 222 -82 C222 -84 222 -87 223 -89 L247 -177 C249 -184 254 -188 260 -188 C262 -188 265 -187 267 -186 L267 -186 Z " />
<glyph glyph-name="Omacron" unicode="&#x14c;" horiz-adv-x="573" d="M539 751 C549 751 557 758 558 768 L570 851 C572 861 565 868 555 868 L262 868 C252 868 245 861 243 851 L231 768 C230 758 236 751 246 751 L539 751 Z M237 -5 L334 -5 C432 -5 522 71 536 166 L588 534 C601 629 532 705 434 705 L337 705 C239 705 148 629 135 534 L83 166 C69 71 139 -5 237 -5 L237 -5 Z M409 587 C439 587 462 560 458 527 L408 173 C403 140 372 113 342 113 L261 113 C231 113 208 140 213 173 L263 527 C267 560 298 587 328 587 L409 587 Z " />
<glyph glyph-name="omacron" unicode="&#x14d;" horiz-adv-x="486" d="M431 571 C441 571 449 578 450 588 L462 671 C463 681 457 688 447 688 L230 688 C220 688 212 681 211 671 L199 588 C198 578 204 571 214 571 L431 571 Z M241 113 C220 113 202 132 205 154 L234 361 C237 383 261 402 282 402 L316 402 C337 402 355 383 352 361 L323 154 C320 132 296 113 275 113 L241 113 Z M277 -5 C371 -5 436 73 451 149 L482 366 C488 442 445 520 351 520 L281 520 C187 520 122 442 106 366 L75 149 C70 73 113 -5 207 -5 L277 -5 Z " />
<glyph glyph-name="Ohungarumlaut" unicode="&#x150;" horiz-adv-x="573" d="M348 751 C358 751 366 759 371 768 L450 896 C452 906 446 913 436 913 L345 913 C335 913 327 905 321 896 L251 768 C250 758 256 751 266 751 L348 751 Z M522 751 C532 751 540 759 545 768 L624 896 C626 906 620 913 610 913 L519 913 C509 913 501 905 495 896 L425 768 C424 758 430 751 440 751 L522 751 Z M237 -5 L334 -5 C432 -5 522 71 536 166 L588 534 C601 629 532 705 434 705 L337 705 C239 705 148 629 135 534 L83 166 C69 71 139 -5 237 -5 L237 -5 Z M409 587 C439 587 462 560 458 527 L408 173 C403 140 372 113 342 113 L261 113 C231 113 208 140 213 173 L263 527 C267 560 298 587 328 587 L409 587 Z " />
<glyph glyph-name="ohungarumlaut" unicode="&#x151;" horiz-adv-x="487" d="M256 571 C266 571 274 579 279 588 L358 716 C360 726 354 733 344 733 L253 733 C243 733 234 725 229 716 L159 588 C158 578 164 571 174 571 L256 571 Z M430 571 C440 571 448 579 453 588 L532 716 C534 726 528 733 518 733 L427 733 C417 733 408 725 403 716 L333 588 C332 578 338 571 348 571 L430 571 Z M241 113 C220 113 202 132 205 154 L234 361 C237 383 261 402 282 402 L316 402 C337 402 355 383 352 361 L323 154 C320 132 296 113 275 113 L241 113 Z M277 -5 C371 -5 436 73 451 149 L482 366 C488 442 445 520 351 520 L281 520 C187 520 122 442 106 366 L75 149 C70 73 113 -5 207 -5 L277 -5 Z " />
<glyph glyph-name="OE" unicode="&#x152;" horiz-adv-x="823" d="M238 0 L746 0 C756 0 763 7 765 17 L777 100 C778 110 772 117 762 117 L529 117 L555 304 L765 304 C775 304 783 311 785 321 L796 405 C798 415 792 422 782 422 L572 422 L594 582 L827 582 C837 582 845 589 847 599 L858 683 C860 693 854 700 844 700 L336 700 C238 700 147 624 134 529 L84 171 C70 76 140 0 238 0 L238 0 Z M409 178 C404 145 373 118 343 118 L262 118 C232 118 209 145 214 178 L262 522 C267 555 297 582 327 582 L408 582 C438 582 462 555 457 522 L409 178 Z " />
<glyph glyph-name="oe" unicode="&#x153;" horiz-adv-x="728" d="M277 -5 C312 -5 343 6 369 23 C390 6 418 -5 454 -5 L514 -5 C514 -5 614 -5 673 72 C675 75 677 79 677 82 C678 87 676 92 672 95 L620 143 C617 145 613 146 610 146 C604 146 600 143 595 139 C582 128 562 113 530 113 L488 113 C468 113 451 130 452 150 L459 203 L689 203 C699 203 707 210 708 220 L729 366 C735 442 692 520 598 520 L528 520 C492 520 461 509 435 491 C414 509 386 520 351 520 L281 520 C187 520 122 442 106 366 L75 149 C70 73 113 -5 207 -5 L277 -5 Z M241 113 C220 113 202 132 205 154 L234 361 C237 383 261 402 282 402 L316 402 C337 402 355 383 352 361 L323 154 C320 132 296 113 275 113 L241 113 Z M481 361 C484 383 508 402 529 402 L563 402 C584 402 602 383 599 361 L592 307 L474 307 L481 361 Z " />
<glyph glyph-name="Racute" unicode="&#x154;" horiz-adv-x="567" d="M425 751 C435 751 443 759 448 768 L527 896 C529 906 523 913 513 913 L422 913 C412 913 404 905 398 896 L319 768 C318 758 324 751 334 751 L425 751 Z M185 700 C175 700 167 693 165 683 L72 17 C70 7 77 0 87 0 L182 0 C192 0 199 7 201 17 L227 205 L328 205 L388 17 C389 7 396 0 406 0 L510 0 C520 0 527 7 529 17 L458 229 C513 259 555 313 564 376 L586 529 C599 624 530 700 432 700 L185 700 Z M244 324 L280 582 L407 582 C437 582 461 555 456 522 L436 384 C432 351 401 324 371 324 L244 324 Z " />
<glyph glyph-name="racute" unicode="&#x155;" horiz-adv-x="381" d="M259 571 C269 571 277 579 282 588 L361 716 C363 726 357 733 347 733 L256 733 C246 733 237 725 232 716 L153 588 C152 578 158 571 168 571 L259 571 Z M392 396 C402 396 410 403 412 413 L430 495 C431 505 429 510 420 514 C407 517 389 520 373 520 C351 520 308 519 272 463 L264 463 L268 497 C270 508 267 515 256 515 L160 515 C149 515 141 508 139 497 L72 17 C70 7 77 0 87 0 L182 0 C192 0 199 7 201 17 L247 345 C284 401 326 402 348 402 C365 402 379 399 392 396 L392 396 Z " />
<glyph glyph-name="uni0156" unicode="&#x156;" horiz-adv-x="567" d="M275 -201 C285 -201 293 -193 299 -184 L356 -70 C357 -60 351 -53 341 -53 L250 -53 C240 -53 232 -61 227 -70 L170 -184 C168 -194 174 -201 184 -201 L275 -201 Z M185 700 C175 700 167 693 165 683 L72 17 C70 7 77 0 87 0 L182 0 C192 0 199 7 201 17 L227 205 L328 205 L388 17 C389 7 396 0 406 0 L510 0 C520 0 527 7 529 17 L458 229 C513 259 555 313 564 376 L586 529 C599 624 530 700 432 700 L185 700 Z M244 324 L280 582 L407 582 C437 582 461 555 456 522 L436 384 C432 351 401 324 371 324 L244 324 Z " />
<glyph glyph-name="uni0157" unicode="&#x157;" horiz-adv-x="381" d="M152 -201 C162 -201 170 -193 176 -184 L233 -70 C234 -60 228 -53 218 -53 L127 -53 C117 -53 109 -61 104 -70 L47 -184 C45 -194 51 -201 61 -201 L152 -201 Z M392 396 C402 396 410 403 412 413 L430 495 C431 505 429 510 420 514 C407 517 389 520 373 520 C351 520 308 519 272 463 L264 463 L268 497 C270 508 267 515 256 515 L160 515 C149 515 141 508 139 497 L72 17 C70 7 77 0 87 0 L182 0 C192 0 199 7 201 17 L247 345 C284 401 326 402 348 402 C365 402 379 399 392 396 L392 396 Z " />
<glyph glyph-name="Rcaron" unicode="&#x158;" horiz-adv-x="567" d="M400 751 C409 751 416 758 421 767 L521 923 C522 932 516 939 507 939 L428 939 C419 939 412 932 407 923 L365 858 L341 923 C338 932 333 939 324 939 L245 939 C236 939 228 932 227 923 L283 767 C286 758 291 751 300 751 L400 751 Z M185 700 C175 700 167 693 165 683 L72 17 C70 7 77 0 87 0 L182 0 C192 0 199 7 201 17 L227 205 L328 205 L388 17 C389 7 396 0 406 0 L510 0 C520 0 527 7 529 17 L458 229 C513 259 555 313 564 376 L586 529 C599 624 530 700 432 700 L185 700 Z M244 324 L280 582 L407 582 C437 582 461 555 456 522 L436 384 C432 351 401 324 371 324 L244 324 Z " />
<glyph glyph-name="rcaron" unicode="&#x159;" horiz-adv-x="381" d="M345 571 C354 571 361 578 366 587 L463 739 C465 748 459 755 450 755 L373 755 C364 755 357 748 351 739 L311 676 L287 739 C285 748 280 755 271 755 L194 755 C185 755 177 748 175 739 L230 587 C233 578 238 571 247 571 L345 571 Z M392 396 C402 396 410 403 412 413 L430 495 C431 505 429 510 420 514 C407 517 389 520 373 520 C351 520 308 519 272 463 L264 463 L268 497 C270 508 267 515 256 515 L160 515 C149 515 141 508 139 497 L72 17 C70 7 77 0 87 0 L182 0 C192 0 199 7 201 17 L247 345 C284 401 326 402 348 402 C365 402 379 399 392 396 L392 396 Z " />
<glyph glyph-name="Sacute" unicode="&#x15a;" horiz-adv-x="538" d="M332 751 C322 751 316 758 317 768 L396 896 C402 905 410 913 420 913 L511 913 C521 913 527 906 525 896 L446 768 C441 759 433 751 423 751 L332 751 Z M518 182 C560 480 216 335 239 500 L243 527 C247 560 278 587 308 587 L379 587 C409 587 432 560 428 527 L426 514 C424 504 430 497 440 497 L535 497 C545 497 553 504 555 514 L558 534 C571 629 502 705 404 705 L317 705 C219 705 128 629 115 534 L111 512 C70 214 414 359 391 194 L388 173 C383 140 352 113 322 113 L241 113 C211 113 188 140 193 173 L195 192 C197 202 191 209 181 209 L86 209 C76 209 68 202 66 192 L63 166 C49 71 119 -5 217 -5 L314 -5 C412 -5 502 71 516 166 L518 182 Z " />
<glyph glyph-name="sacute" unicode="&#x15b;" horiz-adv-x="461" d="M357 571 C367 571 375 579 380 588 L459 716 C461 726 455 733 445 733 L354 733 C344 733 335 725 330 716 L251 588 C250 578 256 571 266 571 L357 571 Z M96 369 C68 169 320 233 314 158 L311 141 C308 119 286 108 265 108 L231 108 C210 108 191 127 194 149 L195 154 C197 164 191 171 181 171 L86 171 C76 171 68 164 66 154 L65 149 C60 73 103 -5 197 -5 L267 -5 C361 -5 424 62 440 138 L442 151 C470 350 218 286 224 362 L226 374 C229 396 252 407 273 407 L300 407 C321 407 339 388 336 366 L335 361 C334 351 340 344 350 344 L445 344 C455 344 463 351 464 361 L465 366 C471 442 428 520 334 520 L271 520 C177 520 113 453 97 377 L96 369 Z " />
<glyph glyph-name="Scircumflex" unicode="&#x15c;" horiz-adv-x="538" d="M439 939 C448 939 453 932 456 923 L512 767 C511 758 503 751 494 751 L415 751 C406 751 401 758 398 767 L374 832 L332 767 C327 758 320 751 311 751 L232 751 C223 751 217 758 218 767 L318 923 C323 932 330 939 339 939 L439 939 Z M518 182 C560 480 216 335 239 500 L243 527 C247 560 278 587 308 587 L379 587 C409 587 432 560 428 527 L426 514 C424 504 430 497 440 497 L535 497 C545 497 553 504 555 514 L558 534 C571 629 502 705 404 705 L317 705 C219 705 128 629 115 534 L111 512 C70 214 414 359 391 194 L388 173 C383 140 352 113 322 113 L241 113 C211 113 188 140 193 173 L195 192 C197 202 191 209 181 209 L86 209 C76 209 68 202 66 192 L63 166 C49 71 119 -5 217 -5 L314 -5 C412 -5 502 71 516 166 L518 182 Z " />
<glyph glyph-name="scircumflex" unicode="&#x15d;" horiz-adv-x="461" d="M281 759 C272 759 265 752 260 743 L160 587 C159 578 165 571 174 571 L253 571 C262 571 269 578 274 587 L316 652 L340 587 C343 578 348 571 357 571 L436 571 C445 571 453 578 454 587 L398 743 C395 752 390 759 381 759 L281 759 Z M96 369 C68 169 320 233 314 158 L311 141 C308 119 286 108 265 108 L231 108 C210 108 191 127 194 149 L195 154 C197 164 191 171 181 171 L86 171 C76 171 68 164 66 154 L65 149 C60 73 103 -5 197 -5 L267 -5 C361 -5 424 62 440 138 L442 151 C470 350 218 286 224 362 L226 374 C229 396 252 407 273 407 L300 407 C321 407 339 388 336 366 L335 361 C334 351 340 344 350 344 L445 344 C455 344 463 351 464 361 L465 366 C471 442 428 520 334 520 L271 520 C177 520 113 453 97 377 L96 369 Z " />
<glyph glyph-name="Scedilla" unicode="&#x15e;" horiz-adv-x="538" d="M239 500 L243 527 C247 560 278 587 308 587 L379 587 C409 587 432 560 428 527 L426 514 C424 504 430 497 440 497 L535 497 C545 497 553 504 555 514 L558 534 C571 629 502 705 404 705 L317 705 C219 705 128 629 115 534 L111 512 C70 214 414 359 391 194 L388 173 C383 140 352 113 322 113 L241 113 C211 113 188 140 193 173 L195 192 C197 202 191 209 181 209 L86 209 C76 209 68 202 66 192 L63 166 C49 71 119 -5 217 -5 L234 -5 L205 -44 C203 -47 201 -51 201 -54 L196 -90 C195 -97 199 -102 206 -102 L259 -102 C259 -102 273 -102 271 -117 C269 -131 255 -131 255 -131 L190 -131 C183 -131 177 -136 176 -143 L171 -183 C170 -190 174 -195 181 -195 L263 -195 C317 -195 336 -171 346 -100 C352 -59 320 -38 285 -38 L309 -5 L314 -5 C412 -5 502 71 516 166 L518 182 C560 480 216 335 239 500 L239 500 Z " />
<glyph glyph-name="scedilla" unicode="&#x15f;" horiz-adv-x="461" d="M166 -44 C164 -47 162 -51 162 -54 L157 -90 C156 -97 160 -102 167 -102 L220 -102 C220 -102 234 -102 232 -117 C230 -131 216 -131 216 -131 L151 -131 C144 -131 138 -136 137 -143 L132 -183 C131 -190 135 -195 142 -195 L224 -195 C278 -195 297 -171 307 -100 C313 -59 281 -38 246 -38 L270 -5 C362 -3 424 63 440 138 L442 151 C470 350 218 286 224 362 L226 374 C229 396 252 407 273 407 L300 407 C321 407 339 388 336 366 L335 361 C334 351 340 344 350 344 L445 344 C455 344 463 351 464 361 L465 366 C471 442 428 520 334 520 L271 520 C177 520 113 453 97 377 L96 369 C68 169 320 233 314 158 L311 141 C308 119 286 108 265 108 L231 108 C210 108 191 127 194 149 L195 154 C197 164 191 171 181 171 L86 171 C76 171 68 164 66 154 L65 149 C60 73 102 -4 195 -5 L166 -44 Z " />
<glyph glyph-name="Scaron" unicode="&#x160;" horiz-adv-x="538" d="M317 751 C308 751 303 758 300 767 L244 923 C245 932 253 939 262 939 L341 939 C350 939 355 932 358 923 L382 858 L424 923 C429 932 436 939 445 939 L524 939 C533 939 539 932 538 923 L438 767 C433 758 426 751 417 751 L317 751 Z M518 182 C560 480 216 335 239 500 L243 527 C247 560 278 587 308 587 L379 587 C409 587 432 560 428 527 L426 514 C424 504 430 497 440 497 L535 497 C545 497 553 504 555 514 L558 534 C571 629 502 705 404 705 L317 705 C219 705 128 629 115 534 L111 512 C70 214 414 359 391 194 L388 173 C383 140 352 113 322 113 L241 113 C211 113 188 140 193 173 L195 192 C197 202 191 209 181 209 L86 209 C76 209 68 202 66 192 L63 166 C49 71 119 -5 217 -5 L314 -5 C412 -5 502 71 516 166 L518 182 Z " />
<glyph glyph-name="scaron" unicode="&#x161;" horiz-adv-x="461" d="M359 571 C368 571 375 578 380 587 L480 743 C481 752 475 759 466 759 L387 759 C378 759 371 752 366 743 L324 678 L300 743 C297 752 292 759 283 759 L204 759 C195 759 187 752 186 743 L242 587 C245 578 250 571 259 571 L359 571 Z M96 369 C68 169 320 233 314 158 L311 141 C308 119 286 108 265 108 L231 108 C210 108 191 127 194 149 L195 154 C197 164 191 171 181 171 L86 171 C76 171 68 164 66 154 L65 149 C60 73 103 -5 197 -5 L267 -5 C361 -5 424 62 440 138 L442 151 C470 350 218 286 224 362 L226 374 C229 396 252 407 273 407 L300 407 C321 407 339 388 336 366 L335 361 C334 351 340 344 350 344 L445 344 C455 344 463 351 464 361 L465 366 C471 442 428 520 334 520 L271 520 C177 520 113 453 97 377 L96 369 Z " />
<glyph glyph-name="uni0162" unicode="&#x162;" horiz-adv-x="509" d="M119 600 C117 590 123 583 133 583 L271 583 L192 17 C190 7 197 0 207 0 L302 0 C308 0 315 -3 313 -15 C311 -29 297 -29 297 -29 L232 -29 C225 -29 220 -34 219 -41 L213 -81 C212 -88 216 -93 223 -93 L305 -93 C359 -93 379 -69 389 2 C395 43 362 64 327 64 L400 583 L538 583 C548 583 556 590 558 600 L569 683 C571 693 565 700 555 700 L150 700 C140 700 132 693 130 683 L119 600 Z " />
<glyph glyph-name="uni0163" unicode="&#x163;" horiz-adv-x="369" d="M170 -37 C168 -40 166 -44 166 -47 L161 -83 C160 -90 164 -95 171 -95 L224 -95 C224 -95 238 -95 236 -110 C234 -124 220 -124 220 -124 L155 -124 C148 -124 142 -129 141 -136 L136 -176 C135 -183 139 -188 146 -188 L228 -188 C282 -188 301 -164 311 -93 C317 -52 285 -31 250 -31 L273 0 L322 0 C332 0 339 7 341 17 L353 100 C354 110 348 117 338 117 L294 117 C273 117 255 136 258 158 L291 397 L377 397 C387 397 395 404 397 414 L408 498 C410 508 404 515 394 515 L308 515 L331 683 C333 693 327 700 317 700 L222 700 C212 700 204 693 202 683 L179 515 L114 515 C104 515 96 508 94 498 L83 414 C81 404 87 397 97 397 L162 397 L128 154 C124 94 148 33 205 10 L170 -37 Z " />
<glyph glyph-name="Tcaron" unicode="&#x164;" horiz-adv-x="509" d="M409 751 C418 751 425 758 430 767 L530 923 C531 932 525 939 516 939 L437 939 C428 939 421 932 416 923 L374 858 L350 923 C347 932 342 939 333 939 L254 939 C245 939 237 932 236 923 L292 767 C295 758 300 751 309 751 L409 751 Z M119 600 C117 590 123 583 133 583 L271 583 L192 17 C190 7 197 0 207 0 L302 0 C312 0 319 7 321 17 L400 583 L538 583 C548 583 556 590 558 600 L569 683 C571 693 565 700 555 700 L150 700 C140 700 132 693 130 683 L119 600 Z " />
<glyph glyph-name="tcaron" unicode="&#x165;" horiz-adv-x="524" d="M517 569 C527 569 536 577 541 586 L599 683 C601 693 595 700 585 700 L494 700 C484 700 476 692 470 683 L412 586 C410 576 416 569 426 569 L517 569 Z M83 414 C81 404 87 397 97 397 L162 397 L128 154 C122 78 166 0 260 0 L322 0 C332 0 339 7 341 17 L353 100 C354 110 348 117 338 117 L294 117 C273 117 255 136 258 158 L291 397 L377 397 C387 397 395 404 397 414 L408 498 C410 508 404 515 394 515 L308 515 L331 683 C333 693 327 700 317 700 L222 700 C212 700 204 693 202 683 L179 515 L114 515 C104 515 96 508 94 498 L83 414 Z " />
<glyph glyph-name="Tbar" unicode="&#x166;" horiz-adv-x="510" d="M442 272 C452 272 460 279 461 289 L473 372 C474 382 468 389 458 389 L373 389 L400 583 L539 583 C549 583 557 590 559 600 L570 683 C572 693 566 700 556 700 L150 700 C140 700 132 693 130 683 L119 600 C117 590 123 583 133 583 L271 583 L244 389 L159 389 C149 389 141 382 140 372 L128 289 C127 279 133 272 143 272 L228 272 L192 17 C190 7 197 0 207 0 L302 0 C312 0 319 7 321 17 L357 272 L442 272 Z " />
<glyph glyph-name="tbar" unicode="&#x167;" horiz-adv-x="370" d="M89 339 C79 339 71 332 70 322 L58 238 C57 228 63 221 73 221 L138 221 L128 154 C122 78 166 0 260 0 L323 0 C333 0 340 7 342 17 L354 100 C355 110 349 117 339 117 L294 117 C273 117 255 136 258 158 L267 221 L354 221 C364 221 372 228 373 238 L385 322 C386 332 380 339 370 339 L283 339 L291 397 L378 397 C388 397 396 404 398 414 L409 498 C411 508 405 515 395 515 L308 515 L331 683 C333 693 327 700 317 700 L222 700 C212 700 204 693 202 683 L179 515 L114 515 C104 515 96 508 94 498 L83 414 C81 404 87 397 97 397 L162 397 L154 339 L89 339 Z " />
<glyph glyph-name="Utilde" unicode="&#x168;" horiz-adv-x="583" d="M289 683 C291 693 285 700 275 700 L180 700 C170 700 162 693 160 683 L88 166 C74 71 144 -5 242 -5 L339 -5 C437 -5 527 71 541 166 L613 683 C615 693 609 700 599 700 L504 700 C494 700 486 693 484 683 L413 173 C408 140 377 113 347 113 L266 113 C236 113 213 140 218 173 L289 683 Z M453 751 C480 751 506 764 534 780 C541 785 547 792 548 800 C548 801 548 803 539 869 C537 875 532 881 522 881 C520 881 517 881 515 880 C502 874 479 868 469 868 C428 868 406 907 365 907 C339 907 310 894 283 878 C275 873 269 866 268 858 L279 789 C281 783 287 778 296 778 C298 778 302 778 304 779 C316 784 340 790 349 790 C391 790 412 751 453 751 L453 751 Z " />
<glyph glyph-name="utilde" unicode="&#x169;" horiz-adv-x="496" d="M505 498 C507 508 501 515 491 515 L396 515 C386 515 378 508 376 498 L328 154 C325 132 301 113 280 113 L246 113 C225 113 207 132 210 154 L258 498 C260 508 254 515 244 515 L149 515 C139 515 131 508 129 498 L80 149 C75 73 118 -5 212 -5 L282 -5 C376 -5 441 73 456 149 L505 498 Z M386 571 C413 571 439 584 467 600 C474 605 480 612 481 620 C481 621 481 623 471 689 C470 695 465 701 455 701 C453 701 450 701 448 700 C435 694 412 688 402 688 C361 688 339 727 298 727 C272 727 243 714 216 698 C208 693 202 686 201 678 L212 609 C213 603 220 598 229 598 C231 598 235 598 237 599 C248 604 272 610 281 610 C323 610 345 571 386 571 L386 571 Z " />
<glyph glyph-name="Umacron" unicode="&#x16a;" horiz-adv-x="583" d="M544 751 C554 751 562 758 563 768 L575 851 C577 861 570 868 560 868 L267 868 C257 868 250 861 248 851 L236 768 C235 758 241 751 251 751 L544 751 Z M289 683 C291 693 285 700 275 700 L180 700 C170 700 162 693 160 683 L88 166 C74 71 144 -5 242 -5 L339 -5 C437 -5 527 71 541 166 L613 683 C615 693 609 700 599 700 L504 700 C494 700 486 693 484 683 L413 173 C408 140 377 113 347 113 L266 113 C236 113 213 140 218 173 L289 683 Z " />
<glyph glyph-name="umacron" unicode="&#x16b;" horiz-adv-x="496" d="M437 571 C447 571 455 578 456 588 L468 671 C469 681 463 688 453 688 L235 688 C225 688 217 681 216 671 L204 588 C203 578 209 571 219 571 L437 571 Z M505 498 C507 508 501 515 491 515 L396 515 C386 515 378 508 376 498 L328 154 C325 132 301 113 280 113 L246 113 C225 113 207 132 210 154 L258 498 C260 508 254 515 244 515 L149 515 C139 515 131 508 129 498 L80 149 C75 73 118 -5 212 -5 L282 -5 C376 -5 441 73 456 149 L505 498 Z " />
<glyph glyph-name="Ubreve" unicode="&#x16c;" horiz-adv-x="583" d="M396 751 C494 751 566 795 594 901 C596 911 590 918 580 918 L510 918 C500 918 491 911 485 901 C470 858 438 853 410 853 C382 853 352 858 349 901 C347 911 340 918 330 918 L260 918 C250 918 242 911 240 901 C238 795 298 751 396 751 L396 751 Z M289 683 C291 693 285 700 275 700 L180 700 C170 700 162 693 160 683 L88 166 C74 71 144 -5 242 -5 L339 -5 C437 -5 527 71 541 166 L613 683 C615 693 609 700 599 700 L504 700 C494 700 486 693 484 683 L413 173 C408 140 377 113 347 113 L266 113 C236 113 213 140 218 173 L289 683 Z " />
<glyph glyph-name="ubreve" unicode="&#x16d;" horiz-adv-x="496" d="M505 498 C507 508 501 515 491 515 L396 515 C386 515 378 508 376 498 L328 154 C325 132 301 113 280 113 L246 113 C225 113 207 132 210 154 L258 498 C260 508 254 515 244 515 L149 515 C139 515 131 508 129 498 L80 149 C75 73 118 -5 212 -5 L282 -5 C376 -5 441 73 456 149 L505 498 Z M328 571 C426 571 482 615 510 721 C511 731 505 738 495 738 L425 738 C415 738 406 731 401 721 C386 678 370 673 342 673 C314 673 300 678 297 721 C294 731 287 738 277 738 L207 738 C197 738 189 731 188 721 C186 615 230 571 328 571 L328 571 Z " />
<glyph glyph-name="Uring" unicode="&#x16e;" horiz-adv-x="583" d="M428 990 C354 990 284 930 274 854 C263 780 316 719 390 719 C466 719 535 780 546 854 C556 930 504 990 428 990 L428 990 Z M402 809 C377 809 360 831 364 854 C367 880 390 900 415 900 C439 900 458 880 455 854 C451 831 426 809 402 809 L402 809 Z M289 683 C291 693 285 700 275 700 L180 700 C170 700 162 693 160 683 L88 166 C74 71 144 -5 242 -5 L339 -5 C437 -5 527 71 541 166 L613 683 C615 693 609 700 599 700 L504 700 C494 700 486 693 484 683 L413 173 C408 140 377 113 347 113 L266 113 C236 113 213 140 218 173 L289 683 Z " />
<glyph glyph-name="uring" unicode="&#x16f;" horiz-adv-x="496" d="M366 842 C292 842 222 782 212 706 C201 632 254 571 328 571 C404 571 473 632 484 706 C494 782 442 842 366 842 L366 842 Z M340 661 C315 661 298 683 302 706 C305 732 328 752 353 752 C377 752 396 732 393 706 C389 683 364 661 340 661 L340 661 Z M505 498 C507 508 501 515 491 515 L396 515 C386 515 378 508 376 498 L328 154 C325 132 301 113 280 113 L246 113 C225 113 207 132 210 154 L258 498 C260 508 254 515 244 515 L149 515 C139 515 131 508 129 498 L80 149 C75 73 118 -5 212 -5 L282 -5 C376 -5 441 73 456 149 L505 498 Z " />
<glyph glyph-name="Uhungarumlaut" unicode="&#x170;" horiz-adv-x="583" d="M353 751 C363 751 371 759 376 768 L455 896 C457 906 451 913 441 913 L350 913 C340 913 332 905 326 896 L256 768 C255 758 261 751 271 751 L353 751 Z M527 751 C537 751 545 759 550 768 L629 896 C631 906 625 913 615 913 L524 913 C514 913 506 905 500 896 L430 768 C429 758 435 751 445 751 L527 751 Z M289 683 C291 693 285 700 275 700 L180 700 C170 700 162 693 160 683 L88 166 C74 71 144 -5 242 -5 L339 -5 C437 -5 527 71 541 166 L613 683 C615 693 609 700 599 700 L504 700 C494 700 486 693 484 683 L413 173 C408 140 377 113 347 113 L266 113 C236 113 213 140 218 173 L289 683 Z " />
<glyph glyph-name="uhungarumlaut" unicode="&#x171;" horiz-adv-x="513" d="M277 571 C287 571 295 579 300 588 L379 716 C381 726 375 733 365 733 L274 733 C264 733 255 725 250 716 L180 588 C179 578 185 571 195 571 L277 571 Z M451 571 C461 571 469 579 474 588 L553 716 C555 726 549 733 539 733 L448 733 C438 733 429 725 424 716 L354 588 C353 578 359 571 369 571 L451 571 Z M505 498 C507 508 501 515 491 515 L396 515 C386 515 378 508 376 498 L328 154 C325 132 301 113 280 113 L246 113 C225 113 207 132 210 154 L258 498 C260 508 254 515 244 515 L149 515 C139 515 131 508 129 498 L80 149 C75 73 118 -5 212 -5 L282 -5 C376 -5 441 73 456 149 L505 498 Z " />
<glyph glyph-name="Uogonek" unicode="&#x172;" horiz-adv-x="583" d="M227 -44 C225 -47 223 -51 223 -54 L218 -90 C217 -97 221 -102 228 -102 L281 -102 C281 -102 295 -102 293 -117 C291 -131 277 -131 277 -131 L212 -131 C205 -131 199 -136 198 -143 L193 -183 C192 -190 196 -195 203 -195 L285 -195 C339 -195 358 -171 368 -100 C374 -59 342 -38 307 -38 L331 -5 L339 -5 C437 -5 527 71 541 166 L613 683 C615 693 609 700 599 700 L504 700 C494 700 486 693 484 683 L413 173 C408 140 377 113 347 113 L266 113 C236 113 213 140 218 173 L289 683 C291 693 285 700 275 700 L180 700 C170 700 162 693 160 683 L88 166 C74 71 144 -5 242 -5 L256 -5 L227 -44 Z " />
<glyph glyph-name="uogonek" unicode="&#x173;" horiz-adv-x="496" d="M505 498 C507 508 501 515 491 515 L396 515 C386 515 378 508 376 498 L328 154 C325 132 301 113 280 113 L246 113 C225 113 207 132 210 154 L258 498 C260 508 254 515 244 515 L149 515 C139 515 131 508 129 498 L80 149 C75 73 117 -4 210 -5 L205 -38 C170 -38 122 -59 114 -114 C107 -166 119 -195 173 -195 L255 -195 C262 -195 268 -190 269 -183 L274 -143 C275 -136 271 -131 264 -131 L199 -131 C199 -131 185 -131 187 -117 C189 -102 203 -102 203 -102 L256 -102 C263 -102 269 -97 270 -90 L282 -5 C376 -5 441 73 456 149 L505 498 Z " />
<glyph glyph-name="Ydieresis" unicode="&#x178;" horiz-adv-x="569" d="M351 751 C360 751 368 758 369 767 L383 861 C384 870 378 877 369 877 L276 877 C266 877 259 870 258 861 L244 767 C243 758 248 751 258 751 L351 751 Z M521 751 C530 751 538 758 539 767 L553 861 C554 870 548 877 539 877 L446 877 C436 877 429 870 428 861 L414 767 C413 758 418 751 428 751 L521 751 Z M344 379 L331 379 L244 683 C242 692 237 700 227 700 L135 700 C125 700 117 693 115 683 L251 224 L222 17 C220 7 227 0 237 0 L332 0 C342 0 349 7 351 17 L380 224 L644 683 C646 693 640 700 630 700 L538 700 C528 700 521 692 515 683 L344 379 Z " />
<glyph glyph-name="Zacute" unicode="&#x179;" horiz-adv-x="508" d="M412 751 C422 751 430 759 435 768 L514 896 C516 906 510 913 500 913 L409 913 C399 913 391 905 385 896 L306 768 C305 758 311 751 321 751 L412 751 Z M546 620 C548 624 551 628 551 633 L558 683 C560 693 554 700 544 700 L160 700 C150 700 142 693 140 683 L129 600 C127 590 133 583 143 583 L389 583 L60 80 C57 76 55 72 54 67 L47 17 C45 7 52 0 62 0 L446 0 C456 0 463 7 465 17 L477 100 C478 110 472 117 462 117 L218 117 L546 620 Z " />
<glyph glyph-name="zacute" unicode="&#x17a;" horiz-adv-x="428" d="M350 571 C360 571 368 579 373 588 L452 716 C454 726 448 733 438 733 L347 733 C337 733 328 725 323 716 L244 588 C243 578 249 571 259 571 L350 571 Z M214 117 L445 436 C447 440 450 443 450 448 L457 498 C459 508 453 515 443 515 L129 515 C119 515 111 508 109 498 L98 415 C96 405 102 398 112 398 L285 398 L55 79 C52 75 50 72 49 67 L42 17 C40 7 47 0 57 0 L371 0 C381 0 388 7 390 17 L402 100 C403 110 397 117 387 117 L214 117 Z " />
<glyph glyph-name="Zdotaccent" unicode="&#x17b;" horiz-adv-x="508" d="M406 751 C415 751 423 758 424 767 L438 861 C439 870 433 877 424 877 L331 877 C321 877 314 870 313 861 L299 767 C298 758 303 751 313 751 L406 751 Z M546 620 C548 624 551 628 551 633 L558 683 C560 693 554 700 544 700 L160 700 C150 700 142 693 140 683 L129 600 C127 590 133 583 143 583 L389 583 L60 80 C57 76 55 72 54 67 L47 17 C45 7 52 0 62 0 L446 0 C456 0 463 7 465 17 L477 100 C478 110 472 117 462 117 L218 117 L546 620 Z " />
<glyph glyph-name="zdotaccent" unicode="&#x17c;" horiz-adv-x="428" d="M341 571 C350 571 358 578 359 587 L372 681 C373 690 367 697 358 697 L265 697 C255 697 248 690 247 681 L234 587 C233 578 238 571 248 571 L341 571 Z M214 117 L445 436 C447 440 450 443 450 448 L457 498 C459 508 453 515 443 515 L129 515 C119 515 111 508 109 498 L98 415 C96 405 102 398 112 398 L285 398 L55 79 C52 75 50 72 49 67 L42 17 C40 7 47 0 57 0 L371 0 C381 0 388 7 390 17 L402 100 C403 110 397 117 387 117 L214 117 Z " />
<glyph glyph-name="Zcaron" unicode="&#x17d;" horiz-adv-x="508" d="M409 751 C418 751 425 758 430 767 L530 923 C531 932 525 939 516 939 L437 939 C428 939 421 932 416 923 L374 858 L350 923 C347 932 342 939 333 939 L254 939 C245 939 237 932 236 923 L292 767 C295 758 300 751 309 751 L409 751 Z M546 620 C548 624 551 628 551 633 L558 683 C560 693 554 700 544 700 L160 700 C150 700 142 693 140 683 L129 600 C127 590 133 583 143 583 L389 583 L60 80 C57 76 55 72 54 67 L47 17 C45 7 52 0 62 0 L446 0 C456 0 463 7 465 17 L477 100 C478 110 472 117 462 117 L218 117 L546 620 Z " />
<glyph glyph-name="zcaron" unicode="&#x17e;" horiz-adv-x="428" d="M344 571 C353 571 360 578 365 587 L465 743 C466 752 460 759 451 759 L372 759 C363 759 356 752 351 743 L309 678 L285 743 C282 752 277 759 268 759 L189 759 C180 759 172 752 171 743 L227 587 C230 578 235 571 244 571 L344 571 Z M214 117 L445 436 C447 440 450 443 450 448 L457 498 C459 508 453 515 443 515 L129 515 C119 515 111 508 109 498 L98 415 C96 405 102 398 112 398 L285 398 L55 79 C52 75 50 72 49 67 L42 17 C40 7 47 0 57 0 L371 0 C381 0 388 7 390 17 L402 100 C403 110 397 117 387 117 L214 117 Z " />
<glyph glyph-name="florin" unicode="&#x192;" horiz-adv-x="365" d="M86 379 C84 369 90 362 100 362 L149 362 L-57 -157 C-58 -167 -52 -174 -42 -174 L52 -174 C62 -174 70 -167 71 -157 L278 362 L364 362 C374 362 382 369 384 379 L396 463 C397 473 391 480 381 480 L327 480 L350 542 C358 563 376 583 397 583 L432 583 C442 583 450 590 452 600 L463 683 C465 693 459 700 449 700 L396 700 C302 700 248 621 221 546 L198 480 L117 480 C107 480 99 473 98 463 L86 379 Z " />
<glyph glyph-name="uni0218" unicode="&#x218;" horiz-adv-x="538" d="M240 -201 C250 -201 258 -193 264 -184 L321 -70 C322 -60 316 -53 306 -53 L215 -53 C205 -53 197 -61 192 -70 L135 -184 C133 -194 139 -201 149 -201 L240 -201 Z M518 182 C560 480 216 335 239 500 L243 527 C247 560 278 587 308 587 L379 587 C409 587 432 560 428 527 L426 514 C424 504 430 497 440 497 L535 497 C545 497 553 504 555 514 L558 534 C571 629 502 705 404 705 L317 705 C219 705 128 629 115 534 L111 512 C70 214 414 359 391 194 L388 173 C383 140 352 113 322 113 L241 113 C211 113 188 140 193 173 L195 192 C197 202 191 209 181 209 L86 209 C76 209 68 202 66 192 L63 166 C49 71 119 -5 217 -5 L314 -5 C412 -5 502 71 516 166 L518 182 Z " />
<glyph glyph-name="uni0219" unicode="&#x219;" horiz-adv-x="461" d="M201 -201 C211 -201 219 -193 225 -184 L282 -70 C283 -60 277 -53 267 -53 L176 -53 C166 -53 158 -61 153 -70 L96 -184 C94 -194 100 -201 110 -201 L201 -201 Z M96 369 C68 169 320 233 314 158 L311 141 C308 119 286 108 265 108 L231 108 C210 108 191 127 194 149 L195 154 C197 164 191 171 181 171 L86 171 C76 171 68 164 66 154 L65 149 C60 73 103 -5 197 -5 L267 -5 C361 -5 424 62 440 138 L442 151 C470 350 218 286 224 362 L226 374 C229 396 252 407 273 407 L300 407 C321 407 339 388 336 366 L335 361 C334 351 340 344 350 344 L445 344 C455 344 463 351 464 361 L465 366 C471 442 428 520 334 520 L271 520 C177 520 113 453 97 377 L96 369 Z " />
<glyph glyph-name="uni021A" unicode="&#x21a;" horiz-adv-x="509" d="M224 -201 C234 -201 242 -193 248 -184 L305 -70 C306 -60 300 -53 290 -53 L199 -53 C189 -53 181 -61 176 -70 L119 -184 C117 -194 123 -201 133 -201 L224 -201 Z M119 600 C117 590 123 583 133 583 L271 583 L192 17 C190 7 197 0 207 0 L302 0 C312 0 319 7 321 17 L400 583 L538 583 C548 583 556 590 558 600 L569 683 C571 693 565 700 555 700 L150 700 C140 700 132 693 130 683 L119 600 Z " />
<glyph glyph-name="uni021B" unicode="&#x21b;" horiz-adv-x="369" d="M224 -201 C234 -201 242 -193 248 -184 L305 -70 C306 -60 300 -53 290 -53 L199 -53 C189 -53 181 -61 176 -70 L119 -184 C117 -194 123 -201 133 -201 L224 -201 Z M83 414 C81 404 87 397 97 397 L162 397 L128 154 C122 78 166 0 260 0 L322 0 C332 0 339 7 341 17 L353 100 C354 110 348 117 338 117 L294 117 C273 117 255 136 258 158 L291 397 L377 397 C387 397 395 404 397 414 L408 498 C410 508 404 515 394 515 L308 515 L331 683 C333 693 327 700 317 700 L222 700 C212 700 204 693 202 683 L179 515 L114 515 C104 515 96 508 94 498 L83 414 Z " />
<glyph glyph-name="circumflex" unicode="&#x2c6;" horiz-adv-x="434" d="M265 700 C256 700 249 693 244 684 L144 528 C142 519 148 512 157 512 L236 512 C245 512 252 519 258 528 L300 593 L324 528 C326 519 331 512 340 512 L419 512 C428 512 436 519 438 528 L382 684 C379 693 374 700 365 700 L265 700 Z " />
<glyph glyph-name="caron" unicode="&#x2c7;" horiz-adv-x="434" d="M338 512 C347 512 354 519 360 528 L460 684 C461 693 455 700 446 700 L367 700 C358 700 351 693 346 684 L303 619 L280 684 C277 693 272 700 263 700 L184 700 C175 700 167 693 166 684 L222 528 C224 519 229 512 238 512 L338 512 Z " />
<glyph glyph-name="breve" unicode="&#x2d8;" horiz-adv-x="462" d="M305 533 C403 533 460 577 487 683 C489 693 483 700 473 700 L403 700 C393 700 384 693 378 683 C363 640 348 635 320 635 C292 635 277 640 274 683 C272 693 265 700 255 700 L185 700 C175 700 167 693 165 683 C164 577 207 533 305 533 L305 533 Z " />
<glyph glyph-name="dotaccent" unicode="&#x2d9;" horiz-adv-x="265" d="M259 574 C268 574 276 581 277 590 L291 684 C292 693 286 700 277 700 L184 700 C174 700 167 693 166 684 L152 590 C151 581 156 574 166 574 L259 574 Z " />
<glyph glyph-name="ring" unicode="&#x2da;" horiz-adv-x="412" d="M310 751 C236 751 167 691 156 615 C146 541 198 480 272 480 C348 480 418 541 428 615 C439 691 386 751 310 751 L310 751 Z M285 570 C260 570 243 592 246 615 C250 641 272 661 297 661 C321 661 341 641 337 615 C334 592 309 570 285 570 L285 570 Z " />
<glyph glyph-name="ogonek" unicode="&#x2db;" horiz-adv-x="304" d="M222 0 C219 5 214 10 207 10 L168 10 C158 10 150 3 149 -7 L144 -38 C109 -38 61 -59 53 -114 C46 -166 58 -195 112 -195 L194 -195 C201 -195 207 -190 208 -183 L213 -143 C214 -136 210 -131 203 -131 L138 -131 C138 -131 124 -131 126 -117 C128 -102 142 -102 142 -102 L195 -102 C202 -102 208 -97 209 -90 L222 0 Z " />
<glyph glyph-name="tilde" unicode="&#x2dc;" horiz-adv-x="428" d="M346 544 C373 544 399 557 427 573 C434 578 440 585 441 593 C441 594 441 596 432 662 C430 668 425 674 415 674 C413 674 410 674 408 673 C395 667 372 661 362 661 C321 661 299 700 258 700 C232 700 203 687 176 671 C168 666 162 659 161 651 L172 582 C173 576 180 571 189 571 C191 571 195 571 197 572 C209 577 232 583 241 583 C283 583 305 544 346 544 L346 544 Z " />
<glyph glyph-name="hungarumlaut" unicode="&#x2dd;" horiz-adv-x="495" d="M244 538 C254 538 262 546 268 555 L346 683 C348 693 342 700 332 700 L241 700 C231 700 223 692 217 683 L148 555 C146 545 152 538 162 538 L244 538 Z M418 538 C428 538 436 546 442 555 L520 683 C522 693 516 700 506 700 L415 700 C405 700 397 692 391 683 L322 555 C320 545 326 538 336 538 L418 538 Z " />
<glyph glyph-name="uni03A9" unicode="&#x3a9;" horiz-adv-x="713" d="M406 700 C308 700 217 624 204 529 L157 196 C155 179 152 129 170 118 L103 118 C93 118 85 111 84 101 L72 17 C70 7 77 0 87 0 L281 0 C291 0 298 7 300 17 L313 110 C314 117 312 123 307 125 C285 136 284 179 286 198 L332 522 C337 555 367 582 397 582 L478 582 C508 582 532 555 527 522 L481 198 C479 179 466 136 440 125 C435 123 431 117 430 110 L417 17 C415 7 422 0 432 0 L626 0 C636 0 643 7 645 17 L657 101 C658 111 652 118 642 118 L575 118 C597 129 608 179 610 196 L657 529 C670 624 601 700 503 700 L406 700 Z " />
<glyph glyph-name="pi" unicode="&#x3c0;" horiz-adv-x="755" d="M754 498 C756 508 750 515 740 515 L159 515 C149 515 141 508 139 498 L128 415 C126 405 132 398 142 398 L246 398 L193 17 C191 7 198 0 208 0 L303 0 C313 0 320 7 322 17 L375 398 L490 398 L437 17 C435 7 442 0 452 0 L547 0 C557 0 564 7 566 17 L619 398 L723 398 C733 398 741 405 743 415 L754 498 Z " />
<glyph glyph-name="ZWSP" unicode="&#x200b;" d="" />
<glyph glyph-name="endash" unicode="&#x2013;" horiz-adv-x="392" d="M331 187 C341 187 349 194 350 204 L362 287 C363 297 357 304 347 304 L129 304 C119 304 111 297 110 287 L98 204 C97 194 103 187 113 187 L331 187 Z " />
<glyph glyph-name="emdash" unicode="&#x2014;" horiz-adv-x="461" d="M400 187 C410 187 418 194 419 204 L431 287 C432 297 426 304 416 304 L129 304 C119 304 111 297 110 287 L98 204 C97 194 103 187 113 187 L400 187 Z " />
<glyph glyph-name="quoteleft" unicode="&#x2018;" horiz-adv-x="315" d="M235 700 C225 700 217 692 211 683 L146 544 C145 534 151 527 161 527 L252 527 C262 527 270 535 275 544 L340 683 C342 693 336 700 326 700 L235 700 Z " />
<glyph glyph-name="quoteright" unicode="&#x2019;" horiz-adv-x="315" d="M252 527 C262 527 270 535 275 544 L340 683 C342 693 336 700 326 700 L235 700 C225 700 217 692 211 683 L146 544 C145 534 151 527 161 527 L252 527 Z " />
<glyph glyph-name="quotesinglbase" unicode="&#x201a;" horiz-adv-x="315" d="M167 -75 C177 -75 185 -67 190 -58 L256 81 C257 91 251 98 241 98 L150 98 C140 98 132 90 127 81 L61 -58 C60 -68 66 -75 76 -75 L167 -75 Z " />
<glyph glyph-name="quotedblleft" unicode="&#x201c;" horiz-adv-x="503" d="M235 700 C225 700 217 692 211 683 L146 544 C145 534 151 527 161 527 L252 527 C262 527 270 535 275 544 L340 683 C342 693 336 700 326 700 L235 700 Z M423 700 C413 700 405 692 399 683 L334 544 C333 534 339 527 349 527 L440 527 C450 527 458 535 463 544 L528 683 C530 693 524 700 514 700 L423 700 Z " />
<glyph glyph-name="quotedblright" unicode="&#x201d;" horiz-adv-x="503" d="M440 527 C450 527 458 535 463 544 L528 683 C530 693 524 700 514 700 L423 700 C413 700 405 692 399 683 L334 544 C333 534 339 527 349 527 L440 527 Z M252 527 C262 527 270 535 275 544 L340 683 C342 693 336 700 326 700 L235 700 C225 700 217 692 211 683 L146 544 C145 534 151 527 161 527 L252 527 Z " />
<glyph glyph-name="quotedblbase" unicode="&#x201e;" horiz-adv-x="503" d="M355 -75 C365 -75 373 -67 378 -58 L444 81 C445 91 439 98 429 98 L338 98 C328 98 320 90 315 81 L249 -58 C248 -68 254 -75 264 -75 L355 -75 Z M167 -75 C177 -75 185 -67 190 -58 L256 81 C257 91 251 98 241 98 L150 98 C140 98 132 90 127 81 L61 -58 C60 -68 66 -75 76 -75 L167 -75 Z " />
<glyph glyph-name="dagger" unicode="&#x2020;" horiz-adv-x="475" d="M137 -251 C136 -261 142 -268 152 -268 L247 -268 C257 -268 265 -261 266 -251 L362 432 L448 432 C458 432 466 439 468 449 L479 532 C481 542 475 549 465 549 L379 549 L397 683 C399 693 393 700 383 700 L288 700 C278 700 270 693 268 683 L250 549 L164 549 C154 549 146 542 144 532 L133 449 C131 439 137 432 147 432 L233 432 L137 -251 Z " />
<glyph glyph-name="daggerdbl" unicode="&#x2021;" horiz-adv-x="475" d="M133 449 C131 439 137 432 147 432 L233 432 L173 0 L87 0 C77 0 69 -7 67 -17 L55 -100 C54 -110 60 -117 70 -117 L156 -117 L137 -251 C136 -261 142 -268 152 -268 L247 -268 C257 -268 265 -261 266 -251 L285 -117 L371 -117 C381 -117 389 -110 390 -100 L402 -17 C404 -7 398 0 388 0 L302 0 L362 432 L448 432 C458 432 466 439 468 449 L479 532 C481 542 475 549 465 549 L379 549 L397 683 C399 693 393 700 383 700 L288 700 C278 700 270 693 268 683 L250 549 L164 549 C154 549 146 542 144 532 L133 449 Z " />
<glyph glyph-name="bullet" unicode="&#x2022;" horiz-adv-x="274" d="M209 162 C219 162 227 169 229 179 L243 280 C244 290 238 297 228 297 L128 297 C118 297 110 290 109 280 L95 179 C93 169 99 162 109 162 L209 162 Z " />
<glyph glyph-name="ellipsis" unicode="&#x2026;" horiz-adv-x="968" d="M186 -5 C196 -5 204 2 205 12 L219 113 C221 123 215 130 205 130 L105 130 C95 130 87 123 85 113 L71 12 C70 2 76 -5 86 -5 L186 -5 Z M533 -5 C543 -5 551 2 552 12 L566 113 C568 123 562 130 552 130 L452 130 C442 130 434 123 432 113 L418 12 C417 2 423 -5 433 -5 L533 -5 Z M880 -5 C890 -5 898 2 899 12 L913 113 C915 123 909 130 899 130 L799 130 C789 130 781 123 779 113 L765 12 C764 2 770 -5 780 -5 L880 -5 Z " />
<glyph glyph-name="perthousand" unicode="&#x2030;" horiz-adv-x="1073" d="M296 700 C226 700 160 643 150 572 C140 502 190 444 260 444 C331 444 397 502 407 572 C417 643 367 700 296 700 L296 700 Z M272 529 C248 529 232 550 235 572 C238 596 260 615 284 615 C306 615 324 596 321 572 C318 550 294 529 272 529 L272 529 Z M610 256 C539 256 473 199 463 128 C454 58 504 0 575 0 C645 0 711 58 720 128 C730 199 680 256 610 256 L610 256 Z M586 85 C564 85 546 106 549 128 C553 152 577 171 599 171 C623 171 639 152 635 128 C632 106 610 85 586 85 L586 85 Z M292 0 C302 0 305 7 311 17 L687 683 C689 693 683 700 673 700 L578 700 C568 700 564 693 558 683 L182 17 C180 7 187 0 197 0 L292 0 Z M910 256 C839 256 773 199 763 128 C754 58 804 0 875 0 C945 0 1011 58 1020 128 C1030 199 980 256 910 256 L910 256 Z M886 85 C864 85 846 106 849 128 C853 152 877 171 899 171 C923 171 939 152 935 128 C932 106 910 85 886 85 L886 85 Z " />
<glyph glyph-name="guilsinglleft" unicode="&#x2039;" horiz-adv-x="390" d="M92 162 C91 152 97 146 107 143 L312 66 C322 66 330 73 331 83 L344 175 C346 185 339 192 330 195 L235 228 L236 240 L341 273 C351 276 359 283 361 293 L374 385 C375 395 369 402 359 402 L132 325 C122 322 114 316 113 306 L92 162 Z " />
<glyph glyph-name="guilsinglright" unicode="&#x203a;" horiz-adv-x="390" d="M363 306 C364 316 358 322 348 325 L143 402 C133 402 125 395 124 385 L111 293 C109 283 115 276 125 273 L220 240 L219 228 L114 195 C103 192 96 185 94 175 L81 83 C80 73 86 66 96 66 L323 143 C333 146 341 152 342 162 L363 306 Z " />
<glyph glyph-name="fraction" unicode="&#x2044;" horiz-adv-x="571" d="M156 -179 C166 -179 171 -172 176 -162 L611 787 C613 797 606 804 596 804 L501 804 C491 804 487 797 482 787 L47 -162 C45 -172 51 -179 61 -179 L156 -179 Z " />
<glyph glyph-name="Euro" unicode="&#x20ac;" horiz-adv-x="659" d="M367 214 C377 214 385 221 386 231 L395 296 C397 306 390 313 380 313 L308 313 L319 387 L391 387 C401 387 409 394 410 404 L419 469 C421 479 415 486 405 486 L333 486 L339 527 C343 560 374 587 404 587 L485 587 C515 587 538 560 534 527 L530 501 C529 491 535 484 545 484 L640 484 C650 484 658 491 659 501 L664 534 C677 629 608 705 510 705 L413 705 C315 705 224 629 211 534 L204 486 L155 486 C145 486 137 479 135 469 L126 404 C125 394 131 387 141 387 L190 387 L179 313 L130 313 C120 313 113 306 111 296 L102 231 C101 221 107 214 117 214 L166 214 L159 166 C145 71 215 -5 313 -5 L410 -5 C508 -5 598 71 612 166 L616 199 C618 209 612 216 602 216 L507 216 C497 216 489 209 487 199 L484 173 C479 140 448 113 418 113 L337 113 C307 113 284 140 289 173 L295 214 L367 214 Z " />
<glyph glyph-name="Numero" unicode="&#x2116;" horiz-adv-x="1086" d="M945 0 C955 0 962 7 964 17 L976 100 C977 110 971 117 961 117 L727 117 C717 117 709 110 708 100 L696 17 C694 7 701 0 711 0 L945 0 Z M311 700 L185 700 C175 700 167 693 165 683 L72 17 C70 7 77 0 87 0 L182 0 C192 0 199 7 201 17 L260 439 L265 439 L390 17 C393 8 398 0 408 0 L534 0 C544 0 551 7 553 17 L646 683 C648 693 642 700 632 700 L537 700 C527 700 519 693 517 683 L458 261 L453 261 L328 683 C326 692 321 700 311 700 L311 700 Z M852 293 C831 293 812 312 815 334 L845 541 C848 563 871 582 892 582 L926 582 C947 582 966 563 963 541 L933 334 C930 312 907 293 886 293 L852 293 Z M887 175 C981 175 1046 253 1062 329 L1092 546 C1098 622 1055 700 961 700 L891 700 C797 700 732 622 716 546 L686 329 C680 253 723 175 817 175 L887 175 Z " />
<glyph glyph-name="trademark" unicode="&#x2122;" horiz-adv-x="706" d="M186 405 C186 399 190 394 196 394 L261 394 C267 394 273 399 273 405 L304 623 L353 623 C359 623 365 628 366 634 L373 689 C374 695 370 700 364 700 L179 700 C173 700 167 695 166 689 L159 634 C158 628 162 623 168 623 L217 623 L186 405 Z M553 567 L503 689 C501 695 498 700 492 700 L425 700 C419 700 413 695 412 689 L372 405 C372 399 376 394 382 394 L447 394 C453 394 459 399 459 405 L478 539 L517 436 C518 432 520 429 524 429 L549 429 C553 429 554 432 557 436 L624 539 L605 405 C605 399 609 394 615 394 L680 394 C686 394 692 399 692 405 L732 689 C733 695 729 700 723 700 L656 700 C650 700 645 695 641 689 L557 567 L553 567 Z " />
<glyph glyph-name="Omega" unicode="&#x2126;" horiz-adv-x="713" d="M406 700 C308 700 217 624 204 529 L157 196 C155 179 152 129 170 118 L103 118 C93 118 85 111 84 101 L72 17 C70 7 77 0 87 0 L281 0 C291 0 298 7 300 17 L313 110 C314 117 312 123 307 125 C285 136 284 179 286 198 L332 522 C337 555 367 582 397 582 L478 582 C508 582 532 555 527 522 L481 198 C479 179 466 136 440 125 C435 123 431 117 430 110 L417 17 C415 7 422 0 432 0 L626 0 C636 0 643 7 645 17 L657 101 C658 111 652 118 642 118 L575 118 C597 129 608 179 610 196 L657 529 C670 624 601 700 503 700 L406 700 Z " />
<glyph glyph-name="partialdiff" unicode="&#x2202;" horiz-adv-x="530" d="M535 534 C548 629 479 705 381 705 L345 705 C247 705 161 629 148 534 L143 501 C142 491 148 484 158 484 L253 484 C263 484 271 491 272 501 L276 527 C280 560 306 587 336 587 L356 587 C386 587 409 560 405 527 L387 405 L379 405 C363 434 334 443 312 443 L273 443 C172 443 122 376 110 288 L91 150 C78 62 109 -5 210 -5 L249 -5 C271 -5 303 4 327 33 L335 33 L333 17 C331 7 338 0 348 0 L443 0 C453 0 460 7 462 17 L535 534 Z M352 154 C349 132 325 113 304 113 L256 113 C235 113 217 132 220 154 L238 284 C242 306 265 325 286 325 L334 325 C355 325 374 306 370 284 L352 154 Z " />
<glyph glyph-name="Delta" unicode="&#x2206;" horiz-adv-x="836" d="M613 118 L255 118 L496 562 L613 118 Z M749 0 C759 0 766 7 768 17 L594 683 C593 693 587 700 577 700 L455 700 C445 700 437 693 432 683 L72 17 C70 7 77 0 87 0 L749 0 Z " />
<glyph glyph-name="product" unicode="&#x220f;" horiz-adv-x="755" d="M780 683 C782 693 776 700 766 700 L185 700 C175 700 167 693 165 683 L154 600 C152 590 158 583 168 583 L272 583 L193 17 C191 7 198 0 208 0 L303 0 C313 0 320 7 322 17 L401 583 L516 583 L437 17 C435 7 442 0 452 0 L547 0 C557 0 564 7 566 17 L645 583 L749 583 C759 583 767 590 769 600 L780 683 Z " />
<glyph glyph-name="summation" unicode="&#x2211;" horiz-adv-x="519" d="M372 333 L377 367 L280 582 L513 582 C523 582 531 589 533 599 L544 683 C546 693 540 700 530 700 L185 700 C175 700 167 693 165 683 L151 582 L248 367 C246 355 246 344 244 334 L86 118 L72 17 C70 7 77 0 87 0 L432 0 C442 0 449 7 451 17 L463 101 C464 111 458 118 448 118 L215 118 L372 333 Z " />
<glyph glyph-name="minus" unicode="&#x2212;" horiz-adv-x="392" d="M331 187 C341 187 349 194 350 204 L362 287 C363 297 357 304 347 304 L129 304 C119 304 111 297 110 287 L98 204 C97 194 103 187 113 187 L331 187 Z " />
<glyph glyph-name="radical" unicode="&#x221a;" horiz-adv-x="711" d="M705 583 C715 583 723 590 725 600 L736 683 C738 693 732 700 722 700 L503 700 C493 700 485 693 480 683 L284 168 L272 168 L253 385 C251 395 245 402 235 402 L143 402 C133 402 125 395 124 385 L166 17 C167 7 173 0 183 0 L327 0 C337 0 343 7 348 17 L570 583 L705 583 Z " />
<glyph glyph-name="infinity" unicode="&#x221e;" horiz-adv-x="882" d="M267 186 C246 186 227 205 230 227 L241 299 C244 321 267 340 288 340 L382 340 C402 340 420 323 419 302 L408 227 C405 205 382 186 361 186 L267 186 Z M497 401 C485 440 443 458 408 458 L287 458 C193 458 128 380 112 304 L101 222 C95 146 138 68 232 68 L353 68 C388 68 436 86 458 125 C470 86 512 68 547 68 L668 68 C762 68 827 146 843 222 L854 304 C860 380 817 458 723 458 L602 458 C567 458 519 440 497 401 L497 401 Z M573 186 C552 186 533 205 536 227 L547 302 C552 323 574 340 594 340 L688 340 C709 340 728 321 725 299 L714 227 C711 205 688 186 667 186 L573 186 Z " />
<glyph glyph-name="integral" unicode="&#x222b;" horiz-adv-x="447" d="M415 698 C415 698 250 654 229 500 L160 14 C158 3 142 -44 71 -67 C64 -69 59 -76 58 -82 C58 -84 58 -87 59 -89 L83 -177 C85 -184 90 -188 96 -188 C98 -188 101 -187 103 -186 C103 -186 268 -142 289 12 L357 495 C357 495 365 553 447 579 C454 581 459 588 460 594 C460 596 460 599 459 601 L435 689 C433 696 428 700 422 700 C420 700 417 699 415 698 L415 698 Z " />
<glyph glyph-name="approxequal" unicode="&#x2248;" horiz-adv-x="428" d="M277 50 C304 50 329 63 358 79 C364 84 370 91 371 99 C372 100 372 102 362 168 C361 174 356 180 346 180 C344 180 341 180 339 179 C326 173 303 167 293 167 C252 167 229 206 188 206 C162 206 134 193 106 177 C99 172 93 165 92 157 L103 88 C104 82 110 77 119 77 C121 77 125 77 127 78 C139 83 163 89 172 89 C214 89 236 50 277 50 L277 50 Z M302 231 C329 231 355 244 383 260 C390 265 396 272 397 280 C397 281 397 283 388 349 C386 355 381 361 371 361 C369 361 366 361 364 360 C351 354 328 348 318 348 C277 348 255 387 214 387 C188 387 159 374 132 358 C124 353 118 346 117 338 L128 269 C129 263 136 258 145 258 C147 258 151 258 153 259 C165 264 188 270 197 270 C239 270 261 231 302 231 L302 231 Z " />
<glyph glyph-name="notequal" unicode="&#x2260;" horiz-adv-x="392" d="M343 277 C353 277 361 284 363 294 L374 377 C376 387 370 394 360 394 L350 394 L387 474 C389 484 383 491 373 491 L313 491 C303 491 298 484 293 474 L256 394 L142 394 C132 394 124 387 122 377 L111 294 C109 284 115 277 125 277 L202 277 L168 203 L115 203 C105 203 97 196 96 186 L84 103 C83 93 89 86 99 86 L115 86 L83 17 C81 7 88 0 98 0 L158 0 C168 0 172 7 177 17 L209 86 L317 86 C327 86 335 93 336 103 L348 186 C349 196 343 203 333 203 L262 203 L296 277 L343 277 Z " />
<glyph glyph-name="lessequal" unicode="&#x2264;" horiz-adv-x="390" d="M303 0 C313 0 320 7 322 17 L330 75 C331 85 325 92 315 92 L99 92 C89 92 81 85 80 75 L72 17 C70 7 77 0 87 0 L303 0 Z M101 223 C99 213 106 207 115 204 L320 127 C330 127 338 134 340 144 L353 236 C354 246 348 253 338 256 L243 289 L245 301 L349 334 C360 337 368 344 369 354 L382 446 C384 456 378 463 368 463 L141 386 C130 383 122 377 121 367 L101 223 Z " />
<glyph glyph-name="greaterequal" unicode="&#x2265;" horiz-adv-x="390" d="M303 0 C313 0 320 7 322 17 L330 75 C331 85 325 92 315 92 L99 92 C89 92 81 85 80 75 L72 17 C70 7 77 0 87 0 L303 0 Z M371 367 C372 377 366 383 357 386 L152 463 C142 463 134 456 132 446 L119 354 C118 344 124 337 133 334 L229 301 L227 289 L122 256 C112 253 104 246 103 236 L90 144 C88 134 94 127 104 127 L331 204 C342 207 349 213 351 223 L371 367 Z " />
<glyph glyph-name="lozenge" unicode="&#x25ca;" horiz-adv-x="610" d="M342 700 C332 700 324 693 319 683 L119 350 L226 17 C227 7 234 0 244 0 L366 0 C376 0 383 7 388 17 L589 350 L481 683 C480 693 474 700 464 700 L342 700 Z M383 562 L460 349 L324 138 L248 349 L383 562 Z " />
<glyph glyph-name="uni25CC" unicode="&#x25cc;" horiz-adv-x="199" d="" />
<glyph glyph-name="fi" unicode="&#xfb01;" horiz-adv-x="644" d="M83 414 C81 404 87 397 97 397 L162 397 L109 17 C107 7 114 0 124 0 L219 0 C229 0 236 7 238 17 L291 397 L378 397 C388 397 396 404 398 414 L409 498 C411 508 405 515 395 515 L308 515 L317 577 C320 599 343 618 364 618 L409 618 C419 618 427 625 429 635 L440 718 C442 728 436 735 426 735 L363 735 C269 735 204 657 188 581 L179 515 L114 515 C104 515 96 508 94 498 L83 414 Z M557 0 C567 0 574 7 576 17 L643 498 C645 508 639 515 629 515 L534 515 C524 515 516 508 514 498 L447 17 C445 7 452 0 462 0 L557 0 Z M639 565 C649 565 657 572 658 582 L672 683 C674 693 668 700 658 700 L558 700 C548 700 540 693 538 683 L524 582 C523 572 529 565 539 565 L639 565 Z " />
<glyph glyph-name="fl" unicode="&#xfb02;" horiz-adv-x="644" d="M83 414 C81 404 87 397 97 397 L162 397 L109 17 C107 7 114 0 124 0 L219 0 C229 0 236 7 238 17 L291 397 L378 397 C388 397 396 404 398 414 L409 498 C411 508 405 515 395 515 L308 515 L317 577 C320 599 343 618 364 618 L409 618 C419 618 427 625 429 635 L440 718 C442 728 436 735 426 735 L363 735 C269 735 204 657 188 581 L179 515 L114 515 C104 515 96 508 94 498 L83 414 Z M557 0 C567 0 574 7 576 17 L669 683 C671 693 665 700 655 700 L560 700 C550 700 542 693 540 683 L447 17 C445 7 452 0 462 0 L557 0 Z " />
</font>
</svg>
