<?xml version="1.0" encoding="UTF-8"?>
<svg xmlns="http://www.w3.org/2000/svg" xmlns:xlink="http://www.w3.org/1999/xlink" version="1.2" >
<font id="Tomkin Narrow ExtraBold Italic">
<font-face  font-family="Tomkin Narrow" units-per-em="1000" ascent="750" descent="-250" font-style="italic" font-weight="800" font-stretch="normal" cap-height="700" x-height="515" underline-position="-91" underline-thickness="35" />
<missing-glyph  horiz-adv-x="569" d="" />
<glyph glyph-name="space" unicode="&#x20;" horiz-adv-x="182" d="" />
<glyph glyph-name="exclam" unicode="&#x21;" horiz-adv-x="278" d="M202 168 C213 168 221 176 224 187 L253 303 L306 681 C308 692 301 700 290 700 L184 700 C173 700 164 692 162 681 L109 303 L106 187 C105 176 111 168 122 168 L202 168 Z M66 13 C65 2 72 -6 83 -6 L193 -6 C204 -6 213 2 214 13 L228 110 C230 121 223 129 212 129 L102 129 C91 129 82 121 80 110 L66 13 Z " />
<glyph glyph-name="quotedbl" unicode="&#x22;" horiz-adv-x="472" d="M229 439 C240 439 248 447 251 458 L281 579 L295 681 C297 692 290 700 279 700 L182 700 C171 700 162 692 160 681 L146 579 L143 458 C142 447 148 439 159 439 L229 439 Z M436 439 C447 439 455 447 458 458 L488 579 L502 681 C504 692 497 700 486 700 L389 700 C378 700 369 692 367 681 L353 579 L350 458 C349 447 355 439 366 439 L436 439 Z " />
<glyph glyph-name="numbersign" unicode="&#x23;" horiz-adv-x="791" d="M348 23 C346 12 353 4 364 4 L470 4 C481 4 490 12 495 23 L547 136 L612 136 C623 136 632 144 633 155 L647 251 C648 262 641 270 630 270 L607 270 L681 429 L767 429 C778 429 787 437 788 448 L802 544 C804 555 797 563 786 563 L742 563 L796 681 C798 692 791 700 780 700 L674 700 C663 700 654 692 649 681 L595 563 L502 563 L556 681 C558 692 551 700 540 700 L434 700 C423 700 414 692 409 681 L355 563 L277 563 C266 563 257 555 255 544 L241 448 C240 437 247 429 258 429 L294 429 L220 270 L121 270 C110 270 101 262 100 251 L86 155 C85 144 92 136 103 136 L160 136 L108 23 C106 12 113 4 124 4 L230 4 C241 4 250 12 255 23 L307 136 L400 136 L348 23 Z M441 429 L534 429 L460 270 L367 270 L441 429 Z " />
<glyph glyph-name="dollar" unicode="&#x24;" horiz-adv-x="589" d="M278 496 L282 522 C286 549 311 571 336 571 L404 571 C429 571 447 549 443 522 L440 502 C439 491 445 483 456 483 L562 483 C573 483 583 491 584 502 L588 529 C600 615 547 685 466 702 L482 813 C483 824 476 832 465 832 L359 832 C348 832 339 824 338 813 L322 703 C231 692 151 619 139 529 L136 507 C95 215 427 336 408 202 L405 178 C401 151 376 129 351 129 L273 129 C248 129 230 151 234 178 L237 204 C239 215 232 223 221 223 L115 223 C104 223 95 215 93 204 L89 171 C76 81 135 8 223 -4 L207 -118 C205 -129 212 -137 223 -137 L329 -137 C340 -137 349 -129 351 -118 L367 -3 C457 9 535 82 548 171 L550 187 C591 482 258 352 278 496 L278 496 Z " />
<glyph glyph-name="percent" unicode="&#x25;" horiz-adv-x="775" d="M174 19 C173 8 180 0 191 0 L297 0 C308 0 315 9 321 19 L704 681 C706 692 699 700 688 700 L582 700 C571 700 564 691 557 681 L174 19 Z M298 700 C224 700 154 640 144 565 C134 491 186 430 260 430 C336 430 405 491 415 565 C425 640 374 700 298 700 L298 700 Z M273 525 C252 525 236 544 239 565 C242 586 264 605 285 605 C307 605 322 586 319 565 C316 544 295 525 273 525 L273 525 Z M612 270 C536 270 468 210 457 135 C447 61 499 0 575 0 C649 0 718 61 728 135 C739 210 686 270 612 270 L612 270 Z M588 95 C566 95 551 114 553 135 C556 156 577 175 599 175 C620 175 636 156 633 135 C631 114 609 95 588 95 L588 95 Z " />
<glyph glyph-name="ampersand" unicode="&#x26;" horiz-adv-x="626" d="M409 286 L387 134 L273 134 C248 134 230 156 234 183 L242 237 C246 264 270 286 295 286 L409 286 Z M553 286 L607 286 C618 286 627 294 628 305 L641 395 C643 406 636 414 625 414 L341 414 C317 414 298 436 302 463 L310 522 C314 549 339 571 363 571 L403 571 C427 571 446 549 442 522 L437 490 C436 479 443 471 454 471 L560 471 C571 471 580 479 581 490 L587 529 C601 627 531 705 430 705 L374 705 C273 705 181 627 167 529 L157 462 C152 425 166 393 182 366 C141 333 105 289 98 238 L89 176 C75 78 146 0 247 0 L494 0 C505 0 514 8 515 19 L553 286 Z " />
<glyph glyph-name="quotesingle" unicode="&#x27;" horiz-adv-x="265" d="M229 439 C240 439 248 447 251 458 L281 579 L295 681 C297 692 290 700 279 700 L182 700 C171 700 162 692 160 681 L146 579 L143 458 C142 447 148 439 159 439 L229 439 Z " />
<glyph glyph-name="parenleft" unicode="&#x28;" horiz-adv-x="324" d="M109 314 C87 161 78 -7 90 -159 C92 -170 98 -178 109 -178 L214 -178 C225 -178 235 -170 236 -159 C223 -5 231 161 253 314 C274 467 312 632 369 786 C371 797 364 805 353 805 L248 805 C237 805 228 797 223 786 C168 634 130 467 109 314 L109 314 Z " />
<glyph glyph-name="parenright" unicode="&#x29;" horiz-adv-x="324" d="M303 314 C324 467 334 634 321 786 C320 797 313 805 302 805 L197 805 C186 805 177 797 175 786 C188 632 180 467 159 314 C137 161 99 -5 42 -159 C41 -170 47 -178 58 -178 L163 -178 C174 -178 184 -170 188 -159 C244 -7 281 161 303 314 L303 314 Z " />
<glyph glyph-name="asterisk" unicode="&#x2a;" horiz-adv-x="500" d="M307 700 C297 700 288 693 286 683 L275 598 L226 632 C224 634 220 636 217 636 C212 636 205 633 201 629 L146 562 C144 558 142 554 142 551 C141 546 143 542 147 538 L222 482 L155 413 C151 410 150 406 149 403 C148 396 152 391 154 389 L208 335 C210 333 214 332 217 332 C223 332 228 334 232 337 L308 413 L362 337 C364 334 369 332 375 332 C378 332 382 333 386 335 L454 389 C456 391 462 396 463 403 C464 406 463 410 461 413 L412 482 L503 538 C509 542 511 546 512 551 C512 554 512 558 510 562 L475 629 C471 633 466 636 461 636 C458 636 454 634 450 632 L393 598 L404 683 C406 693 399 700 389 700 L307 700 Z " />
<glyph glyph-name="plus" unicode="&#x2b;" horiz-adv-x="434" d="M333 315 L347 414 C348 425 341 433 330 433 L224 433 C213 433 204 425 203 414 L189 315 L128 315 C117 315 108 307 106 296 L93 201 C91 190 98 182 109 182 L170 182 L156 84 C155 73 162 65 173 65 L279 65 C290 65 299 73 300 84 L314 182 L375 182 C386 182 395 190 397 201 L410 296 C412 307 405 315 394 315 L333 315 Z " />
<glyph glyph-name="comma" unicode="&#x2c;" horiz-adv-x="330" d="M168 -105 C179 -105 188 -96 193 -87 L275 77 C277 87 271 95 260 95 L160 95 C149 95 140 86 134 77 L52 -87 C51 -97 58 -105 68 -105 L168 -105 Z " />
<glyph glyph-name="hyphen" unicode="&#x2d;" horiz-adv-x="391" d="M332 181 C343 181 352 189 354 200 L367 296 C369 307 362 315 351 315 L128 315 C117 315 108 307 106 296 L93 200 C91 189 98 181 109 181 L332 181 Z " />
<glyph glyph-name="period" unicode="&#x2e;" horiz-adv-x="278" d="M66 14 C65 3 72 -5 83 -5 L193 -5 C204 -5 213 3 214 14 L230 124 C231 135 225 143 214 143 L104 143 C93 143 83 135 82 124 L66 14 Z " />
<glyph glyph-name="slash" unicode="&#x2f;" horiz-adv-x="578" d="M43 -155 C41 -166 48 -174 59 -174 L165 -174 C176 -174 185 -166 190 -155 C327 145 486 485 623 785 C624 796 617 804 606 804 L500 804 C489 804 480 796 476 785 L43 -155 Z " />
<glyph glyph-name="zero" unicode="0" horiz-adv-x="567" d="M262 129 C238 129 220 151 224 178 L272 522 C276 549 300 571 324 571 L403 571 C427 571 445 549 441 522 L393 178 C389 151 365 129 341 129 L262 129 Z M328 -5 C430 -5 522 73 536 171 L586 529 C600 627 530 705 428 705 L337 705 C235 705 143 627 129 529 L79 171 C65 73 135 -5 237 -5 L328 -5 Z " />
<glyph glyph-name="one" unicode="1" horiz-adv-x="519" d="M292 562 L232 134 L111 134 C100 134 91 126 90 115 L76 19 C75 8 82 0 93 0 L480 0 C491 0 500 8 501 19 L515 115 C516 126 509 134 498 134 L376 134 L453 681 C455 692 448 700 437 700 L319 700 L154 640 C143 636 133 630 131 618 L118 524 C116 512 123 504 135 504 L292 562 Z " />
<glyph glyph-name="two" unicode="2" horiz-adv-x="538" d="M115 502 C114 491 120 483 131 483 L237 483 C248 483 258 491 259 502 L262 522 C266 549 290 571 314 571 L383 571 C408 571 426 549 422 522 L414 469 C394 326 108 454 67 159 L47 19 C46 8 53 0 64 0 L474 0 C485 0 494 8 495 19 L509 115 C510 126 503 134 492 134 L207 134 L212 167 C232 313 519 186 560 480 L567 529 C581 627 510 705 409 705 L325 705 C224 705 133 627 119 529 L115 502 Z " />
<glyph glyph-name="three" unicode="3" horiz-adv-x="548" d="M532 246 C538 286 520 326 496 355 C532 385 557 421 563 464 L572 529 C586 627 516 705 415 705 L332 705 C230 705 138 627 124 529 L120 502 C119 491 125 483 136 483 L242 483 C253 483 263 491 264 502 L267 522 C271 549 295 571 319 571 L388 571 C413 571 431 549 427 522 L420 471 C416 443 392 422 367 422 L297 422 C286 422 277 414 275 403 L262 307 C260 296 267 288 278 288 L351 288 C374 285 391 264 387 239 L379 178 C375 151 351 129 326 129 L257 129 C233 129 215 151 219 178 L221 198 C223 209 216 217 205 217 L99 217 C88 217 79 209 77 198 L74 171 C60 73 130 -5 232 -5 L315 -5 C416 -5 508 73 522 171 L532 246 Z " />
<glyph glyph-name="four" unicode="4" horiz-adv-x="560" d="M57 228 L47 161 C46 150 52 142 63 142 L345 142 L328 19 C327 8 334 0 345 0 L451 0 C462 0 471 8 472 19 L489 142 L535 142 C546 142 556 150 557 161 L571 257 C572 268 565 276 554 276 L508 276 L532 445 C534 456 527 464 516 464 L410 464 C399 464 390 456 388 445 L364 276 L237 276 L462 681 C464 692 457 700 446 700 L330 700 C319 700 310 691 304 681 L57 228 Z " />
<glyph glyph-name="five" unicode="5" horiz-adv-x="558" d="M226 194 C227 205 220 213 209 213 L103 213 C92 213 83 205 82 194 L79 171 C65 73 135 -5 237 -5 L330 -5 C431 -5 523 73 537 171 L550 270 C564 368 494 446 393 446 L305 446 C293 446 275 443 260 437 L278 566 L528 566 C539 566 548 574 550 585 L563 681 C565 692 558 700 547 700 L172 700 C161 700 152 692 150 681 L96 296 C95 285 101 277 112 277 L211 277 C223 277 230 280 238 292 C247 306 262 312 274 312 L366 312 C391 312 409 291 405 263 L394 178 C390 151 366 129 341 129 L262 129 C238 129 220 151 224 178 L226 194 Z " />
<glyph glyph-name="six" unicode="6" horiz-adv-x="557" d="M263 129 C238 129 220 151 224 178 L236 268 C240 296 264 317 289 317 L367 317 C391 317 409 296 405 268 L393 178 C389 151 365 129 341 129 L263 129 Z M428 505 C427 494 434 486 445 486 L551 486 C562 486 571 494 572 505 L576 529 C590 627 520 705 419 705 L337 705 C236 705 143 627 129 529 L79 171 C65 73 136 -5 237 -5 L329 -5 C430 -5 522 73 536 171 L550 275 C564 373 494 451 393 451 L307 451 C294 451 275 446 260 437 L272 522 C276 549 300 571 325 571 L392 571 C416 571 435 552 431 522 L428 505 Z " />
<glyph glyph-name="seven" unicode="7" horiz-adv-x="480" d="M114 19 C113 8 120 0 131 0 L236 0 C247 0 256 8 258 19 C308 197 393 402 530 574 L545 681 C547 692 540 700 529 700 L147 700 C136 700 127 692 125 681 L112 585 C110 574 117 566 128 566 L376 566 C243 392 161 199 114 19 L114 19 Z " />
<glyph glyph-name="eight" unicode="8" horiz-adv-x="560" d="M257 129 C233 129 215 151 219 178 L227 235 C230 263 254 284 278 284 L357 284 C384 284 402 263 399 235 L391 178 C387 151 363 129 339 129 L257 129 Z M313 418 C289 418 270 440 274 467 L282 522 C286 549 311 571 335 571 L385 571 C409 571 428 549 424 522 L416 467 C412 440 387 418 363 418 L313 418 Z M544 242 C550 286 534 331 495 361 C528 386 554 425 559 460 L569 529 C583 627 512 705 411 705 L347 705 C246 705 153 627 139 529 L129 460 C124 425 140 386 165 361 C118 331 90 286 84 242 L74 171 C60 73 131 -5 232 -5 L325 -5 C427 -5 520 73 534 171 L544 242 Z " />
<glyph glyph-name="nine" unicode="9" horiz-adv-x="557" d="M392 571 C417 571 435 549 431 522 L418 432 C414 404 390 383 365 383 L287 383 C263 383 245 404 249 432 L262 522 C266 549 290 571 314 571 L392 571 Z M226 195 C227 206 221 214 210 214 L104 214 C93 214 83 206 82 195 L79 171 C65 73 135 -5 236 -5 L318 -5 C419 -5 512 73 526 171 L576 529 C590 627 519 705 418 705 L326 705 C225 705 133 627 119 529 L104 425 C90 327 160 249 261 249 L347 249 C360 249 379 254 394 263 L383 178 C379 151 355 129 330 129 L263 129 C239 129 219 148 224 178 L226 195 Z " />
<glyph glyph-name="colon" unicode="&#x3a;" horiz-adv-x="278" d="M66 14 C65 3 72 -5 83 -5 L193 -5 C204 -5 213 3 214 14 L230 124 C231 135 225 143 214 143 L104 143 C93 143 83 135 82 124 L66 14 Z M108 306 C106 295 113 287 124 287 L234 287 C245 287 254 295 256 306 L271 416 C273 427 266 435 255 435 L145 435 C134 435 125 427 123 416 L108 306 Z " />
<glyph glyph-name="semicolon" unicode="&#x3b;" horiz-adv-x="332" d="M162 306 C160 295 167 287 178 287 L288 287 C299 287 308 295 310 306 L325 416 C327 427 320 435 309 435 L199 435 C188 435 179 427 177 416 L162 306 Z M168 -105 C179 -105 188 -96 193 -87 L275 77 C277 87 271 95 260 95 L160 95 C149 95 140 86 134 77 L52 -87 C51 -97 58 -105 68 -105 L168 -105 Z " />
<glyph glyph-name="less" unicode="&#x3c;" horiz-adv-x="388" d="M87 163 C86 153 92 147 103 143 L314 64 C324 64 332 71 334 81 L347 176 C349 186 343 194 333 197 L234 231 L236 243 L344 277 C355 280 363 288 364 298 L378 393 C379 403 373 410 363 410 L129 331 C117 327 110 321 108 311 L87 163 Z " />
<glyph glyph-name="equal" unicode="&#x3d;" horiz-adv-x="389" d="M316 83 C327 83 336 91 338 102 L351 198 C353 209 346 217 335 217 L114 217 C103 217 94 209 92 198 L79 102 C77 91 84 83 95 83 L316 83 Z M342 264 C353 264 362 272 363 283 L377 379 C378 390 371 398 360 398 L139 398 C128 398 119 390 118 379 L104 283 C103 272 110 264 121 264 L342 264 Z " />
<glyph glyph-name="greater" unicode="&#x3e;" horiz-adv-x="388" d="M366 311 C368 321 361 327 351 331 L139 410 C129 410 121 403 120 393 L106 298 C105 288 111 280 120 277 L220 243 L218 231 L109 197 C99 194 91 186 89 176 L76 81 C74 71 80 64 90 64 L325 143 C336 147 344 153 345 163 L366 311 Z " />
<glyph glyph-name="question" unicode="&#x3f;" horiz-adv-x="577" d="M364 206 C385 349 543 223 580 485 L586 529 C600 627 529 705 428 705 L345 705 C244 705 153 627 139 529 L132 482 C131 471 138 463 149 463 L255 463 C266 463 275 471 276 482 L282 522 C286 549 310 571 334 571 L402 571 C427 571 445 549 441 522 L436 489 C415 341 262 458 221 210 L218 192 C217 181 224 173 235 173 L341 173 C352 173 361 181 362 192 L364 206 Z M192 19 C191 8 198 0 209 0 L319 0 C330 0 339 8 340 19 L354 116 C355 127 348 135 337 135 L227 135 C216 135 207 127 206 116 L192 19 Z " />
<glyph glyph-name="at" unicode="&#x40;" horiz-adv-x="718" d="M576 479 L566 479 C548 508 517 515 500 515 L468 515 C374 515 321 446 309 357 L289 219 C277 130 310 61 404 61 L436 61 C453 61 486 68 512 97 L522 97 L520 85 C519 74 526 66 537 66 L643 66 C654 66 663 74 664 85 L726 524 C740 622 670 700 569 700 L345 700 C244 700 152 622 138 524 L73 61 C59 -37 129 -115 230 -115 L449 -115 C460 -115 469 -107 471 -96 L485 0 C486 11 479 19 468 19 L257 19 C233 19 214 41 218 68 L281 517 C285 544 310 566 334 566 L542 566 C567 566 585 544 581 517 L576 479 Z M540 224 C538 208 521 194 506 194 L461 194 C445 194 432 208 434 224 L452 352 C454 368 471 382 487 382 L532 382 C547 382 560 368 558 352 L540 224 Z " />
<glyph glyph-name="A" unicode="A" horiz-adv-x="585" d="M315 700 C304 700 296 691 291 681 L22 19 C21 8 28 0 39 0 L145 0 C156 0 165 8 169 19 L207 115 L410 115 L420 19 C422 8 429 0 440 0 L546 0 C557 0 566 8 567 19 L484 681 C483 691 477 700 466 700 L315 700 Z M356 499 L369 499 L395 248 L258 248 L356 499 Z " />
<glyph glyph-name="B" unicode="B" horiz-adv-x="550" d="M267 416 L288 567 L376 567 C400 567 419 545 415 518 L408 465 C404 438 379 416 355 416 L267 416 Z M364 283 C389 283 407 261 403 234 L396 182 C392 155 368 133 343 133 L227 133 L248 283 L364 283 Z M182 700 C171 700 162 692 160 681 L67 19 C66 8 73 0 84 0 L332 0 C433 0 525 78 539 176 L548 238 C555 289 530 333 499 366 C522 393 546 425 551 462 L560 524 C574 622 503 700 402 700 L182 700 Z " />
<glyph glyph-name="C" unicode="C" horiz-adv-x="552" d="M393 178 C389 151 365 129 341 129 L262 129 C238 129 220 151 224 178 L272 522 C276 549 300 571 324 571 L403 571 C427 571 445 549 441 522 L436 490 C435 479 442 471 453 471 L559 471 C570 471 579 479 580 490 L586 529 C600 627 530 705 428 705 L337 705 C235 705 143 627 129 529 L79 171 C65 73 135 -5 237 -5 L328 -5 C430 -5 522 73 536 171 L541 210 C543 221 536 229 525 229 L419 229 C408 229 399 221 397 210 L393 178 Z " />
<glyph glyph-name="D" unicode="D" horiz-adv-x="578" d="M412 567 C436 567 455 545 451 518 L404 182 C400 155 375 133 351 133 L227 133 L288 567 L412 567 Z M182 700 C171 700 162 692 160 681 L67 19 C66 8 73 0 84 0 L340 0 C441 0 533 78 547 176 L596 524 C610 622 539 700 438 700 L182 700 Z " />
<glyph glyph-name="E" unicode="E" horiz-adv-x="509" d="M67 19 C66 8 73 0 84 0 L435 0 C446 0 455 8 456 19 L470 115 C471 126 464 134 453 134 L227 134 L250 296 L454 296 C465 296 474 304 476 315 L489 411 C491 422 484 430 473 430 L269 430 L288 566 L514 566 C525 566 534 574 536 585 L549 681 C551 692 544 700 533 700 L182 700 C171 700 162 692 160 681 L67 19 Z " />
<glyph glyph-name="F" unicode="F" horiz-adv-x="477" d="M265 404 L288 566 L512 566 C523 566 532 574 534 585 L547 681 C549 692 542 700 531 700 L182 700 C171 700 162 692 160 681 L67 19 C66 8 73 0 84 0 L190 0 C201 0 210 8 211 19 L246 270 L448 270 C459 270 469 278 470 289 L484 385 C485 396 478 404 467 404 L265 404 Z " />
<glyph glyph-name="G" unicode="G" horiz-adv-x="568" d="M362 404 C347 404 335 394 333 378 L321 297 C319 281 328 270 343 270 L406 270 L394 178 C390 151 366 129 342 129 L262 129 C238 129 220 151 224 178 L272 522 C276 549 300 571 324 571 L404 571 C428 571 446 549 442 522 L437 490 C436 479 443 471 454 471 L560 471 C571 471 580 479 581 490 L587 529 C601 627 531 705 429 705 L337 705 C235 705 143 627 129 529 L79 171 C65 73 135 -5 237 -5 L329 -5 C431 -5 523 73 537 171 L566 378 C568 394 558 404 543 404 L362 404 Z " />
<glyph glyph-name="H" unicode="H" horiz-adv-x="581" d="M374 19 C373 8 380 0 391 0 L497 0 C508 0 517 8 518 19 L611 681 C613 692 606 700 595 700 L489 700 C478 700 469 692 467 681 L429 406 L266 406 L304 681 C306 692 299 700 288 700 L182 700 C171 700 162 692 160 681 L67 19 C66 8 73 0 84 0 L190 0 C201 0 210 8 211 19 L247 273 L410 273 L374 19 Z " />
<glyph glyph-name="I" unicode="I" horiz-adv-x="274" d="M67 19 C66 8 73 0 84 0 L190 0 C201 0 210 8 211 19 L304 681 C306 692 299 700 288 700 L182 700 C171 700 162 692 160 681 L67 19 Z " />
<glyph glyph-name="J" unicode="J" horiz-adv-x="428" d="M118 158 C114 161 109 162 104 162 C99 162 95 161 90 158 L15 97 C9 92 7 88 6 82 C5 78 7 73 10 69 C29 46 72 -5 168 -5 C309 -5 395 86 408 180 L478 681 C480 692 473 700 462 700 L356 700 C345 700 336 692 334 681 L264 183 C264 183 257 129 181 129 C161 129 139 136 118 158 L118 158 Z " />
<glyph glyph-name="K" unicode="K" horiz-adv-x="559" d="M330 417 L267 417 L304 681 C306 692 299 700 288 700 L182 700 C171 700 162 692 160 681 L67 19 C66 8 73 0 84 0 L190 0 C201 0 210 8 211 19 L248 283 L312 283 L383 19 C387 9 395 0 406 0 L514 0 C525 0 534 9 535 20 L446 350 L625 680 C627 691 620 700 609 700 L501 700 C490 700 480 691 473 681 L330 417 Z " />
<glyph glyph-name="L" unicode="L" horiz-adv-x="477" d="M304 681 C306 692 299 700 288 700 L182 700 C171 700 162 692 160 681 L67 19 C66 8 73 0 84 0 L433 0 C444 0 453 8 454 19 L468 115 C469 126 462 134 451 134 L227 134 L304 681 Z " />
<glyph glyph-name="M" unicode="M" horiz-adv-x="736" d="M407 91 C422 91 427 97 433 107 L571 360 L577 360 L529 19 C528 8 535 0 546 0 L652 0 C663 0 672 8 673 19 L766 681 C768 692 761 700 750 700 L625 700 C614 700 604 691 598 681 L424 356 L412 356 L328 681 C326 691 318 700 307 700 L182 700 C171 700 162 692 160 681 L67 19 C66 8 73 0 84 0 L190 0 C201 0 210 8 211 19 L259 360 L265 360 L333 107 C335 97 338 91 353 91 L407 91 Z " />
<glyph glyph-name="N" unicode="N" horiz-adv-x="615" d="M310 700 L182 700 C171 700 162 692 160 681 L67 19 C66 8 73 0 84 0 L190 0 C201 0 210 8 211 19 L261 373 L268 373 L378 16 C381 6 387 0 402 0 L531 0 C542 0 551 8 552 19 L645 681 C647 692 640 700 629 700 L523 700 C512 700 503 692 501 681 L451 321 L444 321 L334 684 C330 694 325 700 310 700 L310 700 Z " />
<glyph glyph-name="O" unicode="O" horiz-adv-x="567" d="M262 129 C238 129 220 151 224 178 L272 522 C276 549 300 571 324 571 L403 571 C427 571 445 549 441 522 L393 178 C389 151 365 129 341 129 L262 129 Z M328 -5 C430 -5 522 73 536 171 L586 529 C600 627 530 705 428 705 L337 705 C235 705 143 627 129 529 L79 171 C65 73 135 -5 237 -5 L328 -5 Z " />
<glyph glyph-name="P" unicode="P" horiz-adv-x="558" d="M255 333 L288 566 L402 566 C427 566 445 544 441 517 L422 382 C418 355 394 333 369 333 L255 333 Z M182 700 C171 700 162 692 160 681 L67 19 C66 8 73 0 84 0 L190 0 C201 0 210 8 211 19 L236 199 L357 199 C458 199 551 277 565 375 L586 524 C600 622 529 700 428 700 L182 700 Z " />
<glyph glyph-name="Q" unicode="Q" horiz-adv-x="567" d="M536 171 L586 529 C600 627 530 705 428 705 L337 705 C235 705 143 627 129 529 L79 171 C65 76 131 0 227 -5 L257 -99 C259 -109 266 -118 277 -118 L380 -118 C391 -118 400 -110 402 -99 L371 0 C454 17 524 87 536 171 L536 171 Z M262 129 C238 129 220 151 224 178 L272 522 C276 549 300 571 324 571 L403 571 C427 571 445 549 441 522 L393 178 C389 151 365 129 341 129 L262 129 Z " />
<glyph glyph-name="R" unicode="R" horiz-adv-x="567" d="M464 229 C517 260 557 314 565 375 L586 524 C600 622 529 700 428 700 L182 700 C171 700 162 692 160 681 L67 19 C66 8 73 0 84 0 L190 0 C201 0 210 8 211 19 L236 199 L318 199 L375 19 C379 9 387 0 398 0 L513 0 C524 0 533 8 534 19 L464 229 Z M288 566 L402 566 C427 566 445 544 441 517 L422 382 C418 355 394 333 369 333 L255 333 L288 566 Z " />
<glyph glyph-name="S" unicode="S" horiz-adv-x="534" d="M317 705 C216 705 123 627 109 529 L106 507 C65 215 397 336 378 202 L375 178 C371 151 346 129 321 129 L243 129 C218 129 200 151 204 178 L207 204 C209 215 202 223 191 223 L85 223 C74 223 65 215 63 204 L59 171 C45 73 116 -5 217 -5 L310 -5 C411 -5 504 73 518 171 L520 187 C561 482 228 352 248 496 L252 522 C256 549 281 571 306 571 L374 571 C399 571 417 549 413 522 L410 502 C409 491 415 483 426 483 L532 483 C543 483 553 491 554 502 L558 529 C572 627 501 705 401 705 L317 705 Z " />
<glyph glyph-name="T" unicode="T" horiz-adv-x="504" d="M259 566 L182 19 C181 8 188 0 199 0 L305 0 C316 0 325 8 326 19 L403 566 L534 566 C545 566 554 574 556 585 L569 681 C571 692 564 700 553 700 L147 700 C136 700 127 692 125 681 L112 585 C110 574 117 566 128 566 L259 566 Z " />
<glyph glyph-name="U" unicode="U" horiz-adv-x="577" d="M612 681 C614 692 607 700 596 700 L490 700 C479 700 470 692 468 681 L398 178 C394 151 370 129 346 129 L267 129 C243 129 225 151 229 178 L299 681 C301 692 294 700 283 700 L177 700 C166 700 157 692 155 681 L84 171 C70 73 140 -5 242 -5 L333 -5 C435 -5 527 73 541 171 L612 681 Z " />
<glyph glyph-name="V" unicode="V" horiz-adv-x="585" d="M368 0 C379 0 387 9 391 19 L660 681 C662 692 655 700 644 700 L538 700 C527 700 518 692 513 681 L327 201 L314 201 L262 681 C261 692 254 700 243 700 L137 700 C126 700 117 692 115 681 L198 19 C200 9 206 0 217 0 L368 0 Z " />
<glyph glyph-name="W" unicode="W" horiz-adv-x="778" d="M441 700 C430 700 421 692 416 681 L274 288 L260 681 C259 692 252 700 241 700 L137 700 C126 700 117 692 115 681 L144 19 C146 8 153 0 164 0 L294 0 C305 0 311 7 316 19 L441 371 L466 19 C467 7 473 0 484 0 L614 0 C625 0 634 8 638 19 L853 681 C855 692 848 700 837 700 L733 700 C722 700 713 692 708 681 L584 288 L552 681 C551 692 544 700 533 700 L441 700 Z " />
<glyph glyph-name="X" unicode="X" horiz-adv-x="565" d="M325 266 L390 18 C394 8 401 0 412 0 L521 0 C532 0 541 8 542 19 L455 349 C517 456 570 575 632 681 C634 692 627 700 616 700 L511 700 C500 700 491 692 484 682 L348 428 L337 428 L271 682 C268 692 261 700 250 700 L145 700 C134 700 125 692 123 681 C155 575 176 456 208 349 L27 19 C26 8 33 0 44 0 L153 0 C164 0 173 8 179 18 L314 266 L325 266 Z " />
<glyph glyph-name="Y" unicode="Y" horiz-adv-x="568" d="M335 404 L257 681 C254 691 248 700 237 700 L132 700 C121 700 112 692 110 681 L243 226 L214 19 C213 8 220 0 231 0 L337 0 C348 0 357 8 358 19 L387 226 L648 681 C650 692 643 700 632 700 L527 700 C516 700 508 691 501 681 L345 404 L335 404 Z " />
<glyph glyph-name="Z" unicode="Z" horiz-adv-x="505" d="M236 134 L545 609 C548 613 552 621 552 626 L560 681 C562 692 555 700 544 700 L157 700 C146 700 137 692 135 681 L122 585 C120 574 127 566 138 566 L367 566 L57 91 C55 88 51 80 50 75 L42 19 C41 8 48 0 59 0 L446 0 C457 0 466 8 467 19 L481 115 C482 126 475 134 464 134 L236 134 Z " />
<glyph glyph-name="bracketleft" unicode="&#x5b;" horiz-adv-x="390" d="M303 671 L400 671 C411 671 420 679 421 690 L435 786 C437 797 430 805 419 805 L197 805 C186 805 177 797 175 786 L42 -158 C41 -169 48 -177 59 -177 L281 -177 C292 -177 301 -169 302 -158 L316 -62 C317 -51 310 -43 299 -43 L202 -43 L303 671 Z " />
<glyph glyph-name="backslash" unicode="&#x5c;" horiz-adv-x="578" d="M322 785 C320 796 313 804 302 804 L196 804 C185 804 176 796 175 785 C228 485 291 145 344 -155 C345 -166 352 -174 363 -174 L469 -174 C480 -174 489 -166 491 -155 L322 785 Z " />
<glyph glyph-name="bracketright" unicode="&#x5d;" horiz-adv-x="390" d="M174 -43 L77 -43 C66 -43 57 -51 56 -62 L42 -158 C41 -169 48 -177 59 -177 L281 -177 C292 -177 301 -169 302 -158 L435 786 C437 797 430 805 419 805 L197 805 C186 805 177 797 175 786 L161 690 C160 679 167 671 178 671 L275 671 L174 -43 Z " />
<glyph glyph-name="asciicircum" unicode="&#x5e;" horiz-adv-x="452" d="M274 700 C262 700 253 696 247 685 L136 511 C135 500 142 492 153 492 L247 492 C258 492 267 501 272 511 L304 562 L322 511 C325 501 332 492 343 492 L437 492 C448 492 457 500 458 511 L397 685 C393 696 386 700 374 700 L274 700 Z " />
<glyph glyph-name="underscore" unicode="&#x5f;" horiz-adv-x="390" d="M286 -137 C297 -137 306 -129 308 -118 L321 -22 C323 -11 316 -3 305 -3 L83 -3 C72 -3 63 -11 61 -22 L48 -118 C46 -129 53 -137 64 -137 L286 -137 Z " />
<glyph glyph-name="grave" unicode="&#x60;" horiz-adv-x="341" d="M329 506 C339 506 348 514 349 524 L301 682 C299 691 292 700 281 700 L181 700 C170 700 162 692 160 682 L208 524 C211 515 218 506 229 506 L329 506 Z " />
<glyph glyph-name="a" unicode="a" horiz-adv-x="474" d="M176 373 C209 382 231 387 269 387 C328 387 328 348 325 326 L324 319 L249 319 C155 319 82 270 70 179 L64 139 C51 48 87 -5 181 -5 L196 -5 C210 -5 259 -2 275 31 L284 31 L282 19 C281 8 288 0 299 0 L405 0 C416 0 425 8 426 19 L469 327 C476 374 489 520 317 520 C234 520 185 506 164 499 C154 496 147 490 146 481 C146 479 144 469 154 387 C155 376 162 372 167 372 C169 372 173 372 176 373 L176 373 Z M213 171 C215 188 232 201 247 201 L308 201 L302 158 C299 142 281 128 266 128 L236 128 C221 128 208 142 211 158 L213 171 Z " />
<glyph glyph-name="b" unicode="b" horiz-adv-x="504" d="M509 362 C522 451 489 520 395 520 L363 520 C346 520 313 513 287 484 L277 484 L304 681 C306 692 299 700 288 700 L182 700 C171 700 162 692 160 681 L67 19 C66 8 73 0 84 0 L190 0 C201 0 210 8 211 19 L213 31 L223 31 C241 2 272 -5 289 -5 L321 -5 C415 -5 467 64 480 153 L509 362 Z M259 357 C261 373 278 387 293 387 L338 387 C354 387 367 373 365 357 L337 158 C334 142 317 128 301 128 L256 128 C241 128 228 142 231 158 L259 357 Z " />
<glyph glyph-name="c" unicode="c" horiz-adv-x="459" d="M307 158 C304 142 286 128 271 128 L241 128 C226 128 213 142 216 158 L244 357 C246 373 263 387 278 387 L308 387 C323 387 337 373 335 357 L333 342 C331 331 338 323 349 323 L455 323 C466 323 475 331 477 342 L479 362 C490 440 442 520 345 520 L280 520 C184 520 111 440 100 362 L71 152 C60 75 110 -5 206 -5 L271 -5 C368 -5 439 75 450 152 L453 173 C454 184 447 192 436 192 L330 192 C319 192 310 184 309 173 L307 158 Z " />
<glyph glyph-name="d" unicode="d" horiz-adv-x="504" d="M66 153 C53 64 87 -5 181 -5 L213 -5 C230 -5 263 2 289 31 L299 31 L297 19 C296 8 303 0 314 0 L420 0 C431 0 440 8 441 19 L534 681 C536 692 529 700 518 700 L412 700 C401 700 392 692 390 681 L363 484 L353 484 C335 513 304 520 287 520 L255 520 C161 520 108 451 95 362 L66 153 Z M317 158 C314 142 297 128 282 128 L237 128 C221 128 208 142 211 158 L239 357 C241 373 258 387 274 387 L319 387 C334 387 347 373 345 357 L317 158 Z " />
<glyph glyph-name="e" unicode="e" horiz-adv-x="476" d="M244 357 C246 373 263 387 278 387 L311 387 C326 387 340 373 338 357 L332 315 L238 315 L244 357 Z M426 74 C428 77 430 82 430 85 C431 91 430 95 425 100 L365 155 C363 157 358 158 355 158 C348 158 342 155 338 150 C326 141 309 128 282 128 L241 128 C226 128 213 142 216 158 L221 195 L439 195 C450 195 459 203 461 214 L481 362 C492 440 444 520 347 520 L280 520 C184 520 111 440 100 362 L71 152 C60 75 110 -5 206 -5 L264 -5 C264 -5 366 -4 426 74 L426 74 Z " />
<glyph glyph-name="f" unicode="f" horiz-adv-x="373" d="M408 603 C419 603 428 611 430 622 L443 716 C445 727 438 735 427 735 L359 735 C263 735 196 655 180 577 L171 515 L111 515 C100 515 91 507 89 496 L76 401 C74 390 81 382 92 382 L152 382 L101 19 C100 8 107 0 118 0 L224 0 C235 0 244 8 245 19 L296 382 L376 382 C387 382 396 390 398 401 L411 496 C413 507 406 515 395 515 L315 515 L322 568 C325 587 345 603 363 603 L408 603 Z " />
<glyph glyph-name="g" unicode="g" horiz-adv-x="504" d="M317 158 C314 142 297 128 282 128 L237 128 C221 128 208 142 211 158 L239 357 C241 373 258 387 274 387 L319 387 C334 387 347 373 345 357 L317 158 Z M292 -21 C289 -42 271 -71 212 -71 C173 -71 122 -59 117 -59 C104 -59 99 -62 93 -76 C62 -156 60 -166 60 -169 C58 -178 64 -182 72 -186 C93 -193 124 -203 208 -203 C397 -203 429 -71 435 -22 L508 496 C510 507 503 515 492 515 L386 515 C375 515 366 507 364 496 L363 484 L353 484 C335 513 304 520 287 520 L255 520 C161 520 108 451 95 362 L66 153 C53 64 87 -5 181 -5 L213 -5 C230 -5 263 2 289 31 L299 31 L292 -21 Z " />
<glyph glyph-name="h" unicode="h" horiz-adv-x="509" d="M504 361 C512 451 495 520 401 520 L387 520 C366 520 323 513 284 470 L275 470 L304 681 C306 692 299 700 288 700 L182 700 C171 700 162 692 160 681 L67 19 C66 8 73 0 84 0 L190 0 C201 0 210 8 211 19 L256 339 C276 383 300 387 315 387 L331 387 C349 387 362 373 359 352 L312 19 C311 8 318 0 329 0 L435 0 C446 0 455 8 456 19 L504 361 Z " />
<glyph glyph-name="i" unicode="i" horiz-adv-x="274" d="M67 19 C66 8 73 0 84 0 L190 0 C201 0 210 8 211 19 L278 496 C280 507 273 515 262 515 L156 515 C145 515 136 507 134 496 L67 19 Z M145 584 C143 573 150 565 161 565 L271 565 C282 565 291 573 293 584 L306 681 C308 692 301 700 290 700 L180 700 C169 700 160 692 158 681 L145 584 Z " />
<glyph glyph-name="j" unicode="j" horiz-adv-x="274" d="M18 -188 C18 -188 189 -142 210 14 L278 496 C280 507 273 515 262 515 L156 515 C145 515 136 507 134 496 L67 19 C67 19 58 -35 -17 -56 C-26 -58 -31 -66 -32 -73 C-32 -75 -31 -78 -31 -80 L-5 -178 C-3 -186 2 -190 9 -190 C11 -190 16 -189 18 -188 L18 -188 Z M145 584 C143 573 150 565 161 565 L271 565 C282 565 291 573 293 584 L306 681 C308 692 301 700 290 700 L180 700 C169 700 160 692 158 681 L145 584 Z " />
<glyph glyph-name="k" unicode="k" horiz-adv-x="490" d="M319 21 C324 8 334 0 345 0 L454 0 C465 0 474 8 475 19 L415 270 L544 496 C546 507 539 515 528 515 L421 515 C410 515 397 506 389 496 L296 335 L256 335 L304 681 C306 692 299 700 288 700 L182 700 C171 700 162 692 160 681 L67 19 C66 8 73 0 84 0 L190 0 C201 0 210 8 211 19 L237 205 L276 205 L319 21 Z " />
<glyph glyph-name="l" unicode="l" horiz-adv-x="274" d="M67 19 C66 8 73 0 84 0 L190 0 C201 0 210 8 211 19 L304 681 C306 692 299 700 288 700 L182 700 C171 700 162 692 160 681 L67 19 Z " />
<glyph glyph-name="m" unicode="m" horiz-adv-x="718" d="M521 19 C520 8 527 0 538 0 L644 0 C655 0 664 8 665 19 L713 361 C726 451 690 520 595 520 C574 520 522 520 475 465 L468 465 C449 500 428 520 376 520 C351 520 317 510 281 465 L274 465 L278 496 C280 507 273 515 262 515 L156 515 C145 515 136 507 134 496 L67 19 C66 8 73 0 84 0 L190 0 C201 0 210 8 211 19 L256 339 C271 378 287 387 306 387 C332 387 344 373 340 345 L294 19 C293 8 300 0 311 0 L417 0 C428 0 437 8 438 19 L483 339 C498 378 514 387 533 387 C559 387 571 373 567 345 L521 19 Z " />
<glyph glyph-name="n" unicode="n" horiz-adv-x="509" d="M504 361 C512 451 495 520 401 520 L387 520 C366 520 323 513 284 470 L275 470 L278 496 C280 507 273 515 262 515 L156 515 C145 515 136 507 134 496 L67 19 C66 8 73 0 84 0 L190 0 C201 0 210 8 211 19 L256 339 C276 383 300 387 315 387 L331 387 C349 387 362 373 359 352 L312 19 C311 8 318 0 329 0 L435 0 C446 0 455 8 456 19 L504 361 Z " />
<glyph glyph-name="o" unicode="o" horiz-adv-x="481" d="M280 520 C184 520 111 440 100 362 L71 152 C60 75 110 -5 206 -5 L273 -5 C369 -5 441 75 452 152 L481 362 C492 440 443 520 347 520 L280 520 Z M311 387 C326 387 339 373 337 357 L309 158 C306 142 289 128 274 128 L241 128 C226 128 213 142 216 158 L244 357 C246 373 263 387 278 387 L311 387 Z " />
<glyph glyph-name="p" unicode="p" horiz-adv-x="504" d="M509 362 C522 451 489 520 395 520 L363 520 C346 520 313 513 287 484 L277 484 L278 496 C280 507 273 515 262 515 L156 515 C145 515 136 507 134 496 L43 -155 C41 -166 48 -174 59 -174 L165 -174 C176 -174 185 -166 187 -155 L213 31 L223 31 C241 2 272 -5 289 -5 L321 -5 C415 -5 467 64 480 153 L509 362 Z M259 357 C261 373 278 387 293 387 L338 387 C354 387 367 373 365 357 L337 158 C334 142 317 128 301 128 L256 128 C241 128 228 142 231 158 L259 357 Z " />
<glyph glyph-name="q" unicode="q" horiz-adv-x="504" d="M66 153 C53 64 87 -5 181 -5 L213 -5 C230 -5 263 2 289 31 L299 31 L273 -155 C271 -166 278 -174 289 -174 L395 -174 C406 -174 415 -166 417 -155 L508 496 C510 507 503 515 492 515 L386 515 C375 515 366 507 364 496 L363 484 L353 484 C335 513 304 520 287 520 L255 520 C161 520 108 451 95 362 L66 153 Z M317 158 C314 142 297 128 282 128 L237 128 C221 128 208 142 211 158 L239 357 C241 373 258 387 274 387 L319 387 C334 387 347 373 345 357 L317 158 Z " />
<glyph glyph-name="r" unicode="r" horiz-adv-x="380" d="M422 514 C410 519 399 520 383 520 C363 520 320 520 283 465 L274 465 L278 496 C280 507 273 515 262 515 L156 515 C145 515 136 507 134 496 L67 19 C66 8 73 0 84 0 L190 0 C201 0 210 8 211 19 L256 339 C287 384 326 387 347 387 C369 387 387 381 391 381 C402 381 411 389 413 400 L434 492 C435 504 433 509 422 514 L422 514 Z " />
<glyph glyph-name="s" unicode="s" horiz-adv-x="455" d="M294 392 C310 392 323 378 320 362 L320 356 C318 345 325 337 336 337 L442 337 C453 337 462 345 464 356 L465 363 C475 440 426 520 330 520 L270 520 C174 520 108 451 92 373 L91 365 C63 168 308 223 299 162 L297 145 C295 131 279 123 263 123 L232 123 C216 123 203 137 205 153 L207 164 C208 175 201 183 190 183 L84 183 C73 183 64 175 63 164 L61 152 C50 75 100 -5 196 -5 L262 -5 C359 -5 428 63 439 141 L441 155 C469 350 225 293 234 358 L236 370 C237 384 254 392 270 392 L294 392 Z " />
<glyph glyph-name="t" unicode="t" horiz-adv-x="364" d="M294 382 L373 382 C384 382 393 390 395 401 L408 496 C410 507 403 515 392 515 L313 515 L336 681 C338 692 331 700 320 700 L214 700 C203 700 194 692 192 681 L169 515 L111 515 C100 515 91 507 89 496 L76 401 C74 390 81 382 92 382 L150 382 L120 167 C106 69 158 0 254 0 L320 0 C331 0 340 8 341 19 L354 113 C356 124 349 132 338 132 L295 132 C277 132 261 148 264 167 L294 382 Z " />
<glyph glyph-name="u" unicode="u" horiz-adv-x="488" d="M275 -5 C371 -5 443 75 454 152 L502 496 C504 507 497 515 486 515 L380 515 C369 515 360 507 358 496 L311 158 C308 142 291 128 276 128 L246 128 C231 128 218 142 221 158 L268 496 C270 507 263 515 252 515 L146 515 C135 515 126 507 124 496 L76 152 C65 75 115 -5 211 -5 L275 -5 Z " />
<glyph glyph-name="v" unicode="v" horiz-adv-x="461" d="M304 0 C315 0 323 9 327 19 L520 496 C522 507 515 515 504 515 L396 515 C385 515 376 507 371 496 L265 205 L252 205 L228 496 C227 507 220 515 209 515 L101 515 C90 515 81 507 79 496 L138 19 C140 9 146 0 157 0 L304 0 Z " />
<glyph glyph-name="w" unicode="w" horiz-adv-x="626" d="M346 515 C335 515 324 508 319 497 L233 275 L222 497 C221 508 212 515 201 515 L101 515 C90 515 81 507 79 496 L123 19 C125 8 131 0 142 0 L230 0 C241 0 251 7 256 18 L348 255 L374 18 C375 7 385 0 396 0 L484 0 C495 0 503 8 507 19 L685 496 C687 507 680 515 669 515 L569 515 C558 515 547 508 542 497 L469 275 L445 497 C444 508 435 515 424 515 L346 515 Z " />
<glyph glyph-name="x" unicode="x" horiz-adv-x="454" d="M256 176 L295 18 C299 8 306 0 317 0 L420 0 C431 0 440 8 441 19 L384 258 L504 496 C506 507 499 515 488 515 L386 515 C375 515 366 507 359 497 L278 334 L268 334 L233 497 C230 507 223 515 212 515 L110 515 C99 515 90 507 88 496 L142 258 L17 19 C16 8 23 0 34 0 L137 0 C148 0 157 8 163 18 L246 176 L256 176 Z " />
<glyph glyph-name="y" unicode="y" horiz-adv-x="461" d="M144 -21 C135 -46 115 -72 84 -72 L42 -72 C31 -72 22 -80 21 -91 L8 -184 C6 -195 13 -203 24 -203 L107 -203 C131 -203 245 -181 314 -12 L520 496 C522 507 515 515 504 515 L396 515 C385 515 376 507 371 496 L265 205 L252 205 L228 496 C227 507 220 515 209 515 L101 515 C90 515 81 507 79 496 L144 -21 Z " />
<glyph glyph-name="z" unicode="z" horiz-adv-x="423" d="M233 134 L441 424 C447 433 449 438 450 444 L457 496 C459 507 452 515 441 515 L126 515 C115 515 106 507 104 496 L91 400 C89 389 96 381 107 381 L263 381 L53 91 C48 85 46 80 45 74 L37 19 C36 8 43 0 54 0 L369 0 C380 0 389 8 390 19 L404 115 C405 126 398 134 387 134 L233 134 Z " />
<glyph glyph-name="braceleft" unicode="&#x7b;" horiz-adv-x="460" d="M310 313 C344 344 363 381 370 427 L397 622 C401 649 425 671 449 671 L470 671 C481 671 490 679 491 690 L505 786 C507 797 500 805 489 805 L460 805 C359 805 268 727 254 629 L226 433 C222 405 197 385 173 385 L138 385 C127 385 117 377 116 366 L101 261 C100 250 107 242 118 242 L153 242 C177 242 197 222 193 194 L165 -2 C151 -100 220 -178 321 -178 L350 -178 C361 -178 371 -170 372 -159 L386 -63 C387 -52 380 -44 369 -44 L348 -44 C324 -44 306 -22 310 5 L338 200 C344 246 335 282 310 313 L310 313 Z " />
<glyph glyph-name="bar" unicode="&#x7c;" horiz-adv-x="274" d="M42 -159 C41 -170 47 -178 58 -178 L164 -178 C175 -178 185 -170 186 -159 L319 786 C321 797 314 805 303 805 L197 805 C186 805 177 797 175 786 L42 -159 Z " />
<glyph glyph-name="braceright" unicode="&#x7d;" horiz-adv-x="460" d="M236 313 C203 282 184 246 178 200 L150 5 C146 -22 122 -44 98 -44 L77 -44 C66 -44 57 -52 56 -63 L42 -159 C41 -170 47 -178 58 -178 L87 -178 C188 -178 279 -100 293 -2 L321 194 C325 222 351 242 375 242 L410 242 C421 242 430 250 431 261 L446 366 C447 377 441 385 430 385 L395 385 C371 385 350 405 354 433 L382 629 C396 727 327 805 226 805 L197 805 C186 805 177 797 175 786 L161 690 C160 679 167 671 178 671 L199 671 C223 671 241 649 237 622 L210 427 C203 381 212 344 236 313 L236 313 Z " />
<glyph glyph-name="asciitilde" unicode="&#x7e;" horiz-adv-x="421" d="M285 154 C312 154 341 167 369 183 C378 189 383 198 385 207 L372 285 C371 292 363 298 353 298 C350 298 346 298 343 297 C332 292 312 288 304 288 C255 288 250 325 202 325 C175 325 146 312 118 296 C109 290 104 281 103 272 L116 194 C117 187 124 181 134 181 C137 181 141 181 144 182 C156 187 175 191 183 191 C233 191 237 154 285 154 L285 154 Z " />
<glyph glyph-name="uni00A0" unicode="&#xa0;" horiz-adv-x="198" d="" />
<glyph glyph-name="exclamdown" unicode="&#xa1;" horiz-adv-x="278" d="M172 526 C161 526 153 518 151 507 L121 391 L68 13 C67 2 74 -6 85 -6 L191 -6 C202 -6 211 2 212 13 L265 391 L269 507 C269 518 263 526 252 526 L172 526 Z M147 584 C145 573 152 565 163 565 L273 565 C284 565 293 573 295 584 L308 681 C310 692 303 700 292 700 L182 700 C171 700 162 692 160 681 L147 584 Z " />
<glyph glyph-name="cent" unicode="&#xa2;" horiz-adv-x="587" d="M206 -118 C204 -129 211 -137 222 -137 L328 -137 C339 -137 348 -129 350 -118 L366 -3 C456 9 533 82 546 171 L551 210 C553 221 546 229 535 229 L429 229 C418 229 409 221 407 210 L403 178 C399 151 375 129 351 129 L272 129 C248 129 230 151 234 178 L282 522 C286 549 310 571 334 571 L413 571 C437 571 455 549 451 522 L446 490 C445 479 452 471 463 471 L569 471 C580 471 589 479 590 490 L596 529 C608 618 551 690 465 703 L481 813 C482 824 475 832 464 832 L358 832 C347 832 338 824 337 813 L321 703 C230 691 151 619 139 529 L89 171 C76 81 134 8 222 -3 L206 -118 Z " />
<glyph glyph-name="sterling" unicode="&#xa3;" horiz-adv-x="616" d="M204 399 L140 399 C129 399 119 391 118 380 L104 284 C103 273 110 265 121 265 L185 265 L166 134 L102 134 C91 134 82 126 81 115 L67 19 C66 8 73 0 84 0 L532 0 C543 0 552 8 553 19 L567 115 C568 126 561 134 550 134 L310 134 L329 265 L421 265 C432 265 441 273 442 284 L456 380 C457 391 451 399 440 399 L348 399 L367 537 C369 553 386 567 401 567 L448 567 C463 567 477 553 475 537 L473 522 C471 511 478 503 489 503 L595 503 C606 503 615 511 617 522 L620 542 C631 620 582 700 485 700 L403 700 C307 700 235 620 224 542 L204 399 Z " />
<glyph glyph-name="currency" unicode="&#xa4;" horiz-adv-x="488" d="M244 154 C234 154 224 163 226 175 L235 241 C237 253 249 262 259 262 L301 262 C311 262 321 253 319 241 L310 175 C308 163 296 154 286 154 L244 154 Z M261 368 C255 368 251 368 247 367 L239 396 C237 407 231 415 220 415 L142 415 C131 415 122 407 120 396 L147 305 C135 288 124 265 121 245 L111 171 C108 150 111 128 120 110 L67 19 C66 8 73 0 84 0 L162 0 C173 0 181 8 186 19 L202 48 L298 48 L306 19 C309 8 315 0 326 0 L404 0 C415 0 424 8 425 19 L398 110 C411 128 422 150 425 171 L435 245 C438 265 433 288 425 305 L478 396 C480 407 473 415 462 415 L384 415 C373 415 365 407 359 396 L343 367 C339 368 335 368 329 368 L261 368 Z " />
<glyph glyph-name="yen" unicode="&#xa5;" horiz-adv-x="668" d="M505 76 C516 76 525 84 527 95 L539 183 C541 194 534 202 523 202 L434 202 L437 226 L453 255 L530 255 C541 255 550 263 552 274 L564 362 C566 373 559 381 548 381 L526 381 L698 681 C700 692 693 700 682 700 L577 700 C566 700 558 691 551 681 L395 404 L385 404 L307 681 C304 691 298 700 287 700 L182 700 C171 700 162 692 160 681 L248 381 L226 381 C215 381 206 373 204 362 L192 274 C190 263 197 255 208 255 L284 255 L293 226 L290 202 L201 202 C190 202 181 194 179 183 L167 95 C165 84 172 76 183 76 L272 76 L264 19 C263 8 270 0 281 0 L387 0 C398 0 407 8 408 19 L416 76 L505 76 Z " />
<glyph glyph-name="brokenbar" unicode="&#xa6;" horiz-adv-x="274" d="M121 401 C119 390 126 382 137 382 L243 382 C254 382 263 390 265 401 L319 786 C321 797 314 805 303 805 L197 805 C186 805 177 797 175 786 L121 401 Z M42 -159 C41 -170 47 -178 58 -178 L164 -178 C175 -178 185 -170 186 -159 L240 226 C242 237 235 245 224 245 L118 245 C107 245 98 237 96 226 L42 -159 Z " />
<glyph glyph-name="section" unicode="&#xa7;" horiz-adv-x="514" d="M488 323 L490 335 C500 410 467 449 421 471 L406 478 C334 506 279 502 284 538 L286 550 C288 564 304 572 320 572 L342 572 C358 572 371 558 369 542 L368 536 C366 525 373 517 384 517 L490 517 C501 517 510 525 512 536 L513 543 C524 620 474 700 378 700 L320 700 C224 700 158 631 142 553 L141 545 C134 494 146 459 169 435 C143 409 125 375 118 340 L117 332 C89 132 332 187 324 129 L321 112 C319 98 303 90 287 90 L258 90 C242 90 229 104 231 120 L233 131 C234 142 228 150 217 150 L111 150 C100 150 90 142 89 131 L87 119 C76 42 126 -38 222 -38 L286 -38 C383 -38 453 30 464 108 L466 122 C472 170 461 203 439 227 C466 253 483 286 488 323 L488 323 Z M288 303 C273 303 258 311 260 326 L262 336 C264 351 281 359 296 359 L319 359 C335 359 350 351 348 336 L346 326 C344 311 327 303 311 303 L288 303 Z " />
<glyph glyph-name="dieresis" unicode="&#xa8;" horiz-adv-x="441" d="M146 582 C145 571 152 563 163 563 L258 563 C269 563 278 571 279 582 L293 681 C295 692 288 700 277 700 L182 700 C171 700 162 692 160 681 L146 582 Z M324 582 C323 571 330 563 341 563 L436 563 C447 563 456 571 457 582 L471 681 C473 692 466 700 455 700 L360 700 C349 700 340 692 338 681 L324 582 Z " />
<glyph glyph-name="copyright" unicode="&#xa9;" horiz-adv-x="841" d="M519 699 C323 699 140 540 113 344 C85 148 223 -11 419 -11 C614 -11 796 148 824 344 C851 540 714 699 519 699 L519 699 Z M430 70 C277 70 173 192 195 344 C216 497 355 620 508 620 C662 620 766 497 745 344 C723 192 584 70 430 70 L430 70 Z M297 263 C293 204 326 144 399 144 L477 144 C550 144 599 204 611 263 L613 273 C614 280 610 286 602 286 L529 286 C521 286 515 280 514 273 L513 266 C510 249 493 235 476 235 L426 235 C409 235 394 249 397 266 L419 426 C422 443 440 457 457 457 L507 457 C524 457 538 443 535 426 L534 419 C533 412 538 406 546 406 L619 406 C627 406 632 412 633 419 L635 429 C639 488 607 548 534 548 L456 548 C383 548 333 488 321 429 L297 263 Z " />
<glyph glyph-name="ordfeminine" unicode="&#xaa;" horiz-adv-x="381" d="M222 493 C224 506 237 514 249 514 L301 514 L297 485 C295 472 281 464 268 464 L242 464 C230 464 219 472 221 485 L222 493 Z M188 686 C184 685 180 682 180 677 C180 676 178 663 182 620 C183 613 188 613 193 613 C208 616 239 622 263 622 C303 622 313 602 311 588 L310 580 L241 580 C186 580 142 550 134 497 L131 473 C124 421 159 391 214 391 L228 391 C240 391 266 396 282 413 L287 413 L285 404 C284 398 288 394 294 394 L361 394 C367 394 371 398 372 404 L398 588 C402 616 393 700 283 700 C234 700 202 691 188 686 L188 686 Z " />
<glyph glyph-name="guillemotleft" unicode="&#xab;" horiz-adv-x="699" d="M546 280 L704 501 C705 512 699 520 688 520 L566 520 C555 520 546 511 539 501 L383 286 L379 259 L471 19 C476 9 482 0 493 0 L615 0 C626 0 635 8 636 19 L544 265 L546 280 Z M268 280 L426 501 C427 512 421 520 410 520 L288 520 C277 520 268 511 261 501 L105 286 L101 259 L193 19 C198 9 204 0 215 0 L337 0 C348 0 357 8 358 19 L266 265 L268 280 Z " />
<glyph glyph-name="logicalnot" unicode="&#xac;" horiz-adv-x="516" d="M317 77 C316 66 323 58 334 58 L440 58 C451 58 460 66 461 77 L493 305 C495 316 488 324 477 324 L129 324 C118 324 109 316 107 305 L94 209 C92 198 99 190 110 190 L333 190 L317 77 Z " />
<glyph glyph-name="uni00AD" unicode="&#xad;" horiz-adv-x="198" d="" />
<glyph glyph-name="registered" unicode="&#xae;" horiz-adv-x="841" d="M519 699 C323 699 140 540 113 344 C85 148 223 -11 419 -11 C614 -11 796 148 824 344 C851 540 714 699 519 699 L519 699 Z M430 70 C277 70 173 192 195 344 C216 497 355 620 508 620 C662 620 766 497 745 344 C723 192 584 70 430 70 L430 70 Z M429 357 L443 459 L510 459 C527 459 540 443 537 424 L532 391 C530 372 513 357 496 357 L429 357 Z M302 161 C301 154 305 148 313 148 L386 148 C394 148 400 154 401 161 L416 266 L471 266 L505 158 C506 152 509 148 515 148 L595 148 C601 148 606 152 607 158 L566 279 C597 297 622 328 627 364 L639 451 C647 506 608 550 551 550 L370 550 C362 550 356 544 355 537 L302 161 Z " />
<glyph glyph-name="macron" unicode="&#xaf;" horiz-adv-x="393" d="M390 578 C401 578 410 586 411 597 L423 681 C425 692 418 700 407 700 L182 700 C171 700 162 692 160 681 L148 597 C147 586 154 578 165 578 L390 578 Z " />
<glyph glyph-name="degree" unicode="&#xb0;" horiz-adv-x="414" d="M311 751 C234 751 161 688 150 609 C139 532 194 468 271 468 C351 468 423 532 434 609 C445 688 391 751 311 751 L311 751 Z M285 568 C263 568 247 587 250 609 C253 632 275 651 297 651 C320 651 336 632 333 609 C330 587 308 568 285 568 L285 568 Z " />
<glyph glyph-name="plusminus" unicode="&#xb1;" horiz-adv-x="434" d="M345 404 L358 496 C360 507 353 515 342 515 L236 515 C225 515 216 507 214 496 L201 404 L140 404 C129 404 120 396 119 385 L105 290 C104 279 111 271 122 271 L183 271 L170 179 C168 168 175 160 186 160 L292 160 C303 160 312 168 314 179 L327 271 L388 271 C399 271 408 279 409 290 L423 385 C424 396 417 404 406 404 L345 404 Z M350 0 C361 0 370 8 371 19 L385 114 C386 125 379 133 368 133 L102 133 C91 133 82 125 81 114 L67 19 C66 8 73 0 84 0 L350 0 Z " />
<glyph glyph-name="twosuperior" unicode="&#xb2;" horiz-adv-x="346" d="M222 471 C229 522 344 468 364 611 L366 625 C372 667 343 700 300 700 L245 700 C202 700 164 667 158 625 L154 593 C153 588 156 585 161 585 L219 585 C224 585 227 588 228 593 L229 598 C231 613 239 624 252 624 L262 624 C275 624 280 614 279 605 L278 600 C268 531 148 592 129 461 L121 401 C120 397 123 394 127 394 L329 394 C333 394 336 397 337 401 L346 463 C346 468 344 471 340 471 L222 471 Z " />
<glyph glyph-name="threesuperior" unicode="&#xb3;" horiz-adv-x="338" d="M309 547 C333 557 354 578 358 611 L360 625 C366 667 337 700 294 700 L239 700 C196 700 158 667 152 625 L148 593 C147 588 150 585 155 585 L213 585 C218 585 221 588 222 593 L223 598 C225 613 233 624 246 624 L256 624 C269 624 274 614 273 605 L272 599 C270 590 263 580 250 580 L233 580 C229 580 226 577 225 572 L218 522 C217 517 220 514 224 514 L241 514 C254 514 258 504 257 495 L256 489 C255 480 248 470 235 470 L225 470 C212 470 206 481 208 496 L209 501 C210 506 207 509 202 509 L144 509 C139 509 136 506 135 501 L130 469 C125 427 153 394 196 394 L251 394 C294 394 333 427 338 469 L340 483 C345 516 330 537 309 547 L309 547 Z " />
<glyph glyph-name="acute" unicode="&#xb4;" horiz-adv-x="331" d="M257 527 C268 527 277 536 282 545 L361 682 C363 692 357 700 346 700 L246 700 C235 700 226 691 220 682 L141 545 C140 535 147 527 157 527 L257 527 Z " />
<glyph glyph-name="mu" unicode="&#xb5;" horiz-adv-x="508" d="M43 -155 C41 -166 48 -174 59 -174 L165 -174 C176 -174 185 -166 187 -155 L208 -4 C212 -5 216 -5 221 -5 L285 -5 C381 -5 453 75 464 152 L512 496 C514 507 507 515 496 515 L390 515 C379 515 370 507 368 496 L321 158 C318 142 301 128 286 128 L256 128 C242 128 230 140 230 154 L278 496 C280 507 273 515 262 515 L156 515 C145 515 136 507 134 496 L43 -155 Z " />
<glyph glyph-name="paragraph" unicode="&#xb6;" horiz-adv-x="705" d="M346 700 C245 700 152 622 138 524 L126 436 C112 338 183 260 284 260 L324 260 L290 19 C289 8 296 0 307 0 L413 0 C424 0 433 8 434 19 L511 566 L575 566 L498 19 C497 8 504 0 515 0 L621 0 C632 0 641 8 642 19 L735 681 C737 692 730 700 719 700 L346 700 Z " />
<glyph glyph-name="periodcentered" unicode="&#xb7;" horiz-adv-x="271" d="M89 177 C88 167 95 159 105 159 L210 159 C220 159 229 167 230 177 L245 282 C247 292 240 300 230 300 L125 300 C115 300 106 292 104 282 L89 177 Z " />
<glyph glyph-name="cedilla" unicode="&#xb8;" horiz-adv-x="309" d="M129 -92 C129 -92 141 -92 139 -105 C137 -118 125 -118 125 -118 L63 -118 C55 -118 47 -124 46 -133 L39 -180 C38 -188 44 -195 52 -195 L139 -195 C199 -195 220 -168 230 -93 C236 -53 211 -29 179 -23 L202 8 C203 19 196 27 185 27 L130 27 C119 27 113 17 106 8 L77 -32 C73 -37 70 -45 70 -48 L66 -77 C65 -85 71 -92 79 -92 L129 -92 Z " />
<glyph glyph-name="onesuperior" unicode="&#xb9;" horiz-adv-x="349" d="M228 623 L207 471 L153 471 C147 471 141 466 140 460 L132 405 C132 399 136 394 142 394 L328 394 C334 394 340 399 340 405 L348 460 C349 466 345 471 339 471 L294 471 L324 689 C325 695 321 700 315 700 L238 700 L170 674 C164 672 158 666 157 660 L150 608 C149 602 153 597 159 597 L228 623 Z " />
<glyph glyph-name="ordmasculine" unicode="&#xba;" horiz-adv-x="414" d="M311 751 C234 751 161 688 150 609 C139 532 194 468 271 468 C351 468 423 532 434 609 C445 688 391 751 311 751 L311 751 Z M285 568 C263 568 247 587 250 609 C253 632 275 651 297 651 C320 651 336 632 333 609 C330 587 308 568 285 568 L285 568 Z " />
<glyph glyph-name="guillemotright" unicode="&#xbb;" horiz-adv-x="699" d="M229 265 L67 19 C66 8 73 0 84 0 L206 0 C217 0 225 9 232 19 L392 259 L396 286 L300 501 C295 511 290 520 279 520 L157 520 C146 520 136 512 135 501 L231 280 L229 265 Z M507 265 L345 19 C344 8 351 0 362 0 L484 0 C495 0 503 9 510 19 L670 259 L674 286 L578 501 C573 511 568 520 557 520 L435 520 C424 520 414 512 413 501 L509 280 L507 265 Z " />
<glyph glyph-name="onequarter" unicode="&#xbc;" horiz-adv-x="754" d="M251 0 C261 0 268 7 274 17 L706 683 C708 693 702 700 692 700 L628 700 C618 700 610 693 604 683 L172 17 C170 7 177 0 187 0 L251 0 Z M228 623 L207 471 L153 471 C147 471 141 466 140 460 L132 405 C132 399 136 394 142 394 L328 394 C334 394 340 399 340 405 L348 460 C349 466 345 471 339 471 L294 471 L324 689 C325 695 321 700 315 700 L238 700 L170 674 C164 672 158 666 157 660 L150 608 C149 602 153 597 159 597 L228 623 Z M634 295 C635 301 631 306 625 306 L565 306 C559 306 553 300 550 295 L438 97 L432 54 C431 48 436 43 442 43 L585 43 L580 11 C579 5 584 0 590 0 L655 0 C661 0 666 5 667 11 L672 43 L684 43 C690 43 695 48 696 54 L704 109 C705 115 700 120 694 120 L682 120 L692 189 C693 195 689 200 683 200 L618 200 C612 200 606 195 605 189 L595 120 L535 120 L634 295 Z " />
<glyph glyph-name="onehalf" unicode="&#xbd;" horiz-adv-x="753" d="M251 0 C261 0 268 7 274 17 L706 683 C708 693 702 700 692 700 L628 700 C618 700 610 693 604 683 L172 17 C170 7 177 0 187 0 L251 0 Z M228 623 L207 471 L153 471 C147 471 141 466 140 460 L132 405 C132 399 136 394 142 394 L328 394 C334 394 340 399 340 405 L348 460 C349 466 345 471 339 471 L294 471 L324 689 C325 695 321 700 315 700 L238 700 L170 674 C164 672 158 666 157 660 L150 608 C149 602 153 597 159 597 L228 623 Z M573 77 C580 128 696 74 716 217 L718 231 C724 273 695 306 652 306 L597 306 C554 306 516 273 510 231 L505 199 C505 194 507 191 512 191 L570 191 C575 191 579 194 579 199 L580 204 C582 219 591 230 604 230 L614 230 C627 230 631 220 630 211 L629 206 C620 137 499 198 481 67 L472 7 C472 3 475 0 479 0 L681 0 C685 0 688 3 688 7 L697 69 C698 74 695 77 691 77 L573 77 Z " />
<glyph glyph-name="threequarters" unicode="&#xbe;" horiz-adv-x="721" d="M218 0 C228 0 235 7 241 17 L673 683 C675 693 669 700 659 700 L595 700 C585 700 577 693 571 683 L139 17 C137 7 144 0 154 0 L218 0 Z M659 189 C660 195 656 200 650 200 L585 200 C579 200 573 195 572 189 L562 120 L512 120 L598 299 C598 303 596 306 592 306 L523 306 C519 306 516 303 514 299 L418 97 L412 54 C411 48 416 43 422 43 L552 43 L547 11 C546 5 551 0 557 0 L622 0 C628 0 633 5 634 11 L639 43 L651 43 C657 43 662 48 663 54 L671 109 C672 115 667 120 661 120 L649 120 L659 189 Z M309 547 C333 557 354 578 358 611 L360 625 C366 667 337 700 294 700 L239 700 C196 700 158 667 152 625 L148 593 C147 588 150 585 155 585 L213 585 C218 585 221 588 222 593 L223 598 C225 613 233 624 246 624 L256 624 C269 624 274 614 273 605 L272 599 C270 590 263 580 250 580 L233 580 C229 580 226 577 225 572 L218 522 C217 517 220 514 224 514 L241 514 C254 514 258 504 257 495 L256 489 C255 480 248 470 235 470 L225 470 C212 470 206 481 208 496 L209 501 C210 506 207 509 202 509 L144 509 C139 509 136 506 135 501 L130 469 C125 427 153 394 196 394 L251 394 C294 394 333 427 338 469 L340 483 C345 516 330 537 309 547 L309 547 Z " />
<glyph glyph-name="questiondown" unicode="&#xbf;" horiz-adv-x="577" d="M311 499 C291 356 132 482 95 220 L89 176 C75 78 147 0 248 0 L331 0 C432 0 522 78 536 176 L543 223 C544 234 538 242 527 242 L421 242 C410 242 400 234 399 223 L393 183 C389 156 365 134 341 134 L273 134 C248 134 230 156 234 183 L239 216 C260 364 413 247 454 495 L457 513 C458 524 451 532 440 532 L334 532 C323 532 314 524 313 513 L311 499 Z M469 589 C468 578 459 570 448 570 L338 570 C327 570 320 578 321 589 L335 686 C336 697 346 705 357 705 L467 705 C478 705 484 697 483 686 L469 589 Z " />
<glyph glyph-name="Agrave" unicode="&#xc0;" horiz-adv-x="585" d="M443 751 C453 751 462 759 464 769 L423 906 C420 915 413 924 402 924 L302 924 C291 924 283 916 282 906 L323 769 C325 760 332 751 343 751 L443 751 Z M315 700 C304 700 296 691 291 681 L22 19 C21 8 28 0 39 0 L145 0 C156 0 165 8 169 19 L207 115 L410 115 L420 19 C422 8 429 0 440 0 L546 0 C557 0 566 8 567 19 L484 681 C483 691 477 700 466 700 L315 700 Z M356 499 L369 499 L395 248 L258 248 L356 499 Z " />
<glyph glyph-name="Aacute" unicode="&#xc1;" horiz-adv-x="585" d="M453 751 C464 751 473 760 479 769 L558 906 C559 916 553 924 542 924 L442 924 C431 924 422 915 417 906 L338 769 C336 759 343 751 353 751 L453 751 Z M315 700 C304 700 296 691 291 681 L22 19 C21 8 28 0 39 0 L145 0 C156 0 165 8 169 19 L207 115 L410 115 L420 19 C422 8 429 0 440 0 L546 0 C557 0 566 8 567 19 L484 681 C483 691 477 700 466 700 L315 700 Z M356 499 L369 499 L395 248 L258 248 L356 499 Z " />
<glyph glyph-name="Acircumflex" unicode="&#xc2;" horiz-adv-x="585" d="M376 959 C364 959 356 955 349 944 L239 770 C237 759 244 751 255 751 L349 751 C360 751 369 760 375 770 L407 821 L425 770 C427 760 434 751 445 751 L539 751 C550 751 559 759 561 770 L499 944 C496 955 488 959 476 959 L376 959 Z M315 700 C304 700 296 691 291 681 L22 19 C21 8 28 0 39 0 L145 0 C156 0 165 8 169 19 L207 115 L410 115 L420 19 C422 8 429 0 440 0 L546 0 C557 0 566 8 567 19 L484 681 C483 691 477 700 466 700 L315 700 Z M356 499 L369 499 L395 248 L258 248 L356 499 Z " />
<glyph glyph-name="Atilde" unicode="&#xc3;" horiz-adv-x="585" d="M451 751 C478 751 507 764 535 780 C544 786 549 795 550 804 L537 882 C536 889 529 895 519 895 C516 895 512 895 509 894 C497 889 478 885 470 885 C421 885 416 922 368 922 C341 922 312 909 284 893 C275 887 270 878 269 869 L282 791 C283 784 290 778 300 778 C303 778 307 778 310 779 C322 784 341 788 349 788 C399 788 403 751 451 751 L451 751 Z M315 700 C304 700 296 691 291 681 L22 19 C21 8 28 0 39 0 L145 0 C156 0 165 8 169 19 L207 115 L410 115 L420 19 C422 8 429 0 440 0 L546 0 C557 0 566 8 567 19 L484 681 C483 691 477 700 466 700 L315 700 Z M356 499 L369 499 L395 248 L258 248 L356 499 Z " />
<glyph glyph-name="Adieresis" unicode="&#xc4;" horiz-adv-x="585" d="M246 770 C244 759 251 751 262 751 L357 751 C368 751 377 759 379 770 L393 869 C394 880 387 888 376 888 L281 888 C270 888 261 880 260 869 L246 770 Z M424 770 C422 759 429 751 440 751 L535 751 C546 751 555 759 557 770 L571 869 C572 880 565 888 554 888 L459 888 C448 888 439 880 438 869 L424 770 Z M315 700 C304 700 296 691 291 681 L22 19 C21 8 28 0 39 0 L145 0 C156 0 165 8 169 19 L207 115 L410 115 L420 19 C422 8 429 0 440 0 L546 0 C557 0 566 8 567 19 L484 681 C483 691 477 700 466 700 L315 700 Z M356 499 L369 499 L395 248 L258 248 L356 499 Z " />
<glyph glyph-name="Aring" unicode="&#xc5;" horiz-adv-x="585" d="M417 883 C340 883 267 820 256 741 C251 705 259 673 278 648 L22 19 C21 8 28 0 39 0 L145 0 C156 0 165 8 169 19 L207 115 L410 115 L420 19 C422 8 429 0 440 0 L546 0 C557 0 566 8 567 19 L488 645 C516 670 534 704 540 741 C551 820 497 883 417 883 L417 883 Z M356 499 L369 499 L395 248 L258 248 L356 499 Z M391 700 C369 700 353 719 356 741 C359 764 381 783 403 783 C426 783 442 764 439 741 C436 719 414 700 391 700 L391 700 Z " />
<glyph glyph-name="AE" unicode="&#xc6;" horiz-adv-x="850" d="M310 248 L483 548 L440 248 L310 248 Z M17 19 C16 8 23 0 34 0 L149 0 C160 0 168 9 174 19 L234 115 L422 115 L408 19 C407 8 414 0 425 0 L776 0 C787 0 796 8 797 19 L811 115 C812 126 805 134 794 134 L568 134 L591 296 L795 296 C806 296 815 304 817 315 L830 411 C832 422 825 430 814 430 L610 430 L629 566 L855 566 C866 566 875 574 877 585 L890 681 C892 692 885 700 874 700 L435 700 C421 700 414 694 406 683 L17 19 Z " />
<glyph glyph-name="Ccedilla" unicode="&#xc7;" horiz-adv-x="552" d="M271 -92 C271 -92 283 -92 281 -105 C279 -118 267 -118 267 -118 L205 -118 C197 -118 189 -124 188 -133 L181 -180 C180 -188 186 -195 194 -195 L281 -195 C341 -195 362 -168 372 -93 C378 -53 353 -29 321 -23 L334 -5 C433 -1 522 75 536 171 L541 210 C543 221 536 229 525 229 L419 229 C408 229 399 221 397 210 L393 178 C389 151 365 129 341 129 L262 129 C238 129 220 151 224 178 L272 522 C276 549 300 571 324 571 L403 571 C427 571 445 549 441 522 L436 490 C435 479 442 471 453 471 L559 471 C570 471 579 479 580 490 L586 529 C600 627 530 705 428 705 L337 705 C235 705 143 627 129 529 L79 171 C65 73 135 -5 238 -5 L219 -32 C215 -37 212 -45 212 -48 L208 -77 C207 -85 213 -92 221 -92 L271 -92 Z " />
<glyph glyph-name="Egrave" unicode="&#xc8;" horiz-adv-x="509" d="M416 751 C426 751 435 759 437 769 L396 906 C393 915 386 924 375 924 L275 924 C264 924 256 916 255 906 L296 769 C298 760 305 751 316 751 L416 751 Z M67 19 C66 8 73 0 84 0 L435 0 C446 0 455 8 456 19 L470 115 C471 126 464 134 453 134 L227 134 L250 296 L454 296 C465 296 474 304 476 315 L489 411 C491 422 484 430 473 430 L269 430 L288 566 L514 566 C525 566 534 574 536 585 L549 681 C551 692 544 700 533 700 L182 700 C171 700 162 692 160 681 L67 19 Z " />
<glyph glyph-name="Eacute" unicode="&#xc9;" horiz-adv-x="509" d="M416 751 C427 751 436 760 442 769 L521 906 C522 916 516 924 505 924 L405 924 C394 924 385 915 380 906 L301 769 C299 759 306 751 316 751 L416 751 Z M67 19 C66 8 73 0 84 0 L435 0 C446 0 455 8 456 19 L470 115 C471 126 464 134 453 134 L227 134 L250 296 L454 296 C465 296 474 304 476 315 L489 411 C491 422 484 430 473 430 L269 430 L288 566 L514 566 C525 566 534 574 536 585 L549 681 C551 692 544 700 533 700 L182 700 C171 700 162 692 160 681 L67 19 Z " />
<glyph glyph-name="Ecircumflex" unicode="&#xca;" horiz-adv-x="509" d="M345 959 C333 959 325 955 318 944 L208 770 C206 759 213 751 224 751 L318 751 C329 751 338 760 344 770 L376 821 L394 770 C396 760 403 751 414 751 L508 751 C519 751 528 759 530 770 L468 944 C465 955 457 959 445 959 L345 959 Z M67 19 C66 8 73 0 84 0 L435 0 C446 0 455 8 456 19 L470 115 C471 126 464 134 453 134 L227 134 L250 296 L454 296 C465 296 474 304 476 315 L489 411 C491 422 484 430 473 430 L269 430 L288 566 L514 566 C525 566 534 574 536 585 L549 681 C551 692 544 700 533 700 L182 700 C171 700 162 692 160 681 L67 19 Z " />
<glyph glyph-name="Edieresis" unicode="&#xcb;" horiz-adv-x="509" d="M211 770 C209 759 216 751 227 751 L322 751 C333 751 342 759 344 770 L358 869 C359 880 352 888 341 888 L246 888 C235 888 226 880 225 869 L211 770 Z M389 770 C387 759 394 751 405 751 L500 751 C511 751 520 759 522 770 L536 869 C537 880 530 888 519 888 L424 888 C413 888 404 880 403 869 L389 770 Z M67 19 C66 8 73 0 84 0 L435 0 C446 0 455 8 456 19 L470 115 C471 126 464 134 453 134 L227 134 L250 296 L454 296 C465 296 474 304 476 315 L489 411 C491 422 484 430 473 430 L269 430 L288 566 L514 566 C525 566 534 574 536 585 L549 681 C551 692 544 700 533 700 L182 700 C171 700 162 692 160 681 L67 19 Z " />
<glyph glyph-name="Igrave" unicode="&#xcc;" horiz-adv-x="274" d="M67 19 C66 8 73 0 84 0 L190 0 C201 0 210 8 211 19 L304 681 C306 692 299 700 288 700 L182 700 C171 700 162 692 160 681 L67 19 Z M293 751 C303 751 312 759 314 769 L273 906 C270 915 263 924 252 924 L152 924 C141 924 133 916 132 906 L173 769 C175 760 182 751 193 751 L293 751 Z " />
<glyph glyph-name="Iacute" unicode="&#xcd;" horiz-adv-x="274" d="M304 681 C306 692 299 700 288 700 L182 700 C171 700 162 692 160 681 L67 19 C66 8 73 0 84 0 L190 0 C201 0 210 8 211 19 L304 681 Z M291 751 C302 751 311 760 317 769 L396 906 C397 916 391 924 380 924 L280 924 C269 924 260 915 255 906 L176 769 C174 759 181 751 191 751 L291 751 Z " />
<glyph glyph-name="Icircumflex" unicode="&#xce;" horiz-adv-x="274" d="M304 681 C306 692 299 700 288 700 L182 700 C171 700 162 692 160 681 L67 19 C66 8 73 0 84 0 L190 0 C201 0 210 8 211 19 L304 681 Z M221 959 C209 959 201 955 194 944 L84 770 C82 759 89 751 100 751 L194 751 C205 751 214 760 220 770 L252 821 L270 770 C272 760 279 751 290 751 L384 751 C395 751 404 759 406 770 L344 944 C341 955 333 959 321 959 L221 959 Z " />
<glyph glyph-name="Idieresis" unicode="&#xcf;" horiz-adv-x="274" d="M304 681 C306 692 299 700 288 700 L182 700 C171 700 162 692 160 681 L67 19 C66 8 73 0 84 0 L190 0 C201 0 210 8 211 19 L304 681 Z M85 770 C83 759 90 751 101 751 L196 751 C207 751 216 759 218 770 L232 869 C233 880 226 888 215 888 L120 888 C109 888 100 880 99 869 L85 770 Z M270 770 C268 759 275 751 286 751 L381 751 C392 751 401 759 403 770 L417 869 C418 880 411 888 400 888 L305 888 C294 888 285 880 284 869 L270 770 Z " />
<glyph glyph-name="Eth" unicode="&#xd0;" horiz-adv-x="587" d="M191 700 C180 700 171 692 169 681 L132 416 L82 416 C71 416 62 408 60 397 L47 301 C45 290 52 282 63 282 L113 282 L76 19 C75 8 82 0 93 0 L349 0 C450 0 542 78 556 176 L605 524 C619 622 548 700 447 700 L191 700 Z M318 282 C329 282 338 290 340 301 L353 397 C355 408 348 416 337 416 L276 416 L297 567 L421 567 C445 567 464 545 460 518 L413 182 C409 155 384 133 360 133 L236 133 L257 282 L318 282 Z " />
<glyph glyph-name="Ntilde" unicode="&#xd1;" horiz-adv-x="615" d="M310 700 L182 700 C171 700 162 692 160 681 L67 19 C66 8 73 0 84 0 L190 0 C201 0 210 8 211 19 L261 373 L268 373 L378 16 C381 6 387 0 402 0 L531 0 C542 0 551 8 552 19 L645 681 C647 692 640 700 629 700 L523 700 C512 700 503 692 501 681 L451 321 L444 321 L334 684 C330 694 325 700 310 700 L310 700 Z M455 751 C482 751 511 764 539 780 C548 786 553 795 554 804 L541 882 C540 889 533 895 523 895 C520 895 516 895 513 894 C501 889 482 885 474 885 C425 885 420 922 372 922 C345 922 316 909 288 893 C279 887 274 878 273 869 L286 791 C287 784 294 778 304 778 C307 778 311 778 314 779 C326 784 345 788 353 788 C403 788 407 751 455 751 L455 751 Z " />
<glyph glyph-name="Ograve" unicode="&#xd2;" horiz-adv-x="567" d="M435 751 C445 751 454 759 456 769 L415 906 C412 915 405 924 394 924 L294 924 C283 924 275 916 274 906 L315 769 C317 760 324 751 335 751 L435 751 Z M262 129 C238 129 220 151 224 178 L272 522 C276 549 300 571 324 571 L403 571 C427 571 445 549 441 522 L393 178 C389 151 365 129 341 129 L262 129 Z M328 -5 C430 -5 522 73 536 171 L586 529 C600 627 530 705 428 705 L337 705 C235 705 143 627 129 529 L79 171 C65 73 135 -5 237 -5 L328 -5 Z " />
<glyph glyph-name="Oacute" unicode="&#xd3;" horiz-adv-x="567" d="M442 751 C453 751 462 760 468 769 L547 906 C548 916 542 924 531 924 L431 924 C420 924 411 915 406 906 L327 769 C325 759 332 751 342 751 L442 751 Z M262 129 C238 129 220 151 224 178 L272 522 C276 549 300 571 324 571 L403 571 C427 571 445 549 441 522 L393 178 C389 151 365 129 341 129 L262 129 Z M328 -5 C430 -5 522 73 536 171 L586 529 C600 627 530 705 428 705 L337 705 C235 705 143 627 129 529 L79 171 C65 73 135 -5 237 -5 L328 -5 Z " />
<glyph glyph-name="Ocircumflex" unicode="&#xd4;" horiz-adv-x="567" d="M367 959 C355 959 347 955 340 944 L230 770 C228 759 235 751 246 751 L340 751 C351 751 360 760 366 770 L398 821 L416 770 C418 760 425 751 436 751 L530 751 C541 751 550 759 552 770 L490 944 C487 955 479 959 467 959 L367 959 Z M262 129 C238 129 220 151 224 178 L272 522 C276 549 300 571 324 571 L403 571 C427 571 445 549 441 522 L393 178 C389 151 365 129 341 129 L262 129 Z M328 -5 C430 -5 522 73 536 171 L586 529 C600 627 530 705 428 705 L337 705 C235 705 143 627 129 529 L79 171 C65 73 135 -5 237 -5 L328 -5 Z " />
<glyph glyph-name="Otilde" unicode="&#xd5;" horiz-adv-x="567" d="M262 129 C238 129 220 151 224 178 L272 522 C276 549 300 571 324 571 L403 571 C427 571 445 549 441 522 L393 178 C389 151 365 129 341 129 L262 129 Z M328 -5 C430 -5 522 73 536 171 L586 529 C600 627 530 705 428 705 L337 705 C235 705 143 627 129 529 L79 171 C65 73 135 -5 237 -5 L328 -5 Z M443 751 C470 751 499 764 527 780 C536 786 541 795 542 804 L529 882 C528 889 521 895 511 895 C508 895 504 895 501 894 C489 889 470 885 462 885 C413 885 408 922 360 922 C333 922 304 909 276 893 C267 887 262 878 261 869 L274 791 C275 784 282 778 292 778 C295 778 299 778 302 779 C314 784 333 788 341 788 C391 788 395 751 443 751 L443 751 Z " />
<glyph glyph-name="Odieresis" unicode="&#xd6;" horiz-adv-x="567" d="M236 770 C234 759 241 751 252 751 L347 751 C358 751 367 759 369 770 L383 869 C384 880 377 888 366 888 L271 888 C260 888 251 880 250 869 L236 770 Z M414 770 C412 759 419 751 430 751 L525 751 C536 751 545 759 547 770 L561 869 C562 880 555 888 544 888 L449 888 C438 888 429 880 428 869 L414 770 Z M262 129 C238 129 220 151 224 178 L272 522 C276 549 300 571 324 571 L403 571 C427 571 445 549 441 522 L393 178 C389 151 365 129 341 129 L262 129 Z M328 -5 C430 -5 522 73 536 171 L586 529 C600 627 530 705 428 705 L337 705 C235 705 143 627 129 529 L79 171 C65 73 135 -5 237 -5 L328 -5 Z " />
<glyph glyph-name="multiply" unicode="&#xd7;" horiz-adv-x="438" d="M232 97 L285 34 C290 30 294 29 298 29 C302 29 307 30 310 34 L381 96 C385 99 387 104 388 108 C388 112 388 116 385 121 L330 184 L402 248 C406 251 408 256 409 260 C410 264 408 268 406 272 L353 334 C350 337 346 339 342 339 C338 339 333 337 328 334 L256 269 L202 334 C199 337 194 339 190 339 C186 339 182 337 177 334 L108 272 C104 268 102 264 101 260 C100 256 102 251 104 248 L158 184 L87 121 C82 116 80 112 80 108 C79 104 79 99 83 96 L136 34 C139 30 144 29 148 29 C152 29 156 30 161 34 L232 97 Z " />
<glyph glyph-name="Oslash" unicode="&#xd8;" horiz-adv-x="567" d="M75 -72 C74 -83 81 -91 92 -91 L180 -91 C191 -91 200 -83 204 -72 L235 -5 L328 -5 C430 -5 522 73 536 171 L586 529 C593 582 576 629 542 661 C559 698 576 734 593 772 C595 783 588 791 577 791 L489 791 C478 791 469 783 464 772 L433 705 L337 705 C235 705 143 627 129 529 L79 171 C71 116 89 67 124 35 L75 -72 Z M272 522 C276 549 300 571 324 571 L371 571 L238 281 L272 522 Z M341 129 L297 129 C341 223 382 314 424 405 L393 178 C389 151 365 129 341 129 L341 129 Z " />
<glyph glyph-name="Ugrave" unicode="&#xd9;" horiz-adv-x="577" d="M440 751 C450 751 459 759 461 769 L420 906 C417 915 410 924 399 924 L299 924 C288 924 280 916 279 906 L320 769 C322 760 329 751 340 751 L440 751 Z M612 681 C614 692 607 700 596 700 L490 700 C479 700 470 692 468 681 L398 178 C394 151 370 129 346 129 L267 129 C243 129 225 151 229 178 L299 681 C301 692 294 700 283 700 L177 700 C166 700 157 692 155 681 L84 171 C70 73 140 -5 242 -5 L333 -5 C435 -5 527 73 541 171 L612 681 Z " />
<glyph glyph-name="Uacute" unicode="&#xda;" horiz-adv-x="577" d="M447 751 C458 751 467 760 473 769 L552 906 C553 916 547 924 536 924 L436 924 C425 924 416 915 411 906 L332 769 C330 759 337 751 347 751 L447 751 Z M612 681 C614 692 607 700 596 700 L490 700 C479 700 470 692 468 681 L398 178 C394 151 370 129 346 129 L267 129 C243 129 225 151 229 178 L299 681 C301 692 294 700 283 700 L177 700 C166 700 157 692 155 681 L84 171 C70 73 140 -5 242 -5 L333 -5 C435 -5 527 73 541 171 L612 681 Z " />
<glyph glyph-name="Ucircumflex" unicode="&#xdb;" horiz-adv-x="577" d="M371 949 C359 949 350 945 344 934 L233 760 C232 749 239 741 250 741 L344 741 C355 741 364 750 369 760 L401 811 L419 760 C422 750 429 741 440 741 L534 741 C545 741 554 749 555 760 L494 934 C490 945 483 949 471 949 L371 949 Z M612 681 C614 692 607 700 596 700 L490 700 C479 700 470 692 468 681 L398 178 C394 151 370 129 346 129 L267 129 C243 129 225 151 229 178 L299 681 C301 692 294 700 283 700 L177 700 C166 700 157 692 155 681 L84 171 C70 73 140 -5 242 -5 L333 -5 C435 -5 527 73 541 171 L612 681 Z " />
<glyph glyph-name="Udieresis" unicode="&#xdc;" horiz-adv-x="577" d="M241 770 C239 759 246 751 257 751 L352 751 C363 751 372 759 374 770 L388 869 C389 880 382 888 371 888 L276 888 C265 888 256 880 255 869 L241 770 Z M419 770 C417 759 424 751 435 751 L530 751 C541 751 550 759 552 770 L566 869 C567 880 560 888 549 888 L454 888 C443 888 434 880 433 869 L419 770 Z M612 681 C614 692 607 700 596 700 L490 700 C479 700 470 692 468 681 L398 178 C394 151 370 129 346 129 L267 129 C243 129 225 151 229 178 L299 681 C301 692 294 700 283 700 L177 700 C166 700 157 692 155 681 L84 171 C70 73 140 -5 242 -5 L333 -5 C435 -5 527 73 541 171 L612 681 Z " />
<glyph glyph-name="Yacute" unicode="&#xdd;" horiz-adv-x="570" d="M445 751 C456 751 465 760 471 769 L550 906 C551 916 545 924 534 924 L434 924 C423 924 414 915 409 906 L330 769 C328 759 335 751 345 751 L445 751 Z M388 226 L650 681 C652 692 645 700 634 700 L531 700 C520 700 512 691 505 681 L347 406 L337 406 L255 681 C252 691 246 700 235 700 L132 700 C121 700 112 692 110 681 L244 226 L215 19 C214 8 221 0 232 0 L338 0 C349 0 358 8 359 19 L388 226 Z " />
<glyph glyph-name="Thorn" unicode="&#xde;" horiz-adv-x="557" d="M241 232 L274 468 L387 468 C412 468 430 446 426 419 L407 281 C403 254 379 232 354 232 L241 232 Z M293 602 L304 683 C306 694 299 702 288 702 L182 702 C171 702 162 694 160 683 L67 19 C66 8 73 0 84 0 L190 0 C201 0 210 8 211 19 L222 98 L342 98 C443 98 536 176 550 274 L571 426 C585 524 514 602 413 602 L293 602 Z " />
<glyph glyph-name="germandbls" unicode="&#xdf;" horiz-adv-x="550" d="M364 283 C389 283 407 261 403 234 L396 182 C392 155 368 133 343 133 L303 133 C292 133 283 125 282 114 L268 19 C267 8 274 0 285 0 L332 0 C433 0 525 78 539 176 L548 238 C555 289 530 333 499 366 C522 393 546 425 551 462 L560 524 C574 622 503 700 402 700 L182 700 C171 700 162 692 160 681 L67 19 C66 8 73 0 84 0 L190 0 C201 0 210 8 211 19 L288 567 L376 567 C400 567 419 545 415 518 L408 465 C404 438 379 416 355 416 L330 416 C319 416 310 408 308 397 L295 302 C293 291 300 283 311 283 L364 283 Z " />
<glyph glyph-name="agrave" unicode="&#xe0;" horiz-adv-x="474" d="M395 571 C405 571 414 579 415 589 L375 726 C372 735 365 744 354 744 L254 744 C243 744 235 736 234 726 L274 589 C277 580 284 571 295 571 L395 571 Z M176 373 C209 382 231 387 269 387 C328 387 328 348 325 326 L324 319 L249 319 C155 319 82 270 70 179 L64 139 C51 48 87 -5 181 -5 L196 -5 C210 -5 259 -2 275 31 L284 31 L282 19 C281 8 288 0 299 0 L405 0 C416 0 425 8 426 19 L469 327 C476 374 489 520 317 520 C234 520 185 506 164 499 C154 496 147 490 146 481 C146 479 144 469 154 387 C155 376 162 372 167 372 C169 372 173 372 176 373 L176 373 Z M213 171 C215 188 232 201 247 201 L308 201 L302 158 C299 142 281 128 266 128 L236 128 C221 128 208 142 211 158 L213 171 Z " />
<glyph glyph-name="aacute" unicode="&#xe1;" horiz-adv-x="474" d="M385 571 C396 571 405 580 410 589 L490 726 C491 736 485 744 474 744 L374 744 C363 744 354 735 349 726 L269 589 C268 579 275 571 285 571 L385 571 Z M176 373 C209 382 231 387 269 387 C328 387 328 348 325 326 L324 319 L249 319 C155 319 82 270 70 179 L64 139 C51 48 87 -5 181 -5 L196 -5 C210 -5 259 -2 275 31 L284 31 L282 19 C281 8 288 0 299 0 L405 0 C416 0 425 8 426 19 L469 327 C476 374 489 520 317 520 C234 520 185 506 164 499 C154 496 147 490 146 481 C146 479 144 469 154 387 C155 376 162 372 167 372 C169 372 173 372 176 373 L176 373 Z M213 171 C215 188 232 201 247 201 L308 201 L302 158 C299 142 281 128 266 128 L236 128 C221 128 208 142 211 158 L213 171 Z " />
<glyph glyph-name="acircumflex" unicode="&#xe2;" horiz-adv-x="474" d="M312 779 C300 779 291 775 285 764 L174 590 C173 579 180 571 191 571 L285 571 C296 571 305 580 310 590 L343 641 L360 590 C363 580 370 571 381 571 L475 571 C486 571 495 579 496 590 L435 764 C431 775 424 779 412 779 L312 779 Z M176 373 C209 382 231 387 269 387 C328 387 328 348 325 326 L324 319 L249 319 C155 319 82 270 70 179 L64 139 C51 48 87 -5 181 -5 L196 -5 C210 -5 259 -2 275 31 L284 31 L282 19 C281 8 288 0 299 0 L405 0 C416 0 425 8 426 19 L469 327 C476 374 489 520 317 520 C234 520 185 506 164 499 C154 496 147 490 146 481 C146 479 144 469 154 387 C155 376 162 372 167 372 C169 372 173 372 176 373 L176 373 Z M213 171 C215 188 232 201 247 201 L308 201 L302 158 C299 142 281 128 266 128 L236 128 C221 128 208 142 211 158 L213 171 Z " />
<glyph glyph-name="atilde" unicode="&#xe3;" horiz-adv-x="474" d="M176 373 C209 382 231 387 269 387 C328 387 328 348 325 326 L324 319 L249 319 C155 319 82 270 70 179 L64 139 C51 48 87 -5 181 -5 L196 -5 C210 -5 259 -2 275 31 L284 31 L282 19 C281 8 288 0 299 0 L405 0 C416 0 425 8 426 19 L469 327 C476 374 489 520 317 520 C234 520 185 506 164 499 C154 496 147 490 146 481 C146 479 144 469 154 387 C155 376 162 372 167 372 C169 372 173 372 176 373 L176 373 Z M213 171 C215 188 232 201 247 201 L308 201 L302 158 C299 142 281 128 266 128 L236 128 C221 128 208 142 211 158 L213 171 Z M389 571 C416 571 445 584 473 600 C482 606 487 615 488 624 L475 702 C474 709 467 715 457 715 C454 715 450 715 447 714 C435 709 416 705 408 705 C359 705 354 742 306 742 C279 742 250 729 222 713 C213 707 208 698 206 689 L219 611 C220 604 228 598 238 598 C241 598 245 598 248 599 C259 604 279 608 287 608 C337 608 341 571 389 571 L389 571 Z " />
<glyph glyph-name="adieresis" unicode="&#xe4;" horiz-adv-x="474" d="M175 590 C174 579 181 571 192 571 L287 571 C298 571 307 579 308 590 L322 689 C324 700 317 708 306 708 L211 708 C200 708 191 700 189 689 L175 590 Z M353 590 C352 579 359 571 370 571 L465 571 C476 571 485 579 486 590 L500 689 C502 700 495 708 484 708 L389 708 C378 708 369 700 367 689 L353 590 Z M176 373 C209 382 231 387 269 387 C328 387 328 348 325 326 L324 319 L249 319 C155 319 82 270 70 179 L64 139 C51 48 87 -5 181 -5 L196 -5 C210 -5 259 -2 275 31 L284 31 L282 19 C281 8 288 0 299 0 L405 0 C416 0 425 8 426 19 L469 327 C476 374 489 520 317 520 C234 520 185 506 164 499 C154 496 147 490 146 481 C146 479 144 469 154 387 C155 376 162 372 167 372 C169 372 173 372 176 373 L176 373 Z M213 171 C215 188 232 201 247 201 L308 201 L302 158 C299 142 281 128 266 128 L236 128 C221 128 208 142 211 158 L213 171 Z " />
<glyph glyph-name="aring" unicode="&#xe5;" horiz-adv-x="474" d="M371 854 C294 854 221 791 210 712 C199 635 254 571 331 571 C411 571 483 635 494 712 C505 791 451 854 371 854 L371 854 Z M345 671 C323 671 306 690 310 712 C313 735 334 754 356 754 C379 754 396 735 393 712 C389 690 368 671 345 671 L345 671 Z M176 373 C209 382 231 387 269 387 C328 387 328 348 325 326 L324 319 L249 319 C155 319 82 270 70 179 L64 139 C51 48 87 -5 181 -5 L196 -5 C210 -5 259 -2 275 31 L284 31 L282 19 C281 8 288 0 299 0 L405 0 C416 0 425 8 426 19 L469 327 C476 374 489 520 317 520 C234 520 185 506 164 499 C154 496 147 490 146 481 C146 479 144 469 154 387 C155 376 162 372 167 372 C169 372 173 372 176 373 L176 373 Z M213 171 C215 188 232 201 247 201 L308 201 L302 158 C299 142 281 128 266 128 L236 128 C221 128 208 142 211 158 L213 171 Z " />
<glyph glyph-name="ae" unicode="&#xe6;" horiz-adv-x="706" d="M656 74 C658 77 660 82 660 85 C661 91 660 95 655 100 L595 155 C593 157 588 158 585 158 C578 158 572 155 568 150 C556 141 539 128 512 128 L471 128 C456 128 443 142 446 158 L451 195 L669 195 C680 195 689 203 691 214 L711 362 C722 440 674 520 577 520 L510 520 C476 520 444 510 418 493 C395 509 363 520 317 520 C234 520 185 506 164 499 C154 496 147 490 146 481 C146 479 144 469 154 387 C155 376 162 372 167 372 C169 372 173 372 176 373 C209 382 231 387 269 387 C328 387 328 348 325 326 L324 319 L249 319 C155 319 82 270 70 179 L64 139 C51 48 87 -5 181 -5 L227 -5 C252 -5 306 4 338 24 L348 24 C370 6 400 -5 436 -5 L494 -5 C494 -5 596 -4 656 74 L656 74 Z M474 357 C476 373 493 387 508 387 L541 387 C556 387 570 373 568 357 L562 315 L468 315 L474 357 Z M213 171 C215 188 232 201 247 201 L308 201 L302 158 C299 142 281 128 266 128 L236 128 C221 128 208 142 211 158 L213 171 Z " />
<glyph glyph-name="ccedilla" unicode="&#xe7;" horiz-adv-x="459" d="M222 -92 C222 -92 234 -92 232 -105 C230 -118 218 -118 218 -118 L156 -118 C148 -118 140 -124 139 -133 L132 -180 C131 -188 137 -195 145 -195 L232 -195 C292 -195 313 -168 323 -93 C329 -53 304 -29 272 -23 L286 -4 C375 3 440 79 450 152 L453 173 C454 184 447 192 436 192 L330 192 C319 192 310 184 309 173 L307 158 C304 142 286 128 271 128 L241 128 C226 128 213 142 216 158 L244 357 C246 373 263 387 278 387 L308 387 C323 387 337 373 335 357 L333 342 C331 331 338 323 349 323 L455 323 C466 323 475 331 477 342 L479 362 C490 440 442 520 345 520 L280 520 C184 520 111 440 100 362 L71 152 C61 79 104 4 190 -4 L170 -32 C166 -37 163 -45 163 -48 L159 -77 C158 -85 164 -92 172 -92 L222 -92 Z " />
<glyph glyph-name="egrave" unicode="&#xe8;" horiz-adv-x="476" d="M368 571 C378 571 387 579 388 589 L348 726 C345 735 338 744 327 744 L227 744 C216 744 208 736 207 726 L247 589 C250 580 257 571 268 571 L368 571 Z M244 357 C246 373 263 387 278 387 L311 387 C326 387 340 373 338 357 L332 315 L238 315 L244 357 Z M426 74 C428 77 430 82 430 85 C431 91 430 95 425 100 L365 155 C363 157 358 158 355 158 C348 158 342 155 338 150 C326 141 309 128 282 128 L241 128 C226 128 213 142 216 158 L221 195 L439 195 C450 195 459 203 461 214 L481 362 C492 440 444 520 347 520 L280 520 C184 520 111 440 100 362 L71 152 C60 75 110 -5 206 -5 L264 -5 C264 -5 366 -4 426 74 L426 74 Z " />
<glyph glyph-name="eacute" unicode="&#xe9;" horiz-adv-x="476" d="M364 571 C375 571 384 580 389 589 L469 726 C470 736 464 744 453 744 L353 744 C342 744 333 735 328 726 L248 589 C247 579 254 571 264 571 L364 571 Z M244 357 C246 373 263 387 278 387 L311 387 C326 387 340 373 338 357 L332 315 L238 315 L244 357 Z M426 74 C428 77 430 82 430 85 C431 91 430 95 425 100 L365 155 C363 157 358 158 355 158 C348 158 342 155 338 150 C326 141 309 128 282 128 L241 128 C226 128 213 142 216 158 L221 195 L439 195 C450 195 459 203 461 214 L481 362 C492 440 444 520 347 520 L280 520 C184 520 111 440 100 362 L71 152 C60 75 110 -5 206 -5 L264 -5 C264 -5 366 -4 426 74 L426 74 Z " />
<glyph glyph-name="ecircumflex" unicode="&#xea;" horiz-adv-x="476" d="M300 779 C288 779 279 775 273 764 L162 590 C161 579 168 571 179 571 L273 571 C284 571 293 580 298 590 L331 641 L348 590 C351 580 358 571 369 571 L463 571 C474 571 483 579 484 590 L423 764 C419 775 412 779 400 779 L300 779 Z M244 357 C246 373 263 387 278 387 L311 387 C326 387 340 373 338 357 L332 315 L238 315 L244 357 Z M426 74 C428 77 430 82 430 85 C431 91 430 95 425 100 L365 155 C363 157 358 158 355 158 C348 158 342 155 338 150 C326 141 309 128 282 128 L241 128 C226 128 213 142 216 158 L221 195 L439 195 C450 195 459 203 461 214 L481 362 C492 440 444 520 347 520 L280 520 C184 520 111 440 100 362 L71 152 C60 75 110 -5 206 -5 L264 -5 C264 -5 366 -4 426 74 L426 74 Z " />
<glyph glyph-name="edieresis" unicode="&#xeb;" horiz-adv-x="476" d="M168 590 C167 579 174 571 185 571 L280 571 C291 571 300 579 301 590 L315 689 C317 700 310 708 299 708 L204 708 C193 708 184 700 182 689 L168 590 Z M346 590 C345 579 352 571 363 571 L458 571 C469 571 478 579 479 590 L493 689 C495 700 488 708 477 708 L382 708 C371 708 362 700 360 689 L346 590 Z M244 357 C246 373 263 387 278 387 L311 387 C326 387 340 373 338 357 L332 315 L238 315 L244 357 Z M426 74 C428 77 430 82 430 85 C431 91 430 95 425 100 L365 155 C363 157 358 158 355 158 C348 158 342 155 338 150 C326 141 309 128 282 128 L241 128 C226 128 213 142 216 158 L221 195 L439 195 C450 195 459 203 461 214 L481 362 C492 440 444 520 347 520 L280 520 C184 520 111 440 100 362 L71 152 C60 75 110 -5 206 -5 L264 -5 C264 -5 366 -4 426 74 L426 74 Z " />
<glyph glyph-name="igrave" unicode="&#xec;" horiz-adv-x="274" d="M67 19 C66 8 73 0 84 0 L190 0 C201 0 210 8 211 19 L278 496 C280 507 273 515 262 515 L156 515 C145 515 136 507 134 496 L67 19 Z M268 571 C278 571 287 579 288 589 L248 726 C245 735 238 744 227 744 L127 744 C116 744 108 736 107 726 L147 589 C150 580 157 571 168 571 L268 571 Z " />
<glyph glyph-name="iacute" unicode="&#xed;" horiz-adv-x="274" d="M278 496 C280 507 273 515 262 515 L156 515 C145 515 136 507 134 496 L67 19 C66 8 73 0 84 0 L190 0 C201 0 210 8 211 19 L278 496 Z M266 571 C277 571 286 580 291 589 L371 726 C372 736 366 744 355 744 L255 744 C244 744 235 735 230 726 L150 589 C149 579 156 571 166 571 L266 571 Z " />
<glyph glyph-name="icircumflex" unicode="&#xee;" horiz-adv-x="274" d="M278 496 C280 507 273 515 262 515 L156 515 C145 515 136 507 134 496 L67 19 C66 8 73 0 84 0 L190 0 C201 0 210 8 211 19 L278 496 Z M196 779 C184 779 175 775 169 764 L58 590 C57 579 64 571 75 571 L169 571 C180 571 189 580 194 590 L227 641 L244 590 C247 580 254 571 265 571 L359 571 C370 571 379 579 380 590 L319 764 C315 775 308 779 296 779 L196 779 Z " />
<glyph glyph-name="idieresis" unicode="&#xef;" horiz-adv-x="274" d="M278 496 C280 507 273 515 262 515 L156 515 C145 515 136 507 134 496 L67 19 C66 8 73 0 84 0 L190 0 C201 0 210 8 211 19 L278 496 Z M59 590 C58 579 65 571 76 571 L171 571 C182 571 191 579 192 590 L206 689 C208 700 201 708 190 708 L95 708 C84 708 75 700 73 689 L59 590 Z M244 590 C243 579 250 571 261 571 L356 571 C367 571 376 579 377 590 L391 689 C393 700 386 708 375 708 L280 708 C269 708 260 700 258 689 L244 590 Z " />
<glyph glyph-name="eth" unicode="&#xf0;" horiz-adv-x="557" d="M263 129 C238 129 220 151 224 178 L235 258 C239 286 263 307 288 307 L366 307 C390 307 408 286 404 258 L393 178 C389 151 365 129 341 129 L263 129 Z M445 619 L500 681 C502 692 495 700 484 700 L379 700 C368 700 358 690 350 681 L294 619 L173 619 C162 619 153 611 152 600 L140 515 C138 504 145 496 156 496 L188 496 L121 419 C115 409 110 398 108 384 L79 171 C65 73 136 -5 237 -5 L329 -5 C430 -5 522 73 536 171 L549 265 C563 363 492 441 391 441 L305 441 C299 441 292 440 285 438 L337 496 L474 496 C485 496 494 504 496 515 L508 600 C509 611 502 619 491 619 L445 619 Z " />
<glyph glyph-name="ntilde" unicode="&#xf1;" horiz-adv-x="509" d="M504 361 C512 451 495 520 401 520 L387 520 C366 520 323 513 284 470 L275 470 L278 496 C280 507 273 515 262 515 L156 515 C145 515 136 507 134 496 L67 19 C66 8 73 0 84 0 L190 0 C201 0 210 8 211 19 L256 339 C276 383 300 387 315 387 L331 387 C349 387 362 373 359 352 L312 19 C311 8 318 0 329 0 L435 0 C446 0 455 8 456 19 L504 361 Z M391 571 C418 571 447 584 475 600 C484 606 489 615 490 624 L477 702 C476 709 469 715 459 715 C456 715 452 715 449 714 C437 709 418 705 410 705 C361 705 356 742 308 742 C281 742 252 729 224 713 C215 707 210 698 208 689 L221 611 C222 604 230 598 240 598 C243 598 247 598 250 599 C261 604 281 608 289 608 C339 608 343 571 391 571 L391 571 Z " />
<glyph glyph-name="ograve" unicode="&#xf2;" horiz-adv-x="481" d="M368 571 C378 571 387 579 388 589 L348 726 C345 735 338 744 327 744 L227 744 C216 744 208 736 207 726 L247 589 C250 580 257 571 268 571 L368 571 Z M280 520 C184 520 111 440 100 362 L71 152 C60 75 110 -5 206 -5 L273 -5 C369 -5 441 75 452 152 L481 362 C492 440 443 520 347 520 L280 520 Z M311 387 C326 387 339 373 337 357 L309 158 C306 142 289 128 274 128 L241 128 C226 128 213 142 216 158 L244 357 C246 373 263 387 278 387 L311 387 Z " />
<glyph glyph-name="oacute" unicode="&#xf3;" horiz-adv-x="481" d="M369 571 C380 571 389 580 394 589 L474 726 C475 736 469 744 458 744 L358 744 C347 744 338 735 333 726 L253 589 C252 579 259 571 269 571 L369 571 Z M280 520 C184 520 111 440 100 362 L71 152 C60 75 110 -5 206 -5 L273 -5 C369 -5 441 75 452 152 L481 362 C492 440 443 520 347 520 L280 520 Z M311 387 C326 387 339 373 337 357 L309 158 C306 142 289 128 274 128 L241 128 C226 128 213 142 216 158 L244 357 C246 373 263 387 278 387 L311 387 Z " />
<glyph glyph-name="ocircumflex" unicode="&#xf4;" horiz-adv-x="481" d="M299 779 C287 779 278 775 272 764 L161 590 C160 579 167 571 178 571 L272 571 C283 571 292 580 297 590 L330 641 L347 590 C350 580 357 571 368 571 L462 571 C473 571 482 579 483 590 L422 764 C418 775 411 779 399 779 L299 779 Z M280 520 C184 520 111 440 100 362 L71 152 C60 75 110 -5 206 -5 L273 -5 C369 -5 441 75 452 152 L481 362 C492 440 443 520 347 520 L280 520 Z M311 387 C326 387 339 373 337 357 L309 158 C306 142 289 128 274 128 L241 128 C226 128 213 142 216 158 L244 357 C246 373 263 387 278 387 L311 387 Z " />
<glyph glyph-name="otilde" unicode="&#xf5;" horiz-adv-x="481" d="M280 520 C184 520 111 440 100 362 L71 152 C60 75 110 -5 206 -5 L273 -5 C369 -5 441 75 452 152 L481 362 C492 440 443 520 347 520 L280 520 Z M311 387 C326 387 339 373 337 357 L309 158 C306 142 289 128 274 128 L241 128 C226 128 213 142 216 158 L244 357 C246 373 263 387 278 387 L311 387 Z M376 571 C403 571 432 584 460 600 C469 606 474 615 475 624 L462 702 C461 709 454 715 444 715 C441 715 437 715 434 714 C422 709 403 705 395 705 C346 705 341 742 293 742 C266 742 237 729 209 713 C200 707 195 698 193 689 L206 611 C207 604 215 598 225 598 C228 598 232 598 235 599 C246 604 266 608 274 608 C324 608 328 571 376 571 L376 571 Z " />
<glyph glyph-name="odieresis" unicode="&#xf6;" horiz-adv-x="481" d="M166 590 C165 579 172 571 183 571 L278 571 C289 571 298 579 299 590 L313 689 C315 700 308 708 297 708 L202 708 C191 708 182 700 180 689 L166 590 Z M344 590 C343 579 350 571 361 571 L456 571 C467 571 476 579 477 590 L491 689 C493 700 486 708 475 708 L380 708 C369 708 360 700 358 689 L344 590 Z M280 520 C184 520 111 440 100 362 L71 152 C60 75 110 -5 206 -5 L273 -5 C369 -5 441 75 452 152 L481 362 C492 440 443 520 347 520 L280 520 Z M311 387 C326 387 339 373 337 357 L309 158 C306 142 289 128 274 128 L241 128 C226 128 213 142 216 158 L244 357 C246 373 263 387 278 387 L311 387 Z " />
<glyph glyph-name="divide" unicode="&#xf7;" horiz-adv-x="433" d="M369 147 C380 147 389 155 391 166 L402 249 C404 260 397 268 386 268 L121 268 C110 268 101 260 99 249 L88 166 C86 155 93 147 104 147 L369 147 Z M157 10 C156 2 162 -5 170 -5 L261 -5 C269 -5 277 2 278 10 L291 101 C292 109 286 116 278 116 L187 116 C179 116 171 109 170 101 L157 10 Z M200 314 C199 306 205 299 213 299 L304 299 C312 299 320 306 321 314 L333 405 C335 413 329 420 321 420 L230 420 C222 420 214 413 212 405 L200 314 Z " />
<glyph glyph-name="oslash" unicode="&#xf8;" horiz-adv-x="481" d="M84 -72 C83 -83 90 -91 101 -91 L150 -91 C161 -91 170 -83 174 -72 L205 -5 L273 -5 C369 -5 441 75 452 152 L481 362 C488 411 470 462 433 492 L476 587 C478 598 471 606 460 606 L411 606 C400 606 391 598 386 587 L355 520 L280 520 C184 520 111 440 100 362 L71 152 C64 100 83 48 125 18 L84 -72 Z M244 357 C246 373 263 387 278 387 L294 387 L227 240 L244 357 Z M274 128 L265 128 L322 250 L309 158 C306 142 289 128 274 128 L274 128 Z " />
<glyph glyph-name="ugrave" unicode="&#xf9;" horiz-adv-x="488" d="M371 571 C381 571 390 579 391 589 L351 726 C348 735 341 744 330 744 L230 744 C219 744 211 736 210 726 L250 589 C253 580 260 571 271 571 L371 571 Z M275 -5 C371 -5 443 75 454 152 L502 496 C504 507 497 515 486 515 L380 515 C369 515 360 507 358 496 L311 158 C308 142 291 128 276 128 L246 128 C231 128 218 142 221 158 L268 496 C270 507 263 515 252 515 L146 515 C135 515 126 507 124 496 L76 152 C65 75 115 -5 211 -5 L275 -5 Z " />
<glyph glyph-name="uacute" unicode="&#xfa;" horiz-adv-x="488" d="M383 571 C394 571 403 580 408 589 L488 726 C489 736 483 744 472 744 L372 744 C361 744 352 735 347 726 L267 589 C266 579 273 571 283 571 L383 571 Z M275 -5 C371 -5 443 75 454 152 L502 496 C504 507 497 515 486 515 L380 515 C369 515 360 507 358 496 L311 158 C308 142 291 128 276 128 L246 128 C231 128 218 142 221 158 L268 496 C270 507 263 515 252 515 L146 515 C135 515 126 507 124 496 L76 152 C65 75 115 -5 211 -5 L275 -5 Z " />
<glyph glyph-name="ucircumflex" unicode="&#xfb;" horiz-adv-x="488" d="M303 779 C291 779 282 775 276 764 L165 590 C164 579 171 571 182 571 L276 571 C287 571 296 580 301 590 L334 641 L351 590 C354 580 361 571 372 571 L466 571 C477 571 486 579 487 590 L426 764 C422 775 415 779 403 779 L303 779 Z M275 -5 C371 -5 443 75 454 152 L502 496 C504 507 497 515 486 515 L380 515 C369 515 360 507 358 496 L311 158 C308 142 291 128 276 128 L246 128 C231 128 218 142 221 158 L268 496 C270 507 263 515 252 515 L146 515 C135 515 126 507 124 496 L76 152 C65 75 115 -5 211 -5 L275 -5 Z " />
<glyph glyph-name="udieresis" unicode="&#xfc;" horiz-adv-x="488" d="M274 550 C288 550 300 560 302 575 L315 665 C317 680 307 690 293 690 L203 690 C188 690 177 680 175 665 L162 575 C160 560 169 550 184 550 L274 550 Z M457 550 C471 550 483 560 485 575 L498 665 C500 680 490 690 476 690 L386 690 C371 690 360 680 358 665 L345 575 C343 560 352 550 367 550 L457 550 Z M275 -5 C371 -5 443 75 454 152 L502 496 C504 507 497 515 486 515 L380 515 C369 515 360 507 358 496 L311 158 C308 142 291 128 276 128 L246 128 C231 128 218 142 221 158 L268 496 C270 507 263 515 252 515 L146 515 C135 515 126 507 124 496 L76 152 C65 75 115 -5 211 -5 L275 -5 Z " />
<glyph glyph-name="yacute" unicode="&#xfd;" horiz-adv-x="461" d="M367 571 C378 571 387 580 392 589 L472 726 C473 736 467 744 456 744 L356 744 C345 744 336 735 331 726 L251 589 C250 579 257 571 267 571 L367 571 Z M144 -21 C135 -46 115 -72 84 -72 L42 -72 C31 -72 22 -80 21 -91 L8 -184 C6 -195 13 -203 24 -203 L107 -203 C131 -203 245 -181 314 -12 L520 496 C522 507 515 515 504 515 L396 515 C385 515 376 507 371 496 L265 205 L252 205 L228 496 C227 507 220 515 209 515 L101 515 C90 515 81 507 79 496 L144 -21 Z " />
<glyph glyph-name="thorn" unicode="&#xfe;" horiz-adv-x="504" d="M509 362 C522 451 489 520 395 520 L363 520 C346 520 313 513 287 484 L277 484 L304 681 C306 692 299 700 288 700 L182 700 C171 700 162 692 160 681 L43 -155 C41 -166 48 -174 59 -174 L165 -174 C176 -174 185 -166 187 -155 L213 31 L223 31 C241 2 272 -5 289 -5 L321 -5 C415 -5 467 64 480 153 L509 362 Z M259 357 C261 373 278 387 293 387 L338 387 C354 387 367 373 365 357 L337 158 C334 142 317 128 301 128 L256 128 C241 128 228 142 231 158 L259 357 Z " />
<glyph glyph-name="ydieresis" unicode="&#xff;" horiz-adv-x="461" d="M265 571 C279 571 291 581 293 596 L306 686 C308 701 298 711 284 711 L194 711 C179 711 168 701 166 686 L153 596 C151 581 160 571 175 571 L265 571 Z M448 571 C462 571 474 581 476 596 L489 686 C491 701 481 711 467 711 L377 711 C362 711 351 701 349 686 L336 596 C334 581 343 571 358 571 L448 571 Z M144 -21 C135 -46 115 -72 84 -72 L42 -72 C31 -72 22 -80 21 -91 L8 -184 C6 -195 13 -203 24 -203 L107 -203 C131 -203 245 -181 314 -12 L520 496 C522 507 515 515 504 515 L396 515 C385 515 376 507 371 496 L265 205 L252 205 L228 496 C227 507 220 515 209 515 L101 515 C90 515 81 507 79 496 L144 -21 Z " />
<glyph glyph-name="Amacron" unicode="&#x100;" horiz-adv-x="585" d="M531 751 C542 751 551 759 553 770 L565 854 C566 865 559 873 548 873 L282 873 C271 873 262 865 261 854 L249 770 C247 759 254 751 265 751 L531 751 Z M315 700 C304 700 296 691 291 681 L22 19 C21 8 28 0 39 0 L145 0 C156 0 165 8 169 19 L207 115 L410 115 L420 19 C422 8 429 0 440 0 L546 0 C557 0 566 8 567 19 L484 681 C483 691 477 700 466 700 L315 700 Z M356 499 L369 499 L395 248 L258 248 L356 499 Z " />
<glyph glyph-name="amacron" unicode="&#x101;" horiz-adv-x="474" d="M176 373 C209 382 231 387 269 387 C328 387 328 348 325 326 L324 319 L249 319 C155 319 82 270 70 179 L64 139 C51 48 87 -5 181 -5 L196 -5 C210 -5 259 -2 275 31 L284 31 L282 19 C281 8 288 0 299 0 L405 0 C416 0 425 8 426 19 L469 327 C476 374 489 520 317 520 C234 520 185 506 164 499 C154 496 147 490 146 481 C146 479 144 469 154 387 C155 376 162 372 167 372 C169 372 173 372 176 373 L176 373 Z M213 171 C215 188 232 201 247 201 L308 201 L302 158 C299 142 281 128 266 128 L236 128 C221 128 208 142 211 158 L213 171 Z M464 571 C475 571 484 579 485 590 L497 674 C499 685 492 693 481 693 L226 693 C215 693 206 685 204 674 L192 590 C191 579 198 571 209 571 L464 571 Z " />
<glyph glyph-name="Abreve" unicode="&#x102;" horiz-adv-x="585" d="M315 700 C304 700 296 691 291 681 L22 19 C21 8 28 0 39 0 L145 0 C156 0 165 8 169 19 L207 115 L410 115 L420 19 C422 8 429 0 440 0 L546 0 C557 0 566 8 567 19 L484 681 C483 691 477 700 466 700 L315 700 Z M356 499 L369 499 L395 248 L258 248 L356 499 Z M397 751 C498 751 559 797 585 909 C587 919 581 926 571 926 L485 926 C475 926 466 919 460 909 C448 875 434 870 414 870 C394 870 380 875 378 909 C376 919 369 926 359 926 L273 926 C263 926 255 919 253 909 C249 797 296 751 397 751 L397 751 Z " />
<glyph glyph-name="abreve" unicode="&#x103;" horiz-adv-x="474" d="M176 373 C209 382 231 387 269 387 C328 387 328 348 325 326 L324 319 L249 319 C155 319 82 270 70 179 L64 139 C51 48 87 -5 181 -5 L196 -5 C210 -5 259 -2 275 31 L284 31 L282 19 C281 8 288 0 299 0 L405 0 C416 0 425 8 426 19 L469 327 C476 374 489 520 317 520 C234 520 185 506 164 499 C154 496 147 490 146 481 C146 479 144 469 154 387 C155 376 162 372 167 372 C169 372 173 372 176 373 L176 373 Z M213 171 C215 188 232 201 247 201 L308 201 L302 158 C299 142 281 128 266 128 L236 128 C221 128 208 142 211 158 L213 171 Z M326 571 C427 571 487 617 514 729 C515 739 509 746 499 746 L413 746 C403 746 394 739 389 729 C377 695 362 690 342 690 C322 690 309 695 307 729 C304 739 297 746 287 746 L201 746 C191 746 183 739 182 729 C177 617 225 571 326 571 L326 571 Z " />
<glyph glyph-name="Aogonek" unicode="&#x104;" horiz-adv-x="585" d="M356 499 L369 499 L395 248 L258 248 L356 499 Z M413 71 C352 51 342 -17 340 -34 C333 -79 358 -123 417 -123 L488 -123 C496 -123 504 -116 505 -108 L513 -56 C514 -47 508 -41 500 -41 L446 -41 C446 -41 429 -41 432 -20 C433 -10 440 0 452 0 L546 0 C557 0 566 8 567 19 L484 681 C483 691 477 700 466 700 L315 700 C304 700 296 691 291 681 L22 19 C21 8 28 0 39 0 L145 0 C156 0 165 8 169 19 L207 115 L410 115 L413 71 Z " />
<glyph glyph-name="aogonek" unicode="&#x105;" horiz-adv-x="474" d="M213 171 C215 188 232 201 247 201 L308 201 L302 158 C299 142 281 128 266 128 L236 128 C221 128 208 142 211 158 L213 171 Z M280 6 C229 -26 223 -69 221 -82 C215 -127 239 -171 298 -171 L379 -171 C387 -171 395 -164 397 -156 L404 -104 C405 -95 399 -89 391 -89 L327 -89 C327 -89 310 -89 313 -68 C314 -58 321 -48 333 -48 L398 -48 C409 -48 418 -40 419 -29 L469 327 C476 374 489 520 317 520 C234 520 185 506 164 499 C154 496 147 490 146 481 C146 479 144 469 154 387 C155 376 162 372 167 372 C169 372 173 372 176 373 C209 382 231 387 269 387 C328 387 328 348 325 326 L324 319 L249 319 C155 319 82 270 70 179 L64 139 C51 48 87 -5 181 -5 L196 -5 C210 -5 259 -2 275 31 L284 31 L280 6 Z " />
<glyph glyph-name="Cacute" unicode="&#x106;" horiz-adv-x="552" d="M437 751 C448 751 457 760 463 769 L542 906 C543 916 537 924 526 924 L426 924 C415 924 406 915 401 906 L322 769 C320 759 327 751 337 751 L437 751 Z M393 178 C389 151 365 129 341 129 L262 129 C238 129 220 151 224 178 L272 522 C276 549 300 571 324 571 L403 571 C427 571 445 549 441 522 L436 490 C435 479 442 471 453 471 L559 471 C570 471 579 479 580 490 L586 529 C600 627 530 705 428 705 L337 705 C235 705 143 627 129 529 L79 171 C65 73 135 -5 237 -5 L328 -5 C430 -5 522 73 536 171 L541 210 C543 221 536 229 525 229 L419 229 C408 229 399 221 397 210 L393 178 Z " />
<glyph glyph-name="cacute" unicode="&#x107;" horiz-adv-x="459" d="M367 571 C378 571 387 580 392 589 L472 726 C473 736 467 744 456 744 L356 744 C345 744 336 735 331 726 L251 589 C250 579 257 571 267 571 L367 571 Z M307 158 C304 142 286 128 271 128 L241 128 C226 128 213 142 216 158 L244 357 C246 373 263 387 278 387 L308 387 C323 387 337 373 335 357 L333 342 C331 331 338 323 349 323 L455 323 C466 323 475 331 477 342 L479 362 C490 440 442 520 345 520 L280 520 C184 520 111 440 100 362 L71 152 C60 75 110 -5 206 -5 L271 -5 C368 -5 439 75 450 152 L453 173 C454 184 447 192 436 192 L330 192 C319 192 310 184 309 173 L307 158 Z " />
<glyph glyph-name="Ccircumflex" unicode="&#x108;" horiz-adv-x="552" d="M366 959 C354 959 346 955 339 944 L229 770 C227 759 234 751 245 751 L339 751 C350 751 359 760 365 770 L397 821 L415 770 C417 760 424 751 435 751 L529 751 C540 751 549 759 551 770 L489 944 C486 955 478 959 466 959 L366 959 Z M393 178 C389 151 365 129 341 129 L262 129 C238 129 220 151 224 178 L272 522 C276 549 300 571 324 571 L403 571 C427 571 445 549 441 522 L436 490 C435 479 442 471 453 471 L559 471 C570 471 579 479 580 490 L586 529 C600 627 530 705 428 705 L337 705 C235 705 143 627 129 529 L79 171 C65 73 135 -5 237 -5 L328 -5 C430 -5 522 73 536 171 L541 210 C543 221 536 229 525 229 L419 229 C408 229 399 221 397 210 L393 178 Z " />
<glyph glyph-name="ccircumflex" unicode="&#x109;" horiz-adv-x="459" d="M298 779 C286 779 277 775 271 764 L160 590 C159 579 166 571 177 571 L271 571 C282 571 291 580 296 590 L329 641 L346 590 C349 580 356 571 367 571 L461 571 C472 571 481 579 482 590 L421 764 C417 775 410 779 398 779 L298 779 Z M307 158 C304 142 286 128 271 128 L241 128 C226 128 213 142 216 158 L244 357 C246 373 263 387 278 387 L308 387 C323 387 337 373 335 357 L333 342 C331 331 338 323 349 323 L455 323 C466 323 475 331 477 342 L479 362 C490 440 442 520 345 520 L280 520 C184 520 111 440 100 362 L71 152 C60 75 110 -5 206 -5 L271 -5 C368 -5 439 75 450 152 L453 173 C454 184 447 192 436 192 L330 192 C319 192 310 184 309 173 L307 158 Z " />
<glyph glyph-name="Cdotaccent" unicode="&#x10a;" horiz-adv-x="552" d="M327 770 C325 759 332 751 343 751 L438 751 C449 751 458 759 460 770 L474 869 C475 880 468 888 457 888 L362 888 C351 888 342 880 341 869 L327 770 Z M393 178 C389 151 365 129 341 129 L262 129 C238 129 220 151 224 178 L272 522 C276 549 300 571 324 571 L403 571 C427 571 445 549 441 522 L436 490 C435 479 442 471 453 471 L559 471 C570 471 579 479 580 490 L586 529 C600 627 530 705 428 705 L337 705 C235 705 143 627 129 529 L79 171 C65 73 135 -5 237 -5 L328 -5 C430 -5 522 73 536 171 L541 210 C543 221 536 229 525 229 L419 229 C408 229 399 221 397 210 L393 178 Z " />
<glyph glyph-name="cdotaccent" unicode="&#x10b;" horiz-adv-x="459" d="M255 590 C254 579 261 571 272 571 L367 571 C378 571 387 579 388 590 L402 689 C404 700 397 708 386 708 L291 708 C280 708 271 700 269 689 L255 590 Z M307 158 C304 142 286 128 271 128 L241 128 C226 128 213 142 216 158 L244 357 C246 373 263 387 278 387 L308 387 C323 387 337 373 335 357 L333 342 C331 331 338 323 349 323 L455 323 C466 323 475 331 477 342 L479 362 C490 440 442 520 345 520 L280 520 C184 520 111 440 100 362 L71 152 C60 75 110 -5 206 -5 L271 -5 C368 -5 439 75 450 152 L453 173 C454 184 447 192 436 192 L330 192 C319 192 310 184 309 173 L307 158 Z " />
<glyph glyph-name="Ccaron" unicode="&#x10c;" horiz-adv-x="552" d="M438 751 C450 751 459 755 465 766 L576 940 C577 951 570 959 559 959 L465 959 C454 959 445 950 440 940 L407 889 L390 940 C387 950 380 959 369 959 L275 959 C264 959 255 951 254 940 L315 766 C319 755 326 751 338 751 L438 751 Z M393 178 C389 151 365 129 341 129 L262 129 C238 129 220 151 224 178 L272 522 C276 549 300 571 324 571 L403 571 C427 571 445 549 441 522 L436 490 C435 479 442 471 453 471 L559 471 C570 471 579 479 580 490 L586 529 C600 627 530 705 428 705 L337 705 C235 705 143 627 129 529 L79 171 C65 73 135 -5 237 -5 L328 -5 C430 -5 522 73 536 171 L541 210 C543 221 536 229 525 229 L419 229 C408 229 399 221 397 210 L393 178 Z " />
<glyph glyph-name="ccaron" unicode="&#x10d;" horiz-adv-x="459" d="M370 571 C382 571 390 575 397 586 L507 760 C509 771 502 779 491 779 L397 779 C386 779 377 770 371 760 L339 709 L321 760 C319 770 312 779 301 779 L207 779 C196 779 187 771 185 760 L247 586 C250 575 258 571 270 571 L370 571 Z M307 158 C304 142 286 128 271 128 L241 128 C226 128 213 142 216 158 L244 357 C246 373 263 387 278 387 L308 387 C323 387 337 373 335 357 L333 342 C331 331 338 323 349 323 L455 323 C466 323 475 331 477 342 L479 362 C490 440 442 520 345 520 L280 520 C184 520 111 440 100 362 L71 152 C60 75 110 -5 206 -5 L271 -5 C368 -5 439 75 450 152 L453 173 C454 184 447 192 436 192 L330 192 C319 192 310 184 309 173 L307 158 Z " />
<glyph glyph-name="Dcaron" unicode="&#x10e;" horiz-adv-x="578" d="M407 741 C419 741 427 745 434 756 L544 930 C546 941 539 949 528 949 L434 949 C423 949 414 940 408 930 L376 879 L358 930 C356 940 349 949 338 949 L244 949 C233 949 224 941 222 930 L284 756 C287 745 295 741 307 741 L407 741 Z M412 567 C436 567 455 545 451 518 L404 182 C400 155 375 133 351 133 L227 133 L288 567 L412 567 Z M182 700 C171 700 162 692 160 681 L67 19 C66 8 73 0 84 0 L340 0 C441 0 533 78 547 176 L596 524 C610 622 539 700 438 700 L182 700 Z " />
<glyph glyph-name="dcaron" unicode="&#x10f;" horiz-adv-x="705" d="M691 527 C702 527 711 536 716 545 L795 682 C797 692 791 700 780 700 L680 700 C669 700 660 691 654 682 L575 545 C574 535 581 527 591 527 L691 527 Z M66 153 C53 64 87 -5 181 -5 L213 -5 C230 -5 263 2 289 31 L299 31 L297 19 C296 8 303 0 314 0 L420 0 C431 0 440 8 441 19 L534 681 C536 692 529 700 518 700 L412 700 C401 700 392 692 390 681 L363 484 L353 484 C335 513 304 520 287 520 L255 520 C161 520 108 451 95 362 L66 153 Z M317 158 C314 142 297 128 282 128 L237 128 C221 128 208 142 211 158 L239 357 C241 373 258 387 274 387 L319 387 C334 387 347 373 345 357 L317 158 Z " />
<glyph glyph-name="Dcroat" unicode="&#x110;" horiz-adv-x="587" d="M191 700 C180 700 171 692 169 681 L132 416 L82 416 C71 416 62 408 60 397 L47 301 C45 290 52 282 63 282 L113 282 L76 19 C75 8 82 0 93 0 L349 0 C450 0 542 78 556 176 L605 524 C619 622 548 700 447 700 L191 700 Z M318 282 C329 282 338 290 340 301 L353 397 C355 408 348 416 337 416 L276 416 L297 567 L421 567 C445 567 464 545 460 518 L413 182 C409 155 384 133 360 133 L236 133 L257 282 L318 282 Z " />
<glyph glyph-name="dcroat" unicode="&#x111;" horiz-adv-x="500" d="M363 484 L353 484 C335 513 304 520 287 520 L255 520 C161 520 108 451 95 362 L66 153 C53 64 87 -5 181 -5 L213 -5 C230 -5 263 2 289 31 L299 31 L297 19 C296 8 303 0 314 0 L420 0 C431 0 440 8 441 19 L515 546 L552 546 C563 546 572 554 574 565 L583 633 C585 644 578 652 567 652 L530 652 L534 681 C536 692 529 700 518 700 L412 700 C401 700 392 692 390 681 L386 652 L341 652 C330 652 321 644 319 633 L310 565 C308 554 315 546 326 546 L371 546 L363 484 Z M317 158 C314 142 297 128 282 128 L237 128 C221 128 208 142 211 158 L239 357 C241 373 258 387 274 387 L319 387 C334 387 347 373 345 357 L317 158 Z " />
<glyph glyph-name="Emacron" unicode="&#x112;" horiz-adv-x="509" d="M501 751 C512 751 521 759 523 770 L535 854 C536 865 529 873 518 873 L244 873 C233 873 224 865 223 854 L211 770 C209 759 216 751 227 751 L501 751 Z M67 19 C66 8 73 0 84 0 L435 0 C446 0 455 8 456 19 L470 115 C471 126 464 134 453 134 L227 134 L250 296 L454 296 C465 296 474 304 476 315 L489 411 C491 422 484 430 473 430 L269 430 L288 566 L514 566 C525 566 534 574 536 585 L549 681 C551 692 544 700 533 700 L182 700 C171 700 162 692 160 681 L67 19 Z " />
<glyph glyph-name="emacron" unicode="&#x113;" horiz-adv-x="476" d="M442 571 C453 571 462 579 463 590 L475 674 C477 685 470 693 459 693 L215 693 C204 693 195 685 193 674 L181 590 C180 579 187 571 198 571 L442 571 Z M244 357 C246 373 263 387 278 387 L311 387 C326 387 340 373 338 357 L332 315 L238 315 L244 357 Z M426 74 C428 77 430 82 430 85 C431 91 430 95 425 100 L365 155 C363 157 358 158 355 158 C348 158 342 155 338 150 C326 141 309 128 282 128 L241 128 C226 128 213 142 216 158 L221 195 L439 195 C450 195 459 203 461 214 L481 362 C492 440 444 520 347 520 L280 520 C184 520 111 440 100 362 L71 152 C60 75 110 -5 206 -5 L264 -5 C264 -5 366 -4 426 74 L426 74 Z " />
<glyph glyph-name="Edotaccent" unicode="&#x116;" horiz-adv-x="509" d="M302 770 C300 759 307 751 318 751 L413 751 C424 751 433 759 435 770 L449 869 C450 880 443 888 432 888 L337 888 C326 888 317 880 316 869 L302 770 Z M67 19 C66 8 73 0 84 0 L435 0 C446 0 455 8 456 19 L470 115 C471 126 464 134 453 134 L227 134 L250 296 L454 296 C465 296 474 304 476 315 L489 411 C491 422 484 430 473 430 L269 430 L288 566 L514 566 C525 566 534 574 536 585 L549 681 C551 692 544 700 533 700 L182 700 C171 700 162 692 160 681 L67 19 Z " />
<glyph glyph-name="edotaccent" unicode="&#x117;" horiz-adv-x="476" d="M256 590 C255 579 262 571 273 571 L368 571 C379 571 388 579 389 590 L403 689 C405 700 398 708 387 708 L292 708 C281 708 272 700 270 689 L256 590 Z M244 357 C246 373 263 387 278 387 L311 387 C326 387 340 373 338 357 L332 315 L238 315 L244 357 Z M426 74 C428 77 430 82 430 85 C431 91 430 95 425 100 L365 155 C363 157 358 158 355 158 C348 158 342 155 338 150 C326 141 309 128 282 128 L241 128 C226 128 213 142 216 158 L221 195 L439 195 C450 195 459 203 461 214 L481 362 C492 440 444 520 347 520 L280 520 C184 520 111 440 100 362 L71 152 C60 75 110 -5 206 -5 L264 -5 C264 -5 366 -4 426 74 L426 74 Z " />
<glyph glyph-name="Eogonek" unicode="&#x118;" horiz-adv-x="509" d="M67 19 C66 8 73 0 84 0 L270 0 C261 -15 259 -28 258 -34 C251 -79 276 -123 335 -123 L406 -123 C414 -123 422 -116 423 -108 L431 -56 C432 -47 426 -41 418 -41 L364 -41 C364 -41 347 -41 350 -20 C351 -10 356 -1 367 0 L435 0 C446 0 455 8 456 19 L470 115 C471 126 464 134 453 134 L227 134 L250 296 L454 296 C465 296 474 304 476 315 L489 411 C491 422 484 430 473 430 L269 430 L288 566 L514 566 C525 566 534 574 536 585 L549 681 C551 692 544 700 533 700 L182 700 C171 700 162 692 160 681 L67 19 Z " />
<glyph glyph-name="eogonek" unicode="&#x119;" horiz-adv-x="476" d="M426 74 C428 77 430 82 430 85 C431 91 430 95 425 100 L365 155 C363 157 358 158 355 158 C348 158 342 155 338 150 C326 141 309 128 282 128 L241 128 C226 128 213 142 216 158 L221 195 L439 195 C450 195 459 203 461 214 L481 362 C492 440 444 520 347 520 L280 520 C184 520 111 440 100 362 L71 152 C62 88 94 23 160 2 C155 -9 149 -27 147 -40 C141 -84 165 -123 224 -123 L309 -123 C317 -123 325 -116 326 -108 L333 -58 C335 -49 328 -43 320 -43 L251 -43 C251 -43 235 -43 238 -25 C240 -13 250 -6 254 -5 L264 -5 C264 -5 366 -4 426 74 L426 74 Z M244 357 C246 373 263 387 278 387 L311 387 C326 387 340 373 338 357 L332 315 L238 315 L244 357 Z " />
<glyph glyph-name="Ecaron" unicode="&#x11a;" horiz-adv-x="509" d="M416 741 C428 741 436 745 443 756 L553 930 C555 941 548 949 537 949 L443 949 C432 949 423 940 417 930 L385 879 L367 930 C365 940 358 949 347 949 L253 949 C242 949 233 941 231 930 L293 756 C296 745 304 741 316 741 L416 741 Z M67 19 C66 8 73 0 84 0 L435 0 C446 0 455 8 456 19 L470 115 C471 126 464 134 453 134 L227 134 L250 296 L454 296 C465 296 474 304 476 315 L489 411 C491 422 484 430 473 430 L269 430 L288 566 L514 566 C525 566 534 574 536 585 L549 681 C551 692 544 700 533 700 L182 700 C171 700 162 692 160 681 L67 19 Z " />
<glyph glyph-name="ecaron" unicode="&#x11b;" horiz-adv-x="476" d="M374 571 C386 571 394 575 401 586 L511 760 C513 771 506 779 495 779 L401 779 C390 779 381 770 375 760 L343 709 L325 760 C323 770 316 779 305 779 L211 779 C200 779 191 771 189 760 L251 586 C254 575 262 571 274 571 L374 571 Z M244 357 C246 373 263 387 278 387 L311 387 C326 387 340 373 338 357 L332 315 L238 315 L244 357 Z M426 74 C428 77 430 82 430 85 C431 91 430 95 425 100 L365 155 C363 157 358 158 355 158 C348 158 342 155 338 150 C326 141 309 128 282 128 L241 128 C226 128 213 142 216 158 L221 195 L439 195 C450 195 459 203 461 214 L481 362 C492 440 444 520 347 520 L280 520 C184 520 111 440 100 362 L71 152 C60 75 110 -5 206 -5 L264 -5 C264 -5 366 -4 426 74 L426 74 Z " />
<glyph glyph-name="Gcircumflex" unicode="&#x11c;" horiz-adv-x="568" d="M367 959 C355 959 347 955 340 944 L230 770 C228 759 235 751 246 751 L340 751 C351 751 360 760 366 770 L398 821 L416 770 C418 760 425 751 436 751 L530 751 C541 751 550 759 552 770 L490 944 C487 955 479 959 467 959 L367 959 Z M362 404 C347 404 335 394 333 378 L321 297 C319 281 328 270 343 270 L406 270 L394 178 C390 151 366 129 342 129 L262 129 C238 129 220 151 224 178 L272 522 C276 549 300 571 324 571 L404 571 C428 571 446 549 442 522 L437 490 C436 479 443 471 454 471 L560 471 C571 471 580 479 581 490 L587 529 C601 627 531 705 429 705 L337 705 C235 705 143 627 129 529 L79 171 C65 73 135 -5 237 -5 L329 -5 C431 -5 523 73 537 171 L566 378 C568 394 558 404 543 404 L362 404 Z " />
<glyph glyph-name="gcircumflex" unicode="&#x11d;" horiz-adv-x="504" d="M297 779 C285 779 276 775 270 764 L159 590 C158 579 165 571 176 571 L270 571 C281 571 290 580 295 590 L328 641 L345 590 C348 580 355 571 366 571 L460 571 C471 571 480 579 481 590 L420 764 C416 775 409 779 397 779 L297 779 Z M317 158 C314 142 297 128 282 128 L237 128 C221 128 208 142 211 158 L239 357 C241 373 258 387 274 387 L319 387 C334 387 347 373 345 357 L317 158 Z M292 -21 C289 -42 271 -71 212 -71 C173 -71 122 -59 117 -59 C104 -59 99 -62 93 -76 C62 -156 60 -166 60 -169 C58 -178 64 -182 72 -186 C93 -193 124 -203 208 -203 C397 -203 429 -71 435 -22 L508 496 C510 507 503 515 492 515 L386 515 C375 515 366 507 364 496 L363 484 L353 484 C335 513 304 520 287 520 L255 520 C161 520 108 451 95 362 L66 153 C53 64 87 -5 181 -5 L213 -5 C230 -5 263 2 289 31 L299 31 L292 -21 Z " />
<glyph glyph-name="Gbreve" unicode="&#x11e;" horiz-adv-x="568" d="M362 404 C347 404 335 394 333 378 L321 297 C319 281 328 270 343 270 L406 270 L394 178 C390 151 366 129 342 129 L262 129 C238 129 220 151 224 178 L272 522 C276 549 300 571 324 571 L404 571 C428 571 446 549 442 522 L437 490 C436 479 443 471 454 471 L560 471 C571 471 580 479 581 490 L587 529 C601 627 531 705 429 705 L337 705 C235 705 143 627 129 529 L79 171 C65 73 135 -5 237 -5 L329 -5 C431 -5 523 73 537 171 L566 378 C568 394 558 404 543 404 L362 404 Z M395 751 C496 751 557 797 583 909 C585 919 579 926 569 926 L483 926 C473 926 464 919 458 909 C446 875 432 870 412 870 C392 870 378 875 376 909 C374 919 367 926 357 926 L271 926 C261 926 253 919 251 909 C247 797 294 751 395 751 L395 751 Z " />
<glyph glyph-name="gbreve" unicode="&#x11f;" horiz-adv-x="504" d="M317 158 C314 142 297 128 282 128 L237 128 C221 128 208 142 211 158 L239 357 C241 373 258 387 274 387 L319 387 C334 387 347 373 345 357 L317 158 Z M292 -21 C289 -42 271 -71 212 -71 C173 -71 122 -59 117 -59 C104 -59 99 -62 93 -76 C62 -156 60 -166 60 -169 C58 -178 64 -182 72 -186 C93 -193 124 -203 208 -203 C397 -203 429 -71 435 -22 L508 496 C510 507 503 515 492 515 L386 515 C375 515 366 507 364 496 L363 484 L353 484 C335 513 304 520 287 520 L255 520 C161 520 108 451 95 362 L66 153 C53 64 87 -5 181 -5 L213 -5 C230 -5 263 2 289 31 L299 31 L292 -21 Z M313 571 C414 571 474 617 501 729 C502 739 496 746 486 746 L400 746 C390 746 381 739 376 729 C364 695 349 690 329 690 C309 690 296 695 294 729 C291 739 284 746 274 746 L188 746 C178 746 170 739 169 729 C164 617 212 571 313 571 L313 571 Z " />
<glyph glyph-name="Gdotaccent" unicode="&#x120;" horiz-adv-x="568" d="M324 770 C322 759 329 751 340 751 L435 751 C446 751 455 759 457 770 L471 869 C472 880 465 888 454 888 L359 888 C348 888 339 880 338 869 L324 770 Z M362 404 C347 404 335 394 333 378 L321 297 C319 281 328 270 343 270 L406 270 L394 178 C390 151 366 129 342 129 L262 129 C238 129 220 151 224 178 L272 522 C276 549 300 571 324 571 L404 571 C428 571 446 549 442 522 L437 490 C436 479 443 471 454 471 L560 471 C571 471 580 479 581 490 L587 529 C601 627 531 705 429 705 L337 705 C235 705 143 627 129 529 L79 171 C65 73 135 -5 237 -5 L329 -5 C431 -5 523 73 537 171 L566 378 C568 394 558 404 543 404 L362 404 Z " />
<glyph glyph-name="gdotaccent" unicode="&#x121;" horiz-adv-x="504" d="M259 590 C258 579 265 571 276 571 L371 571 C382 571 391 579 392 590 L406 689 C408 700 401 708 390 708 L295 708 C284 708 275 700 273 689 L259 590 Z M317 158 C314 142 297 128 282 128 L237 128 C221 128 208 142 211 158 L239 357 C241 373 258 387 274 387 L319 387 C334 387 347 373 345 357 L317 158 Z M292 -21 C289 -42 271 -71 212 -71 C173 -71 122 -59 117 -59 C104 -59 99 -62 93 -76 C62 -156 60 -166 60 -169 C58 -178 64 -182 72 -186 C93 -193 124 -203 208 -203 C397 -203 429 -71 435 -22 L508 496 C510 507 503 515 492 515 L386 515 C375 515 366 507 364 496 L363 484 L353 484 C335 513 304 520 287 520 L255 520 C161 520 108 451 95 362 L66 153 C53 64 87 -5 181 -5 L213 -5 C230 -5 263 2 289 31 L299 31 L292 -21 Z " />
<glyph glyph-name="uni0122" unicode="&#x122;" horiz-adv-x="568" d="M260 -214 C271 -214 281 -205 286 -196 L343 -71 C344 -61 338 -53 327 -53 L227 -53 C216 -53 207 -62 202 -71 L145 -196 C144 -206 150 -214 160 -214 L260 -214 Z M362 404 C347 404 335 394 333 378 L321 297 C319 281 328 270 343 270 L406 270 L394 178 C390 151 366 129 342 129 L262 129 C238 129 220 151 224 178 L272 522 C276 549 300 571 324 571 L404 571 C428 571 446 549 442 522 L437 490 C436 479 443 471 454 471 L560 471 C571 471 580 479 581 490 L587 529 C601 627 531 705 429 705 L337 705 C235 705 143 627 129 529 L79 171 C65 73 135 -5 237 -5 L329 -5 C431 -5 523 73 537 171 L566 378 C568 394 558 404 543 404 L362 404 Z " />
<glyph glyph-name="uni0123" unicode="&#x123;" horiz-adv-x="504" d="M353 571 C364 571 373 580 378 589 L458 726 C459 736 453 744 442 744 L342 744 C331 744 322 735 317 726 L237 589 C236 579 243 571 253 571 L353 571 Z M317 158 C314 142 297 128 282 128 L237 128 C221 128 208 142 211 158 L239 357 C241 373 258 387 274 387 L319 387 C334 387 347 373 345 357 L317 158 Z M292 -21 C289 -42 271 -71 212 -71 C173 -71 122 -59 117 -59 C104 -59 99 -62 93 -76 C62 -156 60 -166 60 -169 C58 -178 64 -182 72 -186 C93 -193 124 -203 208 -203 C397 -203 429 -71 435 -22 L508 496 C510 507 503 515 492 515 L386 515 C375 515 366 507 364 496 L363 484 L353 484 C335 513 304 520 287 520 L255 520 C161 520 108 451 95 362 L66 153 C53 64 87 -5 181 -5 L213 -5 C230 -5 263 2 289 31 L299 31 L292 -21 Z " />
<glyph glyph-name="Hcircumflex" unicode="&#x124;" horiz-adv-x="581" d="M374 959 C362 959 354 955 347 944 L237 770 C235 759 242 751 253 751 L347 751 C358 751 367 760 373 770 L405 821 L423 770 C425 760 432 751 443 751 L537 751 C548 751 557 759 559 770 L497 944 C494 955 486 959 474 959 L374 959 Z M374 19 C373 8 380 0 391 0 L497 0 C508 0 517 8 518 19 L611 681 C613 692 606 700 595 700 L489 700 C478 700 469 692 467 681 L429 406 L266 406 L304 681 C306 692 299 700 288 700 L182 700 C171 700 162 692 160 681 L67 19 C66 8 73 0 84 0 L190 0 C201 0 210 8 211 19 L247 273 L410 273 L374 19 Z " />
<glyph glyph-name="hcircumflex" unicode="&#x125;" horiz-adv-x="509" d="M313 959 C301 959 293 955 286 944 L176 770 C174 759 181 751 192 751 L286 751 C297 751 306 760 312 770 L344 821 L362 770 C364 760 371 751 382 751 L476 751 C487 751 496 759 498 770 L436 944 C433 955 425 959 413 959 L313 959 Z M504 361 C512 451 495 520 401 520 L387 520 C366 520 323 513 284 470 L275 470 L304 681 C306 692 299 700 288 700 L182 700 C171 700 162 692 160 681 L67 19 C66 8 73 0 84 0 L190 0 C201 0 210 8 211 19 L256 339 C276 383 300 387 315 387 L331 387 C349 387 362 373 359 352 L312 19 C311 8 318 0 329 0 L435 0 C446 0 455 8 456 19 L504 361 Z " />
<glyph glyph-name="Hbar" unicode="&#x126;" horiz-adv-x="549" d="M585 434 C596 434 606 442 607 453 L618 532 C620 543 613 551 602 551 L577 551 L595 681 C597 692 590 700 579 700 L473 700 C462 700 453 692 451 681 L433 551 L270 551 L288 681 C290 692 283 700 272 700 L166 700 C155 700 146 692 144 681 L126 551 L101 551 C90 551 81 543 79 532 L68 453 C67 442 73 434 84 434 L109 434 L51 19 C50 8 57 0 68 0 L174 0 C185 0 194 8 195 19 L220 199 L383 199 L358 19 C357 8 364 0 375 0 L481 0 C492 0 501 8 502 19 L560 434 L585 434 Z M239 332 L253 434 L416 434 L402 332 L239 332 Z " />
<glyph glyph-name="hbar" unicode="&#x127;" horiz-adv-x="505" d="M137 546 L63 19 C62 8 69 0 80 0 L186 0 C197 0 206 8 207 19 L252 339 C272 383 296 387 311 387 L327 387 C345 387 358 373 355 352 L308 19 C307 8 314 0 325 0 L431 0 C442 0 451 8 452 19 L500 361 C508 451 491 520 397 520 L383 520 C362 520 319 513 280 470 L271 470 L281 546 L326 546 C337 546 346 554 348 565 L357 633 C359 644 352 652 341 652 L296 652 L300 681 C302 692 295 700 284 700 L178 700 C167 700 158 692 156 681 L152 652 L115 652 C104 652 95 644 93 633 L84 565 C82 554 89 546 100 546 L137 546 Z " />
<glyph glyph-name="Itilde" unicode="&#x128;" horiz-adv-x="274" d="M67 19 C66 8 73 0 84 0 L190 0 C201 0 210 8 211 19 L304 681 C306 692 299 700 288 700 L182 700 C171 700 162 692 160 681 L67 19 Z M297 752 C324 752 353 765 381 781 C390 787 395 796 397 805 L384 883 C383 890 375 896 365 896 C362 896 358 896 355 895 C344 890 324 886 316 886 C267 886 262 923 214 923 C187 923 158 910 130 894 C121 888 116 879 115 870 L128 792 C129 785 136 779 146 779 C149 779 153 779 156 780 C168 785 187 789 195 789 C245 789 249 752 297 752 L297 752 Z " />
<glyph glyph-name="itilde" unicode="&#x129;" horiz-adv-x="274" d="M67 19 C66 8 73 0 84 0 L190 0 C201 0 210 8 211 19 L278 496 C280 507 273 515 262 515 L156 515 C145 515 136 507 134 496 L67 19 Z M272 571 C299 571 328 584 356 600 C365 606 370 615 371 624 L358 702 C357 709 350 715 340 715 C337 715 333 715 330 714 C318 709 299 705 291 705 C242 705 237 742 189 742 C162 742 133 729 105 713 C96 707 91 698 89 689 L102 611 C103 604 111 598 121 598 C124 598 128 598 131 599 C142 604 162 608 170 608 C220 608 224 571 272 571 L272 571 Z " />
<glyph glyph-name="Imacron" unicode="&#x12a;" horiz-adv-x="274" d="M67 19 C66 8 73 0 84 0 L190 0 C201 0 210 8 211 19 L304 681 C306 692 299 700 288 700 L182 700 C171 700 162 692 160 681 L67 19 Z M362 751 C373 751 382 759 384 770 L396 854 C397 865 390 873 379 873 L139 873 C128 873 119 865 118 854 L106 770 C104 759 111 751 122 751 L362 751 Z " />
<glyph glyph-name="imacron" unicode="&#x12b;" horiz-adv-x="274" d="M67 19 C66 8 73 0 84 0 L190 0 C201 0 210 8 211 19 L278 496 C280 507 273 515 262 515 L156 515 C145 515 136 507 134 496 L67 19 Z M337 571 C348 571 357 579 358 590 L370 674 C372 685 365 693 354 693 L114 693 C103 693 94 685 92 674 L80 590 C79 579 86 571 97 571 L337 571 Z " />
<glyph glyph-name="Iogonek" unicode="&#x12e;" horiz-adv-x="274" d="M75 73 C-5 60 -17 -17 -19 -34 C-26 -79 -1 -123 57 -123 L128 -123 C136 -123 144 -116 145 -108 L153 -56 C154 -47 148 -41 140 -41 L86 -41 C86 -41 69 -41 72 -20 C73 -10 80 0 92 0 L190 0 C201 0 210 8 211 19 L304 681 C306 692 299 700 288 700 L182 700 C171 700 162 692 160 681 L75 73 Z " />
<glyph glyph-name="iogonek" unicode="&#x12f;" horiz-adv-x="274" d="M190 0 C201 0 210 8 211 19 L278 496 C280 507 273 515 262 515 L156 515 C145 515 136 507 134 496 L75 73 C-5 60 -17 -17 -19 -34 C-26 -79 -1 -123 57 -123 L128 -123 C136 -123 144 -116 145 -108 L153 -56 C154 -47 148 -41 140 -41 L86 -41 C86 -41 69 -41 72 -20 C73 -10 80 0 92 0 L190 0 Z M145 584 C143 573 150 565 161 565 L271 565 C282 565 291 573 293 584 L306 681 C308 692 301 700 290 700 L180 700 C169 700 160 692 158 681 L145 584 Z " />
<glyph glyph-name="Idotaccent" unicode="&#x130;" horiz-adv-x="274" d="M67 19 C66 8 73 0 84 0 L190 0 C201 0 210 8 211 19 L286 552 C288 563 281 571 270 571 L164 571 C153 571 144 563 142 552 L67 19 Z M152 640 C151 629 158 621 169 621 L279 621 C290 621 299 629 300 640 L314 737 C316 748 309 756 298 756 L188 756 C177 756 168 748 166 737 L152 640 Z " />
<glyph glyph-name="dotlessi" unicode="&#x131;" horiz-adv-x="274" d="M67 19 C66 8 73 0 84 0 L190 0 C201 0 210 8 211 19 L278 496 C280 507 273 515 262 515 L156 515 C145 515 136 507 134 496 L67 19 Z " />
<glyph glyph-name="Jcircumflex" unicode="&#x134;" horiz-adv-x="428" d="M304 959 C292 959 284 955 277 944 L167 770 C165 759 172 751 183 751 L277 751 C288 751 297 760 303 770 L335 821 L353 770 C355 760 362 751 373 751 L467 751 C478 751 487 759 489 770 L427 944 C424 955 416 959 404 959 L304 959 Z M118 158 C114 161 109 162 104 162 C99 162 95 161 90 158 L15 97 C9 92 7 88 6 82 C5 78 7 73 10 69 C29 46 72 -5 168 -5 C309 -5 395 86 408 180 L478 681 C480 692 473 700 462 700 L356 700 C345 700 336 692 334 681 L264 183 C264 183 257 129 181 129 C161 129 139 136 118 158 L118 158 Z " />
<glyph glyph-name="jcircumflex" unicode="&#x135;" horiz-adv-x="274" d="M18 -188 C18 -188 189 -142 210 14 L278 496 C280 507 273 515 262 515 L156 515 C145 515 136 507 134 496 L67 19 C67 19 58 -35 -17 -56 C-26 -58 -31 -66 -32 -73 C-32 -75 -31 -78 -31 -80 L-5 -178 C-3 -186 2 -190 9 -190 C11 -190 16 -189 18 -188 L18 -188 Z M196 779 C184 779 175 775 169 764 L58 590 C57 579 64 571 75 571 L169 571 C180 571 189 580 194 590 L227 641 L244 590 C247 580 254 571 265 571 L359 571 C370 571 379 579 380 590 L319 764 C315 775 308 779 296 779 L196 779 Z " />
<glyph glyph-name="uni0136" unicode="&#x136;" horiz-adv-x="559" d="M272 -214 C283 -214 293 -205 298 -196 L355 -71 C356 -61 350 -53 339 -53 L239 -53 C228 -53 219 -62 214 -71 L157 -196 C156 -206 162 -214 172 -214 L272 -214 Z M330 417 L267 417 L304 681 C306 692 299 700 288 700 L182 700 C171 700 162 692 160 681 L67 19 C66 8 73 0 84 0 L190 0 C201 0 210 8 211 19 L248 283 L312 283 L383 19 C387 9 395 0 406 0 L514 0 C525 0 534 9 535 20 L446 350 L625 680 C627 691 620 700 609 700 L501 700 C490 700 480 691 473 681 L330 417 Z " />
<glyph glyph-name="uni0137" unicode="&#x137;" horiz-adv-x="490" d="M245 -214 C256 -214 266 -205 271 -196 L328 -71 C329 -61 323 -53 312 -53 L212 -53 C201 -53 192 -62 187 -71 L130 -196 C129 -206 135 -214 145 -214 L245 -214 Z M319 21 C324 8 334 0 345 0 L454 0 C465 0 474 8 475 19 L415 270 L544 496 C546 507 539 515 528 515 L421 515 C410 515 397 506 389 496 L296 335 L256 335 L304 681 C306 692 299 700 288 700 L182 700 C171 700 162 692 160 681 L67 19 C66 8 73 0 84 0 L190 0 C201 0 210 8 211 19 L237 205 L276 205 L319 21 Z " />
<glyph glyph-name="kgreenlandic" unicode="&#x138;" horiz-adv-x="490" d="M319 21 C324 8 334 0 345 0 L454 0 C465 0 474 8 475 19 L415 270 L544 496 C546 507 539 515 528 515 L421 515 C410 515 397 506 389 496 L296 335 L256 335 L278 496 C280 507 273 515 262 515 L156 515 C145 515 136 507 134 496 L67 19 C66 8 73 0 84 0 L190 0 C201 0 210 8 211 19 L237 205 L276 205 L319 21 Z " />
<glyph glyph-name="Lacute" unicode="&#x139;" horiz-adv-x="477" d="M295 751 C306 751 315 760 321 769 L400 906 C401 916 395 924 384 924 L284 924 C273 924 264 915 259 906 L180 769 C178 759 185 751 195 751 L295 751 Z M304 681 C306 692 299 700 288 700 L182 700 C171 700 162 692 160 681 L67 19 C66 8 73 0 84 0 L433 0 C444 0 453 8 454 19 L468 115 C469 126 462 134 451 134 L227 134 L304 681 Z " />
<glyph glyph-name="lacute" unicode="&#x13a;" horiz-adv-x="274" d="M304 681 C306 692 299 700 288 700 L182 700 C171 700 162 692 160 681 L67 19 C66 8 73 0 84 0 L190 0 C201 0 210 8 211 19 L304 681 Z M291 751 C302 751 311 760 317 769 L396 906 C397 916 391 924 380 924 L280 924 C269 924 260 915 255 906 L176 769 C174 759 181 751 191 751 L291 751 Z " />
<glyph glyph-name="uni013B" unicode="&#x13b;" horiz-adv-x="477" d="M234 -214 C245 -214 255 -205 260 -196 L317 -71 C318 -61 312 -53 301 -53 L201 -53 C190 -53 181 -62 176 -71 L119 -196 C118 -206 124 -214 134 -214 L234 -214 Z M304 681 C306 692 299 700 288 700 L182 700 C171 700 162 692 160 681 L67 19 C66 8 73 0 84 0 L433 0 C444 0 453 8 454 19 L468 115 C469 126 462 134 451 134 L227 134 L304 681 Z " />
<glyph glyph-name="uni013C" unicode="&#x13c;" horiz-adv-x="274" d="M67 19 C66 8 73 0 84 0 L190 0 C201 0 210 8 211 19 L304 681 C306 692 299 700 288 700 L182 700 C171 700 162 692 160 681 L67 19 Z M112 -214 C123 -214 133 -205 138 -196 L195 -71 C196 -61 190 -53 179 -53 L79 -53 C68 -53 59 -62 54 -71 L-2 -196 C-3 -206 2 -214 12 -214 L112 -214 Z " />
<glyph glyph-name="Lcaron" unicode="&#x13d;" horiz-adv-x="477" d="M442 527 C453 527 462 536 467 545 L546 682 C548 692 542 700 531 700 L431 700 C420 700 411 691 405 682 L326 545 C325 535 332 527 342 527 L442 527 Z M304 681 C306 692 299 700 288 700 L182 700 C171 700 162 692 160 681 L67 19 C66 8 73 0 84 0 L433 0 C444 0 453 8 454 19 L468 115 C469 126 462 134 451 134 L227 134 L304 681 Z " />
<glyph glyph-name="lcaron" unicode="&#x13e;" horiz-adv-x="475" d="M67 19 C66 8 73 0 84 0 L190 0 C201 0 210 8 211 19 L304 681 C306 692 299 700 288 700 L182 700 C171 700 162 692 160 681 L67 19 Z M461 527 C472 527 481 536 486 545 L565 682 C567 692 561 700 550 700 L450 700 C439 700 430 691 424 682 L345 545 C344 535 351 527 361 527 L461 527 Z " />
<glyph glyph-name="Lslash" unicode="&#x141;" horiz-adv-x="513" d="M78 388 C67 385 57 377 56 366 L43 273 C41 262 48 254 59 254 L123 271 L87 19 C86 8 93 0 104 0 L469 0 C480 0 489 8 490 19 L504 115 C505 126 498 134 487 134 L247 134 L272 310 L336 327 C348 330 357 338 359 349 L372 442 C373 453 366 461 355 461 L291 444 L324 681 C326 692 319 700 308 700 L202 700 C191 700 182 692 180 681 L141 405 L78 388 Z " />
<glyph glyph-name="lslash" unicode="&#x142;" horiz-adv-x="315" d="M78 388 C67 385 57 377 56 366 L43 273 C41 262 48 254 59 254 L123 271 L87 19 C86 8 93 0 104 0 L210 0 C221 0 230 8 231 19 L272 310 L336 327 C348 330 357 338 359 349 L372 442 C373 453 366 461 355 461 L291 444 L324 681 C326 692 319 700 308 700 L202 700 C191 700 182 692 180 681 L141 405 L78 388 Z " />
<glyph glyph-name="Nacute" unicode="&#x143;" horiz-adv-x="615" d="M484 751 C495 751 504 760 510 769 L589 906 C590 916 584 924 573 924 L473 924 C462 924 453 915 448 906 L369 769 C367 759 374 751 384 751 L484 751 Z M310 700 L182 700 C171 700 162 692 160 681 L67 19 C66 8 73 0 84 0 L190 0 C201 0 210 8 211 19 L261 373 L268 373 L378 16 C381 6 387 0 402 0 L531 0 C542 0 551 8 552 19 L645 681 C647 692 640 700 629 700 L523 700 C512 700 503 692 501 681 L451 321 L444 321 L334 684 C330 694 325 700 310 700 L310 700 Z " />
<glyph glyph-name="nacute" unicode="&#x144;" horiz-adv-x="509" d="M396 571 C407 571 416 580 421 589 L501 726 C502 736 496 744 485 744 L385 744 C374 744 365 735 360 726 L280 589 C279 579 286 571 296 571 L396 571 Z M504 361 C512 451 495 520 401 520 L387 520 C366 520 323 513 284 470 L275 470 L278 496 C280 507 273 515 262 515 L156 515 C145 515 136 507 134 496 L67 19 C66 8 73 0 84 0 L190 0 C201 0 210 8 211 19 L256 339 C276 383 300 387 315 387 L331 387 C349 387 362 373 359 352 L312 19 C311 8 318 0 329 0 L435 0 C446 0 455 8 456 19 L504 361 Z " />
<glyph glyph-name="uni0145" unicode="&#x145;" horiz-adv-x="615" d="M283 -214 C294 -214 304 -205 309 -196 L366 -71 C367 -61 361 -53 350 -53 L250 -53 C239 -53 230 -62 225 -71 L168 -196 C167 -206 173 -214 183 -214 L283 -214 Z M310 700 L182 700 C171 700 162 692 160 681 L67 19 C66 8 73 0 84 0 L190 0 C201 0 210 8 211 19 L261 373 L268 373 L378 16 C381 6 387 0 402 0 L531 0 C542 0 551 8 552 19 L645 681 C647 692 640 700 629 700 L523 700 C512 700 503 692 501 681 L451 321 L444 321 L334 684 C330 694 325 700 310 700 L310 700 Z " />
<glyph glyph-name="uni0146" unicode="&#x146;" horiz-adv-x="509" d="M235 -214 C246 -214 256 -205 261 -196 L318 -71 C319 -61 313 -53 302 -53 L202 -53 C191 -53 182 -62 177 -71 L120 -196 C119 -206 125 -214 135 -214 L235 -214 Z M504 361 C512 451 495 520 401 520 L387 520 C366 520 323 513 284 470 L275 470 L278 496 C280 507 273 515 262 515 L156 515 C145 515 136 507 134 496 L67 19 C66 8 73 0 84 0 L190 0 C201 0 210 8 211 19 L256 339 C276 383 300 387 315 387 L331 387 C349 387 362 373 359 352 L312 19 C311 8 318 0 329 0 L435 0 C446 0 455 8 456 19 L504 361 Z " />
<glyph glyph-name="Ncaron" unicode="&#x147;" horiz-adv-x="615" d="M467 751 C479 751 488 755 494 766 L605 940 C606 951 599 959 588 959 L494 959 C483 959 474 950 469 940 L436 889 L419 940 C416 950 409 959 398 959 L304 959 C293 959 284 951 283 940 L344 766 C348 755 355 751 367 751 L467 751 Z M310 700 L182 700 C171 700 162 692 160 681 L67 19 C66 8 73 0 84 0 L190 0 C201 0 210 8 211 19 L261 373 L268 373 L378 16 C381 6 387 0 402 0 L531 0 C542 0 551 8 552 19 L645 681 C647 692 640 700 629 700 L523 700 C512 700 503 692 501 681 L451 321 L444 321 L334 684 C330 694 325 700 310 700 L310 700 Z " />
<glyph glyph-name="ncaron" unicode="&#x148;" horiz-adv-x="509" d="M389 571 C401 571 409 575 416 586 L526 760 C528 771 521 779 510 779 L416 779 C405 779 396 770 390 760 L358 709 L340 760 C338 770 331 779 320 779 L226 779 C215 779 206 771 204 760 L266 586 C269 575 277 571 289 571 L389 571 Z M504 361 C512 451 495 520 401 520 L387 520 C366 520 323 513 284 470 L275 470 L278 496 C280 507 273 515 262 515 L156 515 C145 515 136 507 134 496 L67 19 C66 8 73 0 84 0 L190 0 C201 0 210 8 211 19 L256 339 C276 383 300 387 315 387 L331 387 C349 387 362 373 359 352 L312 19 C311 8 318 0 329 0 L435 0 C446 0 455 8 456 19 L504 361 Z " />
<glyph glyph-name="Eng" unicode="&#x14a;" horiz-adv-x="606" d="M359 -188 C359 -188 530 -142 551 14 L645 681 C647 692 640 700 629 700 L523 700 C512 700 503 692 501 681 L451 321 L444 321 L334 684 C330 694 325 700 310 700 L182 700 C171 700 162 692 160 681 L67 19 C66 8 73 0 84 0 L190 0 C201 0 210 8 211 19 L261 373 L268 373 L388 -18 C375 -32 355 -47 323 -56 C314 -58 309 -66 308 -73 C308 -75 309 -78 309 -80 L335 -178 C337 -186 343 -190 350 -190 C352 -190 357 -189 359 -188 L359 -188 Z " />
<glyph glyph-name="eng" unicode="&#x14b;" horiz-adv-x="509" d="M263 -188 C263 -188 434 -142 455 14 L504 361 C512 451 495 520 401 520 L387 520 C366 520 323 513 284 470 L275 470 L278 496 C280 507 273 515 262 515 L156 515 C145 515 136 507 134 496 L67 19 C66 8 73 0 84 0 L190 0 C201 0 210 8 211 19 L256 339 C276 383 300 387 315 387 L331 387 C349 387 362 373 359 352 L312 19 C312 19 303 -35 227 -56 C218 -58 213 -66 212 -73 C212 -75 213 -78 213 -80 L239 -178 C241 -186 247 -190 254 -190 C256 -190 261 -189 263 -188 L263 -188 Z " />
<glyph glyph-name="Omacron" unicode="&#x14c;" horiz-adv-x="567" d="M533 751 C544 751 553 759 555 770 L567 854 C568 865 561 873 550 873 L261 873 C250 873 241 865 240 854 L228 770 C226 759 233 751 244 751 L533 751 Z M262 129 C238 129 220 151 224 178 L272 522 C276 549 300 571 324 571 L403 571 C427 571 445 549 441 522 L393 178 C389 151 365 129 341 129 L262 129 Z M328 -5 C430 -5 522 73 536 171 L586 529 C600 627 530 705 428 705 L337 705 C235 705 143 627 129 529 L79 171 C65 73 135 -5 237 -5 L328 -5 Z " />
<glyph glyph-name="omacron" unicode="&#x14d;" horiz-adv-x="481" d="M443 571 C454 571 463 579 464 590 L476 674 C478 685 471 693 460 693 L216 693 C205 693 196 685 194 674 L182 590 C181 579 188 571 199 571 L443 571 Z M280 520 C184 520 111 440 100 362 L71 152 C60 75 110 -5 206 -5 L273 -5 C369 -5 441 75 452 152 L481 362 C492 440 443 520 347 520 L280 520 Z M311 387 C326 387 339 373 337 357 L309 158 C306 142 289 128 274 128 L241 128 C226 128 213 142 216 158 L244 357 C246 373 263 387 278 387 L311 387 Z " />
<glyph glyph-name="Ohungarumlaut" unicode="&#x150;" horiz-adv-x="567" d="M361 751 C372 751 381 760 387 769 L454 903 C456 913 450 921 439 921 L339 921 C328 921 319 912 313 903 L246 769 C244 759 251 751 261 751 L361 751 Z M532 751 C543 751 552 760 558 769 L625 903 C627 913 621 921 610 921 L510 921 C499 921 490 912 484 903 L417 769 C415 759 422 751 432 751 L532 751 Z M262 129 C238 129 220 151 224 178 L272 522 C276 549 300 571 324 571 L403 571 C427 571 445 549 441 522 L393 178 C389 151 365 129 341 129 L262 129 Z M328 -5 C430 -5 522 73 536 171 L586 529 C600 627 530 705 428 705 L337 705 C235 705 143 627 129 529 L79 171 C65 73 135 -5 237 -5 L328 -5 Z " />
<glyph glyph-name="ohungarumlaut" unicode="&#x151;" horiz-adv-x="481" d="M268 571 C279 571 288 580 293 589 L361 723 C363 733 357 741 346 741 L246 741 C235 741 225 732 220 723 L152 589 C151 579 158 571 168 571 L268 571 Z M439 571 C450 571 459 580 464 589 L532 723 C534 733 528 741 517 741 L417 741 C406 741 396 732 391 723 L323 589 C322 579 329 571 339 571 L439 571 Z M280 520 C184 520 111 440 100 362 L71 152 C60 75 110 -5 206 -5 L273 -5 C369 -5 441 75 452 152 L481 362 C492 440 443 520 347 520 L280 520 Z M311 387 C326 387 339 373 337 357 L309 158 C306 142 289 128 274 128 L241 128 C226 128 213 142 216 158 L244 357 C246 373 263 387 278 387 L311 387 Z " />
<glyph glyph-name="OE" unicode="&#x152;" horiz-adv-x="812" d="M580 485 L591 566 L817 566 C828 566 837 574 839 585 L852 681 C854 692 847 700 836 700 L336 700 C234 700 142 622 128 524 L79 176 C65 78 136 0 238 0 L738 0 C749 0 758 8 759 19 L773 115 C774 126 767 134 756 134 L530 134 L553 296 L757 296 C768 296 777 304 779 315 L792 411 C794 422 787 430 776 430 L572 430 L580 485 Z M393 179 C387 154 364 134 341 134 L262 134 C238 134 220 156 224 183 L271 517 C275 544 299 566 323 566 L402 566 C426 566 444 544 440 517 L393 179 Z " />
<glyph glyph-name="oe" unicode="&#x153;" horiz-adv-x="713" d="M280 520 C184 520 111 440 100 362 L71 152 C60 75 110 -5 206 -5 L273 -5 C305 -5 335 4 361 19 C382 4 410 -5 443 -5 L501 -5 C501 -5 603 -4 663 74 C665 77 667 82 667 85 C668 91 667 95 662 100 L602 155 C600 157 595 158 592 158 C585 158 579 155 575 150 C563 141 546 128 519 128 L478 128 C463 128 450 142 453 158 L458 195 L676 195 C687 195 696 203 698 214 L718 362 C729 440 681 520 584 520 L517 520 C484 520 453 511 428 495 C406 511 379 520 347 520 L280 520 Z M311 387 C326 387 339 373 337 357 L309 158 C306 142 289 128 274 128 L241 128 C226 128 213 142 216 158 L244 357 C246 373 263 387 278 387 L311 387 Z M515 387 L548 387 C563 387 577 373 575 357 L569 315 L475 315 L481 360 C485 375 501 387 515 387 L515 387 Z " />
<glyph glyph-name="Racute" unicode="&#x154;" horiz-adv-x="567" d="M427 751 C438 751 447 760 453 769 L532 906 C533 916 527 924 516 924 L416 924 C405 924 396 915 391 906 L312 769 C310 759 317 751 327 751 L427 751 Z M464 229 C517 260 557 314 565 375 L586 524 C600 622 529 700 428 700 L182 700 C171 700 162 692 160 681 L67 19 C66 8 73 0 84 0 L190 0 C201 0 210 8 211 19 L236 199 L318 199 L375 19 C379 9 387 0 398 0 L513 0 C524 0 533 8 534 19 L464 229 Z M288 566 L402 566 C427 566 445 544 441 517 L422 382 C418 355 394 333 369 333 L255 333 L288 566 Z " />
<glyph glyph-name="racute" unicode="&#x155;" horiz-adv-x="380" d="M272 571 C283 571 292 580 297 589 L377 726 C378 736 372 744 361 744 L261 744 C250 744 241 735 236 726 L156 589 C155 579 162 571 172 571 L272 571 Z M422 514 C410 519 399 520 383 520 C363 520 320 520 283 465 L274 465 L278 496 C280 507 273 515 262 515 L156 515 C145 515 136 507 134 496 L67 19 C66 8 73 0 84 0 L190 0 C201 0 210 8 211 19 L256 339 C287 384 326 387 347 387 C369 387 387 381 391 381 C402 381 411 389 413 400 L434 492 C435 504 433 509 422 514 L422 514 Z " />
<glyph glyph-name="uni0156" unicode="&#x156;" horiz-adv-x="567" d="M275 -214 C286 -214 296 -205 301 -196 L358 -71 C359 -61 353 -53 342 -53 L242 -53 C231 -53 222 -62 217 -71 L160 -196 C159 -206 165 -214 175 -214 L275 -214 Z M464 229 C517 260 557 314 565 375 L586 524 C600 622 529 700 428 700 L182 700 C171 700 162 692 160 681 L67 19 C66 8 73 0 84 0 L190 0 C201 0 210 8 211 19 L236 199 L318 199 L375 19 C379 9 387 0 398 0 L513 0 C524 0 533 8 534 19 L464 229 Z M288 566 L402 566 C427 566 445 544 441 517 L422 382 C418 355 394 333 369 333 L255 333 L288 566 Z " />
<glyph glyph-name="uni0157" unicode="&#x157;" horiz-adv-x="380" d="M157 -214 C168 -214 178 -205 183 -196 L240 -71 C241 -61 235 -53 224 -53 L124 -53 C113 -53 104 -62 99 -71 L42 -196 C41 -206 47 -214 57 -214 L157 -214 Z M422 514 C410 519 399 520 383 520 C363 520 320 520 283 465 L274 465 L278 496 C280 507 273 515 262 515 L156 515 C145 515 136 507 134 496 L67 19 C66 8 73 0 84 0 L190 0 C201 0 210 8 211 19 L256 339 C287 384 326 387 347 387 C369 387 387 381 391 381 C402 381 411 389 413 400 L434 492 C435 504 433 509 422 514 L422 514 Z " />
<glyph glyph-name="Rcaron" unicode="&#x158;" horiz-adv-x="567" d="M403 751 C415 751 424 755 430 766 L541 940 C542 951 535 959 524 959 L430 959 C419 959 410 950 405 940 L372 889 L355 940 C352 950 345 959 334 959 L240 959 C229 959 220 951 219 940 L280 766 C284 755 291 751 303 751 L403 751 Z M464 229 C517 260 557 314 565 375 L586 524 C600 622 529 700 428 700 L182 700 C171 700 162 692 160 681 L67 19 C66 8 73 0 84 0 L190 0 C201 0 210 8 211 19 L236 199 L318 199 L375 19 C379 9 387 0 398 0 L513 0 C524 0 533 8 534 19 L464 229 Z M288 566 L402 566 C427 566 445 544 441 517 L422 382 C418 355 394 333 369 333 L255 333 L288 566 Z " />
<glyph glyph-name="rcaron" unicode="&#x159;" horiz-adv-x="380" d="M342 571 C353 571 360 575 367 585 L469 746 C471 757 464 764 454 764 L367 764 C357 764 348 756 343 746 L313 699 L296 746 C294 756 288 764 278 764 L191 764 C180 764 172 757 170 746 L228 585 C230 575 238 571 249 571 L342 571 Z M422 514 C410 519 399 520 383 520 C363 520 320 520 283 465 L274 465 L278 496 C280 507 273 515 262 515 L156 515 C145 515 136 507 134 496 L67 19 C66 8 73 0 84 0 L190 0 C201 0 210 8 211 19 L256 339 C287 384 326 387 347 387 C369 387 387 381 391 381 C402 381 411 389 413 400 L434 492 C435 504 433 509 422 514 L422 514 Z " />
<glyph glyph-name="Sacute" unicode="&#x15a;" horiz-adv-x="534" d="M316 751 C306 751 299 759 301 769 L380 906 C385 915 394 924 405 924 L505 924 C516 924 522 916 521 906 L442 769 C436 760 427 751 416 751 L316 751 Z M317 705 C216 705 123 627 109 529 L106 507 C65 215 397 336 378 202 L375 178 C371 151 346 129 321 129 L243 129 C218 129 200 151 204 178 L207 204 C209 215 202 223 191 223 L85 223 C74 223 65 215 63 204 L59 171 C45 73 116 -5 217 -5 L310 -5 C411 -5 504 73 518 171 L520 187 C561 482 228 352 248 496 L252 522 C256 549 281 571 306 571 L374 571 C399 571 417 549 413 522 L410 502 C409 491 415 483 426 483 L532 483 C543 483 553 491 554 502 L558 529 C572 627 501 705 401 705 L317 705 Z " />
<glyph glyph-name="sacute" unicode="&#x15b;" horiz-adv-x="455" d="M357 571 C368 571 377 580 382 589 L462 726 C463 736 457 744 446 744 L346 744 C335 744 326 735 321 726 L241 589 C240 579 247 571 257 571 L357 571 Z M294 392 C310 392 323 378 320 362 L320 356 C318 345 325 337 336 337 L442 337 C453 337 462 345 464 356 L465 363 C475 440 426 520 330 520 L270 520 C174 520 108 451 92 373 L91 365 C63 168 308 223 299 162 L297 145 C295 131 279 123 263 123 L232 123 C216 123 203 137 205 153 L207 164 C208 175 201 183 190 183 L84 183 C73 183 64 175 63 164 L61 152 C50 75 100 -5 196 -5 L262 -5 C359 -5 428 63 439 141 L441 155 C469 350 225 293 234 358 L236 370 C237 384 254 392 270 392 L294 392 Z " />
<glyph glyph-name="Scircumflex" unicode="&#x15c;" horiz-adv-x="534" d="M446 959 C458 959 466 955 469 944 L531 770 C529 759 520 751 509 751 L415 751 C404 751 397 760 395 770 L377 821 L345 770 C339 760 330 751 319 751 L225 751 C214 751 207 759 209 770 L319 944 C326 955 334 959 346 959 L446 959 Z M317 705 C216 705 123 627 109 529 L106 507 C65 215 397 336 378 202 L375 178 C371 151 346 129 321 129 L243 129 C218 129 200 151 204 178 L207 204 C209 215 202 223 191 223 L85 223 C74 223 65 215 63 204 L59 171 C45 73 116 -5 217 -5 L310 -5 C411 -5 504 73 518 171 L520 187 C561 482 228 352 248 496 L252 522 C256 549 281 571 306 571 L374 571 C399 571 417 549 413 522 L410 502 C409 491 415 483 426 483 L532 483 C543 483 553 491 554 502 L558 529 C572 627 501 705 401 705 L317 705 Z " />
<glyph glyph-name="scircumflex" unicode="&#x15d;" horiz-adv-x="455" d="M288 779 C276 779 267 775 261 764 L150 590 C149 579 156 571 167 571 L261 571 C272 571 281 580 286 590 L319 641 L336 590 C339 580 346 571 357 571 L451 571 C462 571 471 579 472 590 L411 764 C407 775 400 779 388 779 L288 779 Z M294 392 C310 392 323 378 320 362 L320 356 C318 345 325 337 336 337 L442 337 C453 337 462 345 464 356 L465 363 C475 440 426 520 330 520 L270 520 C174 520 108 451 92 373 L91 365 C63 168 308 223 299 162 L297 145 C295 131 279 123 263 123 L232 123 C216 123 203 137 205 153 L207 164 C208 175 201 183 190 183 L84 183 C73 183 64 175 63 164 L61 152 C50 75 100 -5 196 -5 L262 -5 C359 -5 428 63 439 141 L441 155 C469 350 225 293 234 358 L236 370 C237 384 254 392 270 392 L294 392 Z " />
<glyph glyph-name="Scedilla" unicode="&#x15e;" horiz-adv-x="534" d="M248 496 L252 522 C256 549 281 571 306 571 L374 571 C399 571 417 549 413 522 L410 502 C409 491 415 483 426 483 L532 483 C543 483 553 491 554 502 L558 529 C572 627 501 705 401 705 L317 705 C216 705 123 627 109 529 L106 507 C65 215 397 336 378 202 L375 178 C371 151 346 129 321 129 L243 129 C218 129 200 151 204 178 L207 204 C209 215 202 223 191 223 L85 223 C74 223 65 215 63 204 L59 171 C45 73 116 -5 217 -5 L221 -5 L202 -32 C198 -37 195 -45 195 -48 L191 -77 C190 -85 196 -92 204 -92 L254 -92 C254 -92 266 -92 264 -105 C262 -118 250 -118 250 -118 L188 -118 C180 -118 172 -124 171 -133 L164 -180 C163 -188 169 -195 177 -195 L264 -195 C324 -195 345 -168 355 -93 C361 -53 336 -29 304 -23 L317 -4 C415 -1 504 76 518 171 L520 187 C561 482 228 352 248 496 L248 496 Z " />
<glyph glyph-name="scedilla" unicode="&#x15f;" horiz-adv-x="455" d="M213 -92 C213 -92 225 -92 223 -105 C221 -118 209 -118 209 -118 L147 -118 C139 -118 131 -124 130 -133 L123 -180 C122 -188 128 -195 136 -195 L223 -195 C283 -195 304 -168 314 -93 C320 -53 295 -29 263 -23 L277 -4 C366 2 429 67 439 141 L441 155 C469 350 225 293 234 358 L236 370 C237 384 254 392 270 392 L294 392 C310 392 323 378 320 362 L320 356 C318 345 325 337 336 337 L442 337 C453 337 462 345 464 356 L465 363 C475 440 426 520 330 520 L270 520 C174 520 108 451 92 373 L91 365 C63 168 308 223 299 162 L297 145 C295 131 279 123 263 123 L232 123 C216 123 203 137 205 153 L207 164 C208 175 201 183 190 183 L84 183 C73 183 64 175 63 164 L61 152 C51 79 95 3 181 -4 L161 -32 C157 -37 154 -45 154 -48 L150 -77 C149 -85 155 -92 163 -92 L213 -92 Z " />
<glyph glyph-name="Scaron" unicode="&#x160;" horiz-adv-x="534" d="M319 751 C307 751 300 755 296 766 L235 940 C236 951 245 959 256 959 L350 959 C361 959 368 950 371 940 L388 889 L421 940 C426 950 435 959 446 959 L540 959 C551 959 558 951 557 940 L446 766 C440 755 431 751 419 751 L319 751 Z M317 705 C216 705 123 627 109 529 L106 507 C65 215 397 336 378 202 L375 178 C371 151 346 129 321 129 L243 129 C218 129 200 151 204 178 L207 204 C209 215 202 223 191 223 L85 223 C74 223 65 215 63 204 L59 171 C45 73 116 -5 217 -5 L310 -5 C411 -5 504 73 518 171 L520 187 C561 482 228 352 248 496 L252 522 C256 549 281 571 306 571 L374 571 C399 571 417 549 413 522 L410 502 C409 491 415 483 426 483 L532 483 C543 483 553 491 554 502 L558 529 C572 627 501 705 401 705 L317 705 Z " />
<glyph glyph-name="scaron" unicode="&#x161;" horiz-adv-x="455" d="M358 571 C370 571 378 575 385 586 L495 760 C497 771 490 779 479 779 L385 779 C374 779 365 770 359 760 L327 709 L309 760 C307 770 300 779 289 779 L195 779 C184 779 175 771 173 760 L235 586 C238 575 246 571 258 571 L358 571 Z M294 392 C310 392 323 378 320 362 L320 356 C318 345 325 337 336 337 L442 337 C453 337 462 345 464 356 L465 363 C475 440 426 520 330 520 L270 520 C174 520 108 451 92 373 L91 365 C63 168 308 223 299 162 L297 145 C295 131 279 123 263 123 L232 123 C216 123 203 137 205 153 L207 164 C208 175 201 183 190 183 L84 183 C73 183 64 175 63 164 L61 152 C50 75 100 -5 196 -5 L262 -5 C359 -5 428 63 439 141 L441 155 C469 350 225 293 234 358 L236 370 C237 384 254 392 270 392 L294 392 Z " />
<glyph glyph-name="uni0162" unicode="&#x162;" horiz-adv-x="504" d="M297 0 C309 0 312 -10 311 -20 C308 -41 291 -41 291 -41 L237 -41 C229 -41 221 -47 220 -56 L212 -108 C211 -116 217 -123 225 -123 L296 -123 C355 -123 392 -79 399 -34 C401 -17 411 60 334 73 L403 566 L534 566 C545 566 554 574 556 585 L569 681 C571 692 564 700 553 700 L147 700 C136 700 127 692 125 681 L112 585 C110 574 117 566 128 566 L259 566 L182 19 C181 8 188 0 199 0 L297 0 Z " />
<glyph glyph-name="uni0163" unicode="&#x163;" horiz-adv-x="364" d="M209 -92 C209 -92 221 -92 219 -105 C217 -118 205 -118 205 -118 L143 -118 C135 -118 127 -124 126 -133 L119 -180 C118 -188 124 -195 132 -195 L219 -195 C279 -195 300 -168 310 -93 C316 -53 291 -29 259 -23 L276 0 L320 0 C331 0 340 8 341 19 L354 113 C356 124 349 132 338 132 L295 132 C277 132 261 148 264 167 L294 382 L373 382 C384 382 393 390 395 401 L408 496 C410 507 403 515 392 515 L313 515 L336 681 C338 692 331 700 320 700 L214 700 C203 700 194 692 192 681 L169 515 L111 515 C100 515 91 507 89 496 L76 401 C74 390 81 382 92 382 L150 382 L120 167 C110 94 136 37 189 13 L157 -32 C153 -37 150 -45 150 -48 L146 -77 C145 -85 151 -92 159 -92 L209 -92 Z " />
<glyph glyph-name="Tcaron" unicode="&#x164;" horiz-adv-x="504" d="M407 751 C419 751 428 755 434 766 L545 940 C546 951 539 959 528 959 L434 959 C423 959 414 950 409 940 L376 889 L359 940 C356 950 349 959 338 959 L244 959 C233 959 224 951 223 940 L284 766 C288 755 295 751 307 751 L407 751 Z M259 566 L182 19 C181 8 188 0 199 0 L305 0 C316 0 325 8 326 19 L403 566 L534 566 C545 566 554 574 556 585 L569 681 C571 692 564 700 553 700 L147 700 C136 700 127 692 125 681 L112 585 C110 574 117 566 128 566 L259 566 Z " />
<glyph glyph-name="tcaron" unicode="&#x165;" horiz-adv-x="527" d="M519 556 C530 556 539 565 544 574 L607 682 C609 692 603 700 592 700 L492 700 C481 700 472 691 466 682 L403 574 C402 564 409 556 419 556 L519 556 Z M294 382 L373 382 C384 382 393 390 395 401 L408 496 C410 507 403 515 392 515 L313 515 L336 681 C338 692 331 700 320 700 L214 700 C203 700 194 692 192 681 L169 515 L111 515 C100 515 91 507 89 496 L76 401 C74 390 81 382 92 382 L150 382 L120 167 C106 69 158 0 254 0 L320 0 C331 0 340 8 341 19 L354 113 C356 124 349 132 338 132 L295 132 C277 132 261 148 264 167 L294 382 Z " />
<glyph glyph-name="Tbar" unicode="&#x166;" horiz-adv-x="504" d="M435 272 C446 272 455 280 456 291 L468 371 C469 382 462 390 451 390 L378 390 L403 566 L534 566 C545 566 554 574 556 585 L569 681 C571 692 564 700 553 700 L147 700 C136 700 127 692 125 681 L112 585 C110 574 117 566 128 566 L259 566 L234 390 L160 390 C149 390 140 382 139 371 L127 291 C126 280 133 272 144 272 L218 272 L182 19 C181 8 188 0 199 0 L305 0 C316 0 325 8 326 19 L362 272 L435 272 Z " />
<glyph glyph-name="tbar" unicode="&#x167;" horiz-adv-x="364" d="M351 221 C362 221 371 229 372 240 L383 320 C385 331 378 339 367 339 L288 339 L296 397 L375 397 C386 397 395 405 397 416 L408 496 C410 507 403 515 392 515 L313 515 L336 681 C338 692 331 700 320 700 L214 700 C203 700 194 692 192 681 L169 515 L111 515 C100 515 91 507 89 496 L78 416 C76 405 83 397 94 397 L152 397 L144 339 L86 339 C75 339 66 331 64 320 L53 240 C52 229 59 221 70 221 L128 221 L120 167 C106 69 158 0 254 0 L320 0 C331 0 340 8 341 19 L354 113 C356 124 349 132 338 132 L295 132 C277 132 261 148 264 167 L272 221 L351 221 Z " />
<glyph glyph-name="Utilde" unicode="&#x168;" horiz-adv-x="577" d="M469 751 C496 751 525 764 553 780 C562 786 567 795 568 804 L555 882 C554 889 547 895 537 895 C534 895 530 895 527 894 C515 889 496 885 488 885 C439 885 403 924 355 924 C328 924 300 911 271 895 C262 889 257 880 256 871 L269 793 C270 786 277 780 287 780 C290 780 294 780 297 781 C309 786 329 790 337 790 C387 790 421 751 469 751 L469 751 Z M612 681 C614 692 607 700 596 700 L490 700 C479 700 470 692 468 681 L398 178 C394 151 370 129 346 129 L267 129 C243 129 225 151 229 178 L299 681 C301 692 294 700 283 700 L177 700 C166 700 157 692 155 681 L84 171 C70 73 140 -5 242 -5 L333 -5 C435 -5 527 73 541 171 L612 681 Z " />
<glyph glyph-name="utilde" unicode="&#x169;" horiz-adv-x="488" d="M275 -5 C371 -5 443 75 454 152 L502 496 C504 507 497 515 486 515 L380 515 C369 515 360 507 358 496 L311 158 C308 142 291 128 276 128 L246 128 C231 128 218 142 221 158 L268 496 C270 507 263 515 252 515 L146 515 C135 515 126 507 124 496 L76 152 C65 75 115 -5 211 -5 L275 -5 Z M379 571 C406 571 435 584 463 600 C472 606 477 615 478 624 L465 702 C464 709 457 715 447 715 C444 715 440 715 437 714 C425 709 406 705 398 705 C349 705 344 742 296 742 C269 742 240 729 212 713 C203 707 198 698 196 689 L209 611 C210 604 218 598 228 598 C231 598 235 598 238 599 C249 604 269 608 277 608 C327 608 331 571 379 571 L379 571 Z " />
<glyph glyph-name="Umacron" unicode="&#x16a;" horiz-adv-x="577" d="M530 751 C541 751 550 759 552 770 L564 854 C565 865 558 873 547 873 L273 873 C262 873 253 865 252 854 L240 770 C238 759 245 751 256 751 L530 751 Z M612 681 C614 692 607 700 596 700 L490 700 C479 700 470 692 468 681 L398 178 C394 151 370 129 346 129 L267 129 C243 129 225 151 229 178 L299 681 C301 692 294 700 283 700 L177 700 C166 700 157 692 155 681 L84 171 C70 73 140 -5 242 -5 L333 -5 C435 -5 527 73 541 171 L612 681 Z " />
<glyph glyph-name="umacron" unicode="&#x16b;" horiz-adv-x="488" d="M452 571 C463 571 472 579 473 590 L485 674 C487 685 480 693 469 693 L214 693 C203 693 194 685 192 674 L180 590 C179 579 186 571 197 571 L452 571 Z M275 -5 C371 -5 443 75 454 152 L502 496 C504 507 497 515 486 515 L380 515 C369 515 360 507 358 496 L311 158 C308 142 291 128 276 128 L246 128 C231 128 218 142 221 158 L268 496 C270 507 263 515 252 515 L146 515 C135 515 126 507 124 496 L76 152 C65 75 115 -5 211 -5 L275 -5 Z " />
<glyph glyph-name="Ubreve" unicode="&#x16c;" horiz-adv-x="577" d="M612 681 C614 692 607 700 596 700 L490 700 C479 700 470 692 468 681 L398 178 C394 151 370 129 346 129 L267 129 C243 129 225 151 229 178 L299 681 C301 692 294 700 283 700 L177 700 C166 700 157 692 155 681 L84 171 C70 73 140 -5 242 -5 L333 -5 C435 -5 527 73 541 171 L612 681 Z M397 751 C498 751 559 797 585 909 C587 919 581 926 571 926 L485 926 C475 926 466 919 460 909 C448 875 434 870 414 870 C394 870 380 875 378 909 C376 919 369 926 359 926 L273 926 C263 926 255 919 253 909 C249 797 296 751 397 751 L397 751 Z " />
<glyph glyph-name="ubreve" unicode="&#x16d;" horiz-adv-x="488" d="M275 -5 C371 -5 443 75 454 152 L502 496 C504 507 497 515 486 515 L380 515 C369 515 360 507 358 496 L311 158 C308 142 291 128 276 128 L246 128 C231 128 218 142 221 158 L268 496 C270 507 263 515 252 515 L146 515 C135 515 126 507 124 496 L76 152 C65 75 115 -5 211 -5 L275 -5 Z M325 571 C426 571 486 617 513 729 C514 739 508 746 498 746 L412 746 C402 746 393 739 388 729 C376 695 361 690 341 690 C321 690 308 695 306 729 C303 739 296 746 286 746 L200 746 C190 746 182 739 181 729 C176 617 224 571 325 571 L325 571 Z " />
<glyph glyph-name="Uring" unicode="&#x16e;" horiz-adv-x="577" d="M431 1002 C354 1002 281 939 270 860 C260 783 315 719 392 719 C472 719 544 783 554 860 C565 939 511 1002 431 1002 L431 1002 Z M406 819 C384 819 367 838 370 860 C374 883 395 902 417 902 C440 902 457 883 453 860 C450 838 429 819 406 819 L406 819 Z M612 681 C614 692 607 700 596 700 L490 700 C479 700 470 692 468 681 L398 178 C394 151 370 129 346 129 L267 129 C243 129 225 151 229 178 L299 681 C301 692 294 700 283 700 L177 700 C166 700 157 692 155 681 L84 171 C70 73 140 -5 242 -5 L333 -5 C435 -5 527 73 541 171 L612 681 Z " />
<glyph glyph-name="uring" unicode="&#x16f;" horiz-adv-x="488" d="M364 854 C287 854 214 791 203 712 C192 635 247 571 324 571 C404 571 476 635 487 712 C498 791 444 854 364 854 L364 854 Z M338 671 C316 671 299 690 303 712 C306 735 327 754 349 754 C372 754 389 735 386 712 C382 690 361 671 338 671 L338 671 Z M275 -5 C371 -5 443 75 454 152 L502 496 C504 507 497 515 486 515 L380 515 C369 515 360 507 358 496 L311 158 C308 142 291 128 276 128 L246 128 C231 128 218 142 221 158 L268 496 C270 507 263 515 252 515 L146 515 C135 515 126 507 124 496 L76 152 C65 75 115 -5 211 -5 L275 -5 Z " />
<glyph glyph-name="Uhungarumlaut" unicode="&#x170;" horiz-adv-x="577" d="M350 751 C361 751 370 760 376 769 L443 903 C445 913 439 921 428 921 L328 921 C317 921 308 912 302 903 L235 769 C233 759 240 751 250 751 L350 751 Z M521 751 C532 751 541 760 547 769 L614 903 C616 913 610 921 599 921 L499 921 C488 921 479 912 473 903 L406 769 C404 759 411 751 421 751 L521 751 Z M612 681 C614 692 607 700 596 700 L490 700 C479 700 470 692 468 681 L398 178 C394 151 370 129 346 129 L267 129 C243 129 225 151 229 178 L299 681 C301 692 294 700 283 700 L177 700 C166 700 157 692 155 681 L84 171 C70 73 140 -5 242 -5 L333 -5 C435 -5 527 73 541 171 L612 681 Z " />
<glyph glyph-name="uhungarumlaut" unicode="&#x171;" horiz-adv-x="488" d="M266 571 C277 571 286 580 291 589 L359 723 C361 733 355 741 344 741 L244 741 C233 741 223 732 218 723 L150 589 C149 579 156 571 166 571 L266 571 Z M437 571 C448 571 457 580 462 589 L530 723 C532 733 526 741 515 741 L415 741 C404 741 394 732 389 723 L321 589 C320 579 327 571 337 571 L437 571 Z M275 -5 C371 -5 443 75 454 152 L502 496 C504 507 497 515 486 515 L380 515 C369 515 360 507 358 496 L311 158 C308 142 291 128 276 128 L246 128 C231 128 218 142 221 158 L268 496 C270 507 263 515 252 515 L146 515 C135 515 126 507 124 496 L76 152 C65 75 115 -5 211 -5 L275 -5 Z " />
<glyph glyph-name="Uogonek" unicode="&#x172;" horiz-adv-x="577" d="M272 -92 C272 -92 284 -92 282 -105 C280 -118 268 -118 268 -118 L206 -118 C198 -118 190 -124 189 -133 L182 -180 C181 -188 187 -195 195 -195 L282 -195 C342 -195 363 -168 373 -93 C379 -53 354 -29 322 -23 L335 -5 C436 -3 527 74 541 171 L612 681 C614 692 607 700 596 700 L490 700 C479 700 470 692 468 681 L398 178 C394 151 370 129 346 129 L267 129 C243 129 225 151 229 178 L299 681 C301 692 294 700 283 700 L177 700 C166 700 157 692 155 681 L84 171 C70 74 138 -3 239 -5 L220 -32 C216 -37 213 -45 213 -48 L209 -77 C208 -85 214 -92 222 -92 L272 -92 Z " />
<glyph glyph-name="uogonek" unicode="&#x173;" horiz-adv-x="488" d="M454 152 L502 496 C504 507 497 515 486 515 L380 515 C369 515 360 507 358 496 L311 158 C308 142 291 128 276 128 L246 128 C231 128 218 142 221 158 L268 496 C270 507 263 515 252 515 L146 515 C135 515 126 507 124 496 L76 152 C66 79 109 4 195 -4 L192 -23 C158 -29 127 -53 121 -93 C111 -168 124 -195 184 -195 L259 -195 C267 -195 275 -188 276 -180 L283 -133 C284 -124 278 -118 270 -118 L220 -118 C220 -118 208 -118 210 -105 C212 -92 224 -92 224 -92 L264 -92 C272 -92 280 -85 281 -77 L291 -4 C378 4 444 79 454 152 L454 152 Z " />
<glyph glyph-name="Ydieresis" unicode="&#x178;" horiz-adv-x="568" d="M238 770 C236 759 243 751 254 751 L349 751 C360 751 369 759 371 770 L385 869 C386 880 379 888 368 888 L273 888 C262 888 253 880 252 869 L238 770 Z M416 770 C414 759 421 751 432 751 L527 751 C538 751 547 759 549 770 L563 869 C564 880 557 888 546 888 L451 888 C440 888 431 880 430 869 L416 770 Z M335 404 L257 681 C254 691 248 700 237 700 L132 700 C121 700 112 692 110 681 L243 226 L214 19 C213 8 220 0 231 0 L337 0 C348 0 357 8 358 19 L387 226 L648 681 C650 692 643 700 632 700 L527 700 C516 700 508 691 501 681 L345 404 L335 404 Z " />
<glyph glyph-name="Zacute" unicode="&#x179;" horiz-adv-x="505" d="M424 751 C435 751 444 760 450 769 L529 906 C530 916 524 924 513 924 L413 924 C402 924 393 915 388 906 L309 769 C307 759 314 751 324 751 L424 751 Z M236 134 L545 609 C548 613 552 621 552 626 L560 681 C562 692 555 700 544 700 L157 700 C146 700 137 692 135 681 L122 585 C120 574 127 566 138 566 L367 566 L57 91 C55 88 51 80 50 75 L42 19 C41 8 48 0 59 0 L446 0 C457 0 466 8 467 19 L481 115 C482 126 475 134 464 134 L236 134 Z " />
<glyph glyph-name="zacute" unicode="&#x17a;" horiz-adv-x="423" d="M344 571 C355 571 364 580 369 589 L449 726 C450 736 444 744 433 744 L333 744 C322 744 313 735 308 726 L228 589 C227 579 234 571 244 571 L344 571 Z M233 134 L441 424 C447 433 449 438 450 444 L457 496 C459 507 452 515 441 515 L126 515 C115 515 106 507 104 496 L91 400 C89 389 96 381 107 381 L263 381 L53 91 C48 85 46 80 45 74 L37 19 C36 8 43 0 54 0 L369 0 C380 0 389 8 390 19 L404 115 C405 126 398 134 387 134 L233 134 Z " />
<glyph glyph-name="Zdotaccent" unicode="&#x17b;" horiz-adv-x="505" d="M295 770 C293 759 300 751 311 751 L406 751 C417 751 426 759 428 770 L442 869 C443 880 436 888 425 888 L330 888 C319 888 310 880 309 869 L295 770 Z M236 134 L545 609 C548 613 552 621 552 626 L560 681 C562 692 555 700 544 700 L157 700 C146 700 137 692 135 681 L122 585 C120 574 127 566 138 566 L367 566 L57 91 C55 88 51 80 50 75 L42 19 C41 8 48 0 59 0 L446 0 C457 0 466 8 467 19 L481 115 C482 126 475 134 464 134 L236 134 Z " />
<glyph glyph-name="zdotaccent" unicode="&#x17c;" horiz-adv-x="423" d="M228 590 C227 579 234 571 245 571 L340 571 C351 571 360 579 361 590 L375 689 C377 700 370 708 359 708 L264 708 C253 708 244 700 242 689 L228 590 Z M233 134 L441 424 C447 433 449 438 450 444 L457 496 C459 507 452 515 441 515 L126 515 C115 515 106 507 104 496 L91 400 C89 389 96 381 107 381 L263 381 L53 91 C48 85 46 80 45 74 L37 19 C36 8 43 0 54 0 L369 0 C380 0 389 8 390 19 L404 115 C405 126 398 134 387 134 L233 134 Z " />
<glyph glyph-name="Zcaron" unicode="&#x17d;" horiz-adv-x="505" d="M407 751 C419 751 428 755 434 766 L545 940 C546 951 539 959 528 959 L434 959 C423 959 414 950 409 940 L376 889 L359 940 C356 950 349 959 338 959 L244 959 C233 959 224 951 223 940 L284 766 C288 755 295 751 307 751 L407 751 Z M236 134 L545 609 C548 613 552 621 552 626 L560 681 C562 692 555 700 544 700 L157 700 C146 700 137 692 135 681 L122 585 C120 574 127 566 138 566 L367 566 L57 91 C55 88 51 80 50 75 L42 19 C41 8 48 0 59 0 L446 0 C457 0 466 8 467 19 L481 115 C482 126 475 134 464 134 L236 134 Z " />
<glyph glyph-name="zcaron" unicode="&#x17e;" horiz-adv-x="423" d="M341 571 C353 571 361 575 368 586 L478 760 C480 771 473 779 462 779 L368 779 C357 779 348 770 342 760 L310 709 L292 760 C290 770 283 779 272 779 L178 779 C167 779 158 771 156 760 L218 586 C221 575 229 571 241 571 L341 571 Z M233 134 L441 424 C447 433 449 438 450 444 L457 496 C459 507 452 515 441 515 L126 515 C115 515 106 507 104 496 L91 400 C89 389 96 381 107 381 L263 381 L53 91 C48 85 46 80 45 74 L37 19 C36 8 43 0 54 0 L369 0 C380 0 389 8 390 19 L404 115 C405 126 398 134 387 134 L233 134 Z " />
<glyph glyph-name="florin" unicode="&#x192;" horiz-adv-x="363" d="M-61 -156 C-63 -167 -58 -174 -47 -174 L56 -174 C67 -174 76 -166 81 -155 C145 9 218 184 282 348 L365 348 C376 348 386 356 387 367 L401 463 C402 474 395 482 384 482 L336 482 C343 500 350 519 356 536 C362 552 377 568 391 568 L432 568 C443 568 452 576 454 587 L467 681 C469 692 462 700 451 700 L393 700 C297 700 243 619 215 544 L192 482 L116 482 C105 482 96 474 95 463 L81 367 C80 356 86 348 97 348 L138 348 L-61 -156 Z " />
<glyph glyph-name="uni0218" unicode="&#x218;" horiz-adv-x="534" d="M240 -214 C251 -214 261 -205 266 -196 L323 -71 C324 -61 318 -53 307 -53 L207 -53 C196 -53 187 -62 182 -71 L125 -196 C124 -206 130 -214 140 -214 L240 -214 Z M317 705 C216 705 123 627 109 529 L106 507 C65 215 397 336 378 202 L375 178 C371 151 346 129 321 129 L243 129 C218 129 200 151 204 178 L207 204 C209 215 202 223 191 223 L85 223 C74 223 65 215 63 204 L59 171 C45 73 116 -5 217 -5 L310 -5 C411 -5 504 73 518 171 L520 187 C561 482 228 352 248 496 L252 522 C256 549 281 571 306 571 L374 571 C399 571 417 549 413 522 L410 502 C409 491 415 483 426 483 L532 483 C543 483 553 491 554 502 L558 529 C572 627 501 705 401 705 L317 705 Z " />
<glyph glyph-name="uni0219" unicode="&#x219;" horiz-adv-x="455" d="M213 -214 C224 -214 234 -205 239 -196 L296 -71 C297 -61 291 -53 280 -53 L180 -53 C169 -53 160 -62 155 -71 L98 -196 C97 -206 103 -214 113 -214 L213 -214 Z M294 392 C310 392 323 378 320 362 L320 356 C318 345 325 337 336 337 L442 337 C453 337 462 345 464 356 L465 363 C475 440 426 520 330 520 L270 520 C174 520 108 451 92 373 L91 365 C63 168 308 223 299 162 L297 145 C295 131 279 123 263 123 L232 123 C216 123 203 137 205 153 L207 164 C208 175 201 183 190 183 L84 183 C73 183 64 175 63 164 L61 152 C50 75 100 -5 196 -5 L262 -5 C359 -5 428 63 439 141 L441 155 C469 350 225 293 234 358 L236 370 C237 384 254 392 270 392 L294 392 Z " />
<glyph glyph-name="uni021A" unicode="&#x21a;" horiz-adv-x="504" d="M225 -214 C236 -214 246 -205 251 -196 L308 -71 C309 -61 303 -53 292 -53 L192 -53 C181 -53 172 -62 167 -71 L110 -196 C109 -206 115 -214 125 -214 L225 -214 Z M259 566 L182 19 C181 8 188 0 199 0 L305 0 C316 0 325 8 326 19 L403 566 L534 566 C545 566 554 574 556 585 L569 681 C571 692 564 700 553 700 L147 700 C136 700 127 692 125 681 L112 585 C110 574 117 566 128 566 L259 566 Z " />
<glyph glyph-name="uni021B" unicode="&#x21b;" horiz-adv-x="364" d="M214 -214 C225 -214 235 -205 240 -196 L297 -71 C298 -61 292 -53 281 -53 L181 -53 C170 -53 161 -62 156 -71 L99 -196 C98 -206 104 -214 114 -214 L214 -214 Z M294 382 L373 382 C384 382 393 390 395 401 L408 496 C410 507 403 515 392 515 L313 515 L336 681 C338 692 331 700 320 700 L214 700 C203 700 194 692 192 681 L169 515 L111 515 C100 515 91 507 89 496 L76 401 C74 390 81 382 92 382 L150 382 L120 167 C106 69 158 0 254 0 L320 0 C331 0 340 8 341 19 L354 113 C356 124 349 132 338 132 L295 132 C277 132 261 148 264 167 L294 382 Z " />
<glyph glyph-name="circumflex" unicode="&#x2c6;" horiz-adv-x="452" d="M274 700 C262 700 253 696 247 685 L136 511 C135 500 142 492 153 492 L247 492 C258 492 267 501 272 511 L304 562 L322 511 C325 501 332 492 343 492 L437 492 C448 492 457 500 458 511 L397 685 C393 696 386 700 374 700 L274 700 Z " />
<glyph glyph-name="caron" unicode="&#x2c7;" horiz-adv-x="452" d="M345 492 C357 492 365 496 372 507 L482 681 C484 692 477 700 466 700 L372 700 C361 700 352 691 346 681 L314 630 L296 681 C294 691 287 700 276 700 L182 700 C171 700 162 692 160 681 L222 507 C225 496 233 492 245 492 L345 492 Z " />
<glyph glyph-name="breve" unicode="&#x2d8;" horiz-adv-x="462" d="M304 525 C405 525 466 571 492 683 C494 693 488 700 478 700 L392 700 C382 700 373 693 367 683 C356 649 341 644 321 644 C301 644 288 649 285 683 C283 693 276 700 266 700 L180 700 C170 700 162 693 160 683 C156 571 203 525 304 525 L304 525 Z " />
<glyph glyph-name="dotaccent" unicode="&#x2d9;" horiz-adv-x="278" d="M145 571 C143 560 150 552 161 552 L271 552 C282 552 291 560 293 571 L308 681 C310 692 303 700 292 700 L182 700 C171 700 162 692 160 681 L145 571 Z " />
<glyph glyph-name="ring" unicode="&#x2da;" horiz-adv-x="414" d="M311 751 C234 751 161 688 150 609 C139 532 194 468 271 468 C351 468 423 532 434 609 C445 688 391 751 311 751 L311 751 Z M285 568 C263 568 247 587 250 609 C253 632 275 651 297 651 C320 651 336 632 333 609 C330 587 308 568 285 568 L285 568 Z " />
<glyph glyph-name="ogonek" unicode="&#x2db;" horiz-adv-x="297" d="M148 27 C137 27 128 19 127 8 L122 -23 C88 -29 57 -53 51 -93 C41 -168 54 -195 114 -195 L189 -195 C197 -195 205 -188 206 -180 L213 -133 C214 -124 208 -118 200 -118 L150 -118 C150 -118 138 -118 140 -105 C142 -92 154 -92 154 -92 L194 -92 C202 -92 210 -85 211 -77 L223 8 C224 19 217 27 206 27 L148 27 Z " />
<glyph glyph-name="tilde" unicode="&#x2dc;" horiz-adv-x="421" d="M338 529 C365 529 394 542 422 558 C431 564 436 573 437 582 L424 660 C423 667 416 673 406 673 C403 673 399 673 396 672 C384 667 365 663 357 663 C308 663 303 700 255 700 C228 700 199 687 171 671 C162 665 157 656 155 647 L168 569 C169 562 177 556 187 556 C190 556 194 556 197 557 C208 562 228 566 236 566 C286 566 290 529 338 529 L338 529 Z " />
<glyph glyph-name="hungarumlaut" unicode="&#x2dd;" horiz-adv-x="491" d="M257 530 C268 530 277 539 283 548 L350 682 C352 692 346 700 335 700 L235 700 C224 700 215 691 209 682 L142 548 C140 538 147 530 157 530 L257 530 Z M428 530 C439 530 448 539 454 548 L521 682 C523 692 517 700 506 700 L406 700 C395 700 386 691 380 682 L313 548 C311 538 318 530 328 530 L428 530 Z " />
<glyph glyph-name="uni03A9" unicode="&#x3a9;" horiz-adv-x="698" d="M405 705 C303 705 211 627 197 529 L151 200 C149 187 146 156 154 134 L102 134 C91 134 82 126 81 115 L67 19 C66 8 73 0 84 0 L287 0 C298 0 307 8 308 19 L322 117 C323 126 320 136 311 140 C294 149 293 186 295 202 L340 522 C344 549 368 571 392 571 L466 571 C490 571 508 549 504 522 L459 202 C457 186 444 149 425 140 C416 136 409 126 408 117 L394 19 C393 8 400 0 411 0 L614 0 C625 0 634 8 635 19 L649 115 C650 126 643 134 632 134 L580 134 C594 156 601 187 603 200 L649 529 C663 627 593 705 491 705 L405 705 Z " />
<glyph glyph-name="pi" unicode="&#x3c0;" horiz-adv-x="748" d="M717 381 C728 381 737 389 739 400 L752 496 C754 507 747 515 736 515 L156 515 C145 515 136 507 134 496 L121 400 C119 389 126 381 137 381 L232 381 L181 19 C180 8 187 0 198 0 L304 0 C315 0 324 8 325 19 L376 381 L478 381 L427 19 C426 8 433 0 444 0 L550 0 C561 0 570 8 571 19 L622 381 L717 381 Z " />
<glyph glyph-name="ZWSP" unicode="&#x200b;" d="" />
<glyph glyph-name="endash" unicode="&#x2013;" horiz-adv-x="390" d="M331 181 C342 181 351 189 353 200 L366 296 C368 307 361 315 350 315 L128 315 C117 315 108 307 106 296 L93 200 C91 189 98 181 109 181 L331 181 Z " />
<glyph glyph-name="emdash" unicode="&#x2014;" horiz-adv-x="463" d="M404 181 C415 181 424 189 426 200 L439 296 C441 307 434 315 423 315 L128 315 C117 315 108 307 106 296 L93 200 C91 189 98 181 109 181 L404 181 Z " />
<glyph glyph-name="quoteleft" unicode="&#x2018;" horiz-adv-x="314" d="M256 522 C267 522 276 531 281 540 L344 682 C346 692 340 700 329 700 L229 700 C218 700 209 691 203 682 L140 540 C139 530 146 522 156 522 L256 522 Z " />
<glyph glyph-name="quoteright" unicode="&#x2019;" horiz-adv-x="314" d="M229 700 C218 700 209 691 203 682 L140 540 C139 530 145 522 156 522 L256 522 C267 522 276 531 281 540 L344 682 C346 692 339 700 329 700 L229 700 Z " />
<glyph glyph-name="quotesinglbase" unicode="&#x201a;" horiz-adv-x="314" d="M172 -75 C183 -75 192 -66 197 -57 L260 85 C262 95 256 103 245 103 L145 103 C134 103 125 94 119 85 L56 -57 C55 -67 62 -75 72 -75 L172 -75 Z " />
<glyph glyph-name="quotedblleft" unicode="&#x201c;" horiz-adv-x="502" d="M256 522 C267 522 276 531 281 540 L344 682 C346 692 340 700 329 700 L229 700 C218 700 209 691 203 682 L140 540 C139 530 146 522 156 522 L256 522 Z M444 522 C455 522 464 531 469 540 L532 682 C534 692 528 700 517 700 L417 700 C406 700 397 691 391 682 L328 540 C327 530 334 522 344 522 L444 522 Z " />
<glyph glyph-name="quotedblright" unicode="&#x201d;" horiz-adv-x="502" d="M417 700 C406 700 397 691 391 682 L328 540 C327 530 333 522 344 522 L444 522 C455 522 464 531 469 540 L532 682 C534 692 527 700 517 700 L417 700 Z M229 700 C218 700 209 691 203 682 L140 540 C139 530 145 522 156 522 L256 522 C267 522 276 531 281 540 L344 682 C346 692 339 700 329 700 L229 700 Z " />
<glyph glyph-name="quotedblbase" unicode="&#x201e;" horiz-adv-x="502" d="M333 103 C322 103 313 94 307 85 L244 -57 C243 -67 249 -75 260 -75 L360 -75 C371 -75 380 -66 385 -57 L448 85 C450 95 443 103 433 103 L333 103 Z M145 103 C134 103 125 94 119 85 L56 -57 C55 -67 61 -75 72 -75 L172 -75 C183 -75 192 -66 197 -57 L260 85 C262 95 255 103 245 103 L145 103 Z " />
<glyph glyph-name="dagger" unicode="&#x2020;" horiz-adv-x="456" d="M430 415 C441 415 450 423 451 434 L465 530 C467 541 460 549 449 549 L377 549 L395 681 C397 692 390 700 379 700 L273 700 C262 700 253 692 251 681 L233 549 L161 549 C150 549 141 541 139 530 L125 434 C124 423 131 415 142 415 L214 415 L121 -249 C119 -260 126 -268 137 -268 L243 -268 C254 -268 263 -260 265 -249 L358 415 L430 415 Z " />
<glyph glyph-name="daggerdbl" unicode="&#x2021;" horiz-adv-x="456" d="M355 -117 C366 -117 375 -109 377 -98 L390 -2 C392 9 385 17 374 17 L302 17 L358 415 L430 415 C441 415 450 423 451 434 L465 530 C467 541 460 549 449 549 L377 549 L395 681 C397 692 390 700 379 700 L273 700 C262 700 253 692 251 681 L233 549 L161 549 C150 549 141 541 139 530 L125 434 C124 423 131 415 142 415 L214 415 L158 17 L86 17 C75 17 66 9 64 -2 L51 -98 C49 -109 56 -117 67 -117 L139 -117 L121 -249 C119 -260 126 -268 137 -268 L243 -268 C254 -268 263 -260 265 -249 L283 -117 L355 -117 Z " />
<glyph glyph-name="bullet" unicode="&#x2022;" horiz-adv-x="271" d="M89 177 C88 167 95 159 105 159 L210 159 C220 159 229 167 230 177 L245 282 C247 292 240 300 230 300 L125 300 C115 300 106 292 104 282 L89 177 Z " />
<glyph glyph-name="ellipsis" unicode="&#x2026;" horiz-adv-x="960" d="M66 14 C65 3 72 -5 83 -5 L193 -5 C204 -5 213 3 214 14 L230 124 C231 135 225 143 214 143 L104 143 C93 143 83 135 82 124 L66 14 Z M407 14 C406 3 413 -5 424 -5 L534 -5 C545 -5 554 3 555 14 L571 124 C572 135 566 143 555 143 L445 143 C434 143 424 135 423 124 L407 14 Z M748 14 C747 3 754 -5 765 -5 L875 -5 C886 -5 895 3 896 14 L912 124 C913 135 907 143 896 143 L786 143 C775 143 765 135 764 124 L748 14 Z " />
<glyph glyph-name="perthousand" unicode="&#x2030;" horiz-adv-x="1085" d="M174 19 C173 8 180 0 191 0 L297 0 C308 0 315 9 321 19 L704 681 C706 692 699 700 688 700 L582 700 C571 700 564 691 557 681 L174 19 Z M298 700 C224 700 154 640 144 565 C134 491 186 430 260 430 C336 430 405 491 415 565 C425 640 374 700 298 700 L298 700 Z M273 525 C252 525 236 544 239 565 C242 586 264 605 285 605 C307 605 322 586 319 565 C316 544 295 525 273 525 L273 525 Z M612 270 C536 270 468 210 457 135 C447 61 499 0 575 0 C649 0 718 61 728 135 C739 210 686 270 612 270 L612 270 Z M588 95 C566 95 551 114 553 135 C556 156 577 175 599 175 C620 175 636 156 633 135 C631 114 609 95 588 95 L588 95 Z M922 270 C846 270 778 210 767 135 C757 61 809 0 885 0 C959 0 1028 61 1038 135 C1049 210 996 270 922 270 L922 270 Z M898 95 C876 95 861 114 863 135 C866 156 887 175 909 175 C930 175 946 156 943 135 C941 114 919 95 898 95 L898 95 Z " />
<glyph glyph-name="guilsinglleft" unicode="&#x2039;" horiz-adv-x="388" d="M87 163 C86 153 92 147 103 143 L314 64 C324 64 332 71 334 81 L347 176 C349 186 343 194 333 197 L234 231 L236 243 L344 277 C355 280 363 288 364 298 L378 393 C379 403 373 410 363 410 L129 331 C117 327 110 321 108 311 L87 163 Z " />
<glyph glyph-name="guilsinglright" unicode="&#x203a;" horiz-adv-x="388" d="M366 311 C368 321 361 327 351 331 L139 410 C129 410 121 403 120 393 L106 298 C105 288 111 280 120 277 L220 243 L218 231 L109 197 C99 194 91 186 89 176 L76 81 C74 71 80 64 90 64 L325 143 C336 147 344 153 345 163 L366 311 Z " />
<glyph glyph-name="fraction" unicode="&#x2044;" horiz-adv-x="578" d="M43 -155 C41 -166 48 -174 59 -174 L165 -174 C176 -174 185 -166 190 -155 C327 145 486 485 623 785 C624 796 617 804 606 804 L500 804 C489 804 480 796 476 785 L43 -155 Z " />
<glyph glyph-name="Euro" unicode="&#x20ac;" horiz-adv-x="637" d="M360 208 C371 208 380 216 381 227 L392 302 C393 313 387 321 376 321 L307 321 L314 377 L383 377 C394 377 404 385 405 396 L416 471 C417 482 410 490 399 490 L330 490 L335 522 C339 549 363 571 387 571 L463 571 C487 571 505 549 501 522 L496 490 C495 479 502 471 513 471 L619 471 C630 471 639 479 640 490 L646 529 C660 627 590 705 488 705 L400 705 C298 705 206 627 192 529 L186 490 L152 490 C141 490 132 482 131 471 L120 396 C119 385 125 377 136 377 L170 377 L163 321 L129 321 C118 321 108 313 107 302 L96 227 C95 216 102 208 113 208 L147 208 L142 171 C128 73 198 -5 300 -5 L388 -5 C490 -5 582 73 596 171 L601 210 C603 221 596 229 585 229 L479 229 C468 229 459 221 457 210 L453 178 C449 151 425 129 401 129 L325 129 C301 129 283 151 287 178 L291 208 L360 208 Z " />
<glyph glyph-name="Numero" unicode="&#x2116;" horiz-adv-x="1066" d="M876 700 C780 700 708 620 697 542 L667 332 C656 255 706 175 802 175 L868 175 C964 175 1036 255 1047 332 L1077 542 C1088 620 1038 700 942 700 L876 700 Z M906 567 C921 567 934 553 932 537 L904 338 C902 322 885 308 870 308 L838 308 C823 308 810 322 812 338 L840 537 C842 553 859 567 874 567 L906 567 Z M923 0 C934 0 943 8 944 19 L958 115 C959 126 952 134 941 134 L718 134 C707 134 698 126 697 115 L683 19 C682 8 689 0 700 0 L923 0 Z M310 700 L182 700 C171 700 162 692 160 681 L67 19 C66 8 73 0 84 0 L190 0 C201 0 210 8 211 19 L261 373 L268 373 L378 16 C381 6 387 0 402 0 L531 0 C542 0 551 8 552 19 L645 681 C647 692 640 700 629 700 L523 700 C512 700 503 692 501 681 L451 321 L444 321 L334 684 C330 694 325 700 310 700 L310 700 Z " />
<glyph glyph-name="trademark" unicode="&#x2122;" horiz-adv-x="696" d="M181 405 C181 399 185 394 191 394 L256 394 C262 394 268 399 268 405 L299 623 L348 623 C354 623 360 628 361 634 L368 689 C369 695 365 700 359 700 L174 700 C168 700 162 695 161 689 L154 634 C153 628 157 623 163 623 L212 623 L181 405 Z M548 567 L498 689 C496 695 493 700 487 700 L420 700 C414 700 408 695 407 689 L367 405 C367 399 371 394 377 394 L442 394 C448 394 454 399 454 405 L473 539 L512 436 C513 432 515 429 519 429 L544 429 C548 429 549 432 552 436 L619 539 L600 405 C600 399 604 394 610 394 L675 394 C681 394 687 399 687 405 L727 689 C728 695 724 700 718 700 L651 700 C645 700 640 695 636 689 L552 567 L548 567 Z " />
<glyph glyph-name="Omega" unicode="&#x2126;" horiz-adv-x="698" d="M405 705 C303 705 211 627 197 529 L151 200 C149 187 146 156 154 134 L102 134 C91 134 82 126 81 115 L67 19 C66 8 73 0 84 0 L287 0 C298 0 307 8 308 19 L322 117 C323 126 320 136 311 140 C294 149 293 186 295 202 L340 522 C344 549 368 571 392 571 L466 571 C490 571 508 549 504 522 L459 202 C457 186 444 149 425 140 C416 136 409 126 408 117 L394 19 C393 8 400 0 411 0 L614 0 C625 0 634 8 635 19 L649 115 C650 126 643 134 632 134 L580 134 C594 156 601 187 603 200 L649 529 C663 627 593 705 491 705 L405 705 Z " />
<glyph glyph-name="partialdiff" unicode="&#x2202;" horiz-adv-x="524" d="M535 547 C546 625 497 705 401 705 L342 705 C245 705 173 625 162 547 L160 527 C158 516 165 508 176 508 L282 508 C293 508 302 516 304 527 L306 542 C308 558 326 572 341 572 L365 572 C380 572 393 558 391 542 L372 407 L362 407 C344 436 313 443 296 443 L264 443 C170 443 117 374 105 285 L86 153 C73 64 107 -5 201 -5 L233 -5 C250 -5 283 2 309 31 L319 31 L317 19 C316 8 323 0 334 0 L440 0 C451 0 460 8 461 19 L535 547 Z M337 158 C334 142 317 128 302 128 L257 128 C241 128 228 142 231 158 L248 280 C250 296 267 310 283 310 L328 310 C343 310 356 296 354 280 L337 158 Z " />
<glyph glyph-name="Delta" unicode="&#x2206;" horiz-adv-x="834" d="M275 134 C347 269 419 397 491 530 C525 397 561 269 595 134 L275 134 Z M451 700 C440 700 432 692 426 681 L67 19 C66 8 73 0 84 0 L750 0 C761 0 770 8 771 19 L598 681 C596 692 590 700 579 700 L451 700 Z " />
<glyph glyph-name="product" unicode="&#x220f;" horiz-adv-x="748" d="M743 566 C754 566 763 574 765 585 L778 681 C780 692 773 700 762 700 L182 700 C171 700 162 692 160 681 L147 585 C145 574 152 566 163 566 L258 566 L181 19 C180 8 187 0 198 0 L304 0 C315 0 324 8 325 19 L402 566 L504 566 L427 19 C426 8 433 0 444 0 L550 0 C561 0 570 8 571 19 L648 566 L743 566 Z " />
<glyph glyph-name="summation" unicode="&#x2211;" horiz-adv-x="515" d="M237 336 L82 127 L67 19 C66 8 73 0 84 0 L431 0 C442 0 451 8 452 19 L466 115 C467 126 460 134 449 134 L236 134 L379 331 L384 369 L297 566 L510 566 C521 566 530 574 532 585 L545 681 C547 692 540 700 529 700 L182 700 C171 700 162 692 160 681 L145 573 L241 364 L237 336 Z " />
<glyph glyph-name="minus" unicode="&#x2212;" horiz-adv-x="390" d="M331 181 C342 181 351 189 353 200 L366 296 C368 307 361 315 350 315 L128 315 C117 315 108 307 106 296 L93 200 C91 189 98 181 109 181 L331 181 Z " />
<glyph glyph-name="radical" unicode="&#x221a;" horiz-adv-x="699" d="M694 566 C705 566 714 574 716 585 L729 681 C731 692 724 700 713 700 L495 700 C484 700 475 692 470 681 L290 205 L277 205 L267 383 C266 394 259 402 248 402 L140 402 C129 402 120 394 118 383 L163 19 C165 9 171 0 182 0 L329 0 C340 0 348 9 352 19 L573 566 L694 566 Z " />
<glyph glyph-name="infinity" unicode="&#x221e;" horiz-adv-x="866" d="M268 200 C252 200 239 214 241 230 L251 300 C253 317 270 331 286 331 L375 331 C389 331 402 318 402 302 L392 230 C390 214 372 200 357 200 L268 200 Z M563 200 C548 200 534 214 536 230 L546 302 C550 318 567 331 581 331 L672 331 C688 331 701 317 699 300 L689 230 C687 214 670 200 654 200 L563 200 Z M447 111 C465 79 504 66 536 66 L653 66 C750 66 821 147 832 225 L843 305 C854 384 806 465 709 465 L592 465 C560 465 518 450 490 419 C472 450 434 465 402 465 L287 465 C190 465 118 384 107 305 L96 225 C85 147 134 66 231 66 L346 66 C378 66 421 79 447 111 L447 111 Z " />
<glyph glyph-name="integral" unicode="&#x222b;" horiz-adv-x="448" d="M414 698 C414 698 243 652 222 499 L154 16 C151 6 135 -37 69 -56 C60 -58 55 -66 54 -73 C54 -75 55 -78 55 -80 L81 -178 C83 -186 89 -190 96 -190 C98 -190 103 -189 105 -188 C105 -188 276 -142 297 14 L365 491 C365 491 374 545 450 566 C458 568 463 576 464 583 C465 585 464 588 463 590 L437 688 C435 696 430 700 423 700 C421 700 416 699 414 698 L414 698 Z " />
<glyph glyph-name="approxequal" unicode="&#x2248;" horiz-adv-x="421" d="M270 45 C297 45 326 58 354 74 C363 80 368 89 369 98 L356 176 C355 183 348 189 338 189 C335 189 331 189 328 188 C316 183 297 179 289 179 C240 179 235 216 187 216 C160 216 131 203 103 187 C94 181 89 172 87 163 L100 85 C101 78 109 72 119 72 C122 72 126 72 129 73 C140 78 160 82 168 82 C218 82 222 45 270 45 L270 45 Z M295 223 C322 223 351 236 379 252 C388 258 393 267 394 276 L381 354 C380 361 373 367 363 367 C360 367 356 367 353 366 C341 361 322 357 314 357 C265 357 260 394 212 394 C185 394 156 381 128 365 C119 359 114 350 112 341 L125 263 C126 256 134 250 144 250 C147 250 151 250 154 251 C165 256 185 260 193 260 C243 260 247 223 295 223 L295 223 Z " />
<glyph glyph-name="notequal" unicode="&#x2260;" horiz-adv-x="394" d="M347 264 C358 264 367 272 368 283 L382 379 C383 390 376 398 365 398 L357 398 L392 472 C393 483 387 491 376 491 L322 491 C311 491 301 483 297 472 L262 398 L139 398 C128 398 119 390 118 379 L104 283 C103 272 110 264 121 264 L201 264 L179 217 L114 217 C103 217 94 209 92 198 L79 102 C77 91 84 83 95 83 L117 83 L88 19 C87 8 94 0 105 0 L159 0 C170 0 179 8 183 19 L212 83 L321 83 C332 83 341 91 343 102 L356 198 C358 209 351 217 340 217 L274 217 L296 264 L347 264 Z " />
<glyph glyph-name="lessequal" unicode="&#x2264;" horiz-adv-x="392" d="M308 0 C319 0 328 8 329 19 L337 73 C338 84 331 92 320 92 L96 92 C85 92 76 84 75 73 L67 19 C66 8 73 0 84 0 L308 0 Z M98 213 C97 203 103 197 114 193 L326 114 C336 114 344 121 345 131 L358 226 C360 236 354 244 344 247 L245 281 L247 293 L355 327 C366 330 374 338 375 348 L389 443 C390 453 384 460 374 460 L140 381 C128 377 121 371 119 361 L98 213 Z " />
<glyph glyph-name="greaterequal" unicode="&#x2265;" horiz-adv-x="392" d="M308 0 C319 0 328 8 329 19 L337 73 C338 84 331 92 320 92 L96 92 C85 92 76 84 75 73 L67 19 C66 8 73 0 84 0 L308 0 Z M373 361 C375 371 368 377 358 381 L146 460 C136 460 128 453 127 443 L113 348 C112 338 118 330 127 327 L227 293 L225 281 L116 247 C106 244 98 236 96 226 L83 131 C82 121 88 114 98 114 L332 193 C343 197 351 203 352 213 L373 361 Z " />
<glyph glyph-name="lozenge" unicode="&#x25ca;" horiz-adv-x="608" d="M327 166 C302 233 283 282 260 349 L379 534 L446 349 C403 282 370 233 327 166 L327 166 Z M336 700 C325 700 317 690 312 681 L114 350 L219 19 C222 10 227 0 238 0 L370 0 C381 0 388 10 393 19 L592 350 L486 681 C483 690 479 700 468 700 L336 700 Z " />
<glyph glyph-name="uni25CC" unicode="&#x25cc;" horiz-adv-x="199" d="" />
<glyph glyph-name="fi" unicode="&#xfb01;" horiz-adv-x="647" d="M408 603 C419 603 428 611 430 622 L443 716 C445 727 438 735 427 735 L359 735 C263 735 196 655 180 577 L171 515 L111 515 C100 515 91 507 89 496 L76 401 C74 390 81 382 92 382 L152 382 L101 19 C100 8 107 0 118 0 L224 0 C235 0 244 8 245 19 L296 382 L376 382 C387 382 396 390 398 401 L411 496 C413 507 406 515 395 515 L315 515 L322 568 C325 587 345 603 363 603 L408 603 Z M441 19 C440 8 447 0 458 0 L564 0 C575 0 584 8 585 19 L652 496 C654 507 647 515 636 515 L530 515 C519 515 510 507 508 496 L441 19 Z M519 584 C517 573 524 565 535 565 L645 565 C656 565 665 573 667 584 L680 681 C682 692 675 700 664 700 L554 700 C543 700 534 692 532 681 L519 584 Z " />
<glyph glyph-name="fl" unicode="&#xfb02;" horiz-adv-x="647" d="M408 603 C419 603 428 611 430 622 L443 716 C445 727 438 735 427 735 L359 735 C263 735 196 655 180 577 L171 515 L111 515 C100 515 91 507 89 496 L76 401 C74 390 81 382 92 382 L152 382 L101 19 C100 8 107 0 118 0 L224 0 C235 0 244 8 245 19 L296 382 L376 382 C387 382 396 390 398 401 L411 496 C413 507 406 515 395 515 L315 515 L322 568 C325 587 345 603 363 603 L408 603 Z M441 19 C440 8 447 0 458 0 L564 0 C575 0 584 8 585 19 L678 681 C680 692 673 700 662 700 L556 700 C545 700 536 692 534 681 L441 19 Z " />
</font>
</svg>
