<?xml version="1.0" encoding="UTF-8"?>
<svg xmlns="http://www.w3.org/2000/svg" xmlns:xlink="http://www.w3.org/1999/xlink" version="1.2" >
<font id="Tomkin Narrow ExtraBold">
<font-face  font-family="Tomkin Narrow" units-per-em="1000" ascent="750" descent="-250" font-style="normal" font-weight="800" font-stretch="normal" cap-height="700" x-height="515" underline-position="-91" underline-thickness="35" />
<missing-glyph  horiz-adv-x="569" d="" />
<glyph glyph-name="space" unicode="&#x20;" horiz-adv-x="182" d="" />
<glyph glyph-name="exclam" unicode="&#x21;" horiz-adv-x="278" d="M179 168 C190 168 197 176 198 187 L211 303 L211 681 C211 692 203 700 192 700 L86 700 C75 700 67 692 67 681 L67 303 L80 187 C81 176 88 168 99 168 L179 168 Z M65 13 C65 2 73 -6 84 -6 L194 -6 C205 -6 213 2 213 13 L213 110 C213 121 205 129 194 129 L84 129 C73 129 65 121 65 110 L65 13 Z " />
<glyph glyph-name="quotedbl" unicode="&#x22;" horiz-adv-x="472" d="M168 439 C179 439 186 447 187 458 L200 579 L200 681 C200 692 192 700 181 700 L84 700 C73 700 65 692 65 681 L65 579 L79 458 C80 447 87 439 98 439 L168 439 Z M375 439 C386 439 393 447 394 458 L407 579 L407 681 C407 692 399 700 388 700 L291 700 C280 700 272 692 272 681 L272 579 L286 458 C287 447 294 439 305 439 L375 439 Z " />
<glyph glyph-name="numbersign" unicode="&#x23;" horiz-adv-x="791" d="M345 23 C345 12 353 4 364 4 L470 4 C481 4 489 12 492 23 L528 136 L593 136 C604 136 612 144 612 155 L612 251 C612 262 604 270 593 270 L570 270 L621 429 L707 429 C718 429 726 437 726 448 L726 544 C726 555 718 563 707 563 L663 563 L701 681 C701 692 693 700 682 700 L576 700 C565 700 557 692 554 681 L516 563 L423 563 L461 681 C461 692 453 700 442 700 L336 700 C325 700 317 692 314 681 L276 563 L198 563 C187 563 179 555 179 544 L179 448 C179 437 187 429 198 429 L234 429 L183 270 L84 270 C73 270 65 262 65 251 L65 155 C65 144 73 136 84 136 L141 136 L105 23 C105 12 113 4 124 4 L230 4 C241 4 249 12 252 23 L288 136 L381 136 L345 23 Z M381 429 L474 429 L423 270 L330 270 L381 429 Z " />
<glyph glyph-name="dollar" unicode="&#x24;" horiz-adv-x="589" d="M209 496 L209 522 C209 549 231 571 256 571 L324 571 C349 571 370 549 370 522 L370 502 C370 491 378 483 389 483 L495 483 C506 483 514 491 514 502 L514 529 C514 615 451 685 368 702 L368 813 C368 824 360 832 349 832 L243 832 C232 832 224 824 224 813 L224 703 C134 692 65 619 65 529 L65 507 C65 215 380 336 380 202 L380 178 C380 151 358 129 333 129 L255 129 C230 129 209 151 209 178 L209 204 C209 215 201 223 190 223 L84 223 C73 223 65 215 65 204 L65 171 C65 81 134 8 224 -4 L224 -118 C224 -129 232 -137 243 -137 L349 -137 C360 -137 368 -129 368 -118 L368 -3 C456 9 524 82 524 171 L524 187 C524 482 209 352 209 496 L209 496 Z " />
<glyph glyph-name="percent" unicode="&#x25;" horiz-adv-x="775" d="M172 19 C172 8 180 0 191 0 L297 0 C308 0 314 9 319 19 L609 681 C609 692 601 700 590 700 L484 700 C473 700 467 691 462 681 L172 19 Z M200 700 C126 700 65 640 65 565 C65 491 126 430 200 430 C276 430 336 491 336 565 C336 640 276 700 200 700 L200 700 Z M200 525 C179 525 160 544 160 565 C160 586 179 605 200 605 C222 605 240 586 240 565 C240 544 222 525 200 525 L200 525 Z M575 270 C499 270 439 210 439 135 C439 61 499 0 575 0 C649 0 710 61 710 135 C710 210 649 270 575 270 L575 270 Z M575 95 C553 95 535 114 535 135 C535 156 553 175 575 175 C596 175 615 156 615 135 C615 114 596 95 575 95 L575 95 Z " />
<glyph glyph-name="ampersand" unicode="&#x26;" horiz-adv-x="626" d="M369 286 L369 134 L255 134 C230 134 209 156 209 183 L209 237 C209 264 230 286 255 286 L369 286 Z M513 286 L567 286 C578 286 586 294 586 305 L586 395 C586 406 578 414 567 414 L283 414 C259 414 237 436 237 463 L237 522 C237 549 259 571 283 571 L323 571 C347 571 369 549 369 522 L369 490 C369 479 377 471 388 471 L494 471 C505 471 513 479 513 490 L513 529 C513 627 432 705 331 705 L275 705 C174 705 93 627 93 529 L93 462 C93 425 111 393 131 366 C95 333 65 289 65 238 L65 176 C65 78 146 0 247 0 L494 0 C505 0 513 8 513 19 L513 286 Z " />
<glyph glyph-name="quotesingle" unicode="&#x27;" horiz-adv-x="265" d="M168 439 C179 439 186 447 187 458 L200 579 L200 681 C200 692 192 700 181 700 L84 700 C73 700 65 692 65 681 L65 579 L79 458 C80 447 87 439 98 439 L168 439 Z " />
<glyph glyph-name="parenleft" unicode="&#x28;" horiz-adv-x="324" d="M65 314 C65 161 79 -7 113 -159 C116 -170 124 -178 135 -178 L240 -178 C251 -178 259 -170 259 -159 C224 -5 209 161 209 314 C209 467 224 632 259 786 C259 797 251 805 240 805 L135 805 C124 805 116 797 113 786 C79 634 65 467 65 314 L65 314 Z " />
<glyph glyph-name="parenright" unicode="&#x29;" horiz-adv-x="324" d="M259 314 C259 467 245 634 211 786 C208 797 200 805 189 805 L84 805 C73 805 65 797 65 786 C100 632 115 467 115 314 C115 161 100 -5 65 -159 C65 -170 73 -178 84 -178 L189 -178 C200 -178 208 -170 211 -159 C245 -7 259 161 259 314 L259 314 Z " />
<glyph glyph-name="asterisk" unicode="&#x2a;" horiz-adv-x="500" d="M209 700 C199 700 191 693 191 683 L191 598 L138 632 C135 634 131 636 128 636 C123 636 117 633 113 629 L68 562 C66 558 65 554 65 551 C65 546 67 542 72 538 L155 482 L97 413 C94 410 93 406 93 403 C93 396 98 391 100 389 L161 335 C164 333 168 332 171 332 C177 332 182 334 185 337 L250 413 L315 337 C318 334 323 332 329 332 C332 332 336 333 339 335 L400 389 C402 391 407 396 407 403 C407 406 406 410 403 413 L345 482 L428 538 C433 542 435 546 435 551 C435 554 434 558 432 562 L387 629 C383 633 377 636 372 636 C369 636 365 634 362 632 L309 598 L309 683 C309 693 301 700 291 700 L209 700 Z " />
<glyph glyph-name="plus" unicode="&#x2b;" horiz-adv-x="434" d="M289 315 L289 414 C289 425 281 433 270 433 L164 433 C153 433 145 425 145 414 L145 315 L84 315 C73 315 65 307 65 296 L65 201 C65 190 73 182 84 182 L145 182 L145 84 C145 73 153 65 164 65 L270 65 C281 65 289 73 289 84 L289 182 L350 182 C361 182 369 190 369 201 L369 296 C369 307 361 315 350 315 L289 315 Z " />
<glyph glyph-name="comma" unicode="&#x2c;" horiz-adv-x="330" d="M183 -105 C194 -105 202 -96 206 -87 L265 77 C265 87 258 95 247 95 L147 95 C136 95 128 86 124 77 L65 -87 C65 -97 73 -105 83 -105 L183 -105 Z " />
<glyph glyph-name="hyphen" unicode="&#x2d;" horiz-adv-x="391" d="M307 181 C318 181 326 189 326 200 L326 296 C326 307 318 315 307 315 L84 315 C73 315 65 307 65 296 L65 200 C65 189 73 181 84 181 L307 181 Z " />
<glyph glyph-name="period" unicode="&#x2e;" horiz-adv-x="278" d="M65 14 C65 3 73 -5 84 -5 L194 -5 C205 -5 213 3 213 14 L213 124 C213 135 205 143 194 143 L84 143 C73 143 65 135 65 124 L65 14 Z " />
<glyph glyph-name="slash" unicode="&#x2f;" horiz-adv-x="578" d="M65 -155 C65 -166 73 -174 84 -174 L190 -174 C201 -174 209 -166 212 -155 C307 145 418 485 513 785 C513 796 505 804 494 804 L388 804 C377 804 369 796 366 785 L65 -155 Z " />
<glyph glyph-name="zero" unicode="0" horiz-adv-x="567" d="M244 129 C220 129 199 151 199 178 L199 522 C199 549 220 571 244 571 L323 571 C347 571 368 549 368 522 L368 178 C368 151 347 129 323 129 L244 129 Z M329 -5 C431 -5 512 73 512 171 L512 529 C512 627 431 705 329 705 L238 705 C136 705 55 627 55 529 L55 171 C55 73 136 -5 238 -5 L329 -5 Z " />
<glyph glyph-name="one" unicode="1" horiz-adv-x="519" d="M214 562 L214 134 L93 134 C82 134 74 126 74 115 L74 19 C74 8 82 0 93 0 L480 0 C491 0 499 8 499 19 L499 115 C499 126 491 134 480 134 L358 134 L358 681 C358 692 350 700 339 700 L221 700 L65 640 C54 636 45 630 45 618 L45 524 C45 512 53 504 65 504 L214 562 Z " />
<glyph glyph-name="two" unicode="2" horiz-adv-x="538" d="M45 502 C45 491 53 483 64 483 L170 483 C181 483 189 491 189 502 L189 522 C189 549 210 571 234 571 L303 571 C328 571 349 549 349 522 L349 469 C349 326 45 454 45 159 L45 19 C45 8 53 0 64 0 L474 0 C485 0 493 8 493 19 L493 115 C493 126 485 134 474 134 L189 134 L189 167 C189 313 493 186 493 480 L493 529 C493 627 411 705 310 705 L226 705 C125 705 45 627 45 529 L45 502 Z " />
<glyph glyph-name="three" unicode="3" horiz-adv-x="548" d="M498 246 C498 286 475 326 447 355 C478 385 498 421 498 464 L498 529 C498 627 417 705 316 705 L233 705 C131 705 50 627 50 529 L50 502 C50 491 58 483 69 483 L175 483 C186 483 194 491 194 502 L194 522 C194 549 215 571 239 571 L308 571 C333 571 354 549 354 522 L354 471 C354 443 333 422 308 422 L238 422 C227 422 219 414 219 403 L219 307 C219 296 227 288 238 288 L311 288 C334 285 354 264 354 239 L354 178 C354 151 333 129 308 129 L239 129 C215 129 194 151 194 178 L194 198 C194 209 186 217 175 217 L69 217 C58 217 50 209 50 198 L50 171 C50 73 131 -5 233 -5 L316 -5 C417 -5 498 73 498 171 L498 246 Z " />
<glyph glyph-name="four" unicode="4" horiz-adv-x="560" d="M25 228 L25 161 C25 150 33 142 44 142 L326 142 L326 19 C326 8 334 0 345 0 L451 0 C462 0 470 8 470 19 L470 142 L516 142 C527 142 535 150 535 161 L535 257 C535 268 527 276 516 276 L470 276 L470 445 C470 456 462 464 451 464 L345 464 C334 464 326 456 326 445 L326 276 L199 276 L367 681 C367 692 359 700 348 700 L232 700 C221 700 213 691 209 681 L25 228 Z " />
<glyph glyph-name="five" unicode="5" horiz-adv-x="558" d="M199 194 C199 205 191 213 180 213 L74 213 C63 213 55 205 55 194 L55 171 C55 73 136 -5 238 -5 L331 -5 C432 -5 513 73 513 171 L513 270 C513 368 432 446 331 446 L243 446 C231 446 213 443 199 437 L199 566 L449 566 C460 566 468 574 468 585 L468 681 C468 692 460 700 449 700 L74 700 C63 700 55 692 55 681 L55 296 C55 285 63 277 74 277 L173 277 C185 277 191 280 197 292 C204 306 219 312 231 312 L323 312 C348 312 369 291 369 263 L369 178 C369 151 348 129 323 129 L244 129 C220 129 199 151 199 178 L199 194 Z " />
<glyph glyph-name="six" unicode="6" horiz-adv-x="557" d="M245 129 C220 129 199 151 199 178 L199 268 C199 296 220 317 245 317 L323 317 C347 317 368 296 368 268 L368 178 C368 151 347 129 323 129 L245 129 Z M358 505 C358 494 366 486 377 486 L483 486 C494 486 502 494 502 505 L502 529 C502 627 421 705 320 705 L238 705 C137 705 55 627 55 529 L55 171 C55 73 137 -5 238 -5 L330 -5 C431 -5 512 73 512 171 L512 275 C512 373 431 451 330 451 L244 451 C231 451 213 446 199 437 L199 522 C199 549 220 571 245 571 L312 571 C336 571 358 552 358 522 L358 505 Z " />
<glyph glyph-name="seven" unicode="7" horiz-adv-x="480" d="M112 19 C112 8 120 0 131 0 L236 0 C247 0 255 8 256 19 C281 197 337 402 450 574 L450 681 C450 692 442 700 431 700 L49 700 C38 700 30 692 30 681 L30 585 C30 574 38 566 49 566 L297 566 C188 392 134 199 112 19 L112 19 Z " />
<glyph glyph-name="eight" unicode="8" horiz-adv-x="560" d="M239 129 C215 129 194 151 194 178 L194 235 C194 263 215 284 239 284 L318 284 C345 284 366 263 366 235 L366 178 C366 151 345 129 321 129 L239 129 Z M255 418 C231 418 209 440 209 467 L209 522 C209 549 231 571 255 571 L305 571 C329 571 351 549 351 522 L351 467 C351 440 329 418 305 418 L255 418 Z M510 242 C510 286 488 331 445 361 C474 386 495 425 495 460 L495 529 C495 627 413 705 312 705 L248 705 C147 705 65 627 65 529 L65 460 C65 425 86 386 115 361 C72 331 50 286 50 242 L50 171 C50 73 132 -5 233 -5 L326 -5 C428 -5 510 73 510 171 L510 242 Z " />
<glyph glyph-name="nine" unicode="9" horiz-adv-x="557" d="M312 571 C337 571 358 549 358 522 L358 432 C358 404 337 383 312 383 L234 383 C210 383 189 404 189 432 L189 522 C189 549 210 571 234 571 L312 571 Z M199 195 C199 206 191 214 180 214 L74 214 C63 214 55 206 55 195 L55 171 C55 73 136 -5 237 -5 L319 -5 C420 -5 502 73 502 171 L502 529 C502 627 420 705 319 705 L227 705 C126 705 45 627 45 529 L45 425 C45 327 126 249 227 249 L313 249 C326 249 344 254 358 263 L358 178 C358 151 337 129 312 129 L245 129 C221 129 199 148 199 178 L199 195 Z " />
<glyph glyph-name="colon" unicode="&#x3a;" horiz-adv-x="278" d="M65 14 C65 3 73 -5 84 -5 L194 -5 C205 -5 213 3 213 14 L213 124 C213 135 205 143 194 143 L84 143 C73 143 65 135 65 124 L65 14 Z M65 306 C65 295 73 287 84 287 L194 287 C205 287 213 295 213 306 L213 416 C213 427 205 435 194 435 L84 435 C73 435 65 427 65 416 L65 306 Z " />
<glyph glyph-name="semicolon" unicode="&#x3b;" horiz-adv-x="332" d="M119 306 C119 295 127 287 138 287 L248 287 C259 287 267 295 267 306 L267 416 C267 427 259 435 248 435 L138 435 C127 435 119 427 119 416 L119 306 Z M183 -105 C194 -105 202 -96 206 -87 L265 77 C265 87 258 95 247 95 L147 95 C136 95 128 86 124 77 L65 -87 C65 -97 73 -105 83 -105 L183 -105 Z " />
<glyph glyph-name="less" unicode="&#x3c;" horiz-adv-x="388" d="M65 163 C65 153 72 147 83 143 L306 64 C316 64 323 71 323 81 L323 176 C323 186 316 194 306 197 L202 231 L202 243 L306 277 C316 280 323 288 323 298 L323 393 C323 403 316 410 306 410 L83 331 C72 327 65 321 65 311 L65 163 Z " />
<glyph glyph-name="equal" unicode="&#x3d;" horiz-adv-x="389" d="M305 83 C316 83 324 91 324 102 L324 198 C324 209 316 217 305 217 L84 217 C73 217 65 209 65 198 L65 102 C65 91 73 83 84 83 L305 83 Z M305 264 C316 264 324 272 324 283 L324 379 C324 390 316 398 305 398 L84 398 C73 398 65 390 65 379 L65 283 C65 272 73 264 84 264 L305 264 Z " />
<glyph glyph-name="greater" unicode="&#x3e;" horiz-adv-x="388" d="M323 311 C323 321 316 327 305 331 L82 410 C72 410 65 403 65 393 L65 298 C65 288 72 280 82 277 L186 243 L186 231 L82 197 C72 194 65 186 65 176 L65 81 C65 71 72 64 82 64 L305 143 C316 147 323 153 323 163 L323 311 Z " />
<glyph glyph-name="question" unicode="&#x3f;" horiz-adv-x="577" d="M336 206 C336 349 512 223 512 485 L512 529 C512 627 430 705 329 705 L246 705 C145 705 65 627 65 529 L65 482 C65 471 73 463 84 463 L190 463 C201 463 209 471 209 482 L209 522 C209 549 230 571 254 571 L322 571 C347 571 368 549 368 522 L368 489 C368 341 198 458 192 210 L192 192 C192 181 200 173 211 173 L317 173 C328 173 336 181 336 192 L336 206 Z M190 19 C190 8 198 0 209 0 L319 0 C330 0 338 8 338 19 L338 116 C338 127 330 135 319 135 L209 135 C198 135 190 127 190 116 L190 19 Z " />
<glyph glyph-name="at" unicode="&#x40;" horiz-adv-x="718" d="M509 479 L499 479 C477 508 445 515 428 515 L396 515 C302 515 259 446 259 357 L259 219 C259 130 302 61 396 61 L428 61 C445 61 477 68 499 97 L509 97 L509 85 C509 74 517 66 528 66 L634 66 C645 66 653 74 653 85 L653 524 C653 622 572 700 471 700 L247 700 C146 700 65 622 65 524 L65 61 C65 -37 146 -115 247 -115 L466 -115 C477 -115 485 -107 485 -96 L485 0 C485 11 477 19 466 19 L255 19 C231 19 209 41 209 68 L209 517 C209 544 231 566 255 566 L463 566 C488 566 509 544 509 517 L509 479 Z M509 224 C509 208 494 194 479 194 L434 194 C418 194 403 208 403 224 L403 352 C403 368 418 382 434 382 L479 382 C494 382 509 368 509 352 L509 224 Z " />
<glyph glyph-name="A" unicode="A" horiz-adv-x="585" d="M217 700 C206 700 199 691 196 681 L20 19 C20 8 28 0 39 0 L145 0 C156 0 164 8 167 19 L191 115 L394 115 L418 19 C421 8 429 0 440 0 L546 0 C557 0 565 8 565 19 L389 681 C386 691 379 700 368 700 L217 700 Z M286 499 L299 499 L361 248 L224 248 L286 499 Z " />
<glyph glyph-name="B" unicode="B" horiz-adv-x="550" d="M209 416 L209 567 L297 567 C321 567 343 545 343 518 L343 465 C343 438 321 416 297 416 L209 416 Z M325 283 C350 283 371 261 371 234 L371 182 C371 155 350 133 325 133 L209 133 L209 283 L325 283 Z M84 700 C73 700 65 692 65 681 L65 19 C65 8 73 0 84 0 L332 0 C433 0 515 78 515 176 L515 238 C515 289 484 333 448 366 C467 393 487 425 487 462 L487 524 C487 622 405 700 304 700 L84 700 Z " />
<glyph glyph-name="C" unicode="C" horiz-adv-x="552" d="M368 178 C368 151 347 129 323 129 L244 129 C220 129 199 151 199 178 L199 522 C199 549 220 571 244 571 L323 571 C347 571 368 549 368 522 L368 490 C368 479 376 471 387 471 L493 471 C504 471 512 479 512 490 L512 529 C512 627 431 705 329 705 L238 705 C136 705 55 627 55 529 L55 171 C55 73 136 -5 238 -5 L329 -5 C431 -5 512 73 512 171 L512 210 C512 221 504 229 493 229 L387 229 C376 229 368 221 368 210 L368 178 Z " />
<glyph glyph-name="D" unicode="D" horiz-adv-x="578" d="M333 567 C357 567 379 545 379 518 L379 182 C379 155 357 133 333 133 L209 133 L209 567 L333 567 Z M84 700 C73 700 65 692 65 681 L65 19 C65 8 73 0 84 0 L340 0 C441 0 523 78 523 176 L523 524 C523 622 441 700 340 700 L84 700 Z " />
<glyph glyph-name="E" unicode="E" horiz-adv-x="509" d="M65 19 C65 8 73 0 84 0 L435 0 C446 0 454 8 454 19 L454 115 C454 126 446 134 435 134 L209 134 L209 296 L413 296 C424 296 432 304 432 315 L432 411 C432 422 424 430 413 430 L209 430 L209 566 L435 566 C446 566 454 574 454 585 L454 681 C454 692 446 700 435 700 L84 700 C73 700 65 692 65 681 L65 19 Z " />
<glyph glyph-name="F" unicode="F" horiz-adv-x="477" d="M209 404 L209 566 L433 566 C444 566 452 574 452 585 L452 681 C452 692 444 700 433 700 L84 700 C73 700 65 692 65 681 L65 19 C65 8 73 0 84 0 L190 0 C201 0 209 8 209 19 L209 270 L411 270 C422 270 430 278 430 289 L430 385 C430 396 422 404 411 404 L209 404 Z " />
<glyph glyph-name="G" unicode="G" horiz-adv-x="568" d="M306 404 C291 404 280 394 280 378 L280 297 C280 281 291 270 306 270 L369 270 L369 178 C369 151 348 129 324 129 L244 129 C220 129 199 151 199 178 L199 522 C199 549 220 571 244 571 L324 571 C348 571 369 549 369 522 L369 490 C369 479 377 471 388 471 L494 471 C505 471 513 479 513 490 L513 529 C513 627 432 705 330 705 L238 705 C136 705 55 627 55 529 L55 171 C55 73 136 -5 238 -5 L330 -5 C432 -5 513 73 513 171 L513 378 C513 394 502 404 487 404 L306 404 Z " />
<glyph glyph-name="H" unicode="H" horiz-adv-x="581" d="M372 19 C372 8 380 0 391 0 L497 0 C508 0 516 8 516 19 L516 681 C516 692 508 700 497 700 L391 700 C380 700 372 692 372 681 L372 406 L209 406 L209 681 C209 692 201 700 190 700 L84 700 C73 700 65 692 65 681 L65 19 C65 8 73 0 84 0 L190 0 C201 0 209 8 209 19 L209 273 L372 273 L372 19 Z " />
<glyph glyph-name="I" unicode="I" horiz-adv-x="274" d="M65 19 C65 8 73 0 84 0 L190 0 C201 0 209 8 209 19 L209 681 C209 692 201 700 190 700 L84 700 C73 700 65 692 65 681 L65 19 Z " />
<glyph glyph-name="J" unicode="J" horiz-adv-x="428" d="M96 158 C92 161 87 162 82 162 C77 162 73 161 68 158 L2 97 C-3 92 -5 88 -5 82 C-5 78 -3 73 1 69 C23 46 73 -5 169 -5 C310 -5 383 86 383 180 L383 681 C383 692 375 700 364 700 L258 700 C247 700 239 692 239 681 L239 183 C239 183 239 129 163 129 C143 129 120 136 96 158 L96 158 Z " />
<glyph glyph-name="K" unicode="K" horiz-adv-x="559" d="M272 417 L209 417 L209 681 C209 692 201 700 190 700 L84 700 C73 700 65 692 65 681 L65 19 C65 8 73 0 84 0 L190 0 C201 0 209 8 209 19 L209 283 L273 283 L381 19 C386 9 395 0 406 0 L514 0 C525 0 533 9 533 20 L397 350 L530 680 C530 691 522 700 511 700 L403 700 C392 700 383 691 378 681 L272 417 Z " />
<glyph glyph-name="L" unicode="L" horiz-adv-x="477" d="M209 681 C209 692 201 700 190 700 L84 700 C73 700 65 692 65 681 L65 19 C65 8 73 0 84 0 L433 0 C444 0 452 8 452 19 L452 115 C452 126 444 134 433 134 L209 134 L209 681 Z " />
<glyph glyph-name="M" unicode="M" horiz-adv-x="736" d="M395 91 C410 91 414 97 418 107 L521 360 L527 360 L527 19 C527 8 535 0 546 0 L652 0 C663 0 671 8 671 19 L671 681 C671 692 663 700 652 700 L527 700 C516 700 507 691 503 681 L374 356 L362 356 L233 681 C229 691 220 700 209 700 L84 700 C73 700 65 692 65 681 L65 19 C65 8 73 0 84 0 L190 0 C201 0 209 8 209 19 L209 360 L215 360 L318 107 C322 97 326 91 341 91 L395 91 Z " />
<glyph glyph-name="N" unicode="N" horiz-adv-x="615" d="M212 700 L84 700 C73 700 65 692 65 681 L65 19 C65 8 73 0 84 0 L190 0 C201 0 209 8 209 19 L209 373 L216 373 L376 16 C381 6 387 0 402 0 L531 0 C542 0 550 8 550 19 L550 681 C550 692 542 700 531 700 L425 700 C414 700 406 692 406 681 L406 321 L399 321 L238 684 C233 694 227 700 212 700 L212 700 Z " />
<glyph glyph-name="O" unicode="O" horiz-adv-x="567" d="M244 129 C220 129 199 151 199 178 L199 522 C199 549 220 571 244 571 L323 571 C347 571 368 549 368 522 L368 178 C368 151 347 129 323 129 L244 129 Z M329 -5 C431 -5 512 73 512 171 L512 529 C512 627 431 705 329 705 L238 705 C136 705 55 627 55 529 L55 171 C55 73 136 -5 238 -5 L329 -5 Z " />
<glyph glyph-name="P" unicode="P" horiz-adv-x="558" d="M209 333 L209 566 L323 566 C348 566 369 544 369 517 L369 382 C369 355 348 333 323 333 L209 333 Z M84 700 C73 700 65 692 65 681 L65 19 C65 8 73 0 84 0 L190 0 C201 0 209 8 209 19 L209 199 L330 199 C431 199 513 277 513 375 L513 524 C513 622 431 700 330 700 L84 700 Z " />
<glyph glyph-name="Q" unicode="Q" horiz-adv-x="567" d="M512 171 L512 529 C512 627 431 705 329 705 L238 705 C136 705 55 627 55 529 L55 171 C55 76 131 0 228 -5 L271 -99 C275 -109 283 -118 294 -118 L397 -118 C408 -118 416 -110 416 -99 L371 0 C452 17 512 87 512 171 L512 171 Z M244 129 C220 129 199 151 199 178 L199 522 C199 549 220 571 244 571 L323 571 C347 571 368 549 368 522 L368 178 C368 151 347 129 323 129 L244 129 Z " />
<glyph glyph-name="R" unicode="R" horiz-adv-x="567" d="M432 229 C481 260 513 314 513 375 L513 524 C513 622 431 700 330 700 L84 700 C73 700 65 692 65 681 L65 19 C65 8 73 0 84 0 L190 0 C201 0 209 8 209 19 L209 199 L291 199 L373 19 C378 9 387 0 398 0 L513 0 C524 0 532 8 532 19 L432 229 Z M209 566 L323 566 C348 566 369 544 369 517 L369 382 C369 355 348 333 323 333 L209 333 L209 566 Z " />
<glyph glyph-name="S" unicode="S" horiz-adv-x="534" d="M218 705 C117 705 35 627 35 529 L35 507 C35 215 350 336 350 202 L350 178 C350 151 328 129 303 129 L225 129 C200 129 179 151 179 178 L179 204 C179 215 171 223 160 223 L54 223 C43 223 35 215 35 204 L35 171 C35 73 117 -5 218 -5 L311 -5 C412 -5 494 73 494 171 L494 187 C494 482 179 352 179 496 L179 522 C179 549 201 571 226 571 L294 571 C319 571 340 549 340 522 L340 502 C340 491 348 483 359 483 L465 483 C476 483 484 491 484 502 L484 529 C484 627 402 705 302 705 L218 705 Z " />
<glyph glyph-name="T" unicode="T" horiz-adv-x="504" d="M180 566 L180 19 C180 8 188 0 199 0 L305 0 C316 0 324 8 324 19 L324 566 L455 566 C466 566 474 574 474 585 L474 681 C474 692 466 700 455 700 L49 700 C38 700 30 692 30 681 L30 585 C30 574 38 566 49 566 L180 566 Z " />
<glyph glyph-name="U" unicode="U" horiz-adv-x="577" d="M517 681 C517 692 509 700 498 700 L392 700 C381 700 373 692 373 681 L373 178 C373 151 352 129 328 129 L249 129 C225 129 204 151 204 178 L204 681 C204 692 196 700 185 700 L79 700 C68 700 60 692 60 681 L60 171 C60 73 141 -5 243 -5 L334 -5 C436 -5 517 73 517 171 L517 681 Z " />
<glyph glyph-name="V" unicode="V" horiz-adv-x="585" d="M368 0 C379 0 386 9 389 19 L565 681 C565 692 557 700 546 700 L440 700 C429 700 421 692 418 681 L299 201 L286 201 L167 681 C164 692 156 700 145 700 L39 700 C28 700 20 692 20 681 L196 19 C199 9 206 0 217 0 L368 0 Z " />
<glyph glyph-name="W" unicode="W" horiz-adv-x="778" d="M343 700 C332 700 324 692 321 681 L234 288 L165 681 C162 692 154 700 143 700 L39 700 C28 700 20 692 20 681 L142 19 C145 8 153 0 164 0 L294 0 C305 0 311 7 314 19 L389 371 L464 19 C467 7 473 0 484 0 L614 0 C625 0 633 8 636 19 L758 681 C758 692 750 700 739 700 L635 700 C624 700 616 692 613 681 L544 288 L457 681 C454 692 446 700 435 700 L343 700 Z " />
<glyph glyph-name="X" unicode="X" horiz-adv-x="565" d="M288 266 L388 18 C393 8 401 0 412 0 L521 0 C532 0 540 8 540 19 L406 349 C453 456 490 575 537 681 C537 692 529 700 518 700 L413 700 C402 700 394 692 389 682 L288 428 L277 428 L176 682 C171 692 163 700 152 700 L47 700 C36 700 28 692 28 681 C75 575 112 456 159 349 L25 19 C25 8 33 0 44 0 L153 0 C164 0 172 8 177 18 L277 266 L288 266 Z " />
<glyph glyph-name="Y" unicode="Y" horiz-adv-x="568" d="M279 404 L162 681 C157 691 150 700 139 700 L34 700 C23 700 15 692 15 681 L212 226 L212 19 C212 8 220 0 231 0 L337 0 C348 0 356 8 356 19 L356 226 L553 681 C553 692 545 700 534 700 L429 700 C418 700 411 691 406 681 L289 404 L279 404 Z " />
<glyph glyph-name="Z" unicode="Z" horiz-adv-x="505" d="M218 134 L460 609 C462 613 465 621 465 626 L465 681 C465 692 457 700 446 700 L59 700 C48 700 40 692 40 681 L40 585 C40 574 48 566 59 566 L288 566 L45 91 C43 88 40 80 40 75 L40 19 C40 8 48 0 59 0 L446 0 C457 0 465 8 465 19 L465 115 C465 126 457 134 446 134 L218 134 Z " />
<glyph glyph-name="bracketleft" unicode="&#x5b;" horiz-adv-x="390" d="M209 671 L306 671 C317 671 325 679 325 690 L325 786 C325 797 317 805 306 805 L84 805 C73 805 65 797 65 786 L65 -158 C65 -169 73 -177 84 -177 L306 -177 C317 -177 325 -169 325 -158 L325 -62 C325 -51 317 -43 306 -43 L209 -43 L209 671 Z " />
<glyph glyph-name="backslash" unicode="&#x5c;" horiz-adv-x="578" d="M212 785 C209 796 201 804 190 804 L84 804 C73 804 65 796 65 785 C160 485 271 145 366 -155 C369 -166 377 -174 388 -174 L494 -174 C505 -174 513 -166 513 -155 L212 785 Z " />
<glyph glyph-name="bracketright" unicode="&#x5d;" horiz-adv-x="390" d="M181 -43 L84 -43 C73 -43 65 -51 65 -62 L65 -158 C65 -169 73 -177 84 -177 L306 -177 C317 -177 325 -169 325 -158 L325 786 C325 797 317 805 306 805 L84 805 C73 805 65 797 65 786 L65 690 C65 679 73 671 84 671 L181 671 L181 -43 Z " />
<glyph glyph-name="asciicircum" unicode="&#x5e;" horiz-adv-x="452" d="M176 700 C164 700 156 696 151 685 L65 511 C65 500 73 492 84 492 L178 492 C189 492 197 501 201 511 L226 562 L251 511 C255 501 263 492 274 492 L368 492 C379 492 387 500 387 511 L301 685 C296 696 288 700 276 700 L176 700 Z " />
<glyph glyph-name="underscore" unicode="&#x5f;" horiz-adv-x="390" d="M306 -137 C317 -137 325 -129 325 -118 L325 -22 C325 -11 317 -3 306 -3 L84 -3 C73 -3 65 -11 65 -22 L65 -118 C65 -129 73 -137 84 -137 L306 -137 Z " />
<glyph glyph-name="grave" unicode="&#x60;" horiz-adv-x="341" d="M258 506 C268 506 276 514 276 524 L206 682 C202 691 194 700 183 700 L83 700 C72 700 65 692 65 682 L135 524 C139 515 147 506 158 506 L258 506 Z " />
<glyph glyph-name="a" unicode="a" horiz-adv-x="474" d="M124 373 C156 382 177 387 215 387 C274 387 280 348 280 326 L280 319 L205 319 C111 319 45 270 45 179 L45 139 C45 48 88 -5 182 -5 L197 -5 C211 -5 260 -2 271 31 L280 31 L280 19 C280 8 288 0 299 0 L405 0 C416 0 424 8 424 19 L424 327 C424 374 416 520 244 520 C161 520 114 506 94 499 C85 496 79 490 79 481 C79 479 79 469 100 387 C103 376 110 372 115 372 C117 372 121 372 124 373 L124 373 Z M189 171 C189 188 204 201 219 201 L280 201 L280 158 C280 142 264 128 249 128 L219 128 C204 128 189 142 189 158 L189 171 Z " />
<glyph glyph-name="b" unicode="b" horiz-adv-x="504" d="M459 362 C459 451 416 520 322 520 L290 520 C273 520 241 513 219 484 L209 484 L209 681 C209 692 201 700 190 700 L84 700 C73 700 65 692 65 681 L65 19 C65 8 73 0 84 0 L190 0 C201 0 209 8 209 19 L209 31 L219 31 C241 2 273 -5 290 -5 L322 -5 C416 -5 459 64 459 153 L459 362 Z M209 357 C209 373 224 387 239 387 L284 387 C300 387 315 373 315 357 L315 158 C315 142 300 128 284 128 L239 128 C224 128 209 142 209 158 L209 357 Z " />
<glyph glyph-name="c" unicode="c" horiz-adv-x="459" d="M285 158 C285 142 269 128 254 128 L224 128 C209 128 194 142 194 158 L194 357 C194 373 209 387 224 387 L254 387 C269 387 285 373 285 357 L285 342 C285 331 293 323 304 323 L410 323 C421 323 429 331 429 342 L429 362 C429 440 369 520 272 520 L207 520 C111 520 50 440 50 362 L50 152 C50 75 111 -5 207 -5 L272 -5 C369 -5 429 75 429 152 L429 173 C429 184 421 192 410 192 L304 192 C293 192 285 184 285 173 L285 158 Z " />
<glyph glyph-name="d" unicode="d" horiz-adv-x="504" d="M45 153 C45 64 88 -5 182 -5 L214 -5 C231 -5 263 2 285 31 L295 31 L295 19 C295 8 303 0 314 0 L420 0 C431 0 439 8 439 19 L439 681 C439 692 431 700 420 700 L314 700 C303 700 295 692 295 681 L295 484 L285 484 C263 513 231 520 214 520 L182 520 C88 520 45 451 45 362 L45 153 Z M295 158 C295 142 280 128 265 128 L220 128 C204 128 189 142 189 158 L189 357 C189 373 204 387 220 387 L265 387 C280 387 295 373 295 357 L295 158 Z " />
<glyph glyph-name="e" unicode="e" horiz-adv-x="476" d="M194 357 C194 373 209 387 224 387 L257 387 C272 387 288 373 288 357 L288 315 L194 315 L194 357 Z M416 74 C418 77 419 82 419 85 C419 91 417 95 411 100 L344 155 C341 157 336 158 333 158 C326 158 321 155 317 150 C307 141 292 128 265 128 L224 128 C209 128 194 142 194 158 L194 195 L412 195 C423 195 431 203 431 214 L431 362 C431 440 371 520 274 520 L207 520 C111 520 50 440 50 362 L50 152 C50 75 111 -5 207 -5 L265 -5 C265 -5 367 -4 416 74 L416 74 Z " />
<glyph glyph-name="f" unicode="f" horiz-adv-x="373" d="M324 603 C335 603 343 611 343 622 L343 716 C343 727 335 735 324 735 L256 735 C160 735 104 655 99 577 L99 515 L39 515 C28 515 20 507 20 496 L20 401 C20 390 28 382 39 382 L99 382 L99 19 C99 8 107 0 118 0 L224 0 C235 0 243 8 243 19 L243 382 L323 382 C334 382 342 390 342 401 L342 496 C342 507 334 515 323 515 L243 515 L243 568 C243 587 261 603 279 603 L324 603 Z " />
<glyph glyph-name="g" unicode="g" horiz-adv-x="504" d="M295 158 C295 142 280 128 265 128 L220 128 C204 128 189 142 189 158 L189 357 C189 373 204 387 220 387 L265 387 C280 387 295 373 295 357 L295 158 Z M295 -21 C295 -42 281 -71 222 -71 C183 -71 131 -59 126 -59 C113 -59 108 -62 104 -76 C84 -156 84 -166 84 -169 C84 -178 90 -182 99 -186 C121 -193 153 -203 237 -203 C426 -203 439 -71 439 -22 L439 496 C439 507 431 515 420 515 L314 515 C303 515 295 507 295 496 L295 484 L285 484 C263 513 231 520 214 520 L182 520 C88 520 45 451 45 362 L45 153 C45 64 88 -5 182 -5 L214 -5 C231 -5 263 2 285 31 L295 31 L295 -21 Z " />
<glyph glyph-name="h" unicode="h" horiz-adv-x="509" d="M454 361 C449 451 422 520 328 520 L314 520 C293 520 251 513 218 470 L209 470 L209 681 C209 692 201 700 190 700 L84 700 C73 700 65 692 65 681 L65 19 C65 8 73 0 84 0 L190 0 C201 0 209 8 209 19 L209 339 C223 383 246 387 261 387 L277 387 C295 387 310 373 310 352 L310 19 C310 8 318 0 329 0 L435 0 C446 0 454 8 454 19 L454 361 Z " />
<glyph glyph-name="i" unicode="i" horiz-adv-x="274" d="M65 19 C65 8 73 0 84 0 L190 0 C201 0 209 8 209 19 L209 496 C209 507 201 515 190 515 L84 515 C73 515 65 507 65 496 L65 19 Z M63 584 C63 573 71 565 82 565 L192 565 C203 565 211 573 211 584 L211 681 C211 692 203 700 192 700 L82 700 C71 700 63 692 63 681 L63 584 Z " />
<glyph glyph-name="j" unicode="j" horiz-adv-x="274" d="M45 -188 C45 -188 209 -142 209 14 L209 496 C209 507 201 515 190 515 L84 515 C73 515 65 507 65 496 L65 19 C65 19 63 -35 -10 -56 C-18 -58 -22 -66 -22 -73 C-22 -75 -21 -78 -20 -80 L20 -178 C23 -186 29 -190 36 -190 C38 -190 43 -189 45 -188 L45 -188 Z M63 584 C63 573 71 565 82 565 L192 565 C203 565 211 573 211 584 L211 681 C211 692 203 700 192 700 L82 700 C71 700 63 692 63 681 L63 584 Z " />
<glyph glyph-name="k" unicode="k" horiz-adv-x="490" d="M317 21 C323 8 334 0 345 0 L454 0 C465 0 473 8 473 19 L378 270 L475 496 C475 507 467 515 456 515 L349 515 C338 515 326 506 320 496 L249 335 L209 335 L209 681 C209 692 201 700 190 700 L84 700 C73 700 65 692 65 681 L65 19 C65 8 73 0 84 0 L190 0 C201 0 209 8 209 19 L209 205 L248 205 L317 21 Z " />
<glyph glyph-name="l" unicode="l" horiz-adv-x="274" d="M65 19 C65 8 73 0 84 0 L190 0 C201 0 209 8 209 19 L209 681 C209 692 201 700 190 700 L84 700 C73 700 65 692 65 681 L65 19 Z " />
<glyph glyph-name="m" unicode="m" horiz-adv-x="718" d="M519 19 C519 8 527 0 538 0 L644 0 C655 0 663 8 663 19 L663 361 C663 451 617 520 522 520 C501 520 449 520 410 465 L403 465 C379 500 355 520 303 520 C278 520 246 510 216 465 L209 465 L209 496 C209 507 201 515 190 515 L84 515 C73 515 65 507 65 496 L65 19 C65 8 73 0 84 0 L190 0 C201 0 209 8 209 19 L209 339 C218 378 233 387 252 387 C278 387 292 373 292 345 L292 19 C292 8 300 0 311 0 L417 0 C428 0 436 8 436 19 L436 339 C445 378 460 387 479 387 C505 387 519 373 519 345 L519 19 Z " />
<glyph glyph-name="n" unicode="n" horiz-adv-x="509" d="M454 361 C449 451 422 520 328 520 L314 520 C293 520 251 513 218 470 L209 470 L209 496 C209 507 201 515 190 515 L84 515 C73 515 65 507 65 496 L65 19 C65 8 73 0 84 0 L190 0 C201 0 209 8 209 19 L209 339 C223 383 246 387 261 387 L277 387 C295 387 310 373 310 352 L310 19 C310 8 318 0 329 0 L435 0 C446 0 454 8 454 19 L454 361 Z " />
<glyph glyph-name="o" unicode="o" horiz-adv-x="481" d="M207 520 C111 520 50 440 50 362 L50 152 C50 75 111 -5 207 -5 L274 -5 C370 -5 431 75 431 152 L431 362 C431 440 370 520 274 520 L207 520 Z M257 387 C272 387 287 373 287 357 L287 158 C287 142 272 128 257 128 L224 128 C209 128 194 142 194 158 L194 357 C194 373 209 387 224 387 L257 387 Z " />
<glyph glyph-name="p" unicode="p" horiz-adv-x="504" d="M459 362 C459 451 416 520 322 520 L290 520 C273 520 241 513 219 484 L209 484 L209 496 C209 507 201 515 190 515 L84 515 C73 515 65 507 65 496 L65 -155 C65 -166 73 -174 84 -174 L190 -174 C201 -174 209 -166 209 -155 L209 31 L219 31 C241 2 273 -5 290 -5 L322 -5 C416 -5 459 64 459 153 L459 362 Z M209 357 C209 373 224 387 239 387 L284 387 C300 387 315 373 315 357 L315 158 C315 142 300 128 284 128 L239 128 C224 128 209 142 209 158 L209 357 Z " />
<glyph glyph-name="q" unicode="q" horiz-adv-x="504" d="M45 153 C45 64 88 -5 182 -5 L214 -5 C231 -5 263 2 285 31 L295 31 L295 -155 C295 -166 303 -174 314 -174 L420 -174 C431 -174 439 -166 439 -155 L439 496 C439 507 431 515 420 515 L314 515 C303 515 295 507 295 496 L295 484 L285 484 C263 513 231 520 214 520 L182 520 C88 520 45 451 45 362 L45 153 Z M295 158 C295 142 280 128 265 128 L220 128 C204 128 189 142 189 158 L189 357 C189 373 204 387 220 387 L265 387 C280 387 295 373 295 357 L295 158 Z " />
<glyph glyph-name="r" unicode="r" horiz-adv-x="380" d="M350 514 C338 519 326 520 310 520 C290 520 247 520 218 465 L209 465 L209 496 C209 507 201 515 190 515 L84 515 C73 515 65 507 65 496 L65 19 C65 8 73 0 84 0 L190 0 C201 0 209 8 209 19 L209 339 C234 384 272 387 293 387 C315 387 334 381 338 381 C349 381 357 389 357 400 L365 492 C365 504 362 509 350 514 L350 514 Z " />
<glyph glyph-name="s" unicode="s" horiz-adv-x="455" d="M239 392 C255 392 270 378 270 362 L270 356 C270 345 278 337 289 337 L395 337 C406 337 414 345 414 356 L414 363 C414 440 353 520 257 520 L197 520 C101 520 45 451 40 373 L40 365 C40 168 277 223 277 162 L277 145 C277 131 262 123 246 123 L215 123 C199 123 184 137 184 153 L184 164 C184 175 176 183 165 183 L59 183 C48 183 40 175 40 164 L40 152 C40 75 101 -5 197 -5 L263 -5 C360 -5 420 63 420 141 L420 155 C420 350 184 293 184 358 L184 370 C184 384 199 392 215 392 L239 392 Z " />
<glyph glyph-name="t" unicode="t" horiz-adv-x="364" d="M241 382 L320 382 C331 382 339 390 339 401 L339 496 C339 507 331 515 320 515 L241 515 L241 681 C241 692 233 700 222 700 L116 700 C105 700 97 692 97 681 L97 515 L39 515 C28 515 20 507 20 496 L20 401 C20 390 28 382 39 382 L97 382 L97 167 C97 69 158 0 254 0 L320 0 C331 0 339 8 339 19 L339 113 C339 124 331 132 320 132 L277 132 C259 132 241 148 241 167 L241 382 Z " />
<glyph glyph-name="u" unicode="u" horiz-adv-x="488" d="M276 -5 C372 -5 433 75 433 152 L433 496 C433 507 425 515 414 515 L308 515 C297 515 289 507 289 496 L289 158 C289 142 274 128 259 128 L229 128 C214 128 199 142 199 158 L199 496 C199 507 191 515 180 515 L74 515 C63 515 55 507 55 496 L55 152 C55 75 116 -5 212 -5 L276 -5 Z " />
<glyph glyph-name="v" unicode="v" horiz-adv-x="461" d="M304 0 C315 0 322 9 325 19 L451 496 C451 507 443 515 432 515 L324 515 C313 515 305 507 302 496 L237 205 L224 205 L159 496 C156 507 148 515 137 515 L29 515 C18 515 10 507 10 496 L136 19 C139 9 146 0 157 0 L304 0 Z " />
<glyph glyph-name="w" unicode="w" horiz-adv-x="626" d="M274 515 C263 515 253 508 250 497 L195 275 L153 497 C150 508 140 515 129 515 L29 515 C18 515 10 507 10 496 L121 19 C124 8 131 0 142 0 L230 0 C241 0 251 7 254 18 L313 255 L372 18 C375 7 385 0 396 0 L484 0 C495 0 502 8 505 19 L616 496 C616 507 608 515 597 515 L497 515 C486 515 476 508 473 497 L431 275 L376 497 C373 508 363 515 352 515 L274 515 Z " />
<glyph glyph-name="x" unicode="x" horiz-adv-x="454" d="M232 176 L293 18 C298 8 306 0 317 0 L420 0 C431 0 439 8 439 19 L348 258 L435 496 C435 507 427 515 416 515 L314 515 C303 515 295 507 290 497 L232 334 L222 334 L164 497 C159 507 151 515 140 515 L38 515 C27 515 19 507 19 496 L106 258 L15 19 C15 8 23 0 34 0 L137 0 C148 0 156 8 161 18 L222 176 L232 176 Z " />
<glyph glyph-name="y" unicode="y" horiz-adv-x="461" d="M147 -21 C142 -46 126 -72 95 -72 L53 -72 C42 -72 34 -80 34 -91 L34 -184 C34 -195 42 -203 53 -203 L136 -203 C160 -203 271 -181 316 -12 L451 496 C451 507 443 515 432 515 L324 515 C313 515 305 507 302 496 L237 205 L224 205 L159 496 C156 507 148 515 137 515 L29 515 C18 515 10 507 10 496 L147 -21 Z " />
<glyph glyph-name="z" unicode="z" horiz-adv-x="423" d="M215 134 L382 424 C387 433 388 438 388 444 L388 496 C388 507 380 515 369 515 L54 515 C43 515 35 507 35 496 L35 400 C35 389 43 381 54 381 L210 381 L41 91 C37 85 35 80 35 74 L35 19 C35 8 43 0 54 0 L369 0 C380 0 388 8 388 19 L388 115 C388 126 380 134 369 134 L215 134 Z " />
<glyph glyph-name="braceleft" unicode="&#x7b;" horiz-adv-x="460" d="M267 313 C296 344 310 381 310 427 L310 622 C310 649 331 671 355 671 L376 671 C387 671 395 679 395 690 L395 786 C395 797 387 805 376 805 L347 805 C246 805 166 727 166 629 L166 433 C166 405 143 385 119 385 L84 385 C73 385 65 377 65 366 L65 261 C65 250 73 242 84 242 L119 242 C143 242 166 222 166 194 L166 -2 C166 -100 246 -178 347 -178 L376 -178 C387 -178 395 -170 395 -159 L395 -63 C395 -52 387 -44 376 -44 L355 -44 C331 -44 310 -22 310 5 L310 200 C310 246 296 282 267 313 L267 313 Z " />
<glyph glyph-name="bar" unicode="&#x7c;" horiz-adv-x="274" d="M65 -159 C65 -170 73 -178 84 -178 L190 -178 C201 -178 209 -170 209 -159 L209 786 C209 797 201 805 190 805 L84 805 C73 805 65 797 65 786 L65 -159 Z " />
<glyph glyph-name="braceright" unicode="&#x7d;" horiz-adv-x="460" d="M193 313 C164 282 150 246 150 200 L150 5 C150 -22 129 -44 105 -44 L84 -44 C73 -44 65 -52 65 -63 L65 -159 C65 -170 73 -178 84 -178 L113 -178 C214 -178 294 -100 294 -2 L294 194 C294 222 317 242 341 242 L376 242 C387 242 395 250 395 261 L395 366 C395 377 387 385 376 385 L341 385 C317 385 294 405 294 433 L294 629 C294 727 214 805 113 805 L84 805 C73 805 65 797 65 786 L65 690 C65 679 73 671 84 671 L105 671 C129 671 150 649 150 622 L150 427 C150 381 164 344 193 313 L193 313 Z " />
<glyph glyph-name="asciitilde" unicode="&#x7e;" horiz-adv-x="421" d="M264 154 C291 154 318 167 344 183 C352 189 356 198 356 207 L332 285 C330 292 322 298 312 298 C309 298 305 298 302 297 C291 292 272 288 264 288 C215 288 205 325 157 325 C130 325 103 312 77 296 C69 290 65 281 65 272 L89 194 C91 187 99 181 109 181 C112 181 116 181 119 182 C130 187 149 191 157 191 C207 191 216 154 264 154 L264 154 Z " />
<glyph glyph-name="uni00A0" unicode="&#xa0;" horiz-adv-x="198" d="" />
<glyph glyph-name="exclamdown" unicode="&#xa1;" horiz-adv-x="278" d="M99 526 C88 526 81 518 80 507 L67 391 L67 13 C67 2 75 -6 86 -6 L192 -6 C203 -6 211 2 211 13 L211 391 L198 507 C197 518 190 526 179 526 L99 526 Z M65 584 C65 573 73 565 84 565 L194 565 C205 565 213 573 213 584 L213 681 C213 692 205 700 194 700 L84 700 C73 700 65 692 65 681 L65 584 Z " />
<glyph glyph-name="cent" unicode="&#xa2;" horiz-adv-x="587" d="M223 -118 C223 -129 231 -137 242 -137 L348 -137 C359 -137 367 -129 367 -118 L367 -3 C455 9 522 82 522 171 L522 210 C522 221 514 229 503 229 L397 229 C386 229 378 221 378 210 L378 178 C378 151 357 129 333 129 L254 129 C230 129 209 151 209 178 L209 522 C209 549 230 571 254 571 L333 571 C357 571 378 549 378 522 L378 490 C378 479 386 471 397 471 L503 471 C514 471 522 479 522 490 L522 529 C522 618 455 690 367 703 L367 813 C367 824 359 832 348 832 L242 832 C231 832 223 824 223 813 L223 703 C133 691 65 619 65 529 L65 171 C65 81 133 8 223 -3 L223 -118 Z " />
<glyph glyph-name="sterling" unicode="&#xa3;" horiz-adv-x="616" d="M148 399 L84 399 C73 399 65 391 65 380 L65 284 C65 273 73 265 84 265 L148 265 L148 134 L84 134 C73 134 65 126 65 115 L65 19 C65 8 73 0 84 0 L532 0 C543 0 551 8 551 19 L551 115 C551 126 543 134 532 134 L292 134 L292 265 L384 265 C395 265 403 273 403 284 L403 380 C403 391 395 399 384 399 L292 399 L292 537 C292 553 307 567 322 567 L369 567 C384 567 400 553 400 537 L400 522 C400 511 408 503 419 503 L525 503 C536 503 544 511 544 522 L544 542 C544 620 484 700 387 700 L305 700 C209 700 148 620 148 542 L148 399 Z " />
<glyph glyph-name="currency" unicode="&#xa4;" horiz-adv-x="488" d="M223 154 C213 154 202 163 202 175 L202 241 C202 253 213 262 223 262 L265 262 C275 262 286 253 286 241 L286 175 C286 163 275 154 265 154 L223 154 Z M210 368 C204 368 200 368 196 367 L184 396 C180 407 173 415 162 415 L84 415 C73 415 65 407 65 396 L105 305 C95 288 87 265 87 245 L87 171 C87 150 94 128 105 110 L65 19 C65 8 73 0 84 0 L162 0 C173 0 180 8 184 19 L196 48 L292 48 L304 19 C308 8 315 0 326 0 L404 0 C415 0 423 8 423 19 L383 110 C394 128 401 150 401 171 L401 245 C401 265 393 288 383 305 L423 396 C423 407 415 415 404 415 L326 415 C315 415 308 407 304 396 L292 367 C288 368 284 368 278 368 L210 368 Z " />
<glyph glyph-name="yen" unicode="&#xa5;" horiz-adv-x="668" d="M495 76 C506 76 514 84 514 95 L514 183 C514 194 506 202 495 202 L406 202 L406 226 L418 255 L495 255 C506 255 514 263 514 274 L514 362 C514 373 506 381 495 381 L473 381 L603 681 C603 692 595 700 584 700 L479 700 C468 700 461 691 456 681 L339 404 L329 404 L212 681 C207 691 200 700 189 700 L84 700 C73 700 65 692 65 681 L195 381 L173 381 C162 381 154 373 154 362 L154 274 C154 263 162 255 173 255 L249 255 L262 226 L262 202 L173 202 C162 202 154 194 154 183 L154 95 C154 84 162 76 173 76 L262 76 L262 19 C262 8 270 0 281 0 L387 0 C398 0 406 8 406 19 L406 76 L495 76 Z " />
<glyph glyph-name="brokenbar" unicode="&#xa6;" horiz-adv-x="274" d="M65 401 C65 390 73 382 84 382 L190 382 C201 382 209 390 209 401 L209 786 C209 797 201 805 190 805 L84 805 C73 805 65 797 65 786 L65 401 Z M65 -159 C65 -170 73 -178 84 -178 L190 -178 C201 -178 209 -170 209 -159 L209 226 C209 237 201 245 190 245 L84 245 C73 245 65 237 65 226 L65 -159 Z " />
<glyph glyph-name="section" unicode="&#xa7;" horiz-adv-x="514" d="M443 323 L443 335 C443 410 404 449 355 471 L339 478 C263 506 209 502 209 538 L209 550 C209 564 224 572 240 572 L262 572 C278 572 293 558 293 542 L293 536 C293 525 301 517 312 517 L418 517 C429 517 437 525 437 536 L437 543 C437 620 376 700 280 700 L222 700 C126 700 70 631 65 553 L65 545 C65 494 82 459 108 435 C86 409 73 375 71 340 L71 332 C71 132 306 187 306 129 L306 112 C306 98 291 90 275 90 L246 90 C230 90 215 104 215 120 L215 131 C215 142 207 150 196 150 L90 150 C79 150 71 142 71 131 L71 119 C71 42 132 -38 228 -38 L292 -38 C389 -38 449 30 449 108 L449 122 C449 170 433 203 408 227 C431 253 443 286 443 323 L443 323 Z M246 303 C231 303 215 311 215 326 L215 336 C215 351 231 359 246 359 L269 359 C285 359 301 351 301 336 L301 326 C301 311 285 303 269 303 L246 303 Z " />
<glyph glyph-name="dieresis" unicode="&#xa8;" horiz-adv-x="441" d="M65 582 C65 571 73 563 84 563 L179 563 C190 563 198 571 198 582 L198 681 C198 692 190 700 179 700 L84 700 C73 700 65 692 65 681 L65 582 Z M243 582 C243 571 251 563 262 563 L357 563 C368 563 376 571 376 582 L376 681 C376 692 368 700 357 700 L262 700 C251 700 243 692 243 681 L243 582 Z " />
<glyph glyph-name="copyright" unicode="&#xa9;" horiz-adv-x="841" d="M421 699 C225 699 65 540 65 344 C65 148 225 -11 421 -11 C616 -11 776 148 776 344 C776 540 616 699 421 699 L421 699 Z M421 70 C268 70 147 192 147 344 C147 497 268 620 421 620 C575 620 697 497 697 344 C697 192 575 70 421 70 L421 70 Z M261 263 C265 204 306 144 379 144 L457 144 C530 144 571 204 575 263 L575 273 C575 280 570 286 562 286 L489 286 C481 286 476 280 476 273 L476 266 C476 249 460 235 443 235 L393 235 C376 235 360 249 360 266 L360 426 C360 443 376 457 393 457 L443 457 C460 457 476 443 476 426 L476 419 C476 412 481 406 489 406 L562 406 C570 406 575 412 575 419 L575 429 C571 488 530 548 457 548 L379 548 C306 548 265 488 261 429 L261 263 Z " />
<glyph glyph-name="ordfeminine" unicode="&#xaa;" horiz-adv-x="381" d="M153 493 C153 506 165 514 177 514 L229 514 L229 485 C229 472 216 464 203 464 L177 464 C165 464 153 472 153 485 L153 493 Z M92 686 C88 685 85 682 85 677 C85 676 85 663 95 620 C97 613 102 613 107 613 C122 616 152 622 176 622 C216 622 229 602 229 588 L229 580 L160 580 C105 580 65 550 65 497 L65 473 C65 421 105 391 160 391 L174 391 C186 391 211 396 224 413 L229 413 L229 404 C229 398 233 394 239 394 L306 394 C312 394 316 398 316 404 L316 588 C316 616 295 700 185 700 C136 700 105 691 92 686 L92 686 Z " />
<glyph glyph-name="guillemotleft" unicode="&#xab;" horiz-adv-x="699" d="M507 280 L634 501 C634 512 626 520 615 520 L493 520 C482 520 475 511 469 501 L343 286 L343 259 L469 19 C475 9 482 0 493 0 L615 0 C626 0 634 8 634 19 L507 265 L507 280 Z M229 280 L356 501 C356 512 348 520 337 520 L215 520 C204 520 197 511 191 501 L65 286 L65 259 L191 19 C197 9 204 0 215 0 L337 0 C348 0 356 8 356 19 L229 265 L229 280 Z " />
<glyph glyph-name="logicalnot" unicode="&#xac;" horiz-adv-x="516" d="M307 77 C307 66 315 58 326 58 L432 58 C443 58 451 66 451 77 L451 305 C451 316 443 324 432 324 L84 324 C73 324 65 316 65 305 L65 209 C65 198 73 190 84 190 L307 190 L307 77 Z " />
<glyph glyph-name="uni00AD" unicode="&#xad;" horiz-adv-x="198" d="" />
<glyph glyph-name="registered" unicode="&#xae;" horiz-adv-x="841" d="M421 699 C225 699 65 540 65 344 C65 148 225 -11 421 -11 C616 -11 776 148 776 344 C776 540 616 699 421 699 L421 699 Z M421 70 C268 70 147 192 147 344 C147 497 268 620 421 620 C575 620 697 497 697 344 C697 192 575 70 421 70 L421 70 Z M379 357 L379 459 L446 459 C463 459 478 443 478 424 L478 391 C478 372 463 357 446 357 L379 357 Z M280 161 C280 154 285 148 293 148 L366 148 C374 148 379 154 379 161 L379 266 L434 266 L483 158 C485 152 489 148 495 148 L575 148 C581 148 585 152 585 158 L527 279 C556 297 576 328 576 364 L576 451 C576 506 531 550 474 550 L293 550 C285 550 280 544 280 537 L280 161 Z " />
<glyph glyph-name="macron" unicode="&#xaf;" horiz-adv-x="393" d="M309 578 C320 578 328 586 328 597 L328 681 C328 692 320 700 309 700 L84 700 C73 700 65 692 65 681 L65 597 C65 586 73 578 84 578 L309 578 Z " />
<glyph glyph-name="degree" unicode="&#xb0;" horiz-adv-x="414" d="M206 751 C129 751 65 688 65 609 C65 532 129 468 206 468 C286 468 349 532 349 609 C349 688 286 751 206 751 L206 751 Z M206 568 C184 568 165 587 165 609 C165 632 184 651 206 651 C229 651 248 632 248 609 C248 587 229 568 206 568 L206 568 Z " />
<glyph glyph-name="plusminus" unicode="&#xb1;" horiz-adv-x="434" d="M289 404 L289 496 C289 507 281 515 270 515 L164 515 C153 515 145 507 145 496 L145 404 L84 404 C73 404 65 396 65 385 L65 290 C65 279 73 271 84 271 L145 271 L145 179 C145 168 153 160 164 160 L270 160 C281 160 289 168 289 179 L289 271 L350 271 C361 271 369 279 369 290 L369 385 C369 396 361 404 350 404 L289 404 Z M350 0 C361 0 369 8 369 19 L369 114 C369 125 361 133 350 133 L84 133 C73 133 65 125 65 114 L65 19 C65 8 73 0 84 0 L350 0 Z " />
<glyph glyph-name="twosuperior" unicode="&#xb2;" horiz-adv-x="346" d="M156 471 C156 522 279 468 279 611 L279 625 C279 667 245 700 202 700 L147 700 C104 700 71 667 71 625 L71 593 C71 588 74 585 79 585 L137 585 C142 585 145 588 145 593 L145 598 C145 613 152 624 165 624 L175 624 C188 624 194 614 194 605 L194 600 C194 531 65 592 65 461 L65 401 C65 397 68 394 72 394 L274 394 C278 394 281 397 281 401 L281 463 C281 468 278 471 274 471 L156 471 Z " />
<glyph glyph-name="threesuperior" unicode="&#xb3;" horiz-adv-x="338" d="M233 547 C255 557 273 578 273 611 L273 625 C273 667 239 700 196 700 L141 700 C98 700 65 667 65 625 L65 593 C65 588 68 585 73 585 L131 585 C136 585 139 588 139 593 L139 598 C139 613 146 624 159 624 L169 624 C182 624 188 614 188 605 L188 599 C188 590 182 580 169 580 L152 580 C148 580 145 577 145 572 L145 522 C145 517 148 514 152 514 L169 514 C182 514 188 504 188 495 L188 489 C188 480 182 470 169 470 L159 470 C146 470 139 481 139 496 L139 501 C139 506 136 509 131 509 L73 509 C68 509 65 506 65 501 L65 469 C65 427 98 394 141 394 L196 394 C239 394 273 427 273 469 L273 483 C273 516 255 537 233 547 L233 547 Z " />
<glyph glyph-name="acute" unicode="&#xb4;" horiz-adv-x="331" d="M183 527 C194 527 202 536 206 545 L266 682 C266 692 259 700 248 700 L148 700 C137 700 129 691 125 682 L65 545 C65 535 73 527 83 527 L183 527 Z " />
<glyph glyph-name="mu" unicode="&#xb5;" horiz-adv-x="508" d="M65 -155 C65 -166 73 -174 84 -174 L190 -174 C201 -174 209 -166 209 -155 L209 -4 C213 -5 217 -5 222 -5 L286 -5 C382 -5 443 75 443 152 L443 496 C443 507 435 515 424 515 L318 515 C307 515 299 507 299 496 L299 158 C299 142 284 128 269 128 L239 128 C225 128 211 140 209 154 L209 496 C209 507 201 515 190 515 L84 515 C73 515 65 507 65 496 L65 -155 Z " />
<glyph glyph-name="paragraph" unicode="&#xb6;" horiz-adv-x="705" d="M248 700 C147 700 65 622 65 524 L65 436 C65 338 147 260 248 260 L288 260 L288 19 C288 8 296 0 307 0 L413 0 C424 0 432 8 432 19 L432 566 L496 566 L496 19 C496 8 504 0 515 0 L621 0 C632 0 640 8 640 19 L640 681 C640 692 632 700 621 700 L248 700 Z " />
<glyph glyph-name="periodcentered" unicode="&#xb7;" horiz-adv-x="271" d="M65 177 C65 167 73 159 83 159 L188 159 C198 159 206 167 206 177 L206 282 C206 292 198 300 188 300 L83 300 C73 300 65 292 65 282 L65 177 Z " />
<glyph glyph-name="cedilla" unicode="&#xb8;" horiz-adv-x="309" d="M142 -92 C142 -92 154 -92 154 -105 C154 -118 142 -118 142 -118 L80 -118 C72 -118 65 -124 65 -133 L65 -180 C65 -188 72 -195 80 -195 L167 -195 C227 -195 244 -168 244 -93 C244 -53 216 -29 183 -23 L201 8 C201 19 193 27 182 27 L127 27 C116 27 111 17 105 8 L82 -32 C79 -37 77 -45 77 -48 L77 -77 C77 -85 84 -92 92 -92 L142 -92 Z " />
<glyph glyph-name="onesuperior" unicode="&#xb9;" horiz-adv-x="349" d="M141 623 L141 471 L87 471 C81 471 76 466 76 460 L76 405 C76 399 81 394 87 394 L273 394 C279 394 284 399 284 405 L284 460 C284 466 279 471 273 471 L228 471 L228 689 C228 695 223 700 217 700 L140 700 L76 674 C70 672 65 666 65 660 L65 608 C65 602 70 597 76 597 L141 623 Z " />
<glyph glyph-name="ordmasculine" unicode="&#xba;" horiz-adv-x="414" d="M206 751 C129 751 65 688 65 609 C65 532 129 468 206 468 C286 468 349 532 349 609 C349 688 286 751 206 751 L206 751 Z M206 568 C184 568 165 587 165 609 C165 632 184 651 206 651 C229 651 248 632 248 609 C248 587 229 568 206 568 L206 568 Z " />
<glyph glyph-name="guillemotright" unicode="&#xbb;" horiz-adv-x="699" d="M192 265 L65 19 C65 8 73 0 84 0 L206 0 C217 0 224 9 230 19 L356 259 L356 286 L230 501 C224 511 217 520 206 520 L84 520 C73 520 65 512 65 501 L192 280 L192 265 Z M470 265 L343 19 C343 8 351 0 362 0 L484 0 C495 0 502 9 508 19 L634 259 L634 286 L508 501 C502 511 495 520 484 520 L362 520 C351 520 343 512 343 501 L470 280 L470 265 Z " />
<glyph glyph-name="onequarter" unicode="&#xbc;" horiz-adv-x="754" d="M251 0 C261 0 268 7 272 17 L611 683 C611 693 604 700 594 700 L530 700 C520 700 513 693 509 683 L170 17 C170 7 177 0 187 0 L251 0 Z M141 623 L141 471 L87 471 C81 471 76 466 76 460 L76 405 C76 399 81 394 87 394 L273 394 C279 394 284 399 284 405 L284 460 C284 466 279 471 273 471 L228 471 L228 689 C228 695 223 700 217 700 L140 700 L76 674 C70 672 65 666 65 660 L65 608 C65 602 70 597 76 597 L141 623 Z M593 295 C593 301 588 306 582 306 L522 306 C516 306 511 300 509 295 L425 97 L425 54 C425 48 430 43 436 43 L579 43 L579 11 C579 5 584 0 590 0 L655 0 C661 0 666 5 666 11 L666 43 L678 43 C684 43 689 48 689 54 L689 109 C689 115 684 120 678 120 L666 120 L666 189 C666 195 661 200 655 200 L590 200 C584 200 579 195 579 189 L579 120 L519 120 L593 295 Z " />
<glyph glyph-name="onehalf" unicode="&#xbd;" horiz-adv-x="753" d="M251 0 C261 0 268 7 272 17 L611 683 C611 693 604 700 594 700 L530 700 C520 700 513 693 509 683 L170 17 C170 7 177 0 187 0 L251 0 Z M141 623 L141 471 L87 471 C81 471 76 466 76 460 L76 405 C76 399 81 394 87 394 L273 394 C279 394 284 399 284 405 L284 460 C284 466 279 471 273 471 L228 471 L228 689 C228 695 223 700 217 700 L140 700 L76 674 C70 672 65 666 65 660 L65 608 C65 602 70 597 76 597 L141 623 Z M563 77 C563 128 686 74 686 217 L686 231 C686 273 652 306 609 306 L554 306 C511 306 478 273 478 231 L478 199 C478 194 481 191 486 191 L544 191 C549 191 552 194 552 199 L552 204 C552 219 559 230 572 230 L582 230 C595 230 601 220 601 211 L601 206 C601 137 472 198 472 67 L472 7 C472 3 475 0 479 0 L681 0 C685 0 688 3 688 7 L688 69 C688 74 685 77 681 77 L563 77 Z " />
<glyph glyph-name="threequarters" unicode="&#xbe;" horiz-adv-x="721" d="M218 0 C228 0 235 7 239 17 L578 683 C578 693 571 700 561 700 L497 700 C487 700 480 693 476 683 L137 17 C137 7 144 0 154 0 L218 0 Z M633 189 C633 195 628 200 622 200 L557 200 C551 200 546 195 546 189 L546 120 L496 120 L556 299 C556 303 553 306 549 306 L480 306 C476 306 474 303 472 299 L405 97 L405 54 C405 48 410 43 416 43 L546 43 L546 11 C546 5 551 0 557 0 L622 0 C628 0 633 5 633 11 L633 43 L645 43 C651 43 656 48 656 54 L656 109 C656 115 651 120 645 120 L633 120 L633 189 Z M233 547 C255 557 273 578 273 611 L273 625 C273 667 239 700 196 700 L141 700 C98 700 65 667 65 625 L65 593 C65 588 68 585 73 585 L131 585 C136 585 139 588 139 593 L139 598 C139 613 146 624 159 624 L169 624 C182 624 188 614 188 605 L188 599 C188 590 182 580 169 580 L152 580 C148 580 145 577 145 572 L145 522 C145 517 148 514 152 514 L169 514 C182 514 188 504 188 495 L188 489 C188 480 182 470 169 470 L159 470 C146 470 139 481 139 496 L139 501 C139 506 136 509 131 509 L73 509 C68 509 65 506 65 501 L65 469 C65 427 98 394 141 394 L196 394 C239 394 273 427 273 469 L273 483 C273 516 255 537 233 547 L233 547 Z " />
<glyph glyph-name="questiondown" unicode="&#xbf;" horiz-adv-x="577" d="M241 499 C241 356 65 482 65 220 L65 176 C65 78 147 0 248 0 L331 0 C432 0 512 78 512 176 L512 223 C512 234 504 242 493 242 L387 242 C376 242 368 234 368 223 L368 183 C368 156 347 134 323 134 L255 134 C230 134 209 156 209 183 L209 216 C209 364 379 247 385 495 L385 513 C385 524 377 532 366 532 L260 532 C249 532 241 524 241 513 L241 499 Z M387 589 C387 578 379 570 368 570 L258 570 C247 570 239 578 239 589 L239 686 C239 697 247 705 258 705 L368 705 C379 705 387 697 387 686 L387 589 Z " />
<glyph glyph-name="Agrave" unicode="&#xc0;" horiz-adv-x="585" d="M338 751 C348 751 356 759 356 769 L296 906 C292 915 284 924 273 924 L173 924 C162 924 155 916 155 906 L215 769 C219 760 227 751 238 751 L338 751 Z M217 700 C206 700 199 691 196 681 L20 19 C20 8 28 0 39 0 L145 0 C156 0 164 8 167 19 L191 115 L394 115 L418 19 C421 8 429 0 440 0 L546 0 C557 0 565 8 565 19 L389 681 C386 691 379 700 368 700 L217 700 Z M286 499 L299 499 L361 248 L224 248 L286 499 Z " />
<glyph glyph-name="Aacute" unicode="&#xc1;" horiz-adv-x="585" d="M348 751 C359 751 367 760 371 769 L431 906 C431 916 424 924 413 924 L313 924 C302 924 294 915 290 906 L230 769 C230 759 238 751 248 751 L348 751 Z M217 700 C206 700 199 691 196 681 L20 19 C20 8 28 0 39 0 L145 0 C156 0 164 8 167 19 L191 115 L394 115 L418 19 C421 8 429 0 440 0 L546 0 C557 0 565 8 565 19 L389 681 C386 691 379 700 368 700 L217 700 Z M286 499 L299 499 L361 248 L224 248 L286 499 Z " />
<glyph glyph-name="Acircumflex" unicode="&#xc2;" horiz-adv-x="585" d="M242 959 C230 959 222 955 217 944 L131 770 C131 759 139 751 150 751 L244 751 C255 751 263 760 267 770 L292 821 L317 770 C321 760 329 751 340 751 L434 751 C445 751 453 759 453 770 L367 944 C362 955 354 959 342 959 L242 959 Z M217 700 C206 700 199 691 196 681 L20 19 C20 8 28 0 39 0 L145 0 C156 0 164 8 167 19 L191 115 L394 115 L418 19 C421 8 429 0 440 0 L546 0 C557 0 565 8 565 19 L389 681 C386 691 379 700 368 700 L217 700 Z M286 499 L299 499 L361 248 L224 248 L286 499 Z " />
<glyph glyph-name="Atilde" unicode="&#xc3;" horiz-adv-x="585" d="M346 751 C373 751 400 764 426 780 C434 786 438 795 438 804 L414 882 C412 889 404 895 394 895 C391 895 387 895 384 894 C373 889 354 885 346 885 C297 885 287 922 239 922 C212 922 185 909 159 893 C151 887 147 878 147 869 L171 791 C173 784 181 778 191 778 C194 778 198 778 201 779 C212 784 231 788 239 788 C289 788 298 751 346 751 L346 751 Z M217 700 C206 700 199 691 196 681 L20 19 C20 8 28 0 39 0 L145 0 C156 0 164 8 167 19 L191 115 L394 115 L418 19 C421 8 429 0 440 0 L546 0 C557 0 565 8 565 19 L389 681 C386 691 379 700 368 700 L217 700 Z M286 499 L299 499 L361 248 L224 248 L286 499 Z " />
<glyph glyph-name="Adieresis" unicode="&#xc4;" horiz-adv-x="585" d="M138 770 C138 759 146 751 157 751 L252 751 C263 751 271 759 271 770 L271 869 C271 880 263 888 252 888 L157 888 C146 888 138 880 138 869 L138 770 Z M316 770 C316 759 324 751 335 751 L430 751 C441 751 449 759 449 770 L449 869 C449 880 441 888 430 888 L335 888 C324 888 316 880 316 869 L316 770 Z M217 700 C206 700 199 691 196 681 L20 19 C20 8 28 0 39 0 L145 0 C156 0 164 8 167 19 L191 115 L394 115 L418 19 C421 8 429 0 440 0 L546 0 C557 0 565 8 565 19 L389 681 C386 691 379 700 368 700 L217 700 Z M286 499 L299 499 L361 248 L224 248 L286 499 Z " />
<glyph glyph-name="Aring" unicode="&#xc5;" horiz-adv-x="585" d="M293 883 C216 883 152 820 152 741 C152 705 165 673 187 648 L20 19 C20 8 28 0 39 0 L145 0 C156 0 164 8 167 19 L191 115 L394 115 L418 19 C421 8 429 0 440 0 L546 0 C557 0 565 8 565 19 L398 645 C422 670 436 704 436 741 C436 820 373 883 293 883 L293 883 Z M286 499 L299 499 L361 248 L224 248 L286 499 Z M293 700 C271 700 252 719 252 741 C252 764 271 783 293 783 C316 783 335 764 335 741 C335 719 316 700 293 700 L293 700 Z " />
<glyph glyph-name="AE" unicode="&#xc6;" horiz-adv-x="850" d="M276 248 L406 548 L406 248 L276 248 Z M15 19 C15 8 23 0 34 0 L149 0 C160 0 167 9 172 19 L218 115 L406 115 L406 19 C406 8 414 0 425 0 L776 0 C787 0 795 8 795 19 L795 115 C795 126 787 134 776 134 L550 134 L550 296 L754 296 C765 296 773 304 773 315 L773 411 C773 422 765 430 754 430 L550 430 L550 566 L776 566 C787 566 795 574 795 585 L795 681 C795 692 787 700 776 700 L337 700 C323 700 317 694 311 683 L15 19 Z " />
<glyph glyph-name="Ccedilla" unicode="&#xc7;" horiz-adv-x="552" d="M284 -92 C284 -92 296 -92 296 -105 C296 -118 284 -118 284 -118 L222 -118 C214 -118 207 -124 207 -133 L207 -180 C207 -188 214 -195 222 -195 L309 -195 C369 -195 386 -168 386 -93 C386 -53 358 -29 325 -23 L335 -5 C434 -1 512 75 512 171 L512 210 C512 221 504 229 493 229 L387 229 C376 229 368 221 368 210 L368 178 C368 151 347 129 323 129 L244 129 C220 129 199 151 199 178 L199 522 C199 549 220 571 244 571 L323 571 C347 571 368 549 368 522 L368 490 C368 479 376 471 387 471 L493 471 C504 471 512 479 512 490 L512 529 C512 627 431 705 329 705 L238 705 C136 705 55 627 55 529 L55 171 C55 73 136 -5 239 -5 L224 -32 C221 -37 219 -45 219 -48 L219 -77 C219 -85 226 -92 234 -92 L284 -92 Z " />
<glyph glyph-name="Egrave" unicode="&#xc8;" horiz-adv-x="509" d="M311 751 C321 751 329 759 329 769 L269 906 C265 915 257 924 246 924 L146 924 C135 924 128 916 128 906 L188 769 C192 760 200 751 211 751 L311 751 Z M65 19 C65 8 73 0 84 0 L435 0 C446 0 454 8 454 19 L454 115 C454 126 446 134 435 134 L209 134 L209 296 L413 296 C424 296 432 304 432 315 L432 411 C432 422 424 430 413 430 L209 430 L209 566 L435 566 C446 566 454 574 454 585 L454 681 C454 692 446 700 435 700 L84 700 C73 700 65 692 65 681 L65 19 Z " />
<glyph glyph-name="Eacute" unicode="&#xc9;" horiz-adv-x="509" d="M311 751 C322 751 330 760 334 769 L394 906 C394 916 387 924 376 924 L276 924 C265 924 257 915 253 906 L193 769 C193 759 201 751 211 751 L311 751 Z M65 19 C65 8 73 0 84 0 L435 0 C446 0 454 8 454 19 L454 115 C454 126 446 134 435 134 L209 134 L209 296 L413 296 C424 296 432 304 432 315 L432 411 C432 422 424 430 413 430 L209 430 L209 566 L435 566 C446 566 454 574 454 585 L454 681 C454 692 446 700 435 700 L84 700 C73 700 65 692 65 681 L65 19 Z " />
<glyph glyph-name="Ecircumflex" unicode="&#xca;" horiz-adv-x="509" d="M211 959 C199 959 191 955 186 944 L100 770 C100 759 108 751 119 751 L213 751 C224 751 232 760 236 770 L261 821 L286 770 C290 760 298 751 309 751 L403 751 C414 751 422 759 422 770 L336 944 C331 955 323 959 311 959 L211 959 Z M65 19 C65 8 73 0 84 0 L435 0 C446 0 454 8 454 19 L454 115 C454 126 446 134 435 134 L209 134 L209 296 L413 296 C424 296 432 304 432 315 L432 411 C432 422 424 430 413 430 L209 430 L209 566 L435 566 C446 566 454 574 454 585 L454 681 C454 692 446 700 435 700 L84 700 C73 700 65 692 65 681 L65 19 Z " />
<glyph glyph-name="Edieresis" unicode="&#xcb;" horiz-adv-x="509" d="M103 770 C103 759 111 751 122 751 L217 751 C228 751 236 759 236 770 L236 869 C236 880 228 888 217 888 L122 888 C111 888 103 880 103 869 L103 770 Z M281 770 C281 759 289 751 300 751 L395 751 C406 751 414 759 414 770 L414 869 C414 880 406 888 395 888 L300 888 C289 888 281 880 281 869 L281 770 Z M65 19 C65 8 73 0 84 0 L435 0 C446 0 454 8 454 19 L454 115 C454 126 446 134 435 134 L209 134 L209 296 L413 296 C424 296 432 304 432 315 L432 411 C432 422 424 430 413 430 L209 430 L209 566 L435 566 C446 566 454 574 454 585 L454 681 C454 692 446 700 435 700 L84 700 C73 700 65 692 65 681 L65 19 Z " />
<glyph glyph-name="Igrave" unicode="&#xcc;" horiz-adv-x="274" d="M65 19 C65 8 73 0 84 0 L190 0 C201 0 209 8 209 19 L209 681 C209 692 201 700 190 700 L84 700 C73 700 65 692 65 681 L65 19 Z M188 751 C198 751 206 759 206 769 L146 906 C142 915 134 924 123 924 L23 924 C12 924 5 916 5 906 L65 769 C69 760 77 751 88 751 L188 751 Z " />
<glyph glyph-name="Iacute" unicode="&#xcd;" horiz-adv-x="274" d="M209 681 C209 692 201 700 190 700 L84 700 C73 700 65 692 65 681 L65 19 C65 8 73 0 84 0 L190 0 C201 0 209 8 209 19 L209 681 Z M186 751 C197 751 205 760 209 769 L269 906 C269 916 262 924 251 924 L151 924 C140 924 132 915 128 906 L68 769 C68 759 76 751 86 751 L186 751 Z " />
<glyph glyph-name="Icircumflex" unicode="&#xce;" horiz-adv-x="274" d="M209 681 C209 692 201 700 190 700 L84 700 C73 700 65 692 65 681 L65 19 C65 8 73 0 84 0 L190 0 C201 0 209 8 209 19 L209 681 Z M87 959 C75 959 67 955 62 944 L-24 770 C-24 759 -16 751 -5 751 L89 751 C100 751 108 760 112 770 L137 821 L162 770 C166 760 174 751 185 751 L279 751 C290 751 298 759 298 770 L212 944 C207 955 199 959 187 959 L87 959 Z " />
<glyph glyph-name="Idieresis" unicode="&#xcf;" horiz-adv-x="274" d="M209 681 C209 692 201 700 190 700 L84 700 C73 700 65 692 65 681 L65 19 C65 8 73 0 84 0 L190 0 C201 0 209 8 209 19 L209 681 Z M-23 770 C-23 759 -15 751 -4 751 L91 751 C102 751 110 759 110 770 L110 869 C110 880 102 888 91 888 L-4 888 C-15 888 -23 880 -23 869 L-23 770 Z M162 770 C162 759 170 751 181 751 L276 751 C287 751 295 759 295 770 L295 869 C295 880 287 888 276 888 L181 888 C170 888 162 880 162 869 L162 770 Z " />
<glyph glyph-name="Eth" unicode="&#xd0;" horiz-adv-x="587" d="M93 700 C82 700 74 692 74 681 L74 416 L24 416 C13 416 5 408 5 397 L5 301 C5 290 13 282 24 282 L74 282 L74 19 C74 8 82 0 93 0 L349 0 C450 0 532 78 532 176 L532 524 C532 622 450 700 349 700 L93 700 Z M279 282 C290 282 298 290 298 301 L298 397 C298 408 290 416 279 416 L218 416 L218 567 L342 567 C366 567 388 545 388 518 L388 182 C388 155 366 133 342 133 L218 133 L218 282 L279 282 Z " />
<glyph glyph-name="Ntilde" unicode="&#xd1;" horiz-adv-x="615" d="M212 700 L84 700 C73 700 65 692 65 681 L65 19 C65 8 73 0 84 0 L190 0 C201 0 209 8 209 19 L209 373 L216 373 L376 16 C381 6 387 0 402 0 L531 0 C542 0 550 8 550 19 L550 681 C550 692 542 700 531 700 L425 700 C414 700 406 692 406 681 L406 321 L399 321 L238 684 C233 694 227 700 212 700 L212 700 Z M350 751 C377 751 404 764 430 780 C438 786 442 795 442 804 L418 882 C416 889 408 895 398 895 C395 895 391 895 388 894 C377 889 358 885 350 885 C301 885 291 922 243 922 C216 922 189 909 163 893 C155 887 151 878 151 869 L175 791 C177 784 185 778 195 778 C198 778 202 778 205 779 C216 784 235 788 243 788 C293 788 302 751 350 751 L350 751 Z " />
<glyph glyph-name="Ograve" unicode="&#xd2;" horiz-adv-x="567" d="M330 751 C340 751 348 759 348 769 L288 906 C284 915 276 924 265 924 L165 924 C154 924 147 916 147 906 L207 769 C211 760 219 751 230 751 L330 751 Z M244 129 C220 129 199 151 199 178 L199 522 C199 549 220 571 244 571 L323 571 C347 571 368 549 368 522 L368 178 C368 151 347 129 323 129 L244 129 Z M329 -5 C431 -5 512 73 512 171 L512 529 C512 627 431 705 329 705 L238 705 C136 705 55 627 55 529 L55 171 C55 73 136 -5 238 -5 L329 -5 Z " />
<glyph glyph-name="Oacute" unicode="&#xd3;" horiz-adv-x="567" d="M337 751 C348 751 356 760 360 769 L420 906 C420 916 413 924 402 924 L302 924 C291 924 283 915 279 906 L219 769 C219 759 227 751 237 751 L337 751 Z M244 129 C220 129 199 151 199 178 L199 522 C199 549 220 571 244 571 L323 571 C347 571 368 549 368 522 L368 178 C368 151 347 129 323 129 L244 129 Z M329 -5 C431 -5 512 73 512 171 L512 529 C512 627 431 705 329 705 L238 705 C136 705 55 627 55 529 L55 171 C55 73 136 -5 238 -5 L329 -5 Z " />
<glyph glyph-name="Ocircumflex" unicode="&#xd4;" horiz-adv-x="567" d="M233 959 C221 959 213 955 208 944 L122 770 C122 759 130 751 141 751 L235 751 C246 751 254 760 258 770 L283 821 L308 770 C312 760 320 751 331 751 L425 751 C436 751 444 759 444 770 L358 944 C353 955 345 959 333 959 L233 959 Z M244 129 C220 129 199 151 199 178 L199 522 C199 549 220 571 244 571 L323 571 C347 571 368 549 368 522 L368 178 C368 151 347 129 323 129 L244 129 Z M329 -5 C431 -5 512 73 512 171 L512 529 C512 627 431 705 329 705 L238 705 C136 705 55 627 55 529 L55 171 C55 73 136 -5 238 -5 L329 -5 Z " />
<glyph glyph-name="Otilde" unicode="&#xd5;" horiz-adv-x="567" d="M244 129 C220 129 199 151 199 178 L199 522 C199 549 220 571 244 571 L323 571 C347 571 368 549 368 522 L368 178 C368 151 347 129 323 129 L244 129 Z M329 -5 C431 -5 512 73 512 171 L512 529 C512 627 431 705 329 705 L238 705 C136 705 55 627 55 529 L55 171 C55 73 136 -5 238 -5 L329 -5 Z M338 751 C365 751 392 764 418 780 C426 786 430 795 430 804 L406 882 C404 889 396 895 386 895 C383 895 379 895 376 894 C365 889 346 885 338 885 C289 885 279 922 231 922 C204 922 177 909 151 893 C143 887 139 878 139 869 L163 791 C165 784 173 778 183 778 C186 778 190 778 193 779 C204 784 223 788 231 788 C281 788 290 751 338 751 L338 751 Z " />
<glyph glyph-name="Odieresis" unicode="&#xd6;" horiz-adv-x="567" d="M128 770 C128 759 136 751 147 751 L242 751 C253 751 261 759 261 770 L261 869 C261 880 253 888 242 888 L147 888 C136 888 128 880 128 869 L128 770 Z M306 770 C306 759 314 751 325 751 L420 751 C431 751 439 759 439 770 L439 869 C439 880 431 888 420 888 L325 888 C314 888 306 880 306 869 L306 770 Z M244 129 C220 129 199 151 199 178 L199 522 C199 549 220 571 244 571 L323 571 C347 571 368 549 368 522 L368 178 C368 151 347 129 323 129 L244 129 Z M329 -5 C431 -5 512 73 512 171 L512 529 C512 627 431 705 329 705 L238 705 C136 705 55 627 55 529 L55 171 C55 73 136 -5 238 -5 L329 -5 Z " />
<glyph glyph-name="multiply" unicode="&#xd7;" horiz-adv-x="438" d="M219 97 L281 34 C286 30 290 29 294 29 C298 29 303 30 306 34 L368 96 C372 99 373 104 373 108 C373 112 372 116 368 121 L305 184 L368 248 C371 251 373 256 373 260 C373 264 371 268 368 272 L307 334 C303 337 299 339 295 339 C291 339 286 337 282 334 L219 269 L156 334 C152 337 147 339 143 339 C139 339 135 337 131 334 L70 272 C67 268 65 264 65 260 C65 256 67 251 70 248 L133 184 L70 121 C66 116 65 112 65 108 C65 104 66 99 70 96 L132 34 C135 30 140 29 144 29 C148 29 152 30 157 34 L219 97 Z " />
<glyph glyph-name="Oslash" unicode="&#xd8;" horiz-adv-x="567" d="M86 -72 C86 -83 94 -91 105 -91 L193 -91 C204 -91 212 -83 215 -72 L236 -5 L329 -5 C431 -5 512 73 512 171 L512 529 C512 582 488 629 450 661 C461 698 473 734 485 772 C485 783 477 791 466 791 L378 791 C367 791 359 783 356 772 L334 705 L238 705 C136 705 55 627 55 529 L55 171 C55 116 80 67 120 35 L86 -72 Z M199 522 C199 549 220 571 244 571 L291 571 L199 281 L199 522 Z M323 129 L279 129 C310 223 338 314 368 405 L368 178 C368 151 347 129 323 129 L323 129 Z " />
<glyph glyph-name="Ugrave" unicode="&#xd9;" horiz-adv-x="577" d="M335 751 C345 751 353 759 353 769 L293 906 C289 915 281 924 270 924 L170 924 C159 924 152 916 152 906 L212 769 C216 760 224 751 235 751 L335 751 Z M517 681 C517 692 509 700 498 700 L392 700 C381 700 373 692 373 681 L373 178 C373 151 352 129 328 129 L249 129 C225 129 204 151 204 178 L204 681 C204 692 196 700 185 700 L79 700 C68 700 60 692 60 681 L60 171 C60 73 141 -5 243 -5 L334 -5 C436 -5 517 73 517 171 L517 681 Z " />
<glyph glyph-name="Uacute" unicode="&#xda;" horiz-adv-x="577" d="M342 751 C353 751 361 760 365 769 L425 906 C425 916 418 924 407 924 L307 924 C296 924 288 915 284 906 L224 769 C224 759 232 751 242 751 L342 751 Z M517 681 C517 692 509 700 498 700 L392 700 C381 700 373 692 373 681 L373 178 C373 151 352 129 328 129 L249 129 C225 129 204 151 204 178 L204 681 C204 692 196 700 185 700 L79 700 C68 700 60 692 60 681 L60 171 C60 73 141 -5 243 -5 L334 -5 C436 -5 517 73 517 171 L517 681 Z " />
<glyph glyph-name="Ucircumflex" unicode="&#xdb;" horiz-adv-x="577" d="M238 949 C226 949 218 945 213 934 L127 760 C127 749 135 741 146 741 L240 741 C251 741 259 750 263 760 L288 811 L313 760 C317 750 325 741 336 741 L430 741 C441 741 449 749 449 760 L363 934 C358 945 350 949 338 949 L238 949 Z M517 681 C517 692 509 700 498 700 L392 700 C381 700 373 692 373 681 L373 178 C373 151 352 129 328 129 L249 129 C225 129 204 151 204 178 L204 681 C204 692 196 700 185 700 L79 700 C68 700 60 692 60 681 L60 171 C60 73 141 -5 243 -5 L334 -5 C436 -5 517 73 517 171 L517 681 Z " />
<glyph glyph-name="Udieresis" unicode="&#xdc;" horiz-adv-x="577" d="M133 770 C133 759 141 751 152 751 L247 751 C258 751 266 759 266 770 L266 869 C266 880 258 888 247 888 L152 888 C141 888 133 880 133 869 L133 770 Z M311 770 C311 759 319 751 330 751 L425 751 C436 751 444 759 444 770 L444 869 C444 880 436 888 425 888 L330 888 C319 888 311 880 311 869 L311 770 Z M517 681 C517 692 509 700 498 700 L392 700 C381 700 373 692 373 681 L373 178 C373 151 352 129 328 129 L249 129 C225 129 204 151 204 178 L204 681 C204 692 196 700 185 700 L79 700 C68 700 60 692 60 681 L60 171 C60 73 141 -5 243 -5 L334 -5 C436 -5 517 73 517 171 L517 681 Z " />
<glyph glyph-name="Yacute" unicode="&#xdd;" horiz-adv-x="570" d="M340 751 C351 751 359 760 363 769 L423 906 C423 916 416 924 405 924 L305 924 C294 924 286 915 282 906 L222 769 C222 759 230 751 240 751 L340 751 Z M357 226 L555 681 C555 692 547 700 536 700 L433 700 C422 700 415 691 410 681 L290 406 L280 406 L160 681 C155 691 148 700 137 700 L34 700 C23 700 15 692 15 681 L213 226 L213 19 C213 8 221 0 232 0 L338 0 C349 0 357 8 357 19 L357 226 Z " />
<glyph glyph-name="Thorn" unicode="&#xde;" horiz-adv-x="557" d="M209 232 L209 468 L322 468 C347 468 368 446 368 419 L368 281 C368 254 347 232 322 232 L209 232 Z M209 602 L209 683 C209 694 201 702 190 702 L84 702 C73 702 65 694 65 683 L65 19 C65 8 73 0 84 0 L190 0 C201 0 209 8 209 19 L209 98 L329 98 C430 98 512 176 512 274 L512 426 C512 524 430 602 329 602 L209 602 Z " />
<glyph glyph-name="germandbls" unicode="&#xdf;" horiz-adv-x="550" d="M325 283 C350 283 371 261 371 234 L371 182 C371 155 350 133 325 133 L285 133 C274 133 266 125 266 114 L266 19 C266 8 274 0 285 0 L332 0 C433 0 515 78 515 176 L515 238 C515 289 484 333 448 366 C467 393 487 425 487 462 L487 524 C487 622 405 700 304 700 L84 700 C73 700 65 692 65 681 L65 19 C65 8 73 0 84 0 L190 0 C201 0 209 8 209 19 L209 567 L297 567 C321 567 343 545 343 518 L343 465 C343 438 321 416 297 416 L272 416 C261 416 253 408 253 397 L253 302 C253 291 261 283 272 283 L325 283 Z " />
<glyph glyph-name="agrave" unicode="&#xe0;" horiz-adv-x="474" d="M315 571 C325 571 333 579 333 589 L273 726 C269 735 261 744 250 744 L150 744 C139 744 132 736 132 726 L192 589 C196 580 204 571 215 571 L315 571 Z M124 373 C156 382 177 387 215 387 C274 387 280 348 280 326 L280 319 L205 319 C111 319 45 270 45 179 L45 139 C45 48 88 -5 182 -5 L197 -5 C211 -5 260 -2 271 31 L280 31 L280 19 C280 8 288 0 299 0 L405 0 C416 0 424 8 424 19 L424 327 C424 374 416 520 244 520 C161 520 114 506 94 499 C85 496 79 490 79 481 C79 479 79 469 100 387 C103 376 110 372 115 372 C117 372 121 372 124 373 L124 373 Z M189 171 C189 188 204 201 219 201 L280 201 L280 158 C280 142 264 128 249 128 L219 128 C204 128 189 142 189 158 L189 171 Z " />
<glyph glyph-name="aacute" unicode="&#xe1;" horiz-adv-x="474" d="M305 571 C316 571 324 580 328 589 L388 726 C388 736 381 744 370 744 L270 744 C259 744 251 735 247 726 L187 589 C187 579 195 571 205 571 L305 571 Z M124 373 C156 382 177 387 215 387 C274 387 280 348 280 326 L280 319 L205 319 C111 319 45 270 45 179 L45 139 C45 48 88 -5 182 -5 L197 -5 C211 -5 260 -2 271 31 L280 31 L280 19 C280 8 288 0 299 0 L405 0 C416 0 424 8 424 19 L424 327 C424 374 416 520 244 520 C161 520 114 506 94 499 C85 496 79 490 79 481 C79 479 79 469 100 387 C103 376 110 372 115 372 C117 372 121 372 124 373 L124 373 Z M189 171 C189 188 204 201 219 201 L280 201 L280 158 C280 142 264 128 249 128 L219 128 C204 128 189 142 189 158 L189 171 Z " />
<glyph glyph-name="acircumflex" unicode="&#xe2;" horiz-adv-x="474" d="M203 779 C191 779 183 775 178 764 L92 590 C92 579 100 571 111 571 L205 571 C216 571 224 580 228 590 L253 641 L278 590 C282 580 290 571 301 571 L395 571 C406 571 414 579 414 590 L328 764 C323 775 315 779 303 779 L203 779 Z M124 373 C156 382 177 387 215 387 C274 387 280 348 280 326 L280 319 L205 319 C111 319 45 270 45 179 L45 139 C45 48 88 -5 182 -5 L197 -5 C211 -5 260 -2 271 31 L280 31 L280 19 C280 8 288 0 299 0 L405 0 C416 0 424 8 424 19 L424 327 C424 374 416 520 244 520 C161 520 114 506 94 499 C85 496 79 490 79 481 C79 479 79 469 100 387 C103 376 110 372 115 372 C117 372 121 372 124 373 L124 373 Z M189 171 C189 188 204 201 219 201 L280 201 L280 158 C280 142 264 128 249 128 L219 128 C204 128 189 142 189 158 L189 171 Z " />
<glyph glyph-name="atilde" unicode="&#xe3;" horiz-adv-x="474" d="M124 373 C156 382 177 387 215 387 C274 387 280 348 280 326 L280 319 L205 319 C111 319 45 270 45 179 L45 139 C45 48 88 -5 182 -5 L197 -5 C211 -5 260 -2 271 31 L280 31 L280 19 C280 8 288 0 299 0 L405 0 C416 0 424 8 424 19 L424 327 C424 374 416 520 244 520 C161 520 114 506 94 499 C85 496 79 490 79 481 C79 479 79 469 100 387 C103 376 110 372 115 372 C117 372 121 372 124 373 L124 373 Z M189 171 C189 188 204 201 219 201 L280 201 L280 158 C280 142 264 128 249 128 L219 128 C204 128 189 142 189 158 L189 171 Z M309 571 C336 571 363 584 389 600 C397 606 401 615 401 624 L377 702 C375 709 367 715 357 715 C354 715 350 715 347 714 C336 709 317 705 309 705 C260 705 250 742 202 742 C175 742 148 729 122 713 C114 707 110 698 110 689 L134 611 C136 604 144 598 154 598 C157 598 161 598 164 599 C175 604 194 608 202 608 C252 608 261 571 309 571 L309 571 Z " />
<glyph glyph-name="adieresis" unicode="&#xe4;" horiz-adv-x="474" d="M93 590 C93 579 101 571 112 571 L207 571 C218 571 226 579 226 590 L226 689 C226 700 218 708 207 708 L112 708 C101 708 93 700 93 689 L93 590 Z M271 590 C271 579 279 571 290 571 L385 571 C396 571 404 579 404 590 L404 689 C404 700 396 708 385 708 L290 708 C279 708 271 700 271 689 L271 590 Z M124 373 C156 382 177 387 215 387 C274 387 280 348 280 326 L280 319 L205 319 C111 319 45 270 45 179 L45 139 C45 48 88 -5 182 -5 L197 -5 C211 -5 260 -2 271 31 L280 31 L280 19 C280 8 288 0 299 0 L405 0 C416 0 424 8 424 19 L424 327 C424 374 416 520 244 520 C161 520 114 506 94 499 C85 496 79 490 79 481 C79 479 79 469 100 387 C103 376 110 372 115 372 C117 372 121 372 124 373 L124 373 Z M189 171 C189 188 204 201 219 201 L280 201 L280 158 C280 142 264 128 249 128 L219 128 C204 128 189 142 189 158 L189 171 Z " />
<glyph glyph-name="aring" unicode="&#xe5;" horiz-adv-x="474" d="M251 854 C174 854 110 791 110 712 C110 635 174 571 251 571 C331 571 394 635 394 712 C394 791 331 854 251 854 L251 854 Z M251 671 C229 671 210 690 210 712 C210 735 229 754 251 754 C274 754 293 735 293 712 C293 690 274 671 251 671 L251 671 Z M124 373 C156 382 177 387 215 387 C274 387 280 348 280 326 L280 319 L205 319 C111 319 45 270 45 179 L45 139 C45 48 88 -5 182 -5 L197 -5 C211 -5 260 -2 271 31 L280 31 L280 19 C280 8 288 0 299 0 L405 0 C416 0 424 8 424 19 L424 327 C424 374 416 520 244 520 C161 520 114 506 94 499 C85 496 79 490 79 481 C79 479 79 469 100 387 C103 376 110 372 115 372 C117 372 121 372 124 373 L124 373 Z M189 171 C189 188 204 201 219 201 L280 201 L280 158 C280 142 264 128 249 128 L219 128 C204 128 189 142 189 158 L189 171 Z " />
<glyph glyph-name="ae" unicode="&#xe6;" horiz-adv-x="706" d="M646 74 C648 77 649 82 649 85 C649 91 647 95 641 100 L574 155 C571 157 566 158 563 158 C556 158 551 155 547 150 C537 141 522 128 495 128 L454 128 C439 128 424 142 424 158 L424 195 L642 195 C653 195 661 203 661 214 L661 362 C661 440 601 520 504 520 L437 520 C403 520 373 510 349 493 C324 509 290 520 244 520 C161 520 114 506 94 499 C85 496 79 490 79 481 C79 479 79 469 100 387 C103 376 110 372 115 372 C117 372 121 372 124 373 C156 382 177 387 215 387 C274 387 280 348 280 326 L280 319 L205 319 C111 319 45 270 45 179 L45 139 C45 48 88 -5 182 -5 L228 -5 C253 -5 306 4 335 24 L345 24 C370 6 401 -5 437 -5 L495 -5 C495 -5 597 -4 646 74 L646 74 Z M424 357 C424 373 439 387 454 387 L487 387 C502 387 518 373 518 357 L518 315 L424 315 L424 357 Z M189 171 C189 188 204 201 219 201 L280 201 L280 158 C280 142 264 128 249 128 L219 128 C204 128 189 142 189 158 L189 171 Z " />
<glyph glyph-name="ccedilla" unicode="&#xe7;" horiz-adv-x="459" d="M235 -92 C235 -92 247 -92 247 -105 C247 -118 235 -118 235 -118 L173 -118 C165 -118 158 -124 158 -133 L158 -180 C158 -188 165 -195 173 -195 L260 -195 C320 -195 337 -168 337 -93 C337 -53 309 -29 276 -23 L287 -4 C375 3 429 79 429 152 L429 173 C429 184 421 192 410 192 L304 192 C293 192 285 184 285 173 L285 158 C285 142 269 128 254 128 L224 128 C209 128 194 142 194 158 L194 357 C194 373 209 387 224 387 L254 387 C269 387 285 373 285 357 L285 342 C285 331 293 323 304 323 L410 323 C421 323 429 331 429 342 L429 362 C429 440 369 520 272 520 L207 520 C111 520 50 440 50 362 L50 152 C50 79 104 4 191 -4 L175 -32 C172 -37 170 -45 170 -48 L170 -77 C170 -85 177 -92 185 -92 L235 -92 Z " />
<glyph glyph-name="egrave" unicode="&#xe8;" horiz-adv-x="476" d="M288 571 C298 571 306 579 306 589 L246 726 C242 735 234 744 223 744 L123 744 C112 744 105 736 105 726 L165 589 C169 580 177 571 188 571 L288 571 Z M194 357 C194 373 209 387 224 387 L257 387 C272 387 288 373 288 357 L288 315 L194 315 L194 357 Z M416 74 C418 77 419 82 419 85 C419 91 417 95 411 100 L344 155 C341 157 336 158 333 158 C326 158 321 155 317 150 C307 141 292 128 265 128 L224 128 C209 128 194 142 194 158 L194 195 L412 195 C423 195 431 203 431 214 L431 362 C431 440 371 520 274 520 L207 520 C111 520 50 440 50 362 L50 152 C50 75 111 -5 207 -5 L265 -5 C265 -5 367 -4 416 74 L416 74 Z " />
<glyph glyph-name="eacute" unicode="&#xe9;" horiz-adv-x="476" d="M284 571 C295 571 303 580 307 589 L367 726 C367 736 360 744 349 744 L249 744 C238 744 230 735 226 726 L166 589 C166 579 174 571 184 571 L284 571 Z M194 357 C194 373 209 387 224 387 L257 387 C272 387 288 373 288 357 L288 315 L194 315 L194 357 Z M416 74 C418 77 419 82 419 85 C419 91 417 95 411 100 L344 155 C341 157 336 158 333 158 C326 158 321 155 317 150 C307 141 292 128 265 128 L224 128 C209 128 194 142 194 158 L194 195 L412 195 C423 195 431 203 431 214 L431 362 C431 440 371 520 274 520 L207 520 C111 520 50 440 50 362 L50 152 C50 75 111 -5 207 -5 L265 -5 C265 -5 367 -4 416 74 L416 74 Z " />
<glyph glyph-name="ecircumflex" unicode="&#xea;" horiz-adv-x="476" d="M191 779 C179 779 171 775 166 764 L80 590 C80 579 88 571 99 571 L193 571 C204 571 212 580 216 590 L241 641 L266 590 C270 580 278 571 289 571 L383 571 C394 571 402 579 402 590 L316 764 C311 775 303 779 291 779 L191 779 Z M194 357 C194 373 209 387 224 387 L257 387 C272 387 288 373 288 357 L288 315 L194 315 L194 357 Z M416 74 C418 77 419 82 419 85 C419 91 417 95 411 100 L344 155 C341 157 336 158 333 158 C326 158 321 155 317 150 C307 141 292 128 265 128 L224 128 C209 128 194 142 194 158 L194 195 L412 195 C423 195 431 203 431 214 L431 362 C431 440 371 520 274 520 L207 520 C111 520 50 440 50 362 L50 152 C50 75 111 -5 207 -5 L265 -5 C265 -5 367 -4 416 74 L416 74 Z " />
<glyph glyph-name="edieresis" unicode="&#xeb;" horiz-adv-x="476" d="M86 590 C86 579 94 571 105 571 L200 571 C211 571 219 579 219 590 L219 689 C219 700 211 708 200 708 L105 708 C94 708 86 700 86 689 L86 590 Z M264 590 C264 579 272 571 283 571 L378 571 C389 571 397 579 397 590 L397 689 C397 700 389 708 378 708 L283 708 C272 708 264 700 264 689 L264 590 Z M194 357 C194 373 209 387 224 387 L257 387 C272 387 288 373 288 357 L288 315 L194 315 L194 357 Z M416 74 C418 77 419 82 419 85 C419 91 417 95 411 100 L344 155 C341 157 336 158 333 158 C326 158 321 155 317 150 C307 141 292 128 265 128 L224 128 C209 128 194 142 194 158 L194 195 L412 195 C423 195 431 203 431 214 L431 362 C431 440 371 520 274 520 L207 520 C111 520 50 440 50 362 L50 152 C50 75 111 -5 207 -5 L265 -5 C265 -5 367 -4 416 74 L416 74 Z " />
<glyph glyph-name="igrave" unicode="&#xec;" horiz-adv-x="274" d="M65 19 C65 8 73 0 84 0 L190 0 C201 0 209 8 209 19 L209 496 C209 507 201 515 190 515 L84 515 C73 515 65 507 65 496 L65 19 Z M188 571 C198 571 206 579 206 589 L146 726 C142 735 134 744 123 744 L23 744 C12 744 5 736 5 726 L65 589 C69 580 77 571 88 571 L188 571 Z " />
<glyph glyph-name="iacute" unicode="&#xed;" horiz-adv-x="274" d="M209 496 C209 507 201 515 190 515 L84 515 C73 515 65 507 65 496 L65 19 C65 8 73 0 84 0 L190 0 C201 0 209 8 209 19 L209 496 Z M186 571 C197 571 205 580 209 589 L269 726 C269 736 262 744 251 744 L151 744 C140 744 132 735 128 726 L68 589 C68 579 76 571 86 571 L186 571 Z " />
<glyph glyph-name="icircumflex" unicode="&#xee;" horiz-adv-x="274" d="M209 496 C209 507 201 515 190 515 L84 515 C73 515 65 507 65 496 L65 19 C65 8 73 0 84 0 L190 0 C201 0 209 8 209 19 L209 496 Z M87 779 C75 779 67 775 62 764 L-24 590 C-24 579 -16 571 -5 571 L89 571 C100 571 108 580 112 590 L137 641 L162 590 C166 580 174 571 185 571 L279 571 C290 571 298 579 298 590 L212 764 C207 775 199 779 187 779 L87 779 Z " />
<glyph glyph-name="idieresis" unicode="&#xef;" horiz-adv-x="274" d="M209 496 C209 507 201 515 190 515 L84 515 C73 515 65 507 65 496 L65 19 C65 8 73 0 84 0 L190 0 C201 0 209 8 209 19 L209 496 Z M-23 590 C-23 579 -15 571 -4 571 L91 571 C102 571 110 579 110 590 L110 689 C110 700 102 708 91 708 L-4 708 C-15 708 -23 700 -23 689 L-23 590 Z M162 590 C162 579 170 571 181 571 L276 571 C287 571 295 579 295 590 L295 689 C295 700 287 708 276 708 L181 708 C170 708 162 700 162 689 L162 590 Z " />
<glyph glyph-name="eth" unicode="&#xf0;" horiz-adv-x="557" d="M245 129 C220 129 199 151 199 178 L199 258 C199 286 220 307 245 307 L323 307 C347 307 368 286 368 258 L368 178 C368 151 347 129 323 129 L245 129 Z M359 619 L405 681 C405 692 397 700 386 700 L281 700 C270 700 262 690 255 681 L208 619 L87 619 C76 619 68 611 68 600 L68 515 C68 504 76 496 87 496 L119 496 L63 419 C58 409 55 398 55 384 L55 171 C55 73 137 -5 238 -5 L330 -5 C431 -5 512 73 512 171 L512 265 C512 363 431 441 330 441 L244 441 C238 441 231 440 224 438 L268 496 L405 496 C416 496 424 504 424 515 L424 600 C424 611 416 619 405 619 L359 619 Z " />
<glyph glyph-name="ntilde" unicode="&#xf1;" horiz-adv-x="509" d="M454 361 C449 451 422 520 328 520 L314 520 C293 520 251 513 218 470 L209 470 L209 496 C209 507 201 515 190 515 L84 515 C73 515 65 507 65 496 L65 19 C65 8 73 0 84 0 L190 0 C201 0 209 8 209 19 L209 339 C223 383 246 387 261 387 L277 387 C295 387 310 373 310 352 L310 19 C310 8 318 0 329 0 L435 0 C446 0 454 8 454 19 L454 361 Z M311 571 C338 571 365 584 391 600 C399 606 403 615 403 624 L379 702 C377 709 369 715 359 715 C356 715 352 715 349 714 C338 709 319 705 311 705 C262 705 252 742 204 742 C177 742 150 729 124 713 C116 707 112 698 112 689 L136 611 C138 604 146 598 156 598 C159 598 163 598 166 599 C177 604 196 608 204 608 C254 608 263 571 311 571 L311 571 Z " />
<glyph glyph-name="ograve" unicode="&#xf2;" horiz-adv-x="481" d="M288 571 C298 571 306 579 306 589 L246 726 C242 735 234 744 223 744 L123 744 C112 744 105 736 105 726 L165 589 C169 580 177 571 188 571 L288 571 Z M207 520 C111 520 50 440 50 362 L50 152 C50 75 111 -5 207 -5 L274 -5 C370 -5 431 75 431 152 L431 362 C431 440 370 520 274 520 L207 520 Z M257 387 C272 387 287 373 287 357 L287 158 C287 142 272 128 257 128 L224 128 C209 128 194 142 194 158 L194 357 C194 373 209 387 224 387 L257 387 Z " />
<glyph glyph-name="oacute" unicode="&#xf3;" horiz-adv-x="481" d="M289 571 C300 571 308 580 312 589 L372 726 C372 736 365 744 354 744 L254 744 C243 744 235 735 231 726 L171 589 C171 579 179 571 189 571 L289 571 Z M207 520 C111 520 50 440 50 362 L50 152 C50 75 111 -5 207 -5 L274 -5 C370 -5 431 75 431 152 L431 362 C431 440 370 520 274 520 L207 520 Z M257 387 C272 387 287 373 287 357 L287 158 C287 142 272 128 257 128 L224 128 C209 128 194 142 194 158 L194 357 C194 373 209 387 224 387 L257 387 Z " />
<glyph glyph-name="ocircumflex" unicode="&#xf4;" horiz-adv-x="481" d="M190 779 C178 779 170 775 165 764 L79 590 C79 579 87 571 98 571 L192 571 C203 571 211 580 215 590 L240 641 L265 590 C269 580 277 571 288 571 L382 571 C393 571 401 579 401 590 L315 764 C310 775 302 779 290 779 L190 779 Z M207 520 C111 520 50 440 50 362 L50 152 C50 75 111 -5 207 -5 L274 -5 C370 -5 431 75 431 152 L431 362 C431 440 370 520 274 520 L207 520 Z M257 387 C272 387 287 373 287 357 L287 158 C287 142 272 128 257 128 L224 128 C209 128 194 142 194 158 L194 357 C194 373 209 387 224 387 L257 387 Z " />
<glyph glyph-name="otilde" unicode="&#xf5;" horiz-adv-x="481" d="M207 520 C111 520 50 440 50 362 L50 152 C50 75 111 -5 207 -5 L274 -5 C370 -5 431 75 431 152 L431 362 C431 440 370 520 274 520 L207 520 Z M257 387 C272 387 287 373 287 357 L287 158 C287 142 272 128 257 128 L224 128 C209 128 194 142 194 158 L194 357 C194 373 209 387 224 387 L257 387 Z M296 571 C323 571 350 584 376 600 C384 606 388 615 388 624 L364 702 C362 709 354 715 344 715 C341 715 337 715 334 714 C323 709 304 705 296 705 C247 705 237 742 189 742 C162 742 135 729 109 713 C101 707 97 698 97 689 L121 611 C123 604 131 598 141 598 C144 598 148 598 151 599 C162 604 181 608 189 608 C239 608 248 571 296 571 L296 571 Z " />
<glyph glyph-name="odieresis" unicode="&#xf6;" horiz-adv-x="481" d="M84 590 C84 579 92 571 103 571 L198 571 C209 571 217 579 217 590 L217 689 C217 700 209 708 198 708 L103 708 C92 708 84 700 84 689 L84 590 Z M262 590 C262 579 270 571 281 571 L376 571 C387 571 395 579 395 590 L395 689 C395 700 387 708 376 708 L281 708 C270 708 262 700 262 689 L262 590 Z M207 520 C111 520 50 440 50 362 L50 152 C50 75 111 -5 207 -5 L274 -5 C370 -5 431 75 431 152 L431 362 C431 440 370 520 274 520 L207 520 Z M257 387 C272 387 287 373 287 357 L287 158 C287 142 272 128 257 128 L224 128 C209 128 194 142 194 158 L194 357 C194 373 209 387 224 387 L257 387 Z " />
<glyph glyph-name="divide" unicode="&#xf7;" horiz-adv-x="433" d="M349 147 C360 147 368 155 368 166 L368 249 C368 260 360 268 349 268 L84 268 C73 268 65 260 65 249 L65 166 C65 155 73 147 84 147 L349 147 Z M156 10 C156 2 163 -5 171 -5 L262 -5 C270 -5 277 2 277 10 L277 101 C277 109 270 116 262 116 L171 116 C163 116 156 109 156 101 L156 10 Z M156 314 C156 306 163 299 171 299 L262 299 C270 299 277 306 277 314 L277 405 C277 413 270 420 262 420 L171 420 C163 420 156 413 156 405 L156 314 Z " />
<glyph glyph-name="oslash" unicode="&#xf8;" horiz-adv-x="481" d="M95 -72 C95 -83 103 -91 114 -91 L163 -91 C174 -91 182 -83 185 -72 L206 -5 L274 -5 C370 -5 431 75 431 152 L431 362 C431 411 406 462 364 492 L394 587 C394 598 386 606 375 606 L326 606 C315 606 307 598 304 587 L282 520 L207 520 C111 520 50 440 50 362 L50 152 C50 100 77 48 123 18 L95 -72 Z M194 357 C194 373 209 387 224 387 L240 387 L194 240 L194 357 Z M257 128 L248 128 L287 250 L287 158 C287 142 272 128 257 128 L257 128 Z " />
<glyph glyph-name="ugrave" unicode="&#xf9;" horiz-adv-x="488" d="M291 571 C301 571 309 579 309 589 L249 726 C245 735 237 744 226 744 L126 744 C115 744 108 736 108 726 L168 589 C172 580 180 571 191 571 L291 571 Z M276 -5 C372 -5 433 75 433 152 L433 496 C433 507 425 515 414 515 L308 515 C297 515 289 507 289 496 L289 158 C289 142 274 128 259 128 L229 128 C214 128 199 142 199 158 L199 496 C199 507 191 515 180 515 L74 515 C63 515 55 507 55 496 L55 152 C55 75 116 -5 212 -5 L276 -5 Z " />
<glyph glyph-name="uacute" unicode="&#xfa;" horiz-adv-x="488" d="M303 571 C314 571 322 580 326 589 L386 726 C386 736 379 744 368 744 L268 744 C257 744 249 735 245 726 L185 589 C185 579 193 571 203 571 L303 571 Z M276 -5 C372 -5 433 75 433 152 L433 496 C433 507 425 515 414 515 L308 515 C297 515 289 507 289 496 L289 158 C289 142 274 128 259 128 L229 128 C214 128 199 142 199 158 L199 496 C199 507 191 515 180 515 L74 515 C63 515 55 507 55 496 L55 152 C55 75 116 -5 212 -5 L276 -5 Z " />
<glyph glyph-name="ucircumflex" unicode="&#xfb;" horiz-adv-x="488" d="M194 779 C182 779 174 775 169 764 L83 590 C83 579 91 571 102 571 L196 571 C207 571 215 580 219 590 L244 641 L269 590 C273 580 281 571 292 571 L386 571 C397 571 405 579 405 590 L319 764 C314 775 306 779 294 779 L194 779 Z M276 -5 C372 -5 433 75 433 152 L433 496 C433 507 425 515 414 515 L308 515 C297 515 289 507 289 496 L289 158 C289 142 274 128 259 128 L229 128 C214 128 199 142 199 158 L199 496 C199 507 191 515 180 515 L74 515 C63 515 55 507 55 496 L55 152 C55 75 116 -5 212 -5 L276 -5 Z " />
<glyph glyph-name="udieresis" unicode="&#xfc;" horiz-adv-x="488" d="M197 550 C211 550 222 560 222 575 L222 665 C222 680 211 690 197 690 L107 690 C92 690 82 680 82 665 L82 575 C82 560 92 550 107 550 L197 550 Z M380 550 C394 550 405 560 405 575 L405 665 C405 680 394 690 380 690 L290 690 C275 690 265 680 265 665 L265 575 C265 560 275 550 290 550 L380 550 Z M276 -5 C372 -5 433 75 433 152 L433 496 C433 507 425 515 414 515 L308 515 C297 515 289 507 289 496 L289 158 C289 142 274 128 259 128 L229 128 C214 128 199 142 199 158 L199 496 C199 507 191 515 180 515 L74 515 C63 515 55 507 55 496 L55 152 C55 75 116 -5 212 -5 L276 -5 Z " />
<glyph glyph-name="yacute" unicode="&#xfd;" horiz-adv-x="461" d="M287 571 C298 571 306 580 310 589 L370 726 C370 736 363 744 352 744 L252 744 C241 744 233 735 229 726 L169 589 C169 579 177 571 187 571 L287 571 Z M147 -21 C142 -46 126 -72 95 -72 L53 -72 C42 -72 34 -80 34 -91 L34 -184 C34 -195 42 -203 53 -203 L136 -203 C160 -203 271 -181 316 -12 L451 496 C451 507 443 515 432 515 L324 515 C313 515 305 507 302 496 L237 205 L224 205 L159 496 C156 507 148 515 137 515 L29 515 C18 515 10 507 10 496 L147 -21 Z " />
<glyph glyph-name="thorn" unicode="&#xfe;" horiz-adv-x="504" d="M459 362 C459 451 416 520 322 520 L290 520 C273 520 241 513 219 484 L209 484 L209 681 C209 692 201 700 190 700 L84 700 C73 700 65 692 65 681 L65 -155 C65 -166 73 -174 84 -174 L190 -174 C201 -174 209 -166 209 -155 L209 31 L219 31 C241 2 273 -5 290 -5 L322 -5 C416 -5 459 64 459 153 L459 362 Z M209 357 C209 373 224 387 239 387 L284 387 C300 387 315 373 315 357 L315 158 C315 142 300 128 284 128 L239 128 C224 128 209 142 209 158 L209 357 Z " />
<glyph glyph-name="ydieresis" unicode="&#xff;" horiz-adv-x="461" d="M185 571 C199 571 210 581 210 596 L210 686 C210 701 199 711 185 711 L95 711 C80 711 70 701 70 686 L70 596 C70 581 80 571 95 571 L185 571 Z M368 571 C382 571 393 581 393 596 L393 686 C393 701 382 711 368 711 L278 711 C263 711 253 701 253 686 L253 596 C253 581 263 571 278 571 L368 571 Z M147 -21 C142 -46 126 -72 95 -72 L53 -72 C42 -72 34 -80 34 -91 L34 -184 C34 -195 42 -203 53 -203 L136 -203 C160 -203 271 -181 316 -12 L451 496 C451 507 443 515 432 515 L324 515 C313 515 305 507 302 496 L237 205 L224 205 L159 496 C156 507 148 515 137 515 L29 515 C18 515 10 507 10 496 L147 -21 Z " />
<glyph glyph-name="Amacron" unicode="&#x100;" horiz-adv-x="585" d="M426 751 C437 751 445 759 445 770 L445 854 C445 865 437 873 426 873 L160 873 C149 873 141 865 141 854 L141 770 C141 759 149 751 160 751 L426 751 Z M217 700 C206 700 199 691 196 681 L20 19 C20 8 28 0 39 0 L145 0 C156 0 164 8 167 19 L191 115 L394 115 L418 19 C421 8 429 0 440 0 L546 0 C557 0 565 8 565 19 L389 681 C386 691 379 700 368 700 L217 700 Z M286 499 L299 499 L361 248 L224 248 L286 499 Z " />
<glyph glyph-name="amacron" unicode="&#x101;" horiz-adv-x="474" d="M124 373 C156 382 177 387 215 387 C274 387 280 348 280 326 L280 319 L205 319 C111 319 45 270 45 179 L45 139 C45 48 88 -5 182 -5 L197 -5 C211 -5 260 -2 271 31 L280 31 L280 19 C280 8 288 0 299 0 L405 0 C416 0 424 8 424 19 L424 327 C424 374 416 520 244 520 C161 520 114 506 94 499 C85 496 79 490 79 481 C79 479 79 469 100 387 C103 376 110 372 115 372 C117 372 121 372 124 373 L124 373 Z M189 171 C189 188 204 201 219 201 L280 201 L280 158 C280 142 264 128 249 128 L219 128 C204 128 189 142 189 158 L189 171 Z M384 571 C395 571 403 579 403 590 L403 674 C403 685 395 693 384 693 L129 693 C118 693 110 685 110 674 L110 590 C110 579 118 571 129 571 L384 571 Z " />
<glyph glyph-name="Abreve" unicode="&#x102;" horiz-adv-x="585" d="M217 700 C206 700 199 691 196 681 L20 19 C20 8 28 0 39 0 L145 0 C156 0 164 8 167 19 L191 115 L394 115 L418 19 C421 8 429 0 440 0 L546 0 C557 0 565 8 565 19 L389 681 C386 691 379 700 368 700 L217 700 Z M286 499 L299 499 L361 248 L224 248 L286 499 Z M292 751 C393 751 447 797 458 909 C458 919 451 926 441 926 L355 926 C345 926 337 919 333 909 C326 875 312 870 292 870 C272 870 258 875 251 909 C247 919 239 926 229 926 L143 926 C133 926 126 919 126 909 C137 797 191 751 292 751 L292 751 Z " />
<glyph glyph-name="abreve" unicode="&#x103;" horiz-adv-x="474" d="M124 373 C156 382 177 387 215 387 C274 387 280 348 280 326 L280 319 L205 319 C111 319 45 270 45 179 L45 139 C45 48 88 -5 182 -5 L197 -5 C211 -5 260 -2 271 31 L280 31 L280 19 C280 8 288 0 299 0 L405 0 C416 0 424 8 424 19 L424 327 C424 374 416 520 244 520 C161 520 114 506 94 499 C85 496 79 490 79 481 C79 479 79 469 100 387 C103 376 110 372 115 372 C117 372 121 372 124 373 L124 373 Z M189 171 C189 188 204 201 219 201 L280 201 L280 158 C280 142 264 128 249 128 L219 128 C204 128 189 142 189 158 L189 171 Z M246 571 C347 571 401 617 412 729 C412 739 405 746 395 746 L309 746 C299 746 291 739 287 729 C280 695 266 690 246 690 C226 690 212 695 205 729 C201 739 193 746 183 746 L97 746 C87 746 80 739 80 729 C91 617 145 571 246 571 L246 571 Z " />
<glyph glyph-name="Aogonek" unicode="&#x104;" horiz-adv-x="585" d="M286 499 L299 499 L361 248 L224 248 L286 499 Z M404 71 C345 51 345 -17 345 -34 C345 -79 376 -123 435 -123 L506 -123 C514 -123 521 -116 521 -108 L521 -56 C521 -47 514 -41 506 -41 L452 -41 C452 -41 435 -41 435 -20 C435 -10 440 0 452 0 L546 0 C557 0 565 8 565 19 L389 681 C386 691 379 700 368 700 L217 700 C206 700 199 691 196 681 L20 19 C20 8 28 0 39 0 L145 0 C156 0 164 8 167 19 L191 115 L394 115 L404 71 Z " />
<glyph glyph-name="aogonek" unicode="&#x105;" horiz-adv-x="474" d="M189 171 C189 188 204 201 219 201 L280 201 L280 158 C280 142 264 128 249 128 L219 128 C204 128 189 142 189 158 L189 171 Z M280 6 C233 -26 233 -69 233 -82 C233 -127 264 -171 323 -171 L404 -171 C412 -171 419 -164 419 -156 L419 -104 C419 -95 412 -89 404 -89 L340 -89 C340 -89 323 -89 323 -68 C323 -58 328 -48 340 -48 L405 -48 C416 -48 424 -40 424 -29 L424 327 C424 374 416 520 244 520 C161 520 114 506 94 499 C85 496 79 490 79 481 C79 479 79 469 100 387 C103 376 110 372 115 372 C117 372 121 372 124 373 C156 382 177 387 215 387 C274 387 280 348 280 326 L280 319 L205 319 C111 319 45 270 45 179 L45 139 C45 48 88 -5 182 -5 L197 -5 C211 -5 260 -2 271 31 L280 31 L280 6 Z " />
<glyph glyph-name="Cacute" unicode="&#x106;" horiz-adv-x="552" d="M332 751 C343 751 351 760 355 769 L415 906 C415 916 408 924 397 924 L297 924 C286 924 278 915 274 906 L214 769 C214 759 222 751 232 751 L332 751 Z M368 178 C368 151 347 129 323 129 L244 129 C220 129 199 151 199 178 L199 522 C199 549 220 571 244 571 L323 571 C347 571 368 549 368 522 L368 490 C368 479 376 471 387 471 L493 471 C504 471 512 479 512 490 L512 529 C512 627 431 705 329 705 L238 705 C136 705 55 627 55 529 L55 171 C55 73 136 -5 238 -5 L329 -5 C431 -5 512 73 512 171 L512 210 C512 221 504 229 493 229 L387 229 C376 229 368 221 368 210 L368 178 Z " />
<glyph glyph-name="cacute" unicode="&#x107;" horiz-adv-x="459" d="M287 571 C298 571 306 580 310 589 L370 726 C370 736 363 744 352 744 L252 744 C241 744 233 735 229 726 L169 589 C169 579 177 571 187 571 L287 571 Z M285 158 C285 142 269 128 254 128 L224 128 C209 128 194 142 194 158 L194 357 C194 373 209 387 224 387 L254 387 C269 387 285 373 285 357 L285 342 C285 331 293 323 304 323 L410 323 C421 323 429 331 429 342 L429 362 C429 440 369 520 272 520 L207 520 C111 520 50 440 50 362 L50 152 C50 75 111 -5 207 -5 L272 -5 C369 -5 429 75 429 152 L429 173 C429 184 421 192 410 192 L304 192 C293 192 285 184 285 173 L285 158 Z " />
<glyph glyph-name="Ccircumflex" unicode="&#x108;" horiz-adv-x="552" d="M232 959 C220 959 212 955 207 944 L121 770 C121 759 129 751 140 751 L234 751 C245 751 253 760 257 770 L282 821 L307 770 C311 760 319 751 330 751 L424 751 C435 751 443 759 443 770 L357 944 C352 955 344 959 332 959 L232 959 Z M368 178 C368 151 347 129 323 129 L244 129 C220 129 199 151 199 178 L199 522 C199 549 220 571 244 571 L323 571 C347 571 368 549 368 522 L368 490 C368 479 376 471 387 471 L493 471 C504 471 512 479 512 490 L512 529 C512 627 431 705 329 705 L238 705 C136 705 55 627 55 529 L55 171 C55 73 136 -5 238 -5 L329 -5 C431 -5 512 73 512 171 L512 210 C512 221 504 229 493 229 L387 229 C376 229 368 221 368 210 L368 178 Z " />
<glyph glyph-name="ccircumflex" unicode="&#x109;" horiz-adv-x="459" d="M189 779 C177 779 169 775 164 764 L78 590 C78 579 86 571 97 571 L191 571 C202 571 210 580 214 590 L239 641 L264 590 C268 580 276 571 287 571 L381 571 C392 571 400 579 400 590 L314 764 C309 775 301 779 289 779 L189 779 Z M285 158 C285 142 269 128 254 128 L224 128 C209 128 194 142 194 158 L194 357 C194 373 209 387 224 387 L254 387 C269 387 285 373 285 357 L285 342 C285 331 293 323 304 323 L410 323 C421 323 429 331 429 342 L429 362 C429 440 369 520 272 520 L207 520 C111 520 50 440 50 362 L50 152 C50 75 111 -5 207 -5 L272 -5 C369 -5 429 75 429 152 L429 173 C429 184 421 192 410 192 L304 192 C293 192 285 184 285 173 L285 158 Z " />
<glyph glyph-name="Cdotaccent" unicode="&#x10a;" horiz-adv-x="552" d="M219 770 C219 759 227 751 238 751 L333 751 C344 751 352 759 352 770 L352 869 C352 880 344 888 333 888 L238 888 C227 888 219 880 219 869 L219 770 Z M368 178 C368 151 347 129 323 129 L244 129 C220 129 199 151 199 178 L199 522 C199 549 220 571 244 571 L323 571 C347 571 368 549 368 522 L368 490 C368 479 376 471 387 471 L493 471 C504 471 512 479 512 490 L512 529 C512 627 431 705 329 705 L238 705 C136 705 55 627 55 529 L55 171 C55 73 136 -5 238 -5 L329 -5 C431 -5 512 73 512 171 L512 210 C512 221 504 229 493 229 L387 229 C376 229 368 221 368 210 L368 178 Z " />
<glyph glyph-name="cdotaccent" unicode="&#x10b;" horiz-adv-x="459" d="M173 590 C173 579 181 571 192 571 L287 571 C298 571 306 579 306 590 L306 689 C306 700 298 708 287 708 L192 708 C181 708 173 700 173 689 L173 590 Z M285 158 C285 142 269 128 254 128 L224 128 C209 128 194 142 194 158 L194 357 C194 373 209 387 224 387 L254 387 C269 387 285 373 285 357 L285 342 C285 331 293 323 304 323 L410 323 C421 323 429 331 429 342 L429 362 C429 440 369 520 272 520 L207 520 C111 520 50 440 50 362 L50 152 C50 75 111 -5 207 -5 L272 -5 C369 -5 429 75 429 152 L429 173 C429 184 421 192 410 192 L304 192 C293 192 285 184 285 173 L285 158 Z " />
<glyph glyph-name="Ccaron" unicode="&#x10c;" horiz-adv-x="552" d="M333 751 C345 751 353 755 358 766 L444 940 C444 951 436 959 425 959 L331 959 C320 959 312 950 308 940 L283 889 L258 940 C254 950 246 959 235 959 L141 959 C130 959 122 951 122 940 L208 766 C213 755 221 751 233 751 L333 751 Z M368 178 C368 151 347 129 323 129 L244 129 C220 129 199 151 199 178 L199 522 C199 549 220 571 244 571 L323 571 C347 571 368 549 368 522 L368 490 C368 479 376 471 387 471 L493 471 C504 471 512 479 512 490 L512 529 C512 627 431 705 329 705 L238 705 C136 705 55 627 55 529 L55 171 C55 73 136 -5 238 -5 L329 -5 C431 -5 512 73 512 171 L512 210 C512 221 504 229 493 229 L387 229 C376 229 368 221 368 210 L368 178 Z " />
<glyph glyph-name="ccaron" unicode="&#x10d;" horiz-adv-x="459" d="M290 571 C302 571 310 575 315 586 L401 760 C401 771 393 779 382 779 L288 779 C277 779 269 770 265 760 L240 709 L215 760 C211 770 203 779 192 779 L98 779 C87 779 79 771 79 760 L165 586 C170 575 178 571 190 571 L290 571 Z M285 158 C285 142 269 128 254 128 L224 128 C209 128 194 142 194 158 L194 357 C194 373 209 387 224 387 L254 387 C269 387 285 373 285 357 L285 342 C285 331 293 323 304 323 L410 323 C421 323 429 331 429 342 L429 362 C429 440 369 520 272 520 L207 520 C111 520 50 440 50 362 L50 152 C50 75 111 -5 207 -5 L272 -5 C369 -5 429 75 429 152 L429 173 C429 184 421 192 410 192 L304 192 C293 192 285 184 285 173 L285 158 Z " />
<glyph glyph-name="Dcaron" unicode="&#x10e;" horiz-adv-x="578" d="M303 741 C315 741 323 745 328 756 L414 930 C414 941 406 949 395 949 L301 949 C290 949 282 940 278 930 L253 879 L228 930 C224 940 216 949 205 949 L111 949 C100 949 92 941 92 930 L178 756 C183 745 191 741 203 741 L303 741 Z M333 567 C357 567 379 545 379 518 L379 182 C379 155 357 133 333 133 L209 133 L209 567 L333 567 Z M84 700 C73 700 65 692 65 681 L65 19 C65 8 73 0 84 0 L340 0 C441 0 523 78 523 176 L523 524 C523 622 441 700 340 700 L84 700 Z " />
<glyph glyph-name="dcaron" unicode="&#x10f;" horiz-adv-x="705" d="M617 527 C628 527 636 536 640 545 L700 682 C700 692 693 700 682 700 L582 700 C571 700 563 691 559 682 L499 545 C499 535 507 527 517 527 L617 527 Z M45 153 C45 64 88 -5 182 -5 L214 -5 C231 -5 263 2 285 31 L295 31 L295 19 C295 8 303 0 314 0 L420 0 C431 0 439 8 439 19 L439 681 C439 692 431 700 420 700 L314 700 C303 700 295 692 295 681 L295 484 L285 484 C263 513 231 520 214 520 L182 520 C88 520 45 451 45 362 L45 153 Z M295 158 C295 142 280 128 265 128 L220 128 C204 128 189 142 189 158 L189 357 C189 373 204 387 220 387 L265 387 C280 387 295 373 295 357 L295 158 Z " />
<glyph glyph-name="Dcroat" unicode="&#x110;" horiz-adv-x="587" d="M93 700 C82 700 74 692 74 681 L74 416 L24 416 C13 416 5 408 5 397 L5 301 C5 290 13 282 24 282 L74 282 L74 19 C74 8 82 0 93 0 L349 0 C450 0 532 78 532 176 L532 524 C532 622 450 700 349 700 L93 700 Z M279 282 C290 282 298 290 298 301 L298 397 C298 408 290 416 279 416 L218 416 L218 567 L342 567 C366 567 388 545 388 518 L388 182 C388 155 366 133 342 133 L218 133 L218 282 L279 282 Z " />
<glyph glyph-name="dcroat" unicode="&#x111;" horiz-adv-x="500" d="M295 484 L285 484 C263 513 231 520 214 520 L182 520 C88 520 45 451 45 362 L45 153 C45 64 88 -5 182 -5 L214 -5 C231 -5 263 2 285 31 L295 31 L295 19 C295 8 303 0 314 0 L420 0 C431 0 439 8 439 19 L439 546 L476 546 C487 546 495 554 495 565 L495 633 C495 644 487 652 476 652 L439 652 L439 681 C439 692 431 700 420 700 L314 700 C303 700 295 692 295 681 L295 652 L250 652 C239 652 231 644 231 633 L231 565 C231 554 239 546 250 546 L295 546 L295 484 Z M295 158 C295 142 280 128 265 128 L220 128 C204 128 189 142 189 158 L189 357 C189 373 204 387 220 387 L265 387 C280 387 295 373 295 357 L295 158 Z " />
<glyph glyph-name="Emacron" unicode="&#x112;" horiz-adv-x="509" d="M396 751 C407 751 415 759 415 770 L415 854 C415 865 407 873 396 873 L122 873 C111 873 103 865 103 854 L103 770 C103 759 111 751 122 751 L396 751 Z M65 19 C65 8 73 0 84 0 L435 0 C446 0 454 8 454 19 L454 115 C454 126 446 134 435 134 L209 134 L209 296 L413 296 C424 296 432 304 432 315 L432 411 C432 422 424 430 413 430 L209 430 L209 566 L435 566 C446 566 454 574 454 585 L454 681 C454 692 446 700 435 700 L84 700 C73 700 65 692 65 681 L65 19 Z " />
<glyph glyph-name="emacron" unicode="&#x113;" horiz-adv-x="476" d="M362 571 C373 571 381 579 381 590 L381 674 C381 685 373 693 362 693 L118 693 C107 693 99 685 99 674 L99 590 C99 579 107 571 118 571 L362 571 Z M194 357 C194 373 209 387 224 387 L257 387 C272 387 288 373 288 357 L288 315 L194 315 L194 357 Z M416 74 C418 77 419 82 419 85 C419 91 417 95 411 100 L344 155 C341 157 336 158 333 158 C326 158 321 155 317 150 C307 141 292 128 265 128 L224 128 C209 128 194 142 194 158 L194 195 L412 195 C423 195 431 203 431 214 L431 362 C431 440 371 520 274 520 L207 520 C111 520 50 440 50 362 L50 152 C50 75 111 -5 207 -5 L265 -5 C265 -5 367 -4 416 74 L416 74 Z " />
<glyph glyph-name="Edotaccent" unicode="&#x116;" horiz-adv-x="509" d="M194 770 C194 759 202 751 213 751 L308 751 C319 751 327 759 327 770 L327 869 C327 880 319 888 308 888 L213 888 C202 888 194 880 194 869 L194 770 Z M65 19 C65 8 73 0 84 0 L435 0 C446 0 454 8 454 19 L454 115 C454 126 446 134 435 134 L209 134 L209 296 L413 296 C424 296 432 304 432 315 L432 411 C432 422 424 430 413 430 L209 430 L209 566 L435 566 C446 566 454 574 454 585 L454 681 C454 692 446 700 435 700 L84 700 C73 700 65 692 65 681 L65 19 Z " />
<glyph glyph-name="edotaccent" unicode="&#x117;" horiz-adv-x="476" d="M174 590 C174 579 182 571 193 571 L288 571 C299 571 307 579 307 590 L307 689 C307 700 299 708 288 708 L193 708 C182 708 174 700 174 689 L174 590 Z M194 357 C194 373 209 387 224 387 L257 387 C272 387 288 373 288 357 L288 315 L194 315 L194 357 Z M416 74 C418 77 419 82 419 85 C419 91 417 95 411 100 L344 155 C341 157 336 158 333 158 C326 158 321 155 317 150 C307 141 292 128 265 128 L224 128 C209 128 194 142 194 158 L194 195 L412 195 C423 195 431 203 431 214 L431 362 C431 440 371 520 274 520 L207 520 C111 520 50 440 50 362 L50 152 C50 75 111 -5 207 -5 L265 -5 C265 -5 367 -4 416 74 L416 74 Z " />
<glyph glyph-name="Eogonek" unicode="&#x118;" horiz-adv-x="509" d="M65 19 C65 8 73 0 84 0 L270 0 C264 -15 263 -28 263 -34 C263 -79 294 -123 353 -123 L424 -123 C432 -123 439 -116 439 -108 L439 -56 C439 -47 432 -41 424 -41 L370 -41 C370 -41 353 -41 353 -20 C353 -10 357 -1 367 0 L435 0 C446 0 454 8 454 19 L454 115 C454 126 446 134 435 134 L209 134 L209 296 L413 296 C424 296 432 304 432 315 L432 411 C432 422 424 430 413 430 L209 430 L209 566 L435 566 C446 566 454 574 454 585 L454 681 C454 692 446 700 435 700 L84 700 C73 700 65 692 65 681 L65 19 Z " />
<glyph glyph-name="eogonek" unicode="&#x119;" horiz-adv-x="476" d="M416 74 C418 77 419 82 419 85 C419 91 417 95 411 100 L344 155 C341 157 336 158 333 158 C326 158 321 155 317 150 C307 141 292 128 265 128 L224 128 C209 128 194 142 194 158 L194 195 L412 195 C423 195 431 203 431 214 L431 362 C431 440 371 520 274 520 L207 520 C111 520 50 440 50 362 L50 152 C50 88 91 23 160 2 C157 -9 153 -27 153 -40 C153 -84 183 -123 242 -123 L327 -123 C335 -123 342 -116 342 -108 L342 -58 C342 -49 335 -43 327 -43 L258 -43 C258 -43 242 -43 242 -25 C242 -13 251 -6 255 -5 L265 -5 C265 -5 367 -4 416 74 L416 74 Z M194 357 C194 373 209 387 224 387 L257 387 C272 387 288 373 288 357 L288 315 L194 315 L194 357 Z " />
<glyph glyph-name="Ecaron" unicode="&#x11a;" horiz-adv-x="509" d="M312 741 C324 741 332 745 337 756 L423 930 C423 941 415 949 404 949 L310 949 C299 949 291 940 287 930 L262 879 L237 930 C233 940 225 949 214 949 L120 949 C109 949 101 941 101 930 L187 756 C192 745 200 741 212 741 L312 741 Z M65 19 C65 8 73 0 84 0 L435 0 C446 0 454 8 454 19 L454 115 C454 126 446 134 435 134 L209 134 L209 296 L413 296 C424 296 432 304 432 315 L432 411 C432 422 424 430 413 430 L209 430 L209 566 L435 566 C446 566 454 574 454 585 L454 681 C454 692 446 700 435 700 L84 700 C73 700 65 692 65 681 L65 19 Z " />
<glyph glyph-name="ecaron" unicode="&#x11b;" horiz-adv-x="476" d="M294 571 C306 571 314 575 319 586 L405 760 C405 771 397 779 386 779 L292 779 C281 779 273 770 269 760 L244 709 L219 760 C215 770 207 779 196 779 L102 779 C91 779 83 771 83 760 L169 586 C174 575 182 571 194 571 L294 571 Z M194 357 C194 373 209 387 224 387 L257 387 C272 387 288 373 288 357 L288 315 L194 315 L194 357 Z M416 74 C418 77 419 82 419 85 C419 91 417 95 411 100 L344 155 C341 157 336 158 333 158 C326 158 321 155 317 150 C307 141 292 128 265 128 L224 128 C209 128 194 142 194 158 L194 195 L412 195 C423 195 431 203 431 214 L431 362 C431 440 371 520 274 520 L207 520 C111 520 50 440 50 362 L50 152 C50 75 111 -5 207 -5 L265 -5 C265 -5 367 -4 416 74 L416 74 Z " />
<glyph glyph-name="Gcircumflex" unicode="&#x11c;" horiz-adv-x="568" d="M233 959 C221 959 213 955 208 944 L122 770 C122 759 130 751 141 751 L235 751 C246 751 254 760 258 770 L283 821 L308 770 C312 760 320 751 331 751 L425 751 C436 751 444 759 444 770 L358 944 C353 955 345 959 333 959 L233 959 Z M306 404 C291 404 280 394 280 378 L280 297 C280 281 291 270 306 270 L369 270 L369 178 C369 151 348 129 324 129 L244 129 C220 129 199 151 199 178 L199 522 C199 549 220 571 244 571 L324 571 C348 571 369 549 369 522 L369 490 C369 479 377 471 388 471 L494 471 C505 471 513 479 513 490 L513 529 C513 627 432 705 330 705 L238 705 C136 705 55 627 55 529 L55 171 C55 73 136 -5 238 -5 L330 -5 C432 -5 513 73 513 171 L513 378 C513 394 502 404 487 404 L306 404 Z " />
<glyph glyph-name="gcircumflex" unicode="&#x11d;" horiz-adv-x="504" d="M188 779 C176 779 168 775 163 764 L77 590 C77 579 85 571 96 571 L190 571 C201 571 209 580 213 590 L238 641 L263 590 C267 580 275 571 286 571 L380 571 C391 571 399 579 399 590 L313 764 C308 775 300 779 288 779 L188 779 Z M295 158 C295 142 280 128 265 128 L220 128 C204 128 189 142 189 158 L189 357 C189 373 204 387 220 387 L265 387 C280 387 295 373 295 357 L295 158 Z M295 -21 C295 -42 281 -71 222 -71 C183 -71 131 -59 126 -59 C113 -59 108 -62 104 -76 C84 -156 84 -166 84 -169 C84 -178 90 -182 99 -186 C121 -193 153 -203 237 -203 C426 -203 439 -71 439 -22 L439 496 C439 507 431 515 420 515 L314 515 C303 515 295 507 295 496 L295 484 L285 484 C263 513 231 520 214 520 L182 520 C88 520 45 451 45 362 L45 153 C45 64 88 -5 182 -5 L214 -5 C231 -5 263 2 285 31 L295 31 L295 -21 Z " />
<glyph glyph-name="Gbreve" unicode="&#x11e;" horiz-adv-x="568" d="M306 404 C291 404 280 394 280 378 L280 297 C280 281 291 270 306 270 L369 270 L369 178 C369 151 348 129 324 129 L244 129 C220 129 199 151 199 178 L199 522 C199 549 220 571 244 571 L324 571 C348 571 369 549 369 522 L369 490 C369 479 377 471 388 471 L494 471 C505 471 513 479 513 490 L513 529 C513 627 432 705 330 705 L238 705 C136 705 55 627 55 529 L55 171 C55 73 136 -5 238 -5 L330 -5 C432 -5 513 73 513 171 L513 378 C513 394 502 404 487 404 L306 404 Z M290 751 C391 751 445 797 456 909 C456 919 449 926 439 926 L353 926 C343 926 335 919 331 909 C324 875 310 870 290 870 C270 870 256 875 249 909 C245 919 237 926 227 926 L141 926 C131 926 124 919 124 909 C135 797 189 751 290 751 L290 751 Z " />
<glyph glyph-name="gbreve" unicode="&#x11f;" horiz-adv-x="504" d="M295 158 C295 142 280 128 265 128 L220 128 C204 128 189 142 189 158 L189 357 C189 373 204 387 220 387 L265 387 C280 387 295 373 295 357 L295 158 Z M295 -21 C295 -42 281 -71 222 -71 C183 -71 131 -59 126 -59 C113 -59 108 -62 104 -76 C84 -156 84 -166 84 -169 C84 -178 90 -182 99 -186 C121 -193 153 -203 237 -203 C426 -203 439 -71 439 -22 L439 496 C439 507 431 515 420 515 L314 515 C303 515 295 507 295 496 L295 484 L285 484 C263 513 231 520 214 520 L182 520 C88 520 45 451 45 362 L45 153 C45 64 88 -5 182 -5 L214 -5 C231 -5 263 2 285 31 L295 31 L295 -21 Z M233 571 C334 571 388 617 399 729 C399 739 392 746 382 746 L296 746 C286 746 278 739 274 729 C267 695 253 690 233 690 C213 690 199 695 192 729 C188 739 180 746 170 746 L84 746 C74 746 67 739 67 729 C78 617 132 571 233 571 L233 571 Z " />
<glyph glyph-name="Gdotaccent" unicode="&#x120;" horiz-adv-x="568" d="M216 770 C216 759 224 751 235 751 L330 751 C341 751 349 759 349 770 L349 869 C349 880 341 888 330 888 L235 888 C224 888 216 880 216 869 L216 770 Z M306 404 C291 404 280 394 280 378 L280 297 C280 281 291 270 306 270 L369 270 L369 178 C369 151 348 129 324 129 L244 129 C220 129 199 151 199 178 L199 522 C199 549 220 571 244 571 L324 571 C348 571 369 549 369 522 L369 490 C369 479 377 471 388 471 L494 471 C505 471 513 479 513 490 L513 529 C513 627 432 705 330 705 L238 705 C136 705 55 627 55 529 L55 171 C55 73 136 -5 238 -5 L330 -5 C432 -5 513 73 513 171 L513 378 C513 394 502 404 487 404 L306 404 Z " />
<glyph glyph-name="gdotaccent" unicode="&#x121;" horiz-adv-x="504" d="M177 590 C177 579 185 571 196 571 L291 571 C302 571 310 579 310 590 L310 689 C310 700 302 708 291 708 L196 708 C185 708 177 700 177 689 L177 590 Z M295 158 C295 142 280 128 265 128 L220 128 C204 128 189 142 189 158 L189 357 C189 373 204 387 220 387 L265 387 C280 387 295 373 295 357 L295 158 Z M295 -21 C295 -42 281 -71 222 -71 C183 -71 131 -59 126 -59 C113 -59 108 -62 104 -76 C84 -156 84 -166 84 -169 C84 -178 90 -182 99 -186 C121 -193 153 -203 237 -203 C426 -203 439 -71 439 -22 L439 496 C439 507 431 515 420 515 L314 515 C303 515 295 507 295 496 L295 484 L285 484 C263 513 231 520 214 520 L182 520 C88 520 45 451 45 362 L45 153 C45 64 88 -5 182 -5 L214 -5 C231 -5 263 2 285 31 L295 31 L295 -21 Z " />
<glyph glyph-name="uni0122" unicode="&#x122;" horiz-adv-x="568" d="M291 -214 C302 -214 310 -205 314 -196 L353 -71 C353 -61 346 -53 335 -53 L235 -53 C224 -53 216 -62 212 -71 L173 -196 C173 -206 181 -214 191 -214 L291 -214 Z M306 404 C291 404 280 394 280 378 L280 297 C280 281 291 270 306 270 L369 270 L369 178 C369 151 348 129 324 129 L244 129 C220 129 199 151 199 178 L199 522 C199 549 220 571 244 571 L324 571 C348 571 369 549 369 522 L369 490 C369 479 377 471 388 471 L494 471 C505 471 513 479 513 490 L513 529 C513 627 432 705 330 705 L238 705 C136 705 55 627 55 529 L55 171 C55 73 136 -5 238 -5 L330 -5 C432 -5 513 73 513 171 L513 378 C513 394 502 404 487 404 L306 404 Z " />
<glyph glyph-name="uni0123" unicode="&#x123;" horiz-adv-x="504" d="M273 571 C284 571 292 580 296 589 L356 726 C356 736 349 744 338 744 L238 744 C227 744 219 735 215 726 L155 589 C155 579 163 571 173 571 L273 571 Z M295 158 C295 142 280 128 265 128 L220 128 C204 128 189 142 189 158 L189 357 C189 373 204 387 220 387 L265 387 C280 387 295 373 295 357 L295 158 Z M295 -21 C295 -42 281 -71 222 -71 C183 -71 131 -59 126 -59 C113 -59 108 -62 104 -76 C84 -156 84 -166 84 -169 C84 -178 90 -182 99 -186 C121 -193 153 -203 237 -203 C426 -203 439 -71 439 -22 L439 496 C439 507 431 515 420 515 L314 515 C303 515 295 507 295 496 L295 484 L285 484 C263 513 231 520 214 520 L182 520 C88 520 45 451 45 362 L45 153 C45 64 88 -5 182 -5 L214 -5 C231 -5 263 2 285 31 L295 31 L295 -21 Z " />
<glyph glyph-name="Hcircumflex" unicode="&#x124;" horiz-adv-x="581" d="M240 959 C228 959 220 955 215 944 L129 770 C129 759 137 751 148 751 L242 751 C253 751 261 760 265 770 L290 821 L315 770 C319 760 327 751 338 751 L432 751 C443 751 451 759 451 770 L365 944 C360 955 352 959 340 959 L240 959 Z M372 19 C372 8 380 0 391 0 L497 0 C508 0 516 8 516 19 L516 681 C516 692 508 700 497 700 L391 700 C380 700 372 692 372 681 L372 406 L209 406 L209 681 C209 692 201 700 190 700 L84 700 C73 700 65 692 65 681 L65 19 C65 8 73 0 84 0 L190 0 C201 0 209 8 209 19 L209 273 L372 273 L372 19 Z " />
<glyph glyph-name="hcircumflex" unicode="&#x125;" horiz-adv-x="509" d="M179 959 C167 959 159 955 154 944 L68 770 C68 759 76 751 87 751 L181 751 C192 751 200 760 204 770 L229 821 L254 770 C258 760 266 751 277 751 L371 751 C382 751 390 759 390 770 L304 944 C299 955 291 959 279 959 L179 959 Z M454 361 C449 451 422 520 328 520 L314 520 C293 520 251 513 218 470 L209 470 L209 681 C209 692 201 700 190 700 L84 700 C73 700 65 692 65 681 L65 19 C65 8 73 0 84 0 L190 0 C201 0 209 8 209 19 L209 339 C223 383 246 387 261 387 L277 387 C295 387 310 373 310 352 L310 19 C310 8 318 0 329 0 L435 0 C446 0 454 8 454 19 L454 361 Z " />
<glyph glyph-name="Hbar" unicode="&#x126;" horiz-adv-x="549" d="M525 434 C536 434 544 442 544 453 L544 532 C544 543 536 551 525 551 L500 551 L500 681 C500 692 492 700 481 700 L375 700 C364 700 356 692 356 681 L356 551 L193 551 L193 681 C193 692 185 700 174 700 L68 700 C57 700 49 692 49 681 L49 551 L24 551 C13 551 5 543 5 532 L5 453 C5 442 13 434 24 434 L49 434 L49 19 C49 8 57 0 68 0 L174 0 C185 0 193 8 193 19 L193 199 L356 199 L356 19 C356 8 364 0 375 0 L481 0 C492 0 500 8 500 19 L500 434 L525 434 Z M193 332 L193 434 L356 434 L356 332 L193 332 Z " />
<glyph glyph-name="hbar" unicode="&#x127;" horiz-adv-x="505" d="M61 546 L61 19 C61 8 69 0 80 0 L186 0 C197 0 205 8 205 19 L205 339 C219 383 242 387 257 387 L273 387 C291 387 306 373 306 352 L306 19 C306 8 314 0 325 0 L431 0 C442 0 450 8 450 19 L450 361 C445 451 418 520 324 520 L310 520 C289 520 247 513 214 470 L205 470 L205 546 L250 546 C261 546 269 554 269 565 L269 633 C269 644 261 652 250 652 L205 652 L205 681 C205 692 197 700 186 700 L80 700 C69 700 61 692 61 681 L61 652 L24 652 C13 652 5 644 5 633 L5 565 C5 554 13 546 24 546 L61 546 Z " />
<glyph glyph-name="Itilde" unicode="&#x128;" horiz-adv-x="274" d="M65 19 C65 8 73 0 84 0 L190 0 C201 0 209 8 209 19 L209 681 C209 692 201 700 190 700 L84 700 C73 700 65 692 65 681 L65 19 Z M192 752 C219 752 246 765 272 781 C280 787 284 796 284 805 L260 883 C258 890 250 896 240 896 C237 896 233 896 230 895 C219 890 200 886 192 886 C143 886 133 923 85 923 C58 923 31 910 5 894 C-3 888 -7 879 -7 870 L17 792 C19 785 27 779 37 779 C40 779 44 779 47 780 C58 785 77 789 85 789 C135 789 144 752 192 752 L192 752 Z " />
<glyph glyph-name="itilde" unicode="&#x129;" horiz-adv-x="274" d="M65 19 C65 8 73 0 84 0 L190 0 C201 0 209 8 209 19 L209 496 C209 507 201 515 190 515 L84 515 C73 515 65 507 65 496 L65 19 Z M192 571 C219 571 246 584 272 600 C280 606 284 615 284 624 L260 702 C258 709 250 715 240 715 C237 715 233 715 230 714 C219 709 200 705 192 705 C143 705 133 742 85 742 C58 742 31 729 5 713 C-3 707 -7 698 -7 689 L17 611 C19 604 27 598 37 598 C40 598 44 598 47 599 C58 604 77 608 85 608 C135 608 144 571 192 571 L192 571 Z " />
<glyph glyph-name="Imacron" unicode="&#x12a;" horiz-adv-x="274" d="M65 19 C65 8 73 0 84 0 L190 0 C201 0 209 8 209 19 L209 681 C209 692 201 700 190 700 L84 700 C73 700 65 692 65 681 L65 19 Z M257 751 C268 751 276 759 276 770 L276 854 C276 865 268 873 257 873 L17 873 C6 873 -2 865 -2 854 L-2 770 C-2 759 6 751 17 751 L257 751 Z " />
<glyph glyph-name="imacron" unicode="&#x12b;" horiz-adv-x="274" d="M65 19 C65 8 73 0 84 0 L190 0 C201 0 209 8 209 19 L209 496 C209 507 201 515 190 515 L84 515 C73 515 65 507 65 496 L65 19 Z M257 571 C268 571 276 579 276 590 L276 674 C276 685 268 693 257 693 L17 693 C6 693 -2 685 -2 674 L-2 590 C-2 579 6 571 17 571 L257 571 Z " />
<glyph glyph-name="Iogonek" unicode="&#x12e;" horiz-adv-x="274" d="M65 73 C-14 60 -15 -17 -15 -34 C-15 -79 16 -123 75 -123 L146 -123 C154 -123 161 -116 161 -108 L161 -56 C161 -47 154 -41 146 -41 L92 -41 C92 -41 75 -41 75 -20 C75 -10 80 0 92 0 L190 0 C201 0 209 8 209 19 L209 681 C209 692 201 700 190 700 L84 700 C73 700 65 692 65 681 L65 73 Z " />
<glyph glyph-name="iogonek" unicode="&#x12f;" horiz-adv-x="274" d="M190 0 C201 0 209 8 209 19 L209 496 C209 507 201 515 190 515 L84 515 C73 515 65 507 65 496 L65 73 C-14 60 -15 -17 -15 -34 C-15 -79 16 -123 75 -123 L146 -123 C154 -123 161 -116 161 -108 L161 -56 C161 -47 154 -41 146 -41 L92 -41 C92 -41 75 -41 75 -20 C75 -10 80 0 92 0 L190 0 Z M63 584 C63 573 71 565 82 565 L192 565 C203 565 211 573 211 584 L211 681 C211 692 203 700 192 700 L82 700 C71 700 63 692 63 681 L63 584 Z " />
<glyph glyph-name="Idotaccent" unicode="&#x130;" horiz-adv-x="274" d="M65 19 C65 8 73 0 84 0 L190 0 C201 0 209 8 209 19 L209 552 C209 563 201 571 190 571 L84 571 C73 571 65 563 65 552 L65 19 Z M63 640 C63 629 71 621 82 621 L192 621 C203 621 211 629 211 640 L211 737 C211 748 203 756 192 756 L82 756 C71 756 63 748 63 737 L63 640 Z " />
<glyph glyph-name="dotlessi" unicode="&#x131;" horiz-adv-x="274" d="M65 19 C65 8 73 0 84 0 L190 0 C201 0 209 8 209 19 L209 496 C209 507 201 515 190 515 L84 515 C73 515 65 507 65 496 L65 19 Z " />
<glyph glyph-name="Jcircumflex" unicode="&#x134;" horiz-adv-x="428" d="M170 959 C158 959 150 955 145 944 L59 770 C59 759 67 751 78 751 L172 751 C183 751 191 760 195 770 L220 821 L245 770 C249 760 257 751 268 751 L362 751 C373 751 381 759 381 770 L295 944 C290 955 282 959 270 959 L170 959 Z M96 158 C92 161 87 162 82 162 C77 162 73 161 68 158 L2 97 C-3 92 -5 88 -5 82 C-5 78 -3 73 1 69 C23 46 73 -5 169 -5 C310 -5 383 86 383 180 L383 681 C383 692 375 700 364 700 L258 700 C247 700 239 692 239 681 L239 183 C239 183 239 129 163 129 C143 129 120 136 96 158 L96 158 Z " />
<glyph glyph-name="jcircumflex" unicode="&#x135;" horiz-adv-x="274" d="M45 -188 C45 -188 209 -142 209 14 L209 496 C209 507 201 515 190 515 L84 515 C73 515 65 507 65 496 L65 19 C65 19 63 -35 -10 -56 C-18 -58 -22 -66 -22 -73 C-22 -75 -21 -78 -20 -80 L20 -178 C23 -186 29 -190 36 -190 C38 -190 43 -189 45 -188 L45 -188 Z M87 779 C75 779 67 775 62 764 L-24 590 C-24 579 -16 571 -5 571 L89 571 C100 571 108 580 112 590 L137 641 L162 590 C166 580 174 571 185 571 L279 571 C290 571 298 579 298 590 L212 764 C207 775 199 779 187 779 L87 779 Z " />
<glyph glyph-name="uni0136" unicode="&#x136;" horiz-adv-x="559" d="M303 -214 C314 -214 322 -205 326 -196 L365 -71 C365 -61 358 -53 347 -53 L247 -53 C236 -53 228 -62 224 -71 L185 -196 C185 -206 193 -214 203 -214 L303 -214 Z M272 417 L209 417 L209 681 C209 692 201 700 190 700 L84 700 C73 700 65 692 65 681 L65 19 C65 8 73 0 84 0 L190 0 C201 0 209 8 209 19 L209 283 L273 283 L381 19 C386 9 395 0 406 0 L514 0 C525 0 533 9 533 20 L397 350 L530 680 C530 691 522 700 511 700 L403 700 C392 700 383 691 378 681 L272 417 Z " />
<glyph glyph-name="uni0137" unicode="&#x137;" horiz-adv-x="490" d="M276 -214 C287 -214 295 -205 299 -196 L338 -71 C338 -61 331 -53 320 -53 L220 -53 C209 -53 201 -62 197 -71 L158 -196 C158 -206 166 -214 176 -214 L276 -214 Z M317 21 C323 8 334 0 345 0 L454 0 C465 0 473 8 473 19 L378 270 L475 496 C475 507 467 515 456 515 L349 515 C338 515 326 506 320 496 L249 335 L209 335 L209 681 C209 692 201 700 190 700 L84 700 C73 700 65 692 65 681 L65 19 C65 8 73 0 84 0 L190 0 C201 0 209 8 209 19 L209 205 L248 205 L317 21 Z " />
<glyph glyph-name="kgreenlandic" unicode="&#x138;" horiz-adv-x="490" d="M317 21 C323 8 334 0 345 0 L454 0 C465 0 473 8 473 19 L378 270 L475 496 C475 507 467 515 456 515 L349 515 C338 515 326 506 320 496 L249 335 L209 335 L209 496 C209 507 201 515 190 515 L84 515 C73 515 65 507 65 496 L65 19 C65 8 73 0 84 0 L190 0 C201 0 209 8 209 19 L209 205 L248 205 L317 21 Z " />
<glyph glyph-name="Lacute" unicode="&#x139;" horiz-adv-x="477" d="M190 751 C201 751 209 760 213 769 L273 906 C273 916 266 924 255 924 L155 924 C144 924 136 915 132 906 L72 769 C72 759 80 751 90 751 L190 751 Z M209 681 C209 692 201 700 190 700 L84 700 C73 700 65 692 65 681 L65 19 C65 8 73 0 84 0 L433 0 C444 0 452 8 452 19 L452 115 C452 126 444 134 433 134 L209 134 L209 681 Z " />
<glyph glyph-name="lacute" unicode="&#x13a;" horiz-adv-x="274" d="M209 681 C209 692 201 700 190 700 L84 700 C73 700 65 692 65 681 L65 19 C65 8 73 0 84 0 L190 0 C201 0 209 8 209 19 L209 681 Z M186 751 C197 751 205 760 209 769 L269 906 C269 916 262 924 251 924 L151 924 C140 924 132 915 128 906 L68 769 C68 759 76 751 86 751 L186 751 Z " />
<glyph glyph-name="uni013B" unicode="&#x13b;" horiz-adv-x="477" d="M265 -214 C276 -214 284 -205 288 -196 L327 -71 C327 -61 320 -53 309 -53 L209 -53 C198 -53 190 -62 186 -71 L147 -196 C147 -206 155 -214 165 -214 L265 -214 Z M209 681 C209 692 201 700 190 700 L84 700 C73 700 65 692 65 681 L65 19 C65 8 73 0 84 0 L433 0 C444 0 452 8 452 19 L452 115 C452 126 444 134 433 134 L209 134 L209 681 Z " />
<glyph glyph-name="uni013C" unicode="&#x13c;" horiz-adv-x="274" d="M65 19 C65 8 73 0 84 0 L190 0 C201 0 209 8 209 19 L209 681 C209 692 201 700 190 700 L84 700 C73 700 65 692 65 681 L65 19 Z M143 -214 C154 -214 162 -205 166 -196 L205 -71 C205 -61 198 -53 187 -53 L87 -53 C76 -53 68 -62 64 -71 L25 -196 C25 -206 33 -214 43 -214 L143 -214 Z " />
<glyph glyph-name="Lcaron" unicode="&#x13d;" horiz-adv-x="477" d="M368 527 C379 527 387 536 391 545 L451 682 C451 692 444 700 433 700 L333 700 C322 700 314 691 310 682 L250 545 C250 535 258 527 268 527 L368 527 Z M209 681 C209 692 201 700 190 700 L84 700 C73 700 65 692 65 681 L65 19 C65 8 73 0 84 0 L433 0 C444 0 452 8 452 19 L452 115 C452 126 444 134 433 134 L209 134 L209 681 Z " />
<glyph glyph-name="lcaron" unicode="&#x13e;" horiz-adv-x="475" d="M65 19 C65 8 73 0 84 0 L190 0 C201 0 209 8 209 19 L209 681 C209 692 201 700 190 700 L84 700 C73 700 65 692 65 681 L65 19 Z M387 527 C398 527 406 536 410 545 L470 682 C470 692 463 700 452 700 L352 700 C341 700 333 691 329 682 L269 545 C269 535 277 527 287 527 L387 527 Z " />
<glyph glyph-name="Lslash" unicode="&#x141;" horiz-adv-x="513" d="M24 388 C13 385 5 377 5 366 L5 273 C5 262 13 254 24 254 L85 271 L85 19 C85 8 93 0 104 0 L469 0 C480 0 488 8 488 19 L488 115 C488 126 480 134 469 134 L229 134 L229 310 L291 327 C302 330 310 338 310 349 L310 442 C310 453 302 461 291 461 L229 444 L229 681 C229 692 221 700 210 700 L104 700 C93 700 85 692 85 681 L85 405 L24 388 Z " />
<glyph glyph-name="lslash" unicode="&#x142;" horiz-adv-x="315" d="M24 388 C13 385 5 377 5 366 L5 273 C5 262 13 254 24 254 L85 271 L85 19 C85 8 93 0 104 0 L210 0 C221 0 229 8 229 19 L229 310 L291 327 C302 330 310 338 310 349 L310 442 C310 453 302 461 291 461 L229 444 L229 681 C229 692 221 700 210 700 L104 700 C93 700 85 692 85 681 L85 405 L24 388 Z " />
<glyph glyph-name="Nacute" unicode="&#x143;" horiz-adv-x="615" d="M379 751 C390 751 398 760 402 769 L462 906 C462 916 455 924 444 924 L344 924 C333 924 325 915 321 906 L261 769 C261 759 269 751 279 751 L379 751 Z M212 700 L84 700 C73 700 65 692 65 681 L65 19 C65 8 73 0 84 0 L190 0 C201 0 209 8 209 19 L209 373 L216 373 L376 16 C381 6 387 0 402 0 L531 0 C542 0 550 8 550 19 L550 681 C550 692 542 700 531 700 L425 700 C414 700 406 692 406 681 L406 321 L399 321 L238 684 C233 694 227 700 212 700 L212 700 Z " />
<glyph glyph-name="nacute" unicode="&#x144;" horiz-adv-x="509" d="M316 571 C327 571 335 580 339 589 L399 726 C399 736 392 744 381 744 L281 744 C270 744 262 735 258 726 L198 589 C198 579 206 571 216 571 L316 571 Z M454 361 C449 451 422 520 328 520 L314 520 C293 520 251 513 218 470 L209 470 L209 496 C209 507 201 515 190 515 L84 515 C73 515 65 507 65 496 L65 19 C65 8 73 0 84 0 L190 0 C201 0 209 8 209 19 L209 339 C223 383 246 387 261 387 L277 387 C295 387 310 373 310 352 L310 19 C310 8 318 0 329 0 L435 0 C446 0 454 8 454 19 L454 361 Z " />
<glyph glyph-name="uni0145" unicode="&#x145;" horiz-adv-x="615" d="M314 -214 C325 -214 333 -205 337 -196 L376 -71 C376 -61 369 -53 358 -53 L258 -53 C247 -53 239 -62 235 -71 L196 -196 C196 -206 204 -214 214 -214 L314 -214 Z M212 700 L84 700 C73 700 65 692 65 681 L65 19 C65 8 73 0 84 0 L190 0 C201 0 209 8 209 19 L209 373 L216 373 L376 16 C381 6 387 0 402 0 L531 0 C542 0 550 8 550 19 L550 681 C550 692 542 700 531 700 L425 700 C414 700 406 692 406 681 L406 321 L399 321 L238 684 C233 694 227 700 212 700 L212 700 Z " />
<glyph glyph-name="uni0146" unicode="&#x146;" horiz-adv-x="509" d="M266 -214 C277 -214 285 -205 289 -196 L328 -71 C328 -61 321 -53 310 -53 L210 -53 C199 -53 191 -62 187 -71 L148 -196 C148 -206 156 -214 166 -214 L266 -214 Z M454 361 C449 451 422 520 328 520 L314 520 C293 520 251 513 218 470 L209 470 L209 496 C209 507 201 515 190 515 L84 515 C73 515 65 507 65 496 L65 19 C65 8 73 0 84 0 L190 0 C201 0 209 8 209 19 L209 339 C223 383 246 387 261 387 L277 387 C295 387 310 373 310 352 L310 19 C310 8 318 0 329 0 L435 0 C446 0 454 8 454 19 L454 361 Z " />
<glyph glyph-name="Ncaron" unicode="&#x147;" horiz-adv-x="615" d="M362 751 C374 751 382 755 387 766 L473 940 C473 951 465 959 454 959 L360 959 C349 959 341 950 337 940 L312 889 L287 940 C283 950 275 959 264 959 L170 959 C159 959 151 951 151 940 L237 766 C242 755 250 751 262 751 L362 751 Z M212 700 L84 700 C73 700 65 692 65 681 L65 19 C65 8 73 0 84 0 L190 0 C201 0 209 8 209 19 L209 373 L216 373 L376 16 C381 6 387 0 402 0 L531 0 C542 0 550 8 550 19 L550 681 C550 692 542 700 531 700 L425 700 C414 700 406 692 406 681 L406 321 L399 321 L238 684 C233 694 227 700 212 700 L212 700 Z " />
<glyph glyph-name="ncaron" unicode="&#x148;" horiz-adv-x="509" d="M309 571 C321 571 329 575 334 586 L420 760 C420 771 412 779 401 779 L307 779 C296 779 288 770 284 760 L259 709 L234 760 C230 770 222 779 211 779 L117 779 C106 779 98 771 98 760 L184 586 C189 575 197 571 209 571 L309 571 Z M454 361 C449 451 422 520 328 520 L314 520 C293 520 251 513 218 470 L209 470 L209 496 C209 507 201 515 190 515 L84 515 C73 515 65 507 65 496 L65 19 C65 8 73 0 84 0 L190 0 C201 0 209 8 209 19 L209 339 C223 383 246 387 261 387 L277 387 C295 387 310 373 310 352 L310 19 C310 8 318 0 329 0 L435 0 C446 0 454 8 454 19 L454 361 Z " />
<glyph glyph-name="Eng" unicode="&#x14a;" horiz-adv-x="606" d="M386 -188 C386 -188 550 -142 550 14 L550 681 C550 692 542 700 531 700 L425 700 C414 700 406 692 406 681 L406 321 L399 321 L238 684 C233 694 227 700 212 700 L84 700 C73 700 65 692 65 681 L65 19 C65 8 73 0 84 0 L190 0 C201 0 209 8 209 19 L209 373 L216 373 L391 -18 C380 -32 362 -47 331 -56 C323 -58 319 -66 319 -73 C319 -75 320 -78 321 -80 L361 -178 C364 -186 370 -190 377 -190 C379 -190 384 -189 386 -188 L386 -188 Z " />
<glyph glyph-name="eng" unicode="&#x14b;" horiz-adv-x="509" d="M290 -188 C290 -188 454 -142 454 14 L454 361 C449 451 422 520 328 520 L314 520 C293 520 251 513 218 470 L209 470 L209 496 C209 507 201 515 190 515 L84 515 C73 515 65 507 65 496 L65 19 C65 8 73 0 84 0 L190 0 C201 0 209 8 209 19 L209 339 C223 383 246 387 261 387 L277 387 C295 387 310 373 310 352 L310 19 C310 19 308 -35 235 -56 C227 -58 223 -66 223 -73 C223 -75 224 -78 225 -80 L265 -178 C268 -186 274 -190 281 -190 C283 -190 288 -189 290 -188 L290 -188 Z " />
<glyph glyph-name="Omacron" unicode="&#x14c;" horiz-adv-x="567" d="M428 751 C439 751 447 759 447 770 L447 854 C447 865 439 873 428 873 L139 873 C128 873 120 865 120 854 L120 770 C120 759 128 751 139 751 L428 751 Z M244 129 C220 129 199 151 199 178 L199 522 C199 549 220 571 244 571 L323 571 C347 571 368 549 368 522 L368 178 C368 151 347 129 323 129 L244 129 Z M329 -5 C431 -5 512 73 512 171 L512 529 C512 627 431 705 329 705 L238 705 C136 705 55 627 55 529 L55 171 C55 73 136 -5 238 -5 L329 -5 Z " />
<glyph glyph-name="omacron" unicode="&#x14d;" horiz-adv-x="481" d="M363 571 C374 571 382 579 382 590 L382 674 C382 685 374 693 363 693 L119 693 C108 693 100 685 100 674 L100 590 C100 579 108 571 119 571 L363 571 Z M207 520 C111 520 50 440 50 362 L50 152 C50 75 111 -5 207 -5 L274 -5 C370 -5 431 75 431 152 L431 362 C431 440 370 520 274 520 L207 520 Z M257 387 C272 387 287 373 287 357 L287 158 C287 142 272 128 257 128 L224 128 C209 128 194 142 194 158 L194 357 C194 373 209 387 224 387 L257 387 Z " />
<glyph glyph-name="Ohungarumlaut" unicode="&#x150;" horiz-adv-x="567" d="M256 751 C267 751 275 760 279 769 L328 903 C328 913 321 921 310 921 L210 921 C199 921 191 912 187 903 L138 769 C138 759 146 751 156 751 L256 751 Z M427 751 C438 751 446 760 450 769 L499 903 C499 913 492 921 481 921 L381 921 C370 921 362 912 358 903 L309 769 C309 759 317 751 327 751 L427 751 Z M244 129 C220 129 199 151 199 178 L199 522 C199 549 220 571 244 571 L323 571 C347 571 368 549 368 522 L368 178 C368 151 347 129 323 129 L244 129 Z M329 -5 C431 -5 512 73 512 171 L512 529 C512 627 431 705 329 705 L238 705 C136 705 55 627 55 529 L55 171 C55 73 136 -5 238 -5 L329 -5 Z " />
<glyph glyph-name="ohungarumlaut" unicode="&#x151;" horiz-adv-x="481" d="M188 571 C199 571 207 580 211 589 L260 723 C260 733 253 741 242 741 L142 741 C131 741 123 732 119 723 L70 589 C70 579 78 571 88 571 L188 571 Z M359 571 C370 571 378 580 382 589 L431 723 C431 733 424 741 413 741 L313 741 C302 741 294 732 290 723 L241 589 C241 579 249 571 259 571 L359 571 Z M207 520 C111 520 50 440 50 362 L50 152 C50 75 111 -5 207 -5 L274 -5 C370 -5 431 75 431 152 L431 362 C431 440 370 520 274 520 L207 520 Z M257 387 C272 387 287 373 287 357 L287 158 C287 142 272 128 257 128 L224 128 C209 128 194 142 194 158 L194 357 C194 373 209 387 224 387 L257 387 Z " />
<glyph glyph-name="OE" unicode="&#x152;" horiz-adv-x="812" d="M512 485 L512 566 L738 566 C749 566 757 574 757 585 L757 681 C757 692 749 700 738 700 L238 700 C136 700 55 622 55 524 L55 176 C55 78 136 0 238 0 L738 0 C749 0 757 8 757 19 L757 115 C757 126 749 134 738 134 L512 134 L512 296 L716 296 C727 296 735 304 735 315 L735 411 C735 422 727 430 716 430 L512 430 L512 485 Z M368 179 C366 154 346 134 323 134 L244 134 C220 134 199 156 199 183 L199 517 C199 544 220 566 244 566 L323 566 C347 566 368 544 368 517 L368 179 Z " />
<glyph glyph-name="oe" unicode="&#x153;" horiz-adv-x="713" d="M207 520 C111 520 50 440 50 362 L50 152 C50 75 111 -5 207 -5 L274 -5 C306 -5 335 4 359 19 C382 4 411 -5 444 -5 L502 -5 C502 -5 604 -4 653 74 C655 77 656 82 656 85 C656 91 654 95 648 100 L581 155 C578 157 573 158 570 158 C563 158 558 155 554 150 C544 141 529 128 502 128 L461 128 C446 128 431 142 431 158 L431 195 L649 195 C660 195 668 203 668 214 L668 362 C668 440 608 520 511 520 L444 520 C411 520 382 511 359 495 C335 511 306 520 274 520 L207 520 Z M257 387 C272 387 287 373 287 357 L287 158 C287 142 272 128 257 128 L224 128 C209 128 194 142 194 158 L194 357 C194 373 209 387 224 387 L257 387 Z M461 387 L494 387 C509 387 525 373 525 357 L525 315 L431 315 L431 360 C433 375 447 387 461 387 L461 387 Z " />
<glyph glyph-name="Racute" unicode="&#x154;" horiz-adv-x="567" d="M322 751 C333 751 341 760 345 769 L405 906 C405 916 398 924 387 924 L287 924 C276 924 268 915 264 906 L204 769 C204 759 212 751 222 751 L322 751 Z M432 229 C481 260 513 314 513 375 L513 524 C513 622 431 700 330 700 L84 700 C73 700 65 692 65 681 L65 19 C65 8 73 0 84 0 L190 0 C201 0 209 8 209 19 L209 199 L291 199 L373 19 C378 9 387 0 398 0 L513 0 C524 0 532 8 532 19 L432 229 Z M209 566 L323 566 C348 566 369 544 369 517 L369 382 C369 355 348 333 323 333 L209 333 L209 566 Z " />
<glyph glyph-name="racute" unicode="&#x155;" horiz-adv-x="380" d="M192 571 C203 571 211 580 215 589 L275 726 C275 736 268 744 257 744 L157 744 C146 744 138 735 134 726 L74 589 C74 579 82 571 92 571 L192 571 Z M350 514 C338 519 326 520 310 520 C290 520 247 520 218 465 L209 465 L209 496 C209 507 201 515 190 515 L84 515 C73 515 65 507 65 496 L65 19 C65 8 73 0 84 0 L190 0 C201 0 209 8 209 19 L209 339 C234 384 272 387 293 387 C315 387 334 381 338 381 C349 381 357 389 357 400 L365 492 C365 504 362 509 350 514 L350 514 Z " />
<glyph glyph-name="uni0156" unicode="&#x156;" horiz-adv-x="567" d="M306 -214 C317 -214 325 -205 329 -196 L368 -71 C368 -61 361 -53 350 -53 L250 -53 C239 -53 231 -62 227 -71 L188 -196 C188 -206 196 -214 206 -214 L306 -214 Z M432 229 C481 260 513 314 513 375 L513 524 C513 622 431 700 330 700 L84 700 C73 700 65 692 65 681 L65 19 C65 8 73 0 84 0 L190 0 C201 0 209 8 209 19 L209 199 L291 199 L373 19 C378 9 387 0 398 0 L513 0 C524 0 532 8 532 19 L432 229 Z M209 566 L323 566 C348 566 369 544 369 517 L369 382 C369 355 348 333 323 333 L209 333 L209 566 Z " />
<glyph glyph-name="uni0157" unicode="&#x157;" horiz-adv-x="380" d="M188 -214 C199 -214 207 -205 211 -196 L250 -71 C250 -61 243 -53 232 -53 L132 -53 C121 -53 113 -62 109 -71 L70 -196 C70 -206 78 -214 88 -214 L188 -214 Z M350 514 C338 519 326 520 310 520 C290 520 247 520 218 465 L209 465 L209 496 C209 507 201 515 190 515 L84 515 C73 515 65 507 65 496 L65 19 C65 8 73 0 84 0 L190 0 C201 0 209 8 209 19 L209 339 C234 384 272 387 293 387 C315 387 334 381 338 381 C349 381 357 389 357 400 L365 492 C365 504 362 509 350 514 L350 514 Z " />
<glyph glyph-name="Rcaron" unicode="&#x158;" horiz-adv-x="567" d="M298 751 C310 751 318 755 323 766 L409 940 C409 951 401 959 390 959 L296 959 C285 959 277 950 273 940 L248 889 L223 940 C219 950 211 959 200 959 L106 959 C95 959 87 951 87 940 L173 766 C178 755 186 751 198 751 L298 751 Z M432 229 C481 260 513 314 513 375 L513 524 C513 622 431 700 330 700 L84 700 C73 700 65 692 65 681 L65 19 C65 8 73 0 84 0 L190 0 C201 0 209 8 209 19 L209 199 L291 199 L373 19 C378 9 387 0 398 0 L513 0 C524 0 532 8 532 19 L432 229 Z M209 566 L323 566 C348 566 369 544 369 517 L369 382 C369 355 348 333 323 333 L209 333 L209 566 Z " />
<glyph glyph-name="rcaron" unicode="&#x159;" horiz-adv-x="380" d="M262 571 C273 571 280 575 285 585 L365 746 C365 757 357 764 347 764 L260 764 C250 764 242 756 239 746 L215 699 L192 746 C188 756 181 764 171 764 L84 764 C73 764 66 757 66 746 L146 585 C150 575 158 571 169 571 L262 571 Z M350 514 C338 519 326 520 310 520 C290 520 247 520 218 465 L209 465 L209 496 C209 507 201 515 190 515 L84 515 C73 515 65 507 65 496 L65 19 C65 8 73 0 84 0 L190 0 C201 0 209 8 209 19 L209 339 C234 384 272 387 293 387 C315 387 334 381 338 381 C349 381 357 389 357 400 L365 492 C365 504 362 509 350 514 L350 514 Z " />
<glyph glyph-name="Sacute" unicode="&#x15a;" horiz-adv-x="534" d="M211 751 C201 751 193 759 193 769 L253 906 C257 915 265 924 276 924 L376 924 C387 924 394 916 394 906 L334 769 C330 760 322 751 311 751 L211 751 Z M218 705 C117 705 35 627 35 529 L35 507 C35 215 350 336 350 202 L350 178 C350 151 328 129 303 129 L225 129 C200 129 179 151 179 178 L179 204 C179 215 171 223 160 223 L54 223 C43 223 35 215 35 204 L35 171 C35 73 117 -5 218 -5 L311 -5 C412 -5 494 73 494 171 L494 187 C494 482 179 352 179 496 L179 522 C179 549 201 571 226 571 L294 571 C319 571 340 549 340 522 L340 502 C340 491 348 483 359 483 L465 483 C476 483 484 491 484 502 L484 529 C484 627 402 705 302 705 L218 705 Z " />
<glyph glyph-name="sacute" unicode="&#x15b;" horiz-adv-x="455" d="M277 571 C288 571 296 580 300 589 L360 726 C360 736 353 744 342 744 L242 744 C231 744 223 735 219 726 L159 589 C159 579 167 571 177 571 L277 571 Z M239 392 C255 392 270 378 270 362 L270 356 C270 345 278 337 289 337 L395 337 C406 337 414 345 414 356 L414 363 C414 440 353 520 257 520 L197 520 C101 520 45 451 40 373 L40 365 C40 168 277 223 277 162 L277 145 C277 131 262 123 246 123 L215 123 C199 123 184 137 184 153 L184 164 C184 175 176 183 165 183 L59 183 C48 183 40 175 40 164 L40 152 C40 75 101 -5 197 -5 L263 -5 C360 -5 420 63 420 141 L420 155 C420 350 184 293 184 358 L184 370 C184 384 199 392 215 392 L239 392 Z " />
<glyph glyph-name="Scircumflex" unicode="&#x15c;" horiz-adv-x="534" d="M312 959 C324 959 332 955 337 944 L423 770 C423 759 415 751 404 751 L310 751 C299 751 291 760 287 770 L262 821 L237 770 C233 760 225 751 214 751 L120 751 C109 751 101 759 101 770 L187 944 C192 955 200 959 212 959 L312 959 Z M218 705 C117 705 35 627 35 529 L35 507 C35 215 350 336 350 202 L350 178 C350 151 328 129 303 129 L225 129 C200 129 179 151 179 178 L179 204 C179 215 171 223 160 223 L54 223 C43 223 35 215 35 204 L35 171 C35 73 117 -5 218 -5 L311 -5 C412 -5 494 73 494 171 L494 187 C494 482 179 352 179 496 L179 522 C179 549 201 571 226 571 L294 571 C319 571 340 549 340 522 L340 502 C340 491 348 483 359 483 L465 483 C476 483 484 491 484 502 L484 529 C484 627 402 705 302 705 L218 705 Z " />
<glyph glyph-name="scircumflex" unicode="&#x15d;" horiz-adv-x="455" d="M179 779 C167 779 159 775 154 764 L68 590 C68 579 76 571 87 571 L181 571 C192 571 200 580 204 590 L229 641 L254 590 C258 580 266 571 277 571 L371 571 C382 571 390 579 390 590 L304 764 C299 775 291 779 279 779 L179 779 Z M239 392 C255 392 270 378 270 362 L270 356 C270 345 278 337 289 337 L395 337 C406 337 414 345 414 356 L414 363 C414 440 353 520 257 520 L197 520 C101 520 45 451 40 373 L40 365 C40 168 277 223 277 162 L277 145 C277 131 262 123 246 123 L215 123 C199 123 184 137 184 153 L184 164 C184 175 176 183 165 183 L59 183 C48 183 40 175 40 164 L40 152 C40 75 101 -5 197 -5 L263 -5 C360 -5 420 63 420 141 L420 155 C420 350 184 293 184 358 L184 370 C184 384 199 392 215 392 L239 392 Z " />
<glyph glyph-name="Scedilla" unicode="&#x15e;" horiz-adv-x="534" d="M179 496 L179 522 C179 549 201 571 226 571 L294 571 C319 571 340 549 340 522 L340 502 C340 491 348 483 359 483 L465 483 C476 483 484 491 484 502 L484 529 C484 627 402 705 302 705 L218 705 C117 705 35 627 35 529 L35 507 C35 215 350 336 350 202 L350 178 C350 151 328 129 303 129 L225 129 C200 129 179 151 179 178 L179 204 C179 215 171 223 160 223 L54 223 C43 223 35 215 35 204 L35 171 C35 73 117 -5 218 -5 L222 -5 L207 -32 C204 -37 202 -45 202 -48 L202 -77 C202 -85 209 -92 217 -92 L267 -92 C267 -92 279 -92 279 -105 C279 -118 267 -118 267 -118 L205 -118 C197 -118 190 -124 190 -133 L190 -180 C190 -188 197 -195 205 -195 L292 -195 C352 -195 369 -168 369 -93 C369 -53 341 -29 308 -23 L318 -4 C416 -1 494 76 494 171 L494 187 C494 482 179 352 179 496 L179 496 Z " />
<glyph glyph-name="scedilla" unicode="&#x15f;" horiz-adv-x="455" d="M226 -92 C226 -92 238 -92 238 -105 C238 -118 226 -118 226 -118 L164 -118 C156 -118 149 -124 149 -133 L149 -180 C149 -188 156 -195 164 -195 L251 -195 C311 -195 328 -168 328 -93 C328 -53 300 -29 267 -23 L278 -4 C366 2 420 67 420 141 L420 155 C420 350 184 293 184 358 L184 370 C184 384 199 392 215 392 L239 392 C255 392 270 378 270 362 L270 356 C270 345 278 337 289 337 L395 337 C406 337 414 345 414 356 L414 363 C414 440 353 520 257 520 L197 520 C101 520 45 451 40 373 L40 365 C40 168 277 223 277 162 L277 145 C277 131 262 123 246 123 L215 123 C199 123 184 137 184 153 L184 164 C184 175 176 183 165 183 L59 183 C48 183 40 175 40 164 L40 152 C40 79 95 3 182 -4 L166 -32 C163 -37 161 -45 161 -48 L161 -77 C161 -85 168 -92 176 -92 L226 -92 Z " />
<glyph glyph-name="Scaron" unicode="&#x160;" horiz-adv-x="534" d="M214 751 C202 751 194 755 189 766 L103 940 C103 951 111 959 122 959 L216 959 C227 959 235 950 239 940 L264 889 L289 940 C293 950 301 959 312 959 L406 959 C417 959 425 951 425 940 L339 766 C334 755 326 751 314 751 L214 751 Z M218 705 C117 705 35 627 35 529 L35 507 C35 215 350 336 350 202 L350 178 C350 151 328 129 303 129 L225 129 C200 129 179 151 179 178 L179 204 C179 215 171 223 160 223 L54 223 C43 223 35 215 35 204 L35 171 C35 73 117 -5 218 -5 L311 -5 C412 -5 494 73 494 171 L494 187 C494 482 179 352 179 496 L179 522 C179 549 201 571 226 571 L294 571 C319 571 340 549 340 522 L340 502 C340 491 348 483 359 483 L465 483 C476 483 484 491 484 502 L484 529 C484 627 402 705 302 705 L218 705 Z " />
<glyph glyph-name="scaron" unicode="&#x161;" horiz-adv-x="455" d="M278 571 C290 571 298 575 303 586 L389 760 C389 771 381 779 370 779 L276 779 C265 779 257 770 253 760 L228 709 L203 760 C199 770 191 779 180 779 L86 779 C75 779 67 771 67 760 L153 586 C158 575 166 571 178 571 L278 571 Z M239 392 C255 392 270 378 270 362 L270 356 C270 345 278 337 289 337 L395 337 C406 337 414 345 414 356 L414 363 C414 440 353 520 257 520 L197 520 C101 520 45 451 40 373 L40 365 C40 168 277 223 277 162 L277 145 C277 131 262 123 246 123 L215 123 C199 123 184 137 184 153 L184 164 C184 175 176 183 165 183 L59 183 C48 183 40 175 40 164 L40 152 C40 75 101 -5 197 -5 L263 -5 C360 -5 420 63 420 141 L420 155 C420 350 184 293 184 358 L184 370 C184 384 199 392 215 392 L239 392 Z " />
<glyph glyph-name="uni0162" unicode="&#x162;" horiz-adv-x="504" d="M297 0 C309 0 314 -10 314 -20 C314 -41 297 -41 297 -41 L243 -41 C235 -41 228 -47 228 -56 L228 -108 C228 -116 235 -123 243 -123 L314 -123 C373 -123 404 -79 404 -34 C404 -17 403 60 324 73 L324 566 L455 566 C466 566 474 574 474 585 L474 681 C474 692 466 700 455 700 L49 700 C38 700 30 692 30 681 L30 585 C30 574 38 566 49 566 L180 566 L180 19 C180 8 188 0 199 0 L297 0 Z " />
<glyph glyph-name="uni0163" unicode="&#x163;" horiz-adv-x="364" d="M222 -92 C222 -92 234 -92 234 -105 C234 -118 222 -118 222 -118 L160 -118 C152 -118 145 -124 145 -133 L145 -180 C145 -188 152 -195 160 -195 L247 -195 C307 -195 324 -168 324 -93 C324 -53 296 -29 263 -23 L276 0 L320 0 C331 0 339 8 339 19 L339 113 C339 124 331 132 320 132 L277 132 C259 132 241 148 241 167 L241 382 L320 382 C331 382 339 390 339 401 L339 496 C339 507 331 515 320 515 L241 515 L241 681 C241 692 233 700 222 700 L116 700 C105 700 97 692 97 681 L97 515 L39 515 C28 515 20 507 20 496 L20 401 C20 390 28 382 39 382 L97 382 L97 167 C97 94 131 37 188 13 L162 -32 C159 -37 157 -45 157 -48 L157 -77 C157 -85 164 -92 172 -92 L222 -92 Z " />
<glyph glyph-name="Tcaron" unicode="&#x164;" horiz-adv-x="504" d="M302 751 C314 751 322 755 327 766 L413 940 C413 951 405 959 394 959 L300 959 C289 959 281 950 277 940 L252 889 L227 940 C223 950 215 959 204 959 L110 959 C99 959 91 951 91 940 L177 766 C182 755 190 751 202 751 L302 751 Z M180 566 L180 19 C180 8 188 0 199 0 L305 0 C316 0 324 8 324 19 L324 566 L455 566 C466 566 474 574 474 585 L474 681 C474 692 466 700 455 700 L49 700 C38 700 30 692 30 681 L30 585 C30 574 38 566 49 566 L180 566 Z " />
<glyph glyph-name="tcaron" unicode="&#x165;" horiz-adv-x="527" d="M441 556 C452 556 460 565 464 574 L512 682 C512 692 505 700 494 700 L394 700 C383 700 375 691 371 682 L323 574 C323 564 331 556 341 556 L441 556 Z M241 382 L320 382 C331 382 339 390 339 401 L339 496 C339 507 331 515 320 515 L241 515 L241 681 C241 692 233 700 222 700 L116 700 C105 700 97 692 97 681 L97 515 L39 515 C28 515 20 507 20 496 L20 401 C20 390 28 382 39 382 L97 382 L97 167 C97 69 158 0 254 0 L320 0 C331 0 339 8 339 19 L339 113 C339 124 331 132 320 132 L277 132 C259 132 241 148 241 167 L241 382 Z " />
<glyph glyph-name="Tbar" unicode="&#x166;" horiz-adv-x="504" d="M397 272 C408 272 416 280 416 291 L416 371 C416 382 408 390 397 390 L324 390 L324 566 L455 566 C466 566 474 574 474 585 L474 681 C474 692 466 700 455 700 L49 700 C38 700 30 692 30 681 L30 585 C30 574 38 566 49 566 L180 566 L180 390 L106 390 C95 390 87 382 87 371 L87 291 C87 280 95 272 106 272 L180 272 L180 19 C180 8 188 0 199 0 L305 0 C316 0 324 8 324 19 L324 272 L397 272 Z " />
<glyph glyph-name="tbar" unicode="&#x167;" horiz-adv-x="364" d="M320 221 C331 221 339 229 339 240 L339 320 C339 331 331 339 320 339 L241 339 L241 397 L320 397 C331 397 339 405 339 416 L339 496 C339 507 331 515 320 515 L241 515 L241 681 C241 692 233 700 222 700 L116 700 C105 700 97 692 97 681 L97 515 L39 515 C28 515 20 507 20 496 L20 416 C20 405 28 397 39 397 L97 397 L97 339 L39 339 C28 339 20 331 20 320 L20 240 C20 229 28 221 39 221 L97 221 L97 167 C97 69 158 0 254 0 L320 0 C331 0 339 8 339 19 L339 113 C339 124 331 132 320 132 L277 132 C259 132 241 148 241 167 L241 221 L320 221 Z " />
<glyph glyph-name="Utilde" unicode="&#x168;" horiz-adv-x="577" d="M364 751 C391 751 418 764 444 780 C452 786 456 795 456 804 L432 882 C430 889 422 895 412 895 C409 895 405 895 402 894 C391 889 372 885 364 885 C315 885 274 924 226 924 C199 924 172 911 146 895 C138 889 134 880 134 871 L158 793 C160 786 168 780 178 780 C181 780 185 780 188 781 C199 786 218 790 226 790 C276 790 316 751 364 751 L364 751 Z M517 681 C517 692 509 700 498 700 L392 700 C381 700 373 692 373 681 L373 178 C373 151 352 129 328 129 L249 129 C225 129 204 151 204 178 L204 681 C204 692 196 700 185 700 L79 700 C68 700 60 692 60 681 L60 171 C60 73 141 -5 243 -5 L334 -5 C436 -5 517 73 517 171 L517 681 Z " />
<glyph glyph-name="utilde" unicode="&#x169;" horiz-adv-x="488" d="M276 -5 C372 -5 433 75 433 152 L433 496 C433 507 425 515 414 515 L308 515 C297 515 289 507 289 496 L289 158 C289 142 274 128 259 128 L229 128 C214 128 199 142 199 158 L199 496 C199 507 191 515 180 515 L74 515 C63 515 55 507 55 496 L55 152 C55 75 116 -5 212 -5 L276 -5 Z M299 571 C326 571 353 584 379 600 C387 606 391 615 391 624 L367 702 C365 709 357 715 347 715 C344 715 340 715 337 714 C326 709 307 705 299 705 C250 705 240 742 192 742 C165 742 138 729 112 713 C104 707 100 698 100 689 L124 611 C126 604 134 598 144 598 C147 598 151 598 154 599 C165 604 184 608 192 608 C242 608 251 571 299 571 L299 571 Z " />
<glyph glyph-name="Umacron" unicode="&#x16a;" horiz-adv-x="577" d="M425 751 C436 751 444 759 444 770 L444 854 C444 865 436 873 425 873 L151 873 C140 873 132 865 132 854 L132 770 C132 759 140 751 151 751 L425 751 Z M517 681 C517 692 509 700 498 700 L392 700 C381 700 373 692 373 681 L373 178 C373 151 352 129 328 129 L249 129 C225 129 204 151 204 178 L204 681 C204 692 196 700 185 700 L79 700 C68 700 60 692 60 681 L60 171 C60 73 141 -5 243 -5 L334 -5 C436 -5 517 73 517 171 L517 681 Z " />
<glyph glyph-name="umacron" unicode="&#x16b;" horiz-adv-x="488" d="M372 571 C383 571 391 579 391 590 L391 674 C391 685 383 693 372 693 L117 693 C106 693 98 685 98 674 L98 590 C98 579 106 571 117 571 L372 571 Z M276 -5 C372 -5 433 75 433 152 L433 496 C433 507 425 515 414 515 L308 515 C297 515 289 507 289 496 L289 158 C289 142 274 128 259 128 L229 128 C214 128 199 142 199 158 L199 496 C199 507 191 515 180 515 L74 515 C63 515 55 507 55 496 L55 152 C55 75 116 -5 212 -5 L276 -5 Z " />
<glyph glyph-name="Ubreve" unicode="&#x16c;" horiz-adv-x="577" d="M517 681 C517 692 509 700 498 700 L392 700 C381 700 373 692 373 681 L373 178 C373 151 352 129 328 129 L249 129 C225 129 204 151 204 178 L204 681 C204 692 196 700 185 700 L79 700 C68 700 60 692 60 681 L60 171 C60 73 141 -5 243 -5 L334 -5 C436 -5 517 73 517 171 L517 681 Z M292 751 C393 751 447 797 458 909 C458 919 451 926 441 926 L355 926 C345 926 337 919 333 909 C326 875 312 870 292 870 C272 870 258 875 251 909 C247 919 239 926 229 926 L143 926 C133 926 126 919 126 909 C137 797 191 751 292 751 L292 751 Z " />
<glyph glyph-name="ubreve" unicode="&#x16d;" horiz-adv-x="488" d="M276 -5 C372 -5 433 75 433 152 L433 496 C433 507 425 515 414 515 L308 515 C297 515 289 507 289 496 L289 158 C289 142 274 128 259 128 L229 128 C214 128 199 142 199 158 L199 496 C199 507 191 515 180 515 L74 515 C63 515 55 507 55 496 L55 152 C55 75 116 -5 212 -5 L276 -5 Z M245 571 C346 571 400 617 411 729 C411 739 404 746 394 746 L308 746 C298 746 290 739 286 729 C279 695 265 690 245 690 C225 690 211 695 204 729 C200 739 192 746 182 746 L96 746 C86 746 79 739 79 729 C90 617 144 571 245 571 L245 571 Z " />
<glyph glyph-name="Uring" unicode="&#x16e;" horiz-adv-x="577" d="M291 1002 C214 1002 150 939 150 860 C150 783 214 719 291 719 C371 719 434 783 434 860 C434 939 371 1002 291 1002 L291 1002 Z M291 819 C269 819 250 838 250 860 C250 883 269 902 291 902 C314 902 333 883 333 860 C333 838 314 819 291 819 L291 819 Z M517 681 C517 692 509 700 498 700 L392 700 C381 700 373 692 373 681 L373 178 C373 151 352 129 328 129 L249 129 C225 129 204 151 204 178 L204 681 C204 692 196 700 185 700 L79 700 C68 700 60 692 60 681 L60 171 C60 73 141 -5 243 -5 L334 -5 C436 -5 517 73 517 171 L517 681 Z " />
<glyph glyph-name="uring" unicode="&#x16f;" horiz-adv-x="488" d="M244 854 C167 854 103 791 103 712 C103 635 167 571 244 571 C324 571 387 635 387 712 C387 791 324 854 244 854 L244 854 Z M244 671 C222 671 203 690 203 712 C203 735 222 754 244 754 C267 754 286 735 286 712 C286 690 267 671 244 671 L244 671 Z M276 -5 C372 -5 433 75 433 152 L433 496 C433 507 425 515 414 515 L308 515 C297 515 289 507 289 496 L289 158 C289 142 274 128 259 128 L229 128 C214 128 199 142 199 158 L199 496 C199 507 191 515 180 515 L74 515 C63 515 55 507 55 496 L55 152 C55 75 116 -5 212 -5 L276 -5 Z " />
<glyph glyph-name="Uhungarumlaut" unicode="&#x170;" horiz-adv-x="577" d="M245 751 C256 751 264 760 268 769 L317 903 C317 913 310 921 299 921 L199 921 C188 921 180 912 176 903 L127 769 C127 759 135 751 145 751 L245 751 Z M416 751 C427 751 435 760 439 769 L488 903 C488 913 481 921 470 921 L370 921 C359 921 351 912 347 903 L298 769 C298 759 306 751 316 751 L416 751 Z M517 681 C517 692 509 700 498 700 L392 700 C381 700 373 692 373 681 L373 178 C373 151 352 129 328 129 L249 129 C225 129 204 151 204 178 L204 681 C204 692 196 700 185 700 L79 700 C68 700 60 692 60 681 L60 171 C60 73 141 -5 243 -5 L334 -5 C436 -5 517 73 517 171 L517 681 Z " />
<glyph glyph-name="uhungarumlaut" unicode="&#x171;" horiz-adv-x="488" d="M186 571 C197 571 205 580 209 589 L258 723 C258 733 251 741 240 741 L140 741 C129 741 121 732 117 723 L68 589 C68 579 76 571 86 571 L186 571 Z M357 571 C368 571 376 580 380 589 L429 723 C429 733 422 741 411 741 L311 741 C300 741 292 732 288 723 L239 589 C239 579 247 571 257 571 L357 571 Z M276 -5 C372 -5 433 75 433 152 L433 496 C433 507 425 515 414 515 L308 515 C297 515 289 507 289 496 L289 158 C289 142 274 128 259 128 L229 128 C214 128 199 142 199 158 L199 496 C199 507 191 515 180 515 L74 515 C63 515 55 507 55 496 L55 152 C55 75 116 -5 212 -5 L276 -5 Z " />
<glyph glyph-name="Uogonek" unicode="&#x172;" horiz-adv-x="577" d="M285 -92 C285 -92 297 -92 297 -105 C297 -118 285 -118 285 -118 L223 -118 C215 -118 208 -124 208 -133 L208 -180 C208 -188 215 -195 223 -195 L310 -195 C370 -195 387 -168 387 -93 C387 -53 359 -29 326 -23 L336 -5 C437 -3 517 74 517 171 L517 681 C517 692 509 700 498 700 L392 700 C381 700 373 692 373 681 L373 178 C373 151 352 129 328 129 L249 129 C225 129 204 151 204 178 L204 681 C204 692 196 700 185 700 L79 700 C68 700 60 692 60 681 L60 171 C60 74 139 -3 240 -5 L225 -32 C222 -37 220 -45 220 -48 L220 -77 C220 -85 227 -92 235 -92 L285 -92 Z " />
<glyph glyph-name="uogonek" unicode="&#x173;" horiz-adv-x="488" d="M433 152 L433 496 C433 507 425 515 414 515 L308 515 C297 515 289 507 289 496 L289 158 C289 142 274 128 259 128 L229 128 C214 128 199 142 199 158 L199 496 C199 507 191 515 180 515 L74 515 C63 515 55 507 55 496 L55 152 C55 79 109 4 196 -4 L196 -23 C163 -29 135 -53 135 -93 C135 -168 152 -195 212 -195 L287 -195 C295 -195 302 -188 302 -180 L302 -133 C302 -124 295 -118 287 -118 L237 -118 C237 -118 225 -118 225 -105 C225 -92 237 -92 237 -92 L277 -92 C285 -92 292 -85 292 -77 L292 -4 C378 4 433 79 433 152 L433 152 Z " />
<glyph glyph-name="Ydieresis" unicode="&#x178;" horiz-adv-x="568" d="M130 770 C130 759 138 751 149 751 L244 751 C255 751 263 759 263 770 L263 869 C263 880 255 888 244 888 L149 888 C138 888 130 880 130 869 L130 770 Z M308 770 C308 759 316 751 327 751 L422 751 C433 751 441 759 441 770 L441 869 C441 880 433 888 422 888 L327 888 C316 888 308 880 308 869 L308 770 Z M279 404 L162 681 C157 691 150 700 139 700 L34 700 C23 700 15 692 15 681 L212 226 L212 19 C212 8 220 0 231 0 L337 0 C348 0 356 8 356 19 L356 226 L553 681 C553 692 545 700 534 700 L429 700 C418 700 411 691 406 681 L289 404 L279 404 Z " />
<glyph glyph-name="Zacute" unicode="&#x179;" horiz-adv-x="505" d="M319 751 C330 751 338 760 342 769 L402 906 C402 916 395 924 384 924 L284 924 C273 924 265 915 261 906 L201 769 C201 759 209 751 219 751 L319 751 Z M218 134 L460 609 C462 613 465 621 465 626 L465 681 C465 692 457 700 446 700 L59 700 C48 700 40 692 40 681 L40 585 C40 574 48 566 59 566 L288 566 L45 91 C43 88 40 80 40 75 L40 19 C40 8 48 0 59 0 L446 0 C457 0 465 8 465 19 L465 115 C465 126 457 134 446 134 L218 134 Z " />
<glyph glyph-name="zacute" unicode="&#x17a;" horiz-adv-x="423" d="M264 571 C275 571 283 580 287 589 L347 726 C347 736 340 744 329 744 L229 744 C218 744 210 735 206 726 L146 589 C146 579 154 571 164 571 L264 571 Z M215 134 L382 424 C387 433 388 438 388 444 L388 496 C388 507 380 515 369 515 L54 515 C43 515 35 507 35 496 L35 400 C35 389 43 381 54 381 L210 381 L41 91 C37 85 35 80 35 74 L35 19 C35 8 43 0 54 0 L369 0 C380 0 388 8 388 19 L388 115 C388 126 380 134 369 134 L215 134 Z " />
<glyph glyph-name="Zdotaccent" unicode="&#x17b;" horiz-adv-x="505" d="M187 770 C187 759 195 751 206 751 L301 751 C312 751 320 759 320 770 L320 869 C320 880 312 888 301 888 L206 888 C195 888 187 880 187 869 L187 770 Z M218 134 L460 609 C462 613 465 621 465 626 L465 681 C465 692 457 700 446 700 L59 700 C48 700 40 692 40 681 L40 585 C40 574 48 566 59 566 L288 566 L45 91 C43 88 40 80 40 75 L40 19 C40 8 48 0 59 0 L446 0 C457 0 465 8 465 19 L465 115 C465 126 457 134 446 134 L218 134 Z " />
<glyph glyph-name="zdotaccent" unicode="&#x17c;" horiz-adv-x="423" d="M146 590 C146 579 154 571 165 571 L260 571 C271 571 279 579 279 590 L279 689 C279 700 271 708 260 708 L165 708 C154 708 146 700 146 689 L146 590 Z M215 134 L382 424 C387 433 388 438 388 444 L388 496 C388 507 380 515 369 515 L54 515 C43 515 35 507 35 496 L35 400 C35 389 43 381 54 381 L210 381 L41 91 C37 85 35 80 35 74 L35 19 C35 8 43 0 54 0 L369 0 C380 0 388 8 388 19 L388 115 C388 126 380 134 369 134 L215 134 Z " />
<glyph glyph-name="Zcaron" unicode="&#x17d;" horiz-adv-x="505" d="M302 751 C314 751 322 755 327 766 L413 940 C413 951 405 959 394 959 L300 959 C289 959 281 950 277 940 L252 889 L227 940 C223 950 215 959 204 959 L110 959 C99 959 91 951 91 940 L177 766 C182 755 190 751 202 751 L302 751 Z M218 134 L460 609 C462 613 465 621 465 626 L465 681 C465 692 457 700 446 700 L59 700 C48 700 40 692 40 681 L40 585 C40 574 48 566 59 566 L288 566 L45 91 C43 88 40 80 40 75 L40 19 C40 8 48 0 59 0 L446 0 C457 0 465 8 465 19 L465 115 C465 126 457 134 446 134 L218 134 Z " />
<glyph glyph-name="zcaron" unicode="&#x17e;" horiz-adv-x="423" d="M261 571 C273 571 281 575 286 586 L372 760 C372 771 364 779 353 779 L259 779 C248 779 240 770 236 760 L211 709 L186 760 C182 770 174 779 163 779 L69 779 C58 779 50 771 50 760 L136 586 C141 575 149 571 161 571 L261 571 Z M215 134 L382 424 C387 433 388 438 388 444 L388 496 C388 507 380 515 369 515 L54 515 C43 515 35 507 35 496 L35 400 C35 389 43 381 54 381 L210 381 L41 91 C37 85 35 80 35 74 L35 19 C35 8 43 0 54 0 L369 0 C380 0 388 8 388 19 L388 115 C388 126 380 134 369 134 L215 134 Z " />
<glyph glyph-name="florin" unicode="&#x192;" horiz-adv-x="363" d="M-40 -156 C-40 -167 -34 -174 -23 -174 L81 -174 C92 -174 100 -166 103 -155 C144 9 193 184 234 348 L317 348 C328 348 336 356 336 367 L336 463 C336 474 328 482 317 482 L269 482 C273 500 278 519 281 536 C285 552 298 568 312 568 L353 568 C364 568 372 576 372 587 L372 681 C372 692 364 700 353 700 L295 700 C199 700 157 619 139 544 L125 482 L49 482 C38 482 30 474 30 463 L30 367 C30 356 38 348 49 348 L90 348 L-40 -156 Z " />
<glyph glyph-name="uni0218" unicode="&#x218;" horiz-adv-x="534" d="M271 -214 C282 -214 290 -205 294 -196 L333 -71 C333 -61 326 -53 315 -53 L215 -53 C204 -53 196 -62 192 -71 L153 -196 C153 -206 161 -214 171 -214 L271 -214 Z M218 705 C117 705 35 627 35 529 L35 507 C35 215 350 336 350 202 L350 178 C350 151 328 129 303 129 L225 129 C200 129 179 151 179 178 L179 204 C179 215 171 223 160 223 L54 223 C43 223 35 215 35 204 L35 171 C35 73 117 -5 218 -5 L311 -5 C412 -5 494 73 494 171 L494 187 C494 482 179 352 179 496 L179 522 C179 549 201 571 226 571 L294 571 C319 571 340 549 340 522 L340 502 C340 491 348 483 359 483 L465 483 C476 483 484 491 484 502 L484 529 C484 627 402 705 302 705 L218 705 Z " />
<glyph glyph-name="uni0219" unicode="&#x219;" horiz-adv-x="455" d="M244 -214 C255 -214 263 -205 267 -196 L306 -71 C306 -61 299 -53 288 -53 L188 -53 C177 -53 169 -62 165 -71 L126 -196 C126 -206 134 -214 144 -214 L244 -214 Z M239 392 C255 392 270 378 270 362 L270 356 C270 345 278 337 289 337 L395 337 C406 337 414 345 414 356 L414 363 C414 440 353 520 257 520 L197 520 C101 520 45 451 40 373 L40 365 C40 168 277 223 277 162 L277 145 C277 131 262 123 246 123 L215 123 C199 123 184 137 184 153 L184 164 C184 175 176 183 165 183 L59 183 C48 183 40 175 40 164 L40 152 C40 75 101 -5 197 -5 L263 -5 C360 -5 420 63 420 141 L420 155 C420 350 184 293 184 358 L184 370 C184 384 199 392 215 392 L239 392 Z " />
<glyph glyph-name="uni021A" unicode="&#x21a;" horiz-adv-x="504" d="M256 -214 C267 -214 275 -205 279 -196 L318 -71 C318 -61 311 -53 300 -53 L200 -53 C189 -53 181 -62 177 -71 L138 -196 C138 -206 146 -214 156 -214 L256 -214 Z M180 566 L180 19 C180 8 188 0 199 0 L305 0 C316 0 324 8 324 19 L324 566 L455 566 C466 566 474 574 474 585 L474 681 C474 692 466 700 455 700 L49 700 C38 700 30 692 30 681 L30 585 C30 574 38 566 49 566 L180 566 Z " />
<glyph glyph-name="uni021B" unicode="&#x21b;" horiz-adv-x="364" d="M245 -214 C256 -214 264 -205 268 -196 L307 -71 C307 -61 300 -53 289 -53 L189 -53 C178 -53 170 -62 166 -71 L127 -196 C127 -206 135 -214 145 -214 L245 -214 Z M241 382 L320 382 C331 382 339 390 339 401 L339 496 C339 507 331 515 320 515 L241 515 L241 681 C241 692 233 700 222 700 L116 700 C105 700 97 692 97 681 L97 515 L39 515 C28 515 20 507 20 496 L20 401 C20 390 28 382 39 382 L97 382 L97 167 C97 69 158 0 254 0 L320 0 C331 0 339 8 339 19 L339 113 C339 124 331 132 320 132 L277 132 C259 132 241 148 241 167 L241 382 Z " />
<glyph glyph-name="circumflex" unicode="&#x2c6;" horiz-adv-x="452" d="M176 700 C164 700 156 696 151 685 L65 511 C65 500 73 492 84 492 L178 492 C189 492 197 501 201 511 L226 562 L251 511 C255 501 263 492 274 492 L368 492 C379 492 387 500 387 511 L301 685 C296 696 288 700 276 700 L176 700 Z " />
<glyph glyph-name="caron" unicode="&#x2c7;" horiz-adv-x="452" d="M276 492 C288 492 296 496 301 507 L387 681 C387 692 379 700 368 700 L274 700 C263 700 255 691 251 681 L226 630 L201 681 C197 691 189 700 178 700 L84 700 C73 700 65 692 65 681 L151 507 C156 496 164 492 176 492 L276 492 Z " />
<glyph glyph-name="breve" unicode="&#x2d8;" horiz-adv-x="462" d="M231 525 C332 525 386 571 397 683 C397 693 390 700 380 700 L294 700 C284 700 276 693 272 683 C265 649 251 644 231 644 C211 644 197 649 190 683 C186 693 178 700 168 700 L82 700 C72 700 65 693 65 683 C76 571 130 525 231 525 L231 525 Z " />
<glyph glyph-name="dotaccent" unicode="&#x2d9;" horiz-adv-x="278" d="M65 571 C65 560 73 552 84 552 L194 552 C205 552 213 560 213 571 L213 681 C213 692 205 700 194 700 L84 700 C73 700 65 692 65 681 L65 571 Z " />
<glyph glyph-name="ring" unicode="&#x2da;" horiz-adv-x="414" d="M206 751 C129 751 65 688 65 609 C65 532 129 468 206 468 C286 468 349 532 349 609 C349 688 286 751 206 751 L206 751 Z M206 568 C184 568 165 587 165 609 C165 632 184 651 206 651 C229 651 248 632 248 609 C248 587 229 568 206 568 L206 568 Z " />
<glyph glyph-name="ogonek" unicode="&#x2db;" horiz-adv-x="297" d="M145 27 C134 27 126 19 126 8 L126 -23 C93 -29 65 -53 65 -93 C65 -168 82 -195 142 -195 L217 -195 C225 -195 232 -188 232 -180 L232 -133 C232 -124 225 -118 217 -118 L167 -118 C167 -118 155 -118 155 -105 C155 -92 167 -92 167 -92 L207 -92 C215 -92 222 -85 222 -77 L222 8 C222 19 214 27 203 27 L145 27 Z " />
<glyph glyph-name="tilde" unicode="&#x2dc;" horiz-adv-x="421" d="M264 529 C291 529 318 542 344 558 C352 564 356 573 356 582 L332 660 C330 667 322 673 312 673 C309 673 305 673 302 672 C291 667 272 663 264 663 C215 663 205 700 157 700 C130 700 103 687 77 671 C69 665 65 656 65 647 L89 569 C91 562 99 556 109 556 C112 556 116 556 119 557 C130 562 149 566 157 566 C207 566 216 529 264 529 L264 529 Z " />
<glyph glyph-name="hungarumlaut" unicode="&#x2dd;" horiz-adv-x="491" d="M183 530 C194 530 202 539 206 548 L255 682 C255 692 248 700 237 700 L137 700 C126 700 118 691 114 682 L65 548 C65 538 73 530 83 530 L183 530 Z M354 530 C365 530 373 539 377 548 L426 682 C426 692 419 700 408 700 L308 700 C297 700 289 691 285 682 L236 548 C236 538 244 530 254 530 L354 530 Z " />
<glyph glyph-name="uni03A9" unicode="&#x3a9;" horiz-adv-x="698" d="M306 705 C204 705 123 627 123 529 L123 200 C123 187 125 156 136 134 L84 134 C73 134 65 126 65 115 L65 19 C65 8 73 0 84 0 L287 0 C298 0 306 8 306 19 L306 117 C306 126 301 136 292 140 C274 149 267 186 267 202 L267 522 C267 549 288 571 312 571 L386 571 C410 571 431 549 431 522 L431 202 C431 186 424 149 406 140 C397 136 392 126 392 117 L392 19 C392 8 400 0 411 0 L614 0 C625 0 633 8 633 19 L633 115 C633 126 625 134 614 134 L562 134 C573 156 575 187 575 200 L575 529 C575 627 494 705 392 705 L306 705 Z " />
<glyph glyph-name="pi" unicode="&#x3c0;" horiz-adv-x="748" d="M664 381 C675 381 683 389 683 400 L683 496 C683 507 675 515 664 515 L84 515 C73 515 65 507 65 496 L65 400 C65 389 73 381 84 381 L179 381 L179 19 C179 8 187 0 198 0 L304 0 C315 0 323 8 323 19 L323 381 L425 381 L425 19 C425 8 433 0 444 0 L550 0 C561 0 569 8 569 19 L569 381 L664 381 Z " />
<glyph glyph-name="ZWSP" unicode="&#x200b;" d="" />
<glyph glyph-name="endash" unicode="&#x2013;" horiz-adv-x="390" d="M306 181 C317 181 325 189 325 200 L325 296 C325 307 317 315 306 315 L84 315 C73 315 65 307 65 296 L65 200 C65 189 73 181 84 181 L306 181 Z " />
<glyph glyph-name="emdash" unicode="&#x2014;" horiz-adv-x="463" d="M379 181 C390 181 398 189 398 200 L398 296 C398 307 390 315 379 315 L84 315 C73 315 65 307 65 296 L65 200 C65 189 73 181 84 181 L379 181 Z " />
<glyph glyph-name="quoteleft" unicode="&#x2018;" horiz-adv-x="314" d="M183 522 C194 522 202 531 206 540 L249 682 C249 692 242 700 231 700 L131 700 C120 700 112 691 108 682 L65 540 C65 530 73 522 83 522 L183 522 Z " />
<glyph glyph-name="quoteright" unicode="&#x2019;" horiz-adv-x="314" d="M131 700 C120 700 112 691 108 682 L65 540 C65 530 72 522 83 522 L183 522 C194 522 202 531 206 540 L249 682 C249 692 241 700 231 700 L131 700 Z " />
<glyph glyph-name="quotesinglbase" unicode="&#x201a;" horiz-adv-x="314" d="M183 -75 C194 -75 202 -66 206 -57 L249 85 C249 95 242 103 231 103 L131 103 C120 103 112 94 108 85 L65 -57 C65 -67 73 -75 83 -75 L183 -75 Z " />
<glyph glyph-name="quotedblleft" unicode="&#x201c;" horiz-adv-x="502" d="M183 522 C194 522 202 531 206 540 L249 682 C249 692 242 700 231 700 L131 700 C120 700 112 691 108 682 L65 540 C65 530 73 522 83 522 L183 522 Z M371 522 C382 522 390 531 394 540 L437 682 C437 692 430 700 419 700 L319 700 C308 700 300 691 296 682 L253 540 C253 530 261 522 271 522 L371 522 Z " />
<glyph glyph-name="quotedblright" unicode="&#x201d;" horiz-adv-x="502" d="M319 700 C308 700 300 691 296 682 L253 540 C253 530 260 522 271 522 L371 522 C382 522 390 531 394 540 L437 682 C437 692 429 700 419 700 L319 700 Z M131 700 C120 700 112 691 108 682 L65 540 C65 530 72 522 83 522 L183 522 C194 522 202 531 206 540 L249 682 C249 692 241 700 231 700 L131 700 Z " />
<glyph glyph-name="quotedblbase" unicode="&#x201e;" horiz-adv-x="502" d="M319 103 C308 103 300 94 296 85 L253 -57 C253 -67 260 -75 271 -75 L371 -75 C382 -75 390 -66 394 -57 L437 85 C437 95 429 103 419 103 L319 103 Z M131 103 C120 103 112 94 108 85 L65 -57 C65 -67 72 -75 83 -75 L183 -75 C194 -75 202 -66 206 -57 L249 85 C249 95 241 103 231 103 L131 103 Z " />
<glyph glyph-name="dagger" unicode="&#x2020;" horiz-adv-x="456" d="M372 415 C383 415 391 423 391 434 L391 530 C391 541 383 549 372 549 L300 549 L300 681 C300 692 292 700 281 700 L175 700 C164 700 156 692 156 681 L156 549 L84 549 C73 549 65 541 65 530 L65 434 C65 423 73 415 84 415 L156 415 L156 -249 C156 -260 164 -268 175 -268 L281 -268 C292 -268 300 -260 300 -249 L300 415 L372 415 Z " />
<glyph glyph-name="daggerdbl" unicode="&#x2021;" horiz-adv-x="456" d="M372 -117 C383 -117 391 -109 391 -98 L391 -2 C391 9 383 17 372 17 L300 17 L300 415 L372 415 C383 415 391 423 391 434 L391 530 C391 541 383 549 372 549 L300 549 L300 681 C300 692 292 700 281 700 L175 700 C164 700 156 692 156 681 L156 549 L84 549 C73 549 65 541 65 530 L65 434 C65 423 73 415 84 415 L156 415 L156 17 L84 17 C73 17 65 9 65 -2 L65 -98 C65 -109 73 -117 84 -117 L156 -117 L156 -249 C156 -260 164 -268 175 -268 L281 -268 C292 -268 300 -260 300 -249 L300 -117 L372 -117 Z " />
<glyph glyph-name="bullet" unicode="&#x2022;" horiz-adv-x="271" d="M65 177 C65 167 73 159 83 159 L188 159 C198 159 206 167 206 177 L206 282 C206 292 198 300 188 300 L83 300 C73 300 65 292 65 282 L65 177 Z " />
<glyph glyph-name="ellipsis" unicode="&#x2026;" horiz-adv-x="960" d="M65 14 C65 3 73 -5 84 -5 L194 -5 C205 -5 213 3 213 14 L213 124 C213 135 205 143 194 143 L84 143 C73 143 65 135 65 124 L65 14 Z M406 14 C406 3 414 -5 425 -5 L535 -5 C546 -5 554 3 554 14 L554 124 C554 135 546 143 535 143 L425 143 C414 143 406 135 406 124 L406 14 Z M747 14 C747 3 755 -5 766 -5 L876 -5 C887 -5 895 3 895 14 L895 124 C895 135 887 143 876 143 L766 143 C755 143 747 135 747 124 L747 14 Z " />
<glyph glyph-name="perthousand" unicode="&#x2030;" horiz-adv-x="1085" d="M172 19 C172 8 180 0 191 0 L297 0 C308 0 314 9 319 19 L609 681 C609 692 601 700 590 700 L484 700 C473 700 467 691 462 681 L172 19 Z M200 700 C126 700 65 640 65 565 C65 491 126 430 200 430 C276 430 336 491 336 565 C336 640 276 700 200 700 L200 700 Z M200 525 C179 525 160 544 160 565 C160 586 179 605 200 605 C222 605 240 586 240 565 C240 544 222 525 200 525 L200 525 Z M575 270 C499 270 439 210 439 135 C439 61 499 0 575 0 C649 0 710 61 710 135 C710 210 649 270 575 270 L575 270 Z M575 95 C553 95 535 114 535 135 C535 156 553 175 575 175 C596 175 615 156 615 135 C615 114 596 95 575 95 L575 95 Z M885 270 C809 270 749 210 749 135 C749 61 809 0 885 0 C959 0 1020 61 1020 135 C1020 210 959 270 885 270 L885 270 Z M885 95 C863 95 845 114 845 135 C845 156 863 175 885 175 C906 175 925 156 925 135 C925 114 906 95 885 95 L885 95 Z " />
<glyph glyph-name="guilsinglleft" unicode="&#x2039;" horiz-adv-x="388" d="M65 163 C65 153 72 147 83 143 L306 64 C316 64 323 71 323 81 L323 176 C323 186 316 194 306 197 L202 231 L202 243 L306 277 C316 280 323 288 323 298 L323 393 C323 403 316 410 306 410 L83 331 C72 327 65 321 65 311 L65 163 Z " />
<glyph glyph-name="guilsinglright" unicode="&#x203a;" horiz-adv-x="388" d="M323 311 C323 321 316 327 305 331 L82 410 C72 410 65 403 65 393 L65 298 C65 288 72 280 82 277 L186 243 L186 231 L82 197 C72 194 65 186 65 176 L65 81 C65 71 72 64 82 64 L305 143 C316 147 323 153 323 163 L323 311 Z " />
<glyph glyph-name="fraction" unicode="&#x2044;" horiz-adv-x="578" d="M65 -155 C65 -166 73 -174 84 -174 L190 -174 C201 -174 209 -166 212 -155 C307 145 418 485 513 785 C513 796 505 804 494 804 L388 804 C377 804 369 796 366 785 L65 -155 Z " />
<glyph glyph-name="Euro" unicode="&#x20ac;" horiz-adv-x="637" d="M331 208 C342 208 350 216 350 227 L350 302 C350 313 342 321 331 321 L262 321 L262 377 L331 377 C342 377 350 385 350 396 L350 471 C350 482 342 490 331 490 L262 490 L262 522 C262 549 283 571 307 571 L383 571 C407 571 428 549 428 522 L428 490 C428 479 436 471 447 471 L553 471 C564 471 572 479 572 490 L572 529 C572 627 491 705 389 705 L301 705 C199 705 118 627 118 529 L118 490 L84 490 C73 490 65 482 65 471 L65 396 C65 385 73 377 84 377 L118 377 L118 321 L84 321 C73 321 65 313 65 302 L65 227 C65 216 73 208 84 208 L118 208 L118 171 C118 73 199 -5 301 -5 L389 -5 C491 -5 572 73 572 171 L572 210 C572 221 564 229 553 229 L447 229 C436 229 428 221 428 210 L428 178 C428 151 407 129 383 129 L307 129 C283 129 262 151 262 178 L262 208 L331 208 Z " />
<glyph glyph-name="Numero" unicode="&#x2116;" horiz-adv-x="1066" d="M778 700 C682 700 621 620 621 542 L621 332 C621 255 682 175 778 175 L844 175 C940 175 1001 255 1001 332 L1001 542 C1001 620 940 700 844 700 L778 700 Z M827 567 C842 567 857 553 857 537 L857 338 C857 322 842 308 827 308 L795 308 C780 308 765 322 765 338 L765 537 C765 553 780 567 795 567 L827 567 Z M923 0 C934 0 942 8 942 19 L942 115 C942 126 934 134 923 134 L700 134 C689 134 681 126 681 115 L681 19 C681 8 689 0 700 0 L923 0 Z M212 700 L84 700 C73 700 65 692 65 681 L65 19 C65 8 73 0 84 0 L190 0 C201 0 209 8 209 19 L209 373 L216 373 L376 16 C381 6 387 0 402 0 L531 0 C542 0 550 8 550 19 L550 681 C550 692 542 700 531 700 L425 700 C414 700 406 692 406 681 L406 321 L399 321 L238 684 C233 694 227 700 212 700 L212 700 Z " />
<glyph glyph-name="trademark" unicode="&#x2122;" horiz-adv-x="696" d="M125 405 C125 399 130 394 136 394 L201 394 C207 394 212 399 212 405 L212 623 L261 623 C267 623 272 628 272 634 L272 689 C272 695 267 700 261 700 L76 700 C70 700 65 695 65 689 L65 634 C65 628 70 623 76 623 L125 623 L125 405 Z M469 567 L402 689 C399 695 395 700 389 700 L322 700 C316 700 311 695 311 689 L311 405 C311 399 316 394 322 394 L387 394 C393 394 398 399 398 405 L398 539 L451 436 C453 432 455 429 459 429 L484 429 C488 429 489 432 491 436 L544 539 L544 405 C544 399 549 394 555 394 L620 394 C626 394 631 399 631 405 L631 689 C631 695 626 700 620 700 L553 700 C547 700 543 695 540 689 L473 567 L469 567 Z " />
<glyph glyph-name="Omega" unicode="&#x2126;" horiz-adv-x="698" d="M306 705 C204 705 123 627 123 529 L123 200 C123 187 125 156 136 134 L84 134 C73 134 65 126 65 115 L65 19 C65 8 73 0 84 0 L287 0 C298 0 306 8 306 19 L306 117 C306 126 301 136 292 140 C274 149 267 186 267 202 L267 522 C267 549 288 571 312 571 L386 571 C410 571 431 549 431 522 L431 202 C431 186 424 149 406 140 C397 136 392 126 392 117 L392 19 C392 8 400 0 411 0 L614 0 C625 0 633 8 633 19 L633 115 C633 126 625 134 614 134 L562 134 C573 156 575 187 575 200 L575 529 C575 627 494 705 392 705 L306 705 Z " />
<glyph glyph-name="partialdiff" unicode="&#x2202;" horiz-adv-x="524" d="M459 547 C459 625 398 705 302 705 L243 705 C146 705 86 625 86 547 L86 527 C86 516 94 508 105 508 L211 508 C222 508 230 516 230 527 L230 542 C230 558 246 572 261 572 L285 572 C300 572 315 558 315 542 L315 407 L305 407 C283 436 251 443 234 443 L202 443 C108 443 65 374 65 285 L65 153 C65 64 108 -5 202 -5 L234 -5 C251 -5 283 2 305 31 L315 31 L315 19 C315 8 323 0 334 0 L440 0 C451 0 459 8 459 19 L459 547 Z M315 158 C315 142 300 128 285 128 L240 128 C224 128 209 142 209 158 L209 280 C209 296 224 310 240 310 L285 310 C300 310 315 296 315 280 L315 158 Z " />
<glyph glyph-name="Delta" unicode="&#x2206;" horiz-adv-x="834" d="M257 134 C310 269 364 397 417 530 C470 397 524 269 577 134 L257 134 Z M353 700 C342 700 335 692 331 681 L65 19 C65 8 73 0 84 0 L750 0 C761 0 769 8 769 19 L503 681 C499 692 492 700 481 700 L353 700 Z " />
<glyph glyph-name="product" unicode="&#x220f;" horiz-adv-x="748" d="M664 566 C675 566 683 574 683 585 L683 681 C683 692 675 700 664 700 L84 700 C73 700 65 692 65 681 L65 585 C65 574 73 566 84 566 L179 566 L179 19 C179 8 187 0 198 0 L304 0 C315 0 323 8 323 19 L323 566 L425 566 L425 19 C425 8 433 0 444 0 L550 0 C561 0 569 8 569 19 L569 566 L664 566 Z " />
<glyph glyph-name="summation" unicode="&#x2211;" horiz-adv-x="515" d="M190 336 L65 127 L65 19 C65 8 73 0 84 0 L431 0 C442 0 450 8 450 19 L450 115 C450 126 442 134 431 134 L218 134 L333 331 L333 369 L218 566 L431 566 C442 566 450 574 450 585 L450 681 C450 692 442 700 431 700 L84 700 C73 700 65 692 65 681 L65 573 L190 364 L190 336 Z " />
<glyph glyph-name="minus" unicode="&#x2212;" horiz-adv-x="390" d="M306 181 C317 181 325 189 325 200 L325 296 C325 307 317 315 306 315 L84 315 C73 315 65 307 65 296 L65 200 C65 189 73 181 84 181 L306 181 Z " />
<glyph glyph-name="radical" unicode="&#x221a;" horiz-adv-x="699" d="M615 566 C626 566 634 574 634 585 L634 681 C634 692 626 700 615 700 L397 700 C386 700 378 692 375 681 L262 205 L249 205 L214 383 C211 394 203 402 192 402 L84 402 C73 402 65 394 65 383 L161 19 C164 9 171 0 182 0 L329 0 C340 0 347 9 350 19 L494 566 L615 566 Z " />
<glyph glyph-name="infinity" unicode="&#x221e;" horiz-adv-x="866" d="M240 200 C224 200 209 214 209 230 L209 300 C209 317 224 331 240 331 L329 331 C343 331 358 318 360 302 L360 230 C360 214 344 200 329 200 L240 200 Z M535 200 C520 200 504 214 504 230 L504 302 C506 318 521 331 535 331 L626 331 C642 331 657 317 657 300 L657 230 C657 214 642 200 626 200 L535 200 Z M432 111 C454 79 495 66 527 66 L644 66 C741 66 801 147 801 225 L801 305 C801 384 741 465 644 465 L527 465 C495 465 455 450 432 419 C409 450 369 465 337 465 L222 465 C125 465 65 384 65 305 L65 225 C65 147 125 66 222 66 L337 66 C369 66 410 79 432 111 L432 111 Z " />
<glyph glyph-name="integral" unicode="&#x222b;" horiz-adv-x="448" d="M316 698 C316 698 152 652 152 499 L152 16 C151 6 141 -37 77 -56 C69 -58 65 -66 65 -73 C65 -75 66 -78 67 -80 L107 -178 C110 -186 116 -190 123 -190 C125 -190 130 -189 132 -188 C132 -188 296 -142 296 14 L296 491 C296 491 298 545 371 566 C379 568 383 576 383 583 C383 585 382 588 381 590 L341 688 C338 696 332 700 325 700 C323 700 318 699 316 698 L316 698 Z " />
<glyph glyph-name="approxequal" unicode="&#x2248;" horiz-adv-x="421" d="M264 45 C291 45 318 58 344 74 C352 80 356 89 356 98 L332 176 C330 183 322 189 312 189 C309 189 305 189 302 188 C291 183 272 179 264 179 C215 179 205 216 157 216 C130 216 103 203 77 187 C69 181 65 172 65 163 L89 85 C91 78 99 72 109 72 C112 72 116 72 119 73 C130 78 149 82 157 82 C207 82 216 45 264 45 L264 45 Z M264 223 C291 223 318 236 344 252 C352 258 356 267 356 276 L332 354 C330 361 322 367 312 367 C309 367 305 367 302 366 C291 361 272 357 264 357 C215 357 205 394 157 394 C130 394 103 381 77 365 C69 359 65 350 65 341 L89 263 C91 256 99 250 109 250 C112 250 116 250 119 251 C130 256 149 260 157 260 C207 260 216 223 264 223 L264 223 Z " />
<glyph glyph-name="notequal" unicode="&#x2260;" horiz-adv-x="394" d="M310 264 C321 264 329 272 329 283 L329 379 C329 390 321 398 310 398 L302 398 L326 472 C326 483 318 491 307 491 L253 491 C242 491 234 483 231 472 L207 398 L84 398 C73 398 65 390 65 379 L65 283 C65 272 73 264 84 264 L164 264 L149 217 L84 217 C73 217 65 209 65 198 L65 102 C65 91 73 83 84 83 L106 83 L86 19 C86 8 94 0 105 0 L159 0 C170 0 178 8 181 19 L201 83 L310 83 C321 83 329 91 329 102 L329 198 C329 209 321 217 310 217 L244 217 L259 264 L310 264 Z " />
<glyph glyph-name="lessequal" unicode="&#x2264;" horiz-adv-x="392" d="M308 0 C319 0 327 8 327 19 L327 73 C327 84 319 92 308 92 L84 92 C73 92 65 84 65 73 L65 19 C65 8 73 0 84 0 L308 0 Z M69 213 C69 203 76 197 87 193 L310 114 C320 114 327 121 327 131 L327 226 C327 236 320 244 310 247 L206 281 L206 293 L310 327 C320 330 327 338 327 348 L327 443 C327 453 320 460 310 460 L87 381 C76 377 69 371 69 361 L69 213 Z " />
<glyph glyph-name="greaterequal" unicode="&#x2265;" horiz-adv-x="392" d="M308 0 C319 0 327 8 327 19 L327 73 C327 84 319 92 308 92 L84 92 C73 92 65 84 65 73 L65 19 C65 8 73 0 84 0 L308 0 Z M323 361 C323 371 316 377 305 381 L82 460 C72 460 65 453 65 443 L65 348 C65 338 72 330 82 327 L186 293 L186 281 L82 247 C72 244 65 236 65 226 L65 131 C65 121 72 114 82 114 L305 193 C316 197 323 203 323 213 L323 361 Z " />
<glyph glyph-name="lozenge" unicode="&#x25ca;" horiz-adv-x="608" d="M304 166 C270 233 244 282 211 349 L304 534 L397 349 C364 282 338 233 304 166 L304 166 Z M238 700 C227 700 221 690 217 681 L65 350 L217 19 C221 10 227 0 238 0 L370 0 C381 0 387 10 391 19 L543 350 L391 681 C387 690 381 700 370 700 L238 700 Z " />
<glyph glyph-name="uni25CC" unicode="&#x25cc;" horiz-adv-x="199" d="" />
<glyph glyph-name="fi" unicode="&#xfb01;" horiz-adv-x="647" d="M324 603 C335 603 343 611 343 622 L343 716 C343 727 335 735 324 735 L256 735 C160 735 104 655 99 577 L99 515 L39 515 C28 515 20 507 20 496 L20 401 C20 390 28 382 39 382 L99 382 L99 19 C99 8 107 0 118 0 L224 0 C235 0 243 8 243 19 L243 382 L323 382 C334 382 342 390 342 401 L342 496 C342 507 334 515 323 515 L243 515 L243 568 C243 587 261 603 279 603 L324 603 Z M439 19 C439 8 447 0 458 0 L564 0 C575 0 583 8 583 19 L583 496 C583 507 575 515 564 515 L458 515 C447 515 439 507 439 496 L439 19 Z M437 584 C437 573 445 565 456 565 L566 565 C577 565 585 573 585 584 L585 681 C585 692 577 700 566 700 L456 700 C445 700 437 692 437 681 L437 584 Z " />
<glyph glyph-name="fl" unicode="&#xfb02;" horiz-adv-x="647" d="M324 603 C335 603 343 611 343 622 L343 716 C343 727 335 735 324 735 L256 735 C160 735 104 655 99 577 L99 515 L39 515 C28 515 20 507 20 496 L20 401 C20 390 28 382 39 382 L99 382 L99 19 C99 8 107 0 118 0 L224 0 C235 0 243 8 243 19 L243 382 L323 382 C334 382 342 390 342 401 L342 496 C342 507 334 515 323 515 L243 515 L243 568 C243 587 261 603 279 603 L324 603 Z M439 19 C439 8 447 0 458 0 L564 0 C575 0 583 8 583 19 L583 681 C583 692 575 700 564 700 L458 700 C447 700 439 692 439 681 L439 19 Z " />
</font>
</svg>
