<svg xmlns="http://www.w3.org/2000/svg" version="1.1" width="600px" height="600px" viewBox="0 0 200 200" style="overflow:hidden!important;"><g id="svga-group-wrapper"><g id="svga-group-backs-single"><path id="SvgjsPath12478" d="M0 0h200v200H0V0z" fill="#ecf0f1" stroke-width="none" opacity="1"></path></g><g id="svga-group-humanwrap-move" transform="matrix(1,0,0,1,0,0)"><g id="svga-group-humanwrap"><g id="svga-group-hair-back-move" transform="matrix(1,0,0,1,0,0)"><g id="svga-group-hair-back"></g></g><g id="svga-group-humanbody-back"><path id="SvgjsPath12638" d="M180.8 184.9c-2.3-3.4-38.9-17.8-38.9-17.8l-8.4-5.2-5.6-68.8H71.8L66.3 162l-8.4 5.2S21.4 181.6 19 185c-2.3 3.4-3.3 14.9-3.3 14.9V219h168.5v-19.2c-.1.1-1-11.5-3.4-14.9z" fill="#fbd5c0" stroke-width="none" opacity="1"></path></g><g id="svga-group-chinshadow-single"><path id="SvgjsPath12634" d="M127.7 93.1h-56l-5.2 63.7c13.4 4.7 27.6 4.7 27.6 4.7s23.4 0 38.4-10l-4.8-58.4z" fill="#dc9f7d" stroke-width="none" opacity="1"></path></g><g id="svga-group-humanbody-front"><path id="SvgjsPath12639" d="M184.4 199.8c-.2-2.6-.6-5.1-1-7.6-.2-1.3-.5-2.5-.8-3.8l-.3-.9-.3-.9c-.1-.3-.3-.6-.4-.9-.1-.3-.3-.6-.5-.8-.3-.4-.7-.6-1-.9-.4-.3-.7-.5-1.1-.7-.8-.5-1.6-.9-2.3-1.3l-4.8-2.4c-3.2-1.5-6.5-3-9.8-4.4L157 173l-4.9-2.1c-3.3-1.4-6.6-2.8-9.9-4.1l-8.2-5.2-1.2-17-1.3-17.2c-.5-5.7-.9-11.5-1.4-17.2l-.7-8.6-.7-8.6-.1-.6h-.6l-56 .4h-.3v.3l-1.4 17.2c-.4 5.7-1 11.5-1.4 17.2l-1.5 17.2-1.5 17-8.2 5-13.5 5.4c-4.5 1.8-9 3.7-13.4 5.7-2.2 1-4.4 2-6.6 3.1-1.1.5-2.2 1.1-3.3 1.7-.5.3-1.1.6-1.6 1-.3.2-.5.4-.8.7l-.1.1-.1.1-.1.2-.3.4c-.6 1.2-.9 2.4-1.3 3.6-.3 1.2-.6 2.4-.8 3.6-.4 2.4-.7 4.8-1 7.3l-.9 20.4h171.5l-1-20.2zM16.6 218.2c.2-2.1.5-23.4.8-25.5.2-1.2.4-2.4.7-3.5.3-1.1.6-2.3 1.1-3.3l.2-.3.1-.2v-.2l.5-.5c.4-.3.9-.7 1.4-1 1-.6 2.1-1.2 3.2-1.7 2.1-1.1 4.3-2.1 6.5-3.1 4.4-2 8.9-3.9 13.3-5.8 4.5-1.9 8.9-3.8 13.4-5.6l8.4-5.3.2-.1v-.2l1.3-17.2 1.4-17.2c.5-5.7.9-11.5 1.4-17.2l1.4-16.9 55.1.4.6 8 .7 8.6c.5 5.7 1 11.5 1.4 17.2l1.5 17.2 1.6 17.2v.2l.2.1 8.5 5.1c3.3 1.3 6.7 2.6 10 3.9l5 2 4.9 2.1c3.3 1.4 6.6 2.8 9.8 4.3 1.6.8 3.2 1.5 4.8 2.4.8.4 1.6.8 2.3 1.3.4.2.8.5 1.1.7.4.3.7.5 1 .9.2.3.3.5.5.8.1.3.3.6.4.9l.3.9.3.9c.3 1.2.6 2.5.8 3.7.4 2.5.8 24 1 26.5l-167.1-.5z" fill="#cd865f" stroke-width="none" opacity="1"></path><path id="SvgjsPath12640" d="M125.1 142.4s-1.8 23-9.1 32.9c0 0 7.9-25 9.1-32.9zm-34.5 16s5 7.9 11.5 10.1c0 0-9.5 2.2-11.5-10.1zM73.4 140c6.7 25.6 6.7 25.6 8.5 30.7 0 0 .4-12.6-8.5-30.7z" fill="#dc9f7d" stroke-width="none" opacity="1"></path></g><g id="svga-group-clothes-single"><path id="SvgjsPath12520" d="M56.9 166.6s-31.1 11.5-38.3 16.7c0 0-2.3 2.3-3.3 9.3-1 7-1.4 27.3-1.4 27.3h171.5s-.2-16.2-1.3-25.3c-1.2-9.1-1.9-9.3-3.1-10.5-1.2-1.2-27.3-14-38.6-17.5 0 0-1.6 22-40.1 23.6s-45.2-17.5-45.4-23.6z" fill="#b0babc" stroke-width="none" opacity="1"></path><path id="SvgjsPath12521" d="M185.8 220c-.1-6.6-.3-13.2-.7-19.8-.2-3.3-.6-6.6-1.1-9.8-.3-1.6-.5-3.3-1.3-4.9-.2-.4-.5-.8-.8-1.1-.3-.3-.6-.6-1-.9-.8-.5-1.5-.9-2.2-1.2-5.8-3.1-11.8-5.9-17.8-8.7-3-1.4-6-2.7-9.1-3.9-3.1-1.3-6.1-2.5-9.3-3.5l-.5-.2-.1.6c-.3 2.1-1 4.2-2.1 6.1l-.4.7-.4.7-.9 1.4-1 1.3c-.4.4-.7.9-1.1 1.2-1.5 1.6-3.2 2.9-5 4.1-.9.6-1.8 1.2-2.8 1.7l-3 1.4c-4.1 1.6-8.3 2.9-12.7 3.6l-3.3.5-3.3.3-3.3.3c-1.1.1-2.2 0-3.3.1H96c-1.1 0-2.2-.1-3.3-.1l-3.3-.2-3.3-.4c-2.2-.2-4.3-.8-6.5-1.2-1.1-.2-2.1-.6-3.2-1l-1.6-.5-1.5-.7c-4.1-1.7-7.9-4.1-10.8-7.4l-1.1-1.2c-.3-.4-.6-.9-1-1.3-.7-.9-1.1-1.9-1.7-2.8-1-2-1.6-4.1-1.8-6.4-3.4 1.2-6.6 2.4-9.9 3.6-3.3 1.2-6.5 2.5-9.8 3.8-3.2 1.3-6.5 2.7-9.6 4.1-3.2 1.5-6.4 2.9-9.3 4.9-1.1 1.3-1.7 2.8-2.2 4.2-.5 1.5-.9 3-1.1 4.6-.5 3.1-.6 6.2-.8 9.3-.4 6.2-.6 12.4-.7 18.7v.4h.4c14.3.1 28.6-.1 42.9-.1l42.9-.1h21.4l21.4.1 42.9.2h.4v-.5zm-64.7-.2H99.7l-42.9-.1c-6.8 0-13.6 0-20.5-.1-.1-3.4-.5-6.7-1-10-.6-3.4-1.3-6.8-2.5-10-.6-1.6-1.5-3.2-2.5-4.6-1-1.4-2-2.8-3.2-4.1-2.3-2.6-4.9-4.9-7.6-6.9 2.5 2.3 4.9 4.8 7.1 7.4 2.1 2.6 4.1 5.4 5.3 8.6 1.2 3.1 2 6.5 2.7 9.8.4 1.7.7 3.4 1 5 .3 1.6.6 3.2.8 4.9-7.3 0-14.6-.1-22 0 .1-6.1.3-12.1.6-18.2.2-3.1.3-6.2.8-9.3.2-1.5.6-3 1.1-4.5.5-1.4 1.1-2.9 2-4 2.8-1.9 6-3.4 9.1-4.9 3.2-1.5 6.4-2.8 9.6-4.2 3.2-1.4 6.4-2.7 9.7-4l9.7-3.8c.1 2.1.8 4.4 1.7 6.4.5 1 1 2 1.7 2.9.3.5.6.9 1 1.4l1.1 1.3c3 3.4 6.8 5.9 10.9 7.6l1.5.7 1.6.5c1.1.3 2.1.8 3.2 1 2.2.5 4.3 1.1 6.6 1.3l3.3.5 3.3.2c1.1.1 2.2.2 3.3.2h5.3c-.2.7-.2 1.3-.1 1.9.1.7.2 1.3.5 2-1.1 0-2.1.1-3.2 0-4.8 0-9.6-.2-14.3-.9-.6-.1-1.2-.1-1.8-.2l-1.8-.4-3.5-.7c-1.2-.3-2.3-.7-3.4-1l-1.6-.5c.5-.5.9-1.2 1.2-1.8.3-.7.6-1.5.7-2.3-.6.6-1 1.3-1.4 2-.3.7-.6 1.3-.7 2.1-.6-.2-1.1-.4-1.6-.6-1.5-.6-2.9-1.2-4.3-1.9.3-.3.6-.5.8-.8.3-.3.5-.6.8-.9.5-.7.9-1.4 1.2-2.2-.7.5-1.3 1.1-1.8 1.7-.2.3-.5.7-.7 1.1-.2.3-.3.7-.4 1.1-2.2-1.1-4.2-2.5-6-4.1.8-.4 1.4-.9 2-1.5.6-.6 1.2-1.3 1.6-2.1-.8.4-1.5 1-2.1 1.6-.6.6-1.1 1.2-1.5 2-.5-.5-1.1-.9-1.6-1.4-.5-.4-.8-.9-1.2-1.3-.4-.4-.8-.9-1.2-1.4-.7-1-1.4-1.9-2-3-1.2-2.1-2.1-4.3-2.4-6.7.2 2.4 1.1 4.7 2.2 6.9.5 1.1 1.2 2.1 1.9 3.1.3.5.8.9 1.1 1.4.4.4.8 1 1.2 1.4 3.4 3.5 7.6 6.1 12.1 7.9.6.2 1.1.5 1.7.7l1.7.6c1.2.4 2.3.8 3.5 1.1l3.6.8 1.8.4c.6.1 1.2.2 1.8.2 4.8.7 9.6.9 14.5 1 9.6 0 19.4-1.3 28.4-5 4.5-1.9 8.7-4.3 12.3-7.6 1.8-1.7 3.4-3.4 4.7-5.5 1.4-2 2.5-4.1 3.1-6.5-1.6 4.6-4.7 8.4-8.2 11.6-3.6 3.2-7.8 5.5-12.3 7.3-6.6 2.6-13.6 3.9-20.7 4.4.1-.6.1-1.1 0-1.6-.1-.6-.3-1.2-.6-1.8-.2.7-.2 1.3-.1 1.9.1.5.2 1.1.5 1.6-1.3.1-2.7.1-4 .2.2-.7.2-1.4.2-2.1-.1-.6-.2-1.2-.5-1.9h1.2l3.3-.2c1.1-.1 2.2-.1 3.3-.3l3.3-.5c4.4-.6 8.8-1.9 12.9-3.5 4.1-1.7 8-4.2 11.2-7.4.4-.4.8-.8 1.1-1.3l1.1-1.3.9-1.4.5-.7.4-.8c1-1.8 1.7-3.7 2.1-5.8 2.9.9 5.8 2.1 8.6 3.3l9 3.9c6 2.7 11.9 5.5 17.7 8.6.7.4 1.5.8 2.1 1.2.3.1.6.5.9.7.3.3.4.6.6.9.6 1.4.9 3 1.2 4.6.5 3.2.9 6.5 1.2 9.8.5 6.4.7 12.9.8 19.3l-22.5.1c.3-1.7.5-3.3.8-4.9.3-1.7.6-3.4 1-5 .7-3.3 1.5-6.7 2.7-9.8 1.1-3.1 3.2-5.9 5.3-8.6 2.2-2.6 4.6-5.1 7.1-7.4-2.8 2-5.3 4.4-7.6 6.9-1.2 1.3-2.2 2.6-3.2 4.1-1 1.4-1.8 3-2.4 4.6-1.2 3.2-2 6.6-2.5 10-.5 3.4-.9 6.7-1 10.1l-19.9.1-21.7-.6zm16.2-41.2c.3.7.7 1.2 1.2 1.7s1 .9 1.7 1.2c-.3-.7-.7-1.2-1.2-1.7s-1-1-1.7-1.2z" fill="#74969d" stroke-width="none" opacity="1"></path></g><g id="svga-group-head" transform="matrix(1,0,0,1,0,0)"><g id="svga-group-ears-left-move" transform="matrix(1,0,0,1,0,0)"><g id="svga-group-ears-left"><path id="SvgjsPath12530" d="M68.8 87.48s-4.2-8.27-8.66-11.42c-4.46-3.15-9.84-3.15-9.84-3.15s-3.02 2.1-1.97 12.6c0 0 4.46 10.76 12.47 14.7 0 0 5.77 1.31 8.66.66-.01-.01 2.09-6.18-.66-13.39z" fill="#fbd5c0" stroke-width="none" opacity="1"></path><path id="SvgjsPath12531" d="M67.88 90.76s-3.67-7.87-6.04-9.84c-2.36-1.97-7.87-5.12-9.32-3.28-1.44 1.84-1.57 7.61-1.57 7.61s1.57 4.59 6.3 7.09c4.72 2.49 10.37 2.76 10.37 2.76l.26-4.34z" fill="#ecb99d" stroke-width="none" opacity="1"></path><path id="SvgjsPath12532" d="M47.99 82.25c.02 1.09.09 2.19.17 3.28v.02l.01.03a39.54 39.54 0 0 0 2.2 4.42c.82 1.43 1.75 2.79 2.75 4.11 1.02 1.3 2.15 2.51 3.38 3.64 1.25 1.1 2.62 2.07 4.12 2.83l.04.02.05.01c1.45.31 2.89.55 4.36.7.73.07 1.47.13 2.22.13.74-.01 1.5-.05 2.25-.23l.19-.05.05-.17c.33-1.14.5-2.27.58-3.42.08-1.15.08-2.3-.01-3.44a23.99 23.99 0 0 0-.52-3.38c-.23-1.12-.59-2.2-.99-3.27-.94-1.86-2.02-3.63-3.13-5.4-1.14-1.74-2.35-3.46-3.85-4.95-.75-.74-1.6-1.4-2.5-1.96-.91-.56-1.88-.98-2.87-1.35-1.99-.73-4.08-1.08-6.19-1.12h-.08l-.04.04c-.89.85-1.22 1.93-1.54 2.98-.29 1.06-.45 2.16-.54 3.25-.09 1.09-.13 2.18-.11 3.28zm.33-3.27c.11-1.08.28-2.15.59-3.19.15-.52.35-1.02.59-1.49.23-.44.53-.89.86-1.18 2.01.12 4.01.6 5.9 1.29 1.9.73 3.7 1.74 5.19 3.13 1.5 1.39 2.82 2.99 4.04 4.67 1.22 1.67 2.29 3.46 3.28 5.28.37 1.07.71 2.15.91 3.27.24 1.11.32 2.24.36 3.37.04 1.13-.04 2.26-.19 3.37-.14 1.04-.35 2.09-.65 3.07-.62.1-1.26.12-1.91.1-.71-.01-1.43-.06-2.14-.14-1.41-.15-2.83-.4-4.21-.7-1.39-.74-2.72-1.62-3.93-2.66-1.2-1.07-2.33-2.24-3.35-3.49a42.391 42.391 0 0 1-2.82-3.96c-.86-1.37-1.66-2.79-2.33-4.25l-.16-1.59c-.05-.54-.06-1.09-.09-1.63-.04-1.1-.03-2.18.06-3.27z" fill="#ecb99d" stroke-width="none" opacity="1"></path><path id="SvgjsPath12533" d="M52.2 80.53c.18-.69.39-1.36.67-2.03.07-.16.16-.33.26-.48.11-.15.23-.33.48-.37.45.02.72.22 1.06.37a18.3 18.3 0 0 1 3.48 2.44c.53.48 1.03 1.01 1.42 1.66.18.33.36.69.38 1.14.01.25-.01.36-.01.54l.01.51c.16 2.77.58 5.56.83 8.36l-.07.01c-.34-1.37-.61-2.75-.86-4.13-.26-1.39-.44-2.78-.55-4.2l-.03-.54v-.51c0-.26-.13-.56-.28-.84-.31-.57-.74-1.11-1.21-1.61-.94-1-2.01-1.94-3.22-2.61-.29-.16-.65-.33-.91-.33-.23.06-.41.43-.53.73-.26.63-.39 1.33-.52 2.01-.23 1.37-.39 2.77-.48 4.15-.02.34-.04.7-.02 1.01-.01.17.21.46.41.71.42.52.91 1.02 1.4 1.5.81.79 1.65 1.57 2.5 2.33.09-.91.18-1.82.24-2.74.04-.59.07-1.17.08-1.75.01-.53.01-1.07-.06-1.58-.15-.02-.33-.03-.5-.02a4.1 4.1 0 0 0-.69.1c-.46.1-.91.25-1.35.43l-.03-.07c.41-.25.85-.46 1.32-.62.23-.08.47-.15.72-.19.26-.04.49-.07.79-.01l.11.02.03.13c.15.61.18 1.21.22 1.81.02.6.02 1.19.01 1.79-.03 1.19-.08 2.37-.19 3.56l-.07.75-.58-.49c-1.08-.92-2.11-1.87-3.11-2.88-.49-.51-.98-1.03-1.43-1.61-.11-.15-.22-.3-.32-.47-.05-.09-.1-.18-.14-.29-.05-.11-.07-.28-.07-.37-.01-.39.03-.74.06-1.1.14-1.45.39-2.84.75-4.22z" fill="#cd865f" stroke-width="none" opacity="1"></path></g></g><g id="svga-group-ears-right-move" transform="matrix(1,0,0,1,0,0)"><g id="svga-group-ears-right"><path id="SvgjsPath12534" d="M131.2 87.48s4.2-8.27 8.66-11.42c4.46-3.15 9.84-3.15 9.84-3.15s3.02 2.1 1.97 12.6c0 0-4.46 10.76-12.47 14.7 0 0-5.77 1.31-8.66.66.01-.01-2.09-6.18.66-13.39z" fill="#fbd5c0" stroke-width="none" opacity="1"></path><path id="SvgjsPath12535" d="M132.12 90.76s3.67-7.87 6.04-9.84c2.36-1.97 7.87-5.12 9.32-3.28 1.44 1.84 1.57 7.61 1.57 7.61s-1.57 4.59-6.3 7.09c-4.72 2.49-10.37 2.76-10.37 2.76l-.26-4.34z" fill="#ecb99d" stroke-width="none" opacity="1"></path><path id="SvgjsPath12536" d="M151.91 78.96c-.09-1.09-.25-2.18-.54-3.25-.32-1.05-.65-2.13-1.54-2.98l-.04-.04h-.08c-2.11.04-4.21.39-6.19 1.12-.99.37-1.96.79-2.87 1.35-.9.56-1.75 1.22-2.5 1.96-1.5 1.49-2.71 3.21-3.85 4.95-1.11 1.77-2.18 3.54-3.13 5.4-.39 1.07-.76 2.15-.99 3.27a23.99 23.99 0 0 0-.52 3.38c-.1 1.14-.09 2.29-.01 3.44s.25 2.28.58 3.42l.05.17.19.05c.75.18 1.51.22 2.25.23.75 0 1.48-.05 2.22-.13 1.47-.15 2.91-.39 4.36-.7l.05-.01.04-.02c1.5-.76 2.87-1.73 4.12-2.83 1.23-1.12 2.36-2.34 3.38-3.64 1-1.31 1.93-2.68 2.75-4.11.82-1.43 1.57-2.89 2.2-4.42l.01-.03v-.02c.07-1.09.14-2.18.17-3.28.01-1.09-.03-2.18-.11-3.28zm-.16 3.28c-.03.54-.04 1.09-.09 1.63l-.16 1.59c-.67 1.47-1.47 2.89-2.33 4.25-.87 1.37-1.8 2.7-2.82 3.96a29.855 29.855 0 0 1-3.35 3.49 21.554 21.554 0 0 1-3.93 2.66c-1.38.3-2.8.54-4.21.7-.71.08-1.43.13-2.14.14-.64.01-1.29 0-1.91-.1-.3-.98-.51-2.03-.65-3.07-.15-1.11-.22-2.24-.19-3.37.04-1.13.12-2.26.36-3.37.2-1.12.54-2.2.91-3.27.98-1.82 2.05-3.61 3.28-5.28 1.21-1.67 2.54-3.28 4.04-4.67 1.49-1.39 3.28-2.4 5.19-3.13 1.88-.69 3.89-1.17 5.9-1.29.34.29.63.74.86 1.18.25.47.44.97.59 1.49.3 1.03.48 2.11.59 3.19.08 1.1.09 2.18.06 3.27z" fill="#ecb99d" stroke-width="none" opacity="1"></path><path id="SvgjsPath12537" d="M147.8 80.53c-.18-.69-.39-1.36-.67-2.03-.07-.16-.16-.33-.26-.48-.11-.15-.23-.33-.48-.37-.45.02-.72.22-1.06.37a18.3 18.3 0 0 0-3.48 2.44c-.53.48-1.03 1.01-1.42 1.66-.18.33-.36.69-.38 1.14-.01.25.01.36.01.54l-.01.51c-.16 2.77-.58 5.56-.83 8.36l.07.01c.34-1.37.61-2.75.86-4.13.26-1.39.44-2.78.55-4.2l.03-.54v-.51c0-.26.13-.56.28-.84.31-.57.74-1.11 1.21-1.61.94-1 2.01-1.94 3.22-2.61.29-.16.65-.33.91-.33.23.06.41.43.53.73.26.63.39 1.33.52 2.01.23 1.37.39 2.77.48 4.15.02.34.04.7.02 1.01.01.17-.21.46-.41.71-.42.52-.91 1.02-1.4 1.5-.81.79-1.65 1.57-2.5 2.33-.09-.91-.18-1.82-.24-2.74-.04-.59-.07-1.17-.08-1.75-.01-.53-.01-1.07.06-1.58.15-.02.33-.03.5-.02.23.01.46.05.69.1.46.1.91.25 1.35.43l.03-.07c-.41-.25-.85-.46-1.32-.62a4.23 4.23 0 0 0-.72-.19c-.26-.04-.49-.07-.79-.01l-.11.02-.03.13c-.15.61-.18 1.21-.22 1.81-.02.6-.02 1.19-.01 1.79.03 1.19.08 2.37.19 3.56l.07.75.58-.49c1.08-.92 2.11-1.87 3.11-2.88.49-.51.98-1.03 1.43-1.61.11-.15.22-.3.32-.47.05-.09.1-.18.14-.29.05-.11.07-.28.07-.37.01-.39-.03-.74-.06-1.1a26.8 26.8 0 0 0-.75-4.22z" fill="#cd865f" stroke-width="none" opacity="1"></path></g></g><g id="svga-group-faceshape-wrap"><g id="svga-group-faceshape-single"><path id="SvgjsPath12620" d="M138.8 92.9c.5-12.9 1.4-24 1.4-24s.9-9.6 0-13.7c-2.2-10-6.1-15.9-15-20.7-9.3-5-25.2-4.9-25.2-4.9s-15.8-.2-25.1 4.8C66.1 39 61.8 44.9 59.6 54.9c-.9 4 0 13.6 0 13.6s.9 11.6 1.4 24.4c.4 9.7 2.5 31.1 2.6 41 0 3.5 2.9 6.7 5.9 8.4 14.6 8.2 30.5 8.3 30.5 8.3s16 0 30.6-8.2c3.1-1.7 5.9-5 5.9-8.5.1-9.9 1.9-31.3 2.3-41z" fill="#fbd5c0" stroke-width="none" opacity="1"></path><path id="SvgjsPath12621" d="M59.6 54.9c-.9 4 0 13.6 0 13.6s.9 11.6 1.4 24.4c.4 9.7 2.5 31.1 2.6 41 0 3.5 2.9 6.7 5.9 8.4 14.6 8.2 30.5 8.3 30.5 8.3s16 0 30.6-8.2c3.1-1.7 5.9-5 5.9-8.5 0-10 1.9-31.4 2.3-41.1.5-12.9 1.4-24.1 1.4-24.1s.9-9.6 0-13.7c-2.2-10-6.1-15.9-15-20.7-9.3-5-25.2-4.9-25.2-4.9s-15.8-.2-25.1 4.8C66.1 39 61.8 44.9 59.6 54.9zm22.2-22.6c3.5-.9 7-1.4 10.6-1.6 3.6-.3 7.2-.4 10.8-.1 3.6.2 7.2.6 10.7 1.3 3.5.7 7 1.6 10.1 3.1 1.6.7 3.1 1.7 4.5 2.7 1.4 1 2.8 2.1 4 3.4 2.4 2.5 4.2 5.6 5.5 8.9.6 1.7 1.1 3.4 1.6 5.1.4 1.7.5 3.5.6 5.3 0 1.8 0 3.6-.1 5.4l-.3 5.4c-.3 7.3-.6 14.5-1 21.8-.4 7.2-1 14.5-1.6 21.7-.3 3.6-.6 7.2-.9 10.9-.1 1.8-.2 3.6-.4 5.5l-.1 2.7c0 .9-.1 1.6-.5 2.4-.6 1.5-1.7 2.9-3 4-.6.6-3.6 2.2-4.4 2.6-3.2 1.5-6.6 2.8-10 3.8-3.4 1-6.9 1.7-10.5 2.2-1.8.2-3.5.4-5.3.5-.9.1-4.3 0-5.2-.1-7.1-.7-14.1-2.3-20.7-5-.8-.3-1.6-.7-2.4-1.1l-2.4-1.2s-1.9-1-2.2-1.3c-.7-.5-1.3-1-1.9-1.6-1.1-1.2-2-2.6-2.3-4.1-.1-.4-.2-2.5-.2-2.5 0-.9-.1-1.8-.1-2.8-.3-7.3-1-14.5-1.7-21.8L62.1 97l-.8-10.9-1.5-21.7c-.1-1.8-.2-3.6-.1-5.4 0-1.8.1-3.6.6-5.3.8-3.5 2.1-6.9 4.1-9.9 2-3 4.7-5.4 7.7-7.4 1.5-1 3.1-1.8 4.7-2.5 1.5-.6 3.2-1.1 5-1.6z" fill="#cd865f" stroke-width="none" opacity="1"></path></g></g><g id="svga-group-mouth-single-move" transform="matrix(1,0,0,1,0.5,3)"><g id="svga-group-mouth-single" transform="matrix(0.8999996000000001,0,0,0.8999996000000001,10.124939791589341,12.563721366744986)"><path id="SvgjsPath12483" d="M82.9 118s.3 1.9 3.1 5.1 7.5 10 8.8 10.7 14.3 1 14.9 1c.6 0 3.7-6.8 4.3-8.9.6-2.1 2.2-6.4 2.1-7 0 0-4.7 1.3-7.5 2.1-2.9.8-8.3 1.5-9.2 1.5-.9-.1-9.8-2.1-16.5-4.5z" fill="#000000" stroke-width="none" opacity="1"></path><path id="SvgjsPath12484" d="M108.7 120.8c-2.9.8-8.3 1.5-9.2 1.5s-9.9-2-16.5-4.4c0 0 .3 1.9 3.1 5.1.7.8 1.6 1.9 2.5 3.1 2.5.6 6.6 1.6 8.9 2 0 0 .4-1.3.6-1.3.2-.1.2 1.4.2 1.4s4.1.9 6.6.7c0 0 .6-.4 1.4-.1 0 0 3.9-.5 7.3-1.2.3-.7.5-1.3.6-1.7.6-2.1 2.2-6.4 2.1-7-.1-.1-4.8 1.1-7.6 1.9z" fill="#ffffff" stroke-width="none" opacity="1"></path><path id="SvgjsPath12485" d="M117.9 118.4c-.5-.5-1.3-1.2-2.2-1.2-.4 0-.5.2-.4.4.1.1.2.3.3.4-2.4.7-4.8 1.3-7.3 1.9-2.8.6-6 1.8-9 1.8-2.6 0-5.7-1-8.2-1.6-2.4-.6-4.8-1.4-7.3-2.2.2-.1.4-.1.5-.2.4-.2.4-.5-.1-.6-.7-.2-1.4.1-2 .4s-1 .7-.7 1.3c.1.2.4.2.5.2.1 0 .1 0 .2-.1.4 1.9 2.5 3.7 3.8 5.4 2 2.5 4 5 5.8 7.6.6.9 1.2 2.2 2.2 2.9.9.5 2.2.5 3.4.6 4 .3 8.1.4 12.2.4.5 0 .9-.2 1.1-.4 2.9-5 4.8-10.3 6.1-15.7.2.4.4.7.8 1 .3.2.7.2.9-.1.6-.9-.2-1.8-.6-2.2zm-8.7 15.6c-3 0-5.8-.1-8.8-.3-1.3-.1-3.8 0-4.8-.5s-2-2.1-2.7-2.9c-1.7-2-3.3-3.9-4.9-5.9-1.4-1.7-3.9-3.9-4.4-5.9 2.2 1 4.7 1.8 7.2 2.5 2.7.8 6 1.9 8.9 2.2 2.6.3 5.9-.9 8.2-1.5 2.7-.7 5.4-1.6 7.9-2.6-1.4 5.1-3.7 10.1-6.6 14.9zm8.2-18.5c-.3-.1-.6.1-.4.3.8.5 1.6 1.1 2.2 1.7s.9 1.3 1.4 1.9c.1.2.5.1.5-.1 0-1.4-1.9-3.1-3.7-3.8z" fill="#d19271" stroke-width="none" opacity="1"></path></g></g><g id="svga-group-eyes-left-move" transform="matrix(1,0,0,1,0,0)"><g id="svga-group-eyes-left"><g id="svga-group-eyesback-left"><path id="SvgjsPath12576" d="M80.2 74.2c7.5 0 13.5 5.8 13.5 13s-6 13-13.5 13-13.5-5.8-13.5-13 6-13 13.5-13z" fill="#ffffff" stroke-width="none" opacity="1"></path></g><g id="svga-group-eyesiriswrapper-left" transform="matrix(1,0,0,1,0,0)"><g id="svga-group-eyesiriscontrol-left" transform="matrix(1,0,0,1,0,0)"><g id="svga-group-eyesiris-left"><path id="SvgjsPath12716" d="M80.2 81.9c2.9 0 5.3 2.4 5.3 5.3s-2.4 5.3-5.3 5.3-5.3-2.4-5.3-5.3 2.4-5.3 5.3-5.3z" fill="#66724e" stroke-width="none" opacity="1"></path><path id="SvgjsPath12717" d="M80.2 82.2c2.8 0 5 2.2 5 5s-2.2 5-5 5-5-2.2-5-5 2.2-5 5-5m0-.6c-3.1 0-5.6 2.5-5.6 5.6s2.5 5.6 5.6 5.6 5.6-2.5 5.6-5.6c0-3.1-2.5-5.6-5.6-5.6z" fill="#455328" stroke-width="none" opacity="1"></path><path id="SvgjsPath12718" d="M82.9 82.6c-.1.3-.3.7-.5 1s-.4.6-.7.9c.1-.3.3-.7.5-1 .2-.4.4-.7.7-.9zm.7.6-.6.9c-.2.3-.5.6-.8.8l.6-.9c.3-.3.5-.6.8-.8zm-.9 2.1c.2-.3.4-.5.7-.7.2-.2.5-.4.8-.6-.2.3-.4.5-.7.7-.2.2-.5.4-.8.6zm.3.6c.3-.2.6-.3.9-.4s.6-.2 1-.3c-.3.2-.6.3-.9.4s-.7.2-1 .3zm.3.5.9-.3c.3-.1.6-.1.9-.1l-.9.3c-.3.1-.6.1-.9.1zm.1.7c.2 0 .3-.1.5-.1h.5c.3 0 .6.1.9.2-.3.1-.6 0-.9 0-.2 0-.3 0-.5-.1-.2.1-.3.1-.5 0zm-.2.6c.3 0 .7.1 1 .1l.9.3c-.3 0-.7-.1-1-.1-.2 0-.5-.1-.9-.3zm0 .8c.2 0 .3.1.4.1s.3.1.4.2c.3.1.5.3.8.5-.3-.1-.6-.2-.8-.3-.1-.1-.3-.1-.4-.2-.1-.2-.3-.2-.4-.3zm-.5.8c.3.1.5.3.8.4.2.2.5.3.7.6-.3-.1-.5-.3-.8-.4-.3-.2-.5-.4-.7-.6zm-.9-7.1c0 .3-.1.7-.2 1s-.2.7-.4 1c0-.3.1-.7.2-1 .1-.3.2-.6.4-1zM80.5 84c-.1-.3 0-.7 0-1s.1-.7.2-1c.1.3 0 .7 0 1-.1.3-.1.7-.2 1zm-1.2-2c.1.3.2.7.3 1s.1.7.1 1c-.1-.3-.2-.7-.3-1 0-.2-.1-.3-.1-.5V82zm-1.1.4c.2.3.3.6.4.9s.2.7.3 1c-.2-.3-.3-.6-.4-.9-.2-.3-.3-.7-.3-1zm-.9.5c.3.2.5.5.7.8s.4.6.5.9c-.3-.2-.5-.5-.7-.8-.2-.2-.4-.5-.5-.9zm-1.1.9c.3.2.7.4 1 .7.3.2.6.5.9.8-.3-.2-.7-.4-1-.7-.3-.2-.6-.5-.9-.8zm-.3 1c.3.1.5.2.8.3.2.2.5.3.7.5-.3-.1-.5-.2-.8-.3-.2-.1-.5-.2-.7-.5zm-.4 1.1c.3 0 .5 0 .8.1.2.1.5.1.7.3-.3 0-.5 0-.8-.1-.3-.1-.5-.1-.7-.3zm-.3 1.2c.3-.1.6-.1.9-.1s.6 0 .9.1c-.3.1-.6.1-.9.1-.3 0-.6 0-.9-.1zm.2.9c.2-.1.5-.2.8-.2.3-.1.5-.1.8-.1-.2.1-.5.2-.8.2-.3.1-.6.1-.8.1zm0 1c.3-.2.6-.3.9-.4s.6-.2.9-.2c-.3.2-.6.3-.9.4-.2.1-.6.1-.9.2zm.5.8c.2-.2.5-.3.8-.5l.9-.3c-.2.2-.5.3-.8.5s-.6.3-.9.3zm.9 1c.1-.2.3-.4.5-.7.2-.2.4-.4.6-.5-.1.2-.3.4-.5.7-.2.2-.4.4-.6.5zm.9.8c.1-.3.2-.7.4-1s.3-.6.6-.9c-.1.3-.2.7-.4 1-.2.4-.4.7-.6.9zm1.1.4c0-.3 0-.6.1-.8.1-.3.2-.5.3-.8 0 .3 0 .6-.1.8 0 .3-.1.6-.3.8zm2.8-1.8c.2.2.3.5.3.8.1.3.2.5.2.8-.2-.2-.3-.5-.3-.8-.1-.2-.2-.5-.2-.8zm.7-.3c.2.2.4.4.5.6.2.2.3.4.4.7-.2-.2-.4-.4-.5-.6-.2-.3-.3-.5-.4-.7zm-1.5.6c.1.2.1.5.2.8v.8c-.1-.2-.1-.5-.2-.8 0-.3-.1-.6 0-.8zm-.7 0c.1.3.1.5.1.8s0 .5-.1.8c-.1-.3-.1-.5-.1-.8 0-.2 0-.5.1-.8z" fill="#455328" stroke-width="none" opacity="1"></path><path id="SvgjsPath12719" d="M80.2 84.2c1.7 0 3 1.3 3 3s-1.3 3-3 3-3-1.3-3-3 1.3-3 3-3z" fill="#000000" stroke-width="none" opacity="1"></path><path id="SvgjsPath12720" d="m79.5 84.8-.6-.6c-.2-.2-.5-.3-.8-.3s-.6.1-.8.3c-.2.2-.3.5-.3.8s.1.6.3.8l.6.6c.2.2.5.3.8.3s.6-.1.8-.3c.4-.6.4-1.2 0-1.6zm2.7 5.1c1 0 1-1.5 0-1.5-.9 0-.9 1.5 0 1.5z" fill="#ffffff" stroke-width="none" opacity="1"></path></g></g></g><g id="svga-group-eyesfront-left"><path id="SvgjsPath12584" d="M80.2 73.7c-7.8 0-14.1 6.1-14.1 13.6s6.3 13.6 14.1 13.6 14.1-6.1 14.1-13.6S88 73.7 80.2 73.7zm9.4 11.5c-.2.3-1.4 4.3-3.6 6.2-2.2 1.9-11.4 3.9-14 3.1-2.6-.8-2.8-6.5-3.5-8.1 0 0 22.3-3.4 21.1-1.2z" fill="#fbd5c0" stroke-width="none" opacity="1"></path><path id="SvgjsPath12585" d="M81.6 96.7c-5.6.5-8.5.4-8.5.4s9 2.2 14.6-2c1.2-.9 2.4-7.5 2.4-7.5s-1.3 5.2-3 7.1c-.9 1.3-3.8 1.9-5.5 2z" fill="#dc9f7d" stroke-width="none" opacity="1"></path><path id="SvgjsPath12586" d="M74.4 94.7c1.3-.1 2.6-.2 3.8-.5 1.3-.2 2.5-.5 3.8-.9l1.8-.6c.6-.2 1.2-.5 1.8-.9.6-.4 1-.9 1.4-1.4.4-.5.7-1.1 1-1.7.6-1.2 1.1-2.3 1.5-3.6.1-.1.1-.2 0-.3-.1-.1-.1-.1-.2-.1h.2l2.9-2.3s-3.3-1.2-4.7-1.5c-1.3-.3-13.6 3.1-14.7 3.3s-5.2 2.5-5.2 2.5.2 0 .6-.1c.2.5.3 1.1.5 1.7.1.6.3 1.3.4 1.9s.3 1.2.6 1.9c.2.6.5 1.2.9 1.7.2.2.5.5.8.6.3.2.6.2.9.3h1.9zm-2.8-.5c-.3-.2-.5-.3-.7-.6-.8-1-1.2-2.3-1.4-3.5-.1-.6-.2-1.3-.4-1.9-.1-.6-.2-1.1-.4-1.7 3.5-.4 15.9-1.8 16.9-1.8.9-.1 2.9 0 3.7 0 .1 0 .2.1.3.2s.1.2 0 .3c-.5 1.2-.9 2.4-1.6 3.5-.3.6-.7 1.1-1.1 1.6-.4.5-.9.9-1.4 1.3-1.1.7-2.3 1.1-3.5 1.4-1.2.4-2.5.7-3.7 1-1.3.3-2.5.5-3.8.6-.6 0-1.3.1-1.9 0-.4-.2-.7-.2-1-.4z" fill="#000000" stroke-width="none" opacity="1"></path></g></g></g><g id="svga-group-eyes-right-move" transform="matrix(1,0,0,1,0,0)"><g id="svga-group-eyes-right"><g id="svga-group-eyesback-right"><path id="SvgjsPath12577" d="M119.8 74.2c7.5 0 13.5 5.8 13.5 13s-6 13-13.5 13-13.5-5.8-13.5-13 6-13 13.5-13z" fill="#ffffff" stroke-width="none" opacity="1"></path></g><g id="svga-group-eyesiriswrapper-right" transform="matrix(1,0,0,1,0,0)"><g id="svga-group-eyesiriscontrol-right" transform="matrix(1,0,0,1,0,0)"><g id="svga-group-eyesiris-right"><path id="SvgjsPath12721" d="M119.8 82.6c2.5 0 4.6 2.1 4.6 4.6s-2.1 4.6-4.6 4.6-4.6-2.1-4.6-4.6 2.1-4.6 4.6-4.6z" fill="#66724e" stroke-width="none" opacity="1"></path><path id="SvgjsPath12722" d="M119.8 82.8c2.4 0 4.4 2 4.4 4.4s-2 4.4-4.4 4.4-4.4-2-4.4-4.4 2-4.4 4.4-4.4m0-.5c-2.7 0-4.9 2.2-4.9 4.9s2.2 4.9 4.9 4.9 4.9-2.2 4.9-4.9-2.2-4.9-4.9-4.9z" fill="#455328" stroke-width="none" opacity="1"></path><path id="SvgjsPath12723" d="M122.1 83.1c-.1.3-.3.6-.4.9-.2.3-.4.5-.6.8.1-.3.3-.6.4-.9.2-.3.4-.5.6-.8zm.7.6c-.2.3-.3.6-.6.8-.2.2-.4.5-.7.7.2-.3.3-.6.6-.8.2-.3.5-.5.7-.7zm-.8 1.8.6-.6c.2-.2.4-.3.7-.5l-.6.6c-.2.2-.4.4-.7.5zm.2.5c.3-.2.5-.3.8-.4s.6-.2.9-.2c-.2.2-.5.3-.8.4-.3.1-.6.2-.9.2zm.3.5c.3-.1.5-.2.8-.2.3-.1.5-.1.8-.1-.3.1-.5.2-.8.2-.2.1-.5.1-.8.1zm.1.6c.1 0 .3 0 .4-.1h.4c.3 0 .5.1.8.2h-.8c-.1 0-.3 0-.4-.1-.1.1-.2.1-.4 0zm-.1.6c.3 0 .6.1.8.1.3.1.6.2.8.3-.3 0-.6-.1-.8-.1-.3-.1-.6-.2-.8-.3zm-.1.6c.1 0 .2.1.4.1.1.1.2.1.4.2s.5.3.7.4c-.3-.1-.5-.2-.7-.3-.1-.1-.2-.1-.3-.2-.2 0-.3-.1-.5-.2zm-.4.7c.2.1.4.2.7.4.2.2.4.3.6.5-.2-.1-.5-.2-.7-.4-.2-.1-.4-.3-.6-.5zm-.8-6.1c0 .3-.1.6-.2.9s-.2.6-.3.8c0-.3.1-.6.2-.9 0-.3.1-.6.3-.8zm-1.2 1.5v-.9c0-.3.1-.6.2-.9v.9c0 .3-.1.6-.2.9zm-1-1.7c.1.3.2.6.2.9.1.3.1.6.1.9-.1-.3-.2-.6-.2-.9 0-.2-.1-.3-.1-.4v-.5zm-1 .3c.2.3.3.6.4.8.1.3.2.6.2.9-.2-.3-.3-.6-.4-.8 0-.3-.1-.6-.2-.9zm-.8.5c.2.2.4.5.6.7s.3.5.4.8c-.2-.2-.4-.5-.6-.7-.1-.3-.2-.5-.4-.8zm-.9.7c.3.2.6.4.8.6s.5.5.8.7c-.3-.2-.6-.4-.8-.6-.3-.2-.5-.4-.8-.7zm-.2.9c.2.1.5.2.7.3.2.1.4.3.6.4-.2-.1-.5-.2-.7-.3-.3 0-.5-.2-.6-.4zm-.4 1c.2 0 .4 0 .7.1.2.1.4.1.6.2-.2 0-.4 0-.7-.1-.2 0-.4-.1-.6-.2zm-.2 1c.2-.1.5-.1.8-.1s.5 0 .8.1c-.2.1-.5.1-.8.1s-.6 0-.8-.1zm.1.8c.2-.1.4-.2.7-.2.2 0 .5-.1.7-.1-.2.1-.4.2-.7.2-.2.1-.5.1-.7.1zm0 .8c.2-.1.5-.2.8-.3s.5-.1.8-.2c-.2.1-.5.2-.8.3-.2.2-.5.2-.8.2zm.5.8c.2-.2.4-.3.7-.4s.5-.2.8-.3c-.2.2-.4.3-.7.4-.3.2-.6.3-.8.3zm.7.8c.1-.2.3-.4.4-.6l.5-.5c-.1.2-.3.4-.4.6-.1.3-.3.4-.5.5zm.8.8c.1-.3.2-.6.4-.8s.3-.5.5-.8c-.1.3-.2.6-.4.8-.2.3-.3.5-.5.8zm1 .3c0-.2 0-.5.1-.7s.1-.5.3-.7c0 .2 0 .5-.1.7s-.2.5-.3.7zm2.4-1.6c.1.2.2.4.3.7s.1.5.2.7c-.1-.2-.2-.4-.3-.7-.1-.2-.2-.4-.2-.7zm.6-.2.5.5.3.6-.5-.5-.3-.6zm-1.3.5c.1.2.1.4.1.7v.7c-.1-.2-.1-.4-.1-.7v-.7zm-.6 0c.1.2.1.5.1.7s0 .5-.1.7c-.1-.2-.1-.5-.1-.7s0-.5.1-.7z" fill="#455328" stroke-width="none" opacity="1"></path><path id="SvgjsPath12724" d="M119.8 84.6c1.4 0 2.6 1.2 2.6 2.6s-1.2 2.6-2.6 2.6-2.6-1.2-2.6-2.6 1.2-2.6 2.6-2.6z" fill="#000000" stroke-width="none" opacity="1"></path><path id="SvgjsPath12725" d="m119.2 85.1-.5-.5c-.2-.2-.4-.3-.7-.3-.2 0-.5.1-.7.3-.2.2-.3.4-.3.7s.1.5.3.7l.5.5c.2.2.4.3.7.3.2 0 .5-.1.7-.3.3-.5.3-1.1 0-1.4zm2.4 4.4c.8 0 .8-1.3 0-1.3-.9 0-.9 1.3 0 1.3z" fill="#ffffff" stroke-width="none" opacity="1"></path></g></g></g><g id="svga-group-eyesfront-right"><path id="SvgjsPath12587" d="M119.8 73.7c-7.8 0-14.1 6.1-14.1 13.6s6.3 13.6 14.1 13.6 14.1-6.1 14.1-13.6-6.3-13.6-14.1-13.6zm9.8 18.7c-2.6.7-12.7.7-14.9-1s-3.5-5.2-3.6-5.4c-1.2-1.9 21.1 1.1 21.1 1.1-.7 1.4 0 4.7-2.6 5.3z" fill="#fbd5c0" stroke-width="none" opacity="1"></path><path id="SvgjsPath12590" d="M127.7 85.1c-1.1-.2-12.6-.9-14-.6s-5.5-1.1-5.5-1.1l2.9 2.2h.2s-.1 0-.1.1c-.1.1-.1.2 0 .3.2.5.5 1.1.7 1.6.3.5.5 1 .8 1.5.3.5.7 1 1 1.4l.6.6.3.3c.1.1.2.2.4.2.5.3 1.1.4 1.7.6.6.1 1.2.2 1.7.3 1.2.2 2.3.2 3.5.2h3.5c1.2-.1 2.3-.1 3.5-.3.6-.1 1.2-.2 1.7-.6.5-.4.8-.9 1-1.5.2-.6.3-1.2.4-1.7.1-.5.1-1.1.3-1.5.7.1 1.1.1 1.1.1s-3.6-1.7-5.7-2.1zm4 3.7c-.1.6-.1 1.2-.3 1.7-.2.6-.4 1.1-.9 1.4-.4.4-1 .5-1.6.6-2.3.3-4.7.3-7 .2-1.2-.1-2.3-.2-3.5-.3-1.1-.2-2.3-.3-3.3-.8-.1-.1-.2-.1-.4-.2l-.3-.3-.6-.6c-.4-.4-.8-.9-1.1-1.4-.7-1-1.1-2-1.6-3.1-.1-.1-.1-.2 0-.3.1-.1.1-.1.2-.1.8 0 2.9-.1 3.8 0 .9.1 12.7 1.2 16.9 1.6-.2.6-.3 1.1-.3 1.6z" fill="#000000" stroke-width="none" opacity="1"></path><path id="SvgjsPath12591" d="M114.7 93.6c-1.8-1.6-3.7-5.3-3.7-5.3s1.7 5 2.6 6.1c.9 1.1 10.5 2.5 11.5 2.4s-3.4-.8-4.6-1.1c-1.2-.3-4.7-1.1-5.8-2.1zM110 81l-.9.6 16.8 1.1L110 81z" fill="#dc9f7d" stroke-width="none" opacity="1"></path></g></g></g><g id="svga-group-facehighlight-single"></g><g id="svga-group-eyebrows-left-move" transform="matrix(1,0,0,1,0,0)"><g id="svga-group-eyebrows-left-rotate" transform="matrix(1,0,0,1,0,0)"><g id="svga-group-eyebrows-left" transform="matrix(1.0500002000000002,0,0,1.0500002000000002,-3.9072658426239144,-3.559493760623184)"><path id="SvgjsPath12506" d="M65.88 71.13c2.13-.71 4.25-1.44 6.39-2.04.53-.16 1.07-.3 1.6-.43.26-.05.53-.12.78-.16.3-.06.38-.04.62-.01.46.09.97.26 1.47.45.5.2 1 .42 1.5.65 1 .46 1.97 1 2.93 1.55.97.54 1.95 1.05 2.96 1.52 2.02.94 4.08 1.8 6.22 2.56l.12-.16c-.77-.89-1.67-1.6-2.58-2.28a30.81 30.81 0 0 0-2.82-1.89 23.88 23.88 0 0 0-3.03-1.53 87.21 87.21 0 0 0-3.18-1.24c-.54-.2-1.08-.39-1.64-.56-.56-.16-1.13-.32-1.78-.39-.18 0-.33-.03-.55.01-.23.02-.33.07-.49.1-.3.07-.57.17-.84.26-.54.19-1.08.39-1.6.6-1.05.43-2.08.88-3.1 1.35-1.02.46-2.04.95-3.04 1.45l.06.19z" fill="#2a232b" stroke-width="none" opacity="1"></path></g></g></g><g id="svga-group-eyebrows-right-move" transform="matrix(1,0,0,1,0,0)"><g id="svga-group-eyebrows-right-rotate" transform="matrix(1,0,0,1,0,0)"><g id="svga-group-eyebrows-right" transform="matrix(1.0500002000000002,0,0,1.0500002000000002,-6.088523804681415,-3.642244602794662)"><path id="SvgjsPath12507" d="M133.43 74.57c-1.92-.89-3.83-1.79-5.77-2.58-.48-.2-.97-.39-1.45-.57-.24-.08-.49-.17-.72-.23-.28-.08-.35-.08-.58-.07-.44.03-.93.14-1.42.27-.49.13-.98.29-1.47.45-.98.33-1.94.73-2.9 1.14-.96.41-1.94.78-2.93 1.11-1.99.66-4.01 1.25-6.09 1.74l-.09-.16c.82-.75 1.73-1.32 2.65-1.87.92-.55 1.87-1.03 2.84-1.47.97-.44 1.97-.81 3-1.12 1.03-.3 2.07-.56 3.11-.83.52-.13 1.05-.25 1.59-.35.55-.09 1.09-.18 1.71-.17.17.02.31.01.52.06.21.04.3.1.45.15.27.1.51.22.76.33.49.23.97.48 1.44.73.94.51 1.85 1.05 2.76 1.59.91.54 1.81 1.1 2.69 1.68l-.1.17z" fill="#2a232b" stroke-width="none" opacity="1"></path></g></g></g><g id="svga-group-beardwrap"><g id="svga-group-beard-single-move" transform="matrix(1,0,0,1,1,1)"><g id="svga-group-beard-single" transform="matrix(0.8499994000000002,0,0,0.8499994000000002,14.883083747795084,20.414846826296966)"><path id="SvgjsPath12496" d="M123.7 115.7c-4.9-3.5-12.5 1.2-16.6 1.8-4.1.6-10 .1-10 .1s-5.9-1.2-13.2-3.7c-3.1-1.1-6-1.3-9.2 1.8-3.2 3.1-4.9 8.7-3.9 15.6l.7-1.2s-.3 9.7 2.5 14.5l.8-1.9s.7 4.3 6.6 11.2c3.7 4.5 11.7 5.4 15.5 5.6l-.2-1.4s3.5 2.6 10.3.4v.6s11.1-.1 16.4-12.6l.1 1.8s2.2-4.6 3.8-12c1.6-7.6 1.2-17.2-3.6-20.6zm-10.1 21.9c-2.5 2.6-10.5 4.7-19.4 3-5.2-1-12.4-6.7-15.6-14.9-1.5-4-1.6-7.5.6-9.1 2.4-1.9 7.6 1.1 11.3 2.3s8.4 1.4 10 1.4c3.8-.2 10.3-1.7 14.4-2.8 3-.8 5.4-1.8 6.9 1.3 1.5 3-2.4 13-8.2 18.8z" fill="#2a232b" stroke-width="none" opacity="1"></path><path id="SvgjsPath12497" d="M127.8 123c-.3-1.4-.7-2.8-1.4-4.1-.7-1.3-1.6-2.5-2.7-3.3-1.9-1.4-4.4-1.5-6.6-1.1-2.3.4-4.4 1.1-6.6 1.8-1.1.3-2.2.7-3.3.9-1.1.2-2.2.2-3.4.2-2.2 0-4.5-.1-6.8-.3-3.2-.7-6.5-1.7-9.7-2.7l-2.4-.8c-.8-.3-1.6-.6-2.4-.8-1.7-.4-3.6-.5-5.2.3-1.6.7-2.9 1.9-4 3.3-1 1.4-1.8 3-2.3 4.6-1 3.3-1 6.8-.5 10.1l.1.5.3-.4.4-.6c0 2.3.2 4.5.4 6.8.2 1.2.4 2.5.7 3.7.3 1.2.7 2.4 1.3 3.5l.2.3.2-.4.6-1.4c.6 2.3 1.8 4.3 3 6.3.7 1.1 1.4 2.1 2.2 3.1.8 1 1.5 2 2.6 2.8 2 1.7 4.4 2.6 6.9 3.3 2.5.7 5 1 7.5 1.1h.6l-.1-.6-.1-.4c.6.3 1.1.4 1.7.6.9.2 1.8.3 2.8.3.9 0 1.8-.1 2.7-.2.4-.1.9-.2 1.3-.3l.6-.2v.5h.5c1.9-.1 3.7-.6 5.5-1.2 1.7-.7 3.4-1.6 4.8-2.8 1.5-1.2 2.8-2.5 3.8-4 .7-1 1.3-2 1.9-3.1l.1 1.8.8-1.7c1.2-2.7 2.1-5.4 2.8-8.2.7-2.8 1.3-5.6 1.5-8.5.3-2.9.2-5.8-.3-8.7zm0 8.6c-.3 2.8-1 5.6-1.8 8.4-.6 2.1-1.3 4.2-2.1 6.2l-.1-1.8-.8 1.9c-.7 1.6-1.6 3.2-2.6 4.6-1 1.4-2.3 2.7-3.7 3.8-1.4 1.1-2.9 2-4.6 2.6-1.5.6-3 1-4.6 1.1V157.6l-.7.2-1.2.4c-.4.1-.8.2-1.3.3-.8.1-1.7.2-2.6.2-.8 0-1.7-.1-2.5-.3-.8-.2-1.7-.5-2.3-.9l-1-.7.2 1.1.1.8c-2.3-.1-4.6-.4-6.8-.9-2.4-.6-4.7-1.5-6.6-3-.9-.7-1.7-1.7-2.5-2.7-.8-1-1.5-2-2.2-3-1.4-2.1-2.6-4.3-3.2-6.6l-.2-.6-.2.6-.7 1.6c-.5-1-.9-2-1.2-3.1-.3-1.2-.5-2.4-.7-3.6-.3-2.4-.4-4.9-.4-7.4v-.6l-.3.6-.4.7c-.4-3.1-.2-6.3.8-9.3.5-1.6 1.3-3.1 2.3-4.3 1-1.2 2.3-2.3 3.8-2.9 1.5-.6 3.1-.6 4.7-.2.8.2 1.6.5 2.4.8l2.4.8c3.2 1 6.5 1.8 9.8 2.6 2.3.2 4.6.2 6.9.1 1.1-.1 2.3-.2 3.4-.4s2.2-.6 3.3-1c2.1-.8 4.3-1.6 6.5-1.9 2.2-.4 4.6-.3 6.5 1 1.2.8 2 2 2.7 3.3.6 1.3 1 2.7 1.3 4.1.5 2.5.5 5.4.2 8.2zm-5.5-13c-.1-.3-.3-.6-.5-.9-.4-.6-.9-1.1-1.6-1.4-.7-.3-1.4-.3-2.1-.2-1.3.2-2.5.6-3.7.9-2.4.6-4.8 1.2-7.2 1.7-2.4.5-4.8 1-7.2 1.1-2.4 0-4.9-.2-7.2-.7-2.4-.4-4.6-1.4-7-2.3-1.2-.4-2.4-.8-3.6-1-.6-.1-1.3-.1-1.9 0-.6.1-1.2.5-1.7.9-.9.9-1.2 2.3-1.2 3.5 0 1.3.2 2.5.5 3.7 1.4 4.8 4.1 9.2 7.8 12.5 1.9 1.6 4 3.1 6.4 3.9 1.2.5 2.5.6 3.7.8 1.2.1 2.5.2 3.7.2 2.5 0 5-.2 7.4-.8 1.2-.3 2.4-.6 3.5-1.1 1.1-.5 2.2-1.1 3.1-1.9 1.8-1.8 3.2-3.8 4.6-5.8s2.5-4.3 3.3-6.6c.4-1.2.8-2.4 1-3.6.1-.3.1-.6.1-1v-1c0-.3-.1-.6-.2-.9zm-.6 2.8c-.1 1.2-.4 2.4-.8 3.5-1.4 4.7-3.9 9-7.3 12.6-.9.8-2 1.4-3.1 1.9-1.1.4-2.3.8-3.5 1-2.4.5-4.9.6-7.3.4-1.2-.1-2.4-.2-3.6-.4-1.2-.2-2.4-.4-3.5-.9-2.2-.9-4.3-2.2-6.1-3.8-1.9-1.6-3.5-3.4-4.9-5.4-1.4-2-2.5-4.2-3.2-6.6-.3-1.2-.6-2.4-.5-3.6.1-1.2.4-2.4 1.2-3.3.4-.4.9-.7 1.5-.8.6-.1 1.2-.1 1.8 0 1.2.2 2.3.6 3.5 1.1 2.3.9 4.5 2 7 2.5 2.4.5 4.9.9 7.4.9 2.5-.1 5-.5 7.4-1 2.4-.5 4.8-1.1 7.2-1.7 1.2-.3 2.4-.7 3.5-.9 1.2-.2 2.1.1 2.8 1.1.2.2.3.5.4.7.1.2.2.5.2.8 0 .3.1.6.1.8-.2.5-.2.8-.2 1.1zm-38.3 21c-.8-1.4-1.4-2.9-1.9-4.5-.1 1.7.4 3.4 1.2 4.9.8 1.5 2.1 2.8 3.6 3.5-1.1-1.2-2.1-2.5-2.9-3.9zm3.2 6.4c-.6-.5-1.2-1-2-1.3.4.7.9 1.3 1.5 1.9.6.5 1.2 1 2 1.3-.4-.8-1-1.3-1.5-1.9z" fill="#1b141c" stroke-width="none" opacity="1"></path></g></g></g><g id="svga-group-mustache-single-move" transform="matrix(1,0,0,1,0,0)"><g id="svga-group-mustache-single" transform="matrix(0.7999992000000002,0,0,0.7999992000000002,0,0)"></g></g><g id="svga-group-nose-single-move" transform="matrix(1,0,0,1,0,0)"><g id="svga-group-nose-single"><path id="SvgjsPath12767" d="M99.1 116.5c.67.12 4.53-3.31 4.53-3.31s2.06 1.59 3.62 1.43c1.56-.16 2.44-1.08 3-1.96.56-.88-.89-3.1-1.78-4.41-.9-1.31-3.54-5.22-4.09-7.02-1.07-3.45-3-4.76-4.92-4.64-1.92.12-4.04 1.52-4.6 3.44-.56 1.92-.72 4.28-1.8 5.76s-3.32 4-3.56 4.72c-.24.72-.11 2.8 1.24 3.56 1.73.97 4.3-.51 4.3-.51s3.18 2.78 4.06 2.94z" fill="#fbd5c0" stroke-width="none" opacity="1"></path><path id="SvgjsPath12768" d="M110.28 110.87c-.42-1.01-1.08-1.86-1.81-2.61.57.88 1.08 1.8 1.39 2.76.15.48.24.97.16 1.42-.05.23-.12.41-.26.6-.13.2-.29.39-.47.54-.69.66-1.7.91-2.68.78-.49-.06-.99-.2-1.46-.39-.45-.16-.86-.39-1.29-.62.38-.56.72-1.15 1.02-1.76-.97.91-1.89 1.83-2.87 2.64-.49.4-.98.8-1.51 1.09-.51.3-1.07.55-1.51.52-.12.01-.21-.02-.31-.04-.09-.05-.17-.06-.3-.16-.24-.15-.49-.36-.74-.55-.5-.39-.99-.82-1.49-1.23-.99-.84-1.99-1.69-3.07-2.48a21.8 21.8 0 0 0 1.68 2.24c-.5.22-1.01.41-1.53.52-.64.12-1.3.15-1.84-.1-1.09-.53-1.72-1.83-1.54-2.94.05-.28.13-.5.3-.74.17-.26.36-.53.56-.79.4-.52.82-1.02 1.26-1.52l.66-.74c.26-.28.46-.56.67-.84.41-.57.77-1.18 1.07-1.83.3-.65.48-1.4.59-2.06.12-.68.22-1.35.3-2.02.15-1.35.27-2.69.31-4.04.1-2.7.03-5.42-.51-8.07.05 2.69-.14 5.35-.4 8-.15 1.32-.29 2.65-.5 3.96-.1.66-.2 1.31-.32 1.96-.12.66-.27 1.22-.54 1.79a9.34 9.34 0 0 1-.94 1.65c-.18.26-.37.53-.57.74-.23.26-.45.51-.66.78-.43.53-.85 1.07-1.24 1.63-.2.28-.39.57-.57.88-.2.33-.34.76-.37 1.14-.13 1.57.85 3.05 2.25 3.55.73.23 1.47.11 2.12-.11.54-.19 1.03-.46 1.49-.77.24.28.47.57.71.84.44.5.91.96 1.41 1.42.25.23.51.44.82.65.13.1.36.22.57.3.22.06.44.12.66.11.88 0 1.55-.38 2.14-.76.58-.41 1.1-.86 1.55-1.37.44-.48.84-.99 1.21-1.53.75.66 1.64 1.25 2.68 1.45.54.12 1.11.12 1.66 0 .55-.14 1.07-.41 1.49-.8.21-.19.39-.42.54-.65.17-.23.29-.54.32-.84.06-.55-.08-1.1-.29-1.6z" fill="#cd865f" stroke-width="none" opacity="1"></path></g></g><g id="svga-group-hair-front"></g><g id="svga-group-glasses-single-move" transform="matrix(1,0,0,1,0,0)"><g id="svga-group-glasses-single"><path id="SvgjsPath12652" d="M62.5 82c-1 1 .1 5.6 1.5 9.5 1.4 3.9 2.3 6.4 5 7.4s9.7 1.9 16.8 1.2c7.1-.7 7.3-2.6 8.1-3.9.8-1.3 2.9-8.9 2.9-10.8 0-1.9-3.4-2.7-5.4-3.1-2-.3-12.6-1.2-18-1.6-5.4-.3-9.7 0-10.9 1.3z" fill="url(#SvgjsLinearGradient12653)" opacity="1"></path><path id="SvgjsPath12657" d="M136.8 82.2c1.1 1 .7 5.4 0 9.3-.8 3.8-1.3 6.2-3.7 7.2s-9.1 2-16.1 1.3c-7.1-.7-7.5-2.5-8.6-3.8-1-1.3-4.2-8.8-4.5-10.8-.3-1.9 3-2.7 4.9-3 1.9-.3 12.2-1.1 17.4-1.5 5.1-.3 9.2 0 10.6 1.3z" fill="url(#SvgjsLinearGradient12658)" opacity="1"></path><path id="SvgjsPath12662" d="M139.5 81.2c-.7-.6-3.9-.7-7.9-.9-3.8-.2-15.4 0-22.2 1.2-3.9.7-7 1.4-8.5 1.4h-1.6c-1.5 0-4.7-.8-8.8-1.5-7.1-1.2-19-1.5-23-1.3-4.1.2-7.4.3-8.1.9-.6.6.6 4.2 1 4.9.4.8.7.6 1.2 1.1.4.5 1.7 6.1 3 8.8 1.3 2.8 2.8 4.5 10.6 5 7.8.6 14.4-.4 16.9-1.5 2.4-1.1 3.9-6 4.2-7.6.4-1.6.8-3.3 1.1-4.1.3-.8 2.1-1.4 2.1-1.4h1.5s1.8.6 2.3 1.4c.5.8 1.2 2.5 1.7 4.1.6 1.6 2.8 6.4 5.3 7.5 2.6 1.1 9.2 2 16.7 1.4 7.5-.6 8.6-2.3 9.5-5 .9-2.7 1.3-8.2 1.6-8.6.3-.5.7-.3.9-1.1.5-.6 1.2-4.1.5-4.7zm-43.9 6.4c-.6 4.4-2.3 9.2-3.7 10.3-2.1 1.8-11.3 2.3-16.6 1.8-5.3-.6-7.9-1.3-9.5-4.8-1.6-3.5-2.9-9.1-2.8-10.8.1-1.7 1.5-2.7 5.7-2.7s8.3.1 13.6.4c5.3.3 9.3 1.1 11.4 2.1 2.1.9 2.1 2.2 1.9 3.7zm39.9 7.2c-1 3.4-3.4 4.2-8.4 4.7-5.1.6-14.2.1-16.5-1.7-1.5-1.2-3.9-5.9-5.2-10.2-.4-1.5-.5-2.8 1.4-3.7 1.9-.9 5.8-1.7 10.9-2 5.1-.3 9.1-.3 13.1-.3s5.6 1 5.9 2.6c.2 1.7-.2 7.2-1.2 10.6z" fill="#26120b" stroke-width="none" opacity="1"></path><path id="SvgjsPath12663" d="M139.5 81.2c-.6-.4-1.4-.4-2.1-.5-.7-.1-1.5-.1-2.2-.2-1.5-.1-2.9-.2-4.4-.2-2.9-.1-5.9 0-8.9.1-2.9.1-5.9.3-8.8.7-2.9.3-5.8.9-8.7 1.5-.7.1-1.5.3-2.2.4-.7.1-1.5.1-2.2.1-1.5 0-3-.3-4.4-.6-2.9-.6-5.8-1.2-8.7-1.4-5.9-.6-11.8-.9-17.7-.9-1.5 0-2.9.1-4.4.2-1.5.1-3 .1-4.4.5-.3.1-.7.2-.8.6 0 .3 0 .7.1 1.1.1.7.3 1.4.6 2.1.1.3.2.7.4 1 .1.3.3.7.6.9s.7.4.8.8c.2.3.3.7.4 1.1l1.3 4.2c.5 1.4.9 2.8 1.6 4.1.3.6.8 1.2 1.3 1.7s1.2.8 1.8 1.1c1.3.6 2.8.8 4.3 1 2.9.4 5.9.5 8.8.4 2.9-.1 5.9-.3 8.7-1 .7-.2 1.4-.4 2-.7.6-.3 1.1-.9 1.5-1.4.8-1.2 1.4-2.5 1.9-3.9s.7-2.8 1.1-4.3c.1-.4.2-.7.3-1.1.1-.4.2-.7.5-1.1.6-.6 1.3-.9 2-1.2h1.5c.6.2 1.2.5 1.8.9.3.2.5.4.7.8.2.3.3.6.4.9.5 1.2 1 2.3 1.4 3.5.5 1.2 1 2.3 1.7 3.3.6 1.1 1.3 2.1 2.2 2.9.9.9 2.1 1.1 3.3 1.4 1.2.3 2.4.5 3.7.6 2.5.3 5 .4 7.5.3 2.5-.1 5-.2 7.4-.7 1.2-.3 2.4-.6 3.4-1.4 1-.7 1.6-1.9 1.9-3.1.7-2.4.9-4.9 1.3-7.4.1-.3.1-.6.2-.9.1-.3.4-.5.7-.7.4-.4.5-1.1.6-1.7.1-.6.2-1.2.3-1.9.1-.7.2-1.4-.1-1.9zm0 0c.2.2.3.6.3.9v.9c0 .6-.1 1.2-.2 1.9-.1.3-.1.6-.2.9-.1.3-.2.6-.5.8-.2.2-.5.3-.6.6-.1.3-.1.6-.2.9-.4 2.5-.6 5-1.3 7.4-.3 1.2-.9 2.4-1.9 3.2-1 .8-2.3 1.2-3.5 1.4-2.5.5-5 .7-7.5.8-2.5.1-5 0-7.5-.2-1.2-.1-2.5-.3-3.7-.6-.6-.1-1.2-.3-1.8-.5-.6-.2-1.2-.6-1.7-1-1-.9-1.7-1.9-2.3-3-.6-1.1-1.2-2.2-1.7-3.4-.5-1.2-.9-2.3-1.4-3.5-.1-.3-.3-.6-.4-.8-.1-.2-.3-.4-.6-.6-.5-.3-1.1-.6-1.6-.8h.1-1.5.1c-.7.2-1.3.6-1.8 1.1-.2.2-.3.6-.4.9-.1.3-.2.7-.3 1.1-.4 1.4-.6 2.9-1.1 4.3-.5 1.4-1.1 2.8-1.9 4-.4.6-1 1.2-1.7 1.6-.7.4-1.4.6-2.1.7-2.9.7-5.9.9-8.8 1-3 .1-5.9-.1-8.9-.5-1.5-.2-2.9-.5-4.3-1.1-.7-.3-1.3-.7-1.9-1.2-.6-.5-1-1.1-1.4-1.8-.7-1.3-1.2-2.7-1.6-4.1l-1.3-4.2c-.1-.3-.2-.7-.4-1-.1-.3-.5-.5-.8-.7-.3-.2-.5-.6-.7-.9-.1-.3-.3-.7-.4-1-.2-.7-.4-1.4-.6-2.2-.1-.4-.1-.7-.1-1.1 0-.2.1-.4.3-.5.2-.1.3-.2.5-.2 1.5-.3 2.9-.4 4.4-.5 1.5-.1 2.9-.2 4.4-.2 5.9-.1 11.8.2 17.7.8 2.9.3 5.9.8 8.8 1.4 2.9.6 5.8.8 8.7.1 2.9-.5 5.8-1.1 8.8-1.4 2.9-.3 5.9-.5 8.9-.6 3-.1 5.9-.2 8.9-.1 1.5.1 2.9.2 4.4.3.7.1 1.5.1 2.2.2.7.1 1.4.1 2.1.5zm-43.8 6.4c-.2 1.8-.7 3.6-1.2 5.3-.3.9-.6 1.7-.9 2.6-.4.8-.7 1.7-1.4 2.4s-1.6.9-2.5 1.2l-2.7.6c-1.8.3-3.6.4-5.4.4-3.6.1-7.3-.2-10.9-1-.9-.2-1.7-.6-2.5-1.1-.8-.5-1.4-1.2-1.9-2-.9-1.6-1.5-3.3-2-5.1-.5-1.7-1-3.5-1.3-5.3-.1-.5-.1-.9-.1-1.4 0-.5.1-1 .4-1.4.6-.8 1.6-1.1 2.5-1.3 1.8-.4 3.7-.2 5.5-.2l5.4.2c1.8.1 3.6.1 5.4.2 1.8.1 3.6.3 5.4.6 1.8.3 3.6.7 5.3 1.3.8.3 1.7.7 2.3 1.4.7.7.7 1.7.6 2.6zm-.1 0c.1-.9.1-1.9-.4-2.6-.6-.7-1.4-1.1-2.3-1.3-1.7-.6-3.5-.9-5.3-1.1-1.8-.2-3.6-.4-5.4-.5-1.8 0-3.6-.1-5.4-.1l-5.4-.2c-1.8-.1-3.6-.2-5.4.1-.9.2-1.7.4-2.2 1.1-.5.7-.4 1.6-.3 2.5.2 1.8.7 3.6 1.2 5.3.5 1.7 1.1 3.5 1.9 5.1.5.8 1.1 1.5 1.8 1.9.7.5 1.6.8 2.5 1 3.5.8 7.2 1 10.8.8 1.8-.1 3.6-.2 5.4-.5.9-.1 1.8-.3 2.7-.5.8-.2 1.8-.5 2.4-1 .6-.6 1-1.4 1.4-2.2.4-.8.7-1.7 1-2.5.3-1.7.7-3.5 1-5.3zm39.9 7.2c-.2.8-.6 1.7-1.2 2.4s-1.4 1.1-2.2 1.4c-1.7.6-3.5.9-5.2 1.1-3.5.4-7.1.3-10.7-.1-1.8-.2-3.5-.5-5.2-1.3-.8-.4-1.4-1.2-1.9-1.9-.5-.8-.9-1.5-1.3-2.3-.8-1.6-1.5-3.2-2.1-4.9-.3-.8-.6-1.7-.7-2.6-.1-.4-.1-.9.1-1.4s.5-.8.9-1.1c1.6-.9 3.3-1.3 5.1-1.7 1.8-.3 3.5-.6 5.3-.7 3.6-.2 7.1-.2 10.6-.3l2.7-.1c.9 0 1.8 0 2.7.1.9.1 1.8.2 2.6.7.8.4 1.6 1.2 1.7 2.1.2 1.8 0 3.6-.2 5.3-.2 1.9-.5 3.6-1 5.3zm0 0c.5-1.7.7-3.5.9-5.2.1-1.8.3-3.6.1-5.3-.1-.8-.8-1.5-1.6-1.8-.8-.3-1.6-.5-2.5-.5-1.7-.1-3.5 0-5.3 0l-5.3.1c-1.8.1-3.5 0-5.3.2-1.8.1-3.5.3-5.3.6-1.7.3-3.5.7-5 1.5-.4.2-.7.5-.8.9-.2.4-.2.8-.1 1.2.1.8.4 1.7.7 2.5.6 1.7 1.2 3.3 2.1 4.9.4.8.8 1.6 1.3 2.3.5.7 1 1.4 1.8 1.8 1.6.7 3.4.9 5.1 1.2 3.5.4 7.1.5 10.6.2 1.8-.2 3.5-.3 5.2-.9.8-.3 1.6-.7 2.2-1.4.6-.6.9-1.4 1.2-2.3z" fill="#070201" stroke-width="none" opacity="1"></path></g></g></g></g></g><rect id="svga-credit-rect" width="200" height="15" x="0" y="185" fill="#ecf0f1" opacity="0.5" style="display: none;"></rect><text id="svga-credit-text" font-family="Avenir Next, Roboto, Helvetica, Arial, sans-serif" font-size="10px" text-anchor="start" font-weight="400" size="10px" anchor="start" weight="400" fill="#333333" x="33.298973083496094" y="182.60824728012085" style="display: none;"><tspan id="SvgjsTspan12477" dy="13" x="33.298973083496094">Created on AvatarMaker.com</tspan></text></g><defs id="SvgjsDefs12424"><linearGradient id="SvgjsLinearGradient12653" x1="79.4739" y1="121.3709" x2="79.4739" y2="101.6175" gradientTransform="matrix(1 0 0 -1 0 202)" gradientUnits="userSpaceOnUse" class="svga-on-canvas-glasses-gradient-single-0-null"><stop id="SvgjsStop12654" stop-opacity="1" stop-color="#bfeaf2" offset="0" ></stop><stop id="SvgjsStop12655" stop-opacity="0.649" stop-color="#a1cae3" offset="0.351" ></stop><stop id="SvgjsStop12656" stop-opacity="0" stop-color="#6086c4" offset="1" ></stop></linearGradient><linearGradient id="SvgjsLinearGradient12658" x1="-1738.6592" y1="121.1959" x2="-1738.6592" y2="101.7599" gradientTransform="matrix(-1 0 0 -1 -1618 202)" gradientUnits="userSpaceOnUse" class="svga-on-canvas-glasses-gradient-single-1-null"><stop id="SvgjsStop12659" stop-opacity="1" stop-color="#bfeaf2" offset="0" ></stop><stop id="SvgjsStop12660" stop-opacity="0.649" stop-color="#a1cae3" offset="0.351" ></stop><stop id="SvgjsStop12661" stop-opacity="0" stop-color="#6086c4" offset="1" ></stop></linearGradient></defs></svg>
