<?xml version="1.0" encoding="UTF-8" standalone="no"?>
<svg viewBox="0 0 400 400" version="1.1" width="400" height="400" xmlns="http://www.w3.org/2000/svg" xmlns:svg="http://www.w3.org/2000/svg">
  <style>
  .s2 {stroke-width:13.0769; }
  .s {stroke-width:13.0769; }
  .f-light {fill: #d0cfce; }
  .f-light2 {fill: #9b9b9a; }
  .f-white {fill: #ffffff; }
  .f-red {fill: #d22f27; }
  .f-none {fill: none; stroke: #000; stroke-miterlimit: 2;}
  @media (prefers-color-scheme: dark) {  }
</style>
  <path class="s f-red" d="M 186.92308,84.965048 V 68.547621 c 0,-9.027656 7.3185,-16.346158 16.34615,-16.346158 v 0 c 9.02766,0 16.34616,7.318502 16.34616,16.346158 v 16.346158" />
  <path class="s f-light" d="m 52.884615,248.35536 v 0 c -9.027654,0 -16.346154,-7.31851 -16.346154,-16.34616 v -52.30771 c 0,-9.02765 7.3185,-16.34615 16.346154,-16.34615 v 0 c 9.027654,0 16.346154,7.3185 16.346154,16.34615 v 52.30771 c 0,9.02765 -7.3185,16.34616 -16.346154,16.34616 z" />
  <path class="s f-light" d="m 347.11539,248.35536 v 0 c 9.02765,0 16.34615,-7.31851 16.34615,-16.34616 v -52.30771 c 0,-9.02765 -7.3185,-16.34615 -16.34615,-16.34615 v 0 c -9.02766,0 -16.34616,7.3185 -16.34616,16.34615 v 52.30771 c 0,9.02765 7.3185,16.34616 16.34616,16.34616 z" />
  <path class="s f-light" d="M 274.86866,346.50357 H 125.13135 c -30.745158,0 -55.900581,-25.15543 -55.900581,-55.90059 V 140.86564 c 0,-30.74516 25.155423,-55.900592 55.900581,-55.900592 h 149.73731 c 30.74515,0 55.90057,25.155432 55.90057,55.900592 v 149.73734 c 0,30.74451 -25.15542,55.90059 -55.90057,55.90059 z" />
  <path class="s f-light2" d="M 196.71573,346.49834 H 283.589 c 25.94919,0 47.18023,-25.15543 47.18023,-55.90059 V 140.86041 c 0,-30.74516 -21.23104,-55.900593 -47.18023,-55.900593 h -15.38238" />
  <ellipse class="s f-white" cx="257.76468" cy="169.24846" rx="18.528692" ry="18.528698" />
  <ellipse class="s f-white" cx="143.339" cy="169.24518" rx="18.528692" ry="18.528698" />
  <path class="s f-white" d="M 255.57692,290.19564 H 144.42308 c -14.38462,0 -26.15385,-11.76924 -26.15385,-26.15386 v 0 c 0,-14.38462 11.76923,-26.15385 26.15385,-26.15385 h 111.15384 c 14.38462,0 26.15385,11.76923 26.15385,26.15385 v 0 c 0,14.38462 -11.76923,26.15386 -26.15385,26.15386 z" />
  <path class="s2 f-none" d="M 203.26923,119.89221" />
  <path class="s2 f-none" d="M 186.92308,84.302048 V 67.884621 c 0,-9.027656 7.3185,-16.346158 16.34615,-16.346158 v 0 c 9.02766,0 16.34616,7.318502 16.34616,16.346158 v 16.346158" />
  <path class="s2 f-none" d="M 274.86866,345.7693 H 125.13135 c -30.745158,0 -55.900581,-25.15543 -55.900581,-55.90059 V 140.13137 c 0,-30.74516 25.155423,-55.900591 55.900581,-55.900591 h 149.73731 c 30.74515,0 55.90057,25.155431 55.90057,55.900591 v 149.73734 c 0,30.74516 -25.15542,55.90059 -55.90057,55.90059 z" />
  <ellipse class="s2 f-none" cx="257.76468" cy="169.24518" rx="18.528692" ry="18.528698" />
  <ellipse class="s2 f-none" cx="143.339" cy="169.24191" rx="18.528692" ry="18.528698" />
  <path class="s f-none" d="M 255.57692,290.19237 H 144.42308 c -14.38462,0 -26.15385,-11.76924 -26.15385,-26.15386 v 0 c 0,-14.38461 11.76923,-26.15385 26.15385,-26.15385 h 111.15384 c 14.38462,0 26.15385,11.76924 26.15385,26.15385 v 0 c 0,14.38462 -11.76923,26.15386 -26.15385,26.15386 z" />
  <path class="s2 f-none" d="m 52.884615,248.35536 v 0 c -9.027654,0 -16.346154,-7.31851 -16.346154,-16.34616 v -52.30771 c 0,-9.02765 7.3185,-16.34615 16.346154,-16.34615 v 0 c 9.027654,0 16.346154,7.3185 16.346154,16.34615 v 52.30771 c 0,9.02765 -7.3185,16.34616 -16.346154,16.34616 z" />
  <path class="s2 f-none" d="m 347.11539,247.69236 v 0 c 9.02765,0 16.34615,-7.31851 16.34615,-16.34616 v -52.30771 c 0,-9.02765 -7.3185,-16.34615 -16.34615,-16.34615 v 0 c -9.02766,0 -16.34616,7.3185 -16.34616,16.34615 v 52.30771 c 0,9.02765 7.3185,16.34616 16.34616,16.34616 z" />
  <path class="s f-none" d="M 203.26923,224.80774" />
  <path class="s f-none" d="M 203.26923,355.577" />
  <line class="s2 f-none" x1="147.69231" x2="147.69231" y1="241.1539" y2="286.92313" />
  <line class="s2 f-none" x1="180.38461" x2="180.38461" y1="241.1539" y2="286.92313" />
  <line class="s2 f-none" x1="213.07692" x2="213.07692" y1="241.1539" y2="286.92313" />
  <line class="s2 f-none" x1="245.76923" x2="245.76923" y1="241.1539" y2="286.92313" />
</svg>
