<?xml version="1.0" encoding="UTF-8"?>
<svg version="1.1" viewBox="0 0 800 100" xmlns="http://www.w3.org/2000/svg">
<g transform="translate(-2609 -882.88)" display="none">
<rect x="2609" y="882.88" width="800" height="100" fill="#fff" stroke-width=".76539"/>
</g>
<g transform="translate(-2609 -882.88)">
<g transform="translate(2871.4 896.78)">
<rect x="5" y="17" width="62" height="38" fill="#f1b31c"/>
<rect x="5" y="30" width="62" height="12" fill="#d22f27"/>
<rect x="5" y="17" width="62" height="13"/>
<rect x="5" y="17" width="62" height="38" fill="none" stroke="#000" stroke-linecap="round" stroke-linejoin="round" stroke-width="2"/>
</g>
<g transform="translate(3023 897.03)">
<rect x="5" y="17" width="62" height="38" fill="#fff"/>
<rect x="5" y="30" width="62" height="12" fill="#1e50a0"/>
<rect x="5" y="50" width="62" height="5" fill="#d22f27"/>
<rect x="5" y="17" width="62" height="5" fill="#d22f27"/>
<rect x="5" y="17" width="62" height="38" fill="none" stroke="#000" stroke-linecap="round" stroke-linejoin="round" stroke-width="2"/>
</g>
<g transform="translate(2947.2 901.01)" stroke-linecap="round" stroke-linejoin="round" stroke-miterlimit="10">
<path d="m55 50c-1.5318-2.2976-6-6-11-6-1 0-1.6479 0.1075-2.4739 0.2521l-10.838 0.7479h-3.6883c-4.1231 0-7.5181 3.0361-9 6 0 0-0.953 1.6965-0.7547 2.2304 0.1009 0.2717 0.7547 0.1863 0.7547 0.1863h37.833s1.75 0.5 0.9167-1-1.75-2.4167-1.75-2.4167z" fill="#f1b31c" stroke="#f1b31c" stroke-width="1.8"/>
<path d="m66 55c-2-3-5.2153-4.2184-7-4-3.4536 0.4226-5.6051 3.6469-8.5 3-3.0688-0.6857-3.5667-3.3277-6-3-3.0049 0.4046-4.3383 4.0176-8 4-0.3861-0.0019-1.3036-0.0068-2.3333-0.4544-2.6102-1.1346-3.056-3.9705-6.6667-3.5456-4.0531 0.477-5.909 4.5912-9 4-2.6975-0.5159-3.112-3.5376-6-4-2.6618-0.4262-5.2581 1.9705-7 4z" fill="#92d3f5" stroke="#92d3f5" stroke-width="1.8"/>
<path d="m44 11c-0.6902-0.3647-2.1404-1.036-4-1-0.7209 0.0139-4.1718 0.1831-6 3-1.0579 1.63-1.0448 3.3162-1 4 0 0 2.7047-3.8756 5.8958-4.4583 2.1818-0.3984 3.4561-0.4574 4.3171-0.6458 0.8957-0.196 1.0507-0.7566 0.7871-0.8959z" fill="#5c9e31" stroke="#5c9e31" stroke-width="1.8"/>
<path d="m32.12 20.097c-1.2964-0.8621-3.4264-2.0067-6.256-2.4212-1.2909-0.1891-5.6496-0.6543-9.8613 1.9381-1.2756 0.7852-2.1981 1.6419-2.7981 2.2738 0 0 6.9849 2.029 18.915-1.7907" fill="#5c9e31" stroke="#5c9e31" stroke-width="1.8"/>
<path d="m57 17c-1.0036-0.7717-1.7235-1.2799-3.0353-1.9725-1.1237-0.5933-3.5708-1.8975-6.9647-2.0275-1.5682-0.0601-4.8729-0.1943-8 2-2.4655 1.73-3.574 3.9823-4 5 0 0 4.7083-1.4583 6.125-1.6667 1.4167-0.2083 4.0791-0.605 5.6247-0.605 1.5709 0 3.7086-0.02 5.542 0.1884 1.8333 0.2083 3.4132 0.4239 4.2377 0.7421 0.6706 0.2588 0.9765 0.3843 1.0628-0.4235 0.0248-0.2324-0.0399-0.8106-0.5922-1.2353z" fill="#b1cc33" stroke="#b1cc33" stroke-width="1.8"/>
<path d="m50 30c-0.2987-1.0506-1.0579-3.1512-3-5-0.6188-0.5891-3.124-2.8339-7-3-2.2968-0.0984-4.0812 0.5756-5 1 0 0 0.8466 1.0302 2.4858 1.9526s5.0975 3.1633 7.2225 3.9387 3.7917 0.9004 5.2917 1.1087" fill="#b1cc33" stroke="#b1cc33" stroke-width="1.8"/>
<path d="m31 23c-0.6941-0.2235-1.7119-0.7514-3-1-3.5551-0.6861-8.9903-0.0524-12 4-1.9682 2.6501-2.0579 5.6294-2 7 0 0 2.5474-1.9157 6.8333-4.5553 4.0392-2.4876 5.7563-2.6764 9.7817-3.314 1.447-0.2291 1.0404-1.9196 0.385-2.1307z" fill="#b1cc33" stroke="#b1cc33" stroke-width="1.8"/>
<polygon points="36.257 31.484 33.681 32.175 31.743 27.518 35.607 26.482" fill="#a57939" stroke-width="2"/>
<polygon points="37.486 36.069 34.203 36.648 32.514 31.868 37.438 31" fill="#a57939" stroke-width="2"/>
<polygon points="38.428 41.068 34.443 41.417 33.011 36.523 38.989 36" fill="#a57939" stroke-width="2"/>
<polygon points="37.994 46.157 33.994 46.157 32.994 41.157 38.994 41.157" fill="#a57939" stroke-width="2"/>
<g fill="none" stroke="#000" stroke-width="2">
<polygon points="36.257 31.484 33.681 32.175 31.743 27.518 35.607 26.482"/>
<polygon points="37.486 36.069 34.203 36.648 32.514 31.868 37.438 31"/>
<path d="m5.5 55c1.7419-2.0295 4.3382-4.4262 7-4 2.888 0.4624 3.3025 3.4841 6 4 3.091 0.5912 4.9469-3.523 9-4 3.6107-0.4249 4.0565 2.411 6.6667 3.5456 1.0297 0.4476 1.9472 0.4525 2.3333 0.4544 3.6617 0.0176 4.9951-3.5954 8-4 2.4333-0.3277 2.9312 2.3143 6 3 2.8949 0.6469 5.0464-2.5774 8.5-3 1.7847-0.2184 5 1 7 4"/>
<path d="M 41.5261,44.2521 C 42.3521,44.1075 43,44 44,44 c 5,0 9.4682,3.7024 11,6"/>
<path d="m18 51c1.4819-2.9639 4.8769-6 9-6h3.6883"/>
<path d="m14 33c-0.0579-1.3706 0.0318-4.3499 2-7 3.0097-4.0524 8.4449-4.686 12-4 1.2881 0.2486 2.3112 0.6668 3 1"/>
<polygon points="38.428 41.068 34.443 41.417 33.011 36.523 38.989 36"/>
<path d="m35 20c0.426-1.0177 1.5345-3.27 4-5 3.1271-2.1943 6.4318-2.0601 8-2 3.3939 0.13 5.8763 1.4067 7 2 1.3118 0.6926 2.3149 1.4347 3 2"/>
<path d="m32.12 20.097c-1.2964-0.8621-3.4264-2.0067-6.256-2.4212-1.2909-0.1891-5.6496-0.6543-9.8613 1.9381-1.2756 0.7852-2.1981 1.6419-2.7981 2.2738"/>
<path d="m44 11c-0.7129-0.3879-2.1404-1.036-4-1-0.7209 0.0139-4.1718 0.1831-6 3-1.0579 1.63-1.0448 3.3162-1 4"/>
<path d="m35 23c0.9188-0.4244 2.7032-1.0984 5-1 3.876 0.1661 6.3812 2.4109 7 3 1.9421 1.8488 2.7013 3.9494 3 5"/>
<path d="m28.955 28.029c-0.123-0.5023-0.3779-1.2592-0.9401-2.0289-0.3279-0.4488-0.6751-0.7854-0.9699-1.0293"/>
<path d="m25.146 28.891c-0.1875-0.4818-0.539-1.1991-1.1969-1.8887-0.3836-0.4022-0.7718-0.6906-1.0959-0.8939"/>
<path d="m22.225 30.822c-0.2152-0.4702-0.6079-1.1657-1.3048-1.816-0.4064-0.3791-0.8107-0.6444-1.146-0.8286"/>
<path d="m20.183 33.86c-0.2002-0.4767-0.5706-1.1844-1.2466-1.8563-0.3942-0.3919-0.7899-0.6698-1.1192-0.8645"/>
<path d="m42.845 19.44c9e-4 -0.5171 0.0699-1.3128 0.4345-2.1935 0.2126-0.5135 0.4705-0.9226 0.6993-1.2292"/>
<path d="m46.75 19.378c0.0684-0.5125 0.2406-1.2925 0.717-2.118 0.2779-0.4814 0.587-0.8533 0.8539-1.1274"/>
<path d="m50.044 20.565c0.0981-0.5077 0.3154-1.2763 0.8391-2.0726 0.3054-0.4644 0.6356-0.8177 0.918-1.0758"/>
<path d="m52.746 23.035c0.082-0.5105 0.2749-1.2856 0.773-2.0982 0.2906-0.4738 0.6094-0.8374 0.8835-1.1043"/>
<polygon points="37.994 46.157 33.994 46.157 32.994 41.157 38.994 41.157"/>
<path d="m39.009 27.062c0.3036-0.4185 0.8256-1.0231 1.637-1.5233 0.4731-0.2917 0.9217-0.4722 1.2868-0.5866"/>
<path d="m42.209 29.3c0.3557-0.3753 0.9521-0.9066 1.8218-1.2966 0.5071-0.2274 0.9755-0.3478 1.3524-0.4136"/>
<path d="m44.184 32.191c0.3769-0.354 1.0033-0.8496 1.8942-1.1884 0.5195-0.1975 0.9941-0.2904 1.3741-0.3341"/>
</g>
</g>
<g transform="translate(3103.4 899.4)">
<g>
<path d="m44.183 60.958c0 4.9583 7.8401 7.0417 7.8401 7.0417h-31.62s7.8401-2.0833 7.8401-7.0417v-4.9336h15.778z" fill="#d0cfce"/>
<path d="m63.194 56h-53.962c-2.8026 0-5.0746-2.272-5.0746-5.0746v-34.892c0-2.8026 2.272-5.0746 5.0746-5.0746h53.962c2.8026 0 5.0746 2.272 5.0746 5.0746v34.892c0 2.8026-2.272 5.0746-5.0746 5.0746z" fill="#9b9b9a" stroke-linecap="round" stroke-linejoin="round" stroke-miterlimit="10" stroke-width="2"/>
<path d="m67.547 46.721-63.334-22.521v-9.4576c0-1.8455 1.827-3.135 3.5659-2.5167l59.768 21.253z" fill="#fff"/>
<path d="m68.269 47.563s0.1688 4.8556-1.5499 6.8305-0.7221 1.6035-3.5247 1.6035h-53.962c-2.8026 0-4.164-1.852-4.164-2.4434l-0.9106-5.9906" fill="#d0cfce" stroke-linecap="round" stroke-linejoin="round" stroke-miterlimit="10" stroke-width=".9187"/>
</g>
<g fill="none" stroke="#000" stroke-linecap="round" stroke-linejoin="round" stroke-miterlimit="10">
<path d="m63.194 56h-53.962c-2.8026 0-5.0746-2.272-5.0746-5.0746v-34.892c0-2.8026 2.272-5.0746 5.0746-5.0746h53.962c2.8026 0 5.0746 2.272 5.0746 5.0746v34.892c0 2.8026-2.272 5.0746-5.0746 5.0746z" stroke-width="2"/>
<path d="m68.269 47.563s0.1688 4.8556-1.5499 6.8305-0.7221 1.6035-3.5247 1.6035h-53.962c-2.8026 0-4.164-1.852-4.164-2.4434l-0.9106-5.9906" stroke-width=".9187"/>
<path d="m63.194 56h-53.962c-2.8026 0-5.0746-2.272-5.0746-5.0746v-34.892c0-2.8026 2.272-5.0746 5.0746-5.0746h53.962c2.8026 0 5.0746 2.272 5.0746 5.0746v34.892c0 2.8026-2.272 5.0746-5.0746 5.0746z" stroke-width="2"/>
<line x1="7.2132" x2="65.213" y1="48.492" y2="48.492" stroke-width="2"/>
<path d="m43.183 60.958c0 4.9583 8.8401 7.0417 8.8401 7.0417h-31.62s8.8401-2.0833 8.8401-7.0417" stroke-width="2"/>
</g>
</g>
<g transform="translate(2686 894.78)">
<path d="m58 25.7-11.9-4.8c-0.2-4.3-1.9-11.3-10.6-11.6-12 0-14.6 11-14.6 11l-1.6 3.2-5.3 2.2" fill="#92d3f5"/>
<path d="m19.086 25.7-2.2858 5.7c-0.3115 0.5831-0.3832 1.2648-0.2 1.9l2.9 10.7c0.0564 0.1933 0.2588 0.3043 0.4521 0.2479 0.1196-0.0349 0.213-0.1284 0.2479-0.2479l0.2-7.7 0.6-0.6 1-1.3 8-8.8" fill="#61b2e4"/>
<path d="m17 60.949v-4c0-4.9941 4.6413-9.3352 9.6335-9.3352 6 5 12.997 4.9176 18.997-0.0824 4.9941 0 9.3691 4.4235 9.3691 9.4176v4" fill="#92d3f5"/>
<path d="m45.662 60.949v-4.0122c-0.1404-2.631-1.6486-5.3621-3.7023-7.0128 0.9952-0.5542 2.6756-1.5633 3.6708-2.3927 4.9941 1e-4 9.3691 4.4236 9.3691 9.4177v4" fill="#61b2e4"/>
<path d="m53.368 40.539c-2.5437-1.0747-3.7346-4.008-2.6599-6.5517s4.008-3.7346 6.5517-2.6599 3.7346 4.008 2.6599 6.5517c-0.4479 1.0601-1.2477 1.9332-2.2646 2.4721" fill="#61b2e4"/>
<path d="m55.314 32.472c-0.8786 0.137-1.6948 0.5381-2.34 1.15 1.5407-0.3467 3.1393-0.3467 4.68 0-0.6452-0.6119-1.4614-1.013-2.34-1.15z" fill="#92d3f5"/>
<polyline points="57.314 61 57.314 40.539 53.314 40.539 53.314 61" fill="#a57939"/>
<path d="m35.758 54.396c13.422-9.6934 13.094-22.147 11.7-27.583h-1.7s1.5809 7.897-9.7577 7.897-9.496-7.897-9.496-7.897h-1.7463c-1.6019 4.7451-2.3969 15.674 11 27.583z" fill="#d0cfce"/>
<path d="m45.758 25.814s1.5809 8.897-9.7577 8.897-9.496-8.897-9.496-8.897" fill="#fcea2b"/>
<path d="m19.086 25.8-2.1858 5.6c-0.3115 0.5831-0.3832 1.2648-0.2 1.9l2.8 10.7c0.0564 0.1933 0.2588 0.3043 0.4521 0.2479 0.1196-0.0349 0.213-0.1284 0.2479-0.2479l0.2-7.7c0.0103-0.473 0.0775-0.943 0.2-1.4" fill="none" stroke="#000" stroke-linecap="round" stroke-linejoin="round" stroke-width="2"/>
<path d="m26.9 17.5c-0.4245 1.0967-0.7263 2.2369-0.9 3.4v0l-12 4.9h44l-11.9-4.9c-0.2-4.3-2.2-11.3-10.9-11.6-13 0-15.2 13.5-15.2 13.5" fill="none" stroke="#000" stroke-linecap="round" stroke-linejoin="round" stroke-width="2"/>
<path d="m53.368 40.59c-2.5437-1.0747-3.7346-4.008-2.6599-6.5517s4.008-3.7346 6.5517-2.6599 3.7346 4.008 2.6599 6.5517c-0.4479 1.0601-1.2477 1.9332-2.2646 2.4721" fill="none" stroke="#000" stroke-linecap="round" stroke-linejoin="round" stroke-width="2"/>
<polyline points="57.314 60.051 57.314 40.605 53.314 40.605 53.314 60.051" fill="none" stroke="#000" stroke-linecap="round" stroke-linejoin="round" stroke-width="2"/>
<path d="m46.44 48.109c2.7065 0.407 5.2719 1.9246 6.8759 4.0597" fill="none" stroke="#000" stroke-linecap="round" stroke-linejoin="round" stroke-width="2"/>
<path d="m17 60v-3c0-4.5823 4.2159-8.3326 8.7675-8.92" fill="none" stroke="#000" stroke-linecap="round" stroke-linejoin="round" stroke-width="2"/>
<path d="m42 29.9c0 1.1-0.9 2-2 2s-2-0.9-2-2 0.9-2 2-2 2 0.9 2 2"/>
<path d="m34 29.9c0 1.1-0.9 2-2 2s-2-0.9-2-2 0.9-2 2-2 2 0.9 2 2"/>
<path d="m33 38.1c1.9 1 4.1 1 6 0" fill="none" stroke="#000" stroke-linecap="round" stroke-linejoin="round" stroke-width="2"/>
<path d="m35.758 54.396c13.422-9.6934 13.094-22.147 11.7-27.583h-1.7s1.5809 7.897-9.7577 7.897-9.496-7.897-9.496-7.897h-1.7463c-1.6019 4.7451-2.3969 15.674 11 27.583z" fill="none" stroke="#000" stroke-linecap="round" stroke-linejoin="round" stroke-width="2"/>
</g>
<g transform="translate(2810.9 894.25)">
<path d="m34.876 39.625a0.9958 0.9958 0 0 1-0.5176-0.1445l-7.6992-4.6592a1.0007 1.0007 0 0 1-0.3408-1.3692l11.117-18.585a1.0005 1.0005 0 0 1 1.3759-0.3423l7.7 4.6592a1.0009 1.0009 0 0 1 0.3379 1.3735s-6.8455 11.367-7.1267 11.842l-3.9864 6.7349a0.9949 0.9949 0 0 1-0.6172 0.46 0.9813 0.9813 0 0 1-0.2431 0.0301z" fill="#d0cfce"/>
<polygon points="42.244 13.68 45.666 15.751 43.622 19.152 40.199 17.081" fill="#3f3f3f"/>
<rect x="16.976" y="54.983" width="37" height="5" fill="#d0cfce"/>
<path d="m51.832 50.909a1.0037 1.0037 0 0 1-0.4629-0.1133l-3.5947-1.8789a1 1 0 0 1-0.4873-1.1973l0.2451-0.75c3.0068-9.1933-1.9766-14.56-5.2148-16.941a1 1 0 0 1-0.2364-1.3642l2.2032-3.2706a0.9993 0.9993 0 0 1 0.66-0.4272 1.01 1.01 0 0 1 0.7647 0.1831c4.59 3.4067 11.67 11.014 7.5263 23.685l-0.453 1.385a1.0012 1.0012 0 0 1-0.95 0.6895z" fill="#d0cfce"/>
<circle cx="42.138" cy="26.325" r="3" fill="#3f3f3f"/>
<path d="m54.959 54.983a8.064 8.064 0 0 0-16.128 0z" fill="#3f3f3f"/>
<g fill="none" stroke="#000" stroke-linecap="round" stroke-linejoin="round" stroke-width="2">
<path d="m32.265 37.581a1.894 1.894 0 0 1-2.4337 0.2808 2.001 2.001 0 0 1-0.8782-2.2937"/>
<polyline points="38.862 31.891 34.876 38.625 27.176 33.966 38.293 15.38 45.993 20.039 45.114 21.492"/>
<rect transform="rotate(-65.852,27.702,46.453)" x="26.703" y="35.954" width="2" height="21"/>
<rect x="16.976" y="54.983" width="37" height="5"/>
<rect transform="rotate(-58.824,43.11,16.112)" x="41.478" y="14.112" width="3.2644" height="4"/>
<path d="m41.182 50.799a7.0812 7.0812 0 0 1 12.794 4.1843"/>
<line x1="37.261" x2="41.182" y1="50.799" y2="50.799"/>
<path d="m48.238 48.03 0.245-0.75c3.2038-9.7964-2.1223-15.52-5.572-18.057"/>
<path d="m45.114 25.952c4.3016 3.1934 11.134 10.453 7.1716 22.572l-0.4532 1.3847"/>
<circle cx="42.138" cy="26.325" r="3"/>
</g>
</g>
<g transform="translate(2751.9 895.96)">
<g>
<path d="m23.5 14.586-4.5 1.75-7.25 8.5-4.5 10.75 2 5.25c1.2554 3.7911 3.5231 7.1832 7.25 10l2.5-3.3333s3.8218 7.7098 10.738 8.9598c0 0 10.262 1.936 15.595-0.8765 3.4203-1.8037 4.4167-4.4167 4.4167-4.4167l3.4167-3.4167 1.5833 2.3333 2.0833-0.0833 5.4167-7.25 1.75-5.4166-0.1667-4.5-2.3333-5.5-4.8333-7.4167s-2.6667-4.9167-8.1667-3.9167c0 0-6.5-4.8333-11.833-4.0833s-4.5834-1.25-13.167 2.6667z" fill="#f4aa41"/>
<polygon points="36 47.252 32.917 49.669 30.417 49.669 30.333 53.502 31.083 57.002 32.167 58.919 35 60.419 39.583 59.836 41.167 58.086 42.167 53.836 41.917 49.836 39.917 50.086" fill="#ea5a47"/>
<polygon points="34.333 42.419 38.667 42.586 41.583 40.336 39.833 37.086 32.5 36.919 30.917 40.669 33.083 41.919" fill="#3f3f3f"/>
</g>
<path d="m29.506 30.109s-1.8051 1.2424-2.7484 0.6679c-0.9434-0.5745-1.2424-1.8051-0.6679-2.7484s1.805-1.2424 2.7484-0.6679 0.6679 2.7484 0.6679 2.7484z"/>
<path d="m33.109 37.006h6.1457c0.4011 0 0.7634 0.2397 0.9203 0.6089l1.1579 2.7245-2.1792 1.1456c-0.6156 0.3236-1.3654-0.0645-1.4567-0.754" fill="none" stroke="#000" stroke-linecap="round" stroke-linejoin="round" stroke-miterlimit="10" stroke-width="2"/>
<path d="m34.761 40.763c-0.1132 0.6268-0.7757 0.9895-1.3647 0.7471l-2.3132-0.952 1.0899-2.9035c0.1465-0.3901 0.5195-0.6486 0.9362-0.6486" fill="none" stroke="#000" stroke-linecap="round" stroke-linejoin="round" stroke-miterlimit="10" stroke-width="2"/>
<path d="m30.436 50.027s-0.7187 8.7934 3.0072 9.9375c2.6459 0.8125 5.1497 0.5324 6.0625-0.25 0.875-0.75 2.6323-4.4741 1.8267-9.6875" fill="none" stroke="#000" stroke-linecap="round" stroke-linejoin="round" stroke-miterlimit="10" stroke-width="2"/>
<path d="m44.264 30.109s1.805 1.2424 2.7484 0.6679 1.2424-1.8051 0.6679-2.7484c-0.5745-0.9434-1.805-1.2424-2.7484-0.6679s-0.6679 2.7484-0.6679 2.7484z"/>
<path d="m25.624 42.839c-0.475 3.6024 2.2343 5.7505 4.2847 6.8414 1.1968 0.6367 2.6508 0.5182 3.7176-0.3181l2.581-2.0233 2.581 2.0233c1.0669 0.8363 2.5209 0.9548 3.7176 0.3181 2.0504-1.0909 4.7597-3.239 4.2847-6.8414" fill="none" stroke="#000" stroke-linecap="round" stroke-linejoin="round" stroke-miterlimit="10" stroke-width="2"/>
<path d="m19.951 28.357c-2.3166 5.1597-0.5084 13.025 0.119 15.376 0.122 0.4571 0.0755 0.9355-0.1271 1.3631l-1.9874 4.1937c-0.623 1.3146-2.3934 1.5533-3.331 0.4409-3.1921-3.7871-8.5584-11.39-6.5486-16.686 7.0625-18.61 15.868-18.143 15.868-18.143 2.8453-1.9336 13.104-6.9375 24.812 0.875 0 0 8.6323-1.7175 14.938 16.938 1.8036 5.3362-3.4297 12.867-6.5506 16.644-0.9312 1.127-2.7162 0.8939-3.3423-0.4272l-1.9741-4.1656c-0.2026-0.4275-0.2491-0.906-0.1271-1.3631 0.6275-2.3509 2.4356-10.216 0.119-15.376" fill="none" stroke="#000" stroke-linecap="round" stroke-linejoin="round" stroke-miterlimit="10" stroke-width="2"/>
<path d="m52.631 46.463s-3.0781 6.7216-7.8049 8.2712" fill="none" stroke="#000" stroke-linecap="round" stroke-linejoin="round" stroke-miterlimit="10" stroke-width="2"/>
<path d="m19.437 46.969s3.0781 6.0823 7.8049 7.632" fill="none" stroke="#000" stroke-linecap="round" stroke-linejoin="round" stroke-miterlimit="10" stroke-width="2"/>
<line x1="36.208" x2="36.208" y1="47.339" y2="44.309" fill="none" stroke="#000" stroke-linecap="round" stroke-linejoin="round" stroke-miterlimit="10" stroke-width="2"/>
</g>
<g transform="translate(2622.8 892.41)">
<path d="m39.822 32.522 4.0087-21.643c1.8086-7.7501-5.693-10.014-7.6152-1.7771l-3.6586 19.236c-0.7941 3.5808-1.8856 5.1414-3.2721 5.7653-2.3799 1.0711-4.5703-2.4069-5.5939-4.8077l-5.2927-12.413c-3.2362-7.0282-9.7419-3.7315-7.1376 2.7429l7.2784 16.518-1.2882-2.9677-3.1633-7.2934c-2.7812-5.8647-8.75-3.521-6.8125 2.2915 0 0 4.3337 10.662 5.6042 14.281 1.6565 4.7184 3.351 14.821 5.9365 19.102 5.6263 9.3151 20.608 8.1089 27.866 0 2.0403-2.2795 5.6369-7.247 7.6442-9.5556 2.7887-3.2074 10.086-11.535 10.086-11.535 1.4629-2.1582 0.3282-5.4939-0.8007-4.6726l-14.69 5.3904c-1.0085 0.339-1.6661-0.4599-2.0902-1.096-0.3091-0.4636 0.0883-2.0531 0.2066-2.7705 1.3997-7.8137 2.7993-15.627 4.199-23.441 1.195-5.9529-6.1175-8.1404-7.5747-2.0134" fill="#fcea2b"/>
<g fill="none" stroke="#000" stroke-linecap="round" stroke-linejoin="round" stroke-width="2">
<path d="m39.822 32.522 4.0087-21.643c1.8086-7.7501-5.693-10.014-7.6152-1.7771l-3.6586 19.236c-0.7941 3.5808-1.8856 5.1414-3.2721 5.7653-2.3799 1.0711-4.5703-2.4069-5.5939-4.8077l-5.2927-12.413c-3.2362-7.0282-9.7419-3.7315-7.1376 2.7429l7.2784 16.518-1.2882-2.9677-3.1633-7.2934c-2.7812-5.8647-8.75-3.521-6.8125 2.2915 0 0 4.3337 10.662 5.6042 14.281 1.6565 4.7184 3.351 14.821 5.9365 19.102 5.6263 9.3151 20.608 8.1089 27.866 0 2.0403-2.2795 5.6369-7.247 7.6442-9.5556 2.7887-3.2074 10.086-11.535 10.086-11.535 1.4629-2.1582 0.3282-5.4939-0.8007-4.6726l-14.69 5.3904c-1.0085 0.339-1.6661-0.4599-2.0902-1.096-0.3091-0.4636 0.0883-2.0531 0.2066-2.7705 1.3997-7.8137 2.7993-15.627 4.199-23.441 1.195-5.9529-6.1175-8.1404-7.5747-2.0134"/>
<path d="m39.822 32.522 4.0087-21.643c1.8086-7.7501-5.693-10.014-7.6152-1.7771l-3.6586 19.236c-0.7941 3.5808-1.8856 5.1414-3.2721 5.7653-2.3799 1.0711-4.5703-2.4069-5.5939-4.8077l-5.2927-12.413c-3.2362-7.0282-9.7419-3.7315-7.1376 2.7429l7.2784 16.518-1.2882-2.9677-3.1633-7.2934c-2.7812-5.8647-8.75-3.521-6.8125 2.2915 0 0 4.3337 10.662 5.6042 14.281 1.6565 4.7184 3.351 14.821 5.9365 19.102 5.6263 9.3151 20.608 8.1089 27.866 0 2.0403-2.2795 5.6369-7.247 7.6442-9.5556 2.7887-3.2074 10.086-11.535 10.086-11.535 1.4629-2.1582 0.3282-5.4939-0.8007-4.6726l-14.69 5.3904c-1.0085 0.339-1.6661-0.4599-2.0902-1.096-0.3091-0.4636 0.0883-2.0531 0.2066-2.7705 1.3997-7.8137 2.7993-15.627 4.199-23.441 1.195-5.9529-6.1175-8.1404-7.5747-2.0134"/>
</g>
</g>
<g transform="translate(3184.6 895.38)">
<path d="m34 16.112v-2.5109c0-1.3807 1.1193-2.5 2.5-2.5s2.5 1.1193 2.5 2.5v2.5" fill="#d22f27"/>
<path d="m13.5 41.101c-1.3807 0-2.5-1.1193-2.5-2.5v-8c0-1.3807 1.1193-2.5 2.5-2.5s2.5 1.1193 2.5 2.5v8c0 1.3807-1.1193 2.5-2.5 2.5z" fill="#d0cfce"/>
<path d="m58.5 41.101c1.3807 0 2.5-1.1193 2.5-2.5v-8c0-1.3807-1.1193-2.5-2.5-2.5s-2.5 1.1193-2.5 2.5v8c0 1.3807 1.1193 2.5 2.5 2.5z" fill="#d0cfce"/>
<path d="m47.45 56.112h-22.901c-4.7022 0-8.5495-3.8473-8.5495-8.5495v-22.901c0-4.7022 3.8473-8.5495 8.5495-8.5495h22.901c4.7022 0 8.5495 3.8473 8.5495 8.5495v22.901c0 4.7021-3.8473 8.5495-8.5495 8.5495z" fill="#d0cfce"/>
<path d="m35.498 56.112h13.286c3.9687 0 7.2158-3.8473 7.2158-8.5495v-22.901c0-4.7022-3.2471-8.5495-7.2158-8.5495h-2.3526" fill="#9b9b9a"/>
<circle cx="44.835" cy="29.003" r="2.8338" fill="#fff"/>
<circle cx="27.334" cy="29.002" r="2.8338" fill="#fff"/>
<path d="m44.5 47.5h-17c-2.2 0-4-1.8-4-4s1.8-4 4-4h17c2.2 0 4 1.8 4 4s-1.8 4-4 4z" fill="#fff"/>
<g fill="none" stroke="#000">
<path d="m36.5 21.454" stroke-linecap="round" stroke-linejoin="round" stroke-miterlimit="2" stroke-width="2"/>
<path d="m34 16.011v-2.5109c0-1.3807 1.1193-2.5 2.5-2.5v0c1.3807 0 2.5 1.1193 2.5 2.5v2.5" stroke-linecap="round" stroke-linejoin="round" stroke-miterlimit="2" stroke-width="2"/>
<path d="m47.45 56h-22.901c-4.7022 0-8.5495-3.8473-8.5495-8.5495v-22.901c0-4.7022 3.8473-8.5495 8.5495-8.5495h22.901c4.7022 0 8.5495 3.8473 8.5495 8.5495v22.901c0 4.7022-3.8473 8.5495-8.5495 8.5495z" stroke-linecap="round" stroke-linejoin="round" stroke-miterlimit="2" stroke-width="2"/>
<circle cx="44.835" cy="29.002" r="2.8338" stroke-linecap="round" stroke-linejoin="round" stroke-miterlimit="2" stroke-width="2"/>
<circle cx="27.334" cy="29.002" r="2.8338" stroke-linecap="round" stroke-linejoin="round" stroke-miterlimit="2" stroke-width="2"/>
<path d="m44.5 47.5h-17c-2.2 0-4-1.8-4-4s1.8-4 4-4h17c2.2 0 4 1.8 4 4s-1.8 4-4 4z" stroke-miterlimit="2" stroke-width="2"/>
<path d="m13.5 41v0c-1.3807 0-2.5-1.1193-2.5-2.5v-8c0-1.3807 1.1193-2.5 2.5-2.5v0c1.3807 0 2.5 1.1193 2.5 2.5v8c0 1.3807-1.1193 2.5-2.5 2.5z" stroke-linecap="round" stroke-linejoin="round" stroke-miterlimit="2" stroke-width="2"/>
<path d="m58.5 41v0c1.3807 0 2.5-1.1193 2.5-2.5v-8c0-1.3807-1.1193-2.5-2.5-2.5v0c-1.3807 0-2.5 1.1193-2.5 2.5v8c0 1.3807 1.1193 2.5 2.5 2.5z" stroke-linecap="round" stroke-linejoin="round" stroke-miterlimit="2" stroke-width="2"/>
<path d="m36.5 37.5" stroke-miterlimit="10"/>
<path d="m36.5 57.5" stroke-miterlimit="10"/>
<line x1="28" x2="28" y1="40" y2="47" stroke-linecap="round" stroke-linejoin="round" stroke-miterlimit="2" stroke-width="2"/>
<line x1="33" x2="33" y1="40" y2="47" stroke-linecap="round" stroke-linejoin="round" stroke-miterlimit="2" stroke-width="2"/>
<line x1="38" x2="38" y1="40" y2="47" stroke-linecap="round" stroke-linejoin="round" stroke-miterlimit="2" stroke-width="2"/>
<line x1="43" x2="43" y1="40" y2="47" stroke-linecap="round" stroke-linejoin="round" stroke-miterlimit="2" stroke-width="2"/>
</g>
</g>
<g transform="translate(3330.6 895.83)">
<path d="m10.704 26.048a2.6542 2.6542 0 0 1 2.4573-1.947h51.38a1.494 1.494 0 0 1 1.519 1.9413l-5.4283 21.916a2.6939 2.6939 0 0 1-2.4808 1.9418h-51.05a1.5161 1.5161 0 0 1-1.5426-1.947z" fill="#fcea2b"/>
<path d="m60.249 48.614 3.4947-13.428a193.65 193.65 0 0 1-24.953 8.9547 218.03 218.03 0 0 1-28.8 5.76h48.558a1.7112 1.7112 0 0 0 1.7002-1.2862z" fill="#f1b31c"/>
<polygon points="18.929 36.928 10.697 24.1 19.099 24.1 27.376 36.966 16.549 49.9 8.103 49.9"/>
<polygon points="35.74 37.005 27.507 24.1 35.904 24.1 44.186 37.042 33.36 49.9 24.913 49.9"/>
<polygon points="51.682 37.079 43.449 24.1 51.851 24.1 60.128 37.116 49.302 49.9 40.855 49.9"/>
<g fill="none" stroke="#000" stroke-linecap="round" stroke-linejoin="round" stroke-width="2">
<path d="m10.704 26.048a2.6542 2.6542 0 0 1 2.4573-1.947h51.38a1.494 1.494 0 0 1 1.519 1.9413l-5.4283 21.916a2.6939 2.6939 0 0 1-2.4808 1.9418h-51.05a1.5161 1.5161 0 0 1-1.5426-1.947z"/>
<polyline points="14.81 24.1 23.087 36.966 12.26 49.9"/>
<polyline points="31.614 24.1 39.897 37.042 29.07 49.9"/>
<polyline points="47.562 24.1 55.839 37.116 45.012 49.9"/>
</g>
</g>
<g transform="translate(3253.7 895.49)">
<rect x="11" y="16.083" width="50" height="39.833" fill="#d0cfce"/>
<g fill="none" stroke="#000" stroke-linecap="round" stroke-linejoin="round" stroke-miterlimit="10" stroke-width="2">
<rect x="11" y="16.001" width="50" height="39.998"/>
<polyline points="16.329 16.479 16.329 20.854 11 20.854 61 20.854"/>
<line x1="28.833" x2="21.906" y1="30.395" y2="37.322"/>
<line x1="28.833" x2="21.906" y1="44.317" y2="37.39"/>
<line x1="38.184" x2="32.809" y1="28.152" y2="46.25"/>
<line x1="42.159" x2="49.086" y1="44.251" y2="37.324"/>
<line x1="42.159" x2="49.086" y1="30.33" y2="37.257"/>
</g>
</g>
</g>
</svg>
