<?xml version="1.0" encoding="UTF-8" standalone="no"?>
<svg
   xmlns:dc="http://purl.org/dc/elements/1.1/"
   xmlns:cc="http://creativecommons.org/ns#"
   xmlns:rdf="http://www.w3.org/1999/02/22-rdf-syntax-ns#"
   xmlns:svg="http://www.w3.org/2000/svg"
   xmlns="http://www.w3.org/2000/svg"
   xmlns:sodipodi="http://sodipodi.sourceforge.net/DTD/sodipodi-0.dtd"
   xmlns:inkscape="http://www.inkscape.org/namespaces/inkscape"
   width="69.32045mm"
   height="10.244634mm"
   viewBox="0 0 69.32045 10.244634"
   version="1.1"
   id="svg8"
   inkscape:version="1.0.2 (e86c870879, 2021-01-15)"
   sodipodi:docname="logo.svg">
  <defs
     id="defs2" />
  <sodipodi:namedview
     id="base"
     pagecolor="#ffffff"
     bordercolor="#666666"
     borderopacity="1.0"
     inkscape:pageopacity="0.0"
     inkscape:pageshadow="2"
     inkscape:zoom="2.8"
     inkscape:cx="88.461963"
     inkscape:cy="68.127683"
     inkscape:document-units="mm"
     inkscape:current-layer="layer1"
     inkscape:document-rotation="0"
     showgrid="false"
     inkscape:window-width="1864"
     inkscape:window-height="1016"
     inkscape:window-x="56"
     inkscape:window-y="27"
     inkscape:window-maximized="1"
     fit-margin-top="0"
     fit-margin-left="0"
     fit-margin-right="0"
     fit-margin-bottom="0"
     inkscape:showpageshadow="false" />
  <metadata
     id="metadata5">
    <rdf:RDF>
      <cc:Work
         rdf:about="">
        <dc:format>image/svg+xml</dc:format>
        <dc:type
           rdf:resource="http://purl.org/dc/dcmitype/StillImage" />
        <dc:title />
      </cc:Work>
    </rdf:RDF>
  </metadata>
  <g
     inkscape:label="Layer 1"
     inkscape:groupmode="layer"
     id="layer1"
     transform="translate(-94.034599,-104.2912)">
    <path
       d="m 94.034599,109.79452 v -0.65617 l 3.185574,-1.94732 0.391582,0.68791 -2.698742,1.5875 2.698742,1.58749 -0.391582,0.68792 z"
       style="font-style:normal;font-variant:normal;font-weight:bold;font-stretch:normal;font-size:10.5833px;line-height:1.25;font-family:'Ubuntu Condensed';-inkscape-font-specification:'Ubuntu Condensed,  Bold';fill:#000000;fill-opacity:1;stroke:none;stroke-width:0.264583"
       id="path832" />
    <path
       d="m 103.17855,105.2437 q -0.23283,0.35983 -0.52916,0.79375 -0.28575,0.43391 -0.59267,0.89958 -0.30691,0.45508 -0.62441,0.89958 -0.30692,0.4445 -0.59267,0.8255 0.3175,0.31749 0.68792,0.80433 0.37041,0.47625 0.73025,1.01599 0.35983,0.52917 0.67733,1.0795 0.3175,0.55033 0.508,1.016 h -1.06892 q -0.22225,-0.48684 -0.51858,-0.99483 -0.28575,-0.508 -0.61383,-0.97367 -0.3175,-0.47625 -0.65617,-0.87841 -0.32808,-0.40217 -0.645576,-0.67733 v 3.52424 h -0.952497 v -7.33423 h 0.952497 v 3.23849 q 0.275166,-0.34925 0.582086,-0.79375 0.30691,-0.4445 0.60324,-0.88899 0.30692,-0.4445 0.5715,-0.84667 0.26458,-0.41275 0.4445,-0.70908 z"
       style="font-style:normal;font-variant:normal;font-weight:bold;font-stretch:normal;font-size:10.5833px;line-height:1.25;font-family:'Ubuntu Condensed';-inkscape-font-specification:'Ubuntu Condensed,  Bold';fill:#000000;fill-opacity:1;stroke:none;stroke-width:0.264583"
       id="path834" />
    <path
       d="m 108.93585,108.9161 q 0,0.85725 -0.15875,1.56633 -0.14816,0.6985 -0.47625,1.2065 -0.3175,0.49741 -0.81491,0.77258 -0.48683,0.27517 -1.15358,0.27517 -0.66675,0 -1.16416,-0.27517 -0.48684,-0.27517 -0.81492,-0.77258 -0.3175,-0.508 -0.47625,-1.2065 -0.15875,-0.70908 -0.15875,-1.56633 0,-0.85724 0.15875,-1.56632 0.15875,-0.70908 0.47625,-1.2065 0.32808,-0.508 0.81492,-0.78316 0.49741,-0.28575 1.16416,-0.28575 0.66675,0 1.15358,0.28575 0.49741,0.27516 0.81491,0.78316 0.32809,0.49742 0.47625,1.2065 0.15875,0.70908 0.15875,1.56632 z m -1.016,0 q 0,-0.66674 -0.0847,-1.21707 -0.0847,-0.55034 -0.27517,-0.94192 -0.1905,-0.40216 -0.49741,-0.62441 -0.29634,-0.22225 -0.73025,-0.22225 -0.43392,0 -0.74083,0.22225 -0.29633,0.22225 -0.48683,0.62441 -0.1905,0.39158 -0.28575,0.94192 -0.0847,0.55033 -0.0847,1.21707 0,0.66675 0.0847,1.21708 0.0952,0.55034 0.28575,0.94192 0.1905,0.39158 0.48683,0.61383 0.30691,0.21167 0.74083,0.21167 0.43391,0 0.73025,-0.21167 0.30691,-0.22225 0.49741,-0.61383 0.1905,-0.39158 0.27517,-0.94192 0.0847,-0.55033 0.0847,-1.21708 z"
       style="font-style:normal;font-variant:normal;font-weight:bold;font-stretch:normal;font-size:10.5833px;line-height:1.25;font-family:'Ubuntu Condensed';-inkscape-font-specification:'Ubuntu Condensed,  Bold';fill:#000000;fill-opacity:1;stroke:none;stroke-width:0.264583"
       id="path836" />
    <path
       d="m 113.68775,111.76301 v 0.81492 h -3.27024 v -7.33423 h 0.9525 v 6.51931 z"
       style="font-style:normal;font-variant:normal;font-weight:bold;font-stretch:normal;font-size:10.5833px;line-height:1.25;font-family:'Ubuntu Condensed';-inkscape-font-specification:'Ubuntu Condensed,  Bold';fill:#000000;fill-opacity:1;stroke:none;stroke-width:0.264583"
       id="path838" />
    <path
       d="m 118.10098,111.76301 v 0.81492 h -3.27024 v -7.33423 h 0.9525 v 6.51931 z"
       style="font-style:normal;font-variant:normal;font-weight:bold;font-stretch:normal;font-size:10.5833px;line-height:1.25;font-family:'Ubuntu Condensed';-inkscape-font-specification:'Ubuntu Condensed,  Bold';fill:#000000;fill-opacity:1;stroke:none;stroke-width:0.264583"
       id="path840" />
    <path
       d="m 119.24398,105.2437 h 0.95249 v 7.33423 h -0.95249 z"
       style="font-style:normal;font-variant:normal;font-weight:bold;font-stretch:normal;font-size:10.5833px;line-height:1.25;font-family:'Ubuntu Condensed';-inkscape-font-specification:'Ubuntu Condensed,  Bold';fill:#000000;fill-opacity:1;stroke:none;stroke-width:0.264583"
       id="path842" />
    <path
       d="m 125.44579,105.2437 v 0.81491 h -1.62983 v 6.51932 h -0.9525 v -6.51932 h -1.62983 v -0.81491 z"
       style="font-style:normal;font-variant:normal;font-weight:bold;font-stretch:normal;font-size:10.5833px;line-height:1.25;font-family:'Ubuntu Condensed';-inkscape-font-specification:'Ubuntu Condensed,  Bold';fill:#000000;fill-opacity:1;stroke:none;stroke-width:0.264583"
       id="path844" />
    <path
       d="m 127.3931,111.92176 q 0.5715,0 0.87841,-0.3175 0.3175,-0.3175 0.3175,-0.85724 0,-0.28575 -0.0952,-0.508 -0.0953,-0.22225 -0.254,-0.40217 -0.14816,-0.17991 -0.34925,-0.32808 -0.20108,-0.14817 -0.41275,-0.29633 -0.24341,-0.16934 -0.50799,-0.35983 -0.26459,-0.1905 -0.48684,-0.4445 -0.21166,-0.254 -0.34924,-0.59267 -0.13759,-0.33866 -0.13759,-0.79375 0,-0.44449 0.14817,-0.80433 0.15875,-0.35983 0.42333,-0.61383 0.27517,-0.254 0.64558,-0.39158 0.381,-0.13758 0.81492,-0.13758 0.42333,0 0.78316,0.10583 0.35983,0.10583 0.60325,0.254 l -0.29633,0.75141 q -0.22225,-0.14816 -0.48684,-0.22225 -0.254,-0.0847 -0.53974,-0.0847 -0.51859,0 -0.83609,0.28575 -0.30691,0.27516 -0.30691,0.81491 0,0.29633 0.0953,0.51858 0.10583,0.22225 0.26458,0.40217 0.16933,0.17991 0.381,0.32808 0.22225,0.14817 0.46567,0.30692 0.24341,0.15875 0.49741,0.34925 0.254,0.19049 0.45508,0.44449 0.21167,0.24342 0.33867,0.58209 0.13758,0.32808 0.13758,0.78316 0,0.41275 -0.127,0.78316 -0.127,0.37042 -0.40216,0.65617 -0.26459,0.27516 -0.67734,0.4445 -0.40216,0.15875 -0.95249,0.15875 -0.508,0 -0.889,-0.11642 -0.381,-0.11642 -0.67733,-0.30692 l 0.29633,-0.76199 q 0.27517,0.16933 0.56092,0.27516 0.29633,0.0953 0.67733,0.0953 z"
       style="font-style:normal;font-variant:normal;font-weight:bold;font-stretch:normal;font-size:10.5833px;line-height:1.25;font-family:'Ubuntu Condensed';-inkscape-font-specification:'Ubuntu Condensed,  Bold';fill:#000000;fill-opacity:1;stroke:none;stroke-width:0.264583"
       id="path846" />
    <path
       d="m 133.18214,112.73668 q -1.29116,0 -1.97908,-0.96308 -0.68791,-0.96308 -0.68791,-2.97391 0,-1.02658 0.1905,-1.73566 0.20108,-0.70908 0.55033,-1.15358 0.34925,-0.4445 0.8255,-0.635 0.47625,-0.20108 1.03716,-0.20108 0.46567,0 0.86783,0.127 0.40217,0.11641 0.65617,0.29633 l -0.28575,0.79375 q -0.254,-0.16934 -0.55034,-0.27517 -0.28574,-0.10583 -0.66674,-0.10583 -0.84667,0 -1.22767,0.70908 -0.38099,0.6985 -0.38099,2.18016 0,1.49224 0.40216,2.29657 0.40217,0.80434 1.31233,0.80434 0.43392,0 0.6985,-0.10584 0.27516,-0.10583 0.52916,-0.27516 l 0.26459,0.75141 q -0.24342,0.1905 -0.64559,0.32808 -0.39158,0.13759 -0.91016,0.13759 z"
       style="font-style:normal;font-variant:normal;font-weight:bold;font-stretch:normal;font-size:10.5833px;line-height:1.25;font-family:'Ubuntu Condensed';-inkscape-font-specification:'Ubuntu Condensed,  Bold';fill:#000000;fill-opacity:1;stroke:none;stroke-width:0.264583"
       id="path848" />
    <path
       d="m 139.15112,105.2437 h 0.9525 v 7.33423 h -0.9525 v -3.40783 h -2.41299 v 3.40783 h -0.9525 v -7.33423 h 0.9525 v 3.10091 h 2.41299 z"
       style="font-style:normal;font-variant:normal;font-weight:bold;font-stretch:normal;font-size:10.5833px;line-height:1.25;font-family:'Ubuntu Condensed';-inkscape-font-specification:'Ubuntu Condensed,  Bold';fill:#000000;fill-opacity:1;stroke:none;stroke-width:0.264583"
       id="path850" />
    <path
       d="m 142.85526,112.09109 q 0,0.24342 -0.17992,0.43392 -0.16933,0.1905 -0.45508,0.1905 -0.28575,0 -0.45508,-0.1905 -0.16934,-0.1905 -0.16934,-0.43392 0,-0.25399 0.16934,-0.44449 0.16933,-0.1905 0.45508,-0.1905 0.28575,0 0.45508,0.1905 0.17992,0.1905 0.17992,0.44449 z"
       style="font-style:normal;font-variant:normal;font-weight:bold;font-stretch:normal;font-size:10.5833px;line-height:1.25;font-family:'Ubuntu Condensed';-inkscape-font-specification:'Ubuntu Condensed,  Bold';fill:#000000;fill-opacity:1;stroke:none;stroke-width:0.264583"
       id="path852" />
    <path
       d="m 148.96181,108.90552 q 0,1.02658 -0.22225,1.74625 -0.21167,0.70908 -0.62442,1.15358 -0.40216,0.44449 -0.98425,0.64558 -0.57149,0.20108 -1.28057,0.20108 -0.71967,0 -1.524,-0.1905 v -7.11198 q 0.40217,-0.0847 0.78316,-0.13758 0.381,-0.0529 0.73025,-0.0529 0.71967,0 1.29116,0.20109 0.58209,0.20108 0.98425,0.64558 0.41275,0.4445 0.62442,1.16416 0.22225,0.70908 0.22225,1.73566 z m -1.016,0 q 0,-0.78316 -0.11642,-1.33349 -0.11641,-0.55034 -0.35983,-0.89958 -0.24342,-0.34925 -0.64558,-0.508 -0.39158,-0.15875 -0.94191,-0.15875 -0.14817,0 -0.29634,0.0106 -0.14816,0.0106 -0.30691,0.0318 v 5.71498 q 0.15875,0.0212 0.30691,0.0318 0.14817,0.0106 0.28575,0.0106 0.56092,0 0.9525,-0.15875 0.39158,-0.15875 0.635,-0.49742 0.254,-0.34925 0.37041,-0.89958 0.11642,-0.55033 0.11642,-1.34408 z"
       style="font-style:normal;font-variant:normal;font-weight:bold;font-stretch:normal;font-size:10.5833px;line-height:1.25;font-family:'Ubuntu Condensed';-inkscape-font-specification:'Ubuntu Condensed,  Bold';fill:#000000;fill-opacity:1;stroke:none;stroke-width:0.264583"
       id="path854" />
    <path
       d="m 150.43287,112.57793 v -7.33423 h 3.2914 v 0.81491 h -2.33891 v 2.27541 h 2.11666 v 0.79375 h -2.11666 v 2.63524 h 2.50825 v 0.81492 z"
       style="font-style:normal;font-variant:normal;font-weight:bold;font-stretch:normal;font-size:10.5833px;line-height:1.25;font-family:'Ubuntu Condensed';-inkscape-font-specification:'Ubuntu Condensed,  Bold';fill:#000000;fill-opacity:1;stroke:none;stroke-width:0.264583"
       id="path856" />
    <path
       d="m 157.00508,114.53584 h -0.84666 l 2.56116,-10.24464 h 0.84666 z"
       style="font-style:normal;font-variant:normal;font-weight:bold;font-stretch:normal;font-size:10.5833px;line-height:1.25;font-family:'Ubuntu Condensed';-inkscape-font-specification:'Ubuntu Condensed,  Bold';fill:#000000;fill-opacity:1;stroke:none;stroke-width:0.264583"
       id="path858" />
    <path
       d="m 160.16948,111.74185 -0.39159,-0.68792 2.69874,-1.58749 -2.69874,-1.5875 0.39159,-0.68791 3.18557,1.94732 v 0.65617 z"
       style="font-style:normal;font-variant:normal;font-weight:bold;font-stretch:normal;font-size:10.5833px;line-height:1.25;font-family:'Ubuntu Condensed';-inkscape-font-specification:'Ubuntu Condensed,  Bold';fill:#000000;fill-opacity:1;stroke:none;stroke-width:0.264583"
       id="path860" />
  </g>
</svg>
